<svg width="231" height="131" viewBox="0 0 231 131" fill="none" xmlns="http://www.w3.org/2000/svg">
<path d="M131.665 31.1704C132.328 31.1704 132.867 31.7099 132.867 32.3723V81.0658C132.867 81.7283 132.328 82.2677 131.665 82.2677H99.1335C98.4711 82.2677 97.9316 81.7283 97.9316 81.0658V32.3723C97.9316 31.7099 98.4711 31.1704 99.1335 31.1704H131.665Z" fill="#B8BCC1"/>
<path d="M125.446 61.9731V73.7037L121.305 72.1153V69.3025L125.446 61.9731Z" fill="black"/>
<path d="M111.292 61.6853V64.4755L109.425 63.7629L105.352 62.2072L109.425 60.9727L111.292 61.6853Z" fill="black"/>
<path d="M111.418 75.8859V67.608L105.227 65.2469V73.5247L101.233 72.0016V52.2241L105.227 53.7497V62.2986L111.418 64.6597V56.1084L115.244 57.5687V77.3437L111.418 75.8859Z" fill="white"/>
<path d="M101.358 52.4058L105.101 53.8335V62.3823L105.262 62.4451L109.332 64.0008L111.201 64.7134L111.542 64.8439V56.29L115.118 57.655V77.1615L111.542 75.799V67.5212L111.382 67.4584L109.513 66.7458L105.443 65.1926L105.101 65.0622V73.34L101.358 71.9123V52.4058ZM101.114 52.0444H101.107V72.0854L105.352 73.7064V65.4285L109.422 66.9817L111.292 67.6943V75.9722L115.369 77.5279V57.4844L111.297 55.9287H111.292V64.48L109.422 63.7674L105.352 62.2117V53.6629L101.114 52.0444Z" fill="black"/>
<path d="M109.425 66.976V72.1399L105.352 73.7031V65.4253L109.425 66.976Z" fill="black"/>
<path d="M109.424 52.0738V52.1115L105.372 53.6647H105.369L105.352 53.6571L101.114 52.0412L105.347 50.5156L105.352 50.5181L109.424 52.0738Z" fill="black"/>
<path d="M109.425 52.1133V60.9733L105.352 62.2078V53.674L105.37 53.6665H105.372L109.425 52.1133Z" fill="black"/>
<path d="M129.678 52.0443L125.447 53.6577H125.445L121.322 52.077L125.445 50.4962L125.45 50.4937L129.678 52.0443Z" fill="black"/>
<path d="M119.502 55.9258L115.399 57.489L115.372 57.4765L111.297 55.9233L115.372 54.3601L115.387 54.3525L119.502 55.9258Z" fill="black"/>
<path d="M115.496 57.5909L119.416 56.0954L121.275 62.9204L125.536 53.7593L129.568 52.2212V71.9987L125.571 73.5218V61.4952L121.323 69.0203L119.376 64.4887V75.8854L115.496 77.3659V57.5909Z" fill="white"/>
<path d="M129.442 52.4032V71.9098L125.696 73.3375V61.0148L125.227 61.8479L121.338 68.7356L119.732 64.9994L119.25 63.8778V75.7965L115.622 77.1816V57.6751L119.33 56.2599L121.064 62.6232L121.245 63.2856L121.533 62.6634L125.628 53.8586L129.44 52.4032M129.678 52.0444L125.448 53.6604L121.31 62.558L119.516 55.9789L119.503 55.9287L115.403 57.4944L115.373 57.4819V77.5254L115.403 77.5379L119.503 75.9722V65.0998L121.31 69.3027L125.448 61.9733V73.7038L129.696 72.0829V52.0494L129.681 52.0444H129.678Z" fill="black"/>
<path d="M125.446 53.6584L121.306 62.5561L119.514 55.9769L119.532 55.9393L119.547 55.9092L121.324 52.0776L125.446 53.6584Z" fill="black"/>
<path d="M122.601 49.6076H103.848L114.733 36.7856L117.044 40.5494L113.418 42.3636L117.766 43.1966L112.168 45.3696H120.002L122.601 49.6076Z" fill="black"/>
<path d="M115.305 36.5977L123.334 49.4975L125.949 47.8815L115.305 36.5977Z" fill="black"/>
<path d="M131.665 31.169C132.328 31.169 132.867 31.7085 132.867 32.3709V81.0645C132.867 81.7269 132.328 82.2664 131.665 82.2664H99.1334C98.471 82.2664 97.9315 81.7269 97.9315 81.0645V32.3709C97.9315 31.7085 98.471 31.169 99.1334 31.169H131.665ZM131.665 29.4126H99.1334C97.4999 29.4126 96.175 30.7375 96.175 32.3709V81.0645C96.175 82.698 97.4999 84.0228 99.1334 84.0228H131.665C133.299 84.0228 134.624 82.698 134.624 81.0645V32.3709C134.624 30.7375 133.299 29.4126 131.665 29.4126Z" fill="black"/>
<path d="M82.2339 101.433H79.5866V96.8184H75.6623V101.433H73V90.3848H75.6623V94.7708H79.5866V90.3848H82.2339V101.433Z" fill="black"/>
<path d="M87.7269 90.3848L90.1934 98.073L92.6525 90.3848H96.1578V101.433H93.4855V98.8533L93.744 93.5714L91.0717 101.433H89.3102L86.6304 93.5639L86.8888 98.8533V101.433H84.2266V90.3848H87.7244H87.7269Z" fill="black"/>
<path d="M111.386 100.068C110.977 100.522 110.378 100.891 109.587 101.167C108.797 101.445 107.934 101.583 106.993 101.583C105.545 101.583 104.391 101.142 103.525 100.256C102.659 99.3702 102.198 98.1382 102.137 96.5599L102.13 95.6039C102.13 94.5174 102.323 93.5664 102.707 92.7535C103.091 91.9405 103.64 91.3157 104.358 90.8791C105.073 90.4425 105.901 90.2217 106.842 90.2217C108.217 90.2217 109.286 90.5378 110.049 91.1676C110.809 91.7975 111.253 92.7384 111.381 93.9855H108.817C108.727 93.3682 108.528 92.9291 108.225 92.6656C107.921 92.4022 107.492 92.2717 106.935 92.2717C106.268 92.2717 105.751 92.5552 105.387 93.1223C105.023 93.6894 104.837 94.4974 104.832 95.5512V96.2187C104.832 97.3227 105.02 98.1508 105.397 98.7028C105.773 99.2573 106.368 99.5333 107.176 99.5333C107.868 99.5333 108.385 99.3803 108.724 99.0716V97.3578H106.872V95.5286H111.386V100.065V100.068Z" fill="black"/>
<path d="M118.284 97.5259H116.841V101.433H114.179V90.3848H118.527C119.837 90.3848 120.861 90.6758 121.601 91.2555C122.339 91.8376 122.71 92.6581 122.71 93.7195C122.71 94.4873 122.554 95.1246 122.243 95.629C121.932 96.1333 121.445 96.5448 120.783 96.856L123.089 101.317V101.43H120.236L118.286 97.5234L118.284 97.5259ZM116.841 95.4759H118.525C119.031 95.4759 119.41 95.3429 119.666 95.077C119.922 94.811 120.05 94.4396 120.05 93.9629C120.05 93.4861 119.922 93.1123 119.664 92.8413C119.405 92.5703 119.026 92.4348 118.525 92.4348H116.841V95.4784V95.4759Z" fill="black"/>
<path d="M134.915 96.1371C134.915 97.2135 134.715 98.167 134.316 98.9975C133.917 99.8281 133.347 100.465 132.612 100.915C131.877 101.361 131.036 101.587 130.095 101.587C129.154 101.587 128.319 101.371 127.591 100.937C126.863 100.506 126.294 99.8858 125.887 99.0829C125.481 98.2774 125.265 97.3565 125.245 96.3127V95.6904C125.245 94.609 125.443 93.6529 125.84 92.8249C126.236 91.9969 126.806 91.3595 127.546 90.9079C128.286 90.4587 129.132 90.2329 130.078 90.2329C131.024 90.2329 131.849 90.4562 132.582 90.9004C133.314 91.3445 133.887 91.9793 134.293 92.8023C134.7 93.6253 134.905 94.5663 134.91 95.6302V96.1396L134.915 96.1371ZM132.208 95.6754C132.208 94.5788 132.025 93.7433 131.658 93.1762C131.292 92.6066 130.768 92.3231 130.083 92.3231C128.748 92.3231 128.043 93.3242 127.965 95.3291L127.957 96.1421C127.957 97.2235 128.138 98.0566 128.497 98.6387C128.856 99.2209 129.39 99.5119 130.098 99.5119C130.805 99.5119 131.29 99.2259 131.653 98.6538C132.017 98.0817 132.203 97.2612 132.208 96.1872V95.6779V95.6754Z" fill="black"/>
<path d="M146.199 90.3848V97.6163C146.199 98.4368 146.023 99.1444 145.674 99.7441C145.325 100.344 144.824 100.8 144.171 101.114C143.519 101.428 142.746 101.586 141.858 101.586C140.513 101.586 139.451 101.237 138.678 100.539C137.906 99.8419 137.509 98.8859 137.494 97.6715V90.3873H140.174V97.7242C140.204 98.9336 140.766 99.5383 141.858 99.5383C142.41 99.5383 142.826 99.3878 143.11 99.0842C143.393 98.7805 143.534 98.2862 143.534 97.6037V90.3873H146.196L146.199 90.3848Z" fill="black"/>
<path d="M151.766 97.684V101.433H149.104V90.3848H153.512C154.358 90.3848 155.106 90.5403 155.755 90.8515C156.405 91.1626 156.91 91.6042 157.266 92.1788C157.622 92.7534 157.8 93.4033 157.8 94.1335C157.8 95.21 157.414 96.0731 156.644 96.718C155.873 97.3628 154.814 97.6865 153.467 97.6865H151.768L151.766 97.684ZM151.766 95.629H153.512C154.029 95.629 154.42 95.501 154.691 95.2426C154.962 94.9841 155.098 94.6203 155.098 94.1511C155.098 93.6342 154.96 93.2227 154.681 92.914C154.403 92.6054 154.024 92.4498 153.542 92.4423H151.766V95.629Z" fill="black"/>
</svg>
