<svg width="231" height="131" viewBox="0 0 231 131" fill="none" xmlns="http://www.w3.org/2000/svg">
<path d="M66.0429 80.7142L68.1195 77.6841H68.5575L66.2215 81.1093V82.9226H65.8563V81.1093L63.5203 77.6841H63.9583L66.0429 80.7142Z" fill="white" stroke="#E0E0E0" stroke-miterlimit="10"/>
<path d="M72.9131 82.979C72.4319 82.979 71.9855 82.8594 71.5748 82.6205C71.1637 82.3816 70.8393 82.0562 70.6012 81.6454C70.3632 81.2345 70.2444 80.7871 70.2444 80.3035C70.2444 79.8198 70.3632 79.3728 70.6012 78.9616C70.8393 78.5507 71.1637 78.2257 71.5748 77.9864C71.9855 77.7476 72.4319 77.6279 72.9131 77.6279C73.3944 77.6279 73.8403 77.7476 74.2515 77.9864C74.6622 78.2257 74.987 78.5507 75.225 78.9616C75.4631 79.3724 75.5819 79.8198 75.5819 80.3035C75.5819 80.7871 75.4631 81.2341 75.225 81.6454C74.987 82.0562 74.6626 82.3816 74.2515 82.6205C73.8403 82.8598 73.3944 82.979 72.9131 82.979ZM72.9131 77.9986C72.4969 77.9986 72.1127 78.1021 71.7614 78.3087C71.4096 78.5157 71.13 78.7951 70.9217 79.1469C70.7133 79.4987 70.6096 79.8844 70.6096 80.3035C70.6096 80.7226 70.7137 81.1082 70.9217 81.46C71.1296 81.8118 71.4096 82.0912 71.7614 82.2982C72.1127 82.5052 72.4969 82.6083 72.9131 82.6083C73.3294 82.6083 73.7132 82.5048 74.0649 82.2982C74.4162 82.0916 74.6947 81.8118 74.9002 81.46C75.1058 81.1082 75.2084 80.7226 75.2084 80.3035C75.2084 79.8844 75.1058 79.4991 74.9002 79.1469C74.6947 78.7951 74.4162 78.5157 74.0649 78.3087C73.7132 78.1021 73.3294 77.9986 72.9131 77.9986Z" fill="white" stroke="#E0E0E0" stroke-miterlimit="10"/>
<path d="M79.9859 82.979C79.7209 82.979 79.4655 82.9266 79.2195 82.822C78.9736 82.7173 78.7557 82.5681 78.5664 82.3745C78.3771 82.1919 78.2325 81.9771 78.1323 81.7299C78.0321 81.4828 77.9822 81.2223 77.9822 80.9484V77.6846H78.3474V80.9484C78.3474 81.1739 78.3893 81.3892 78.4729 81.593C78.5565 81.7972 78.6741 81.9747 78.8258 82.125C78.9827 82.2809 79.1609 82.4005 79.3613 82.4835C79.5613 82.567 79.7697 82.6083 79.9859 82.6083C80.2022 82.6083 80.4184 82.5666 80.6185 82.4835C80.8185 82.4001 80.9967 82.2809 81.1539 82.125C81.3052 81.9747 81.4229 81.7972 81.5068 81.593C81.5908 81.3888 81.6324 81.1739 81.6324 80.9484V77.6846H81.9976V80.9484C81.9976 81.2223 81.9477 81.4832 81.8475 81.7299C81.7473 81.9771 81.6027 82.1919 81.4134 82.3745C81.224 82.5681 81.0078 82.7169 80.7646 82.822C80.5214 82.9266 80.2616 82.979 79.9859 82.979Z" fill="white" stroke="#E0E0E0" stroke-miterlimit="10"/>
<path d="M87.8135 82.9226L85.6236 80.2793H86.2723C86.6724 80.2793 86.9968 80.2282 87.2459 80.1263C87.4297 80.0405 87.5893 79.9102 87.7243 79.7355C87.8594 79.5608 87.9271 79.3687 87.9271 79.1594C87.9271 78.9713 87.8705 78.7926 87.7568 78.6234C87.6432 78.4542 87.4812 78.3161 87.27 78.2082C87.0593 78.1008 86.8157 78.0469 86.5401 78.0469H85.0639V82.9226H84.6987V77.6841H86.5401C86.7888 77.6841 87.0213 77.723 87.2376 77.801C87.4538 77.8789 87.6432 77.9902 87.8055 78.1354C87.9624 78.2751 88.0828 78.4337 88.1664 78.6108C88.2503 78.7879 88.2919 78.9709 88.2919 79.159C88.2919 79.4545 88.2028 79.719 88.0242 79.9527C87.8455 80.1865 87.6348 80.3545 87.3916 80.4564C87.2241 80.5316 87.0605 80.5788 86.9009 80.5973C86.7413 80.6162 86.5726 80.6256 86.3939 80.6256L88.3002 82.9226H87.8135Z" fill="white" stroke="#E0E0E0" stroke-miterlimit="10"/>
<path d="M94.8374 82.9226V77.6841H98.2524V78.0548H95.2026V80.118H97.579V80.4887H95.2026V82.5436H98.2524V82.9222H94.8374V82.9226Z" fill="white" stroke="#E0E0E0" stroke-miterlimit="10"/>
<path d="M102.973 82.1084L104.969 77.6841H105.374L102.973 83.0111L100.581 77.6841H100.978L102.974 82.1084H102.973Z" fill="white" stroke="#E0E0E0" stroke-miterlimit="10"/>
<path d="M107.734 82.9226V77.6841H111.149V78.0548H108.1V80.118H110.476V80.4887H108.1V82.5436H111.149V82.9222H107.734V82.9226Z" fill="white" stroke="#E0E0E0" stroke-miterlimit="10"/>
<path d="M116.868 82.9226L114.678 80.2793H115.327C115.727 80.2793 116.051 80.2282 116.3 80.1263C116.484 80.0405 116.643 79.9102 116.779 79.7355C116.914 79.5608 116.981 79.3687 116.981 79.1594C116.981 78.9713 116.925 78.7926 116.811 78.6234C116.697 78.4542 116.535 78.3161 116.324 78.2082C116.114 78.1008 115.87 78.0469 115.594 78.0469H114.118V82.9226H113.753V77.6841H115.594C115.843 77.6841 116.076 77.723 116.292 77.801C116.508 77.8789 116.697 77.9902 116.86 78.1354C117.017 78.2751 117.137 78.4337 117.221 78.6108C117.305 78.7879 117.346 78.9709 117.346 79.159C117.346 79.4545 117.257 79.719 117.078 79.9527C116.9 80.1865 116.689 80.3545 116.446 80.4564C116.278 80.5316 116.115 80.5788 115.955 80.5973C115.795 80.6162 115.627 80.6256 115.448 80.6256L117.354 82.9226H116.868Z" fill="white" stroke="#E0E0E0" stroke-miterlimit="10"/>
<path d="M121.832 80.7142L123.909 77.6841H124.347L122.011 81.1093V82.9226H121.645V81.1093L119.309 77.6841H119.747L121.832 80.7142Z" fill="white" stroke="#E0E0E0" stroke-miterlimit="10"/>
<path d="M128.167 82.9226H126.65V77.6841H128.167C128.54 77.6841 128.886 77.7526 129.205 77.8895C129.524 78.0264 129.8 78.2212 130.032 78.4739C130.254 78.7155 130.424 78.9925 130.543 79.3038C130.662 79.6155 130.722 79.946 130.722 80.2951C130.722 80.6441 130.663 80.9747 130.543 81.2864C130.424 81.598 130.254 81.8774 130.032 82.1245C129.8 82.3823 129.524 82.5798 129.205 82.7168C128.886 82.8537 128.54 82.9222 128.167 82.9222V82.9226ZM127.015 82.5598H128.167C128.821 82.5598 129.354 82.3315 129.765 81.8747C129.954 81.6704 130.099 81.4327 130.199 81.1616C130.299 80.8905 130.349 80.6016 130.349 80.2951C130.349 79.9885 130.299 79.7083 130.199 79.4368C130.099 79.1657 129.954 78.928 129.765 78.7238C129.348 78.2779 128.816 78.0548 128.167 78.0548H127.015V82.5598Z" fill="white" stroke="#E0E0E0" stroke-miterlimit="10"/>
<path d="M133.439 81.5931L132.814 82.9228H132.409L134.891 77.6201L137.235 82.9228H136.838L136.245 81.5931H133.439ZM134.875 78.5146L133.609 81.2303H136.083L134.875 78.5146Z" fill="white" stroke="#E0E0E0" stroke-miterlimit="10"/>
<path d="M140.942 80.7142L143.019 77.6841H143.457L141.121 81.1093V82.9226H140.756V81.1093L138.42 77.6841H138.858L140.942 80.7142Z" fill="white" stroke="#E0E0E0" stroke-miterlimit="10"/>
<path d="M153.137 80.6705C153.313 80.8987 153.401 81.1581 153.401 81.4481C153.401 81.6362 153.359 81.8204 153.276 82.0002C153.192 82.1804 153.072 82.3402 152.915 82.4795C152.752 82.6192 152.562 82.7282 152.343 82.8057C152.124 82.8836 151.892 82.9226 151.649 82.9226H149.71L149.718 77.6841H151.227C151.719 77.6841 152.111 77.821 152.403 78.0949C152.538 78.2185 152.642 78.3609 152.715 78.5219C152.788 78.6828 152.824 78.8497 152.824 79.0217C152.824 79.2365 152.774 79.4325 152.674 79.61C152.574 79.7874 152.451 79.9244 152.305 80.0208L152.232 80.0692C152.335 80.1015 152.424 80.1337 152.5 80.166C152.749 80.2734 152.961 80.4415 153.137 80.6697L153.137 80.6705ZM150.083 79.9653H151.211C151.357 79.9653 151.479 79.9574 151.576 79.9413C151.673 79.9252 151.771 79.8984 151.868 79.8606C152.008 79.8016 152.142 79.6993 152.269 79.5545C152.397 79.4093 152.46 79.2322 152.46 79.0224C152.46 78.856 152.412 78.699 152.318 78.551C152.224 78.4034 152.083 78.2838 151.896 78.1925C151.71 78.1012 151.487 78.0556 151.227 78.0556H150.083V79.9657V79.9653ZM152.379 82.3992C152.59 82.2918 152.752 82.1533 152.866 81.9841C152.979 81.8148 153.036 81.6362 153.036 81.4481C153.036 81.2383 152.97 81.0491 152.837 80.8798C152.704 80.7106 152.546 80.5859 152.363 80.5052C152.103 80.3923 151.776 80.336 151.381 80.336H150.083V82.5602H151.648C151.924 82.5602 152.168 82.5067 152.378 82.3988L152.379 82.3992Z" fill="white" stroke="#E0E0E0" stroke-miterlimit="10"/>
<path d="M156.386 81.5931L155.761 82.9228H155.356L157.838 77.6201L160.182 82.9228H159.785L159.192 81.5931H156.386ZM157.822 78.5146L156.556 81.2303H159.03L157.822 78.5146Z" fill="white" stroke="#E0E0E0" stroke-miterlimit="10"/>
<path d="M165.657 82.9226L163.467 80.2793H164.116C164.516 80.2793 164.84 80.2282 165.089 80.1263C165.273 80.0405 165.433 79.9102 165.568 79.7355C165.703 79.5608 165.77 79.3687 165.77 79.1594C165.77 78.9713 165.714 78.7926 165.6 78.6234C165.486 78.4542 165.324 78.3161 165.113 78.2082C164.903 78.1008 164.659 78.0469 164.383 78.0469H162.907V82.9226H162.542V77.6841H164.383C164.632 77.6841 164.865 77.723 165.081 77.801C165.297 77.8789 165.486 77.9902 165.649 78.1354C165.806 78.2751 165.926 78.4337 166.01 78.6108C166.094 78.7879 166.135 78.9709 166.135 79.159C166.135 79.4545 166.046 79.719 165.867 79.9527C165.689 80.1865 165.478 80.3545 165.235 80.4564C165.067 80.5316 164.904 80.5788 164.744 80.5973C164.585 80.6162 164.416 80.6256 164.237 80.6256L166.143 82.9226H165.657Z" fill="white" stroke="#E0E0E0" stroke-miterlimit="10"/>
<path fill-rule="evenodd" clip-rule="evenodd" d="M144.191 48.2163C144.343 48.3462 144.476 48.5122 144.65 48.6004C145.822 49.1942 146.41 50.1599 146.413 51.442C146.424 57.7033 146.445 63.9645 146.394 70.2254C146.379 72.0313 144.944 73.263 143.122 73.2642C138.387 73.2665 133.651 73.2642 128.915 73.2642H127.777C127.754 72.7782 127.718 72.3787 127.718 71.9789C127.714 64.5753 127.716 57.172 127.713 49.7683C127.713 49.2509 127.684 48.7338 127.669 48.2167H144.191L144.191 48.2163ZM135.494 54.7778V66.9376C135.957 66.9376 136.295 66.9435 136.633 66.9364C138.733 66.8958 138.523 67.3445 138.529 65.1053C138.537 62.0327 138.531 58.9602 138.531 55.8876V54.7774H135.494V54.7778Z" fill="white"/>
<path fill-rule="evenodd" clip-rule="evenodd" d="M122.649 48.2162C123.083 48.546 123.662 48.7911 123.915 49.2248C124.318 49.9119 124.735 50.7225 124.743 51.4848C124.809 57.6461 124.79 63.8086 124.775 69.9707C124.77 72.0729 123.491 73.2904 121.364 73.2908C116.59 73.2924 111.817 73.2814 107.043 73.3011C106.371 73.3038 106.043 73.1881 106.045 72.4054C106.066 64.5126 106.052 56.619 106.051 48.7258C106.051 48.5558 106.101 48.3858 106.127 48.2158H122.649L122.649 48.2162ZM113.898 66.9363C114.709 66.9363 115.472 66.9941 116.215 66.9017C116.444 66.8733 116.795 66.4377 116.797 66.1854C116.836 62.6615 116.834 59.1371 116.8 55.6128C116.799 55.3779 116.484 54.9651 116.282 54.945C115.505 54.8663 114.715 54.9131 113.898 54.9131V66.9363Z" fill="white"/>
<path fill-rule="evenodd" clip-rule="evenodd" d="M79.3573 48.2162C81.3178 49.0611 81.7385 50.6151 81.7032 52.6075C81.6022 58.3477 81.6533 64.0904 81.643 69.8326C81.6386 72.1229 80.4912 73.253 78.1801 73.2523C73.512 73.2515 68.8442 73.2519 64.1765 73.2515H63.0707C63.0307 72.9229 62.9705 72.6616 62.9705 72.4003C62.9645 64.5783 62.9645 56.756 62.9677 48.934C62.9677 48.6947 63.0176 48.4551 63.0437 48.2158H79.3569L79.3573 48.2162ZM73.8134 66.88C73.8134 62.9865 73.8217 59.1871 73.7888 55.3885C73.7873 55.1941 73.4447 54.8533 73.2391 54.8364C72.4549 54.7707 71.6615 54.81 70.7917 54.81V66.8804H73.813L73.8134 66.88Z" fill="white"/>
<path fill-rule="evenodd" clip-rule="evenodd" d="M100.272 48.2163C101.444 55.4716 102.626 62.7257 103.772 69.985C103.895 70.7626 103.772 71.5752 103.818 72.3685C103.854 73.0048 103.55 73.2681 102.967 73.2705C100.878 73.2783 98.788 73.2984 96.7007 73.237C96.4516 73.2295 96.0594 72.7786 96.0032 72.4822C95.7838 71.3288 95.6428 70.1577 95.5346 68.9874C95.48 68.3932 95.2843 68.1173 94.6435 68.1531C93.8497 68.1972 93.0513 68.1638 92.1411 68.1638C91.9819 69.5773 91.802 70.9648 91.6808 72.3579C91.629 72.9517 91.3703 73.2626 90.7873 73.2649C88.5645 73.2744 86.3414 73.2689 83.9772 73.2689C83.9772 71.7023 83.7851 70.2014 84.0105 68.7651C85.001 62.444 86.1108 56.1414 87.1826 49.8333C87.2745 49.291 87.4028 48.755 87.5141 48.2163H100.272ZM92.7558 61.7691C93.1776 61.8277 93.4838 61.8887 93.7927 61.9096C94.9603 61.9883 95.0229 61.9131 94.891 60.7263C94.7346 59.3171 94.5817 57.9075 94.4292 56.4975C94.3848 56.0851 94.3904 55.6605 94.2858 55.2642C94.2391 55.0871 93.9959 54.9164 93.8038 54.8447C93.7282 54.8164 93.445 55.0561 93.4299 55.1926C93.1927 57.3436 92.9831 59.4981 92.7558 61.7691Z" fill="white"/>
<path fill-rule="evenodd" clip-rule="evenodd" d="M168.034 52.1646C167.072 54.4179 166.105 56.6692 165.151 58.926C164.841 59.6591 164.638 60.445 164.264 61.1419C162.445 64.5293 161.681 68.1131 162.15 71.9314C162.279 72.9825 161.883 73.3382 160.833 73.3095C158.72 73.2517 156.604 73.2926 154.357 73.2926C154.357 71.3655 154.407 69.5719 154.335 67.7833C154.302 66.977 154.144 66.1349 153.844 65.3868C152.226 61.3371 150.6 57.289 148.862 53.2889C148.132 51.6077 148.211 49.9373 148.374 48.2168H156.112C156.704 51.468 157.296 54.7193 157.888 57.9705C158.045 57.9709 158.201 57.9717 158.358 57.9721C159.074 54.7205 159.789 51.4684 160.504 48.2168H168.033V52.165L168.034 52.1646Z" fill="white"/>
<path fill-rule="evenodd" clip-rule="evenodd" d="M144.792 47.9888C144.944 48.1186 145.077 48.2847 145.251 48.3728C146.423 48.9667 147.011 49.9324 147.014 51.2144C147.025 57.4757 147.046 63.737 146.994 69.9979C146.979 71.8037 145.545 73.0354 143.722 73.0366C138.987 73.039 134.251 73.0366 129.515 73.0366H128.378C128.354 72.5506 128.318 72.1512 128.318 71.7514C128.315 64.3477 128.317 56.9445 128.314 49.5408C128.314 49.0233 128.285 48.5062 128.27 47.9892H144.792V47.9888ZM136.095 54.5503V66.71C136.558 66.71 136.896 66.7155 137.234 66.7092C139.334 66.6687 139.124 67.1173 139.13 64.8778C139.138 61.8052 139.132 58.7326 139.132 55.66V54.5503H136.095Z" fill="#EC2127"/>
<path fill-rule="evenodd" clip-rule="evenodd" d="M123.25 47.9888C123.684 48.3185 124.263 48.5637 124.516 48.9974C124.919 49.6844 125.336 50.4951 125.345 51.2573C125.41 57.4187 125.391 63.5812 125.376 69.7433C125.371 71.8454 124.093 73.063 121.965 73.0634C117.191 73.0649 112.418 73.0539 107.645 73.074C106.973 73.0768 106.644 72.9611 106.646 72.1784C106.667 64.2852 106.653 56.392 106.653 48.4988C106.653 48.3288 106.702 48.1588 106.728 47.9888H123.251H123.25ZM114.499 66.7088C115.31 66.7088 116.072 66.7663 116.816 66.6742C117.045 66.6459 117.395 66.2103 117.398 65.958C117.436 62.434 117.434 58.9093 117.401 55.3853C117.399 55.1504 117.084 54.7376 116.883 54.7175C116.106 54.6388 115.315 54.6853 114.499 54.6853V66.7084V66.7088Z" fill="#F47C20"/>
<path fill-rule="evenodd" clip-rule="evenodd" d="M79.9581 47.9888C81.9187 48.8337 82.3393 50.3877 82.3041 52.38C82.2031 58.1203 82.2542 63.8629 82.2439 69.6051C82.2395 71.8954 81.0917 73.0256 78.781 73.0248C74.1133 73.024 69.4451 73.0244 64.7774 73.024H63.6715C63.6315 72.6954 63.5713 72.4341 63.5713 72.1732C63.5658 64.3513 63.5654 56.5289 63.569 48.7069C63.569 48.4677 63.6185 48.228 63.645 47.9888H79.9581ZM74.4143 66.6522C74.4143 62.7591 74.423 58.9597 74.3901 55.1606C74.3885 54.9662 74.0459 54.6255 73.8404 54.6085C73.0557 54.5432 72.2624 54.5822 71.393 54.5822V66.6526H74.4143V66.6522Z" fill="#FFCA0D"/>
<path fill-rule="evenodd" clip-rule="evenodd" d="M100.872 47.9888C102.044 55.2441 103.227 62.4982 104.373 69.7574C104.496 70.535 104.373 71.3476 104.418 72.141C104.454 72.7773 104.15 73.0406 103.568 73.0429C101.478 73.0508 99.3887 73.0709 97.301 73.0095C97.0519 73.002 96.6598 72.551 96.6036 72.2547C96.3841 71.1013 96.2431 69.9302 96.135 68.7599C96.0799 68.1656 95.8847 67.8902 95.2438 67.9256C94.4497 67.9697 93.6516 67.9362 92.741 67.9362C92.5818 69.3497 92.402 70.7373 92.2808 72.1303C92.2289 72.7242 91.9703 73.0346 91.3872 73.0374C89.1645 73.0468 86.9413 73.0413 84.5775 73.0413C84.5775 71.4747 84.3854 69.9739 84.6108 68.5375C85.6014 62.2164 86.7112 55.9138 87.783 49.6057C87.8752 49.0635 88.0032 48.5275 88.1145 47.9888H100.872H100.872ZM93.3565 61.5415C93.7783 61.6002 94.0845 61.6612 94.3935 61.682C95.5611 61.7607 95.6237 61.686 95.4918 60.4987C95.3349 59.0895 95.1824 57.68 95.0299 56.27C94.9852 55.8576 94.9911 55.433 94.8862 55.0367C94.8394 54.8596 94.5962 54.6888 94.4041 54.6172C94.3285 54.5889 94.0453 54.8285 94.0302 54.9651C93.793 57.116 93.5839 59.2706 93.3561 61.5415H93.3565Z" fill="#FFCA0D"/>
<path fill-rule="evenodd" clip-rule="evenodd" d="M168.634 51.9365C167.672 54.1897 166.706 56.4411 165.752 58.6979C165.442 59.431 165.239 60.2169 164.865 60.9138C163.045 64.3012 162.282 67.8846 162.751 71.7033C162.88 72.7544 162.483 73.1101 161.433 73.0814C159.32 73.0235 157.205 73.0645 154.958 73.0645C154.958 71.1374 155.007 69.3437 154.935 67.5548C154.903 66.7485 154.744 65.9064 154.445 65.1583C152.827 61.1086 151.201 57.0605 149.463 53.0603C148.733 51.3792 148.812 49.7087 148.975 47.9883H156.713C157.305 51.2395 157.897 54.4908 158.489 57.742C158.646 57.7424 158.803 57.7432 158.96 57.7436C159.675 54.492 160.39 51.2399 161.105 47.9883H168.635V51.9365H168.634Z" fill="#EC2127"/>
</svg>
