<svg width="231" height="131" viewBox="0 0 231 131" fill="none" xmlns="http://www.w3.org/2000/svg">
<path d="M110.697 50.3076H112.404V56.0146H119.187V50.3076H120.894V63.5711H119.187V57.5011H112.404V63.5711H110.697V50.3076Z" fill="#0E335A"/>
<path d="M131.393 63.5344C131.14 63.7095 130.772 63.7978 130.292 63.7978C129.44 63.8106 129.008 63.3151 128.996 62.3113C128.126 63.3023 127.03 63.7978 125.709 63.7978C124.839 63.7978 124.117 63.58 123.54 63.1457C122.941 62.7228 122.636 62.0436 122.623 61.1067C122.623 60.5442 122.717 60.0914 122.905 59.7468C123.077 59.3909 123.312 59.1118 123.613 58.9124C123.931 58.7003 124.276 58.5351 124.647 58.4141C125.013 58.2988 125.392 58.2119 125.787 58.1521C126.222 58.0681 126.632 58.0012 127.016 57.9527C127.392 57.8986 127.726 57.8346 128.014 57.7619C128.615 57.6409 128.922 57.3006 128.933 56.7382C128.933 56.3936 128.881 56.1102 128.775 55.8867C128.639 55.6873 128.471 55.5336 128.271 55.4239C127.848 55.2246 127.375 55.1306 126.857 55.1434C126.191 55.1434 125.656 55.2673 125.249 55.5151C124.813 55.787 124.572 56.2711 124.525 56.966H122.999C123.082 55.7842 123.496 54.9469 124.241 54.4557C124.987 53.9829 125.889 53.7466 126.944 53.7466C127.38 53.7466 127.808 53.7708 128.23 53.8192C128.647 53.8918 129.02 54.0214 129.348 54.2093C129.684 54.3973 129.953 54.6636 130.159 55.0081C130.347 55.3527 130.441 55.8098 130.441 56.3779V61.3231C130.429 61.6976 130.456 61.9638 130.52 62.1219C130.567 62.3098 130.704 62.4038 130.931 62.4038C131.048 62.4038 131.202 62.3739 131.394 62.3127V63.5372L131.393 63.5344ZM128.915 58.6134C128.614 58.8256 128.21 58.9609 127.702 59.0207C127.183 59.099 126.658 59.1801 126.127 59.2656C125.608 59.3382 125.168 59.4991 124.809 59.7454C124.43 59.9932 124.242 60.4075 124.242 60.9871C124.242 61.4954 124.43 61.8599 124.809 62.0834C125.157 62.2942 125.573 62.401 126.057 62.401C126.541 62.401 127.004 62.3198 127.375 62.1561C127.742 62.0236 128.04 61.8457 128.27 61.6207C128.701 61.1494 128.916 60.6838 128.916 60.2253V58.612L128.915 58.6134Z" fill="#0E335A"/>
<path d="M132.452 50.3076H133.977V55.2784H134.012C134.276 54.7316 134.682 54.3386 135.228 54.1023C135.769 53.8645 136.355 53.7463 136.989 53.7463C138.433 53.7705 139.515 54.2731 140.237 55.2528C140.936 56.2139 141.285 57.3972 141.285 58.7997C141.285 60.2022 140.935 61.3556 140.237 62.311C139.515 63.2721 138.444 63.7691 137.023 63.799C136.529 63.799 136.001 63.6865 135.438 63.4629C135.162 63.3362 134.904 63.1724 134.663 62.9731C134.411 62.7923 134.194 62.5659 134.011 62.2925H133.975V63.5711H132.45V50.3076H132.452ZM139.668 58.6858C139.668 57.7489 139.441 56.9273 138.989 56.221C138.507 55.5262 137.771 55.1673 136.783 55.1431C135.772 55.1673 135.043 55.539 134.595 56.258C134.135 56.9771 133.911 57.8144 133.924 58.7684C133.924 59.7409 134.154 60.581 134.612 61.2872C135.083 62.0191 135.836 62.3893 136.87 62.4021C137.906 62.3907 138.641 62.0006 139.076 61.2331C139.483 60.5027 139.68 59.654 139.668 58.6858Z" fill="#0E335A"/>
<path d="M144.304 52.2299H142.778V50.3076H144.304V52.2299ZM142.778 53.9627H144.304V63.5697H142.778V53.9627Z" fill="#0E335A"/>
<path d="M148.196 53.9632H150.058V55.36H148.196V61.3218C148.183 61.6607 148.26 61.89 148.425 62.011C148.584 62.132 148.893 62.1861 149.353 62.1747H150.059V63.5716H148.889C148.103 63.583 147.537 63.4477 147.191 63.1629C146.845 62.8909 146.672 62.3285 146.672 61.4756V55.36H145.085V53.9632H146.672V51.0869H148.197V53.9632H148.196Z" fill="#0E335A"/>
<path d="M159.448 63.5344C159.196 63.7095 158.828 63.7978 158.347 63.7978C157.495 63.8106 157.063 63.3151 157.052 62.3113C156.181 63.3023 155.085 63.7978 153.764 63.7978C152.894 63.7978 152.172 63.58 151.596 63.1457C150.996 62.7228 150.691 62.0436 150.678 61.1067C150.678 60.5442 150.772 60.0914 150.961 59.7468C151.132 59.3909 151.367 59.1118 151.668 58.9124C151.987 58.7003 152.332 58.5351 152.703 58.4141C153.068 58.2988 153.448 58.2119 153.843 58.1521C154.278 58.0681 154.687 58.0012 155.071 57.9527C155.448 57.8986 155.782 57.8346 156.07 57.7619C156.671 57.6409 156.977 57.3006 156.989 56.7382C156.989 56.3936 156.936 56.1102 156.83 55.8867C156.695 55.6873 156.526 55.5336 156.327 55.4239C155.903 55.2246 155.431 55.1306 154.913 55.1434C154.247 55.1434 153.711 55.2673 153.305 55.5151C152.868 55.787 152.627 56.2711 152.58 56.966H151.055C151.138 55.7842 151.551 54.9469 152.296 54.4557C153.042 53.9829 153.944 53.7466 155 53.7466C155.435 53.7466 155.863 53.7708 156.285 53.8192C156.702 53.8918 157.076 54.0214 157.404 54.2093C157.739 54.3973 158.009 54.6636 158.214 55.0081C158.403 55.3527 158.497 55.8098 158.497 56.3779V61.3231C158.484 61.6976 158.511 61.9638 158.575 62.1219C158.622 62.3098 158.759 62.4038 158.986 62.4038C159.103 62.4038 159.257 62.3739 159.45 62.3127V63.5372L159.448 63.5344ZM156.97 58.6134C156.669 58.8256 156.265 58.9609 155.757 59.0207C155.238 59.099 154.713 59.1801 154.182 59.2656C153.663 59.3382 153.224 59.4991 152.864 59.7454C152.486 59.9932 152.298 60.4075 152.298 60.9871C152.298 61.4954 152.486 61.8599 152.864 62.0834C153.212 62.2942 153.629 62.401 154.112 62.401C154.596 62.401 155.06 62.3198 155.431 62.1561C155.797 62.0236 156.096 61.8457 156.325 61.6207C156.756 61.1494 156.972 60.6838 156.972 60.2253V58.612L156.97 58.6134Z" fill="#0E335A"/>
<path d="M162.569 53.9632H164.431V55.36H162.569V61.3218C162.556 61.6607 162.633 61.89 162.799 62.011C162.957 62.132 163.266 62.1861 163.726 62.1747H164.432V63.5716H163.262C162.476 63.583 161.91 63.4477 161.564 63.1629C161.218 62.8909 161.045 62.3285 161.045 61.4756V55.36H159.458V53.9632H161.045V51.0869H162.57V53.9632H162.569Z" fill="#0E335A"/>
<path d="M112.437 66.9346H110.697V80.4544H112.437V66.9346Z" fill="#0E335A"/>
<path d="M114.515 70.6611H115.986V72.2046H116.021C116.709 71.027 117.738 70.439 119.106 70.439C120.344 70.4518 121.208 70.7779 121.698 71.42C122.165 72.0793 122.392 72.9464 122.38 74.0186V80.4546H120.825V73.8307C120.801 72.5563 120.156 71.8999 118.889 71.8629C117.959 71.8757 117.258 72.1576 116.79 72.7129C116.309 73.2853 116.07 74.0243 116.07 74.9299V80.4546H114.515V70.6611Z" fill="#0E335A"/>
<path d="M132.797 80.4544H131.242V79.1416H131.206C130.936 79.6684 130.533 80.0514 129.993 80.2906C129.454 80.5541 128.846 80.6851 128.169 80.6851C126.719 80.6537 125.627 80.1369 124.897 79.1316C124.159 78.1577 123.791 76.9587 123.791 75.5349C123.791 74.111 124.154 72.9021 124.878 71.9281C125.598 70.9599 126.682 70.4644 128.131 70.4388C128.39 70.4388 128.659 70.4573 128.94 70.4943C129.221 70.5569 129.504 70.6438 129.785 70.7549C130.366 70.9841 130.839 71.3928 131.205 71.9823H131.24V66.9346H132.795V80.4544H132.797ZM125.439 75.6502C125.439 76.5928 125.679 77.4172 126.158 78.1263C126.638 78.871 127.381 79.2498 128.39 79.2626C129.433 79.2498 130.183 78.8596 130.638 78.0893C131.076 77.356 131.295 76.5188 131.295 75.5761C131.295 74.578 131.066 73.7137 130.611 72.9804C130.149 72.2471 129.376 71.8755 128.29 71.8626C127.247 71.8869 126.512 72.2727 126.085 73.0174C125.642 73.7749 125.425 74.652 125.438 75.6502" fill="#0E335A"/>
<path d="M136.448 68.8938H134.893V66.9346H136.448V68.8938ZM134.893 70.6609H136.448V80.4544H134.893V70.6609Z" fill="#0E335A"/>
<path d="M146.669 80.4176C146.411 80.5956 146.037 80.6853 145.546 80.6853C144.678 80.6981 144.238 80.1926 144.225 79.1702C143.339 80.1812 142.222 80.6853 140.874 80.6853C139.988 80.6853 139.25 80.4631 138.664 80.0203C138.053 79.5889 137.741 78.8969 137.729 77.9414C137.729 77.369 137.825 76.9063 138.017 76.556C138.192 76.1929 138.431 75.9095 138.738 75.7059C139.062 75.4909 139.413 75.3215 139.792 75.1976C140.165 75.0808 140.551 74.9911 140.955 74.9299C141.399 74.8431 141.817 74.7761 142.208 74.7263C142.592 74.6708 142.931 74.6067 143.225 74.5326C143.837 74.4102 144.15 74.0613 144.162 73.4889C144.162 73.1387 144.108 72.8482 144 72.6204C143.861 72.4167 143.69 72.2601 143.486 72.1491C143.054 71.9454 142.573 71.85 142.045 71.8629C141.366 71.8629 140.82 71.9896 140.406 72.2416C139.962 72.5193 139.715 73.0119 139.667 73.721H138.112C138.196 72.5164 138.617 71.6621 139.377 71.1623C140.138 70.6796 141.056 70.439 142.134 70.439C142.576 70.439 143.014 70.4632 143.445 70.513C143.87 70.587 144.249 70.7195 144.585 70.9103C144.926 71.1011 145.201 71.373 145.411 71.7247C145.602 72.0764 145.698 72.542 145.698 73.1216V78.1621C145.685 78.5452 145.712 78.8157 145.778 78.9766C145.825 79.1674 145.964 79.2628 146.197 79.2628C146.315 79.2628 146.474 79.2315 146.669 79.1702V80.4176ZM144.142 75.4012C143.836 75.6176 143.423 75.7558 142.905 75.817C142.376 75.8967 141.841 75.9807 141.299 76.0662C140.77 76.1402 140.322 76.304 139.955 76.556C139.57 76.808 139.377 77.2295 139.377 77.8218C139.377 78.3387 139.57 78.7118 139.955 78.9396C140.31 79.1546 140.734 79.2628 141.228 79.2628C141.746 79.2628 142.194 79.1802 142.572 79.0136C142.944 78.8784 143.248 78.6961 143.483 78.4683C143.923 77.9884 144.142 77.5143 144.142 77.0458V75.4012Z" fill="#0E335A"/>
<path d="M103.41 61.1562C103.75 62.5488 103.93 64.0026 103.93 65.4991C103.93 68.1717 103.356 70.7091 102.326 72.9987C102.46 72.6969 102.586 72.3893 102.704 72.0718C102.704 72.0718 100.257 72.311 97.1296 71.7144L101.58 67.0554C102.861 65.7127 103.5 63.9898 103.5 62.2669C103.5 61.8952 103.47 61.5236 103.41 61.1562Z" fill="#00A69A"/>
<path d="M103.41 61.1566C103.47 61.5253 103.5 61.897 103.5 62.2672C103.5 63.9887 102.862 65.713 101.58 67.0557L97.1297 71.7147C95.9098 71.484 94.5844 71.1238 93.2618 70.5727C94.3176 65.5478 93.4045 60.9088 91.8835 57.107C94.6158 54.6465 98.8304 54.7306 101.461 57.3562C102.088 57.9813 102.57 58.6975 102.908 59.4607C103.102 60.0132 103.27 60.5785 103.409 61.1551" fill="#ED7453"/>
<path d="M103.41 61.1563C103.272 60.5797 103.103 60.0144 102.909 59.4619C103.151 60.0073 103.317 60.5768 103.41 61.1563Z" fill="#00A69A"/>
<path d="M102.706 72.0718C102.586 72.3893 102.46 72.6969 102.326 72.9987C102.292 73.0742 102.258 73.1468 102.223 73.2223C102.163 73.3561 102.099 73.4886 102.035 73.6167C102.022 73.6409 102.011 73.6651 101.999 73.6879C100.747 76.184 99.0645 78.0037 97.9473 79.0389C97.9145 79.0688 97.8831 79.0973 97.8532 79.1272C97.5022 79.4433 97.1384 79.7466 96.7631 80.0328C94.994 79.6156 93.0821 78.9392 91.2844 77.8385L97.1298 71.7158C100.257 72.3124 102.704 72.0732 102.704 72.0732" fill="#4EC0B4"/>
<path d="M102.223 73.2226C102.257 73.1471 102.292 73.0745 102.326 72.999C102.294 73.0745 102.26 73.1471 102.223 73.2226Z" fill="#00A69A"/>
<path d="M102.036 73.6156C102.101 73.4875 102.163 73.355 102.225 73.2212C102.166 73.3536 102.102 73.4846 102.036 73.6156Z" fill="#00A69A"/>
<path d="M102.909 59.462C102.571 58.6974 102.091 57.9826 101.463 57.3575C98.8318 54.7304 94.6172 54.6479 91.885 57.1083C89.4767 51.0782 85.5488 47.1582 85.5488 47.1582C93.5786 47.1582 100.408 52.2984 102.908 59.462" fill="#00A69A"/>
<path d="M97.9473 79.0375C99.0644 78.0023 100.747 76.1826 101.999 73.6865C100.986 75.7127 99.6066 77.5253 97.9473 79.0375Z" fill="#00A69A"/>
<path d="M97.1296 71.7147L91.2842 77.8374C91.0545 77.6993 90.8248 77.5512 90.6008 77.396C91.9491 75.0722 92.7966 72.7855 93.2631 70.5728C94.5857 71.1238 95.9112 71.484 97.1311 71.7147" fill="#FCF180"/>
<path d="M96.7629 80.0316C97.1382 79.7454 97.502 79.4421 97.853 79.126C97.201 79.7226 96.7658 80.0316 96.7658 80.0316H96.7629Z" fill="#00A69A"/>
<path d="M91.8851 57.1069C93.4045 60.9073 94.3191 65.5477 93.2633 70.5726C90.2885 69.3367 87.3209 67.1311 85.5503 63.2382V63.1172L91.6397 57.3405C91.7195 57.2607 91.8037 57.1824 91.8865 57.1069" fill="#F7C257"/>
<path d="M91.885 57.1069C91.8022 57.1823 91.718 57.2607 91.6381 57.3404L85.5488 63.1171L80.4282 57.732C80.0858 57.3874 79.7162 57.0855 79.3296 56.8207C81.7436 50.9542 85.5502 47.1567 85.5502 47.1567C85.5502 47.1567 89.478 51.0767 91.8864 57.1069" fill="#4EC0B4"/>
<path d="M91.2844 77.8374C93.0821 78.9395 94.9939 79.6144 96.7631 80.0316C93.6599 82.4223 89.7706 83.8419 85.5503 83.8419C85.9826 83.4105 86.3964 82.9762 86.7873 82.5447L91.2844 77.8359V77.8374Z" fill="#00A69A"/>
<path d="M91.2842 77.8374L86.7871 82.5462C88.3594 80.8204 89.6149 79.099 90.6008 77.396C90.8262 77.5512 91.0545 77.6993 91.2842 77.8374Z" fill="#00A69A"/>
<path d="M93.2633 70.5727C92.7967 72.7855 91.9493 75.0722 90.601 77.396C88.605 76.0262 86.7973 74.0855 85.5503 71.3431V63.2383C87.3223 67.1326 90.2899 69.3368 93.2633 70.5727Z" fill="#FCF180"/>
<path d="M85.5488 71.3428C86.7958 74.0852 88.6035 76.0245 90.5995 77.3957C89.6136 79.0987 88.3581 80.8202 86.7858 82.5459L85.5488 83.8431C83.3887 81.6873 81.7351 79.5301 80.501 77.4043C82.4956 76.0302 84.3018 74.0895 85.5488 71.3442" fill="#ED7453"/>
<path d="M85.5488 83.8431L86.7858 82.5459C86.3935 82.9773 85.9811 83.4116 85.5488 83.8431Z" fill="#00A69A"/>
<path d="M85.5487 63.2382V71.343C84.3017 74.0883 82.4955 76.0305 80.5009 77.4031C79.1512 75.0764 78.3022 72.7868 77.8357 70.5713C80.8105 69.3353 83.7781 67.1297 85.5487 63.2368" fill="#FCF180"/>
<path d="M85.5487 63.1173V63.2383C83.7767 67.1326 80.8091 69.3368 77.8357 70.5728C76.7528 65.4225 77.7416 60.6753 79.3295 56.8223C79.7162 57.0857 80.0857 57.389 80.4281 57.7336L85.5487 63.1187V63.1173Z" fill="#F7C257"/>
<path d="M85.5489 83.8431L79.5708 77.9981C79.8847 77.8144 80.1943 77.615 80.501 77.4043C81.7352 79.5302 83.3888 81.6874 85.5489 83.8431Z" fill="#00A69A"/>
<path d="M79.5708 77.9966L85.5489 83.8416C81.3343 83.8416 77.4507 82.4263 74.3503 80.0427C76.0368 79.6469 77.8502 79.0118 79.5708 77.9966Z" fill="#00A69A"/>
<path d="M80.5011 77.4046C80.1943 77.6153 79.8833 77.8133 79.5708 77.9984L73.2717 71.8386C74.6756 71.6165 76.2565 71.2321 77.8359 70.5742C78.3024 72.7898 79.1514 75.0794 80.5025 77.406" fill="#FCF180"/>
<path d="M73.2716 71.8369L79.5707 77.9967C77.85 79.0119 76.0366 79.6469 74.3502 80.0428C71.7778 78.0678 69.7418 75.4265 68.5077 72.3794C68.4691 72.2783 68.4292 72.1758 68.3921 72.0719C68.3921 72.0719 70.4837 72.2769 73.2716 71.8369Z" fill="#4EC0B4"/>
<path d="M85.5488 47.1582C85.5488 47.1582 81.7437 50.9557 79.3296 56.8221C78.0527 55.9536 76.5689 55.5193 75.0836 55.5193C73.1618 55.5193 71.2414 56.2455 69.7704 57.7007C68.6961 58.7615 68.0098 60.0629 67.7088 61.4313L67.6274 61.4142C69.4879 53.2496 76.8071 47.1582 85.5502 47.1582" fill="#00A69A"/>
<path d="M79.3296 56.8219C77.7416 60.6749 76.7529 65.4222 77.8358 70.5724C76.2549 71.2302 74.6755 71.6147 73.2716 71.8368L69.8859 68.5248C67.8899 66.6353 67.1594 63.9228 67.7087 61.431C68.0112 60.0627 68.696 58.7612 69.7704 57.7004C71.2413 56.2452 73.1632 55.519 75.0836 55.519C76.5688 55.519 78.0526 55.9533 79.3296 56.8219Z" fill="#ED7453"/>
<path d="M74.3503 80.0428H74.3475C74.3475 80.0428 70.4182 77.3075 68.5078 72.3794C69.7419 75.4279 71.7779 78.0678 74.3503 80.0428Z" fill="#00A69A"/>
<path d="M69.886 68.5249L73.2716 71.8369C70.4838 72.2769 68.3922 72.0718 68.3922 72.0718C68.4293 72.1758 68.4692 72.2783 68.5077 72.3794C67.6445 70.2549 67.1694 67.9312 67.1694 65.4992C67.1694 64.0952 67.3278 62.7283 67.626 61.4126L67.7073 61.4297C67.1594 63.9201 67.8885 66.634 69.8845 68.5235" fill="#00A69A"/>
</svg>
