<svg width="16" height="17" viewBox="0 0 16 17" fill="none" xmlns="http://www.w3.org/2000/svg">
<g clip-path="url(#clip0_419_3371)">
<path d="M12.272 2.81341C12.0821 2.81341 11.8965 2.86971 11.7387 2.9752C11.5808 3.08069 11.4577 3.23062 11.3851 3.40603C11.3124 3.58145 11.2934 3.77448 11.3304 3.9607C11.3675 4.14692 11.4589 4.31797 11.5932 4.45223C11.7274 4.58649 11.8985 4.67792 12.0847 4.71496C12.2709 4.75201 12.464 4.73299 12.6394 4.66033C12.8148 4.58767 12.9647 4.46463 13.0702 4.30676C13.1757 4.14889 13.232 3.96328 13.232 3.77341C13.232 3.5188 13.1309 3.27462 12.9508 3.09459C12.7708 2.91455 12.5266 2.81341 12.272 2.81341ZM15.952 4.74941C15.9364 4.08565 15.8121 3.42893 15.584 2.80541C15.3806 2.27192 15.064 1.78883 14.656 1.38941C14.2599 0.979351 13.7756 0.664751 13.24 0.46941C12.6181 0.234339 11.9607 0.107178 11.296 0.0934101C10.448 0.0454101 10.176 0.0454102 8 0.0454102C5.824 0.0454102 5.552 0.0454101 4.704 0.0934101C4.03932 0.107178 3.38187 0.234339 2.76 0.46941C2.22534 0.666729 1.74155 0.981059 1.344 1.38941C0.933941 1.78555 0.619341 2.26976 0.424 2.80541C0.188929 3.42728 0.061768 4.08473 0.048 4.74941C-4.47035e-08 5.59741 0 5.86941 0 8.04541C0 10.2214 -4.47035e-08 10.4934 0.048 11.3414C0.061768 12.0061 0.188929 12.6635 0.424 13.2854C0.619341 13.8211 0.933941 14.3053 1.344 14.7014C1.74155 15.1098 2.22534 15.4241 2.76 15.6214C3.38187 15.8565 4.03932 15.9836 4.704 15.9974C5.552 16.0454 5.824 16.0454 8 16.0454C10.176 16.0454 10.448 16.0454 11.296 15.9974C11.9607 15.9836 12.6181 15.8565 13.24 15.6214C13.7756 15.4261 14.2599 15.1115 14.656 14.7014C15.0658 14.3035 15.3827 13.82 15.584 13.2854C15.8121 12.6619 15.9364 12.0052 15.952 11.3414C15.952 10.4934 16 10.2214 16 8.04541C16 5.86941 16 5.59741 15.952 4.74941ZM14.512 11.2454C14.5062 11.7532 14.4142 12.2564 14.24 12.7334C14.1123 13.0816 13.9071 13.3961 13.64 13.6534C13.3805 13.9178 13.0666 14.1226 12.72 14.2534C12.243 14.4276 11.7398 14.5196 11.232 14.5254C10.432 14.5654 10.136 14.5734 8.032 14.5734C5.928 14.5734 5.632 14.5734 4.832 14.5254C4.30471 14.5353 3.77968 14.4541 3.28 14.2854C2.94863 14.1479 2.64908 13.9436 2.4 13.6854C2.13447 13.4284 1.93187 13.1136 1.808 12.7654C1.61269 12.2815 1.50435 11.767 1.488 11.2454C1.488 10.4454 1.44 10.1494 1.44 8.04541C1.44 5.94141 1.44 5.64541 1.488 4.84541C1.49159 4.32625 1.58636 3.81177 1.768 3.32541C1.90884 2.98774 2.12501 2.68674 2.4 2.44541C2.64305 2.17034 2.94343 1.95189 3.28 1.80541C3.76764 1.62944 4.2816 1.53747 4.8 1.53341C5.6 1.53341 5.896 1.48541 8 1.48541C10.104 1.48541 10.4 1.48541 11.2 1.53341C11.7078 1.53923 12.211 1.63121 12.688 1.80541C13.0515 1.94033 13.3778 2.15969 13.64 2.44541C13.9022 2.69115 14.107 2.9916 14.24 3.32541C14.4178 3.81256 14.5098 4.32683 14.512 4.84541C14.552 5.64541 14.56 5.94141 14.56 8.04541C14.56 10.1494 14.552 10.4454 14.512 11.2454ZM8 3.94141C7.18865 3.94299 6.39597 4.18503 5.72212 4.63694C5.04828 5.08886 4.5235 5.73037 4.21411 6.48041C3.90471 7.23046 3.82458 8.05538 3.98384 8.85095C4.14309 9.64652 4.53459 10.377 5.10886 10.9502C5.68313 11.5233 6.41441 11.9134 7.21029 12.0711C8.00617 12.2288 8.83093 12.1471 9.58037 11.8362C10.3298 11.5254 10.9703 10.9994 11.4209 10.3246C11.8715 9.64991 12.112 8.85676 12.112 8.04541C12.1131 7.50549 12.0074 6.9707 11.801 6.47178C11.5946 5.97285 11.2916 5.51966 10.9095 5.13825C10.5273 4.75684 10.0736 4.45475 9.57424 4.24935C9.07492 4.04395 8.53991 3.9393 8 3.94141ZM8 10.7094C7.47311 10.7094 6.95805 10.5532 6.51996 10.2604C6.08187 9.96772 5.74042 9.55166 5.53878 9.06488C5.33715 8.5781 5.2844 8.04246 5.38719 7.52569C5.48998 7.00892 5.7437 6.53424 6.11627 6.16168C6.48883 5.78911 6.96351 5.53539 7.48028 5.4326C7.99705 5.32981 8.53269 5.38256 9.01947 5.5842C9.50625 5.78583 9.92231 6.12728 10.215 6.56537C10.5078 7.00346 10.664 7.51852 10.664 8.04541C10.664 8.39525 10.5951 8.74167 10.4612 9.06488C10.3273 9.38809 10.1311 9.68177 9.88373 9.92914C9.63636 10.1765 9.34268 10.3727 9.01947 10.5066C8.69626 10.6405 8.34984 10.7094 8 10.7094Z" fill="#888888"/>
</g>
<defs>
<clipPath id="clip0_419_3371">
<rect width="16" height="16" fill="white" transform="translate(0 0.0454102)"/>
</clipPath>
</defs>
</svg>
