<svg width="24" height="24" viewBox="0 0 24 24" fill="none" xmlns="http://www.w3.org/2000/svg">
<path fill-rule="evenodd" clip-rule="evenodd" d="M7.95075 20.0051V9.30861H4.66162V20.0051H7.95075ZM6.42901 7.68944C7.52538 7.68944 8.20837 6.87047 8.20837 5.84521C8.1904 4.80118 7.52538 4.00098 6.44698 4.00098C5.36857 4.00098 4.66761 4.80118 4.66761 5.84521C4.66761 6.87047 5.3506 7.68944 6.40504 7.68944H6.42901Z" fill="#B0B0B0"/>
<path fill-rule="evenodd" clip-rule="evenodd" d="M16.2062 9.06494C14.4628 9.06494 13.7139 10.0902 13.2346 10.8029V9.31501H9.93945V20.0053H13.2346V13.9162C13.2346 13.6036 13.2585 13.291 13.3484 13.0722C13.5881 12.4471 14.1273 11.8032 15.0379 11.8032C16.2301 11.8032 16.7094 12.7597 16.7094 14.16V20.0053H20.0046V13.7599C20.0046 10.5528 18.375 9.06494 16.2062 9.06494Z" fill="#B0B0B0"/>
<path d="M21.9937 0H2.7981C1.74965 0 0.833008 0.787705 0.833008 1.86924V21.9432C0.833008 23.031 1.74965 24 2.7981 24H21.9877C23.0421 24 23.833 23.0247 23.833 21.9432V1.86924C23.839 0.787705 23.0421 0 21.9937 0ZM21.802 22.0057H2.9359C2.82806 22.0057 2.75017 21.9182 2.75017 21.8119V2.12555C2.75017 2.05679 2.81008 2.00052 2.86999 2.00052H21.802C21.8619 2.00052 21.9218 2.06304 21.9218 2.12555V21.8807C21.9218 21.937 21.8679 22.0057 21.802 22.0057Z" fill="#B0B0B0"/>
</svg>
