<svg width="24" height="24" viewBox="0 0 24 24" fill="none" xmlns="http://www.w3.org/2000/svg">
<path fill-rule="evenodd" clip-rule="evenodd" d="M12.0002 2C15.8702 2 19.0002 5.13 19.0002 9C19.0002 14.25 12.0002 22 12.0002 22C12.0002 22 5.00024 14.25 5.00024 9C5.00024 5.13 8.13024 2 12.0002 2ZM7.00016 9C7.00016 11.85 9.92016 16.21 12.0002 18.88C14.1202 16.19 17.0002 11.88 17.0002 9C17.0002 6.24 14.7602 4 12.0002 4C9.24016 4 7.00016 6.24 7.00016 9ZM12.0003 11.5C10.6196 11.5 9.50026 10.3807 9.50026 9C9.50026 7.61929 10.6196 6.5 12.0003 6.5C13.381 6.5 14.5003 7.61929 14.5003 9C14.5003 10.3807 13.381 11.5 12.0003 11.5Z" fill="#888888"/>
</svg>
