<svg width="21" height="17" viewBox="0 0 21 17" fill="none" xmlns="http://www.w3.org/2000/svg">
<g clip-path="url(#clip0_419_3373)">
<path d="M16.4062 0.0454102H4.59375C2.06063 0.0454102 0 2.13874 0 4.71208V11.3787C0 13.9521 2.06063 16.0454 4.59375 16.0454H16.4062C18.9394 16.0454 21 13.9521 21 11.3787V4.71208C21 2.13874 18.9394 0.0454102 16.4062 0.0454102ZM19.6875 11.3787C19.6875 13.2167 18.2155 14.7121 16.4062 14.7121H4.59375C2.78447 14.7121 1.3125 13.2167 1.3125 11.3787V4.71208C1.3125 2.87408 2.78447 1.37874 4.59375 1.37874H16.4062C18.2155 1.37874 19.6875 2.87408 19.6875 4.71208V11.3787Z" fill="#888888"/>
<path d="M14.0477 7.43606L8.14144 4.76939C8.04152 4.7243 7.93209 4.70528 7.8231 4.71406C7.7141 4.72285 7.60899 4.75916 7.51732 4.8197C7.42565 4.88024 7.35033 4.96308 7.29818 5.06071C7.24604 5.15834 7.21874 5.26765 7.21875 5.37873V10.7121C7.21857 10.8232 7.24577 10.9326 7.29786 11.0303C7.34996 11.1281 7.4253 11.211 7.51703 11.2716C7.60875 11.3321 7.71393 11.3684 7.82299 11.3771C7.93206 11.3858 8.04153 11.3667 8.14144 11.3214L14.0477 8.65473C14.1635 8.60217 14.2619 8.51666 14.331 8.40853C14.4 8.3004 14.4367 8.17428 14.4367 8.04539C14.4367 7.91651 14.4 7.79038 14.331 7.68225C14.2619 7.57412 14.1635 7.48861 14.0477 7.43606ZM8.53125 9.68606V6.40473L12.1656 8.04539L8.53125 9.68606Z" fill="#888888"/>
</g>
<defs>
<clipPath id="clip0_419_3373">
<rect width="21" height="16" fill="white" transform="translate(0 0.0454102)"/>
</clipPath>
</defs>
</svg>
