<svg width="171" height="120" viewBox="0 0 171 120" fill="none" xmlns="http://www.w3.org/2000/svg">
<rect width="171" height="120" fill="white"/>
<path fill-rule="evenodd" clip-rule="evenodd" d="M68.8906 12.9896C69.0454 12.8344 69.2293 12.7113 69.4318 12.6273C69.6343 12.5432 69.8513 12.5 70.0706 12.5C70.2898 12.5 70.5069 12.5432 70.7094 12.6273C70.9118 12.7113 71.0958 12.8344 71.2506 12.9896L74.9339 16.6763C77.7886 15.0257 81.0297 14.1608 84.3272 14.1696H86.6806C89.9807 14.1607 93.2242 15.0268 96.0806 16.6796L99.7706 12.9896C100.084 12.6771 100.508 12.5017 100.95 12.5021C101.392 12.5024 101.816 12.6784 102.129 12.9913C102.441 13.3043 102.617 13.7286 102.617 14.1708C102.616 14.6131 102.44 15.0371 102.127 15.3496L98.8472 18.6296C100.935 20.3961 102.612 22.5967 103.762 25.078C104.912 27.5593 105.506 30.2616 105.504 32.9963C105.503 33.3078 105.379 33.6062 105.158 33.8262C104.938 34.0461 104.639 34.1696 104.327 34.1696H66.6806C66.3685 34.1696 66.0692 34.0457 65.8485 33.825C65.6279 33.6043 65.5039 33.3051 65.5039 32.993C65.5039 27.233 68.0906 22.0763 72.1706 18.6263L68.8906 15.3496C68.7354 15.1948 68.6122 15.0109 68.5282 14.8084C68.4442 14.6059 68.4009 14.3889 68.4009 14.1696C68.4009 13.9504 68.4442 13.7334 68.5282 13.5309C68.6122 13.3284 68.7354 13.1445 68.8906 12.9896ZM80.5039 25.003C80.5039 25.666 80.2405 26.3019 79.7717 26.7707C79.3028 27.2396 78.6669 27.503 78.0039 27.503C77.3409 27.503 76.705 27.2396 76.2361 26.7707C75.7673 26.3019 75.5039 25.666 75.5039 25.003C75.5039 24.3399 75.7673 23.7041 76.2361 23.2352C76.705 22.7664 77.3409 22.503 78.0039 22.503C78.6669 22.503 79.3028 22.7664 79.7717 23.2352C80.2405 23.7041 80.5039 24.3399 80.5039 25.003ZM92.9172 27.503C93.5803 27.503 94.2162 27.2396 94.685 26.7707C95.1538 26.3019 95.4172 25.666 95.4172 25.003C95.4172 24.3399 95.1538 23.7041 94.685 23.2352C94.2162 22.7664 93.5803 22.503 92.9172 22.503C92.2542 22.503 91.6183 22.7664 91.1495 23.2352C90.6806 23.7041 90.4172 24.3399 90.4172 25.003C90.4172 25.666 90.6806 26.3019 91.1495 26.7707C91.6183 27.2396 92.2542 27.503 92.9172 27.503Z" fill="black"/>
<path d="M58.8372 37.3242C57.9532 37.3242 57.1053 37.6754 56.4802 38.3005C55.8551 38.9257 55.5039 39.7735 55.5039 40.6576V60.6576C55.5039 61.5416 55.8551 62.3895 56.4802 63.0146C57.1053 63.6397 57.9532 63.9909 58.8372 63.9909C59.7213 63.9909 60.5691 63.6397 61.1943 63.0146C61.8194 62.3895 62.1706 61.5416 62.1706 60.6576V40.6576C62.1706 39.7735 61.8194 38.9257 61.1943 38.3005C60.5691 37.6754 59.7213 37.3242 58.8372 37.3242ZM68.8372 37.3242C67.9532 37.3242 67.1053 37.6754 66.4802 38.3005C65.8551 38.9257 65.5039 39.7735 65.5039 40.6576V70.6576C65.5039 71.5416 65.8551 72.3895 66.4802 73.0146C67.1053 73.6397 67.9532 73.9909 68.8372 73.9909H102.171C103.055 73.9909 103.902 73.6397 104.528 73.0146C105.153 72.3895 105.504 71.5416 105.504 70.6576V40.6576C105.504 39.7735 105.153 38.9257 104.528 38.3005C103.902 37.6754 103.055 37.3242 102.171 37.3242H68.8372ZM109.537 40.6576C109.537 39.7735 109.888 38.9257 110.514 38.3005C111.139 37.6754 111.987 37.3242 112.871 37.3242C113.755 37.3242 114.602 37.6754 115.228 38.3005C115.853 38.9257 116.204 39.7735 116.204 40.6576V60.6576C116.204 61.5416 115.853 62.3895 115.228 63.0146C114.602 63.6397 113.755 63.9909 112.871 63.9909C111.987 63.9909 111.139 63.6397 110.514 63.0146C109.888 62.3895 109.537 61.5416 109.537 60.6576V40.6576ZM71.4806 77.5009C71.352 77.5009 71.2248 77.5263 71.106 77.5755C70.9873 77.6248 70.8795 77.6971 70.7888 77.7881C70.698 77.8792 70.6262 77.9872 70.5773 78.1061C70.5284 78.225 70.5035 78.3523 70.5039 78.4809V79.1676C70.5039 80.7146 71.1185 82.1984 72.2124 83.2923C73.3064 84.3863 74.7901 85.0009 76.3372 85.0009C77.8843 85.0009 79.3681 84.3863 80.462 83.2923C81.556 82.1984 82.1706 80.7146 82.1706 79.1676V78.4809C82.171 78.3523 82.1461 78.225 82.0972 78.1061C82.0483 77.9872 81.9764 77.8792 81.8857 77.7881C81.795 77.6971 81.6871 77.6248 81.5684 77.5755C81.4497 77.5263 81.3224 77.5009 81.1939 77.5009H71.4806ZM88.8372 78.4809C88.8372 77.9376 89.2739 77.5009 89.8139 77.5009H99.5239C100.067 77.5009 100.504 77.9376 100.504 78.4809V79.1676C100.504 80.7146 99.8893 82.1984 98.7954 83.2923C97.7014 84.3863 96.2177 85.0009 94.6706 85.0009C93.1235 85.0009 91.6397 84.3863 90.5458 83.2923C89.4518 82.1984 88.8372 80.7146 88.8372 79.1676V78.4809Z" fill="black"/>
<path d="M66.5234 108.5L65.6211 105.882H61.8613L60.9521 108.5H59.3799L62.9414 98.6357H64.5889L68.1504 108.5H66.5234ZM63.6865 100.427L62.251 104.597H65.2314L63.8027 100.427H63.6865ZM69.7021 108.5V101.056H71.1172V102.238H71.2266C71.5889 101.411 72.3271 100.912 73.4482 100.912C75.1094 100.912 76.0254 101.91 76.0254 103.681V108.5H74.5557V104.05C74.5557 102.854 74.0361 102.259 72.9492 102.259C71.8623 102.259 71.1719 102.983 71.1719 104.146V108.5H69.7021ZM80.8174 108.623C78.9238 108.623 77.7275 107.133 77.7275 104.774C77.7275 102.423 78.9375 100.933 80.8174 100.933C81.8359 100.933 82.6973 101.418 83.1006 102.238H83.21V98.1504H84.6797V108.5H83.2715V107.324H83.1553C82.7109 108.138 81.8428 108.623 80.8174 108.623ZM81.2344 102.252C79.9971 102.252 79.2451 103.209 79.2451 104.774C79.2451 106.354 79.9902 107.304 81.2344 107.304C82.4717 107.304 83.2373 106.34 83.2373 104.781C83.2373 103.229 82.4648 102.252 81.2344 102.252ZM86.8877 108.5V101.056H88.3027V102.197H88.4121C88.624 101.466 89.4512 100.933 90.4219 100.933C90.6406 100.933 90.9209 100.953 91.0781 100.994V102.443C90.9551 102.402 90.5176 102.354 90.2578 102.354C89.1436 102.354 88.3574 103.059 88.3574 104.104V108.5H86.8877ZM95.4463 108.644C93.2656 108.644 91.9326 107.188 91.9326 104.774C91.9326 102.375 93.2725 100.912 95.4463 100.912C97.6133 100.912 98.9531 102.375 98.9531 104.774C98.9531 107.188 97.6201 108.644 95.4463 108.644ZM95.4463 107.338C96.7178 107.338 97.4424 106.395 97.4424 104.774C97.4424 103.161 96.7178 102.218 95.4463 102.218C94.168 102.218 93.4502 103.161 93.4502 104.774C93.4502 106.401 94.168 107.338 95.4463 107.338ZM100.751 108.5V101.056H102.214V108.5H100.751ZM101.482 99.75C100.936 99.75 100.532 99.3604 100.532 98.8545C100.532 98.3418 100.936 97.9521 101.482 97.9521C102.029 97.9521 102.433 98.3418 102.433 98.8545C102.433 99.3604 102.029 99.75 101.482 99.75ZM107.095 108.623C105.201 108.623 104.005 107.133 104.005 104.774C104.005 102.423 105.215 100.933 107.095 100.933C108.113 100.933 108.975 101.418 109.378 102.238H109.487V98.1504H110.957V108.5H109.549V107.324H109.433C108.988 108.138 108.12 108.623 107.095 108.623ZM107.512 102.252C106.274 102.252 105.522 103.209 105.522 104.774C105.522 106.354 106.268 107.304 107.512 107.304C108.749 107.304 109.515 106.34 109.515 104.781C109.515 103.229 108.742 102.252 107.512 102.252Z" fill="#888888"/>
</svg>
