<svg width="171" height="120" viewBox="0 0 171 120" fill="none" xmlns="http://www.w3.org/2000/svg">
<rect width="171" height="120" fill="white"/>
<path d="M85.5069 12.5L52.9219 24.12L57.8919 67.205L85.5069 82.5L113.122 67.205L118.092 24.12L85.5069 12.5Z" fill="#DD0031"/>
<path d="M85.5 12.5V20.27V20.235V82.5L113.115 67.205L118.085 24.12L85.5 12.5Z" fill="#C3002F"/>
<path d="M85.4989 20.2344L65.1289 65.9094H72.7239L76.8189 55.6894H94.1089L98.2039 65.9094H105.799L85.4989 20.2344ZM91.4489 49.3894H79.5489L85.4989 35.0744L91.4489 49.3894Z" fill="white"/>
<path d="M66.8652 108.5L65.9629 105.882H62.2031L61.2939 108.5H59.7217L63.2832 98.6357H64.9307L68.4922 108.5H66.8652ZM64.0283 100.427L62.5928 104.597H65.5732L64.1445 100.427H64.0283ZM70.0439 108.5V101.056H71.459V102.238H71.5684C71.9307 101.411 72.6689 100.912 73.79 100.912C75.4512 100.912 76.3672 101.91 76.3672 103.681V108.5H74.8975V104.05C74.8975 102.854 74.3779 102.259 73.291 102.259C72.2041 102.259 71.5137 102.983 71.5137 104.146V108.5H70.0439ZM81.5557 107.119C82.8135 107.119 83.5723 106.176 83.5723 104.686C83.5723 103.202 82.8066 102.252 81.5557 102.252C80.291 102.252 79.5801 103.202 79.5801 104.686C79.5801 106.169 80.291 107.119 81.5557 107.119ZM81.5762 111.344C79.7168 111.344 78.5137 110.51 78.3564 109.245H79.8604C79.9834 109.785 80.6055 110.134 81.5967 110.134C82.8203 110.134 83.5449 109.553 83.5449 108.568V107.14H83.4355C82.9844 107.946 82.1641 108.391 81.1387 108.391C79.2383 108.391 78.0625 106.921 78.0625 104.692C78.0625 102.423 79.252 100.933 81.1523 100.933C82.1777 100.933 83.0732 101.438 83.4902 102.245H83.6064V101.056H85.0146V108.562C85.0146 110.264 83.6816 111.344 81.5762 111.344ZM93.4229 101.056V108.5H92.0078V107.317H91.8916C91.5293 108.165 90.7705 108.644 89.6426 108.644C87.9951 108.644 87.0791 107.639 87.0791 105.889V101.056H88.5488V105.506C88.5488 106.709 89.0342 107.283 90.1143 107.283C91.3037 107.283 91.9531 106.579 91.9531 105.41V101.056H93.4229ZM95.624 108.5V98.1504H97.0938V108.5H95.624ZM101.735 107.386C102.843 107.386 103.663 106.682 103.663 105.759V105.137L101.845 105.253C100.819 105.321 100.354 105.67 100.354 106.326C100.354 106.996 100.936 107.386 101.735 107.386ZM101.359 108.623C99.9238 108.623 98.8779 107.755 98.8779 106.395C98.8779 105.055 99.876 104.282 101.646 104.173L103.663 104.057V103.414C103.663 102.628 103.144 102.184 102.139 102.184C101.318 102.184 100.751 102.484 100.587 103.011H99.165C99.3154 101.732 100.519 100.912 102.207 100.912C104.073 100.912 105.126 101.842 105.126 103.414V108.5H103.711V107.454H103.595C103.15 108.199 102.337 108.623 101.359 108.623ZM107.218 108.5V101.056H108.633V102.197H108.742C108.954 101.466 109.781 100.933 110.752 100.933C110.971 100.933 111.251 100.953 111.408 100.994V102.443C111.285 102.402 110.848 102.354 110.588 102.354C109.474 102.354 108.688 103.059 108.688 104.104V108.5H107.218Z" fill="#888888"/>
</svg>
