<svg width="171" height="120" viewBox="0 0 171 120" fill="none" xmlns="http://www.w3.org/2000/svg">
<rect width="171" height="120" fill="white"/>
<g clip-path="url(#clip0_969_18033)">
<path d="M99.7189 51.8109C96.5989 51.8109 93.8033 53.1909 91.8889 55.3609L86.982 51.8941C87.5215 50.4289 87.7991 48.8803 87.802 47.3191C87.802 45.7372 87.5145 44.2253 87.0083 42.8172L91.9064 39.3872C93.8202 41.5478 96.6083 42.9197 99.7189 42.9197C105.473 42.9197 110.158 38.2447 110.158 32.4997C110.158 26.7528 105.473 22.0797 99.7189 22.0797C93.962 22.0797 89.277 26.7528 89.277 32.4997C89.277 33.5278 89.4333 34.5184 89.7139 35.4591L84.8139 38.8891C82.7231 36.3006 79.7491 34.5763 76.4639 34.0478V28.1541C81.1933 27.1628 84.7577 22.9709 84.7577 17.9591C84.7577 12.2109 80.0727 7.53906 74.3183 7.53906C68.562 7.53906 63.8764 12.2116 63.8764 17.9591C63.8764 22.9028 67.3483 27.0459 71.982 28.1078V34.0747C65.6589 35.1828 60.832 40.6934 60.832 47.3191C60.832 53.9766 65.7052 59.5066 72.077 60.5759V66.8797C67.3945 67.9047 63.877 72.0728 63.877 77.0503C63.877 82.7978 68.5614 87.4703 74.3183 87.4703C80.0727 87.4703 84.7577 82.7978 84.7577 77.0503C84.7577 72.0728 81.2395 67.9053 76.5595 66.8797V60.5759C79.7822 60.0333 82.6986 58.34 84.7677 55.8103L89.7064 59.3016C89.4231 60.2525 89.2785 61.2393 89.277 62.2316C89.277 67.9784 93.962 72.6509 99.7189 72.6509C105.473 72.6509 110.158 67.9784 110.158 62.2316C110.158 56.4847 105.473 51.8109 99.7189 51.8109ZM99.7189 27.4459C102.51 27.4459 104.78 29.7147 104.78 32.4997C104.78 35.2828 102.51 37.5509 99.7189 37.5509C96.9258 37.5509 94.6552 35.2828 94.6552 32.4997C94.6552 29.7141 96.9258 27.4459 99.7189 27.4459ZM69.2552 17.9584C69.2552 15.1734 71.5252 12.9078 74.3183 12.9078C77.1089 12.9078 79.3795 15.1734 79.3795 17.9591C79.3795 20.7447 77.1089 23.0103 74.3183 23.0103C71.5252 23.0103 69.2552 20.7441 69.2552 17.9584ZM79.3795 77.0503C79.3795 79.8359 77.1089 82.1016 74.3183 82.1016C71.5252 82.1016 69.2552 79.8359 69.2552 77.0503C69.2552 74.2647 71.5252 71.9991 74.3183 71.9991C77.1089 71.9991 79.3795 74.2647 79.3795 77.0503ZM74.3158 54.3653C70.4245 54.3653 67.2577 51.2034 67.2577 47.3191C67.2577 43.4322 70.4245 40.2709 74.3158 40.2709C78.2095 40.2709 81.3764 43.4322 81.3764 47.3191C81.3764 51.2034 78.2102 54.3653 74.3158 54.3653ZM99.7189 67.2828C96.9258 67.2828 94.6552 65.0172 94.6552 62.2316C94.6552 59.4459 96.9258 57.1797 99.7189 57.1797C102.51 57.1797 104.78 59.4453 104.78 62.2309C104.78 65.0166 102.51 67.2828 99.7189 67.2828Z" fill="#231F20"/>
</g>
<path d="M46.6445 108.5L45.7422 105.882H41.9824L41.0732 108.5H39.501L43.0625 98.6357H44.71L48.2715 108.5H46.6445ZM43.8076 100.427L42.3721 104.597H45.3525L43.9238 100.427H43.8076ZM53.6855 100.933C55.5791 100.933 56.7754 102.409 56.7754 104.774C56.7754 107.14 55.5791 108.623 53.6992 108.623C52.6396 108.623 51.7988 108.158 51.4092 107.372H51.293V110.975H49.8232V101.056H51.2383V102.286H51.3477C51.7988 101.438 52.6738 100.933 53.6855 100.933ZM53.2686 107.304C54.5195 107.304 55.2646 106.354 55.2646 104.774C55.2646 103.202 54.5195 102.252 53.2754 102.252C52.0381 102.252 51.2656 103.223 51.2656 104.781C51.2656 106.333 52.0381 107.304 53.2686 107.304ZM60.9795 107.386C62.0869 107.386 62.9072 106.682 62.9072 105.759V105.137L61.0889 105.253C60.0635 105.321 59.5986 105.67 59.5986 106.326C59.5986 106.996 60.1797 107.386 60.9795 107.386ZM60.6035 108.623C59.168 108.623 58.1221 107.755 58.1221 106.395C58.1221 105.055 59.1201 104.282 60.8906 104.173L62.9072 104.057V103.414C62.9072 102.628 62.3877 102.184 61.3828 102.184C60.5625 102.184 59.9951 102.484 59.8311 103.011H58.4092C58.5596 101.732 59.7627 100.912 61.4512 100.912C63.3174 100.912 64.3701 101.842 64.3701 103.414V108.5H62.9551V107.454H62.8389C62.3945 108.199 61.5811 108.623 60.6035 108.623ZM72.7646 103.489H71.3359C71.165 102.765 70.5635 102.225 69.5791 102.225C68.3486 102.225 67.5967 103.168 67.5967 104.754C67.5967 106.367 68.3555 107.331 69.5791 107.331C70.5088 107.331 71.1445 106.907 71.3359 106.107H72.7646C72.5732 107.604 71.4248 108.644 69.5859 108.644C67.4189 108.644 66.0928 107.181 66.0928 104.754C66.0928 102.368 67.4121 100.912 69.5791 100.912C71.4453 100.912 72.5732 101.999 72.7646 103.489ZM74.5146 108.5V98.1504H75.9707V102.252H76.0869C76.4492 101.418 77.2354 100.919 78.3564 100.919C79.9424 100.919 80.9199 101.924 80.9199 103.694V108.5H79.4502V104.057C79.4502 102.867 78.8965 102.266 77.8574 102.266C76.6543 102.266 75.9844 103.024 75.9844 104.152V108.5H74.5146ZM86.0469 102.163C84.96 102.163 84.2012 102.929 84.1191 104.091H87.8789C87.8447 102.922 87.1338 102.163 86.0469 102.163ZM87.8721 106.49H89.2871C88.9521 107.823 87.7627 108.644 86.0605 108.644C83.9277 108.644 82.6221 107.181 82.6221 104.802C82.6221 102.423 83.9551 100.912 86.0537 100.912C88.125 100.912 89.376 102.327 89.376 104.665V105.178H84.1191V105.26C84.167 106.565 84.9258 107.393 86.1016 107.393C86.9902 107.393 87.5986 107.071 87.8721 106.49ZM96.6699 108.5H95.1387V98.6357H96.6699V103.257H96.7793L100.86 98.6357H102.672L98.8574 102.922L103 108.5H101.086L97.7773 104.022L96.6699 105.26V108.5ZM106.671 107.386C107.778 107.386 108.599 106.682 108.599 105.759V105.137L106.78 105.253C105.755 105.321 105.29 105.67 105.29 106.326C105.29 106.996 105.871 107.386 106.671 107.386ZM106.295 108.623C104.859 108.623 103.813 107.755 103.813 106.395C103.813 105.055 104.812 104.282 106.582 104.173L108.599 104.057V103.414C108.599 102.628 108.079 102.184 107.074 102.184C106.254 102.184 105.687 102.484 105.522 103.011H104.101C104.251 101.732 105.454 100.912 107.143 100.912C109.009 100.912 110.062 101.842 110.062 103.414V108.5H108.646V107.454H108.53C108.086 108.199 107.272 108.623 106.295 108.623ZM112.68 108.5V102.327H111.456V101.09H112.68V100.29C112.68 98.8135 113.432 98.082 114.977 98.082C115.312 98.082 115.599 98.1094 115.852 98.1572V99.3125C115.715 99.2852 115.517 99.2715 115.284 99.2715C114.464 99.2715 114.129 99.6406 114.129 100.379V101.09H115.79V102.327H114.149V108.5H112.68ZM119.112 104.159L122.065 101.056H123.802L120.739 104.248L124.007 108.5H122.202L119.646 105.219L118.996 105.834V108.5H117.526V98.1504H118.996V104.159H119.112ZM127.562 107.386C128.669 107.386 129.489 106.682 129.489 105.759V105.137L127.671 105.253C126.646 105.321 126.181 105.67 126.181 106.326C126.181 106.996 126.762 107.386 127.562 107.386ZM127.186 108.623C125.75 108.623 124.704 107.755 124.704 106.395C124.704 105.055 125.702 104.282 127.473 104.173L129.489 104.057V103.414C129.489 102.628 128.97 102.184 127.965 102.184C127.145 102.184 126.577 102.484 126.413 103.011H124.991C125.142 101.732 126.345 100.912 128.033 100.912C129.899 100.912 130.952 101.842 130.952 103.414V108.5H129.537V107.454H129.421C128.977 108.199 128.163 108.623 127.186 108.623Z" fill="#888888"/>
<defs>
<clipPath id="clip0_969_18033">
<rect width="80" height="80" fill="white" transform="translate(45.5 7.5)"/>
</clipPath>
</defs>
</svg>
