<svg width="513" height="384" viewBox="0 0 513 384" fill="none" xmlns="http://www.w3.org/2000/svg">
<g clip-path="url(#clip0_1124_21167)">
<rect width="513" height="383.999" rx="25.4937" fill="#888888" fill-opacity="0.04"/>
<g clip-path="url(#clip1_1124_21167)">
<g clip-path="url(#clip2_1124_21167)">
<rect x="127.996" y="43.5208" width="334.255" height="339.826" rx="22.2837" fill="white"/>
<mask id="mask0_1124_21167" style="mask-type:luminance" maskUnits="userSpaceOnUse" x="127" y="43" width="336" height="341">
<rect x="127.996" y="43.5208" width="334.255" height="339.826" rx="22.2837" fill="white"/>
</mask>
<g mask="url(#mask0_1124_21167)">
<g clip-path="url(#clip3_1124_21167)">
<rect x="187.051" y="162.738" width="291.916" height="1.11418" fill="#F1F1F5"/>
<path d="M158.294 162.469V150.315H159.073V162.469H158.294ZM160.915 153.961C160.858 153.48 160.627 153.106 160.222 152.84C159.817 152.575 159.32 152.442 158.731 152.442C158.301 152.442 157.924 152.511 157.601 152.651C157.282 152.79 157.032 152.981 156.851 153.225C156.674 153.469 156.585 153.746 156.585 154.056C156.585 154.315 156.647 154.539 156.77 154.725C156.897 154.909 157.058 155.062 157.255 155.186C157.451 155.306 157.657 155.406 157.872 155.485C158.087 155.561 158.285 155.623 158.465 155.67L159.453 155.936C159.706 156.003 159.988 156.094 160.298 156.211C160.611 156.329 160.911 156.488 161.195 156.691C161.484 156.89 161.721 157.147 161.908 157.46C162.094 157.774 162.188 158.158 162.188 158.614C162.188 159.139 162.05 159.614 161.775 160.038C161.503 160.462 161.104 160.8 160.578 161.05C160.056 161.3 159.421 161.425 158.674 161.425C157.978 161.425 157.375 161.312 156.865 161.088C156.359 160.863 155.96 160.55 155.669 160.148C155.381 159.746 155.218 159.279 155.18 158.747H156.395C156.427 159.114 156.55 159.418 156.766 159.658C156.984 159.896 157.259 160.073 157.592 160.19C157.927 160.304 158.288 160.361 158.674 160.361C159.124 160.361 159.527 160.288 159.885 160.143C160.243 159.994 160.526 159.788 160.735 159.526C160.944 159.26 161.048 158.949 161.048 158.595C161.048 158.272 160.958 158.009 160.778 157.807C160.597 157.604 160.36 157.44 160.065 157.313C159.771 157.186 159.453 157.076 159.111 156.981L157.915 156.639C157.155 156.42 156.554 156.109 156.11 155.703C155.667 155.298 155.446 154.768 155.446 154.113C155.446 153.568 155.593 153.094 155.887 152.688C156.185 152.28 156.584 151.964 157.084 151.739C157.587 151.511 158.149 151.397 158.769 151.397C159.396 151.397 159.953 151.509 160.441 151.734C160.928 151.956 161.314 152.26 161.599 152.646C161.887 153.032 162.039 153.47 162.055 153.961H160.915ZM167.467 151.53V161.254H166.289V152.764H166.232L163.858 154.341V153.144L166.289 151.53H167.467ZM171.422 158.595L171.403 157.209H171.631L174.822 153.961H176.208L172.809 157.398H172.714L171.422 158.595ZM170.378 161.254V151.53H171.498V161.254H170.378ZM175.012 161.254L172.163 157.645L172.961 156.867L176.436 161.254H175.012Z" fill="#92929D"/>
</g>
<g clip-path="url(#clip4_1124_21167)">
<rect x="187.051" y="203.963" width="291.916" height="1.11418" fill="#F1F1F5"/>
<path d="M146.548 203.694V191.539H147.326V203.694H146.548ZM149.168 195.186C149.111 194.705 148.88 194.331 148.475 194.065C148.07 193.799 147.573 193.666 146.984 193.666C146.554 193.666 146.177 193.736 145.854 193.875C145.535 194.015 145.285 194.206 145.104 194.45C144.927 194.694 144.838 194.971 144.838 195.281C144.838 195.54 144.9 195.763 145.024 195.95C145.15 196.134 145.312 196.287 145.508 196.411C145.704 196.531 145.91 196.631 146.125 196.71C146.34 196.786 146.538 196.848 146.719 196.895L147.706 197.161C147.959 197.227 148.241 197.319 148.551 197.436C148.865 197.553 149.164 197.713 149.449 197.916C149.737 198.115 149.974 198.372 150.161 198.685C150.348 198.998 150.441 199.383 150.441 199.839C150.441 200.364 150.303 200.839 150.028 201.263C149.756 201.687 149.357 202.024 148.831 202.274C148.309 202.525 147.674 202.65 146.927 202.65C146.231 202.65 145.628 202.537 145.118 202.312C144.612 202.088 144.213 201.774 143.922 201.372C143.634 200.97 143.471 200.503 143.433 199.972H144.648C144.68 200.339 144.804 200.643 145.019 200.883C145.237 201.121 145.513 201.298 145.845 201.415C146.18 201.529 146.541 201.586 146.927 201.586C147.377 201.586 147.78 201.513 148.138 201.368C148.496 201.219 148.779 201.013 148.988 200.75C149.197 200.485 149.301 200.174 149.301 199.82C149.301 199.497 149.211 199.234 149.031 199.032C148.85 198.829 148.613 198.664 148.319 198.538C148.024 198.411 147.706 198.3 147.364 198.205L146.168 197.864C145.408 197.645 144.807 197.333 144.364 196.928C143.92 196.523 143.699 195.993 143.699 195.338C143.699 194.793 143.846 194.319 144.14 193.913C144.438 193.505 144.837 193.188 145.337 192.964C145.84 192.736 146.402 192.622 147.022 192.622C147.649 192.622 148.206 192.734 148.694 192.959C149.181 193.181 149.567 193.484 149.852 193.871C150.14 194.257 150.292 194.695 150.308 195.186H149.168ZM152.605 202.479L156.954 193.875V193.799H151.941V192.755H158.17V193.856L153.84 202.479H152.605ZM162.943 202.612C162.386 202.612 161.885 202.501 161.438 202.279C160.992 202.058 160.634 201.754 160.365 201.368C160.096 200.981 159.949 200.541 159.924 200.048H161.063C161.107 200.488 161.307 200.852 161.661 201.14C162.019 201.425 162.446 201.567 162.943 201.567C163.342 201.567 163.697 201.474 164.007 201.287C164.32 201.1 164.566 200.844 164.743 200.518C164.923 200.189 165.013 199.817 165.013 199.402C165.013 198.978 164.92 198.6 164.733 198.267C164.55 197.932 164.296 197.667 163.974 197.474C163.651 197.281 163.282 197.183 162.867 197.18C162.57 197.177 162.264 197.223 161.951 197.318C161.638 197.409 161.38 197.528 161.177 197.674L160.076 197.541L160.664 192.755H165.716V193.799H161.652L161.31 196.667H161.367C161.566 196.509 161.816 196.378 162.117 196.273C162.418 196.169 162.731 196.116 163.057 196.116C163.652 196.116 164.183 196.259 164.648 196.544C165.116 196.825 165.483 197.212 165.749 197.702C166.018 198.193 166.153 198.753 166.153 199.383C166.153 200.003 166.014 200.557 165.735 201.045C165.46 201.529 165.08 201.912 164.596 202.194C164.111 202.472 163.561 202.612 162.943 202.612ZM171.306 202.612C170.591 202.612 169.982 202.417 169.478 202.028C168.975 201.635 168.59 201.067 168.324 200.323C168.059 199.576 167.926 198.674 167.926 197.617C167.926 196.566 168.059 195.669 168.324 194.925C168.594 194.178 168.98 193.608 169.483 193.215C169.989 192.82 170.597 192.622 171.306 192.622C172.015 192.622 172.621 192.82 173.125 193.215C173.631 193.608 174.017 194.178 174.283 194.925C174.552 195.669 174.687 196.566 174.687 197.617C174.687 198.674 174.554 199.576 174.288 200.323C174.022 201.067 173.637 201.635 173.134 202.028C172.631 202.417 172.022 202.612 171.306 202.612ZM171.306 201.567C172.015 201.567 172.566 201.225 172.958 200.541C173.351 199.858 173.547 198.883 173.547 197.617C173.547 196.775 173.457 196.058 173.277 195.466C173.099 194.874 172.843 194.423 172.507 194.113C172.175 193.803 171.775 193.647 171.306 193.647C170.603 193.647 170.054 193.994 169.659 194.687C169.263 195.377 169.065 196.354 169.065 197.617C169.065 198.459 169.154 199.174 169.331 199.763C169.508 200.352 169.763 200.799 170.095 201.106C170.431 201.414 170.835 201.567 171.306 201.567Z" fill="#92929D"/>
</g>
<g clip-path="url(#clip5_1124_21167)">
<path d="M145.582 244.919V232.764H146.36V244.919H145.582ZM148.203 236.411C148.146 235.93 147.915 235.556 147.509 235.29C147.104 235.024 146.607 234.891 146.019 234.891C145.588 234.891 145.211 234.961 144.889 235.1C144.569 235.239 144.319 235.431 144.138 235.675C143.961 235.918 143.872 236.195 143.872 236.506C143.872 236.765 143.934 236.988 144.058 237.175C144.184 237.359 144.346 237.512 144.542 237.636C144.738 237.756 144.944 237.856 145.159 237.935C145.374 238.011 145.572 238.072 145.753 238.12L146.74 238.386C146.993 238.452 147.275 238.544 147.585 238.661C147.899 238.778 148.198 238.938 148.483 239.141C148.771 239.34 149.008 239.597 149.195 239.91C149.382 240.223 149.475 240.608 149.475 241.064C149.475 241.589 149.337 242.064 149.062 242.488C148.79 242.912 148.391 243.249 147.865 243.499C147.343 243.749 146.709 243.874 145.962 243.874C145.265 243.874 144.662 243.762 144.153 243.537C143.646 243.313 143.247 242.999 142.956 242.597C142.668 242.195 142.505 241.728 142.467 241.197H143.683C143.714 241.564 143.838 241.868 144.053 242.108C144.271 242.346 144.547 242.523 144.879 242.64C145.215 242.754 145.575 242.811 145.962 242.811C146.411 242.811 146.815 242.738 147.172 242.592C147.53 242.444 147.813 242.238 148.022 241.975C148.231 241.709 148.336 241.399 148.336 241.045C148.336 240.722 148.245 240.459 148.065 240.256C147.884 240.054 147.647 239.889 147.353 239.763C147.058 239.636 146.74 239.525 146.398 239.43L145.202 239.088C144.442 238.87 143.841 238.558 143.398 238.153C142.955 237.748 142.733 237.218 142.733 236.563C142.733 236.018 142.88 235.543 143.175 235.138C143.472 234.73 143.871 234.413 144.371 234.189C144.874 233.961 145.436 233.847 146.057 233.847C146.683 233.847 147.24 233.959 147.728 234.184C148.215 234.405 148.601 234.709 148.886 235.095C149.174 235.482 149.326 235.92 149.342 236.411H148.203ZM154.374 243.836C153.817 243.836 153.315 243.726 152.869 243.504C152.423 243.283 152.065 242.979 151.796 242.592C151.527 242.206 151.38 241.766 151.355 241.273H152.494C152.538 241.713 152.738 242.077 153.092 242.365C153.45 242.649 153.877 242.792 154.374 242.792C154.773 242.792 155.128 242.699 155.438 242.512C155.751 242.325 155.996 242.069 156.174 241.743C156.354 241.413 156.444 241.041 156.444 240.627C156.444 240.203 156.351 239.824 156.164 239.492C155.981 239.157 155.727 238.892 155.405 238.699C155.082 238.506 154.713 238.408 154.298 238.405C154.001 238.402 153.695 238.448 153.382 238.542C153.069 238.634 152.811 238.753 152.608 238.899L151.507 238.766L152.095 233.98H157.147V235.024H153.083L152.741 237.892H152.798C152.997 237.734 153.247 237.602 153.548 237.498C153.849 237.393 154.162 237.341 154.488 237.341C155.083 237.341 155.613 237.484 156.079 237.769C156.547 238.05 156.914 238.436 157.18 238.927C157.449 239.418 157.584 239.978 157.584 240.608C157.584 241.228 157.445 241.782 157.166 242.27C156.891 242.754 156.511 243.137 156.027 243.419C155.542 243.697 154.991 243.836 154.374 243.836ZM162.737 243.836C162.022 243.836 161.412 243.642 160.909 243.252C160.406 242.86 160.021 242.292 159.755 241.548C159.49 240.801 159.357 239.899 159.357 238.842C159.357 237.791 159.49 236.893 159.755 236.15C160.024 235.403 160.411 234.833 160.914 234.44C161.42 234.045 162.028 233.847 162.737 233.847C163.446 233.847 164.052 234.045 164.556 234.44C165.062 234.833 165.448 235.403 165.714 236.15C165.983 236.893 166.118 237.791 166.118 238.842C166.118 239.899 165.985 240.801 165.719 241.548C165.453 242.292 165.068 242.86 164.565 243.252C164.062 243.642 163.452 243.836 162.737 243.836ZM162.737 242.792C163.446 242.792 163.997 242.45 164.389 241.766C164.782 241.083 164.978 240.108 164.978 238.842C164.978 238 164.888 237.283 164.708 236.691C164.53 236.099 164.274 235.648 163.938 235.338C163.606 235.027 163.206 234.872 162.737 234.872C162.034 234.872 161.485 235.219 161.09 235.912C160.694 236.602 160.496 237.579 160.496 238.842C160.496 239.684 160.585 240.399 160.762 240.988C160.939 241.576 161.194 242.024 161.526 242.331C161.862 242.638 162.265 242.792 162.737 242.792ZM171.189 243.836C170.474 243.836 169.864 243.642 169.361 243.252C168.858 242.86 168.473 242.292 168.207 241.548C167.941 240.801 167.808 239.899 167.808 238.842C167.808 237.791 167.941 236.893 168.207 236.15C168.476 235.403 168.863 234.833 169.366 234.44C169.872 234.045 170.48 233.847 171.189 233.847C171.898 233.847 172.504 234.045 173.007 234.44C173.514 234.833 173.9 235.403 174.166 236.15C174.435 236.893 174.57 237.791 174.57 238.842C174.57 239.899 174.437 240.801 174.171 241.548C173.905 242.292 173.52 242.86 173.017 243.252C172.514 243.642 171.904 243.836 171.189 243.836ZM171.189 242.792C171.898 242.792 172.449 242.45 172.841 241.766C173.234 241.083 173.43 240.108 173.43 238.842C173.43 238 173.34 237.283 173.159 236.691C172.982 236.099 172.726 235.648 172.39 235.338C172.058 235.027 171.657 234.872 171.189 234.872C170.486 234.872 169.937 235.219 169.541 235.912C169.146 236.602 168.948 237.579 168.948 238.842C168.948 239.684 169.037 240.399 169.214 240.988C169.391 241.576 169.646 242.024 169.978 242.331C170.314 242.638 170.717 242.792 171.189 242.792Z" fill="#92929D"/>
<rect x="187.051" y="245.188" width="291.916" height="1.11418" fill="#F1F1F5"/>
</g>
<g clip-path="url(#clip6_1124_21167)">
<path d="M146.96 286.144V273.989H147.739V286.144H146.96ZM149.581 277.636C149.524 277.154 149.293 276.781 148.888 276.515C148.483 276.249 147.986 276.116 147.397 276.116C146.966 276.116 146.59 276.186 146.267 276.325C145.947 276.464 145.697 276.656 145.517 276.9C145.339 277.143 145.251 277.42 145.251 277.73C145.251 277.99 145.313 278.213 145.436 278.4C145.563 278.584 145.724 278.737 145.92 278.86C146.116 278.981 146.322 279.08 146.537 279.16C146.753 279.236 146.951 279.297 147.131 279.345L148.119 279.611C148.372 279.677 148.653 279.769 148.964 279.886C149.277 280.003 149.576 280.163 149.861 280.366C150.149 280.565 150.386 280.821 150.573 281.135C150.76 281.448 150.853 281.833 150.853 282.288C150.853 282.814 150.716 283.289 150.44 283.713C150.168 284.137 149.769 284.474 149.244 284.724C148.722 284.974 148.087 285.099 147.34 285.099C146.644 285.099 146.041 284.987 145.531 284.762C145.024 284.537 144.626 284.224 144.334 283.822C144.046 283.42 143.883 282.953 143.845 282.421H145.061C145.093 282.789 145.216 283.092 145.431 283.333C145.65 283.57 145.925 283.748 146.257 283.865C146.593 283.979 146.954 284.036 147.34 284.036C147.789 284.036 148.193 283.963 148.551 283.817C148.908 283.669 149.192 283.463 149.4 283.2C149.609 282.934 149.714 282.624 149.714 282.269C149.714 281.947 149.624 281.684 149.443 281.481C149.263 281.279 149.025 281.114 148.731 280.988C148.437 280.861 148.119 280.75 147.777 280.655L146.58 280.313C145.821 280.095 145.219 279.783 144.776 279.378C144.333 278.973 144.111 278.443 144.111 277.787C144.111 277.243 144.258 276.768 144.553 276.363C144.85 275.955 145.249 275.638 145.749 275.413C146.253 275.186 146.814 275.072 147.435 275.072C148.062 275.072 148.619 275.184 149.106 275.409C149.594 275.63 149.98 275.934 150.265 276.32C150.553 276.706 150.705 277.145 150.72 277.636H149.581ZM152.714 284.928V284.074L155.924 280.56C156.3 280.149 156.61 279.791 156.854 279.487C157.098 279.18 157.278 278.892 157.395 278.623C157.516 278.351 157.576 278.066 157.576 277.768C157.576 277.427 157.493 277.131 157.329 276.881C157.167 276.631 156.946 276.437 156.664 276.301C156.382 276.165 156.066 276.097 155.715 276.097C155.341 276.097 155.015 276.175 154.737 276.33C154.461 276.482 154.247 276.695 154.096 276.971C153.947 277.246 153.872 277.569 153.872 277.939H152.752C152.752 277.37 152.883 276.87 153.146 276.439C153.409 276.009 153.766 275.673 154.219 275.432C154.675 275.192 155.186 275.072 155.753 275.072C156.322 275.072 156.827 275.192 157.267 275.432C157.707 275.673 158.052 275.997 158.302 276.406C158.552 276.814 158.677 277.268 158.677 277.768C158.677 278.126 158.612 278.476 158.483 278.818C158.356 279.156 158.134 279.535 157.818 279.953C157.505 280.367 157.069 280.874 156.512 281.472L154.328 283.808V283.884H158.848V284.928H152.714ZM163.943 285.061C163.386 285.061 162.885 284.951 162.438 284.729C161.992 284.507 161.634 284.203 161.365 283.817C161.096 283.431 160.949 282.991 160.924 282.497H162.063C162.107 282.937 162.307 283.301 162.661 283.589C163.019 283.874 163.446 284.017 163.943 284.017C164.342 284.017 164.697 283.923 165.007 283.737C165.32 283.55 165.566 283.293 165.743 282.967C165.923 282.638 166.013 282.266 166.013 281.852C166.013 281.428 165.92 281.049 165.733 280.717C165.55 280.381 165.296 280.117 164.974 279.924C164.651 279.731 164.282 279.633 163.867 279.63C163.57 279.626 163.264 279.672 162.951 279.767C162.638 279.859 162.38 279.978 162.177 280.123L161.076 279.99L161.664 275.205H166.716V276.249H162.652L162.31 279.117H162.367C162.566 278.959 162.816 278.827 163.117 278.723C163.418 278.618 163.731 278.566 164.057 278.566C164.652 278.566 165.183 278.709 165.648 278.993C166.116 279.275 166.483 279.661 166.749 280.152C167.018 280.643 167.153 281.203 167.153 281.833C167.153 282.453 167.014 283.007 166.735 283.494C166.46 283.979 166.08 284.362 165.596 284.643C165.111 284.922 164.561 285.061 163.943 285.061ZM172.306 285.061C171.591 285.061 170.982 284.867 170.478 284.477C169.975 284.085 169.59 283.517 169.324 282.773C169.059 282.026 168.926 281.124 168.926 280.066C168.926 279.016 169.059 278.118 169.324 277.374C169.594 276.627 169.98 276.058 170.483 275.665C170.989 275.269 171.597 275.072 172.306 275.072C173.015 275.072 173.621 275.269 174.125 275.665C174.631 276.058 175.017 276.627 175.283 277.374C175.552 278.118 175.687 279.016 175.687 280.066C175.687 281.124 175.554 282.026 175.288 282.773C175.022 283.517 174.637 284.085 174.134 284.477C173.631 284.867 173.022 285.061 172.306 285.061ZM172.306 284.017C173.015 284.017 173.566 283.675 173.958 282.991C174.351 282.307 174.547 281.333 174.547 280.066C174.547 279.224 174.457 278.508 174.277 277.916C174.099 277.324 173.843 276.873 173.507 276.562C173.175 276.252 172.775 276.097 172.306 276.097C171.603 276.097 171.054 276.444 170.659 277.137C170.263 277.827 170.065 278.803 170.065 280.066C170.065 280.908 170.154 281.624 170.331 282.213C170.508 282.801 170.763 283.249 171.095 283.556C171.431 283.863 171.835 284.017 172.306 284.017Z" fill="#92929D"/>
<rect x="187.051" y="286.413" width="291.916" height="1.11418" fill="#F1F1F5"/>
</g>
<g clip-path="url(#clip7_1124_21167)">
<path d="M161.982 327.369V315.214H162.761V327.369H161.982ZM164.603 318.86C164.546 318.379 164.315 318.006 163.91 317.74C163.505 317.474 163.008 317.341 162.419 317.341C161.989 317.341 161.612 317.411 161.289 317.55C160.969 317.689 160.719 317.881 160.539 318.124C160.362 318.368 160.273 318.645 160.273 318.955C160.273 319.215 160.335 319.438 160.458 319.625C160.585 319.808 160.746 319.962 160.942 320.085C161.139 320.205 161.344 320.305 161.56 320.384C161.775 320.46 161.973 320.522 162.153 320.569L163.141 320.835C163.394 320.902 163.676 320.994 163.986 321.111C164.299 321.228 164.598 321.388 164.883 321.59C165.171 321.79 165.409 322.046 165.595 322.359C165.782 322.673 165.876 323.057 165.876 323.513C165.876 324.039 165.738 324.513 165.463 324.938C165.19 325.362 164.791 325.699 164.266 325.949C163.744 326.199 163.109 326.324 162.362 326.324C161.666 326.324 161.063 326.212 160.553 325.987C160.047 325.762 159.648 325.449 159.357 325.047C159.069 324.645 158.906 324.178 158.868 323.646H160.083C160.115 324.013 160.238 324.317 160.453 324.558C160.672 324.795 160.947 324.972 161.28 325.09C161.615 325.203 161.976 325.26 162.362 325.26C162.812 325.26 163.215 325.188 163.573 325.042C163.93 324.893 164.214 324.688 164.423 324.425C164.632 324.159 164.736 323.849 164.736 323.494C164.736 323.171 164.646 322.909 164.465 322.706C164.285 322.503 164.048 322.339 163.753 322.212C163.459 322.086 163.141 321.975 162.799 321.88L161.602 321.538C160.843 321.32 160.241 321.008 159.798 320.603C159.355 320.198 159.133 319.667 159.133 319.012C159.133 318.468 159.281 317.993 159.575 317.588C159.873 317.179 160.271 316.863 160.772 316.638C161.275 316.41 161.837 316.296 162.457 316.296C163.084 316.296 163.641 316.409 164.128 316.633C164.616 316.855 165.002 317.159 165.287 317.545C165.575 317.931 165.727 318.37 165.743 318.86H164.603ZM170.908 326.286C170.192 326.286 169.583 326.091 169.08 325.702C168.577 325.31 168.192 324.741 167.926 323.998C167.66 323.251 167.527 322.348 167.527 321.291C167.527 320.24 167.66 319.343 167.926 318.599C168.195 317.852 168.581 317.282 169.085 316.89C169.591 316.494 170.199 316.296 170.908 316.296C171.617 316.296 172.223 316.494 172.726 316.89C173.233 317.282 173.619 317.852 173.885 318.599C174.154 319.343 174.288 320.24 174.288 321.291C174.288 322.348 174.155 323.251 173.889 323.998C173.624 324.741 173.239 325.31 172.736 325.702C172.232 326.091 171.623 326.286 170.908 326.286ZM170.908 325.241C171.617 325.241 172.168 324.9 172.56 324.216C172.953 323.532 173.149 322.557 173.149 321.291C173.149 320.449 173.059 319.732 172.878 319.14C172.701 318.548 172.444 318.097 172.109 317.787C171.777 317.477 171.376 317.322 170.908 317.322C170.205 317.322 169.656 317.669 169.26 318.362C168.865 319.052 168.667 320.028 168.667 321.291C168.667 322.133 168.755 322.849 168.933 323.437C169.11 324.026 169.365 324.474 169.697 324.781C170.033 325.088 170.436 325.241 170.908 325.241Z" fill="#92929D"/>
<rect x="187.051" y="327.637" width="291.916" height="1.11418" fill="#F1F1F5"/>
</g>
<g clip-path="url(#clip8_1124_21167)">
<path d="M368.174 347.549H369.813L373.668 356.966H373.801L377.657 347.549H379.296V358.893H378.011V350.274H377.9L374.355 358.893H373.115L369.569 350.274H369.459V358.893H368.174V347.549ZM384.489 359.093C383.95 359.093 383.46 358.991 383.021 358.788C382.581 358.581 382.232 358.284 381.974 357.896C381.715 357.505 381.586 357.032 381.586 356.478C381.586 355.991 381.682 355.596 381.874 355.293C382.066 354.986 382.323 354.746 382.644 354.573C382.965 354.399 383.32 354.27 383.708 354.185C384.099 354.096 384.492 354.026 384.887 353.975C385.404 353.908 385.824 353.858 386.145 353.825C386.47 353.788 386.706 353.727 386.854 353.642C387.005 353.557 387.081 353.41 387.081 353.199V353.155C387.081 352.608 386.931 352.184 386.632 351.881C386.337 351.578 385.888 351.427 385.286 351.427C384.662 351.427 384.173 351.563 383.818 351.836C383.464 352.11 383.215 352.401 383.071 352.712L381.83 352.268C382.051 351.751 382.347 351.349 382.716 351.061C383.089 350.769 383.495 350.566 383.935 350.452C384.378 350.333 384.814 350.274 385.242 350.274C385.515 350.274 385.829 350.308 386.184 350.374C386.542 350.437 386.887 350.568 387.22 350.767C387.556 350.967 387.834 351.268 388.056 351.67C388.278 352.073 388.388 352.612 388.388 353.288V358.893H387.081V357.741H387.015C386.926 357.926 386.778 358.123 386.571 358.334C386.365 358.544 386.09 358.724 385.746 358.871C385.403 359.019 384.984 359.093 384.489 359.093ZM384.688 357.919C385.205 357.919 385.641 357.817 385.995 357.614C386.354 357.411 386.623 357.149 386.804 356.827C386.989 356.506 387.081 356.168 387.081 355.814V354.617C387.026 354.684 386.904 354.745 386.715 354.8C386.531 354.852 386.317 354.898 386.073 354.938C385.833 354.975 385.598 355.009 385.369 355.038C385.144 355.064 384.961 355.086 384.821 355.105C384.481 355.149 384.164 355.221 383.868 355.321C383.577 355.417 383.34 355.562 383.159 355.758C382.982 355.95 382.893 356.212 382.893 356.545C382.893 356.999 383.061 357.342 383.397 357.575C383.737 357.804 384.167 357.919 384.688 357.919ZM391.423 362.084C391.202 362.084 391.004 362.066 390.83 362.029C390.657 361.995 390.537 361.962 390.47 361.929L390.803 360.777C391.12 360.858 391.401 360.888 391.645 360.865C391.888 360.843 392.104 360.734 392.293 360.539C392.485 360.347 392.66 360.035 392.819 359.602L393.063 358.938L389.916 350.385H391.334L393.683 357.165H393.772L396.12 350.385H397.538L393.927 360.134C393.764 360.574 393.563 360.937 393.323 361.225C393.083 361.517 392.804 361.733 392.487 361.874C392.173 362.014 391.818 362.084 391.423 362.084Z" fill="#92929D"/>
<path fill-rule="evenodd" clip-rule="evenodd" d="M385.464 328.752V153.179C385.464 151.074 387.17 149.368 389.275 149.368C391.379 149.368 393.086 151.074 393.086 153.179V328.752H385.464Z" fill="#FFA800"/>
<path fill-rule="evenodd" clip-rule="evenodd" d="M373.206 328.752V210.002C373.206 207.898 374.912 206.191 377.017 206.191C379.122 206.191 380.828 207.898 380.828 210.002V328.752H373.206Z" fill="#523DD5"/>
</g>
<g clip-path="url(#clip9_1124_21167)">
<path d="M326.396 358.893H324.956L329.122 347.549H330.54L334.705 358.893H333.265L329.875 349.344H329.786L326.396 358.893ZM326.928 354.462H332.733V355.681H326.928V354.462ZM336.406 362.084V350.385H337.669V351.737H337.824C337.92 351.589 338.053 351.401 338.223 351.172C338.397 350.939 338.644 350.732 338.965 350.551C339.29 350.367 339.73 350.274 340.284 350.274C341 350.274 341.632 350.453 342.178 350.812C342.725 351.17 343.151 351.678 343.458 352.335C343.764 352.992 343.918 353.768 343.918 354.661C343.918 355.562 343.764 356.344 343.458 357.005C343.151 357.662 342.727 358.171 342.184 358.533C341.641 358.892 341.015 359.071 340.306 359.071C339.759 359.071 339.322 358.98 338.993 358.799C338.664 358.615 338.411 358.406 338.234 358.173C338.057 357.937 337.92 357.741 337.824 357.586H337.714V362.084H336.406ZM337.691 354.639C337.691 355.282 337.786 355.849 337.974 356.34C338.162 356.827 338.437 357.209 338.799 357.486C339.161 357.76 339.604 357.896 340.129 357.896C340.675 357.896 341.131 357.752 341.497 357.464C341.866 357.173 342.143 356.781 342.328 356.29C342.516 355.795 342.61 355.245 342.61 354.639C342.61 354.041 342.518 353.502 342.333 353.022C342.152 352.538 341.877 352.156 341.508 351.875C341.142 351.591 340.683 351.449 340.129 351.449C339.597 351.449 339.15 351.583 338.788 351.853C338.426 352.119 338.153 352.492 337.968 352.972C337.784 353.448 337.691 354.004 337.691 354.639ZM346.023 358.893V350.385H347.286V351.67H347.375C347.53 351.249 347.81 350.908 348.217 350.645C348.623 350.383 349.081 350.252 349.59 350.252C349.686 350.252 349.806 350.254 349.95 350.258C350.094 350.261 350.203 350.267 350.277 350.274V351.604C350.233 351.593 350.131 351.576 349.973 351.554C349.817 351.528 349.653 351.515 349.48 351.515C349.066 351.515 348.697 351.602 348.372 351.775C348.05 351.945 347.796 352.182 347.607 352.485C347.423 352.784 347.33 353.125 347.33 353.509V358.893H346.023Z" fill="#92929D"/>
<path fill-rule="evenodd" clip-rule="evenodd" d="M339.78 328.752V176.577C339.78 174.472 341.486 172.766 343.591 172.766C345.696 172.766 347.402 174.472 347.402 176.577V328.752H339.78Z" fill="#FFA800"/>
<path fill-rule="evenodd" clip-rule="evenodd" d="M327.526 328.752V243.428C327.526 241.323 329.232 239.617 331.337 239.617C333.442 239.617 335.148 241.323 335.148 243.428V328.752H327.526Z" fill="#523DD5"/>
</g>
<g clip-path="url(#clip10_1124_21167)">
<path d="M281.054 347.549H282.694L286.549 356.966H286.682L290.538 347.549H292.177V358.893H290.892V350.274H290.781L287.236 358.893H285.995L282.45 350.274H282.34V358.893H281.054V347.549ZM297.37 359.093C296.83 359.093 296.341 358.991 295.902 358.788C295.462 358.581 295.113 358.284 294.855 357.896C294.596 357.505 294.467 357.032 294.467 356.478C294.467 355.991 294.563 355.596 294.755 355.293C294.947 354.986 295.204 354.746 295.525 354.573C295.846 354.399 296.201 354.27 296.589 354.185C296.98 354.096 297.373 354.026 297.768 353.975C298.285 353.908 298.705 353.858 299.026 353.825C299.351 353.788 299.587 353.727 299.735 353.642C299.886 353.557 299.962 353.41 299.962 353.199V353.155C299.962 352.608 299.812 352.184 299.513 351.881C299.218 351.578 298.769 351.427 298.167 351.427C297.543 351.427 297.054 351.563 296.699 351.836C296.345 352.11 296.096 352.401 295.952 352.712L294.711 352.268C294.932 351.751 295.228 351.349 295.597 351.061C295.97 350.769 296.376 350.566 296.816 350.452C297.259 350.333 297.695 350.274 298.123 350.274C298.396 350.274 298.71 350.308 299.065 350.374C299.423 350.437 299.768 350.568 300.1 350.767C300.437 350.967 300.715 351.268 300.937 351.67C301.158 352.073 301.269 352.612 301.269 353.288V358.893H299.962V357.741H299.896C299.807 357.926 299.659 358.123 299.452 358.334C299.246 358.544 298.97 358.724 298.627 358.871C298.284 359.019 297.864 359.093 297.37 359.093ZM297.569 357.919C298.086 357.919 298.522 357.817 298.876 357.614C299.234 357.411 299.504 357.149 299.685 356.827C299.87 356.506 299.962 356.168 299.962 355.814V354.617C299.907 354.684 299.785 354.745 299.596 354.8C299.412 354.852 299.198 354.898 298.954 354.938C298.714 354.975 298.479 355.009 298.25 355.038C298.025 355.064 297.842 355.086 297.702 355.105C297.362 355.149 297.045 355.221 296.749 355.321C296.457 355.417 296.221 355.562 296.04 355.758C295.863 355.95 295.774 356.212 295.774 356.545C295.774 356.999 295.942 357.342 296.278 357.575C296.618 357.804 297.048 357.919 297.569 357.919ZM303.767 358.893V350.385H305.03V351.67H305.118C305.273 351.249 305.554 350.908 305.96 350.645C306.366 350.383 306.824 350.252 307.334 350.252C307.43 350.252 307.55 350.254 307.694 350.258C307.838 350.261 307.947 350.267 308.021 350.274V351.604C307.977 351.593 307.875 351.576 307.716 351.554C307.561 351.528 307.397 351.515 307.223 351.515C306.81 351.515 306.44 351.602 306.115 351.775C305.794 351.945 305.539 352.182 305.351 352.485C305.166 352.784 305.074 353.125 305.074 353.509V358.893H303.767Z" fill="#92929D"/>
<path fill-rule="evenodd" clip-rule="evenodd" d="M296.331 328.751V198.86C296.331 196.756 298.037 195.049 300.142 195.049C302.247 195.049 303.953 196.756 303.953 198.86V328.751H296.331Z" fill="#FFA800"/>
<path fill-rule="evenodd" clip-rule="evenodd" d="M284.073 328.751V232.286C284.073 230.181 285.779 228.475 287.884 228.475C289.989 228.475 291.695 230.181 291.695 232.286V328.751H284.073Z" fill="#523DD5"/>
</g>
<g clip-path="url(#clip11_1124_21167)">
<path d="M238.801 358.893V347.549H245.603V348.768H240.175V352.601H245.094V353.819H240.175V358.893H238.801ZM250.833 359.071C250.013 359.071 249.306 358.89 248.711 358.528C248.121 358.162 247.665 357.653 247.343 356.999C247.026 356.342 246.867 355.577 246.867 354.706C246.867 353.834 247.026 353.066 247.343 352.401C247.665 351.733 248.111 351.212 248.684 350.839C249.26 350.463 249.932 350.274 250.7 350.274C251.143 350.274 251.581 350.348 252.013 350.496C252.445 350.644 252.838 350.884 253.193 351.216C253.547 351.545 253.83 351.98 254.04 352.523C254.251 353.066 254.356 353.735 254.356 354.528V355.082H247.797V353.952H253.027C253.027 353.472 252.931 353.044 252.738 352.667C252.55 352.291 252.281 351.993 251.93 351.775C251.583 351.558 251.173 351.449 250.7 351.449C250.179 351.449 249.729 351.578 249.348 351.836C248.972 352.091 248.682 352.424 248.479 352.833C248.276 353.243 248.174 353.683 248.174 354.152V354.905C248.174 355.548 248.285 356.092 248.506 356.539C248.732 356.982 249.044 357.32 249.443 357.553C249.841 357.782 250.305 357.896 250.833 357.896C251.176 357.896 251.487 357.848 251.764 357.752C252.044 357.653 252.286 357.505 252.489 357.309C252.692 357.11 252.849 356.862 252.96 356.567L254.223 356.921C254.09 357.35 253.867 357.726 253.553 358.051C253.239 358.373 252.851 358.624 252.39 358.805C251.928 358.982 251.409 359.071 250.833 359.071ZM256.633 358.893V347.549H257.94V351.737H258.051C258.147 351.589 258.28 351.401 258.45 351.172C258.624 350.939 258.871 350.732 259.192 350.551C259.517 350.367 259.957 350.274 260.511 350.274C261.227 350.274 261.859 350.453 262.405 350.812C262.952 351.17 263.378 351.678 263.685 352.335C263.991 352.992 264.144 353.768 264.144 354.661C264.144 355.562 263.991 356.344 263.685 357.005C263.378 357.662 262.954 358.171 262.411 358.533C261.868 358.892 261.242 359.071 260.533 359.071C259.986 359.071 259.549 358.98 259.22 358.799C258.891 358.615 258.638 358.406 258.461 358.173C258.284 357.937 258.147 357.741 258.051 357.586H257.896V358.893H256.633ZM257.918 354.639C257.918 355.282 258.013 355.849 258.201 356.34C258.389 356.827 258.664 357.209 259.026 357.486C259.388 357.76 259.831 357.896 260.356 357.896C260.902 357.896 261.358 357.752 261.724 357.464C262.093 357.173 262.37 356.781 262.555 356.29C262.743 355.795 262.837 355.245 262.837 354.639C262.837 354.041 262.745 353.502 262.56 353.022C262.379 352.538 262.104 352.156 261.735 351.875C261.369 351.591 260.91 351.449 260.356 351.449C259.824 351.449 259.377 351.583 259.015 351.853C258.653 352.119 258.38 352.492 258.195 352.972C258.011 353.448 257.918 354.004 257.918 354.639Z" fill="#92929D"/>
<path fill-rule="evenodd" clip-rule="evenodd" d="M252.878 328.752V165.435C252.878 163.33 254.584 161.624 256.689 161.624C258.793 161.624 260.5 163.33 260.5 165.435V328.752H252.878Z" fill="#FFA800"/>
<path fill-rule="evenodd" clip-rule="evenodd" d="M240.62 328.752V187.719C240.62 185.614 242.326 183.908 244.431 183.908C246.536 183.908 248.242 185.614 248.242 187.719V328.752H240.62Z" fill="#523DD5"/>
</g>
<g clip-path="url(#clip12_1124_21167)">
<path d="M420.12 347.549H421.494V355.659C421.494 356.382 421.361 356.997 421.095 357.503C420.829 358.009 420.454 358.393 419.97 358.655C419.487 358.917 418.916 359.049 418.259 359.049C417.638 359.049 417.086 358.936 416.603 358.711C416.119 358.482 415.738 358.157 415.461 357.736C415.185 357.315 415.046 356.814 415.046 356.235H416.398C416.398 356.556 416.477 356.837 416.636 357.077C416.798 357.313 417.02 357.498 417.301 357.63C417.581 357.763 417.901 357.83 418.259 357.83C418.654 357.83 418.99 357.747 419.267 357.581C419.544 357.414 419.754 357.171 419.898 356.849C420.046 356.524 420.12 356.127 420.12 355.659V347.549ZM429.543 355.415V350.385H430.85V358.893H429.543V357.453H429.454C429.255 357.885 428.945 358.253 428.524 358.556C428.103 358.855 427.571 359.004 426.928 359.004C426.397 359.004 425.924 358.888 425.51 358.655C425.097 358.419 424.772 358.064 424.535 357.592C424.299 357.115 424.181 356.515 424.181 355.791V350.385H425.488V355.703C425.488 356.323 425.662 356.818 426.009 357.187C426.36 357.557 426.807 357.741 427.349 357.741C427.674 357.741 428.005 357.658 428.341 357.492C428.681 357.326 428.965 357.071 429.194 356.728C429.427 356.384 429.543 355.947 429.543 355.415ZM434.663 353.775V358.893H433.356V350.385H434.619V351.715H434.73C434.929 351.282 435.232 350.935 435.638 350.673C436.044 350.407 436.569 350.274 437.211 350.274C437.787 350.274 438.291 350.393 438.724 350.629C439.156 350.861 439.492 351.216 439.732 351.692C439.972 352.165 440.092 352.763 440.092 353.487V358.893H438.784V353.576C438.784 352.907 438.611 352.387 438.264 352.014C437.917 351.637 437.44 351.449 436.835 351.449C436.417 351.449 436.044 351.539 435.716 351.72C435.391 351.901 435.134 352.165 434.946 352.512C434.757 352.859 434.663 353.28 434.663 353.775Z" fill="#92929D"/>
<path fill-rule="evenodd" clip-rule="evenodd" d="M429.945 328.752L429.945 153.268C429.945 151.114 431.691 149.368 433.845 149.368C435.999 149.368 437.745 151.114 437.745 153.268V328.752H429.945Z" fill="#FFA800"/>
<path fill-rule="evenodd" clip-rule="evenodd" d="M417.688 328.752L417.688 243.517C417.688 241.363 419.433 239.617 421.587 239.617C423.741 239.617 425.487 241.363 425.487 243.517V328.752H417.688Z" fill="#523DD5"/>
</g>
<g clip-path="url(#clip13_1124_21167)">
<path d="M199.648 347.549H201.021V355.659C201.021 356.382 200.889 356.997 200.623 357.503C200.357 358.009 199.982 358.393 199.498 358.655C199.014 358.918 198.444 359.049 197.787 359.049C197.166 359.049 196.614 358.936 196.13 358.711C195.647 358.482 195.266 358.157 194.989 357.736C194.712 357.315 194.574 356.814 194.574 356.235H195.925C195.925 356.556 196.005 356.837 196.164 357.077C196.326 357.313 196.548 357.498 196.828 357.631C197.109 357.764 197.428 357.83 197.787 357.83C198.182 357.83 198.518 357.747 198.795 357.581C199.072 357.415 199.282 357.171 199.426 356.85C199.574 356.525 199.648 356.128 199.648 355.659V347.549ZM206.212 359.093C205.673 359.093 205.184 358.991 204.744 358.788C204.305 358.582 203.956 358.284 203.698 357.896C203.439 357.505 203.31 357.032 203.31 356.478C203.31 355.991 203.406 355.596 203.598 355.293C203.79 354.987 204.047 354.746 204.368 354.573C204.689 354.399 205.044 354.27 205.431 354.185C205.823 354.097 206.216 354.026 206.611 353.975C207.128 353.908 207.547 353.858 207.869 353.825C208.194 353.788 208.43 353.727 208.578 353.642C208.729 353.557 208.805 353.41 208.805 353.199V353.155C208.805 352.608 208.655 352.184 208.356 351.881C208.061 351.578 207.612 351.427 207.01 351.427C206.386 351.427 205.897 351.563 205.542 351.837C205.188 352.11 204.938 352.402 204.794 352.712L203.554 352.269C203.775 351.752 204.071 351.349 204.44 351.061C204.813 350.769 205.219 350.566 205.658 350.452C206.102 350.334 206.537 350.274 206.966 350.274C207.239 350.274 207.553 350.308 207.907 350.374C208.266 350.437 208.611 350.568 208.943 350.767C209.279 350.967 209.558 351.268 209.78 351.67C210.001 352.073 210.112 352.612 210.112 353.288V358.894H208.805V357.741H208.738C208.65 357.926 208.502 358.124 208.295 358.334C208.088 358.545 207.813 358.724 207.47 358.871C207.126 359.019 206.707 359.093 206.212 359.093ZM206.412 357.919C206.929 357.919 207.365 357.817 207.719 357.614C208.077 357.411 208.347 357.149 208.528 356.827C208.712 356.506 208.805 356.168 208.805 355.814V354.617C208.749 354.684 208.628 354.745 208.439 354.8C208.255 354.852 208.04 354.898 207.797 354.939C207.557 354.975 207.322 355.009 207.093 355.038C206.868 355.064 206.685 355.086 206.545 355.105C206.205 355.149 205.887 355.221 205.592 355.321C205.3 355.417 205.064 355.563 204.883 355.758C204.706 355.95 204.617 356.213 204.617 356.545C204.617 356.999 204.785 357.343 205.121 357.575C205.461 357.804 205.891 357.919 206.412 357.919ZM213.917 353.775V358.894H212.609V350.385H213.872V351.715H213.983C214.183 351.283 214.485 350.935 214.892 350.673C215.298 350.407 215.822 350.274 216.465 350.274C217.041 350.274 217.545 350.393 217.977 350.629C218.409 350.862 218.745 351.216 218.985 351.693C219.225 352.165 219.345 352.763 219.345 353.487V358.894H218.038V353.576C218.038 352.907 217.864 352.387 217.517 352.014C217.17 351.637 216.694 351.449 216.088 351.449C215.671 351.449 215.298 351.539 214.969 351.72C214.644 351.901 214.388 352.165 214.199 352.512C214.011 352.859 213.917 353.28 213.917 353.775Z" fill="#92929D"/>
<path fill-rule="evenodd" clip-rule="evenodd" d="M209.425 328.752V187.719C209.425 185.614 211.131 183.908 213.236 183.908C215.34 183.908 217.047 185.614 217.047 187.719V328.752H209.425Z" fill="#FFA800"/>
<path fill-rule="evenodd" clip-rule="evenodd" d="M197.167 328.752V243.428C197.167 241.323 198.873 239.617 200.978 239.617C203.083 239.617 204.789 241.323 204.789 243.428V328.752H197.167Z" fill="#523DD5"/>
</g>
</g>
<g clip-path="url(#clip14_1124_21167)">
<rect x="268.387" y="108.143" width="8.91347" height="11.1418" rx="4.45674" fill="#523DD5"/>
<path d="M293.492 113.341C293.492 114.538 293.276 115.572 292.844 116.443C292.412 117.315 291.82 117.987 291.066 118.459C290.313 118.932 289.452 119.168 288.485 119.168C287.517 119.168 286.657 118.932 285.904 118.459C285.15 117.987 284.558 117.315 284.126 116.443C283.694 115.572 283.477 114.538 283.477 113.341C283.477 112.145 283.694 111.111 284.126 110.239C284.558 109.368 285.15 108.695 285.904 108.223C286.657 107.75 287.517 107.514 288.485 107.514C289.452 107.514 290.313 107.75 291.066 108.223C291.82 108.695 292.412 109.368 292.844 110.239C293.276 111.111 293.492 112.145 293.492 113.341ZM292.163 113.341C292.163 112.359 291.999 111.53 291.67 110.854C291.345 110.178 290.904 109.667 290.346 109.32C289.792 108.972 289.172 108.799 288.485 108.799C287.798 108.799 287.176 108.972 286.618 109.32C286.064 109.667 285.623 110.178 285.294 110.854C284.969 111.53 284.807 112.359 284.807 113.341C284.807 114.323 284.969 115.152 285.294 115.828C285.623 116.504 286.064 117.015 286.618 117.363C287.176 117.71 287.798 117.883 288.485 117.883C289.172 117.883 289.792 117.71 290.346 117.363C290.904 117.015 291.345 116.504 291.67 115.828C291.999 115.152 292.163 114.323 292.163 113.341ZM299.525 110.505V111.613H294.939V110.505H299.525ZM296.313 119.013V109.331C296.313 108.843 296.427 108.437 296.656 108.112C296.885 107.787 297.182 107.543 297.548 107.381C297.913 107.218 298.299 107.137 298.706 107.137C299.027 107.137 299.289 107.163 299.492 107.215C299.695 107.266 299.847 107.314 299.946 107.359L299.57 108.489C299.503 108.467 299.411 108.439 299.293 108.406C299.178 108.372 299.027 108.356 298.838 108.356C298.406 108.356 298.094 108.465 297.902 108.683C297.714 108.9 297.62 109.22 297.62 109.641V119.013H296.313ZM305.258 110.505V111.613H300.671V110.505H305.258ZM302.045 119.013V109.331C302.045 108.843 302.159 108.437 302.388 108.112C302.617 107.787 302.915 107.543 303.28 107.381C303.646 107.218 304.032 107.137 304.438 107.137C304.759 107.137 305.021 107.163 305.225 107.215C305.428 107.266 305.579 107.314 305.679 107.359L305.302 108.489C305.236 108.467 305.143 108.439 305.025 108.406C304.911 108.372 304.759 108.356 304.571 108.356C304.139 108.356 303.827 108.465 303.635 108.683C303.446 108.9 303.352 109.22 303.352 109.641V119.013H302.045ZM308.509 107.669V119.013H307.201V107.669H308.509ZM311.014 119.013V110.505H312.322V119.013H311.014ZM311.679 109.087C311.424 109.087 311.204 109 311.02 108.827C310.839 108.653 310.748 108.444 310.748 108.201C310.748 107.957 310.839 107.748 311.02 107.575C311.204 107.401 311.424 107.314 311.679 107.314C311.934 107.314 312.152 107.401 312.333 107.575C312.517 107.748 312.61 107.957 312.61 108.201C312.61 108.444 312.517 108.653 312.333 108.827C312.152 109 311.934 109.087 311.679 109.087ZM316.135 113.895V119.013H314.827V110.505H316.09V111.834H316.201C316.401 111.402 316.703 111.055 317.11 110.793C317.516 110.527 318.04 110.394 318.683 110.394C319.259 110.394 319.763 110.512 320.195 110.749C320.627 110.981 320.963 111.336 321.203 111.812C321.443 112.285 321.563 112.883 321.563 113.607V119.013H320.256V113.696C320.256 113.027 320.082 112.507 319.735 112.134C319.388 111.757 318.912 111.569 318.306 111.569C317.889 111.569 317.516 111.659 317.187 111.84C316.862 112.021 316.605 112.285 316.417 112.632C316.229 112.979 316.135 113.4 316.135 113.895ZM327.631 119.191C326.811 119.191 326.104 119.01 325.509 118.648C324.918 118.282 324.462 117.773 324.141 117.119C323.823 116.462 323.664 115.697 323.664 114.826C323.664 113.954 323.823 113.186 324.141 112.521C324.462 111.853 324.909 111.332 325.481 110.959C326.057 110.583 326.73 110.394 327.498 110.394C327.941 110.394 328.378 110.468 328.81 110.616C329.243 110.763 329.636 111.004 329.99 111.336C330.345 111.665 330.627 112.1 330.838 112.643C331.048 113.186 331.154 113.854 331.154 114.648V115.202H324.595V114.072H329.824C329.824 113.592 329.728 113.164 329.536 112.787C329.348 112.41 329.078 112.113 328.727 111.895C328.38 111.677 327.97 111.569 327.498 111.569C326.977 111.569 326.526 111.698 326.146 111.956C325.769 112.211 325.48 112.543 325.276 112.953C325.073 113.363 324.972 113.803 324.972 114.272V115.025C324.972 115.668 325.083 116.212 325.304 116.659C325.529 117.102 325.841 117.44 326.24 117.673C326.639 117.902 327.103 118.016 327.631 118.016C327.974 118.016 328.284 117.968 328.561 117.872C328.842 117.773 329.084 117.625 329.287 117.429C329.49 117.23 329.647 116.982 329.758 116.687L331.021 117.041C330.888 117.47 330.664 117.846 330.35 118.171C330.037 118.493 329.649 118.744 329.187 118.925C328.726 119.102 328.207 119.191 327.631 119.191ZM344.133 110.505C344.067 109.944 343.797 109.508 343.325 109.198C342.852 108.888 342.272 108.732 341.585 108.732C341.083 108.732 340.644 108.814 340.267 108.976C339.894 109.139 339.602 109.362 339.392 109.646C339.185 109.931 339.082 110.254 339.082 110.616C339.082 110.919 339.154 111.179 339.298 111.397C339.445 111.611 339.634 111.79 339.863 111.934C340.092 112.074 340.332 112.191 340.583 112.283C340.834 112.372 341.065 112.444 341.275 112.499L342.427 112.809C342.723 112.887 343.051 112.994 343.413 113.131C343.779 113.267 344.128 113.454 344.46 113.69C344.796 113.923 345.073 114.222 345.291 114.587C345.509 114.953 345.618 115.402 345.618 115.933C345.618 116.546 345.457 117.1 345.136 117.595C344.818 118.09 344.353 118.483 343.74 118.775C343.131 119.067 342.39 119.213 341.519 119.213C340.706 119.213 340.003 119.082 339.408 118.819C338.818 118.557 338.352 118.192 338.012 117.723C337.676 117.254 337.486 116.709 337.442 116.089H338.86C338.897 116.517 339.041 116.871 339.292 117.152C339.547 117.429 339.868 117.636 340.256 117.773C340.647 117.905 341.068 117.972 341.519 117.972C342.043 117.972 342.514 117.887 342.931 117.717C343.349 117.544 343.679 117.304 343.923 116.997C344.167 116.687 344.288 116.325 344.288 115.911C344.288 115.535 344.183 115.228 343.973 114.992C343.762 114.755 343.485 114.563 343.142 114.416C342.798 114.268 342.427 114.139 342.028 114.028L340.633 113.629C339.746 113.374 339.045 113.011 338.528 112.538C338.011 112.065 337.752 111.447 337.752 110.682C337.752 110.047 337.924 109.493 338.267 109.02C338.614 108.544 339.08 108.175 339.663 107.913C340.25 107.647 340.906 107.514 341.63 107.514C342.361 107.514 343.011 107.645 343.579 107.907C344.148 108.166 344.599 108.52 344.931 108.971C345.267 109.421 345.444 109.933 345.463 110.505H344.133ZM350.314 119.213C349.775 119.213 349.286 119.111 348.847 118.908C348.407 118.701 348.058 118.404 347.8 118.016C347.541 117.625 347.412 117.152 347.412 116.598C347.412 116.111 347.508 115.716 347.7 115.413C347.892 115.106 348.149 114.866 348.47 114.693C348.791 114.519 349.146 114.39 349.533 114.305C349.925 114.216 350.318 114.146 350.713 114.094C351.23 114.028 351.649 113.978 351.971 113.945C352.296 113.908 352.532 113.847 352.68 113.762C352.831 113.677 352.907 113.529 352.907 113.319V113.275C352.907 112.728 352.757 112.303 352.458 112.001C352.163 111.698 351.714 111.546 351.112 111.546C350.488 111.546 349.999 111.683 349.644 111.956C349.29 112.23 349.04 112.521 348.896 112.831L347.656 112.388C347.877 111.871 348.173 111.469 348.542 111.181C348.915 110.889 349.321 110.686 349.761 110.571C350.204 110.453 350.639 110.394 351.068 110.394C351.341 110.394 351.655 110.427 352.009 110.494C352.368 110.557 352.713 110.688 353.045 110.887C353.381 111.087 353.66 111.388 353.882 111.79C354.103 112.193 354.214 112.732 354.214 113.408V119.013H352.907V117.861H352.84C352.752 118.046 352.604 118.243 352.397 118.454C352.19 118.664 351.915 118.843 351.572 118.991C351.228 119.139 350.809 119.213 350.314 119.213ZM350.514 118.038C351.031 118.038 351.467 117.937 351.821 117.734C352.179 117.531 352.449 117.268 352.63 116.947C352.814 116.626 352.907 116.288 352.907 115.933V114.737C352.851 114.803 352.73 114.864 352.541 114.92C352.357 114.971 352.142 115.018 351.899 115.058C351.659 115.095 351.424 115.128 351.195 115.158C350.97 115.184 350.787 115.206 350.647 115.224C350.307 115.269 349.989 115.341 349.694 115.44C349.402 115.536 349.166 115.682 348.985 115.878C348.808 116.07 348.719 116.332 348.719 116.665C348.719 117.119 348.887 117.462 349.223 117.695C349.563 117.924 349.993 118.038 350.514 118.038ZM358.019 107.669V119.013H356.712V107.669H358.019ZM364.092 119.191C363.272 119.191 362.565 119.01 361.97 118.648C361.379 118.282 360.923 117.773 360.602 117.119C360.285 116.462 360.126 115.697 360.126 114.826C360.126 113.954 360.285 113.186 360.602 112.521C360.923 111.853 361.37 111.332 361.943 110.959C362.519 110.583 363.191 110.394 363.959 110.394C364.402 110.394 364.84 110.468 365.272 110.616C365.704 110.763 366.097 111.004 366.452 111.336C366.806 111.665 367.089 112.1 367.299 112.643C367.51 113.186 367.615 113.854 367.615 114.648V115.202H361.056V114.072H366.285C366.285 113.592 366.189 113.164 365.997 112.787C365.809 112.41 365.539 112.113 365.189 111.895C364.841 111.677 364.432 111.569 363.959 111.569C363.438 111.569 362.988 111.698 362.607 111.956C362.231 112.211 361.941 112.543 361.738 112.953C361.535 113.363 361.433 113.803 361.433 114.272V115.025C361.433 115.668 361.544 116.212 361.765 116.659C361.991 117.102 362.303 117.44 362.701 117.673C363.1 117.902 363.564 118.016 364.092 118.016C364.435 118.016 364.745 117.968 365.022 117.872C365.303 117.773 365.545 117.625 365.748 117.429C365.951 117.23 366.108 116.982 366.219 116.687L367.482 117.041C367.349 117.47 367.126 117.846 366.812 118.171C366.498 118.493 366.11 118.744 365.648 118.925C365.187 119.102 364.668 119.191 364.092 119.191ZM375.742 112.41L374.567 112.743C374.493 112.547 374.384 112.357 374.24 112.172C374.1 111.984 373.908 111.829 373.664 111.707C373.421 111.585 373.109 111.524 372.728 111.524C372.208 111.524 371.774 111.644 371.426 111.884C371.083 112.121 370.911 112.422 370.911 112.787C370.911 113.112 371.029 113.369 371.266 113.557C371.502 113.745 371.871 113.902 372.374 114.028L373.637 114.338C374.397 114.523 374.964 114.805 375.337 115.186C375.71 115.562 375.897 116.048 375.897 116.642C375.897 117.13 375.756 117.566 375.476 117.95C375.199 118.334 374.811 118.637 374.312 118.858C373.814 119.08 373.234 119.191 372.573 119.191C371.705 119.191 370.987 119.002 370.418 118.626C369.85 118.249 369.49 117.699 369.338 116.975L370.579 116.665C370.697 117.123 370.921 117.466 371.249 117.695C371.582 117.924 372.015 118.038 372.551 118.038C373.16 118.038 373.644 117.909 374.002 117.651C374.364 117.388 374.545 117.075 374.545 116.709C374.545 116.414 374.442 116.166 374.235 115.967C374.028 115.764 373.71 115.612 373.282 115.512L371.864 115.18C371.085 114.995 370.512 114.709 370.147 114.322C369.785 113.93 369.604 113.441 369.604 112.854C369.604 112.374 369.739 111.949 370.008 111.58C370.282 111.21 370.653 110.92 371.122 110.71C371.594 110.499 372.13 110.394 372.728 110.394C373.57 110.394 374.231 110.579 374.711 110.948C375.195 111.317 375.538 111.805 375.742 112.41Z" fill="#44444F"/>
</g>
<rect x="144.711" y="108.143" width="8.91347" height="11.1418" rx="4.45674" fill="#FFA800"/>
<path d="M170.141 113.672C170.141 114.868 169.925 115.902 169.493 116.774C169.061 117.645 168.468 118.318 167.715 118.79C166.961 119.263 166.101 119.499 165.133 119.499C164.166 119.499 163.305 119.263 162.552 118.79C161.799 118.318 161.206 117.645 160.774 116.774C160.342 115.902 160.126 114.868 160.126 113.672C160.126 112.475 160.342 111.441 160.774 110.57C161.206 109.698 161.799 109.026 162.552 108.554C163.305 108.081 164.166 107.845 165.133 107.845C166.101 107.845 166.961 108.081 167.715 108.554C168.468 109.026 169.061 109.698 169.493 110.57C169.925 111.441 170.141 112.475 170.141 113.672ZM168.811 113.672C168.811 112.69 168.647 111.861 168.318 111.185C167.994 110.509 167.552 109.998 166.995 109.65C166.441 109.303 165.82 109.13 165.133 109.13C164.447 109.13 163.824 109.303 163.267 109.65C162.713 109.998 162.271 110.509 161.943 111.185C161.618 111.861 161.455 112.69 161.455 113.672C161.455 114.654 161.618 115.483 161.943 116.159C162.271 116.835 162.713 117.346 163.267 117.693C163.824 118.041 164.447 118.214 165.133 118.214C165.82 118.214 166.441 118.041 166.995 117.693C167.552 117.346 167.994 116.835 168.318 116.159C168.647 115.483 168.811 114.654 168.811 113.672ZM173.692 114.226V119.344H172.385V110.836H173.648V112.165H173.759C173.958 111.733 174.261 111.386 174.667 111.124C175.073 110.858 175.598 110.725 176.24 110.725C176.816 110.725 177.32 110.843 177.752 111.08C178.185 111.312 178.521 111.667 178.761 112.143C179.001 112.616 179.121 113.214 179.121 113.938V119.344H177.813V114.026C177.813 113.358 177.64 112.837 177.293 112.464C176.946 112.088 176.469 111.899 175.864 111.899C175.446 111.899 175.073 111.99 174.745 112.171C174.42 112.352 174.163 112.616 173.975 112.963C173.786 113.31 173.692 113.731 173.692 114.226ZM182.928 108V119.344H181.621V108H182.928ZM185.434 119.344V110.836H186.741V119.344H185.434ZM186.099 109.418C185.844 109.418 185.624 109.331 185.439 109.157C185.259 108.984 185.168 108.775 185.168 108.531C185.168 108.288 185.259 108.079 185.439 107.906C185.624 107.732 185.844 107.645 186.099 107.645C186.353 107.645 186.571 107.732 186.752 107.906C186.937 108.079 187.029 108.288 187.029 108.531C187.029 108.775 186.937 108.984 186.752 109.157C186.571 109.331 186.353 109.418 186.099 109.418ZM190.554 114.226V119.344H189.247V110.836H190.51V112.165H190.621C190.82 111.733 191.123 111.386 191.529 111.124C191.935 110.858 192.46 110.725 193.102 110.725C193.678 110.725 194.182 110.843 194.615 111.08C195.047 111.312 195.383 111.667 195.623 112.143C195.863 112.616 195.983 113.214 195.983 113.938V119.344H194.675V114.026C194.675 113.358 194.502 112.837 194.155 112.464C193.808 112.088 193.331 111.899 192.726 111.899C192.308 111.899 191.935 111.99 191.607 112.171C191.282 112.352 191.025 112.616 190.837 112.963C190.648 113.31 190.554 113.731 190.554 114.226ZM202.05 119.521C201.23 119.521 200.523 119.34 199.929 118.979C199.338 118.613 198.882 118.103 198.561 117.45C198.243 116.792 198.084 116.028 198.084 115.156C198.084 114.285 198.243 113.517 198.561 112.852C198.882 112.184 199.329 111.663 199.901 111.29C200.477 110.913 201.149 110.725 201.917 110.725C202.36 110.725 202.798 110.799 203.23 110.947C203.662 111.094 204.055 111.334 204.41 111.667C204.764 111.995 205.047 112.431 205.257 112.974C205.468 113.517 205.573 114.185 205.573 114.979V115.533H199.015V114.403H204.244C204.244 113.923 204.148 113.495 203.956 113.118C203.767 112.741 203.498 112.444 203.147 112.226C202.8 112.008 202.39 111.899 201.917 111.899C201.397 111.899 200.946 112.029 200.566 112.287C200.189 112.542 199.899 112.874 199.696 113.284C199.493 113.694 199.391 114.134 199.391 114.603V115.356C199.391 115.998 199.502 116.543 199.724 116.99C199.949 117.433 200.261 117.771 200.66 118.004C201.059 118.233 201.522 118.347 202.05 118.347C202.394 118.347 202.704 118.299 202.981 118.203C203.261 118.103 203.503 117.956 203.706 117.76C203.91 117.56 204.067 117.313 204.177 117.018L205.44 117.372C205.307 117.801 205.084 118.177 204.77 118.502C204.456 118.823 204.068 119.075 203.607 119.255C203.145 119.433 202.626 119.521 202.05 119.521ZM218.553 110.836C218.487 110.274 218.217 109.839 217.744 109.529C217.272 109.218 216.692 109.063 216.005 109.063C215.503 109.063 215.063 109.144 214.687 109.307C214.314 109.469 214.022 109.693 213.811 109.977C213.605 110.262 213.501 110.585 213.501 110.947C213.501 111.249 213.573 111.51 213.717 111.728C213.865 111.942 214.053 112.121 214.282 112.265C214.511 112.405 214.751 112.522 215.002 112.614C215.253 112.703 215.484 112.775 215.695 112.83L216.847 113.14C217.142 113.218 217.471 113.325 217.833 113.461C218.198 113.598 218.547 113.785 218.88 114.021C219.216 114.254 219.493 114.553 219.711 114.918C219.929 115.284 220.038 115.733 220.038 116.264C220.038 116.877 219.877 117.431 219.556 117.926C219.238 118.421 218.773 118.814 218.16 119.106C217.55 119.398 216.81 119.544 215.938 119.544C215.126 119.544 214.423 119.412 213.828 119.15C213.237 118.888 212.772 118.522 212.432 118.053C212.096 117.584 211.906 117.04 211.862 116.419H213.28C213.317 116.848 213.461 117.202 213.712 117.483C213.966 117.76 214.288 117.967 214.676 118.103C215.067 118.236 215.488 118.303 215.938 118.303C216.463 118.303 216.934 118.218 217.351 118.048C217.768 117.874 218.099 117.634 218.342 117.328C218.586 117.018 218.708 116.656 218.708 116.242C218.708 115.865 218.603 115.559 218.392 115.323C218.182 115.086 217.905 114.894 217.561 114.747C217.218 114.599 216.847 114.47 216.448 114.359L215.052 113.96C214.166 113.705 213.464 113.341 212.947 112.869C212.43 112.396 212.172 111.777 212.172 111.013C212.172 110.378 212.343 109.824 212.687 109.351C213.034 108.875 213.499 108.506 214.083 108.243C214.67 107.978 215.325 107.845 216.049 107.845C216.78 107.845 217.43 107.976 217.999 108.238C218.568 108.496 219.018 108.851 219.351 109.301C219.687 109.752 219.864 110.263 219.882 110.836H218.553ZM224.734 119.544C224.195 119.544 223.706 119.442 223.266 119.239C222.827 119.032 222.478 118.735 222.219 118.347C221.961 117.956 221.831 117.483 221.831 116.929C221.831 116.442 221.927 116.046 222.12 115.744C222.312 115.437 222.568 115.197 222.889 115.023C223.211 114.85 223.565 114.721 223.953 114.636C224.344 114.547 224.738 114.477 225.133 114.425C225.65 114.359 226.069 114.309 226.39 114.276C226.715 114.239 226.952 114.178 227.099 114.093C227.251 114.008 227.326 113.86 227.326 113.65V113.605C227.326 113.059 227.177 112.634 226.878 112.331C226.582 112.029 226.134 111.877 225.532 111.877C224.908 111.877 224.418 112.014 224.064 112.287C223.709 112.56 223.46 112.852 223.316 113.162L222.075 112.719C222.297 112.202 222.592 111.8 222.961 111.512C223.334 111.22 223.741 111.017 224.18 110.902C224.623 110.784 225.059 110.725 225.487 110.725C225.761 110.725 226.075 110.758 226.429 110.825C226.787 110.888 227.133 111.019 227.465 111.218C227.801 111.417 228.08 111.718 228.301 112.121C228.523 112.523 228.634 113.063 228.634 113.738V119.344H227.326V118.192H227.26C227.171 118.377 227.024 118.574 226.817 118.785C226.61 118.995 226.335 119.174 225.991 119.322C225.648 119.47 225.229 119.544 224.734 119.544ZM224.933 118.369C225.45 118.369 225.886 118.268 226.241 118.065C226.599 117.861 226.869 117.599 227.049 117.278C227.234 116.957 227.326 116.619 227.326 116.264V115.068C227.271 115.134 227.149 115.195 226.961 115.251C226.776 115.302 226.562 115.348 226.318 115.389C226.078 115.426 225.844 115.459 225.615 115.489C225.39 115.515 225.207 115.537 225.066 115.555C224.727 115.6 224.409 115.672 224.114 115.771C223.822 115.867 223.586 116.013 223.405 116.209C223.227 116.401 223.139 116.663 223.139 116.995C223.139 117.45 223.307 117.793 223.643 118.026C223.983 118.255 224.413 118.369 224.933 118.369ZM232.438 108V119.344H231.131V108H232.438ZM238.511 119.521C237.692 119.521 236.984 119.34 236.39 118.979C235.799 118.613 235.343 118.103 235.022 117.45C234.704 116.792 234.545 116.028 234.545 115.156C234.545 114.285 234.704 113.517 235.022 112.852C235.343 112.184 235.79 111.663 236.362 111.29C236.938 110.913 237.61 110.725 238.379 110.725C238.822 110.725 239.259 110.799 239.691 110.947C240.123 111.094 240.517 111.334 240.871 111.667C241.226 111.995 241.508 112.431 241.719 112.974C241.929 113.517 242.034 114.185 242.034 114.979V115.533H235.476V114.403H240.705C240.705 113.923 240.609 113.495 240.417 113.118C240.229 112.741 239.959 112.444 239.608 112.226C239.261 112.008 238.851 111.899 238.379 111.899C237.858 111.899 237.407 112.029 237.027 112.287C236.65 112.542 236.36 112.874 236.157 113.284C235.954 113.694 235.853 114.134 235.853 114.603V115.356C235.853 115.998 235.963 116.543 236.185 116.99C236.41 117.433 236.722 117.771 237.121 118.004C237.52 118.233 237.983 118.347 238.511 118.347C238.855 118.347 239.165 118.299 239.442 118.203C239.723 118.103 239.965 117.956 240.168 117.76C240.371 117.56 240.528 117.313 240.639 117.018L241.902 117.372C241.769 117.801 241.545 118.177 241.231 118.502C240.917 118.823 240.53 119.075 240.068 119.255C239.606 119.433 239.088 119.521 238.511 119.521ZM250.161 112.741L248.987 113.074C248.913 112.878 248.804 112.688 248.66 112.503C248.52 112.315 248.328 112.16 248.084 112.038C247.84 111.916 247.528 111.855 247.148 111.855C246.627 111.855 246.193 111.975 245.846 112.215C245.503 112.451 245.331 112.752 245.331 113.118C245.331 113.443 245.449 113.7 245.685 113.888C245.922 114.076 246.291 114.233 246.793 114.359L248.056 114.669C248.817 114.854 249.384 115.136 249.757 115.516C250.13 115.893 250.316 116.379 250.316 116.973C250.316 117.461 250.176 117.897 249.895 118.281C249.618 118.665 249.231 118.967 248.732 119.189C248.234 119.411 247.654 119.521 246.993 119.521C246.125 119.521 245.407 119.333 244.838 118.956C244.269 118.58 243.909 118.029 243.758 117.306L244.999 116.995C245.117 117.453 245.34 117.797 245.669 118.026C246.001 118.255 246.435 118.369 246.971 118.369C247.58 118.369 248.064 118.24 248.422 117.981C248.784 117.719 248.965 117.405 248.965 117.04C248.965 116.744 248.861 116.497 248.655 116.298C248.448 116.094 248.13 115.943 247.702 115.843L246.284 115.511C245.505 115.326 244.932 115.04 244.567 114.652C244.205 114.261 244.024 113.772 244.024 113.184C244.024 112.704 244.158 112.28 244.428 111.91C244.701 111.541 245.072 111.251 245.541 111.041C246.014 110.83 246.55 110.725 247.148 110.725C247.99 110.725 248.651 110.91 249.131 111.279C249.615 111.648 249.958 112.136 250.161 112.741Z" fill="#44444F"/>
<path d="M153.036 67.8325C152.977 67.2796 152.728 66.8491 152.289 66.541C151.854 66.2329 151.288 66.0789 150.592 66.0789C150.102 66.0789 149.683 66.1528 149.332 66.3005C148.982 66.4482 148.714 66.6487 148.528 66.9019C148.343 67.1551 148.248 67.4442 148.243 67.7692C148.243 68.0393 148.305 68.2735 148.427 68.4719C148.554 68.6702 148.725 68.839 148.94 68.9783C149.155 69.1134 149.393 69.2273 149.655 69.3202C149.917 69.413 150.181 69.4911 150.446 69.5544L151.662 69.8583C152.151 69.9722 152.622 70.1263 153.074 70.3204C153.529 70.5145 153.937 70.7593 154.295 71.0547C154.658 71.3502 154.945 71.7068 155.156 72.1246C155.367 72.5424 155.473 73.032 155.473 73.5933C155.473 74.353 155.279 75.0219 154.891 75.6001C154.502 76.1741 153.941 76.6236 153.207 76.9485C152.476 77.2693 151.592 77.4296 150.554 77.4296C149.545 77.4296 148.67 77.2735 147.927 76.9612C147.188 76.6489 146.61 76.1931 146.192 75.5938C145.779 74.9945 145.555 74.2644 145.521 73.4034H147.832C147.866 73.855 148.005 74.2306 148.25 74.5302C148.495 74.8299 148.813 75.0536 149.206 75.2013C149.602 75.349 150.046 75.4228 150.535 75.4228C151.046 75.4228 151.493 75.3469 151.877 75.1949C152.265 75.0388 152.569 74.8236 152.789 74.5492C153.008 74.2707 153.12 73.9457 153.124 73.5743C153.12 73.2367 153.021 72.9581 152.827 72.7387C152.633 72.515 152.36 72.3293 152.01 72.1816C151.664 72.0297 151.259 71.8946 150.795 71.7764L149.32 71.3966C148.252 71.1223 147.408 70.7066 146.787 70.1495C146.171 69.5882 145.863 68.8433 145.863 67.9148C145.863 67.1509 146.07 66.4819 146.484 65.908C146.901 65.334 147.469 64.8887 148.186 64.5722C148.904 64.2515 149.716 64.0911 150.624 64.0911C151.544 64.0911 152.35 64.2515 153.042 64.5722C153.738 64.8887 154.285 65.3298 154.682 65.8953C155.078 66.4566 155.283 67.1023 155.296 67.8325H153.036ZM160.375 77.4296C159.759 77.4296 159.204 77.3199 158.71 77.1005C158.221 76.8768 157.832 76.5476 157.545 76.1129C157.262 75.6782 157.121 75.1422 157.121 74.5049C157.121 73.9563 157.222 73.5026 157.425 73.1438C157.628 72.7851 157.904 72.4981 158.254 72.2829C158.605 72.0676 158.999 71.9052 159.438 71.7954C159.881 71.6815 160.339 71.5992 160.812 71.5485C161.382 71.4894 161.844 71.4367 162.198 71.3903C162.553 71.3396 162.81 71.2637 162.971 71.1624C163.135 71.0569 163.217 70.8944 163.217 70.6749V70.6369C163.217 70.16 163.076 69.7907 162.793 69.5291C162.511 69.2674 162.103 69.1366 161.572 69.1366C161.01 69.1366 160.565 69.259 160.236 69.5037C159.911 69.7485 159.691 70.0376 159.577 70.371L157.438 70.0672C157.606 69.4763 157.885 68.9825 158.273 68.5858C158.662 68.1849 159.136 67.8852 159.698 67.6869C160.259 67.4843 160.879 67.383 161.559 67.383C162.027 67.383 162.494 67.4379 162.958 67.5476C163.422 67.6573 163.846 67.8388 164.23 68.092C164.614 68.341 164.923 68.6808 165.155 69.1113C165.391 69.5417 165.509 70.0798 165.509 70.7256V77.2334H163.306V75.8976H163.23C163.091 76.1677 162.895 76.421 162.641 76.6573C162.392 76.8894 162.078 77.0772 161.698 77.2207C161.323 77.36 160.881 77.4296 160.375 77.4296ZM160.97 75.7457C161.43 75.7457 161.829 75.655 162.167 75.4735C162.504 75.2878 162.764 75.043 162.945 74.7391C163.131 74.4353 163.224 74.104 163.224 73.7452V72.5994C163.152 72.6585 163.03 72.7134 162.857 72.764C162.688 72.8146 162.498 72.859 162.287 72.8969C162.076 72.9349 161.867 72.9687 161.66 72.9982C161.453 73.0278 161.274 73.0531 161.122 73.0742C160.78 73.1206 160.474 73.1966 160.204 73.3021C159.934 73.4076 159.721 73.5553 159.565 73.7452C159.409 73.9309 159.33 74.1715 159.33 74.4669C159.33 74.889 159.485 75.2076 159.793 75.4228C160.101 75.6381 160.493 75.7457 160.97 75.7457ZM170.217 64.2683V77.2334H167.925V64.2683H170.217ZM176.989 77.4233C176.014 77.4233 175.172 77.2207 174.463 76.8156C173.759 76.4062 173.216 75.828 172.836 75.081C172.457 74.3298 172.267 73.4456 172.267 72.4285C172.267 71.4282 172.457 70.5504 172.836 69.795C173.221 69.0353 173.757 68.4444 174.444 68.0224C175.132 67.5961 175.941 67.383 176.869 67.383C177.468 67.383 178.034 67.4801 178.566 67.6742C179.102 67.8641 179.574 68.1596 179.984 68.5605C180.397 68.9614 180.722 69.4721 180.959 70.0925C181.195 70.7087 181.313 71.443 181.313 72.2955V72.9982H173.343V71.4536H179.116C179.112 71.0146 179.017 70.6243 178.832 70.2824C178.646 69.9363 178.386 69.6641 178.053 69.4658C177.724 69.2674 177.34 69.1682 176.901 69.1682C176.432 69.1682 176.021 69.2822 175.666 69.5101C175.312 69.7338 175.035 70.0292 174.837 70.3964C174.643 70.7593 174.544 71.1581 174.539 71.5928V72.9413C174.539 73.5068 174.643 73.9921 174.85 74.3973C175.056 74.7982 175.346 75.1063 175.717 75.3216C176.088 75.5326 176.523 75.6381 177.021 75.6381C177.354 75.6381 177.656 75.5917 177.926 75.4988C178.196 75.4017 178.431 75.2604 178.629 75.0747C178.827 74.889 178.977 74.659 179.078 74.3846L181.218 74.6252C181.083 75.1907 180.826 75.6845 180.446 76.1066C180.07 76.5244 179.589 76.8493 179.002 77.0815C178.416 77.3094 177.745 77.4233 176.989 77.4233ZM191.049 70.0798L188.96 70.3077C188.9 70.0967 188.797 69.8984 188.649 69.7127C188.506 69.527 188.312 69.3771 188.067 69.2632C187.822 69.1492 187.523 69.0923 187.168 69.0923C186.691 69.0923 186.29 69.1957 185.965 69.4025C185.644 69.6093 185.486 69.8773 185.49 70.2064C185.486 70.4892 185.59 70.7192 185.801 70.8965C186.016 71.0737 186.37 71.2193 186.864 71.3333L188.523 71.6878C189.443 71.8862 190.126 72.2006 190.574 72.6311C191.025 73.0615 191.253 73.625 191.258 74.3213C191.253 74.9333 191.074 75.4735 190.719 75.942C190.369 76.4062 189.882 76.7692 189.257 77.0308C188.632 77.2925 187.915 77.4233 187.105 77.4233C185.915 77.4233 184.957 77.1743 184.231 76.6763C183.505 76.1741 183.072 75.4756 182.933 74.5809L185.168 74.3656C185.269 74.8046 185.484 75.1359 185.813 75.3595C186.142 75.5832 186.571 75.6951 187.098 75.6951C187.643 75.6951 188.08 75.5832 188.409 75.3595C188.742 75.1359 188.909 74.8594 188.909 74.5302C188.909 74.2517 188.801 74.0217 188.586 73.8402C188.375 73.6587 188.046 73.5195 187.598 73.4224L185.94 73.0742C185.007 72.8801 184.317 72.553 183.87 72.093C183.422 71.6287 183.201 71.0421 183.205 70.3331C183.201 69.7338 183.363 69.2147 183.692 68.7757C184.026 68.3326 184.488 67.9907 185.079 67.7502C185.674 67.5054 186.36 67.383 187.136 67.383C188.276 67.383 189.173 67.6257 189.827 68.111C190.485 68.5964 190.892 69.2526 191.049 70.0798ZM197.893 77.2334V64.2683H202.755C203.751 64.2683 204.587 64.4414 205.262 64.7875C205.942 65.1335 206.454 65.6189 206.8 66.2435C207.151 66.8639 207.326 67.5877 207.326 68.4149C207.326 69.2463 207.149 69.968 206.794 70.5799C206.444 71.1877 205.927 71.6583 205.243 71.9917C204.559 72.3209 203.72 72.4855 202.724 72.4855H199.261V70.5356H202.407C202.989 70.5356 203.466 70.4554 203.838 70.2951C204.209 70.1305 204.483 69.892 204.661 69.5797C204.842 69.2632 204.933 68.8749 204.933 68.4149C204.933 67.9549 204.842 67.5624 204.661 67.2374C204.479 66.9082 204.203 66.6592 203.831 66.4904C203.46 66.3174 202.981 66.2308 202.394 66.2308H200.242V77.2334H197.893ZM204.591 71.3586L207.801 77.2334H205.18L202.027 71.3586H204.591ZM213.663 77.4233C212.688 77.4233 211.847 77.2207 211.138 76.8156C210.433 76.4062 209.89 75.828 209.511 75.081C209.131 74.3298 208.941 73.4456 208.941 72.4285C208.941 71.4282 209.131 70.5504 209.511 69.795C209.895 69.0353 210.431 68.4444 211.119 68.0224C211.806 67.5961 212.615 67.383 213.543 67.383C214.142 67.383 214.708 67.4801 215.24 67.6742C215.776 67.8641 216.248 68.1596 216.658 68.5605C217.071 68.9614 217.396 69.4721 217.633 70.0925C217.869 70.7087 217.987 71.443 217.987 72.2955V72.9982H210.017V71.4536H215.79C215.786 71.0146 215.691 70.6243 215.506 70.2824C215.32 69.9363 215.06 69.6641 214.727 69.4658C214.398 69.2674 214.014 69.1682 213.575 69.1682C213.106 69.1682 212.695 69.2822 212.34 69.5101C211.986 69.7338 211.709 70.0292 211.511 70.3964C211.317 70.7593 211.218 71.1581 211.213 71.5928V72.9413C211.213 73.5068 211.317 73.9921 211.524 74.3973C211.73 74.7982 212.02 75.1063 212.391 75.3216C212.762 75.5326 213.197 75.6381 213.695 75.6381C214.028 75.6381 214.33 75.5917 214.6 75.4988C214.87 75.4017 215.105 75.2604 215.303 75.0747C215.501 74.889 215.651 74.659 215.753 74.3846L217.892 74.6252C217.757 75.1907 217.5 75.6845 217.12 76.1066C216.744 76.5244 216.263 76.8493 215.677 77.0815C215.09 77.3094 214.419 77.4233 213.663 77.4233ZM220.037 80.8798V67.5096H222.291V69.1176H222.424C222.542 68.8812 222.709 68.6301 222.924 68.3642C223.139 68.0941 223.431 67.8641 223.798 67.6742C224.165 67.4801 224.633 67.383 225.203 67.383C225.954 67.383 226.632 67.575 227.235 67.9591C227.843 68.3389 228.324 68.9023 228.679 69.6494C229.037 70.3921 229.217 71.3037 229.217 72.3842C229.217 73.4519 229.042 74.3593 228.691 75.1063C228.341 75.8533 227.864 76.4231 227.261 76.8156C226.657 77.2081 225.973 77.4043 225.209 77.4043C224.652 77.4043 224.19 77.3115 223.823 77.1258C223.456 76.9401 223.16 76.7164 222.937 76.4547C222.717 76.1889 222.546 75.9377 222.424 75.7014H222.329V80.8798H220.037ZM222.285 72.3715C222.285 73.0003 222.373 73.5511 222.551 74.0238C222.732 74.4965 222.992 74.8658 223.329 75.1316C223.671 75.3933 224.085 75.5241 224.57 75.5241C225.077 75.5241 225.501 75.3891 225.843 75.119C226.184 74.8447 226.442 74.4712 226.615 73.9985C226.792 73.5216 226.881 72.9792 226.881 72.3715C226.881 71.768 226.794 71.232 226.621 70.7635C226.448 70.2951 226.191 69.9279 225.849 69.662C225.507 69.3961 225.081 69.2632 224.57 69.2632C224.081 69.2632 223.665 69.3919 223.323 69.6494C222.981 69.9068 222.722 70.2676 222.544 70.7319C222.371 71.1961 222.285 71.7427 222.285 72.3715ZM235.532 77.4233C234.583 77.4233 233.76 77.2144 233.063 76.7966C232.367 76.3788 231.827 75.7942 231.443 75.043C231.063 74.2918 230.873 73.4139 230.873 72.4095C230.873 71.405 231.063 70.5251 231.443 69.7696C231.827 69.0142 232.367 68.4275 233.063 68.0097C233.76 67.5919 234.583 67.383 235.532 67.383C236.482 67.383 237.305 67.5919 238.001 68.0097C238.697 68.4275 239.236 69.0142 239.615 69.7696C239.999 70.5251 240.191 71.405 240.191 72.4095C240.191 73.4139 239.999 74.2918 239.615 75.043C239.236 75.7942 238.697 76.3788 238.001 76.7966C237.305 77.2144 236.482 77.4233 235.532 77.4233ZM235.545 75.5874C236.06 75.5874 236.49 75.4461 236.836 75.1633C237.182 74.8763 237.44 74.4923 237.609 74.0111C237.782 73.53 237.868 72.994 237.868 72.4032C237.868 71.8081 237.782 71.27 237.609 70.7889C237.44 70.3035 237.182 69.9173 236.836 69.6304C236.49 69.3434 236.06 69.1999 235.545 69.1999C235.017 69.1999 234.578 69.3434 234.228 69.6304C233.882 69.9173 233.622 70.3035 233.449 70.7889C233.281 71.27 233.196 71.8081 233.196 72.4032C233.196 72.994 233.281 73.53 233.449 74.0111C233.622 74.4923 233.882 74.8763 234.228 75.1633C234.578 75.4461 235.017 75.5874 235.545 75.5874ZM242.248 77.2334V67.5096H244.47V69.1302H244.571C244.749 68.5689 245.052 68.1363 245.483 67.8325C245.918 67.5244 246.413 67.3703 246.971 67.3703C247.097 67.3703 247.239 67.3767 247.395 67.3893C247.555 67.3978 247.688 67.4125 247.794 67.4336V69.5417C247.696 69.508 247.542 69.4784 247.331 69.4531C247.125 69.4236 246.924 69.4088 246.73 69.4088C246.312 69.4088 245.937 69.4995 245.603 69.681C245.274 69.8583 245.014 70.1052 244.824 70.4217C244.635 70.7382 244.54 71.1033 244.54 71.5169V77.2334H242.248ZM254.805 67.5096V69.2822H249.215V67.5096H254.805ZM250.595 65.18H252.887V74.3087C252.887 74.6168 252.934 74.8531 253.026 75.0177C253.123 75.1781 253.25 75.2878 253.406 75.3469C253.562 75.406 253.735 75.4355 253.925 75.4355C254.069 75.4355 254.2 75.425 254.318 75.4039C254.44 75.3828 254.533 75.3638 254.596 75.3469L254.983 77.1384C254.86 77.1806 254.685 77.2271 254.457 77.2777C254.233 77.3284 253.959 77.3579 253.634 77.3663C253.06 77.3832 252.543 77.2967 252.083 77.1068C251.623 76.9126 251.258 76.613 250.988 76.2078C250.722 75.8027 250.591 75.2962 250.595 74.6885V65.18Z" fill="#171725"/>
<path d="M274.018 80.8043V79.8073L277.763 75.7082C278.202 75.2281 278.564 74.8108 278.848 74.4563C279.133 74.0981 279.343 73.7621 279.48 73.4482C279.62 73.1306 279.69 72.7982 279.69 72.4511C279.69 72.0523 279.594 71.707 279.402 71.4153C279.214 71.1235 278.955 70.8983 278.627 70.7395C278.298 70.5807 277.929 70.5013 277.519 70.5013C277.083 70.5013 276.703 70.5918 276.378 70.7727C276.057 70.95 275.807 71.1992 275.63 71.5205C275.456 71.8418 275.37 72.2185 275.37 72.6505H274.062C274.062 71.9858 274.216 71.4023 274.522 70.9001C274.829 70.3979 275.246 70.0064 275.774 69.7258C276.306 69.4451 276.902 69.3048 277.563 69.3048C278.228 69.3048 278.817 69.4451 279.33 69.7258C279.844 70.0064 280.246 70.385 280.538 70.8613C280.83 71.3377 280.975 71.8676 280.975 72.4511C280.975 72.8684 280.9 73.2765 280.748 73.6753C280.601 74.0704 280.342 74.5117 279.973 74.9992C279.607 75.4829 279.099 76.0738 278.449 76.7717L275.901 79.4971V79.5857H281.175V80.8043H274.018ZM287.274 80.9594C286.44 80.9594 285.729 80.7323 285.142 80.2781C284.554 79.8202 284.106 79.1573 283.796 78.2895C283.485 77.418 283.33 76.3655 283.33 75.1321C283.33 73.9061 283.485 72.8592 283.796 71.9913C284.109 71.1198 284.56 70.4551 285.147 69.9972C285.738 69.5356 286.447 69.3048 287.274 69.3048C288.101 69.3048 288.809 69.5356 289.396 69.9972C289.987 70.4551 290.437 71.1198 290.747 71.9913C291.061 72.8592 291.218 73.9061 291.218 75.1321C291.218 76.3655 291.063 77.418 290.753 78.2895C290.443 79.1573 289.994 79.8202 289.407 80.2781C288.82 80.7323 288.109 80.9594 287.274 80.9594ZM287.274 79.7408C288.101 79.7408 288.744 79.342 289.202 78.5443C289.66 77.7466 289.889 76.6092 289.889 75.1321C289.889 74.1498 289.783 73.3134 289.573 72.6228C289.366 71.9323 289.067 71.406 288.676 71.0441C288.288 70.6822 287.821 70.5013 287.274 70.5013C286.454 70.5013 285.814 70.9057 285.352 71.7144C284.89 72.5194 284.66 73.6587 284.66 75.1321C284.66 76.1144 284.763 76.949 284.97 77.6359C285.177 78.3227 285.474 78.8453 285.862 79.2035C286.253 79.5617 286.724 79.7408 287.274 79.7408ZM293.434 80.8043V79.8073L297.179 75.7082C297.618 75.2281 297.98 74.8108 298.265 74.4563C298.549 74.0981 298.76 73.7621 298.896 73.4482C299.037 73.1306 299.107 72.7982 299.107 72.4511C299.107 72.0523 299.011 71.707 298.819 71.4153C298.63 71.1235 298.372 70.8983 298.043 70.7395C297.714 70.5807 297.345 70.5013 296.935 70.5013C296.5 70.5013 296.119 70.5918 295.794 70.7727C295.473 70.95 295.224 71.1992 295.046 71.5205C294.873 71.8418 294.786 72.2185 294.786 72.6505H293.479C293.479 71.9858 293.632 71.4023 293.939 70.9001C294.245 70.3979 294.662 70.0064 295.19 69.7258C295.722 69.4451 296.319 69.3048 296.98 69.3048C297.644 69.3048 298.233 69.4451 298.747 69.7258C299.26 70.0064 299.662 70.385 299.954 70.8613C300.246 71.3377 300.392 71.8676 300.392 72.4511C300.392 72.8684 300.316 73.2765 300.165 73.6753C300.017 74.0704 299.758 74.5117 299.389 74.9992C299.024 75.4829 298.516 76.0738 297.866 76.7717L295.318 79.4971V79.5857H300.591V80.8043H293.434ZM306.824 80.9594C306.092 80.9594 305.441 80.8339 304.868 80.5828C304.299 80.3316 303.847 79.9827 303.511 79.5358C303.179 79.0853 302.998 78.5628 302.968 77.9682H304.364C304.394 78.3338 304.519 78.6495 304.741 78.9154C304.962 79.1776 305.252 79.3807 305.61 79.5248C305.969 79.6688 306.366 79.7408 306.801 79.7408C307.289 79.7408 307.721 79.6558 308.098 79.486C308.474 79.3161 308.77 79.0798 308.984 78.7769C309.198 78.4741 309.305 78.1233 309.305 77.7245C309.305 77.3072 309.202 76.9398 308.995 76.6222C308.788 76.3009 308.485 76.0498 308.086 75.8688C307.688 75.6879 307.2 75.5974 306.624 75.5974H305.716V74.3788H306.624C307.075 74.3788 307.47 74.2975 307.81 74.135C308.153 73.9726 308.421 73.7436 308.613 73.4482C308.808 73.1527 308.906 72.8056 308.906 72.4068C308.906 72.0227 308.821 71.6885 308.651 71.4042C308.482 71.1198 308.242 70.8983 307.931 70.7395C307.625 70.5807 307.263 70.5013 306.846 70.5013C306.454 70.5013 306.085 70.5733 305.738 70.7173C305.394 70.8576 305.114 71.0626 304.896 71.3322C304.678 71.5981 304.56 71.9193 304.541 72.296H303.212C303.234 71.7015 303.413 71.1808 303.749 70.7339C304.085 70.2834 304.525 69.9326 305.068 69.6815C305.614 69.4304 306.214 69.3048 306.868 69.3048C307.569 69.3048 308.171 69.447 308.674 69.7313C309.176 70.012 309.562 70.3831 309.831 70.8447C310.101 71.3063 310.236 71.8049 310.236 72.3403C310.236 72.9792 310.068 73.5239 309.732 73.9744C309.399 74.4249 308.947 74.737 308.375 74.9105V74.9992C309.091 75.1173 309.65 75.422 310.053 75.9131C310.455 76.4006 310.657 77.0044 310.657 77.7245C310.657 78.3412 310.489 78.8951 310.153 79.3863C309.82 79.8737 309.366 80.2578 308.79 80.5384C308.214 80.8191 307.558 80.9594 306.824 80.9594ZM317.93 74.5228V75.7414H312.967V74.5228H317.93ZM319.787 80.8043V79.8073L323.531 75.7082C323.971 75.2281 324.333 74.8108 324.617 74.4563C324.901 74.0981 325.112 73.7621 325.248 73.4482C325.389 73.1306 325.459 72.7982 325.459 72.4511C325.459 72.0523 325.363 71.707 325.171 71.4153C324.982 71.1235 324.724 70.8983 324.395 70.7395C324.067 70.5807 323.697 70.5013 323.287 70.5013C322.852 70.5013 322.471 70.5918 322.146 70.7727C321.825 70.95 321.576 71.1992 321.399 71.5205C321.225 71.8418 321.138 72.2185 321.138 72.6505H319.831C319.831 71.9858 319.984 71.4023 320.291 70.9001C320.597 70.3979 321.015 70.0064 321.543 69.7258C322.074 69.4451 322.671 69.3048 323.332 69.3048C323.997 69.3048 324.586 69.4451 325.099 69.7258C325.612 70.0064 326.015 70.385 326.306 70.8613C326.598 71.3377 326.744 71.8676 326.744 72.4511C326.744 72.8684 326.668 73.2765 326.517 73.6753C326.369 74.0704 326.111 74.5117 325.741 74.9992C325.376 75.4829 324.868 76.0738 324.218 76.7717L321.67 79.4971V79.5857H326.943V80.8043H319.787ZM333.043 80.9594C332.208 80.9594 331.497 80.7323 330.91 80.2781C330.323 79.8202 329.874 79.1573 329.564 78.2895C329.254 77.418 329.099 76.3655 329.099 75.1321C329.099 73.9061 329.254 72.8592 329.564 71.9913C329.878 71.1198 330.329 70.4551 330.916 69.9972C331.507 69.5356 332.216 69.3048 333.043 69.3048C333.87 69.3048 334.577 69.5356 335.164 69.9972C335.755 70.4551 336.206 71.1198 336.516 71.9913C336.83 72.8592 336.987 73.9061 336.987 75.1321C336.987 76.3655 336.832 77.418 336.521 78.2895C336.211 79.1573 335.763 79.8202 335.175 80.2781C334.588 80.7323 333.877 80.9594 333.043 80.9594ZM333.043 79.7408C333.87 79.7408 334.513 79.342 334.97 78.5443C335.428 77.7466 335.657 76.6092 335.657 75.1321C335.657 74.1498 335.552 73.3134 335.342 72.6228C335.135 71.9323 334.836 71.406 334.444 71.0441C334.056 70.6822 333.589 70.5013 333.043 70.5013C332.223 70.5013 331.582 70.9057 331.121 71.7144C330.659 72.5194 330.428 73.6587 330.428 75.1321C330.428 76.1144 330.532 76.949 330.738 77.6359C330.945 78.3227 331.243 78.8453 331.63 79.2035C332.022 79.5617 332.493 79.7408 333.043 79.7408ZM339.203 80.8043V79.8073L342.948 75.7082C343.387 75.2281 343.749 74.8108 344.033 74.4563C344.318 74.0981 344.528 73.7621 344.665 73.4482C344.805 73.1306 344.875 72.7982 344.875 72.4511C344.875 72.0523 344.779 71.707 344.587 71.4153C344.399 71.1235 344.14 70.8983 343.812 70.7395C343.483 70.5807 343.114 70.5013 342.704 70.5013C342.268 70.5013 341.888 70.5918 341.563 70.7727C341.242 70.95 340.992 71.1992 340.815 71.5205C340.641 71.8418 340.555 72.2185 340.555 72.6505H339.247C339.247 71.9858 339.401 71.4023 339.707 70.9001C340.014 70.3979 340.431 70.0064 340.959 69.7258C341.491 69.4451 342.087 69.3048 342.748 69.3048C343.413 69.3048 344.002 69.4451 344.515 69.7258C345.029 70.0064 345.431 70.385 345.723 70.8613C346.015 71.3377 346.16 71.8676 346.16 72.4511C346.16 72.8684 346.085 73.2765 345.933 73.6753C345.786 74.0704 345.527 74.5117 345.158 74.9992C344.792 75.4829 344.284 76.0738 343.634 76.7717L341.086 79.4971V79.5857H346.36V80.8043H339.203ZM348.249 78.4778V77.3478L353.235 69.4599H354.054V71.2103H353.501L349.734 77.1706V77.2592H356.447V78.4778H348.249ZM353.589 80.8043V78.1344V77.6082V69.4599H354.896V80.8043H353.589Z" fill="#696974"/>
</g>
</g>
</g>
<defs>
<clipPath id="clip0_1124_21167">
<rect width="513" height="383.999" rx="25.4937" fill="white"/>
</clipPath>
<clipPath id="clip1_1124_21167">
<rect width="513" height="386.588" fill="white" transform="translate(0 -2.58887)"/>
</clipPath>
<clipPath id="clip2_1124_21167">
<rect width="334.255" height="339.826" fill="white" transform="translate(128 43.5208)"/>
</clipPath>
<clipPath id="clip3_1124_21167">
<rect width="325.342" height="15.5986" fill="white" transform="translate(153.625 148.254)"/>
</clipPath>
<clipPath id="clip4_1124_21167">
<rect width="334.255" height="15.5986" fill="white" transform="translate(144.711 189.479)"/>
</clipPath>
<clipPath id="clip5_1124_21167">
<rect width="334.255" height="15.5986" fill="white" transform="translate(144.711 230.703)"/>
</clipPath>
<clipPath id="clip6_1124_21167">
<rect width="334.255" height="15.5986" fill="white" transform="translate(144.711 271.928)"/>
</clipPath>
<clipPath id="clip7_1124_21167">
<rect width="318.657" height="15.5986" fill="white" transform="translate(160.312 313.153)"/>
</clipPath>
<clipPath id="clip8_1124_21167">
<rect width="30.083" height="217.266" fill="white" transform="translate(367.547 149.368)"/>
</clipPath>
<clipPath id="clip9_1124_21167">
<rect width="25.6262" height="193.868" fill="white" transform="translate(325.207 172.766)"/>
</clipPath>
<clipPath id="clip10_1124_21167">
<rect width="27.8546" height="171.584" fill="white" transform="translate(280.641 195.05)"/>
</clipPath>
<clipPath id="clip11_1124_21167">
<rect width="26.7404" height="205.01" fill="white" transform="translate(237.188 161.624)"/>
</clipPath>
<clipPath id="clip12_1124_21167">
<rect width="26.7404" height="217.266" fill="white" transform="translate(414.344 149.368)"/>
</clipPath>
<clipPath id="clip13_1124_21167">
<rect width="26.7404" height="182.726" fill="white" transform="translate(193.734 183.908)"/>
</clipPath>
<clipPath id="clip14_1124_21167">
<rect width="103.619" height="26.7404" fill="white" transform="translate(268.387 100.344)"/>
</clipPath>
</defs>
</svg>
