<svg width="30" height="31" viewBox="0 0 30 31" fill="none" xmlns="http://www.w3.org/2000/svg">
<path d="M23.4375 26.6382H6.5625C5.81658 26.6382 5.10121 26.3419 4.57376 25.8144C4.04632 25.287 3.75 24.5716 3.75 23.8257V12.5757C3.75 12.327 3.84877 12.0886 4.02459 11.9128C4.2004 11.737 4.43886 11.6382 4.6875 11.6382H25.3125C25.5611 11.6382 25.7996 11.737 25.9754 11.9128C26.1512 12.0886 26.25 12.327 26.25 12.5757V23.8257C26.25 24.5716 25.9537 25.287 25.4262 25.8144C24.8988 26.3419 24.1834 26.6382 23.4375 26.6382ZM5.625 13.5132V23.8257C5.625 24.0743 5.72377 24.3128 5.89959 24.4886C6.0754 24.6644 6.31386 24.7632 6.5625 24.7632H23.4375C23.6861 24.7632 23.9246 24.6644 24.1004 24.4886C24.2762 24.3128 24.375 24.0743 24.375 23.8257V13.5132H5.625Z" fill="#222222"/>
<path d="M27.1875 13.5132H2.8125C2.56386 13.5132 2.3254 13.4144 2.14959 13.2386C1.97377 13.0628 1.875 12.8243 1.875 12.5757V10.5413C1.87566 9.79564 2.1724 9.08075 2.7 8.55381L6.29063 4.96318C6.81756 4.43559 7.53245 4.13884 8.27812 4.13818H21.7219C22.4675 4.13884 23.1824 4.43559 23.7094 4.96318L27.3 8.55381C27.8276 9.08075 28.1243 9.79564 28.125 10.5413V12.5757C28.125 12.8243 28.0262 13.0628 27.8504 13.2386C27.6746 13.4144 27.4361 13.5132 27.1875 13.5132ZM3.75 11.6382H26.25V10.5413C26.249 10.2931 26.1495 10.0554 25.9734 9.88037L22.3828 6.28975C22.2078 6.11369 21.9701 6.01423 21.7219 6.01318H8.27812C8.02989 6.01423 7.7922 6.11369 7.61719 6.28975L4.02656 9.87568C3.93883 9.9629 3.86922 10.0666 3.82175 10.1809C3.77429 10.2951 3.7499 10.4176 3.75 10.5413V11.6382ZM17.8125 17.2632H12.1875C11.9389 17.2632 11.7004 17.1644 11.5246 16.9886C11.3488 16.8128 11.25 16.5743 11.25 16.3257C11.25 16.077 11.3488 15.8386 11.5246 15.6628C11.7004 15.487 11.9389 15.3882 12.1875 15.3882H17.8125C18.0611 15.3882 18.2996 15.487 18.4754 15.6628C18.6512 15.8386 18.75 16.077 18.75 16.3257C18.75 16.5743 18.6512 16.8128 18.4754 16.9886C18.2996 17.1644 18.0611 17.2632 17.8125 17.2632Z" fill="#222222"/>
</svg>
