<svg width="30" height="31" viewBox="0 0 30 31" fill="none" xmlns="http://www.w3.org/2000/svg">
<path d="M3.75 9.94922H7.5C7.99728 9.94922 8.47419 9.75167 8.82582 9.40004C9.17746 9.04841 9.375 8.5715 9.375 8.07422V4.32422C9.375 3.82694 9.17746 3.35002 8.82582 2.99839C8.47419 2.64676 7.99728 2.44922 7.5 2.44922H3.75C3.25272 2.44922 2.77581 2.64676 2.42417 2.99839C2.07254 3.35002 1.875 3.82694 1.875 4.32422V8.07422C1.875 8.5715 2.07254 9.04841 2.42417 9.40004C2.77581 9.75167 3.25272 9.94922 3.75 9.94922ZM3.75 4.32422H7.5V8.07422H3.75V4.32422ZM26.25 21.1992H22.5C22.0027 21.1992 21.5258 21.3968 21.1742 21.7484C20.8225 22.1 20.625 22.5769 20.625 23.0742V26.8242C20.625 27.3215 20.8225 27.7984 21.1742 28.15C21.5258 28.5017 22.0027 28.6992 22.5 28.6992H26.25C26.7473 28.6992 27.2242 28.5017 27.5758 28.15C27.9275 27.7984 28.125 27.3215 28.125 26.8242V23.0742C28.125 22.5769 27.9275 22.1 27.5758 21.7484C27.2242 21.3968 26.7473 21.1992 26.25 21.1992ZM26.25 26.8242H22.5V23.0742H26.25V26.8242ZM20.0756 12.3736L18.75 13.6992L24.375 19.3242L30 13.6992L28.6744 12.3736L25.3125 15.7355V7.13672C25.3125 6.63944 25.115 6.16252 24.7633 5.81089C24.4117 5.45926 23.9348 5.26172 23.4375 5.26172H11.25V7.13672H23.4375V15.7355L20.0756 12.3736ZM6.5625 15.413L9.92438 18.7748L11.25 17.4492L5.625 11.8242L0 17.4492L1.32563 18.7748L4.6875 15.413V24.0117C4.6875 24.509 4.88504 24.9859 5.23667 25.3375C5.58831 25.6892 6.06522 25.8867 6.5625 25.8867H18.75V24.0117H6.5625V15.413Z" fill="white"/>
</svg>
