<svg width="171" height="120" viewBox="0 0 171 120" fill="none" xmlns="http://www.w3.org/2000/svg">
<rect width="171" height="120" fill="white"/>
<g clip-path="url(#clip0_969_17985)">
<path d="M68.1209 40.8794C68.1209 41.8597 68.2272 42.6544 68.4125 43.2372C68.6478 43.8928 68.9311 44.5303 69.26 45.1444C69.3925 45.3562 69.4453 45.5681 69.4453 45.7537C69.4453 46.0184 69.2866 46.2834 68.9422 46.5484L67.2734 47.6609C67.035 47.82 66.7966 47.8994 66.5844 47.8994C66.3197 47.8994 66.0547 47.7669 65.7897 47.5284C65.4325 47.1451 65.1132 46.7282 64.8363 46.2834C64.5712 45.8334 64.3062 45.3297 64.015 44.7206C61.9485 47.1575 59.3525 48.376 56.2269 48.3762C54.0019 48.3762 52.2269 47.7403 50.9288 46.469C49.6309 45.1972 48.9688 43.5019 48.9688 41.3828C48.9688 39.1312 49.7634 37.3034 51.3794 35.9259C52.995 34.5484 55.1409 33.8597 57.8694 33.8597C58.77 33.8597 59.6972 33.939 60.6772 34.0715C61.6575 34.204 62.6641 34.4159 63.7238 34.6544V32.7206C63.7238 30.7072 63.2997 29.3034 62.4784 28.4822C61.6309 27.6609 60.2003 27.2634 58.1606 27.2634C57.2334 27.2634 56.28 27.3697 55.2997 27.6081C54.3194 27.8465 53.3659 28.1378 52.4388 28.5087C52.015 28.694 51.6972 28.8 51.5116 28.8531C51.3259 28.9062 51.1938 28.9325 51.0878 28.9325C50.7169 28.9325 50.5316 28.6675 50.5316 28.1112V26.8131C50.5316 26.3894 50.5847 26.0715 50.7169 25.8862C50.8494 25.7006 51.0878 25.5153 51.4588 25.33C52.3858 24.8529 53.4983 24.4555 54.7963 24.1378C56.0947 23.7934 57.4722 23.6347 58.9291 23.6347C62.0816 23.6347 64.3863 24.3497 65.8697 25.7803C67.3266 27.2106 68.0684 29.3828 68.0684 32.2969V40.8794H68.1209ZM57.3659 44.9059C58.2403 44.9059 59.1409 44.7472 60.0944 44.429C61.0481 44.1112 61.8959 43.5284 62.6109 42.7337C63.035 42.2306 63.3528 41.6744 63.5116 41.0384C63.6706 40.4028 63.7766 39.6344 63.7766 38.7337V37.6212C62.9732 37.4258 62.1595 37.2755 61.3394 37.1709C60.5135 37.0661 59.6819 37.013 58.8494 37.0119C57.0744 37.0119 55.7766 37.3562 54.9025 38.0715C54.0284 38.7869 53.6044 39.7934 53.6044 41.1178C53.6044 42.3628 53.9222 43.29 54.5844 43.9259C55.2203 44.5881 56.1475 44.9059 57.3659 44.9059ZM78.6375 47.7669C78.1606 47.7669 77.8428 47.6875 77.6309 47.5019C77.4191 47.3431 77.2334 46.9722 77.0747 46.469L70.8497 25.9922C70.6903 25.4622 70.6109 25.1178 70.6109 24.9325C70.6109 24.5087 70.8228 24.27 71.2469 24.27H73.8428C74.3459 24.27 74.6906 24.3497 74.8759 24.535C75.0878 24.694 75.2469 25.065 75.4056 25.5681L79.8559 43.1047L83.9884 25.5681C84.1209 25.0384 84.28 24.694 84.4916 24.535C84.7038 24.3762 85.0747 24.2703 85.5516 24.2703H87.6706C88.1738 24.2703 88.5184 24.3497 88.73 24.535C88.9422 24.694 89.1275 25.065 89.2334 25.5681L93.4191 43.3165L98.0016 25.5681C98.1603 25.0384 98.3459 24.694 98.5312 24.535C98.7431 24.3762 99.0875 24.2703 99.5644 24.2703H102.028C102.452 24.2703 102.69 24.4822 102.69 24.9325C102.69 25.065 102.664 25.1975 102.637 25.3562C102.611 25.515 102.558 25.7272 102.452 26.0187L96.0675 46.4953C95.9088 47.0253 95.7233 47.3697 95.5113 47.5284C95.2994 47.6875 94.955 47.7934 94.505 47.7934H92.2269C91.7234 47.7934 91.3791 47.714 91.1669 47.5284C90.955 47.3431 90.7697 46.9987 90.6638 46.469L86.5575 29.3828L82.4781 46.4422C82.3459 46.9722 82.1869 47.3165 81.975 47.5019C81.7631 47.6875 81.3922 47.7669 80.9156 47.7669H78.6375ZM112.677 48.4822C111.3 48.4822 109.922 48.3231 108.598 48.0053C107.273 47.6875 106.24 47.3428 105.552 46.9459C105.128 46.7072 104.836 46.4425 104.73 46.204C104.627 45.9702 104.573 45.7177 104.571 45.4622V44.1112C104.571 43.555 104.783 43.29 105.181 43.29C105.343 43.2906 105.504 43.3175 105.658 43.3697C105.816 43.4228 106.055 43.5284 106.32 43.6344C107.255 44.0461 108.232 44.357 109.233 44.5615C110.271 44.7719 111.327 44.8784 112.386 44.8794C114.055 44.8794 115.353 44.5881 116.253 44.0053C117.154 43.4225 117.631 42.575 117.631 41.4887C117.631 40.7472 117.393 40.1378 116.916 39.6344C116.439 39.1309 115.538 38.6809 114.24 38.2569L110.399 37.065C108.465 36.4556 107.035 35.555 106.161 34.3628C105.287 33.1972 104.836 31.8994 104.836 30.5219C104.836 29.4094 105.075 28.4291 105.552 27.5812C106.028 26.7337 106.664 25.9922 107.459 25.4094C108.253 24.8 109.154 24.3497 110.214 24.0319C111.273 23.714 112.386 23.5815 113.551 23.5815C114.134 23.5815 114.743 23.6081 115.326 23.6875C115.936 23.7669 116.492 23.8728 117.048 23.9787C117.578 24.1112 118.081 24.2437 118.558 24.4028C119.035 24.5615 119.406 24.7204 119.671 24.8794C120.042 25.0915 120.306 25.3034 120.465 25.5419C120.624 25.7537 120.704 26.0451 120.704 26.4159V27.6609C120.704 28.2172 120.492 28.5087 120.094 28.5087C119.882 28.5087 119.538 28.4025 119.088 28.1906C117.578 27.5019 115.882 27.1575 114.002 27.1575C112.492 27.1575 111.3 27.3959 110.478 27.8994C109.658 28.4025 109.233 29.1709 109.233 30.2569C109.233 30.9987 109.498 31.6344 110.028 32.1378C110.558 32.6412 111.538 33.1444 112.942 33.5947L116.704 34.7869C118.611 35.3962 119.988 36.2437 120.81 37.3297C121.631 38.4156 122.028 39.6609 122.028 41.0384C122.028 42.1775 121.79 43.2106 121.339 44.1112C120.863 45.0119 120.227 45.8065 119.406 46.4425C118.584 47.1047 117.604 47.5815 116.465 47.9259C115.273 48.2969 114.028 48.4822 112.677 48.4822Z" fill="#252F3E"/>
<path d="M117.684 61.5639C108.969 68.0011 96.3065 71.4183 85.4193 71.4183C70.1609 71.4183 56.4128 65.7758 46.0287 56.3983C45.2075 55.6567 45.949 54.6501 46.929 55.2326C58.1609 61.7495 72.0153 65.6964 86.3465 65.6964C96.0153 65.6964 106.638 63.6833 116.413 59.5508C117.87 58.8883 119.115 60.5045 117.684 61.5639ZM121.313 57.4314C120.201 56.0011 113.949 56.7426 111.115 57.087C110.267 57.1933 110.134 56.4514 110.903 55.8951C115.883 52.3983 124.068 53.4051 125.022 54.5705C125.976 55.7626 124.757 63.948 120.095 67.8686C119.38 68.478 118.691 68.1601 119.009 67.3655C120.068 64.7426 122.426 58.8355 121.313 57.4314Z" fill="#FF9900"/>
</g>
<path d="M77.2148 108.5L76.3125 105.882H72.5527L71.6436 108.5H70.0713L73.6328 98.6357H75.2803L78.8418 108.5H77.2148ZM74.3779 100.427L72.9424 104.597H75.9229L74.4941 100.427H74.3779ZM85.377 101.261L83.2646 108.5H81.8154L79.1562 98.6357H80.749L82.5605 106.189H82.6562L84.7139 98.6357H86.1357L88.207 106.189H88.3027L90.1074 98.6357H91.7002L89.0342 108.5H87.5918L85.4727 101.261H85.377ZM93.0605 105.848H94.5781C94.708 106.784 95.624 107.379 96.9434 107.379C98.1738 107.379 99.0762 106.743 99.0762 105.868C99.0762 105.116 98.502 104.665 97.1963 104.357L95.9248 104.05C94.1406 103.633 93.3271 102.771 93.3271 101.322C93.3271 99.5654 94.7627 98.3965 96.916 98.3965C98.9189 98.3965 100.382 99.5654 100.471 101.227H98.9805C98.8369 100.317 98.0439 99.75 96.8955 99.75C95.6855 99.75 94.8789 100.331 94.8789 101.22C94.8789 101.924 95.3984 102.327 96.6836 102.628L97.7705 102.895C99.7939 103.366 100.628 104.187 100.628 105.67C100.628 107.557 99.165 108.739 96.8271 108.739C94.6396 108.739 93.1699 107.611 93.0605 105.848Z" fill="#888888"/>
<defs>
<clipPath id="clip0_969_17985">
<rect width="80" height="80" fill="white" transform="translate(45.5 7.5)"/>
</clipPath>
</defs>
</svg>
