<svg width="171" height="120" viewBox="0 0 171 120" fill="none" xmlns="http://www.w3.org/2000/svg">
<rect width="171" height="120" fill="white"/>
<path d="M72.3358 10.2941H95.7052L71.446 82.1717C71.1969 82.9105 70.7222 83.5525 70.0889 84.0073C69.4555 84.462 68.6955 84.7066 67.9158 84.7065H49.7291C49.1384 84.7064 48.5563 84.5658 48.0307 84.2962C47.5051 84.0267 47.0513 83.6359 46.7066 83.1562C46.3618 82.6766 46.1363 82.1217 46.0488 81.5375C45.9613 80.9533 46.0143 80.3567 46.2034 79.7971L68.8055 12.8284C69.0549 12.0897 69.5296 11.4478 70.1629 10.9929C70.7962 10.5381 71.5561 10.2933 72.3358 10.293V10.2941Z" fill="url(#paint0_linear_969_17990)"/>
<path d="M106.307 58.5059H69.249C68.9043 58.5052 68.5675 58.6084 68.2825 58.802C67.9974 58.9956 67.7773 59.2706 67.6508 59.5912C67.5244 59.9117 67.4975 60.263 67.5736 60.5991C67.6498 60.9351 67.8254 61.2405 68.0777 61.4752L91.8902 83.7015C92.5839 84.3477 93.4965 84.7073 94.4446 84.7077H115.428L106.307 58.5059Z" fill="#0078D4"/>
<path d="M72.3495 10.293C71.5612 10.2897 70.7925 10.5387 70.1558 11.0035C69.5192 11.4684 69.048 12.1248 68.8112 12.8767L46.2453 79.7351C46.044 80.2968 45.9808 80.8986 46.0612 81.4898C46.1417 82.0811 46.3632 82.6442 46.7072 83.1317C47.0512 83.6192 47.5076 84.0167 48.0376 84.2906C48.5677 84.5645 49.1559 84.7068 49.7526 84.7054H68.4091C69.1039 84.5814 69.7534 84.2751 70.2911 83.8178C70.8288 83.3605 71.2354 82.7687 71.4695 82.1028L75.9693 68.8404L92.0439 83.8329C92.7174 84.39 93.5622 84.6981 94.4363 84.7054H115.342L106.173 58.5035L79.4445 58.5099L95.8034 10.293H72.3495Z" fill="url(#paint1_linear_969_17990)"/>
<path d="M102.199 12.8238C101.95 12.0862 101.476 11.4453 100.843 10.9913C100.211 10.5374 99.4519 10.2931 98.6734 10.293H72.6289C73.4073 10.2932 74.1661 10.5375 74.7984 10.9915C75.4308 11.4455 75.9049 12.0863 76.154 12.8238L98.7566 79.7954C98.9459 80.3551 98.999 80.9519 98.9117 81.5362C98.8245 82.1206 98.5992 82.6758 98.2547 83.1558C97.9102 83.6358 97.4562 84.0268 96.9305 84.2965C96.4048 84.5661 95.8224 84.7067 95.2316 84.7065H121.277C121.868 84.7061 122.45 84.5651 122.975 84.2953C123.501 84.0254 123.954 83.6344 124.299 83.1546C124.643 82.6747 124.868 82.1198 124.956 81.5357C125.043 80.9516 124.99 80.355 124.802 79.7954L102.199 12.8238Z" fill="url(#paint2_linear_969_17990)"/>
<path d="M73.4961 108.5L72.5938 105.882H68.834L67.9248 108.5H66.3525L69.9141 98.6357H71.5615L75.123 108.5H73.4961ZM70.6592 100.427L69.2236 104.597H72.2041L70.7754 100.427H70.6592ZM76.3672 108.5V107.502L80.4619 102.416V102.3H76.3945V101.056H82.2188V102.129L78.2129 107.14V107.256H82.2598V108.5H76.3672ZM90.4971 101.056V108.5H89.082V107.317H88.9658C88.6035 108.165 87.8447 108.644 86.7168 108.644C85.0693 108.644 84.1533 107.639 84.1533 105.889V101.056H85.623V105.506C85.623 106.709 86.1084 107.283 87.1885 107.283C88.3779 107.283 89.0273 106.579 89.0273 105.41V101.056H90.4971ZM92.6299 108.5V101.056H94.0449V102.197H94.1543C94.3662 101.466 95.1934 100.933 96.1641 100.933C96.3828 100.933 96.6631 100.953 96.8203 100.994V102.443C96.6973 102.402 96.2598 102.354 96 102.354C94.8857 102.354 94.0996 103.059 94.0996 104.104V108.5H92.6299ZM101.1 102.163C100.013 102.163 99.2539 102.929 99.1719 104.091H102.932C102.897 102.922 102.187 102.163 101.1 102.163ZM102.925 106.49H104.34C104.005 107.823 102.815 108.644 101.113 108.644C98.9805 108.644 97.6748 107.181 97.6748 104.802C97.6748 102.423 99.0078 100.912 101.106 100.912C103.178 100.912 104.429 102.327 104.429 104.665V105.178H99.1719V105.26C99.2197 106.565 99.9785 107.393 101.154 107.393C102.043 107.393 102.651 107.071 102.925 106.49Z" fill="#888888"/>
<defs>
<linearGradient id="paint0_linear_969_17990" x1="80.8535" y1="15.8084" x2="56.584" y2="87.5055" gradientUnits="userSpaceOnUse">
<stop stop-color="#114A8B"/>
<stop offset="1" stop-color="#0669BC"/>
</linearGradient>
<linearGradient id="paint1_linear_969_17990" x1="88.4482" y1="49.2201" x2="82.8346" y2="51.1179" gradientUnits="userSpaceOnUse">
<stop stop-opacity="0.3"/>
<stop offset="0.071" stop-opacity="0.2"/>
<stop offset="0.321" stop-opacity="0.1"/>
<stop offset="0.623" stop-opacity="0.05"/>
<stop offset="1" stop-opacity="0"/>
</linearGradient>
<linearGradient id="paint2_linear_969_17990" x1="85.3616" y1="13.7158" x2="112.002" y2="84.691" gradientUnits="userSpaceOnUse">
<stop stop-color="#3CCBF4"/>
<stop offset="1" stop-color="#2892DF"/>
</linearGradient>
</defs>
</svg>
