<svg width="30" height="31" viewBox="0 0 30 31" fill="none" xmlns="http://www.w3.org/2000/svg">
<path d="M15.0013 27.1833C14.8379 27.1833 14.6734 27.144 14.5224 27.0664C12.8338 26.1856 10.9575 25.7257 9.05307 25.7257C7.14861 25.7257 5.27232 26.1856 3.58376 27.0664C3.42597 27.1482 3.2498 27.188 3.07217 27.182C2.89455 27.1761 2.72144 27.1246 2.56947 27.0324C2.41749 26.9403 2.29176 26.8106 2.20435 26.6559C2.11694 26.5011 2.07078 26.3265 2.07031 26.1488V6.49363C2.0703 6.32677 2.11066 6.16238 2.18794 6.01449C2.26521 5.8666 2.37712 5.7396 2.51411 5.64432C6.42549 2.9226 11.6807 2.9226 15.5931 5.64432C15.8703 5.83777 16.0358 6.15535 16.0358 6.49363V26.1488C16.0358 26.4232 15.9268 26.6863 15.7328 26.8803C15.5388 27.0743 15.2757 27.1833 15.0013 27.1833ZM9.05307 23.6567C10.7186 23.6567 12.3851 23.9557 13.9669 24.5536V7.05225C12.487 6.14907 10.7868 5.67124 9.05307 5.67124C7.31935 5.67124 5.61916 6.14907 4.13928 7.05225V24.5536C5.70961 23.9604 7.37442 23.6565 9.05307 23.6567Z" fill="#222222"/>
<path d="M26.8959 27.1833C26.7324 27.1833 26.5679 27.144 26.4169 27.0664C24.7284 26.1856 22.8521 25.7257 20.9476 25.7257C19.0431 25.7257 17.1669 26.1856 15.4783 27.0664C15.3205 27.1482 15.1443 27.188 14.9667 27.182C14.7891 27.1761 14.616 27.1246 14.464 27.0324C14.312 26.9403 14.1863 26.8106 14.0989 26.6559C14.0115 26.5011 13.9653 26.3265 13.9648 26.1488V6.49363C13.9648 6.32677 14.0052 6.16238 14.0825 6.01449C14.1597 5.8666 14.2717 5.7396 14.4086 5.64432C18.32 2.9226 23.5752 2.9226 27.4876 5.64432C27.7648 5.83777 27.9304 6.15535 27.9304 6.49363V26.1488C27.9304 26.4232 27.8214 26.6863 27.6274 26.8803C27.4334 27.0743 27.1702 27.1833 26.8959 27.1833ZM20.9476 23.6567C22.6131 23.6567 24.2797 23.9557 25.8614 24.5536V7.05225C24.3815 6.14907 22.6813 5.67124 20.9476 5.67124C19.2139 5.67124 17.5137 6.14907 16.0338 7.05225V24.5536C17.6041 23.9604 19.2689 23.6565 20.9476 23.6567Z" fill="#222222"/>
</svg>
