<svg width="30" height="31" viewBox="0 0 30 31" fill="none" xmlns="http://www.w3.org/2000/svg">
<path d="M24.362 7.73408C23.0983 7.42752 21.9255 7.77064 21.0677 8.48408C20.8877 8.63314 20.6064 8.53939 20.5792 8.30783C20.222 5.28158 17.6533 2.93408 14.5314 2.93408C12.2373 2.93408 10.2414 4.20346 9.20172 6.07658C8.27735 5.71471 7.2236 5.60877 6.10047 5.97064C4.4261 6.51158 3.13141 7.96189 2.86797 9.70189C2.42735 12.6156 4.67078 15.1216 7.50016 15.1216H23.4377C25.7945 15.1216 27.6442 12.9466 27.0883 10.495C26.7836 9.15158 25.7008 8.05846 24.362 7.73408Z" stroke="#222222" stroke-width="2" stroke-miterlimit="10" stroke-linecap="round" stroke-linejoin="round"/>
<path d="M15 27.3091C16.0355 27.3091 16.875 26.4696 16.875 25.4341C16.875 24.3985 16.0355 23.5591 15 23.5591C13.9645 23.5591 13.125 24.3985 13.125 25.4341C13.125 26.4696 13.9645 27.3091 15 27.3091Z" stroke="#222222" stroke-width="2" stroke-miterlimit="10" stroke-linecap="round" stroke-linejoin="round"/>
<path d="M15 17.9341V23.5591" stroke="#222222" stroke-width="2" stroke-miterlimit="10" stroke-linecap="round" stroke-linejoin="round"/>
<path d="M25.3125 24.4966C26.348 24.4966 27.1875 23.6571 27.1875 22.6216C27.1875 21.586 26.348 20.7466 25.3125 20.7466C24.277 20.7466 23.4375 21.586 23.4375 22.6216C23.4375 23.6571 24.277 24.4966 25.3125 24.4966Z" stroke="#222222" stroke-width="2" stroke-miterlimit="10" stroke-linecap="round" stroke-linejoin="round"/>
<path d="M20.625 17.9341V22.6216H23.4375" stroke="#222222" stroke-width="2" stroke-miterlimit="10" stroke-linecap="round" stroke-linejoin="round"/>
<path d="M4.6875 25.4341C5.72303 25.4341 6.5625 24.5946 6.5625 23.5591C6.5625 22.5235 5.72303 21.6841 4.6875 21.6841C3.65197 21.6841 2.8125 22.5235 2.8125 23.5591C2.8125 24.5946 3.65197 25.4341 4.6875 25.4341Z" stroke="#222222" stroke-width="2" stroke-miterlimit="10" stroke-linecap="round" stroke-linejoin="round"/>
<path d="M9.375 17.9341V23.5591H6.5625" stroke="#222222" stroke-width="2" stroke-miterlimit="10" stroke-linecap="round" stroke-linejoin="round"/>
</svg>
