<svg width="30" height="31" viewBox="0 0 30 31" fill="none" xmlns="http://www.w3.org/2000/svg">
<path d="M14.9975 3.07422C11.2375 3.07422 8.79996 5.59797 5.91746 6.51797C4.74496 6.89297 4.15871 7.07922 3.92121 7.34297C3.68371 7.60547 3.61496 7.99172 3.47621 8.76172C1.98871 17.0067 5.23871 24.6292 12.9887 27.5967C13.82 27.9155 14.2362 28.0742 15.0012 28.0742C15.7662 28.0742 16.1837 27.9142 17.0162 27.5955C24.765 24.6292 28.0112 17.0067 26.5237 8.76172C26.385 7.99172 26.315 7.60547 26.0775 7.34172C25.84 7.07797 25.255 6.89172 24.0825 6.51797C21.1987 5.59797 18.7575 3.07422 14.9975 3.07422Z" stroke="white" stroke-width="1.5" stroke-linecap="round" stroke-linejoin="round"/>
<path d="M12.8127 13.0228C12.8127 12.9478 12.8227 12.5153 12.8252 11.9728C12.8252 11.4753 12.7827 10.9978 13.0202 10.5603C13.9077 8.79281 16.4577 8.97281 17.0877 10.7728C17.1964 11.0691 17.2039 11.5378 17.2002 11.9728C17.1964 12.5266 17.2077 13.0228 17.2077 13.0228M12.9214 13.5491C11.5714 13.5491 10.8964 14.5241 10.7464 15.1241C10.5964 15.7241 10.5964 17.8991 10.6864 18.7991C10.9864 19.9241 11.7364 20.3891 12.4714 20.5391C13.1464 20.5991 15.9964 20.5766 16.8214 20.5766C18.0214 20.5991 18.9214 20.1491 19.2964 18.7991C19.3714 18.3491 19.4464 15.8741 19.2589 15.1241C18.8614 13.9241 17.8714 13.5491 17.1214 13.5491H12.9214Z" stroke="white" stroke-width="1.5" stroke-linecap="round" stroke-linejoin="round"/>
</svg>
