<svg width="30" height="31" viewBox="0 0 30 31" fill="none" xmlns="http://www.w3.org/2000/svg">
<path d="M15 25.7927C17.0711 25.7927 18.75 24.1138 18.75 22.0427C18.75 19.9717 17.0711 18.2927 15 18.2927C12.9289 18.2927 11.25 19.9717 11.25 22.0427C11.25 24.1138 12.9289 25.7927 15 25.7927Z" stroke="black" stroke-width="2" stroke-linecap="round" stroke-linejoin="round"/>
<path d="M5.24823 19.6677C4.27225 18.7466 3.52122 17.6134 3.05322 16.3556C2.58522 15.0979 2.41279 13.7493 2.54928 12.4143C2.68576 11.0793 3.1275 9.79352 3.84032 8.65649C4.55314 7.51947 5.51795 6.56164 6.66012 5.85708C7.80229 5.15253 9.09121 4.72013 10.4272 4.59334C11.7632 4.46655 13.1104 4.64876 14.3648 5.12587C15.6191 5.60298 16.7468 6.36222 17.6608 7.34485C18.5748 8.32749 19.2505 9.50719 19.6357 10.7927H21.8732C23.0656 10.8088 24.222 11.2034 25.1754 11.9195C26.1289 12.6356 26.8301 13.6362 27.1779 14.7768C27.5256 15.9174 27.5019 17.1391 27.1101 18.2653C26.7184 19.3916 25.9788 20.3642 24.9982 21.0427M19.6232 23.7927L18.4982 23.4177M11.4982 20.6677L10.3732 20.2927M13.2482 26.6677L13.6232 25.5427M16.3732 18.5427L16.7482 17.4177M16.9982 26.6677L16.4982 25.4177M13.4982 18.6677L12.9982 17.4177M10.3732 24.0427L11.6232 23.5427M18.3732 20.5427L19.6232 20.0427" stroke="black" stroke-width="2" stroke-linecap="round" stroke-linejoin="round"/>
</svg>
