<svg width="30" height="31" viewBox="0 0 30 31" fill="none" xmlns="http://www.w3.org/2000/svg">
<path d="M15 3.57422C19.2255 3.57422 21.6225 6.45872 21.9705 9.94322H22.0755C24.798 9.94322 27 12.2112 27 15.0087C27 15.0787 26.9985 15.1477 26.9955 15.2157C26.5417 14.8108 26.0105 14.5021 25.434 14.3082C25.1205 12.6687 23.73 11.4432 22.077 11.4432H21.9705C21.5986 11.4432 21.24 11.3051 20.9643 11.0557C20.6885 10.8062 20.5152 10.4632 20.478 10.0932C20.175 7.06172 18.1635 5.07422 15 5.07422C11.829 5.07422 9.8265 7.04822 9.522 10.0917C9.48516 10.462 9.31202 10.8053 9.03621 11.0551C8.76039 11.3049 8.40159 11.4432 8.0295 11.4432H7.9245C6.0405 11.4432 4.5 13.0302 4.5 15.0087C4.5 16.9887 6.042 18.5742 7.923 18.5742H16.8315C16.5915 18.8922 16.4055 19.2472 16.2735 19.6392L16.128 20.0742H7.923C5.2035 20.0742 3 17.8062 3 15.0087C3 12.3042 5.0595 10.0947 7.653 9.95072L8.0295 9.94322C8.3805 6.43622 10.7745 3.57422 15 3.57422ZM25.389 15.9147C25.876 16.1672 26.2839 16.549 26.5681 17.0181C26.8523 17.4873 27.0017 18.0257 27 18.5742C27 19.2346 26.782 19.8765 26.38 20.4004C25.978 20.9243 25.4143 21.3009 24.7765 21.4719C24.1386 21.6428 23.4621 21.5985 22.852 21.3458C22.2419 21.0931 21.7322 20.6461 21.402 20.0742H19.83C19.6724 20.074 19.5187 20.1235 19.3908 20.2156C19.2629 20.3077 19.1673 20.4377 19.1175 20.5872L18.3015 23.0352C18.1524 23.4828 17.8664 23.8722 17.4839 24.1484C17.1014 24.4246 16.6418 24.5735 16.17 24.5742H15C15 25.302 14.7355 26.0051 14.2556 26.5523C13.7757 27.0995 13.1133 27.4536 12.3917 27.5487C11.6701 27.6437 10.9386 27.4732 10.3334 27.0688C9.72822 26.6645 9.29067 26.054 9.10226 25.3509C8.91385 24.6479 8.98744 23.9004 9.30932 23.2476C9.63119 22.5948 10.1794 22.0813 10.8518 21.8028C11.5242 21.5242 12.275 21.4996 12.9642 21.7335C13.6534 21.9674 14.2341 22.4439 14.598 23.0742H16.1685C16.3261 23.0744 16.4798 23.025 16.6077 22.9329C16.7356 22.8408 16.8312 22.7107 16.881 22.5612L17.697 20.1132L17.709 20.0742C17.746 19.9742 17.7885 19.8772 17.8365 19.7832C18.0268 19.4186 18.3134 19.1131 18.6651 18.9C19.0168 18.6868 19.4202 18.5742 19.8315 18.5742H21C20.9999 18.0583 21.1329 17.5511 21.3861 17.1016C21.6393 16.6521 22.0041 16.2754 22.4453 16.0081C22.8865 15.7407 23.3893 15.5917 23.9049 15.5753C24.4206 15.5589 24.9317 15.6759 25.389 15.9147ZM24.729 17.2632C24.5027 17.1373 24.2476 17.0721 23.9886 17.0741C23.7296 17.076 23.4755 17.145 23.251 17.2743C23.0266 17.4035 22.8395 17.5887 22.7078 17.8118C22.5762 18.0349 22.5046 18.2882 22.5 18.5472V18.5742C22.4974 18.972 22.653 19.3546 22.9324 19.6377C23.2119 19.9209 23.5924 20.0814 23.9902 20.084C24.3881 20.0866 24.7706 19.931 25.0538 19.6515C25.3369 19.372 25.4974 18.9915 25.5 18.5937V18.5742C25.5 18.3068 25.4285 18.0443 25.293 17.8138C25.1574 17.5833 24.9627 17.3932 24.729 17.2632ZM13.5 24.5742C13.5 24.1764 13.342 23.7949 13.0607 23.5136C12.7794 23.2323 12.3978 23.0742 12 23.0742C11.6022 23.0742 11.2206 23.2323 10.9393 23.5136C10.658 23.7949 10.5 24.1764 10.5 24.5742C10.5 24.972 10.658 25.3536 10.9393 25.6349C11.2206 25.9162 11.6022 26.0742 12 26.0742C12.3978 26.0742 12.7794 25.9162 13.0607 25.6349C13.342 25.3536 13.5 24.972 13.5 24.5742Z" fill="white"/>
</svg>
