<svg width="24" height="24" viewBox="0 0 24 24" fill="none" xmlns="http://www.w3.org/2000/svg">
<path d="M6.30994 21.0087H17.4522C19.4161 21.0087 21.0082 19.4166 21.0082 17.4527V12.2372V6.31043C21.0082 4.34648 19.4161 2.75439 17.4522 2.75439H11.8811H6.30994C4.34599 2.75439 2.75391 4.34648 2.75391 6.31043V12.2372V17.4527C2.75391 19.4166 4.34599 21.0087 6.30994 21.0087Z" stroke="white" stroke-width="1.51724" stroke-linecap="round"/>
<path d="M9.63476 9.33309L7.51294 11.4C7.17277 11.7314 7.17277 12.2687 7.51294 12.6L9.63476 14.6669M14.3636 9.33309L16.4854 11.4C16.8256 11.7314 16.8256 12.2687 16.4854 12.6L14.3636 14.6669M11.4621 15.7932L12.5363 8.20703" stroke="white" stroke-width="1.51724" stroke-linecap="round"/>
</svg>
