<svg width="24" height="24" viewBox="0 0 24 24" fill="none" xmlns="http://www.w3.org/2000/svg">
<path d="M17.1587 5.2432C17.8461 5.2432 18.4033 5.80043 18.4033 6.48781C18.4033 7.17519 17.8461 7.73242 17.1587 7.73242C16.4713 7.73242 15.9141 7.17519 15.9141 6.48781C15.9141 5.80043 16.4713 5.2432 17.1587 5.2432Z" stroke="white" stroke-width="0.758621"/>
<path d="M6.84523 5.2432C6.15785 5.2432 5.60062 5.80043 5.60062 6.48781C5.60062 7.17519 6.15785 7.73242 6.84523 7.73242C7.53261 7.73242 8.08984 7.17519 8.08984 6.48781C8.08984 5.80043 7.53261 5.2432 6.84523 5.2432Z" stroke="white" stroke-width="0.758621"/>
<path d="M17.1587 16.2671C17.8461 16.2671 18.4033 16.8244 18.4033 17.5117C18.4033 18.1991 17.8461 18.7563 17.1587 18.7563C16.4713 18.7563 15.9141 18.1991 15.9141 17.5117C15.9141 16.8244 16.4713 16.2671 17.1587 16.2671Z" stroke="white" stroke-width="0.758621"/>
<path d="M6.84523 16.2671C6.15785 16.2671 5.60062 16.8244 5.60062 17.5117C5.60062 18.1991 6.15785 18.7563 6.84523 18.7563C7.53261 18.7563 8.08984 18.1991 8.08984 17.5117C8.08984 16.8244 7.53261 16.2671 6.84523 16.2671Z" stroke="white" stroke-width="0.758621"/>
<path d="M18.4009 10.7554C19.0882 10.7554 19.6455 11.3126 19.6455 12C19.6455 12.6874 19.0882 13.2446 18.4009 13.2446C17.7135 13.2446 17.1562 12.6874 17.1562 12C17.1562 11.3126 17.7135 10.7554 18.4009 10.7554Z" stroke="white" stroke-width="0.758621"/>
<path d="M5.60008 10.7554C6.28746 10.7554 6.84469 11.3126 6.84469 12C6.84469 12.6874 6.28746 13.2446 5.60008 13.2446C4.9127 13.2446 4.35547 12.6874 4.35547 12C4.35547 11.3126 4.9127 10.7554 5.60008 10.7554Z" stroke="white" stroke-width="0.758621"/>
<path d="M15.9131 7.19922L14.0443 8.47498C13.6561 8.74001 13.4239 9.1797 13.4239 9.64975V11.911V14.1276C13.4239 14.6122 13.6314 15.0522 13.9545 15.2527L15.9131 16.6227M8.08984 7.19922L9.95863 8.47498C10.3468 8.74001 10.5791 9.1797 10.5791 9.64975V11.911V14.1276C10.5791 14.6122 10.3716 15.0522 10.0485 15.2527L8.08984 16.6227" stroke="white" stroke-width="1.51724" stroke-linecap="round"/>
</svg>
