<svg width="352" height="361" viewBox="0 0 352 361" fill="none" xmlns="http://www.w3.org/2000/svg">
<g filter="url(#filter0_f_1850_116524)">
<rect x="106" y="106" width="140" height="149" fill="#F3EBDC"/>
</g>
<rect x="236.62" y="221.773" width="121.24" height="158.14" rx="16" transform="rotate(-180 236.62 221.773)" fill="#FBAE17"/>
<rect x="236.225" y="221.378" width="120.45" height="157.349" rx="15.6047" transform="rotate(-180 236.225 221.378)" stroke="white" stroke-opacity="0.5" stroke-width="0.790698"/>
<g opacity="0.3" filter="url(#filter1_b_1850_116524)">
<rect x="125.486" y="77.0156" width="32.0312" height="31.8084" rx="15.9042" fill="white"/>
</g>
<path d="M141.645 87.0938L141.801 99.4374M141.801 99.4374L145.969 95.6027M141.801 99.4374L137.461 95.7108" stroke="white" stroke-width="1.26049" stroke-linecap="round"/>
<path d="M168.158 80.1215L168.158 86.8672L166.995 86.8672L166.995 80.1215L168.158 80.1215ZM170.6 82.9245L170.6 86.8672L169.483 86.8672L169.483 81.8543L170.535 81.8543L170.6 82.9245ZM170.401 84.1754L170.039 84.1708C170.042 83.8156 170.092 83.4897 170.188 83.1932C170.286 82.8967 170.422 82.6419 170.595 82.4288C170.771 82.2157 170.981 82.052 171.225 81.9377C171.469 81.8203 171.741 81.7616 172.041 81.7616C172.282 81.7616 172.499 81.7956 172.694 81.8636C172.892 81.9284 173.06 82.035 173.199 82.1832C173.341 82.3315 173.449 82.5245 173.523 82.7624C173.597 82.9971 173.634 83.2859 173.634 83.6287L173.634 86.8672L172.513 86.8672L172.513 83.6241C172.513 83.3832 172.478 83.1932 172.407 83.0542C172.339 82.9122 172.238 82.8118 172.106 82.7531C171.976 82.6913 171.814 82.6604 171.619 82.6604C171.428 82.6604 171.256 82.7006 171.105 82.7809C170.954 82.8612 170.825 82.9708 170.72 83.1098C170.618 83.2488 170.54 83.4094 170.484 83.5917C170.428 83.7739 170.401 83.9685 170.401 84.1754ZM176.822 86.0703C177.004 86.0703 177.168 86.0348 177.313 85.9638C177.461 85.8896 177.58 85.7877 177.67 85.658C177.762 85.5283 177.813 85.3785 177.823 85.2086L178.874 85.2086C178.868 85.5329 178.772 85.8279 178.587 86.0935C178.402 86.3591 178.156 86.5707 177.851 86.7282C177.545 86.8826 177.207 86.9598 176.836 86.9598C176.453 86.9598 176.119 86.895 175.835 86.7653C175.551 86.6324 175.315 86.4502 175.126 86.2186C174.938 85.9869 174.796 85.7197 174.7 85.4171C174.607 85.1144 174.561 84.7901 174.561 84.4441L174.561 84.282C174.561 83.936 174.607 83.6117 174.7 83.309C174.796 83.0033 174.938 82.7346 175.126 82.5029C175.315 82.2713 175.551 82.0906 175.835 81.9608C176.119 81.828 176.451 81.7616 176.831 81.7616C177.233 81.7616 177.585 81.8419 177.888 82.0025C178.19 82.1601 178.428 82.3809 178.601 82.6651C178.777 82.9461 178.868 83.2735 178.874 83.6473L177.823 83.6473C177.813 83.4619 177.767 83.2951 177.684 83.1469C177.603 82.9955 177.489 82.8751 177.341 82.7855C177.196 82.6959 177.021 82.6512 176.817 82.6512C176.592 82.6512 176.405 82.6975 176.257 82.7902C176.108 82.8797 175.993 83.0033 175.909 83.1608C175.826 83.3152 175.766 83.4897 175.729 83.6843C175.695 83.8758 175.678 84.075 175.678 84.282L175.678 84.4441C175.678 84.6511 175.695 84.8518 175.729 85.0464C175.763 85.241 175.821 85.4155 175.905 85.5699C175.991 85.7213 176.108 85.8433 176.257 85.936C176.405 86.0255 176.593 86.0703 176.822 86.0703ZM179.518 84.4163L179.518 84.3098C179.518 83.9484 179.571 83.6133 179.676 83.3044C179.781 82.9925 179.932 82.7222 180.13 82.4936C180.331 82.262 180.575 82.0828 180.862 81.9562C181.152 81.8265 181.48 81.7616 181.844 81.7616C182.212 81.7616 182.539 81.8265 182.826 81.9562C183.117 82.0828 183.362 82.262 183.563 82.4936C183.764 82.7222 183.917 82.9925 184.022 83.3044C184.127 83.6133 184.179 83.9484 184.179 84.3098L184.179 84.4163C184.179 84.7777 184.127 85.1128 184.022 85.4217C183.917 85.7306 183.764 86.0008 183.563 86.2325C183.362 86.461 183.118 86.6402 182.831 86.7699C182.544 86.8965 182.218 86.9598 181.853 86.9598C181.486 86.9598 181.157 86.8965 180.867 86.7699C180.579 86.6402 180.335 86.461 180.135 86.2325C179.934 86.0008 179.781 85.7306 179.676 85.4217C179.571 85.1128 179.518 84.7777 179.518 84.4163ZM180.635 84.3098L180.635 84.4163C180.635 84.6418 180.658 84.8549 180.704 85.0557C180.751 85.2565 180.823 85.4325 180.922 85.5838C181.021 85.7352 181.148 85.8541 181.302 85.9406C181.457 86.0271 181.64 86.0703 181.853 86.0703C182.06 86.0703 182.239 86.0271 182.391 85.9406C182.545 85.8541 182.672 85.7352 182.771 85.5838C182.87 85.4325 182.942 85.2565 182.988 85.0557C183.038 84.8549 183.063 84.6418 183.063 84.4163L183.063 84.3098C183.063 84.0874 183.038 83.8774 182.988 83.6797C182.942 83.4789 182.868 83.3013 182.766 83.1469C182.667 82.9925 182.541 82.872 182.386 82.7855C182.235 82.6959 182.054 82.6512 181.844 82.6512C181.634 82.6512 181.452 82.6959 181.297 82.7855C181.146 82.872 181.021 82.9925 180.922 83.1469C180.823 83.3013 180.751 83.4789 180.704 83.6797C180.658 83.8774 180.635 84.0874 180.635 84.3098ZM186.232 82.8735L186.232 86.8672L185.115 86.8672L185.115 81.8543L186.167 81.8543L186.232 82.8735ZM186.051 84.1754L185.671 84.1708C185.671 83.8249 185.714 83.5052 185.801 83.2118C185.887 82.9183 186.014 82.6635 186.181 82.4473C186.347 82.228 186.554 82.0597 186.801 81.9423C187.052 81.8219 187.34 81.7616 187.668 81.7616C187.896 81.7616 188.105 81.7956 188.293 81.8636C188.485 81.9284 188.65 82.0319 188.789 82.174C188.931 82.316 189.039 82.4983 189.113 82.7207C189.191 82.943 189.229 83.2118 189.229 83.5268L189.229 86.8672L188.113 86.8672L188.113 83.6241C188.113 83.3801 188.076 83.1886 188.001 83.0496C187.93 82.9106 187.827 82.8118 187.691 82.7531C187.558 82.6913 187.399 82.6604 187.214 82.6604C187.004 82.6604 186.825 82.7006 186.676 82.7809C186.531 82.8612 186.412 82.9708 186.32 83.1098C186.227 83.2488 186.159 83.4094 186.116 83.5917C186.073 83.7739 186.051 83.9685 186.051 84.1754ZM189.16 83.8789L188.636 83.9947C188.636 83.692 188.678 83.4063 188.761 83.1376C188.848 82.8658 188.973 82.628 189.136 82.4241C189.303 82.2172 189.509 82.0551 189.753 81.9377C189.997 81.8203 190.276 81.7616 190.591 81.7616C190.848 81.7616 191.076 81.7971 191.277 81.8682C191.481 81.9361 191.654 82.0442 191.796 82.1925C191.938 82.3408 192.046 82.5338 192.12 82.7716C192.194 83.0064 192.231 83.2905 192.231 83.6241L192.231 86.8672L191.11 86.8672L191.11 83.6195C191.11 83.3662 191.073 83.1701 190.999 83.0311C190.928 82.8921 190.826 82.7963 190.693 82.7438C190.56 82.6882 190.401 82.6604 190.216 82.6604C190.043 82.6604 189.89 82.6929 189.757 82.7577C189.628 82.8195 189.518 82.9075 189.428 83.0218C189.339 83.133 189.271 83.2612 189.225 83.4063C189.181 83.5515 189.16 83.709 189.16 83.8789ZM195.59 86.9598C195.22 86.9598 194.884 86.8996 194.585 86.7792C194.288 86.6556 194.035 86.4842 193.825 86.2649C193.618 86.0456 193.459 85.7877 193.348 85.4912C193.237 85.1947 193.181 84.875 193.181 84.5322L193.181 84.3468C193.181 83.9546 193.238 83.5994 193.353 83.2813C193.467 82.9631 193.626 82.6913 193.83 82.4658C194.034 82.2373 194.274 82.0628 194.552 81.9423C194.83 81.8219 195.132 81.7616 195.456 81.7616C195.814 81.7616 196.128 81.8219 196.396 81.9423C196.665 82.0628 196.887 82.2326 197.064 82.4519C197.243 82.6682 197.375 82.9261 197.462 83.2257C197.552 83.5253 197.596 83.8557 197.596 84.2171L197.596 84.6943L193.723 84.6943L193.723 83.8928L196.494 83.8928L196.494 83.8048C196.487 83.604 196.447 83.4156 196.373 83.2396C196.302 83.0635 196.193 82.9214 196.044 82.8133C195.896 82.7052 195.698 82.6512 195.451 82.6512C195.266 82.6512 195.101 82.6913 194.956 82.7716C194.813 82.8488 194.695 82.9616 194.599 83.1098C194.503 83.2581 194.429 83.4372 194.376 83.6473C194.327 83.8542 194.302 84.0874 194.302 84.3468L194.302 84.5322C194.302 84.7515 194.332 84.9553 194.39 85.1437C194.452 85.329 194.542 85.4912 194.659 85.6302C194.776 85.7692 194.918 85.8788 195.085 85.9591C195.252 86.0363 195.442 86.0749 195.655 86.0749C195.924 86.0749 196.163 86.0209 196.373 85.9128C196.583 85.8047 196.765 85.6518 196.92 85.4541L197.508 86.024C197.4 86.1815 197.26 86.3328 197.087 86.478C196.914 86.6201 196.702 86.7359 196.452 86.8255C196.205 86.9151 195.918 86.9598 195.59 86.9598Z" fill="white"/>
<path d="M168.868 101.323L167.211 100.927L167.809 95.6083L173.704 95.6083L173.704 97.2875L169.517 97.2875L169.257 99.6154C169.397 99.5337 169.608 99.4472 169.892 99.3559C170.175 99.2598 170.492 99.2118 170.843 99.2118C171.352 99.2118 171.804 99.2911 172.198 99.4496C172.592 99.6082 172.926 99.8388 173.199 100.141C173.478 100.444 173.69 100.814 173.834 101.251C173.978 101.689 174.05 102.183 174.05 102.736C174.05 103.202 173.978 103.646 173.834 104.069C173.69 104.487 173.471 104.862 173.178 105.193C172.885 105.52 172.517 105.777 172.075 105.965C171.633 106.152 171.109 106.246 170.504 106.246C170.052 106.246 169.615 106.178 169.192 106.044C168.774 105.909 168.397 105.71 168.061 105.446C167.729 105.181 167.463 104.862 167.261 104.487C167.064 104.108 166.961 103.675 166.951 103.19L169.012 103.19C169.041 103.488 169.118 103.745 169.243 103.961C169.373 104.173 169.543 104.336 169.755 104.451C169.966 104.566 170.213 104.624 170.497 104.624C170.761 104.624 170.987 104.574 171.174 104.473C171.362 104.372 171.513 104.233 171.628 104.055C171.744 103.872 171.828 103.661 171.881 103.421C171.938 103.176 171.967 102.911 171.967 102.628C171.967 102.344 171.933 102.087 171.866 101.857C171.799 101.626 171.696 101.427 171.556 101.259C171.417 101.09 171.239 100.961 171.023 100.869C170.812 100.778 170.564 100.732 170.281 100.732C169.896 100.732 169.598 100.792 169.387 100.913C169.18 101.033 169.007 101.17 168.868 101.323ZM177.444 104.35L177.437 105.741C177.437 106.275 177.303 106.813 177.034 107.356C176.769 107.898 176.433 108.343 176.025 108.689L174.944 108.134C175.064 107.913 175.181 107.692 175.297 107.471C175.412 107.25 175.508 107.007 175.585 106.743C175.662 106.479 175.7 106.178 175.7 105.842L175.7 104.35L177.444 104.35ZM184.377 95.5002L184.68 95.5002L184.68 97.1578L184.558 97.1578C184.01 97.1578 183.522 97.2395 183.095 97.4029C182.667 97.5662 182.304 97.7992 182.006 98.1019C181.713 98.3998 181.487 98.7602 181.329 99.183C181.175 99.6058 181.098 100.079 181.098 100.603L181.098 102.347C181.098 102.722 181.134 103.053 181.206 103.341C181.283 103.625 181.391 103.863 181.531 104.055C181.675 104.242 181.843 104.384 182.035 104.48C182.227 104.571 182.444 104.617 182.684 104.617C182.91 104.617 183.114 104.569 183.296 104.473C183.484 104.377 183.642 104.242 183.772 104.069C183.907 103.891 184.007 103.685 184.075 103.449C184.147 103.209 184.183 102.947 184.183 102.664C184.183 102.38 184.147 102.119 184.075 101.878C184.007 101.638 183.907 101.432 183.772 101.259C183.637 101.081 183.474 100.944 183.282 100.848C183.09 100.752 182.874 100.704 182.633 100.704C182.307 100.704 182.018 100.78 181.768 100.934C181.523 101.083 181.331 101.275 181.192 101.511C181.053 101.746 180.978 101.994 180.969 102.253L180.342 101.85C180.356 101.48 180.433 101.129 180.572 100.797C180.716 100.466 180.913 100.173 181.163 99.9181C181.418 99.6586 181.723 99.4568 182.078 99.3127C182.434 99.1637 182.835 99.0893 183.282 99.0893C183.772 99.0893 184.202 99.183 184.572 99.3703C184.947 99.5577 185.259 99.8148 185.509 100.141C185.759 100.468 185.946 100.845 186.071 101.273C186.196 101.701 186.258 102.157 186.258 102.642C186.258 103.152 186.174 103.625 186.006 104.062C185.843 104.499 185.605 104.881 185.293 105.208C184.985 105.535 184.615 105.789 184.183 105.972C183.75 106.154 183.265 106.246 182.727 106.246C182.17 106.246 181.663 106.145 181.206 105.943C180.755 105.736 180.366 105.448 180.039 105.078C179.712 104.708 179.46 104.269 179.282 103.759C179.109 103.25 179.023 102.693 179.023 102.087L179.023 101.28C179.023 100.435 179.145 99.661 179.39 98.9595C179.64 98.2533 179.998 97.6431 180.464 97.129C180.93 96.6101 181.492 96.2089 182.15 95.9254C182.809 95.642 183.551 95.5002 184.377 95.5002ZM194.561 99.9325L194.561 101.749C194.561 102.537 194.477 103.216 194.308 103.788C194.14 104.355 193.898 104.821 193.581 105.186C193.268 105.547 192.896 105.813 192.463 105.986C192.031 106.159 191.551 106.246 191.022 106.246C190.599 106.246 190.205 106.193 189.84 106.087C189.475 105.977 189.146 105.806 188.853 105.575C188.565 105.345 188.315 105.054 188.103 104.703C187.897 104.348 187.738 103.925 187.628 103.435C187.517 102.945 187.462 102.383 187.462 101.749L187.462 99.9325C187.462 99.1445 187.546 98.4695 187.714 97.9073C187.887 97.3404 188.13 96.8768 188.442 96.5164C188.759 96.1561 189.134 95.8918 189.566 95.7237C189.999 95.5507 190.479 95.4642 191.008 95.4642C191.43 95.4642 191.822 95.5195 192.182 95.63C192.548 95.7357 192.877 95.9014 193.17 96.1272C193.463 96.3531 193.713 96.6437 193.919 96.9993C194.126 97.35 194.284 97.7704 194.395 98.2605C194.505 98.7457 194.561 99.3031 194.561 99.9325ZM192.478 102.022L192.478 99.6514C192.478 99.2718 192.456 98.9403 192.413 98.6569C192.375 98.3734 192.315 98.1332 192.233 97.9362C192.151 97.7344 192.05 97.571 191.93 97.4461C191.81 97.3212 191.673 97.2299 191.519 97.1722C191.366 97.1146 191.195 97.0858 191.008 97.0858C190.772 97.0858 190.563 97.1314 190.381 97.2227C190.203 97.314 190.052 97.4605 189.927 97.6623C189.802 97.8593 189.706 98.1235 189.638 98.4551C189.576 98.7818 189.545 99.1806 189.545 99.6514L189.545 102.022C189.545 102.402 189.564 102.736 189.602 103.024C189.646 103.313 189.708 103.56 189.79 103.767C189.876 103.968 189.977 104.134 190.092 104.264C190.213 104.389 190.349 104.48 190.503 104.538C190.662 104.595 190.835 104.624 191.022 104.624C191.253 104.624 191.457 104.579 191.635 104.487C191.817 104.391 191.971 104.242 192.096 104.04C192.226 103.834 192.322 103.565 192.384 103.233C192.447 102.902 192.478 102.498 192.478 102.022ZM203.036 99.9325L203.036 101.749C203.036 102.537 202.952 103.216 202.784 103.788C202.616 104.355 202.373 104.821 202.056 105.186C201.744 105.547 201.371 105.813 200.939 105.986C200.506 106.159 200.026 106.246 199.497 106.246C199.075 106.246 198.681 106.193 198.315 106.087C197.95 105.977 197.621 105.806 197.328 105.575C197.04 105.345 196.79 105.054 196.579 104.703C196.372 104.348 196.213 103.925 196.103 103.435C195.992 102.945 195.937 102.383 195.937 101.749L195.937 99.9325C195.937 99.1445 196.021 98.4695 196.189 97.9073C196.362 97.3404 196.605 96.8768 196.917 96.5164C197.234 96.1561 197.609 95.8918 198.042 95.7237C198.474 95.5507 198.954 95.4642 199.483 95.4642C199.906 95.4642 200.297 95.5195 200.658 95.63C201.023 95.7357 201.352 95.9014 201.645 96.1272C201.938 96.3531 202.188 96.6437 202.395 96.9993C202.601 97.35 202.76 97.7704 202.87 98.2605C202.981 98.7457 203.036 99.3031 203.036 99.9325ZM200.953 102.022L200.953 99.6514C200.953 99.2718 200.932 98.9403 200.888 98.6569C200.85 98.3734 200.79 98.1332 200.708 97.9362C200.626 97.7344 200.526 97.571 200.405 97.4461C200.285 97.3212 200.148 97.2299 199.995 97.1722C199.841 97.1146 199.67 97.0858 199.483 97.0858C199.248 97.0858 199.039 97.1314 198.856 97.2227C198.678 97.314 198.527 97.4605 198.402 97.6623C198.277 97.8593 198.181 98.1235 198.114 98.4551C198.051 98.7818 198.02 99.1806 198.02 99.6514L198.02 102.022C198.02 102.402 198.039 102.736 198.078 103.024C198.121 103.313 198.183 103.56 198.265 103.767C198.352 103.968 198.452 104.134 198.568 104.264C198.688 104.389 198.825 104.48 198.979 104.538C199.137 104.595 199.31 104.624 199.497 104.624C199.728 104.624 199.932 104.579 200.11 104.487C200.293 104.391 200.446 104.242 200.571 104.04C200.701 103.834 200.797 103.565 200.859 103.233C200.922 102.902 200.953 102.498 200.953 102.022Z" fill="white"/>
<path d="M170.439 144.911L171.072 146.218L172.52 146.411L171.458 147.446L171.689 148.888L170.4 148.221L169.095 148.918L169.36 147.471L168.323 146.461L169.775 146.233L170.439 144.911Z" fill="white"/>
<path d="M177.849 144.943L178.482 146.249L179.929 146.442L178.868 147.478L179.099 148.919L177.81 148.252L176.505 148.95L176.77 147.502L175.733 146.492L177.185 146.264L177.849 144.943Z" fill="white"/>
<path d="M185.258 144.982L185.891 146.288L187.339 146.482L186.277 147.517L186.508 148.958L185.219 148.291L183.914 148.989L184.179 147.541L183.142 146.531L184.594 146.303L185.258 144.982Z" fill="white"/>
<path d="M192.668 145.013L193.301 146.319L194.748 146.513L193.687 147.548L193.918 148.989L192.629 148.323L191.324 149.02L191.589 147.573L190.551 146.562L192.004 146.335L192.668 145.013Z" fill="white"/>
<path d="M201.945 146.988L201.056 146.771L201.422 143.379L205.059 143.379L205.059 144.324L202.349 144.324L202.163 145.978C202.268 145.917 202.413 145.856 202.599 145.798C202.784 145.736 202.996 145.705 203.233 145.705C203.552 145.705 203.836 145.758 204.086 145.863C204.339 145.965 204.554 146.114 204.73 146.312C204.906 146.507 205.04 146.744 205.133 147.026C205.226 147.304 205.272 147.617 205.272 147.966C205.272 148.278 205.226 148.57 205.133 148.842C205.043 149.113 204.907 149.353 204.725 149.56C204.543 149.767 204.313 149.929 204.035 150.046C203.76 150.161 203.434 150.218 203.057 150.218C202.776 150.218 202.506 150.178 202.247 150.097C201.99 150.014 201.76 149.892 201.556 149.731C201.352 149.567 201.189 149.367 201.065 149.129C200.942 148.888 200.871 148.612 200.852 148.3L201.945 148.3C201.973 148.519 202.033 148.706 202.126 148.86C202.222 149.012 202.349 149.127 202.506 149.208C202.664 149.288 202.846 149.328 203.053 149.328C203.241 149.328 203.403 149.296 203.539 149.231C203.675 149.163 203.788 149.067 203.877 148.944C203.97 148.817 204.038 148.669 204.081 148.499C204.128 148.329 204.151 148.141 204.151 147.934C204.151 147.736 204.125 147.555 204.072 147.392C204.023 147.228 203.947 147.086 203.845 146.965C203.746 146.845 203.621 146.752 203.47 146.687C203.318 146.619 203.144 146.585 202.946 146.585C202.681 146.585 202.477 146.624 202.335 146.701C202.196 146.778 202.066 146.874 201.945 146.988ZM210.563 146.187L210.563 147.29C210.563 147.818 210.51 148.269 210.405 148.642C210.303 149.013 210.155 149.314 209.961 149.546C209.766 149.778 209.533 149.947 209.261 150.056C208.992 150.164 208.691 150.218 208.358 150.218C208.092 150.218 207.845 150.184 207.616 150.116C207.391 150.048 207.187 149.941 207.005 149.796C206.822 149.651 206.666 149.464 206.537 149.235C206.41 149.004 206.311 148.727 206.24 148.406C206.172 148.085 206.138 147.713 206.138 147.29L206.138 146.187C206.138 145.656 206.191 145.208 206.296 144.843C206.401 144.476 206.551 144.178 206.745 143.949C206.94 143.718 207.171 143.549 207.44 143.444C207.712 143.339 208.015 143.287 208.348 143.287C208.617 143.287 208.864 143.321 209.09 143.389C209.318 143.453 209.522 143.557 209.701 143.699C209.883 143.841 210.038 144.026 210.164 144.255C210.294 144.48 210.393 144.754 210.461 145.075C210.529 145.393 210.563 145.764 210.563 146.187ZM209.446 147.447L209.446 146.02C209.446 145.751 209.431 145.515 209.4 145.311C209.369 145.104 209.323 144.93 209.261 144.788C209.202 144.643 209.128 144.525 209.039 144.436C208.949 144.343 208.847 144.277 208.733 144.236C208.619 144.193 208.49 144.172 208.348 144.172C208.175 144.172 208.021 144.206 207.885 144.274C207.749 144.338 207.635 144.443 207.542 144.589C207.449 144.734 207.378 144.925 207.329 145.163C207.283 145.398 207.259 145.684 207.259 146.02L207.259 147.447C207.259 147.719 207.275 147.958 207.306 148.165C207.337 148.372 207.383 148.55 207.445 148.698C207.507 148.843 207.581 148.964 207.667 149.059C207.757 149.152 207.859 149.22 207.973 149.263C208.09 149.307 208.219 149.328 208.358 149.328C208.534 149.328 208.69 149.294 208.825 149.226C208.961 149.158 209.076 149.05 209.168 148.902C209.261 148.751 209.33 148.554 209.377 148.313C209.423 148.073 209.446 147.784 209.446 147.447ZM215.97 148.286C215.97 148.706 215.872 149.059 215.678 149.347C215.483 149.634 215.217 149.852 214.881 150C214.547 150.145 214.17 150.218 213.75 150.218C213.33 150.218 212.952 150.145 212.615 150C212.279 149.852 212.013 149.634 211.818 149.347C211.624 149.059 211.526 148.706 211.526 148.286C211.526 148.008 211.581 147.756 211.689 147.531C211.797 147.302 211.95 147.106 212.147 146.942C212.348 146.775 212.583 146.647 212.852 146.558C213.123 146.468 213.42 146.423 213.741 146.423C214.167 146.423 214.549 146.502 214.885 146.66C215.222 146.817 215.486 147.035 215.678 147.313C215.872 147.591 215.97 147.915 215.97 148.286ZM214.848 148.23C214.848 148.005 214.802 147.807 214.709 147.637C214.617 147.467 214.487 147.336 214.32 147.243C214.153 147.151 213.96 147.104 213.741 147.104C213.519 147.104 213.326 147.151 213.162 147.243C212.998 147.336 212.87 147.467 212.777 147.637C212.688 147.807 212.643 148.005 212.643 148.23C212.643 148.459 212.688 148.656 212.777 148.823C212.867 148.987 212.995 149.112 213.162 149.198C213.329 149.285 213.525 149.328 213.75 149.328C213.976 149.328 214.17 149.285 214.334 149.198C214.498 149.112 214.624 148.987 214.714 148.823C214.804 148.656 214.848 148.459 214.848 148.23ZM215.817 145.154C215.817 145.49 215.727 145.79 215.548 146.053C215.372 146.315 215.128 146.522 214.816 146.673C214.504 146.822 214.149 146.896 213.75 146.896C213.349 146.896 212.991 146.822 212.675 146.673C212.364 146.522 212.118 146.315 211.939 146.053C211.763 145.79 211.675 145.49 211.675 145.154C211.675 144.752 211.763 144.414 211.939 144.139C212.118 143.861 212.364 143.65 212.675 143.504C212.987 143.359 213.344 143.287 213.746 143.287C214.147 143.287 214.504 143.359 214.816 143.504C215.128 143.65 215.372 143.861 215.548 144.139C215.727 144.414 215.817 144.752 215.817 145.154ZM214.7 145.191C214.7 144.99 214.66 144.814 214.58 144.663C214.502 144.508 214.393 144.388 214.251 144.301C214.109 144.215 213.94 144.172 213.746 144.172C213.551 144.172 213.383 144.213 213.241 144.297C213.099 144.38 212.989 144.497 212.912 144.649C212.835 144.8 212.796 144.981 212.796 145.191C212.796 145.398 212.835 145.578 212.912 145.733C212.989 145.884 213.099 146.003 213.241 146.09C213.386 146.176 213.556 146.219 213.75 146.219C213.945 146.219 214.113 146.176 214.255 146.09C214.397 146.003 214.507 145.884 214.584 145.733C214.661 145.578 214.7 145.398 214.7 145.191ZM221.348 146.187L221.348 147.29C221.348 147.818 221.296 148.269 221.191 148.642C221.089 149.013 220.941 149.314 220.746 149.546C220.552 149.778 220.318 149.947 220.047 150.056C219.778 150.164 219.477 150.218 219.143 150.218C218.877 150.218 218.63 150.184 218.402 150.116C218.176 150.048 217.973 149.941 217.79 149.796C217.608 149.651 217.452 149.464 217.322 149.235C217.196 149.004 217.097 148.727 217.026 148.406C216.958 148.085 216.924 147.713 216.924 147.29L216.924 146.187C216.924 145.656 216.976 145.208 217.081 144.843C217.186 144.476 217.336 144.178 217.531 143.949C217.725 143.718 217.957 143.549 218.226 143.444C218.498 143.339 218.8 143.287 219.134 143.287C219.403 143.287 219.65 143.321 219.875 143.389C220.104 143.453 220.308 143.557 220.487 143.699C220.669 143.841 220.823 144.026 220.95 144.255C221.08 144.48 221.179 144.754 221.247 145.075C221.314 145.393 221.348 145.764 221.348 146.187ZM220.232 147.447L220.232 146.02C220.232 145.751 220.216 145.515 220.186 145.311C220.155 145.104 220.108 144.93 220.047 144.788C219.988 144.643 219.914 144.525 219.824 144.436C219.735 144.343 219.633 144.277 219.518 144.236C219.404 144.193 219.276 144.172 219.134 144.172C218.961 144.172 218.806 144.206 218.671 144.274C218.535 144.338 218.42 144.443 218.328 144.589C218.235 144.734 218.164 144.925 218.115 145.163C218.068 145.398 218.045 145.684 218.045 146.02L218.045 147.447C218.045 147.719 218.061 147.958 218.091 148.165C218.122 148.372 218.169 148.55 218.23 148.698C218.292 148.843 218.366 148.964 218.453 149.059C218.542 149.152 218.644 149.22 218.759 149.263C218.876 149.307 219.004 149.328 219.143 149.328C219.319 149.328 219.475 149.294 219.611 149.226C219.747 149.158 219.861 149.05 219.954 148.902C220.047 148.751 220.116 148.554 220.162 148.313C220.209 148.073 220.232 147.784 220.232 147.447Z" fill="white"/>
<path d="M179.238 173.47C179.238 174.411 179.019 175.203 178.579 175.848C178.14 176.487 177.536 176.971 176.767 177.3C176.006 177.623 175.141 177.784 174.173 177.784C173.205 177.784 172.337 177.623 171.568 177.3C170.799 176.971 170.192 176.487 169.746 175.848C169.3 175.203 169.077 174.411 169.077 173.47C169.077 172.839 169.204 172.269 169.458 171.761C169.712 171.246 170.065 170.807 170.518 170.443C170.978 170.073 171.517 169.791 172.134 169.599C172.752 169.4 173.425 169.301 174.152 169.301C175.127 169.301 175.999 169.472 176.767 169.815C177.536 170.158 178.14 170.642 178.579 171.267C179.019 171.892 179.238 172.626 179.238 173.47ZM176.253 173.275C176.253 172.815 176.163 172.42 175.985 172.091C175.813 171.754 175.57 171.497 175.254 171.318C174.938 171.14 174.571 171.051 174.152 171.051C173.734 171.051 173.366 171.14 173.051 171.318C172.735 171.497 172.488 171.754 172.309 172.091C172.138 172.42 172.052 172.815 172.052 173.275C172.052 173.728 172.138 174.119 172.309 174.448C172.488 174.778 172.735 175.032 173.051 175.21C173.373 175.382 173.747 175.468 174.173 175.468C174.599 175.468 174.966 175.382 175.275 175.21C175.59 175.032 175.831 174.778 175.995 174.448C176.167 174.119 176.253 173.728 176.253 173.275ZM178.919 166.562C178.919 167.324 178.717 168 178.312 168.59C177.907 169.174 177.344 169.63 176.623 169.959C175.909 170.289 175.093 170.454 174.173 170.454C173.246 170.454 172.423 170.289 171.702 169.959C170.981 169.63 170.419 169.174 170.014 168.59C169.609 168 169.406 167.324 169.406 166.562C169.406 165.656 169.609 164.894 170.014 164.276C170.425 163.652 170.988 163.178 171.702 162.855C172.423 162.533 173.239 162.372 174.152 162.372C175.079 162.372 175.899 162.533 176.613 162.855C177.334 163.178 177.897 163.652 178.301 164.276C178.713 164.894 178.919 165.656 178.919 166.562ZM175.954 166.696C175.954 166.291 175.882 165.941 175.738 165.646C175.594 165.344 175.388 165.11 175.12 164.945C174.859 164.781 174.537 164.698 174.152 164.698C173.782 164.698 173.463 164.777 173.195 164.935C172.934 165.093 172.732 165.323 172.587 165.625C172.45 165.92 172.382 166.277 172.382 166.696C172.382 167.101 172.45 167.458 172.587 167.766C172.732 168.068 172.937 168.305 173.205 168.477C173.473 168.648 173.795 168.734 174.173 168.734C174.55 168.734 174.87 168.648 175.13 168.477C175.398 168.305 175.601 168.068 175.738 167.766C175.882 167.458 175.954 167.101 175.954 166.696ZM184.18 175.076L184.17 177.063C184.17 177.825 183.978 178.594 183.593 179.37C183.216 180.145 182.735 180.78 182.152 181.274L180.608 180.481C180.779 180.166 180.947 179.85 181.112 179.534C181.277 179.219 181.414 178.872 181.524 178.494C181.634 178.117 181.689 177.688 181.689 177.207L181.689 175.076L184.18 175.076ZM196.525 168.765L196.525 171.36C196.525 172.485 196.404 173.456 196.164 174.273C195.924 175.083 195.577 175.749 195.124 176.271C194.678 176.785 194.146 177.166 193.529 177.413C192.911 177.66 192.224 177.784 191.469 177.784C190.865 177.784 190.303 177.709 189.781 177.558C189.259 177.4 188.789 177.156 188.371 176.827C187.959 176.497 187.602 176.082 187.3 175.581C187.005 175.073 186.778 174.469 186.62 173.769C186.462 173.069 186.383 172.266 186.383 171.36L186.383 168.765C186.383 167.639 186.504 166.675 186.744 165.872C186.991 165.062 187.338 164.4 187.784 163.885C188.237 163.37 188.772 162.993 189.39 162.753C190.008 162.505 190.694 162.382 191.449 162.382C192.053 162.382 192.612 162.461 193.127 162.619C193.649 162.77 194.119 163.007 194.538 163.329C194.956 163.652 195.313 164.067 195.608 164.575C195.903 165.076 196.13 165.676 196.288 166.377C196.446 167.07 196.525 167.866 196.525 168.765ZM193.549 171.751L193.549 168.364C193.549 167.821 193.518 167.348 193.457 166.943C193.402 166.538 193.316 166.195 193.199 165.913C193.082 165.625 192.938 165.392 192.767 165.213C192.595 165.035 192.4 164.904 192.18 164.822C191.96 164.74 191.717 164.698 191.449 164.698C191.113 164.698 190.814 164.764 190.553 164.894C190.299 165.024 190.083 165.234 189.905 165.522C189.726 165.803 189.589 166.181 189.493 166.655C189.404 167.121 189.359 167.691 189.359 168.364L189.359 171.751C189.359 172.293 189.386 172.77 189.441 173.182C189.503 173.594 189.592 173.947 189.709 174.242C189.832 174.531 189.977 174.767 190.141 174.953C190.313 175.131 190.509 175.262 190.728 175.344C190.955 175.426 191.202 175.468 191.469 175.468C191.799 175.468 192.091 175.402 192.345 175.272C192.605 175.135 192.825 174.922 193.004 174.634C193.189 174.338 193.326 173.954 193.415 173.48C193.505 173.007 193.549 172.43 193.549 171.751ZM208.632 168.765L208.632 171.36C208.632 172.485 208.512 173.456 208.272 174.273C208.032 175.083 207.685 175.749 207.232 176.271C206.786 176.785 206.254 177.166 205.636 177.413C205.018 177.66 204.332 177.784 203.577 177.784C202.973 177.784 202.41 177.709 201.889 177.558C201.367 177.4 200.897 177.156 200.478 176.827C200.066 176.497 199.709 176.082 199.407 175.581C199.112 175.073 198.886 174.469 198.728 173.769C198.57 173.069 198.491 172.266 198.491 171.36L198.491 168.765C198.491 167.639 198.611 166.675 198.851 165.872C199.098 165.062 199.445 164.4 199.891 163.885C200.344 163.37 200.88 162.993 201.497 162.753C202.115 162.505 202.801 162.382 203.556 162.382C204.16 162.382 204.72 162.461 205.235 162.619C205.756 162.77 206.226 163.007 206.645 163.329C207.064 163.652 207.421 164.067 207.716 164.575C208.011 165.076 208.237 165.676 208.395 166.377C208.553 167.07 208.632 167.866 208.632 168.765ZM205.657 171.751L205.657 168.364C205.657 167.821 205.626 167.348 205.564 166.943C205.509 166.538 205.423 166.195 205.307 165.913C205.19 165.625 205.046 165.392 204.874 165.213C204.703 165.035 204.507 164.904 204.287 164.822C204.068 164.74 203.824 164.698 203.556 164.698C203.22 164.698 202.922 164.764 202.661 164.894C202.407 165.024 202.191 165.234 202.012 165.522C201.834 165.803 201.696 166.181 201.6 166.655C201.511 167.121 201.466 167.691 201.466 168.364L201.466 171.751C201.466 172.293 201.494 172.77 201.549 173.182C201.611 173.594 201.7 173.947 201.816 174.242C201.94 174.531 202.084 174.767 202.249 174.953C202.42 175.131 202.616 175.262 202.836 175.344C203.062 175.426 203.309 175.468 203.577 175.468C203.906 175.468 204.198 175.402 204.452 175.272C204.713 175.135 204.933 174.922 205.111 174.634C205.296 174.338 205.434 173.954 205.523 173.48C205.612 173.007 205.657 172.43 205.657 171.751ZM220.74 168.765L220.74 171.36C220.74 172.485 220.62 173.456 220.379 174.273C220.139 175.083 219.793 175.749 219.34 176.271C218.893 176.785 218.361 177.166 217.744 177.413C217.126 177.66 216.44 177.784 215.685 177.784C215.081 177.784 214.518 177.709 213.996 177.558C213.474 177.4 213.004 177.156 212.586 176.827C212.174 176.497 211.817 176.082 211.515 175.581C211.22 175.073 210.993 174.469 210.835 173.769C210.678 173.069 210.599 172.266 210.599 171.36L210.599 168.765C210.599 167.639 210.719 166.675 210.959 165.872C211.206 165.062 211.553 164.4 211.999 163.885C212.452 163.37 212.987 162.993 213.605 162.753C214.223 162.505 214.909 162.382 215.664 162.382C216.268 162.382 216.827 162.461 217.342 162.619C217.864 162.77 218.334 163.007 218.753 163.329C219.171 163.652 219.528 164.067 219.823 164.575C220.119 165.076 220.345 165.676 220.503 166.377C220.661 167.07 220.74 167.866 220.74 168.765ZM217.764 171.751L217.764 168.364C217.764 167.821 217.733 167.348 217.672 166.943C217.617 166.538 217.531 166.195 217.414 165.913C217.298 165.625 217.153 165.392 216.982 165.213C216.81 165.035 216.615 164.904 216.395 164.822C216.175 164.74 215.932 164.698 215.664 164.698C215.328 164.698 215.029 164.764 214.768 164.894C214.514 165.024 214.298 165.234 214.12 165.522C213.941 165.803 213.804 166.181 213.708 166.655C213.619 167.121 213.574 167.691 213.574 168.364L213.574 171.751C213.574 172.293 213.601 172.77 213.656 173.182C213.718 173.594 213.807 173.947 213.924 174.242C214.048 174.531 214.192 174.767 214.356 174.953C214.528 175.131 214.724 175.262 214.943 175.344C215.17 175.426 215.417 175.468 215.685 175.468C216.014 175.468 216.306 175.402 216.56 175.272C216.821 175.135 217.04 174.922 217.219 174.634C217.404 174.338 217.541 173.954 217.63 173.481C217.72 173.007 217.764 172.43 217.764 171.751Z" fill="white"/>
<g filter="url(#filter2_d_1850_116524)">
<rect x="57" y="132" width="101" height="41" rx="8" fill="white"/>
</g>
<path d="M91.616 156L90.916 154.012H86.842L86.142 156H84.476L87.962 146.256H89.81L93.296 156H91.616ZM87.276 152.766H90.482L88.886 148.188L87.276 152.766ZM99.7537 154.04C100.22 153.564 100.454 152.929 100.454 152.136C100.454 151.343 100.22 150.713 99.7537 150.246C99.2964 149.779 98.7504 149.546 98.1157 149.546C97.4811 149.546 96.9304 149.775 96.4637 150.232C96.0064 150.689 95.7777 151.315 95.7777 152.108C95.7777 152.901 96.0064 153.541 96.4637 154.026C96.9304 154.502 97.4811 154.74 98.1157 154.74C98.7504 154.74 99.2964 154.507 99.7537 154.04ZM97.7797 156.126C96.7531 156.126 95.8897 155.753 95.1897 155.006C94.4897 154.25 94.1397 153.289 94.1397 152.122C94.1397 150.946 94.4851 149.994 95.1757 149.266C95.8757 148.529 96.7437 148.16 97.7797 148.16C98.3864 148.16 98.9184 148.3 99.3757 148.58C99.8424 148.851 100.202 149.21 100.454 149.658V145.64H102.064V156H100.454V154.558C100.192 155.034 99.8331 155.417 99.3757 155.706C98.9184 155.986 98.3864 156.126 97.7797 156.126ZM109.102 154.04C109.569 153.564 109.802 152.929 109.802 152.136C109.802 151.343 109.569 150.713 109.102 150.246C108.645 149.779 108.099 149.546 107.464 149.546C106.829 149.546 106.279 149.775 105.812 150.232C105.355 150.689 105.126 151.315 105.126 152.108C105.126 152.901 105.355 153.541 105.812 154.026C106.279 154.502 106.829 154.74 107.464 154.74C108.099 154.74 108.645 154.507 109.102 154.04ZM107.128 156.126C106.101 156.126 105.238 155.753 104.538 155.006C103.838 154.25 103.488 153.289 103.488 152.122C103.488 150.946 103.833 149.994 104.524 149.266C105.224 148.529 106.092 148.16 107.128 148.16C107.735 148.16 108.267 148.3 108.724 148.58C109.191 148.851 109.55 149.21 109.802 149.658V145.64H111.412V156H109.802V154.558C109.541 155.034 109.181 155.417 108.724 155.706C108.267 155.986 107.735 156.126 107.128 156.126ZM123.824 146.256H125.42V156H123.824L119.022 148.734V156H117.426V146.256H119.022L123.824 153.508V146.256ZM130.623 156.126C129.503 156.126 128.593 155.762 127.893 155.034C127.193 154.306 126.843 153.34 126.843 152.136C126.843 150.932 127.198 149.971 127.907 149.252C128.617 148.524 129.531 148.16 130.651 148.16C131.781 148.16 132.695 148.51 133.395 149.21C134.095 149.901 134.445 150.806 134.445 151.926C134.445 152.197 134.427 152.449 134.389 152.682H128.481C128.519 153.326 128.733 153.839 129.125 154.222C129.527 154.595 130.026 154.782 130.623 154.782C131.491 154.782 132.103 154.423 132.457 153.704H134.179C133.946 154.413 133.521 154.997 132.905 155.454C132.289 155.902 131.529 156.126 130.623 156.126ZM132.779 151.59C132.77 150.955 132.56 150.451 132.149 150.078C131.739 149.695 131.239 149.504 130.651 149.504C130.063 149.504 129.569 149.695 129.167 150.078C128.775 150.451 128.551 150.955 128.495 151.59H132.779ZM144.668 148.286H146.236L143.842 156H142.162L140.608 150.302L139.054 156H137.374L134.966 148.286H136.59L138.2 154.488L139.838 148.286H141.504L143.072 154.46L144.668 148.286Z" fill="#515151"/>
<rect x="69" y="152" width="9" height="1.5" fill="#515151"/>
<rect x="74.5" y="148" width="9" height="1.5" transform="rotate(90 74.5 148)" fill="#515151"/>
<defs>
<filter id="filter0_f_1850_116524" x="0.573639" y="0.573639" width="350.853" height="359.853" filterUnits="userSpaceOnUse" color-interpolation-filters="sRGB">
<feFlood flood-opacity="0" result="BackgroundImageFix"/>
<feBlend mode="normal" in="SourceGraphic" in2="BackgroundImageFix" result="shape"/>
<feGaussianBlur stdDeviation="52.7132" result="effect1_foregroundBlur_1850_116524"/>
</filter>
<filter id="filter1_b_1850_116524" x="88.5866" y="40.1164" width="105.83" height="105.603" filterUnits="userSpaceOnUse" color-interpolation-filters="sRGB">
<feFlood flood-opacity="0" result="BackgroundImageFix"/>
<feGaussianBlur in="BackgroundImageFix" stdDeviation="18.4496"/>
<feComposite in2="SourceAlpha" operator="in" result="effect1_backgroundBlur_1850_116524"/>
<feBlend mode="normal" in="SourceGraphic" in2="effect1_backgroundBlur_1850_116524" result="shape"/>
</filter>
<filter id="filter2_d_1850_116524" x="47" y="122" width="181" height="121" filterUnits="userSpaceOnUse" color-interpolation-filters="sRGB">
<feFlood flood-opacity="0" result="BackgroundImageFix"/>
<feColorMatrix in="SourceAlpha" type="matrix" values="0 0 0 0 0 0 0 0 0 0 0 0 0 0 0 0 0 0 127 0" result="hardAlpha"/>
<feOffset dx="30" dy="30"/>
<feGaussianBlur stdDeviation="20"/>
<feColorMatrix type="matrix" values="0 0 0 0 0 0 0 0 0 0 0 0 0 0 0 0 0 0 0.04 0"/>
<feBlend mode="normal" in2="BackgroundImageFix" result="effect1_dropShadow_1850_116524"/>
<feBlend mode="normal" in="SourceGraphic" in2="effect1_dropShadow_1850_116524" result="shape"/>
</filter>
</defs>
</svg>
