<svg width="30" height="31" viewBox="0 0 30 31" fill="none" xmlns="http://www.w3.org/2000/svg">
<g clip-path="url(#clip0_917_22326)">
<path fill-rule="evenodd" clip-rule="evenodd" d="M12.7362 7.37916C12.8509 7.16683 13.0215 6.98988 13.2295 6.86739C13.4374 6.74491 13.6749 6.68155 13.9162 6.68416L16.5412 6.72416C16.7819 6.72944 17.0166 6.80018 17.2201 6.9288C17.4236 7.05741 17.5882 7.23904 17.6962 7.45416L18.7462 9.56416L20.6012 9.40666C20.8387 9.3878 21.077 9.43335 21.2908 9.5385C21.5046 9.64365 21.6861 9.80452 21.8162 10.0042L23.1412 12.0592C23.2835 12.2805 23.356 12.5394 23.3493 12.8024C23.3427 13.0654 23.2571 13.3204 23.1037 13.5342L22.1287 14.8992L23.1662 16.2692C23.4887 16.6942 23.5212 17.2742 23.2462 17.7342L21.9962 19.8292C21.872 20.0346 21.6942 20.2025 21.482 20.3148C21.2697 20.4271 21.031 20.4796 20.7912 20.4667L18.8287 20.3467L17.6212 22.8192C17.5119 23.039 17.3437 23.2241 17.1353 23.3538C16.927 23.4836 16.6867 23.553 16.4412 23.5542H13.7362C13.4912 23.5525 13.2514 23.4829 13.0435 23.3532C12.8356 23.2234 12.6678 23.0386 12.5587 22.8192L11.4237 20.4967L9.32371 20.6867C9.08164 20.707 8.83863 20.6604 8.62127 20.5519C8.4039 20.4434 8.22053 20.2773 8.09121 20.0717L6.76371 17.9342C6.62291 17.7073 6.55466 17.4429 6.56806 17.1762C6.58146 16.9095 6.67588 16.6533 6.83871 16.4417L8.03871 14.8792L7.07371 13.5317C6.92072 13.3176 6.83558 13.0626 6.82934 12.7995C6.8231 12.5365 6.89604 12.2777 7.03871 12.0567L8.36371 10.0017C8.49359 9.80241 8.6747 9.64179 8.88804 9.53666C9.10138 9.43153 9.33909 9.38576 9.57621 9.40416L11.5687 9.57416L12.7362 7.37916ZM14.2312 8.56416L13.0512 10.7842C12.9294 11.0102 12.7445 11.1961 12.519 11.319C12.2936 11.442 12.0372 11.4967 11.7812 11.4767L9.75621 11.3042L8.82121 12.7542L9.80621 14.1292C9.97007 14.3579 10.0561 14.6332 10.0516 14.9145C10.0471 15.1959 9.95231 15.4683 9.78121 15.6917L8.56121 17.2767L9.50121 18.7917L11.6412 18.5967C11.9064 18.5721 12.1727 18.6288 12.4049 18.7591C12.6371 18.8895 12.8242 19.0875 12.9412 19.3267L14.0887 21.6792H16.0887L17.3087 19.1867C17.424 18.9552 17.6044 18.7625 17.8279 18.6323C18.0513 18.5022 18.308 18.4402 18.5662 18.4542L20.5612 18.5742L21.4412 17.0992L20.3812 15.6992C20.2126 15.4759 20.1197 15.2047 20.1161 14.9249C20.1125 14.6452 20.1984 14.3716 20.3612 14.1442L21.3587 12.7542L20.4237 11.3042L18.5237 11.4642C18.2611 11.4865 17.9979 11.4294 17.7682 11.3C17.5386 11.1707 17.3532 10.9753 17.2362 10.7392L16.1687 8.59416L14.2312 8.56416Z" fill="#222222"/>
<path d="M25.7036 18.6217C24.9452 20.9628 23.4401 22.9907 21.419 24.3945C19.3978 25.7984 16.972 26.5008 14.5135 26.3941C12.0549 26.2875 9.69911 25.3776 7.80713 23.8039C5.91515 22.2303 4.59135 20.0797 4.03859 17.6817L6.16609 17.2617L2.11609 13.0717L-0.00390625 18.4892L2.23859 18.0492C2.86443 20.8642 4.39994 23.3947 6.60782 25.2497C8.8157 27.1047 11.5731 28.181 14.4538 28.3121C17.3345 28.4433 20.1783 27.6221 22.5456 25.9754C24.9129 24.3287 26.672 21.9481 27.5511 19.2017L25.7036 18.6217ZM27.7936 12.2717C27.1674 9.45678 25.6317 6.92646 23.4236 5.0717C21.2156 3.21694 18.4581 2.14099 15.5774 2.01011C12.6967 1.87924 9.85308 2.70072 7.48593 4.34762C5.11879 5.99451 3.35991 8.37515 2.48109 11.1217L4.26359 11.7017C5.02173 9.3605 6.5266 7.3325 8.54759 5.92844C10.5686 4.52437 12.9942 3.82169 15.4528 3.92808C17.9113 4.03447 20.2672 4.94405 22.1593 6.51745C24.0515 8.09085 25.3755 10.2413 25.9286 12.6392L23.8011 13.0617L27.8511 17.2417L29.9961 11.8317L27.7936 12.2717Z" fill="#222222"/>
<path fill-rule="evenodd" clip-rule="evenodd" d="M15 14.1841C14.7514 14.1841 14.5129 14.2829 14.3371 14.4587C14.1613 14.6345 14.0625 14.8729 14.0625 15.1216C14.0625 15.3702 14.1613 15.6087 14.3371 15.7845C14.5129 15.9603 14.7514 16.0591 15 16.0591C15.2486 16.0591 15.4871 15.9603 15.6629 15.7845C15.8387 15.6087 15.9375 15.3702 15.9375 15.1216C15.9375 14.8729 15.8387 14.6345 15.6629 14.4587C15.4871 14.2829 15.2486 14.1841 15 14.1841ZM12.1875 15.1216C12.1875 14.3757 12.4838 13.6603 13.0113 13.1328C13.5387 12.6054 14.2541 12.3091 15 12.3091C15.7459 12.3091 16.4613 12.6054 16.9887 13.1328C17.5162 13.6603 17.8125 14.3757 17.8125 15.1216C17.8125 15.8675 17.5162 16.5829 16.9887 17.1103C16.4613 17.6378 15.7459 17.9341 15 17.9341C14.2541 17.9341 13.5387 17.6378 13.0113 17.1103C12.4838 16.5829 12.1875 15.8675 12.1875 15.1216Z" fill="#222222"/>
</g>
<defs>
<clipPath id="clip0_917_22326">
<rect width="30" height="30" fill="white" transform="translate(0 0.121582)"/>
</clipPath>
</defs>
</svg>
