<svg width="30" height="31" viewBox="0 0 30 31" fill="none" xmlns="http://www.w3.org/2000/svg">
<path d="M14.9976 2.51196C11.4351 2.51196 9.12631 5.03571 6.39506 5.95571C5.28506 6.33071 4.72881 6.51696 4.50506 6.78071C4.28006 7.04321 4.21381 7.42946 4.08256 8.19946C2.67381 16.4445 5.75256 24.067 13.0938 27.0345C13.8826 27.3532 14.2776 27.512 15.0013 27.512C15.7251 27.512 16.1213 27.352 16.9101 27.0332C24.2513 24.067 27.3263 16.4445 25.9176 8.19946C25.7851 7.42946 25.7201 7.04321 25.4951 6.77946C25.2701 6.51571 24.7151 6.32946 23.6051 5.95571C20.8726 5.03571 18.5601 2.51196 14.9976 2.51196Z" stroke="white" stroke-width="1.5" stroke-linecap="round" stroke-linejoin="round"/>
<path d="M13.0619 8.13818V10.6119M8.70312 12.5132H11.2681M18.7319 12.5132H21.2969M18.7319 16.2307H21.2969M8.70312 16.2307H11.2681M13.0619 18.1619V20.6369M16.8431 18.1619V20.6369M16.8306 8.13818V10.6119M12.5181 18.0982H17.4819C17.8134 18.0982 18.1313 17.9665 18.3658 17.7321C18.6002 17.4976 18.7319 17.1797 18.7319 16.8482V11.8619C18.7319 11.5304 18.6002 11.2125 18.3658 10.978C18.1313 10.7436 17.8134 10.6119 17.4819 10.6119H12.5181C12.1866 10.6119 11.8687 10.7436 11.6342 10.978C11.3998 11.2125 11.2681 11.5304 11.2681 11.8619V16.8482C11.2681 17.1797 11.3998 17.4976 11.6342 17.7321C11.8687 17.9665 12.1866 18.0982 12.5181 18.0982Z" stroke="white" stroke-width="1.5" stroke-linecap="round" stroke-linejoin="round"/>
</svg>
