<svg width="30" height="31" viewBox="0 0 30 31" fill="none" xmlns="http://www.w3.org/2000/svg">
<path d="M15 26.3716C11.8542 26.3716 9.19292 25.8874 7.01625 24.9191C4.83958 23.9507 3.75083 22.7682 3.75 21.3716V8.87158C3.75 7.49658 4.84917 6.3195 7.0475 5.34033C9.24583 4.36117 11.8967 3.87158 15 3.87158C18.1033 3.87158 20.7546 4.36117 22.9538 5.34033C25.1529 6.3195 26.2517 7.49658 26.25 8.87158V21.3716C26.25 22.7674 25.1612 23.9499 22.9837 24.9191C20.8062 25.8882 18.145 26.3724 15 26.3716ZM15 11.4028C16.8542 11.4028 18.7188 11.137 20.5938 10.6053C22.4688 10.0737 23.5208 9.50617 23.75 8.90283C23.5208 8.29867 22.4742 7.72575 20.61 7.18408C18.7458 6.64242 16.8758 6.37158 15 6.37158C13.1042 6.37158 11.245 6.63742 9.4225 7.16908C7.6 7.70075 6.5425 8.27867 6.25 8.90283C6.54167 9.52783 7.59917 10.1007 9.4225 10.6216C11.2458 11.1424 13.105 11.4028 15 11.4028ZM15 17.6216C15.875 17.6216 16.7188 17.5799 17.5312 17.4966C18.3437 17.4132 19.12 17.2932 19.86 17.1366C20.6 16.9799 21.2979 16.7874 21.9538 16.5591C22.6096 16.3307 23.2083 16.0703 23.75 15.7778V12.0278C23.2083 12.3195 22.6096 12.5799 21.9538 12.8091C21.2979 13.0382 20.6 13.2312 19.86 13.3878C19.12 13.5445 18.3437 13.6641 17.5312 13.7466C16.7188 13.8291 15.875 13.8707 15 13.8716C14.125 13.8724 13.2708 13.8307 12.4375 13.7466C11.6042 13.6624 10.8175 13.5424 10.0775 13.3866C9.3375 13.2307 8.645 13.0382 8 12.8091C7.355 12.5799 6.77167 12.3195 6.25 12.0278V15.7778C6.77083 16.0695 7.35417 16.3299 8 16.5591C8.64583 16.7882 9.33875 16.9812 10.0787 17.1378C10.8187 17.2945 11.605 17.4141 12.4375 17.4966C13.27 17.5791 14.1242 17.6207 15 17.6216ZM15 23.8716C15.9583 23.8716 16.9325 23.7987 17.9225 23.6528C18.9125 23.507 19.8237 23.3145 20.6562 23.0753C21.4888 22.8362 22.1867 22.5653 22.75 22.2628C23.3133 21.9603 23.6467 21.6528 23.75 21.3403V18.2778C23.2083 18.5695 22.6096 18.8299 21.9538 19.0591C21.2979 19.2882 20.6 19.4812 19.86 19.6378C19.12 19.7945 18.3437 19.9141 17.5312 19.9966C16.7188 20.0791 15.875 20.1207 15 20.1216C14.125 20.1224 13.2708 20.0807 12.4375 19.9966C11.6042 19.9124 10.8175 19.7924 10.0775 19.6366C9.3375 19.4807 8.645 19.2882 8 19.0591C7.355 18.8299 6.77167 18.5695 6.25 18.2778V21.3716C6.35417 21.6841 6.6825 21.9862 7.235 22.2778C7.7875 22.5695 8.48 22.8353 9.3125 23.0753C10.145 23.3153 11.0617 23.5078 12.0625 23.6528C13.0633 23.7978 14.0425 23.8707 15 23.8716Z" fill="#222222"/>
</svg>
