<svg width="30" height="31" viewBox="0 0 30 31" fill="none" xmlns="http://www.w3.org/2000/svg">
<path d="M25.3125 22.512C24.7327 22.5137 24.1677 22.6948 23.695 23.0306C23.2223 23.3663 22.8651 23.8401 22.6725 24.387H20.2669L18.8062 21.4657C21.0141 20.1607 22.5 17.7626 22.5 15.012C22.5 12.2613 21.0141 9.86321 18.8062 8.55821L20.2669 5.63696H22.6725C22.8651 6.18382 23.2223 6.65764 23.695 6.99336C24.1677 7.32908 24.7327 7.51024 25.3125 7.51196C26.8631 7.51196 28.125 6.25009 28.125 4.69946C28.125 3.14884 26.8631 1.88696 25.3125 1.88696C24.7327 1.88868 24.1677 2.06984 23.695 2.40557C23.2223 2.74129 22.8651 3.21511 22.6725 3.76196H20.2669C19.9184 3.76089 19.5765 3.85746 19.2801 4.04072C18.9837 4.22398 18.7445 4.48661 18.5897 4.79884L17.0831 7.81103C16.4213 7.61978 15.7238 7.51196 15 7.51196C14.2762 7.51196 13.5787 7.61978 12.9169 7.81196L11.4094 4.79696C11.2542 4.48494 11.0148 4.2226 10.7182 4.03967C10.4216 3.85675 10.0797 3.76054 9.73125 3.76196H7.32844C7.13577 3.21496 6.77845 2.74103 6.30557 2.4053C5.83268 2.06956 5.26744 1.88849 4.6875 1.88696C3.13687 1.88696 1.875 3.14884 1.875 4.69946C1.875 6.25009 3.13687 7.51196 4.6875 7.51196C5.26728 7.51024 5.83232 7.32908 6.30501 6.99336C6.77771 6.65764 7.13489 6.18382 7.3275 5.63696H9.73312L11.1937 8.55821C8.985 9.86321 7.5 12.2613 7.5 15.012C7.5 17.7626 8.985 20.1607 11.1937 21.4657L9.73312 24.387H7.3275C7.13489 23.8401 6.77771 23.3663 6.30501 23.0306C5.83232 22.6948 5.26728 22.5137 4.6875 22.512C3.13687 22.512 1.875 23.7738 1.875 25.3245C1.875 26.8751 3.13687 28.137 4.6875 28.137C5.26728 28.1352 5.83232 27.9541 6.30501 27.6184C6.77771 27.2826 7.13489 26.8088 7.3275 26.262H9.73312C10.0816 26.263 10.4235 26.1665 10.7199 25.9832C11.0163 25.7999 11.2555 25.5373 11.4103 25.2251L12.9169 22.2129C13.5787 22.4042 14.2762 22.512 15 22.512C15.7238 22.512 16.4213 22.4042 17.0831 22.212L18.5897 25.2251C18.7445 25.5373 18.9837 25.7999 19.2801 25.9832C19.5765 26.1665 19.9184 26.263 20.2669 26.262H22.6725C22.8651 26.8088 23.2223 27.2826 23.695 27.6184C24.1677 27.9541 24.7327 28.1352 25.3125 28.137C26.8631 28.137 28.125 26.8751 28.125 25.3245C28.125 23.7738 26.8631 22.512 25.3125 22.512ZM25.3125 3.76196C25.5539 3.77276 25.7818 3.87625 25.9488 4.05088C26.1158 4.22552 26.209 4.45783 26.209 4.69946C26.209 4.94109 26.1158 5.17341 25.9488 5.34804C25.7818 5.52268 25.5539 5.62616 25.3125 5.63696C25.0639 5.63696 24.8254 5.53819 24.6496 5.36238C24.4738 5.18656 24.375 4.9481 24.375 4.69946C24.375 4.45082 24.4738 4.21237 24.6496 4.03655C24.8254 3.86074 25.0639 3.76196 25.3125 3.76196ZM4.6875 5.63696C4.44611 5.62616 4.21819 5.52268 4.0512 5.34804C3.8842 5.17341 3.791 4.94109 3.791 4.69946C3.791 4.45783 3.8842 4.22552 4.0512 4.05088C4.21819 3.87625 4.44611 3.77276 4.6875 3.76196C4.92889 3.77276 5.15681 3.87625 5.3238 4.05088C5.4908 4.22552 5.584 4.45783 5.584 4.69946C5.584 4.94109 5.4908 5.17341 5.3238 5.34804C5.15681 5.52268 4.92889 5.62616 4.6875 5.63696ZM4.6875 26.262C4.44611 26.2512 4.21819 26.1477 4.0512 25.973C3.8842 25.7984 3.791 25.5661 3.791 25.3245C3.791 25.0828 3.8842 24.8505 4.0512 24.6759C4.21819 24.5012 4.44611 24.3978 4.6875 24.387C4.92889 24.3978 5.15681 24.5012 5.3238 24.6759C5.4908 24.8505 5.584 25.0828 5.584 25.3245C5.584 25.5661 5.4908 25.7984 5.3238 25.973C5.15681 26.1477 4.92889 26.2512 4.6875 26.262ZM9.64313 15.012C9.64313 12.0588 12.0459 9.65509 15 9.65509C17.9541 9.65509 20.3569 12.0579 20.3569 15.012C20.3569 17.966 17.9541 20.3688 15 20.3688C12.0459 20.3688 9.64313 17.966 9.64313 15.012ZM25.3125 26.262C25.0711 26.2512 24.8432 26.1477 24.6762 25.973C24.5092 25.7984 24.416 25.5661 24.416 25.3245C24.416 25.0828 24.5092 24.8505 24.6762 24.6759C24.8432 24.5012 25.0711 24.3978 25.3125 24.387C25.5539 24.3978 25.7818 24.5012 25.9488 24.6759C26.1158 24.8505 26.209 25.0828 26.209 25.3245C26.209 25.5661 26.1158 25.7984 25.9488 25.973C25.7818 26.1477 25.5539 26.2512 25.3125 26.262ZM17.4281 11.7842L18.75 13.137L14.0625 17.8245L11.25 15.012L12.6038 13.6582L14.0662 15.1788L17.4281 11.7842Z" fill="white"/>
</svg>
