<svg width="30" height="31" viewBox="0 0 30 31" fill="none" xmlns="http://www.w3.org/2000/svg">
<path fill-rule="evenodd" clip-rule="evenodd" d="M14.9999 7.35512C16.5166 7.35512 18.0187 7.41137 19.5062 7.52387C20.4805 7.59508 21.3967 8.01435 22.0875 8.70512C22.7782 9.39589 23.1975 10.3121 23.2687 11.2864C23.3237 12.0155 23.3654 12.7485 23.3937 13.4851L21.2874 11.3801C21.2016 11.288 21.0981 11.2141 20.9831 11.1629C20.8681 11.1117 20.744 11.0841 20.6181 11.0819C20.4922 11.0797 20.3672 11.1028 20.2505 11.15C20.1337 11.1971 20.0277 11.2673 19.9387 11.3563C19.8496 11.4453 19.7794 11.5514 19.7323 11.6681C19.6851 11.7849 19.662 11.9099 19.6642 12.0358C19.6664 12.1617 19.694 12.2858 19.7452 12.4008C19.7965 12.5158 19.8703 12.6193 19.9624 12.7051L23.7124 16.4551C23.8882 16.6307 24.1265 16.7293 24.3749 16.7293C24.6234 16.7293 24.8617 16.6307 25.0374 16.4551L28.7874 12.7051C28.953 12.5274 29.0432 12.2923 29.0389 12.0495C29.0346 11.8066 28.9362 11.5749 28.7645 11.4031C28.5927 11.2313 28.361 11.1329 28.1181 11.1287C27.8752 11.1244 27.6402 11.2145 27.4624 11.3801L25.2724 13.5689C25.2433 12.7564 25.1983 11.9485 25.1374 11.1451C25.0323 9.72394 24.4201 8.38783 23.4124 7.38016C22.4047 6.37248 21.0686 5.7603 19.6474 5.65512C16.5535 5.4216 13.4464 5.4216 10.3524 5.65512C8.93127 5.7603 7.59516 6.37248 6.58748 7.38016C5.57981 8.38783 4.96763 9.72394 4.86245 11.1451C4.84078 11.4243 4.82161 11.7043 4.80495 11.9851C4.79542 12.1091 4.81065 12.2337 4.84974 12.3517C4.88883 12.4697 4.951 12.5788 5.03263 12.6726C5.11427 12.7663 5.21374 12.8429 5.32525 12.8979C5.43677 12.9528 5.5581 12.9851 5.68219 12.9927C5.80627 13.0003 5.93064 12.9832 6.04804 12.9423C6.16545 12.9014 6.27355 12.8376 6.36605 12.7545C6.45855 12.6714 6.53361 12.5708 6.58686 12.4585C6.6401 12.3461 6.67047 12.2243 6.6762 12.1001C6.69286 11.8285 6.7112 11.5572 6.7312 11.2864C6.80241 10.3121 7.22168 9.39589 7.91245 8.70512C8.60322 8.01435 9.5194 7.59508 10.4937 7.52387C11.9812 7.41137 13.4833 7.35512 14.9999 7.35512ZM6.28745 15.1301C6.11167 14.9546 5.87339 14.8559 5.62495 14.8559C5.37651 14.8559 5.13823 14.9546 4.96245 15.1301L1.21245 18.8801C1.12034 18.966 1.04646 19.0695 0.995222 19.1845C0.943982 19.2994 0.916429 19.4236 0.914208 19.5495C0.911987 19.6753 0.935143 19.8004 0.982294 19.9171C1.02945 20.0339 1.09963 20.1399 1.18865 20.2289C1.27767 20.3179 1.38372 20.3881 1.50045 20.4353C1.61719 20.4824 1.74222 20.5056 1.8681 20.5034C1.99398 20.5011 2.11812 20.4736 2.23312 20.4223C2.34812 20.3711 2.45162 20.2972 2.53745 20.2051L4.72745 18.0164C4.75661 18.8289 4.80161 19.6368 4.86245 20.4401C4.96763 21.8613 5.57981 23.1974 6.58748 24.2051C7.59516 25.2128 8.93127 25.8249 10.3524 25.9301C13.4464 26.1636 16.5535 26.1636 19.6474 25.9301C21.0686 25.8249 22.4047 25.2128 23.4124 24.2051C24.4201 23.1974 25.0323 21.8613 25.1374 20.4401C25.1583 20.1618 25.1774 19.8818 25.1949 19.6001C25.2063 19.3542 25.1205 19.1137 24.956 18.9306C24.7915 18.7474 24.5616 18.6363 24.316 18.6212C24.0703 18.6061 23.8285 18.6882 23.6428 18.8499C23.4572 19.0115 23.3426 19.2397 23.3237 19.4851C23.307 19.756 23.2887 20.0272 23.2687 20.2989C23.1975 21.2732 22.7782 22.1894 22.0875 22.8801C21.3967 23.5709 20.4805 23.9902 19.5062 24.0614C16.5063 24.2873 13.4936 24.2873 10.4937 24.0614C9.5194 23.9902 8.60322 23.5709 7.91245 22.8801C7.22168 22.1894 6.80241 21.2732 6.7312 20.2989C6.67608 19.5668 6.63441 18.8337 6.6062 18.1001L8.71245 20.2051C8.89017 20.3707 9.12523 20.4609 9.3681 20.4566C9.61098 20.4523 9.84271 20.3539 10.0145 20.1821C10.1862 20.0104 10.2846 19.7787 10.2889 19.5358C10.2932 19.2929 10.203 19.0578 10.0374 18.8801L6.28745 15.1301Z" fill="black"/>
</svg>
