<svg width="171" height="120" viewBox="0 0 171 120" fill="none" xmlns="http://www.w3.org/2000/svg">
<rect width="171" height="120" fill="white"/>
<g clip-path="url(#clip0_969_18006)">
<path d="M123.849 40.6802C122.047 39.4302 117.919 38.9615 114.691 39.5865C114.316 36.4615 112.59 33.7274 109.587 31.3055L107.861 30.0555L106.66 31.8524C105.159 34.1962 104.408 37.4774 104.633 40.6024C104.708 41.6958 105.083 43.649 106.209 45.3677C105.159 45.9927 102.982 46.774 100.13 46.774H45.8609L45.7109 47.399C45.1852 50.5237 45.1852 60.289 51.3402 67.7887C55.994 73.4915 62.8996 76.3821 71.9818 76.3821C91.6474 76.3821 106.209 66.929 113.04 49.8205C115.742 49.8987 121.522 49.8205 124.449 43.9612C124.524 43.8049 124.674 43.4924 125.2 42.3208L125.5 41.6958L123.849 40.6802ZM89.2455 18.6499H80.9893V26.4621H89.2455V18.6499ZM89.2455 28.0246H80.9893V35.8368H89.2455V28.0246ZM79.4877 28.0246H71.2315V35.8368H79.4877V28.0246ZM69.7299 28.0246H61.4734V35.8368H69.7299V28.0246ZM59.9721 37.3993H51.7155V45.2115H59.9718L59.9721 37.3993ZM69.7299 37.3993H61.4734V45.2115H69.7299V37.3993ZM79.4877 37.3993H71.2315V45.2115H79.4877V37.3993ZM89.2458 37.3993H80.989V45.2115H89.2458V37.3993ZM99.0037 37.3993H90.7468V45.2115H99.0037V37.3993Z" fill="#2396ED"/>
</g>
<path d="M62.7637 98.6196H66.3252C69.251 98.6196 70.9668 100.417 70.9668 103.521C70.9668 106.672 69.2646 108.484 66.3252 108.484H62.7637V98.6196ZM64.2949 100.014V107.089H66.1543C68.2188 107.089 69.4082 105.804 69.4082 103.542C69.4082 101.313 68.1982 100.014 66.1543 100.014H64.2949ZM76.0049 108.627C73.8242 108.627 72.4912 107.171 72.4912 104.758C72.4912 102.359 73.8311 100.896 76.0049 100.896C78.1719 100.896 79.5117 102.359 79.5117 104.758C79.5117 107.171 78.1787 108.627 76.0049 108.627ZM76.0049 107.322C77.2764 107.322 78.001 106.378 78.001 104.758C78.001 103.145 77.2764 102.202 76.0049 102.202C74.7266 102.202 74.0088 103.145 74.0088 104.758C74.0088 106.385 74.7266 107.322 76.0049 107.322ZM87.585 103.473H86.1562C85.9854 102.749 85.3838 102.208 84.3994 102.208C83.1689 102.208 82.417 103.152 82.417 104.738C82.417 106.351 83.1758 107.315 84.3994 107.315C85.3291 107.315 85.9648 106.891 86.1562 106.091H87.585C87.3936 107.588 86.2451 108.627 84.4062 108.627C82.2393 108.627 80.9131 107.165 80.9131 104.738C80.9131 102.352 82.2324 100.896 84.3994 100.896C86.2656 100.896 87.3936 101.983 87.585 103.473ZM90.9209 104.143L93.874 101.04H95.6104L92.5479 104.232L95.8154 108.484H94.0107L91.4541 105.203L90.8047 105.818V108.484H89.335V98.1343H90.8047V104.143H90.9209ZM99.8418 102.147C98.7549 102.147 97.9961 102.913 97.9141 104.075H101.674C101.64 102.906 100.929 102.147 99.8418 102.147ZM101.667 106.474H103.082C102.747 107.807 101.558 108.627 99.8555 108.627C97.7227 108.627 96.417 107.165 96.417 104.786C96.417 102.407 97.75 100.896 99.8486 100.896C101.92 100.896 103.171 102.311 103.171 104.649V105.162H97.9141V105.244C97.9619 106.549 98.7207 107.376 99.8965 107.376C100.785 107.376 101.394 107.055 101.667 106.474ZM104.935 108.484V101.04H106.35V102.181H106.459C106.671 101.45 107.498 100.917 108.469 100.917C108.688 100.917 108.968 100.937 109.125 100.978V102.427C109.002 102.386 108.564 102.338 108.305 102.338C107.19 102.338 106.404 103.042 106.404 104.088V108.484H104.935Z" fill="#888888"/>
<defs>
<clipPath id="clip0_969_18006">
<rect width="79.9999" height="80" fill="white" transform="translate(45.5 7.51611)"/>
</clipPath>
</defs>
</svg>
