<svg width="170" height="120" viewBox="0 0 81 105" fill="none" xmlns="http://www.w3.org/2000/svg">
<path d="M68.8148 22.4229C69.6681 21.3096 70.9881 20.6562 72.3915 20.6562H73.5248L58.8848 39.7996L73.8381 59.3496H72.7048C72.0129 59.3499 71.3303 59.1906 70.71 58.8842C70.0897 58.5778 69.5484 58.1325 69.1281 57.5829L57.2081 41.9963L45.2848 57.5829C44.8649 58.1321 44.3241 58.5771 43.7044 58.8835C43.0847 59.1899 42.4028 59.3494 41.7115 59.3496H40.5781L55.5281 39.7996L40.8915 20.6562H42.0248C43.4248 20.6562 44.7481 21.3096 45.5981 22.4229L57.2048 37.6029L68.8148 22.4229Z" fill="black"/>
<path fill-rule="evenodd" clip-rule="evenodd" d="M19.0446 57.1603C25.458 59.5003 32.1646 56.847 35.5746 51.6703C36.2413 50.6537 37.3413 50.0103 38.5613 50.0103H39.4113C36.278 58.1337 27.0113 62.8637 18.2013 59.6937C11.458 57.267 7.16797 50.6037 7.16797 43.437V36.007C7.17091 33.6819 7.65933 31.3831 8.60196 29.2576C9.54459 27.1322 10.9207 25.227 12.6421 23.6641C14.3635 22.1012 16.3923 20.9149 18.5986 20.1812C20.8049 19.4476 23.1401 19.1828 25.4546 19.4037C34.098 20.2137 40.5246 27.8137 40.5246 36.4937V42.007H9.83797V43.487C9.83797 49.4937 13.4013 55.1037 19.0446 57.1603ZM23.8446 21.9937C20.132 22.0007 16.5734 23.4787 13.9482 26.1039C11.323 28.7292 9.84502 32.2877 9.83797 36.0003V39.3403H37.858V36.007C37.8527 32.2926 36.375 28.7319 33.7489 26.1051C31.1227 23.4783 27.5623 21.9998 23.848 21.9937" fill="black"/>
<path d="M11.4131 99.6055V101H5.15137V91.1357H11.4131V92.5303H6.68262V95.3193H11.1602V96.6455H6.68262V99.6055H11.4131ZM16.2393 98.3613H16.1299L14.5029 101H12.8896L15.3574 97.2949L12.8691 93.5557H14.585L16.1846 96.1807H16.3008L17.8867 93.5557H19.5205L17.0664 97.2334L19.5479 101H17.8594L16.2393 98.3613ZM24.9619 93.4326C26.8555 93.4326 28.0518 94.9092 28.0518 97.2744C28.0518 99.6396 26.8555 101.123 24.9756 101.123C23.916 101.123 23.0752 100.658 22.6855 99.8721H22.5693V103.475H21.0996V93.5557H22.5146V94.7861H22.624C23.0752 93.9385 23.9502 93.4326 24.9619 93.4326ZM24.5449 99.8037C25.7959 99.8037 26.541 98.8535 26.541 97.2744C26.541 95.7021 25.7959 94.752 24.5518 94.752C23.3145 94.752 22.542 95.7227 22.542 97.2812C22.542 98.833 23.3145 99.8037 24.5449 99.8037ZM29.8223 101V93.5557H31.2373V94.6973H31.3467C31.5586 93.9658 32.3857 93.4326 33.3564 93.4326C33.5752 93.4326 33.8555 93.4531 34.0127 93.4941V94.9434C33.8896 94.9023 33.4521 94.8545 33.1924 94.8545C32.0781 94.8545 31.292 95.5586 31.292 96.6045V101H29.8223ZM38.292 94.6631C37.2051 94.6631 36.4463 95.4287 36.3643 96.5908H40.124C40.0898 95.4219 39.3789 94.6631 38.292 94.6631ZM40.1172 98.9902H41.5322C41.1973 100.323 40.0078 101.144 38.3057 101.144C36.1729 101.144 34.8672 99.6807 34.8672 97.3018C34.8672 94.9229 36.2002 93.4121 38.2988 93.4121C40.3701 93.4121 41.6211 94.8271 41.6211 97.165V97.6777H36.3643V97.7598C36.4121 99.0654 37.1709 99.8926 38.3467 99.8926C39.2354 99.8926 39.8438 99.5713 40.1172 98.9902ZM43.2139 95.6611C43.2139 94.3418 44.4238 93.4121 46.1055 93.4121C47.7803 93.4121 48.874 94.1914 49.0176 95.5039H47.6094C47.4727 94.957 46.9395 94.6084 46.1055 94.6084C45.2852 94.6084 44.6631 94.998 44.6631 95.5791C44.6631 96.0234 45.0391 96.3037 45.8457 96.4883L47.083 96.7754C48.498 97.1035 49.1611 97.7119 49.1611 98.8057C49.1611 100.207 47.8555 101.144 46.0781 101.144C44.3076 101.144 43.1523 100.344 43.0225 99.0244H44.4922C44.6768 99.5986 45.2236 99.9541 46.1123 99.9541C47.0283 99.9541 47.6777 99.5439 47.6777 98.9492C47.6777 98.5049 47.3291 98.2178 46.584 98.04L45.2852 97.7393C43.8701 97.4043 43.2139 96.7686 43.2139 95.6611ZM50.624 95.6611C50.624 94.3418 51.834 93.4121 53.5156 93.4121C55.1904 93.4121 56.2842 94.1914 56.4277 95.5039H55.0195C54.8828 94.957 54.3496 94.6084 53.5156 94.6084C52.6953 94.6084 52.0732 94.998 52.0732 95.5791C52.0732 96.0234 52.4492 96.3037 53.2559 96.4883L54.4932 96.7754C55.9082 97.1035 56.5713 97.7119 56.5713 98.8057C56.5713 100.207 55.2656 101.144 53.4883 101.144C51.7178 101.144 50.5625 100.344 50.4326 99.0244H51.9023C52.0869 99.5986 52.6338 99.9541 53.5225 99.9541C54.4385 99.9541 55.0879 99.5439 55.0879 98.9492C55.0879 98.5049 54.7393 98.2178 53.9941 98.04L52.6953 97.7393C51.2803 97.4043 50.624 96.7686 50.624 95.6611ZM59.4834 101.116C58.9092 101.116 58.4785 100.672 58.4785 100.098C58.4785 99.5234 58.9092 99.0791 59.4834 99.0791C60.0645 99.0791 60.4883 99.5234 60.4883 100.098C60.4883 100.672 60.0645 101.116 59.4834 101.116ZM62.252 98.4365H63.7559C63.7764 99.25 64.3711 99.7969 65.2461 99.7969C66.2236 99.7969 66.7773 99.209 66.7773 98.1084V91.1357H68.3086V98.1152C68.3086 100.098 67.1602 101.239 65.2598 101.239C63.4756 101.239 62.252 100.132 62.252 98.4365ZM70.4346 95.6611C70.4346 94.3418 71.6445 93.4121 73.3262 93.4121C75.001 93.4121 76.0947 94.1914 76.2383 95.5039H74.8301C74.6934 94.957 74.1602 94.6084 73.3262 94.6084C72.5059 94.6084 71.8838 94.998 71.8838 95.5791C71.8838 96.0234 72.2598 96.3037 73.0664 96.4883L74.3037 96.7754C75.7188 97.1035 76.3818 97.7119 76.3818 98.8057C76.3818 100.207 75.0762 101.144 73.2988 101.144C71.5283 101.144 70.373 100.344 70.2432 99.0244H71.7129C71.8975 99.5986 72.4443 99.9541 73.333 99.9541C74.249 99.9541 74.8984 99.5439 74.8984 98.9492C74.8984 98.5049 74.5498 98.2178 73.8047 98.04L72.5059 97.7393C71.0908 97.4043 70.4346 96.7686 70.4346 95.6611Z" fill="#888888"/>
</svg>
