<svg width="24" height="25" viewBox="0 0 24 25" fill="none" xmlns="http://www.w3.org/2000/svg">
<g clip-path="url(#clip0_917_22616)">
<path d="M21 11.1833H22.5V24.6833H21V11.1833ZM6 16.4333L7.5 14.9333V24.6833H6V16.4333ZM3 19.4333L4.5 17.9333V24.6833H3V19.4333ZM9 13.4333L10.5 11.9333V24.6833H9V13.4333ZM12 11.9333L13.5 13.4333V24.6716H12V11.9333ZM15.75 15.6833L16.5 14.9333V24.6833H15V14.9333L15.75 15.6833ZM18 13.4333L19.5 11.9333V24.6833H18V13.4333ZM0 22.4333L1.5 20.9333V24.6833H0V22.4333ZM24 3.68335V9.68335H22.5V6.24976L15.75 12.988L11.25 8.48804L0 19.7498V17.6169L11.25 6.37866L15.75 10.8787L21.4336 5.18335H18V3.68335H24Z" fill="white"/>
</g>
<defs>
<clipPath id="clip0_917_22616">
<rect width="24" height="24" fill="white" transform="translate(0 0.68335)"/>
</clipPath>
</defs>
</svg>
