<svg width="171" height="120" viewBox="0 0 171 120" fill="none" xmlns="http://www.w3.org/2000/svg">
<rect width="171" height="120" fill="white"/>
<path d="M75.1094 80.4973C78.0344 81.6723 81.2094 82.3723 84.5594 82.4973C89.0844 82.6473 93.3594 81.7223 97.2094 79.9473C92.6094 78.1473 88.4344 75.4973 84.8844 72.1973C82.565 75.9006 79.1604 78.7989 75.1344 80.4973H75.1094Z" fill="#FF9100"/>
<path d="M84.8465 72.1976C76.7215 64.6976 71.7965 53.8226 72.2215 41.8976C72.2215 41.5226 72.2465 41.1226 72.2715 40.7476C68.6654 39.8274 64.8808 39.8706 61.2965 40.8726C59.1215 44.6726 57.8215 49.0226 57.6465 53.6976C57.2215 65.7476 64.5215 76.2726 75.0965 80.5226C79.134 78.8427 82.5437 75.9401 84.8465 72.2226V72.1976Z" fill="#FFC400"/>
<path d="M84.8509 72.1977C86.7998 69.0772 87.8947 65.4994 88.0259 61.8227C88.3759 51.7727 81.6259 43.1477 72.2759 40.7227C72.2759 41.0977 72.2259 41.4977 72.2259 41.8727C72.0168 47.5353 73.0371 53.1761 75.2165 58.4068C77.396 63.6374 80.6828 68.3338 84.8509 72.1727V72.1977Z" fill="#FF9100"/>
<path d="M86.9773 12.5C81.6523 16.75 77.4523 22.375 74.9023 28.85C73.4118 32.6467 72.526 36.6538 72.2773 40.725C76.9127 41.9232 81.0003 44.6676 83.8642 48.5043C86.7281 52.341 88.1968 57.0403 88.0273 61.825C87.9115 65.5043 86.8154 69.086 84.8523 72.2C88.445 75.5247 92.6243 78.1527 97.1773 79.95C106.427 75.675 112.977 66.5 113.352 55.625C113.602 48.575 110.902 42.3 107.077 37C103.027 31.4 86.9773 12.525 86.9773 12.525V12.5Z" fill="#DD2C00"/>
<path d="M59.3867 108.5H57.8555V98.6357H64.0146V100.03H59.3867V103.059H63.625V104.412H59.3867V108.5ZM65.8604 108.5V101.056H67.3232V108.5H65.8604ZM66.5918 99.75C66.0449 99.75 65.6416 99.3604 65.6416 98.8545C65.6416 98.3418 66.0449 97.9521 66.5918 97.9521C67.1387 97.9521 67.542 98.3418 67.542 98.8545C67.542 99.3604 67.1387 99.75 66.5918 99.75ZM69.4834 108.5V101.056H70.8984V102.197H71.0078C71.2197 101.466 72.0469 100.933 73.0176 100.933C73.2363 100.933 73.5166 100.953 73.6738 100.994V102.443C73.5508 102.402 73.1133 102.354 72.8535 102.354C71.7393 102.354 70.9531 103.059 70.9531 104.104V108.5H69.4834ZM77.9531 102.163C76.8662 102.163 76.1074 102.929 76.0254 104.091H79.7852C79.751 102.922 79.04 102.163 77.9531 102.163ZM79.7783 106.49H81.1934C80.8584 107.823 79.6689 108.644 77.9668 108.644C75.834 108.644 74.5283 107.181 74.5283 104.802C74.5283 102.423 75.8613 100.912 77.96 100.912C80.0312 100.912 81.2822 102.327 81.2822 104.665V105.178H76.0254V105.26C76.0732 106.565 76.832 107.393 78.0078 107.393C78.8965 107.393 79.5049 107.071 79.7783 106.49ZM86.9902 108.623C85.9512 108.623 85.083 108.145 84.6387 107.324H84.5293V108.5H83.1143V98.1504H84.584V102.238H84.7002C85.0967 101.425 85.9717 100.933 86.9902 100.933C88.877 100.933 90.0664 102.409 90.0664 104.774C90.0664 107.133 88.8701 108.623 86.9902 108.623ZM86.5664 102.252C85.3359 102.252 84.5635 103.223 84.5566 104.781C84.5635 106.34 85.3291 107.304 86.5664 107.304C87.8105 107.304 88.5557 106.354 88.5557 104.774C88.5557 103.209 87.8105 102.252 86.5664 102.252ZM94.2705 107.386C95.3779 107.386 96.1982 106.682 96.1982 105.759V105.137L94.3799 105.253C93.3545 105.321 92.8896 105.67 92.8896 106.326C92.8896 106.996 93.4707 107.386 94.2705 107.386ZM93.8945 108.623C92.459 108.623 91.4131 107.755 91.4131 106.395C91.4131 105.055 92.4111 104.282 94.1816 104.173L96.1982 104.057V103.414C96.1982 102.628 95.6787 102.184 94.6738 102.184C93.8535 102.184 93.2861 102.484 93.1221 103.011H91.7002C91.8506 101.732 93.0537 100.912 94.7422 100.912C96.6084 100.912 97.6611 101.842 97.6611 103.414V108.5H96.2461V107.454H96.1299C95.6855 108.199 94.8721 108.623 93.8945 108.623ZM99.582 103.161C99.582 101.842 100.792 100.912 102.474 100.912C104.148 100.912 105.242 101.691 105.386 103.004H103.978C103.841 102.457 103.308 102.108 102.474 102.108C101.653 102.108 101.031 102.498 101.031 103.079C101.031 103.523 101.407 103.804 102.214 103.988L103.451 104.275C104.866 104.604 105.529 105.212 105.529 106.306C105.529 107.707 104.224 108.644 102.446 108.644C100.676 108.644 99.5205 107.844 99.3906 106.524H100.86C101.045 107.099 101.592 107.454 102.48 107.454C103.396 107.454 104.046 107.044 104.046 106.449C104.046 106.005 103.697 105.718 102.952 105.54L101.653 105.239C100.238 104.904 99.582 104.269 99.582 103.161ZM110.355 102.163C109.269 102.163 108.51 102.929 108.428 104.091H112.188C112.153 102.922 111.442 102.163 110.355 102.163ZM112.181 106.49H113.596C113.261 107.823 112.071 108.644 110.369 108.644C108.236 108.644 106.931 107.181 106.931 104.802C106.931 102.423 108.264 100.912 110.362 100.912C112.434 100.912 113.685 102.327 113.685 104.665V105.178H108.428V105.26C108.476 106.565 109.234 107.393 110.41 107.393C111.299 107.393 111.907 107.071 112.181 106.49Z" fill="#888888"/>
</svg>
