<svg width="171" height="120" viewBox="0 0 171 120" fill="none" xmlns="http://www.w3.org/2000/svg">
<rect width="171" height="120" fill="white"/>
<g clip-path="url(#clip0_969_17934)">
<path d="M92.9846 7.51611L53.1953 47.3054L65.5108 59.6208L117.616 7.51611H92.9846ZM92.7072 44.2091L71.403 65.5133L83.7649 78.06L96.0576 65.7672L117.616 44.2091H92.7072Z" fill="#47C5FB"/>
<path d="M83.7656 78.0608L93.1239 87.419H117.616L96.0581 65.7681L83.7656 78.0608Z" fill="#00569E"/>
<path d="M71.2656 65.6521L83.5813 53.3364L96.0586 65.7675L83.7661 78.0602L71.2656 65.6521Z" fill="#00B5F8"/>
<path d="M83.7656 78.0601L94.0016 74.6635L95.0184 66.8071L83.7656 78.0601Z" fill="url(#paint0_linear_969_17934)" fill-opacity="0.8"/>
</g>
<path d="M65.9355 108.484H64.4043V98.6196H70.5635V100.014H65.9355V103.042H70.1738V104.396H65.9355V108.484ZM72.4502 108.484V98.1343H73.9199V108.484H72.4502ZM82.4033 101.04V108.484H80.9883V107.301H80.8721C80.5098 108.149 79.751 108.627 78.623 108.627C76.9756 108.627 76.0596 107.623 76.0596 105.873V101.04H77.5293V105.49C77.5293 106.693 78.0146 107.267 79.0947 107.267C80.2842 107.267 80.9336 106.563 80.9336 105.394V101.04H82.4033ZM85.0557 99.187H86.5254V101.074H88.1387V102.311H86.5254V106.139C86.5254 106.918 86.8467 107.26 87.5781 107.26C87.8037 107.26 87.9336 107.247 88.1387 107.226V108.45C87.8994 108.491 87.626 108.525 87.3389 108.525C85.7051 108.525 85.0557 107.951 85.0557 106.515V102.311H83.873V101.074H85.0557V99.187ZM90.415 99.187H91.8848V101.074H93.498V102.311H91.8848V106.139C91.8848 106.918 92.2061 107.26 92.9375 107.26C93.1631 107.26 93.293 107.247 93.498 107.226V108.45C93.2588 108.491 92.9854 108.525 92.6982 108.525C91.0645 108.525 90.415 107.951 90.415 106.515V102.311H89.2324V101.074H90.415V99.187ZM98.2012 102.147C97.1143 102.147 96.3555 102.913 96.2734 104.075H100.033C99.999 102.906 99.2881 102.147 98.2012 102.147ZM100.026 106.474H101.441C101.106 107.807 99.917 108.627 98.2148 108.627C96.082 108.627 94.7764 107.165 94.7764 104.786C94.7764 102.407 96.1094 100.896 98.208 100.896C100.279 100.896 101.53 102.311 101.53 104.649V105.162H96.2734V105.244C96.3213 106.549 97.0801 107.376 98.2559 107.376C99.1445 107.376 99.7529 107.055 100.026 106.474ZM103.294 108.484V101.04H104.709V102.181H104.818C105.03 101.45 105.857 100.917 106.828 100.917C107.047 100.917 107.327 100.937 107.484 100.978V102.427C107.361 102.386 106.924 102.338 106.664 102.338C105.55 102.338 104.764 103.042 104.764 104.088V108.484H103.294Z" fill="#888888"/>
<defs>
<linearGradient id="paint0_linear_969_17934" x1="128.236" y1="370.559" x2="937.819" y2="662.293" gradientUnits="userSpaceOnUse">
<stop/>
<stop offset="1" stop-opacity="0"/>
</linearGradient>
<clipPath id="clip0_969_17934">
<rect width="64.6057" height="80" fill="white" transform="translate(53.1953 7.51611)"/>
</clipPath>
</defs>
</svg>
