<svg width="129" height="45" viewBox="0 0 129 45" fill="none" xmlns="http://www.w3.org/2000/svg">
<path d="M22.087 4.80879C18.0435 4.80879 14.32 6.18074 11.3534 8.4794C11.0863 8.68533 11.0557 9.07772 11.295 9.31704L11.8237 9.84579C12.0241 10.0462 12.3386 10.0601 12.5612 9.88753C15.2021 7.86438 18.5082 6.65662 22.0842 6.65662C25.6602 6.65662 28.969 7.86716 31.6072 9.88753C31.8326 10.0601 32.1471 10.0434 32.3446 9.84579L32.8817 9.30869C33.1211 9.06937 33.0904 8.67698 32.8233 8.46826C29.8567 6.17517 26.1249 4.80322 22.0842 4.80322L22.087 4.80879Z" fill="#FBAE17"/>
<path d="M22.0899 5.50985C23.49 5.50985 24.6251 4.3748 24.6251 2.97465C24.6251 1.5745 23.49 0.439453 22.0899 0.439453C20.6897 0.439453 19.5547 1.5745 19.5547 2.97465C19.5547 4.3748 20.6897 5.50985 22.0899 5.50985Z" fill="#FBAE17"/>
<path d="M33.0672 34.2347C32.8584 34.026 32.5273 34.0204 32.3047 34.2124C29.5607 36.5751 25.9848 38.0083 22.0887 38.0083C18.1927 38.0083 14.6223 36.5807 11.8784 34.2041C11.6558 34.0121 11.3246 34.0176 11.1159 34.2236L10.5816 34.7551C10.3506 34.9861 10.3673 35.3618 10.6122 35.5761C13.69 38.2448 17.7002 39.8589 22.0887 39.8589C26.4773 39.8589 30.4875 38.2448 33.5653 35.5844C33.813 35.3701 33.8297 34.9944 33.5987 34.7662L33.0672 34.2347Z" fill="#FBAE17"/>
<path d="M22.0899 44.1334C23.49 44.1334 24.6251 42.9983 24.6251 41.5982C24.6251 40.198 23.49 39.063 22.0899 39.063C20.6897 39.063 19.5547 40.198 19.5547 41.5982C19.5547 42.9983 20.6897 44.1334 22.0899 44.1334Z" fill="#FBAE17"/>
<path d="M10.2103 12.122C7.84212 14.8659 6.41452 18.4336 6.41452 22.3324C6.41452 25.9139 7.62506 29.2144 9.65377 31.8554C9.82353 32.0808 9.80962 32.3953 9.60925 32.5956L9.07494 33.1299C8.83562 33.3693 8.44323 33.3387 8.23451 33.0715C6.21136 30.4612 4.9062 27.2581 4.62235 23.7739C4.16596 24.4362 3.40345 24.8704 2.53798 24.8704C1.13541 24.8704 0 23.7349 0 22.3324C0 20.9298 1.13541 19.7972 2.53798 19.7972C3.40345 19.7972 4.16596 20.2313 4.62235 20.8936C4.93403 17.07 6.47295 13.5997 8.84118 10.8642C9.05267 10.6165 9.42836 10.5998 9.65934 10.8308L10.1881 11.3595C10.3968 11.5682 10.4024 11.8994 10.2103 12.122Z" fill="white"/>
<path d="M56.0218 32.6262C52.2704 32.6262 49.2148 29.6429 49.2148 25.9779V17.9243C49.2148 17.6181 49.4653 17.3677 49.7714 17.3677H52.6656C52.9717 17.3677 53.2222 17.6181 53.2222 17.9243V25.9779C53.2222 27.4333 54.4773 28.6188 56.019 28.6188C57.5607 28.6188 58.8158 27.4333 58.8158 25.9779V17.9243C58.8158 17.6181 59.0662 17.3677 59.3723 17.3677H62.2665C62.5726 17.3677 62.8231 17.6181 62.8231 17.9243V25.9779C62.8231 29.6457 59.7703 32.6262 56.019 32.6262H56.0218Z" fill="white"/>
<path d="M45.3813 17.3677H42.4872C42.1811 17.3677 41.9306 17.6154 41.9306 17.9243V18.3528C40.8314 17.735 39.5651 17.3844 38.2182 17.3844C34.0077 17.3844 30.582 20.8073 30.582 25.0178C30.582 29.2283 34.0077 32.6512 38.2182 32.6512C39.5651 32.6512 40.8314 32.3006 41.9306 31.6828V37.6325C41.9306 37.9387 42.1811 38.1891 42.4872 38.1891H45.3813C45.6902 38.1891 45.9379 37.9387 45.9379 37.6325V17.9243C45.9379 17.6154 45.6902 17.3677 45.3813 17.3677ZM38.2182 28.6439C36.2173 28.6439 34.5922 27.0159 34.5922 25.0178C34.5922 23.0197 36.2173 21.3917 38.2182 21.3917C40.2191 21.3917 41.8443 23.0197 41.8443 25.0178C41.8443 27.0159 40.2163 28.6439 38.2182 28.6439Z" fill="white"/>
<path d="M97.729 11.874H94.8348C94.5287 11.874 94.2783 12.1245 94.2783 12.4306V18.3526C93.179 17.7348 91.9128 17.3841 90.5659 17.3841C86.3554 17.3841 82.9297 20.807 82.9297 25.0175C82.9297 29.228 86.3554 32.651 90.5659 32.651C91.9128 32.651 93.179 32.3003 94.2783 31.6825V32.1389C94.2783 32.4478 94.5287 32.6955 94.8348 32.6955H97.729C98.0379 32.6955 98.2856 32.4478 98.2856 32.1389V12.4306C98.2856 12.1245 98.0379 11.874 97.729 11.874ZM90.5659 28.6436C88.565 28.6436 86.9398 27.0156 86.9398 25.0175C86.9398 23.0194 88.565 21.3914 90.5659 21.3914C92.5668 21.3914 94.1892 23.0194 94.1892 25.0175C94.1892 27.0156 92.564 28.6436 90.5659 28.6436Z" fill="white"/>
<path d="M104.966 17.3623H102.072C101.765 17.3623 101.516 17.6115 101.516 17.9189V32.1394C101.516 32.4467 101.765 32.6959 102.072 32.6959H104.966C105.274 32.6959 105.523 32.4467 105.523 32.1394V17.9189C105.523 17.6115 105.274 17.3623 104.966 17.3623Z" fill="#FBAE17"/>
<path d="M79.8501 17.3677H76.9559C76.647 17.3677 76.3993 17.6154 76.3993 17.9243V18.3528C75.3001 17.735 74.0339 17.3844 72.6842 17.3844C68.4765 17.3844 65.0508 20.8073 65.0508 25.0178C65.0508 29.2283 68.4765 32.6512 72.6842 32.6512C74.0339 32.6512 75.3001 32.3006 76.3993 31.6828V32.1392C76.3993 32.4481 76.647 32.6957 76.9559 32.6957H79.8501C80.1562 32.6957 80.4067 32.4481 80.4067 32.1392V17.9243C80.4067 17.6154 80.1562 17.3677 79.8501 17.3677ZM72.6842 28.6439C70.6861 28.6439 69.0581 27.0159 69.0581 25.0178C69.0581 23.0197 70.6861 21.3917 72.6842 21.3917C74.6823 21.3917 76.3103 23.0197 76.3103 25.0178C76.3103 27.0159 74.6851 28.6439 72.6842 28.6439Z" fill="white"/>
<path d="M120.071 32.6511C115.86 32.6511 112.438 29.2254 112.438 25.0177C112.438 20.81 115.863 17.3843 120.071 17.3843C124.279 17.3843 127.704 20.81 127.704 25.0177C127.704 29.2254 124.279 32.6511 120.071 32.6511ZM120.071 21.3916C118.073 21.3916 116.445 23.0196 116.445 25.0177C116.445 27.0158 118.07 28.6438 120.071 28.6438C122.072 28.6438 123.697 27.0186 123.697 25.0177C123.697 23.0168 122.069 21.3916 120.071 21.3916Z" fill="#FBAE17"/>
<path d="M127.24 17.3677H124.346C124.038 17.3677 123.789 17.6169 123.789 17.9243V32.1419C123.789 32.4493 124.038 32.6985 124.346 32.6985H127.24C127.547 32.6985 127.796 32.4493 127.796 32.1419V17.9243C127.796 17.6169 127.547 17.3677 127.24 17.3677Z" fill="#FBAE17"/>
<path d="M108.843 21.3612C109.653 21.3612 110.402 21.6256 111.006 22.0736V17.7797C110.321 17.5737 109.595 17.4624 108.843 17.4624C105.746 17.4624 103.08 19.3408 101.92 22.018C101.652 22.6385 101.806 22.9057 101.711 23.5986L102.039 23.9938H105.34C105.78 22.4744 107.182 21.3612 108.841 21.3612H108.843Z" fill="#FBAE17"/>
<path d="M17.8511 31.9693C16.7045 31.4851 15.789 30.7671 15.1016 29.8181C14.5227 29.0167 14.1721 28.076 14.058 26.9963C14.0218 26.6707 14.2862 26.3896 14.6118 26.3896H18.672C18.9392 26.3896 19.1618 26.5816 19.2175 26.8405C19.3371 27.3775 19.5653 27.8033 19.9076 28.1178C20.339 28.5157 20.9039 28.7133 21.5996 28.7133C22.2953 28.7133 22.8769 28.5436 23.2916 28.2041C23.7062 27.8645 23.9122 27.3942 23.9122 26.7931C23.9122 26.2894 23.748 25.872 23.4196 25.5436C23.0912 25.2152 22.6877 24.9425 22.2063 24.731C21.7276 24.5195 21.0458 24.2746 20.1608 24.0047C18.8835 23.5984 17.8399 23.1921 17.0301 22.783C16.2203 22.3767 15.5246 21.7756 14.943 20.9797C14.3613 20.1866 14.0691 19.1486 14.0691 17.8685C14.0691 15.9706 14.737 14.4817 16.07 13.4075C17.4058 12.3333 19.1423 11.7935 21.2879 11.7935C23.4335 11.7935 25.2257 12.3305 26.5615 13.4075C27.7497 14.3648 28.4455 15.6533 28.6514 17.2785C28.6931 17.6097 28.4288 17.8991 28.0976 17.8991H23.9734C23.7174 17.8991 23.4864 17.7293 23.4335 17.4789C23.3361 17.0169 23.1191 16.6384 22.7823 16.3434C22.351 15.965 21.7944 15.7757 21.1182 15.7757C20.5365 15.7757 20.0662 15.9344 19.7073 16.2544C19.351 16.5744 19.1701 17.0336 19.1701 17.6347C19.1701 18.2942 19.4707 18.8063 20.0718 19.1764C20.6729 19.5438 21.6135 19.9417 22.8909 20.3675C24.1682 20.8127 25.2062 21.2385 26.0077 21.6476C26.8063 22.0539 27.4965 22.6467 28.0809 23.4203C28.6625 24.1967 28.9547 25.193 28.9547 26.4147C28.9547 27.6363 28.6681 28.6326 28.0948 29.5844C27.5215 30.5333 26.6895 31.2903 25.5986 31.8524C24.5077 32.4146 23.2192 32.6956 21.736 32.6956C20.2527 32.6956 18.9921 32.4535 17.8455 31.9693H17.8511Z" fill="white"/>
</svg>
