<svg width="171" height="120" viewBox="0 0 171 120" fill="none" xmlns="http://www.w3.org/2000/svg">
<rect width="171" height="120" fill="white"/>
<g clip-path="url(#clip0_969_18168)">
<path d="M55.3876 67.6322C60.8485 67.6322 65.2752 72.0592 65.2752 77.5198C65.2752 82.9806 60.8485 87.4074 55.3876 87.4074C49.9268 87.4074 45.5 82.9806 45.5 77.52C45.5 72.0595 49.9268 67.6322 55.3876 67.6322ZM81.4039 37.664C75.9175 37.9648 71.6603 42.5671 71.7879 48.0606V74.6198C71.7879 81.8276 74.9594 86.2034 79.6062 87.1361C81.0468 87.4282 82.5344 87.3959 83.9611 87.0417C85.3877 86.6874 86.7176 86.02 87.8542 85.0879C88.9909 84.1559 89.9058 82.9825 90.5327 81.6529C91.1595 80.3233 91.4825 78.8708 91.4783 77.4009V47.6029C91.4808 46.2855 91.2209 44.9809 90.7138 43.7651C90.2067 42.5493 89.4625 41.4466 88.5247 40.5215C87.587 39.5963 86.4743 38.8672 85.2517 38.3766C84.0291 37.8861 82.7211 37.6436 81.4039 37.664Z" fill="#E37400"/>
<path d="M117.614 77.4328C117.621 78.8388 117.33 80.2304 116.759 81.5152C116.187 82.8 115.35 83.9487 114.301 84.8853C113.252 85.8218 112.016 86.5247 110.675 86.9474C109.334 87.3702 107.919 87.5031 106.522 87.3373C101.44 86.5852 97.715 82.1624 97.8389 77.0257V17.9714C97.7161 12.8294 101.45 8.40405 106.539 7.66011C107.934 7.49675 109.348 7.63144 110.687 8.05526C112.026 8.47908 113.26 9.18238 114.307 10.1186C115.354 11.0549 116.19 12.2028 116.76 13.4863C117.33 14.7699 117.621 16.1599 117.614 17.5643V77.4328Z" fill="#F9AB00"/>
</g>
<path d="M80.5098 104.597C80.5098 107.119 78.835 108.739 76.251 108.739C73.4551 108.739 71.6914 106.75 71.6914 103.564C71.6914 100.42 73.4756 98.3965 76.2373 98.3965C78.4795 98.3965 80.1064 99.668 80.4414 101.664H78.9033C78.5205 100.475 77.584 99.8252 76.2373 99.8252C74.4121 99.8252 73.2568 101.268 73.2568 103.551C73.2568 105.875 74.4189 107.311 76.2715 107.311C77.8848 107.311 78.9922 106.326 79.0059 104.863V104.651H76.4629V103.366H80.5098V104.597ZM88.7881 108.5L87.8857 105.882H84.126L83.2168 108.5H81.6445L85.2061 98.6357H86.8535L90.415 108.5H88.7881ZM85.9512 100.427L84.5156 104.597H87.4961L86.0674 100.427H85.9512ZM96.5059 108.5V106.593H91.6934V105.171C92.5752 103.558 94.0449 101.268 95.8018 98.6357H97.9824V105.226H99.3428V106.593H97.9824V108.5H96.5059ZM93.1631 105.164V105.26H96.5264V99.9824H96.4375C95.46 101.397 94.3252 103.147 93.1631 105.164Z" fill="#888888"/>
<defs>
<clipPath id="clip0_969_18168">
<rect width="80" height="80" fill="white" transform="translate(45.5 7.5)"/>
</clipPath>
</defs>
</svg>
