<svg width="171" height="120" viewBox="0 0 171 120" fill="none" xmlns="http://www.w3.org/2000/svg">
<rect width="171" height="120" fill="white"/>
<g clip-path="url(#clip0_1073_19435)">
<path d="M85.5 7.5C63.4375 7.5 45.5 25.4375 45.5 47.5C45.5 69.5625 63.4375 87.5 85.5 87.5C107.562 87.5 125.5 69.5625 125.5 47.5C125.5 25.4375 107.562 7.5 85.5 7.5ZM53.75 47.5L85.5 79.25C67.9375 79.25 53.75 65.0625 53.75 47.5ZM92.625 78.4375L54.5625 40.3125C57.8125 26.25 70.4375 15.75 85.5 15.75C95.875 15.75 105.063 20.6875 110.812 28.375L106.125 32.875C101.562 26.375 94.0625 22.1875 85.5 22.1875C74.5 22.1875 65.1875 29.1875 61.6875 38.9375C66.1875 43.125 92.625 69.25 94.3125 71.25C102.25 68.3125 108.25 61.5625 110.188 53.1875H96.6875V47.3125L117.313 47.4375C117.25 62.625 106.75 75.25 92.625 78.4375Z" fill="#64328B"/>
</g>
<path d="M71.3701 104.597C71.3701 107.119 69.6953 108.739 67.1113 108.739C64.3154 108.739 62.5518 106.75 62.5518 103.564C62.5518 100.42 64.3359 98.3965 67.0977 98.3965C69.3398 98.3965 70.9668 99.668 71.3018 101.664H69.7637C69.3809 100.475 68.4443 99.8252 67.0977 99.8252C65.2725 99.8252 64.1172 101.268 64.1172 103.551C64.1172 105.875 65.2793 107.311 67.1318 107.311C68.7451 107.311 69.8525 106.326 69.8662 104.863V104.651H67.3232V103.366H71.3701V104.597ZM75.7178 107.386C76.8252 107.386 77.6455 106.682 77.6455 105.759V105.137L75.8271 105.253C74.8018 105.321 74.3369 105.67 74.3369 106.326C74.3369 106.996 74.918 107.386 75.7178 107.386ZM75.3418 108.623C73.9062 108.623 72.8604 107.755 72.8604 106.395C72.8604 105.055 73.8584 104.282 75.6289 104.173L77.6455 104.057V103.414C77.6455 102.628 77.126 102.184 76.1211 102.184C75.3008 102.184 74.7334 102.484 74.5693 103.011H73.1475C73.2979 101.732 74.501 100.912 76.1895 100.912C78.0557 100.912 79.1084 101.842 79.1084 103.414V108.5H77.6934V107.454H77.5771C77.1328 108.199 76.3193 108.623 75.3418 108.623ZM81.7197 99.2031H83.1895V101.09H84.8027V102.327H83.1895V106.155C83.1895 106.935 83.5107 107.276 84.2422 107.276C84.4678 107.276 84.5977 107.263 84.8027 107.242V108.466C84.5635 108.507 84.29 108.541 84.0029 108.541C82.3691 108.541 81.7197 107.967 81.7197 106.531V102.327H80.5371V101.09H81.7197V99.2031ZM86.252 103.161C86.252 101.842 87.4619 100.912 89.1436 100.912C90.8184 100.912 91.9121 101.691 92.0557 103.004H90.6475C90.5107 102.457 89.9775 102.108 89.1436 102.108C88.3232 102.108 87.7012 102.498 87.7012 103.079C87.7012 103.523 88.0771 103.804 88.8838 103.988L90.1211 104.275C91.5361 104.604 92.1992 105.212 92.1992 106.306C92.1992 107.707 90.8936 108.644 89.1162 108.644C87.3457 108.644 86.1904 107.844 86.0605 106.524H87.5303C87.7148 107.099 88.2617 107.454 89.1504 107.454C90.0664 107.454 90.7158 107.044 90.7158 106.449C90.7158 106.005 90.3672 105.718 89.6221 105.54L88.3232 105.239C86.9082 104.904 86.252 104.269 86.252 103.161ZM97.9141 108.623C96.875 108.623 96.0068 108.145 95.5625 107.324H95.4531V108.5H94.0381V98.1504H95.5078V102.238H95.624C96.0205 101.425 96.8955 100.933 97.9141 100.933C99.8008 100.933 100.99 102.409 100.99 104.774C100.99 107.133 99.7939 108.623 97.9141 108.623ZM97.4902 102.252C96.2598 102.252 95.4873 103.223 95.4805 104.781C95.4873 106.34 96.2529 107.304 97.4902 107.304C98.7344 107.304 99.4795 106.354 99.4795 104.774C99.4795 103.209 98.7344 102.252 97.4902 102.252ZM103.212 111.2C103.089 111.2 102.74 111.187 102.604 111.166V109.901C102.72 109.922 102.945 109.929 103.082 109.929C103.779 109.929 104.176 109.642 104.429 108.89L104.538 108.527L101.845 101.056H103.444L105.311 106.969H105.427L107.286 101.056H108.845L106.069 108.808C105.434 110.619 104.729 111.2 103.212 111.2Z" fill="#888888"/>
<defs>
<clipPath id="clip0_1073_19435">
<rect width="80" height="80" fill="white" transform="translate(45.5 7.5)"/>
</clipPath>
</defs>
</svg>
