<svg width="171" height="120" viewBox="0 0 171 120" fill="none" xmlns="http://www.w3.org/2000/svg">
<rect width="171" height="120" fill="white"/>
<g clip-path="url(#clip0_969_17997)">
<path d="M106.75 7.51611H64.25C53.8947 7.51611 45.5 15.9108 45.5 26.2661V68.7661C45.5 79.1215 53.8947 87.5161 64.25 87.5161H106.75C117.105 87.5161 125.5 79.1215 125.5 68.7661V26.2661C125.5 15.9108 117.105 7.51611 106.75 7.51611Z" fill="#F4F2ED"/>
<path d="M95.8159 36.3879L101.249 30.9548L101.611 28.6673C91.7109 19.6651 75.9734 20.686 67.0484 30.7973C64.5697 33.6054 62.7306 37.1067 61.75 40.7223L63.6956 40.4479L74.5613 38.6563L75.4 37.7985C80.2331 32.4904 88.4053 31.776 93.9859 36.2923L95.8159 36.3879Z" fill="#EA4335"/>
<path d="M108.988 40.5635C107.74 35.9647 105.176 31.8305 101.611 28.6685L93.9858 36.2935C95.5749 37.5919 96.8485 39.2343 97.7103 41.0967C98.5722 42.9591 98.9999 44.9929 98.9611 47.0447V48.3981C102.709 48.3981 105.747 51.4363 105.747 55.1841C105.747 58.9319 102.709 61.8944 98.9611 61.8944H85.3695L84.0352 63.3431V71.4828L85.3695 72.76H98.9611C108.71 72.836 116.674 65.071 116.75 55.3225C116.773 52.4133 116.076 49.5435 114.722 46.9685C113.368 44.3936 111.398 42.1933 108.988 40.5635Z" fill="#4285F4"/>
<path d="M71.8005 72.7613H85.373V61.8956H71.8005C70.8396 61.8956 69.8901 61.6875 69.0173 61.2856L67.092 61.8766L61.6211 67.3094L61.1445 69.1585C64.2127 71.475 67.9558 72.7778 71.8005 72.7613Z" fill="#34A853"/>
<path d="M71.7969 37.5165C62.0481 37.5747 54.1925 45.5247 54.2503 55.2731C54.2665 57.9595 54.8955 60.6068 56.0896 63.0134C57.2836 65.4199 59.0112 67.5221 61.1406 69.16L69.0134 61.2872C65.5978 59.744 64.08 55.724 65.6231 52.3087C67.1663 48.8934 71.1863 47.3753 74.6013 48.9181C76.1063 49.5982 77.3118 50.8036 77.9919 52.3087L85.8647 44.4359C84.2123 42.2756 82.0826 40.5268 79.6421 39.3264C77.2015 38.126 74.5163 37.5064 71.7966 37.5162" fill="#FBBC05"/>
</g>
<path d="M80.2637 104.581C80.2637 107.103 78.5889 108.723 76.0049 108.723C73.209 108.723 71.4453 106.734 71.4453 103.548C71.4453 100.404 73.2295 98.3804 75.9912 98.3804C78.2334 98.3804 79.8604 99.6519 80.1953 101.648H78.6572C78.2744 100.458 77.3379 99.8091 75.9912 99.8091C74.166 99.8091 73.0107 101.251 73.0107 103.535C73.0107 105.859 74.1729 107.294 76.0254 107.294C77.6387 107.294 78.7461 106.31 78.7598 104.847V104.635H76.2168V103.35H80.2637V104.581ZM86.4229 108.723C83.6816 108.723 81.9727 106.748 81.9727 103.555C81.9727 100.356 83.6748 98.3804 86.416 98.3804C88.5898 98.3804 90.2715 99.7886 90.5176 101.798H88.9932C88.7061 100.588 87.7148 99.8091 86.416 99.8091C84.6455 99.8091 83.5381 101.251 83.5381 103.555C83.5381 105.852 84.6455 107.294 86.4229 107.294C87.7285 107.294 88.7197 106.59 88.9932 105.476H90.5176C90.2441 107.424 88.624 108.723 86.4229 108.723ZM92.5342 98.6196H96.3965C98.3242 98.6196 99.6504 99.9526 99.6504 101.908C99.6504 103.835 98.2832 105.162 96.3486 105.162H94.0654V108.484H92.5342V98.6196ZM94.0654 99.9731V103.815H95.9932C97.3125 103.815 98.085 103.131 98.085 101.908C98.085 100.657 97.3398 99.9731 95.9932 99.9731H94.0654Z" fill="#888888"/>
<defs>
<clipPath id="clip0_969_17997">
<rect width="80" height="80" fill="white" transform="translate(45.5 7.51611)"/>
</clipPath>
</defs>
</svg>
