<svg width="171" height="120" viewBox="0 0 171 120" fill="none" xmlns="http://www.w3.org/2000/svg">
<rect width="171" height="120" fill="white"/>
<mask id="mask0_1073_19044" style="mask-type:luminance" maskUnits="userSpaceOnUse" x="57" y="8" width="57" height="79">
<path d="M57.2734 8.13818H113.836V86.8882H57.2734V8.13818Z" fill="white"/>
</mask>
<g mask="url(#mask0_1073_19044)">
<path fill-rule="evenodd" clip-rule="evenodd" d="M58.7122 50.4522C58.8372 52.6397 61.0247 51.6397 62.0247 50.9522C62.9622 50.2647 63.2747 50.8272 63.3372 49.5147C63.3997 48.6397 63.4622 47.8272 63.4622 46.9522C62.0247 46.8272 60.4622 47.1397 59.2747 48.0147C58.7122 48.4522 57.5247 49.8897 58.7122 50.4522Z" fill="#F6D2A2"/>
</g>
<mask id="mask1_1073_19044" style="mask-type:luminance" maskUnits="userSpaceOnUse" x="57" y="8" width="57" height="79">
<path d="M57.2734 8.13818H113.836V86.8882H57.2734V8.13818Z" fill="white"/>
</mask>
<g mask="url(#mask1_1073_19044)">
<path d="M59.8862 52.0146C59.4487 52.0146 58.6362 51.8271 58.5112 50.5771C58.1362 50.3271 58.0112 50.0146 58.0112 49.8271C57.9487 49.0771 58.7612 48.2021 59.1987 47.8896C60.1987 47.1396 61.5112 46.7646 62.8862 46.7646H63.6987V46.9521C63.7612 47.6396 63.6987 48.3272 63.6362 48.9522C63.6362 49.1397 63.6362 49.3271 63.5737 49.5146C63.5112 50.4521 63.3237 50.5771 62.8862 50.7646C62.6987 50.8271 62.5112 50.8897 62.1987 51.1397C61.8862 51.3272 60.8237 52.0146 59.8862 52.0146ZM62.8862 47.1396C61.5737 47.1396 60.3862 47.5146 59.4487 48.2021C59.0112 48.5146 58.3862 49.2646 58.4487 49.7646C58.4487 49.9521 58.5737 50.1396 58.8237 50.2646L58.9487 50.3271V50.4521C59.0112 51.4521 59.5112 51.5771 59.8862 51.5771C60.5112 51.5771 61.3862 51.1396 61.9487 50.7646C62.3237 50.5146 62.5737 50.4521 62.7612 50.3896C63.0737 50.2646 63.1362 50.2646 63.1987 49.5146C63.1987 49.3271 63.1987 49.1397 63.2612 48.9522C63.3237 48.3897 63.3237 47.7646 63.3237 47.2021C63.1362 47.1396 63.0112 47.1396 62.8862 47.1396Z" fill="black"/>
</g>
<mask id="mask2_1073_19044" style="mask-type:luminance" maskUnits="userSpaceOnUse" x="57" y="8" width="57" height="79">
<path d="M57.2734 8.13818H113.836V86.8882H57.2734V8.13818Z" fill="white"/>
</mask>
<g mask="url(#mask2_1073_19044)">
<path fill-rule="evenodd" clip-rule="evenodd" d="M58.7109 50.4507C59.0234 50.3257 59.3984 50.2632 59.5859 49.9507L58.7109 50.4507Z" fill="#C6B198"/>
</g>
<mask id="mask3_1073_19044" style="mask-type:luminance" maskUnits="userSpaceOnUse" x="57" y="8" width="57" height="79">
<path d="M57.2734 8.13818H113.836V86.8882H57.2734V8.13818Z" fill="white"/>
</mask>
<g mask="url(#mask3_1073_19044)">
<path d="M58.7081 50.6392C58.6456 50.6392 58.5206 50.5767 58.5206 50.5142C58.4581 50.3892 58.5206 50.2642 58.6456 50.2642C58.7081 50.2642 58.7706 50.2017 58.7706 50.2017C59.0206 50.0767 59.2706 50.0142 59.3956 49.8267C59.4581 49.7642 59.5831 49.7017 59.7081 49.7642C59.7706 49.8267 59.8331 49.9517 59.7706 50.0767C59.5206 50.3892 59.2081 50.5142 58.9581 50.5767L58.8331 50.6392H58.7081Z" fill="black"/>
</g>
<mask id="mask4_1073_19044" style="mask-type:luminance" maskUnits="userSpaceOnUse" x="57" y="8" width="57" height="79">
<path d="M57.2734 8.13818H113.836V86.8882H57.2734V8.13818Z" fill="white"/>
</mask>
<g mask="url(#mask4_1073_19044)">
<path fill-rule="evenodd" clip-rule="evenodd" d="M63.8226 24.0136C55.3226 21.6386 61.6351 10.8261 68.4476 15.2636L63.8226 24.0136Z" fill="#6AD7E5"/>
</g>
<mask id="mask5_1073_19044" style="mask-type:luminance" maskUnits="userSpaceOnUse" x="57" y="8" width="57" height="79">
<path d="M57.2734 8.13818H113.836V86.8882H57.2734V8.13818Z" fill="white"/>
</mask>
<g mask="url(#mask5_1073_19044)">
<path d="M63.9436 24.2632L63.7561 24.2007C59.3811 22.9507 59.4436 19.8257 59.5686 18.8882C59.8811 16.5132 62.1311 14.0132 65.1311 14.0132C66.3186 14.0132 67.4436 14.3882 68.5686 15.1382L68.7561 15.2632L63.9436 24.2632ZM65.1311 14.4507C62.3186 14.4507 60.2561 16.7632 59.9436 18.9507C59.6311 21.2007 61.0061 22.9507 63.6936 23.7632L68.1311 15.3257C67.1936 14.7632 66.1936 14.4507 65.1311 14.4507Z" fill="black"/>
</g>
<mask id="mask6_1073_19044" style="mask-type:luminance" maskUnits="userSpaceOnUse" x="57" y="8" width="57" height="79">
<path d="M57.2734 8.13818H113.836V86.8882H57.2734V8.13818Z" fill="white"/>
</mask>
<g mask="url(#mask6_1073_19044)">
<path fill-rule="evenodd" clip-rule="evenodd" d="M101.523 14.4523C108.211 9.76475 114.336 20.3898 106.523 23.0773L101.523 14.4523Z" fill="#6AD7E5"/>
</g>
<mask id="mask7_1073_19044" style="mask-type:luminance" maskUnits="userSpaceOnUse" x="57" y="8" width="57" height="79">
<path d="M57.2734 8.13818H113.836V86.8882H57.2734V8.13818Z" fill="white"/>
</mask>
<g mask="url(#mask7_1073_19044)">
<path d="M106.457 23.3271L101.27 14.3896L101.457 14.2646C102.645 13.4521 103.832 13.0146 105.02 13.0146C107.895 13.0146 109.957 15.3896 110.395 17.7021C110.582 18.6396 110.77 21.8271 106.645 23.2021L106.457 23.3271ZM101.832 14.5771L106.645 22.8896C109.082 22.0146 110.332 20.1396 109.957 17.8896C109.582 15.7646 107.645 13.5771 105.02 13.5771C103.957 13.5146 102.895 13.8271 101.832 14.5771Z" fill="black"/>
</g>
<mask id="mask8_1073_19044" style="mask-type:luminance" maskUnits="userSpaceOnUse" x="57" y="8" width="57" height="79">
<path d="M57.2734 8.13818H113.836V86.8882H57.2734V8.13818Z" fill="white"/>
</mask>
<g mask="url(#mask8_1073_19044)">
<path fill-rule="evenodd" clip-rule="evenodd" d="M103.008 77.7021C104.695 78.7646 107.82 81.9521 105.258 83.5146C102.82 85.7646 101.445 81.0146 99.2578 80.3896C100.195 79.1396 101.383 77.9521 103.008 77.7021Z" fill="#F6D2A2"/>
</g>
<mask id="mask9_1073_19044" style="mask-type:luminance" maskUnits="userSpaceOnUse" x="57" y="8" width="57" height="79">
<path d="M57.2734 8.13818H113.836V86.8882H57.2734V8.13818Z" fill="white"/>
</mask>
<g mask="url(#mask9_1073_19044)">
<path d="M103.949 84.3267C102.949 84.3267 102.074 83.3267 101.324 82.3892C100.637 81.6392 99.9492 80.8267 99.1992 80.5767L98.8867 80.5142L99.0742 80.2642C99.8242 79.2017 101.074 77.8267 102.949 77.5142H103.012L103.074 77.5767C104.137 78.2642 106.449 80.2017 106.387 82.0142C106.387 82.7017 106.012 83.2642 105.324 83.7017C104.887 84.1392 104.449 84.3267 103.949 84.3267ZM99.5742 80.2642C100.324 80.5767 100.949 81.3892 101.574 82.0767C102.324 83.0142 103.074 83.8267 103.887 83.8267C104.262 83.8267 104.637 83.6392 105.012 83.2642H105.074C105.637 82.8892 105.949 82.4517 105.949 81.8892C105.949 80.4517 104.137 78.6392 102.887 77.8267C101.762 78.1392 100.637 78.8892 99.5742 80.2642ZM105.262 83.7017C105.199 83.7017 105.137 83.6392 105.074 83.5767C104.949 83.3267 104.824 83.0142 104.762 82.7642C104.574 82.2642 104.387 81.7642 104.012 81.3892C103.949 81.3267 103.949 81.2017 104.012 81.0767C104.074 81.0142 104.199 81.0142 104.324 81.0767C104.762 81.5142 105.012 82.0767 105.199 82.6392L105.512 83.3892C105.574 83.5142 105.512 83.6392 105.449 83.7017H105.262Z" fill="black"/>
</g>
<mask id="mask10_1073_19044" style="mask-type:luminance" maskUnits="userSpaceOnUse" x="57" y="8" width="57" height="79">
<path d="M57.2734 8.13818H113.836V86.8882H57.2734V8.13818Z" fill="white"/>
</mask>
<g mask="url(#mask10_1073_19044)">
<path fill-rule="evenodd" clip-rule="evenodd" d="M72.5101 81.3261C70.5101 81.6386 69.3851 83.4511 67.6976 84.3886C66.1351 85.3261 65.5101 84.0761 65.3851 83.8261C65.1351 83.7011 65.1351 83.9511 64.7601 83.5761C63.3226 81.2636 66.2601 79.5761 67.8226 78.4511C70.0101 77.9511 71.3851 79.8261 72.5101 81.3261Z" fill="#F6D2A2"/>
</g>
<mask id="mask11_1073_19044" style="mask-type:luminance" maskUnits="userSpaceOnUse" x="57" y="8" width="57" height="79">
<path d="M57.2734 8.13818H113.836V86.8882H57.2734V8.13818Z" fill="white"/>
</mask>
<g mask="url(#mask11_1073_19044)">
<path d="M66.6311 84.8892C65.8186 84.8892 65.3811 84.2017 65.2561 83.9517H65.1936C65.0061 83.9517 64.8811 83.8892 64.6311 83.6392V83.5767C63.2561 81.3892 65.6311 79.7017 67.1936 78.5767L67.7561 78.2017H67.8811C68.1311 78.1392 68.3186 78.1392 68.5686 78.1392C70.4436 78.1392 71.6311 79.7642 72.6311 81.0767L72.9436 81.5142L72.5686 81.5767C71.3811 81.7642 70.5061 82.5142 69.6311 83.2642C69.0686 83.7642 68.5061 84.2017 67.8811 84.5767C67.3811 84.7642 67.0061 84.8892 66.6311 84.8892ZM65.2561 83.5767C65.3186 83.5767 65.3811 83.5767 65.5061 83.6392H65.5686L65.6311 83.7017C65.7561 83.8892 66.0686 84.4517 66.6936 84.4517C67.0061 84.4517 67.3186 84.3267 67.6311 84.1392C68.2561 83.8267 68.8186 83.3267 69.3186 82.8892C70.1311 82.2017 71.0061 81.4517 72.1311 81.1392C71.1936 79.8892 70.0686 78.5142 68.5061 78.5142C68.3186 78.5142 68.1311 78.5142 67.9436 78.5767L67.4436 78.9517C65.8186 80.0767 63.8186 81.5142 65.0061 83.3892C65.0686 83.5142 65.1311 83.5767 65.2561 83.5767ZM65.3811 84.0142C65.2561 84.0142 65.1311 83.8892 65.1936 83.7642C65.2561 83.1392 65.5686 82.7017 65.8811 82.2017C66.0686 81.9517 66.1936 81.7017 66.3186 81.4517C66.3811 81.3267 66.5061 81.3267 66.5686 81.3267C66.6936 81.3892 66.6936 81.5142 66.6936 81.5767C66.5686 81.8892 66.3811 82.1392 66.1936 82.3892C65.8811 82.8267 65.6311 83.2017 65.5686 83.7017C65.5686 83.9517 65.5061 84.0142 65.3811 84.0142Z" fill="black"/>
</g>
<mask id="mask12_1073_19044" style="mask-type:luminance" maskUnits="userSpaceOnUse" x="57" y="8" width="57" height="79">
<path d="M57.2734 8.13818H113.836V86.8882H57.2734V8.13818Z" fill="white"/>
</mask>
<g mask="url(#mask12_1073_19044)">
<path fill-rule="evenodd" clip-rule="evenodd" d="M64.1983 21.076C63.0733 20.5135 62.2608 19.701 62.9483 18.3885C63.5733 17.201 64.7608 17.326 65.8858 17.8885L64.1983 21.076ZM104.761 19.951C105.886 19.3885 106.698 18.576 106.011 17.2635C105.386 16.076 104.198 16.201 103.073 16.7635L104.761 19.951Z" fill="black"/>
</g>
<mask id="mask13_1073_19044" style="mask-type:luminance" maskUnits="userSpaceOnUse" x="57" y="8" width="57" height="79">
<path d="M57.2734 8.13818H113.836V86.8882H57.2734V8.13818Z" fill="white"/>
</mask>
<g mask="url(#mask13_1073_19044)">
<path fill-rule="evenodd" clip-rule="evenodd" d="M112.445 50.1397C112.32 52.3272 110.133 51.3272 109.133 50.6397C108.195 49.9522 107.883 50.5147 107.82 49.2022C107.758 48.3272 107.695 47.5147 107.695 46.6397C109.133 46.5147 110.695 46.8272 111.883 47.7022C112.508 48.2022 113.633 49.5772 112.445 50.1397Z" fill="#F6D2A2"/>
</g>
<mask id="mask14_1073_19044" style="mask-type:luminance" maskUnits="userSpaceOnUse" x="57" y="8" width="57" height="79">
<path d="M57.2734 8.13818H113.836V86.8882H57.2734V8.13818Z" fill="white"/>
</mask>
<g mask="url(#mask14_1073_19044)">
<path d="M111.319 51.7021C110.381 51.7021 109.319 51.0147 109.006 50.8272C108.694 50.6397 108.506 50.5146 108.319 50.4521C107.819 50.2646 107.694 50.1396 107.631 49.2021C107.631 49.0146 107.631 48.8272 107.569 48.6397C107.506 48.0147 107.444 47.3271 107.506 46.6396V46.4521H108.319C109.694 46.4521 111.006 46.8271 112.006 47.5771C112.444 47.8896 113.256 48.7646 113.194 49.5146C113.194 49.7646 113.069 50.0771 112.694 50.2646C112.569 51.5146 111.756 51.7021 111.319 51.7021ZM107.881 46.8896C107.881 47.4521 107.881 48.0772 107.944 48.6397C107.944 48.8272 107.944 49.0146 108.006 49.2021C108.069 49.9521 108.131 49.9521 108.444 50.0771C108.631 50.1396 108.881 50.2646 109.256 50.4521C109.819 50.8271 110.694 51.2646 111.319 51.2646C111.694 51.2646 112.194 51.1396 112.256 50.1396V50.0146L112.381 49.9521C112.631 49.8271 112.756 49.7021 112.756 49.4521C112.819 48.9521 112.194 48.2021 111.756 47.8896C110.819 47.2021 109.569 46.8271 108.319 46.8271C108.194 46.8896 108.069 46.8896 107.881 46.8896Z" fill="black"/>
</g>
<mask id="mask15_1073_19044" style="mask-type:luminance" maskUnits="userSpaceOnUse" x="57" y="8" width="57" height="79">
<path d="M57.2734 8.13818H113.836V86.8882H57.2734V8.13818Z" fill="white"/>
</mask>
<g mask="url(#mask15_1073_19044)">
<path fill-rule="evenodd" clip-rule="evenodd" d="M112.457 50.1382C112.145 50.0132 111.77 49.9507 111.582 49.6382L112.457 50.1382Z" fill="#C6B198"/>
</g>
<mask id="mask16_1073_19044" style="mask-type:luminance" maskUnits="userSpaceOnUse" x="57" y="8" width="57" height="79">
<path d="M57.2734 8.13818H113.836V86.8882H57.2734V8.13818Z" fill="white"/>
</mask>
<g mask="url(#mask16_1073_19044)">
<path d="M112.447 50.3882H112.385L112.26 50.3257C111.947 50.2007 111.635 50.1382 111.447 49.8257C111.385 49.7632 111.385 49.5757 111.51 49.5132C111.572 49.4507 111.76 49.4507 111.822 49.5757C111.947 49.7632 112.197 49.8257 112.447 49.9507C112.51 49.9507 112.572 50.0132 112.572 50.0132C112.697 50.0757 112.76 50.2007 112.697 50.2632C112.635 50.3257 112.51 50.3882 112.447 50.3882Z" fill="black"/>
</g>
<mask id="mask17_1073_19044" style="mask-type:luminance" maskUnits="userSpaceOnUse" x="57" y="8" width="57" height="79">
<path d="M57.2734 8.13818H113.836V86.8882H57.2734V8.13818Z" fill="white"/>
</mask>
<g mask="url(#mask17_1073_19044)">
<path fill-rule="evenodd" clip-rule="evenodd" d="M84.7559 10.0142C93.2559 10.0142 101.193 11.2017 105.381 19.3892C109.131 28.5142 107.756 38.3892 108.381 48.0767C108.881 56.3892 109.943 65.9517 106.131 73.6392C102.068 81.7017 91.9434 83.7642 83.6309 83.4517C77.0684 83.2017 69.1934 81.0767 65.4434 75.0767C61.1309 68.0767 63.1309 57.6392 63.4434 49.8267C63.8184 40.5767 60.9434 31.2642 64.0059 22.2642C67.0684 12.8267 75.5684 10.7017 84.7559 10.0142Z" fill="#6AD7E5"/>
</g>
<mask id="mask18_1073_19044" style="mask-type:luminance" maskUnits="userSpaceOnUse" x="57" y="8" width="57" height="79">
<path d="M57.2734 8.13818H113.836V86.8882H57.2734V8.13818Z" fill="white"/>
</mask>
<g mask="url(#mask18_1073_19044)">
<path d="M85.074 83.701H83.5115C80.949 83.6385 77.074 83.201 73.2615 81.6385C69.574 80.1385 66.8865 78.0135 65.1365 75.201C61.6365 69.5135 62.2615 61.701 62.824 54.7635C62.949 53.0135 63.074 51.3885 63.1365 49.826C63.2615 46.576 63.0115 43.201 62.699 40.0135C62.199 34.1385 61.699 28.076 63.6365 22.201C65.1365 17.826 67.824 14.701 71.8865 12.701C75.074 11.1385 79.0115 10.2635 84.6365 9.82599C93.0115 9.76349 101.324 10.951 105.512 19.2635C108.262 25.951 108.262 33.1385 108.324 40.076C108.324 42.701 108.324 45.3885 108.512 48.0135C108.574 48.826 108.637 49.6385 108.637 50.451C109.137 58.076 109.699 66.701 106.199 73.701C104.449 77.2635 101.387 79.8885 97.199 81.576C93.824 82.951 89.574 83.701 85.074 83.701ZM84.7615 10.201C75.949 10.8885 67.324 12.826 64.1365 22.326C62.199 28.1385 62.699 34.1385 63.199 39.951C63.449 43.201 63.7615 46.5135 63.6365 49.826C63.574 51.3885 63.449 53.0135 63.324 54.7635C62.7615 61.6385 62.1365 69.3885 65.574 74.951C67.0115 77.2635 71.6365 82.7635 83.574 83.201H85.1365C98.949 83.201 104.074 77.076 105.949 73.451C109.387 66.576 108.824 57.951 108.387 50.3885C108.324 49.576 108.262 48.7635 108.262 47.951C108.137 45.326 108.074 42.6385 108.074 40.0135C108.012 33.1385 108.012 25.951 105.324 19.326C103.449 15.6385 100.637 13.1385 96.7615 11.701C92.7615 10.3885 88.2615 10.201 84.7615 10.201Z" fill="black"/>
</g>
<mask id="mask19_1073_19044" style="mask-type:luminance" maskUnits="userSpaceOnUse" x="57" y="8" width="57" height="79">
<path d="M57.2734 8.13818H113.836V86.8882H57.2734V8.13818Z" fill="white"/>
</mask>
<g mask="url(#mask19_1073_19044)">
<path fill-rule="evenodd" clip-rule="evenodd" d="M86.2645 21.3888C87.7645 30.2638 102.265 27.8888 100.202 18.9513C98.327 10.9513 85.7645 13.2013 86.2645 21.3888Z" fill="white"/>
</g>
<mask id="mask20_1073_19044" style="mask-type:luminance" maskUnits="userSpaceOnUse" x="57" y="8" width="57" height="79">
<path d="M57.2734 8.13818H113.836V86.8882H57.2734V8.13818Z" fill="white"/>
</mask>
<g mask="url(#mask20_1073_19044)">
<path d="M93.1368 27.2026C90.3243 27.2026 86.7618 25.7026 86.0118 21.4526C85.8868 19.4526 86.5118 17.6401 87.8243 16.2651C89.2618 14.7026 91.4493 13.8276 93.6993 13.8276C96.3243 13.8276 99.4493 15.2026 100.324 19.0151C100.824 21.1401 100.449 23.0151 99.2618 24.5151C97.9493 26.1401 95.6368 27.2026 93.1368 27.2026ZM86.4493 21.3901C86.7618 23.1401 87.5743 24.5151 88.8868 25.5151C90.0118 26.3901 91.5743 26.8276 93.1368 26.8276C95.4493 26.8276 97.6993 25.8276 98.9493 24.2651C100.074 22.8901 100.387 21.0776 99.9493 19.0776C99.1368 15.5151 96.1993 14.2651 93.6993 14.2651C91.5743 14.2651 89.5118 15.1401 88.1368 16.5776C86.9493 17.8276 86.3243 19.5151 86.4493 21.3901Z" fill="black"/>
</g>
<mask id="mask21_1073_19044" style="mask-type:luminance" maskUnits="userSpaceOnUse" x="57" y="8" width="57" height="79">
<path d="M57.2734 8.13818H113.836V86.8882H57.2734V8.13818Z" fill="white"/>
</mask>
<g mask="url(#mask21_1073_19044)">
<path fill-rule="evenodd" clip-rule="evenodd" d="M68.9591 22.8272C70.9591 30.5147 83.2716 28.5772 82.8341 20.8272C82.2716 11.5772 67.0216 13.3272 68.9591 22.8272Z" fill="white"/>
</g>
<mask id="mask22_1073_19044" style="mask-type:luminance" maskUnits="userSpaceOnUse" x="57" y="8" width="57" height="79">
<path d="M57.2734 8.13818H113.836V86.8882H57.2734V8.13818Z" fill="white"/>
</mask>
<g mask="url(#mask22_1073_19044)">
<path d="M75.5127 27.9512C72.8252 27.9512 69.7002 26.6387 68.7002 22.8887C68.2627 20.7012 68.7002 18.7012 69.9502 17.2012C71.3252 15.5137 73.5752 14.5137 76.0127 14.5137C79.2627 14.5137 82.7002 16.4512 82.9502 20.8262C83.0752 22.6387 82.5127 24.2637 81.2627 25.5762C79.9502 27.0137 77.7627 27.9512 75.5127 27.9512ZM76.0127 14.9512C73.7002 14.9512 71.5752 15.8887 70.2627 17.4512C69.0752 18.8887 68.7002 20.7012 69.1377 22.7637C70.0127 26.2637 73.0127 27.5137 75.5127 27.5137C77.6377 27.5137 79.7002 26.7012 81.0127 25.2637C82.1377 24.0762 82.7002 22.5137 82.5752 20.8262C82.4502 18.1387 80.6377 14.9512 76.0127 14.9512Z" fill="black"/>
</g>
<mask id="mask23_1073_19044" style="mask-type:luminance" maskUnits="userSpaceOnUse" x="57" y="8" width="57" height="79">
<path d="M57.2734 8.13818H113.836V86.8882H57.2734V8.13818Z" fill="white"/>
</mask>
<g mask="url(#mask23_1073_19044)">
<path fill-rule="evenodd" clip-rule="evenodd" d="M88.0216 32.0132C88.0216 33.1382 88.2716 34.4507 88.0841 35.7007C87.7716 36.2632 87.2091 36.3257 86.7091 36.5132C86.0216 36.3882 85.4591 35.9507 85.1466 35.3257C84.9591 33.9507 85.2091 32.5757 85.2716 31.2007L88.0216 32.0132Z" fill="white"/>
</g>
<mask id="mask24_1073_19044" style="mask-type:luminance" maskUnits="userSpaceOnUse" x="57" y="8" width="57" height="79">
<path d="M57.2734 8.13818H113.836V86.8882H57.2734V8.13818Z" fill="white"/>
</mask>
<g mask="url(#mask24_1073_19044)">
<path d="M86.705 36.7651C85.8925 36.6401 85.2675 36.1401 84.955 35.4526C84.83 34.4526 84.8925 33.5151 84.955 32.5776C85.0175 32.1401 85.0175 31.7026 85.0175 31.2651V31.0151L88.205 32.0151V32.1401C88.205 32.5151 88.2675 32.8901 88.2675 33.3276C88.33 34.1401 88.3925 35.0151 88.2675 35.8276V35.8901C88.0175 36.3901 87.58 36.5151 87.1425 36.7026C87.0175 36.6401 86.8925 36.7026 86.705 36.7651ZM85.33 35.2651C85.58 35.8276 86.08 36.2026 86.6425 36.3276C86.7675 36.2651 86.8925 36.2651 86.955 36.2026C87.33 36.0776 87.6425 35.9526 87.83 35.6401C87.955 34.8901 87.8925 34.0776 87.83 33.2651C87.83 32.8901 87.7675 32.5151 87.7675 32.2026L85.3925 31.4526C85.3925 31.8276 85.33 32.2026 85.33 32.5151C85.2675 33.5151 85.205 34.3901 85.33 35.2651Z" fill="black"/>
</g>
<mask id="mask25_1073_19044" style="mask-type:luminance" maskUnits="userSpaceOnUse" x="57" y="8" width="57" height="79">
<path d="M57.2734 8.13818H113.836V86.8882H57.2734V8.13818Z" fill="white"/>
</mask>
<g mask="url(#mask25_1073_19044)">
<path fill-rule="evenodd" clip-rule="evenodd" d="M74.457 21.5757C74.457 22.8257 73.5195 23.8257 72.3945 23.8257C71.2695 23.8257 70.332 22.8257 70.332 21.5757C70.332 20.3257 71.2695 19.3257 72.3945 19.3257C73.5195 19.3257 74.457 20.3257 74.457 21.5757Z" fill="black"/>
</g>
<mask id="mask26_1073_19044" style="mask-type:luminance" maskUnits="userSpaceOnUse" x="57" y="8" width="57" height="79">
<path d="M57.2734 8.13818H113.836V86.8882H57.2734V8.13818Z" fill="white"/>
</mask>
<g mask="url(#mask26_1073_19044)">
<path fill-rule="evenodd" clip-rule="evenodd" d="M73.7734 22.0757C73.7734 22.3882 73.5234 22.6382 73.2734 22.6382C73.0234 22.6382 72.7734 22.3882 72.7734 22.0757C72.7734 21.7632 73.0234 21.5132 73.2734 21.5132C73.5859 21.5132 73.7734 21.7632 73.7734 22.0757Z" fill="white"/>
</g>
<mask id="mask27_1073_19044" style="mask-type:luminance" maskUnits="userSpaceOnUse" x="57" y="8" width="57" height="79">
<path d="M57.2734 8.13818H113.836V86.8882H57.2734V8.13818Z" fill="white"/>
</mask>
<g mask="url(#mask27_1073_19044)">
<path fill-rule="evenodd" clip-rule="evenodd" d="M91.8984 21.0142C91.8984 22.2642 90.9609 23.2642 89.8359 23.2642C88.7109 23.2642 87.7734 22.2642 87.7734 21.0142C87.7734 19.7642 88.7109 18.7642 89.8359 18.7642C90.9609 18.7642 91.8984 19.7642 91.8984 21.0142Z" fill="black"/>
</g>
<mask id="mask28_1073_19044" style="mask-type:luminance" maskUnits="userSpaceOnUse" x="57" y="8" width="57" height="79">
<path d="M57.2734 8.13818H113.836V86.8882H57.2734V8.13818Z" fill="white"/>
</mask>
<g mask="url(#mask28_1073_19044)">
<path fill-rule="evenodd" clip-rule="evenodd" d="M91.2573 21.5142C91.2573 21.8267 91.0698 22.0767 90.7573 22.0767C90.5073 22.0767 90.2573 21.8267 90.2573 21.5142C90.2573 21.2017 90.4448 20.9517 90.7573 20.9517C91.0073 20.9517 91.2573 21.2017 91.2573 21.5142ZM82.0073 31.8892C81.0698 34.0767 82.5073 38.5142 85.0073 35.2642C84.8198 33.8892 85.0698 32.5142 85.1323 31.1392L82.0073 31.8892Z" fill="white"/>
</g>
<mask id="mask29_1073_19044" style="mask-type:luminance" maskUnits="userSpaceOnUse" x="57" y="8" width="57" height="79">
<path d="M57.2734 8.13818H113.836V86.8882H57.2734V8.13818Z" fill="white"/>
</mask>
<g mask="url(#mask29_1073_19044)">
<path d="M83.3276 36.6396C82.8901 36.6396 82.4526 36.3896 82.1401 35.8896C81.4526 34.8896 81.3276 33.0146 81.8276 31.8271L81.8901 31.7021L85.3276 30.8271V31.0771L85.2651 32.4521C85.2026 33.3896 85.1401 34.2646 85.2651 35.2021V35.2646L85.2026 35.3271C84.5776 36.2021 83.9526 36.6396 83.3276 36.6396ZM82.2026 32.0771C81.8276 33.1396 81.9526 34.8271 82.5151 35.6396C82.7651 36.0146 83.0151 36.2021 83.3276 36.2021C83.7651 36.2021 84.2651 35.8271 84.7651 35.2021C84.6401 34.2646 84.7026 33.3271 84.8276 32.4521L84.8901 31.3896L82.2026 32.0771Z" fill="black"/>
</g>
<mask id="mask30_1073_19044" style="mask-type:luminance" maskUnits="userSpaceOnUse" x="57" y="8" width="57" height="79">
<path d="M57.2734 8.13818H113.836V86.8882H57.2734V8.13818Z" fill="white"/>
</mask>
<g mask="url(#mask30_1073_19044)">
<path fill-rule="evenodd" clip-rule="evenodd" d="M82.3224 27.6396C80.6349 27.7646 79.2599 29.8271 80.1349 31.3896C81.3224 33.5146 83.8849 31.2021 85.5099 31.3896C87.3849 31.4521 88.8849 33.3896 90.3849 31.7646C92.0724 29.9521 89.6349 28.2021 87.8224 27.3896L82.3224 27.6396Z" fill="#F6D2A2"/>
</g>
<mask id="mask31_1073_19044" style="mask-type:luminance" maskUnits="userSpaceOnUse" x="57" y="8" width="57" height="79">
<path d="M57.2734 8.13818H113.836V86.8882H57.2734V8.13818Z" fill="white"/>
</mask>
<g mask="url(#mask31_1073_19044)">
<path d="M89.072 32.6392C88.5095 32.6392 87.947 32.3892 87.3845 32.1392C86.822 31.8892 86.197 31.6392 85.5095 31.6392H85.322C84.822 31.6392 84.2595 31.8267 83.6345 32.0767C82.947 32.3267 82.2595 32.5142 81.6345 32.5142C80.8845 32.5142 80.322 32.2017 79.947 31.5142C79.5095 30.7642 79.572 29.8892 80.0095 29.0767C80.5095 28.1392 81.3845 27.5767 82.322 27.4517L87.8845 27.2017H87.947C89.322 27.7642 90.8845 28.8267 91.197 30.0767C91.322 30.7017 91.1345 31.3267 90.6345 31.8892C90.1345 32.4517 89.6345 32.6392 89.072 32.6392ZM85.572 31.2642C86.2595 31.2642 86.947 31.5767 87.572 31.8267C88.1345 32.0767 88.6345 32.2642 89.1345 32.2642C89.572 32.2642 89.947 32.0767 90.322 31.7017C90.7595 31.2642 90.8845 30.7642 90.822 30.2642C90.572 29.2017 89.072 28.2017 87.8845 27.7017L82.447 27.9517C81.6345 28.0142 80.8845 28.5767 80.447 29.3267C80.072 30.0142 80.072 30.7642 80.3845 31.3892C80.697 31.9517 81.072 32.2017 81.697 32.2017C82.2595 32.2017 82.8845 31.9517 83.5095 31.7642C84.197 31.5142 84.7595 31.3267 85.3845 31.3267C85.3845 31.2017 85.447 31.2017 85.572 31.2642Z" fill="#231F20"/>
</g>
<mask id="mask32_1073_19044" style="mask-type:luminance" maskUnits="userSpaceOnUse" x="57" y="8" width="57" height="79">
<path d="M57.2734 8.13818H113.836V86.8882H57.2734V8.13818Z" fill="white"/>
</mask>
<g mask="url(#mask32_1073_19044)">
<path fill-rule="evenodd" clip-rule="evenodd" d="M82.131 27.5775C82.006 24.64 87.631 24.265 88.256 26.7025C88.9435 29.2025 82.381 29.765 82.131 27.5775Z" fill="black"/>
</g>
<path d="M85.6777 104.581C85.6777 107.103 84.0029 108.723 81.4189 108.723C78.623 108.723 76.8594 106.734 76.8594 103.548C76.8594 100.404 78.6436 98.3804 81.4053 98.3804C83.6475 98.3804 85.2744 99.6519 85.6094 101.648H84.0713C83.6885 100.458 82.752 99.8091 81.4053 99.8091C79.5801 99.8091 78.4248 101.251 78.4248 103.535C78.4248 105.859 79.5869 107.294 81.4395 107.294C83.0527 107.294 84.1602 106.31 84.1738 104.847V104.635H81.6309V103.35H85.6777V104.581ZM90.7637 108.627C88.583 108.627 87.25 107.171 87.25 104.758C87.25 102.359 88.5898 100.896 90.7637 100.896C92.9307 100.896 94.2705 102.359 94.2705 104.758C94.2705 107.171 92.9375 108.627 90.7637 108.627ZM90.7637 107.322C92.0352 107.322 92.7598 106.378 92.7598 104.758C92.7598 103.145 92.0352 102.202 90.7637 102.202C89.4854 102.202 88.7676 103.145 88.7676 104.758C88.7676 106.385 89.4854 107.322 90.7637 107.322Z" fill="#888888"/>
</svg>
