<svg width="170" height="120" viewBox="0 0 81 105" fill="none" xmlns="http://www.w3.org/2000/svg">
<g clip-path="url(#clip0_969_17330)">
<mask id="mask0_969_17330" style="mask-type:luminance" maskUnits="userSpaceOnUse" x="0" y="0" width="81" height="80">
<path d="M0.5 0H80.5V80H0.5V0Z" fill="white"/>
</mask>
<g mask="url(#mask0_969_17330)">
<path fill-rule="evenodd" clip-rule="evenodd" d="M38.4419 13.9547C39.7119 14.3391 41.0641 14.3598 42.3453 14.0147L63.4319 51.2881C62.4563 52.2291 61.7704 53.4297 61.4553 54.7481H19.5286C19.1909 53.3637 18.4481 52.1115 17.3953 51.1514L38.4419 13.9547ZM35.3719 12.0714C35.4342 12.1381 35.4975 12.2025 35.5619 12.2647L14.4719 49.5481L14.1719 49.4747V30.5181C15.1309 30.3039 16.0348 29.8922 16.8257 29.309C17.6166 28.7259 18.2772 27.9842 18.7653 27.1314C19.2521 26.2838 19.5595 25.3452 19.6684 24.3738C19.7774 23.4025 19.6855 22.4191 19.3986 21.4847L35.3719 12.0714ZM47.2719 9.28806C47.4919 8.60361 47.603 7.88361 47.6053 7.12806C47.6082 6.10576 47.3908 5.09483 46.9678 4.16415C46.5448 3.23347 45.9261 2.40489 45.154 1.73488C44.3819 1.06487 43.4744 0.569153 42.4934 0.281513C41.5124 -0.0061268 40.4809 -0.0789359 39.4692 0.0680461C38.4576 0.215028 37.4894 0.578348 36.6308 1.13325C35.7723 1.68816 35.0434 2.42161 34.4938 3.28365C33.9443 4.14568 33.587 5.11604 33.4463 6.12862C33.3056 7.14119 33.3848 8.1722 33.6786 9.15139L17.6886 18.5781C16.9221 17.7913 15.9836 17.1931 14.9467 16.8305C13.9099 16.4679 12.8031 16.3508 11.7133 16.4885C10.6236 16.6261 9.58066 17.0147 8.66654 17.6237C7.75242 18.2327 6.99205 19.0454 6.44526 19.9981C5.89907 20.9522 5.58015 22.0193 5.51326 23.1167C5.44636 24.214 5.6333 25.312 6.05954 26.3254C6.48579 27.3388 7.13988 28.2403 7.97102 28.9599C8.80216 29.6795 9.78798 30.1979 10.8519 30.4747V49.5247C10.2386 49.6803 9.64415 49.9236 9.06859 50.2547C7.43646 51.2063 6.24681 52.7647 5.75912 54.5899C5.27143 56.4152 5.52526 58.3592 6.46526 59.9981C7.01138 60.9487 7.77022 61.7599 8.68232 62.3682C9.59441 62.9765 10.635 63.3652 11.7225 63.5041C12.81 63.6429 13.9148 63.528 14.9505 63.1684C15.9862 62.8088 16.9245 62.2143 17.6919 61.4314L33.6753 70.8514C33.4864 71.507 33.3899 72.1858 33.3886 72.8681C33.3886 76.8114 36.5619 79.9981 40.4953 79.9981C41.6333 79.9956 42.7542 79.7206 43.7641 79.1961C44.7741 78.6717 45.6437 77.9129 46.3004 76.9835C46.957 76.054 47.3815 74.9808 47.5384 73.8536C47.6952 72.7265 47.5799 71.5782 47.2019 70.5047L63.0386 61.1714C63.7851 62.0151 64.7218 62.6688 65.7711 63.0785C66.8205 63.4882 67.9524 63.6421 69.073 63.5275C70.1937 63.4128 71.271 63.0329 72.2156 62.4191C73.1602 61.8054 73.9451 60.9754 74.5053 59.9981C75.0668 59.0294 75.3923 57.9421 75.4552 56.8242C75.5181 55.7063 75.3168 54.5893 74.8675 53.5638C74.4182 52.5382 73.7335 51.633 72.8691 50.9214C72.0046 50.2098 70.9847 49.7119 69.8919 49.4681V30.5347C70.9856 30.2905 72.0067 29.7929 72.8729 29.0819C73.7391 28.3709 74.4262 27.4664 74.8789 26.4413C75.3317 25.4162 75.5373 24.2991 75.4794 23.1799C75.4214 22.0608 75.1015 20.9709 74.5453 19.9981C73.9917 19.0369 73.2209 18.2186 72.2946 17.6085C71.3683 16.9985 70.3121 16.6136 69.2104 16.4847C68.1088 16.3558 66.9923 16.4864 65.9501 16.8661C64.908 17.2458 63.9691 17.864 63.2086 18.6714L47.2719 9.28806ZM45.2753 12.4114L45.5253 12.1714L61.5519 21.6147C61.2903 22.5323 61.2153 23.493 61.3316 24.44C61.4478 25.387 61.7528 26.301 62.2286 27.1281C62.6944 27.9446 63.3185 28.6601 64.0643 29.2324C64.8101 29.8048 65.6626 30.2226 66.5719 30.4614V49.5281L66.3119 49.6047L45.2753 12.4114ZM61.5919 58.6047L45.6786 67.9847C45.016 67.2743 44.214 66.7081 43.3227 66.3216C42.4315 65.935 41.4701 65.7364 40.4986 65.7381C38.4786 65.7381 36.6586 66.5781 35.3653 67.9314L19.4153 58.5314C19.4553 58.4025 19.4908 58.2714 19.5219 58.1381H61.4619C61.5019 58.2936 61.543 58.4492 61.5919 58.6047Z" fill="black"/>
</g>
</g>
<path d="M18.126 97.0967C18.126 99.6191 16.4512 101.239 13.8672 101.239C11.0713 101.239 9.30762 99.25 9.30762 96.0645C9.30762 92.9199 11.0918 90.8965 13.8535 90.8965C16.0957 90.8965 17.7227 92.168 18.0576 94.1641H16.5195C16.1367 92.9746 15.2002 92.3252 13.8535 92.3252C12.0283 92.3252 10.873 93.7676 10.873 96.0508C10.873 98.375 12.0352 99.8105 13.8877 99.8105C15.501 99.8105 16.6084 98.8262 16.6221 97.3633V97.1514H14.0791V95.8662H18.126V97.0967ZM20.0674 101V93.5557H21.4824V94.6973H21.5918C21.8037 93.9658 22.6309 93.4326 23.6016 93.4326C23.8203 93.4326 24.1006 93.4531 24.2578 93.4941V94.9434C24.1348 94.9023 23.6973 94.8545 23.4375 94.8545C22.3232 94.8545 21.5371 95.5586 21.5371 96.6045V101H20.0674ZM28.0518 99.8857C29.1592 99.8857 29.9795 99.1816 29.9795 98.2588V97.6367L28.1611 97.7529C27.1357 97.8213 26.6709 98.1699 26.6709 98.8262C26.6709 99.4961 27.252 99.8857 28.0518 99.8857ZM27.6758 101.123C26.2402 101.123 25.1943 100.255 25.1943 98.8945C25.1943 97.5547 26.1924 96.7822 27.9629 96.6729L29.9795 96.5566V95.9141C29.9795 95.1279 29.46 94.6836 28.4551 94.6836C27.6348 94.6836 27.0674 94.9844 26.9033 95.5107H25.4814C25.6318 94.2324 26.835 93.4121 28.5234 93.4121C30.3896 93.4121 31.4424 94.3418 31.4424 95.9141V101H30.0273V99.9541H29.9111C29.4668 100.699 28.6533 101.123 27.6758 101.123ZM37.3965 93.4326C39.29 93.4326 40.4863 94.9092 40.4863 97.2744C40.4863 99.6396 39.29 101.123 37.4102 101.123C36.3506 101.123 35.5098 100.658 35.1201 99.8721H35.0039V103.475H33.5342V93.5557H34.9492V94.7861H35.0586C35.5098 93.9385 36.3848 93.4326 37.3965 93.4326ZM36.9795 99.8037C38.2305 99.8037 38.9756 98.8535 38.9756 97.2744C38.9756 95.7021 38.2305 94.752 36.9863 94.752C35.749 94.752 34.9766 95.7227 34.9766 97.2812C34.9766 98.833 35.749 99.8037 36.9795 99.8037ZM42.3252 101V90.6504H43.7812V94.752H43.8975C44.2598 93.918 45.0459 93.4189 46.167 93.4189C47.7529 93.4189 48.7305 94.4238 48.7305 96.1943V101H47.2607V96.5566C47.2607 95.3672 46.707 94.7656 45.668 94.7656C44.4648 94.7656 43.7949 95.5244 43.7949 96.6523V101H42.3252ZM59.0049 101.239C56.1611 101.239 54.3975 99.2773 54.3975 96.0713C54.3975 92.8789 56.1748 90.8965 59.0049 90.8965C61.8281 90.8965 63.5986 92.8789 63.5986 96.0713C63.5986 97.9512 62.9971 99.4277 61.9238 100.255L63.1611 102.046H61.5615L60.7549 100.959C60.2354 101.144 59.6406 101.239 59.0049 101.239ZM59.0117 99.8105C59.333 99.8105 59.6406 99.7695 59.9414 99.6875L58.7041 97.9717H60.2695L61.0078 98.8877C61.6641 98.3271 62.0332 97.3291 62.0332 96.0713C62.0332 93.7744 60.8574 92.3252 59.0049 92.3252C57.1455 92.3252 55.9697 93.7676 55.9697 96.0713C55.9697 98.375 57.1387 99.8105 59.0117 99.8105ZM71.8223 99.5918V101H65.6699V91.1357H67.2012V99.5918H71.8223Z" fill="#888888"/>
<defs>
<clipPath id="clip0_969_17330">
<rect width="80" height="80" fill="white" transform="translate(0.5)"/>
</clipPath>
</defs>
</svg>
