<svg width="30" height="31" viewBox="0 0 30 31" fill="none" xmlns="http://www.w3.org/2000/svg">
<path d="M3.125 6.05908C3.125 4.50577 4.38419 3.24658 5.9375 3.24658H24.0625C25.6158 3.24658 26.875 4.50577 26.875 6.05908V24.1841C26.875 25.7374 25.6158 26.9966 24.0625 26.9966H5.9375C4.38419 26.9966 3.125 25.7374 3.125 24.1841V6.05908Z" stroke="#222222" stroke-width="2"/>
<path d="M7.1875 11.9966C7.1875 11.4788 7.60722 11.0591 8.125 11.0591H11.25C11.7678 11.0591 12.1875 11.4788 12.1875 11.9966V22.3091C12.1875 22.8269 11.7678 23.2466 11.25 23.2466H8.125C7.60722 23.2466 7.1875 22.8269 7.1875 22.3091V11.9966Z" stroke="#222222"/>
<path d="M20.8222 21.0591L19.7285 20.0562M19.0781 13.4028L20.8222 15.147M19.6709 18.1031L20.6248 17.1491" stroke="#222222" stroke-linecap="round"/>
<path d="M16.8714 13.1609C17.183 13.7006 17.8732 13.8855 18.4129 13.5739C18.9526 13.2623 19.1375 12.5722 18.8259 12.0324C18.5143 11.4927 17.8242 11.3078 17.2845 11.6194C16.7447 11.931 16.5598 12.6211 16.8714 13.1609Z" stroke="#222222"/>
<path d="M5.9375 5.90283C5.9375 6.3343 6.28728 6.68408 6.71875 6.68408C7.15022 6.68408 7.5 6.3343 7.5 5.90283C7.5 5.47136 7.15022 5.12158 6.71875 5.12158C6.28728 5.12158 5.9375 5.47136 5.9375 5.90283Z" fill="#222222"/>
<path d="M8.4375 5.90283C8.4375 6.3343 8.78728 6.68408 9.21875 6.68408C9.65022 6.68408 10 6.3343 10 5.90283C10 5.47136 9.65022 5.12158 9.21875 5.12158C8.78728 5.12158 8.4375 5.47136 8.4375 5.90283Z" fill="#222222"/>
<path d="M10.9375 5.90283C10.9375 6.3343 11.2873 6.68408 11.7188 6.68408C12.1502 6.68408 12.5 6.3343 12.5 5.90283C12.5 5.47136 12.1502 5.12158 11.7188 5.12158C11.2873 5.12158 10.9375 5.47136 10.9375 5.90283Z" fill="#222222"/>
<path d="M20.6058 16.8105C20.9174 17.3503 21.6076 17.5352 22.1473 17.2236C22.687 16.912 22.8719 16.2218 22.5603 15.6821C22.2487 15.1424 21.5586 14.9574 21.0188 15.2691C20.4791 15.5807 20.2942 16.2708 20.6058 16.8105Z" stroke="#222222"/>
<path d="M20.6058 22.5762C20.9174 23.1159 21.6076 23.3008 22.1473 22.9892C22.687 22.6776 22.8719 21.9874 22.5603 21.4477C22.2487 20.908 21.5586 20.7231 21.0188 21.0347C20.4791 21.3463 20.2942 22.0364 20.6058 22.5762Z" stroke="#222222"/>
<path d="M17.723 19.6933C18.0346 20.2331 18.7247 20.418 19.2645 20.1064C19.8042 19.7948 19.9891 19.1046 19.6775 18.5649C19.3659 18.0252 18.6757 17.8403 18.136 18.1519C17.5963 18.4635 17.4114 19.1536 17.723 19.6933Z" stroke="#222222"/>
<path d="M7.1875 15.1216H12.1875M3.75 8.24658H26.25M7.1875 19.1841H12.1875" stroke="#222222" stroke-linecap="round"/>
</svg>
