<svg width="150" height="151" viewBox="0 0 150 151" fill="none" xmlns="http://www.w3.org/2000/svg">
<rect x="0.5" y="0.939453" width="149" height="149" rx="11.5" fill="white"/>
<rect x="0.5" y="0.939453" width="149" height="149" rx="11.5" stroke="#E8E8E8"/>
<g clip-path="url(#clip0_1069_14269)">
<mask id="mask0_1069_14269" style="mask-type:luminance" maskUnits="userSpaceOnUse" x="35" y="22" width="80" height="81">
<path d="M35 22.9395H115V102.939H35V22.9395Z" fill="white"/>
</mask>
<g mask="url(#mask0_1069_14269)">
<path fill-rule="evenodd" clip-rule="evenodd" d="M72.9419 36.8942C74.2119 37.2785 75.5641 37.2993 76.8453 36.9542L97.9319 74.2275C96.9563 75.1685 96.2704 76.3691 95.9553 77.6875H54.0286C53.6909 76.3032 52.9481 75.051 51.8953 74.0908L72.9419 36.8942ZM69.8719 35.0108C69.9342 35.0775 69.9975 35.142 70.0619 35.2042L48.9719 72.4875L48.6719 72.4142V53.4575C49.6309 53.2434 50.5348 52.8316 51.3257 52.2485C52.1166 51.6653 52.7772 50.9237 53.2653 50.0708C53.7521 49.2232 54.0595 48.2846 54.1684 47.3133C54.2774 46.3419 54.1855 45.3586 53.8986 44.4242L69.8719 35.0108ZM81.7719 32.2275C81.9919 31.5431 82.103 30.8231 82.1053 30.0675C82.1082 29.0452 81.8908 28.0343 81.4678 27.1036C81.0448 26.1729 80.4261 25.3443 79.654 24.6743C78.8819 24.0043 77.9744 23.5086 76.9934 23.221C76.0124 22.9333 74.9809 22.8605 73.9692 23.0075C72.9576 23.1545 71.9894 23.5178 71.1308 24.0727C70.2723 24.6276 69.5434 25.3611 68.9938 26.2231C68.4443 27.0851 68.087 28.0555 67.9463 29.0681C67.8056 30.0806 67.8848 31.1117 68.1786 32.0908L52.1886 41.5175C51.4221 40.7307 50.4836 40.1325 49.4467 39.77C48.4099 39.4074 47.3031 39.2903 46.2133 39.4279C45.1236 39.5656 44.0807 39.9541 43.1665 40.5631C42.2524 41.1721 41.4921 41.9849 40.9453 42.9375C40.3991 43.8916 40.0802 44.9588 40.0133 46.0561C39.9464 47.1535 40.1333 48.2515 40.5595 49.2648C40.9858 50.2782 41.6399 51.1797 42.471 51.8993C43.3022 52.619 44.288 53.1373 45.3519 53.4142V72.4642C44.7386 72.6197 44.1441 72.8631 43.5686 73.1942C41.9365 74.1458 40.7468 75.7041 40.2591 77.5294C39.7714 79.3546 40.0253 81.2987 40.9653 82.9375C41.5114 83.8881 42.2702 84.6994 43.1823 85.3076C44.0944 85.9159 45.135 86.3047 46.2225 86.4435C47.31 86.5824 48.4148 86.4675 49.4505 86.1079C50.4862 85.7483 51.4245 85.1538 52.1919 84.3708L68.1753 93.7908C67.9864 94.4465 67.8899 95.1252 67.8886 95.8075C67.8886 99.7508 71.0619 102.938 74.9953 102.938C76.1333 102.935 77.2542 102.66 78.2641 102.136C79.2741 101.611 80.1437 100.852 80.8004 99.9229C81.457 98.9935 81.8815 97.9203 82.0384 96.7931C82.1952 95.6659 82.0799 94.5176 81.7019 93.4442L97.5386 84.1108C98.2851 84.9545 99.2218 85.6083 100.271 86.018C101.321 86.4277 102.452 86.5816 103.573 86.4669C104.694 86.3522 105.771 85.9723 106.716 85.3586C107.66 84.7448 108.445 83.9149 109.005 82.9375C109.567 81.9689 109.892 80.8815 109.955 79.7637C110.018 78.6458 109.817 77.5288 109.367 76.5032C108.918 75.4777 108.234 74.5724 107.369 73.8608C106.505 73.1493 105.485 72.6514 104.392 72.4075V53.4742C105.486 53.23 106.507 52.7323 107.373 52.0213C108.239 51.3103 108.926 50.4059 109.379 49.3807C109.832 48.3556 110.037 47.2385 109.979 46.1194C109.921 45.0003 109.601 43.9104 109.045 42.9375C108.492 41.9764 107.721 41.158 106.795 40.548C105.868 39.9379 104.812 39.5531 103.71 39.4242C102.609 39.2952 101.492 39.4258 100.45 39.8055C99.408 40.1852 98.4691 40.8035 97.7086 41.6108L81.7719 32.2275ZM79.7753 35.3508L80.0253 35.1108L96.0519 44.5542C95.7903 45.4717 95.7153 46.4324 95.8316 47.3794C95.9478 48.3264 96.2528 49.2405 96.7286 50.0675C97.1944 50.8841 97.8185 51.5995 98.5643 52.1719C99.3101 52.7443 100.163 53.1621 101.072 53.4008V72.4675L100.812 72.5442L79.7753 35.3508ZM96.0919 81.5442L80.1786 90.9242C79.516 90.2137 78.714 89.6476 77.8227 89.261C76.9315 88.8745 75.9701 88.6758 74.9986 88.6775C72.9786 88.6775 71.1586 89.5175 69.8653 90.8708L53.9153 81.4708C53.9553 81.342 53.9908 81.2108 54.0219 81.0775H95.9619C96.0019 81.2331 96.043 81.3886 96.0919 81.5442Z" fill="black"/>
</g>
</g>
<path d="M52.626 120.036C52.626 122.559 50.9512 124.179 48.3672 124.179C45.5713 124.179 43.8076 122.189 43.8076 119.004C43.8076 115.859 45.5918 113.836 48.3535 113.836C50.5957 113.836 52.2227 115.107 52.5576 117.104H51.0195C50.6367 115.914 49.7002 115.265 48.3535 115.265C46.5283 115.265 45.373 116.707 45.373 118.99C45.373 121.314 46.5352 122.75 48.3877 122.75C50.001 122.75 51.1084 121.766 51.1221 120.303V120.091H48.5791V118.806H52.626V120.036ZM54.5674 123.939V116.495H55.9824V117.637H56.0918C56.3037 116.905 57.1309 116.372 58.1016 116.372C58.3203 116.372 58.6006 116.393 58.7578 116.434V117.883C58.6348 117.842 58.1973 117.794 57.9375 117.794C56.8232 117.794 56.0371 118.498 56.0371 119.544V123.939H54.5674ZM62.5518 122.825C63.6592 122.825 64.4795 122.121 64.4795 121.198V120.576L62.6611 120.692C61.6357 120.761 61.1709 121.109 61.1709 121.766C61.1709 122.436 61.752 122.825 62.5518 122.825ZM62.1758 124.062C60.7402 124.062 59.6943 123.194 59.6943 121.834C59.6943 120.494 60.6924 119.722 62.4629 119.612L64.4795 119.496V118.854C64.4795 118.067 63.96 117.623 62.9551 117.623C62.1348 117.623 61.5674 117.924 61.4033 118.45H59.9814C60.1318 117.172 61.335 116.352 63.0234 116.352C64.8896 116.352 65.9424 117.281 65.9424 118.854V123.939H64.5273V122.894H64.4111C63.9668 123.639 63.1533 124.062 62.1758 124.062ZM71.8965 116.372C73.79 116.372 74.9863 117.849 74.9863 120.214C74.9863 122.579 73.79 124.062 71.9102 124.062C70.8506 124.062 70.0098 123.598 69.6201 122.812H69.5039V126.414H68.0342V116.495H69.4492V117.726H69.5586C70.0098 116.878 70.8848 116.372 71.8965 116.372ZM71.4795 122.743C72.7305 122.743 73.4756 121.793 73.4756 120.214C73.4756 118.642 72.7305 117.691 71.4863 117.691C70.249 117.691 69.4766 118.662 69.4766 120.221C69.4766 121.772 70.249 122.743 71.4795 122.743ZM76.8252 123.939V113.59H78.2812V117.691H78.3975C78.7598 116.857 79.5459 116.358 80.667 116.358C82.2529 116.358 83.2305 117.363 83.2305 119.134V123.939H81.7607V119.496C81.7607 118.307 81.207 117.705 80.168 117.705C78.9648 117.705 78.2949 118.464 78.2949 119.592V123.939H76.8252ZM93.5049 124.179C90.6611 124.179 88.8975 122.217 88.8975 119.011C88.8975 115.818 90.6748 113.836 93.5049 113.836C96.3281 113.836 98.0986 115.818 98.0986 119.011C98.0986 120.891 97.4971 122.367 96.4238 123.194L97.6611 124.985H96.0615L95.2549 123.898C94.7354 124.083 94.1406 124.179 93.5049 124.179ZM93.5117 122.75C93.833 122.75 94.1406 122.709 94.4414 122.627L93.2041 120.911H94.7695L95.5078 121.827C96.1641 121.267 96.5332 120.269 96.5332 119.011C96.5332 116.714 95.3574 115.265 93.5049 115.265C91.6455 115.265 90.4697 116.707 90.4697 119.011C90.4697 121.314 91.6387 122.75 93.5117 122.75ZM106.322 122.531V123.939H100.17V114.075H101.701V122.531H106.322Z" fill="#888888"/>
<defs>
<clipPath id="clip0_1069_14269">
<rect width="80" height="80" fill="white" transform="translate(35 22.9395)"/>
</clipPath>
</defs>
</svg>
