<svg width="171" height="120" viewBox="0 0 171 120" fill="none" xmlns="http://www.w3.org/2000/svg">
<rect width="171" height="120" fill="white"/>
<g clip-path="url(#clip0_969_18174)">
<path d="M92.453 84.2199L78.5664 70.679L108.389 40.2246L122.766 54.3155L92.453 84.2199Z" fill="#8AB4F8"/>
<path d="M92.5156 24.3518L78.68 10.2246L48.425 40.1927C44.525 44.0927 44.525 50.4156 48.425 54.3199L78.225 84.3156L92.3156 71.1337L69.6112 47.2565L92.5156 24.3518Z" fill="#4285F4"/>
<path d="M122.569 40.4283L92.569 10.4283C88.6646 6.52391 82.3328 6.52391 78.4284 10.4283C74.524 14.3327 74.5237 20.6648 78.4284 24.5695L108.428 54.5695C112.333 58.4739 118.665 58.4739 122.569 54.5695C126.473 50.6652 126.474 44.3327 122.569 40.4283Z" fill="#8AB4F8"/>
<path d="M85.2728 87.5046C90.6702 87.5046 95.0456 83.1292 95.0456 77.7318C95.0456 72.3344 90.6702 67.959 85.2728 67.959C79.8754 67.959 75.5 72.3344 75.5 77.7318C75.5 83.1292 79.8754 87.5046 85.2728 87.5046Z" fill="#246FDB"/>
</g>
<path d="M79.2451 104.597C79.2451 107.119 77.5703 108.739 74.9863 108.739C72.1904 108.739 70.4268 106.75 70.4268 103.564C70.4268 100.42 72.2109 98.3965 74.9727 98.3965C77.2148 98.3965 78.8418 99.668 79.1768 101.664H77.6387C77.2559 100.475 76.3193 99.8252 74.9727 99.8252C73.1475 99.8252 71.9922 101.268 71.9922 103.551C71.9922 105.875 73.1543 107.311 75.0068 107.311C76.6201 107.311 77.7275 106.326 77.7412 104.863V104.651H75.1982V103.366H79.2451V104.597ZM85.2129 108.5H83.6816V100.03H80.5781V98.6357H88.3096V100.03H85.2129V108.5ZM100.17 108.5H98.748V101.377H98.6523L95.7607 108.213H94.5986L91.707 101.377H91.6113V108.5H90.1895V98.6357H91.9805L95.1182 106.128H95.2344L98.3789 98.6357H100.17V108.5Z" fill="#888888"/>
<defs>
<clipPath id="clip0_969_18174">
<rect width="80" height="80" fill="white" transform="translate(45.5 7.5)"/>
</clipPath>
</defs>
</svg>
