<svg width="30" height="31" viewBox="0 0 30 31" fill="none" xmlns="http://www.w3.org/2000/svg">
<g clip-path="url(#clip0_917_22257)">
<path d="M25.3133 16.1081L28.2099 14.6598C28.3212 14.6041 28.4204 14.5268 28.5015 14.4324C28.5827 14.338 28.6442 14.2284 28.6826 14.1099C28.7209 13.9915 28.7353 13.8666 28.7248 13.7425C28.7143 13.6185 28.6793 13.4977 28.6216 13.3874L25.7397 7.86818C25.6259 7.65031 25.4311 7.48583 25.1973 7.41016C24.9634 7.33448 24.7092 7.35367 24.4894 7.46359L21.5633 8.92664L25.3133 16.1081ZM25.3133 16.1081L23.4383 18.3016L19.1261 22.6138C19.0116 22.7283 18.8695 22.8112 18.7134 22.8544C18.5574 22.8976 18.3929 22.8997 18.2358 22.8604L11.444 21.1624C11.3166 21.1306 11.1973 21.0723 11.0939 20.9914L4.68827 15.9825M4.68827 15.9825L1.79167 14.5342C1.68032 14.4785 1.58117 14.4012 1.50001 14.3068C1.41885 14.2124 1.35731 14.1028 1.31898 13.9843C1.28064 13.8659 1.26629 13.741 1.27675 13.6169C1.28722 13.4929 1.32229 13.3721 1.37991 13.2618L4.2619 7.74258C4.37566 7.52471 4.57044 7.36023 4.80429 7.28455C5.03813 7.20888 5.29235 7.22807 5.51218 7.33799L8.43827 8.80103L4.68827 15.9825Z" stroke="#222222" stroke-width="2" stroke-linecap="round" stroke-linejoin="round"/>
<path d="M23.436 18.3018L18.2798 14.5518L16.7798 15.6768C16.1307 16.1636 15.3412 16.4268 14.5298 16.4268C13.7184 16.4268 12.9289 16.1636 12.2798 15.6768L11.6445 15.2003C11.5371 15.1197 11.4482 15.017 11.3839 14.8991C11.3196 14.7811 11.2814 14.6508 11.2719 14.5168C11.2624 14.3828 11.2817 14.2483 11.3287 14.1225C11.3757 13.9967 11.4491 13.8824 11.5441 13.7874L16.1302 9.20135C16.2172 9.11429 16.3206 9.04523 16.4343 8.99812C16.5481 8.95101 16.67 8.92676 16.7931 8.92676H21.561" stroke="#222222" stroke-width="2" stroke-linecap="round" stroke-linejoin="round"/>
<path d="M8.50391 8.80103L14.518 7.04772C14.7328 6.98509 14.963 7.00137 15.1668 7.09362L19.2178 8.92663" stroke="#222222" stroke-width="2" stroke-linecap="round" stroke-linejoin="round"/>
</g>
<defs>
<clipPath id="clip0_917_22257">
<rect width="30" height="30" fill="white" transform="translate(0 0.388184)"/>
</clipPath>
</defs>
</svg>
