<svg width="30" height="31" viewBox="0 0 30 31" fill="none" xmlns="http://www.w3.org/2000/svg">
<g clip-path="url(#clip0_917_22539)">
<path d="M26.668 5.9021H3.33464C2.89261 5.9021 2.46868 6.07769 2.15612 6.39025C1.84356 6.70282 1.66797 7.12674 1.66797 7.56877V24.2354C1.66797 24.6775 1.84356 25.1014 2.15612 25.4139C2.46868 25.7265 2.89261 25.9021 3.33464 25.9021H26.668C27.11 25.9021 27.5339 25.7265 27.8465 25.4139C28.159 25.1014 28.3346 24.6775 28.3346 24.2354V7.56877C28.3346 7.12674 28.159 6.70282 27.8465 6.39025C27.5339 6.07769 27.11 5.9021 26.668 5.9021ZM26.668 24.2354H3.33464V7.56877H26.668V24.2354Z" fill="#222222"/>
<path d="M7.5013 12.5688H22.5013C22.7223 12.5688 22.9343 12.481 23.0906 12.3247C23.2468 12.1684 23.3346 11.9564 23.3346 11.7354C23.3346 11.5144 23.2468 11.3025 23.0906 11.1462C22.9343 10.9899 22.7223 10.9021 22.5013 10.9021H7.5013C7.28029 10.9021 7.06833 10.9899 6.91205 11.1462C6.75577 11.3025 6.66797 11.5144 6.66797 11.7354C6.66797 11.9564 6.75577 12.1684 6.91205 12.3247C7.06833 12.481 7.28029 12.5688 7.5013 12.5688Z" fill="#222222"/>
<path d="M7.5013 15.9021H22.5013C22.7223 15.9021 22.9343 15.8143 23.0906 15.6581C23.2468 15.5018 23.3346 15.2898 23.3346 15.0688C23.3346 14.8478 23.2468 14.6358 23.0906 14.4796C22.9343 14.3233 22.7223 14.2355 22.5013 14.2355H7.5013C7.28029 14.2355 7.06833 14.3233 6.91205 14.4796C6.75577 14.6358 6.66797 14.8478 6.66797 15.0688C6.66797 15.2898 6.75577 15.5018 6.91205 15.6581C7.06833 15.8143 7.28029 15.9021 7.5013 15.9021Z" fill="#222222"/>
<path d="M7.5013 19.2354H15.8346C16.0556 19.2354 16.2676 19.1476 16.4239 18.9913C16.5802 18.835 16.668 18.6231 16.668 18.4021C16.668 18.181 16.5802 17.9691 16.4239 17.8128C16.2676 17.6565 16.0556 17.5687 15.8346 17.5687H7.5013C7.28029 17.5687 7.06833 17.6565 6.91205 17.8128C6.75577 17.9691 6.66797 18.181 6.66797 18.4021C6.66797 18.6231 6.75577 18.835 6.91205 18.9913C7.06833 19.1476 7.28029 19.2354 7.5013 19.2354Z" fill="#222222"/>
</g>
<defs>
<clipPath id="clip0_917_22539">
<rect width="30" height="30" fill="white" transform="translate(0 0.9021)"/>
</clipPath>
</defs>
</svg>
