<svg width="30" height="31" viewBox="0 0 30 31" fill="none" xmlns="http://www.w3.org/2000/svg">
<path d="M18.75 9.43335H11.25M18.75 14.4333H11.25M18.75 19.4333H13.75M6.25 4.43335H23.75V26.9333L22.46 25.8283C22.0069 25.44 21.4299 25.2266 20.8331 25.2266C20.2364 25.2266 19.6593 25.44 19.2062 25.8283L17.9163 26.9333L16.6275 25.8283C16.1743 25.4397 15.597 25.226 15 25.226C14.403 25.226 13.8257 25.4397 13.3725 25.8283L12.0837 26.9333L10.7938 25.8283C10.3407 25.44 9.76361 25.2266 9.16687 25.2266C8.57014 25.2266 7.99309 25.44 7.54 25.8283L6.25 26.9333V4.43335Z" stroke="white" stroke-width="2" stroke-linecap="round" stroke-linejoin="round"/>
</svg>
