<svg width="171" height="120" viewBox="0 0 171 120" fill="none" xmlns="http://www.w3.org/2000/svg">
<rect width="171" height="120" fill="white"/>
<path d="M114.304 25.4867C113.741 24.0067 112.391 21.9233 110.477 20.4433C109.354 19.6 108.077 18.7767 106.277 18.25C104.334 17.6867 101.931 17.5 99.0039 17.5H72.0039C69.0606 17.5 66.6772 17.6867 64.7472 18.2667C62.9472 18.8133 61.6139 19.62 60.5306 20.4633C58.8414 21.791 57.5177 23.5265 56.6839 25.5067C55.5239 28.4867 55.5039 31.8633 55.5039 34V61C55.5039 63.1367 55.5239 66.5133 56.6839 69.5133C57.4154 71.2374 58.5172 72.7794 59.9113 74.0301C61.3054 75.2807 62.9575 76.2093 64.7506 76.75C66.6806 77.3133 69.0606 77.5 72.0039 77.5H99.0039C101.947 77.5 104.331 77.3133 106.261 76.7333C108.061 76.1867 109.394 75.38 110.477 74.5367C112.166 73.209 113.49 71.4735 114.324 69.4933C115.504 66.5133 115.504 63.12 115.504 60.98V33.98C115.504 31.8467 115.484 28.47 114.324 25.47L114.304 25.4867ZM67.3906 58.75H65.1572V45.4167H67.3906V58.75ZM66.2839 43.17C65.9161 43.17 65.5634 43.0239 65.3034 42.7639C65.0433 42.5038 64.8972 42.1511 64.8972 41.7833C64.8972 41.4156 65.0433 41.0629 65.3034 40.8028C65.5634 40.5428 65.9161 40.3967 66.2839 40.3967C66.6535 40.3949 67.0088 40.5393 67.2723 40.7985C67.5358 41.0576 67.6862 41.4104 67.6906 41.78C67.6845 42.1496 67.5338 42.5022 67.2708 42.762C67.0079 43.0218 66.6536 43.1683 66.2839 43.17ZM79.6906 59.0867C73.8039 59.0867 70.0906 54.8867 70.0906 48.1933C70.0906 41.5 73.8039 37.28 79.6906 37.28C85.5806 37.28 89.2906 41.5 89.2906 48.1933C89.2906 54.8867 85.5806 59.0867 79.6906 59.0867ZM99.1172 59.0867C94.6906 59.0867 91.5806 56.65 91.3739 53.0133H93.3806C93.6039 55.5467 95.9839 57.27 99.3039 57.27C102.471 57.27 104.741 55.5433 104.741 53.1633C104.741 51.1967 103.374 50.0133 100.241 49.2267L97.6172 48.55C93.6972 47.5567 91.9539 45.9067 91.9539 43.1133C91.9539 39.7 95.0272 37.2633 99.1906 37.2633C103.317 37.2633 106.317 39.7 106.447 43.0567H104.441C104.254 40.6767 102.134 39.08 99.1339 39.08C96.2106 39.08 94.0339 40.7133 94.0339 43.0367C94.0339 44.8567 95.3472 45.9267 98.4606 46.7133L100.747 47.2933C105.004 48.36 106.784 49.9933 106.784 52.9367C106.784 56.65 103.804 59.0867 99.1172 59.0867ZM87.2506 48.1933C87.2506 53.7267 84.3239 57.23 79.6906 57.23C75.0572 57.23 72.1539 53.7233 72.1539 48.1967C72.1539 42.6433 75.0606 39.1367 79.6906 39.1367C84.3206 39.1367 87.2472 42.6433 87.2472 48.1933" fill="black"/>
<path d="M76.2715 108.5H74.7402V98.6357H76.2715V108.5ZM82.9502 98.3965C85.7939 98.3965 87.5439 100.386 87.5439 103.564C87.5439 106.736 85.8076 108.739 82.9502 108.739C80.0859 108.739 78.3428 106.743 78.3428 103.564C78.3428 100.379 80.1201 98.3965 82.9502 98.3965ZM82.9502 99.8252C81.0908 99.8252 79.9082 101.274 79.9082 103.564C79.9082 105.841 81.0566 107.311 82.9502 107.311C84.8232 107.311 85.9785 105.841 85.9785 103.564C85.9785 101.274 84.8232 99.8252 82.9502 99.8252ZM89.1504 105.848H90.668C90.7979 106.784 91.7139 107.379 93.0332 107.379C94.2637 107.379 95.166 106.743 95.166 105.868C95.166 105.116 94.5918 104.665 93.2861 104.357L92.0146 104.05C90.2305 103.633 89.417 102.771 89.417 101.322C89.417 99.5654 90.8525 98.3965 93.0059 98.3965C95.0088 98.3965 96.4717 99.5654 96.5605 101.227H95.0703C94.9268 100.317 94.1338 99.75 92.9854 99.75C91.7754 99.75 90.9688 100.331 90.9688 101.22C90.9688 101.924 91.4883 102.327 92.7734 102.628L93.8604 102.895C95.8838 103.366 96.7178 104.187 96.7178 105.67C96.7178 107.557 95.2549 108.739 92.917 108.739C90.7295 108.739 89.2598 107.611 89.1504 105.848Z" fill="#888888"/>
</svg>
