<svg width="129" height="44" viewBox="0 0 129 44" fill="none" xmlns="http://www.w3.org/2000/svg">
<path d="M22.3135 4.52168C18.27 4.52168 14.5465 5.89363 11.58 8.19229C11.3128 8.39822 11.2822 8.79061 11.5215 9.02993L12.0503 9.55868C12.2507 9.75904 12.5651 9.77296 12.7878 9.60042C15.4287 7.57727 18.7348 6.36951 22.3108 6.36951C25.8867 6.36951 29.1956 7.58005 31.8337 9.60042C32.0591 9.77296 32.3736 9.75626 32.5712 9.55868L33.1083 9.02158C33.3476 8.78226 33.317 8.38987 33.0498 8.18115C30.0833 5.88806 26.3515 4.51611 22.3108 4.51611L22.3135 4.52168Z" fill="white"/>
<path d="M22.3164 5.22323C23.7166 5.22323 24.8517 4.08818 24.8517 2.68803C24.8517 1.28787 23.7166 0.152832 22.3164 0.152832C20.9163 0.152832 19.7812 1.28787 19.7812 2.68803C19.7812 4.08818 20.9163 5.22323 22.3164 5.22323Z" fill="white"/>
<path d="M33.2937 33.9481C33.085 33.7394 32.7539 33.7338 32.5312 33.9258C29.7873 36.2885 26.2113 37.7217 22.3153 37.7217C18.4193 37.7217 14.8489 36.2941 12.1049 33.9175C11.8823 33.7255 11.5511 33.731 11.3424 33.9369L10.8081 34.4685C10.5771 34.6995 10.5938 35.0752 10.8387 35.2894C13.9166 37.9582 17.9267 39.5723 22.3153 39.5723C26.7039 39.5723 30.714 37.9582 33.7919 35.2978C34.0395 35.0835 34.0562 34.7078 33.8253 34.4796L33.2937 33.9481Z" fill="white"/>
<path d="M22.3164 43.8468C23.7166 43.8468 24.8517 42.7117 24.8517 41.3116C24.8517 39.9114 23.7166 38.7764 22.3164 38.7764C20.9163 38.7764 19.7812 39.9114 19.7812 41.3116C19.7812 42.7117 20.9163 43.8468 22.3164 43.8468Z" fill="white"/>
<path d="M10.4369 11.8354C8.06868 14.5793 6.64108 18.147 6.64108 22.0458C6.64108 25.6273 7.85162 28.9278 9.88033 31.5688C10.0501 31.7942 10.0362 32.1086 9.83581 32.309L9.30151 32.8433C9.06218 33.0826 8.66979 33.052 8.46107 32.7849C6.43793 30.1745 5.13276 26.9714 4.84891 23.4873C4.39252 24.1496 3.63001 24.5837 2.76454 24.5837C1.36197 24.5837 0.226562 23.4483 0.226562 22.0458C0.226562 20.6432 1.36197 19.5106 2.76454 19.5106C3.63001 19.5106 4.39252 19.9447 4.84891 20.607C5.16059 16.7834 6.69951 13.3131 9.06774 10.5775C9.27924 10.3299 9.65493 10.3132 9.8859 10.5441L10.4147 11.0729C10.6234 11.2816 10.6289 11.6128 10.4369 11.8354Z" fill="white"/>
<path d="M56.2483 32.3395C52.497 32.3395 49.4414 29.3563 49.4414 25.6912V17.6376C49.4414 17.3315 49.6919 17.0811 49.998 17.0811H52.8922C53.1983 17.0811 53.4488 17.3315 53.4488 17.6376V25.6912C53.4488 27.1467 54.7038 28.3322 56.2455 28.3322C57.7872 28.3322 59.0423 27.1467 59.0423 25.6912V17.6376C59.0423 17.3315 59.2928 17.0811 59.5989 17.0811H62.4931C62.7992 17.0811 63.0497 17.3315 63.0497 17.6376V25.6912C63.0497 29.3591 59.9968 32.3395 56.2455 32.3395H56.2483Z" fill="white"/>
<path d="M45.6079 17.0811H42.7137C42.4076 17.0811 42.1572 17.3287 42.1572 17.6376V18.0662C41.0579 17.4484 39.7917 17.0978 38.4448 17.0978C34.2343 17.0978 30.8086 20.5207 30.8086 24.7312C30.8086 28.9417 34.2343 32.3646 38.4448 32.3646C39.7917 32.3646 41.0579 32.0139 42.1572 31.3961V37.3459C42.1572 37.652 42.4076 37.9025 42.7137 37.9025H45.6079C45.9168 37.9025 46.1645 37.652 46.1645 37.3459V17.6376C46.1645 17.3287 45.9168 17.0811 45.6079 17.0811ZM38.4448 28.3572C36.4439 28.3572 34.8187 26.7293 34.8187 24.7312C34.8187 22.7331 36.4439 21.1051 38.4448 21.1051C40.4457 21.1051 42.0709 22.7331 42.0709 24.7312C42.0709 26.7293 40.4429 28.3572 38.4448 28.3572Z" fill="white"/>
<path d="M97.9555 11.5874H95.0614C94.7553 11.5874 94.5048 11.8379 94.5048 12.144V18.0659C93.4056 17.4481 92.1393 17.0975 90.7924 17.0975C86.582 17.0975 83.1562 20.5204 83.1562 24.7309C83.1562 28.9414 86.582 32.3643 90.7924 32.3643C92.1393 32.3643 93.4056 32.0137 94.5048 31.3959V31.8523C94.5048 32.1612 94.7553 32.4089 95.0614 32.4089H97.9555C98.2644 32.4089 98.5121 32.1612 98.5121 31.8523V12.144C98.5121 11.8379 98.2644 11.5874 97.9555 11.5874ZM90.7924 28.357C88.7916 28.357 87.1663 26.729 87.1663 24.7309C87.1663 22.7328 88.7916 21.1048 90.7924 21.1048C92.7933 21.1048 94.4157 22.7328 94.4157 24.7309C94.4157 26.729 92.7905 28.357 90.7924 28.357Z" fill="white"/>
<path d="M105.193 17.0752H102.299C101.991 17.0752 101.742 17.3244 101.742 17.6318V31.8522C101.742 32.1596 101.991 32.4088 102.299 32.4088H105.193C105.5 32.4088 105.75 32.1596 105.75 31.8522V17.6318C105.75 17.3244 105.5 17.0752 105.193 17.0752Z" fill="white"/>
<path d="M80.0767 17.0811H77.1825C76.8736 17.0811 76.6259 17.3287 76.6259 17.6376V18.0662C75.5267 17.4484 74.2605 17.0978 72.9108 17.0978C68.7031 17.0978 65.2773 20.5207 65.2773 24.7312C65.2773 28.9417 68.7031 32.3646 72.9108 32.3646C74.2605 32.3646 75.5267 32.0139 76.6259 31.3961V31.8525C76.6259 32.1614 76.8736 32.4091 77.1825 32.4091H80.0767C80.3828 32.4091 80.6332 32.1614 80.6332 31.8525V17.6376C80.6332 17.3287 80.3828 17.0811 80.0767 17.0811ZM72.9108 28.3572C70.9127 28.3572 69.2847 26.7293 69.2847 24.7312C69.2847 22.7331 70.9127 21.1051 72.9108 21.1051C74.9089 21.1051 76.5368 22.7331 76.5368 24.7312C76.5368 26.7293 74.9116 28.3572 72.9108 28.3572Z" fill="white"/>
<path d="M120.297 32.3645C116.087 32.3645 112.664 28.9388 112.664 24.7311C112.664 20.5234 116.09 17.0977 120.297 17.0977C124.505 17.0977 127.931 20.5234 127.931 24.7311C127.931 28.9388 124.505 32.3645 120.297 32.3645ZM120.297 21.105C118.299 21.105 116.671 22.733 116.671 24.7311C116.671 26.7292 118.297 28.3571 120.297 28.3571C122.298 28.3571 123.924 26.732 123.924 24.7311C123.924 22.7302 122.296 21.105 120.297 21.105Z" fill="white"/>
<path d="M127.466 17.0811H124.572C124.265 17.0811 124.016 17.3302 124.016 17.6376V31.8553C124.016 32.1627 124.265 32.4119 124.572 32.4119H127.466C127.774 32.4119 128.023 32.1627 128.023 31.8553V17.6376C128.023 17.3302 127.774 17.0811 127.466 17.0811Z" fill="white"/>
<path d="M109.07 21.0746C109.88 21.0746 110.628 21.339 111.232 21.787V17.493C110.548 17.2871 109.821 17.1758 109.07 17.1758C105.973 17.1758 103.307 19.0542 102.146 21.7313C101.879 22.3519 102.032 22.6191 101.938 23.312L102.266 23.7072H105.566C106.006 22.1877 107.409 21.0746 109.067 21.0746H109.07Z" fill="white"/>
<path d="M18.0776 31.6827C16.9311 31.1984 16.0155 30.4805 15.3281 29.5315C14.7493 28.73 14.3987 27.7894 14.2846 26.7097C14.2484 26.3841 14.5128 26.103 14.8384 26.103H18.8986C19.1657 26.103 19.3884 26.295 19.444 26.5538C19.5637 27.0909 19.7919 27.5167 20.1342 27.8312C20.5655 28.2291 21.1304 28.4267 21.8262 28.4267C22.5219 28.4267 23.1035 28.2569 23.5181 27.9174C23.9328 27.5779 24.1387 27.1076 24.1387 26.5065C24.1387 26.0028 23.9745 25.5854 23.6462 25.257C23.3178 24.9286 22.9143 24.6559 22.4328 24.4444C21.9542 24.2329 21.2724 23.988 20.3874 23.7181C19.1101 23.3118 18.0665 22.9055 17.2567 22.4964C16.4469 22.0901 15.7511 21.489 15.1695 20.6931C14.5879 19.9 14.2957 18.862 14.2957 17.5819C14.2957 15.6839 14.9636 14.1951 16.2966 13.1209C17.6324 12.0467 19.3689 11.5068 21.5145 11.5068C23.6601 11.5068 25.4522 12.0439 26.788 13.1209C27.9763 14.0782 28.672 15.3667 28.878 16.9919C28.9197 17.323 28.6553 17.6125 28.3242 17.6125H24.1999C23.9439 17.6125 23.7129 17.4427 23.6601 17.1922C23.5627 16.7303 23.3456 16.3518 23.0089 16.0568C22.5775 15.6784 22.021 15.4891 21.3447 15.4891C20.7631 15.4891 20.2928 15.6478 19.9338 15.9678C19.5776 16.2878 19.3967 16.747 19.3967 17.3481C19.3967 18.0076 19.6973 18.5197 20.2984 18.8898C20.8995 19.2571 21.8401 19.6551 23.1174 20.0809C24.3948 20.5261 25.4328 20.9519 26.2342 21.361C27.0329 21.7673 27.7231 22.36 28.3075 23.1337C28.8891 23.9101 29.1813 24.9064 29.1813 26.128C29.1813 27.3497 28.8947 28.346 28.3214 29.2977C27.7481 30.2467 26.916 31.0036 25.8252 31.5658C24.7343 32.1279 23.4458 32.409 21.9625 32.409C20.4793 32.409 19.2186 32.1669 18.0721 31.6827H18.0776Z" fill="white"/>
</svg>
