<svg width="129" height="44" viewBox="0 0 129 44" fill="none" xmlns="http://www.w3.org/2000/svg">
<path d="M22.087 4.36884C18.0435 4.36884 14.32 5.7408 11.3534 8.03945C11.0863 8.24539 11.0557 8.63777 11.295 8.8771L11.8237 9.40585C12.0241 9.60621 12.3386 9.62013 12.5612 9.44759C15.2021 7.42444 18.5082 6.21668 22.0842 6.21668C25.6602 6.21668 28.969 7.42722 31.6072 9.44759C31.8326 9.62013 32.1471 9.60343 32.3446 9.40585L32.8817 8.86875C33.1211 8.62943 33.0904 8.23704 32.8233 8.02832C29.8567 5.73523 26.1249 4.36328 22.0842 4.36328L22.087 4.36884Z" fill="#FBAE17"/>
<path d="M22.0899 5.07039C23.49 5.07039 24.6251 3.93534 24.6251 2.53519C24.6251 1.13504 23.49 0 22.0899 0C20.6897 0 19.5547 1.13504 19.5547 2.53519C19.5547 3.93534 20.6897 5.07039 22.0899 5.07039Z" fill="#FBAE17"/>
<path d="M33.0672 33.7953C32.8584 33.5865 32.5273 33.581 32.3047 33.773C29.5607 36.1356 25.9848 37.5688 22.0887 37.5688C18.1927 37.5688 14.6223 36.1412 11.8784 33.7646C11.6558 33.5726 11.3246 33.5782 11.1159 33.7841L10.5816 34.3156C10.3506 34.5466 10.3673 34.9223 10.6122 35.1366C13.69 37.8054 17.7002 39.4194 22.0887 39.4194C26.4773 39.4194 30.4875 37.8054 33.5653 35.1449C33.813 34.9307 33.8297 34.555 33.5987 34.3268L33.0672 33.7953Z" fill="#FBAE17"/>
<path d="M22.0899 43.6939C23.49 43.6939 24.6251 42.5589 24.6251 41.1587C24.6251 39.7586 23.49 38.6235 22.0899 38.6235C20.6897 38.6235 19.5547 39.7586 19.5547 41.1587C19.5547 42.5589 20.6897 43.6939 22.0899 43.6939Z" fill="#FBAE17"/>
<path d="M10.2103 11.6826C7.84212 14.4265 6.41452 17.9941 6.41452 21.8929C6.41452 25.4745 7.62506 28.775 9.65377 31.4159C9.82353 31.6413 9.80962 31.9558 9.60925 32.1562L9.07494 32.6905C8.83562 32.9298 8.44323 32.8992 8.23451 32.632C6.21136 30.0217 4.9062 26.8186 4.62235 23.3345C4.16596 23.9968 3.40345 24.4309 2.53798 24.4309C1.13541 24.4309 0 23.2955 0 21.8929C0 20.4904 1.13541 19.3577 2.53798 19.3577C3.40345 19.3577 4.16596 19.7919 4.62235 20.4542C4.93403 16.6305 6.47295 13.1603 8.84118 10.4247C9.05267 10.177 9.42836 10.1603 9.65934 10.3913L10.1881 10.9201C10.3968 11.1288 10.4024 11.4599 10.2103 11.6826Z" fill="#06135B"/>
<path d="M56.0218 32.1867C52.2704 32.1867 49.2148 29.2035 49.2148 25.5384V17.4848C49.2148 17.1787 49.4653 16.9282 49.7714 16.9282H52.6656C52.9717 16.9282 53.2222 17.1787 53.2222 17.4848V25.5384C53.2222 26.9939 54.4773 28.1794 56.019 28.1794C57.5607 28.1794 58.8158 26.9939 58.8158 25.5384V17.4848C58.8158 17.1787 59.0662 16.9282 59.3723 16.9282H62.2665C62.5726 16.9282 62.8231 17.1787 62.8231 17.4848V25.5384C62.8231 29.2062 59.7703 32.1867 56.019 32.1867H56.0218Z" fill="#06135B"/>
<path d="M45.3813 16.9282H42.4872C42.1811 16.9282 41.9306 17.1759 41.9306 17.4848V17.9134C40.8314 17.2956 39.5651 16.9449 38.2182 16.9449C34.0077 16.9449 30.582 20.3679 30.582 24.5783C30.582 28.7888 34.0077 32.2118 38.2182 32.2118C39.5651 32.2118 40.8314 31.8611 41.9306 31.2433V37.1931C41.9306 37.4992 42.1811 37.7497 42.4872 37.7497H45.3813C45.6902 37.7497 45.9379 37.4992 45.9379 37.1931V17.4848C45.9379 17.1759 45.6902 16.9282 45.3813 16.9282ZM38.2182 28.2044C36.2173 28.2044 34.5922 26.5764 34.5922 24.5783C34.5922 22.5802 36.2173 20.9522 38.2182 20.9522C40.2191 20.9522 41.8443 22.5802 41.8443 24.5783C41.8443 26.5764 40.2163 28.2044 38.2182 28.2044Z" fill="#06135B"/>
<path d="M97.729 11.4346H94.8348C94.5287 11.4346 94.2783 11.685 94.2783 11.9911V17.9131C93.179 17.2953 91.9128 16.9447 90.5659 16.9447C86.3554 16.9447 82.9297 20.3676 82.9297 24.5781C82.9297 28.7886 86.3554 32.2115 90.5659 32.2115C91.9128 32.2115 93.179 31.8608 94.2783 31.243V31.6994C94.2783 32.0083 94.5287 32.256 94.8348 32.256H97.729C98.0379 32.256 98.2856 32.0083 98.2856 31.6994V11.9911C98.2856 11.685 98.0379 11.4346 97.729 11.4346ZM90.5659 28.2042C88.565 28.2042 86.9398 26.5762 86.9398 24.5781C86.9398 22.58 88.565 20.952 90.5659 20.952C92.5668 20.952 94.1892 22.58 94.1892 24.5781C94.1892 26.5762 92.564 28.2042 90.5659 28.2042Z" fill="#06135B"/>
<path d="M104.966 16.9224H102.072C101.765 16.9224 101.516 17.1716 101.516 17.4789V31.6994C101.516 32.0068 101.765 32.256 102.072 32.256H104.966C105.274 32.256 105.523 32.0068 105.523 31.6994V17.4789C105.523 17.1716 105.274 16.9224 104.966 16.9224Z" fill="#FBAE17"/>
<path d="M79.8501 16.9282H76.9559C76.647 16.9282 76.3993 17.1759 76.3993 17.4848V17.9134C75.3001 17.2956 74.0339 16.9449 72.6842 16.9449C68.4765 16.9449 65.0508 20.3679 65.0508 24.5783C65.0508 28.7888 68.4765 32.2118 72.6842 32.2118C74.0339 32.2118 75.3001 31.8611 76.3993 31.2433V31.6997C76.3993 32.0086 76.647 32.2563 76.9559 32.2563H79.8501C80.1562 32.2563 80.4067 32.0086 80.4067 31.6997V17.4848C80.4067 17.1759 80.1562 16.9282 79.8501 16.9282ZM72.6842 28.2044C70.6861 28.2044 69.0581 26.5764 69.0581 24.5783C69.0581 22.5802 70.6861 20.9522 72.6842 20.9522C74.6823 20.9522 76.3103 22.5802 76.3103 24.5783C76.3103 26.5764 74.6851 28.2044 72.6842 28.2044Z" fill="#06135B"/>
<path d="M120.071 32.2117C115.86 32.2117 112.438 28.7859 112.438 24.5782C112.438 20.3705 115.863 16.9448 120.071 16.9448C124.279 16.9448 127.704 20.3705 127.704 24.5782C127.704 28.7859 124.279 32.2117 120.071 32.2117ZM120.071 20.9522C118.073 20.9522 116.445 22.5801 116.445 24.5782C116.445 26.5763 118.07 28.2043 120.071 28.2043C122.072 28.2043 123.697 26.5791 123.697 24.5782C123.697 22.5774 122.069 20.9522 120.071 20.9522Z" fill="#FBAE17"/>
<path d="M127.24 16.9282H124.346C124.038 16.9282 123.789 17.1774 123.789 17.4848V31.7025C123.789 32.0099 124.038 32.2591 124.346 32.2591H127.24C127.547 32.2591 127.796 32.0099 127.796 31.7025V17.4848C127.796 17.1774 127.547 16.9282 127.24 16.9282Z" fill="#FBAE17"/>
<path d="M108.843 20.9218C109.653 20.9218 110.402 21.1861 111.006 21.6342V17.3402C110.321 17.1343 109.595 17.0229 108.843 17.0229C105.746 17.0229 103.08 18.9014 101.92 21.5785C101.652 22.1991 101.806 22.4662 101.711 23.1592L102.039 23.5544H105.34C105.78 22.0349 107.182 20.9218 108.841 20.9218H108.843Z" fill="#FBAE17"/>
<path d="M17.8511 31.5298C16.7045 31.0456 15.789 30.3276 15.1016 29.3787C14.5227 28.5772 14.1721 27.6366 14.058 26.5568C14.0218 26.2312 14.2862 25.9502 14.6118 25.9502H18.672C18.9392 25.9502 19.1618 26.1422 19.2175 26.401C19.3371 26.9381 19.5653 27.3639 19.9076 27.6783C20.339 28.0763 20.9039 28.2739 21.5996 28.2739C22.2953 28.2739 22.8769 28.1041 23.2916 27.7646C23.7062 27.4251 23.9122 26.9548 23.9122 26.3537C23.9122 25.85 23.748 25.4326 23.4196 25.1042C23.0912 24.7758 22.6877 24.5031 22.2063 24.2916C21.7276 24.0801 21.0458 23.8352 20.1608 23.5653C18.8835 23.159 17.8399 22.7526 17.0301 22.3436C16.2203 21.9373 15.5246 21.3362 14.943 20.5403C14.3613 19.7472 14.0691 18.7091 14.0691 17.429C14.0691 15.5311 14.737 14.0423 16.07 12.9681C17.4058 11.8939 19.1423 11.354 21.2879 11.354C23.4335 11.354 25.2257 11.8911 26.5615 12.9681C27.7497 13.9254 28.4455 15.2139 28.6514 16.8391C28.6931 17.1702 28.4288 17.4596 28.0976 17.4596H23.9734C23.7174 17.4596 23.4864 17.2899 23.4335 17.0394C23.3361 16.5775 23.1191 16.199 22.7823 15.904C22.351 15.5255 21.7944 15.3363 21.1182 15.3363C20.5365 15.3363 20.0662 15.4949 19.7073 15.815C19.351 16.135 19.1701 16.5942 19.1701 17.1953C19.1701 17.8548 19.4707 18.3669 20.0718 18.737C20.6729 19.1043 21.6135 19.5023 22.8909 19.928C24.1682 20.3733 25.2062 20.7991 26.0077 21.2081C26.8063 21.6144 27.4965 22.2072 28.0809 22.9809C28.6625 23.7573 28.9547 24.7535 28.9547 25.9752C28.9547 27.1969 28.6681 28.1932 28.0948 29.1449C27.5215 30.0939 26.6895 30.8508 25.5986 31.413C24.5077 31.9751 23.2192 32.2562 21.736 32.2562C20.2527 32.2562 18.9921 32.0141 17.8455 31.5298H17.8511Z" fill="#06135B"/>
</svg>
