<svg width="171" height="120" viewBox="0 0 171 120" fill="none" xmlns="http://www.w3.org/2000/svg">
<rect width="171" height="120" fill="white"/>
<path d="M46.3789 8.37891H124.619V86.6195H46.3789V8.37891Z" fill="#F0DB4F"/>
<path d="M118.218 67.963C117.645 64.3936 115.318 61.3955 108.423 58.5998C106.028 57.4992 103.358 56.7111 102.563 54.8961C102.28 53.8398 102.243 53.2448 102.422 52.6055C102.935 50.5305 105.412 49.8836 107.375 50.4786C108.639 50.9023 109.836 51.8767 110.558 53.4311C113.934 51.2448 113.927 51.2592 116.285 49.7567C115.422 48.4186 114.961 47.8011 114.396 47.2286C112.365 44.9605 109.598 43.7923 105.173 43.8817L102.868 44.1798C100.66 44.738 98.5547 45.8973 97.3203 47.4517C93.6166 51.6542 94.6728 59.0092 99.1797 62.0361C103.62 65.3686 110.142 66.1267 110.975 69.243C111.786 73.058 108.172 74.293 104.579 73.8542C101.932 73.3036 100.459 71.958 98.8672 69.5111C95.9372 71.2067 95.9372 71.2067 92.9247 72.9392C93.6391 74.5011 94.3897 75.208 95.5872 76.5611C101.255 82.3098 115.437 82.0273 117.981 73.3261C118.084 73.0273 118.769 71.0348 118.218 67.963ZM88.9153 44.3423H81.5972L81.5672 63.2623C81.5672 67.2861 81.7753 70.9748 81.1209 72.1055C80.0503 74.3292 77.2759 74.0536 76.0116 73.6223C74.7247 72.9898 74.0703 72.0905 73.3122 70.8192C73.1041 70.4542 72.9478 70.1717 72.8953 70.1498L66.9453 73.7936C67.9347 75.8242 69.3922 77.5867 71.2591 78.7317C74.0478 80.4055 77.7959 80.9186 81.7159 80.0186C84.2672 79.2755 86.4684 77.7361 87.6209 75.393C89.2872 72.3211 88.9297 68.603 88.9147 64.4905C88.9522 57.7811 88.9153 51.073 88.9153 44.3423Z" fill="#323330"/>
<path d="M51.1768 105.937H52.6807C52.7012 106.75 53.2959 107.297 54.1709 107.297C55.1484 107.297 55.7021 106.709 55.7021 105.608V98.6357H57.2334V105.615C57.2334 107.598 56.085 108.739 54.1846 108.739C52.4004 108.739 51.1768 107.632 51.1768 105.937ZM61.9229 107.386C63.0303 107.386 63.8506 106.682 63.8506 105.759V105.137L62.0322 105.253C61.0068 105.321 60.542 105.67 60.542 106.326C60.542 106.996 61.123 107.386 61.9229 107.386ZM61.5469 108.623C60.1113 108.623 59.0654 107.755 59.0654 106.395C59.0654 105.055 60.0635 104.282 61.834 104.173L63.8506 104.057V103.414C63.8506 102.628 63.3311 102.184 62.3262 102.184C61.5059 102.184 60.9385 102.484 60.7744 103.011H59.3525C59.5029 101.732 60.7061 100.912 62.3945 100.912C64.2607 100.912 65.3135 101.842 65.3135 103.414V108.5H63.8984V107.454H63.7822C63.3379 108.199 62.5244 108.623 61.5469 108.623ZM73.4619 101.056L70.7822 108.5H69.2031L66.5166 101.056H68.0889L69.9414 106.928H70.0576L71.9033 101.056H73.4619ZM77.126 107.386C78.2334 107.386 79.0537 106.682 79.0537 105.759V105.137L77.2354 105.253C76.21 105.321 75.7451 105.67 75.7451 106.326C75.7451 106.996 76.3262 107.386 77.126 107.386ZM76.75 108.623C75.3145 108.623 74.2686 107.755 74.2686 106.395C74.2686 105.055 75.2666 104.282 77.0371 104.173L79.0537 104.057V103.414C79.0537 102.628 78.5342 102.184 77.5293 102.184C76.709 102.184 76.1416 102.484 75.9775 103.011H74.5557C74.7061 101.732 75.9092 100.912 77.5977 100.912C79.4639 100.912 80.5166 101.842 80.5166 103.414V108.5H79.1016V107.454H78.9854C78.541 108.199 77.7275 108.623 76.75 108.623ZM82.4375 103.161C82.4375 101.842 83.6475 100.912 85.3291 100.912C87.0039 100.912 88.0977 101.691 88.2412 103.004H86.833C86.6963 102.457 86.1631 102.108 85.3291 102.108C84.5088 102.108 83.8867 102.498 83.8867 103.079C83.8867 103.523 84.2627 103.804 85.0693 103.988L86.3066 104.275C87.7217 104.604 88.3848 105.212 88.3848 106.306C88.3848 107.707 87.0791 108.644 85.3018 108.644C83.5312 108.644 82.376 107.844 82.2461 106.524H83.7158C83.9004 107.099 84.4473 107.454 85.3359 107.454C86.252 107.454 86.9014 107.044 86.9014 106.449C86.9014 106.005 86.5527 105.718 85.8076 105.54L84.5088 105.239C83.0938 104.904 82.4375 104.269 82.4375 103.161ZM96.458 103.489H95.0293C94.8584 102.765 94.2568 102.225 93.2725 102.225C92.042 102.225 91.29 103.168 91.29 104.754C91.29 106.367 92.0488 107.331 93.2725 107.331C94.2021 107.331 94.8379 106.907 95.0293 106.107H96.458C96.2666 107.604 95.1182 108.644 93.2793 108.644C91.1123 108.644 89.7861 107.181 89.7861 104.754C89.7861 102.368 91.1055 100.912 93.2725 100.912C95.1387 100.912 96.2666 101.999 96.458 103.489ZM98.1396 108.5V101.056H99.5547V102.197H99.6641C99.876 101.466 100.703 100.933 101.674 100.933C101.893 100.933 102.173 100.953 102.33 100.994V102.443C102.207 102.402 101.77 102.354 101.51 102.354C100.396 102.354 99.6094 103.059 99.6094 104.104V108.5H98.1396ZM103.772 108.5V101.056H105.235V108.5H103.772ZM104.504 99.75C103.957 99.75 103.554 99.3604 103.554 98.8545C103.554 98.3418 103.957 97.9521 104.504 97.9521C105.051 97.9521 105.454 98.3418 105.454 98.8545C105.454 99.3604 105.051 99.75 104.504 99.75ZM111.258 100.933C113.151 100.933 114.348 102.409 114.348 104.774C114.348 107.14 113.151 108.623 111.271 108.623C110.212 108.623 109.371 108.158 108.981 107.372H108.865V110.975H107.396V101.056H108.811V102.286H108.92C109.371 101.438 110.246 100.933 111.258 100.933ZM110.841 107.304C112.092 107.304 112.837 106.354 112.837 104.774C112.837 103.202 112.092 102.252 110.848 102.252C109.61 102.252 108.838 103.223 108.838 104.781C108.838 106.333 109.61 107.304 110.841 107.304ZM116.638 99.2031H118.107V101.09H119.721V102.327H118.107V106.155C118.107 106.935 118.429 107.276 119.16 107.276C119.386 107.276 119.516 107.263 119.721 107.242V108.466C119.481 108.507 119.208 108.541 118.921 108.541C117.287 108.541 116.638 107.967 116.638 106.531V102.327H115.455V101.09H116.638V99.2031Z" fill="#888888"/>
</svg>
