<svg width="171" height="120" viewBox="0 0 171 120" fill="none" xmlns="http://www.w3.org/2000/svg">
<rect width="171" height="120" fill="white"/>
<path d="M75.2559 68.8399C75.2559 68.8399 72.2766 70.5737 77.3791 71.1587C83.5616 71.8649 86.7209 71.7637 93.5322 70.4762C93.5322 70.4762 95.3266 71.5981 97.8278 72.5706C82.5534 79.1143 63.2603 72.1912 75.2559 68.8399ZM73.3884 60.2993C73.3884 60.2993 70.0459 62.7737 75.1528 63.3024C81.7572 63.9843 86.9716 64.0399 95.9991 62.3024C95.9991 62.3024 97.2447 63.5681 99.2066 64.2593C80.7428 69.6593 60.1778 64.6843 73.3884 60.2993Z" fill="#0074BD"/>
<path d="M89.1266 45.8068C92.8922 50.1412 88.1391 54.0381 88.1391 54.0381C88.1391 54.0381 97.6947 49.1062 93.3072 42.9274C89.2078 37.1681 86.0653 34.3074 103.079 24.4399C103.079 24.4406 76.3722 31.1087 89.1266 45.8068Z" fill="#EA2D2E"/>
<path d="M109.327 75.1604C109.327 75.1604 111.532 76.9792 106.897 78.3848C98.0828 81.0548 70.2053 81.8598 62.4628 78.4917C59.6809 77.2804 64.8996 75.6011 66.5415 75.2467C68.2534 74.8761 69.2309 74.9436 69.2309 74.9436C66.1353 72.7642 49.2228 79.2248 60.6415 81.0779C91.7796 86.1255 117.402 78.8048 109.327 75.1604ZM76.6946 51.4511C76.6946 51.4511 62.5159 54.8192 71.674 56.0436C75.5415 56.5611 83.2478 56.4423 90.4309 55.8398C96.2996 55.3467 102.189 54.2936 102.189 54.2936C102.189 54.2936 100.122 55.1804 98.624 56.2017C84.2228 59.9898 56.409 58.2254 64.4171 54.3529C71.1871 51.0786 76.6946 51.4511 76.6946 51.4511ZM102.13 65.6679C116.768 58.0636 110 50.7554 105.275 51.7398C104.12 51.9804 103.602 52.1898 103.602 52.1898C103.602 52.1898 104.032 51.5154 104.852 51.2254C114.198 47.9411 121.384 60.9148 101.838 66.0536C101.838 66.0523 102.062 65.8492 102.13 65.6679Z" fill="#0074BD"/>
<path d="M93.3003 8.51221C93.3003 8.51221 101.405 16.6222 85.6109 29.0891C72.9446 39.0928 82.7228 44.7953 85.6065 51.3135C78.2121 44.6428 72.7884 38.7697 76.4265 33.3041C81.769 25.2828 96.5696 21.3922 93.3003 8.51221Z" fill="#EA2D2E"/>
<path d="M78.1309 86.2749C92.1784 87.1731 113.756 85.7749 114.267 79.1274C114.267 79.1274 113.285 81.6474 102.656 83.6468C90.6647 85.9043 75.8722 85.6412 67.1016 84.1931C67.1016 84.1937 68.8984 85.6812 78.1309 86.2749Z" fill="#0074BD"/>
<path d="M70.5977 105.92H72.1016C72.1221 106.734 72.7168 107.281 73.5918 107.281C74.5693 107.281 75.123 106.693 75.123 105.592V98.6196H76.6543V105.599C76.6543 107.582 75.5059 108.723 73.6055 108.723C71.8213 108.723 70.5977 107.616 70.5977 105.92ZM81.3438 107.37C82.4512 107.37 83.2715 106.666 83.2715 105.743V105.121L81.4531 105.237C80.4277 105.305 79.9629 105.654 79.9629 106.31C79.9629 106.98 80.5439 107.37 81.3438 107.37ZM80.9678 108.607C79.5322 108.607 78.4863 107.739 78.4863 106.378C78.4863 105.039 79.4844 104.266 81.2549 104.157L83.2715 104.041V103.398C83.2715 102.612 82.752 102.167 81.7471 102.167C80.9268 102.167 80.3594 102.468 80.1953 102.995H78.7734C78.9238 101.716 80.127 100.896 81.8154 100.896C83.6816 100.896 84.7344 101.826 84.7344 103.398V108.484H83.3193V107.438H83.2031C82.7588 108.183 81.9453 108.607 80.9678 108.607ZM92.8828 101.04L90.2031 108.484H88.624L85.9375 101.04H87.5098L89.3623 106.912H89.4785L91.3242 101.04H92.8828ZM96.5469 107.37C97.6543 107.37 98.4746 106.666 98.4746 105.743V105.121L96.6562 105.237C95.6309 105.305 95.166 105.654 95.166 106.31C95.166 106.98 95.7471 107.37 96.5469 107.37ZM96.1709 108.607C94.7354 108.607 93.6895 107.739 93.6895 106.378C93.6895 105.039 94.6875 104.266 96.458 104.157L98.4746 104.041V103.398C98.4746 102.612 97.9551 102.167 96.9502 102.167C96.1299 102.167 95.5625 102.468 95.3984 102.995H93.9766C94.127 101.716 95.3301 100.896 97.0186 100.896C98.8848 100.896 99.9375 101.826 99.9375 103.398V108.484H98.5225V107.438H98.4062C97.9619 108.183 97.1484 108.607 96.1709 108.607Z" fill="#888888"/>
</svg>
