<svg width="171" height="120" viewBox="0 0 171 120" fill="none" xmlns="http://www.w3.org/2000/svg">
<rect width="171" height="120" fill="white"/>
<g clip-path="url(#clip0_969_18041)">
<path d="M113.549 46.0535C113.549 61.9035 100.987 74.7523 85.4917 74.7523C69.9961 74.7523 57.4336 61.9035 57.4336 46.0535C57.4336 30.2035 69.9961 17.3535 85.4917 17.3535C100.987 17.3535 113.549 30.2035 113.549 46.0535Z" fill="#D33833"/>
<path d="M58.5789 53.1587C58.5789 53.1587 56.5477 23.2305 84.1239 22.3762L82.2002 19.1699L67.2358 24.193L62.9608 29.1099L59.2195 36.2718L57.082 44.6087L57.7227 50.1668" fill="#EF3D3A"/>
<path d="M66.2861 26.4677C61.3636 31.5052 58.3173 38.4589 58.3173 46.1527C58.3173 53.8445 61.3636 60.8002 66.2861 65.8364C71.2111 70.872 77.9986 73.9802 85.503 73.9802C93.0073 73.9802 99.7948 70.872 104.72 65.8364C109.642 60.8002 112.689 53.8445 112.689 46.1527C112.689 38.4589 109.642 31.5045 104.72 26.4677C99.7948 21.4333 93.0073 18.3252 85.503 18.3245C77.9992 18.3252 71.2111 21.4327 66.2861 26.4683V26.4677ZM65.0405 67.0545C59.8092 61.7039 56.5742 54.3095 56.5742 46.1527C56.5742 37.9945 59.8092 30.6008 65.0405 25.2502C70.2717 19.8983 77.5117 16.5814 85.503 16.582C93.4955 16.5808 100.737 19.8983 105.966 25.2502C111.199 30.6008 114.434 37.9952 114.433 46.1527C114.433 54.3089 111.199 61.7039 105.966 67.0545C100.737 72.4058 93.4955 75.7233 85.5036 75.7233C77.5117 75.7233 70.2705 72.4058 65.0405 67.0545Z" fill="#231F20"/>
<path d="M97.3027 46.2083L93.027 46.8495L87.2552 47.4908L83.5139 47.5977L79.8795 47.4914L77.1008 46.6358L74.642 43.9639L72.7183 38.5127L72.2908 37.337L69.7252 36.482L68.2289 34.0233L67.1602 30.4958L68.3358 27.3958L71.1145 26.4345L73.3595 27.5033L74.4283 29.8545L75.7114 29.6408L76.1383 29.1064L75.7114 26.6483L75.6039 23.5483L76.2452 19.2733L76.2202 16.8308L78.1695 13.7152L81.5895 11.2564L87.5758 8.69141L94.2027 9.65328L99.9745 13.822L102.647 18.097L104.357 21.197L104.785 28.8927L103.501 35.5202L101.15 41.3983L98.9058 44.4983" fill="#F0D6B7"/>
<path d="M100.51 43.1067L97.9455 45.6723V55.6123L95.708 64.7748L94.6323 64.8042L95.4867 75.0655L99.548 74.5311L98.5867 64.6973L96.773 64.7467L101.687 64.483C101.687 64.483 104.145 58.2836 104.145 57.963C104.145 57.6423 106.284 48.9848 106.284 48.9848L101.472 43.9617L100.51 43.1055L100.51 43.1067ZM74.7505 44.7092L72.0786 45.7786L63.5273 51.6573L64.0623 53.368L66.5211 60.6355L67.5892 72.7148L68.3373 73.9961L79.0255 77.6317L79.668 76.8817L78.3848 67.9036V65.3392L93.6692 64.6973L94.8442 64.0561L85.5467 59.6736L87.2567 56.3611L84.7986 57.2155L83.8361 56.0398L82.5536 50.4817L81.4842 50.1611L79.133 49.4123L77.1017 47.5961L74.7505 44.7092Z" fill="#335061"/>
<path d="M68.3494 27.4013L71.1281 26.4388L73.3731 27.5082L74.4419 29.8595L75.725 29.6457L76.0456 28.3632L75.4044 25.9051L76.0456 20.0257L75.5106 16.8195L77.435 14.5745L81.6037 11.2613L80.4275 9.6582L74.5488 12.5438L72.0906 14.4682L70.7006 17.4607L68.5631 20.3463L67.9219 23.767L68.3494 27.4013Z" fill="#6D6B6D"/>
<path d="M82.6581 10.0103C81.9256 10.0028 81.0688 10.0778 81.0688 10.0778L74.1219 12.7509L71.4487 15.4234L70.2731 17.5609L72.7319 17.3472C72.7319 17.3472 74.335 13.3922 80.7481 11.4684C84.7563 10.2659 83.8794 10.0234 82.6581 10.0103ZM75.5112 16.8122L69.6325 18.2015L67.9219 23.7597L68.3494 27.3934L69.5244 26.6465C69.5244 26.6465 67.28 19.1628 75.8306 18.094L75.5112 16.8122Z" fill="#DCD9D8"/>
<path d="M89.2413 7.79512C88.4181 7.80951 87.6037 7.96772 86.835 8.26262C80.4225 10.7207 75.7194 15.2095 75.8256 18.0951C76.0081 23.0101 75.9331 23.0139 75.9331 23.0139C75.9331 23.0139 77.7506 13.607 86.9438 11.7895C94.5113 10.2939 98.4862 12.1095 99.9831 13.8195C99.9831 13.8195 94.8269 7.682 89.2419 7.7945L89.2413 7.79512ZM100.696 14.8889C100.356 14.887 97.6256 14.9564 97.525 17.562C97.525 17.562 97.525 17.9889 97.7388 18.4164C97.7388 18.4164 100.198 15.637 101.694 17.1332L100.732 14.8895C100.732 14.8895 100.719 14.8889 100.696 14.8889ZM84.9556 16.1451C84.4306 16.1576 83.7831 16.377 82.9875 16.9201C80.6363 18.5232 80.85 20.7682 81.2775 21.1957C81.705 21.6232 81.5894 22.4832 81.915 21.8926C82.24 21.302 82.1331 19.3789 83.3088 18.8445C84.4844 18.3101 86.4125 17.712 87.1588 18.7057C87.1588 18.7057 86.8325 16.102 84.9556 16.1457V16.1451ZM101.479 22.6926C101.479 22.6926 99.7175 23.0639 99.555 24.6164C99.3925 26.1689 101.479 24.9364 101.8 24.8295L101.479 22.6926ZM88.5456 22.7995C88.5456 22.7995 86.1944 23.1201 86.1944 24.6164C86.1944 26.1126 88.8669 26.0057 89.615 25.3645L88.5456 22.7995ZM69.52 26.6482L67.0625 29.212L67.49 32.4189L68.7713 35.7314L70.1619 36.1601C68.1306 33.702 69.0925 31.9907 69.52 29.6395C69.9469 27.2876 74.0094 29.747 74.0094 29.747L73.9019 28.1426L72.2994 26.8614L69.52 26.6482ZM93.6506 31.5526C92.9469 31.5214 92.6781 33.8245 92.6206 34.4189C92.8144 33.8439 94.6025 32.6876 94.6025 32.6876C94.6025 32.6876 94.6025 31.8151 93.73 31.5664C93.7041 31.559 93.6775 31.5543 93.6506 31.5526ZM92.6206 34.4189C92.6035 34.4628 92.5992 34.5107 92.6081 34.557C92.6081 34.557 92.6119 34.5064 92.6206 34.4189ZM74.3406 35.232L72.9406 36.5882L73.2613 41.2914L76.6819 46.6357C76.6819 46.6357 80.5213 47.502 80.1019 47.1707C75.5063 43.5364 75.1856 36.802 75.0788 36.0532C74.9725 35.3057 74.3406 35.232 74.3406 35.232ZM86.3681 36.8251C85.9463 36.8314 85.6669 36.9676 85.5881 37.0726C85.3213 37.4289 85.8738 39.3676 85.8738 39.3676L86.4081 39.4751C86.3019 37.337 87.5838 37.1226 87.5838 37.1226C87.11 36.8951 86.6963 36.8201 86.3681 36.8251Z" fill="#F7E4CD"/>
<path d="M74.0023 44.6023L63.5273 51.6561L64.703 54.9705L67.483 66.9405L67.5892 73.248L69.0855 73.7817C71.223 68.6505 67.0555 52.0836 67.0555 52.0836L77.1017 47.5948L74.0023 44.6023ZM78.1361 56.7573L77.8498 57.428C77.8498 57.428 77.6367 59.3517 77.6367 59.8861C77.6367 60.4211 77.8498 64.9111 77.8498 64.9111H79.5605V58.4967L78.1355 56.7567L78.1361 56.7573ZM78.1711 65.8723L73.3617 66.0861L74.7505 67.0486L78.1711 67.583V65.8723ZM100.51 43.1055L98.4798 45.3498L105.962 50.9086L106.175 48.3436L100.51 43.1055ZM98.3723 64.0555L94.6323 64.803L95.1661 67.7967C96.5555 68.438 98.9073 66.7273 98.9073 66.7273L98.3723 64.0555Z" fill="#49728B"/>
<path d="M77.1016 46.6406V47.6019L78.4603 49.0988L82.7353 51.0225L82.8428 47.8169L79.8809 47.4944L77.1016 46.6406ZM108.388 61.8181L104.968 62.8875L101.687 64.4894L99.9434 64.1706L98.5859 64.7038L99.7309 73.6838L103.898 72.5069L111.808 72.0794L112.984 68.4456L110.847 62.1394L108.388 61.8181ZM94.6322 64.81L88.4009 64.8113L78.3847 65.345L78.5666 70.2631L79.6678 76.8881L81.8803 85.8688L86.7966 86.9369L94.9203 86.2956L95.0266 84.6919L94.0641 76.0344L94.6322 64.81ZM95.4553 63.9562L93.1034 57.9706L90.6447 54.4431C90.6447 54.4431 91.1791 52.9469 91.9278 52.9469H94.3859L96.7372 53.8019L96.5241 57.7569L95.4553 63.9562Z" fill="white"/>
<path d="M78.0667 48.1348L77.7461 48.5629L79.5636 49.8448L82.5555 50.4854L82.4492 49.2041C81.3805 49.5248 78.0667 48.1348 78.0667 48.1348ZM92.923 52.7304L90.4655 53.0504L94.6342 62.8841L95.4886 62.9916L95.9161 61.9229C95.9161 61.9229 92.9223 56.1504 92.9223 55.2954C92.9223 55.2954 93.4573 54.0129 94.2055 54.3329C94.9542 54.6541 96.558 55.5091 96.558 55.5091V53.4785L92.923 52.7304ZM103.078 63.9535L101.689 64.4873L102.864 70.366C102.437 70.2591 99.658 71.5429 99.658 71.5429L99.9767 73.2529L101.154 72.8248L104.894 72.291L105.964 73.6804L109.17 73.7866L111.094 73.3591L112.804 70.7948L112.697 68.8698L111.522 65.4491C111.842 68.0141 110.559 70.4735 110.559 70.4735C110.025 70.4735 104.04 70.1523 104.04 70.1523C104.04 69.511 103.078 63.9535 103.078 63.9535ZM94.8467 64.0598L93.2436 64.7016C93.2436 64.7016 92.7098 75.8185 94.313 83.7279C94.313 83.7279 91.1067 85.7585 86.403 86.2923L95.3811 85.9716L96.4505 85.3304L95.168 67.801L94.8467 64.0598ZM97.6405 75.4954C97.1805 75.4979 96.4967 75.8241 96.0136 75.7923C95.943 77.4804 96.1798 80.1879 96.2592 81.9591C97.3817 81.9604 97.8623 81.7141 98.7005 81.4316C98.7948 79.3473 98.0398 77.4179 97.823 75.5148C97.7636 75.4994 97.7017 75.4929 97.6405 75.4954Z" fill="#DCD9D8"/>
<path d="M98.4936 47.3845C97.1236 47.4482 95.2761 49.1951 94.4154 49.5013C94.5267 49.8213 94.7092 50.0745 94.7229 50.4826C95.3261 50.3338 96.0604 50.4357 96.5836 50.6926C95.9786 50.7601 95.3098 50.7563 94.9098 51.0445C94.7629 51.4676 94.9442 52.0445 94.8461 52.632C96.2811 53.037 97.9204 53.2532 99.7336 53.3063C100.087 52.8482 100.207 51.9732 100.165 51.1076C100.115 50.0638 99.8404 47.9176 99.1961 47.542C98.9836 47.4188 98.7473 47.3732 98.4936 47.3845ZM84.4092 47.852C82.9567 47.8832 83.1079 50.4195 83.1786 51.972C83.2379 53.2832 83.9211 54.6707 84.2161 55.5426C84.3561 55.9488 84.3873 56.3813 84.7348 56.4613C85.3498 56.6051 87.3786 55.7945 87.9567 55.4795C89.1786 54.8132 90.1273 53.7545 91.1648 53.0438L91.2036 52.0076C90.5798 51.6963 89.8598 51.4751 88.9429 51.4351C89.5648 51.1226 90.4786 51.127 91.0448 50.7551L91.0611 50.3413C90.0273 50.262 89.6329 49.8013 88.9517 49.4282C87.8367 48.8195 86.1617 48.1551 84.7217 47.8801C84.6188 47.8598 84.514 47.8504 84.4092 47.852ZM92.8029 50.0126C92.5267 50.0151 92.1973 50.1195 91.8217 50.3707C91.7504 51.1576 91.9342 51.4145 92.0923 52.3176C94.2754 53.0007 94.2954 50.0026 92.8029 50.0126Z" fill="#D33833"/>
<path d="M98.3415 46.6406L94.2803 48.9919L94.0653 50.1669V52.5181L95.5615 53.0531C95.5615 53.0531 94.8134 51.9844 95.3484 51.6637C95.8828 51.3431 96.4178 51.6638 96.7384 51.1294C97.059 50.5944 96.7384 50.2737 96.8446 49.6325C96.9515 48.9912 97.4859 48.885 98.0203 48.7781C98.5546 48.6719 100.052 48.4575 100.265 48.9919L99.624 47.0681L98.3415 46.6406ZM84.8815 47.2844C84.3521 47.2731 83.8696 47.3606 83.5159 47.6012C81.0028 49.3106 83.0284 53.2613 84.2596 55.585C84.1553 54.2492 84.0432 52.9139 83.9234 51.5794C83.6971 49.0919 84.5215 49.5263 86.6784 49.5263C87.0084 49.5263 88.7065 49.9188 88.8284 50.1675C89.4115 51.3581 87.8534 51.0931 89.4996 51.9913C90.8896 52.7488 93.3446 51.5306 92.7834 49.8463C92.469 49.4713 91.1459 49.7294 90.6715 49.4838L88.1665 48.185C87.4365 47.8056 86.0465 47.3088 84.8815 47.2844ZM84.259 55.5844L84.3384 56.5806L84.7209 56.4663C84.5934 56.2131 84.434 55.9144 84.2596 55.585L84.259 55.5844Z" fill="#EF3D3A"/>
<path d="M87.7252 7.50399C85.4815 7.54649 83.2871 7.91961 81.4584 8.59274C80.099 9.09274 78.7821 9.54024 77.5884 10.2415C74.394 12.1165 71.0027 13.3715 70.0559 17.1459C67.7221 18.1909 67.0184 21.1777 67.1359 24.644C67.1584 25.3196 67.5252 26.164 67.3984 26.7996C67.3334 27.1221 66.8959 27.5352 66.8084 27.7452C65.6896 30.4121 66.5865 33.9177 67.879 35.8134C68.6602 36.9584 69.954 37.974 71.6602 38.2434C71.7284 39.2652 71.974 40.1446 72.4459 41.1802C72.7446 41.8352 73.8602 43.0127 73.4496 43.8484C73.2434 44.2696 71.4265 45.184 70.824 45.5459C68.7896 46.7659 67.3152 47.514 65.4371 48.8659C64.2221 49.7409 62.3215 49.8534 62.6215 51.8709C62.8234 53.2321 63.5984 54.9196 64.0415 56.2846C64.5215 57.7577 65.209 59.1071 65.604 60.6359C66.4821 64.0427 66.6652 67.2527 66.879 70.5802C66.9627 71.8834 66.824 73.2621 67.1621 73.9815C67.5109 74.7252 68.8034 74.9627 69.7371 75.3965C72.434 76.6434 75.2952 78.5477 78.8321 78.1696C79.6752 81.0046 80.4721 84.024 81.484 86.5071C85.1109 87.8109 90.8365 87.6071 94.6071 87.154C95.7534 87.0152 96.9627 86.4496 97.2321 85.4559C97.1515 84.8434 97.0621 84.2371 97.1009 83.5127C98.2796 83.269 99.884 83.0677 100.143 81.7627C100.507 79.9327 98.9878 77.3109 99.4946 75.3027C100.177 75.0815 100.906 74.9084 100.797 73.8309C101.947 73.2321 103.312 73.0984 104.768 73.1546C104.955 73.5171 105.222 73.8659 105.462 74.0652C107.502 74.4752 109.478 74.509 111.172 73.9565C113.088 73.3302 114.003 69.4096 113.565 67.544C113.253 66.2221 112.55 64.0565 111.95 62.7765C110.324 59.3015 105.479 61.4827 102.886 62.7715C104.144 59.4621 105.226 56.0309 106.336 52.3184C106.667 51.2059 107.322 49.629 107.175 48.4765C107.038 47.3927 105.348 46.254 104.458 45.3952C103.964 44.919 101.659 43.169 101.525 42.514C101.396 41.8802 102.465 40.4446 102.809 39.7265C103.303 38.699 103.656 37.4415 103.9 36.5859C105.712 30.2134 105.896 21.4584 103.305 16.2196C102.324 14.2352 99.5802 11.4946 97.8646 10.1965C95.3346 8.28399 91.4634 7.43399 87.7252 7.50399ZM88.024 9.27899C91.0534 9.24961 94.4221 10.3184 96.7034 11.6052C98.6096 12.6802 100.016 14.7602 101.357 16.4909C99.4765 15.9327 97.8759 16.8921 98.1677 18.4434C99.7421 17.0002 102.431 18.4277 103.227 20.0234C103.988 21.5484 103.983 23.809 104.1 26.0765C104.383 31.5752 103.093 37.2484 100.33 41.2227C99.5915 42.284 98.9715 43.444 97.9328 44.1746C95.429 45.9327 91.6234 47.5265 88.3646 46.4334C84.0584 44.9884 82.1021 42.119 79.7334 38.8334C79.7977 40.6384 81.0671 42.1196 82.3209 43.5002C83.4115 44.7034 84.7277 46.0627 86.144 46.624C84.9627 46.3465 83.149 46.2596 82.6565 47.3202C79.9002 47.1371 77.339 46.8552 76.0352 44.9871C75.0077 43.5146 73.964 41.0102 73.4959 39.0759C73.4002 38.6784 73.2365 37.8321 73.2765 37.6152C73.4302 36.7759 74.9252 36.4071 74.3371 35.234C73.2521 35.224 73.0077 36.2215 72.0121 36.3202C69.434 36.5752 67.6152 32.9034 67.7321 30.6877C67.8315 28.804 69.424 27.0015 71.6021 27.2396C73.1415 27.4084 73.6646 29.0884 73.9634 30.5834C74.8509 30.6309 76.1327 30.5452 76.5527 29.8527C76.4921 28.1634 75.7077 26.8084 75.7615 25.2559C75.8627 22.3384 77.4521 19.7059 76.2259 16.8321C77.5384 13.8546 81.389 11.5046 84.2371 10.084C85.3402 9.53399 86.6471 9.29399 88.0246 9.28024L88.024 9.27899ZM80.1877 10.7452C80.3115 10.7652 80.4252 10.8615 80.5352 10.979C80.5165 11.4859 80.0165 11.4752 79.679 11.6377C79.154 12.2834 78.3865 12.5852 77.7477 13.2927C77.0921 14.0177 76.359 15.9652 75.4902 16.1802C75.0546 16.289 74.5571 16.1052 74.1777 16.1302C73.1746 16.1934 72.4684 16.7071 71.4509 16.8546C72.7646 13.9827 76.8627 11.659 80.0596 10.7534C80.1013 10.7418 80.1449 10.739 80.1877 10.7452ZM85.6502 16.9784C84.0021 16.9802 82.1252 18.7421 81.6359 20.0865C81.4371 20.6327 81.1234 21.7052 81.9115 21.8959C82.7946 19.9277 84.2421 18.0302 87.1552 18.7084C87.7146 17.789 86.7146 17.1134 85.9759 17.0021C85.8679 16.9861 85.7594 16.9781 85.6502 16.9784ZM75.2402 17.2784C76.3665 20.1446 74.4321 23.5509 75.1527 26.6852C75.3734 27.6452 76.1365 29.1352 74.9177 29.1677C74.9496 26.4365 71.5615 24.7034 69.0084 26.309C68.8377 24.2377 68.5421 21.3259 69.9546 19.7721C71.2577 18.3371 73.054 17.444 75.2402 17.2784ZM101.35 22.0265C101.257 23.5996 101.841 24.5465 102.247 25.659C101.546 26.1002 100.181 25.8252 99.3909 26.1709C99.3346 28.4977 102.991 27.3509 103.547 26.0552C102.716 24.8477 102.146 23.399 101.488 22.0321L101.35 22.0265ZM88.6471 22.0621C88.2146 23.2896 89.3896 25.3734 90.0484 26.4271C89.1902 27.2602 87.6471 26.5684 86.499 26.5146C85.4034 28.2452 88.6384 28.5709 90.0265 28.1609C90.4065 28.049 91.064 27.4796 91.1546 27.2234C91.5402 26.1402 90.7627 25.6652 90.3627 25.2752C89.4753 24.4102 89.2715 23.2065 88.6471 22.0621ZM95.2402 23.1934C95.1565 23.1821 95.0559 23.2121 94.9352 23.2996C94.8571 26.1846 97.0009 28.5727 98.5996 30.4996C99.3809 31.4402 100.322 31.9777 99.4552 33.439C98.0577 33.9702 95.7959 35.4921 93.8527 35.1596C92.8215 34.9834 93.054 33.8127 92.684 33.1765C91.9727 34.1121 92.2515 35.5277 92.984 36.164C96.4084 36.5027 98.739 35.0427 100.829 33.6996C100.746 33.1734 101.461 32.2246 101.263 31.4334C101.194 31.1609 100.574 30.7659 100.198 30.354C98.6646 28.6821 96.564 26.184 95.729 24.2302C95.654 24.0552 95.6034 23.2415 95.2402 23.1934ZM70.8777 28.5902C70.0859 28.5777 69.3684 29.0996 69.199 30.3296C69.5502 30.0996 69.8334 29.4452 70.4665 29.7565C69.9102 30.8421 70.044 32.9565 70.8009 33.644C70.7965 32.3552 70.5959 30.1521 71.6946 30.219C72.464 30.2652 72.6196 31.9127 73.2746 32.2865C73.7265 30.1127 72.1984 28.6102 70.8777 28.5902ZM102.16 35.0652C100.489 35.8277 99.1409 36.9384 96.9584 37.1477C96.8527 37.5084 96.8977 38.4184 96.9559 39.0165C99.8102 38.9571 101.187 36.9171 102.16 35.0652ZM88.4821 36.2659C89.3165 38.499 93.0777 39.2865 96.259 39.1277C96.254 38.4665 96.2571 37.7965 96.1246 37.254C93.6496 37.3265 90.3027 37.2227 88.4821 36.2659ZM88.1365 38.0521C86.5284 38.054 87.8846 38.9484 88.1571 39.2984C88.7209 40.0234 89.3821 41.2602 90.4121 41.8077C92.0359 42.6702 95.2609 42.3084 96.4309 41.8327C96.8634 41.6577 97.2121 41.1721 97.3727 40.7621C93.7227 40.8496 89.3959 41.2134 88.1365 38.0521ZM100.284 44.1959C101.534 45.2027 102.289 46.1502 103.488 47.2271C104.138 47.8102 105.418 48.509 105.547 49.4521C105.619 49.9784 105.296 51.2677 105.178 51.8596C104.653 54.4559 103.471 57.8859 102.346 60.6065C101.938 61.5952 101.546 62.8315 101.007 63.0452C99.5296 63.6302 97.7365 62.9884 96.4809 63.7702C98.1684 60.8421 100.006 58.0759 101.66 55.1127C101.408 54.5252 100.79 54.2746 100.611 53.6202C101.772 51.4271 101.238 44.6184 98.2746 46.0559C98.689 45.4471 99.7771 44.9446 100.284 44.1959ZM74.2065 45.7459C74.4759 45.6396 76.4421 48.1977 76.7327 48.4052C78.3265 49.5365 80.3052 50.4302 82.1559 51.3134C82.269 52.1627 82.5309 53.2634 82.9921 54.7359C83.5002 56.3621 83.9196 58.6571 86.0684 57.4846C85.864 58.4134 84.6702 58.9896 84.9996 60.0727C85.2059 60.7521 87.4621 61.5915 88.1771 61.9952C89.4965 62.739 90.7002 63.1502 91.714 63.5852C87.1077 63.7115 82.7821 64.0865 78.5252 64.6659C78.0152 63.8759 78.2209 62.6584 78.1671 61.4002C78.1084 60.034 78.6765 56.954 78.1396 56.7627C77.5327 56.5471 77.419 57.7771 77.3971 58.0484C77.2834 59.4909 78.084 62.5452 77.2946 64.2721C76.4309 64.0277 76.0052 63.3784 75.1959 63.0834C74.8784 64.0834 75.8534 64.1315 75.7534 64.7665C75.6209 65.6059 74.0302 64.904 74.039 66.1521C75.0746 66.3184 76.6634 65.8302 77.7702 66.2971C78.0596 69.6927 78.5246 72.9102 79.034 76.5171C74.629 76.2884 71.7777 74.0996 68.5309 72.5815C68.329 65.4002 67.1846 57.9502 64.3509 51.869C67.3234 49.5752 70.6496 47.149 74.2071 45.7465L74.2065 45.7459ZM98.6327 47.3871C98.8302 47.3965 99.0159 47.4459 99.1852 47.5446C99.8302 47.9209 100.105 50.0671 100.155 51.1109C100.196 51.9765 100.076 52.8502 99.7234 53.309C97.9096 53.2559 96.2709 53.0402 94.8359 52.6352C94.934 52.0477 94.7515 51.4696 94.8984 51.0459C95.2977 50.7584 95.9677 50.7634 96.5721 50.6959C96.0496 50.4384 95.3159 50.3365 94.7127 50.4852C94.6984 50.0765 94.5152 49.824 94.4046 49.504C95.2965 49.1859 97.2509 47.319 98.6327 47.3871ZM95.3827 47.4665C94.6215 47.9627 93.9734 48.5834 93.2427 49.1134C91.6221 49.194 90.7377 49.0015 89.5471 48.0709C89.5659 47.9959 89.6859 48.0296 89.6909 47.9377C91.4252 48.7109 93.6315 47.6227 95.3827 47.4665ZM78.2909 47.4971C79.1952 48.1252 80.9452 47.9702 82.2771 48.204C82.3459 48.6309 82.0009 49.1915 82.0071 49.7859C80.8865 49.7171 77.3652 48.4359 78.2909 47.4971ZM84.3984 47.8552C84.495 47.8527 84.5992 47.8621 84.7109 47.8834C86.1509 48.1584 87.8259 48.8221 88.9409 49.4315C89.6221 49.804 90.0165 50.264 91.0502 50.344L91.0346 50.7577C90.4684 51.1296 89.554 51.1252 88.9327 51.4377C89.849 51.4777 90.5702 51.6984 91.194 52.0096L91.1534 53.0465C90.1152 53.7571 89.1671 54.8152 87.9452 55.4815C87.3671 55.7965 85.339 56.6077 84.7246 56.464C84.3765 56.3834 84.3452 55.9515 84.2059 55.5452C83.9102 54.6734 83.2284 53.2865 83.1684 51.9752C83.0977 50.4221 82.9459 47.8846 84.3984 47.8552ZM92.7071 50.0196C92.7925 50.0129 92.8738 50.0152 92.9509 50.0265C94.2796 50.2221 94.1834 52.9777 92.0809 52.3202C91.9227 51.4177 91.7396 51.1602 91.8102 50.3734C92.149 50.1477 92.449 50.0402 92.7071 50.0196ZM93.9171 53.1534C94.6784 53.2346 95.2809 54.2846 96.3671 54.2159C96.1927 57.0484 96.284 59.8909 95.4934 62.4859C94.0202 59.7846 93.1534 56.5234 91.2465 54.2252C91.4477 54.0115 91.6277 53.7746 91.8252 53.5559C92.689 53.9171 93.2527 53.0821 93.9171 53.1534ZM98.2971 54.0546C99.3459 54.0465 100.205 54.7321 100.676 55.4902C99.199 58.0215 97.7852 60.6202 96.0327 62.8527C96.7671 60.6915 97.0821 57.0746 97.1934 54.3171C97.5378 54.1502 97.9145 54.0606 98.2971 54.0546ZM90.3159 55.019C92.0659 57.2402 93.1309 60.0971 94.3034 62.8546C91.5334 62.0196 88.7034 60.6646 86.2759 59.2909C86.7521 57.2259 88.6196 56.1559 90.3159 55.019ZM108.76 62.349C109.521 62.3677 110.277 62.9852 110.607 63.4859C111.205 64.3884 111.763 67.0452 112.076 68.4559C112.543 70.5552 111.493 72.599 109.824 73.004C108.609 73.299 106.745 73.3771 105.95 72.9927C106.923 72.4609 108.387 72.4577 109.513 72.0927C107.899 71.3977 105.51 72.0527 103.569 71.9315C103.335 69.5346 103.158 66.9359 102.59 65.044C103.723 63.8396 106.46 63.5502 108.015 62.5559C108.237 62.4135 108.497 62.3415 108.76 62.349ZM108.628 64.5852C106.639 64.644 105.085 65.1709 104.197 66.4215C105.811 66.5246 106.974 64.9165 108.628 64.5852ZM100.791 65.0759C100.932 65.0813 101.07 65.0986 101.203 65.1277C102.261 66.9465 102.488 69.9709 102.453 72.1659C101.794 72.2934 101.366 72.6709 100.566 72.6459C100.361 70.1452 99.7809 67.5159 99.5421 65.1334C99.9234 65.1259 100.368 65.0584 100.791 65.0759ZM88.539 65.1027C90.6265 65.069 92.6515 65.1915 94.4046 65.5565C94.8327 68.3396 94.6734 71.0846 94.9859 73.8127C95.3996 77.4427 95.0896 81.584 95.7984 84.9852C91.9402 86.1809 86.6796 86.0652 82.3146 84.7402C80.3477 78.7134 79.2752 72.9927 78.5352 66.1871C81.4021 65.6509 85.0584 65.159 88.539 65.1027ZM97.804 65.3427C98.4934 67.8346 98.4521 71.0052 98.7909 73.8221C97.7484 74.0509 96.9859 74.1627 95.864 74.3315C95.6409 71.4052 95.4702 68.5221 95.5103 65.5996C96.3052 65.3334 97.0065 65.3496 97.804 65.3427ZM106.858 66.7777C106.07 66.7877 105.361 66.959 105.058 67.4227C106.426 67.5352 108.009 67.3165 109.358 67.174C108.743 66.9615 107.75 66.7659 106.858 66.7777ZM106.632 68.8027C105.927 68.8115 105.305 68.9452 104.986 69.2884C106.426 69.409 108.31 69.439 109.825 69.4065C109.211 69.1202 107.807 68.7877 106.632 68.8027ZM97.4334 75.5127C97.5809 75.4896 97.7146 75.4846 97.8252 75.514C98.0427 77.4171 98.7971 79.3459 98.7027 81.4302C97.8652 81.7127 97.384 81.9602 96.2609 81.9584C96.1821 80.1871 95.9446 77.4796 96.0159 75.7909C96.4296 75.8184 96.9915 75.5821 97.4334 75.5127Z" fill="#231F20"/>
<path d="M98.3019 54.0528C97.919 54.0587 97.5421 54.1483 97.1975 54.3153C97.0862 57.0728 96.7725 60.6897 96.0375 62.8503C97.7906 60.6184 99.2038 58.0191 100.681 55.4884C100.209 54.7303 99.3506 54.0447 98.3019 54.0528ZM90.3206 55.0178C88.6244 56.1553 86.7581 57.2253 86.2812 59.2903C88.7088 60.6641 91.5388 62.0184 94.3088 62.8534C93.1363 60.0972 92.0712 57.2397 90.3206 55.0178Z" fill="#81B0C4"/>
<path d="M95.3786 47.4609C94.6173 47.9578 93.9692 48.5778 93.2386 49.1084C91.618 49.1884 90.7336 48.9959 89.543 48.0653C89.5623 47.9903 89.6823 48.0241 89.6867 47.9322C91.4211 48.7053 93.6267 47.6172 95.3786 47.4609Z" fill="#F0D6B7"/>
<path d="M94.9569 55.4511C94.9569 55.607 94.8949 55.7565 94.7847 55.8667C94.6745 55.977 94.525 56.0389 94.3691 56.0389C94.2132 56.0389 94.0637 55.977 93.9534 55.8667C93.8432 55.7565 93.7812 55.607 93.7812 55.4511C93.7812 55.2952 93.8432 55.1457 93.9534 55.0354C94.0637 54.9252 94.2132 54.8633 94.3691 54.8633C94.525 54.8633 94.6745 54.9252 94.7847 55.0354C94.8949 55.1457 94.9569 55.2952 94.9569 55.4511ZM95.545 58.1767C95.545 58.3327 95.483 58.4823 95.3727 58.5926C95.2624 58.7029 95.1129 58.7648 94.9569 58.7648C94.8009 58.7648 94.6513 58.7029 94.541 58.5926C94.4307 58.4823 94.3688 58.3327 94.3688 58.1767C94.3688 58.0207 94.4307 57.8711 94.541 57.7609C94.6513 57.6506 94.8009 57.5886 94.9569 57.5886C95.1129 57.5886 95.2624 57.6506 95.3727 57.7609C95.483 57.8711 95.545 58.0207 95.545 58.1767Z" fill="#1D1919"/>
</g>
<path d="M60.1523 105.937H61.6562C61.6768 106.75 62.2715 107.297 63.1465 107.297C64.124 107.297 64.6777 106.709 64.6777 105.608V98.6357H66.209V105.615C66.209 107.598 65.0605 108.739 63.1602 108.739C61.376 108.739 60.1523 107.632 60.1523 105.937ZM71.4932 102.163C70.4062 102.163 69.6475 102.929 69.5654 104.091H73.3252C73.291 102.922 72.5801 102.163 71.4932 102.163ZM73.3184 106.49H74.7334C74.3984 107.823 73.209 108.644 71.5068 108.644C69.374 108.644 68.0684 107.181 68.0684 104.802C68.0684 102.423 69.4014 100.912 71.5 100.912C73.5713 100.912 74.8223 102.327 74.8223 104.665V105.178H69.5654V105.26C69.6133 106.565 70.3721 107.393 71.5479 107.393C72.4365 107.393 73.0449 107.071 73.3184 106.49ZM76.5859 108.5V101.056H78.001V102.238H78.1104C78.4727 101.411 79.2109 100.912 80.332 100.912C81.9932 100.912 82.9092 101.91 82.9092 103.681V108.5H81.4395V104.05C81.4395 102.854 80.9199 102.259 79.833 102.259C78.7461 102.259 78.0557 102.983 78.0557 104.146V108.5H76.5859ZM86.6348 104.159L89.5879 101.056H91.3242L88.2617 104.248L91.5293 108.5H89.7246L87.168 105.219L86.5186 105.834V108.5H85.0488V98.1504H86.5186V104.159H86.6348ZM92.9102 108.5V101.056H94.373V108.5H92.9102ZM93.6416 99.75C93.0947 99.75 92.6914 99.3604 92.6914 98.8545C92.6914 98.3418 93.0947 97.9521 93.6416 97.9521C94.1885 97.9521 94.5918 98.3418 94.5918 98.8545C94.5918 99.3604 94.1885 99.75 93.6416 99.75ZM96.5332 108.5V101.056H97.9482V102.238H98.0576C98.4199 101.411 99.1582 100.912 100.279 100.912C101.94 100.912 102.856 101.91 102.856 103.681V108.5H101.387V104.05C101.387 102.854 100.867 102.259 99.7803 102.259C98.6934 102.259 98.0029 102.983 98.0029 104.146V108.5H96.5332ZM104.757 103.161C104.757 101.842 105.967 100.912 107.648 100.912C109.323 100.912 110.417 101.691 110.561 103.004H109.152C109.016 102.457 108.482 102.108 107.648 102.108C106.828 102.108 106.206 102.498 106.206 103.079C106.206 103.523 106.582 103.804 107.389 103.988L108.626 104.275C110.041 104.604 110.704 105.212 110.704 106.306C110.704 107.707 109.398 108.644 107.621 108.644C105.851 108.644 104.695 107.844 104.565 106.524H106.035C106.22 107.099 106.767 107.454 107.655 107.454C108.571 107.454 109.221 107.044 109.221 106.449C109.221 106.005 108.872 105.718 108.127 105.54L106.828 105.239C105.413 104.904 104.757 104.269 104.757 103.161Z" fill="#888888"/>
<defs>
<clipPath id="clip0_969_18041">
<rect width="80" height="80" fill="white" transform="translate(45.5 7.5)"/>
</clipPath>
</defs>
</svg>
