<svg width="171" height="120" viewBox="0 0 171 120" fill="none" xmlns="http://www.w3.org/2000/svg">
<rect width="171" height="120" fill="white"/>
<g clip-path="url(#clip0_969_18011)">
<path d="M85.2223 8.69819C84.5153 8.73407 83.8226 8.90959 83.1848 9.21444L55.3717 22.5032C54.6519 22.847 54.0194 23.3472 53.5213 23.9666C53.0231 24.5861 52.6721 25.3089 52.4942 26.0813L45.6336 55.9313C45.4752 56.619 45.4575 57.3312 45.5815 58.0257C45.7054 58.7203 45.9686 59.3831 46.3555 59.9751C46.4493 60.1199 46.5503 60.26 46.658 60.3951L65.908 84.3301C66.4062 84.9494 67.0388 85.4495 67.7586 85.7931C68.4785 86.1368 69.2672 86.3152 70.0661 86.3151L100.937 86.3076C101.736 86.3081 102.524 86.1303 103.244 85.7873C103.964 85.4443 104.597 84.945 105.095 84.3263L124.339 60.3882C124.837 59.7686 125.188 59.0455 125.366 58.2727C125.544 57.4999 125.545 56.6973 125.367 55.9244L118.494 26.0744C118.316 25.3019 117.965 24.579 117.467 23.9594C116.969 23.3398 116.337 22.8395 115.617 22.4957L87.8011 9.21444C86.9986 8.83091 86.1119 8.6534 85.2223 8.69819Z" fill="#326CE5"/>
<path d="M85.4872 18.8379V18.8441C84.5672 18.8529 83.8222 19.6791 83.8222 20.7016C83.8222 20.7191 83.8253 20.7341 83.8253 20.7479C83.8241 20.8866 83.8178 21.0541 83.8222 21.1754C83.8441 21.7666 83.9722 22.2179 84.0503 22.7598C84.1566 23.6473 84.1847 24.3516 84.1903 25.0641L84.2128 24.9616C84.2028 24.4623 84.1782 23.9633 84.1391 23.4654C84.226 24.2329 84.2891 24.9429 84.2553 25.5854C84.246 25.3823 84.2172 25.1623 84.2141 24.9716L84.1916 25.0741C84.1935 25.291 84.2516 25.5679 84.2347 25.776C84.1966 25.9573 84.0528 26.0854 83.9428 26.2398L83.9272 26.3154C84.0353 26.1735 84.1485 26.0379 84.2147 25.8785C84.131 26.1429 83.9522 26.376 83.7728 26.5623C83.8228 26.4848 83.8641 26.3985 83.9228 26.3216L83.9391 26.2466C83.8485 26.3735 83.7972 26.5323 83.6985 26.6279L83.6947 26.6316L83.6547 27.3316C82.6459 27.4154 81.6441 27.5691 80.6566 27.7916C76.4948 28.7331 72.7087 30.8952 69.7828 34.001C69.5978 33.8748 69.2828 33.651 69.1891 33.581L69.186 33.5779L69.1797 33.5791C68.881 33.6191 68.586 33.7085 68.1985 33.4835C67.4566 32.9835 66.7791 32.2916 65.9585 31.4585C65.5828 31.0604 65.3103 30.6798 64.8622 30.2954C64.7603 30.2073 64.606 30.0891 64.4922 29.9998C64.1596 29.7319 63.7501 29.5775 63.3235 29.5591C62.8078 29.5416 62.311 29.7429 61.986 30.151C61.4078 30.876 61.5935 31.9841 62.3972 32.626L62.4222 32.6423C62.531 32.7316 62.666 32.846 62.7672 32.921C63.2435 33.2716 63.6778 33.4516 64.1485 33.7291C65.1447 34.3441 65.9672 34.8529 66.621 35.466C66.8722 35.7329 66.9172 36.2098 66.9522 36.4191V36.4241L67.4816 36.8954C64.631 41.1916 63.3097 46.4954 64.0866 51.8991L63.3972 52.1016L63.3947 52.1054C63.2103 52.3435 62.9497 52.7129 62.6853 52.8223C61.8316 53.091 60.8678 53.1898 59.7041 53.3116C59.1591 53.3573 58.6878 53.331 58.1066 53.441C57.9785 53.466 57.8003 53.511 57.661 53.5435L57.6466 53.5473L57.6216 53.5541C56.6341 53.7935 55.9966 54.7023 56.2028 55.5991C56.4072 56.496 57.3735 57.0404 58.3678 56.826L58.3922 56.8223H58.3935C58.406 56.8191 58.4172 56.8129 58.4247 56.811C58.5622 56.781 58.7347 56.7479 58.856 56.7148C59.4266 56.5616 59.8397 56.3379 60.3516 56.1423C61.4516 55.7473 62.3628 55.4173 63.2497 55.2891C63.6135 55.2604 64.0022 55.5154 64.1978 55.6248L64.2028 55.6273L64.9228 55.5041C66.5941 60.6754 70.0891 64.8541 74.5141 67.4804L74.2141 68.2004L74.216 68.2066C74.3247 68.4879 74.4435 68.8673 74.3641 69.1391C74.0416 69.9741 73.4891 70.8573 72.8591 71.8429C72.5541 72.2979 72.2403 72.6523 71.9653 73.1748C71.8985 73.3004 71.8153 73.4916 71.7516 73.6229C71.3203 74.5448 71.6366 75.6085 72.466 76.0079C73.3003 76.4098 74.3347 75.9854 74.7828 75.0623L74.7872 75.0573V75.051C74.8497 74.9216 74.9385 74.7523 74.9928 74.6298C75.2291 74.0885 75.3085 73.6254 75.4741 73.1041H75.4722C75.9135 71.996 76.156 70.8373 76.7591 70.1179C76.9216 69.9241 77.1891 69.8479 77.4691 69.7729L77.4753 69.7704L77.8503 69.0929C82.7876 70.9911 88.251 71.0049 93.1978 69.1316C93.3053 69.321 93.4966 69.6723 93.5497 69.7629L93.5522 69.7666L93.5572 69.7691C93.8435 69.8623 94.1497 69.9085 94.401 70.2791C94.8522 71.0523 95.1622 71.9685 95.5397 73.076C95.7053 73.596 95.7878 74.0604 96.0241 74.6016C96.0785 74.7266 96.1678 74.8985 96.2303 75.0291C96.6772 75.9554 97.7147 76.381 98.551 75.9791C99.3797 75.5791 99.6959 74.5166 99.2653 73.5948C99.2016 73.4635 99.1134 73.271 99.0478 73.1454C98.7722 72.6229 98.4585 72.2723 98.1541 71.8173C97.5228 70.8316 97.0022 70.0141 96.6791 69.1785C96.546 68.7504 96.7016 68.4885 96.8078 68.2066L96.8116 68.1979L96.8053 68.1916C96.7833 68.1585 96.7644 68.1234 96.7491 68.0866C96.7225 68.0269 96.6975 67.9665 96.6741 67.9054C96.6241 67.7741 96.5741 67.6291 96.5341 67.5329C101.133 64.8141 104.525 60.4798 106.122 55.4735C106.338 55.5073 106.703 55.5704 106.822 55.5941L106.828 55.5954L106.833 55.5929C107.085 55.4273 107.308 55.2141 107.755 55.2498C108.642 55.3779 109.553 55.7085 110.654 56.1035C111.165 56.2985 111.578 56.5266 112.15 56.6791C112.271 56.7116 112.443 56.7423 112.581 56.7723C112.588 56.7741 112.599 56.7798 112.612 56.7829H112.613L112.638 56.7854C113.632 56.9985 114.599 56.4554 114.803 55.5585C115.008 54.6616 114.372 53.7535 113.383 53.5154C113.242 53.4829 113.039 53.4273 112.899 53.4004C112.318 53.2904 111.847 53.3179 111.301 53.2723C110.138 53.1504 109.175 53.0516 108.32 52.7829C107.978 52.6498 107.731 52.2379 107.608 52.0654L107.605 52.0616L106.938 51.8679C107.295 49.2796 107.176 46.648 106.588 44.1023C106 41.5309 104.944 39.0895 103.474 36.8991C103.648 36.7416 103.965 36.461 104.057 36.3766L104.061 36.3729V36.3666C104.088 36.0666 104.065 35.7604 104.37 35.4329C105.023 34.8204 105.848 34.3098 106.843 33.696C107.315 33.4185 107.752 33.2391 108.227 32.8879C108.336 32.8079 108.482 32.6829 108.595 32.5923C109.398 31.951 109.585 30.8435 109.006 30.1179C108.428 29.3929 107.307 29.326 106.504 29.9666C106.39 30.0573 106.235 30.1741 106.133 30.2623C105.685 30.6485 105.408 31.0285 105.033 31.4266C104.212 32.261 103.534 32.9554 102.792 33.4554C102.475 33.6391 102.005 33.576 101.79 33.5629H101.785L101.157 34.0123C97.5478 30.2323 92.6385 27.8148 87.351 27.3423C87.3354 27.0978 87.322 26.8532 87.311 26.6085V26.6035L87.3072 26.5998C87.0885 26.3916 86.8322 26.2185 86.7672 25.776V25.7748C86.6953 24.8823 86.8153 23.9204 86.9547 22.7598C87.0328 22.2179 87.1622 21.766 87.1835 21.1754C87.1891 21.0404 87.1803 20.846 87.1803 20.7016C87.1803 19.6735 86.4285 18.8379 85.5003 18.8379H85.4872ZM63.5028 29.6091C63.5912 29.6216 63.6782 29.6396 63.7641 29.6629C63.6784 29.6388 63.5911 29.6208 63.5028 29.6091ZM83.4016 31.781L82.9097 40.4873L82.8741 40.5054L82.8728 40.5135C82.8716 40.5448 82.8641 40.5729 82.8603 40.6029C82.8397 40.7902 82.7839 40.9719 82.696 41.1385C82.673 41.1827 82.6478 41.2258 82.6203 41.2679C82.5065 41.4339 82.3597 41.5747 82.1891 41.6816C82.1453 41.7098 82.0972 41.7316 82.0503 41.7554C81.879 41.8365 81.6939 41.8845 81.5047 41.8966C81.4766 41.8985 81.4497 41.9054 81.4216 41.9054C81.3903 41.9054 81.3628 41.8916 81.3322 41.8891C81.1243 41.8694 80.9231 41.8045 80.7428 41.6991C80.7147 41.6829 80.6841 41.6735 80.6572 41.656L80.6535 41.6698L80.656 41.656C80.6285 41.6391 80.5922 41.646 80.566 41.6266L80.5585 41.6204L80.5447 41.6291L73.4066 36.5685C73.4647 36.5116 73.5266 36.4598 73.586 36.4035C74.2161 35.8041 74.8909 35.2535 75.6047 34.7566C75.7528 34.6535 75.9003 34.5491 76.0516 34.4504C76.8109 33.955 77.6085 33.5207 78.4366 33.1516C78.5866 33.0848 78.741 33.0241 78.8928 32.961C79.7128 32.6226 80.5579 32.3485 81.4203 32.141C81.4953 32.1223 81.5691 32.0991 81.6453 32.0823C82.0053 32.001 82.3716 31.9535 82.736 31.8954L82.7397 31.8798H82.7422L82.7385 31.8954C82.9603 31.8604 83.1791 31.8079 83.4016 31.781ZM87.6053 31.7823C87.7285 31.7973 87.8491 31.8248 87.9716 31.8429C88.6372 31.9415 89.2967 32.0784 89.9466 32.2529C90.2041 32.3221 90.4593 32.3971 90.7122 32.4779C91.3577 32.6843 91.9906 32.9281 92.6078 33.2079C92.842 33.3141 93.0737 33.4256 93.3028 33.5423C93.9122 33.8536 94.5028 34.2005 95.0716 34.581C95.2857 34.7252 95.4972 34.8746 95.706 35.0291C96.2506 35.4307 96.7715 35.8635 97.266 36.3254C97.356 36.4091 97.4516 36.486 97.5397 36.5723L90.4485 41.5998L90.4235 41.5904L90.4172 41.5954C90.3891 41.6154 90.3585 41.6235 90.3297 41.6416C90.1619 41.7478 89.9744 41.8188 89.7785 41.8504C89.7303 41.8579 89.6828 41.8691 89.6347 41.871C89.4229 41.8794 89.2119 41.8419 89.016 41.761C88.9589 41.7387 88.9035 41.7121 88.8503 41.6816C88.6678 41.5809 88.5089 41.4424 88.3841 41.2754C88.3528 41.2323 88.3291 41.1841 88.3028 41.1379C88.2072 40.9666 88.146 40.7783 88.1228 40.5835C88.1191 40.5491 88.1066 40.5191 88.1041 40.4841V40.4773L88.0972 40.4735L87.6053 31.7823ZM104.9 39.4223C105.205 40.0435 105.48 40.6779 105.723 41.3254C105.479 40.6784 105.205 40.0433 104.9 39.4223ZM70.7903 39.8535L77.3091 45.6835L77.3016 45.7185L77.3078 45.7235C77.8953 46.2341 77.9766 47.1173 77.491 47.7254C77.4735 47.7473 77.4485 47.761 77.4297 47.7816C77.2622 47.9673 77.0501 48.1071 76.8135 48.1879C76.7866 48.1973 76.7647 48.2148 76.7378 48.2223L76.7291 48.2235L76.7216 48.2529L68.3672 50.6654C68.3547 50.5498 68.3547 50.4341 68.3441 50.3185C68.2817 49.6237 68.2625 48.9257 68.2866 48.2285C68.2945 47.9869 68.3076 47.7456 68.326 47.5048C68.3784 46.8106 68.4738 46.1203 68.6116 45.4379C68.662 45.1837 68.7189 44.9306 68.7822 44.6785C68.9478 44.0077 69.1544 43.3477 69.401 42.7023C69.4885 42.4714 69.5818 42.2429 69.681 42.0166C69.9566 41.3754 70.2718 40.7519 70.6247 40.1498C70.681 40.0523 70.731 39.9498 70.7903 39.8535ZM100.167 39.8579C100.227 39.9566 100.277 40.0604 100.335 40.1598C100.692 40.767 101.011 41.3953 101.292 42.041C101.385 42.2573 101.478 42.4748 101.563 42.6948C101.822 43.3658 102.039 44.0521 102.213 44.7498C102.241 44.8591 102.278 44.966 102.303 45.0766C102.734 46.9529 102.84 48.826 102.664 50.6366L94.2678 48.2179L94.261 48.1823L94.2522 48.1798C94.2241 48.1723 94.1997 48.1585 94.1728 48.1491C93.9916 48.0868 93.824 47.9902 93.6791 47.8648C93.6424 47.8331 93.607 47.7998 93.5728 47.7648C93.4362 47.616 93.3317 47.4407 93.266 47.2498C93.2491 47.201 93.2385 47.151 93.2266 47.1004C93.1855 46.9174 93.1792 46.7283 93.2078 46.5429C93.2135 46.5123 93.2141 46.4829 93.2203 46.4523C93.2266 46.4241 93.2441 46.3998 93.2516 46.3716C93.321 46.1355 93.4499 45.9212 93.626 45.7491C93.6472 45.7285 93.6597 45.7016 93.6822 45.6823L93.6885 45.676L93.6847 45.6573L100.167 39.8579ZM105.934 41.9235C106.141 42.5269 106.321 43.1389 106.474 43.7598C106.321 43.1401 106.141 42.5274 105.934 41.9235ZM84.1691 46.1435H86.8328L88.4891 48.2148L87.8953 50.7979L85.5016 51.9479L83.1035 50.7929L82.5078 48.2104L84.1691 46.1435ZM92.7485 53.2654C92.861 53.2591 92.9716 53.2704 93.0816 53.2904L93.0903 53.2923L93.1047 53.2735L101.747 54.7348C101.707 54.8473 101.655 54.9541 101.613 55.066C101.367 55.7095 101.083 56.3379 100.763 56.9479C100.644 57.1746 100.521 57.3983 100.392 57.6191C100.041 58.2183 99.6541 58.796 99.2341 59.3491C99.0824 59.5491 98.9266 59.7452 98.7666 59.9373C98.3202 60.472 97.8422 60.9795 97.3353 61.4573C97.1537 61.6281 96.9678 61.7948 96.7778 61.9573C96.2532 62.4087 95.7022 62.8286 95.1278 63.2148C95.0278 63.2816 94.9341 63.3554 94.8335 63.4204L91.4803 55.316L91.4897 55.3023L91.4872 55.2954C91.4747 55.2673 91.471 55.2379 91.4603 55.2098C91.3974 55.0315 91.3688 54.843 91.376 54.6541C91.3785 54.6035 91.3797 54.5529 91.3872 54.5029C91.4182 54.3052 91.4892 54.1159 91.596 53.9466C91.6241 53.9016 91.6572 53.861 91.6897 53.8191C91.8075 53.6732 91.9517 53.5507 92.1147 53.4579C92.1416 53.4429 92.1641 53.4235 92.1916 53.4104C92.3722 53.3235 92.561 53.2741 92.7485 53.2654ZM78.1797 53.3004L78.1878 53.3016C78.2066 53.3016 78.2253 53.3066 78.2453 53.3079C78.5219 53.3264 78.7875 53.4229 79.0116 53.586C79.0545 53.6168 79.0953 53.6498 79.1341 53.6848C79.3399 53.87 79.4892 54.1096 79.5647 54.376C79.5697 54.3948 79.5785 54.4129 79.5835 54.4323C79.6522 54.7316 79.6241 55.0448 79.5022 55.3266L79.4991 55.3341L79.5241 55.3654L76.2053 63.3885C76.1085 63.326 76.0178 63.256 75.9235 63.1916C75.3491 62.8057 74.7981 62.386 74.2735 61.9348C74.0843 61.7715 73.8986 61.6041 73.7166 61.4329C73.214 60.9597 72.7398 60.4571 72.2966 59.9279C72.1341 59.7329 71.9757 59.5348 71.8216 59.3335C71.4099 58.7927 71.0301 58.2285 70.6841 57.6435C70.5479 57.4127 70.4172 57.1787 70.2922 56.9416C69.9765 56.3444 69.6956 55.7295 69.451 55.0998C69.4072 54.9866 69.3547 54.8773 69.3135 54.7629L77.8803 53.3091L77.8947 53.3279L77.9035 53.3248C77.9951 53.3081 78.0868 53.3 78.1797 53.3004ZM85.4485 56.826C85.4847 56.8248 85.5197 56.8341 85.556 56.8354C85.7171 56.8419 85.876 56.8755 86.026 56.9348C86.0597 56.9479 86.096 56.9535 86.1285 56.9698V56.971C86.4063 57.1023 86.6348 57.3191 86.7803 57.5898L86.7841 57.5973H86.8172L91.0403 65.2304C90.8678 65.2879 90.6922 65.3385 90.5178 65.3904C90.3114 65.4519 90.1039 65.5096 89.8953 65.5635C89.7185 65.6098 89.5428 65.6573 89.3641 65.6979C89.2866 65.716 89.2078 65.7266 89.1291 65.7429C88.2685 65.9265 87.3951 66.0437 86.5166 66.0935C86.3416 66.1035 86.1678 66.1154 85.9928 66.1204C85.0906 66.1449 84.1878 66.0983 83.2928 65.981C83.1178 65.9585 82.9428 65.9279 82.7691 65.8998C81.9101 65.7611 81.0629 65.5574 80.2347 65.2904C80.1553 65.2648 80.0741 65.2454 79.9947 65.2185L84.2085 57.601H84.2147L84.2191 57.5935C84.2353 57.5635 84.2597 57.5404 84.2778 57.5123C84.3779 57.3551 84.5063 57.218 84.6566 57.1079C84.7078 57.0704 84.762 57.0362 84.8191 57.0054C84.9844 56.9182 85.1646 56.8626 85.3503 56.8416C85.3841 56.8385 85.4147 56.8273 85.4485 56.826ZM92.8041 69.236C92.1353 69.4743 91.4566 69.6791 90.7678 69.8504C91.4561 69.6787 92.1357 69.4737 92.8041 69.236Z" fill="white"/>
</g>
<path d="M49.4951 108.5H47.9639V98.6357H49.4951V103.257H49.6045L53.6855 98.6357H55.4971L51.6826 102.922L55.8252 108.5H53.9111L50.6025 104.022L49.4951 105.26V108.5ZM63.0645 101.056V108.5H61.6494V107.317H61.5332C61.1709 108.165 60.4121 108.644 59.2842 108.644C57.6367 108.644 56.7207 107.639 56.7207 105.889V101.056H58.1904V105.506C58.1904 106.709 58.6758 107.283 59.7559 107.283C60.9453 107.283 61.5947 106.579 61.5947 105.41V101.056H63.0645ZM69.1416 108.623C68.1025 108.623 67.2344 108.145 66.79 107.324H66.6807V108.5H65.2656V98.1504H66.7354V102.238H66.8516C67.248 101.425 68.123 100.933 69.1416 100.933C71.0283 100.933 72.2178 102.409 72.2178 104.774C72.2178 107.133 71.0215 108.623 69.1416 108.623ZM68.7178 102.252C67.4873 102.252 66.7148 103.223 66.708 104.781C66.7148 106.34 67.4805 107.304 68.7178 107.304C69.9619 107.304 70.707 106.354 70.707 104.774C70.707 103.209 69.9619 102.252 68.7178 102.252ZM77.0439 102.163C75.957 102.163 75.1982 102.929 75.1162 104.091H78.876C78.8418 102.922 78.1309 102.163 77.0439 102.163ZM78.8691 106.49H80.2842C79.9492 107.823 78.7598 108.644 77.0576 108.644C74.9248 108.644 73.6191 107.181 73.6191 104.802C73.6191 102.423 74.9521 100.912 77.0508 100.912C79.1221 100.912 80.373 102.327 80.373 104.665V105.178H75.1162V105.26C75.1641 106.565 75.9229 107.393 77.0986 107.393C77.9873 107.393 78.5957 107.071 78.8691 106.49ZM82.1367 108.5V101.056H83.5518V102.197H83.6611C83.873 101.466 84.7002 100.933 85.6709 100.933C85.8896 100.933 86.1699 100.953 86.3271 100.994V102.443C86.2041 102.402 85.7666 102.354 85.5068 102.354C84.3926 102.354 83.6064 103.059 83.6064 104.104V108.5H82.1367ZM87.8516 108.5V101.056H89.2666V102.238H89.376C89.7383 101.411 90.4766 100.912 91.5977 100.912C93.2588 100.912 94.1748 101.91 94.1748 103.681V108.5H92.7051V104.05C92.7051 102.854 92.1855 102.259 91.0986 102.259C90.0117 102.259 89.3213 102.983 89.3213 104.146V108.5H87.8516ZM99.3018 102.163C98.2148 102.163 97.4561 102.929 97.374 104.091H101.134C101.1 102.922 100.389 102.163 99.3018 102.163ZM101.127 106.49H102.542C102.207 107.823 101.018 108.644 99.3154 108.644C97.1826 108.644 95.877 107.181 95.877 104.802C95.877 102.423 97.21 100.912 99.3086 100.912C101.38 100.912 102.631 102.327 102.631 104.665V105.178H97.374V105.26C97.4219 106.565 98.1807 107.393 99.3564 107.393C100.245 107.393 100.854 107.071 101.127 106.49ZM104.914 99.2031H106.384V101.09H107.997V102.327H106.384V106.155C106.384 106.935 106.705 107.276 107.437 107.276C107.662 107.276 107.792 107.263 107.997 107.242V108.466C107.758 108.507 107.484 108.541 107.197 108.541C105.563 108.541 104.914 107.967 104.914 106.531V102.327H103.731V101.09H104.914V99.2031ZM112.7 102.163C111.613 102.163 110.854 102.929 110.772 104.091H114.532C114.498 102.922 113.787 102.163 112.7 102.163ZM114.525 106.49H115.94C115.605 107.823 114.416 108.644 112.714 108.644C110.581 108.644 109.275 107.181 109.275 104.802C109.275 102.423 110.608 100.912 112.707 100.912C114.778 100.912 116.029 102.327 116.029 104.665V105.178H110.772V105.26C110.82 106.565 111.579 107.393 112.755 107.393C113.644 107.393 114.252 107.071 114.525 106.49ZM117.622 103.161C117.622 101.842 118.832 100.912 120.514 100.912C122.188 100.912 123.282 101.691 123.426 103.004H122.018C121.881 102.457 121.348 102.108 120.514 102.108C119.693 102.108 119.071 102.498 119.071 103.079C119.071 103.523 119.447 103.804 120.254 103.988L121.491 104.275C122.906 104.604 123.569 105.212 123.569 106.306C123.569 107.707 122.264 108.644 120.486 108.644C118.716 108.644 117.561 107.844 117.431 106.524H118.9C119.085 107.099 119.632 107.454 120.521 107.454C121.437 107.454 122.086 107.044 122.086 106.449C122.086 106.005 121.737 105.718 120.992 105.54L119.693 105.239C118.278 104.904 117.622 104.269 117.622 103.161Z" fill="#888888"/>
<defs>
<clipPath id="clip0_969_18011">
<rect width="80" height="80" fill="white" transform="translate(45.5 7.5)"/>
</clipPath>
</defs>
</svg>
