<svg width="150" height="151" viewBox="0 0 150 151" fill="none" xmlns="http://www.w3.org/2000/svg">
<rect x="0.5" y="0.939453" width="149" height="149" rx="11.5" fill="white"/>
<rect x="0.5" y="0.939453" width="149" height="149" rx="11.5" stroke="#E8E8E8"/>
<path fill-rule="evenodd" clip-rule="evenodd" d="M90.022 49.6973C91.0252 52.5991 91.7477 55.5616 91.9852 58.6323C92.2802 62.4416 92.1452 66.2241 91.342 69.971C91.3202 70.0741 91.2739 70.171 91.2395 70.271C90.9877 70.2716 90.7308 70.2404 90.4845 70.2785C88.4039 70.6054 86.3252 70.9441 84.2464 71.281C82.0977 71.6291 79.9458 71.9635 77.8008 72.3354C77.0408 72.4666 76.1002 72.3098 75.7933 73.361C75.7845 73.3898 75.697 73.3948 75.6464 73.411L75.7502 67.1291L75.6445 51.9716L76.6458 51.7998C78.2833 51.5316 79.9208 51.2598 81.5595 50.9991C83.5152 50.6885 85.4727 50.3866 87.4295 50.0835C88.2927 49.9491 89.157 49.826 90.022 49.6973Z" fill="#439934"/>
<path fill-rule="evenodd" clip-rule="evenodd" d="M73.5817 91.721C72.5255 90.8129 71.4323 89.9448 70.4198 88.9898C64.9717 83.851 60.9867 77.8029 59.0242 70.511C58.4836 68.5041 58.123 66.4648 58.0073 64.391C57.9261 62.9398 57.8086 61.4754 57.9111 60.0316C58.1842 56.1916 58.7392 52.3885 59.8655 48.6898L59.9273 48.6035C60.0367 48.7491 60.1942 48.8779 60.2498 49.0423C61.349 52.2798 62.4411 55.5196 63.5261 58.7616C66.9373 68.9491 70.3442 79.1391 73.7611 89.3241C73.828 89.5229 74.0011 89.686 74.1255 89.8654L73.5817 91.721Z" fill="#45A538"/>
<path fill-rule="evenodd" clip-rule="evenodd" d="M90.0231 49.6929C89.1581 49.8216 88.2931 49.9448 87.43 50.0779C85.4731 50.381 83.5156 50.6829 81.56 50.9935C79.9213 51.2541 78.2838 51.526 76.6463 51.7941L75.645 51.966L75.6375 51.3129C75.6044 50.776 75.5475 50.2398 75.5413 49.7029C75.4981 46.2791 75.4713 42.8554 75.4288 39.4316C75.4025 37.2885 75.3631 35.146 75.3194 33.0035C75.2925 31.6723 75.2638 30.3404 75.2038 29.011C75.1713 28.2966 75.0563 27.586 75.0094 26.8716C74.9831 26.461 75.0194 26.0473 75.0275 25.6348C75.5381 26.6241 76.0375 27.621 76.5625 28.6029C77.3919 30.1554 78.7131 31.2991 79.9025 32.5473C84.6044 37.4798 87.9425 43.2148 90.0231 49.6929Z" fill="#46A037"/>
<path fill-rule="evenodd" clip-rule="evenodd" d="M75.6459 73.4056C75.6966 73.3894 75.7847 73.3844 75.7928 73.3556C76.0997 72.3044 77.0403 72.4613 77.8003 72.33C79.9453 71.9588 82.0972 71.6238 84.2459 71.2756C86.3247 70.9388 88.4034 70.6 90.4841 70.2731C90.7303 70.2344 90.9872 70.2663 91.2391 70.2656C90.8503 71.6531 90.5441 73.0706 90.0509 74.42C89.4909 75.9506 88.8134 77.4444 88.0941 78.9088C87.0178 81.0934 85.6849 83.1418 84.1234 85.0106C82.9241 86.4531 81.5872 87.7863 80.2472 89.1031C79.5066 89.8313 78.6334 90.4244 77.8209 91.0788L77.6103 90.935L76.8516 90.2863L76.0666 88.5656C75.5303 86.5585 75.2378 84.494 75.1953 82.4169L75.2097 82.0663L75.3166 80.55C75.3522 80.0325 75.3997 79.5156 75.4216 78.9969C75.5022 77.1331 75.5722 75.2694 75.6459 73.4056Z" fill="#409433"/>
<path fill-rule="evenodd" clip-rule="evenodd" d="M75.6489 73.4068C75.5752 75.2705 75.5052 77.1343 75.4258 78.9987C75.4039 79.5174 75.3564 80.0343 75.3208 80.5518L74.8427 80.7324C73.7808 77.6062 72.7183 74.513 71.6789 71.4118C69.9602 66.2812 68.262 61.1424 66.5458 56.0105C65.1596 51.8683 63.7638 47.7294 62.3583 43.5937C62.2927 43.3999 62.1039 43.2487 61.9727 43.0774L65.0327 37.4512C65.1377 37.6337 65.2764 37.8043 65.3427 38.0005C66.7599 42.1894 68.1699 46.3806 69.5727 50.5743C71.3952 56.0305 73.2064 61.4912 75.0277 66.948C75.1002 67.1662 75.2202 67.3674 75.3345 67.6118L75.7533 67.1243L75.6489 73.4068Z" fill="#4FAA41"/>
<path fill-rule="evenodd" clip-rule="evenodd" d="M61.9669 43.0859C62.0981 43.2572 62.2862 43.4084 62.3525 43.6022C63.758 47.7379 65.1538 51.8769 66.54 56.0191C68.2563 61.1509 69.9544 66.2897 71.6731 71.4203C72.7119 74.5209 73.7744 77.6147 74.8369 80.7409L75.315 80.5603L75.2081 82.0766L75.1112 82.4259C74.945 84.0859 74.805 85.7497 74.6025 87.4059C74.5006 88.2359 74.2844 89.0509 74.12 89.8728C73.9962 89.6934 73.8225 89.5303 73.7556 89.3316C70.3387 79.1459 66.9319 68.9566 63.5206 58.7691C62.4354 55.527 61.3433 52.2872 60.2444 49.0497C60.1887 48.8853 60.0319 48.7566 59.9219 48.6109L61.9669 43.0859Z" fill="#4AA73C"/>
<path fill-rule="evenodd" clip-rule="evenodd" d="M75.7597 67.1317L75.3409 67.6192C75.2266 67.3748 75.1066 67.173 75.0341 66.9555C73.2134 61.4986 71.4016 56.038 69.5791 50.5817C68.1763 46.388 66.7663 42.1968 65.3491 38.008C65.2834 37.8117 65.1447 37.6405 65.0391 37.4586L68.8234 32.4805C68.9428 32.6398 69.1128 32.7817 69.1747 32.9611C70.2247 36.0369 71.267 39.1157 72.3016 42.1973C73.2684 45.0748 74.2209 47.9567 75.1991 50.8305C75.2647 51.023 75.4928 51.1592 75.6453 51.3217L75.6528 51.9748C75.6891 57.0265 75.7247 62.0788 75.7597 67.1317Z" fill="#57AE47"/>
<path fill-rule="evenodd" clip-rule="evenodd" d="M75.6305 51.3192C75.478 51.1567 75.2498 51.0205 75.1842 50.828C74.2061 47.9542 73.2536 45.0723 72.2867 42.1948C71.2521 39.1136 70.2098 36.0348 69.1598 32.9586C69.098 32.7792 68.928 32.6373 68.8086 32.478C70.0392 31.273 71.2317 30.0248 72.5117 28.8755C73.6498 27.8542 74.5648 26.7592 74.6067 25.1455C74.6086 25.0786 74.6436 25.0117 74.6973 24.8242L75.0217 25.6405C75.0136 26.0536 74.9767 26.4667 75.0036 26.8773C75.0505 27.5917 75.1655 28.3023 75.198 29.0167C75.258 30.3461 75.2867 31.678 75.3136 33.0092C75.3567 35.1517 75.3961 37.2942 75.423 39.4373C75.4648 42.8611 75.4923 46.2848 75.5355 49.7086C75.5405 50.2467 75.5967 50.7823 75.6305 51.3192Z" fill="#60B24F"/>
<path fill-rule="evenodd" clip-rule="evenodd" d="M74.118 89.8652C74.2823 89.0434 74.4986 88.2277 74.6005 87.3984C74.8036 85.7427 74.943 84.0784 75.1092 82.4184L75.1505 82.4121L75.1917 82.419C75.2342 84.4961 75.5268 86.5606 76.063 88.5677C75.953 88.7127 75.7973 88.8421 75.7392 89.0059C75.2848 90.2871 74.8567 91.5784 74.3998 92.8596C74.3373 93.0346 74.1636 93.1709 74.0411 93.3246L73.5742 91.7209L74.118 89.8652Z" fill="#A9AA88"/>
<path fill-rule="evenodd" clip-rule="evenodd" d="M74.043 93.3311C74.1655 93.1773 74.3398 93.0411 74.4017 92.8661C74.8586 91.5848 75.2873 90.2942 75.7411 89.0123C75.7992 88.8486 75.9542 88.7192 76.0648 88.5742L76.8492 90.2955C76.6942 90.5155 76.4805 90.7136 76.3942 90.9586L74.8917 95.3705C74.8298 95.5473 74.6186 95.6723 74.4773 95.8217L74.043 93.3311Z" fill="#B6B598"/>
<path fill-rule="evenodd" clip-rule="evenodd" d="M74.4727 95.8192C74.6145 95.6705 74.8252 95.5448 74.887 95.368L76.3895 90.9561C76.4752 90.7117 76.6895 90.513 76.8445 90.293L77.6039 90.9411C77.237 91.3036 77.0333 91.7223 77.1558 92.2517L76.9252 93.0067C76.8202 93.1361 76.6683 93.2486 76.6164 93.3967C76.092 94.8986 75.5914 96.4086 75.0633 97.9105C74.9964 98.1011 74.8108 98.2505 74.6795 98.418C74.6112 97.5517 74.5422 96.6855 74.4727 95.8192Z" fill="#C2C1A7"/>
<path fill-rule="evenodd" clip-rule="evenodd" d="M74.6966 98.4191C74.8272 98.2509 75.0128 98.1016 75.0803 97.9116C75.6084 96.4103 76.1091 94.9003 76.6334 93.3978C76.6853 93.2503 76.8366 93.1372 76.9422 93.0078L76.6241 96.4734C76.5391 96.5716 76.4159 96.6572 76.3753 96.7716C76.0159 97.7803 75.6772 98.7966 75.3166 99.8053C75.2422 100.013 75.0997 100.197 74.9884 100.392C74.8897 100.262 74.7128 100.137 74.7047 100.002C74.6728 99.4766 74.6947 98.9472 74.6966 98.4191Z" fill="#CECDB7"/>
<path fill-rule="evenodd" clip-rule="evenodd" d="M74.9805 100.393C75.0917 100.198 75.2342 100.014 75.3086 99.8065C75.6698 98.7984 76.008 97.7821 76.3673 96.7727C76.408 96.6584 76.5317 96.5734 76.6161 96.4746L76.6236 98.7496L75.8623 100.702L74.9805 100.393Z" fill="#DBDAC7"/>
<path fill-rule="evenodd" clip-rule="evenodd" d="M75.8594 100.703L76.6206 98.75L76.7775 101.06L75.8594 100.703Z" fill="#EBE9DC"/>
<path fill-rule="evenodd" clip-rule="evenodd" d="M77.1646 92.2481C77.0421 91.7188 77.2453 91.2994 77.6128 90.9375L77.8234 91.0812L77.1646 92.2481Z" fill="#CECDB7"/>
<path fill-rule="evenodd" clip-rule="evenodd" d="M75.1997 82.4203L75.1584 82.4134L75.1172 82.4197L75.2141 82.0703L75.1997 82.4203Z" fill="#4FAA41"/>
<path d="M53.1865 123.939H51.7646V116.816H51.6689L48.7773 123.652H47.6152L44.7236 116.816H44.6279V123.939H43.2061V114.075H44.9971L48.1348 121.567H48.251L51.3955 114.075H53.1865V123.939ZM58.6348 124.083C56.4541 124.083 55.1211 122.627 55.1211 120.214C55.1211 117.814 56.4609 116.352 58.6348 116.352C60.8018 116.352 62.1416 117.814 62.1416 120.214C62.1416 122.627 60.8086 124.083 58.6348 124.083ZM58.6348 122.777C59.9062 122.777 60.6309 121.834 60.6309 120.214C60.6309 118.601 59.9062 117.657 58.6348 117.657C57.3564 117.657 56.6387 118.601 56.6387 120.214C56.6387 121.841 57.3564 122.777 58.6348 122.777ZM63.9121 123.939V116.495H65.3271V117.678H65.4365C65.7988 116.851 66.5371 116.352 67.6582 116.352C69.3193 116.352 70.2354 117.35 70.2354 119.12V123.939H68.7656V119.489C68.7656 118.293 68.2461 117.698 67.1592 117.698C66.0723 117.698 65.3818 118.423 65.3818 119.585V123.939H63.9121ZM75.4238 122.559C76.6816 122.559 77.4404 121.615 77.4404 120.125C77.4404 118.642 76.6748 117.691 75.4238 117.691C74.1592 117.691 73.4482 118.642 73.4482 120.125C73.4482 121.608 74.1592 122.559 75.4238 122.559ZM75.4443 126.783C73.585 126.783 72.3818 125.949 72.2246 124.685H73.7285C73.8516 125.225 74.4736 125.573 75.4648 125.573C76.6885 125.573 77.4131 124.992 77.4131 124.008V122.579H77.3037C76.8525 123.386 76.0322 123.83 75.0068 123.83C73.1064 123.83 71.9307 122.36 71.9307 120.132C71.9307 117.862 73.1201 116.372 75.0205 116.372C76.0459 116.372 76.9414 116.878 77.3584 117.685H77.4746V116.495H78.8828V124.001C78.8828 125.703 77.5498 126.783 75.4443 126.783ZM84.1602 124.083C81.9795 124.083 80.6465 122.627 80.6465 120.214C80.6465 117.814 81.9863 116.352 84.1602 116.352C86.3271 116.352 87.667 117.814 87.667 120.214C87.667 122.627 86.334 124.083 84.1602 124.083ZM84.1602 122.777C85.4316 122.777 86.1562 121.834 86.1562 120.214C86.1562 118.601 85.4316 117.657 84.1602 117.657C82.8818 117.657 82.1641 118.601 82.1641 120.214C82.1641 121.841 82.8818 122.777 84.1602 122.777ZM89.6084 114.075H93.1699C96.0957 114.075 97.8115 115.873 97.8115 118.977C97.8115 122.128 96.1094 123.939 93.1699 123.939H89.6084V114.075ZM91.1396 115.47V122.545H92.999C95.0635 122.545 96.2529 121.26 96.2529 118.997C96.2529 116.769 95.043 115.47 92.999 115.47H91.1396ZM103.93 123.939H99.876V114.075H103.841C105.693 114.075 106.808 115.019 106.808 116.536C106.808 117.568 106.049 118.491 105.078 118.655V118.771C106.411 118.908 107.3 119.858 107.3 121.144C107.3 122.88 106.035 123.939 103.93 123.939ZM101.407 115.374V118.252H103.226C104.579 118.252 105.283 117.753 105.283 116.816C105.283 115.907 104.62 115.374 103.485 115.374H101.407ZM101.407 122.641H103.622C105.003 122.641 105.734 122.08 105.734 121.034C105.734 120.002 104.976 119.462 103.533 119.462H101.407V122.641Z" fill="#888888"/>
</svg>
