<svg width="170" height="120" viewBox="0 0 81 105" fill="none" xmlns="http://www.w3.org/2000/svg">
<path fill-rule="evenodd" clip-rule="evenodd" d="M55.522 26.7578C56.5252 29.6597 57.2477 32.6222 57.4852 35.6928C57.7802 39.5022 57.6452 43.2847 56.842 47.0316C56.8202 47.1347 56.7739 47.2316 56.7395 47.3316C56.4877 47.3322 56.2308 47.3009 55.9845 47.3391C53.9039 47.6659 51.8252 48.0047 49.7464 48.3416C47.5977 48.6897 45.4458 49.0241 43.3008 49.3959C42.5408 49.5272 41.6002 49.3703 41.2933 50.4216C41.2845 50.4503 41.197 50.4553 41.1464 50.4716L41.2502 44.1897L41.1445 29.0322L42.1458 28.8603C43.7833 28.5922 45.4208 28.3203 47.0595 28.0597C49.0152 27.7491 50.9727 27.4472 52.9295 27.1441C53.7927 27.0097 54.657 26.8866 55.522 26.7578Z" fill="#439934"/>
<path fill-rule="evenodd" clip-rule="evenodd" d="M39.0817 68.7816C38.0255 67.8734 36.9323 67.0053 35.9198 66.0503C30.4717 60.9116 26.4867 54.8634 24.5242 47.5716C23.9836 45.5647 23.623 43.5253 23.5073 41.4516C23.4261 40.0003 23.3086 38.5359 23.4111 37.0922C23.6842 33.2522 24.2392 29.4491 25.3655 25.7503L25.4273 25.6641C25.5367 25.8097 25.6942 25.9384 25.7498 26.1028C26.849 29.3403 27.9411 32.5801 29.0261 35.8222C32.4373 46.0097 35.8442 56.1997 39.2611 66.3847C39.328 66.5834 39.5011 66.7466 39.6255 66.9259L39.0817 68.7816Z" fill="#45A538"/>
<path fill-rule="evenodd" clip-rule="evenodd" d="M55.5231 26.7534C54.6581 26.8822 53.7931 27.0053 52.93 27.1384C50.9731 27.4416 49.0156 27.7434 47.06 28.0541C45.4213 28.3147 43.7838 28.5866 42.1463 28.8547L41.145 29.0266L41.1375 28.3734C41.1044 27.8366 41.0475 27.3003 41.0413 26.7634C40.9981 23.3397 40.9713 19.9159 40.9288 16.4922C40.9025 14.3491 40.8631 12.2066 40.8194 10.0641C40.7925 8.73281 40.7638 7.40094 40.7038 6.07156C40.6713 5.35719 40.5563 4.64656 40.5094 3.93219C40.4831 3.52156 40.5194 3.10781 40.5275 2.69531C41.0381 3.68469 41.5375 4.68156 42.0625 5.66344C42.8919 7.21594 44.2131 8.35969 45.4025 9.60781C50.1044 14.5403 53.4425 20.2753 55.5231 26.7534Z" fill="#46A037"/>
<path fill-rule="evenodd" clip-rule="evenodd" d="M41.1459 50.4662C41.1966 50.4499 41.2847 50.4449 41.2928 50.4162C41.5997 49.3649 42.5403 49.5218 43.3003 49.3906C45.4453 49.0193 47.5972 48.6843 49.7459 48.3362C51.8247 47.9993 53.9034 47.6606 55.9841 47.3337C56.2303 47.2949 56.4872 47.3268 56.7391 47.3262C56.3503 48.7137 56.0441 50.1312 55.5509 51.4806C54.9909 53.0112 54.3134 54.5049 53.5941 55.9693C52.5178 58.1539 51.1849 60.2023 49.6234 62.0712C48.4241 63.5137 47.0872 64.8468 45.7472 66.1637C45.0066 66.8918 44.1334 67.4849 43.3209 68.1393L43.1103 67.9956L42.3516 67.3468L41.5666 65.6262C41.0303 63.619 40.7378 61.5546 40.6953 59.4774L40.7097 59.1268L40.8166 57.6106C40.8522 57.0931 40.8997 56.5762 40.9216 56.0574C41.0022 54.1937 41.0722 52.3299 41.1459 50.4662Z" fill="#409433"/>
<path fill-rule="evenodd" clip-rule="evenodd" d="M41.1489 50.4673C41.0752 52.3311 41.0052 54.1948 40.9258 56.0592C40.9039 56.578 40.8564 57.0948 40.8208 57.6123L40.3427 57.793C39.2808 54.6667 38.2183 51.5736 37.1789 48.4723C35.4602 43.3417 33.762 38.203 32.0458 33.0711C30.6596 28.9289 29.2638 24.7899 27.8583 20.6542C27.7927 20.4605 27.6039 20.3092 27.4727 20.138L30.5327 14.5117C30.6377 14.6942 30.7764 14.8648 30.8427 15.0611C32.2599 19.2499 33.6699 23.4412 35.0727 27.6348C36.8952 33.0911 38.7064 38.5517 40.5277 44.0086C40.6002 44.2267 40.7202 44.428 40.8345 44.6723L41.2533 44.1848L41.1489 50.4673Z" fill="#4FAA41"/>
<path fill-rule="evenodd" clip-rule="evenodd" d="M27.4669 20.1465C27.5981 20.3177 27.7862 20.469 27.8525 20.6627C29.258 24.7984 30.6538 28.9374 32.04 33.0796C33.7563 38.2115 35.4544 43.3502 37.1731 48.4809C38.2119 51.5815 39.2744 54.6752 40.3369 57.8015L40.815 57.6209L40.7081 59.1371L40.6112 59.4865C40.445 61.1465 40.305 62.8102 40.1025 64.4665C40.0006 65.2965 39.7844 66.1115 39.62 66.9334C39.4962 66.754 39.3225 66.5909 39.2556 66.3921C35.8387 56.2065 32.4319 46.0171 29.0206 35.8296C27.9354 32.5875 26.8433 29.3477 25.7444 26.1102C25.6887 25.9459 25.5319 25.8171 25.4219 25.6715L27.4669 20.1465Z" fill="#4AA73C"/>
<path fill-rule="evenodd" clip-rule="evenodd" d="M41.2597 44.1923L40.8409 44.6798C40.7266 44.4354 40.6066 44.2335 40.5341 44.016C38.7134 38.5591 36.9016 33.0985 35.0791 27.6423C33.6763 23.4486 32.2663 19.2573 30.8491 15.0685C30.7834 14.8723 30.6447 14.701 30.5391 14.5191L34.3234 9.54102C34.4428 9.70039 34.6128 9.84227 34.6747 10.0216C35.7247 13.0975 36.767 16.1762 37.8016 19.2579C38.7684 22.1354 39.7209 25.0173 40.6991 27.891C40.7647 28.0835 40.9928 28.2198 41.1453 28.3823L41.1528 29.0354C41.1891 34.0871 41.2247 39.1393 41.2597 44.1923Z" fill="#57AE47"/>
<path fill-rule="evenodd" clip-rule="evenodd" d="M41.1305 28.3798C40.978 28.2173 40.7498 28.081 40.6842 27.8885C39.7061 25.0148 38.7536 22.1329 37.7867 19.2554C36.7521 16.1741 35.7098 13.0954 34.6598 10.0191C34.598 9.83977 34.428 9.69789 34.3086 9.53852C35.5392 8.33352 36.7317 7.08539 38.0117 5.93602C39.1498 4.91477 40.0648 3.81977 40.1067 2.20602C40.1086 2.13914 40.1436 2.07227 40.1973 1.88477L40.5217 2.70102C40.5136 3.11414 40.4767 3.52727 40.5036 3.93789C40.5505 4.65227 40.6655 5.36289 40.698 6.07727C40.758 7.40664 40.7867 8.73852 40.8136 10.0698C40.8567 12.2123 40.8961 14.3548 40.923 16.4979C40.9648 19.9216 40.9923 23.3454 41.0355 26.7691C41.0405 27.3073 41.0967 27.8429 41.1305 28.3798Z" fill="#60B24F"/>
<path fill-rule="evenodd" clip-rule="evenodd" d="M39.618 66.9258C39.7823 66.1039 39.9986 65.2883 40.1005 64.4589C40.3036 62.8033 40.443 61.1389 40.6092 59.4789L40.6505 59.4727L40.6917 59.4795C40.7342 61.5567 41.0268 63.6211 41.563 65.6283C41.453 65.7733 41.2973 65.9027 41.2392 66.0664C40.7848 67.3477 40.3567 68.6389 39.8998 69.9202C39.8373 70.0952 39.6636 70.2314 39.5411 70.3852L39.0742 68.7814L39.618 66.9258Z" fill="#A9AA88"/>
<path fill-rule="evenodd" clip-rule="evenodd" d="M39.543 70.3916C39.6655 70.2379 39.8398 70.1016 39.9017 69.9266C40.3586 68.6454 40.7873 67.3548 41.2411 66.0729C41.2992 65.9091 41.4542 65.7798 41.5648 65.6348L42.3492 67.356C42.1942 67.576 41.9805 67.7741 41.8942 68.0191L40.3917 72.431C40.3298 72.6079 40.1186 72.7329 39.9773 72.8823L39.543 70.3916Z" fill="#B6B598"/>
<path fill-rule="evenodd" clip-rule="evenodd" d="M39.9727 72.8798C40.1145 72.731 40.3252 72.6054 40.387 72.4285L41.8895 68.0166C41.9752 67.7723 42.1895 67.5735 42.3445 67.3535L43.1039 68.0016C42.737 68.3641 42.5333 68.7829 42.6558 69.3123L42.4252 70.0673C42.3202 70.1966 42.1683 70.3091 42.1164 70.4573C41.592 71.9591 41.0914 73.4691 40.5633 74.971C40.4964 75.1616 40.3108 75.311 40.1795 75.4785C40.1112 74.6123 40.0422 73.746 39.9727 72.8798Z" fill="#C2C1A7"/>
<path fill-rule="evenodd" clip-rule="evenodd" d="M40.1966 75.4796C40.3272 75.3115 40.5128 75.1621 40.5803 74.9721C41.1084 73.4709 41.6091 71.9609 42.1334 70.4584C42.1853 70.3109 42.3366 70.1977 42.4422 70.0684L42.1241 73.534C42.0391 73.6321 41.9159 73.7177 41.8753 73.8321C41.5159 74.8409 41.1772 75.8571 40.8166 76.8659C40.7422 77.074 40.5997 77.2577 40.4884 77.4521C40.3897 77.3227 40.2128 77.1977 40.2047 77.0627C40.1728 76.5371 40.1947 76.0077 40.1966 75.4796Z" fill="#CECDB7"/>
<path fill-rule="evenodd" clip-rule="evenodd" d="M40.4805 77.4533C40.5917 77.2583 40.7342 77.0745 40.8086 76.867C41.1698 75.8589 41.508 74.8427 41.8673 73.8333C41.908 73.7189 42.0317 73.6339 42.1161 73.5352L42.1236 75.8102L41.3623 77.7627L40.4805 77.4533Z" fill="#DBDAC7"/>
<path fill-rule="evenodd" clip-rule="evenodd" d="M41.3594 77.763L42.1206 75.8105L42.2775 78.1205L41.3594 77.763Z" fill="#EBE9DC"/>
<path fill-rule="evenodd" clip-rule="evenodd" d="M42.6646 69.3087C42.5421 68.7793 42.7453 68.3599 43.1128 67.998L43.3234 68.1418L42.6646 69.3087Z" fill="#CECDB7"/>
<path fill-rule="evenodd" clip-rule="evenodd" d="M40.6997 59.4809L40.6584 59.474L40.6172 59.4802L40.7141 59.1309L40.6997 59.4809Z" fill="#4FAA41"/>
<path d="M18.6865 101H17.2646V93.877H17.1689L14.2773 100.713H13.1152L10.2236 93.877H10.1279V101H8.70605V91.1357H10.4971L13.6348 98.6279H13.751L16.8955 91.1357H18.6865V101ZM24.1348 101.144C21.9541 101.144 20.6211 99.6875 20.6211 97.2744C20.6211 94.875 21.9609 93.4121 24.1348 93.4121C26.3018 93.4121 27.6416 94.875 27.6416 97.2744C27.6416 99.6875 26.3086 101.144 24.1348 101.144ZM24.1348 99.8379C25.4062 99.8379 26.1309 98.8945 26.1309 97.2744C26.1309 95.6611 25.4062 94.7178 24.1348 94.7178C22.8564 94.7178 22.1387 95.6611 22.1387 97.2744C22.1387 98.9014 22.8564 99.8379 24.1348 99.8379ZM29.4121 101V93.5557H30.8271V94.7383H30.9365C31.2988 93.9111 32.0371 93.4121 33.1582 93.4121C34.8193 93.4121 35.7354 94.4102 35.7354 96.1807V101H34.2656V96.5498C34.2656 95.3535 33.7461 94.7588 32.6592 94.7588C31.5723 94.7588 30.8818 95.4834 30.8818 96.6455V101H29.4121ZM40.9238 99.6191C42.1816 99.6191 42.9404 98.6758 42.9404 97.1855C42.9404 95.7021 42.1748 94.752 40.9238 94.752C39.6592 94.752 38.9482 95.7021 38.9482 97.1855C38.9482 98.6689 39.6592 99.6191 40.9238 99.6191ZM40.9443 103.844C39.085 103.844 37.8818 103.01 37.7246 101.745H39.2285C39.3516 102.285 39.9736 102.634 40.9648 102.634C42.1885 102.634 42.9131 102.053 42.9131 101.068V99.6396H42.8037C42.3525 100.446 41.5322 100.891 40.5068 100.891C38.6064 100.891 37.4307 99.4209 37.4307 97.1924C37.4307 94.9229 38.6201 93.4326 40.5205 93.4326C41.5459 93.4326 42.4414 93.9385 42.8584 94.7451H42.9746V93.5557H44.3828V101.062C44.3828 102.764 43.0498 103.844 40.9443 103.844ZM49.6602 101.144C47.4795 101.144 46.1465 99.6875 46.1465 97.2744C46.1465 94.875 47.4863 93.4121 49.6602 93.4121C51.8271 93.4121 53.167 94.875 53.167 97.2744C53.167 99.6875 51.834 101.144 49.6602 101.144ZM49.6602 99.8379C50.9316 99.8379 51.6562 98.8945 51.6562 97.2744C51.6562 95.6611 50.9316 94.7178 49.6602 94.7178C48.3818 94.7178 47.6641 95.6611 47.6641 97.2744C47.6641 98.9014 48.3818 99.8379 49.6602 99.8379ZM55.1084 91.1357H58.6699C61.5957 91.1357 63.3115 92.9336 63.3115 96.0371C63.3115 99.1885 61.6094 101 58.6699 101H55.1084V91.1357ZM56.6396 92.5303V99.6055H58.499C60.5635 99.6055 61.7529 98.3203 61.7529 96.0576C61.7529 93.8291 60.543 92.5303 58.499 92.5303H56.6396ZM69.4297 101H65.376V91.1357H69.3408C71.1934 91.1357 72.3076 92.0791 72.3076 93.5967C72.3076 94.6289 71.5488 95.5518 70.5781 95.7158V95.832C71.9111 95.9688 72.7998 96.9189 72.7998 98.2041C72.7998 99.9404 71.5352 101 69.4297 101ZM66.9072 92.4346V95.3125H68.7256C70.0791 95.3125 70.7832 94.8135 70.7832 93.877C70.7832 92.9678 70.1201 92.4346 68.9854 92.4346H66.9072ZM66.9072 99.7012H69.1221C70.5029 99.7012 71.2344 99.1406 71.2344 98.0947C71.2344 97.0625 70.4756 96.5225 69.0332 96.5225H66.9072V99.7012Z" fill="#888888"/>
</svg>
