<svg width="150" height="151" viewBox="0 0 150 151" fill="none" xmlns="http://www.w3.org/2000/svg">
<rect x="0.5" y="0.939453" width="149" height="149" rx="11.5" fill="white"/>
<rect x="0.5" y="0.939453" width="149" height="149" rx="11.5" stroke="#E8E8E8"/>
<g clip-path="url(#clip0_1069_14297)">
<path d="M35 80.0059H37.6513V69.5391L41.755 78.6628C42.2381 79.7691 42.9 80.1572 44.2013 80.1572C45.5025 80.1572 46.1375 79.7691 46.6206 78.6628L50.7244 69.5391V80.0053H53.3756V69.5566C53.3756 68.5359 52.9681 68.0428 52.1256 67.7891C50.1112 67.1616 48.7613 67.7034 48.1488 69.0634L44.1231 78.0697L40.2244 69.0634C39.6388 67.7034 38.2619 67.1616 36.25 67.7891C35.4075 68.0428 35 68.5359 35 69.5566V80.0059ZM55.5812 71.4853H58.23V77.2522C58.2056 77.5647 58.33 78.2997 59.7825 78.3241H65.5469V71.4559H68.2031C68.2156 71.4559 68.1981 80.8209 68.1981 80.8603C68.2125 83.1697 65.3344 83.6703 64.0063 83.7097H55.6375V81.9272L64.0212 81.9247C65.7275 81.7466 65.525 80.8966 65.525 80.6134V79.9178H59.8925C57.2706 79.8934 55.6031 78.7484 55.5812 77.4322C55.5788 77.3128 55.6375 71.5441 55.5812 71.4853Z" fill="#00618A"/>
<path d="M70.2539 80.0078H77.8758C78.767 80.0078 79.6339 79.8197 80.322 79.4978C81.4695 78.9728 82.0283 78.2578 82.0283 77.3228V75.3866C82.0283 74.6222 81.3933 73.9072 80.1433 73.4334C79.4814 73.1772 78.6639 73.0428 77.8752 73.0428H74.662C73.5927 73.0428 73.0827 72.7203 72.9558 72.0078C72.9314 71.9222 72.9314 71.8541 72.9314 71.7684V70.5622C72.9314 70.4941 72.9314 70.4253 72.9558 70.3403C73.0827 69.7984 73.3633 69.6447 74.3058 69.5591L74.562 69.5422H82.1302V67.7772H74.6895C73.6202 67.7772 73.0589 67.8453 72.5483 67.9972C70.9689 68.4903 70.2802 69.2716 70.2802 70.6316V72.1772C70.2802 73.3659 71.6302 74.3866 73.8983 74.6234L74.6627 74.6578H77.4164C77.5189 74.6578 77.6189 74.6578 77.697 74.6747C78.537 74.7428 78.8933 74.8966 79.1495 75.2022C79.2814 75.3241 79.357 75.4978 79.352 75.6759V77.2241C79.352 77.4097 79.2252 77.6491 78.9714 77.8516C78.742 78.0566 78.3589 78.1909 77.8508 78.2253L77.5702 78.2422H70.2539V80.0078ZM98.5645 76.9316C98.5645 78.7503 99.917 79.7684 102.641 79.9734L103.408 80.0078H110.315V78.2403H103.357C101.802 78.2403 101.216 77.8497 101.216 76.9147V67.7734H98.567V76.9309L98.5645 76.9316ZM83.7208 77.0241V70.7228C83.7208 69.1234 84.8464 68.1522 87.0677 67.8466C87.3047 67.8124 87.5438 67.7952 87.7833 67.7953H92.8127C93.0689 67.7953 93.2983 67.8122 93.5552 67.8466C95.777 68.1516 96.9002 69.1234 96.9002 70.7228V77.0241C96.9002 78.3228 96.4239 79.0166 95.3233 79.4703L97.9358 81.8266H94.857L92.7452 79.9197L90.6189 80.0541H87.7845C87.2577 80.0524 86.7337 79.9784 86.227 79.8341C84.5402 79.3753 83.722 78.4891 83.722 77.0241H83.7208ZM86.582 76.8703C86.582 76.9559 86.6064 77.0409 86.6333 77.1441C86.787 77.8766 87.4758 78.2841 88.5227 78.2841H90.9302L88.7183 76.2872H91.797L93.7258 78.0303C94.082 77.8397 94.3139 77.5516 94.397 77.1784C94.4214 77.0928 94.4214 77.0078 94.4214 76.9222V70.8797C94.4214 70.8116 94.4214 70.7259 94.397 70.6403C94.2433 69.9591 93.5545 69.5684 92.532 69.5684H88.5233C87.3489 69.5684 86.5827 70.0784 86.5827 70.8797L86.582 76.8703Z" fill="#E48E00"/>
<path d="M112.645 64.8476C111.017 64.8038 109.771 64.9551 108.707 65.4045C108.404 65.5314 107.921 65.5338 107.872 65.9126C108.038 66.0882 108.065 66.3495 108.197 66.562C108.451 66.9745 108.881 67.5239 109.264 67.812L110.56 68.7395C111.356 69.2251 112.247 69.5039 113.016 69.9895C113.468 70.2776 113.917 70.6388 114.359 70.9639C114.576 71.1226 114.722 71.3739 115.008 71.4739V71.4276C114.859 71.237 114.82 70.9757 114.683 70.7782L114.08 70.1751C113.492 69.3938 112.744 68.7076 111.949 68.1363C111.314 67.682 109.898 67.067 109.632 66.3295L109.586 66.2832C110.035 66.2345 110.562 66.0707 110.975 65.9607C111.673 65.7726 112.296 65.8213 113.014 65.6357L113.988 65.3551V65.172C113.624 64.7982 113.366 64.3051 112.967 63.9657C111.932 63.0845 110.799 62.2007 109.632 61.4632C108.986 61.0557 108.187 60.792 107.501 60.4451C107.272 60.3282 106.866 60.2695 106.712 60.0739C106.354 59.6151 106.158 59.0339 105.88 58.4989L104.212 54.9782C103.861 54.1751 103.631 53.3814 103.192 52.6614C101.09 49.202 98.8244 47.1145 95.3156 45.0639C94.5712 44.627 93.67 44.4557 92.7231 44.2314L91.1925 44.1388C90.8825 44.007 90.56 43.6264 90.2675 43.4432C89.1056 42.7082 86.1244 41.112 85.2625 43.2114C84.7206 44.537 86.0756 45.8307 86.5612 46.5026C86.9006 46.9739 87.3375 47.5013 87.5794 48.0307C87.7406 48.3776 87.7675 48.7263 87.9044 49.0951C88.2412 50.0032 88.5344 50.9895 88.9712 51.8295C89.1912 52.2545 89.4325 52.7014 89.7112 53.0795C89.8819 53.3113 90.175 53.4164 90.2212 53.7751C89.9356 54.1757 89.9187 54.7957 89.7575 55.3032C89.0325 57.5857 89.3056 60.4226 90.3606 62.1145C90.6831 62.632 91.4444 63.7451 92.4919 63.3182C93.4075 62.9445 93.2025 61.7901 93.4637 60.7695C93.525 60.5401 93.4881 60.3689 93.6031 60.2151V60.2614L94.4381 61.9289C95.0556 62.9226 96.1494 63.9601 97.0775 64.6607C97.5606 65.0245 97.9394 65.6545 98.5619 65.867V65.8182H98.5156C98.3937 65.6326 98.2056 65.5545 98.0519 65.4032C97.6881 65.047 97.285 64.6051 96.9875 64.197C96.1425 63.052 95.3956 61.797 94.7169 60.4907C94.3919 59.8682 94.1087 59.1795 93.8356 58.5451C93.7306 58.3007 93.7331 57.9301 93.5131 57.8051C93.2131 58.2689 92.7712 58.6451 92.5387 59.1945C92.1675 60.0707 92.1212 61.1426 91.9819 62.2514L91.8894 62.2976C91.245 62.1413 91.0175 61.4776 90.7787 60.9082C90.1706 59.4676 90.0587 57.1457 90.5931 55.4882C90.73 55.0589 91.355 53.7057 91.1012 53.3107C90.9819 52.9151 90.5837 52.6857 90.3612 52.3832C90.0704 51.9776 89.8218 51.5432 89.6194 51.087C89.1237 49.9613 88.8919 48.702 88.3694 47.5663C88.1206 47.022 87.6981 46.4726 87.3512 45.9895C86.9656 45.4551 86.5356 45.062 86.2381 44.4145C86.1331 44.1851 85.9894 43.8164 86.1456 43.5795C86.1944 43.4207 86.2675 43.3551 86.4237 43.3039C86.6925 43.0964 87.4419 43.372 87.72 43.487C88.4644 43.797 89.085 44.0901 89.7144 44.5076C90.0144 44.7076 90.32 45.0957 90.6862 45.2032H91.1037C91.7556 45.352 92.4856 45.247 93.0962 45.4326C94.1731 45.7595 95.14 46.2701 96.0137 46.8245C98.6844 48.5089 100.867 50.9089 102.361 53.7726C102.603 54.2339 102.706 54.6732 102.918 55.162C103.346 56.1482 103.882 57.1639 104.307 58.1282C104.732 59.0926 105.145 60.062 105.743 60.8626C106.058 61.2826 107.276 61.507 107.828 61.7414C108.216 61.9051 108.851 62.0757 109.217 62.2982C109.921 62.7207 110.599 63.2232 111.259 63.6876C111.586 63.922 112.597 64.4301 112.648 64.847L112.645 64.8476ZM91.9344 47.1964C91.6541 47.1918 91.3743 47.2229 91.1019 47.2888V47.3351H91.1481C91.3094 47.6695 91.595 47.8845 91.795 48.1701L92.2587 49.142L92.305 49.0982C92.5931 48.8957 92.7225 48.5707 92.7225 48.0776C92.6056 47.9557 92.5906 47.8045 92.4906 47.6601C92.3587 47.467 92.1031 47.3601 91.9344 47.1964Z" fill="#00618A"/>
</g>
<path d="M60.0977 123.939H58.6758V116.816H58.5801L55.6885 123.652H54.5264L51.6348 116.816H51.5391V123.939H50.1172V114.075H51.9082L55.0459 121.567H55.1621L58.3066 114.075H60.0977V123.939ZM63.1396 126.64C63.0166 126.64 62.668 126.626 62.5312 126.605V125.341C62.6475 125.361 62.873 125.368 63.0098 125.368C63.707 125.368 64.1035 125.081 64.3564 124.329L64.4658 123.967L61.7725 116.495H63.3721L65.2383 122.408H65.3545L67.2139 116.495H68.7725L65.9971 124.247C65.3613 126.059 64.6572 126.64 63.1396 126.64ZM73.8105 121.287H75.3281C75.458 122.224 76.374 122.818 77.6934 122.818C78.9238 122.818 79.8262 122.183 79.8262 121.308C79.8262 120.556 79.252 120.104 77.9463 119.797L76.6748 119.489C74.8906 119.072 74.0771 118.211 74.0771 116.762C74.0771 115.005 75.5127 113.836 77.666 113.836C79.6689 113.836 81.1318 115.005 81.2207 116.666H79.7305C79.5869 115.757 78.7939 115.189 77.6455 115.189C76.4355 115.189 75.6289 115.771 75.6289 116.659C75.6289 117.363 76.1484 117.767 77.4336 118.067L78.5205 118.334C80.5439 118.806 81.3779 119.626 81.3779 121.109C81.3779 122.996 79.915 124.179 77.5771 124.179C75.3896 124.179 73.9199 123.051 73.8105 121.287ZM87.5986 124.179C84.7549 124.179 82.9912 122.217 82.9912 119.011C82.9912 115.818 84.7686 113.836 87.5986 113.836C90.4219 113.836 92.1924 115.818 92.1924 119.011C92.1924 120.891 91.5908 122.367 90.5176 123.194L91.7549 124.985H90.1553L89.3486 123.898C88.8291 124.083 88.2344 124.179 87.5986 124.179ZM87.6055 122.75C87.9268 122.75 88.2344 122.709 88.5352 122.627L87.2979 120.911H88.8633L89.6016 121.827C90.2578 121.267 90.627 120.269 90.627 119.011C90.627 116.714 89.4512 115.265 87.5986 115.265C85.7393 115.265 84.5635 116.707 84.5635 119.011C84.5635 121.314 85.7324 122.75 87.6055 122.75ZM100.416 122.531V123.939H94.2637V114.075H95.7949V122.531H100.416Z" fill="#888888"/>
<defs>
<clipPath id="clip0_1069_14297">
<rect width="80" height="80" fill="white" transform="translate(35 22.9395)"/>
</clipPath>
</defs>
</svg>
