<svg width="170" height="120" viewBox="0 0 81 105" fill="none" xmlns="http://www.w3.org/2000/svg">
<g clip-path="url(#clip0_969_17339)">
<path d="M0.5 57.0665H3.15125V46.5996L7.255 55.7234C7.73812 56.8296 8.4 57.2177 9.70125 57.2177C11.0025 57.2177 11.6375 56.8296 12.1206 55.7234L16.2244 46.5996V57.0659H18.8756V46.6171C18.8756 45.5965 18.4681 45.1034 17.6256 44.8496C15.6112 44.2221 14.2613 44.764 13.6488 46.124L9.62313 55.1302L5.72438 46.124C5.13875 44.764 3.76188 44.2221 1.75 44.8496C0.9075 45.1034 0.5 45.5965 0.5 46.6171L0.5 57.0665ZM21.0812 48.5459H23.73V54.3127C23.7056 54.6252 23.83 55.3602 25.2825 55.3846H31.0469V48.5165H33.7031C33.7156 48.5165 33.6981 57.8815 33.6981 57.9209C33.7125 60.2302 30.8344 60.7309 29.5063 60.7702H21.1375V58.9877L29.5212 58.9852C31.2275 58.8071 31.025 57.9571 31.025 57.674V56.9784H25.3925C22.7706 56.954 21.1031 55.809 21.0812 54.4927C21.0788 54.3734 21.1375 48.6046 21.0812 48.5459Z" fill="#00618A"/>
<path d="M35.7539 57.0684H43.3758C44.267 57.0684 45.1339 56.8802 45.822 56.5584C46.9695 56.0334 47.5283 55.3184 47.5283 54.3834V52.4471C47.5283 51.6827 46.8933 50.9677 45.6433 50.494C44.9814 50.2377 44.1639 50.1034 43.3752 50.1034H40.162C39.0927 50.1034 38.5827 49.7809 38.4558 49.0684C38.4314 48.9827 38.4314 48.9146 38.4314 48.829V47.6227C38.4314 47.5546 38.4314 47.4859 38.4558 47.4009C38.5827 46.859 38.8633 46.7052 39.8058 46.6196L40.062 46.6027H47.6302V44.8377H40.1895C39.1202 44.8377 38.5589 44.9059 38.0483 45.0577C36.4689 45.5509 35.7802 46.3321 35.7802 47.6921V49.2377C35.7802 50.4265 37.1302 51.4471 39.3983 51.684L40.1627 51.7184H42.9164C43.0189 51.7184 43.1189 51.7184 43.197 51.7352C44.037 51.8034 44.3933 51.9571 44.6495 52.2627C44.7814 52.3846 44.857 52.5584 44.852 52.7365V54.2846C44.852 54.4702 44.7252 54.7096 44.4714 54.9121C44.242 55.1171 43.8589 55.2515 43.3508 55.2859L43.0702 55.3027H35.7539V57.0684ZM64.0645 53.9921C64.0645 55.8109 65.417 56.829 68.1414 57.034L68.9083 57.0684H75.8152V55.3009H68.857C67.302 55.3009 66.7158 54.9102 66.7158 53.9752V44.834H64.067V53.9915L64.0645 53.9921ZM49.2208 54.0846V47.7834C49.2208 46.184 50.3464 45.2127 52.5677 44.9071C52.8047 44.8729 53.0438 44.8558 53.2833 44.8559H58.3127C58.5689 44.8559 58.7983 44.8727 59.0552 44.9071C61.277 45.2121 62.4002 46.184 62.4002 47.7834V54.0846C62.4002 55.3834 61.9239 56.0771 60.8233 56.5309L63.4358 58.8871H60.357L58.2452 56.9802L56.1189 57.1146H53.2845C52.7577 57.113 52.2337 57.0389 51.727 56.8946C50.0402 56.4359 49.222 55.5496 49.222 54.0846H49.2208ZM52.082 53.9309C52.082 54.0165 52.1064 54.1015 52.1333 54.2046C52.287 54.9371 52.9758 55.3446 54.0227 55.3446H56.4302L54.2183 53.3477H57.297L59.2258 55.0909C59.582 54.9002 59.8139 54.6121 59.897 54.239C59.9214 54.1534 59.9214 54.0684 59.9214 53.9827V47.9402C59.9214 47.8721 59.9214 47.7865 59.897 47.7009C59.7433 47.0196 59.0545 46.629 58.032 46.629H54.0233C52.8489 46.629 52.0827 47.139 52.0827 47.9402L52.082 53.9309Z" fill="#E48E00"/>
<path d="M78.145 41.9081C76.5169 41.8644 75.2712 42.0156 74.2069 42.465C73.9044 42.5919 73.4206 42.5944 73.3719 42.9731C73.5381 43.1488 73.565 43.41 73.6969 43.6225C73.9506 44.035 74.3806 44.5844 74.7637 44.8725L76.06 45.8C76.8556 46.2856 77.7469 46.5644 78.5162 47.05C78.9681 47.3381 79.4169 47.6994 79.8587 48.0244C80.0762 48.1831 80.2225 48.4344 80.5081 48.5344V48.4881C80.3594 48.2975 80.32 48.0363 80.1831 47.8388L79.58 47.2356C78.9919 46.4544 78.2444 45.7681 77.4487 45.1969C76.8137 44.7425 75.3981 44.1275 75.1319 43.39L75.0856 43.3438C75.535 43.295 76.0625 43.1313 76.475 43.0213C77.1731 42.8331 77.7956 42.8819 78.5137 42.6963L79.4881 42.4156V42.2325C79.1244 41.8588 78.8656 41.3656 78.4675 41.0263C77.4325 40.145 76.2994 39.2613 75.1325 38.5238C74.4856 38.1163 73.6875 37.8525 73.0012 37.5056C72.7719 37.3888 72.3662 37.33 72.2125 37.1344C71.8537 36.6756 71.6581 36.0944 71.38 35.5594L69.7125 32.0388C69.3612 31.2356 69.1312 30.4419 68.6919 29.7219C66.59 26.2625 64.3244 24.175 60.8156 22.1244C60.0712 21.6875 59.17 21.5163 58.2231 21.2919L56.6925 21.1994C56.3825 21.0675 56.06 20.6869 55.7675 20.5038C54.6056 19.7688 51.6244 18.1725 50.7625 20.2719C50.2206 21.5975 51.5756 22.8913 52.0612 23.5631C52.4006 24.0344 52.8375 24.5619 53.0794 25.0913C53.2406 25.4381 53.2675 25.7869 53.4044 26.1556C53.7412 27.0638 54.0344 28.05 54.4712 28.89C54.6912 29.315 54.9325 29.7619 55.2112 30.14C55.3819 30.3719 55.675 30.4769 55.7212 30.8356C55.4356 31.2363 55.4187 31.8563 55.2575 32.3638C54.5325 34.6463 54.8056 37.4831 55.8606 39.175C56.1831 39.6925 56.9444 40.8056 57.9919 40.3788C58.9075 40.005 58.7025 38.8506 58.9637 37.83C59.025 37.6006 58.9881 37.4294 59.1031 37.2756V37.3219L59.9381 38.9894C60.5556 39.9831 61.6494 41.0206 62.5775 41.7213C63.0606 42.085 63.4394 42.715 64.0619 42.9275V42.8788H64.0156C63.8937 42.6931 63.7056 42.615 63.5519 42.4638C63.1881 42.1075 62.785 41.6656 62.4875 41.2575C61.6425 40.1125 60.8956 38.8575 60.2169 37.5513C59.8919 36.9288 59.6087 36.24 59.3356 35.6056C59.2306 35.3613 59.2331 34.9906 59.0131 34.8656C58.7131 35.3294 58.2712 35.7056 58.0387 36.255C57.6675 37.1313 57.6212 38.2031 57.4819 39.3119L57.3894 39.3581C56.745 39.2019 56.5175 38.5381 56.2787 37.9688C55.6706 36.5281 55.5587 34.2063 56.0931 32.5488C56.23 32.1194 56.855 30.7663 56.6012 30.3713C56.4819 29.9756 56.0837 29.7463 55.8612 29.4438C55.5704 29.0381 55.3218 28.6038 55.1194 28.1475C54.6237 27.0219 54.3919 25.7625 53.8694 24.6269C53.6206 24.0825 53.1981 23.5331 52.8512 23.05C52.4656 22.5156 52.0356 22.1225 51.7381 21.475C51.6331 21.2456 51.4894 20.8769 51.6456 20.64C51.6944 20.4813 51.7675 20.4156 51.9237 20.3644C52.1925 20.1569 52.9419 20.4325 53.22 20.5475C53.9644 20.8575 54.585 21.1506 55.2144 21.5681C55.5144 21.7681 55.82 22.1563 56.1862 22.2638H56.6037C57.2556 22.4125 57.9856 22.3075 58.5962 22.4931C59.6731 22.82 60.64 23.3306 61.5137 23.885C64.1844 25.5694 66.3675 27.9694 67.8612 30.8331C68.1031 31.2944 68.2056 31.7338 68.4181 32.2225C68.8456 33.2088 69.3825 34.2244 69.8075 35.1888C70.2325 36.1531 70.645 37.1225 71.2431 37.9231C71.5581 38.3431 72.7762 38.5675 73.3281 38.8019C73.7162 38.9656 74.3512 39.1363 74.7175 39.3588C75.4206 39.7813 76.0994 40.2838 76.7587 40.7481C77.0856 40.9825 78.0969 41.4906 78.1481 41.9075L78.145 41.9081ZM57.4344 24.2569C57.1541 24.2524 56.8743 24.2835 56.6019 24.3494V24.3956H56.6481C56.8094 24.73 57.095 24.945 57.295 25.2306L57.7587 26.2025L57.805 26.1588C58.0931 25.9563 58.2225 25.6313 58.2225 25.1381C58.1056 25.0163 58.0906 24.865 57.9906 24.7206C57.8587 24.5275 57.6031 24.4206 57.4344 24.2569Z" fill="#00618A"/>
</g>
<path d="M25.5977 101H24.1758V93.877H24.0801L21.1885 100.713H20.0264L17.1348 93.877H17.0391V101H15.6172V91.1357H17.4082L20.5459 98.6279H20.6621L23.8066 91.1357H25.5977V101ZM28.6396 103.7C28.5166 103.7 28.168 103.687 28.0312 103.666V102.401C28.1475 102.422 28.373 102.429 28.5098 102.429C29.207 102.429 29.6035 102.142 29.8564 101.39L29.9658 101.027L27.2725 93.5557H28.8721L30.7383 99.4688H30.8545L32.7139 93.5557H34.2725L31.4971 101.308C30.8613 103.119 30.1572 103.7 28.6396 103.7ZM39.3105 98.3477H40.8281C40.958 99.2842 41.874 99.8789 43.1934 99.8789C44.4238 99.8789 45.3262 99.2432 45.3262 98.3682C45.3262 97.6162 44.752 97.165 43.4463 96.8574L42.1748 96.5498C40.3906 96.1328 39.5771 95.2715 39.5771 93.8223C39.5771 92.0654 41.0127 90.8965 43.166 90.8965C45.1689 90.8965 46.6318 92.0654 46.7207 93.7266H45.2305C45.0869 92.8174 44.2939 92.25 43.1455 92.25C41.9355 92.25 41.1289 92.8311 41.1289 93.7197C41.1289 94.4238 41.6484 94.8271 42.9336 95.1279L44.0205 95.3945C46.0439 95.8662 46.8779 96.6865 46.8779 98.1699C46.8779 100.057 45.415 101.239 43.0771 101.239C40.8896 101.239 39.4199 100.111 39.3105 98.3477ZM53.0986 101.239C50.2549 101.239 48.4912 99.2773 48.4912 96.0713C48.4912 92.8789 50.2686 90.8965 53.0986 90.8965C55.9219 90.8965 57.6924 92.8789 57.6924 96.0713C57.6924 97.9512 57.0908 99.4277 56.0176 100.255L57.2549 102.046H55.6553L54.8486 100.959C54.3291 101.144 53.7344 101.239 53.0986 101.239ZM53.1055 99.8105C53.4268 99.8105 53.7344 99.7695 54.0352 99.6875L52.7979 97.9717H54.3633L55.1016 98.8877C55.7578 98.3271 56.127 97.3291 56.127 96.0713C56.127 93.7744 54.9512 92.3252 53.0986 92.3252C51.2393 92.3252 50.0635 93.7676 50.0635 96.0713C50.0635 98.375 51.2324 99.8105 53.1055 99.8105ZM65.916 99.5918V101H59.7637V91.1357H61.2949V99.5918H65.916Z" fill="#888888"/>
<defs>
<clipPath id="clip0_969_17339">
<rect width="80" height="80" fill="white" transform="translate(0.5)"/>
</clipPath>
</defs>
</svg>
