<svg width="171" height="120" viewBox="0 0 171 120" fill="none" xmlns="http://www.w3.org/2000/svg">
<rect width="171" height="120" fill="white"/>
<g clip-path="url(#clip0_1073_19040)">
<path d="M92.5769 7.74965C92.0156 7.74965 91.4544 7.87402 90.9556 8.0609C92.0156 8.74715 92.5769 9.68215 92.8887 10.7421C92.8887 10.8671 92.9512 10.9921 92.9512 11.1165C92.9512 11.2415 93.0138 11.3659 93.0138 11.4903C93.0763 13.299 92.5144 13.5484 92.1406 14.6084C91.5169 15.9796 91.7044 17.4765 92.4525 18.6609C92.515 18.7859 92.5775 18.9734 92.7019 19.0978C91.8913 13.8603 96.2556 13.1115 97.0662 11.4903C97.1287 10.0565 95.9444 9.12152 95.0087 8.43527C94.0737 7.87402 93.325 7.74902 92.5775 7.74902L92.5769 7.74965ZM99.125 8.8709C99.0625 9.36965 99.125 9.24527 99.0625 9.49465C99.0625 9.68152 99.0625 9.8684 99 10.0559C98.9375 10.2428 98.9375 10.3678 98.875 10.5546C98.8125 10.7415 98.7506 10.8665 98.6881 11.0534C98.6256 11.1784 98.5631 11.3028 98.5006 11.4896C98.4388 11.5521 98.3762 11.6771 98.3144 11.7396C98.2519 11.8021 98.2519 11.864 98.1894 11.9265C98.0644 12.0515 98.0019 12.2378 97.8775 12.3628L97.5037 12.7371C97.3787 12.8621 97.2537 12.9865 97.1294 13.0484C96.6931 13.3609 96.1944 13.6096 95.7575 13.9215C95.6325 14.0465 95.4456 14.109 95.3212 14.2334C95.1962 14.3584 95.0712 14.4209 94.9469 14.5453L94.5731 14.919C94.4481 15.044 94.3231 15.169 94.2606 15.3559C94.1362 15.4809 94.0737 15.6678 93.9494 15.7921C93.8869 15.9796 93.8244 16.104 93.7 16.2909C93.6375 16.4784 93.575 16.6034 93.5125 16.7896C93.45 16.9771 93.3881 17.164 93.3881 17.2884C93.3881 17.3509 93.3881 17.4759 93.3256 17.5384C93.3256 17.6009 93.3256 17.7253 93.2631 17.7878V18.6603C93.2631 18.8478 93.2631 18.9728 93.3256 19.159C93.3256 19.3465 93.3881 19.4715 93.4506 19.6584C93.5131 19.8453 93.5756 19.9696 93.6381 20.1571C93.7 20.2821 93.7625 20.344 93.7625 20.469L89.0231 18.6603C88.2415 18.4234 87.4514 18.2156 86.6544 18.0371C86.2175 17.9121 85.7812 17.8496 85.3444 17.7246C84.1072 17.477 82.8586 17.2899 81.6031 17.164H81.4781C80.2313 17.039 79.0469 16.9765 77.8 16.9765C76.8644 16.9765 75.9912 17.039 75.1187 17.1015C73.8713 17.164 72.625 17.3515 71.3775 17.5384L70.4419 17.7253C69.8188 17.8503 69.195 17.9746 68.5713 18.1615C68.2594 18.224 67.9481 18.349 67.6362 18.4115C67.3244 18.5359 67.0125 18.6603 66.7631 18.7853C66.5138 18.9103 66.3269 18.9728 66.0775 19.0971C66.015 19.0971 66.015 19.0971 65.9525 19.1596C65.765 19.284 65.5788 19.3465 65.3913 19.4709C65.3288 19.4709 65.2663 19.5334 65.2663 19.5334C65.0175 19.6584 64.83 19.7834 64.6431 19.8453C64.5181 19.9078 64.3312 19.9703 64.2069 20.0328C64.1444 20.0946 64.0819 20.0946 64.0194 20.1571C63.8325 20.2821 63.6456 20.344 63.4581 20.4684C63.2712 20.5934 63.0844 20.6559 62.9594 20.7809C62.8344 20.9053 62.6475 20.9678 62.5231 21.0921C62.5231 21.0921 62.4606 21.0921 62.4606 21.1546C62.3356 21.2171 62.2113 21.3421 62.0869 21.4665L62.0244 21.529C61.8994 21.5915 61.8369 21.7159 61.7125 21.7784C61.65 21.7784 61.65 21.8409 61.5875 21.8409C61.4631 21.9034 61.4006 22.0278 61.2763 22.0896C61.2763 22.1521 61.2137 22.1521 61.2137 22.1521L60.8394 22.5265L60.7769 22.589L60.4031 22.9628C60.4031 22.9628 60.4031 23.0253 60.3406 23.0253L60.0288 23.3371C59.9663 23.3996 59.9037 23.3996 59.9037 23.4621L59.53 23.8359C59.53 23.8984 59.4675 23.8984 59.4675 23.9609L58.9688 24.459L58.9062 24.5215C58.595 24.8959 58.2206 25.2078 57.8469 25.5196C57.4731 25.8315 57.0981 26.1428 56.6619 26.4546C56.2256 26.7665 55.8513 27.0159 55.415 27.2653C54.9788 27.5146 54.5419 27.7015 54.1056 27.889C53.6687 28.0759 53.2325 28.2628 52.7962 28.3878C51.9231 28.5753 51.05 28.949 50.3019 29.0109C50.3019 28.6996 50.1144 28.7615 49.9275 28.7615C49.7406 28.824 49.5538 28.824 49.4287 28.8865C49.2412 28.949 49.1169 29.0115 48.93 29.074C48.7523 29.1316 48.5842 29.2155 48.4313 29.3228C48.3063 29.4478 48.1194 29.5103 47.995 29.6353C47.87 29.7596 47.6825 29.884 47.5581 30.009C47.4331 30.134 47.2463 30.2584 47.1219 30.3828C46.9969 30.5078 46.8719 30.6328 46.7475 30.8196C46.6225 31.0065 46.4981 31.1309 46.4356 31.3184C46.3112 31.4434 46.2488 31.6303 46.1244 31.8172C46.0619 32.0047 45.9369 32.1909 45.8744 32.3784L45.6875 32.9396C45.625 33.1265 45.625 33.2509 45.5625 33.4384V33.5009C45.5 33.6884 45.5 33.9371 45.5 34.0621C45.5625 33.9996 45.5625 34.1246 45.5625 34.249V34.4984C45.5625 34.6234 45.625 34.7478 45.625 34.8722C45.6875 34.9972 45.6875 35.1222 45.75 35.2465C45.8119 35.3715 45.8744 35.4959 45.9987 35.6209C46.0612 35.7459 46.1862 35.8703 46.2487 35.9946C46.3731 36.1196 46.4975 36.2446 46.6225 36.3065C46.7475 36.4315 46.8719 36.5565 46.9963 36.6184C47.495 37.0546 47.62 37.1796 48.2437 37.5534C48.3687 37.6159 48.4306 37.6784 48.5556 37.7409H48.6181V37.8659C48.6181 38.0521 48.6806 38.1771 48.7425 38.364C48.805 38.5515 48.8675 38.7384 48.93 38.8628L49.1162 39.2371C49.1162 39.2996 49.1788 39.2996 49.1788 39.3621C49.2413 39.549 49.3662 39.6734 49.4287 39.7984C49.5531 39.9234 49.6156 40.1103 49.74 40.2346L50.1144 40.609L50.4881 40.9828H50.5506C50.6756 41.1078 50.8 41.1703 50.925 41.2953C51.05 41.4203 51.2369 41.4822 51.3612 41.544C51.4863 41.6065 51.6731 41.7315 51.86 41.794C51.985 41.8565 52.11 41.9184 52.2962 41.9184C52.2962 41.9184 52.3587 41.9184 52.3587 41.9809C52.4212 41.9809 52.5462 42.0434 52.6087 42.0434C52.5462 43.1653 52.5462 44.2253 52.6712 44.5997C52.8575 45.0359 53.7931 43.7265 54.6663 42.2928C54.5413 43.7265 54.4788 45.4103 54.6663 45.909C54.9156 46.4078 56.1 44.7865 57.2225 43.0403C71.8131 39.6734 85.1569 49.7746 86.5913 64.054C86.3413 61.809 83.5975 60.5621 82.2887 60.874C81.665 62.3703 80.605 64.3659 78.9219 65.5503C79.0469 64.1782 78.9844 62.8065 78.7344 61.4353C78.2981 63.3059 77.425 65.114 76.1781 66.6103C74.245 66.7353 72.25 65.7996 71.2519 64.3659C71.1894 64.3034 71.1269 64.1784 71.065 64.1159C71.0025 63.9915 70.94 63.8046 70.8775 63.6796C70.815 63.5546 70.7531 63.3678 70.7531 63.2434V62.4953C70.7531 62.3703 70.8156 62.1828 70.8781 62.0584C70.9406 61.934 70.9406 61.7465 71.0031 61.6221C71.065 61.4971 71.1275 61.3103 71.2519 61.1859C71.6262 60.1878 71.6262 59.3771 70.94 58.9409L70.5662 58.7534C70.5037 58.7534 70.3788 58.6915 70.3162 58.6915C70.2537 58.6915 70.1919 58.629 70.1294 58.629C70.005 58.5665 69.8181 58.5665 69.6931 58.504C69.5681 58.4415 69.3813 58.4415 69.2569 58.4415C69.1319 58.4415 68.9444 58.3796 68.82 58.3796H68.5087C68.3212 58.3796 68.1963 58.3797 68.0719 58.4422C67.9469 58.4422 67.76 58.5046 67.6356 58.5046C67.5106 58.5672 67.3237 58.5671 67.1987 58.6296C67.0744 58.6915 66.9494 58.754 66.7625 58.8159L66.3881 59.0034C61.5869 62.1209 64.4556 69.4784 67.6981 71.5984C66.4506 71.8484 65.2038 72.0971 64.8294 72.3471L64.7669 72.4097C65.64 72.9703 66.5756 73.4072 67.5731 73.7809C68.8825 74.2178 70.3169 74.5915 70.94 74.779C72.6237 75.1528 74.37 75.2778 76.1156 75.1528C85.2194 74.529 92.7019 67.5459 94.0731 58.4422C94.1356 58.6297 94.1356 58.8159 94.1981 59.0034C94.2606 59.3771 94.3231 59.7515 94.3856 60.1878C94.4481 60.3753 94.4481 60.5621 94.4481 60.749V60.8115C94.4481 60.999 94.51 61.1859 94.51 61.3728C94.51 61.6221 94.5725 61.809 94.5725 62.0584V64.6771C94.5725 64.8646 94.51 64.9896 94.51 65.1765V65.3634C94.51 65.5509 94.4475 65.7378 94.4475 65.9871C94.385 66.174 94.385 66.3609 94.3225 66.5484V66.6109C94.26 66.7978 94.26 66.9846 94.1981 67.1715V67.234C94.1356 67.4215 94.1356 67.6084 94.0731 67.7953V67.8578L93.8862 68.419V68.4815C93.8237 68.6684 93.7613 68.9178 93.6994 69.1046C93.6369 69.2921 93.5744 69.479 93.4494 69.7284C93.3875 69.9153 93.325 70.1646 93.2006 70.3515C93.1381 70.539 93.0131 70.7259 92.9506 70.9753C92.8887 71.1628 92.7638 71.3496 92.7019 71.5365C92.7019 71.599 92.6394 71.6615 92.6394 71.6615C92.6394 71.6615 92.6394 71.724 92.5769 71.724C91.2675 74.4046 89.2725 76.774 86.7781 78.6446C86.5906 78.7696 86.4663 78.8946 86.2794 79.019C86.2169 79.0815 86.1544 79.0815 86.1544 79.144C86.0294 79.2684 85.8425 79.3309 85.7181 79.4553L85.7806 79.5803C86.0919 79.5178 86.3419 79.5178 86.6531 79.4553C87.2144 79.3928 87.7131 79.2678 88.2744 79.1434C88.3994 79.1434 88.5869 79.0809 88.7113 79.0184C88.8363 79.0184 88.8981 78.9559 89.0225 78.9559C89.1469 78.9559 89.335 78.894 89.4594 78.894C89.5844 78.8315 89.7087 78.8315 89.8331 78.769C91.8913 78.2709 93.8862 77.5846 95.8194 76.774C92.5144 81.2634 88.15 84.8803 83.0369 87.249C85.4062 87.0621 87.7756 86.6884 90.0825 86.0021C98.3664 83.5696 105.357 77.9684 109.537 70.414C108.664 75.1528 106.793 79.7047 103.988 83.6953C105.983 82.3859 107.791 80.8265 109.475 79.1434C114.089 74.3421 117.144 68.169 118.142 61.6221C118.828 64.8646 119.077 68.2315 118.766 71.5365C133.668 50.7728 120.012 29.2609 114.276 23.5865C114.276 23.524 114.214 23.524 114.214 23.4615C114.214 23.7115 114.214 23.9603 114.151 24.2103C114.089 24.709 114.026 25.1453 113.964 25.5815C113.839 26.0184 113.715 26.5171 113.59 26.9534C113.465 27.3903 113.278 27.8265 113.091 28.2628C112.904 28.699 112.717 29.1359 112.467 29.5103C112.218 29.8846 111.969 30.3209 111.719 30.6946C111.47 31.0684 111.158 31.4428 110.846 31.8172C110.535 32.1915 110.223 32.5028 109.849 32.8771C109.661 33.0646 109.475 33.2515 109.226 33.3759C109.038 33.5009 108.913 33.6259 108.726 33.8121C108.353 34.1246 107.978 34.3734 107.542 34.6228C107.167 34.8728 106.731 35.1221 106.295 35.309L104.985 35.8703C104.549 36.0571 104.112 36.1821 103.676 36.3065C103.239 36.4315 102.741 36.5565 102.304 36.6184C101.805 36.6809 101.369 36.7434 100.933 36.8059C100.62 36.8059 100.246 36.8678 99.9344 36.8678C99.4356 36.8678 98.9994 36.8053 98.5631 36.8053C98.0638 36.7428 97.6275 36.6803 97.1912 36.6178C96.7183 36.56 96.2562 36.4341 95.8194 36.244C96.2556 36.1815 96.7544 36.1815 97.1912 36.0571C97.69 35.9946 98.1263 35.8696 98.5631 35.7453C98.9994 35.6203 99.4981 35.4959 99.8725 35.309L101.182 34.7478C101.618 34.5603 101.993 34.3115 102.429 34.0621C102.803 33.8121 103.239 33.5009 103.614 33.2515C103.988 32.939 104.362 32.6278 104.674 32.3159C105.048 32.004 105.359 31.6303 105.671 31.3184C105.983 30.944 106.295 30.5703 106.544 30.1959C106.607 30.1334 106.607 30.0709 106.669 30.0084C106.856 29.6971 107.105 29.3228 107.292 29.0115C107.524 28.6083 107.733 28.1917 107.916 27.764C108.103 27.3278 108.291 26.8909 108.415 26.4546L108.789 25.1453C108.851 24.6465 108.976 24.2103 108.976 23.7734C109.039 23.2746 109.039 22.8384 109.039 22.4015C109.039 22.0903 109.039 21.7159 108.976 21.404C108.914 20.9053 108.851 20.469 108.789 20.0321C108.726 19.5334 108.601 19.0971 108.477 18.6603C108.352 18.224 108.165 17.7878 108.041 17.3509C107.853 16.9146 107.666 16.4784 107.479 16.104C107.23 15.6678 107.043 15.2934 106.794 14.8571C106.544 14.4828 106.233 14.1084 105.983 13.7346C105.671 13.3603 105.359 13.0484 105.048 12.6746C104.861 12.4871 104.674 12.3003 104.486 12.1759C103.551 11.4278 102.616 10.804 101.618 10.1803C101.493 10.1178 101.369 10.0553 101.182 9.99277C100.371 9.30777 99.7481 9.12027 99.125 8.8709Z" fill="#DF234F"/>
</g>
<path d="M64.9648 108.5H63.4746V98.6357H64.8555L69.9209 105.643H70.0303V98.6357H71.5205V108.5H70.1396L65.0742 101.493H64.9648V108.5ZM76.8867 102.163C75.7998 102.163 75.041 102.929 74.959 104.091H78.7188C78.6846 102.922 77.9736 102.163 76.8867 102.163ZM78.7119 106.49H80.127C79.792 107.823 78.6025 108.644 76.9004 108.644C74.7676 108.644 73.4619 107.181 73.4619 104.802C73.4619 102.423 74.7949 100.912 76.8936 100.912C78.9648 100.912 80.2158 102.327 80.2158 104.665V105.178H74.959V105.26C75.0068 106.565 75.7656 107.393 76.9414 107.393C77.8301 107.393 78.4385 107.071 78.7119 106.49ZM81.8086 103.161C81.8086 101.842 83.0186 100.912 84.7002 100.912C86.375 100.912 87.4688 101.691 87.6123 103.004H86.2041C86.0674 102.457 85.5342 102.108 84.7002 102.108C83.8799 102.108 83.2578 102.498 83.2578 103.079C83.2578 103.523 83.6338 103.804 84.4404 103.988L85.6777 104.275C87.0928 104.604 87.7559 105.212 87.7559 106.306C87.7559 107.707 86.4502 108.644 84.6729 108.644C82.9023 108.644 81.7471 107.844 81.6172 106.524H83.0869C83.2715 107.099 83.8184 107.454 84.707 107.454C85.623 107.454 86.2725 107.044 86.2725 106.449C86.2725 106.005 85.9238 105.718 85.1787 105.54L83.8799 105.239C82.4648 104.904 81.8086 104.269 81.8086 103.161ZM89.9912 99.2031H91.4609V101.09H93.0742V102.327H91.4609V106.155C91.4609 106.935 91.7822 107.276 92.5137 107.276C92.7393 107.276 92.8691 107.263 93.0742 107.242V108.466C92.835 108.507 92.5615 108.541 92.2744 108.541C90.6406 108.541 89.9912 107.967 89.9912 106.531V102.327H88.8086V101.09H89.9912V99.2031ZM100.122 101.056V108.808C100.122 110.332 99.3359 111.043 97.7227 111.043C97.668 111.043 97.4287 111.043 97.3945 111.036V109.806C97.415 109.806 97.5791 109.806 97.5996 109.806C98.3857 109.806 98.6592 109.512 98.6592 108.794V101.056H100.122ZM99.3906 99.75C98.8438 99.75 98.4404 99.3604 98.4404 98.8545C98.4404 98.3418 98.8438 97.9521 99.3906 97.9521C99.9375 97.9521 100.341 98.3418 100.341 98.8545C100.341 99.3604 99.9375 99.75 99.3906 99.75ZM102.111 103.161C102.111 101.842 103.321 100.912 105.003 100.912C106.678 100.912 107.771 101.691 107.915 103.004H106.507C106.37 102.457 105.837 102.108 105.003 102.108C104.183 102.108 103.561 102.498 103.561 103.079C103.561 103.523 103.937 103.804 104.743 103.988L105.98 104.275C107.396 104.604 108.059 105.212 108.059 106.306C108.059 107.707 106.753 108.644 104.976 108.644C103.205 108.644 102.05 107.844 101.92 106.524H103.39C103.574 107.099 104.121 107.454 105.01 107.454C105.926 107.454 106.575 107.044 106.575 106.449C106.575 106.005 106.227 105.718 105.481 105.54L104.183 105.239C102.768 104.904 102.111 104.269 102.111 103.161Z" fill="#888888"/>
<defs>
<clipPath id="clip0_1073_19040">
<rect width="80" height="80" fill="white" transform="translate(45.5 7.5)"/>
</clipPath>
</defs>
</svg>
