<svg width="24" height="24" viewBox="0 0 24 24" fill="none" xmlns="http://www.w3.org/2000/svg">
<path d="M20.5016 9.76948C20.3321 9.59745 20.1302 9.46083 19.9075 9.36759C19.6848 9.27434 19.4458 9.22631 19.2043 9.22631C18.9629 9.22631 18.7238 9.27434 18.5011 9.36759C18.2784 9.46083 18.0765 9.59745 17.9071 9.76948C17.6504 10.0141 17.4755 10.332 17.4064 10.6798L14.4842 10.8528C14.3701 10.3762 14.1126 9.94599 13.7463 9.6204C13.38 9.2948 12.9226 9.08946 12.4359 9.0321L12.354 7.28424C12.6352 7.19802 12.8913 7.04497 13.1005 6.83817C13.3866 6.55071 13.5686 6.17592 13.6176 5.77325C13.6665 5.37059 13.5796 4.96311 13.3706 4.61548C13.1616 4.26784 12.8425 3.99995 12.4639 3.85431C12.0853 3.70867 11.6689 3.69363 11.2808 3.81156C10.8927 3.92949 10.5551 4.17365 10.3216 4.50529C10.088 4.83694 9.9719 5.23708 9.99165 5.64222C10.0114 6.04737 10.1659 6.43432 10.4306 6.74168C10.6952 7.04905 11.055 7.25922 11.4527 7.33886L11.5438 9.11403C11.1734 9.19974 10.8296 9.37476 10.5424 9.62382L7.90238 6.99292C8.06273 6.7514 8.1569 6.47203 8.17549 6.18272C8.20308 5.88282 8.15586 5.58076 8.03804 5.3036C7.92022 5.02644 7.73549 4.78283 7.50039 4.5946C7.2653 4.40638 6.98718 4.27941 6.69096 4.22507C6.39474 4.17073 6.08966 4.19072 5.80307 4.28325C5.51647 4.37578 5.2573 4.53796 5.04878 4.75526C4.84026 4.97256 4.6889 5.23819 4.60825 5.52835C4.52761 5.81852 4.52021 6.12416 4.5867 6.41789C4.6532 6.71162 4.79152 6.98427 4.98928 7.21141C5.14666 7.39408 5.33875 7.54367 5.55441 7.6515C5.77007 7.75932 6.00499 7.82324 6.24555 7.83955H6.38211C6.7027 7.83622 7.01674 7.74829 7.29245 7.58465L9.95066 10.3157C9.81385 10.5746 9.72152 10.8546 9.67755 11.1441L6.39121 11.4081C6.29779 11.1328 6.14558 10.8812 5.94514 10.6707C5.68892 10.4202 5.36445 10.2508 5.0124 10.1839C4.66036 10.1169 4.29638 10.1554 3.96607 10.2944C3.63577 10.4333 3.35383 10.6667 3.15557 10.9652C2.95732 11.2638 2.85156 11.6142 2.85156 11.9725C2.85156 12.3309 2.95732 12.6813 3.15557 12.9798C3.35383 13.2783 3.63577 13.5117 3.96607 13.6507C4.29638 13.7897 4.66036 13.8281 5.0124 13.7611C5.36445 13.6942 5.68892 13.5248 5.94514 13.2743C6.19697 13.0246 6.37361 12.7092 6.45493 12.364L9.73218 12.0909C9.83205 12.5283 10.0529 12.9289 10.3694 13.247C10.7506 13.6269 11.2467 13.8702 11.7805 13.9389L11.8715 17.471C11.587 17.5559 11.3276 17.709 11.1159 17.9171C10.831 18.2046 10.65 18.5789 10.6016 18.9808C10.5532 19.3826 10.6401 19.7892 10.8485 20.1362C11.057 20.4831 11.3751 20.7507 11.7527 20.8967C12.1302 21.0427 12.5456 21.0587 12.9333 20.9422C13.3209 20.8257 13.6587 20.5833 13.8932 20.2534C14.1277 19.9235 14.2456 19.5248 14.2283 19.1204C14.2109 18.716 14.0592 18.3289 13.7973 18.0203C13.5354 17.7117 13.178 17.4992 12.7818 17.4164L12.6908 13.8933C12.8668 13.8472 13.0376 13.7832 13.2006 13.7022L15.7222 16.3058C15.563 16.5512 15.469 16.8332 15.4491 17.1251C15.4293 17.3665 15.4578 17.6094 15.5331 17.8396C15.6083 18.0698 15.7287 18.2828 15.8872 18.4659C16.0457 18.649 16.2392 18.7986 16.4563 18.9061C16.6734 19.0135 16.9097 19.0765 17.1515 19.0914H17.2789C17.742 19.0924 18.188 18.9169 18.5263 18.6006C18.8645 18.2844 19.0695 17.8511 19.0996 17.3891C19.1298 16.9021 18.9699 16.4224 18.6536 16.0509C18.4962 15.8682 18.3041 15.7186 18.0884 15.6108C17.8728 15.5029 17.6378 15.439 17.3973 15.4227C17.0325 15.3946 16.6676 15.4771 16.3504 15.6594L13.9107 13.1378C14.2536 12.7696 14.4677 12.2999 14.5206 11.7995L17.4428 11.6266C17.5319 11.9065 17.6845 12.162 17.8889 12.3731C18.2329 12.7171 18.6995 12.9104 19.1861 12.9104C19.6727 12.9104 20.1393 12.7171 20.4833 12.3731C20.8274 12.029 21.0207 11.5624 21.0207 11.0758C21.0207 10.5893 20.8274 10.1226 20.4833 9.77858L20.5016 9.76948ZM6.30928 6.9292C6.18866 6.92047 6.071 6.8878 5.96315 6.8331C5.8553 6.77839 5.75943 6.70275 5.68114 6.61058C5.60108 6.5204 5.53974 6.41522 5.50067 6.30114C5.4616 6.18706 5.44559 6.06635 5.45355 5.94603C5.45919 5.82314 5.48968 5.70266 5.54318 5.59189C5.59668 5.48111 5.67207 5.38232 5.76481 5.30149C5.85755 5.22066 5.96572 5.15947 6.08276 5.12161C6.19981 5.08375 6.32332 5.07 6.44583 5.0812C6.56878 5.08795 6.68908 5.11958 6.79946 5.17416C6.90983 5.22875 7.00799 5.30516 7.08798 5.39877C7.16798 5.49238 7.22815 5.60125 7.26486 5.71878C7.30157 5.83632 7.31405 5.96008 7.30156 6.08258C7.29356 6.2039 7.26135 6.32238 7.20682 6.43104C7.15229 6.53971 7.07654 6.63635 6.98405 6.71526C6.89156 6.79417 6.7842 6.85376 6.66831 6.8905C6.55242 6.92725 6.43034 6.94041 6.30928 6.9292ZM5.2988 12.6553C5.21401 12.742 5.11276 12.8109 5.00099 12.8579C4.88921 12.9049 4.76917 12.9292 4.6479 12.9292C4.52663 12.9292 4.40659 12.9049 4.29481 12.8579C4.18304 12.8109 4.08178 12.742 3.997 12.6553C3.9089 12.5703 3.83882 12.4685 3.79095 12.3559C3.74308 12.2433 3.71841 12.1222 3.71841 11.9998C3.71841 11.8775 3.74308 11.7563 3.79095 11.6437C3.83882 11.5311 3.9089 11.4293 3.997 11.3444C4.08178 11.2577 4.18304 11.1888 4.29481 11.1417C4.40659 11.0947 4.52663 11.0705 4.6479 11.0705C4.76917 11.0705 4.88921 11.0947 5.00099 11.1417C5.11276 11.1888 5.21401 11.2577 5.2988 11.3444C5.3869 11.4293 5.45698 11.5311 5.50485 11.6437C5.55271 11.7563 5.57739 11.8775 5.57739 11.9998C5.57739 12.1222 5.55271 12.2433 5.50485 12.3559C5.45698 12.4685 5.3869 12.5703 5.2988 12.6553ZM11.1523 6.21913C11.0652 6.13375 10.9961 6.03173 10.9492 5.91913C10.9023 5.80654 10.8785 5.68566 10.8792 5.56368C10.8785 5.44171 10.9023 5.32083 10.9492 5.20823C10.9961 5.09564 11.0652 4.99362 11.1523 4.90824C11.279 4.77263 11.4441 4.67899 11.6255 4.63986C11.8069 4.60072 11.996 4.61796 12.1673 4.68927C12.3386 4.76057 12.4841 4.88254 12.5841 5.03882C12.6842 5.1951 12.7341 5.37824 12.7272 5.56368C12.7341 5.74913 12.6842 5.93226 12.5841 6.08855C12.4841 6.24483 12.3386 6.36679 12.1673 6.4381C11.996 6.5094 11.8069 6.52664 11.6255 6.48751C11.4441 6.44837 11.279 6.35473 11.1523 6.21913ZM13.0731 18.5361C13.1971 18.6647 13.2805 18.8269 13.3129 19.0026C13.3453 19.1782 13.3254 19.3596 13.2555 19.524C13.1856 19.6883 13.0689 19.8285 12.92 19.9271C12.771 20.0256 12.5963 20.0782 12.4177 20.0782C12.2391 20.0782 12.0644 20.0256 11.9154 19.9271C11.7664 19.8285 11.6498 19.6883 11.5799 19.524C11.51 19.3596 11.49 19.1782 11.5225 19.0026C11.5549 18.8269 11.6383 18.6647 11.7622 18.5361C11.8472 18.448 11.949 18.3779 12.0616 18.33C12.1742 18.2822 12.2953 18.2575 12.4177 18.2575C12.5401 18.2575 12.6612 18.2822 12.7738 18.33C12.8864 18.3779 12.9882 18.448 13.0731 18.5361ZM17.3518 16.3149C17.5274 16.3307 17.6947 16.3973 17.8333 16.5065C17.9718 16.6157 18.0757 16.7628 18.1322 16.9299C18.1887 17.097 18.1954 17.2769 18.1516 17.4478C18.1078 17.6186 18.0152 17.7731 17.8852 17.8923C17.7553 18.0116 17.5934 18.0905 17.4194 18.1195C17.2454 18.1485 17.0668 18.1263 16.9051 18.0556C16.7435 17.9849 16.6059 17.8688 16.509 17.7214C16.4122 17.574 16.3602 17.4016 16.3595 17.2252C16.359 17.0984 16.3849 16.973 16.4357 16.8568C16.4865 16.7407 16.561 16.6364 16.6544 16.5507C16.7478 16.465 16.8581 16.3998 16.9782 16.3591C17.0983 16.3185 17.2255 16.3034 17.3518 16.3149ZM19.8552 11.7631C19.7704 11.8498 19.6692 11.9187 19.5574 11.9658C19.4456 12.0128 19.3256 12.037 19.2043 12.037C19.083 12.037 18.963 12.0128 18.8512 11.9658C18.7394 11.9187 18.6382 11.8498 18.5534 11.7631C18.4663 11.6777 18.3972 11.5757 18.3503 11.4631C18.3034 11.3505 18.2796 11.2297 18.2803 11.1077C18.2803 10.8662 18.3762 10.6347 18.5469 10.464C18.7177 10.2932 18.9492 10.1973 19.1907 10.1973C19.4321 10.1973 19.6636 10.2932 19.8344 10.464C20.0051 10.6347 20.101 10.8662 20.101 11.1077C20.0979 11.3345 20.0103 11.552 19.8552 11.7176V11.7631Z" fill="white"/>
</svg>
