<svg width="30" height="31" viewBox="0 0 30 31" fill="none" xmlns="http://www.w3.org/2000/svg">
<path d="M25 20.3882C24.2241 20.3922 23.4686 20.6368 22.8375 21.0882L19.775 19.2757C19.9195 18.8272 19.9954 18.3594 20 17.8882C19.9964 16.7825 19.6264 15.7092 18.9479 14.8362C18.2694 13.9631 17.3206 13.3396 16.25 13.0632V10.1632C17.084 9.86835 17.7869 9.28813 18.2345 8.52512C18.6821 7.7621 18.8456 6.86542 18.696 5.99355C18.5464 5.12168 18.0934 4.33077 17.4171 3.76059C16.7407 3.19041 15.8846 2.87769 15 2.87769C14.1154 2.87769 13.2593 3.19041 12.5829 3.76059C11.9066 4.33077 11.4536 5.12168 11.304 5.99355C11.1544 6.86542 11.3179 7.7621 11.7655 8.52512C12.2131 9.28813 12.916 9.86835 13.75 10.1632V13.0632C12.6794 13.3396 11.7306 13.9631 11.0521 14.8362C10.3736 15.7092 10.0036 16.7825 10 17.8882C10.0046 18.3594 10.0805 18.8272 10.225 19.2757L7.1625 21.0882C6.53144 20.6368 5.77589 20.3922 5 20.3882C4.25832 20.3882 3.5333 20.6082 2.91661 21.0202C2.29993 21.4323 1.81928 22.0179 1.53545 22.7032C1.25162 23.3884 1.17736 24.1424 1.32206 24.8698C1.46675 25.5972 1.8239 26.2654 2.34835 26.7899C2.8728 27.3143 3.54098 27.6715 4.26841 27.8162C4.99584 27.9609 5.74984 27.8866 6.43506 27.6028C7.12029 27.3189 7.70596 26.8383 8.11801 26.2216C8.53007 25.6049 8.75 24.8799 8.75 24.1382C8.74538 23.7996 8.69492 23.4633 8.6 23.1382L11.475 21.4257C12.4118 22.357 13.6791 22.8797 15 22.8797C16.3209 22.8797 17.5882 22.357 18.525 21.4257L21.4 23.1382C21.1906 23.8952 21.2241 24.6989 21.4959 25.4358C21.7677 26.1727 22.264 26.8057 22.9148 27.2454C23.5656 27.6852 24.3381 27.9094 25.1232 27.8866C25.9083 27.8638 26.6664 27.595 27.2906 27.1182C27.9148 26.6414 28.3735 25.9807 28.602 25.2292C28.8305 24.4777 28.8173 23.6735 28.5642 22.9299C28.3111 22.1864 27.831 21.541 27.1915 21.085C26.552 20.629 25.7854 20.3852 25 20.3882ZM5 25.3882C4.75277 25.3882 4.5111 25.3149 4.30554 25.1776C4.09998 25.0402 3.93976 24.845 3.84515 24.6166C3.75054 24.3882 3.72579 24.1368 3.77402 23.8944C3.82225 23.6519 3.9413 23.4291 4.11612 23.2543C4.29093 23.0795 4.51366 22.9605 4.75614 22.9122C4.99861 22.864 5.24995 22.8888 5.47836 22.9834C5.70676 23.078 5.90199 23.2382 6.03934 23.4438C6.17669 23.6493 6.25 23.891 6.25 24.1382C6.25 24.4697 6.11831 24.7877 5.88388 25.0221C5.64946 25.2565 5.33152 25.3882 5 25.3882ZM15 5.38822C15.2472 5.38822 15.4889 5.46153 15.6945 5.59888C15.9 5.73623 16.0602 5.93146 16.1548 6.15987C16.2495 6.38827 16.2742 6.63961 16.226 6.88208C16.1777 7.12456 16.0587 7.34729 15.8839 7.5221C15.7091 7.69692 15.4863 7.81597 15.2439 7.8642C15.0014 7.91243 14.7501 7.88768 14.5216 7.79307C14.2932 7.69846 14.098 7.53824 13.9607 7.33268C13.8233 7.12712 13.75 6.88545 13.75 6.63822C13.75 6.3067 13.8817 5.98876 14.1161 5.75434C14.3505 5.51992 14.6685 5.38822 15 5.38822ZM15 20.3882C14.5055 20.3882 14.0222 20.2416 13.6111 19.9669C13.2 19.6922 12.8795 19.3017 12.6903 18.8449C12.5011 18.3881 12.4516 17.8854 12.548 17.4005C12.6445 16.9155 12.8826 16.4701 13.2322 16.1205C13.5819 15.7708 14.0273 15.5327 14.5123 15.4363C14.9972 15.3398 15.4999 15.3893 15.9567 15.5785C16.4135 15.7677 16.804 16.0882 17.0787 16.4993C17.3534 16.9104 17.5 17.3938 17.5 17.8882C17.5 18.5513 17.2366 19.1871 16.7678 19.656C16.2989 20.1248 15.663 20.3882 15 20.3882ZM25 25.3882C24.7528 25.3882 24.5111 25.3149 24.3055 25.1776C24.1 25.0402 23.9398 24.845 23.8451 24.6166C23.7505 24.3882 23.7258 24.1368 23.774 23.8944C23.8223 23.6519 23.9413 23.4291 24.1161 23.2543C24.2909 23.0795 24.5137 22.9605 24.7561 22.9122C24.9986 22.864 25.2499 22.8888 25.4784 22.9834C25.7068 23.078 25.902 23.2382 26.0393 23.4438C26.1767 23.6493 26.25 23.891 26.25 24.1382C26.25 24.4697 26.1183 24.7877 25.8839 25.0221C25.6495 25.2565 25.3315 25.3882 25 25.3882Z" fill="#222222"/>
</svg>
