<svg width="171" height="120" viewBox="0 0 171 120" fill="none" xmlns="http://www.w3.org/2000/svg">
<rect width="171" height="120" fill="white"/>
<g clip-path="url(#clip0_969_17810)">
<path d="M85.5 7.51416C74.8913 7.51416 64.7172 11.7284 57.2157 19.2299C49.7143 26.7313 45.5 36.9055 45.5 47.5142C45.5 58.1228 49.7143 68.297 57.2157 75.7984C64.7172 83.2999 74.8913 87.5142 85.5 87.5142C93.4043 87.4985 101.127 85.1414 107.693 80.7404L74.8838 38.3517V63.5004H69.5V31.5142H76.23L111.933 77.5042C116.193 73.7538 119.605 69.1401 121.944 63.9693C124.283 58.7986 125.496 53.1894 125.5 47.5142C125.5 36.9055 121.286 26.7313 113.784 19.2299C106.283 11.7284 96.1087 7.51416 85.5 7.51416ZM96.6106 31.5142H101.944V61.9992L96.6106 54.9954V31.5142Z" fill="black"/>
</g>
<path d="M64.7393 108.484H63.249V98.6196H64.6299L69.6953 105.626H69.8047V98.6196H71.2949V108.484H69.9141L64.8486 101.477H64.7393V108.484ZM76.6611 102.147C75.5742 102.147 74.8154 102.913 74.7334 104.075H78.4932C78.459 102.906 77.748 102.147 76.6611 102.147ZM78.4863 106.474H79.9014C79.5664 107.807 78.377 108.627 76.6748 108.627C74.542 108.627 73.2363 107.165 73.2363 104.786C73.2363 102.407 74.5693 100.896 76.668 100.896C78.7393 100.896 79.9902 102.311 79.9902 104.649V105.162H74.7334V105.244C74.7812 106.549 75.54 107.376 76.7158 107.376C77.6045 107.376 78.2129 107.055 78.4863 106.474ZM84.249 105.845H84.1396L82.5127 108.484H80.8994L83.3672 104.779L80.8789 101.04H82.5947L84.1943 103.665H84.3105L85.8965 101.04H87.5303L85.0762 104.717L87.5576 108.484H85.8691L84.249 105.845ZM89.6289 99.187H91.0986V101.074H92.7119V102.311H91.0986V106.139C91.0986 106.918 91.4199 107.26 92.1514 107.26C92.377 107.26 92.5068 107.247 92.7119 107.226V108.45C92.4727 108.491 92.1992 108.525 91.9121 108.525C90.2783 108.525 89.6289 107.951 89.6289 106.515V102.311H88.4463V101.074H89.6289V99.187ZM95.583 108.6C95.0088 108.6 94.5781 108.156 94.5781 107.582C94.5781 107.007 95.0088 106.563 95.583 106.563C96.1641 106.563 96.5879 107.007 96.5879 107.582C96.5879 108.156 96.1641 108.6 95.583 108.6ZM100.348 101.04V108.792C100.348 110.316 99.5615 111.027 97.9482 111.027C97.8936 111.027 97.6543 111.027 97.6201 111.02V109.79C97.6406 109.79 97.8047 109.79 97.8252 109.79C98.6113 109.79 98.8848 109.496 98.8848 108.778V101.04H100.348ZM99.6162 99.7339C99.0693 99.7339 98.666 99.3442 98.666 98.8384C98.666 98.3257 99.0693 97.936 99.6162 97.936C100.163 97.936 100.566 98.3257 100.566 98.8384C100.566 99.3442 100.163 99.7339 99.6162 99.7339ZM102.337 103.145C102.337 101.826 103.547 100.896 105.229 100.896C106.903 100.896 107.997 101.675 108.141 102.988H106.732C106.596 102.441 106.062 102.092 105.229 102.092C104.408 102.092 103.786 102.482 103.786 103.063C103.786 103.507 104.162 103.788 104.969 103.972L106.206 104.259C107.621 104.587 108.284 105.196 108.284 106.29C108.284 107.691 106.979 108.627 105.201 108.627C103.431 108.627 102.275 107.828 102.146 106.508H103.615C103.8 107.083 104.347 107.438 105.235 107.438C106.151 107.438 106.801 107.028 106.801 106.433C106.801 105.989 106.452 105.702 105.707 105.524L104.408 105.223C102.993 104.888 102.337 104.252 102.337 103.145Z" fill="#888888"/>
<defs>
<clipPath id="clip0_969_17810">
<rect width="80" height="80" fill="white" transform="translate(45.5 7.51611)"/>
</clipPath>
</defs>
</svg>
