<svg width="171" height="120" viewBox="0 0 150 151" fill="none" xmlns="http://www.w3.org/2000/svg">
<rect x="0.5" y="0.939453" width="149" height="149" rx="11.5" fill="white"/>
<rect x="0.5" y="0.939453" width="149" height="149" rx="11.5" stroke="#E8E8E8"/>
<path d="M105.794 41.898L78.2338 25.8948C76.4956 24.9048 74.2325 24.9048 72.4806 25.8948L44.6256 41.898C42.8319 42.9298 41.5625 44.8692 41.5625 46.9436V78.9074C41.5625 80.9817 42.865 82.9217 44.6588 83.9592L52.0181 88.1392C55.5356 89.8717 56.7788 89.8717 58.3794 89.8717C63.5875 89.8717 66.5625 86.7223 66.5625 81.2292V49.673C66.5625 49.2273 66.3306 48.5642 65.8931 48.5642H62.3787C61.9338 48.5642 60.9375 49.2273 60.9375 49.6723V81.2286C60.9375 83.6636 58.735 86.0867 54.6187 84.0286L47.0144 79.6455C46.7494 79.5017 46.5625 79.2124 46.5625 78.9074V46.9436C46.5625 46.6423 46.9094 46.3398 47.1763 46.1855L74.9412 30.2098C75.2006 30.063 75.5819 30.063 75.8406 30.2098L103.267 46.1817C103.529 46.3398 103.437 46.633 103.437 46.9436V78.9074C103.437 79.2124 103.551 79.5092 103.292 79.6561L75.7381 95.6411C75.5019 95.783 75.2087 95.783 74.95 95.6411L67.8831 91.423C67.67 91.2992 67.4169 91.2549 67.2125 91.3692C65.2463 92.4836 64.8837 92.6317 63.0394 93.2711C62.5856 93.4292 61.9162 93.7036 63.2956 94.4767L72.5444 99.948C73.43 100.46 74.4363 100.727 75.4488 100.727C76.475 100.727 77.48 100.46 78.3656 99.948L105.794 83.9592C107.588 82.9142 108.438 80.9817 108.438 78.9074V46.9436C108.438 44.8692 107.588 42.9348 105.794 41.898ZM84.0063 73.8423C76.6775 73.8423 75.0631 71.8205 74.525 68.1761C74.4625 67.7836 74.1294 67.3142 73.73 67.3142H70.1481C69.705 67.3142 69.3488 67.8517 69.3488 68.293C69.3488 72.9592 71.8856 78.613 84.0069 78.613C92.7812 78.613 97.8119 75.2036 97.8119 69.1698C97.8119 63.1873 93.77 61.6173 85.2606 60.4911C76.6594 59.3542 75.7856 58.7798 75.7856 56.7648C75.7856 55.1036 76.5256 52.888 82.8944 52.888C88.585 52.888 90.6825 54.1092 91.5456 57.9448C91.6194 58.3055 91.9487 58.5642 92.3206 58.5642H95.9169C96.1381 58.5642 96.3494 58.4748 96.5044 58.3167C96.6544 58.1467 96.7337 57.9336 96.7137 57.7048C96.1569 51.0998 91.7687 48.0217 82.8937 48.0217C74.9994 48.0217 70.29 51.3555 70.29 56.9436C70.29 63.0048 74.9756 64.6798 82.5537 65.4292C91.6194 66.318 92.3244 67.643 92.3244 69.4261C92.3244 72.523 89.8381 73.8423 84.0063 73.8423Z" fill="#83CD29"/>
<path d="M51.9766 123.939H50.4863V114.075H51.8672L56.9326 121.082H57.042V114.075H58.5322V123.939H57.1514L52.0859 116.933H51.9766V123.939ZM63.9873 124.083C61.8066 124.083 60.4736 122.627 60.4736 120.214C60.4736 117.814 61.8135 116.352 63.9873 116.352C66.1543 116.352 67.4941 117.814 67.4941 120.214C67.4941 122.627 66.1611 124.083 63.9873 124.083ZM63.9873 122.777C65.2588 122.777 65.9834 121.834 65.9834 120.214C65.9834 118.601 65.2588 117.657 63.9873 117.657C62.709 117.657 61.9912 118.601 61.9912 120.214C61.9912 121.841 62.709 122.777 63.9873 122.777ZM71.9854 124.062C70.0918 124.062 68.8955 122.572 68.8955 120.214C68.8955 117.862 70.1055 116.372 71.9854 116.372C73.0039 116.372 73.8652 116.857 74.2686 117.678H74.3779V113.59H75.8477V123.939H74.4395V122.764H74.3232C73.8789 123.577 73.0107 124.062 71.9854 124.062ZM72.4023 117.691C71.165 117.691 70.4131 118.648 70.4131 120.214C70.4131 121.793 71.1582 122.743 72.4023 122.743C73.6396 122.743 74.4053 121.779 74.4053 120.221C74.4053 118.669 73.6328 117.691 72.4023 117.691ZM81.1113 117.603C80.0244 117.603 79.2656 118.368 79.1836 119.53H82.9434C82.9092 118.361 82.1982 117.603 81.1113 117.603ZM82.9365 121.93H84.3516C84.0166 123.263 82.8271 124.083 81.125 124.083C78.9922 124.083 77.6865 122.62 77.6865 120.241C77.6865 117.862 79.0195 116.352 81.1182 116.352C83.1895 116.352 84.4404 117.767 84.4404 120.104V120.617H79.1836V120.699C79.2314 122.005 79.9902 122.832 81.166 122.832C82.0547 122.832 82.6631 122.511 82.9365 121.93ZM87.3457 124.056C86.7715 124.056 86.3408 123.611 86.3408 123.037C86.3408 122.463 86.7715 122.019 87.3457 122.019C87.9268 122.019 88.3506 122.463 88.3506 123.037C88.3506 123.611 87.9268 124.056 87.3457 124.056ZM92.1104 116.495V124.247C92.1104 125.771 91.3242 126.482 89.7109 126.482C89.6562 126.482 89.417 126.482 89.3828 126.476V125.245C89.4033 125.245 89.5674 125.245 89.5879 125.245C90.374 125.245 90.6475 124.951 90.6475 124.233V116.495H92.1104ZM91.3789 115.189C90.832 115.189 90.4287 114.8 90.4287 114.294C90.4287 113.781 90.832 113.392 91.3789 113.392C91.9258 113.392 92.3291 113.781 92.3291 114.294C92.3291 114.8 91.9258 115.189 91.3789 115.189ZM94.0996 118.601C94.0996 117.281 95.3096 116.352 96.9912 116.352C98.666 116.352 99.7598 117.131 99.9033 118.443H98.4951C98.3584 117.896 97.8252 117.548 96.9912 117.548C96.1709 117.548 95.5488 117.938 95.5488 118.519C95.5488 118.963 95.9248 119.243 96.7314 119.428L97.9688 119.715C99.3838 120.043 100.047 120.651 100.047 121.745C100.047 123.146 98.7412 124.083 96.9639 124.083C95.1934 124.083 94.0381 123.283 93.9082 121.964H95.3779C95.5625 122.538 96.1094 122.894 96.998 122.894C97.9141 122.894 98.5635 122.483 98.5635 121.889C98.5635 121.444 98.2148 121.157 97.4697 120.979L96.1709 120.679C94.7559 120.344 94.0996 119.708 94.0996 118.601Z" fill="#888888"/>
</svg>
