<svg width="171" height="120" viewBox="0 0 81 105" fill="none" xmlns="http://www.w3.org/2000/svg">
<path d="M71.2944 18.9585L43.7338 2.95539C41.9956 1.96539 39.7325 1.96539 37.9806 2.95539L10.1256 18.9585C8.33188 19.9904 7.0625 21.9298 7.0625 24.0041V55.9679C7.0625 58.0423 8.365 59.9823 10.1588 61.0198L17.5181 65.1998C21.0356 66.9323 22.2788 66.9323 23.8794 66.9323C29.0875 66.9323 32.0625 63.7829 32.0625 58.2898V26.7335C32.0625 26.2879 31.8306 25.6248 31.3931 25.6248H27.8787C27.4338 25.6248 26.4375 26.2879 26.4375 26.7329V58.2891C26.4375 60.7241 24.235 63.1473 20.1187 61.0891L12.5144 56.706C12.2494 56.5623 12.0625 56.2729 12.0625 55.9679V24.0041C12.0625 23.7029 12.4094 23.4004 12.6763 23.246L40.4412 7.27039C40.7006 7.12352 41.0819 7.12352 41.3406 7.27039L68.7669 23.2423C69.0294 23.4004 68.9369 23.6935 68.9369 24.0041V55.9679C68.9369 56.2729 69.0513 56.5698 68.7919 56.7166L41.2381 72.7016C41.0019 72.8435 40.7087 72.8435 40.45 72.7016L33.3831 68.4835C33.17 68.3598 32.9169 68.3154 32.7125 68.4298C30.7463 69.5441 30.3837 69.6923 28.5394 70.3316C28.0856 70.4898 27.4162 70.7641 28.7956 71.5373L38.0444 77.0085C38.93 77.521 39.9363 77.7873 40.9488 77.7873C41.975 77.7873 42.98 77.521 43.8656 77.0085L71.2937 61.0198C73.0875 59.9748 73.9375 58.0423 73.9375 55.9679V24.0041C73.9375 21.9298 73.0875 19.9954 71.2944 18.9585ZM49.5063 50.9029C42.1775 50.9029 40.5631 48.881 40.025 45.2366C39.9625 44.8441 39.6294 44.3748 39.23 44.3748H35.6481C35.205 44.3748 34.8488 44.9123 34.8488 45.3535C34.8488 50.0198 37.3856 55.6735 49.5069 55.6735C58.2812 55.6735 63.3119 52.2641 63.3119 46.2304C63.3119 40.2479 59.27 38.6779 50.7606 37.5516C42.1594 36.4148 41.2856 35.8404 41.2856 33.8254C41.2856 32.1641 42.0256 29.9485 48.3944 29.9485C54.085 29.9485 56.1825 31.1698 57.0456 35.0054C57.1194 35.366 57.4487 35.6248 57.8206 35.6248H61.4169C61.6381 35.6248 61.8494 35.5354 62.0044 35.3773C62.1544 35.2073 62.2337 34.9941 62.2137 34.7654C61.6569 28.1604 57.2687 25.0823 48.3937 25.0823C40.4994 25.0823 35.79 28.416 35.79 34.0041C35.79 40.0654 40.4756 41.7404 48.0537 42.4898C57.1194 43.3785 57.8244 44.7035 57.8244 46.4866C57.8244 49.5835 55.3381 50.9029 49.5063 50.9029Z" fill="#83CD29"/>
<path d="M17.4766 101H15.9863V91.1357H17.3672L22.4326 98.1426H22.542V91.1357H24.0322V101H22.6514L17.5859 93.9932H17.4766V101ZM29.4873 101.144C27.3066 101.144 25.9736 99.6875 25.9736 97.2744C25.9736 94.875 27.3135 93.4121 29.4873 93.4121C31.6543 93.4121 32.9941 94.875 32.9941 97.2744C32.9941 99.6875 31.6611 101.144 29.4873 101.144ZM29.4873 99.8379C30.7588 99.8379 31.4834 98.8945 31.4834 97.2744C31.4834 95.6611 30.7588 94.7178 29.4873 94.7178C28.209 94.7178 27.4912 95.6611 27.4912 97.2744C27.4912 98.9014 28.209 99.8379 29.4873 99.8379ZM37.4854 101.123C35.5918 101.123 34.3955 99.6328 34.3955 97.2744C34.3955 94.9229 35.6055 93.4326 37.4854 93.4326C38.5039 93.4326 39.3652 93.918 39.7686 94.7383H39.8779V90.6504H41.3477V101H39.9395V99.8242H39.8232C39.3789 100.638 38.5107 101.123 37.4854 101.123ZM37.9023 94.752C36.665 94.752 35.9131 95.709 35.9131 97.2744C35.9131 98.8535 36.6582 99.8037 37.9023 99.8037C39.1396 99.8037 39.9053 98.8398 39.9053 97.2812C39.9053 95.7295 39.1328 94.752 37.9023 94.752ZM46.6113 94.6631C45.5244 94.6631 44.7656 95.4287 44.6836 96.5908H48.4434C48.4092 95.4219 47.6982 94.6631 46.6113 94.6631ZM48.4365 98.9902H49.8516C49.5166 100.323 48.3271 101.144 46.625 101.144C44.4922 101.144 43.1865 99.6807 43.1865 97.3018C43.1865 94.9229 44.5195 93.4121 46.6182 93.4121C48.6895 93.4121 49.9404 94.8271 49.9404 97.165V97.6777H44.6836V97.7598C44.7314 99.0654 45.4902 99.8926 46.666 99.8926C47.5547 99.8926 48.1631 99.5713 48.4365 98.9902ZM52.8457 101.116C52.2715 101.116 51.8408 100.672 51.8408 100.098C51.8408 99.5234 52.2715 99.0791 52.8457 99.0791C53.4268 99.0791 53.8506 99.5234 53.8506 100.098C53.8506 100.672 53.4268 101.116 52.8457 101.116ZM57.6104 93.5557V101.308C57.6104 102.832 56.8242 103.543 55.2109 103.543C55.1562 103.543 54.917 103.543 54.8828 103.536V102.306C54.9033 102.306 55.0674 102.306 55.0879 102.306C55.874 102.306 56.1475 102.012 56.1475 101.294V93.5557H57.6104ZM56.8789 92.25C56.332 92.25 55.9287 91.8604 55.9287 91.3545C55.9287 90.8418 56.332 90.4521 56.8789 90.4521C57.4258 90.4521 57.8291 90.8418 57.8291 91.3545C57.8291 91.8604 57.4258 92.25 56.8789 92.25ZM59.5996 95.6611C59.5996 94.3418 60.8096 93.4121 62.4912 93.4121C64.166 93.4121 65.2598 94.1914 65.4033 95.5039H63.9951C63.8584 94.957 63.3252 94.6084 62.4912 94.6084C61.6709 94.6084 61.0488 94.998 61.0488 95.5791C61.0488 96.0234 61.4248 96.3037 62.2314 96.4883L63.4688 96.7754C64.8838 97.1035 65.5469 97.7119 65.5469 98.8057C65.5469 100.207 64.2412 101.144 62.4639 101.144C60.6934 101.144 59.5381 100.344 59.4082 99.0244H60.8779C61.0625 99.5986 61.6094 99.9541 62.498 99.9541C63.4141 99.9541 64.0635 99.5439 64.0635 98.9492C64.0635 98.5049 63.7148 98.2178 62.9697 98.04L61.6709 97.7393C60.2559 97.4043 59.5996 96.7686 59.5996 95.6611Z" fill="#888888"/>
</svg>
