<svg width="171" height="120" viewBox="0 0 171 120" fill="none" xmlns="http://www.w3.org/2000/svg">
<rect width="171" height="120" fill="white"/>
<g clip-path="url(#clip0_1073_19402)">
<path d="M90.3806 73.5984H120.12C121.065 73.5984 121.992 73.3575 122.811 72.8994C123.623 72.4463 124.303 71.7872 124.78 70.9884C125.251 70.1993 125.5 69.2974 125.5 68.3784C125.5 67.4622 125.25 66.5625 124.778 65.769L104.806 32.2144C104.328 31.4159 103.649 30.7571 102.837 30.304C102.015 29.8445 101.088 29.6036 100.147 29.6047C99.2019 29.6047 98.2744 29.8459 97.4562 30.304C96.6437 30.757 95.9647 31.4158 95.4875 32.2144L90.3806 40.7997L80.3962 24.0109C79.9182 23.2127 79.2388 22.5541 78.4262 22.1009C77.6038 21.6419 76.6775 21.4012 75.7356 21.4019C74.7912 21.4019 73.8631 21.6431 73.045 22.1009C72.2325 22.5541 71.5533 23.2128 71.0753 24.0109L46.2219 65.769C45.7503 66.5578 45.5008 67.4594 45.5 68.3784C45.5 69.2947 45.7478 70.195 46.22 70.9884C46.6973 71.7872 47.3765 72.4463 48.1894 72.8994C49.0116 73.3589 49.9381 73.5996 50.88 73.5984H69.5478C76.9444 73.5984 82.3988 70.4472 86.1522 64.299L95.2644 48.9919L100.145 40.7997L114.793 65.4065H95.2644L90.3806 73.5984ZM69.2431 65.3984L56.2156 65.3953L75.7444 32.5881L85.4884 48.9919L78.9644 59.9556C76.4719 63.9447 73.6403 65.3981 69.2434 65.3981" fill="#00DC82"/>
</g>
<path d="M72.2725 108.5H70.7822V98.6357H72.1631L77.2285 105.643H77.3379V98.6357H78.8281V108.5H77.4473L72.3818 101.493H72.2725V108.5ZM87.4141 101.056V108.5H85.999V107.317H85.8828C85.5205 108.165 84.7617 108.644 83.6338 108.644C81.9863 108.644 81.0703 107.639 81.0703 105.889V101.056H82.54V105.506C82.54 106.709 83.0254 107.283 84.1055 107.283C85.2949 107.283 85.9443 106.579 85.9443 105.41V101.056H87.4141ZM92.3291 105.861H92.2197L90.5928 108.5H88.9795L91.4473 104.795L88.959 101.056H90.6748L92.2744 103.681H92.3906L93.9766 101.056H95.6104L93.1562 104.733L95.6377 108.5H93.9492L92.3291 105.861ZM97.709 99.2031H99.1787V101.09H100.792V102.327H99.1787V106.155C99.1787 106.935 99.5 107.276 100.231 107.276C100.457 107.276 100.587 107.263 100.792 107.242V108.466C100.553 108.507 100.279 108.541 99.9922 108.541C98.3584 108.541 97.709 107.967 97.709 106.531V102.327H96.5264V101.09H97.709V99.2031Z" fill="#888888"/>
<defs>
<clipPath id="clip0_1073_19402">
<rect width="80" height="80" fill="white" transform="translate(45.5 7.5)"/>
</clipPath>
</defs>
</svg>
