<svg width="171" height="120" viewBox="0 0 171 120" fill="none" xmlns="http://www.w3.org/2000/svg">
<rect width="171" height="120" fill="white"/>
<path d="M80.1172 49.0576H85.3253L82.5709 44.6263L77.5159 52.6382H75.2153L81.3641 43.0145C81.499 42.8198 81.6795 42.6612 81.8899 42.5525C82.1003 42.4438 82.3341 42.3882 82.5709 42.3907C83.0491 42.3907 83.4947 42.6176 83.7534 42.9982L89.9259 52.6382H87.6253L86.5403 50.8476H81.2666L80.1172 49.0576ZM104.014 50.8476V42.4882H102.062V51.6663C102.062 51.9176 102.16 52.1607 102.346 52.347C102.532 52.5332 102.783 52.6382 103.059 52.6382H111.962L113.112 50.8476H104.014ZM71.7159 49.3495C73.6116 49.3495 75.1509 47.8188 75.1509 45.9232C75.1509 44.0276 73.6122 42.4882 71.7159 42.4882H63.1753V52.6388H65.1272V44.2782H71.5866C72.4941 44.2782 73.2228 45.0157 73.2228 45.9226C73.2228 46.8295 72.4934 47.567 71.5866 47.567L66.0828 47.5588L71.9103 52.6382H74.7466L70.8253 49.3488L71.7159 49.3495ZM51.1622 52.6382C48.3603 52.6382 46.0859 50.3701 46.0859 47.567C46.0859 44.7638 48.3597 42.4876 51.1622 42.4876H57.0616C59.8647 42.4876 62.1372 44.7645 62.1372 47.567C62.1372 50.3695 59.8647 52.6382 57.0616 52.6382H51.1622ZM56.9303 50.8476C57.3616 50.8482 57.7887 50.7639 58.1874 50.5993C58.586 50.4347 58.9483 50.1932 59.2535 49.8885C59.5587 49.5838 59.8009 49.222 59.9661 48.8236C60.1314 48.4252 60.2165 47.9982 60.2166 47.567C60.2168 47.1352 60.132 46.7076 59.967 46.3086C59.8019 45.9096 59.5599 45.547 59.2548 45.2416C58.9496 44.9361 58.5873 44.6938 58.1884 44.5284C57.7896 44.363 57.3621 44.2777 56.9303 44.2776H51.2922C50.4204 44.2782 49.5846 44.6252 48.9685 45.242C48.3525 45.8589 48.0067 46.6952 48.0072 47.567C48.0073 47.9981 48.0923 48.425 48.2575 48.8233C48.4227 49.2216 48.6647 49.5834 48.9698 49.8881C49.2749 50.1928 49.637 50.4343 50.0355 50.5989C50.434 50.7636 50.861 50.8481 51.2922 50.8476H56.9303ZM94.0016 52.6382C91.1991 52.6382 88.9228 50.3701 88.9228 47.567C88.9228 44.7638 91.1991 42.4876 94.0016 42.4876H101.009L99.8659 44.2776H94.1316C93.2593 44.2781 92.4228 44.6248 91.8059 45.2415C91.1891 45.8583 90.8422 46.6947 90.8416 47.567C90.8416 49.3813 92.3166 50.8476 94.1316 50.8476H101.171L100.021 52.6382H94.0016ZM117.875 50.8476C117.16 50.8479 116.464 50.6146 115.894 50.1832C115.323 49.7517 114.91 49.1458 114.715 48.4576H123.059L124.209 46.6676H114.715C114.911 45.9802 115.325 45.3752 115.895 44.944C116.465 44.5128 117.16 44.2789 117.875 44.2776H123.602L124.76 42.4876H117.745C114.942 42.4876 112.666 44.7645 112.666 47.567C112.666 50.3695 114.942 52.6382 117.745 52.6382H123.764L124.915 50.8476H117.875Z" fill="#EA1B22"/>
<path d="M58.1289 98.3804C60.9727 98.3804 62.7227 100.37 62.7227 103.548C62.7227 106.72 60.9863 108.723 58.1289 108.723C55.2646 108.723 53.5215 106.727 53.5215 103.548C53.5215 100.363 55.2988 98.3804 58.1289 98.3804ZM58.1289 99.8091C56.2695 99.8091 55.0869 101.258 55.0869 103.548C55.0869 105.825 56.2354 107.294 58.1289 107.294C60.002 107.294 61.1572 105.825 61.1572 103.548C61.1572 101.258 60.002 99.8091 58.1289 99.8091ZM64.623 108.484V101.04H66.0381V102.181H66.1475C66.3594 101.45 67.1865 100.917 68.1572 100.917C68.376 100.917 68.6562 100.937 68.8135 100.978V102.427C68.6904 102.386 68.2529 102.338 67.9932 102.338C66.8789 102.338 66.0928 103.042 66.0928 104.088V108.484H64.623ZM72.6074 107.37C73.7148 107.37 74.5352 106.666 74.5352 105.743V105.121L72.7168 105.237C71.6914 105.305 71.2266 105.654 71.2266 106.31C71.2266 106.98 71.8076 107.37 72.6074 107.37ZM72.2314 108.607C70.7959 108.607 69.75 107.739 69.75 106.378C69.75 105.039 70.748 104.266 72.5186 104.157L74.5352 104.041V103.398C74.5352 102.612 74.0156 102.167 73.0107 102.167C72.1904 102.167 71.623 102.468 71.459 102.995H70.0371C70.1875 101.716 71.3906 100.896 73.0791 100.896C74.9453 100.896 75.998 101.826 75.998 103.398V108.484H74.583V107.438H74.4668C74.0225 108.183 73.209 108.607 72.2314 108.607ZM84.3926 103.473H82.9639C82.793 102.749 82.1914 102.208 81.207 102.208C79.9766 102.208 79.2246 103.152 79.2246 104.738C79.2246 106.351 79.9834 107.315 81.207 107.315C82.1367 107.315 82.7725 106.891 82.9639 106.091H84.3926C84.2012 107.588 83.0527 108.627 81.2139 108.627C79.0469 108.627 77.7207 107.165 77.7207 104.738C77.7207 102.352 79.04 100.896 81.207 100.896C83.0732 100.896 84.2012 101.983 84.3926 103.473ZM86.1426 108.484V98.1343H87.6123V108.484H86.1426ZM92.876 102.147C91.7891 102.147 91.0303 102.913 90.9482 104.075H94.708C94.6738 102.906 93.9629 102.147 92.876 102.147ZM94.7012 106.474H96.1162C95.7812 107.807 94.5918 108.627 92.8896 108.627C90.7568 108.627 89.4512 107.165 89.4512 104.786C89.4512 102.407 90.7842 100.896 92.8828 100.896C94.9541 100.896 96.2051 102.311 96.2051 104.649V105.162H90.9482V105.244C90.9961 106.549 91.7549 107.376 92.9307 107.376C93.8193 107.376 94.4277 107.055 94.7012 106.474ZM104.518 108.607C102.624 108.607 101.428 107.117 101.428 104.758C101.428 102.407 102.638 100.917 104.518 100.917C105.536 100.917 106.397 101.402 106.801 102.222H106.91V98.1343H108.38V108.484H106.972V107.308H106.855C106.411 108.122 105.543 108.607 104.518 108.607ZM104.935 102.236C103.697 102.236 102.945 103.193 102.945 104.758C102.945 106.337 103.69 107.288 104.935 107.288C106.172 107.288 106.938 106.324 106.938 104.765C106.938 103.213 106.165 102.236 104.935 102.236ZM114.532 108.607C113.493 108.607 112.625 108.128 112.181 107.308H112.071V108.484H110.656V98.1343H112.126V102.222H112.242C112.639 101.409 113.514 100.917 114.532 100.917C116.419 100.917 117.608 102.393 117.608 104.758C117.608 107.117 116.412 108.607 114.532 108.607ZM114.108 102.236C112.878 102.236 112.105 103.207 112.099 104.765C112.105 106.324 112.871 107.288 114.108 107.288C115.353 107.288 116.098 106.337 116.098 104.758C116.098 103.193 115.353 102.236 114.108 102.236Z" fill="#888888"/>
</svg>
