<svg width="30" height="31" viewBox="0 0 30 31" fill="none" xmlns="http://www.w3.org/2000/svg">
<path d="M20 18.4021C18.9583 18.4021 18.0729 18.0375 17.3437 17.3083C16.6146 16.5792 16.25 15.6938 16.25 14.6521C16.25 13.6104 16.6146 12.725 17.3437 11.9958C18.0729 11.2667 18.9583 10.9021 20 10.9021C21.0417 10.9021 21.9271 11.2667 22.6562 11.9958C23.3854 12.725 23.75 13.6104 23.75 14.6521C23.75 15.6938 23.3854 16.5792 22.6562 17.3083C21.9271 18.0375 21.0417 18.4021 20 18.4021ZM12.5 25.9021V23.5271C12.5 23.0896 12.6042 22.6729 12.8125 22.2771C13.0208 21.8813 13.3125 21.5688 13.6875 21.3396C14.625 20.7771 15.62 20.3554 16.6725 20.0746C17.725 19.7938 18.8342 19.6529 20 19.6521C21.1658 19.6513 22.2754 19.7921 23.3287 20.0746C24.3821 20.3571 25.3767 20.7788 26.3125 21.3396C26.6875 21.5688 26.9792 21.8813 27.1875 22.2771C27.3958 22.6729 27.5 23.0896 27.5 23.5271V25.9021H12.5ZM15.1875 23.4021H24.8125C24.0833 22.9854 23.3125 22.6729 22.5 22.4646C21.6875 22.2563 20.8542 22.1521 20 22.1521C19.1458 22.1521 18.3125 22.2563 17.5 22.4646C16.6875 22.6729 15.9167 22.9854 15.1875 23.4021ZM20 15.9021C20.3542 15.9021 20.6512 15.7821 20.8912 15.5421C21.1312 15.3021 21.2508 15.0054 21.25 14.6521C21.2492 14.2988 21.1292 14.0021 20.89 13.7621C20.6508 13.5221 20.3542 13.4021 20 13.4021C19.6458 13.4021 19.3492 13.5221 19.11 13.7621C18.8708 14.0021 18.7508 14.2988 18.75 14.6521C18.7492 15.0054 18.8692 15.3025 19.11 15.5433C19.3508 15.7842 19.6475 15.9038 20 15.9021ZM3.75 18.4021V15.9021H13.75V18.4021H3.75ZM3.75 8.4021V5.9021H18.75V8.4021H3.75ZM13.875 13.4021H3.75V10.9021H15C14.7083 11.2563 14.4742 11.6417 14.2975 12.0583C14.1208 12.475 13.98 12.9229 13.875 13.4021Z" fill="#222222"/>
</svg>
