<svg width="171" height="120" viewBox="0 0 171 120" fill="none" xmlns="http://www.w3.org/2000/svg">
<rect width="171" height="120" fill="white"/>
<g clip-path="url(#clip0_1073_19190)">
<path d="M45.5 47.4994C45.5 59.12 63.4087 68.5413 85.5 68.5413C107.591 68.5413 125.5 59.12 125.5 47.4994C125.5 35.8788 107.591 26.4575 85.5 26.4575C63.4094 26.4575 45.5 35.8788 45.5 47.4994Z" fill="url(#paint0_radial_1073_19190)"/>
<path d="M85.5 66.9788C106.728 66.9788 123.938 58.2569 123.938 47.4994C123.938 36.7406 106.728 28.02 85.5 28.02C64.2719 28.02 47.0625 36.7406 47.0625 47.4994C47.0625 58.2569 64.2719 66.9788 85.5 66.9788Z" fill="#777BB3"/>
<path d="M67.2255 49.9162C68.9711 49.9162 70.2736 49.5943 71.098 48.9599C71.9143 48.3312 72.4774 47.243 72.773 45.7255C73.048 44.3068 72.943 43.3168 72.4605 42.7818C71.968 42.2355 70.9024 41.9587 69.2936 41.9587H66.5036L64.958 49.9162H67.2255ZM58.1011 59.718C58.0371 59.718 57.9739 59.7037 57.9161 59.6763C57.8582 59.6489 57.8071 59.6091 57.7665 59.5596C57.7259 59.5101 57.6967 59.4523 57.6811 59.3902C57.6655 59.3281 57.6638 59.2634 57.6761 59.2005L61.7743 38.1143C61.7936 38.0157 61.8466 37.9269 61.9241 37.863C62.0015 37.7991 62.0988 37.764 62.1993 37.7637H71.033C73.8093 37.7637 75.8755 38.5174 77.1749 40.0043C78.4799 41.498 78.8836 43.588 78.373 46.2137C78.1649 47.283 77.8074 48.2762 77.3105 49.1662C76.7934 50.0817 76.1335 50.9088 75.3555 51.6162C74.3986 52.5112 73.3155 53.1612 72.1386 53.543C70.9811 53.9205 69.4936 54.1118 67.7199 54.1118H64.1424L63.1211 59.3668C63.1018 59.4657 63.0488 59.5548 62.971 59.6189C62.8933 59.683 62.7956 59.718 62.6949 59.718H58.1011Z" fill="black"/>
<path d="M66.8665 42.3922H69.2984C71.2402 42.3922 71.9146 42.8185 72.144 43.0729C72.5233 43.4941 72.5958 44.3835 72.3508 45.6429C72.0765 47.0535 71.5677 48.0541 70.8383 48.6154C70.0921 49.1904 68.8771 49.4816 67.2302 49.4816H65.489L66.8665 42.3922ZM71.0377 37.3297H62.2046C62.0032 37.3297 61.808 37.3998 61.6525 37.5278C61.497 37.6558 61.3908 37.8339 61.3521 38.0316L57.254 59.1185C57.2298 59.2441 57.2336 59.3735 57.2652 59.4974C57.2968 59.6214 57.3554 59.7368 57.4368 59.8355C57.5181 59.9342 57.6203 60.0137 57.736 60.0684C57.8516 60.123 57.9779 60.1514 58.1058 60.1516H62.6996C62.901 60.1514 63.0961 60.0812 63.2515 59.9531C63.4069 59.825 63.5129 59.6468 63.5515 59.4491L64.5046 54.5454H67.724C69.544 54.5454 71.0765 54.3466 72.2783 53.9554C73.514 53.5541 74.6508 52.8735 75.6571 51.9322C76.4675 51.1944 77.1551 50.3321 77.694 49.3779C78.2133 48.4485 78.5871 47.411 78.8033 46.296C79.3408 43.5316 78.904 41.3185 77.5058 39.7185C76.1208 38.1329 73.9446 37.3291 71.0377 37.3291V37.3297ZM64.4358 50.3491H67.2302C69.0823 50.3495 70.4615 50.0006 71.3677 49.3022C72.274 48.6047 72.8861 47.4399 73.204 45.8079C73.5073 44.2404 73.3688 43.1345 72.7883 42.4904C72.2071 41.8462 71.0438 41.5241 69.2984 41.5241H66.1508L64.4358 50.3491ZM71.0384 38.196C73.6959 38.196 75.634 38.8935 76.8527 40.2885C78.0715 41.6835 78.4381 43.6306 77.9527 46.1297C77.7519 47.1597 77.4134 48.101 76.9371 48.9535C76.46 49.8068 75.8369 50.5874 75.0677 51.2954C74.1511 52.1537 73.1319 52.7651 72.0102 53.1297C70.889 53.4947 69.4604 53.677 67.7246 53.6766H63.7896L62.7002 59.2829H58.1065L62.2052 38.196H71.0384Z" fill="white"/>
<path d="M88.9211 54.1101C88.857 54.1102 88.7937 54.0961 88.7358 54.0688C88.6778 54.0415 88.6266 54.0018 88.5859 53.9524C88.5451 53.9029 88.5158 53.8451 88.5001 53.783C88.4843 53.7209 88.4825 53.6561 88.4948 53.5933L90.3073 44.2633C90.4804 43.3758 90.4379 42.7395 90.1886 42.4695C90.0354 42.3051 89.5767 42.0295 88.2198 42.0295H84.9348L82.6561 53.7595C82.6365 53.8583 82.5832 53.9472 82.5054 54.011C82.4275 54.0749 82.3299 54.1097 82.2292 54.1095H77.6729C77.6089 54.1096 77.5457 54.0955 77.4878 54.0682C77.4299 54.041 77.3787 54.0013 77.3379 53.9519C77.2971 53.9026 77.2677 53.8449 77.2519 53.7829C77.236 53.7209 77.234 53.6561 77.2461 53.5933L81.3448 32.5064C81.3642 32.4076 81.4173 32.3186 81.4951 32.2547C81.5728 32.1907 81.6704 32.1558 81.7711 32.1558H86.3273C86.3913 32.1557 86.4545 32.1698 86.5125 32.1971C86.5704 32.2243 86.6216 32.264 86.6624 32.3133C86.7031 32.3627 86.7325 32.4204 86.7484 32.4824C86.7643 32.5444 86.7663 32.6092 86.7542 32.672L85.7654 37.762H89.2986C91.9904 37.762 93.8154 38.2358 94.8786 39.2126C95.9617 40.2083 96.3004 41.8001 95.8836 43.9458L93.9767 53.7595C93.9572 53.8582 93.904 53.947 93.8262 54.0108C93.7485 54.0747 93.651 54.1095 93.5504 54.1095L88.9211 54.1101Z" fill="black"/>
<path d="M86.3124 31.7212H81.7555C81.554 31.7212 81.3587 31.7913 81.2032 31.9195C81.0477 32.0477 80.9416 32.2259 80.903 32.4237L76.8049 53.5099C76.7806 53.6356 76.7843 53.7651 76.8159 53.8891C76.8474 54.0131 76.906 54.1287 76.9874 54.2274C77.0688 54.3262 77.171 54.4058 77.2867 54.4604C77.4024 54.5151 77.5288 54.5435 77.6568 54.5437H82.2136C82.4151 54.5436 82.6104 54.4735 82.7659 54.3454C82.9214 54.2172 83.0276 54.039 83.0661 53.8412L85.2768 42.4631H88.203C89.558 42.4631 89.843 42.7524 89.8536 42.7656C89.9361 42.8531 90.0443 43.2624 89.8655 44.1806L88.053 53.5099C88.0287 53.6356 88.0325 53.7652 88.064 53.8892C88.0956 54.0133 88.1542 54.1289 88.2357 54.2277C88.3172 54.3264 88.4194 54.406 88.5352 54.4606C88.651 54.5153 88.7775 54.5436 88.9055 54.5437H93.5355C93.7369 54.5435 93.932 54.4733 94.0874 54.3452C94.2428 54.217 94.3488 54.0389 94.3874 53.8412L96.2942 44.0287C96.7411 41.7249 96.3586 39.9974 95.1567 38.8931C94.0092 37.8393 92.088 37.3274 89.283 37.3274H86.2767L87.1649 32.7556C87.1893 32.6298 87.1856 32.5002 87.1541 32.3761C87.1225 32.2519 87.0639 32.1363 86.9825 32.0374C86.901 31.9386 86.7987 31.8589 86.6828 31.8043C86.567 31.7496 86.4405 31.7212 86.3124 31.7212ZM86.3124 32.5899L85.223 38.1949H89.283C91.8376 38.1949 93.5995 38.6408 94.5686 39.5324C95.5386 40.4233 95.8299 41.867 95.4424 43.8637L93.5349 53.6756H88.9055L90.7186 44.3456C90.9249 43.2843 90.8488 42.5606 90.4905 42.1743C90.1322 41.7885 89.3701 41.5956 88.2042 41.5956H84.5611L82.2136 53.6749H77.6561L81.7549 32.5881H86.3124V32.5899Z" fill="white"/>
<path d="M103.084 49.9162C104.83 49.9162 106.133 49.5943 106.958 48.9599C107.773 48.3312 108.337 47.243 108.632 45.7255C108.907 44.3068 108.803 43.3168 108.32 42.7818C107.827 42.2355 106.762 41.9587 105.153 41.9587H102.364L100.817 49.9162H103.084ZM93.9618 59.718C93.8976 59.7181 93.8343 59.704 93.7763 59.6767C93.7183 59.6494 93.6671 59.6096 93.6263 59.5601C93.5855 59.5106 93.5562 59.4527 93.5405 59.3905C93.5248 59.3283 93.5231 59.2635 93.5355 59.2005L97.6336 38.1143C97.653 38.0155 97.7062 37.9265 97.7839 37.8626C97.8617 37.7986 97.9592 37.7637 98.0599 37.7637H106.893C109.669 37.7637 111.736 38.5174 113.034 40.0043C114.34 41.498 114.743 43.588 114.232 46.2137C114.037 47.2479 113.679 48.2444 113.171 49.1662C112.653 50.0817 111.993 50.9088 111.216 51.6162C110.259 52.5112 109.175 53.1612 107.999 53.543C106.841 53.9205 105.354 54.1118 103.579 54.1118H100.002L98.9818 59.3668C98.9625 59.4658 98.9093 59.555 98.8314 59.6191C98.7535 59.6832 98.6557 59.7182 98.5549 59.718H93.9618Z" fill="black"/>
<path d="M102.726 42.3922H105.158C107.1 42.3922 107.774 42.8185 108.003 43.0729C108.384 43.4941 108.455 44.3835 108.211 45.6429C107.936 47.0535 107.427 48.0541 106.698 48.6154C105.951 49.1904 104.736 49.4816 103.09 49.4816H101.348L102.726 42.3922ZM106.897 37.3297H98.064C97.8626 37.3299 97.6676 37.4 97.5122 37.528C97.3569 37.656 97.2508 37.834 97.2121 38.0316L93.1133 59.1185C93.0891 59.2441 93.093 59.3736 93.1246 59.4976C93.1562 59.6216 93.2149 59.7371 93.2963 59.8358C93.3778 59.9345 93.48 60.014 93.5958 60.0686C93.7115 60.1232 93.8379 60.1515 93.9658 60.1516H98.5596C98.761 60.1514 98.9561 60.0812 99.1115 59.9531C99.2669 59.825 99.3729 59.6468 99.4115 59.4491L100.365 54.5454H103.583C105.403 54.5454 106.936 54.3466 108.137 53.9554C109.373 53.5541 110.51 52.8735 111.517 51.9316C112.327 51.1939 113.015 50.3319 113.553 49.3779C114.073 48.4485 114.446 47.411 114.663 46.296C115.2 43.5316 114.764 41.3185 113.365 39.7185C111.98 38.1329 109.805 37.3291 106.896 37.3291L106.897 37.3297ZM100.295 50.3491H103.089C104.941 50.3495 106.321 50.0006 107.228 49.3022C108.134 48.6047 108.746 47.4399 109.063 45.8079C109.367 44.2404 109.229 43.1345 108.647 42.4904C108.065 41.8462 106.902 41.5241 105.158 41.5241H102.011L100.295 50.3491ZM106.897 38.196C109.555 38.196 111.493 38.8935 112.711 40.2885C113.93 41.6835 114.297 43.6306 113.811 46.1297C113.611 47.1597 113.273 48.101 112.796 48.9535C112.319 49.8068 111.696 50.5874 110.926 51.2954C110.009 52.1537 108.99 52.7651 107.868 53.1297C106.748 53.4947 105.319 53.677 103.583 53.6766H99.649L98.5583 59.2829H93.9646L98.0633 38.196H106.897Z" fill="white"/>
</g>
<path d="M73.5576 98.6357H77.4199C79.3477 98.6357 80.6738 99.9688 80.6738 101.924C80.6738 103.852 79.3066 105.178 77.3721 105.178H75.0889V108.5H73.5576V98.6357ZM75.0889 99.9893V103.831H77.0166C78.3359 103.831 79.1084 103.147 79.1084 101.924C79.1084 100.673 78.3633 99.9893 77.0166 99.9893H75.0889ZM82.5469 108.5V98.1504H84.0029V102.252H84.1191C84.4814 101.418 85.2676 100.919 86.3887 100.919C87.9746 100.919 88.9521 101.924 88.9521 103.694V108.5H87.4824V104.057C87.4824 102.867 86.9287 102.266 85.8896 102.266C84.6865 102.266 84.0166 103.024 84.0166 104.152V108.5H82.5469ZM94.8857 100.933C96.7793 100.933 97.9756 102.409 97.9756 104.774C97.9756 107.14 96.7793 108.623 94.8994 108.623C93.8398 108.623 92.999 108.158 92.6094 107.372H92.4932V110.975H91.0234V101.056H92.4385V102.286H92.5479C92.999 101.438 93.874 100.933 94.8857 100.933ZM94.4688 107.304C95.7197 107.304 96.4648 106.354 96.4648 104.774C96.4648 103.202 95.7197 102.252 94.4756 102.252C93.2383 102.252 92.4658 103.223 92.4658 104.781C92.4658 106.333 93.2383 107.304 94.4688 107.304Z" fill="#888888"/>
<defs>
<radialGradient id="paint0_radial_1073_19190" cx="0" cy="0" r="1" gradientUnits="userSpaceOnUse" gradientTransform="translate(69.5162 33.855) scale(52.5258 52.5258)">
<stop stop-color="#AEB2D5"/>
<stop offset="0.3" stop-color="#AEB2D5"/>
<stop offset="0.75" stop-color="#484C89"/>
<stop offset="1" stop-color="#484C89"/>
</radialGradient>
<clipPath id="clip0_1073_19190">
<rect width="80" height="80" fill="white" transform="translate(45.5 7.5)"/>
</clipPath>
</defs>
</svg>
