<svg width="30" height="31" viewBox="0 0 30 31" fill="none" xmlns="http://www.w3.org/2000/svg">
<path d="M23.75 5.01172C24.413 5.01172 25.0489 5.27511 25.5178 5.74395C25.9866 6.21279 26.25 6.84868 26.25 7.51172V22.5117C26.25 23.1748 25.9866 23.8106 25.5178 24.2795C25.0489 24.7483 24.413 25.0117 23.75 25.0117H6.25C5.58696 25.0117 4.95107 24.7483 4.48223 24.2795C4.01339 23.8106 3.75 23.1748 3.75 22.5117V7.51172C3.75 6.84868 4.01339 6.21279 4.48223 5.74395C4.95107 5.27511 5.58696 5.01172 6.25 5.01172H23.75ZM23.75 15.0117H6.25V22.5117H23.75V15.0117ZM23.75 7.51172H6.25V12.5117H23.75V7.51172ZM8.75 8.76172C9.08152 8.76172 9.39946 8.89341 9.63388 9.12783C9.8683 9.36226 10 9.6802 10 10.0117C10 10.3432 9.8683 10.6612 9.63388 10.8956C9.39946 11.13 9.08152 11.2617 8.75 11.2617C8.41848 11.2617 8.10054 11.13 7.86612 10.8956C7.6317 10.6612 7.5 10.3432 7.5 10.0117C7.5 9.6802 7.6317 9.36226 7.86612 9.12783C8.10054 8.89341 8.41848 8.76172 8.75 8.76172ZM12.5 8.76172C12.8315 8.76172 13.1495 8.89341 13.3839 9.12783C13.6183 9.36226 13.75 9.6802 13.75 10.0117C13.75 10.3432 13.6183 10.6612 13.3839 10.8956C13.1495 11.13 12.8315 11.2617 12.5 11.2617C12.1685 11.2617 11.8505 11.13 11.6161 10.8956C11.3817 10.6612 11.25 10.3432 11.25 10.0117C11.25 9.6802 11.3817 9.36226 11.6161 9.12783C11.8505 8.89341 12.1685 8.76172 12.5 8.76172ZM16.25 8.76172C16.5815 8.76172 16.8995 8.89341 17.1339 9.12783C17.3683 9.36226 17.5 9.6802 17.5 10.0117C17.5 10.3432 17.3683 10.6612 17.1339 10.8956C16.8995 11.13 16.5815 11.2617 16.25 11.2617C15.9185 11.2617 15.6005 11.13 15.3661 10.8956C15.1317 10.6612 15 10.3432 15 10.0117C15 9.6802 15.1317 9.36226 15.3661 9.12783C15.6005 8.89341 15.9185 8.76172 16.25 8.76172Z" fill="white"/>
</svg>
