<svg width="170" height="120" viewBox="0 0 81 105" fill="none" xmlns="http://www.w3.org/2000/svg">
<g clip-path="url(#clip0_969_17316)">
<path d="M40.1591 0.197266C19.901 0.197266 21.1659 8.98238 21.1659 8.98238L21.1884 18.084H40.5203V20.8166H13.51C13.51 20.8166 0.546875 19.3464 0.546875 39.7867C0.546875 60.2276 11.8614 59.5026 11.8614 59.5026H18.6139V50.0173C18.6139 50.0173 18.2499 38.7027 29.7479 38.7027H48.9217C48.9217 38.7027 59.6941 38.8768 59.6941 28.2915V10.7894C59.6941 10.7894 61.3302 0.197266 40.1591 0.197266ZM29.4995 6.31794C29.9563 6.31753 30.4087 6.4072 30.8308 6.58183C31.253 6.75646 31.6365 7.01262 31.9596 7.33565C32.2826 7.65867 32.5387 8.04222 32.7134 8.46435C32.888 8.88649 32.9777 9.33891 32.9773 9.79574C32.9777 10.2526 32.888 10.705 32.7134 11.1271C32.5387 11.5493 32.2826 11.9328 31.9596 12.2558C31.6365 12.5789 31.253 12.835 30.8308 13.0096C30.4087 13.1843 29.9563 13.2739 29.4995 13.2735C29.0426 13.2739 28.5902 13.1843 28.1681 13.0096C27.7459 12.835 27.3624 12.5789 27.0394 12.2558C26.7163 11.9328 26.4602 11.5493 26.2856 11.1271C26.1109 10.705 26.0213 10.2526 26.0217 9.79574C26.0213 9.33891 26.1109 8.88649 26.2856 8.46435C26.4602 8.04222 26.7163 7.65867 27.0394 7.33565C27.3624 7.01262 27.7459 6.75646 28.1681 6.58183C28.5902 6.4072 29.0426 6.31753 29.4995 6.31794Z" fill="url(#paint0_linear_969_17316)"/>
<path d="M40.7326 79.5839C60.9907 79.5839 59.7258 70.7988 59.7258 70.7988L59.7033 61.6975H40.3711V58.9649H67.3814C67.3814 58.9649 80.3445 60.4351 80.3445 39.9942C80.3445 19.5536 69.03 20.2786 69.03 20.2786H62.2775V29.7636C62.2775 29.7636 62.6415 41.0782 51.1435 41.0782H31.9697C31.9697 41.0782 21.1973 40.9041 21.1973 51.4897V68.9921C21.1973 68.9921 19.5615 79.5839 40.7323 79.5839H40.7326ZM51.3922 73.4639C50.9354 73.4643 50.483 73.3746 50.0609 73.2C49.6387 73.0254 49.2552 72.7692 48.9322 72.4462C48.6091 72.1231 48.353 71.7396 48.1783 71.3175C48.0037 70.8953 47.914 70.4429 47.9144 69.9861C47.914 69.5292 48.0036 69.0768 48.1783 68.6546C48.3529 68.2324 48.609 67.8488 48.932 67.5258C49.2551 67.2027 49.6386 66.9465 50.0608 66.7719C50.4829 66.5972 50.9354 66.5076 51.3922 66.508C51.8491 66.5076 52.3015 66.5972 52.7236 66.7719C53.1458 66.9465 53.5293 67.2026 53.8523 67.5257C54.1754 67.8487 54.4315 68.2323 54.6062 68.6544C54.7808 69.0765 54.8705 69.5289 54.87 69.9858C54.8705 70.4426 54.7808 70.895 54.6062 71.3171C54.4315 71.7393 54.1754 72.1228 53.8523 72.4459C53.5293 72.7689 53.1458 73.025 52.7236 73.1997C52.3015 73.3743 51.8491 73.4643 51.3922 73.4639Z" fill="url(#paint1_linear_969_17316)"/>
</g>
<path d="M13.7578 90.9595H17.6201C19.5479 90.9595 20.874 92.2925 20.874 94.2476C20.874 96.1753 19.5068 97.5015 17.5723 97.5015H15.2891V100.824H13.7578V90.9595ZM15.2891 92.313V96.1548H17.2168C18.5361 96.1548 19.3086 95.4712 19.3086 94.2476C19.3086 92.9966 18.5635 92.313 17.2168 92.313H15.2891ZM22.7471 100.824V90.4741H24.2031V94.5757H24.3193C24.6816 93.7417 25.4678 93.2427 26.5889 93.2427C28.1748 93.2427 29.1523 94.2476 29.1523 96.0181V100.824H27.6826V96.3804C27.6826 95.1909 27.1289 94.5894 26.0898 94.5894C24.8867 94.5894 24.2168 95.3481 24.2168 96.4761V100.824H22.7471ZM31.7158 103.524C31.5928 103.524 31.2441 103.51 31.1074 103.49V102.225C31.2236 102.246 31.4492 102.252 31.5859 102.252C32.2832 102.252 32.6797 101.965 32.9326 101.213L33.042 100.851L30.3486 93.3794H31.9482L33.8145 99.2925H33.9307L35.79 93.3794H37.3486L34.5732 101.131C33.9375 102.943 33.2334 103.524 31.7158 103.524ZM39.3721 91.5269H40.8418V93.4136H42.4551V94.6509H40.8418V98.479C40.8418 99.2583 41.1631 99.6001 41.8945 99.6001C42.1201 99.6001 42.25 99.5864 42.4551 99.5659V100.79C42.2158 100.831 41.9424 100.865 41.6553 100.865C40.0215 100.865 39.3721 100.291 39.3721 98.855V94.6509H38.1895V93.4136H39.3721V91.5269ZM44.2529 100.824V90.4741H45.709V94.5757H45.8252C46.1875 93.7417 46.9736 93.2427 48.0947 93.2427C49.6807 93.2427 50.6582 94.2476 50.6582 96.0181V100.824H49.1885V96.3804C49.1885 95.1909 48.6348 94.5894 47.5957 94.5894C46.3926 94.5894 45.7227 95.3481 45.7227 96.4761V100.824H44.2529ZM55.874 100.967C53.6934 100.967 52.3604 99.5112 52.3604 97.0981C52.3604 94.6987 53.7002 93.2358 55.874 93.2358C58.041 93.2358 59.3809 94.6987 59.3809 97.0981C59.3809 99.5112 58.0479 100.967 55.874 100.967ZM55.874 99.6616C57.1455 99.6616 57.8701 98.7183 57.8701 97.0981C57.8701 95.4849 57.1455 94.5415 55.874 94.5415C54.5957 94.5415 53.8779 95.4849 53.8779 97.0981C53.8779 98.7251 54.5957 99.6616 55.874 99.6616ZM61.1514 100.824V93.3794H62.5664V94.562H62.6758C63.0381 93.7349 63.7764 93.2358 64.8975 93.2358C66.5586 93.2358 67.4746 94.2339 67.4746 96.0044V100.824H66.0049V96.3735C66.0049 95.1772 65.4854 94.5825 64.3984 94.5825C63.3115 94.5825 62.6211 95.3071 62.6211 96.4692V100.824H61.1514Z" fill="#888888"/>
<defs>
<linearGradient id="paint0_linear_969_17316" x1="767.416" y1="714.213" x2="4722.03" y2="4629.37" gradientUnits="userSpaceOnUse">
<stop stop-color="#387EB8"/>
<stop offset="1" stop-color="#366994"/>
</linearGradient>
<linearGradient id="paint1_linear_969_17316" x1="1153.1" y1="1240.79" x2="5399.9" y2="5255.42" gradientUnits="userSpaceOnUse">
<stop stop-color="#FFE052"/>
<stop offset="1" stop-color="#FFC331"/>
</linearGradient>
<clipPath id="clip0_969_17316">
<rect width="80" height="79.68" fill="white" transform="translate(0.5 0.175781)"/>
</clipPath>
</defs>
</svg>
