<svg width="150" height="151" viewBox="0 0 150 151" fill="none" xmlns="http://www.w3.org/2000/svg">
<rect x="0.5" y="0.939453" width="149" height="149" rx="11.5" fill="white"/>
<rect x="0.5" y="0.939453" width="149" height="149" rx="11.5" stroke="#E8E8E8"/>
<g clip-path="url(#clip0_1069_14264)">
<path d="M74.6591 23.1367C54.401 23.1367 55.6659 31.9218 55.6659 31.9218L55.6884 41.0235H75.0203V43.756H48.01C48.01 43.756 35.0469 42.2859 35.0469 62.7261C35.0469 83.167 46.3614 82.4421 46.3614 82.4421H53.1139V72.9567C53.1139 72.9567 52.7499 61.6422 64.2479 61.6422H83.4217C83.4217 61.6422 94.1941 61.8162 94.1941 51.2309V33.7288C94.1941 33.7288 95.8302 23.1367 74.6591 23.1367ZM63.9995 29.2574C64.4563 29.257 64.9087 29.3467 65.3308 29.5213C65.753 29.6959 66.1365 29.9521 66.4596 30.2751C66.7826 30.5981 67.0387 30.9817 67.2134 31.4038C67.388 31.8259 67.4777 32.2784 67.4773 32.7352C67.4777 33.192 67.388 33.6444 67.2134 34.0666C67.0387 34.4887 66.7826 34.8723 66.4596 35.1953C66.1365 35.5183 65.753 35.7745 65.3308 35.9491C64.9087 36.1237 64.4563 36.2134 63.9995 36.213C63.5426 36.2134 63.0902 36.1237 62.6681 35.9491C62.2459 35.7745 61.8624 35.5183 61.5394 35.1953C61.2163 34.8723 60.9602 34.4887 60.7856 34.0666C60.6109 33.6444 60.5213 33.192 60.5217 32.7352C60.5213 32.2784 60.6109 31.8259 60.7856 31.4038C60.9602 30.9817 61.2163 30.5981 61.5394 30.2751C61.8624 29.9521 62.2459 29.6959 62.6681 29.5213C63.0902 29.3467 63.5426 29.257 63.9995 29.2574Z" fill="url(#paint0_linear_1069_14264)"/>
<path d="M75.2326 102.523C95.4907 102.523 94.2258 93.7383 94.2258 93.7383L94.2033 84.6369H74.8711V81.9044H101.881C101.881 81.9044 114.845 83.3746 114.845 62.9337C114.845 42.4931 103.53 43.218 103.53 43.218H96.7775V52.7031C96.7775 52.7031 97.1415 64.0176 85.6435 64.0176H66.4697C66.4697 64.0176 55.6973 63.8436 55.6973 74.4291V91.9316C55.6973 91.9316 54.0615 102.523 75.2323 102.523H75.2326ZM85.8922 96.4033C85.4354 96.4037 84.983 96.3141 84.5609 96.1394C84.1387 95.9648 83.7552 95.7086 83.4322 95.3856C83.1091 95.0626 82.853 94.679 82.6783 94.2569C82.5037 93.8348 82.414 93.3824 82.4144 92.9255C82.414 92.4687 82.5036 92.0162 82.6783 91.5941C82.8529 91.1719 83.109 90.7883 83.432 90.4652C83.7551 90.1422 84.1386 89.886 84.5608 89.7113C84.9829 89.5367 85.4354 89.447 85.8922 89.4474C86.3491 89.447 86.8015 89.5367 87.2236 89.7113C87.6458 89.8859 88.0293 90.1421 88.3523 90.4651C88.6754 90.7882 88.9315 91.1717 89.1062 91.5938C89.2808 92.016 89.3705 92.4684 89.37 92.9252C89.3705 93.382 89.2808 93.8345 89.1062 94.2566C88.9315 94.6787 88.6754 95.0623 88.3523 95.3853C88.0293 95.7083 87.6458 95.9645 87.2236 96.1391C86.8015 96.3138 86.3491 96.4037 85.8922 96.4033Z" fill="url(#paint1_linear_1069_14264)"/>
</g>
<path d="M48.2578 113.899H52.1201C54.0479 113.899 55.374 115.232 55.374 117.188C55.374 119.115 54.0068 120.441 52.0723 120.441H49.7891V123.764H48.2578V113.899ZM49.7891 115.253V119.095H51.7168C53.0361 119.095 53.8086 118.411 53.8086 117.188C53.8086 115.937 53.0635 115.253 51.7168 115.253H49.7891ZM57.2471 123.764V113.414H58.7031V117.516H58.8193C59.1816 116.682 59.9678 116.183 61.0889 116.183C62.6748 116.183 63.6523 117.188 63.6523 118.958V123.764H62.1826V119.32C62.1826 118.131 61.6289 117.529 60.5898 117.529C59.3867 117.529 58.7168 118.288 58.7168 119.416V123.764H57.2471ZM66.2158 126.464C66.0928 126.464 65.7441 126.45 65.6074 126.43V125.165C65.7236 125.186 65.9492 125.192 66.0859 125.192C66.7832 125.192 67.1797 124.905 67.4326 124.153L67.542 123.791L64.8486 116.319H66.4482L68.3145 122.232H68.4307L70.29 116.319H71.8486L69.0732 124.071C68.4375 125.883 67.7334 126.464 66.2158 126.464ZM73.8721 114.467H75.3418V116.354H76.9551V117.591H75.3418V121.419C75.3418 122.198 75.6631 122.54 76.3945 122.54C76.6201 122.54 76.75 122.526 76.9551 122.506V123.729C76.7158 123.771 76.4424 123.805 76.1553 123.805C74.5215 123.805 73.8721 123.23 73.8721 121.795V117.591H72.6895V116.354H73.8721V114.467ZM78.7529 123.764V113.414H80.209V117.516H80.3252C80.6875 116.682 81.4736 116.183 82.5947 116.183C84.1807 116.183 85.1582 117.188 85.1582 118.958V123.764H83.6885V119.32C83.6885 118.131 83.1348 117.529 82.0957 117.529C80.8926 117.529 80.2227 118.288 80.2227 119.416V123.764H78.7529ZM90.374 123.907C88.1934 123.907 86.8604 122.451 86.8604 120.038C86.8604 117.639 88.2002 116.176 90.374 116.176C92.541 116.176 93.8809 117.639 93.8809 120.038C93.8809 122.451 92.5479 123.907 90.374 123.907ZM90.374 122.602C91.6455 122.602 92.3701 121.658 92.3701 120.038C92.3701 118.425 91.6455 117.481 90.374 117.481C89.0957 117.481 88.3779 118.425 88.3779 120.038C88.3779 121.665 89.0957 122.602 90.374 122.602ZM95.6514 123.764V116.319H97.0664V117.502H97.1758C97.5381 116.675 98.2764 116.176 99.3975 116.176C101.059 116.176 101.975 117.174 101.975 118.944V123.764H100.505V119.313C100.505 118.117 99.9854 117.522 98.8984 117.522C97.8115 117.522 97.1211 118.247 97.1211 119.409V123.764H95.6514Z" fill="#888888"/>
<defs>
<linearGradient id="paint0_linear_1069_14264" x1="801.916" y1="737.152" x2="4756.53" y2="4652.31" gradientUnits="userSpaceOnUse">
<stop stop-color="#387EB8"/>
<stop offset="1" stop-color="#366994"/>
</linearGradient>
<linearGradient id="paint1_linear_1069_14264" x1="1187.6" y1="1263.73" x2="5434.4" y2="5278.36" gradientUnits="userSpaceOnUse">
<stop stop-color="#FFE052"/>
<stop offset="1" stop-color="#FFC331"/>
</linearGradient>
<clipPath id="clip0_1069_14264">
<rect width="80" height="79.68" fill="white" transform="translate(35 23.1152)"/>
</clipPath>
</defs>
</svg>
