<svg width="30" height="31" viewBox="0 0 30 31" fill="none" xmlns="http://www.w3.org/2000/svg">
<g clip-path="url(#clip0_917_22446)">
<path d="M23.4375 15.012C23.4375 13.6057 22.3125 12.387 20.9062 12.1995C19.875 9.94946 17.625 8.44946 15 8.44946C14.8125 8.44946 14.5312 8.44946 14.3438 8.54321C13.7812 7.88696 13.0312 7.51196 12.1875 7.51196C10.5938 7.51196 9.375 8.73071 9.375 10.3245C9.375 10.6995 9.46875 10.9807 9.5625 11.3557C8.8125 12.387 8.4375 13.6057 8.4375 15.012C8.4375 17.1213 8.8125 17.637 9.5625 18.6682C9.46875 19.0432 9.375 19.3245 9.375 19.6995C9.375 21.2932 10.5938 22.512 12.1875 22.512C13.0312 22.512 13.7812 22.137 14.3438 21.4807C14.5312 21.4807 14.8125 21.5745 15 21.5745C17.625 21.5745 19.875 19.9807 20.9062 17.8245C22.3125 17.637 23.4375 16.4182 23.4375 15.012ZM12.1875 9.38696C12.75 9.38696 13.125 9.76196 13.125 10.3245C13.125 10.887 12.75 11.262 12.1875 11.262C11.625 11.262 11.25 10.887 11.25 10.3245C11.25 9.76196 11.625 9.38696 12.1875 9.38696ZM12.1875 20.637C11.625 20.637 11.25 20.262 11.25 19.6995C11.25 19.137 11.625 18.762 12.1875 18.762C12.75 18.762 13.125 19.137 13.125 19.6995C13.125 20.262 12.75 20.637 12.1875 20.637ZM15 19.6995C15 18.1057 13.7812 16.887 12.1875 16.887C11.7188 16.887 11.25 16.9807 10.875 17.262C10.5 16.6057 10.3125 15.8557 10.3125 15.012C10.3125 13.7463 10.5 13.4182 10.875 12.762C11.25 13.0432 11.7188 13.137 12.1875 13.137C13.7812 13.137 15 11.9182 15 10.3245C16.7812 10.3245 18.1875 11.262 19.0312 12.6682C18.2812 13.2307 17.8125 14.0745 17.8125 15.012C17.8125 15.9495 18.2812 16.7932 19.0312 17.3557C18.1875 18.762 16.7812 19.6995 15 19.6995ZM20.625 15.9495C20.0625 15.9495 19.6875 15.5745 19.6875 15.012C19.6875 14.4495 20.0625 14.0745 20.625 14.0745C21.1875 14.0745 21.5625 14.4495 21.5625 15.012C21.5625 15.5745 21.1875 15.9495 20.625 15.9495Z" fill="white"/>
<path d="M15 29.0745C14.8125 29.0745 14.7188 29.0745 14.5312 28.9807L3.28125 22.4182C3 22.2307 2.8125 21.9495 2.8125 21.5745V8.44946C2.8125 8.07446 3 7.79321 3.28125 7.60571L14.5312 1.04321C14.8125 0.855713 15.1875 0.855713 15.4688 1.04321L26.7188 7.60571L25.7812 9.19946L15 3.01196L4.6875 9.01196V21.1057L15 27.1057L25.3125 21.1057V14.0745H27.1875V21.5745C27.1875 21.9495 27 22.2307 26.7188 22.4182L15.4688 28.9807C15.2812 29.0745 15.1875 29.0745 15 29.0745Z" fill="white"/>
</g>
<defs>
<clipPath id="clip0_917_22446">
<rect width="30" height="30" fill="white" transform="translate(0 0.0119629)"/>
</clipPath>
</defs>
</svg>
