<svg width="81" height="81" viewBox="0 0 81 81" fill="none" xmlns="http://www.w3.org/2000/svg">
<path d="M40.5 46.6816C43.9518 46.6816 46.75 43.8834 46.75 40.4316C46.75 36.9799 43.9518 34.1816 40.5 34.1816C37.0482 34.1816 34.25 36.9799 34.25 40.4316C34.25 43.8834 37.0482 46.6816 40.5 46.6816Z" fill="#00D8FF"/>
<path d="M40.5 54.763C32.9879 54.944 25.4946 53.9314 18.3 51.763C14.9766 50.7094 11.8768 49.0498 9.1575 46.868C8.11947 46.123 7.25506 45.162 6.6237 44.0512C5.99233 42.9404 5.60898 41.706 5.5 40.433C5.5 36.3005 10.04 32.2505 17.645 29.6005C25.0323 27.2543 32.7499 26.1163 40.5 26.2305C48.1467 26.1247 55.7611 27.2422 63.055 29.5405C66.2552 30.562 69.2496 32.1413 71.9 34.2055C72.9188 34.9172 73.7692 35.8437 74.3912 36.9196C75.0132 37.9956 75.3917 39.1949 75.5 40.433C75.5 44.728 70.425 49.0805 62.25 51.7855C55.1948 53.8839 47.8596 54.8881 40.5 54.763ZM40.5 29.2205C33.0854 29.1236 25.7026 30.2054 18.6275 32.4255C11.6275 34.868 8.49 38.208 8.49 40.4255C8.49 42.7455 11.8625 46.393 19.2675 48.9255C26.1501 50.9905 33.3165 51.9516 40.5 51.773C47.541 51.8989 54.5598 50.9462 61.3125 48.948C69 46.4005 72.5 42.748 72.5 40.433C72.3734 39.6387 72.0837 38.8792 71.6492 38.2024C71.2146 37.5256 70.6446 36.9461 69.975 36.5005C67.6042 34.6686 64.9291 33.2689 62.0725 32.3655C55.0947 30.1764 47.8123 29.1148 40.5 29.2205Z" fill="#00D8FF"/>
<path d="M26.299 71.6088C25.1328 71.6354 23.9803 71.3525 22.959 70.7888C19.379 68.7238 18.139 62.7688 19.6415 54.8563C21.3 47.2846 24.1703 40.0304 28.1415 33.3738C31.8692 26.6971 36.6402 20.6592 42.274 15.4888C44.7577 13.2265 47.6218 11.4212 50.734 10.1563C51.8603 9.63011 53.0884 9.35742 54.3315 9.35742C55.5747 9.35742 56.8027 9.63011 57.929 10.1563C61.6515 12.3013 62.884 18.8713 61.1465 27.3038C59.439 34.4652 56.6431 41.3225 52.8565 47.6363C49.2603 54.2343 44.6395 60.2196 39.1665 65.3688C36.5935 67.7207 33.6074 69.5761 30.359 70.8413C29.0589 71.3251 27.6861 71.5847 26.299 71.6088ZM30.7315 34.8588C26.9438 41.233 24.1928 48.1687 22.5815 55.4063C21.199 62.6938 22.5265 67.0763 24.4565 68.1913C26.4565 69.3488 31.3115 68.2513 37.2065 63.1013C42.4319 58.1689 46.8424 52.4395 50.274 46.1263C53.9014 40.09 56.5833 33.5341 58.2265 26.6863C59.8615 18.7488 58.449 13.8888 56.444 12.7338C55.6925 12.4463 54.8895 12.3176 54.0857 12.3559C53.282 12.3942 52.4949 12.5986 51.774 12.9563C49.0034 14.0999 46.456 15.7231 44.249 17.7513C38.8668 22.7043 34.3095 28.4845 30.749 34.8738L30.7315 34.8588Z" fill="#00D8FF"/>
<path d="M54.6893 71.6448C51.3018 71.6448 46.9993 69.5948 42.5193 65.7423C36.7874 60.5242 31.9358 54.4147 28.1518 47.6498C24.2295 41.0853 21.3819 33.9359 19.7168 26.4723C18.9963 23.1884 18.8626 19.8029 19.3218 16.4723C19.4297 15.2372 19.8066 14.0407 20.4259 12.9666C21.0452 11.8926 21.8919 10.967 22.9068 10.2548C26.6243 8.10233 32.9318 10.3148 39.3693 16.0298C44.7207 21.0853 49.2652 26.9316 52.8443 33.3648C56.7644 39.776 59.6419 46.7689 61.3693 54.0823C62.1221 57.4866 62.2382 61.0008 61.7118 64.4473C61.587 65.7185 61.1886 66.9476 60.5439 68.0502C59.8991 69.1528 59.0234 70.1027 57.9768 70.8348C56.9717 71.3905 55.8374 71.67 54.6893 71.6448ZM30.7393 46.1448C34.3696 52.6097 39.0041 58.4567 44.4693 63.4673C50.0918 68.3048 54.5518 69.3448 56.4693 68.2173C58.4693 67.0548 59.9443 62.3098 58.4243 54.6323C56.7594 47.6495 53.9994 40.9744 50.2468 34.8548C46.8313 28.6976 42.4936 23.0995 37.3843 18.2548C31.3243 12.8748 26.4093 11.6723 24.4068 12.8323C23.783 13.3398 23.271 13.971 22.9031 14.6861C22.5353 15.4012 22.3194 16.1847 22.2693 16.9873C21.8721 19.9576 22.0016 22.9745 22.6518 25.8998C24.254 33.0372 26.985 39.8732 30.7418 46.1498L30.7393 46.1448Z" fill="#00D8FF"/>
</svg>
