<svg width="171" height="120" viewBox="0 0 171 120" fill="none" xmlns="http://www.w3.org/2000/svg">
<rect width="171" height="120" fill="white"/>
<path d="M85.5 53.6978C88.9518 53.6978 91.75 50.8995 91.75 47.4478C91.75 43.996 88.9518 41.1978 85.5 41.1978C82.0482 41.1978 79.25 43.996 79.25 47.4478C79.25 50.8995 82.0482 53.6978 85.5 53.6978Z" fill="#00D8FF"/>
<path d="M85.5 61.7791C77.9879 61.9602 70.4946 60.9476 63.3 58.7791C59.9766 57.7255 56.8768 56.0659 54.1575 53.8841C53.1195 53.1391 52.2551 52.1781 51.6237 51.0673C50.9923 49.9565 50.609 48.7221 50.5 47.4491C50.5 43.3166 55.04 39.2666 62.645 36.6166C70.0323 34.2704 77.7499 33.1324 85.5 33.2466C93.1467 33.1409 100.761 34.2583 108.055 36.5566C111.255 37.5781 114.25 39.1574 116.9 41.2216C117.919 41.9333 118.769 42.8598 119.391 43.9358C120.013 45.0117 120.392 46.211 120.5 47.4491C120.5 51.7441 115.425 56.0966 107.25 58.8016C100.195 60.9 92.8596 61.9042 85.5 61.7791ZM85.5 36.2366C78.0854 36.1397 70.7026 37.2215 63.6275 39.4416C56.6275 41.8841 53.49 45.2241 53.49 47.4416C53.49 49.7616 56.8625 53.4091 64.2675 55.9416C71.1501 58.0066 78.3165 58.9677 85.5 58.7891C92.541 58.915 99.5598 57.9623 106.312 55.9641C114 53.4166 117.5 49.7641 117.5 47.4491C117.373 46.6548 117.084 45.8953 116.649 45.2185C116.215 44.5417 115.645 43.9622 114.975 43.5166C112.604 41.6847 109.929 40.285 107.072 39.3816C100.095 37.1926 92.8123 36.1309 85.5 36.2366Z" fill="#00D8FF"/>
<path d="M71.299 78.6249C70.1328 78.6515 68.9803 78.3686 67.959 77.8049C64.379 75.7399 63.139 69.7849 64.6415 61.8724C66.3 54.3007 69.1703 47.0465 73.1415 40.3899C76.8692 33.7132 81.6402 27.6754 87.274 22.5049C89.7577 20.2426 92.6218 18.4374 95.734 17.1724C96.8603 16.6462 98.0884 16.3735 99.3315 16.3735C100.575 16.3735 101.803 16.6462 102.929 17.1724C106.652 19.3174 107.884 25.8874 106.147 34.3199C104.439 41.4813 101.643 48.3386 97.8565 54.6524C94.2603 61.2504 89.6395 67.2357 84.1665 72.3849C81.5935 74.7368 78.6074 76.5922 75.359 77.8574C74.0589 78.3412 72.6861 78.6008 71.299 78.6249ZM75.7315 41.8749C71.9438 48.2492 69.1928 55.1848 67.5815 62.4224C66.199 69.7099 67.5265 74.0924 69.4565 75.2074C71.4565 76.3649 76.3115 75.2674 82.2065 70.1174C87.4319 65.185 91.8424 59.4556 95.274 53.1424C98.9014 47.1062 101.583 40.5502 103.227 33.7024C104.862 25.7649 103.449 20.9049 101.444 19.7499C100.692 19.4624 99.8895 19.3337 99.0857 19.372C98.282 19.4103 97.4949 19.6147 96.774 19.9724C94.0034 21.116 91.456 22.7392 89.249 24.7674C83.8668 29.7204 79.3095 35.5006 75.749 41.8899L75.7315 41.8749Z" fill="#00D8FF"/>
<path d="M99.6893 78.6609C96.3018 78.6609 91.9993 76.6109 87.5193 72.7584C81.7874 67.5403 76.9358 61.4308 73.1518 54.6659C69.2295 48.1014 66.3819 40.952 64.7168 33.4884C63.9963 30.2045 63.8626 26.819 64.3218 23.4884C64.4297 22.2533 64.8066 21.0568 65.4259 19.9828C66.0452 18.9087 66.8919 17.9831 67.9068 17.2709C71.6243 15.1184 77.9318 17.3309 84.3693 23.0459C89.7207 28.1014 94.2652 33.9477 97.8443 40.3809C101.764 46.7921 104.642 53.785 106.369 61.0984C107.122 64.5027 107.238 68.0169 106.712 71.4634C106.587 72.7346 106.189 73.9637 105.544 75.0663C104.899 76.1689 104.023 77.1188 102.977 77.8509C101.972 78.4066 100.837 78.6861 99.6893 78.6609ZM75.7393 53.1609C79.3696 59.6258 84.0041 65.4729 89.4693 70.4834C95.0918 75.3209 99.5518 76.3609 101.469 75.2334C103.469 74.0709 104.944 69.3259 103.424 61.6484C101.759 54.6656 98.9994 47.9905 95.2468 41.8709C91.8313 35.7137 87.4936 30.1156 82.3843 25.2709C76.3243 19.8909 71.4093 18.6884 69.4068 19.8484C68.783 20.356 68.271 20.9871 67.9031 21.7022C67.5353 22.4173 67.3194 23.2008 67.2693 24.0034C66.8721 26.9737 67.0016 29.9907 67.6518 32.9159C69.254 40.0533 71.985 46.8893 75.7418 53.1659L75.7393 53.1609Z" fill="#00D8FF"/>
<path d="M46.5693 99.9663V103.418H48.7705C49.9531 103.418 50.6367 102.79 50.6367 101.689C50.6367 100.616 49.9121 99.9663 48.7295 99.9663H46.5693ZM46.5693 104.724V108.484H45.0381V98.6196H48.9414C50.9307 98.6196 52.209 99.8022 52.209 101.655C52.209 102.981 51.498 104.061 50.2949 104.471L52.5098 108.484H50.7393L48.7295 104.724H46.5693ZM57.0557 102.147C55.9688 102.147 55.21 102.913 55.1279 104.075H58.8877C58.8535 102.906 58.1426 102.147 57.0557 102.147ZM58.8809 106.474H60.2959C59.9609 107.807 58.7715 108.627 57.0693 108.627C54.9365 108.627 53.6309 107.165 53.6309 104.786C53.6309 102.407 54.9639 100.896 57.0625 100.896C59.1338 100.896 60.3848 102.311 60.3848 104.649V105.162H55.1279V105.244C55.1758 106.549 55.9346 107.376 57.1104 107.376C57.999 107.376 58.6074 107.055 58.8809 106.474ZM64.582 107.37C65.6895 107.37 66.5098 106.666 66.5098 105.743V105.121L64.6914 105.237C63.666 105.305 63.2012 105.654 63.2012 106.31C63.2012 106.98 63.7822 107.37 64.582 107.37ZM64.2061 108.607C62.7705 108.607 61.7246 107.739 61.7246 106.378C61.7246 105.039 62.7227 104.266 64.4932 104.157L66.5098 104.041V103.398C66.5098 102.612 65.9902 102.167 64.9854 102.167C64.165 102.167 63.5977 102.468 63.4336 102.995H62.0117C62.1621 101.716 63.3652 100.896 65.0537 100.896C66.9199 100.896 67.9727 101.826 67.9727 103.398V108.484H66.5576V107.438H66.4414C65.9971 108.183 65.1836 108.607 64.2061 108.607ZM76.3672 103.473H74.9385C74.7676 102.749 74.166 102.208 73.1816 102.208C71.9512 102.208 71.1992 103.152 71.1992 104.738C71.1992 106.351 71.958 107.315 73.1816 107.315C74.1113 107.315 74.7471 106.891 74.9385 106.091H76.3672C76.1758 107.588 75.0273 108.627 73.1885 108.627C71.0215 108.627 69.6953 107.165 69.6953 104.738C69.6953 102.352 71.0146 100.896 73.1816 100.896C75.0479 100.896 76.1758 101.983 76.3672 103.473ZM78.6777 99.187H80.1475V101.074H81.7607V102.311H80.1475V106.139C80.1475 106.918 80.4688 107.26 81.2002 107.26C81.4258 107.26 81.5557 107.247 81.7607 107.226V108.45C81.5215 108.491 81.248 108.525 80.9609 108.525C79.3271 108.525 78.6777 107.951 78.6777 106.515V102.311H77.4951V101.074H78.6777V99.187ZM87.3184 108.484V101.04H88.7334V102.222H88.8428C89.2051 101.395 89.9434 100.896 91.0645 100.896C92.7256 100.896 93.6416 101.894 93.6416 103.665V108.484H92.1719V104.034C92.1719 102.837 91.6523 102.243 90.5654 102.243C89.4785 102.243 88.7881 102.967 88.7881 104.129V108.484H87.3184ZM98.1465 107.37C99.2539 107.37 100.074 106.666 100.074 105.743V105.121L98.2559 105.237C97.2305 105.305 96.7656 105.654 96.7656 106.31C96.7656 106.98 97.3467 107.37 98.1465 107.37ZM97.7705 108.607C96.335 108.607 95.2891 107.739 95.2891 106.378C95.2891 105.039 96.2871 104.266 98.0576 104.157L100.074 104.041V103.398C100.074 102.612 99.5547 102.167 98.5498 102.167C97.7295 102.167 97.1621 102.468 96.998 102.995H95.5762C95.7266 101.716 96.9297 100.896 98.6182 100.896C100.484 100.896 101.537 101.826 101.537 103.398V108.484H100.122V107.438H100.006C99.5615 108.183 98.748 108.607 97.7705 108.607ZM104.148 99.187H105.618V101.074H107.231V102.311H105.618V106.139C105.618 106.918 105.939 107.26 106.671 107.26C106.896 107.26 107.026 107.247 107.231 107.226V108.45C106.992 108.491 106.719 108.525 106.432 108.525C104.798 108.525 104.148 107.951 104.148 106.515V102.311H102.966V101.074H104.148V99.187ZM108.988 108.484V101.04H110.451V108.484H108.988ZM109.72 99.7339C109.173 99.7339 108.77 99.3442 108.77 98.8384C108.77 98.3257 109.173 97.936 109.72 97.936C110.267 97.936 110.67 98.3257 110.67 98.8384C110.67 99.3442 110.267 99.7339 109.72 99.7339ZM118.914 101.04L116.234 108.484H114.655L111.969 101.04H113.541L115.394 106.912H115.51L117.355 101.04H118.914ZM123.173 102.147C122.086 102.147 121.327 102.913 121.245 104.075H125.005C124.971 102.906 124.26 102.147 123.173 102.147ZM124.998 106.474H126.413C126.078 107.807 124.889 108.627 123.187 108.627C121.054 108.627 119.748 107.165 119.748 104.786C119.748 102.407 121.081 100.896 123.18 100.896C125.251 100.896 126.502 102.311 126.502 104.649V105.162H121.245V105.244C121.293 106.549 122.052 107.376 123.228 107.376C124.116 107.376 124.725 107.055 124.998 106.474Z" fill="#888888"/>
</svg>
