<svg width="171" height="120" viewBox="0 0 171 120" fill="none" xmlns="http://www.w3.org/2000/svg">
<rect width="171" height="120" fill="white"/>
<path d="M85.5 53.6816C88.9518 53.6816 91.75 50.8834 91.75 47.4316C91.75 43.9799 88.9518 41.1816 85.5 41.1816C82.0482 41.1816 79.25 43.9799 79.25 47.4316C79.25 50.8834 82.0482 53.6816 85.5 53.6816Z" fill="#00D8FF"/>
<path d="M85.5 61.763C77.9879 61.944 70.4946 60.9314 63.3 58.763C59.9766 57.7094 56.8768 56.0498 54.1575 53.868C53.1195 53.123 52.2551 52.162 51.6237 51.0512C50.9923 49.9404 50.609 48.706 50.5 47.433C50.5 43.3005 55.04 39.2505 62.645 36.6005C70.0323 34.2543 77.7499 33.1163 85.5 33.2305C93.1467 33.1247 100.761 34.2422 108.055 36.5405C111.255 37.562 114.25 39.1413 116.9 41.2055C117.919 41.9172 118.769 42.8437 119.391 43.9196C120.013 44.9956 120.392 46.1949 120.5 47.433C120.5 51.728 115.425 56.0805 107.25 58.7855C100.195 60.8839 92.8596 61.8881 85.5 61.763ZM85.5 36.2205C78.0854 36.1236 70.7026 37.2054 63.6275 39.4255C56.6275 41.868 53.49 45.208 53.49 47.4255C53.49 49.7455 56.8625 53.393 64.2675 55.9255C71.1501 57.9905 78.3165 58.9516 85.5 58.773C92.541 58.8989 99.5598 57.9462 106.312 55.948C114 53.4005 117.5 49.748 117.5 47.433C117.373 46.6387 117.084 45.8792 116.649 45.2024C116.215 44.5256 115.645 43.9461 114.975 43.5005C112.604 41.6686 109.929 40.2689 107.072 39.3655C100.095 37.1764 92.8123 36.1148 85.5 36.2205Z" fill="#00D8FF"/>
<path d="M71.299 78.6088C70.1328 78.6354 68.9803 78.3525 67.959 77.7888C64.379 75.7238 63.139 69.7688 64.6415 61.8563C66.3 54.2846 69.1703 47.0304 73.1415 40.3738C76.8692 33.6971 81.6402 27.6592 87.274 22.4888C89.7577 20.2265 92.6218 18.4212 95.734 17.1563C96.8603 16.6301 98.0884 16.3574 99.3315 16.3574C100.575 16.3574 101.803 16.6301 102.929 17.1563C106.652 19.3013 107.884 25.8713 106.147 34.3038C104.439 41.4652 101.643 48.3225 97.8565 54.6363C94.2603 61.2343 89.6395 67.2196 84.1665 72.3688C81.5935 74.7207 78.6074 76.5761 75.359 77.8413C74.0589 78.3251 72.6861 78.5847 71.299 78.6088ZM75.7315 41.8588C71.9438 48.233 69.1928 55.1687 67.5815 62.4063C66.199 69.6938 67.5265 74.0763 69.4565 75.1913C71.4565 76.3488 76.3115 75.2513 82.2065 70.1013C87.4319 65.1689 91.8424 59.4395 95.274 53.1263C98.9014 47.09 101.583 40.5341 103.227 33.6863C104.862 25.7488 103.449 20.8888 101.444 19.7338C100.692 19.4463 99.8895 19.3176 99.0857 19.3559C98.282 19.3942 97.4949 19.5986 96.774 19.9563C94.0034 21.0999 91.456 22.7231 89.249 24.7513C83.8668 29.7043 79.3095 35.4845 75.749 41.8738L75.7315 41.8588Z" fill="#00D8FF"/>
<path d="M99.6893 78.6448C96.3018 78.6448 91.9993 76.5948 87.5193 72.7423C81.7874 67.5242 76.9358 61.4147 73.1518 54.6498C69.2295 48.0853 66.3819 40.9359 64.7168 33.4723C63.9963 30.1884 63.8626 26.8029 64.3218 23.4723C64.4297 22.2372 64.8066 21.0407 65.4259 19.9666C66.0452 18.8926 66.8919 17.967 67.9068 17.2548C71.6243 15.1023 77.9318 17.3148 84.3693 23.0298C89.7207 28.0853 94.2652 33.9316 97.8443 40.3648C101.764 46.776 104.642 53.7689 106.369 61.0823C107.122 64.4866 107.238 68.0008 106.712 71.4473C106.587 72.7185 106.189 73.9476 105.544 75.0502C104.899 76.1528 104.023 77.1027 102.977 77.8348C101.972 78.3905 100.837 78.67 99.6893 78.6448ZM75.7393 53.1448C79.3696 59.6097 84.0041 65.4567 89.4693 70.4673C95.0918 75.3048 99.5518 76.3448 101.469 75.2173C103.469 74.0548 104.944 69.3098 103.424 61.6323C101.759 54.6495 98.9994 47.9744 95.2468 41.8548C91.8313 35.6976 87.4936 30.0995 82.3843 25.2548C76.3243 19.8748 71.4093 18.6723 69.4068 19.8323C68.783 20.3398 68.271 20.971 67.9031 21.6861C67.5353 22.4012 67.3194 23.1847 67.2693 23.9873C66.8721 26.9576 67.0016 29.9745 67.6518 32.8998C69.254 40.0372 71.985 46.8732 75.7418 53.1498L75.7393 53.1448Z" fill="#00D8FF"/>
<path d="M68.957 99.9824V103.435H71.1582C72.3408 103.435 73.0244 102.806 73.0244 101.705C73.0244 100.632 72.2998 99.9824 71.1172 99.9824H68.957ZM68.957 104.74V108.5H67.4258V98.6357H71.3291C73.3184 98.6357 74.5967 99.8184 74.5967 101.671C74.5967 102.997 73.8857 104.077 72.6826 104.487L74.8975 108.5H73.127L71.1172 104.74H68.957ZM79.4434 102.163C78.3564 102.163 77.5977 102.929 77.5156 104.091H81.2754C81.2412 102.922 80.5303 102.163 79.4434 102.163ZM81.2686 106.49H82.6836C82.3486 107.823 81.1592 108.644 79.457 108.644C77.3242 108.644 76.0186 107.181 76.0186 104.802C76.0186 102.423 77.3516 100.912 79.4502 100.912C81.5215 100.912 82.7725 102.327 82.7725 104.665V105.178H77.5156V105.26C77.5635 106.565 78.3223 107.393 79.498 107.393C80.3867 107.393 80.9951 107.071 81.2686 106.49ZM86.9697 107.386C88.0771 107.386 88.8975 106.682 88.8975 105.759V105.137L87.0791 105.253C86.0537 105.321 85.5889 105.67 85.5889 106.326C85.5889 106.996 86.1699 107.386 86.9697 107.386ZM86.5938 108.623C85.1582 108.623 84.1123 107.755 84.1123 106.395C84.1123 105.055 85.1104 104.282 86.8809 104.173L88.8975 104.057V103.414C88.8975 102.628 88.3779 102.184 87.373 102.184C86.5527 102.184 85.9854 102.484 85.8213 103.011H84.3994C84.5498 101.732 85.7529 100.912 87.4414 100.912C89.3076 100.912 90.3604 101.842 90.3604 103.414V108.5H88.9453V107.454H88.8291C88.3848 108.199 87.5713 108.623 86.5938 108.623ZM98.7549 103.489H97.3262C97.1553 102.765 96.5537 102.225 95.5693 102.225C94.3389 102.225 93.5869 103.168 93.5869 104.754C93.5869 106.367 94.3457 107.331 95.5693 107.331C96.499 107.331 97.1348 106.907 97.3262 106.107H98.7549C98.5635 107.604 97.415 108.644 95.5762 108.644C93.4092 108.644 92.083 107.181 92.083 104.754C92.083 102.368 93.4023 100.912 95.5693 100.912C97.4355 100.912 98.5635 101.999 98.7549 103.489ZM101.065 99.2031H102.535V101.09H104.148V102.327H102.535V106.155C102.535 106.935 102.856 107.276 103.588 107.276C103.813 107.276 103.943 107.263 104.148 107.242V108.466C103.909 108.507 103.636 108.541 103.349 108.541C101.715 108.541 101.065 107.967 101.065 106.531V102.327H99.8828V101.09H101.065V99.2031Z" fill="#888888"/>
</svg>
