<svg width="171" height="120" viewBox="0 0 171 120" fill="none" xmlns="http://www.w3.org/2000/svg">
<rect width="171" height="120" fill="white"/>
<path d="M121.633 65.6877C117.445 67.8752 95.7578 76.7501 91.1328 79.1876C86.5078 81.6251 83.9453 81.5626 80.3203 79.8126C76.6953 78.0626 53.6328 68.8127 49.4453 66.8127C47.3828 65.8127 46.3203 65.0001 46.3203 64.1876V56.2502C46.3203 56.2502 76.3203 49.6877 81.1953 48.0002C86.0703 46.2502 87.6953 46.1877 91.8203 47.6877C95.9453 49.1877 120.633 53.6251 124.695 55.1251V62.9376C124.695 63.7501 123.758 64.6252 121.633 65.6877Z" fill="#A41E11"/>
<path d="M121.634 57.8131C117.446 60.0006 95.7589 68.8756 91.1339 71.3131C86.5089 73.7506 83.9464 73.6881 80.3214 71.9381C76.6964 70.1881 53.6339 60.8756 49.4464 58.8756C45.3214 56.8756 45.1964 55.5006 49.2589 53.9381C53.3214 52.3131 76.2589 43.3131 81.1339 41.6256C86.0089 39.8756 87.6339 39.8131 91.7589 41.3131C95.8839 42.8131 117.446 51.3756 121.509 52.8756C125.696 54.3756 125.821 55.6256 121.634 57.8131Z" fill="#D82C20"/>
<path d="M121.633 52.8131C117.445 55.0006 95.7578 63.8756 91.1328 66.3131C86.5078 68.6881 83.9453 68.6881 80.3203 66.9381C76.6953 65.1881 53.6328 55.8756 49.4453 53.8756C47.3828 52.8756 46.3203 52.0631 46.3203 51.2506V43.3131C46.3203 43.3131 76.3203 36.7506 81.1953 35.0631C86.0703 33.3131 87.6953 33.2506 91.8203 34.7506C95.9453 36.2506 120.633 40.6881 124.695 42.1881V50.0006C124.695 50.8131 123.758 51.6881 121.633 52.8131Z" fill="#A41E11"/>
<path d="M121.618 44.8761C117.43 47.0636 95.7429 55.9386 91.1179 58.3761C86.4929 60.7511 83.9304 60.7511 80.3054 59.0011C76.6804 57.2511 53.6179 47.9386 49.4304 45.9386C45.2429 43.9386 45.1804 42.5636 49.2429 41.0011C53.3054 39.3761 76.2429 30.3761 81.1179 28.6886C85.9929 26.9386 87.6179 26.8761 91.7429 28.3761C95.8679 29.8761 117.43 38.4386 121.493 39.9386C125.68 41.4386 125.805 42.6886 121.618 44.8761Z" fill="#D82C20"/>
<path d="M121.617 39.3742C117.43 41.5617 95.7422 50.4367 91.1172 52.8742C86.4922 55.2492 83.9297 55.2492 80.3047 53.4992C76.6797 51.8117 53.6172 42.4992 49.4297 40.4992C47.3672 39.4992 46.2422 38.6867 46.2422 37.8742V29.9367C46.2422 29.9367 76.2422 23.3742 81.1172 21.6867C85.9922 19.9367 87.6172 19.8742 91.7422 21.3742C95.8672 22.8742 120.555 27.3117 124.617 28.8117V36.6242C124.68 37.4367 123.742 38.2492 121.617 39.3742Z" fill="#A41E11"/>
<path d="M121.618 31.4372C117.43 33.6247 95.7429 42.4997 91.1179 44.9372C86.4929 47.3122 83.9304 47.3122 80.3054 45.5622C76.6804 43.8122 53.6179 34.5622 49.4304 32.5622C45.2429 30.5622 45.1804 29.1872 49.2429 27.6247C53.3054 25.9997 76.2429 16.9997 81.1179 15.3122C85.9929 13.5622 87.6179 13.4997 91.7429 14.9997C95.8679 16.4997 117.43 25.0622 121.493 26.5622C125.68 28.0622 125.805 29.3122 121.618 31.4372Z" fill="#D82C20"/>
<path d="M95.7422 23.8115L88.9922 24.5615L87.4297 28.1865L84.9922 24.124L77.1797 23.4365L82.9922 21.3115L81.2422 18.0615L86.7422 20.1865L91.8672 18.499L90.4922 21.874L95.7422 23.8115ZM87.0547 41.5615L74.3672 36.3115L92.5547 33.5615L87.0547 41.5615Z" fill="white"/>
<path d="M69.5039 33.374C74.8542 33.374 79.1914 31.6951 79.1914 29.624C79.1914 27.553 74.8542 25.874 69.5039 25.874C64.1536 25.874 59.8164 27.553 59.8164 29.624C59.8164 31.6951 64.1536 33.374 69.5039 33.374Z" fill="white"/>
<path d="M103.82 24.812L114.57 29.062L103.82 33.312V24.812Z" fill="#7A0C00"/>
<path d="M91.9453 29.562L103.82 24.812V33.312L102.633 33.812L91.9453 29.562Z" fill="#AD2115"/>
<path d="M69.6338 99.9824V103.435H71.835C73.0176 103.435 73.7012 102.806 73.7012 101.705C73.7012 100.632 72.9766 99.9824 71.7939 99.9824H69.6338ZM69.6338 104.74V108.5H68.1025V98.6357H72.0059C73.9951 98.6357 75.2734 99.8184 75.2734 101.671C75.2734 102.997 74.5625 104.077 73.3594 104.487L75.5742 108.5H73.8037L71.7939 104.74H69.6338ZM80.1201 102.163C79.0332 102.163 78.2744 102.929 78.1924 104.091H81.9521C81.918 102.922 81.207 102.163 80.1201 102.163ZM81.9453 106.49H83.3604C83.0254 107.823 81.8359 108.644 80.1338 108.644C78.001 108.644 76.6953 107.181 76.6953 104.802C76.6953 102.423 78.0283 100.912 80.127 100.912C82.1982 100.912 83.4492 102.327 83.4492 104.665V105.178H78.1924V105.26C78.2402 106.565 78.999 107.393 80.1748 107.393C81.0635 107.393 81.6719 107.071 81.9453 106.49ZM87.9336 108.623C86.04 108.623 84.8438 107.133 84.8438 104.774C84.8438 102.423 86.0537 100.933 87.9336 100.933C88.9521 100.933 89.8135 101.418 90.2168 102.238H90.3262V98.1504H91.7959V108.5H90.3877V107.324H90.2715C89.8271 108.138 88.959 108.623 87.9336 108.623ZM88.3506 102.252C87.1133 102.252 86.3613 103.209 86.3613 104.774C86.3613 106.354 87.1064 107.304 88.3506 107.304C89.5879 107.304 90.3535 106.34 90.3535 104.781C90.3535 103.229 89.5811 102.252 88.3506 102.252ZM94.0312 108.5V101.056H95.4941V108.5H94.0312ZM94.7627 99.75C94.2158 99.75 93.8125 99.3604 93.8125 98.8545C93.8125 98.3418 94.2158 97.9521 94.7627 97.9521C95.3096 97.9521 95.7129 98.3418 95.7129 98.8545C95.7129 99.3604 95.3096 99.75 94.7627 99.75ZM97.4834 103.161C97.4834 101.842 98.6934 100.912 100.375 100.912C102.05 100.912 103.144 101.691 103.287 103.004H101.879C101.742 102.457 101.209 102.108 100.375 102.108C99.5547 102.108 98.9326 102.498 98.9326 103.079C98.9326 103.523 99.3086 103.804 100.115 103.988L101.353 104.275C102.768 104.604 103.431 105.212 103.431 106.306C103.431 107.707 102.125 108.644 100.348 108.644C98.5771 108.644 97.4219 107.844 97.292 106.524H98.7617C98.9463 107.099 99.4932 107.454 100.382 107.454C101.298 107.454 101.947 107.044 101.947 106.449C101.947 106.005 101.599 105.718 100.854 105.54L99.5547 105.239C98.1396 104.904 97.4834 104.269 97.4834 103.161Z" fill="#888888"/>
</svg>
