<svg width="171" height="120" viewBox="0 0 171 120" fill="none" xmlns="http://www.w3.org/2000/svg">
<rect width="171" height="120" fill="white"/>
<g clip-path="url(#clip0_1073_19440)">
<path d="M106.75 7.5H64.25C53.8947 7.5 45.5 15.8947 45.5 26.25V68.75C45.5 79.1053 53.8947 87.5 64.25 87.5H106.75C117.105 87.5 125.5 79.1053 125.5 68.75V26.25C125.5 15.8947 117.105 7.5 106.75 7.5Z" fill="#242938"/>
<path d="M104.228 60.2269C104.654 65.6919 104.654 68.2538 104.654 71.05H92.0092C92.0092 70.4409 92.0202 69.8838 92.0311 69.3188C92.0655 67.5622 92.1011 65.7306 91.8164 62.0319C91.4405 56.6166 89.1086 55.4134 84.8208 55.4134H64.9336V45.5609H85.4227C90.8386 45.5609 93.5467 43.9134 93.5467 39.5513C93.5467 35.7153 90.8386 33.3909 85.4227 33.3909H64.9336V23.75H87.6792C99.9405 23.75 106.034 29.5413 106.034 38.7919C106.034 45.7113 101.746 50.2238 95.9536 50.9759C100.843 51.9538 103.702 54.7366 104.228 60.2269" fill="white"/>
<path d="M104.228 60.2269C104.654 65.6919 104.654 68.2538 104.654 71.05H92.0092C92.0092 70.4409 92.0202 69.8838 92.0311 69.3188C92.0655 67.5622 92.1011 65.7306 91.8164 62.0319C91.4405 56.6166 89.1086 55.4134 84.8208 55.4134H64.9336V45.5609H85.4227C90.8386 45.5609 93.5467 43.9134 93.5467 39.5513C93.5467 35.7153 90.8386 33.3909 85.4227 33.3909H64.9336V23.75H87.6792C99.9405 23.75 106.034 29.5413 106.034 38.7919C106.034 45.7113 101.746 50.2238 95.9536 50.9759C100.843 51.9538 103.702 54.7366 104.228 60.2269" fill="white"/>
<path d="M64.9336 71.0507V63.7061H78.3033C80.5364 63.7061 81.0214 65.3623 81.0214 66.3501V71.0507H64.9336Z" fill="white"/>
<path d="M64.875 71.0495V71.0995H81.0628V66.3488C81.0628 65.8482 80.9403 65.1754 80.5312 64.6263C80.1206 64.0748 79.4253 63.6548 78.2947 63.6548H64.875V71.0495Z" stroke="white" stroke-opacity="0.8" stroke-width="0.1"/>
</g>
<path d="M62.1484 99.9824V103.435H64.3496C65.5322 103.435 66.2158 102.806 66.2158 101.705C66.2158 100.632 65.4912 99.9824 64.3086 99.9824H62.1484ZM62.1484 104.74V108.5H60.6172V98.6357H64.5205C66.5098 98.6357 67.7881 99.8184 67.7881 101.671C67.7881 102.997 67.0771 104.077 65.874 104.487L68.0889 108.5H66.3184L64.3086 104.74H62.1484ZM72.6348 102.163C71.5479 102.163 70.7891 102.929 70.707 104.091H74.4668C74.4326 102.922 73.7217 102.163 72.6348 102.163ZM74.46 106.49H75.875C75.54 107.823 74.3506 108.644 72.6484 108.644C70.5156 108.644 69.21 107.181 69.21 104.802C69.21 102.423 70.543 100.912 72.6416 100.912C74.7129 100.912 75.9639 102.327 75.9639 104.665V105.178H70.707V105.26C70.7549 106.565 71.5137 107.393 72.6895 107.393C73.5781 107.393 74.1865 107.071 74.46 106.49ZM77.7275 108.5V101.056H79.1426V102.252H79.252C79.5801 101.411 80.332 100.912 81.3232 100.912C82.3418 100.912 83.0459 101.438 83.374 102.252H83.4902C83.8662 101.438 84.7207 100.912 85.7529 100.912C87.2568 100.912 88.1318 101.821 88.1318 103.373V108.5H86.6621V103.756C86.6621 102.751 86.1836 102.259 85.2197 102.259C84.2695 102.259 83.6475 102.942 83.6475 103.817V108.5H82.2051V103.612C82.2051 102.771 81.6445 102.259 80.7695 102.259C79.874 102.259 79.1973 102.99 79.1973 103.947V108.5H77.7275ZM90.2236 108.5V101.056H91.6865V108.5H90.2236ZM90.9551 99.75C90.4082 99.75 90.0049 99.3604 90.0049 98.8545C90.0049 98.3418 90.4082 97.9521 90.9551 97.9521C91.502 97.9521 91.9053 98.3418 91.9053 98.8545C91.9053 99.3604 91.502 99.75 90.9551 99.75ZM96.6289 105.861H96.5195L94.8926 108.5H93.2793L95.7471 104.795L93.2588 101.056H94.9746L96.5742 103.681H96.6904L98.2764 101.056H99.9102L97.4561 104.733L99.9375 108.5H98.249L96.6289 105.861ZM102.979 101.056V108.808C102.979 110.332 102.193 111.043 100.58 111.043C100.525 111.043 100.286 111.043 100.252 111.036V109.806C100.272 109.806 100.437 109.806 100.457 109.806C101.243 109.806 101.517 109.512 101.517 108.794V101.056H102.979ZM102.248 99.75C101.701 99.75 101.298 99.3604 101.298 98.8545C101.298 98.3418 101.701 97.9521 102.248 97.9521C102.795 97.9521 103.198 98.3418 103.198 98.8545C103.198 99.3604 102.795 99.75 102.248 99.75ZM104.969 103.161C104.969 101.842 106.179 100.912 107.86 100.912C109.535 100.912 110.629 101.691 110.772 103.004H109.364C109.228 102.457 108.694 102.108 107.86 102.108C107.04 102.108 106.418 102.498 106.418 103.079C106.418 103.523 106.794 103.804 107.601 103.988L108.838 104.275C110.253 104.604 110.916 105.212 110.916 106.306C110.916 107.707 109.61 108.644 107.833 108.644C106.062 108.644 104.907 107.844 104.777 106.524H106.247C106.432 107.099 106.979 107.454 107.867 107.454C108.783 107.454 109.433 107.044 109.433 106.449C109.433 106.005 109.084 105.718 108.339 105.54L107.04 105.239C105.625 104.904 104.969 104.269 104.969 103.161Z" fill="#888888"/>
<defs>
<clipPath id="clip0_1073_19440">
<rect width="80" height="80" fill="white" transform="translate(45.5 7.5)"/>
</clipPath>
</defs>
</svg>
