<svg width="24" height="24" viewBox="0 0 24 24" fill="none" xmlns="http://www.w3.org/2000/svg">
<path d="M20.152 5.74122H17.2116C17.0227 5.74122 16.8702 5.8937 16.8702 6.0826C16.8702 6.27149 17.0227 6.42398 17.2116 6.42398H19.9953C20.1933 6.42398 20.0938 6.8709 20.0938 7.0689L20.152 15.3271L16.3012 15.2998C16.1123 15.2998 15.9599 15.4523 15.9599 15.6412C15.9599 15.8301 16.1123 15.9826 16.3012 15.9826H20.152V17.3103C20.152 17.5083 20.2917 17.6896 20.0938 17.6896L11.7495 17.6713L3.40409 17.6896C3.20609 17.6896 2.98745 17.8693 2.98745 17.6713V15.9826H7.19779C7.38669 15.9826 7.53917 15.8301 7.53917 15.6412C7.53917 15.4523 7.38669 15.2998 7.19779 15.2998L3.34703 15.3271V10.978V7.0689C3.34703 6.8709 3.30899 6.42398 3.50699 6.42398H6.28745C6.47634 6.42398 6.62883 6.27149 6.62883 6.0826C6.62883 5.8937 6.47634 5.74122 6.28745 5.74122H3.34703C3.07059 5.74122 2.80546 5.85104 2.60998 6.04651C2.41451 6.24199 2.30469 6.50711 2.30469 6.78356V17.6713C2.30469 17.9477 2.41451 18.2129 2.60998 18.4083C2.80546 18.6038 3.07059 18.7136 3.34703 18.7136H10.0426V20.7619H9.01848C8.82958 20.7619 8.6771 20.9144 8.6771 21.1033C8.6771 21.2922 8.82958 21.4447 9.01848 21.4447H14.4805C14.6694 21.4447 14.8219 21.2922 14.8219 21.1033C14.8219 20.9144 14.6694 20.7619 14.4805 20.7619H13.4564V18.7136H20.152C20.4284 18.7136 20.6936 18.6038 20.889 18.4083C21.0845 18.2129 21.1943 17.9477 21.1943 17.6713V6.78356C21.1943 6.50711 21.0845 6.24199 20.889 6.04651C20.6936 5.85104 20.4284 5.74122 20.152 5.74122ZM12.7737 20.7619H10.7254V18.7136H12.7737V20.7619ZM11.7495 13.7067C12.9421 13.7067 13.9116 12.7372 13.9116 11.5447C13.9116 10.3521 12.9421 9.3826 11.7495 9.3826C10.557 9.3826 9.58745 10.3521 9.58745 11.5447C9.58745 12.7372 10.557 13.7067 11.7495 13.7067ZM11.7495 10.0654C12.5643 10.0654 13.2288 10.7299 13.2288 11.5447C13.2288 12.3594 12.5643 13.024 11.7495 13.024C10.9348 13.024 10.2702 12.3594 10.2702 11.5447C10.2702 10.7299 10.9348 10.0654 11.7495 10.0654ZM5.83227 5.05846C6.14179 5.05846 6.424 4.94467 6.64476 4.75804L8.22193 5.80949V8.15363L7.86689 8.50867C7.744 8.63156 7.67572 8.79542 7.67572 8.97066C7.67572 9.14591 7.744 9.30977 7.86689 9.43267L8.19007 9.75584C8.10358 9.92653 8.02848 10.1063 7.96703 10.2929H7.50958C7.15 10.2929 6.85641 10.5865 6.85641 10.9461V12.1432C6.85641 12.5028 7.15 12.7964 7.50958 12.7964H7.96703C8.02848 12.9807 8.10358 13.1628 8.19007 13.3335L7.86689 13.6567C7.74448 13.7793 7.67573 13.9454 7.67573 14.1187C7.67573 14.2919 7.74448 14.4581 7.86689 14.5807L8.71351 15.4273C8.83611 15.5497 9.00227 15.6185 9.17551 15.6185C9.34876 15.6185 9.51492 15.5497 9.63752 15.4273L9.96069 15.1041C10.1314 15.1906 10.3112 15.2657 10.4978 15.3271V15.7846C10.4978 16.1442 10.7914 16.4378 11.151 16.4378H12.3481C12.7077 16.4378 13.0012 16.1442 13.0012 15.7846V15.3271C13.1856 15.2657 13.3654 15.1906 13.5383 15.1041L13.8615 15.4273C13.9841 15.5497 14.1503 15.6185 14.3235 15.6185C14.4968 15.6185 14.6629 15.5497 14.7855 15.4273L15.6321 14.5807C15.7545 14.4581 15.8233 14.2919 15.8233 14.1187C15.8233 13.9454 15.7545 13.7793 15.6321 13.6567L15.309 13.3335C15.3954 13.1605 15.4705 12.9807 15.532 12.7964H15.9894C16.349 12.7964 16.6426 12.5028 16.6426 12.1432V10.9461C16.6426 10.5865 16.349 10.2929 15.9894 10.2929H15.532C15.4705 10.1086 15.3954 9.9288 15.309 9.75584L15.6321 9.43267C15.755 9.30977 15.8233 9.14591 15.8233 8.97066C15.8233 8.79542 15.755 8.63156 15.6321 8.50867L15.2771 8.15363V5.80949L16.8543 4.75804C17.075 4.94467 17.3572 5.05846 17.6668 5.05846C18.3563 5.05846 18.9185 4.49632 18.9185 3.80673C18.9185 3.11715 18.3563 2.55501 17.6668 2.55501C16.9772 2.55501 16.415 3.11715 16.415 3.80673C16.415 3.94101 16.4378 4.06846 16.4765 4.19136L14.7468 5.34522C14.6512 5.40667 14.5943 5.51363 14.5943 5.62742V7.53232C14.3531 7.42308 14.0595 7.46404 13.8615 7.66205L13.5383 7.98522C13.3654 7.89873 13.1856 7.82363 13.0012 7.76218V7.30473C13.0012 6.94515 12.7077 6.65156 12.3481 6.65156H12.0909V5.01067C12.6143 4.86046 13.0012 4.38025 13.0012 3.80673C13.0012 3.11715 12.4391 2.55501 11.7495 2.55501C11.0599 2.55501 10.4978 3.11715 10.4978 3.80673C10.4978 4.37798 10.8847 4.86046 11.4081 5.01067V6.65156H11.151C10.7914 6.65156 10.4978 6.94515 10.4978 7.30473V7.76218C10.3134 7.82363 10.1337 7.89873 9.96069 7.98522L9.63752 7.66205C9.5431 7.56839 9.42234 7.50579 9.29138 7.4826C9.16043 7.45942 9.02552 7.47677 8.90469 7.53232V5.62742C8.90469 5.51363 8.84779 5.40667 8.7522 5.34294L7.02255 4.18908C7.06124 4.06846 7.084 3.93873 7.084 3.80446C7.084 3.11487 6.52186 2.55273 5.83227 2.55273C5.14269 2.55273 4.58055 3.11487 4.58055 3.80446C4.58055 4.49404 5.14269 5.05846 5.83227 5.05846ZM17.6668 3.23777C17.8177 3.23777 17.9624 3.29771 18.0691 3.40442C18.1758 3.51112 18.2357 3.65584 18.2357 3.80673C18.2357 3.95763 18.1758 4.10235 18.0691 4.20905C17.9624 4.31576 17.8177 4.3757 17.6668 4.3757C17.5159 4.3757 17.3711 4.31576 17.2644 4.20905C17.1577 4.10235 17.0978 3.95763 17.0978 3.80673C17.0978 3.65584 17.1577 3.51112 17.2644 3.40442C17.3711 3.29771 17.5159 3.23777 17.6668 3.23777ZM11.1805 3.80673C11.1805 3.65584 11.2405 3.51112 11.3472 3.40442C11.4539 3.29771 11.5986 3.23777 11.7495 3.23777C11.9004 3.23777 12.0451 3.29771 12.1518 3.40442C12.2585 3.51112 12.3185 3.65584 12.3185 3.80673C12.3185 3.95763 12.2585 4.10235 12.1518 4.20905C12.0451 4.31576 11.9004 4.3757 11.7495 4.3757C11.5986 4.3757 11.4539 4.31576 11.3472 4.20905C11.2405 4.10235 11.1805 3.95763 11.1805 3.80673ZM9.49186 8.48136C9.69214 8.68163 9.99483 8.7317 10.2452 8.60425C10.4022 8.5246 10.5661 8.45632 10.7345 8.4017C10.8649 8.3592 10.9784 8.27631 11.0586 8.16503C11.1388 8.05374 11.1815 7.91983 11.1805 7.78267V7.33432H12.3185V7.78267C12.3185 8.06715 12.4983 8.31522 12.7645 8.4017C12.933 8.45632 13.0968 8.5246 13.2539 8.60425C13.5019 8.7317 13.8069 8.68163 14.0072 8.48136L14.3235 8.16501L15.1292 8.97066L14.8128 9.28701C14.6125 9.48729 14.5625 9.78998 14.6899 10.0403C14.7696 10.1974 14.8379 10.3612 14.8925 10.5296C14.935 10.66 15.0179 10.7736 15.1292 10.8538C15.2404 10.9339 15.3744 10.9767 15.5115 10.9757H15.9599V12.1136H15.5115C15.227 12.1136 14.979 12.2934 14.8925 12.5597C14.8379 12.7281 14.7696 12.892 14.6899 13.049C14.5625 13.2994 14.6125 13.602 14.8128 13.8023L15.1292 14.1187L14.3235 14.9243L14.0049 14.6057C13.8046 14.4054 13.4997 14.3554 13.2493 14.4851C13.0945 14.5647 12.9307 14.633 12.7645 14.6876C12.4983 14.7741 12.3208 15.0222 12.3208 15.3067V15.755H11.1828V15.3067C11.1828 15.0222 11.003 14.7741 10.739 14.6876C10.5706 14.633 10.4068 14.5647 10.252 14.4851C10.1293 14.4228 9.98997 14.4011 9.85414 14.4232C9.71831 14.4453 9.59303 14.51 9.49641 14.608L9.17779 14.9266L8.37214 14.1209L8.69076 13.8023C8.89331 13.5998 8.9411 13.2971 8.81138 13.0467C8.73172 12.892 8.66345 12.7281 8.60883 12.5597C8.52234 12.2934 8.27427 12.1159 7.98979 12.1159H7.53917V10.978H7.98752C8.272 10.978 8.52007 10.7982 8.60655 10.5342C8.66117 10.3658 8.72945 10.2019 8.8091 10.0471C8.93883 9.7968 8.88876 9.49411 8.68848 9.29156L8.36986 8.97294L9.17551 8.16729L9.49186 8.48136ZM5.83227 3.23777C5.98317 3.23777 6.12789 3.29771 6.23459 3.40442C6.34129 3.51112 6.40124 3.65584 6.40124 3.80673C6.40124 3.95763 6.34129 4.10235 6.23459 4.20905C6.12789 4.31576 5.98317 4.3757 5.83227 4.3757C5.68137 4.3757 5.53666 4.31576 5.42995 4.20905C5.32325 4.10235 5.26331 3.95763 5.26331 3.80673C5.26331 3.65584 5.32325 3.51112 5.42995 3.40442C5.53666 3.29771 5.68137 3.23777 5.83227 3.23777Z" fill="white"/>
</svg>
