<svg width="30" height="31" viewBox="0 0 30 31" fill="none" xmlns="http://www.w3.org/2000/svg">
<path d="M15 21.9333C14.337 21.9333 13.7011 21.67 13.2322 21.2011C12.7634 20.7323 12.5 20.0964 12.5 19.4333C12.5 18.0458 13.6125 16.9333 15 16.9333C15.663 16.9333 16.2989 17.1967 16.7678 17.6656C17.2366 18.1344 17.5 18.7703 17.5 19.4333C17.5 20.0964 17.2366 20.7323 16.7678 21.2011C16.2989 21.67 15.663 21.9333 15 21.9333ZM22.5 25.6833V13.1833H7.5V25.6833H22.5ZM22.5 10.6833C23.163 10.6833 23.7989 10.9467 24.2678 11.4156C24.7366 11.8844 25 12.5203 25 13.1833V25.6833C25 26.3464 24.7366 26.9823 24.2678 27.4511C23.7989 27.92 23.163 28.1833 22.5 28.1833H7.5C6.83696 28.1833 6.20107 27.92 5.73223 27.4511C5.26339 26.9823 5 26.3464 5 25.6833V13.1833C5 11.7958 6.1125 10.6833 7.5 10.6833H8.75V8.18335C8.75 6.52575 9.40848 4.93603 10.5806 3.76393C11.7527 2.59183 13.3424 1.93335 15 1.93335C15.8208 1.93335 16.6335 2.09501 17.3918 2.4091C18.1501 2.72319 18.839 3.18357 19.4194 3.76393C19.9998 4.3443 20.4602 5.03329 20.7742 5.79158C21.0883 6.54986 21.25 7.36259 21.25 8.18335V10.6833H22.5ZM15 4.43335C14.0054 4.43335 13.0516 4.82844 12.3483 5.5317C11.6451 6.23496 11.25 7.18879 11.25 8.18335V10.6833H18.75V8.18335C18.75 7.18879 18.3549 6.23496 17.6516 5.5317C16.9484 4.82844 15.9946 4.43335 15 4.43335Z" fill="white"/>
</svg>
