<svg width="171" height="120" viewBox="0 0 171 120" fill="none" xmlns="http://www.w3.org/2000/svg">
<rect width="171" height="120" fill="white"/>
<path fill-rule="evenodd" clip-rule="evenodd" d="M50.5 63.5475H62.89L59.05 75H50.5V63.5475ZM50.5 41.775H70.1875L66.35 53.225H50.5V41.775ZM50.5 20H77.485L73.6475 31.4525H50.5V20ZM89.6975 20H120.5V31.4525H85.8575L89.6975 20ZM78.56 53.2275L82.4 41.775H120.5V53.2275H78.56ZM75.1025 63.5475H120.5V75H71.2625L75.1025 63.5475Z" fill="#FD5750"/>
<path d="M50.7598 105.848H52.2773C52.4072 106.784 53.3232 107.379 54.6426 107.379C55.873 107.379 56.7754 106.743 56.7754 105.868C56.7754 105.116 56.2012 104.665 54.8955 104.357L53.624 104.05C51.8398 103.633 51.0264 102.771 51.0264 101.322C51.0264 99.5654 52.4619 98.3965 54.6152 98.3965C56.6182 98.3965 58.0811 99.5654 58.1699 101.227H56.6797C56.5361 100.317 55.7432 99.75 54.5947 99.75C53.3848 99.75 52.5781 100.331 52.5781 101.22C52.5781 101.924 53.0977 102.327 54.3828 102.628L55.4697 102.895C57.4932 103.366 58.3271 104.187 58.3271 105.67C58.3271 107.557 56.8643 108.739 54.5264 108.739C52.3389 108.739 50.8691 107.611 50.7598 105.848ZM63.2285 102.163C62.1416 102.163 61.3828 102.929 61.3008 104.091H65.0605C65.0264 102.922 64.3154 102.163 63.2285 102.163ZM65.0537 106.49H66.4688C66.1338 107.823 64.9443 108.644 63.2422 108.644C61.1094 108.644 59.8037 107.181 59.8037 104.802C59.8037 102.423 61.1367 100.912 63.2354 100.912C65.3066 100.912 66.5576 102.327 66.5576 104.665V105.178H61.3008V105.26C61.3486 106.565 62.1074 107.393 63.2832 107.393C64.1719 107.393 64.7803 107.071 65.0537 106.49ZM68.3213 108.5V101.056H69.7363V102.197H69.8457C70.0576 101.466 70.8848 100.933 71.8555 100.933C72.0742 100.933 72.3545 100.953 72.5117 100.994V102.443C72.3887 102.402 71.9512 102.354 71.6914 102.354C70.5771 102.354 69.791 103.059 69.791 104.104V108.5H68.3213ZM80.2705 101.056L77.5908 108.5H76.0117L73.3252 101.056H74.8975L76.75 106.928H76.8662L78.7119 101.056H80.2705ZM84.5293 102.163C83.4424 102.163 82.6836 102.929 82.6016 104.091H86.3613C86.3271 102.922 85.6162 102.163 84.5293 102.163ZM86.3545 106.49H87.7695C87.4346 107.823 86.2451 108.644 84.543 108.644C82.4102 108.644 81.1045 107.181 81.1045 104.802C81.1045 102.423 82.4375 100.912 84.5361 100.912C86.6074 100.912 87.8584 102.327 87.8584 104.665V105.178H82.6016V105.26C82.6494 106.565 83.4082 107.393 84.584 107.393C85.4727 107.393 86.0811 107.071 86.3545 106.49ZM89.6221 108.5V101.056H91.0371V102.197H91.1465C91.3584 101.466 92.1855 100.933 93.1562 100.933C93.375 100.933 93.6553 100.953 93.8125 100.994V102.443C93.6895 102.402 93.252 102.354 92.9922 102.354C91.8779 102.354 91.0918 103.059 91.0918 104.104V108.5H89.6221ZM95.2959 108.5V98.1504H96.7656V108.5H95.2959ZM102.029 102.163C100.942 102.163 100.184 102.929 100.102 104.091H103.861C103.827 102.922 103.116 102.163 102.029 102.163ZM103.854 106.49H105.27C104.935 107.823 103.745 108.644 102.043 108.644C99.9102 108.644 98.6045 107.181 98.6045 104.802C98.6045 102.423 99.9375 100.912 102.036 100.912C104.107 100.912 105.358 102.327 105.358 104.665V105.178H100.102V105.26C100.149 106.565 100.908 107.393 102.084 107.393C102.973 107.393 103.581 107.071 103.854 106.49ZM106.951 103.161C106.951 101.842 108.161 100.912 109.843 100.912C111.518 100.912 112.611 101.691 112.755 103.004H111.347C111.21 102.457 110.677 102.108 109.843 102.108C109.022 102.108 108.4 102.498 108.4 103.079C108.4 103.523 108.776 103.804 109.583 103.988L110.82 104.275C112.235 104.604 112.898 105.212 112.898 106.306C112.898 107.707 111.593 108.644 109.815 108.644C108.045 108.644 106.89 107.844 106.76 106.524H108.229C108.414 107.099 108.961 107.454 109.85 107.454C110.766 107.454 111.415 107.044 111.415 106.449C111.415 106.005 111.066 105.718 110.321 105.54L109.022 105.239C107.607 104.904 106.951 104.269 106.951 103.161ZM114.361 103.161C114.361 101.842 115.571 100.912 117.253 100.912C118.928 100.912 120.021 101.691 120.165 103.004H118.757C118.62 102.457 118.087 102.108 117.253 102.108C116.433 102.108 115.811 102.498 115.811 103.079C115.811 103.523 116.187 103.804 116.993 103.988L118.23 104.275C119.646 104.604 120.309 105.212 120.309 106.306C120.309 107.707 119.003 108.644 117.226 108.644C115.455 108.644 114.3 107.844 114.17 106.524H115.64C115.824 107.099 116.371 107.454 117.26 107.454C118.176 107.454 118.825 107.044 118.825 106.449C118.825 106.005 118.477 105.718 117.731 105.54L116.433 105.239C115.018 104.904 114.361 104.269 114.361 103.161Z" fill="#888888"/>
</svg>
