<svg width="171" height="120" viewBox="0 0 171 120" fill="none" xmlns="http://www.w3.org/2000/svg">
<rect width="171" height="120" fill="white"/>
<g clip-path="url(#clip0_1073_19408)">
<path d="M125.508 26.0511C125.508 26.0511 98.8411 6.42859 78.2123 10.9567L76.703 11.4598C73.6842 12.4661 71.1686 13.9755 69.6592 15.988L68.653 17.4973L61.1055 30.5792L74.1867 33.0948C79.7217 36.6173 86.7661 38.1261 93.3067 36.6173L116.451 41.1455L125.508 26.0511Z" fill="#76B3E1"/>
<path opacity="0.3" d="M125.508 26.0511C125.508 26.0511 98.8411 6.42859 78.2123 10.9567L76.703 11.4598C73.6842 12.4661 71.1686 13.9755 69.6592 15.988L68.653 17.4973L61.1055 30.5792L74.1867 33.0948C79.7217 36.6173 86.7661 38.1261 93.3067 36.6173L116.451 41.1455L125.508 26.0511Z" fill="url(#paint0_linear_1073_19408)"/>
<path d="M69.6511 26.0519L67.6386 26.5551C59.0842 29.0707 56.5686 37.1213 61.0967 44.1651C66.1279 50.7057 76.6942 54.2276 85.2473 51.7126L116.442 41.1463C116.442 41.1463 89.7767 21.5238 69.6511 26.0519Z" fill="#518AC8"/>
<path opacity="0.3" d="M69.6511 26.0519L67.6386 26.5551C59.0842 29.0707 56.5686 37.1213 61.0967 44.1651C66.1279 50.7057 76.6942 54.2276 85.2473 51.7126L116.442 41.1463C116.442 41.1463 89.7767 21.5238 69.6511 26.0519Z" fill="url(#paint1_linear_1073_19408)"/>
<path d="M110.909 48.6927C108.092 45.1738 104.288 42.5756 99.986 41.231C95.6835 39.8865 91.0777 39.8566 86.7581 41.1452L55.5625 51.2077L45.5 68.8184L101.852 78.3777L111.915 60.2646C113.927 56.7427 113.424 52.7177 110.909 48.6921V48.6927Z" fill="url(#paint2_linear_1073_19408)"/>
<path d="M100.846 66.3021C98.0285 62.7832 94.2252 60.1852 89.9228 58.8408C85.6203 57.4963 81.0145 57.4665 76.695 58.7552L45.5 68.8177C45.5 68.8177 72.1669 88.944 92.7956 83.9127L94.305 83.409C102.859 80.8933 105.878 72.8427 100.846 66.3021Z" fill="url(#paint3_linear_1073_19408)"/>
</g>
<path d="M63.8096 105.848H65.3271C65.457 106.784 66.373 107.379 67.6924 107.379C68.9229 107.379 69.8252 106.743 69.8252 105.868C69.8252 105.116 69.251 104.665 67.9453 104.357L66.6738 104.05C64.8896 103.633 64.0762 102.771 64.0762 101.322C64.0762 99.5654 65.5117 98.3965 67.665 98.3965C69.668 98.3965 71.1309 99.5654 71.2197 101.227H69.7295C69.5859 100.317 68.793 99.75 67.6445 99.75C66.4346 99.75 65.6279 100.331 65.6279 101.22C65.6279 101.924 66.1475 102.327 67.4326 102.628L68.5195 102.895C70.543 103.366 71.377 104.187 71.377 105.67C71.377 107.557 69.9141 108.739 67.5762 108.739C65.3887 108.739 63.9189 107.611 63.8096 105.848ZM76.3672 108.644C74.1865 108.644 72.8535 107.188 72.8535 104.774C72.8535 102.375 74.1934 100.912 76.3672 100.912C78.5342 100.912 79.874 102.375 79.874 104.774C79.874 107.188 78.541 108.644 76.3672 108.644ZM76.3672 107.338C77.6387 107.338 78.3633 106.395 78.3633 104.774C78.3633 103.161 77.6387 102.218 76.3672 102.218C75.0889 102.218 74.3711 103.161 74.3711 104.774C74.3711 106.401 75.0889 107.338 76.3672 107.338ZM81.7129 108.5V98.1504H83.1826V108.5H81.7129ZM85.418 108.5V101.056H86.8809V108.5H85.418ZM86.1494 99.75C85.6025 99.75 85.1992 99.3604 85.1992 98.8545C85.1992 98.3418 85.6025 97.9521 86.1494 97.9521C86.6963 97.9521 87.0996 98.3418 87.0996 98.8545C87.0996 99.3604 86.6963 99.75 86.1494 99.75ZM91.7617 108.623C89.8682 108.623 88.6719 107.133 88.6719 104.774C88.6719 102.423 89.8818 100.933 91.7617 100.933C92.7803 100.933 93.6416 101.418 94.0449 102.238H94.1543V98.1504H95.624V108.5H94.2158V107.324H94.0996C93.6553 108.138 92.7871 108.623 91.7617 108.623ZM92.1787 102.252C90.9414 102.252 90.1895 103.209 90.1895 104.774C90.1895 106.354 90.9346 107.304 92.1787 107.304C93.416 107.304 94.1816 106.34 94.1816 104.781C94.1816 103.229 93.4092 102.252 92.1787 102.252ZM99.3223 101.056V108.808C99.3223 110.332 98.5361 111.043 96.9229 111.043C96.8682 111.043 96.6289 111.043 96.5947 111.036V109.806C96.6152 109.806 96.7793 109.806 96.7998 109.806C97.5859 109.806 97.8594 109.512 97.8594 108.794V101.056H99.3223ZM98.5908 99.75C98.0439 99.75 97.6406 99.3604 97.6406 98.8545C97.6406 98.3418 98.0439 97.9521 98.5908 97.9521C99.1377 97.9521 99.541 98.3418 99.541 98.8545C99.541 99.3604 99.1377 99.75 98.5908 99.75ZM101.312 103.161C101.312 101.842 102.521 100.912 104.203 100.912C105.878 100.912 106.972 101.691 107.115 103.004H105.707C105.57 102.457 105.037 102.108 104.203 102.108C103.383 102.108 102.761 102.498 102.761 103.079C102.761 103.523 103.137 103.804 103.943 103.988L105.181 104.275C106.596 104.604 107.259 105.212 107.259 106.306C107.259 107.707 105.953 108.644 104.176 108.644C102.405 108.644 101.25 107.844 101.12 106.524H102.59C102.774 107.099 103.321 107.454 104.21 107.454C105.126 107.454 105.775 107.044 105.775 106.449C105.775 106.005 105.427 105.718 104.682 105.54L103.383 105.239C101.968 104.904 101.312 104.269 101.312 103.161Z" fill="#888888"/>
<defs>
<linearGradient id="paint0_linear_1073_19408" x1="57.3319" y1="9.95052" x2="119.973" y2="40.3907" gradientUnits="userSpaceOnUse">
<stop offset="0.1" stop-color="#76B3E1"/>
<stop offset="0.3" stop-color="#DCF2FD"/>
<stop offset="1" stop-color="#76B3E1"/>
</linearGradient>
<linearGradient id="paint1_linear_1073_19408" x1="91.6885" y1="24.8444" x2="80.72" y2="61.3726" gradientUnits="userSpaceOnUse">
<stop stop-color="#76B3E1"/>
<stop offset="0.5" stop-color="#4377BB"/>
<stop offset="1" stop-color="#1F3B77"/>
</linearGradient>
<linearGradient id="paint2_linear_1073_19408" x1="52.7453" y1="40.7427" x2="116.091" y2="83.8118" gradientUnits="userSpaceOnUse">
<stop stop-color="#315AA9"/>
<stop offset="0.5" stop-color="#518AC8"/>
<stop offset="1" stop-color="#315AA9"/>
</linearGradient>
<linearGradient id="paint3_linear_1073_19408" x1="81.3239" y1="45.9251" x2="55.7642" y2="139.661" gradientUnits="userSpaceOnUse">
<stop stop-color="#4377BB"/>
<stop offset="0.5" stop-color="#1A336B"/>
<stop offset="1" stop-color="#1A336B"/>
</linearGradient>
<clipPath id="clip0_1073_19408">
<rect width="80" height="80" fill="white" transform="translate(45.5 7.5)"/>
</clipPath>
</defs>
</svg>
