<svg width="24" height="24" viewBox="0 0 24 24" fill="none" xmlns="http://www.w3.org/2000/svg">
<path d="M20.4031 9.27323H18.9806C18.8875 9.27505 18.7988 9.31331 18.7336 9.37981C18.6684 9.4463 18.6319 9.53571 18.6319 9.62884C18.6319 9.72197 18.6684 9.81139 18.7337 9.87788C18.7989 9.94436 18.8875 9.98263 18.9807 9.98444H20.4031C20.4962 9.98262 20.5849 9.94436 20.6501 9.87787C20.7153 9.81138 20.7518 9.72196 20.7518 9.62883C20.7518 9.5357 20.7153 9.44629 20.6501 9.3798C20.5849 9.31331 20.4962 9.27505 20.4031 9.27323ZM19.7592 5.12024C19.7192 5.0349 19.647 4.9689 19.5584 4.93669C19.4698 4.90447 19.3721 4.90866 19.2866 4.94834L17.9972 5.54946C17.9117 5.58934 17.8456 5.66154 17.8133 5.75018C17.7811 5.83882 17.7854 5.93663 17.8253 6.0221C17.8651 6.10757 17.9373 6.1737 18.026 6.20593C18.1146 6.23817 18.2124 6.23388 18.2979 6.194L19.5873 5.59287C19.6728 5.55297 19.7389 5.48077 19.7711 5.39214C19.8033 5.30351 19.7991 5.20572 19.7592 5.12024ZM16.0771 3.04704L16.9915 1.95766C17.05 1.88521 17.0777 1.79271 17.0687 1.70005C17.0597 1.60738 17.0147 1.52195 16.9434 1.4621C16.8721 1.40225 16.7801 1.37276 16.6873 1.37998C16.5945 1.38719 16.5082 1.43053 16.447 1.50067L15.5326 2.59004C15.4741 2.66249 15.4463 2.75501 15.4553 2.84772C15.4642 2.94043 15.5092 3.02592 15.5806 3.08579C15.6519 3.14567 15.7439 3.17516 15.8368 3.16791C15.9296 3.16066 16.0159 3.11726 16.0771 3.04704ZM10.0906 2.1622C2.29537 2.24822 -0.21117 12.5872 6.61528 16.2405C6.05449 16.6367 6.02033 17.6644 6.45638 18.1633C6.33903 18.3124 6.25379 18.4841 6.20605 18.6677C6.1583 18.8513 6.14907 19.0428 6.17895 19.2301C6.17924 19.513 6.29173 19.7841 6.49172 19.9841C6.69172 20.1841 6.96288 20.2966 7.24572 20.2969H8.3126C8.38602 22.6483 11.7957 22.6472 11.8685 20.2969H12.9354C13.2182 20.2966 13.4894 20.1841 13.6894 19.9841C13.8894 19.7841 14.0019 19.513 14.0022 19.2301C14.032 19.0428 14.0228 18.8513 13.975 18.6677C13.9273 18.4841 13.842 18.3124 13.7247 18.1633C14.1599 17.6691 14.1259 16.6311 13.5658 16.2405C20.3959 12.584 17.8808 2.24655 10.0906 2.1622ZM12.3065 16.7409H12.9354C13.0297 16.741 13.1201 16.7785 13.1868 16.8451C13.2534 16.9118 13.2909 17.0022 13.291 17.0965V17.4521C13.2909 17.5464 13.2534 17.6368 13.1868 17.7035C13.1201 17.7702 13.0297 17.8077 12.9354 17.8077H7.24572C7.15143 17.8077 7.06102 17.7702 6.99434 17.7035C6.92767 17.6368 6.89018 17.5464 6.89012 17.4521V17.0965C6.89018 17.0022 6.92767 16.9118 6.99434 16.8451C7.06102 16.7785 7.15143 16.741 7.24572 16.7409H12.3065ZM11.1574 20.298C11.1541 20.5788 11.0402 20.8471 10.8404 21.0445C10.6406 21.2419 10.371 21.3526 10.0901 21.3524C9.80922 21.3523 9.53972 21.2414 9.3401 21.0438C9.14048 20.8462 9.02685 20.5778 9.02387 20.2969L11.1574 20.298ZM13.291 19.2301C13.2909 19.3244 13.2534 19.4148 13.1868 19.4815C13.1201 19.5482 13.0297 19.5857 12.9354 19.5857H7.24572C7.15143 19.5857 7.06102 19.5482 6.99434 19.4815C6.92767 19.4148 6.89018 19.3244 6.89012 19.2301V18.8745C6.89018 18.7802 6.92767 18.6898 6.99434 18.6231C7.06102 18.5565 7.15143 18.519 7.24572 18.5189H12.9354C13.0297 18.519 13.1201 18.5565 13.1868 18.6231C13.2534 18.6898 13.2909 18.7802 13.291 18.8745V19.2301ZM12.2526 16.0297H7.92848C0.745823 13.4831 2.46759 3.00394 10.0907 2.87343C17.7152 3.00514 19.4342 13.4839 12.2526 16.0297Z" fill="white"/>
<path d="M10.4986 4.65036C10.097 4.59444 9.68809 4.6246 9.29903 4.73884C8.90998 4.85308 8.54967 5.04878 8.24205 5.31295C7.93443 5.57712 7.68653 5.90371 7.51482 6.27104C7.3431 6.63837 7.2515 7.03803 7.24609 7.44348V7.85079C7.24926 8.13164 7.36305 8.39992 7.56278 8.59741C7.7625 8.79489 8.03205 8.90565 8.31292 8.90564C8.59379 8.90564 8.86334 8.79487 9.06305 8.59738C9.26277 8.39989 9.37656 8.13161 9.37971 7.85076V7.44345C9.37985 7.26865 9.44932 7.10104 9.57289 6.9774C9.69646 6.85377 9.86403 6.78421 10.0388 6.78398H10.4986C10.6734 6.78421 10.841 6.85378 10.9646 6.97741C11.0881 7.10104 11.1576 7.26865 11.1577 7.44345V7.85079C11.1464 8.01519 11.0833 8.17176 10.9773 8.29794C10.8713 8.42413 10.728 8.51343 10.568 8.55296C9.51839 9.05272 8.57845 10.5999 9.24419 11.6929C9.00466 11.871 8.82733 12.12 8.73741 12.4045C8.6475 12.6891 8.64957 12.9948 8.74333 13.2781C8.83709 13.5615 9.01777 13.8081 9.2597 13.9828C9.50162 14.1576 9.79247 14.2517 10.0909 14.2517C10.3894 14.2517 10.6802 14.1576 10.9221 13.9828C11.1641 13.8081 11.3448 13.5615 11.4385 13.2781C11.5323 12.9948 11.5343 12.6891 11.4444 12.4045C11.3545 12.12 11.1772 11.871 10.9376 11.6929C11.2754 11.3304 11.0026 10.6964 11.5217 10.4619C14.3529 9.33173 13.6742 4.63133 10.4986 4.65036ZM10.0909 13.5405C9.90408 13.5377 9.72582 13.4616 9.59465 13.3285C9.46349 13.1954 9.38996 13.0161 9.38996 12.8292C9.38997 12.6424 9.4635 12.463 9.59467 12.3299C9.72584 12.1969 9.90411 12.1207 10.091 12.118C10.2778 12.1207 10.4561 12.1969 10.5872 12.33C10.7184 12.463 10.7919 12.6424 10.7919 12.8293C10.7919 13.0161 10.7184 13.1955 10.5872 13.3285C10.456 13.4616 10.2778 13.5377 10.0909 13.5405ZM12.5801 7.85079C12.5768 8.28044 12.4435 8.699 12.1978 9.05148C11.9521 9.40395 11.6055 9.67385 11.2036 9.8257C10.9754 9.93879 10.7836 10.1136 10.6498 10.3302C10.516 10.5468 10.4455 10.7966 10.4465 11.0512C10.4465 11.1455 10.4091 11.236 10.3424 11.3027C10.2757 11.3694 10.1852 11.4068 10.0909 11.4068C9.99661 11.4068 9.90616 11.3694 9.83947 11.3027C9.77278 11.236 9.73532 11.1455 9.73532 11.0512C9.73404 10.6644 9.84113 10.2849 10.0445 9.95579C10.2478 9.62668 10.5393 9.36111 10.8858 9.18917C11.1678 9.09482 11.4136 8.91553 11.5897 8.6759C11.7657 8.43627 11.8632 8.14805 11.8689 7.85078V7.44345C11.8686 7.0801 11.7241 6.73174 11.4672 6.47478C11.2103 6.21782 10.862 6.07325 10.4986 6.07278H10.0388C9.67547 6.07325 9.32715 6.21782 9.07026 6.47478C8.81337 6.73174 8.66889 7.0801 8.66851 7.44345V7.85079C8.66712 7.94419 8.62905 8.0333 8.56251 8.09886C8.49597 8.16441 8.40631 8.20116 8.3129 8.20116C8.2195 8.20116 8.12984 8.16441 8.0633 8.09886C7.99676 8.0333 7.95869 7.94419 7.9573 7.85079C7.62325 4.4955 12.9087 4.49363 12.5801 7.85079Z" fill="white"/>
</svg>
