<svg width="30" height="31" viewBox="0 0 30 31" fill="none" xmlns="http://www.w3.org/2000/svg">
<path d="M12.2665 20.6725L11.25 24.2302L10.2335 20.6725C9.6996 18.8038 8.23891 17.3431 6.37024 16.8092L2.8125 15.7927L6.37024 14.7762C8.23891 14.2423 9.6996 12.7816 10.2335 10.913L11.25 7.35522L12.2665 10.913C12.8004 12.7816 14.2611 14.2423 16.1298 14.7762L19.6875 15.7927L16.1298 16.8092C14.2611 17.3431 12.8004 18.8038 12.2665 20.6725Z" stroke="#0F172A" stroke-width="1.5" stroke-linecap="round" stroke-linejoin="round"/>
<path d="M22.8236 11.6859L22.5 12.9802L22.1764 11.6859C21.7985 10.1744 20.6183 8.99419 19.1068 8.61631L17.8125 8.29272L19.1068 7.96914C20.6183 7.59126 21.7985 6.41107 22.1764 4.89955L22.5 3.60522L22.8236 4.89955C23.2015 6.41107 24.3817 7.59126 25.8932 7.96914L27.1875 8.29272L25.8932 8.61631C24.3817 8.99419 23.2015 10.1744 22.8236 11.6859Z" stroke="#0F172A" stroke-width="1.5" stroke-linecap="round" stroke-linejoin="round"/>
<path d="M21.1178 26.5018L20.625 27.9802L20.1322 26.5018C19.8523 25.662 19.1932 25.003 18.3534 24.723L16.875 24.2302L18.3534 23.7374C19.1932 23.4575 19.8523 22.7985 20.1322 21.9586L20.625 20.4802L21.1178 21.9586C21.3977 22.7985 22.0568 23.4575 22.8966 23.7374L24.375 24.2302L22.8966 24.723C22.0568 25.003 21.3977 25.662 21.1178 26.5018Z" stroke="#0F172A" stroke-width="1.5" stroke-linecap="round" stroke-linejoin="round"/>
</svg>
