<svg width="171" height="120" viewBox="0 0 171 120" fill="none" xmlns="http://www.w3.org/2000/svg">
<rect width="171" height="120" fill="white"/>
<path d="M112.851 62.1506C104.621 73.1139 87.048 69.4139 75.778 69.9439C75.778 69.9439 73.7813 70.0572 71.7746 70.3872C71.7746 70.3872 72.5346 70.0639 73.5046 69.7272C81.418 66.9906 85.158 66.4406 89.968 63.9706C99.0013 59.3439 107.995 49.2606 109.825 38.7872C106.385 48.8606 95.9246 57.5306 86.4013 61.0506C79.8846 63.4572 68.0946 65.7972 68.0913 65.7972L67.6146 65.5439C59.598 61.6439 59.3646 44.2772 73.928 38.6806C80.3146 36.2272 86.418 37.5739 93.3213 35.9306C100.681 34.1806 109.208 28.6639 112.671 21.4506C116.555 32.9772 121.221 51.0039 112.851 62.1506ZM112.991 17.8839C112.061 20.1166 110.869 22.2313 109.441 24.1839C106.339 20.9858 102.625 18.4435 98.5216 16.7079C94.4177 14.9723 90.0071 14.0789 85.5513 14.0806C67.1413 14.0806 52.168 29.0539 52.168 47.4606C52.1652 52.0521 53.113 56.5945 54.9516 60.8018C56.7902 65.0091 59.4799 68.7903 62.8513 71.9072L63.5846 72.5539C63.0501 72.0185 62.7501 71.2927 62.7506 70.5362C62.7511 69.7796 63.052 69.0543 63.5871 68.5195C64.1223 67.9848 64.848 67.6845 65.6045 67.6846C66.3611 67.6848 67.0866 67.9854 67.6215 68.5203C68.1565 69.0553 68.4571 69.7808 68.4573 70.5374C68.4574 71.2939 68.1571 72.0196 67.6224 72.5547C67.0876 73.0899 66.3622 73.3908 65.6057 73.3913C64.8491 73.3918 64.1234 73.0918 63.588 72.5572L64.0846 72.9972C70.086 78.071 77.6926 80.8515 85.5513 80.8439C103.145 80.8439 117.595 67.1506 118.831 49.8706C119.745 41.4072 117.245 30.6606 112.991 17.8839Z" fill="black"/>
<path d="M46.4736 105.832H47.9912C48.1211 106.768 49.0371 107.363 50.3564 107.363C51.5869 107.363 52.4893 106.727 52.4893 105.852C52.4893 105.1 51.915 104.649 50.6094 104.341L49.3379 104.034C47.5537 103.617 46.7402 102.755 46.7402 101.306C46.7402 99.5493 48.1758 98.3804 50.3291 98.3804C52.332 98.3804 53.7949 99.5493 53.8838 101.21H52.3936C52.25 100.301 51.457 99.7339 50.3086 99.7339C49.0986 99.7339 48.292 100.315 48.292 101.204C48.292 101.908 48.8115 102.311 50.0967 102.612L51.1836 102.878C53.207 103.35 54.041 104.17 54.041 105.654C54.041 107.541 52.5781 108.723 50.2402 108.723C48.0527 108.723 46.583 107.595 46.4736 105.832ZM59.749 100.917C61.6426 100.917 62.8389 102.393 62.8389 104.758C62.8389 107.124 61.6426 108.607 59.7627 108.607C58.7031 108.607 57.8623 108.142 57.4727 107.356H57.3564V110.958H55.8867V101.04H57.3018V102.27H57.4111C57.8623 101.422 58.7373 100.917 59.749 100.917ZM59.332 107.288C60.583 107.288 61.3281 106.337 61.3281 104.758C61.3281 103.186 60.583 102.236 59.3389 102.236C58.1016 102.236 57.3291 103.207 57.3291 104.765C57.3291 106.317 58.1016 107.288 59.332 107.288ZM64.6094 108.484V101.04H66.0244V102.181H66.1338C66.3457 101.45 67.1729 100.917 68.1436 100.917C68.3623 100.917 68.6426 100.937 68.7998 100.978V102.427C68.6768 102.386 68.2393 102.338 67.9795 102.338C66.8652 102.338 66.0791 103.042 66.0791 104.088V108.484H64.6094ZM70.2422 108.484V101.04H71.7051V108.484H70.2422ZM70.9736 99.7339C70.4268 99.7339 70.0234 99.3442 70.0234 98.8384C70.0234 98.3257 70.4268 97.936 70.9736 97.936C71.5205 97.936 71.9238 98.3257 71.9238 98.8384C71.9238 99.3442 71.5205 99.7339 70.9736 99.7339ZM73.8652 108.484V101.04H75.2803V102.222H75.3896C75.752 101.395 76.4902 100.896 77.6113 100.896C79.2725 100.896 80.1885 101.894 80.1885 103.665V108.484H78.7188V104.034C78.7188 102.837 78.1992 102.243 77.1123 102.243C76.0254 102.243 75.335 102.967 75.335 104.129V108.484H73.8652ZM85.377 107.103C86.6348 107.103 87.3936 106.16 87.3936 104.669C87.3936 103.186 86.6279 102.236 85.377 102.236C84.1123 102.236 83.4014 103.186 83.4014 104.669C83.4014 106.153 84.1123 107.103 85.377 107.103ZM85.3975 111.328C83.5381 111.328 82.335 110.494 82.1777 109.229H83.6816C83.8047 109.769 84.4268 110.118 85.418 110.118C86.6416 110.118 87.3662 109.537 87.3662 108.552V107.124H87.2568C86.8057 107.93 85.9854 108.375 84.96 108.375C83.0596 108.375 81.8838 106.905 81.8838 104.676C81.8838 102.407 83.0732 100.917 84.9736 100.917C85.999 100.917 86.8945 101.422 87.3115 102.229H87.4277V101.04H88.8359V108.545C88.8359 110.248 87.5029 111.328 85.3975 111.328ZM99.0215 108.484H94.9678V98.6196H98.9326C100.785 98.6196 101.899 99.563 101.899 101.081C101.899 102.113 101.141 103.036 100.17 103.2V103.316C101.503 103.453 102.392 104.403 102.392 105.688C102.392 107.424 101.127 108.484 99.0215 108.484ZM96.499 99.9185V102.796H98.3174C99.6709 102.796 100.375 102.297 100.375 101.361C100.375 100.452 99.7119 99.9185 98.5771 99.9185H96.499ZM96.499 107.185H98.7139C100.095 107.185 100.826 106.625 100.826 105.579C100.826 104.546 100.067 104.006 98.625 104.006H96.499V107.185ZM107.334 108.627C105.153 108.627 103.82 107.171 103.82 104.758C103.82 102.359 105.16 100.896 107.334 100.896C109.501 100.896 110.841 102.359 110.841 104.758C110.841 107.171 109.508 108.627 107.334 108.627ZM107.334 107.322C108.605 107.322 109.33 106.378 109.33 104.758C109.33 103.145 108.605 102.202 107.334 102.202C106.056 102.202 105.338 103.145 105.338 104.758C105.338 106.385 106.056 107.322 107.334 107.322ZM115.756 108.627C113.575 108.627 112.242 107.171 112.242 104.758C112.242 102.359 113.582 100.896 115.756 100.896C117.923 100.896 119.263 102.359 119.263 104.758C119.263 107.171 117.93 108.627 115.756 108.627ZM115.756 107.322C117.027 107.322 117.752 106.378 117.752 104.758C117.752 103.145 117.027 102.202 115.756 102.202C114.478 102.202 113.76 103.145 113.76 104.758C113.76 106.385 114.478 107.322 115.756 107.322ZM121.553 99.187H123.022V101.074H124.636V102.311H123.022V106.139C123.022 106.918 123.344 107.26 124.075 107.26C124.301 107.26 124.431 107.247 124.636 107.226V108.45C124.396 108.491 124.123 108.525 123.836 108.525C122.202 108.525 121.553 107.951 121.553 106.515V102.311H120.37V101.074H121.553V99.187Z" fill="#888888"/>
</svg>
