<svg width="21" height="20" viewBox="0 0 21 20" fill="none" xmlns="http://www.w3.org/2000/svg">
<g clip-path="url(#clip0_917_22136)">
<g clip-path="url(#clip1_917_22136)">
<path d="M18.8765 7.50416C18.7815 7.21293 18.6029 6.95607 18.3631 6.76548C18.1232 6.57489 17.8327 6.45898 17.5275 6.43216L13.0745 6.04716L11.3325 1.89516C11.2129 1.61252 11.0127 1.37137 10.7569 1.20184C10.501 1.03231 10.2009 0.941895 9.89401 0.941895C9.5871 0.941895 9.28699 1.03231 9.03116 1.20184C8.77533 1.37137 8.57511 1.61252 8.45551 1.89516L6.71151 6.04716L2.25851 6.43216C1.95164 6.45733 1.65905 6.57264 1.41751 6.76359C1.17597 6.95454 0.996256 7.21262 0.900943 7.5054C0.80563 7.79818 0.798972 8.11259 0.881805 8.40914C0.964639 8.7057 1.13327 8.97115 1.36651 9.17216L4.75051 12.1252L3.73451 16.5192C3.66496 16.8184 3.68516 17.1316 3.79259 17.4194C3.90002 17.7073 4.08991 17.9571 4.33853 18.1377C4.58715 18.3182 4.88347 18.4215 5.19044 18.4345C5.49742 18.4476 5.80144 18.3699 6.06451 18.2112L9.89151 15.8862L13.7195 18.2112C13.9826 18.3696 14.2865 18.447 14.5932 18.4338C14.9 18.4206 15.1961 18.3173 15.4446 18.1368C15.693 17.9563 15.8828 17.7066 15.9902 17.4189C16.0976 17.1312 16.1179 16.8183 16.0485 16.5192L15.0325 12.1252L18.4165 9.17216C18.6489 8.97032 18.8165 8.70435 18.8984 8.40762C18.9802 8.11088 18.9726 7.79659 18.8765 7.50416ZM13.6615 10.8342C13.4474 11.0206 13.2881 11.2617 13.2007 11.5318C13.1134 11.8019 13.1012 12.0907 13.1655 12.3672L14.0555 16.2202L10.7005 14.1832C10.4569 14.0349 10.1772 13.9564 9.89201 13.9564C9.60682 13.9564 9.32712 14.0349 9.08351 14.1832L5.72851 16.2202L6.61851 12.3672C6.68295 12.0907 6.67082 11.8019 6.58343 11.5318C6.49604 11.2617 6.33669 11.0205 6.12251 10.8342L3.14651 8.23816L7.06351 7.89816C7.34715 7.87394 7.61872 7.77238 7.84864 7.60452C8.07857 7.43666 8.25803 7.20894 8.36751 6.94616L9.89151 3.31416L11.4155 6.94616C11.5251 7.20888 11.7046 7.43654 11.9345 7.60438C12.1644 7.77223 12.4359 7.87383 12.7195 7.89816L16.6375 8.23816L13.6615 10.8342Z" fill="white"/>
</g>
</g>
<defs>
<clipPath id="clip0_917_22136">
<rect width="20" height="20" fill="white" transform="translate(0.0585938)"/>
</clipPath>
<clipPath id="clip1_917_22136">
<rect width="20" height="20" fill="white" transform="translate(0.0585938)"/>
</clipPath>
</defs>
</svg>
