<svg width="171" height="120" viewBox="0 0 171 120" fill="none" xmlns="http://www.w3.org/2000/svg">
<rect width="171" height="120" fill="white"/>
<g clip-path="url(#clip0_1073_19386)">
<path d="M114.517 18.0851C107.094 7.45257 92.43 4.30132 81.83 11.0601L63.21 22.9351C60.6904 24.516 58.5284 26.6053 56.8625 29.0695C55.1965 31.5337 54.0632 34.3185 53.535 37.2457C53.2995 38.5594 53.1797 39.8993 53.1775 41.2432C53.1888 44.8874 54.0815 48.4749 55.7794 51.6994C54.1877 54.1198 53.1016 56.8369 52.5862 59.6876C52.0581 62.6676 52.1321 65.7565 52.8019 68.6951C53.4724 71.653 54.726 74.4474 56.4894 76.9151C63.9131 87.5463 78.6106 90.6982 89.1769 83.9401L107.778 72.0644C110.296 70.4815 112.455 68.3895 114.117 65.9227C115.779 63.456 116.906 60.669 117.427 57.7407C117.666 56.4238 117.786 55.0879 117.784 53.7494C117.78 50.1122 116.898 46.5298 115.214 43.3057C116.806 40.8875 117.893 38.1728 118.409 35.3244C118.64 34.0057 118.757 32.6713 118.761 31.3332C118.762 26.5866 117.279 21.9585 114.519 18.0969L114.517 18.0851Z" fill="#FF3E00"/>
<path d="M80.0119 77.9139C78.7888 78.2291 77.5415 78.3883 76.2906 78.3889C73.9021 78.3885 71.5493 77.809 69.4337 76.7001C67.3182 75.5913 65.503 73.986 64.1438 72.022C62.4841 69.6987 61.5925 66.9147 61.5938 64.0595C61.5948 63.2545 61.6646 62.4517 61.8019 61.6639C61.9137 61.071 62.0642 60.4896 62.2519 59.9251L62.6025 58.8576L63.5525 59.5801C65.7576 61.1988 68.2213 62.4317 70.8388 63.2264L71.5288 63.4345L71.4638 64.1245V64.4826C71.4624 65.3459 71.7308 66.188 72.2313 66.8914C72.6357 67.4901 73.1802 67.9809 73.8175 68.3214C74.4701 68.6656 75.1749 68.8438 75.8875 68.8445C76.2636 68.846 76.6388 68.798 77.0063 68.7014C77.4051 68.5969 77.7905 68.4283 78.1519 68.2001L96.7519 56.2664C97.3096 55.9122 97.7685 55.4225 98.0859 54.8431C98.4033 54.2637 98.5687 53.6133 98.5669 52.9526C98.5615 52.0892 98.2861 51.2492 97.7794 50.5501C97.3688 49.9592 96.8213 49.4763 96.1838 49.1426C95.5308 48.8057 94.8274 48.6334 94.1169 48.6364C93.7407 48.635 93.3656 48.6832 92.9981 48.7801C92.6009 48.882 92.2176 49.0505 91.8594 49.2807L84.7681 53.812C83.5747 54.5639 82.3036 55.1221 80.9881 55.472C78.0587 56.2348 74.9658 56.0793 72.1276 55.0268C69.2894 53.9743 66.8431 52.0754 65.1194 49.587C63.4612 47.263 62.5698 44.4794 62.5694 41.6245C62.5706 40.8214 62.6406 40.0201 62.7775 39.2289C63.0956 37.4695 63.7757 35.7954 64.7747 34.3127C65.7738 32.83 67.07 31.5711 68.5813 30.6157L87.2013 18.747C88.3697 18.0033 89.6442 17.4413 90.9813 17.0801C92.1972 16.7688 93.4474 16.6113 94.7025 16.6114C97.096 16.6063 99.455 17.1818 101.577 18.2885C103.699 19.3953 105.522 21.0002 106.888 22.9657C108.536 25.2953 109.416 28.0809 109.406 30.9345C109.404 31.7418 109.334 32.5468 109.197 33.337C109.085 33.9296 108.935 34.5108 108.748 35.0751L108.397 36.1426L107.447 35.4464C105.244 33.8246 102.779 32.5914 100.161 31.8001L99.4706 31.5857L99.5356 30.8951V30.5376C99.5355 29.6725 99.2674 28.8286 98.7681 28.122C98.3586 27.531 97.8117 27.0485 97.1744 26.7157C96.5229 26.3788 95.821 26.2059 95.1119 26.2076C94.7391 26.2156 94.3682 26.2724 94.0056 26.377C93.6062 26.4773 93.2208 26.6461 92.8613 26.8782L74.2406 38.747C73.7991 39.0227 73.4087 39.4033 73.0931 39.8657C72.7987 40.2975 72.5925 40.8064 72.4913 41.3514C72.4453 41.5777 72.4169 41.8087 72.4063 42.0414C72.4058 42.9026 72.6741 43.7424 73.1738 44.4439C73.5831 45.0347 74.1298 45.5173 74.7669 45.8501C75.4185 46.1871 76.1207 46.3599 76.83 46.3576C77.2062 46.3589 77.5813 46.3107 77.9488 46.2139C78.3483 46.1126 78.734 45.9441 79.0944 45.7132L86.1988 41.1557C87.3917 40.4025 88.6629 39.8443 89.9788 39.4957C91.2019 39.1809 92.4492 39.0216 93.7 39.0207C96.089 39.0204 98.4424 39.5988 100.559 40.7065C102.676 41.8142 104.492 43.4183 105.854 45.3814C106.915 46.8692 107.669 48.5542 108.07 50.3374C108.471 52.1206 108.512 53.966 108.189 55.7651C107.873 57.5251 107.194 59.1999 106.195 60.6829C105.195 62.1658 103.898 63.4243 102.386 64.3782L83.7981 76.247C82.6034 77.0024 81.3297 77.5629 80.0119 77.9139Z" fill="white"/>
</g>
<path d="M65.3135 105.848H66.8311C66.9609 106.784 67.877 107.379 69.1963 107.379C70.4268 107.379 71.3291 106.743 71.3291 105.868C71.3291 105.116 70.7549 104.665 69.4492 104.357L68.1777 104.05C66.3936 103.633 65.5801 102.771 65.5801 101.322C65.5801 99.5654 67.0156 98.3965 69.1689 98.3965C71.1719 98.3965 72.6348 99.5654 72.7236 101.227H71.2334C71.0898 100.317 70.2969 99.75 69.1484 99.75C67.9385 99.75 67.1318 100.331 67.1318 101.22C67.1318 101.924 67.6514 102.327 68.9365 102.628L70.0234 102.895C72.0469 103.366 72.8809 104.187 72.8809 105.67C72.8809 107.557 71.418 108.739 69.0801 108.739C66.8926 108.739 65.4229 107.611 65.3135 105.848ZM81.0293 101.056L78.3496 108.5H76.7705L74.084 101.056H75.6562L77.5088 106.928H77.625L79.4707 101.056H81.0293ZM85.2881 102.163C84.2012 102.163 83.4424 102.929 83.3604 104.091H87.1201C87.0859 102.922 86.375 102.163 85.2881 102.163ZM87.1133 106.49H88.5283C88.1934 107.823 87.0039 108.644 85.3018 108.644C83.1689 108.644 81.8633 107.181 81.8633 104.802C81.8633 102.423 83.1963 100.912 85.2949 100.912C87.3662 100.912 88.6172 102.327 88.6172 104.665V105.178H83.3604V105.26C83.4082 106.565 84.167 107.393 85.3428 107.393C86.2314 107.393 86.8398 107.071 87.1133 106.49ZM90.4492 108.5V98.1504H91.9189V108.5H90.4492ZM94.6465 99.2031H96.1162V101.09H97.7295V102.327H96.1162V106.155C96.1162 106.935 96.4375 107.276 97.1689 107.276C97.3945 107.276 97.5244 107.263 97.7295 107.242V108.466C97.4902 108.507 97.2168 108.541 96.9297 108.541C95.2959 108.541 94.6465 107.967 94.6465 106.531V102.327H93.4639V101.09H94.6465V99.2031ZM102.433 102.163C101.346 102.163 100.587 102.929 100.505 104.091H104.265C104.23 102.922 103.52 102.163 102.433 102.163ZM104.258 106.49H105.673C105.338 107.823 104.148 108.644 102.446 108.644C100.313 108.644 99.0078 107.181 99.0078 104.802C99.0078 102.423 100.341 100.912 102.439 100.912C104.511 100.912 105.762 102.327 105.762 104.665V105.178H100.505V105.26C100.553 106.565 101.312 107.393 102.487 107.393C103.376 107.393 103.984 107.071 104.258 106.49Z" fill="#888888"/>
<defs>
<clipPath id="clip0_1073_19386">
<rect width="80" height="80" fill="white" transform="translate(45.5 7.5)"/>
</clipPath>
</defs>
</svg>
