<svg width="171" height="120" viewBox="0 0 171 120" fill="none" xmlns="http://www.w3.org/2000/svg">
<rect width="171" height="120" fill="white"/>
<g clip-path="url(#clip0_969_17820)">
<path d="M85.5 23.522C74.8331 23.522 68.1688 28.8532 65.5 39.5201C69.4988 34.1882 74.1669 32.1888 79.4987 33.522C82.5431 34.2807 84.7188 36.4882 87.1281 38.9345C91.0494 42.9138 95.5881 47.5207 105.5 47.5207C116.166 47.5207 122.831 42.1888 125.5 31.5195C121.5 36.8541 116.834 38.8545 111.501 37.5207C108.457 36.7613 106.284 34.5545 103.871 32.1082C99.9525 28.1288 95.415 23.522 85.5 23.522ZM65.5 47.5207C54.8337 47.5207 48.1688 52.8526 45.5 63.522C49.4996 58.1874 54.1658 56.187 59.4988 57.5207C62.5431 58.2801 64.7188 60.487 67.1281 62.9332C71.0494 66.9126 75.5881 71.5195 85.5 71.5195C96.1662 71.5195 102.831 66.1882 105.5 55.5214C101.5 60.8534 96.8335 62.8528 91.5006 61.5195C88.4569 60.7607 86.2837 58.5532 83.8712 56.107C79.9525 52.1276 75.415 47.5207 65.5 47.5207Z" fill="#38BDF8"/>
</g>
<path d="M63.2832 108.484H61.752V100.014H58.6484V98.6196H66.3799V100.014H63.2832V108.484ZM69.1279 107.37C70.2354 107.37 71.0557 106.666 71.0557 105.743V105.121L69.2373 105.237C68.2119 105.305 67.7471 105.654 67.7471 106.31C67.7471 106.98 68.3281 107.37 69.1279 107.37ZM68.752 108.607C67.3164 108.607 66.2705 107.739 66.2705 106.378C66.2705 105.039 67.2686 104.266 69.0391 104.157L71.0557 104.041V103.398C71.0557 102.612 70.5361 102.167 69.5312 102.167C68.7109 102.167 68.1436 102.468 67.9795 102.995H66.5576C66.708 101.716 67.9111 100.896 69.5996 100.896C71.4658 100.896 72.5186 101.826 72.5186 103.398V108.484H71.1035V107.438H70.9873C70.543 108.183 69.7295 108.607 68.752 108.607ZM74.6377 108.484V101.04H76.1006V108.484H74.6377ZM75.3691 99.7339C74.8223 99.7339 74.4189 99.3442 74.4189 98.8384C74.4189 98.3257 74.8223 97.936 75.3691 97.936C75.916 97.936 76.3193 98.3257 76.3193 98.8384C76.3193 99.3442 75.916 99.7339 75.3691 99.7339ZM78.3291 108.484V98.1343H79.7988V108.484H78.3291ZM91.7002 101.04L89.6562 108.484H88.1318L86.5938 103.001H86.4775L84.9463 108.484H83.4355L81.3848 101.04H82.875L84.208 106.72H84.3174L85.8486 101.04H87.2568L88.7881 106.72H88.9043L90.2305 101.04H91.7002ZM93.2451 108.484V101.04H94.708V108.484H93.2451ZM93.9766 99.7339C93.4297 99.7339 93.0264 99.3442 93.0264 98.8384C93.0264 98.3257 93.4297 97.936 93.9766 97.936C94.5234 97.936 94.9268 98.3257 94.9268 98.8384C94.9268 99.3442 94.5234 99.7339 93.9766 99.7339ZM96.8682 108.484V101.04H98.2832V102.222H98.3926C98.7549 101.395 99.4932 100.896 100.614 100.896C102.275 100.896 103.191 101.894 103.191 103.665V108.484H101.722V104.034C101.722 102.837 101.202 102.243 100.115 102.243C99.0283 102.243 98.3379 102.967 98.3379 104.129V108.484H96.8682ZM107.983 108.607C106.09 108.607 104.894 107.117 104.894 104.758C104.894 102.407 106.104 100.917 107.983 100.917C109.002 100.917 109.863 101.402 110.267 102.222H110.376V98.1343H111.846V108.484H110.438V107.308H110.321C109.877 108.122 109.009 108.607 107.983 108.607ZM108.4 102.236C107.163 102.236 106.411 103.193 106.411 104.758C106.411 106.337 107.156 107.288 108.4 107.288C109.638 107.288 110.403 106.324 110.403 104.765C110.403 103.213 109.631 102.236 108.4 102.236Z" fill="#888888"/>
<defs>
<clipPath id="clip0_969_17820">
<rect width="80" height="80" fill="white" transform="translate(45.5 7.51611)"/>
</clipPath>
</defs>
</svg>
