<svg width="30" height="31" viewBox="0 0 30 31" fill="none" xmlns="http://www.w3.org/2000/svg">
<path fill-rule="evenodd" clip-rule="evenodd" d="M5 4.6521C4.66848 4.6521 4.35054 4.7838 4.11612 5.01822C3.8817 5.25264 3.75 5.57058 3.75 5.9021V22.1521C3.75 22.4836 3.8817 22.8016 4.11612 23.036C4.35054 23.2704 4.66848 23.4021 5 23.4021H14.375V25.9021H10V27.1521H20V25.9021H15.625V23.4021H25C25.3315 23.4021 25.6495 23.2704 25.8839 23.036C26.1183 22.8016 26.25 22.4836 26.25 22.1521V5.9021C26.25 5.57058 26.1183 5.25264 25.8839 5.01822C25.6495 4.7838 25.3315 4.6521 25 4.6521H5ZM7.5 20.5146V20.0984C7.5 18.5246 9.83125 17.0452 12.0831 16.5321C12.4488 16.449 12.4075 16.9758 12.5 17.1521H17.3956C17.4906 16.9715 17.7075 16.4846 17.9169 16.5321C18.3875 16.6396 18.8612 16.789 19.3169 16.9727L19.3313 16.9658L19.3356 16.9746L19.3387 16.9808C21.0531 17.6783 22.5 18.8596 22.5 20.0984V22.1521H24.375V7.1521H5.625V22.1521H7.5V20.5146ZM9.68437 18.9271C10.0456 18.6682 10.4321 18.4466 10.8381 18.2658C10.854 18.5854 10.9064 18.902 10.9944 19.2096L10.9981 19.2208C10.749 19.3784 10.5636 19.619 10.4747 19.9C10.3857 20.181 10.399 20.4844 10.512 20.7566C10.6251 21.0289 10.8307 21.2524 11.0925 21.3877C11.3544 21.523 11.6557 21.5614 11.9431 21.4962C12.2306 21.431 12.4857 21.2662 12.6635 21.0311C12.8413 20.796 12.9302 20.5056 12.9147 20.2113C12.8991 19.9169 12.78 19.6375 12.5785 19.4225C12.3769 19.2074 12.1058 19.0704 11.8131 19.0358L11.7944 18.9758C11.7096 18.6761 11.6667 18.3661 11.6669 18.0546L11.7456 18.204H18.15L18.2938 17.9309C18.4054 17.9671 18.5167 18.0054 18.6275 18.0458C18.6306 18.1833 18.6194 18.3408 18.5975 18.5021C18.5736 18.6798 18.5356 18.8554 18.4837 19.0271H17.9169C17.8394 19.0273 17.7636 19.0489 17.6977 19.0896C17.6318 19.1304 17.5785 19.1885 17.5437 19.2577L17.1275 20.0908C17.0994 20.1489 17.0844 20.2125 17.0837 20.2771V21.1102C17.0837 21.3408 17.27 21.5271 17.5 21.5271H18.3331V20.694H17.9169V20.3752L18.1744 19.8602H19.3256L19.5831 20.3752V20.694H19.1669V21.5271H20C20.0547 21.5271 20.109 21.5163 20.1595 21.4954C20.2101 21.4744 20.2561 21.4437 20.2948 21.405C20.3335 21.3663 20.3642 21.3203 20.3851 21.2698C20.4061 21.2192 20.4169 21.165 20.4169 21.1102V20.2771C20.4162 20.2125 20.4013 20.1489 20.3731 20.0908L19.9562 19.2571C19.9214 19.188 19.868 19.13 19.8022 19.0894C19.7363 19.0488 19.6605 19.0272 19.5831 19.0271H19.3475C19.3959 18.8215 19.4293 18.6126 19.4475 18.4021C19.9544 18.6583 20.3894 18.9515 20.71 19.2502C21.1675 19.6771 21.25 19.974 21.25 20.0977V22.1521H8.75V20.0977C8.75 19.9265 8.915 19.4883 9.68437 18.9271ZM12.0831 20.2771C12.0837 20.3322 12.0734 20.387 12.0528 20.4381C12.0321 20.4893 12.0016 20.5358 11.9629 20.5751C11.9242 20.6145 11.8782 20.6458 11.8274 20.6672C11.7766 20.6887 11.722 20.6999 11.6669 20.7002C11.6117 20.7 11.5571 20.6888 11.5062 20.6674C11.4553 20.646 11.4092 20.6147 11.3704 20.5754C11.3317 20.536 11.3011 20.4894 11.2804 20.4383C11.2598 20.3871 11.2494 20.3323 11.25 20.2771C11.25 20.0377 11.4425 19.854 11.6669 19.854C11.8912 19.854 12.0831 20.0377 12.0831 20.2771ZM15 6.5271C15.1658 6.5271 15.3247 6.46125 15.4419 6.34404C15.5592 6.22683 15.625 6.06786 15.625 5.9021C15.625 5.73634 15.5592 5.57737 15.4419 5.46016C15.3247 5.34295 15.1658 5.2771 15 5.2771C14.8342 5.2771 14.6753 5.34295 14.5581 5.46016C14.4408 5.57737 14.375 5.73634 14.375 5.9021C14.375 6.06786 14.4408 6.22683 14.5581 6.34404C14.6753 6.46125 14.8342 6.5271 15 6.5271Z" fill="#222222"/>
<path fill-rule="evenodd" clip-rule="evenodd" d="M15 14.6521C15.663 14.6521 16.2989 14.3887 16.7678 13.9199C17.2366 13.451 17.5 12.8151 17.5 12.1521C17.5 11.4891 17.2366 10.8532 16.7678 10.3843C16.2989 9.91549 15.663 9.6521 15 9.6521C14.337 9.6521 13.7011 9.91549 13.2322 10.3843C12.7634 10.8532 12.5 11.4891 12.5 12.1521C12.5 12.8151 12.7634 13.451 13.2322 13.9199C13.7011 14.3887 14.337 14.6521 15 14.6521ZM15 15.9021C15.9946 15.9021 16.9484 15.507 17.6517 14.8038C18.3549 14.1005 18.75 13.1467 18.75 12.1521C18.75 11.1575 18.3549 10.2037 17.6517 9.50045C16.9484 8.79719 15.9946 8.4021 15 8.4021C14.0054 8.4021 13.0516 8.79719 12.3483 9.50045C11.6451 10.2037 11.25 11.1575 11.25 12.1521C11.25 13.1467 11.6451 14.1005 12.3483 14.8038C13.0516 15.507 14.0054 15.9021 15 15.9021Z" fill="#222222"/>
</svg>
