<svg width="171" height="120" viewBox="0 0 171 120" fill="none" xmlns="http://www.w3.org/2000/svg">
<rect width="171" height="120" fill="white"/>
<g clip-path="url(#clip0_969_18016)">
<path d="M74.771 21.6179L96.6308 34.2538V59.4859L74.771 46.8635M50.5117 32.7742L72.3715 45.3971V20.1518L50.5117 7.52881M74.771 74.8811L96.6308 87.5038V62.2584L74.771 49.6357" fill="#5C4EE5"/>
<path d="M98.6289 66.4501L120.489 53.8406V28.582L98.6289 41.2179V66.4501Z" fill="#4040B2"/>
</g>
<path d="M57.459 108.484H55.9277V100.014H52.8242V98.6196H60.5557V100.014H57.459V108.484ZM63.9805 102.147C62.8936 102.147 62.1348 102.913 62.0527 104.075H65.8125C65.7783 102.906 65.0674 102.147 63.9805 102.147ZM65.8057 106.474H67.2207C66.8857 107.807 65.6963 108.627 63.9941 108.627C61.8613 108.627 60.5557 107.165 60.5557 104.786C60.5557 102.407 61.8887 100.896 63.9873 100.896C66.0586 100.896 67.3096 102.311 67.3096 104.649V105.162H62.0527V105.244C62.1006 106.549 62.8594 107.376 64.0352 107.376C64.9238 107.376 65.5322 107.055 65.8057 106.474ZM69.0732 108.484V101.04H70.4883V102.181H70.5977C70.8096 101.45 71.6367 100.917 72.6074 100.917C72.8262 100.917 73.1064 100.937 73.2637 100.978V102.427C73.1406 102.386 72.7031 102.338 72.4434 102.338C71.3291 102.338 70.543 103.042 70.543 104.088V108.484H69.0732ZM74.7881 108.484V101.04H76.2031V102.181H76.3125C76.5244 101.45 77.3516 100.917 78.3223 100.917C78.541 100.917 78.8213 100.937 78.9785 100.978V102.427C78.8555 102.386 78.418 102.338 78.1582 102.338C77.0439 102.338 76.2578 103.042 76.2578 104.088V108.484H74.7881ZM82.7725 107.37C83.8799 107.37 84.7002 106.666 84.7002 105.743V105.121L82.8818 105.237C81.8564 105.305 81.3916 105.654 81.3916 106.31C81.3916 106.98 81.9727 107.37 82.7725 107.37ZM82.3965 108.607C80.9609 108.607 79.915 107.739 79.915 106.378C79.915 105.039 80.9131 104.266 82.6836 104.157L84.7002 104.041V103.398C84.7002 102.612 84.1807 102.167 83.1758 102.167C82.3555 102.167 81.7881 102.468 81.624 102.995H80.2021C80.3525 101.716 81.5557 100.896 83.2441 100.896C85.1104 100.896 86.1631 101.826 86.1631 103.398V108.484H84.748V107.438H84.6318C84.1875 108.183 83.374 108.607 82.3965 108.607ZM88.7812 108.484V102.311H87.5576V101.074H88.7812V100.274C88.7812 98.7974 89.5332 98.0659 91.0781 98.0659C91.4131 98.0659 91.7002 98.0933 91.9531 98.1411V99.2964C91.8164 99.269 91.6182 99.2554 91.3857 99.2554C90.5654 99.2554 90.2305 99.6245 90.2305 100.363V101.074H91.8916V102.311H90.251V108.484H88.7812ZM96.417 108.627C94.2363 108.627 92.9033 107.171 92.9033 104.758C92.9033 102.359 94.2432 100.896 96.417 100.896C98.584 100.896 99.9238 102.359 99.9238 104.758C99.9238 107.171 98.5908 108.627 96.417 108.627ZM96.417 107.322C97.6885 107.322 98.4131 106.378 98.4131 104.758C98.4131 103.145 97.6885 102.202 96.417 102.202C95.1387 102.202 94.4209 103.145 94.4209 104.758C94.4209 106.385 95.1387 107.322 96.417 107.322ZM101.694 108.484V101.04H103.109V102.181H103.219C103.431 101.45 104.258 100.917 105.229 100.917C105.447 100.917 105.728 100.937 105.885 100.978V102.427C105.762 102.386 105.324 102.338 105.064 102.338C103.95 102.338 103.164 103.042 103.164 104.088V108.484H101.694ZM107.409 108.484V101.04H108.824V102.236H108.934C109.262 101.395 110.014 100.896 111.005 100.896C112.023 100.896 112.728 101.422 113.056 102.236H113.172C113.548 101.422 114.402 100.896 115.435 100.896C116.938 100.896 117.813 101.805 117.813 103.357V108.484H116.344V103.74C116.344 102.735 115.865 102.243 114.901 102.243C113.951 102.243 113.329 102.926 113.329 103.801V108.484H111.887V103.596C111.887 102.755 111.326 102.243 110.451 102.243C109.556 102.243 108.879 102.974 108.879 103.931V108.484H107.409Z" fill="#888888"/>
<defs>
<clipPath id="clip0_969_18016">
<rect width="80" height="80" fill="white" transform="translate(45.5 7.51611)"/>
</clipPath>
</defs>
</svg>
