<svg width="290" height="206" viewBox="0 0 290 206" fill="none" xmlns="http://www.w3.org/2000/svg">
<g filter="url(#filter0_d_663_14004)">
<path d="M9.56775 83.6341C9.56235 77.7612 14.3215 72.9971 20.1943 72.9965L168.952 72.9805C174.818 72.9798 179.575 77.7321 179.581 83.5983L179.671 180.412C179.676 186.285 174.917 191.048 169.044 191.05L20.2864 191.065C14.4204 191.067 9.66315 186.314 9.65775 180.449L9.56775 83.6341Z" fill="white"/>
<path d="M23.7423 90.5593C23.7473 89.652 24.487 88.9206 25.3944 88.9258L44.6413 89.0343C45.5487 89.0395 46.2801 89.7792 46.2751 90.6865C46.2699 91.5937 45.5302 92.3251 44.6228 92.3201L25.3759 92.2114C24.4685 92.2064 23.7371 91.4667 23.7423 90.5593Z" fill="#EAEDF2"/>
<path d="M46.2706 148.446C46.2706 147.511 47.0282 146.754 47.963 146.754H57.3619C58.2965 146.754 59.0543 147.511 59.0543 148.446V172.322H46.2706V148.446Z" fill="#8057C3"/>
<path d="M85.6939 136.731C85.6939 135.797 86.4517 135.039 87.3863 135.039H97.8505C98.7851 135.039 99.5429 135.797 99.5429 136.731V172.326H85.6939V136.731Z" fill="#8057C3"/>
<path d="M65.4462 126.079C65.4462 125.144 66.2039 124.387 67.1385 124.387H77.6028C78.5376 124.387 79.2951 125.144 79.2951 126.079V172.325H65.4462V126.079Z" fill="#8057C3"/>
<path d="M105.941 126.079C105.941 125.144 106.698 124.387 107.633 124.387H118.097C119.032 124.387 119.79 125.144 119.79 126.079V172.325H105.941V126.079Z" fill="#8057C3"/>
<path d="M126.188 119.688C126.188 118.754 126.946 117.996 127.88 117.996H138.344C139.279 117.996 140.037 118.754 140.037 119.688V172.327H126.188V119.688Z" fill="#8057C3"/>
<path d="M146.436 114.36C146.436 113.426 147.193 112.668 148.128 112.668H158.592C159.527 112.668 160.285 113.426 160.285 114.36V172.325H146.436V114.36Z" fill="#8057C3"/>
<path d="M28.3529 170.402H25.4743C24.5042 170.402 23.7177 171.189 23.7177 172.159V172.188C23.7177 173.158 24.5042 173.945 25.4743 173.945H28.3529C29.3231 173.945 30.1096 173.158 30.1096 172.188V172.159C30.1096 171.189 29.3231 170.402 28.3529 170.402Z" fill="#EAEDF2"/>
<path d="M28.3529 154.461H25.4743C24.5042 154.461 23.7177 155.247 23.7177 156.218V156.247C23.7177 157.217 24.5042 158.003 25.4743 158.003H28.3529C29.3231 158.003 30.1096 157.217 30.1096 156.247V156.218C30.1096 155.247 29.3231 154.461 28.3529 154.461Z" fill="#EAEDF2"/>
<path d="M28.3529 138.516H25.4743C24.5042 138.516 23.7177 139.302 23.7177 140.272V140.302C23.7177 141.272 24.5042 142.058 25.4743 142.058H28.3529C29.3231 142.058 30.1096 141.272 30.1096 140.302V140.272C30.1096 139.302 29.3231 138.516 28.3529 138.516Z" fill="#EAEDF2"/>
<path d="M28.3529 122.574H25.4743C24.5042 122.574 23.7177 123.361 23.7177 124.331V124.36C23.7177 125.33 24.5042 126.117 25.4743 126.117H28.3529C29.3231 126.117 30.1096 125.33 30.1096 124.36V124.331C30.1096 123.361 29.3231 122.574 28.3529 122.574Z" fill="#EAEDF2"/>
<path d="M28.3529 106.637H25.4743C24.5042 106.637 23.7177 107.423 23.7177 108.393V108.423C23.7177 109.393 24.5042 110.179 25.4743 110.179H28.3529C29.3231 110.179 30.1096 109.393 30.1096 108.423V108.393C30.1096 107.423 29.3231 106.637 28.3529 106.637Z" fill="#EAEDF2"/>
</g>
<g filter="url(#filter1_d_663_14004)">
<path d="M110.269 14.7669C110.264 8.89401 115.023 4.12991 120.896 4.12928L269.652 4.11328C275.519 4.11266 280.277 8.86491 280.283 14.7309L280.372 111.545C280.378 117.418 275.619 122.182 269.746 122.183L120.988 122.199C115.121 122.199 110.364 117.447 110.359 111.581L110.269 14.7669Z" fill="white"/>
<path d="M235.782 55.8321L235.782 55.8321C235.794 53.7329 234.102 52.0217 232.003 52.0098L232.003 52.0098C229.904 51.998 228.192 53.6901 228.18 55.7892L228.18 55.7892C228.169 57.8884 229.861 59.5997 231.96 59.6115L231.96 59.6115C234.059 59.6234 235.77 57.9313 235.782 55.8321Z" fill="#6559FF"/>
<path d="M239.838 55.9383C239.844 55.0309 240.584 54.2995 241.49 54.3047L260.737 54.4132C261.646 54.4184 262.377 55.1581 262.371 56.0655C262.367 56.9726 261.627 57.704 260.719 57.699L241.472 57.5903C240.565 57.5853 239.834 56.8456 239.838 55.9383Z" fill="#EAEDF2"/>
<path d="M235.977 69.5391L235.977 69.5391C235.989 67.44 234.297 65.7287 232.197 65.7168L232.197 65.7168C230.098 65.705 228.387 67.3971 228.375 69.4962L228.375 69.4963C228.363 71.5954 230.055 73.3067 232.155 73.3185L232.155 73.3185C234.254 73.3304 235.965 71.6383 235.977 69.5391Z" fill="#5145EB"/>
<path d="M240.033 69.6494C240.037 68.742 240.777 68.0107 241.685 68.0157L260.932 68.1243C261.838 68.1293 262.57 68.869 262.566 69.7764C262.56 70.6838 261.82 71.4151 260.914 71.4099L241.666 71.3014C240.758 71.2962 240.029 70.5566 240.033 69.6494Z" fill="#EAEDF2"/>
<mask id="mask0_663_14004" style="mask-type:luminance" maskUnits="userSpaceOnUse" x="127" y="21" width="87" height="87">
<path d="M202.987 22.1984L138.979 21.8373C133.11 21.8042 128.325 26.5354 128.292 32.4049L127.931 96.4123C127.897 102.282 132.629 107.067 138.498 107.1L202.506 107.461C208.375 107.494 213.16 102.763 213.193 96.8933L213.554 32.8859C213.587 27.0165 208.856 22.2315 202.987 22.1984Z" fill="white"/>
</mask>
<g mask="url(#mask0_663_14004)">
<path d="M170.349 88.416C157.098 88.3412 146.381 77.5028 146.456 64.2522L161.37 64.3363C161.342 69.3623 165.407 73.4767 170.433 73.5052C175.459 73.5335 179.57 69.4689 179.598 64.439C179.626 59.413 175.562 55.2986 170.536 55.2702L170.62 40.3594C183.87 40.4342 194.586 51.2725 194.513 64.5232C194.438 77.774 183.599 88.4908 170.349 88.416Z" fill="#5145EB"/>
<path d="M161.37 64.3367L146.456 64.2526C146.53 51.0017 157.369 40.2849 170.619 40.3598L170.535 55.2745C165.509 55.246 161.399 59.3108 161.37 64.3405V64.3367Z" fill="#D9DBFF"/>
<path d="M129.546 75.6973C128.563 72.0335 128.079 68.2389 128.1 64.4149C128.233 40.908 147.465 21.8913 170.972 22.0241L170.882 37.9111C156.132 37.828 144.066 49.7585 143.983 64.5084C143.97 66.9121 144.276 69.2974 144.89 71.5914L129.546 75.6973Z" fill="#D9DBFF"/>
<path d="M170.987 22.0234L170.897 37.9104C185.647 37.9937 197.578 50.0595 197.495 64.8097C197.412 79.5596 185.345 91.4901 170.595 91.407C158.573 91.339 148.008 83.19 144.905 71.5947L129.561 75.6967C134.507 94.1898 151.345 107.182 170.51 107.29C194.017 107.423 213.249 88.4061 213.382 64.8992C213.511 41.3882 194.493 22.156 170.987 22.0234Z" fill="#766CFF"/>
</g>
<g filter="url(#filter2_d_663_14004)">
<mask id="mask1_663_14004" style="mask-type:luminance" maskUnits="userSpaceOnUse" x="175" y="101" width="31" height="31">
<path d="M190.376 101.332H190.139C181.809 101.332 175.057 108.085 175.057 116.414V116.651C175.057 124.981 181.809 131.733 190.139 131.733H190.376C198.706 131.733 205.458 124.981 205.458 116.651V116.414C205.458 108.085 198.706 101.332 190.376 101.332Z" fill="white"/>
</mask>
<g mask="url(#mask1_663_14004)">
<path d="M190.379 101.332H190.142C181.812 101.332 175.06 108.085 175.06 116.414V116.651C175.06 124.981 181.812 131.733 190.142 131.733H190.379C198.708 131.733 205.461 124.981 205.461 116.651V116.414C205.461 108.085 198.708 101.332 190.379 101.332Z" fill="#FFFBDC"/>
<path fill-rule="evenodd" clip-rule="evenodd" d="M168.427 112.48C168.506 112.175 168.573 111.917 168.544 111.618C168.397 111.522 168.115 111.617 168.115 111.617C168.068 111.644 168.023 111.675 167.981 111.708C167.908 111.78 167.818 111.83 167.721 111.855C167.625 111.855 167.533 111.824 167.455 111.767C167.377 111.71 167.318 111.63 167.286 111.537C167.199 111.354 167.159 111.151 167.171 110.948C167.183 110.745 167.245 110.548 167.352 110.378C167.46 110.207 167.608 110.069 167.782 109.976C167.956 109.884 168.151 109.841 168.346 109.851C168.429 109.777 168.526 109.722 168.631 109.688C169.338 109.456 170.174 110.154 170.174 110.154L170.17 109.863C170.17 109.863 169.829 109.046 168.395 108.992C168.18 108.987 167.974 108.9 167.816 108.747C167.765 108.704 167.724 108.648 167.695 108.586C167.667 108.523 167.653 108.455 167.653 108.385C167.677 108.024 167.927 107.947 168.823 107.967C169.719 107.986 170.583 108.315 170.921 108.826C171.087 109.058 171.237 109.303 171.369 109.558C171.369 109.558 171.489 106.943 171.497 106.779C171.542 106.301 171.78 105.918 172.088 105.914C172.286 105.91 172.535 106.06 172.507 106.617C172.482 107.101 172.825 112.079 172.825 112.079L172.828 112.304L172.842 112.445C173.068 113.134 173.586 112.718 173.877 112.484L173.925 112.445C173.982 112.4 174.054 112.337 174.138 112.264C174.562 111.895 175.266 111.282 175.666 111.525C175.959 111.704 175.282 112.596 174.785 113.251C174.594 113.503 174.429 113.72 174.357 113.848C174.2 114.124 174.038 114.716 173.877 115.304C173.77 115.695 173.664 116.084 173.559 116.378C173.456 116.669 173.405 117.153 173.384 117.641L174.079 123.312C174.079 123.312 174.767 127.484 177.27 128.831C176.821 129.597 176.17 130.212 175.395 130.602C174.619 130.992 173.752 131.14 172.898 131.028C171.889 130.898 170.952 130.413 170.243 129.653C169.534 128.893 169.095 127.903 168.998 126.848L168.644 115.897L168.615 115.574C168.594 115.497 168.565 115.408 168.533 115.308C168.385 114.851 168.161 114.16 168.267 113.274C168.304 112.96 168.369 112.707 168.427 112.48Z" fill="#B9722B"/>
<path d="M182.077 142.142C182.81 143.524 190.408 143.524 191.69 143.524C191.813 143.524 191.94 143.524 192.071 143.524C194.98 143.528 199.922 143.535 200.662 141.589C201.411 139.62 200.172 136.612 200.124 134.358C200.097 133.027 200.068 131.698 200.205 130.433V126.564C200.205 125.551 200.355 124.267 200.484 123.171C200.579 122.354 200.662 121.641 200.662 121.221C200.484 120.577 197.823 119.242 190.591 118.847C186.673 118.633 182.297 119.139 180.612 120.024C178.928 120.908 176.767 123.248 175.394 125.643C175.394 125.643 175.407 122.972 175.163 121.866C174.919 120.761 174.065 120.669 174.065 120.669L173.573 118.847C170.918 119.492 168.572 118.734 168.572 118.734L168.48 120.3C168.48 120.3 166.422 121.129 166.422 122.695C166.422 124.261 166.788 134.025 169.077 135.96C172.156 138.562 177.375 137.674 179.389 134.358C179.426 136.507 180.445 141.321 182.077 142.142Z" fill="#00D1FF"/>
<path d="M187.519 112.383C187.586 110.88 188.838 109.716 190.315 109.784C191.793 109.852 192.936 111.126 192.869 112.63V114.374L192.919 117.291L192.869 119.338C192.803 120.842 191.256 121.91 189.778 121.842C188.301 121.774 187.157 120.499 187.224 118.996L187.519 112.383Z" fill="#B9722B"/>
<path fill-rule="evenodd" clip-rule="evenodd" d="M187.221 119.136L187.502 112.824L191.26 112.998C191.907 113.027 192.177 113.737 192.233 114.089L192.123 116.55C191.379 117.727 188.544 119.859 187.221 119.136Z" fill="#A4580C"/>
<path d="M185.971 115.074V109.103C185.995 108.839 186.296 108.686 186.548 108.772C188.176 109.333 190.562 108.523 191.362 108.523C192.254 108.523 192.769 108.929 192.769 110.495V113.625V115.074L191.362 116.002C187.42 118.414 186.108 116.389 185.971 115.074Z" fill="#B9722B"/>
<path d="M185.24 109.831C184.768 111.617 185.676 112.525 185.978 112.794L186.132 109.919L186.261 109.307C187.498 110.81 191.282 109.63 192.287 109.206C192.287 109.206 191.726 111.169 192.781 112.93C192.858 112.897 193.13 112.676 193.532 112.794C194.018 111.05 194.28 108.603 194.28 108.603C194.28 108.603 194.483 106.54 193.091 106.613C191.624 104.678 188.856 105.097 187.385 106.037C185.914 106.976 185.598 106.211 184.985 106.59C184.126 107.517 184.509 109.463 185.24 109.831Z" fill="#1F2533"/>
<path d="M193.222 114.043C193.89 114.043 194.432 113.501 194.432 112.832C194.432 112.163 193.89 111.621 193.222 111.621C192.553 111.621 192.011 112.163 192.011 112.832C192.011 113.501 192.553 114.043 193.222 114.043Z" fill="#B9722B"/>
<path d="M186.666 114.572C187.611 113.75 189.586 113.742 190.503 114.654C192.008 114.953 192.312 111.018 192.312 111.018L192.916 110.715C193.008 111.898 193.22 114.953 192.482 116.159C191.732 117.388 190.279 118.214 189.077 118.214C187.753 118.214 186.666 118.307 186.03 116.906C185.521 115.785 185.742 112.642 185.954 111.926V113.742C185.954 114.431 186.666 114.572 186.666 114.572Z" fill="#1F2533"/>
<path d="M199.577 120.595C202.431 120.221 211.625 140.377 212.396 142.486C213.165 144.594 212.226 145.996 211.908 146.409L212.396 147.254C212.396 147.445 212.54 147.735 210.96 148.778C209.383 149.822 208.258 149.721 207.893 149.54L206.922 148.217C206.565 148.161 204.95 148.215 203.697 146.526C203.638 146.45 203.595 146.365 203.559 146.276L200.251 137.87C200.544 138.977 197.802 141.47 196.443 141.949L199.577 120.595Z" fill="#00D1FF"/>
<path d="M192.937 117.293C192.785 118.453 190.947 119.446 189.875 120.231C189.303 120.65 189.123 121.32 189.08 121.854C189.022 121.225 188.86 120.409 188.419 120.053C187.653 119.435 187.361 119.473 187.287 118.305C186.948 118.426 186.419 118.949 186.198 120.311C186.352 121.366 187.041 122.293 189.109 122.682C191.546 122.682 193.947 121.119 194.317 119.821C194.317 119.004 193.677 117.293 192.937 117.293Z" fill="#00D1FF"/>
<path fill-rule="evenodd" clip-rule="evenodd" d="M186.886 110.528C186.192 110.528 185.629 111.091 185.629 111.785C185.629 112.48 186.192 113.043 186.886 113.043C187.58 113.043 188.143 112.48 188.143 111.785C188.143 111.091 187.58 110.528 186.886 110.528ZM185.37 111.785C185.37 110.948 186.049 110.27 186.886 110.27C187.607 110.27 188.21 110.773 188.364 111.447C188.457 111.377 188.572 111.336 188.697 111.336C188.822 111.336 188.937 111.377 189.03 111.447C189.184 110.772 189.787 110.27 190.508 110.27C191.345 110.27 192.025 110.948 192.025 111.785C192.025 112.623 191.345 113.301 190.508 113.301C189.707 113.301 189.051 112.68 188.996 111.892C188.996 111.728 188.861 111.595 188.697 111.595C188.533 111.595 188.4 111.728 188.4 111.892C188.345 112.68 187.688 113.301 186.886 113.301C186.049 113.301 185.37 112.623 185.37 111.785ZM189.251 111.785C189.251 111.091 189.814 110.528 190.508 110.528C191.203 110.528 191.765 111.091 191.765 111.785C191.765 112.48 191.203 113.043 190.508 113.043C189.814 113.043 189.251 112.48 189.251 111.785Z" fill="#FFF06B"/>
</g>
<path d="M190.377 101.336H190.14C181.811 101.336 175.058 108.088 175.058 116.418V116.655C175.058 124.984 181.811 131.737 190.14 131.737H190.377C198.707 131.737 205.459 124.984 205.459 116.655V116.418C205.459 108.088 198.707 101.336 190.377 101.336Z" stroke="white" stroke-width="0.909359"/>
</g>
<g filter="url(#filter3_d_663_14004)">
<mask id="mask2_663_14004" style="mask-type:luminance" maskUnits="userSpaceOnUse" x="196" y="101" width="31" height="31">
<path d="M226.537 116.533C226.537 108.138 219.731 101.332 211.336 101.332C202.941 101.332 196.135 108.138 196.135 116.533C196.135 124.928 202.941 131.733 211.336 131.733C219.731 131.733 226.537 124.928 226.537 116.533Z" fill="white"/>
</mask>
<g mask="url(#mask2_663_14004)">
<path d="M226.537 116.533C226.537 108.138 219.731 101.332 211.336 101.332C202.941 101.332 196.135 108.138 196.135 116.533C196.135 124.928 202.941 131.733 211.336 131.733C219.731 131.733 226.537 124.928 226.537 116.533Z" fill="#D7F4FF"/>
<path d="M208.192 109.564L206.089 107.387L209.368 108.047L208.192 109.564Z" fill="#B7A400"/>
<path fill-rule="evenodd" clip-rule="evenodd" d="M207.627 111.621C208.234 107.383 209.504 106.467 211.561 105.864C212.59 105.562 213.698 105.615 214.693 106.137C215.687 106.659 216.562 107.643 217.139 109.189C217.987 111.162 219.8 114.218 221.944 116.836C223.019 118.146 224.172 119.344 225.33 120.241C226.49 121.141 227.643 121.733 228.714 121.844L228.695 122.026C227.575 121.909 226.388 121.294 225.218 120.386C224.048 119.477 222.882 118.268 221.803 116.952C220.666 115.564 219.623 114.055 218.765 112.645C219.409 113.868 220.207 115.26 221.107 116.623C222.136 118.179 223.295 119.693 224.517 120.875C225.739 122.059 227.011 122.9 228.265 123.124L228.339 123.137V123.214C228.339 125.851 226.538 129.372 223.071 131.487C219.6 133.606 214.463 134.312 207.793 131.334C206.089 130.573 205.333 129.17 205.166 127.641C205.002 126.116 205.42 124.462 206.066 123.173C206.297 122.711 206.519 121.882 206.721 120.849C206.923 119.82 206.873 119.524 207.022 118.28C207.326 115.793 207.022 115.859 207.627 111.621Z" fill="#A4580C"/>
<path d="M217.504 109.962L205.837 107.383L205.87 107.228L208.023 107.117C208.938 105.542 210.565 104.528 212.327 104.467C212.406 104.131 212.726 103.916 213.049 103.986L213.93 104.177C214.229 104.242 214.426 104.533 214.393 104.847C216.363 105.675 217.61 107.727 217.504 109.962Z" fill="#FFF06B"/>
<path d="M206.648 135.343C207.209 136.388 213.036 136.388 214.019 136.388L214.31 136.388C216.542 136.392 221.857 136.815 222.424 135.343C222.998 133.853 227.04 130.474 227.002 128.768C226.932 125.446 225.766 124.555 223.176 121.637C219.697 117.717 218.723 118.015 213.176 117.717C210.172 117.555 206.816 117.938 205.523 118.607C204.233 119.276 203.05 121.103 201.996 122.915C200.943 124.727 199.155 129.037 199.155 129.037L205.22 132.124C205.249 133.751 205.396 134.721 206.648 135.343Z" fill="#6559FF"/>
<path d="M215.19 117.974L214.716 113.433C214.988 113.433 215.801 113.016 215.797 111.919C215.793 111.054 214.976 110.778 214.479 111.121C214.334 111.22 214.184 111.323 214.007 111.323C213.178 111.319 210.69 111.09 209.439 108.59C208.834 110.103 208.5 111.854 208.61 113.199C208.774 115.193 210.009 115.921 210.451 115.855V118.579C212.494 119.456 214.51 118.638 215.19 117.974Z" fill="#FFCDAE"/>
<path d="M213.782 113.746C212.269 115.562 210.862 115.865 210.452 115.865L210.448 116.992C212.302 116.756 213.676 114.5 213.782 113.746Z" fill="#E5AE8C"/>
</g>
<path d="M226.537 116.536C226.537 108.141 219.731 101.336 211.336 101.336C202.941 101.336 196.135 108.141 196.135 116.536C196.135 124.931 202.941 131.737 211.336 131.737C219.731 131.737 226.537 124.931 226.537 116.536Z" stroke="white" stroke-width="0.928102"/>
</g>
<g filter="url(#filter4_d_663_14004)">
<mask id="mask3_663_14004" style="mask-type:luminance" maskUnits="userSpaceOnUse" x="217" y="101" width="31" height="31">
<path d="M247.618 116.533C247.618 108.138 240.813 101.332 232.418 101.332C224.023 101.332 217.217 108.138 217.217 116.533C217.217 124.928 224.023 131.733 232.418 131.733C240.813 131.733 247.618 124.928 247.618 116.533Z" fill="white"/>
</mask>
<g mask="url(#mask3_663_14004)">
<path d="M247.618 116.533C247.618 108.138 240.813 101.332 232.418 101.332C224.023 101.332 217.217 108.138 217.217 116.533C217.217 124.928 224.023 131.733 232.418 131.733C240.813 131.733 247.618 124.928 247.618 116.533Z" fill="#FFFBDC"/>
<path d="M234.896 111.925C233.443 113.62 235.301 116.062 236.411 117.071C236.411 117.071 237.078 115.254 237.32 114.044C237.621 112.532 237.623 110.108 237.623 110.108C237.421 109.402 236.349 110.23 234.896 111.925Z" fill="#A3580F"/>
<path d="M223.342 134.714C225.307 135.43 227.059 135.573 227.256 135.033C227.453 134.493 226.02 133.474 224.055 132.758C222.09 132.042 220.337 131.899 220.14 132.439C219.944 132.979 221.377 133.997 223.342 134.714Z" fill="#605ADE"/>
<path d="M224.86 127.179L228.956 129.785L223.108 138.974L219.012 136.368L224.86 127.179Z" fill="#EEBFA2"/>
<path d="M229.463 110.078C226.973 109.541 226.187 109.09 226.131 108.898C227.79 108.054 231.25 108.479 232.749 108.831C232.69 109.47 231.953 110.615 229.463 110.078Z" fill="#00AFD6"/>
<path d="M227.312 142.676C227.001 142.515 226.789 142.223 226.685 141.889C225.758 138.891 225.365 136.189 225.228 134.03C223.742 133.2 222.104 132.659 220.402 132.447L220.107 132.41C220.107 132.41 220.269 131.243 221.327 129.09C221.57 128.591 221.801 128.104 222.025 127.626C222.771 126.04 223.47 124.553 224.546 123.065C225.81 121.319 226.905 120.704 228.115 120.401C229.326 120.098 232.352 119.795 232.352 119.795H238.406C240.152 119.76 245.369 120.098 246.277 124.336C246.755 125.527 245.34 128.871 245.009 132.251C244.77 134.724 244.492 137.581 244.438 140.528C244.425 141.171 244.161 141.798 243.629 142.159C239.003 145.293 230.48 144.321 227.312 142.676Z" fill="#01D0FF"/>
<path d="M227.828 126.163L230.721 126.434C230.813 126.442 230.881 126.524 230.873 126.617L230.75 127.93C230.741 128.023 230.659 128.091 230.566 128.082L227.674 127.812C227.582 127.803 227.513 127.721 227.522 127.628L227.645 126.315C227.654 126.223 227.736 126.154 227.828 126.163Z" fill="#F0FBFF"/>
<path d="M231.278 112.533C231.278 111.028 232.498 109.809 234.003 109.809C235.508 109.809 236.728 111.028 236.728 112.533V119.798C236.728 121.302 235.508 121.917 234.003 121.917C232.498 121.917 231.278 121.302 231.278 119.798V112.533Z" fill="#FFCDAE"/>
<path fill-rule="evenodd" clip-rule="evenodd" d="M231.262 118.506V112.859H234.924C235.572 112.859 235.875 113.533 235.948 113.869L236.106 115.558C235.362 116.812 232.426 119.547 231.262 118.506Z" fill="#E5AE8C"/>
<path d="M236.71 114.648C237.379 114.648 237.921 114.106 237.921 113.437C237.921 112.769 237.379 112.227 236.71 112.227C236.041 112.227 235.499 112.769 235.499 113.437C235.499 114.106 236.041 114.648 236.71 114.648Z" fill="#FFCDAE"/>
<path d="M234.872 116.649C231.38 118.855 230.185 117.003 230.065 115.8L230.044 112.309L230.063 109.807C231.468 110.726 234.72 109.504 235.51 109.504C236.3 109.504 236.119 110.178 236.119 111.61V114.474V115.8L234.872 116.649Z" fill="#FFCDAE"/>
<path d="M229.153 111.016C229.153 112.147 229.726 112.725 230.063 112.832V110.411C230.365 111.924 233.391 111.016 234.904 110.411C234.904 110.411 234.604 111.924 236.092 112.745C236.163 112.714 236.419 112.227 237.023 112.227C237.628 110.412 237.63 111.016 237.726 109.684C237.794 108.71 237.304 107.559 236.375 107.58C235.037 105.812 231.672 106.168 231.165 107.053C230.658 107.938 229.581 108.106 229.022 108.453C228.236 109.299 228.486 110.681 229.153 111.016Z" fill="#A3580E"/>
<path d="M233.388 109.094C235.205 109.201 236.926 110.53 237.628 111.017C237.805 110.287 238.233 108.596 236.72 107.082C236.021 106.384 234.155 105.871 232.783 105.871C230.967 105.871 230.038 107.096 229.755 107.687C229.649 107.757 229.151 107.774 227.939 107.99C226.694 108.212 226.378 108.608 226.122 108.898C227.031 108.595 227.964 108.468 229.651 109.094C231.339 109.72 232.125 109.02 233.388 109.094Z" fill="#01D0FF"/>
</g>
<path d="M247.615 116.536C247.615 108.141 240.809 101.336 232.414 101.336C224.019 101.336 217.214 108.141 217.214 116.536C217.214 124.931 224.019 131.737 232.414 131.737C240.809 131.737 247.615 124.931 247.615 116.536Z" stroke="white" stroke-width="0.922856"/>
</g>
<g filter="url(#filter5_d_663_14004)">
<mask id="mask4_663_14004" style="mask-type:luminance" maskUnits="userSpaceOnUse" x="238" y="101" width="31" height="31">
<path d="M268.695 116.533C268.695 108.138 261.89 101.332 253.495 101.332C245.1 101.332 238.294 108.138 238.294 116.533C238.294 124.928 245.1 131.733 253.495 131.733C261.89 131.733 268.695 124.928 268.695 116.533Z" fill="white"/>
</mask>
<g mask="url(#mask4_663_14004)">
<path d="M268.695 116.533C268.695 108.138 261.89 101.332 253.495 101.332C245.1 101.332 238.294 108.138 238.294 116.533C238.294 124.928 245.1 131.733 253.495 131.733C261.89 131.733 268.695 124.928 268.695 116.533Z" fill="#D7F4FF"/>
<path d="M249.775 107.984C250.38 104.957 253 105.764 254.01 105.865C256.434 104.169 259.154 106.47 259.154 107.378C260.975 107.681 261.378 109.699 260.975 110.405C263.88 110.647 263.396 114.037 262.484 114.34C263.936 116.277 263.695 118.477 262.484 118.881C260.366 118.881 252.183 120.456 249.775 120.697C246.747 120.999 247.223 119.106 246.742 117.67C245.934 115.248 247.453 113.432 247.958 113.129C247.351 111.616 248.359 110.607 248.864 110.103C248.26 109.497 248.867 107.984 249.775 107.984Z" fill="#1F2533"/>
<path d="M249.07 135.229C249.637 136.302 255.517 136.302 256.508 136.302L256.801 136.303C259.054 136.306 264.418 136.741 264.99 135.229C265.57 133.7 269.647 130.23 269.61 128.48C269.539 125.069 268.363 124.154 265.748 121.158C262.238 117.133 261.255 117.44 255.658 117.133C252.626 116.967 248.933 117.895 247.63 118.582C246.324 119.269 245.439 120.61 244.377 122.47C243.313 124.331 241.509 128.755 241.509 128.755L247.63 131.925C247.659 133.595 247.806 134.591 249.07 135.229Z" fill="#6559FF"/>
<path d="M257.524 117.679L257.032 113.441C257.306 113.441 258.221 113.327 258.216 112.231C258.212 111.236 257.173 111.054 256.807 111.328C256.807 111.328 255.438 111.876 253.885 110.232C252.994 109.287 253.156 108.223 253.156 108.223C252.79 109.319 252.05 110.15 250.928 110.416C250.859 110.516 250.764 111.214 250.928 113.207C251.09 115.201 252.326 115.929 252.767 115.863L252.769 118.587C254.81 119.465 256.845 118.344 257.524 117.679Z" fill="#B9722B"/>
<path d="M257.036 114.043C257.37 114.043 257.641 113.772 257.641 113.437C257.641 113.103 257.37 112.832 257.036 112.832C256.702 112.832 256.431 113.103 256.431 113.437C256.431 113.772 256.702 114.043 257.036 114.043Z" fill="#FDD600"/>
<path d="M256.071 113.738C254.558 115.555 253.151 115.857 252.741 115.857L252.737 116.984C254.591 116.748 255.965 114.492 256.071 113.738Z" fill="#A4580C"/>
</g>
<path d="M268.696 116.536C268.696 108.141 261.89 101.336 253.495 101.336C245.1 101.336 238.295 108.141 238.295 116.536C238.295 124.931 245.1 131.737 253.495 131.737C261.89 131.737 268.696 124.931 268.696 116.536Z" stroke="white" stroke-width="0.928102"/>
</g>
</g>
<defs>
<filter id="filter0_d_663_14004" x="0.711351" y="69.4379" width="187.816" height="135.799" filterUnits="userSpaceOnUse" color-interpolation-filters="sRGB">
<feFlood flood-opacity="0" result="BackgroundImageFix"/>
<feColorMatrix in="SourceAlpha" type="matrix" values="0 0 0 0 0 0 0 0 0 0 0 0 0 0 0 0 0 0 127 0" result="hardAlpha"/>
<feOffset dy="5.31385"/>
<feGaussianBlur stdDeviation="4.4282"/>
<feComposite in2="hardAlpha" operator="out"/>
<feColorMatrix type="matrix" values="0 0 0 0 0.175444 0 0 0 0 0.107708 0 0 0 0 0.5875 0 0 0 0.15 0"/>
<feBlend mode="normal" in2="BackgroundImageFix" result="effect1_dropShadow_663_14004"/>
<feBlend mode="normal" in="SourceGraphic" in2="effect1_dropShadow_663_14004" result="shape"/>
</filter>
<filter id="filter1_d_663_14004" x="101.413" y="0.57073" width="187.816" height="145.799" filterUnits="userSpaceOnUse" color-interpolation-filters="sRGB">
<feFlood flood-opacity="0" result="BackgroundImageFix"/>
<feColorMatrix in="SourceAlpha" type="matrix" values="0 0 0 0 0 0 0 0 0 0 0 0 0 0 0 0 0 0 127 0" result="hardAlpha"/>
<feOffset dy="5.31385"/>
<feGaussianBlur stdDeviation="4.4282"/>
<feComposite in2="hardAlpha" operator="out"/>
<feColorMatrix type="matrix" values="0 0 0 0 0.175444 0 0 0 0 0.107708 0 0 0 0 0.5875 0 0 0 0.15 0"/>
<feBlend mode="normal" in2="BackgroundImageFix" result="effect1_dropShadow_663_14004"/>
<feBlend mode="normal" in="SourceGraphic" in2="effect1_dropShadow_663_14004" result="shape"/>
</filter>
<filter id="filter2_d_663_14004" x="165.401" y="92.763" width="49.7152" height="49.7135" filterUnits="userSpaceOnUse" color-interpolation-filters="sRGB">
<feFlood flood-opacity="0" result="BackgroundImageFix"/>
<feColorMatrix in="SourceAlpha" type="matrix" values="0 0 0 0 0 0 0 0 0 0 0 0 0 0 0 0 0 0 127 0" result="hardAlpha"/>
<feOffset dy="1.08264"/>
<feGaussianBlur stdDeviation="4.60122"/>
<feComposite in2="hardAlpha" operator="out"/>
<feColorMatrix type="matrix" values="0 0 0 0 0.190972 0 0 0 0 0.307765 0 0 0 0 0.833333 0 0 0 0.17 0"/>
<feBlend mode="normal" in2="BackgroundImageFix" result="effect1_dropShadow_663_14004"/>
<feBlend mode="normal" in="SourceGraphic" in2="effect1_dropShadow_663_14004" result="shape"/>
</filter>
<filter id="filter3_d_663_14004" x="186.279" y="92.5839" width="50.1133" height="50.1123" filterUnits="userSpaceOnUse" color-interpolation-filters="sRGB">
<feFlood flood-opacity="0" result="BackgroundImageFix"/>
<feColorMatrix in="SourceAlpha" type="matrix" values="0 0 0 0 0 0 0 0 0 0 0 0 0 0 0 0 0 0 127 0" result="hardAlpha"/>
<feOffset dy="1.10495"/>
<feGaussianBlur stdDeviation="4.69605"/>
<feComposite in2="hardAlpha" operator="out"/>
<feColorMatrix type="matrix" values="0 0 0 0 0.190972 0 0 0 0 0.307765 0 0 0 0 0.833333 0 0 0 0.17 0"/>
<feBlend mode="normal" in2="BackgroundImageFix" result="effect1_dropShadow_663_14004"/>
<feBlend mode="normal" in="SourceGraphic" in2="effect1_dropShadow_663_14004" result="shape"/>
</filter>
<filter id="filter4_d_663_14004" x="207.413" y="92.6347" width="50.0019" height="50.0023" filterUnits="userSpaceOnUse" color-interpolation-filters="sRGB">
<feFlood flood-opacity="0" result="BackgroundImageFix"/>
<feColorMatrix in="SourceAlpha" type="matrix" values="0 0 0 0 0 0 0 0 0 0 0 0 0 0 0 0 0 0 127 0" result="hardAlpha"/>
<feOffset dy="1.09871"/>
<feGaussianBlur stdDeviation="4.66951"/>
<feComposite in2="hardAlpha" operator="out"/>
<feColorMatrix type="matrix" values="0 0 0 0 0.190972 0 0 0 0 0.307765 0 0 0 0 0.833333 0 0 0 0.17 0"/>
<feBlend mode="normal" in2="BackgroundImageFix" result="effect1_dropShadow_663_14004"/>
<feBlend mode="normal" in="SourceGraphic" in2="effect1_dropShadow_663_14004" result="shape"/>
</filter>
<filter id="filter5_d_663_14004" x="228.439" y="92.5839" width="50.1133" height="50.1123" filterUnits="userSpaceOnUse" color-interpolation-filters="sRGB">
<feFlood flood-opacity="0" result="BackgroundImageFix"/>
<feColorMatrix in="SourceAlpha" type="matrix" values="0 0 0 0 0 0 0 0 0 0 0 0 0 0 0 0 0 0 127 0" result="hardAlpha"/>
<feOffset dy="1.10495"/>
<feGaussianBlur stdDeviation="4.69605"/>
<feComposite in2="hardAlpha" operator="out"/>
<feColorMatrix type="matrix" values="0 0 0 0 0.190972 0 0 0 0 0.307765 0 0 0 0 0.833333 0 0 0 0.17 0"/>
<feBlend mode="normal" in2="BackgroundImageFix" result="effect1_dropShadow_663_14004"/>
<feBlend mode="normal" in="SourceGraphic" in2="effect1_dropShadow_663_14004" result="shape"/>
</filter>
</defs>
</svg>
