<svg width="339" height="318" viewBox="0 0 339 318" fill="none" xmlns="http://www.w3.org/2000/svg">
<g filter="url(#filter0_d_814_15183)">
<path d="M315.24 4.32812H23.5014C16.445 4.32812 10.7246 10.637 10.7246 18.4195V286.155C10.7246 293.937 16.445 300.246 23.5014 300.246H315.24C322.296 300.246 328.017 293.937 328.017 286.155V18.4195C328.017 10.637 322.296 4.32812 315.24 4.32812Z" fill="white"/>
<g opacity="0.7">
<mask id="mask0_814_15183" style="mask-type:luminance" maskUnits="userSpaceOnUse" x="26" y="23" width="287" height="69">
<path d="M309.263 23.1094H29.4767C27.9402 23.1094 26.6947 24.4831 26.6947 26.1776V88.1494C26.6947 89.8439 27.9402 91.2176 29.4767 91.2176H309.263C310.799 91.2176 312.045 89.8439 312.045 88.1494V26.1776C312.045 24.4831 310.799 23.1094 309.263 23.1094Z" fill="white"/>
</mask>
<g mask="url(#mask0_814_15183)">
<path d="M309.263 23.1094H29.4767C27.9402 23.1094 26.6947 24.4831 26.6947 26.1776V88.1494C26.6947 89.8439 27.9402 91.2176 29.4767 91.2176H309.263C310.799 91.2176 312.045 89.8439 312.045 88.1494V26.1776C312.045 24.4831 310.799 23.1094 309.263 23.1094Z" fill="#F8FAFF"/>
<path d="M309.263 23.1094H29.4767C27.9402 23.1094 26.6947 24.4831 26.6947 26.1776V88.1494C26.6947 89.8439 27.9402 91.2176 29.4767 91.2176H309.263C310.799 91.2176 312.045 89.8439 312.045 88.1494V26.1776C312.045 24.4831 310.799 23.1094 309.263 23.1094Z" fill="url(#paint0_radial_814_15183)"/>
<path d="M309.263 23.1094H29.4767C27.9402 23.1094 26.6947 24.4831 26.6947 26.1776V88.1494C26.6947 89.8439 27.9402 91.2176 29.4767 91.2176H309.263C310.799 91.2176 312.045 89.8439 312.045 88.1494V26.1776C312.045 24.4831 310.799 23.1094 309.263 23.1094Z" fill="url(#paint1_radial_814_15183)"/>
</g>
</g>
<path d="M196.558 98.769C196.558 82.8717 184.873 69.9844 170.458 69.9844C156.044 69.9844 144.359 82.8717 144.359 98.769V102.367C144.359 118.264 156.044 131.151 170.458 131.151C184.873 131.151 196.558 118.264 196.558 102.367V98.769Z" fill="#F3F6FB" stroke="white" stroke-width="2.64399"/>
<path d="M170.776 53.6445H170.775C152.753 53.6445 138.144 68.2542 138.144 86.2761V86.2764C138.144 104.298 152.753 118.908 170.775 118.908H170.776C188.797 118.908 203.407 104.298 203.407 86.2764V86.2761C203.407 68.2542 188.797 53.6445 170.776 53.6445Z" fill="#202634" stroke="white" stroke-width="2.64399"/>
<path d="M123.685 158.507C122.303 158.507 121.215 159.017 120.422 160.038C119.629 161.058 119.232 162.457 119.232 164.233C119.232 165.996 119.599 167.394 120.332 168.428C121.077 169.449 122.189 169.959 123.667 169.959C124.232 169.959 124.767 169.906 125.271 169.8C125.776 169.694 126.269 169.561 126.749 169.402V170.953C126.269 171.152 125.77 171.298 125.253 171.39C124.749 171.483 124.141 171.53 123.433 171.53C122.123 171.53 121.029 171.231 120.151 170.635C119.274 170.038 118.613 169.19 118.169 168.09C117.736 166.99 117.519 165.698 117.519 164.213C117.519 162.781 117.754 161.522 118.223 160.435C118.703 159.335 119.406 158.48 120.332 157.871C121.257 157.248 122.381 156.936 123.703 156.936C125.061 156.936 126.245 157.215 127.254 157.771L126.605 159.282C126.209 159.083 125.764 158.905 125.271 158.746C124.791 158.586 124.262 158.507 123.685 158.507ZM133.074 160.475C133.903 160.475 134.613 160.674 135.201 161.072C135.802 161.469 136.259 162.033 136.571 162.762C136.896 163.477 137.058 164.319 137.058 165.287V166.34H130.442C130.466 167.547 130.743 168.468 131.271 169.104C131.812 169.727 132.563 170.038 133.525 170.038C134.138 170.038 134.679 169.979 135.147 169.86C135.628 169.727 136.121 169.541 136.626 169.303V170.834C136.133 171.072 135.646 171.245 135.165 171.351C134.685 171.47 134.114 171.53 133.453 171.53C132.539 171.53 131.728 171.324 131.019 170.913C130.322 170.503 129.775 169.893 129.378 169.084C128.994 168.262 128.802 167.262 128.802 166.082C128.802 164.915 128.976 163.915 129.325 163.08C129.685 162.245 130.184 161.602 130.821 161.151C131.47 160.7 132.221 160.475 133.074 160.475ZM133.056 161.907C132.299 161.907 131.698 162.179 131.253 162.722C130.821 163.252 130.562 163.994 130.478 164.949H135.4C135.388 164.047 135.195 163.318 134.823 162.762C134.45 162.192 133.861 161.907 133.056 161.907ZM144.025 160.475C144.205 160.475 144.397 160.489 144.602 160.515C144.818 160.528 145.005 160.555 145.161 160.595L144.962 162.205C144.806 162.165 144.632 162.132 144.44 162.106C144.259 162.079 144.085 162.066 143.917 162.066C143.424 162.066 142.961 162.218 142.529 162.523C142.096 162.815 141.747 163.232 141.483 163.776C141.231 164.306 141.105 164.929 141.105 165.645V171.331H139.518V160.674H140.816L140.996 162.623H141.069C141.381 162.039 141.784 161.536 142.276 161.111C142.769 160.687 143.352 160.475 144.025 160.475ZM150.192 170.098C150.432 170.098 150.679 170.078 150.931 170.038C151.183 169.986 151.388 169.932 151.544 169.879V171.212C151.376 171.304 151.135 171.377 150.823 171.43C150.51 171.497 150.21 171.53 149.922 171.53C149.417 171.53 148.948 171.437 148.515 171.251C148.095 171.053 147.752 170.714 147.488 170.237C147.223 169.76 147.091 169.091 147.091 168.229V162.026H145.721V161.191L147.109 160.495L147.74 158.229H148.678V160.674H151.472V162.026H148.678V168.189C148.678 168.839 148.816 169.323 149.092 169.641C149.381 169.946 149.747 170.098 150.192 170.098ZM154.29 156.678C154.53 156.678 154.741 156.771 154.921 156.956C155.113 157.128 155.21 157.407 155.21 157.791C155.21 158.162 155.113 158.441 154.921 158.626C154.741 158.812 154.53 158.905 154.29 158.905C154.026 158.905 153.803 158.812 153.623 158.626C153.443 158.441 153.353 158.162 153.353 157.791C153.353 157.407 153.443 157.128 153.623 156.956C153.803 156.771 154.026 156.678 154.29 156.678ZM155.065 160.674V171.331H153.479V160.674H155.065ZM162.579 162.026H160.145V171.331H158.559V162.026H156.865V161.211L158.559 160.614V159.998C158.559 158.62 158.835 157.632 159.388 157.036C159.941 156.426 160.71 156.121 161.696 156.121C162.08 156.121 162.429 156.161 162.742 156.24C163.066 156.307 163.342 156.386 163.571 156.479L163.156 157.851C162.964 157.784 162.742 157.718 162.489 157.652C162.237 157.586 161.978 157.552 161.714 157.552C161.185 157.552 160.789 157.751 160.524 158.149C160.272 158.533 160.145 159.143 160.145 159.978V160.674H162.579V162.026ZM165.139 156.678C165.38 156.678 165.59 156.771 165.77 156.956C165.962 157.128 166.059 157.407 166.059 157.791C166.059 158.162 165.962 158.441 165.77 158.626C165.59 158.812 165.38 158.905 165.139 158.905C164.875 158.905 164.652 158.812 164.472 158.626C164.292 158.441 164.202 158.162 164.202 157.791C164.202 157.407 164.292 157.128 164.472 156.956C164.652 156.771 164.875 156.678 165.139 156.678ZM165.914 160.674V171.331H164.328V160.674H165.914ZM172.847 171.53C171.994 171.53 171.23 171.337 170.558 170.953C169.896 170.569 169.374 169.972 168.989 169.164C168.617 168.355 168.43 167.321 168.43 166.062C168.43 164.75 168.629 163.683 169.025 162.861C169.422 162.039 169.957 161.436 170.63 161.052C171.315 160.667 172.09 160.475 172.955 160.475C173.448 160.475 173.923 160.535 174.379 160.654C174.836 160.76 175.209 160.893 175.497 161.052L175.01 162.503C174.722 162.384 174.385 162.271 174.001 162.165C173.616 162.059 173.256 162.006 172.919 162.006C171.02 162.006 170.071 163.351 170.071 166.042C170.071 167.328 170.299 168.315 170.756 169.005C171.224 169.681 171.916 170.019 172.829 170.019C173.358 170.019 173.82 169.959 174.217 169.84C174.626 169.72 174.998 169.575 175.335 169.402V170.953C175.01 171.139 174.65 171.278 174.253 171.371C173.868 171.477 173.4 171.53 172.847 171.53ZM181.292 160.495C182.47 160.495 183.341 160.78 183.906 161.35C184.471 161.92 184.753 162.828 184.753 164.074V171.331H183.6L183.293 169.82H183.221C182.801 170.403 182.356 170.834 181.887 171.112C181.43 171.39 180.793 171.53 179.976 171.53C179.099 171.53 178.372 171.278 177.795 170.774C177.218 170.257 176.93 169.455 176.93 168.368C176.93 167.308 177.308 166.493 178.065 165.923C178.823 165.34 179.988 165.022 181.563 164.969L183.203 164.909V164.273C183.203 163.385 183.029 162.768 182.68 162.424C182.332 162.079 181.839 161.907 181.202 161.907C180.697 161.907 180.217 161.993 179.76 162.165C179.303 162.324 178.877 162.51 178.48 162.722L177.993 161.41C178.414 161.158 178.913 160.946 179.489 160.773C180.066 160.588 180.667 160.495 181.292 160.495ZM181.761 166.181C180.559 166.234 179.724 166.447 179.255 166.818C178.798 167.189 178.57 167.712 178.57 168.388C178.57 168.985 178.732 169.422 179.057 169.7C179.393 169.979 179.82 170.118 180.337 170.118C181.154 170.118 181.833 169.873 182.374 169.382C182.915 168.879 183.185 168.11 183.185 167.076V166.122L181.761 166.181ZM190.965 170.098C191.205 170.098 191.451 170.078 191.704 170.038C191.956 169.986 192.161 169.932 192.317 169.879V171.212C192.149 171.304 191.908 171.377 191.596 171.43C191.283 171.497 190.983 171.53 190.694 171.53C190.19 171.53 189.721 171.437 189.288 171.251C188.868 171.053 188.525 170.714 188.261 170.237C187.996 169.76 187.864 169.091 187.864 168.229V162.026H186.494V161.191L187.882 160.495L188.513 158.229H189.451V160.674H192.245V162.026H189.451V168.189C189.451 168.839 189.589 169.323 189.865 169.641C190.154 169.946 190.52 170.098 190.965 170.098ZM197.983 160.475C198.813 160.475 199.522 160.674 200.11 161.072C200.711 161.469 201.168 162.033 201.481 162.762C201.805 163.477 201.967 164.319 201.967 165.287V166.34H195.351C195.375 167.547 195.652 168.468 196.181 169.104C196.721 169.727 197.472 170.038 198.434 170.038C199.047 170.038 199.588 169.979 200.057 169.86C200.537 169.727 201.03 169.541 201.535 169.303V170.834C201.042 171.072 200.555 171.245 200.075 171.351C199.594 171.47 199.023 171.53 198.362 171.53C197.449 171.53 196.637 171.324 195.928 170.913C195.231 170.503 194.684 169.893 194.288 169.084C193.903 168.262 193.711 167.262 193.711 166.082C193.711 164.915 193.885 163.915 194.234 163.08C194.594 162.245 195.093 161.602 195.73 161.151C196.379 160.7 197.13 160.475 197.983 160.475ZM197.965 161.907C197.208 161.907 196.607 162.179 196.162 162.722C195.73 163.252 195.472 163.994 195.387 164.949H200.309C200.297 164.047 200.104 163.318 199.732 162.762C199.359 162.192 198.771 161.907 197.965 161.907ZM217.511 165.982C217.511 167.746 217.102 169.111 216.285 170.078C215.48 171.046 214.386 171.53 213.004 171.53C212.151 171.53 211.388 171.318 210.715 170.894C210.054 170.456 209.531 169.826 209.146 169.005C208.762 168.17 208.569 167.162 208.569 165.982C208.569 164.22 208.972 162.861 209.777 161.907C210.583 160.952 211.676 160.475 213.058 160.475C213.936 160.475 214.705 160.694 215.366 161.131C216.039 161.556 216.562 162.179 216.934 163C217.319 163.809 217.511 164.803 217.511 165.982ZM210.21 165.982C210.21 167.242 210.432 168.242 210.877 168.985C211.334 169.714 212.055 170.078 213.04 170.078C214.014 170.078 214.729 169.714 215.185 168.985C215.642 168.242 215.871 167.242 215.871 165.982C215.871 164.723 215.642 163.736 215.185 163.02C214.729 162.304 214.008 161.947 213.022 161.947C212.037 161.947 211.322 162.304 210.877 163.02C210.432 163.736 210.21 164.723 210.21 165.982ZM224.478 162.026H222.044V171.331H220.458V162.026H218.763V161.211L220.458 160.614V159.998C220.458 158.62 220.734 157.632 221.287 157.036C221.84 156.426 222.609 156.121 223.595 156.121C223.979 156.121 224.328 156.161 224.64 156.24C224.965 156.307 225.241 156.386 225.47 156.479L225.055 157.851C224.863 157.784 224.64 157.718 224.388 157.652C224.136 157.586 223.877 157.552 223.613 157.552C223.084 157.552 222.687 157.751 222.423 158.149C222.17 158.533 222.044 159.143 222.044 159.978V160.674H224.478V162.026ZM113.991 199.146C112.772 199.146 111.726 198.896 110.851 198.396C109.976 197.879 109.304 197.087 108.835 196.018C108.366 194.95 108.132 193.58 108.132 191.909C108.132 190.186 108.39 188.781 108.905 187.696C109.437 186.61 110.163 185.809 111.085 185.292C112.022 184.775 113.093 184.516 114.296 184.516C115.077 184.516 115.803 184.611 116.475 184.801C117.147 184.99 117.709 185.214 118.162 185.473L117.061 188.368C116.592 188.144 116.163 187.963 115.772 187.825C115.397 187.687 114.983 187.618 114.53 187.618C113.983 187.618 113.514 187.782 113.124 188.109C112.749 188.419 112.46 188.893 112.257 189.531C112.054 190.151 111.952 190.935 111.952 191.883C111.952 192.813 112.054 193.589 112.257 194.209C112.475 194.812 112.772 195.269 113.147 195.579C113.538 195.872 113.999 196.018 114.53 196.018C115.124 196.018 115.686 195.915 116.217 195.708C116.764 195.484 117.28 195.183 117.764 194.803V198.086C117.248 198.465 116.694 198.732 116.1 198.887C115.522 199.06 114.819 199.146 113.991 199.146ZM131.641 191.805C131.641 192.977 131.5 194.019 131.219 194.933C130.953 195.846 130.563 196.621 130.047 197.259C129.531 197.879 128.899 198.353 128.149 198.68C127.414 198.991 126.586 199.146 125.665 199.146C124.805 199.146 124.009 198.991 123.274 198.68C122.54 198.353 121.907 197.879 121.376 197.259C120.86 196.621 120.454 195.846 120.157 194.933C119.876 194.019 119.735 192.977 119.735 191.805C119.735 190.237 119.978 188.919 120.462 187.851C120.946 186.765 121.634 185.938 122.524 185.37C123.415 184.801 124.485 184.516 125.735 184.516C126.891 184.516 127.907 184.801 128.782 185.37C129.672 185.938 130.367 186.765 130.867 187.851C131.383 188.919 131.641 190.237 131.641 191.805ZM123.555 191.805C123.555 192.736 123.626 193.52 123.766 194.157C123.923 194.778 124.157 195.252 124.469 195.579C124.797 195.889 125.211 196.044 125.711 196.044C126.227 196.044 126.633 195.889 126.93 195.579C127.242 195.252 127.469 194.778 127.61 194.157C127.75 193.52 127.821 192.736 127.821 191.805C127.821 190.875 127.75 190.099 127.61 189.479C127.469 188.859 127.235 188.394 126.907 188.083C126.594 187.773 126.188 187.618 125.688 187.618C124.923 187.618 124.376 187.971 124.048 188.678C123.719 189.367 123.555 190.41 123.555 191.805ZM148.675 184.516C150.065 184.516 151.112 184.93 151.815 185.757C152.534 186.567 152.893 187.877 152.893 189.686V198.887H149.167V190.642C149.167 189.626 149.026 188.867 148.745 188.368C148.479 187.851 148.073 187.592 147.526 187.592C146.745 187.592 146.198 187.954 145.886 188.678C145.573 189.402 145.417 190.444 145.417 191.805V198.887H141.667V190.642C141.667 189.97 141.605 189.41 141.48 188.962C141.371 188.514 141.199 188.178 140.964 187.954C140.73 187.713 140.417 187.592 140.027 187.592C139.496 187.592 139.074 187.773 138.761 188.135C138.465 188.497 138.254 189.022 138.129 189.712C138.004 190.401 137.941 191.245 137.941 192.245V198.887H134.191V184.775H137.027L137.566 186.584H137.707C137.941 186.102 138.23 185.714 138.574 185.421C138.933 185.111 139.34 184.887 139.793 184.749C140.261 184.594 140.761 184.516 141.292 184.516C142.167 184.516 142.902 184.689 143.495 185.033C144.105 185.361 144.581 185.878 144.925 186.584H145.136C145.511 185.861 146.011 185.335 146.636 185.007C147.276 184.68 147.956 184.516 148.675 184.516ZM163.08 184.516C164.423 184.516 165.494 185.137 166.29 186.378C167.103 187.601 167.509 189.41 167.509 191.805C167.509 193.408 167.314 194.76 166.923 195.863C166.533 196.949 165.993 197.767 165.306 198.319C164.619 198.87 163.83 199.146 162.939 199.146C162.377 199.146 161.892 199.06 161.486 198.887C161.08 198.715 160.736 198.491 160.455 198.215C160.189 197.94 159.955 197.647 159.752 197.336H159.588C159.635 197.664 159.674 198.009 159.705 198.37C159.736 198.715 159.752 199.06 159.752 199.404V205.091H156.002V184.775H159.049L159.588 186.61H159.752C159.955 186.231 160.205 185.886 160.502 185.576C160.799 185.249 161.158 184.99 161.58 184.801C162.002 184.611 162.502 184.516 163.08 184.516ZM161.744 187.592C161.26 187.592 160.869 187.73 160.572 188.006C160.275 188.281 160.064 188.704 159.939 189.272C159.814 189.824 159.752 190.521 159.752 191.366V191.779C159.752 192.693 159.814 193.468 159.939 194.106C160.064 194.726 160.275 195.2 160.572 195.527C160.869 195.854 161.275 196.018 161.791 196.018C162.213 196.018 162.564 195.854 162.845 195.527C163.127 195.2 163.337 194.717 163.478 194.08C163.619 193.442 163.689 192.667 163.689 191.754C163.689 190.375 163.525 189.341 163.197 188.652C162.884 187.946 162.4 187.592 161.744 187.592ZM173.804 198.887H170.054V179.244H173.804V198.887ZM182.215 184.516C183.356 184.516 184.34 184.766 185.168 185.266C185.996 185.766 186.637 186.489 187.09 187.437C187.543 188.385 187.769 189.548 187.769 190.927V192.787H180.153C180.184 193.873 180.434 194.726 180.903 195.346C181.387 195.967 182.075 196.277 182.965 196.277C183.746 196.277 184.449 196.191 185.074 196.018C185.715 195.829 186.371 195.544 187.043 195.165V198.138C186.465 198.482 185.832 198.732 185.145 198.887C184.473 199.06 183.637 199.146 182.637 199.146C181.418 199.146 180.332 198.887 179.379 198.37C178.442 197.836 177.7 197.035 177.153 195.967C176.622 194.898 176.356 193.554 176.356 191.935C176.356 190.28 176.598 188.911 177.083 187.825C177.583 186.722 178.27 185.895 179.145 185.344C180.035 184.792 181.059 184.516 182.215 184.516ZM182.285 187.256C181.723 187.256 181.254 187.497 180.879 187.98C180.504 188.462 180.286 189.212 180.223 190.229H184.324C184.324 189.66 184.246 189.152 184.09 188.704C183.934 188.256 183.707 187.903 183.41 187.644C183.113 187.386 182.738 187.256 182.285 187.256ZM195.816 196.07C196.191 196.07 196.535 196.027 196.847 195.941C197.175 195.854 197.511 195.751 197.855 195.631V198.5C197.465 198.672 197.004 198.818 196.472 198.939C195.957 199.077 195.347 199.146 194.644 199.146C193.895 199.146 193.223 199.008 192.629 198.732C192.051 198.457 191.598 197.983 191.27 197.311C190.941 196.621 190.778 195.674 190.778 194.468V187.67H189.254V186.041L191.082 184.749L192.113 181.777H194.527V184.775H197.714V187.67H194.527V194.468C194.527 195.002 194.644 195.407 194.879 195.682C195.113 195.941 195.426 196.07 195.816 196.07ZM203.9 184.775V198.887H200.15V184.775H203.9ZM202.048 179.244C202.595 179.244 203.064 179.381 203.454 179.657C203.845 179.916 204.04 180.407 204.04 181.131C204.04 181.837 203.845 182.328 203.454 182.604C203.064 182.88 202.595 183.017 202.048 183.017C201.486 183.017 201.009 182.88 200.619 182.604C200.228 182.328 200.033 181.837 200.033 181.131C200.033 180.407 200.228 179.916 200.619 179.657C201.009 179.381 201.486 179.244 202.048 179.244ZM218.357 191.805C218.357 192.977 218.216 194.019 217.935 194.933C217.669 195.846 217.279 196.621 216.763 197.259C216.248 197.879 215.615 198.353 214.865 198.68C214.131 198.991 213.303 199.146 212.381 199.146C211.521 199.146 210.725 198.991 209.99 198.68C209.256 198.353 208.623 197.879 208.092 197.259C207.576 196.621 207.17 195.846 206.874 194.933C206.592 194.019 206.452 192.977 206.452 191.805C206.452 190.237 206.694 188.919 207.178 187.851C207.662 186.765 208.35 185.938 209.241 185.37C210.131 184.801 211.201 184.516 212.451 184.516C213.607 184.516 214.623 184.801 215.498 185.37C216.388 185.938 217.084 186.765 217.584 187.851C218.099 188.919 218.357 190.237 218.357 191.805ZM210.272 191.805C210.272 192.736 210.342 193.52 210.483 194.157C210.639 194.778 210.873 195.252 211.186 195.579C211.514 195.889 211.928 196.044 212.428 196.044C212.943 196.044 213.349 195.889 213.647 195.579C213.959 195.252 214.185 194.778 214.326 194.157C214.467 193.52 214.537 192.736 214.537 191.805C214.537 190.875 214.467 190.099 214.326 189.479C214.185 188.859 213.951 188.394 213.623 188.083C213.31 187.773 212.904 187.618 212.404 187.618C211.639 187.618 211.092 187.971 210.764 188.678C210.436 189.367 210.272 190.41 210.272 191.805ZM228.126 184.516C229.407 184.516 230.438 184.93 231.22 185.757C232.016 186.567 232.415 187.877 232.415 189.686V198.887H228.665V190.642C228.665 189.626 228.524 188.867 228.243 188.368C227.978 187.851 227.548 187.592 226.954 187.592C226.048 187.592 225.439 187.997 225.126 188.807C224.814 189.6 224.658 190.746 224.658 192.245V198.887H220.908V184.775H223.744L224.259 186.584H224.423C224.689 186.102 225.001 185.714 225.361 185.421C225.736 185.111 226.157 184.887 226.626 184.749C227.095 184.594 227.595 184.516 228.126 184.516Z" fill="#1F2533"/>
<path d="M228.471 219.902H112.611C110.191 219.902 108.229 222.066 108.229 224.736C108.229 227.405 110.191 229.569 112.611 229.569H228.471C230.891 229.569 232.853 227.405 232.853 224.736C232.853 222.066 230.891 219.902 228.471 219.902Z" fill="#EAEDF2"/>
<path d="M213.267 238.418H127.817C125.397 238.418 123.435 240.582 123.435 243.251C123.435 245.92 125.397 248.084 127.817 248.084H213.267C215.687 248.084 217.649 245.92 217.649 243.251C217.649 240.582 215.687 238.418 213.267 238.418Z" fill="#EAEDF2"/>
<path d="M168.47 72.6831C169.377 70.6317 172.174 70.6317 173.081 72.6831L175.746 78.7071C176.116 79.5433 176.876 80.1189 177.753 80.2274L184.071 81.0086C186.223 81.2745 187.087 84.0475 185.496 85.5813L180.825 90.0855C180.177 90.7107 179.886 91.6421 180.058 92.5454L181.298 99.0521C181.721 101.268 179.458 102.982 177.567 101.878L172.016 98.638C171.245 98.1882 170.306 98.1882 169.535 98.638L163.983 101.878C162.093 102.982 159.83 101.268 160.252 99.0521L161.493 92.5454C161.665 91.6421 161.374 90.7107 160.726 90.0855L156.055 85.5813C154.464 84.0475 155.328 81.2745 157.48 81.0086L163.798 80.2274C164.675 80.1189 165.435 79.5433 165.805 78.7071L168.47 72.6831Z" stroke="#F8F8FF" stroke-width="2.55527" stroke-linejoin="round"/>
</g>
<defs>
<filter id="filter0_d_814_15183" x="0.0776911" y="0.0693669" width="338.586" height="317.212" filterUnits="userSpaceOnUse" color-interpolation-filters="sRGB">
<feFlood flood-opacity="0" result="BackgroundImageFix"/>
<feColorMatrix in="SourceAlpha" type="matrix" values="0 0 0 0 0 0 0 0 0 0 0 0 0 0 0 0 0 0 127 0" result="hardAlpha"/>
<feOffset dy="6.38816"/>
<feGaussianBlur stdDeviation="5.32346"/>
<feComposite in2="hardAlpha" operator="out"/>
<feColorMatrix type="matrix" values="0 0 0 0 0.175444 0 0 0 0 0.107708 0 0 0 0 0.5875 0 0 0 0.15 0"/>
<feBlend mode="normal" in2="BackgroundImageFix" result="effect1_dropShadow_814_15183"/>
<feBlend mode="normal" in="SourceGraphic" in2="effect1_dropShadow_814_15183" result="shape"/>
</filter>
<radialGradient id="paint0_radial_814_15183" cx="0" cy="0" r="1" gradientUnits="userSpaceOnUse" gradientTransform="translate(332.274 -76.7046) rotate(111.141) scale(256.839 236.722)">
<stop stop-color="#00BAFF"/>
<stop offset="1" stop-color="#E3E0FF" stop-opacity="0"/>
</radialGradient>
<radialGradient id="paint1_radial_814_15183" cx="0" cy="0" r="1" gradientUnits="userSpaceOnUse" gradientTransform="translate(27.7593 213.343) rotate(-51.1082) scale(218.763 155.789)">
<stop stop-color="#FDD600"/>
<stop offset="1" stop-color="#FFD800" stop-opacity="0"/>
</radialGradient>
</defs>
</svg>
