<svg width="300" height="164" viewBox="0 0 300 164" fill="none" xmlns="http://www.w3.org/2000/svg">
<rect x="58.3717" y="70.9336" width="240.975" height="92.3895" rx="19.0494" fill="#5850F4"/>
<path d="M79.5775 101.341L79.006 102.049C79.326 101.889 79.6689 101.767 80.0347 101.683C80.408 101.592 80.8081 101.546 81.2348 101.546C81.8596 101.546 82.4654 101.649 83.0521 101.855C83.6464 102.061 84.1684 102.373 84.6179 102.792C85.0675 103.204 85.4294 103.718 85.7038 104.335C85.9781 104.952 86.1152 105.672 86.1152 106.495C86.1152 107.265 85.9743 107.989 85.6923 108.667C85.4104 109.337 85.0142 109.924 84.5036 110.427C83.9931 110.93 83.3759 111.326 82.652 111.616C81.9358 111.905 81.1433 112.05 80.2747 112.05C79.3908 112.05 78.5983 111.909 77.8973 111.627C77.1963 111.345 76.5981 110.953 76.1029 110.45C75.6076 109.939 75.2266 109.33 74.9599 108.621C74.7008 107.905 74.5713 107.112 74.5713 106.244C74.5713 105.467 74.7275 104.67 75.0399 103.855C75.3599 103.032 75.8514 102.179 76.5143 101.295L80.4576 96.0029C80.5947 95.82 80.7928 95.6638 81.0519 95.5343C81.3186 95.4047 81.6234 95.3399 81.9663 95.3399H84.4808L79.5775 101.341ZM80.2175 109.741C80.6671 109.741 81.0786 109.665 81.4519 109.513C81.8329 109.36 82.1568 109.147 82.4234 108.873C82.6978 108.598 82.9111 108.278 83.0635 107.913C83.2159 107.539 83.2921 107.135 83.2921 106.701C83.2921 106.229 83.2197 105.806 83.0749 105.432C82.9302 105.051 82.7244 104.731 82.4577 104.472C82.191 104.206 81.871 104.004 81.4976 103.866C81.1243 103.729 80.7128 103.661 80.2632 103.661C79.8137 103.661 79.406 103.737 79.0403 103.889C78.6745 104.042 78.3621 104.255 78.103 104.529C77.844 104.796 77.6421 105.116 77.4973 105.489C77.3525 105.855 77.2801 106.251 77.2801 106.678C77.2801 107.135 77.3411 107.554 77.463 107.935C77.5925 108.309 77.7792 108.629 78.023 108.895C78.2745 109.162 78.5831 109.372 78.9488 109.524C79.3146 109.669 79.7375 109.741 80.2175 109.741ZM91.5118 101.341C91.8775 101.264 92.228 101.211 92.5633 101.18C92.8986 101.142 93.2224 101.123 93.5348 101.123C94.4035 101.123 95.1693 101.253 95.8322 101.512C96.4951 101.771 97.0513 102.129 97.5009 102.586C97.9505 103.044 98.2896 103.581 98.5181 104.198C98.7467 104.807 98.861 105.467 98.861 106.175C98.861 107.052 98.7048 107.852 98.3924 108.575C98.0876 109.299 97.6609 109.92 97.1123 110.438C96.5637 110.949 95.9122 111.345 95.1578 111.627C94.4111 111.909 93.5958 112.05 92.7119 112.05C92.1938 112.05 91.7023 111.997 91.2375 111.89C90.7727 111.783 90.3345 111.642 89.9231 111.467C89.5192 111.284 89.142 111.079 88.7915 110.85C88.4486 110.614 88.14 110.366 87.8657 110.107L88.7344 108.907C88.9173 108.648 89.1573 108.518 89.4545 108.518C89.6449 108.518 89.8393 108.579 90.0374 108.701C90.2355 108.823 90.4603 108.956 90.7117 109.101C90.9708 109.246 91.2718 109.379 91.6147 109.501C91.9652 109.623 92.3842 109.684 92.8719 109.684C93.3901 109.684 93.8472 109.6 94.2435 109.433C94.6397 109.265 94.9673 109.033 95.2264 108.735C95.4931 108.431 95.6912 108.073 95.8208 107.661C95.9579 107.242 96.0265 106.789 96.0265 106.301C96.0265 105.402 95.7636 104.701 95.2378 104.198C94.7197 103.687 93.9501 103.432 92.9291 103.432C92.1442 103.432 91.3403 103.577 90.5174 103.866L88.7572 103.364L90.1288 95.3399H98.2896V96.5401C98.2896 96.9439 98.1638 97.2716 97.9124 97.523C97.6609 97.7745 97.2342 97.9002 96.6323 97.9002H92.0947L91.5118 101.341ZM108.647 99.3403C108.647 99.9651 108.54 100.529 108.327 101.032C108.121 101.535 107.843 101.965 107.492 102.323C107.142 102.674 106.734 102.944 106.269 103.135C105.804 103.325 105.321 103.421 104.818 103.421C104.269 103.421 103.762 103.325 103.298 103.135C102.833 102.944 102.429 102.674 102.086 102.323C101.751 101.965 101.488 101.535 101.297 101.032C101.107 100.529 101.012 99.9651 101.012 99.3403C101.012 98.7003 101.107 98.1212 101.297 97.603C101.488 97.0849 101.751 96.6467 102.086 96.2886C102.429 95.9305 102.833 95.6562 103.298 95.4657C103.762 95.2676 104.269 95.1685 104.818 95.1685C105.366 95.1685 105.873 95.2676 106.338 95.4657C106.81 95.6562 107.218 95.9305 107.561 96.2886C107.904 96.6467 108.17 97.0849 108.361 97.603C108.551 98.1212 108.647 98.7003 108.647 99.3403ZM106.475 99.3403C106.475 98.8984 106.429 98.5288 106.338 98.2316C106.254 97.9345 106.136 97.6944 105.983 97.5116C105.839 97.3287 105.663 97.1992 105.458 97.123C105.26 97.0392 105.046 96.9972 104.818 96.9972C104.589 96.9972 104.376 97.0392 104.178 97.123C103.979 97.1992 103.808 97.3287 103.663 97.5116C103.526 97.6944 103.416 97.9345 103.332 98.2316C103.248 98.5288 103.206 98.8984 103.206 99.3403C103.206 99.767 103.248 100.125 103.332 100.415C103.416 100.697 103.526 100.925 103.663 101.1C103.808 101.276 103.979 101.401 104.178 101.478C104.376 101.554 104.589 101.592 104.818 101.592C105.046 101.592 105.26 101.554 105.458 101.478C105.663 101.401 105.839 101.276 105.983 101.1C106.136 100.925 106.254 100.697 106.338 100.415C106.429 100.125 106.475 99.767 106.475 99.3403ZM114.144 95.7857C114.243 95.6714 114.358 95.5685 114.487 95.4771C114.624 95.3857 114.815 95.3399 115.059 95.3399H117.116L104.841 111.444C104.741 111.566 104.623 111.669 104.486 111.753C104.349 111.829 104.181 111.867 103.983 111.867H101.88L114.144 95.7857ZM117.985 107.981C117.985 108.606 117.878 109.17 117.665 109.673C117.459 110.176 117.181 110.606 116.83 110.964C116.48 111.315 116.072 111.589 115.607 111.787C115.142 111.978 114.659 112.073 114.156 112.073C113.607 112.073 113.1 111.978 112.636 111.787C112.171 111.589 111.767 111.315 111.424 110.964C111.089 110.606 110.826 110.176 110.635 109.673C110.445 109.17 110.35 108.606 110.35 107.981C110.35 107.341 110.445 106.762 110.635 106.244C110.826 105.726 111.089 105.288 111.424 104.929C111.767 104.571 112.171 104.297 112.636 104.106C113.1 103.908 113.607 103.809 114.156 103.809C114.704 103.809 115.211 103.908 115.676 104.106C116.148 104.297 116.552 104.571 116.887 104.929C117.23 105.288 117.497 105.726 117.687 106.244C117.886 106.762 117.985 107.341 117.985 107.981ZM115.802 107.981C115.802 107.539 115.76 107.17 115.676 106.872C115.592 106.575 115.474 106.335 115.321 106.152C115.177 105.969 115.001 105.84 114.796 105.764C114.598 105.68 114.384 105.638 114.156 105.638C113.927 105.638 113.714 105.68 113.516 105.764C113.317 105.84 113.146 105.969 113.001 106.152C112.856 106.335 112.742 106.575 112.658 106.872C112.582 107.17 112.544 107.539 112.544 107.981C112.544 108.408 112.582 108.766 112.658 109.055C112.742 109.345 112.856 109.577 113.001 109.753C113.146 109.928 113.317 110.054 113.516 110.13C113.714 110.206 113.927 110.244 114.156 110.244C114.384 110.244 114.598 110.206 114.796 110.13C115.001 110.054 115.177 109.928 115.321 109.753C115.474 109.577 115.592 109.345 115.676 109.055C115.76 108.766 115.802 108.408 115.802 107.981Z" fill="white"/>
<path d="M80.8043 137.337L79.0898 132.895C79.039 132.763 78.9857 132.61 78.9298 132.437C78.8739 132.26 78.8206 132.072 78.7698 131.874C78.6631 132.285 78.5539 132.628 78.4421 132.902L76.7277 137.337H80.8043ZM83.8826 141.391H82.7397C82.6076 141.391 82.5009 141.358 82.4196 141.292C82.3384 141.226 82.2774 141.142 82.2368 141.04L81.2157 138.404H76.3162L75.2952 141.04C75.2647 141.132 75.2063 141.213 75.1199 141.284C75.0336 141.355 74.9269 141.391 74.7999 141.391H73.6569L78.023 130.472H79.5165L83.8826 141.391ZM84.9693 141.391V133.672H85.7846C85.9776 133.672 86.097 133.766 86.1427 133.954L86.2418 134.746C86.5262 134.396 86.8463 134.109 87.2019 133.885C87.5575 133.662 87.9689 133.55 88.4363 133.55C88.9544 133.55 89.3735 133.695 89.6935 133.984C90.0186 134.274 90.2523 134.665 90.3945 135.158C90.5063 134.878 90.6485 134.637 90.8212 134.434C90.999 134.231 91.1972 134.063 91.4156 133.931C91.634 133.799 91.8652 133.702 92.109 133.641C92.3579 133.58 92.6093 133.55 92.8633 133.55C93.2697 133.55 93.6304 133.616 93.9453 133.748C94.2654 133.875 94.5346 134.063 94.753 134.312C94.9766 134.561 95.1467 134.868 95.2636 135.234C95.3804 135.595 95.4388 136.009 95.4388 136.476V141.391H94.0749V136.476C94.0749 135.871 93.9428 135.414 93.6787 135.104C93.4145 134.789 93.0335 134.632 92.5357 134.632C92.3122 134.632 92.0988 134.673 91.8956 134.754C91.6975 134.83 91.5223 134.944 91.3699 135.097C91.2175 135.249 91.0956 135.442 91.0041 135.676C90.9178 135.904 90.8746 136.171 90.8746 136.476V141.391H89.5107V136.476C89.5107 135.856 89.3862 135.394 89.1373 135.089C88.8884 134.784 88.5252 134.632 88.0477 134.632C87.7124 134.632 87.4025 134.723 87.118 134.906C86.8336 135.084 86.572 135.328 86.3332 135.638V141.391H84.9693ZM98.9327 133.672V141.391H97.5764V133.672H98.9327ZM99.2223 131.249C99.2223 131.381 99.1943 131.505 99.1384 131.622C99.0876 131.734 99.0165 131.835 98.9251 131.927C98.8387 132.013 98.7346 132.082 98.6127 132.133C98.4958 132.183 98.3714 132.209 98.2393 132.209C98.1072 132.209 97.9828 132.183 97.8659 132.133C97.7542 132.082 97.6551 132.013 97.5688 131.927C97.4824 131.835 97.4138 131.734 97.363 131.622C97.3122 131.505 97.2868 131.381 97.2868 131.249C97.2868 131.117 97.3122 130.992 97.363 130.875C97.4138 130.753 97.4824 130.649 97.5688 130.563C97.6551 130.472 97.7542 130.4 97.8659 130.35C97.9828 130.299 98.1072 130.273 98.2393 130.273C98.3714 130.273 98.4958 130.299 98.6127 130.35C98.7346 130.4 98.8387 130.472 98.9251 130.563C99.0165 130.649 99.0876 130.753 99.1384 130.875C99.1943 130.992 99.2223 131.117 99.2223 131.249ZM103.531 141.513C102.921 141.513 102.452 141.342 102.121 141.002C101.796 140.662 101.634 140.171 101.634 139.531V134.807H100.704C100.623 134.807 100.554 134.784 100.498 134.739C100.442 134.688 100.415 134.612 100.415 134.51V133.969L101.679 133.809L101.992 131.424C102.007 131.348 102.04 131.287 102.091 131.241C102.147 131.19 102.218 131.165 102.304 131.165H102.99V133.824H105.223V134.807H102.99V139.44C102.99 139.765 103.069 140.006 103.226 140.164C103.384 140.321 103.587 140.4 103.836 140.4C103.978 140.4 104.1 140.382 104.202 140.347C104.308 140.306 104.4 140.263 104.476 140.217C104.552 140.171 104.616 140.131 104.666 140.095C104.722 140.055 104.77 140.034 104.811 140.034C104.882 140.034 104.946 140.077 105.002 140.164L105.398 140.812C105.164 141.03 104.882 141.203 104.552 141.33C104.222 141.452 103.882 141.513 103.531 141.513ZM107.987 134.7C108.317 134.35 108.683 134.071 109.084 133.862C109.486 133.654 109.948 133.55 110.471 133.55C110.893 133.55 111.263 133.621 111.584 133.763C111.909 133.9 112.178 134.099 112.391 134.358C112.61 134.612 112.775 134.919 112.886 135.28C112.998 135.64 113.054 136.039 113.054 136.476V141.391H111.69V136.476C111.69 135.892 111.556 135.44 111.286 135.12C111.022 134.794 110.618 134.632 110.075 134.632C109.674 134.632 109.298 134.728 108.947 134.921C108.602 135.114 108.282 135.376 107.987 135.706V141.391H106.623V130.167H107.987V134.7ZM122.365 135.76C122.792 135.76 123.168 135.709 123.493 135.607C123.823 135.501 124.097 135.353 124.316 135.165C124.539 134.972 124.707 134.744 124.819 134.48C124.93 134.215 124.986 133.923 124.986 133.603C124.986 132.953 124.773 132.463 124.346 132.133C123.92 131.802 123.279 131.637 122.426 131.637H120.811V135.76H122.365ZM127.409 141.391H126.099C125.83 141.391 125.631 141.286 125.504 141.078L122.67 137.177C122.584 137.055 122.49 136.969 122.388 136.918C122.291 136.862 122.139 136.834 121.931 136.834H120.811V141.391H119.34V130.472H122.426C123.117 130.472 123.714 130.543 124.217 130.685C124.72 130.822 125.134 131.023 125.459 131.287C125.789 131.551 126.033 131.871 126.19 132.247C126.348 132.618 126.426 133.034 126.426 133.497C126.426 133.883 126.365 134.243 126.244 134.579C126.122 134.914 125.944 135.216 125.71 135.485C125.482 135.749 125.2 135.976 124.864 136.163C124.534 136.351 124.158 136.494 123.737 136.59C123.925 136.697 124.087 136.852 124.224 137.055L127.409 141.391ZM132.639 137.916C132.014 137.936 131.48 137.987 131.039 138.068C130.602 138.145 130.244 138.246 129.964 138.373C129.69 138.5 129.489 138.65 129.362 138.823C129.24 138.995 129.179 139.189 129.179 139.402C129.179 139.605 129.212 139.78 129.278 139.928C129.344 140.075 129.433 140.197 129.545 140.293C129.662 140.385 129.797 140.453 129.949 140.499C130.106 140.54 130.274 140.56 130.452 140.56C130.691 140.56 130.909 140.537 131.107 140.491C131.305 140.441 131.491 140.37 131.663 140.278C131.841 140.187 132.009 140.077 132.166 139.95C132.329 139.823 132.486 139.679 132.639 139.516V137.916ZM128.257 134.761C128.684 134.35 129.144 134.043 129.636 133.839C130.129 133.636 130.675 133.535 131.275 133.535C131.707 133.535 132.09 133.606 132.425 133.748C132.761 133.89 133.043 134.088 133.271 134.342C133.5 134.596 133.672 134.904 133.789 135.264C133.906 135.625 133.965 136.021 133.965 136.453V141.391H133.363C133.23 141.391 133.129 141.37 133.058 141.33C132.987 141.284 132.931 141.198 132.89 141.071L132.738 140.339C132.535 140.527 132.336 140.695 132.143 140.842C131.95 140.984 131.747 141.106 131.534 141.208C131.32 141.304 131.092 141.378 130.848 141.429C130.609 141.485 130.343 141.513 130.048 141.513C129.748 141.513 129.466 141.472 129.202 141.391C128.938 141.304 128.707 141.177 128.509 141.01C128.316 140.842 128.161 140.631 128.044 140.377C127.932 140.118 127.876 139.813 127.876 139.463C127.876 139.158 127.96 138.866 128.128 138.587C128.295 138.302 128.567 138.051 128.943 137.832C129.319 137.614 129.809 137.436 130.414 137.299C131.018 137.157 131.76 137.075 132.639 137.055V136.453C132.639 135.854 132.509 135.402 132.25 135.097C131.991 134.787 131.613 134.632 131.115 134.632C130.779 134.632 130.498 134.675 130.269 134.761C130.045 134.843 129.85 134.937 129.682 135.043C129.52 135.145 129.377 135.239 129.256 135.325C129.139 135.407 129.022 135.447 128.905 135.447C128.814 135.447 128.735 135.424 128.669 135.379C128.603 135.328 128.547 135.267 128.501 135.196L128.257 134.761ZM137.463 133.672V141.962C137.463 142.272 137.422 142.559 137.341 142.823C137.26 143.092 137.13 143.326 136.953 143.524C136.775 143.722 136.546 143.877 136.267 143.989C135.992 144.106 135.662 144.164 135.276 144.164C135.114 144.164 134.964 144.152 134.827 144.126C134.689 144.101 134.552 144.063 134.415 144.012L134.468 143.28C134.479 143.235 134.496 143.199 134.522 143.174C134.542 143.153 134.573 143.141 134.613 143.136C134.654 143.13 134.707 143.128 134.773 143.128C134.834 143.133 134.913 143.136 135.009 143.136C135.406 143.136 135.688 143.042 135.855 142.854C136.023 142.671 136.107 142.374 136.107 141.962V133.672H137.463ZM137.745 131.249C137.745 131.381 137.717 131.505 137.661 131.622C137.61 131.734 137.539 131.835 137.448 131.927C137.361 132.013 137.26 132.082 137.143 132.133C137.026 132.183 136.902 132.209 136.77 132.209C136.638 132.209 136.513 132.183 136.396 132.133C136.285 132.082 136.185 132.013 136.099 131.927C136.013 131.835 135.944 131.734 135.893 131.622C135.843 131.505 135.817 131.381 135.817 131.249C135.817 131.117 135.843 130.992 135.893 130.875C135.944 130.753 136.013 130.649 136.099 130.563C136.185 130.472 136.285 130.4 136.396 130.35C136.513 130.299 136.638 130.273 136.77 130.273C136.902 130.273 137.026 130.299 137.143 130.35C137.26 130.4 137.361 130.472 137.448 130.563C137.539 130.649 137.61 130.753 137.661 130.875C137.717 130.992 137.745 131.117 137.745 131.249Z" fill="white" fill-opacity="0.53"/>
<circle cx="253.152" cy="117.127" r="30.9552" fill="#3B07F9"/>
<path d="M235.859 124.502C229.684 127.135 226.696 134.545 231.492 139.243C234.396 142.087 237.832 144.331 241.604 145.848C245.376 147.364 249.409 148.123 253.474 148.081C257.539 148.038 261.556 147.196 265.295 145.601C269.034 144.006 272.423 141.691 275.267 138.787C278.111 135.882 280.356 132.446 281.872 128.675C283.389 124.903 284.148 120.87 284.105 116.805C284.035 110.091 276.619 107.119 270.444 109.752L257.712 115.182C257.002 115.485 256.703 116.318 256.711 117.09C256.716 117.558 256.629 118.021 256.455 118.455C256.28 118.889 256.022 119.284 255.695 119.618C255.368 119.952 254.978 120.218 254.548 120.402C254.118 120.585 253.656 120.682 253.189 120.687C252.721 120.692 252.257 120.604 251.824 120.43C251.39 120.256 250.995 119.998 250.661 119.67C250.109 119.13 249.301 118.769 248.591 119.072L235.859 124.502Z" fill="white"/>
<circle cx="253.152" cy="117.126" r="26.1929" fill="#5850F4"/>
<g filter="url(#filter0_d_663_14104)">
<rect x="12.6536" y="10.9258" width="240.975" height="92.3895" rx="19.0494" fill="white" shape-rendering="crispEdges"/>
<circle cx="58.8483" cy="57.1193" r="30.9552" fill="#DCDCE0" fill-opacity="0.47"/>
<path d="M40.0359 81.7022C43.9487 84.6965 48.5197 86.7136 53.369 87.5857C58.2183 88.4579 63.2057 88.1599 67.9166 86.7165C72.6275 85.2731 76.9258 82.7261 80.4542 79.2871C83.9826 75.8481 86.6392 71.6166 88.203 66.9443C89.7668 62.272 90.1927 57.2938 89.4453 52.4238C88.698 47.5537 86.7989 42.9324 83.906 38.944C81.0131 34.9557 77.2099 31.7155 72.8126 29.4928C68.4154 27.2701 63.5511 26.1292 58.6241 26.1649L58.8483 57.1193L40.0359 81.7022Z" fill="#5850F4"/>
<path d="M117.799 33.9364V44.8555H116.503V36.8319C116.503 36.7252 116.506 36.6109 116.511 36.489C116.521 36.3671 116.531 36.2426 116.541 36.1156L112.792 42.9429C112.676 43.1715 112.498 43.2858 112.259 43.2858H112.046C111.807 43.2858 111.629 43.1715 111.512 42.9429L107.687 36.0851C107.718 36.3544 107.733 36.6033 107.733 36.8319V44.8555H106.438V33.9364H107.527C107.659 33.9364 107.761 33.9491 107.832 33.9745C107.903 33.9999 107.972 34.071 108.038 34.1878L111.809 40.9084C111.87 41.0304 111.929 41.1573 111.985 41.2894C112.046 41.4215 112.102 41.5561 112.152 41.6933C112.203 41.5561 112.256 41.4215 112.312 41.2894C112.368 41.1523 112.429 41.0227 112.495 40.9008L116.198 34.1878C116.259 34.071 116.325 33.9999 116.397 33.9745C116.473 33.9491 116.577 33.9364 116.709 33.9364H117.799ZM124.231 41.3809C123.606 41.4012 123.072 41.452 122.63 41.5333C122.194 41.6095 121.835 41.7111 121.556 41.838C121.282 41.965 121.081 42.1149 120.954 42.2876C120.832 42.4603 120.771 42.6534 120.771 42.8667C120.771 43.0699 120.804 43.2452 120.87 43.3925C120.936 43.5398 121.025 43.6617 121.137 43.7582C121.254 43.8497 121.388 43.9182 121.541 43.964C121.698 44.0046 121.866 44.0249 122.044 44.0249C122.282 44.0249 122.501 44.0021 122.699 43.9563C122.897 43.9055 123.083 43.8344 123.255 43.743C123.433 43.6515 123.601 43.5423 123.758 43.4153C123.921 43.2883 124.078 43.1436 124.231 42.981V41.3809ZM119.849 38.2263C120.276 37.8148 120.736 37.5075 121.228 37.3043C121.721 37.1011 122.267 36.9995 122.867 36.9995C123.298 36.9995 123.682 37.0706 124.017 37.2129C124.352 37.3551 124.634 37.5532 124.863 37.8072C125.092 38.0612 125.264 38.3685 125.381 38.7292C125.498 39.0899 125.556 39.4861 125.556 39.9179V44.8555H124.954C124.822 44.8555 124.721 44.8351 124.65 44.7945C124.579 44.7488 124.523 44.6624 124.482 44.5354L124.33 43.8039C124.126 43.9919 123.928 44.1595 123.735 44.3068C123.542 44.4491 123.339 44.571 123.126 44.6726C122.912 44.7691 122.684 44.8428 122.44 44.8936C122.201 44.9494 121.934 44.9774 121.64 44.9774C121.34 44.9774 121.058 44.9367 120.794 44.8555C120.53 44.7691 120.299 44.6421 120.101 44.4745C119.908 44.3068 119.753 44.096 119.636 43.842C119.524 43.583 119.468 43.2782 119.468 42.9277C119.468 42.6229 119.552 42.3308 119.72 42.0514C119.887 41.7669 120.159 41.5155 120.535 41.297C120.911 41.0786 121.401 40.9008 122.006 40.7637C122.61 40.6214 123.352 40.5401 124.231 40.5198V39.9179C124.231 39.3184 124.101 38.8663 123.842 38.5616C123.583 38.2517 123.204 38.0967 122.707 38.0967C122.371 38.0967 122.089 38.1399 121.861 38.2263C121.637 38.3076 121.442 38.4015 121.274 38.5082C121.112 38.6098 120.969 38.7038 120.847 38.7901C120.731 38.8714 120.614 38.9121 120.497 38.9121C120.405 38.9121 120.327 38.8892 120.261 38.8435C120.195 38.7927 120.139 38.7317 120.093 38.6606L119.849 38.2263ZM128.91 38.6835C129.154 38.1552 129.454 37.7437 129.809 37.4491C130.165 37.1494 130.599 36.9995 131.112 36.9995C131.275 36.9995 131.43 37.0173 131.577 37.0528C131.729 37.0884 131.864 37.1443 131.981 37.2205L131.882 38.2339C131.851 38.3609 131.775 38.4244 131.653 38.4244C131.582 38.4244 131.478 38.4092 131.341 38.3787C131.204 38.3482 131.049 38.333 130.876 38.333C130.632 38.333 130.414 38.3685 130.221 38.4396C130.033 38.5108 129.863 38.6174 129.71 38.7597C129.563 38.8968 129.428 39.0695 129.306 39.2778C129.19 39.481 129.083 39.7147 128.986 39.9788V44.8555H127.622V37.1367H128.4C128.547 37.1367 128.649 37.1646 128.704 37.2205C128.76 37.2764 128.798 37.3729 128.819 37.51L128.91 38.6835ZM134.537 33.6316V40.2379H134.888C134.99 40.2379 135.073 40.2252 135.139 40.1998C135.211 40.1693 135.284 40.1109 135.36 40.0245L137.799 37.411C137.87 37.3246 137.944 37.2586 138.02 37.2129C138.101 37.1621 138.208 37.1367 138.34 37.1367H139.567L136.724 40.1617C136.587 40.3344 136.44 40.469 136.282 40.5655C136.374 40.6265 136.455 40.6976 136.526 40.7789C136.602 40.8551 136.674 40.944 136.74 41.0456L139.757 44.8555H138.545C138.429 44.8555 138.327 44.8377 138.241 44.8021C138.159 44.7615 138.088 44.6904 138.027 44.5888L135.49 41.4266C135.414 41.3199 135.338 41.2513 135.261 41.2208C135.19 41.1853 135.078 41.1675 134.926 41.1675H134.537V44.8555H133.174V33.6316H134.537ZM146.175 42.9962C146.424 43.3315 146.696 43.5677 146.991 43.7049C147.285 43.842 147.616 43.9106 147.981 43.9106C148.703 43.9106 149.256 43.6541 149.642 43.141C150.029 42.628 150.222 41.8965 150.222 40.9465C150.222 40.4436 150.176 40.0118 150.084 39.6512C149.998 39.2905 149.871 38.9959 149.703 38.7673C149.536 38.5336 149.33 38.3634 149.086 38.2568C148.842 38.1501 148.566 38.0967 148.256 38.0967C147.814 38.0967 147.425 38.1983 147.09 38.4015C146.76 38.6047 146.455 38.8917 146.175 39.2626V42.9962ZM146.107 38.333C146.432 37.9317 146.808 37.6091 147.235 37.3653C147.661 37.1214 148.149 36.9995 148.698 36.9995C149.145 36.9995 149.548 37.0859 149.909 37.2586C150.27 37.4262 150.577 37.6777 150.831 38.0129C151.085 38.3431 151.281 38.7546 151.418 39.2473C151.555 39.7401 151.624 40.3065 151.624 40.9465C151.624 41.5155 151.547 42.0463 151.395 42.5391C151.243 43.0267 151.022 43.4509 150.732 43.8116C150.448 44.1672 150.097 44.4491 149.681 44.6574C149.269 44.8605 148.804 44.9621 148.286 44.9621C147.814 44.9621 147.407 44.8834 147.067 44.7259C146.732 44.5634 146.435 44.3399 146.175 44.0554V47.469H144.812V37.1367H145.627C145.82 37.1367 145.939 37.2306 145.985 37.4186L146.107 38.333ZM158.52 40.1541C158.52 39.8391 158.474 39.5521 158.383 39.2931C158.297 39.0289 158.167 38.8028 157.994 38.6149C157.827 38.4219 157.621 38.2745 157.377 38.1729C157.133 38.0663 156.857 38.0129 156.547 38.0129C155.896 38.0129 155.381 38.2034 155 38.5844C154.624 38.9603 154.39 39.4835 154.299 40.1541H158.52ZM159.617 43.7735C159.45 43.9767 159.249 44.1545 159.015 44.3068C158.782 44.4542 158.53 44.5761 158.261 44.6726C157.997 44.7691 157.723 44.8402 157.438 44.8859C157.154 44.9367 156.872 44.9621 156.592 44.9621C156.059 44.9621 155.566 44.8732 155.114 44.6955C154.667 44.5126 154.279 44.2484 153.948 43.903C153.623 43.5525 153.369 43.1207 153.186 42.6076C153.003 42.0946 152.912 41.5053 152.912 40.8399C152.912 40.3014 152.993 39.7985 153.156 39.3311C153.324 38.8638 153.562 38.46 153.872 38.1196C154.182 37.7742 154.56 37.5049 155.007 37.3119C155.454 37.1138 155.957 37.0147 156.516 37.0147C156.978 37.0147 157.405 37.0935 157.796 37.251C158.193 37.4034 158.533 37.6269 158.817 37.9215C159.107 38.211 159.333 38.5717 159.495 39.0035C159.658 39.4302 159.739 39.9179 159.739 40.4665C159.739 40.6798 159.716 40.8221 159.671 40.8932C159.625 40.9643 159.539 40.9999 159.412 40.9999H154.253C154.268 41.4875 154.334 41.9117 154.451 42.2724C154.573 42.633 154.741 42.9353 154.954 43.1791C155.167 43.4179 155.421 43.5982 155.716 43.7201C156.011 43.837 156.341 43.8954 156.707 43.8954C157.047 43.8954 157.339 43.8573 157.583 43.7811C157.832 43.6998 158.045 43.6134 158.223 43.522C158.401 43.4306 158.548 43.3468 158.665 43.2706C158.787 43.1893 158.891 43.1486 158.977 43.1486C159.089 43.1486 159.175 43.1918 159.236 43.2782L159.617 43.7735ZM162.693 38.6835C162.937 38.1552 163.237 37.7437 163.592 37.4491C163.948 37.1494 164.382 36.9995 164.895 36.9995C165.058 36.9995 165.213 37.0173 165.36 37.0528C165.512 37.0884 165.647 37.1443 165.764 37.2205L165.665 38.2339C165.634 38.3609 165.558 38.4244 165.436 38.4244C165.365 38.4244 165.261 38.4092 165.124 38.3787C164.987 38.3482 164.832 38.333 164.659 38.333C164.415 38.333 164.197 38.3685 164.004 38.4396C163.816 38.5108 163.646 38.6174 163.493 38.7597C163.346 38.8968 163.211 39.0695 163.089 39.2778C162.972 39.481 162.866 39.7147 162.769 39.9788V44.8555H161.405V37.1367H162.183C162.33 37.1367 162.431 37.1646 162.487 37.2205C162.543 37.2764 162.581 37.3729 162.602 37.51L162.693 38.6835ZM172.016 38.5082C171.975 38.5641 171.935 38.6073 171.894 38.6378C171.853 38.6682 171.797 38.6835 171.726 38.6835C171.65 38.6835 171.566 38.653 171.475 38.592C171.383 38.526 171.269 38.4549 171.132 38.3787C171 38.3025 170.835 38.2339 170.637 38.1729C170.444 38.1069 170.205 38.0739 169.92 38.0739C169.539 38.0739 169.204 38.1425 168.915 38.2796C168.625 38.4117 168.381 38.6047 168.183 38.8587C167.99 39.1127 167.843 39.42 167.741 39.7807C167.645 40.1414 167.596 40.5452 167.596 40.9923C167.596 41.4596 167.65 41.8761 167.756 42.2419C167.863 42.6026 168.013 42.9074 168.206 43.1563C168.404 43.4001 168.64 43.5881 168.915 43.7201C169.194 43.8471 169.506 43.9106 169.852 43.9106C170.182 43.9106 170.454 43.8725 170.667 43.7963C170.88 43.715 171.056 43.6261 171.193 43.5296C171.335 43.4331 171.452 43.3468 171.543 43.2706C171.64 43.1893 171.734 43.1486 171.825 43.1486C171.937 43.1486 172.023 43.1918 172.084 43.2782L172.465 43.7735C172.298 43.9817 172.107 44.1595 171.894 44.3068C171.681 44.4542 171.449 44.5786 171.201 44.6802C170.957 44.7767 170.7 44.8478 170.431 44.8936C170.162 44.9393 169.887 44.9621 169.608 44.9621C169.125 44.9621 168.676 44.8732 168.259 44.6955C167.848 44.5177 167.49 44.2611 167.185 43.9259C166.88 43.5855 166.641 43.169 166.469 42.6762C166.296 42.1835 166.21 41.6222 166.21 40.9923C166.21 40.4182 166.288 39.8874 166.446 39.3997C166.608 38.9121 166.842 38.493 167.147 38.1425C167.457 37.7869 167.835 37.51 168.282 37.3119C168.734 37.1138 169.252 37.0147 169.837 37.0147C170.38 37.0147 170.858 37.1036 171.269 37.2814C171.686 37.4542 172.054 37.7005 172.374 38.0206L172.016 38.5082ZM178.954 40.1541C178.954 39.8391 178.908 39.5521 178.816 39.2931C178.73 39.0289 178.601 38.8028 178.428 38.6149C178.26 38.4219 178.054 38.2745 177.811 38.1729C177.567 38.0663 177.29 38.0129 176.98 38.0129C176.33 38.0129 175.814 38.2034 175.433 38.5844C175.057 38.9603 174.824 39.4835 174.732 40.1541H178.954ZM180.051 43.7735C179.883 43.9767 179.683 44.1545 179.449 44.3068C179.215 44.4542 178.964 44.5761 178.695 44.6726C178.43 44.7691 178.156 44.8402 177.872 44.8859C177.587 44.9367 177.305 44.9621 177.026 44.9621C176.492 44.9621 176 44.8732 175.548 44.6955C175.101 44.5126 174.712 44.2484 174.382 43.903C174.057 43.5525 173.803 43.1207 173.62 42.6076C173.437 42.0946 173.345 41.5053 173.345 40.8399C173.345 40.3014 173.427 39.7985 173.589 39.3311C173.757 38.8638 173.996 38.46 174.306 38.1196C174.615 37.7742 174.994 37.5049 175.441 37.3119C175.888 37.1138 176.391 37.0147 176.95 37.0147C177.412 37.0147 177.839 37.0935 178.23 37.251C178.626 37.4034 178.966 37.6269 179.251 37.9215C179.54 38.211 179.766 38.5717 179.929 39.0035C180.091 39.4302 180.173 39.9179 180.173 40.4665C180.173 40.6798 180.15 40.8221 180.104 40.8932C180.058 40.9643 179.972 40.9999 179.845 40.9999H174.687C174.702 41.4875 174.768 41.9117 174.885 42.2724C175.007 42.633 175.174 42.9353 175.388 43.1791C175.601 43.4179 175.855 43.5982 176.15 43.7201C176.444 43.837 176.774 43.8954 177.14 43.8954C177.48 43.8954 177.773 43.8573 178.016 43.7811C178.265 43.6998 178.479 43.6134 178.656 43.522C178.834 43.4306 178.982 43.3468 179.098 43.2706C179.22 43.1893 179.324 43.1486 179.411 43.1486C179.523 43.1486 179.609 43.1918 179.67 43.2782L180.051 43.7735ZM183.119 38.2568C183.287 38.0688 183.464 37.8986 183.652 37.7462C183.84 37.5938 184.038 37.4643 184.247 37.3576C184.46 37.2459 184.683 37.1621 184.917 37.1062C185.156 37.0452 185.412 37.0147 185.687 37.0147C186.108 37.0147 186.479 37.0859 186.799 37.2281C187.124 37.3653 187.394 37.5634 187.607 37.8224C187.825 38.0764 187.99 38.3838 188.102 38.7444C188.214 39.1051 188.27 39.5039 188.27 39.9407V44.8555H186.906V39.9407C186.906 39.3565 186.771 38.9044 186.502 38.5844C186.238 38.2593 185.834 38.0967 185.29 38.0967C184.889 38.0967 184.513 38.1933 184.163 38.3863C183.817 38.5793 183.497 38.8409 183.203 39.1711V44.8555H181.839V37.1367H182.654C182.847 37.1367 182.966 37.2306 183.012 37.4186L183.119 38.2568ZM192.602 44.9774C191.993 44.9774 191.523 44.8072 191.192 44.4669C190.867 44.1265 190.705 43.6363 190.705 42.9962V38.272H189.775C189.694 38.272 189.625 38.2491 189.569 38.2034C189.514 38.1526 189.486 38.0764 189.486 37.9748V37.4338L190.751 37.2738L191.063 34.8888C191.078 34.8126 191.111 34.7517 191.162 34.706C191.218 34.6552 191.289 34.6298 191.375 34.6298H192.061V37.2891H194.294V38.272H192.061V42.9048C192.061 43.2299 192.14 43.4712 192.297 43.6287C192.455 43.7862 192.658 43.8649 192.907 43.8649C193.049 43.8649 193.171 43.8471 193.273 43.8116C193.379 43.7709 193.471 43.7277 193.547 43.682C193.623 43.6363 193.687 43.5957 193.737 43.5601C193.793 43.5195 193.842 43.4992 193.882 43.4992C193.953 43.4992 194.017 43.5423 194.073 43.6287L194.469 44.2764C194.235 44.4948 193.953 44.6675 193.623 44.7945C193.293 44.9164 192.953 44.9774 192.602 44.9774ZM199.877 41.3809C199.253 41.4012 198.719 41.452 198.277 41.5333C197.84 41.6095 197.482 41.7111 197.203 41.838C196.929 41.965 196.728 42.1149 196.601 42.2876C196.479 42.4603 196.418 42.6534 196.418 42.8667C196.418 43.0699 196.451 43.2452 196.517 43.3925C196.583 43.5398 196.672 43.6617 196.784 43.7582C196.901 43.8497 197.035 43.9182 197.188 43.964C197.345 44.0046 197.513 44.0249 197.691 44.0249C197.929 44.0249 198.148 44.0021 198.346 43.9563C198.544 43.9055 198.729 43.8344 198.902 43.743C199.08 43.6515 199.248 43.5423 199.405 43.4153C199.568 43.2883 199.725 43.1436 199.877 42.981V41.3809ZM195.496 38.2263C195.923 37.8148 196.383 37.5075 196.875 37.3043C197.368 37.1011 197.914 36.9995 198.514 36.9995C198.945 36.9995 199.329 37.0706 199.664 37.2129C199.999 37.3551 200.281 37.5532 200.51 37.8072C200.738 38.0612 200.911 38.3685 201.028 38.7292C201.145 39.0899 201.203 39.4861 201.203 39.9179V44.8555H200.601C200.469 44.8555 200.368 44.8351 200.297 44.7945C200.225 44.7488 200.17 44.6624 200.129 44.5354L199.976 43.8039C199.773 43.9919 199.575 44.1595 199.382 44.3068C199.189 44.4491 198.986 44.571 198.773 44.6726C198.559 44.7691 198.331 44.8428 198.087 44.8936C197.848 44.9494 197.581 44.9774 197.287 44.9774C196.987 44.9774 196.705 44.9367 196.441 44.8555C196.177 44.7691 195.946 44.6421 195.748 44.4745C195.555 44.3068 195.4 44.096 195.283 43.842C195.171 43.583 195.115 43.2782 195.115 42.9277C195.115 42.6229 195.199 42.3308 195.367 42.0514C195.534 41.7669 195.806 41.5155 196.182 41.297C196.558 41.0786 197.048 40.9008 197.652 40.7637C198.257 40.6214 198.999 40.5401 199.877 40.5198V39.9179C199.877 39.3184 199.748 38.8663 199.489 38.5616C199.23 38.2517 198.851 38.0967 198.353 38.0967C198.018 38.0967 197.736 38.1399 197.508 38.2263C197.284 38.3076 197.089 38.4015 196.921 38.5082C196.758 38.6098 196.616 38.7038 196.494 38.7901C196.377 38.8714 196.261 38.9121 196.144 38.9121C196.052 38.9121 195.974 38.8892 195.908 38.8435C195.842 38.7927 195.786 38.7317 195.74 38.6606L195.496 38.2263ZM205.959 41.0837C206.233 41.0837 206.475 41.0456 206.683 40.9694C206.891 40.8932 207.066 40.7865 207.209 40.6494C207.351 40.5122 207.458 40.3497 207.529 40.1617C207.6 39.9687 207.635 39.7579 207.635 39.5293C207.635 39.0568 207.491 38.6809 207.201 38.4015C206.917 38.1221 206.503 37.9825 205.959 37.9825C205.41 37.9825 204.991 38.1221 204.702 38.4015C204.417 38.6809 204.275 39.0568 204.275 39.5293C204.275 39.7579 204.311 39.9687 204.382 40.1617C204.458 40.3497 204.567 40.5122 204.709 40.6494C204.852 40.7865 205.027 40.8932 205.235 40.9694C205.443 41.0456 205.685 41.0837 205.959 41.0837ZM208.405 45.2746C208.405 45.0866 208.352 44.9342 208.245 44.8174C208.138 44.7005 207.994 44.6091 207.811 44.5431C207.633 44.477 207.425 44.4313 207.186 44.4059C206.947 44.3754 206.693 44.3526 206.424 44.3373C206.16 44.3221 205.89 44.3068 205.616 44.2916C205.342 44.2764 205.078 44.251 204.824 44.2154C204.539 44.3475 204.306 44.5151 204.123 44.7183C203.945 44.9164 203.856 45.1501 203.856 45.4193C203.856 45.592 203.899 45.7521 203.986 45.8994C204.077 46.0518 204.214 46.1813 204.397 46.288C204.58 46.3997 204.808 46.4861 205.083 46.5471C205.362 46.6131 205.69 46.6461 206.066 46.6461C206.431 46.6461 206.759 46.6131 207.049 46.5471C207.338 46.481 207.582 46.387 207.78 46.2651C207.983 46.1432 208.138 45.9984 208.245 45.8308C208.352 45.6632 208.405 45.4777 208.405 45.2746ZM209.784 37.4415V37.9444C209.784 38.112 209.678 38.2187 209.464 38.2644L208.588 38.3787C208.761 38.7139 208.847 39.0848 208.847 39.4912C208.847 39.8671 208.773 40.21 208.626 40.5198C208.484 40.8246 208.286 41.0862 208.032 41.3047C207.778 41.5231 207.473 41.6907 207.117 41.8076C206.762 41.9244 206.376 41.9828 205.959 41.9828C205.598 41.9828 205.258 41.9396 204.938 41.8533C204.775 41.9549 204.651 42.0641 204.565 42.1809C204.478 42.2927 204.435 42.407 204.435 42.5238C204.435 42.7067 204.509 42.8464 204.656 42.9429C204.808 43.0343 205.007 43.1004 205.25 43.141C205.494 43.1817 205.771 43.2071 206.081 43.2172C206.396 43.2274 206.716 43.2452 207.041 43.2706C207.371 43.2909 207.691 43.329 208.001 43.3849C208.316 43.4407 208.596 43.5322 208.839 43.6592C209.083 43.7862 209.279 43.9614 209.426 44.1849C209.578 44.4084 209.655 44.698 209.655 45.0536C209.655 45.3838 209.571 45.7038 209.403 46.0137C209.241 46.3235 209.004 46.5979 208.695 46.8366C208.385 47.0804 208.004 47.2735 207.552 47.4157C207.105 47.563 206.599 47.6367 206.035 47.6367C205.471 47.6367 204.979 47.5808 204.557 47.469C204.135 47.3573 203.785 47.2074 203.506 47.0195C203.226 46.8315 203.015 46.6131 202.873 46.3642C202.736 46.1203 202.667 45.8638 202.667 45.5946C202.667 45.2136 202.787 44.891 203.025 44.6269C203.264 44.3627 203.592 44.1519 204.008 43.9944C203.78 43.8928 203.597 43.7582 203.46 43.5906C203.328 43.4179 203.262 43.1867 203.262 42.8972C203.262 42.7854 203.282 42.6711 203.323 42.5543C203.363 42.4324 203.424 42.313 203.506 42.1962C203.592 42.0743 203.696 41.96 203.818 41.8533C203.94 41.7466 204.082 41.6526 204.245 41.5714C203.864 41.358 203.566 41.0761 203.353 40.7256C203.14 40.37 203.033 39.9585 203.033 39.4912C203.033 39.1153 203.104 38.7749 203.246 38.4701C203.394 38.1602 203.597 37.8986 203.856 37.6853C204.115 37.4668 204.422 37.2992 204.778 37.1824C205.139 37.0655 205.532 37.0071 205.959 37.0071C206.294 37.0071 206.607 37.0452 206.896 37.1214C207.186 37.1925 207.45 37.2992 207.689 37.4415H209.784ZM216.234 40.1541C216.234 39.8391 216.188 39.5521 216.097 39.2931C216.01 39.0289 215.881 38.8028 215.708 38.6149C215.54 38.4219 215.335 38.2745 215.091 38.1729C214.847 38.0663 214.57 38.0129 214.26 38.0129C213.61 38.0129 213.094 38.2034 212.714 38.5844C212.338 38.9603 212.104 39.4835 212.012 40.1541H216.234ZM217.331 43.7735C217.163 43.9767 216.963 44.1545 216.729 44.3068C216.495 44.4542 216.244 44.5761 215.975 44.6726C215.711 44.7691 215.436 44.8402 215.152 44.8859C214.867 44.9367 214.585 44.9621 214.306 44.9621C213.773 44.9621 213.28 44.8732 212.828 44.6955C212.381 44.5126 211.992 44.2484 211.662 43.903C211.337 43.5525 211.083 43.1207 210.9 42.6076C210.717 42.0946 210.626 41.5053 210.626 40.8399C210.626 40.3014 210.707 39.7985 210.87 39.3311C211.037 38.8638 211.276 38.46 211.586 38.1196C211.896 37.7742 212.274 37.5049 212.721 37.3119C213.168 37.1138 213.671 37.0147 214.23 37.0147C214.692 37.0147 215.119 37.0935 215.51 37.251C215.906 37.4034 216.247 37.6269 216.531 37.9215C216.821 38.211 217.047 38.5717 217.209 39.0035C217.372 39.4302 217.453 39.9179 217.453 40.4665C217.453 40.6798 217.43 40.8221 217.384 40.8932C217.339 40.9643 217.252 40.9999 217.125 40.9999H211.967C211.982 41.4875 212.048 41.9117 212.165 42.2724C212.287 42.633 212.454 42.9353 212.668 43.1791C212.881 43.4179 213.135 43.5982 213.43 43.7201C213.724 43.837 214.055 43.8954 214.42 43.8954C214.761 43.8954 215.053 43.8573 215.297 43.7811C215.546 43.6998 215.759 43.6134 215.937 43.522C216.114 43.4306 216.262 43.3468 216.379 43.2706C216.501 43.1893 216.605 43.1486 216.691 43.1486C216.803 43.1486 216.889 43.1918 216.95 43.2782L217.331 43.7735Z" fill="#161A41" fill-opacity="0.53"/>
<path d="M111.009 68.8522L110.438 69.5609C110.758 69.4008 111.101 69.2789 111.467 69.1951C111.84 69.1037 112.24 69.058 112.667 69.058C113.291 69.058 113.897 69.1608 114.484 69.3666C115.078 69.5723 115.6 69.8847 116.05 70.3038C116.499 70.7152 116.861 71.2296 117.136 71.8468C117.41 72.464 117.547 73.184 117.547 74.007C117.547 74.7766 117.406 75.5005 117.124 76.1786C116.842 76.8491 116.446 77.4359 115.936 77.9388C115.425 78.4417 114.808 78.8379 114.084 79.1275C113.368 79.417 112.575 79.5618 111.707 79.5618C110.823 79.5618 110.03 79.4208 109.329 79.1389C108.628 78.857 108.03 78.4645 107.535 77.9616C107.039 77.4511 106.658 76.8415 106.392 76.1329C106.133 75.4166 106.003 74.6242 106.003 73.7555C106.003 72.9783 106.159 72.1821 106.472 71.3667C106.792 70.5438 107.283 69.6904 107.946 68.8065L111.889 63.5146C112.027 63.3317 112.225 63.1755 112.484 63.046C112.75 62.9164 113.055 62.8517 113.398 62.8517H115.913L111.009 68.8522ZM111.649 77.253C112.099 77.253 112.51 77.1768 112.884 77.0244C113.265 76.872 113.589 76.6587 113.855 76.3843C114.13 76.11 114.343 75.79 114.495 75.4243C114.648 75.0509 114.724 74.647 114.724 74.2127C114.724 73.7403 114.652 73.3174 114.507 72.944C114.362 72.563 114.156 72.243 113.89 71.9839C113.623 71.7172 113.303 71.5153 112.93 71.3782C112.556 71.241 112.145 71.1724 111.695 71.1724C111.246 71.1724 110.838 71.2486 110.472 71.401C110.106 71.5534 109.794 71.7668 109.535 72.0411C109.276 72.3078 109.074 72.6278 108.929 73.0012C108.784 73.3669 108.712 73.7631 108.712 74.1899C108.712 74.647 108.773 75.0661 108.895 75.4471C109.024 75.8205 109.211 76.1405 109.455 76.4072C109.706 76.6739 110.015 76.8834 110.381 77.0358C110.746 77.1806 111.169 77.253 111.649 77.253ZM122.944 68.8522C123.309 68.776 123.66 68.7227 123.995 68.6922C124.33 68.6541 124.654 68.6351 124.967 68.6351C125.835 68.6351 126.601 68.7646 127.264 69.0237C127.927 69.2827 128.483 69.6409 128.933 70.098C129.382 70.5552 129.721 71.0924 129.95 71.7096C130.179 72.3192 130.293 72.9783 130.293 73.687C130.293 74.5632 130.137 75.3633 129.824 76.0872C129.52 76.8111 129.093 77.4321 128.544 77.9502C127.996 78.4607 127.344 78.857 126.59 79.1389C125.843 79.4208 125.028 79.5618 124.144 79.5618C123.626 79.5618 123.134 79.5084 122.669 79.4018C122.205 79.2951 121.766 79.1541 121.355 78.9789C120.951 78.796 120.574 78.5903 120.223 78.3617C119.881 78.1255 119.572 77.8778 119.298 77.6187L120.166 76.4186C120.349 76.1596 120.589 76.03 120.886 76.03C121.077 76.03 121.271 76.091 121.469 76.2129C121.667 76.3348 121.892 76.4682 122.144 76.6129C122.403 76.7577 122.704 76.8911 123.047 77.013C123.397 77.1349 123.816 77.1958 124.304 77.1958C124.822 77.1958 125.279 77.112 125.675 76.9444C126.072 76.7768 126.399 76.5444 126.658 76.2472C126.925 75.9424 127.123 75.5843 127.253 75.1728C127.39 74.7537 127.458 74.3003 127.458 73.8127C127.458 72.9135 127.195 72.2125 126.67 71.7096C126.152 71.1991 125.382 70.9438 124.361 70.9438C123.576 70.9438 122.772 71.0886 121.949 71.3782L120.189 70.8753L121.561 62.8517H129.721V64.0518C129.721 64.4556 129.596 64.7833 129.344 65.0347C129.093 65.2862 128.666 65.4119 128.064 65.4119H123.527L122.944 68.8522ZM140.078 66.852C140.078 67.4769 139.972 68.0407 139.758 68.5436C139.553 69.0465 139.275 69.477 138.924 69.8352C138.574 70.1857 138.166 70.4562 137.701 70.6467C137.236 70.8372 136.752 70.9324 136.25 70.9324C135.701 70.9324 135.194 70.8372 134.729 70.6467C134.265 70.4562 133.861 70.1857 133.518 69.8352C133.183 69.477 132.92 69.0465 132.729 68.5436C132.539 68.0407 132.443 67.4769 132.443 66.852C132.443 66.212 132.539 65.6329 132.729 65.1147C132.92 64.5966 133.183 64.1585 133.518 63.8003C133.861 63.4422 134.265 63.1679 134.729 62.9774C135.194 62.7793 135.701 62.6802 136.25 62.6802C136.798 62.6802 137.305 62.7793 137.77 62.9774C138.242 63.1679 138.65 63.4422 138.993 63.8003C139.336 64.1585 139.602 64.5966 139.793 65.1147C139.983 65.6329 140.078 66.212 140.078 66.852ZM137.907 66.852C137.907 66.4101 137.861 66.0405 137.77 65.7434C137.686 65.4462 137.568 65.2062 137.415 65.0233C137.271 64.8404 137.095 64.7109 136.89 64.6347C136.691 64.5509 136.478 64.509 136.25 64.509C136.021 64.509 135.808 64.5509 135.609 64.6347C135.411 64.7109 135.24 64.8404 135.095 65.0233C134.958 65.2062 134.848 65.4462 134.764 65.7434C134.68 66.0405 134.638 66.4101 134.638 66.852C134.638 67.2787 134.68 67.6369 134.764 67.9264C134.848 68.2084 134.958 68.4369 135.095 68.6122C135.24 68.7875 135.411 68.9132 135.609 68.9894C135.808 69.0656 136.021 69.1037 136.25 69.1037C136.478 69.1037 136.691 69.0656 136.89 68.9894C137.095 68.9132 137.271 68.7875 137.415 68.6122C137.568 68.4369 137.686 68.2084 137.77 67.9264C137.861 67.6369 137.907 67.2787 137.907 66.852ZM145.576 63.2974C145.675 63.1831 145.789 63.0803 145.919 62.9888C146.056 62.8974 146.247 62.8517 146.49 62.8517H148.548L136.272 78.956C136.173 79.0779 136.055 79.1808 135.918 79.2646C135.781 79.3408 135.613 79.3789 135.415 79.3789H133.312L145.576 63.2974ZM149.416 75.4928C149.416 76.1177 149.31 76.6815 149.096 77.1844C148.891 77.6873 148.613 78.1178 148.262 78.476C147.912 78.8265 147.504 79.1008 147.039 79.2989C146.574 79.4894 146.09 79.5846 145.588 79.5846C145.039 79.5846 144.532 79.4894 144.067 79.2989C143.603 79.1008 143.199 78.8265 142.856 78.476C142.521 78.1178 142.258 77.6873 142.067 77.1844C141.877 76.6815 141.781 76.1177 141.781 75.4928C141.781 74.8528 141.877 74.2737 142.067 73.7555C142.258 73.2374 142.521 72.7993 142.856 72.4411C143.199 72.083 143.603 71.8087 144.067 71.6182C144.532 71.4201 145.039 71.321 145.588 71.321C146.136 71.321 146.643 71.4201 147.108 71.6182C147.58 71.8087 147.984 72.083 148.319 72.4411C148.662 72.7993 148.929 73.2374 149.119 73.7555C149.317 74.2737 149.416 74.8528 149.416 75.4928ZM147.233 75.4928C147.233 75.0509 147.192 74.6813 147.108 74.3842C147.024 74.087 146.906 73.847 146.753 73.6641C146.609 73.4812 146.433 73.3517 146.228 73.2755C146.029 73.1917 145.816 73.1498 145.588 73.1498C145.359 73.1498 145.146 73.1917 144.947 73.2755C144.749 73.3517 144.578 73.4812 144.433 73.6641C144.288 73.847 144.174 74.087 144.09 74.3842C144.014 74.6813 143.976 75.0509 143.976 75.4928C143.976 75.9195 144.014 76.2777 144.09 76.5672C144.174 76.8568 144.288 77.0892 144.433 77.2644C144.578 77.4397 144.749 77.5654 144.947 77.6416C145.146 77.7178 145.359 77.7559 145.588 77.7559C145.816 77.7559 146.029 77.7178 146.228 77.6416C146.433 77.5654 146.609 77.4397 146.753 77.2644C146.906 77.0892 147.024 76.8568 147.108 76.5672C147.192 76.2777 147.233 75.9195 147.233 75.4928Z" fill="#3B3D53"/>
</g>
<defs>
<filter id="filter0_d_663_14104" x="0.653564" y="0.925781" width="264.975" height="116.391" filterUnits="userSpaceOnUse" color-interpolation-filters="sRGB">
<feFlood flood-opacity="0" result="BackgroundImageFix"/>
<feColorMatrix in="SourceAlpha" type="matrix" values="0 0 0 0 0 0 0 0 0 0 0 0 0 0 0 0 0 0 127 0" result="hardAlpha"/>
<feOffset dy="2"/>
<feGaussianBlur stdDeviation="6"/>
<feComposite in2="hardAlpha" operator="out"/>
<feColorMatrix type="matrix" values="0 0 0 0 0 0 0 0 0 0 0 0 0 0 0 0 0 0 0.12 0"/>
<feBlend mode="normal" in2="BackgroundImageFix" result="effect1_dropShadow_663_14104"/>
<feBlend mode="normal" in="SourceGraphic" in2="effect1_dropShadow_663_14104" result="shape"/>
</filter>
</defs>
</svg>
