<svg width="171" height="120" viewBox="0 0 171 120" fill="none" xmlns="http://www.w3.org/2000/svg">
<rect width="171" height="120" fill="white"/>
<path d="M59.6602 36.875H121.954V82.9187H59.6602V36.875Z" fill="white"/>
<path d="M46.4375 47.4414V86.5039H124.562V8.37891H46.4375V47.4414ZM109.394 44.3164C111.265 44.7506 112.966 45.7293 114.281 47.1289C115.005 47.883 115.635 48.7225 116.156 49.6289C116.156 49.7289 112.781 52.0102 110.725 53.2852C110.65 53.3352 110.35 53.0102 110.019 52.5164C109.643 51.8687 109.11 51.3266 108.468 50.9408C107.827 50.555 107.098 50.3381 106.35 50.3102C103.981 50.1477 102.456 51.3914 102.469 53.4352C102.45 53.9439 102.566 54.4486 102.806 54.8977C103.325 55.9789 104.294 56.6227 107.331 57.9352C112.925 60.3414 115.319 61.9289 116.806 64.1852C118.469 66.6852 118.838 70.7227 117.713 73.7102C116.463 76.9602 113.4 79.1664 109.069 79.8977C107.091 80.1244 105.092 80.1034 103.119 79.8352C100.095 79.3367 97.3093 77.8848 95.1688 75.6914C94.45 74.8977 93.05 72.8289 93.1375 72.6789C93.3652 72.5089 93.6055 72.3564 93.8563 72.2227L96.75 70.6227L98.9937 69.3227L99.4625 70.0164C100.254 71.1478 101.261 72.112 102.425 72.8539C104.925 74.1664 108.337 73.9852 110.025 72.4664C110.592 71.9099 110.945 71.1723 111.024 70.382C111.103 69.5917 110.902 68.7989 110.456 68.1414C109.831 67.2727 108.581 66.5414 105.087 65.0164C101.056 63.2789 99.3187 62.2039 97.7313 60.4914C96.7405 59.3611 96.0089 58.0279 95.5875 56.5852C95.2735 54.9367 95.227 53.2484 95.45 51.5852C96.2812 47.6914 99.2 44.9727 103.462 44.1664C105.437 43.9225 107.436 43.9773 109.394 44.3289V44.3164ZM91.0563 47.5914V50.7914H80.9125V79.6852H73.7188V50.7852H63.55V47.6602C63.5181 46.5825 63.5431 45.5039 63.625 44.4289C63.675 44.3727 69.875 44.3727 77.375 44.3727H91.0188L91.0563 47.5914Z" fill="#007ACC"/>
<path d="M54.0547 108.5H52.5234V100.03H49.4199V98.6357H57.1514V100.03H54.0547V108.5ZM58.8604 111.2C58.7373 111.2 58.3887 111.187 58.252 111.166V109.901C58.3682 109.922 58.5938 109.929 58.7305 109.929C59.4277 109.929 59.8242 109.642 60.0771 108.89L60.1865 108.527L57.4932 101.056H59.0928L60.959 106.969H61.0752L62.9346 101.056H64.4932L61.7178 108.808C61.082 110.619 60.3779 111.2 58.8604 111.2ZM69.8594 100.933C71.7529 100.933 72.9492 102.409 72.9492 104.774C72.9492 107.14 71.7529 108.623 69.873 108.623C68.8135 108.623 67.9727 108.158 67.583 107.372H67.4668V110.975H65.9971V101.056H67.4121V102.286H67.5215C67.9727 101.438 68.8477 100.933 69.8594 100.933ZM69.4424 107.304C70.6934 107.304 71.4385 106.354 71.4385 104.774C71.4385 103.202 70.6934 102.252 69.4492 102.252C68.2119 102.252 67.4395 103.223 67.4395 104.781C67.4395 106.333 68.2119 107.304 69.4424 107.304ZM77.7754 102.163C76.6885 102.163 75.9297 102.929 75.8477 104.091H79.6074C79.5732 102.922 78.8623 102.163 77.7754 102.163ZM79.6006 106.49H81.0156C80.6807 107.823 79.4912 108.644 77.7891 108.644C75.6562 108.644 74.3506 107.181 74.3506 104.802C74.3506 102.423 75.6836 100.912 77.7822 100.912C79.8535 100.912 81.1045 102.327 81.1045 104.665V105.178H75.8477V105.26C75.8955 106.565 76.6543 107.393 77.8301 107.393C78.7188 107.393 79.3271 107.071 79.6006 106.49ZM82.5742 105.848H84.0918C84.2217 106.784 85.1377 107.379 86.457 107.379C87.6875 107.379 88.5898 106.743 88.5898 105.868C88.5898 105.116 88.0156 104.665 86.71 104.357L85.4385 104.05C83.6543 103.633 82.8408 102.771 82.8408 101.322C82.8408 99.5654 84.2764 98.3965 86.4297 98.3965C88.4326 98.3965 89.8955 99.5654 89.9844 101.227H88.4941C88.3506 100.317 87.5576 99.75 86.4092 99.75C85.1992 99.75 84.3926 100.331 84.3926 101.22C84.3926 101.924 84.9121 102.327 86.1973 102.628L87.2842 102.895C89.3076 103.366 90.1416 104.187 90.1416 105.67C90.1416 107.557 88.6787 108.739 86.3408 108.739C84.1533 108.739 82.6836 107.611 82.5742 105.848ZM98.29 103.489H96.8613C96.6904 102.765 96.0889 102.225 95.1045 102.225C93.874 102.225 93.1221 103.168 93.1221 104.754C93.1221 106.367 93.8809 107.331 95.1045 107.331C96.0342 107.331 96.6699 106.907 96.8613 106.107H98.29C98.0986 107.604 96.9502 108.644 95.1113 108.644C92.9443 108.644 91.6182 107.181 91.6182 104.754C91.6182 102.368 92.9375 100.912 95.1045 100.912C96.9707 100.912 98.0986 101.999 98.29 103.489ZM99.9717 108.5V101.056H101.387V102.197H101.496C101.708 101.466 102.535 100.933 103.506 100.933C103.725 100.933 104.005 100.953 104.162 100.994V102.443C104.039 102.402 103.602 102.354 103.342 102.354C102.228 102.354 101.441 103.059 101.441 104.104V108.5H99.9717ZM105.604 108.5V101.056H107.067V108.5H105.604ZM106.336 99.75C105.789 99.75 105.386 99.3604 105.386 98.8545C105.386 98.3418 105.789 97.9521 106.336 97.9521C106.883 97.9521 107.286 98.3418 107.286 98.8545C107.286 99.3604 106.883 99.75 106.336 99.75ZM113.09 100.933C114.983 100.933 116.18 102.409 116.18 104.774C116.18 107.14 114.983 108.623 113.104 108.623C112.044 108.623 111.203 108.158 110.813 107.372H110.697V110.975H109.228V101.056H110.643V102.286H110.752C111.203 101.438 112.078 100.933 113.09 100.933ZM112.673 107.304C113.924 107.304 114.669 106.354 114.669 104.774C114.669 103.202 113.924 102.252 112.68 102.252C111.442 102.252 110.67 103.223 110.67 104.781C110.67 106.333 111.442 107.304 112.673 107.304ZM118.47 99.2031H119.939V101.09H121.553V102.327H119.939V106.155C119.939 106.935 120.261 107.276 120.992 107.276C121.218 107.276 121.348 107.263 121.553 107.242V108.466C121.313 108.507 121.04 108.541 120.753 108.541C119.119 108.541 118.47 107.967 118.47 106.531V102.327H117.287V101.09H118.47V99.2031Z" fill="#888888"/>
</svg>
