<svg width="24" height="25" viewBox="0 0 24 25" fill="none" xmlns="http://www.w3.org/2000/svg">
<g clip-path="url(#clip0_917_22423)">
<path fill-rule="evenodd" clip-rule="evenodd" d="M0 0.0119629V1.45196H0.96V0.971963H1.44V0.0119629H0.96H0ZM2.4 0.0119629V0.971963H4.32V0.0119629H2.4ZM5.4 0.0119629C5.6568 5.59676 5.4 11.3016 5.4 16.932H0V18.612H5.4V24.012H7.08V18.612H24V16.932H7.08C6.8808 11.3234 7.17 5.5094 7.08 0.0119629H5.4ZM8.16 0.0119629V0.971963H10.08V0.0119629H8.16ZM11.04 0.0119629V0.971963H11.52V1.45196H12.48V0.971963H12.96V0.0119629H11.04ZM13.92 0.0119629V0.971963H15.84V0.0119629H13.92ZM16.8 0.0119629V0.971963H17.28V1.45196H18.24V0.971963H18.72V0.0119629H16.8ZM19.68 0.0119629V0.971963H21.6V0.0119629H19.68ZM22.56 0.0119629V0.971963H23.04V1.45196H24V0.0119629H22.56ZM0 2.41196V4.33196H0.96V2.41196H0ZM11.52 2.41196V4.33196H12.48V2.41196H11.52ZM17.28 2.41196V4.33196H18.24V2.41196H17.28ZM23.04 2.41196V4.33196H24V2.41196H23.04ZM0 5.29196V7.21196H0.96V6.73196H1.44V5.77196H0.96V5.29196H0ZM11.52 5.29196V5.77196H11.04V6.73196H11.52V7.21196H12.48V6.73196H12.96V5.77196H12.48V5.29196H11.52ZM17.28 5.29196V5.77196H16.8V6.73196H17.28V7.21196H18.24V6.73196H18.72V5.77196H18.24V5.29196H17.28ZM23.04 5.29196V5.77196H22.56V6.73196H23.04V7.21196H24V5.29196H23.04ZM2.4 5.77196V6.73196H4.32V5.77196H2.4ZM8.16 5.77196V6.73196H10.08V5.77196H8.16ZM13.92 5.77196V6.73196H15.84V5.77196H13.92ZM19.68 5.77196V6.73196H21.6V5.77196H19.68ZM0 8.17196V10.092H0.96V8.17196H0ZM11.52 8.17196V10.092H12.48V8.17196H11.52ZM17.28 8.17196V10.092H18.24V8.17196H17.28ZM23.04 8.17196V10.092H24V8.17196H23.04ZM0 11.052V12.972H0.96V12.492H1.44V11.532H0.96V11.052H0ZM11.52 11.052V11.532H11.04V12.492H11.52V12.972H12.48V12.492H12.96V11.532H12.48V11.052H11.52ZM17.28 11.052V11.532H16.8V12.492H17.28V12.972H18.24V12.492H18.72V11.532H18.24V11.052H17.28ZM23.04 11.052V11.532H22.56V12.492H23.04V12.972H24V11.052H23.04ZM2.4 11.532V12.492H4.32V11.532H2.4ZM8.16 11.532V12.492H10.08V11.532H8.16ZM13.92 11.532V12.492H15.84V11.532H13.92ZM19.68 11.532V12.492H21.6V11.532H19.68ZM0 13.932V15.852H0.96V13.932H0ZM11.52 13.932V15.852H12.48V13.932H11.52ZM17.28 13.932V15.852H18.24V13.932H17.28ZM23.04 13.932V15.852H24V13.932H23.04ZM0 19.692V21.612H0.96V19.692H0ZM11.52 19.692V21.612H12.48V19.692H11.52ZM17.28 19.692V21.612H18.24V19.692H17.28ZM23.04 19.692V21.612H24V19.692H23.04ZM0 22.572V24.012H1.44V23.052H0.96V22.572H0ZM11.52 22.572V23.052H11.04V24.012H12.96V23.052H12.48V22.572H11.52ZM17.28 22.572V23.052H16.8V24.012H18.72V23.052H18.24V22.572H17.28ZM23.04 22.572V23.052H22.56V24.012H24V22.572H23.04ZM2.4 23.052V24.012H4.32V23.052H2.4ZM8.16 23.052V24.012H10.08V23.052H8.16ZM13.92 23.052V24.012H15.84V23.052H13.92ZM19.68 23.052V24.012H21.6V23.052H19.68Z" fill="white"/>
</g>
<defs>
<clipPath id="clip0_917_22423">
<rect width="24" height="24" fill="white" transform="translate(0 0.0119629)"/>
</clipPath>
</defs>
</svg>
