<svg width="24" height="24" viewBox="0 0 24 24" fill="none" xmlns="http://www.w3.org/2000/svg">
<path d="M7.60697 15.3227V17.0524C7.60697 17.3255 7.78904 17.5075 8.06214 17.5075H15.3904C15.6635 17.5075 15.8456 17.3255 15.8456 17.0524V15.3227C15.8456 14.0482 14.8442 13.0468 13.5697 13.0468H9.88283C8.60835 13.0468 7.60697 14.0937 7.60697 15.3227ZM8.51732 15.3227C8.51732 14.5489 9.10904 13.9572 9.88283 13.9572H13.5697C14.3435 13.9572 14.9352 14.5489 14.9352 15.3227V16.5972H8.51732V15.3227ZM11.749 12.3641C13.1146 12.3641 14.1615 10.9986 14.1615 9.7696C14.1615 8.49512 13.069 7.4027 11.749 7.4027C10.429 7.4027 9.33663 8.4496 9.33663 9.7696C9.33663 10.9986 10.338 12.3641 11.749 12.3641ZM11.749 8.31305C12.5683 8.31305 13.2511 8.95029 13.2511 9.7696C13.2511 10.5434 12.6139 11.4537 11.749 11.4537C10.8842 11.4537 10.247 10.5434 10.247 9.7696C10.247 8.95029 10.8842 8.31305 11.749 8.31305ZM16.938 20.3751C13.7518 22.4234 9.65525 22.4234 6.46904 20.3751H6.42352L8.24421 20.2386C8.51732 20.2386 8.69939 20.011 8.65387 19.7379C8.60835 19.4648 8.42628 19.2827 8.15318 19.3282L5.55869 19.5103C5.42214 19.5103 5.33111 19.5558 5.24007 19.6468C5.14904 19.7379 5.10352 19.8744 5.14904 19.9655L5.33111 22.5599C5.33111 22.7875 5.55869 22.9696 5.78628 22.9696C5.78628 22.9696 5.78628 22.9696 5.8318 22.9696C6.1049 22.9696 6.28697 22.742 6.24145 22.4689L6.15042 21.2399C9.65525 23.3793 14.0249 23.2882 17.3932 21.1034C17.6208 20.9668 17.6663 20.6937 17.5297 20.4661C17.4387 20.2841 17.1656 20.2386 16.938 20.3751ZM4.05663 5.76408L1.50766 5.49098C1.23456 5.44546 1.05249 5.62753 1.00697 5.90063C0.961453 6.12822 1.14352 6.3558 1.41663 6.40132L2.60007 6.53787C1.59869 8.22201 1.05249 10.1337 1.05249 12.091C1.05249 14.1393 1.64421 16.0965 2.69111 17.8261C2.82766 18.0537 3.10076 18.0993 3.32835 17.9627C3.55594 17.8261 3.60145 17.553 3.4649 17.3255C2.46352 15.7779 1.96283 13.9572 1.96283 12.091C1.96283 10.2248 2.46352 8.40408 3.4649 6.85649C3.4649 6.85649 3.4649 6.85649 3.4649 6.81098L3.28283 8.63167C3.23732 8.85925 3.41938 9.08684 3.69249 9.13236H3.73801C3.96559 9.13236 4.14766 8.95029 4.19318 8.7227L4.46628 6.26477C4.46628 6.03718 4.28421 5.8096 4.05663 5.76408ZM17.9394 1.34891C17.8939 1.12132 17.6208 0.939253 17.3932 1.03029C17.1656 1.07581 16.9835 1.34891 17.0746 1.57649L17.4387 2.98753C15.709 1.89512 13.7518 1.34891 11.749 1.34891C9.70076 1.34891 7.74352 1.94063 6.01387 3.03305C5.78628 3.1696 5.74076 3.4427 5.87732 3.67029C6.01387 3.89787 6.28697 3.94339 6.51456 3.80684C8.06214 2.80546 9.88283 2.30477 11.749 2.30477C13.6152 2.30477 15.4359 2.85098 16.9835 3.80684H17.029L15.5725 4.17098C15.2994 4.26201 15.1628 4.4896 15.2083 4.71718C15.2539 4.94477 15.4359 5.03581 15.6635 5.03581C15.709 5.03581 15.7546 5.03581 15.8001 5.03581L18.3035 4.39856C18.5311 4.35305 18.7132 4.07994 18.6221 3.85236L17.9394 1.34891ZM22.127 17.8717L20.807 17.7351C21.8539 16.051 22.4456 14.0937 22.4456 12.091C22.4456 10.0427 21.8539 8.08546 20.807 6.35581C20.6704 6.12822 20.3973 6.0827 20.1697 6.21925C19.9421 6.35581 19.8966 6.62891 20.0332 6.85649C21.0346 8.40408 21.5352 10.2248 21.5352 12.091C21.5352 13.9117 21.0346 15.6868 20.0787 17.2344L20.2608 15.5503C20.3063 15.3227 20.1242 15.0951 19.8511 15.0496C19.6235 15.0496 19.3959 15.1861 19.3504 15.4593L19.0773 18.0537C19.0773 18.1903 19.1228 18.2813 19.1684 18.3724C19.2594 18.4634 19.3504 18.5089 19.487 18.5544L22.0359 18.8275H22.0815C22.309 18.8275 22.4911 18.6455 22.5366 18.4179C22.5366 18.0993 22.3546 17.8717 22.127 17.8717Z" fill="white"/>
</svg>
