<svg width="171" height="120" viewBox="0 0 171 120" fill="none" xmlns="http://www.w3.org/2000/svg">
<rect width="171" height="120" fill="white"/>
<g clip-path="url(#clip0_969_18037)">
<path d="M101.532 55.2911L96.7443 41.4511C96.599 41.0139 96.5149 40.5588 96.4943 40.0986C96.4943 38.8211 97.5193 37.5661 99.1743 37.5661C100.554 37.5661 101.482 38.4436 101.882 39.7236L104.892 49.6736L107.974 39.7486C108.374 38.4186 109.404 37.5161 110.832 37.5161H111.157C112.587 37.5161 113.617 38.4436 114.017 39.7486L117.127 49.6986L120.209 39.6736C120.584 38.4936 121.412 37.5411 122.892 37.5411C124.422 37.5411 125.499 38.7186 125.499 40.0986C125.499 40.4736 125.399 40.9761 125.324 41.2261L120.309 55.2911C119.734 57.0211 118.579 57.7736 117.227 57.7736H117.052C115.697 57.7736 114.569 56.9961 114.042 55.3911L110.934 45.5161L107.774 55.3911C107.274 56.9961 106.119 57.7736 104.767 57.7736H104.592C103.262 57.7736 102.109 56.9961 101.532 55.2911ZM50.7318 39.1286C50.1168 37.7461 48.5618 37.1286 47.1043 37.7711C45.6468 38.4111 45.1293 40.0186 45.7718 41.4011L51.8468 54.6111C52.8093 56.6861 53.8218 57.7736 55.6968 57.7736C57.7218 57.7736 58.6118 56.5886 59.5493 54.6111C59.5493 54.6111 64.8593 43.0536 64.9093 42.9311C64.9682 42.7784 65.0739 42.6482 65.2113 42.5593C65.3488 42.4704 65.5108 42.4273 65.6743 42.4361C66.1443 42.4361 66.5143 42.8086 66.5143 43.3011V54.6111C66.5143 56.3411 67.4768 57.7736 69.3293 57.7736C71.1818 57.7736 72.1943 56.3411 72.1943 54.6111V45.3761C72.1943 43.5986 73.4768 42.4361 75.2068 42.4361C76.9368 42.4361 78.0943 43.6236 78.0943 45.3761V54.6111C78.0943 56.3411 79.0593 57.7736 80.9118 57.7736C82.7643 57.7736 83.7743 56.3411 83.7743 54.6111V45.3761C83.7743 43.5986 85.0593 42.4361 86.7868 42.4361C88.5143 42.4361 89.6768 43.6236 89.6768 45.3761V54.6111C89.6768 56.3411 90.6393 57.7736 92.4918 57.7736C94.3443 57.7736 95.3568 56.3411 95.3568 54.6111V44.0911C95.3568 40.2161 92.2443 37.5236 88.5168 37.5236C84.7893 37.5236 82.4418 40.1161 82.4418 40.1161C81.2068 38.5111 79.4793 37.5236 76.5893 37.5236C73.5268 37.5236 70.8368 40.1161 70.8368 40.1161C69.5768 38.5111 67.4768 37.5236 65.7243 37.5236C63.0068 37.5236 60.8593 38.7086 59.5493 41.7211L55.6743 50.8836L50.7318 39.1286Z" fill="black"/>
</g>
<path d="M63.8779 108.484H62.1963L58.6689 98.6196H60.3369L62.9961 106.57H63.1123L65.7578 98.6196H67.3848L63.8779 108.484ZM79.0879 108.484H77.666V101.361H77.5703L74.6787 108.197H73.5166L70.625 101.361H70.5293V108.484H69.1074V98.6196H70.8984L74.0361 106.112H74.1523L77.2969 98.6196H79.0879V108.484ZM91.085 101.04L89.041 108.484H87.5166L85.9785 103.001H85.8623L84.3311 108.484H82.8203L80.7695 101.04H82.2598L83.5928 106.72H83.7021L85.2334 101.04H86.6416L88.1729 106.72H88.2891L89.6152 101.04H91.085ZM94.8311 107.37C95.9385 107.37 96.7588 106.666 96.7588 105.743V105.121L94.9404 105.237C93.915 105.305 93.4502 105.654 93.4502 106.31C93.4502 106.98 94.0312 107.37 94.8311 107.37ZM94.4551 108.607C93.0195 108.607 91.9736 107.739 91.9736 106.378C91.9736 105.039 92.9717 104.266 94.7422 104.157L96.7588 104.041V103.398C96.7588 102.612 96.2393 102.167 95.2344 102.167C94.4141 102.167 93.8467 102.468 93.6826 102.995H92.2607C92.4111 101.716 93.6143 100.896 95.3027 100.896C97.1689 100.896 98.2217 101.826 98.2217 103.398V108.484H96.8066V107.438H96.6904C96.2461 108.183 95.4326 108.607 94.4551 108.607ZM100.313 108.484V101.04H101.729V102.181H101.838C102.05 101.45 102.877 100.917 103.848 100.917C104.066 100.917 104.347 100.937 104.504 100.978V102.427C104.381 102.386 103.943 102.338 103.684 102.338C102.569 102.338 101.783 103.042 101.783 104.088V108.484H100.313ZM108.783 102.147C107.696 102.147 106.938 102.913 106.855 104.075H110.615C110.581 102.906 109.87 102.147 108.783 102.147ZM110.608 106.474H112.023C111.688 107.807 110.499 108.627 108.797 108.627C106.664 108.627 105.358 107.165 105.358 104.786C105.358 102.407 106.691 100.896 108.79 100.896C110.861 100.896 112.112 102.311 112.112 104.649V105.162H106.855V105.244C106.903 106.549 107.662 107.376 108.838 107.376C109.727 107.376 110.335 107.055 110.608 106.474Z" fill="#888888"/>
<defs>
<clipPath id="clip0_969_18037">
<rect width="80" height="80" fill="white" transform="translate(45.5 7.51611)"/>
</clipPath>
</defs>
</svg>
