<svg width="171" height="120" viewBox="0 0 171 120" fill="none" xmlns="http://www.w3.org/2000/svg">
<rect width="171" height="120" fill="white"/>
<path d="M61.75 13.3833L76.1263 13.3889L85.5238 28.9877L94.8881 13.3902L109.252 13.3864L85.5956 54.4208L61.75 13.3833Z" fill="#35495E"/>
<path d="M46.0664 13.4908L61.7333 13.3833L85.577 54.4202L109.235 13.3858L124.929 13.4021L85.5752 80.9395L46.0664 13.4908Z" fill="#41B883"/>
<path d="M67.8359 108.484H66.1543L62.627 98.6196H64.2949L66.9541 106.57H67.0703L69.7158 98.6196H71.3428L67.8359 108.484ZM78.8418 101.04V108.484H77.4268V107.301H77.3105C76.9482 108.149 76.1895 108.627 75.0615 108.627C73.4141 108.627 72.498 107.623 72.498 105.873V101.04H73.9678V105.49C73.9678 106.693 74.4531 107.267 75.5332 107.267C76.7227 107.267 77.3721 106.563 77.3721 105.394V101.04H78.8418ZM84.0303 102.147C82.9434 102.147 82.1846 102.913 82.1025 104.075H85.8623C85.8281 102.906 85.1172 102.147 84.0303 102.147ZM85.8555 106.474H87.2705C86.9355 107.807 85.7461 108.627 84.0439 108.627C81.9111 108.627 80.6055 107.165 80.6055 104.786C80.6055 102.407 81.9385 100.896 84.0371 100.896C86.1084 100.896 87.3594 102.311 87.3594 104.649V105.162H82.1025V105.244C82.1504 106.549 82.9092 107.376 84.085 107.376C84.9736 107.376 85.582 107.055 85.8555 106.474ZM92.4453 105.92H93.9492C93.9697 106.734 94.5645 107.281 95.4395 107.281C96.417 107.281 96.9707 106.693 96.9707 105.592V98.6196H98.502V105.599C98.502 107.582 97.3535 108.723 95.4531 108.723C93.6689 108.723 92.4453 107.616 92.4453 105.92ZM100.505 105.832H102.022C102.152 106.768 103.068 107.363 104.388 107.363C105.618 107.363 106.521 106.727 106.521 105.852C106.521 105.1 105.946 104.649 104.641 104.341L103.369 104.034C101.585 103.617 100.771 102.755 100.771 101.306C100.771 99.5493 102.207 98.3804 104.36 98.3804C106.363 98.3804 107.826 99.5493 107.915 101.21H106.425C106.281 100.301 105.488 99.7339 104.34 99.7339C103.13 99.7339 102.323 100.315 102.323 101.204C102.323 101.908 102.843 102.311 104.128 102.612L105.215 102.878C107.238 103.35 108.072 104.17 108.072 105.654C108.072 107.541 106.609 108.723 104.271 108.723C102.084 108.723 100.614 107.595 100.505 105.832Z" fill="#888888"/>
</svg>
