<svg width="26" height="27" viewBox="0 0 26 27" fill="none" xmlns="http://www.w3.org/2000/svg">
<g clip-path="url(#clip0_917_22623)">
<g clip-path="url(#clip1_917_22623)">
<path d="M4 10.6833H24M4 8.68335C4 8.15292 4.21071 7.64421 4.58579 7.26914C4.96086 6.89406 5.46957 6.68335 6 6.68335H22C22.5304 6.68335 23.0391 6.89406 23.4142 7.26914C23.7893 7.64421 24 8.15292 24 8.68335V20.6833C24 21.2138 23.7893 21.7225 23.4142 22.0976C23.0391 22.4726 22.5304 22.6833 22 22.6833H6C5.46957 22.6833 4.96086 22.4726 4.58579 22.0976C4.21071 21.7225 4 21.2138 4 20.6833V8.68335Z" stroke="white" stroke-width="2" stroke-linecap="round" stroke-linejoin="round"/>
<path d="M4 14.6833H11C11 15.6833 11.6 17.6833 14 17.6833C16.4 17.6833 17 15.6833 17 14.6833H24" stroke="white" stroke-width="2" stroke-linecap="round" stroke-linejoin="round"/>
</g>
</g>
<defs>
<clipPath id="clip0_917_22623">
<rect width="26" height="26" fill="white" transform="translate(0 0.68335)"/>
</clipPath>
<clipPath id="clip1_917_22623">
<rect width="26" height="26" fill="white" transform="translate(0 0.68335)"/>
</clipPath>
</defs>
</svg>
