<svg width="24" height="25" viewBox="0 0 24 25" fill="none" xmlns="http://www.w3.org/2000/svg">
<path fill-rule="evenodd" clip-rule="evenodd" d="M14 7.01172C13.7348 7.01172 13.4804 7.11708 13.2929 7.30461C13.1054 7.49215 13 7.7465 13 8.01172V16.0117C13 16.2769 13.1054 16.5313 13.2929 16.7188C13.4804 16.9064 13.7348 17.0117 14 17.0117H18C18.2652 17.0117 18.5196 16.9064 18.7071 16.7188C18.8946 16.5313 19 16.2769 19 16.0117V8.01172C19 7.7465 18.8946 7.49215 18.7071 7.30461C18.5196 7.11708 18.2652 7.01172 18 7.01172H14ZM17 9.01172H15V15.0117H17V9.01172Z" fill="white"/>
<path d="M6 7.01172C5.73478 7.01172 5.48043 7.11708 5.29289 7.30461C5.10536 7.49215 5 7.7465 5 8.01172C5 8.27694 5.10536 8.53129 5.29289 8.71883C5.48043 8.90636 5.73478 9.01172 6 9.01172H10C10.2652 9.01172 10.5196 8.90636 10.7071 8.71883C10.8946 8.53129 11 8.27694 11 8.01172C11 7.7465 10.8946 7.49215 10.7071 7.30461C10.5196 7.11708 10.2652 7.01172 10 7.01172H6ZM6 11.0117C5.73478 11.0117 5.48043 11.1171 5.29289 11.3046C5.10536 11.4921 5 11.7465 5 12.0117C5 12.2769 5.10536 12.5313 5.29289 12.7188C5.48043 12.9064 5.73478 13.0117 6 13.0117H10C10.2652 13.0117 10.5196 12.9064 10.7071 12.7188C10.8946 12.5313 11 12.2769 11 12.0117C11 11.7465 10.8946 11.4921 10.7071 11.3046C10.5196 11.1171 10.2652 11.0117 10 11.0117H6ZM5 16.0117C5 15.7465 5.10536 15.4921 5.29289 15.3046C5.48043 15.1171 5.73478 15.0117 6 15.0117H10C10.2652 15.0117 10.5196 15.1171 10.7071 15.3046C10.8946 15.4921 11 15.7465 11 16.0117C11 16.2769 10.8946 16.5313 10.7071 16.7188C10.5196 16.9064 10.2652 17.0117 10 17.0117H6C5.73478 17.0117 5.48043 16.9064 5.29289 16.7188C5.10536 16.5313 5 16.2769 5 16.0117Z" fill="white"/>
<path fill-rule="evenodd" clip-rule="evenodd" d="M4 3.01172C3.20435 3.01172 2.44129 3.32779 1.87868 3.8904C1.31607 4.45301 1 5.21607 1 6.01172V18.0117C1 18.8074 1.31607 19.5704 1.87868 20.133C2.44129 20.6956 3.20435 21.0117 4 21.0117H20C20.7956 21.0117 21.5587 20.6956 22.1213 20.133C22.6839 19.5704 23 18.8074 23 18.0117V6.01172C23 5.21607 22.6839 4.45301 22.1213 3.8904C21.5587 3.32779 20.7956 3.01172 20 3.01172H4ZM20 5.01172H4C3.73478 5.01172 3.48043 5.11708 3.29289 5.30461C3.10536 5.49215 3 5.7465 3 6.01172V18.0117C3 18.2769 3.10536 18.5313 3.29289 18.7188C3.48043 18.9064 3.73478 19.0117 4 19.0117H20C20.2652 19.0117 20.5196 18.9064 20.7071 18.7188C20.8946 18.5313 21 18.2769 21 18.0117V6.01172C21 5.7465 20.8946 5.49215 20.7071 5.30461C20.5196 5.11708 20.2652 5.01172 20 5.01172Z" fill="white"/>
</svg>
