<svg width="26" height="27" viewBox="0 0 26 27" fill="none" xmlns="http://www.w3.org/2000/svg">
<g clip-path="url(#clip0_917_22523)">
<g clip-path="url(#clip1_917_22523)">
<path d="M18.1173 16.9491C16.9993 18.8851 15.1323 19.9961 12.9993 19.9961C10.8663 19.9961 9.00135 18.8861 7.88135 16.9491C7.73154 16.6701 7.69623 16.3437 7.78288 16.039C7.86952 15.7344 8.07133 15.4755 8.34557 15.317C8.61981 15.1586 8.94495 15.1131 9.25213 15.1902C9.55932 15.2673 9.82444 15.4609 9.99135 15.7301C10.3873 16.4141 11.3033 17.5581 12.9993 17.5581C14.6953 17.5581 15.6113 16.4131 16.0063 15.7301C16.0817 15.5828 16.1862 15.4523 16.3136 15.3467C16.4409 15.2411 16.5884 15.1624 16.7471 15.1156C16.9058 15.0687 17.0723 15.0546 17.2366 15.0742C17.4009 15.0937 17.5596 15.1465 17.7028 15.2293C17.8461 15.312 17.971 15.4231 18.07 15.5556C18.169 15.6882 18.24 15.8395 18.2787 16.0004C18.3174 16.1613 18.323 16.3284 18.295 16.4915C18.2671 16.6545 18.2073 16.8103 18.1173 16.9491ZM23.9674 13.9021C23.9675 16.0719 23.3243 18.193 22.1189 19.9972C20.9135 21.8014 19.2002 23.2076 17.1956 24.038C15.191 24.8684 12.9852 25.0856 10.8571 24.6623C8.72899 24.239 6.77424 23.1941 5.24003 21.6597C3.70583 20.1254 2.6611 18.1705 2.23796 16.0424C1.81483 13.9143 2.0323 11.7084 2.86287 9.70391C3.69344 7.69938 5.0998 5.98618 6.90409 4.78098C8.70839 3.57578 10.8296 2.93271 12.9993 2.93311C15.9076 2.93602 18.6959 4.09261 20.7524 6.14907C22.8088 8.20552 23.9644 10.9938 23.9674 13.9021ZM21.5303 13.9021C21.5305 12.2146 21.0303 10.5648 20.0929 9.1616C19.1554 7.75837 17.8229 6.66465 16.2639 6.01876C14.7048 5.37287 12.9892 5.20382 11.3341 5.533C9.67894 5.86217 8.1586 6.67479 6.96531 7.86807C5.77203 9.06135 4.95942 10.5817 4.63024 12.2368C4.30106 13.892 4.47011 15.6076 5.116 17.1666C5.76189 18.7257 6.85561 20.0582 8.25885 20.9956C9.66208 21.9331 11.3118 22.4333 12.9993 22.4331C15.2612 22.4307 17.4297 21.5312 19.029 19.9318C20.6284 18.3324 21.528 16.1639 21.5303 13.9021ZM9.34335 13.4961C9.77459 13.4961 10.1882 13.3248 10.4931 13.0199C10.798 12.7149 10.9693 12.3013 10.9693 11.8701C10.9693 11.4389 10.798 11.0253 10.4931 10.7203C10.1882 10.4154 9.77459 10.2441 9.34335 10.2441C8.91211 10.2441 8.49853 10.4154 8.19359 10.7203C7.88866 11.0253 7.71735 11.4389 7.71735 11.8701C7.71735 12.3013 7.88866 12.7149 8.19359 13.0199C8.49853 13.3248 8.91211 13.4961 9.34335 13.4961ZM16.6553 10.2461C16.2244 10.2461 15.811 10.4173 15.5063 10.7221C15.2016 11.0268 15.0303 11.4401 15.0303 11.8711C15.0303 12.3021 15.2016 12.7154 15.5063 13.0202C15.811 13.3249 16.2244 13.4961 16.6553 13.4961C17.0863 13.4961 17.4997 13.3249 17.8044 13.0202C18.1091 12.7154 18.2803 12.3021 18.2803 11.8711C18.2803 11.4401 18.1091 11.0268 17.8044 10.7221C17.4997 10.4173 17.0863 10.2461 16.6553 10.2461Z" fill="#222222"/>
</g>
</g>
<defs>
<clipPath id="clip0_917_22523">
<rect width="26" height="26" fill="white" transform="translate(0 0.9021)"/>
</clipPath>
<clipPath id="clip1_917_22523">
<rect width="26" height="26" fill="white" transform="translate(0 0.9021)"/>
</clipPath>
</defs>
</svg>
