<svg width="30" height="31" viewBox="0 0 30 31" fill="none" xmlns="http://www.w3.org/2000/svg">
<path d="M2.5 15.7927C2.5 9.90023 2.5 6.95398 4.33 5.12272C6.1625 3.29272 9.1075 3.29272 15 3.29272C20.8925 3.29272 23.8388 3.29272 25.6688 5.12272C27.5 6.95523 27.5 9.90023 27.5 15.7927C27.5 21.6852 27.5 24.6315 25.6688 26.4615C23.84 28.2927 20.8925 28.2927 15 28.2927C9.1075 28.2927 6.16125 28.2927 4.33 26.4615C2.5 24.6327 2.5 21.6852 2.5 15.7927Z" stroke="black" stroke-width="1.5"/>
<path d="M7.5 20.5427L8.92875 22.0427L12.5 18.2927M7.5 11.7927L8.92875 13.2927L12.5 9.54272" stroke="black" stroke-width="1.5" stroke-linecap="round" stroke-linejoin="round"/>
<path d="M16.25 12.0427H22.5M16.25 20.7927H22.5" stroke="black" stroke-width="1.5" stroke-linecap="round"/>
</svg>
