<svg width="24" height="25" viewBox="0 0 24 25" fill="none" xmlns="http://www.w3.org/2000/svg">
<path fill-rule="evenodd" clip-rule="evenodd" d="M9.315 7.9025C12.1956 4.2018 16.6946 1.81906 21.75 1.81885C21.9489 1.81884 22.1397 1.89785 22.2803 2.03851C22.421 2.17916 22.5 2.36993 22.5 2.56885C22.5 7.62449 20.1173 12.1239 16.4165 15.0047C16.4715 15.3517 16.5 15.7072 16.5 16.0688C16.5 19.7968 13.4779 22.8188 9.75 22.8188C9.33579 22.8188 9 22.4831 9 22.0688V17.9373C8.99075 17.9306 8.98163 17.9237 8.97264 17.9166C8.02063 17.1617 7.15799 16.2991 6.40312 15.3471C6.39577 15.3378 6.38866 15.3284 6.38179 15.3188H2.25C1.83579 15.3188 1.5 14.9831 1.5 14.5688C1.5 10.8409 4.52208 7.81885 8.25 7.81885C8.61198 7.81885 8.96772 7.84741 9.315 7.9025ZM15 7.06885C13.7574 7.06885 12.75 8.07621 12.75 9.31885C12.75 10.5615 13.7574 11.5688 15 11.5688C16.2426 11.5688 17.25 10.5615 17.25 9.31885C17.25 8.07621 16.2426 7.06885 15 7.06885Z" fill="#06135B"/>
<path d="M5.26036 17.5607C5.59237 17.313 5.66074 16.8431 5.41306 16.5111C5.16539 16.1791 4.69546 16.1107 4.36345 16.3584C3.08209 17.3142 2.25 18.8444 2.25 20.5688C2.25 20.8443 2.27129 21.1154 2.31246 21.3803C2.36259 21.703 2.61574 21.9562 2.93842 22.0063C3.20336 22.0475 3.47445 22.0688 3.75 22.0688C5.47434 22.0688 7.00452 21.2367 7.9604 19.9553C8.20808 19.6233 8.13971 19.1534 7.8077 18.9057C7.47569 18.658 7.00576 18.7264 6.75809 19.0584C6.07313 19.9766 4.98081 20.5688 3.75 20.5688C3.75 19.338 4.34218 18.2456 5.26036 17.5607Z" fill="#06135B"/>
</svg>
