<svg width="24" height="25" viewBox="0 0 24 25" fill="none" xmlns="http://www.w3.org/2000/svg">
<path fill-rule="evenodd" clip-rule="evenodd" d="M2.25 2.30493C1.83579 2.30493 1.5 2.64072 1.5 3.05493C1.5 3.46915 1.83579 3.80493 2.25 3.80493H3V14.3049C3 15.9618 4.34315 17.3049 6 17.3049H7.20943L6.03849 20.8178C5.9075 21.2107 6.11987 21.6355 6.51283 21.7664C6.90579 21.8974 7.33053 21.6851 7.46151 21.2921L7.79057 20.3049H16.2094L16.5385 21.2921C16.6695 21.6851 17.0942 21.8974 17.4872 21.7664C17.8801 21.6355 18.0925 21.2107 17.9615 20.8178L16.7906 17.3049H18C19.6569 17.3049 21 15.9618 21 14.3049V3.80493H21.75C22.1642 3.80493 22.5 3.46915 22.5 3.05493C22.5 2.64072 22.1642 2.30493 21.75 2.30493H2.25ZM8.29057 18.8049L8.79057 17.3049H15.2094L15.7094 18.8049H8.29057ZM15.75 6.80493C15.75 6.39072 15.4142 6.05493 15 6.05493C14.5858 6.05493 14.25 6.39072 14.25 6.80493V12.8049C14.25 13.2191 14.5858 13.5549 15 13.5549C15.4142 13.5549 15.75 13.2191 15.75 12.8049V6.80493ZM12.75 9.05493C12.75 8.64072 12.4142 8.30493 12 8.30493C11.5858 8.30493 11.25 8.64072 11.25 9.05493V12.8049C11.25 13.2191 11.5858 13.5549 12 13.5549C12.4142 13.5549 12.75 13.2191 12.75 12.8049V9.05493ZM9.75 11.3049C9.75 10.8907 9.41421 10.5549 9 10.5549C8.58579 10.5549 8.25 10.8907 8.25 11.3049V12.8049C8.25 13.2191 8.58579 13.5549 9 13.5549C9.41421 13.5549 9.75 13.2191 9.75 12.8049V11.3049Z" fill="#06135B"/>
</svg>
