<svg width="18" height="19" viewBox="0 0 18 19" fill="none" xmlns="http://www.w3.org/2000/svg">
<path fill-rule="evenodd" clip-rule="evenodd" d="M0 1.66C0 0.831576 0.671573 0.160004 1.5 0.160004H6C6.82843 0.160004 7.5 0.831577 7.5 1.66V14.41C7.5 16.4811 5.82107 18.16 3.75 18.16C1.67893 18.16 0 16.4811 0 14.41V1.66ZM4.875 14.41C4.875 15.0313 4.37132 15.535 3.75 15.535C3.12868 15.535 2.625 15.0313 2.625 14.41C2.625 13.7887 3.12868 13.285 3.75 13.285C4.37132 13.285 4.875 13.7887 4.875 14.41Z" fill="#06135B"/>
<path d="M9.75 13.7124L15.4165 8.04594C16.0023 7.46015 16.0023 6.5104 15.4165 5.92462L12.2345 2.74264C11.6487 2.15685 10.699 2.15685 10.1132 2.74264L9.75 3.1058V13.7124Z" fill="#06135B"/>
<path d="M8.48438 18.16H16.4997C17.3281 18.16 17.9997 17.4884 17.9997 16.66V12.16C17.9997 11.3316 17.3281 10.66 16.4997 10.66H15.9844L8.48438 18.16Z" fill="#06135B"/>
</svg>
