<svg width="18" height="22" viewBox="0 0 18 22" fill="none" xmlns="http://www.w3.org/2000/svg">
<path d="M8.44184 0.646273C8.78771 0.448638 9.21229 0.448638 9.55816 0.646273L17.4332 5.14627C17.7837 5.34657 18 5.71933 18 6.12305C18 6.52676 17.7837 6.89952 17.4332 7.09982L9.55816 11.5998C9.21229 11.7975 8.78771 11.7975 8.44184 11.5998L0.566844 7.09982C0.216322 6.89952 0 6.52676 0 6.12305C0 5.71933 0.216322 5.34657 0.566844 5.14627L8.44184 0.646273Z" fill="#06135B"/>
<path d="M0.855605 9.85693L0.566844 10.0219C0.216322 10.2222 0 10.595 0 10.9987C0 11.4024 0.216322 11.7752 0.566844 11.9755L8.44184 16.4755C8.78771 16.6731 9.21229 16.6731 9.55816 16.4755L17.4332 11.9755C17.7837 11.7752 18 11.4024 18 10.9987C18 10.595 17.7837 10.2222 17.4332 10.0219L17.1444 9.85693L10.6745 13.554C9.63688 14.1469 8.36312 14.1469 7.32553 13.554L0.855605 9.85693Z" fill="#06135B"/>
<path d="M0.566844 14.8969L0.855605 14.7319L7.32553 18.429C8.36312 19.0219 9.63688 19.0219 10.6745 18.429L17.1444 14.7319L17.4332 14.8969C17.7837 15.0972 18 15.47 18 15.8737C18 16.2774 17.7837 16.6502 17.4332 16.8505L9.55816 21.3505C9.21229 21.5481 8.78771 21.5481 8.44184 21.3505L0.566844 16.8505C0.216322 16.6502 0 16.2774 0 15.8737C0 15.47 0.216322 15.0972 0.566844 14.8969Z" fill="#06135B"/>
</svg>
