<svg width="24" height="25" viewBox="0 0 24 25" fill="none" xmlns="http://www.w3.org/2000/svg">
<path fill-rule="evenodd" clip-rule="evenodd" d="M9 5.26123C9.33486 5.26123 9.62915 5.48321 9.72114 5.80519L10.5343 8.65138C10.8903 9.89716 11.8641 10.871 13.1099 11.2269L15.956 12.0401C16.278 12.1321 16.5 12.4264 16.5 12.7612C16.5 13.0961 16.278 13.3904 15.956 13.4824L13.1098 14.2956C11.8641 14.6515 10.8903 15.6253 10.5343 16.8711L9.72114 19.7173C9.62915 20.0392 9.33486 20.2612 9 20.2612C8.66514 20.2612 8.37085 20.0392 8.27886 19.7173L7.46566 16.8711C7.10972 15.6253 6.13593 14.6515 4.89015 14.2956L2.04396 13.4824C1.72198 13.3904 1.5 13.0961 1.5 12.7612C1.5 12.4264 1.72198 12.1321 2.04396 12.0401L4.89015 11.2269C6.13593 10.871 7.10972 9.89716 7.46566 8.65138L8.27886 5.80519C8.37085 5.48321 8.66514 5.26123 9 5.26123Z" fill="#06135B"/>
<path fill-rule="evenodd" clip-rule="evenodd" d="M18 2.26123C18.3442 2.26123 18.6441 2.49545 18.7276 2.82933L18.9865 3.86479C19.2216 4.80529 19.9559 5.53963 20.8964 5.77476L21.9319 6.03362C22.2658 6.11709 22.5 6.41708 22.5 6.76123C22.5 7.10538 22.2658 7.40537 21.9319 7.48884L20.8964 7.7477C19.9559 7.98283 19.2216 8.71717 18.9865 9.65767L18.7276 10.6931C18.6441 11.027 18.3442 11.2612 18 11.2612C17.6558 11.2612 17.3559 11.027 17.2724 10.6931L17.0135 9.65767C16.7784 8.71717 16.0441 7.98283 15.1036 7.7477L14.0681 7.48884C13.7342 7.40537 13.5 7.10538 13.5 6.76123C13.5 6.41708 13.7342 6.11709 14.0681 6.03362L15.1036 5.77476C16.0441 5.53963 16.7784 4.80529 17.0135 3.86479L17.2724 2.82933C17.3559 2.49545 17.6558 2.26123 18 2.26123Z" fill="#06135B"/>
<path fill-rule="evenodd" clip-rule="evenodd" d="M16.5 15.7612C16.8228 15.7612 17.1094 15.9678 17.2115 16.2741L17.6058 17.4568C17.7551 17.9047 18.1065 18.2562 18.5544 18.4055L19.7372 18.7997C20.0434 18.9018 20.25 19.1884 20.25 19.5112C20.25 19.8341 20.0434 20.1207 19.7372 20.2227L18.5544 20.617C18.1065 20.7663 17.7551 21.1178 17.6058 21.5657L17.2115 22.7484C17.1094 23.0547 16.8228 23.2612 16.5 23.2612C16.1772 23.2612 15.8906 23.0547 15.7885 22.7484L15.3942 21.5657C15.2449 21.1178 14.8935 20.7663 14.4456 20.617L13.2628 20.2227C12.9566 20.1207 12.75 19.8341 12.75 19.5112C12.75 19.1884 12.9566 18.9018 13.2628 18.7997L14.4456 18.4055C14.8935 18.2562 15.2449 17.9047 15.3942 17.4568L15.7885 16.2741C15.8906 15.9678 16.1772 15.7612 16.5 15.7612Z" fill="#06135B"/>
</svg>
