<?xml version="1.0" encoding="UTF-8"?>
<svg id="Layer_1" xmlns="http://www.w3.org/2000/svg" version="1.1" xmlns:xlink="http://www.w3.org/1999/xlink" viewBox="0 0 841.89 595.28">
  <!-- Generator: Adobe Illustrator 29.4.0, SVG Export Plug-In . SVG Version: 2.1.0 Build 152)  -->
  <defs>
    <style>
      .st0, .st1, .st2, .st3, .st4, .st5, .st6, .st7, .st8, .st9, .st10, .st11, .st12, .st13, .st14 {
        fill: none;
      }

      .st0, .st1, .st2, .st3, .st4, .st5, .st6, .st7, .st9, .st10, .st11, .st12, .st13, .st14 {
        stroke-miterlimit: 10;
      }

      .st0, .st2, .st3, .st12 {
        stroke: #1d1d1b;
      }

      .st0, .st3, .st14 {
        stroke-linecap: round;
      }

      .st0, .st12 {
        stroke-width: 1.86px;
      }

      .st1 {
        stroke-width: .5px;
      }

      .st1, .st4, .st5, .st6, .st7, .st10, .st13, .st14 {
        stroke: #000;
      }

      .st2, .st13 {
        stroke-width: 4.54px;
      }

      .st3 {
        stroke-width: 4.37px;
      }

      .st4 {
        stroke-width: 1.7px;
      }

      .st5 {
        stroke-width: .37px;
      }

      .st6 {
        stroke-width: .5px;
      }

      .st15 {
        fill: #fff;
      }

      .st7 {
        stroke-width: .29px;
      }

      .st16 {
        fill: #020202;
      }

      .st9 {
        stroke-width: 1.93px;
      }

      .st9, .st11 {
        stroke: #020202;
      }

      .st17 {
        clip-path: url(#clippath-1);
      }

      .st10 {
        stroke-width: 2px;
      }

      .st18 {
        fill: #dbd9cf;
      }

      .st19 {
        fill: #1d1d1b;
      }

      .st11 {
        stroke-width: 1.3px;
      }

      .st14 {
        stroke-width: 1.94px;
      }

      .st20 {
        fill: #1a1e0b;
      }

      .st21 {
        clip-path: url(#clippath);
      }
    </style>
    <clipPath id="clippath">
      <rect class="st8" width="841.89" height="595.28"/>
    </clipPath>
    <clipPath id="clippath-1">
      <rect class="st8" width="841.89" height="595.28"/>
    </clipPath>
  </defs>
  <g class="st21">
    <g class="st17">
      <path class="st15" d="M261.79,188.1c-9.93-6.56-24.27-2.36-32.04,9.38-7.76,11.74.38,39.77.38,39.77,0,0,27.82-4.26,35.58-16s6.01-26.58-3.92-33.15"/>
      <path class="st2" d="M261.79,188.1c-9.93-6.56-24.27-2.36-32.04,9.38-7.76,11.74.38,39.77.38,39.77,0,0,27.82-4.26,35.58-16s6.01-26.58-3.92-33.15Z"/>
      <path class="st15" d="M267.93,243.31c1.32-7.79-5.08-15.38-14.29-16.94-9.21-1.56-24.05,10.9-24.05,10.9,0,0,10.05,15.75,19.26,17.32,9.21,1.56,17.76-3.49,19.08-11.28"/>
      <path class="st2" d="M267.93,243.31c1.32-7.79-5.08-15.38-14.29-16.94-9.21-1.56-24.05,10.9-24.05,10.9,0,0,10.05,15.75,19.26,17.32,9.21,1.56,17.76-3.49,19.08-11.28Z"/>
      <path class="st15" d="M88.46,191.18c9.69-6.91,24.17-3.23,32.35,8.23,8.18,11.46,1.04,39.76,1.04,39.76,0,0-27.96-3.26-36.13-14.72-8.18-11.46-6.95-26.35,2.74-33.27"/>
      <path class="st2" d="M88.46,191.18c9.69-6.91,24.17-3.23,32.35,8.23,8.18,11.46,1.04,39.76,1.04,39.76,0,0-27.96-3.26-36.13-14.72-8.18-11.46-6.95-26.35,2.74-33.27Z"/>
      <path class="st15" d="M84.29,246.58c-1.6-7.74,4.53-15.55,13.68-17.44,9.15-1.89,24.42,10.04,24.42,10.04,0,0-9.48,16.1-18.64,17.99-9.15,1.89-17.87-2.85-19.47-10.59"/>
      <path class="st2" d="M84.29,246.58c-1.6-7.74,4.53-15.55,13.68-17.44,9.15-1.89,24.42,10.04,24.42,10.04,0,0-9.48,16.1-18.64,17.99-9.15,1.89-17.87-2.85-19.47-10.59Z"/>
      <path class="st15" d="M236.97,261.52c.2,11.47-3.27,24.66-12.59,36.82-15.83,20.65-48.07,38.29-48.07,38.29,0,0-23.1-16.42-42.78-36.25-11.81-11.9-17.45-25.11-17.66-36.71-.55-30.94,26.08-58.44,59.52-59.03,33.44-.6,61.03,25.94,61.59,56.88"/>
      <path class="st2" d="M236.97,261.52c.2,11.47-3.27,24.66-12.59,36.82-15.83,20.65-48.07,38.29-48.07,38.29,0,0-23.1-16.42-42.78-36.25-11.81-11.9-17.45-25.11-17.66-36.71-.55-30.94,26.08-58.44,59.52-59.03,33.44-.6,61.03,25.94,61.59,56.88Z"/>
      <path class="st15" d="M218.62,181.69c.39,21.78-16.95,39.75-38.73,40.13-21.78.39-39.74-16.95-40.13-38.73-.39-21.78,16.95-39.75,38.73-40.13,21.78-.39,39.75,16.95,40.13,38.73"/>
      <path class="st2" d="M218.62,181.69c.39,21.78-16.95,39.75-38.73,40.13-21.78.39-39.74-16.95-40.13-38.73-.39-21.78,16.95-39.75,38.73-40.13,21.78-.39,39.75,16.95,40.13,38.73Z"/>
      <path class="st19" d="M174.46,175.03c.07,4.04-2.85,7.37-6.53,7.44-3.68.07-6.72-3.16-6.79-7.2-.07-4.04,2.85-7.37,6.53-7.44,3.68-.06,6.72,3.16,6.79,7.2"/>
      <path class="st15" d="M165.49,172.2c0,.53-.48.97-1.1.98-.62.01-1.12-.41-1.13-.94,0-.53.48-.96,1.1-.98.62-.01,1.12.41,1.13.94"/>
      <path class="st15" d="M168.09,173.19c0,.53-.48.97-1.1.98-.62.01-1.12-.41-1.13-.94,0-.53.48-.96,1.1-.98.62-.01,1.12.41,1.13.94"/>
      <path class="st19" d="M199.8,174.32c.07,4.04-2.85,7.37-6.53,7.44-3.68.07-6.72-3.16-6.79-7.2-.07-4.04,2.85-7.37,6.53-7.44,3.68-.06,6.72,3.16,6.79,7.2"/>
      <path class="st15" d="M191.07,170.73c0,.53-.48.97-1.1.98-.62.01-1.12-.41-1.13-.94,0-.53.48-.96,1.1-.98.62-.01,1.12.41,1.13.94"/>
      <path class="st15" d="M193.53,171.97c0,.53-.48.97-1.1.98-.62.01-1.12-.41-1.13-.94,0-.53.48-.96,1.1-.98.62-.01,1.12.41,1.13.94"/>
      <path class="st19" d="M170.85,191.28c-1.19,2.97-.46,6.31,1.83,8.53,2.16,2.09,5.65,2.54,8.3,1.14,1.63-.86,2.89-2.16,3.64-3.85.36-.82-.05-1.93-.91-2.25-.88-.33-1.86.03-2.24.91-.06.13-.12.26-.18.39-.02.04-.08.11-.09.16.03-.21.16-.25.05-.08-.15.23-.31.46-.49.67-.09.1-.18.2-.28.3-.16.17.25-.21.07-.07-.04.04-.09.08-.13.12-.22.19-.45.36-.7.51-.33.21.21-.09-.06.04-.12.06-.24.12-.36.17-.1.05-.21.09-.32.13-.07.03-.14.05-.21.07-.07.02-.25.13-.06.02.19-.11.03,0-.06.01-.06.01-.11.02-.17.03-.13.03-.26.05-.39.06-.13.02-.26.03-.4.04-.06,0-.11,0-.17,0-.21.02.36.03.05,0-.25-.02-.49-.04-.74-.09-.07-.01-.15-.04-.23-.05-.2-.03.18.04.16.05-.02.03-.38-.12-.44-.15-.05-.02-.74-.33-.73-.34,0-.01.3.2.15.09-.06-.04-.13-.08-.19-.12-.11-.07-.21-.15-.32-.24-.1-.08-.2-.17-.3-.26-.32-.28.15.19-.05-.04-.18-.22-.36-.43-.52-.67-.05-.08-.21-.24-.21-.34,0-.01.15.32.08.13-.03-.07-.07-.13-.1-.2-.11-.24-.2-.49-.29-.74-.13-.38.05.26-.04-.13-.03-.15-.06-.3-.08-.45-.02-.15-.04-.3-.04-.46,0-.08,0-.15,0-.23-.01-.23-.02.32,0,.1.03-.32.05-.62.11-.94.01-.06.03-.12.04-.18.08-.39-.09.25-.01.04.06-.17.12-.35.19-.52.33-.83-.03-1.92-.91-2.24-.86-.32-1.89.02-2.24.91"/>
      <path d="M160.11,321.52s19.18,13.68,37.15-.66l-20.95,15.78-16.2-15.12Z"/>
      <path class="st3" d="M164.51,145.59s-3.29-19.58,17.6-25.83"/>
      <path class="st3" d="M195.53,143.42s4.78-19.28,26.42-16.7"/>
      <path class="st19" d="M189.81,119.09c.05,3-2.34,5.48-5.34,5.53-3,.05-5.48-2.34-5.53-5.34-.05-3,2.34-5.48,5.34-5.53,3-.05,5.48,2.34,5.53,5.34"/>
      <path class="st19" d="M228.88,127.51c.05,3-2.34,5.48-5.34,5.53-3,.05-5.48-2.34-5.53-5.34-.05-3,2.34-5.48,5.34-5.53,3-.05,5.48,2.34,5.53,5.34"/>
      <path class="st15" d="M190.3,187.03s3.82-6.21,10.26-1.26"/>
      <path class="st0" d="M190.3,187.03s3.82-6.21,10.26-1.26"/>
      <path class="st15" d="M170.44,187.39s-4.12-6.07-10.3-.89"/>
      <path class="st0" d="M170.44,187.39s-4.12-6.07-10.3-.89"/>
      <path class="st12" d="M125.01,234.32l2.24,5.71c.89,2.26,3.56,3.22,5.68,2.04l3.08-1.71c1.87-1.04,4.22-.43,5.35,1.38l1.66,2.66c1.16,1.86,3.6,2.44,5.48,1.31l3.46-2.1c1.76-1.07,4.04-.63,5.28,1.01l1.37,1.81c1.24,1.65,3.54,2.08,5.3,1l4.14-2.54c1.69-1.04,3.88-.69,5.16.82l1.75,2.07c1.38,1.63,3.8,1.89,5.49.59l3.1-2.37c1.53-1.17,3.67-1.09,5.11.19l4.03,3.6c1.65,1.48,4.19,1.33,5.66-.32l2.77-3.11c1.53-1.72,4.19-1.8,5.82-.18l1.58,1.57c1.88,1.87,5.02,1.43,6.32-.88l.31-.56c1.29-2.29,4.39-2.75,6.28-.92,1.86,1.79,4.9,1.39,6.23-.83l2.63-4.4"/>
      <path class="st12" d="M119.25,281c1.23,2.6,1.84,3.9,3.04,6.48,1.19,2.56,4.1,3.95,6.22,2.95,1.23-.58,1.85-.87,3.09-1.45,1.88-.89,4.44.02,5.78,2.06.79,1.2,1.18,1.8,1.96,2.99,1.36,2.09,3.95,2.92,5.84,1.87,1.4-.78,2.1-1.17,3.51-1.96,1.79-1,4.22-.39,5.6,1.41.61.8.91,1.19,1.51,1.98,1.37,1.8,3.77,2.36,5.58,1.28,1.7-1.01,2.55-1.52,4.26-2.54,1.75-1.04,4.06-.64,5.42.95.74.87,1.11,1.31,1.85,2.17,1.45,1.71,3.95,1.97,5.72.6,1.3-1,1.95-1.5,3.26-2.51,1.61-1.24,3.86-1.21,5.33.07,1.65,1.44,2.47,2.16,4.09,3.57,1.66,1.45,4.27,1.16,5.87-.64,1.2-1.35,1.8-2.03,3.02-3.38,1.68-1.88,4.47-2.15,6.06-.62.62.6.93.89,1.54,1.48,1.82,1.76,5.07.99,6.61-1.52.15-.24.22-.36.37-.61,1.52-2.49,4.81-3.3,6.59-1.67,1.75,1.61,4.92.79,6.54-1.67,1.29-1.95,1.93-2.93,3.24-4.89"/>
      <path d="M220.77,243.32c.01.69.02,1.39.04,2.08-.5,2.43-1.38,4.7-2.82,6.75-3.3,4.68-7.73,8.14-12.35,11.38-.23.16-.76.14-1.01-.02-4.36-2.8-8.53-5.84-11.88-9.85-1.88-2.24-3.33-4.71-3.76-7.68-.55-3.85,1.23-7.63,4.36-9.22,3.2-1.62,7.39-.89,10.12,1.79.41.4.77.84,1.18,1.29.75-.76,1.34-1.42,1.98-2.01,4.6-4.26,11.92-2.26,13.67,3.74.17.58.32,1.18.47,1.76"/>
      <path class="st15" d="M143.28,146.43l.16-1.67c.25-2.5,3.25-3.63,5.09-1.92l1.22,1.15c1.08,1.01,2.59,1.42,4.03,1.11l1.64-.36c2.45-.54,4.46,1.97,3.4,4.24l-.71,1.52c-.63,1.34-.55,2.9.19,4.17l.85,1.45c1.27,2.17-.49,4.85-2.99,4.54l-1.66-.21c-1.47-.18-2.93.37-3.91,1.47l-1.11,1.25c-1.67,1.88-4.76,1.03-5.24-1.44l-.32-1.65c-.28-1.45-1.26-2.67-2.61-3.26l-1.54-.67c-2.3-1.01-2.45-4.21-.25-5.43l1.47-.81c1.29-.71,2.15-2.02,2.3-3.49"/>
      <path class="st9" d="M143.28,146.43l.16-1.67c.25-2.5,3.25-3.63,5.09-1.92l1.22,1.15c1.08,1.01,2.59,1.42,4.03,1.11l1.64-.36c2.45-.54,4.46,1.97,3.4,4.24l-.71,1.52c-.63,1.34-.55,2.9.19,4.17l.85,1.45c1.27,2.17-.49,4.85-2.99,4.54l-1.66-.21c-1.47-.18-2.93.37-3.91,1.47l-1.11,1.25c-1.67,1.88-4.76,1.03-5.24-1.44l-.32-1.65c-.28-1.45-1.26-2.67-2.61-3.26l-1.54-.67c-2.3-1.01-2.45-4.21-.25-5.43l1.47-.81c1.29-.71,2.15-2.02,2.3-3.49Z"/>
      <path d="M151.81,149.42c1.95,1.29,2.5,3.91,1.21,5.87-1.29,1.95-3.91,2.5-5.87,1.21-1.96-1.29-2.5-3.91-1.21-5.87,1.29-1.95,3.91-2.5,5.87-1.21"/>
      <path d="M152.6,131.89c1.3.22,1.95,2.83,1.44,5.82-.51,2.99-3.28,5.01-3.28,5.01,0,0-1.95-2.82-1.44-5.82.51-2.99,1.98-5.23,3.28-5.01"/>
      <path d="M144.64,135.34c.73-.48,2.21.48,3.32,2.14,1.1,1.66.69,3.89.69,3.89,0,0-2.21-.48-3.32-2.14-1.11-1.66-1.41-3.4-.69-3.89"/>
      <line x1="116.37" y1="255.57" x2="116.58" y2="267.13"/>
      <line x1="236.54" y1="269.78" x2="234.39" y2="279.24"/>
      <path class="st15" d="M197.34,253.46c-.3-.01-.6-.12-.84-.34-.22-.19-5.28-4.82-3.12-12.02.21-.71.96-1.11,1.66-.9.71.21,1.11.96.9,1.66-1.66,5.54,2.18,9.12,2.34,9.27.54.5.59,1.34.09,1.89-.28.3-.66.45-1.04.44"/>
      <path class="st6" d="M197.34,253.46c-.3-.01-.6-.12-.84-.34-.22-.19-5.28-4.82-3.12-12.02.21-.71.96-1.11,1.66-.9.71.21,1.11.96.9,1.66-1.66,5.54,2.18,9.12,2.34,9.27.54.5.59,1.34.09,1.89-.28.3-.66.45-1.04.44Z"/>
      <path class="st15" d="M204.06,258.51s-.06,0-.09,0c-.25-.03-2.52-.31-3.88-2.21-.43-.6-.29-1.43.31-1.86.6-.43,1.43-.29,1.86.31.67.94,1.97,1.1,1.98,1.11.73.08,1.26.73,1.19,1.46-.07.7-.68,1.22-1.38,1.2"/>
      <path class="st6" d="M204.06,258.51s-.06,0-.09,0c-.25-.03-2.52-.31-3.88-2.21-.43-.6-.29-1.43.31-1.86.6-.43,1.43-.29,1.86.31.67.94,1.97,1.1,1.98,1.11.73.08,1.26.73,1.19,1.46-.07.7-.68,1.22-1.38,1.2Z"/>
      <path d="M385.81,185.4s-.24-.86-.89-.85c-1.99.03-3.98,0-5.97.02-.51,0-.7-.15-.69-.67.02-2.07,0-4.15.01-6.22,0-.19.05-.38.08-.61,10.62,4.23,21,3.87,31.43-1.01-1.31-1.28-2.49-2.42-3.66-3.58-4.04-4.03-8.07-8.06-12.1-12.09-2.6-2.6-5.19-5.2-7.79-7.8-.25-.25-.5-.43-.12-.81,1.75-1.73,3.48-3.48,5.22-5.23,1.68.87,3.31,1.2,5.14.79,3.53-.79,6.01-4.65,5.13-8.13-1.05-4.17-5.49-6.55-9.52-4.71-3.74,1.71-4.88,5.92-3.29,9.26.18.39.19.6-.12.91-1.58,1.55-3.14,3.12-4.69,4.7-.39.4-.64.35-1.01-.02-4.92-4.95-9.85-9.88-14.79-14.81-2.72-2.72-5.44-5.43-8.16-8.15-.29-.3-.53-.51-.78.05-1.58,3.54-2.82,7.2-3.28,11.05-.29,2.46-.51,4.92-.28,7.43.27,2.95.73,5.83,1.57,8.66.79,2.67,1.85,5.24,3.31,7.6,1.22,1.96,2.64,3.79,3.96,5.7.13.18.22.52.13.69-.86,1.8-1.77,3.59-2.66,5.38-1.82,3.67-3.66,7.35-5.47,11.02-.2.4-.42.6-.9.59-1.95-.03-3.89,0-5.84-.02-.6,0-.84.79-.84.79l36.85.05ZM391.29,140.67c.06-1.96,1.51-3.61,3.82-3.55,1.86.05,3.42,1.72,3.38,3.64-.04,1.99-1.68,3.61-3.64,3.49-2.12.05-3.61-1.78-3.56-3.59M360.69,131.77c14.38,14.39,28.73,28.76,43.14,43.19-1.47.7-3.12.98-4.75,1.26-8.85,1.54-17.16-.02-24.67-4.94-14.91-9.78-18.25-27.17-13.73-39.51M367.2,169.76c1.06.88,2,1.74,3.02,2.48,1.4,1.01,2.88,1.92,4.29,2.91.23.16.45.51.45.77.03,2.68.01,5.36.02,8.03,0,.4-.08.61-.55.61-4.75-.01-9.5-.01-14.25-.01-.06,0-.12-.02-.3-.06,2.44-4.91,4.85-9.79,7.31-14.74"/>
      <path class="st5" d="M385.81,185.4s-.24-.86-.89-.85c-1.99.03-3.98,0-5.97.02-.51,0-.7-.15-.69-.67.02-2.07,0-4.15.01-6.22,0-.19.05-.38.08-.61,10.62,4.23,21,3.87,31.43-1.01-1.31-1.28-2.49-2.42-3.66-3.58-4.04-4.03-8.07-8.06-12.1-12.09-2.6-2.6-5.19-5.2-7.79-7.8-.25-.25-.5-.43-.12-.81,1.75-1.73,3.48-3.48,5.22-5.23,1.68.87,3.31,1.2,5.14.79,3.53-.79,6.01-4.65,5.13-8.13-1.05-4.17-5.49-6.55-9.52-4.71-3.74,1.71-4.88,5.92-3.29,9.26.18.39.19.6-.12.91-1.58,1.55-3.14,3.12-4.69,4.7-.39.4-.64.35-1.01-.02-4.92-4.95-9.85-9.88-14.79-14.81-2.72-2.72-5.44-5.43-8.16-8.15-.29-.3-.53-.51-.78.05-1.58,3.54-2.82,7.2-3.28,11.05-.29,2.46-.51,4.92-.28,7.43.27,2.95.73,5.83,1.57,8.66.79,2.67,1.85,5.24,3.31,7.6,1.22,1.96,2.64,3.79,3.96,5.7.13.18.22.52.13.69-.86,1.8-1.77,3.59-2.66,5.38-1.82,3.67-3.66,7.35-5.47,11.02-.2.4-.42.6-.9.59-1.95-.03-3.89,0-5.84-.02-.6,0-.84.79-.84.79l36.85.05ZM391.29,140.67c.06-1.96,1.51-3.61,3.82-3.55,1.86.05,3.42,1.72,3.38,3.64-.04,1.99-1.68,3.61-3.64,3.49-2.12.05-3.61-1.78-3.56-3.59ZM360.69,131.77c14.38,14.39,28.73,28.76,43.14,43.19-1.47.7-3.12.98-4.75,1.26-8.85,1.54-17.16-.02-24.67-4.94-14.91-9.78-18.25-27.17-13.73-39.51ZM367.2,169.76c1.06.88,2,1.74,3.02,2.48,1.4,1.01,2.88,1.92,4.29,2.91.23.16.45.51.45.77.03,2.68.01,5.36.02,8.03,0,.4-.08.61-.55.61-4.75-.01-9.5-.01-14.25-.01-.06,0-.12-.02-.3-.06,2.44-4.91,4.85-9.79,7.31-14.74Z"/>
      <path d="M426.82,141.49c.03-3.6-.55-6.88-1.68-10.05-1.24-3.47-3.08-6.6-5.52-9.36-.43-.48-.87-.95-1.32-1.41-.79-.79-1.98-.82-2.75-.06-.7.68-.81,1.97.03,2.79,1.29,1.27,2.41,2.68,3.39,4.2,1.72,2.68,2.88,5.58,3.51,8.71.45,2.25.59,4.52.43,6.8-.22,3.13-1,6.12-2.34,8.97-1.26,2.67-2.94,5.03-5.01,7.12-.77.78-.77,2.02-.02,2.76.77.76,1.96.74,2.75-.05,3.51-3.48,5.95-7.61,7.36-12.33.81-2.7,1.2-5.48,1.16-8.09"/>
      <path d="M411.03,126.5c-.81,0-1.54.47-1.8,1.14-.31.8-.2,1.54.41,2.16,1.34,1.35,2.42,2.87,3.23,4.59.9,1.94,1.41,3.98,1.5,6.13.13,2.96-.47,5.75-1.85,8.38-.75,1.43-1.71,2.71-2.84,3.86-.65.66-.78,1.58-.36,2.36.39.72,1.25,1.12,2.12.92.31-.07.64-.24.87-.47,3.06-3.02,4.98-6.64,5.67-10.89.87-5.35-.18-10.29-3.25-14.77-.69-1-1.53-1.9-2.34-2.82-.35-.4-.84-.6-1.34-.58"/>
      <path d="M405.32,149.23c.35.02.82-.25,1.22-.66,1.59-1.65,2.64-3.59,2.98-5.86.5-3.28-.24-6.25-2.35-8.84-.23-.28-.47-.57-.73-.82-.73-.71-1.91-.74-2.62-.08-.82.76-.93,1.9-.19,2.71,1.03,1.12,1.8,2.36,2.05,3.86.4,2.45-.23,4.6-1.97,6.4-.62.64-.71,1.39-.38,2.16.32.74.94,1.1,1.99,1.12"/>
      <path class="st15" d="M391.29,140.67c.06-1.96,1.51-3.61,3.82-3.55,1.86.05,3.42,1.73,3.38,3.65-.04,1.99-1.68,3.61-3.64,3.49-2.12.05-3.61-1.78-3.56-3.59"/>
      <path class="st5" d="M391.29,140.67c.06-1.96,1.51-3.61,3.82-3.55,1.86.05,3.42,1.73,3.38,3.65-.04,1.99-1.68,3.61-3.64,3.49-2.12.05-3.61-1.78-3.56-3.59Z"/>
      <path class="st15" d="M360.69,131.77c14.38,14.4,28.73,28.76,43.14,43.19-1.47.69-3.12.98-4.75,1.26-8.85,1.54-17.16-.02-24.67-4.94-14.91-9.78-18.26-27.17-13.73-39.51"/>
      <path class="st5" d="M360.69,131.77c14.38,14.4,28.73,28.76,43.14,43.19-1.47.69-3.12.98-4.75,1.26-8.85,1.54-17.16-.02-24.67-4.94-14.91-9.78-18.26-27.17-13.73-39.51Z"/>
      <path class="st15" d="M367.2,169.76c1.06.88,2,1.74,3.02,2.48,1.4,1.01,2.88,1.92,4.29,2.91.23.16.45.51.45.77.03,2.68.01,5.36.02,8.03,0,.4-.08.61-.55.61-4.75-.01-9.5-.01-14.25-.01-.06,0-.12-.02-.3-.06,2.44-4.91,4.85-9.79,7.31-14.74"/>
      <path class="st5" d="M367.2,169.76c1.06.88,2,1.74,3.02,2.48,1.4,1.01,2.88,1.92,4.29,2.91.23.16.45.51.45.77.03,2.68.01,5.36.02,8.03,0,.4-.08.61-.55.61-4.75-.01-9.5-.01-14.25-.01-.06,0-.12-.02-.3-.06,2.44-4.91,4.85-9.79,7.31-14.74Z"/>
      <path class="st15" d="M275.91,293.89c5.88,0,11.44-1.39,16.38-3.84,3.54,16.77,19.43,10.21,19.43,10.21,0,0,1.46,7.93,7.03,9.93,7.1,2.55,12.41-2.62,12.41-2.62,0,0,3.96,7.7,11.79,8.62,3.52.41,12.14-1.1,15.1-7.86,14.48,11.38,20.48-2.69,20.48-2.69,0,0,5.58,3.72,11.79,1.24,5.78-2.31,7.24-11.38,7.24-11.38,0,0,13.03,6.21,16.36-8.71,1.98.33,4.02.43,6.1.51,19.86.73,16.97-21.2,16.97-21.2,0,0,15.41-1.58,19.03-15.51,5.58-21.51-8.27-35.99-27.88-36.08-2.73-17.66-17.99-31.18-36.41-31.18-6.53,0-12.66,1.71-17.98,4.68-10.16-12.1-25.4-19.81-42.44-19.81-29.44,0-53.51,22.97-55.28,51.97-.04,0-.08,0-.12,0-20.35,0-36.85,16.5-36.85,36.85s16.5,36.85,36.85,36.85"/>
      <path class="st13" d="M275.91,293.89c5.88,0,11.44-1.39,16.38-3.84,3.54,16.77,19.43,10.21,19.43,10.21,0,0,1.46,7.93,7.03,9.93,7.1,2.55,12.41-2.62,12.41-2.62,0,0,3.96,7.7,11.79,8.62,3.52.41,12.14-1.1,15.1-7.86,14.48,11.38,20.48-2.69,20.48-2.69,0,0,5.58,3.72,11.79,1.24,5.78-2.31,7.24-11.38,7.24-11.38,0,0,13.03,6.21,16.36-8.71,1.98.33,4.02.43,6.1.51,19.86.73,16.97-21.2,16.97-21.2,0,0,15.41-1.58,19.03-15.51,5.58-21.51-8.27-35.99-27.88-36.08-2.73-17.66-17.99-31.18-36.41-31.18-6.53,0-12.66,1.71-17.98,4.68-10.16-12.1-25.4-19.81-42.44-19.81-29.44,0-53.51,22.97-55.28,51.97-.04,0-.08,0-.12,0-20.35,0-36.85,16.5-36.85,36.85s16.5,36.85,36.85,36.85Z"/>
      <path class="st19" d="M345.65,211.92c0,4.61-3.4,8.34-7.59,8.34s-7.59-3.73-7.59-8.34,3.4-8.34,7.59-8.34,7.59,3.73,7.59,8.34"/>
      <path class="st19" d="M374.54,211.63c0,4.61-3.4,8.34-7.59,8.34s-7.59-3.73-7.59-8.34,3.4-8.34,7.59-8.34,7.59,3.73,7.59,8.34"/>
      <path class="st15" d="M337.21,208.4c0,.6-.57,1.09-1.27,1.09s-1.27-.49-1.27-1.09.57-1.09,1.27-1.09,1.27.49,1.27,1.09"/>
      <path class="st15" d="M340.16,209.59c0,.6-.57,1.09-1.27,1.09s-1.27-.49-1.27-1.09.57-1.09,1.27-1.09,1.27.49,1.27,1.09"/>
      <path class="st15" d="M365.37,207.81c0,.6-.57,1.09-1.27,1.09s-1.27-.49-1.27-1.09.57-1.09,1.27-1.09,1.27.49,1.27,1.09"/>
      <path class="st15" d="M368.14,209.27c0,.6-.57,1.09-1.27,1.09s-1.27-.49-1.27-1.09.57-1.09,1.27-1.09,1.27.49,1.27,1.09"/>
      <path class="st19" d="M343.88,235.25c.07,3.64,2.32,6.82,5.7,8.13,3.18,1.23,7.05.15,9.2-2.48,1.32-1.62,2.07-3.54,2.11-5.65.01-1.02-.91-1.99-1.95-1.95-1.07.05-1.93.86-1.95,1.95,0,.16,0,.33-.02.49,0,.05-.03.16-.02.21-.06-.23.06-.33.01-.11-.06.31-.13.62-.22.92-.05.15-.1.29-.16.44-.09.25.16-.33.04-.1-.03.06-.06.12-.08.18-.15.29-.32.58-.5.85-.25.36.18-.18-.05.07-.1.11-.2.23-.3.34-.09.09-.18.18-.28.27-.06.06-.13.12-.19.17-.06.06-.21.25-.05.05.15-.2.02-.02-.06.04-.05.04-.11.08-.16.11-.12.08-.25.16-.38.24-.13.07-.26.14-.4.21-.06.03-.12.05-.18.08-.21.11.39-.13.05-.02-.27.08-.53.17-.81.23-.08.02-.17.03-.26.05-.22.06.2-.04.19-.02-.01.04-.46.04-.53.04-.06,0-.92-.03-.92-.04,0-.02.41.08.2.02-.08-.02-.17-.03-.25-.05-.15-.03-.29-.07-.44-.11-.14-.04-.29-.09-.43-.14-.46-.15.24.13-.07-.02-.29-.14-.57-.29-.84-.47-.09-.06-.33-.16-.37-.26,0-.02.3.26.14.1-.06-.06-.13-.11-.2-.17-.23-.2-.43-.42-.63-.65-.31-.34.17.25-.09-.12-.1-.14-.19-.29-.28-.44-.09-.15-.17-.3-.25-.46-.04-.08-.07-.16-.11-.24-.11-.23.12.35.05.1-.11-.35-.23-.68-.3-1.03-.01-.07-.03-.13-.04-.2-.09-.44.02.3,0,.04-.01-.21-.03-.42-.04-.63-.02-1.02-.88-2-1.95-1.95-1.04.05-1.97.86-1.95,1.95"/>
      <path d="M304.69,300.39c-7.26,2.06-14.67,3.44-22.34,3.66-5,.14-9.95-.27-14.67-2.07-2.72-1.03-4.62-2.92-4.66-5.95-.02-1.61.34-3.31.94-4.81,1.31-3.27,3.42-6.09,5.7-8.76,5.86-6.88,12.71-12.68,19.79-18.25.2-.15.38-.33.63-.53.29.55.48.87.63,1.19,1.27,2.66,2.55,5.31,3.81,7.98.37.78.82,1.42,1.77,1.45.95.03,1.44-.58,1.83-1.35,2.05-4.04,4.17-8.04,6.13-12.12.82-1.7,1.84-2.76,3.82-2.75.77,0,1.54-.18,2.3-.28,3.8-.51,7.59-1.01,11.39-1.52.82-.11,1.64-.4,1.71-1.28.05-.64-.31-1.34-.59-1.97-.14-.32-.5-.53-.76-.79-3.18-3.17-6.35-6.36-9.55-9.51-.89-.88-1.29-1.8-.98-3.07.34-1.39.53-2.82.79-4.23.64-3.47,1.33-6.93,1.91-10.42.28-1.73-1.04-2.63-2.65-1.92-.34.15-.66.33-.99.49-4.1,2.09-8.21,4.17-12.3,6.29-1.01.53-1.94.53-2.93-.01-4.23-2.31-8.48-4.58-12.7-6.9-.83-.46-1.61-.74-2.47-.17-.9.6-.8,1.47-.65,2.38.76,4.61,1.46,9.24,2.27,13.85.26,1.47-.13,2.52-1.21,3.52-3.49,3.23-6.9,6.53-10.34,9.81-.59.57-1.01,1.21-.72,2.06.28.83.92,1.18,1.76,1.29.9.12,1.79.29,2.93.48-.51.41-.85.67-1.17.95-4.14,3.59-8.41,7.05-12.39,10.82-4.42,4.19-8.25,8.92-11.37,14.18-.97,1.64-1.84,3.34-2.75,5.01-.54,1.61-1.09,3.21-1.63,4.82-.05.4-.07.8-.15,1.19-1.26,6.41.26,11.84,5.63,15.88,3.81,2.88,8.26,4.14,12.89,4.84,7.97,1.2,15.88.46,23.73-.97,9.26-1.68,18.94-4.81,27.62-8.31-3.35-.85-7.16-2.12-9.98-4.17M257.05,301.72c.77,1.08,1.92,1.89,2.94,2.77,1.08.94,1.18,2.33.04,2.8-.57.24-1.49.15-2.03-.16-3.74-2.17-5.54-5.58-5.83-9.82-.3-4.4,1.32-8.29,3.32-12.08,4.2-7.99,10.18-14.49,17.11-20.14,2.99-2.44,6.21-4.59,9.32-6.89.67-.5,1.35-.65,2.17-.44,1,.25,2.03.4,3.04.59,0,.16.01.32.02.48-1.38.89-2.78,1.75-4.14,2.67-8.22,5.57-15.71,11.92-21.48,20.12-2.17,3.09-3.96,6.4-5.21,9.94-1.2,3.43-1.55,6.96.73,10.15"/>
      <path class="st15" d="M287.16,258.84c0-.16-.02-.32-.02-.48-1.02-.19-2.04-.34-3.04-.59-.82-.2-1.5-.06-2.17.44-3.11,2.3-6.33,4.45-9.32,6.89-6.93,5.65-12.91,12.15-17.11,20.14-1.99,3.79-3.61,7.68-3.32,12.08.29,4.23,2.08,7.64,5.83,9.82.54.32,1.46.39,2.04.16,1.14-.47,1.04-1.86-.04-2.8-1.02-.89-2.17-1.7-2.94-2.77-2.28-3.19-1.93-6.72-.73-10.15,1.25-3.55,3.04-6.85,5.21-9.94,5.77-8.2,13.26-14.55,21.48-20.12,1.36-.92,2.76-1.78,4.14-2.67"/>
      <path d="M424.59,202.14c10.95-2.19,23.17-.14,31.53,7.68,9.67,9.36,1.65,22.84-5.72,30.67-14.02,14.9-31.56,25.21-49.43,34.53,0,0-.35-.63-.35-.63,12.68-7.88,24.93-16.46,35.85-26.58,6.89-6.67,18.83-18.45,17.47-28.5-1.45-5.99-8.91-8.36-14.38-9.52-4.4-.79-8.96-.72-13.25.22l-1.72-7.87Z"/>
      <path class="st18" d="M420.96,283.66l-.03.03v-.05s0,.02.03.03"/>
      <path class="st20" d="M420.96,283.66l-.03.03v-.05s0,.02.03.03"/>
      <path class="st20" d="M420.89,344.23s.03.04.05.1c0,0,0,0,0,.02.11.32-.05-.05-.06-.11"/>
      <path class="st20" d="M420.99,347.62s-.03-.04-.04-.05c-.03-.04-.04-.06-.05-.08,0,0,.02.02.03.03,0,.02.03.03.04.05,0,.02.03.03.04.05"/>
      <path class="st20" d="M420.95,349.17s-.02-.02-.02-.02h0s0,.02,0,.02"/>
      <path class="st14" d="M451.59,215.73s-4.21,3.93-7.32-.73"/>
      <path class="st14" d="M453.87,212.71s-4.21,3.93-7.32-.73"/>
      <path class="st15" d="M592.45,271.29c-.78,34.05-40.51,60.9-90.48,60.9s-82.91-33.22-90.48-60.9c-17.79-65.08,51.55-108.75,79.68-123.49,4.22-2.21,9.16,1.38,8.35,6.07-2.47,14.39-2.28,38.86,22.09,53.79,20.52,12.58,72.1,7.78,70.82,63.62"/>
      <path class="st13" d="M592.45,271.29c-.78,34.05-40.51,60.9-90.48,60.9s-82.91-33.22-90.48-60.9c-17.79-65.08,51.55-108.75,79.68-123.49,4.22-2.21,9.16,1.38,8.35,6.07-2.47,14.39-2.28,38.86,22.09,53.79,20.52,12.58,72.1,7.78,70.82,63.62Z"/>
      <path class="st19" d="M462.34,239.54c.08,4.2,2.67,7.86,6.58,9.37,3.67,1.42,8.13.18,10.61-2.86,1.53-1.87,2.39-4.08,2.43-6.51.02-1.18-1.05-2.3-2.25-2.25-1.23.05-2.23.99-2.25,2.25,0,.19,0,.38-.02.56,0,.06-.04.18-.02.24-.07-.26.06-.38.01-.13-.07.36-.15.71-.26,1.06-.06.17-.12.34-.18.51-.1.29.19-.39.04-.12-.04.07-.07.14-.1.21-.17.34-.36.66-.58.97-.29.42.2-.21-.06.08-.12.13-.23.26-.35.39-.1.11-.21.21-.32.32-.07.07-.15.13-.22.2-.07.06-.24.29-.06.06.18-.23.03-.02-.07.05-.06.04-.12.09-.18.13-.14.1-.29.19-.44.27-.15.09-.3.17-.46.24-.07.03-.14.06-.2.09-.24.13.45-.15.05-.03-.31.1-.61.2-.93.27-.1.02-.2.03-.29.06-.25.06.23-.05.22-.02-.01.04-.53.05-.61.05-.07,0-1.06-.03-1.06-.04,0-.02.47.09.23.03-.1-.02-.2-.04-.29-.05-.17-.04-.34-.08-.5-.12-.17-.05-.33-.1-.49-.16-.53-.18.27.15-.08-.03-.33-.17-.66-.34-.97-.54-.11-.07-.38-.19-.42-.3,0-.02.35.3.16.12-.07-.07-.15-.13-.22-.19-.26-.23-.5-.49-.73-.74-.35-.4.19.29-.11-.14-.12-.16-.22-.33-.33-.51s-.2-.35-.29-.53c-.04-.09-.09-.18-.13-.27-.13-.27.14.4.05.11-.12-.4-.26-.78-.34-1.19-.02-.08-.03-.15-.05-.23-.1-.51.02.35,0,.05-.01-.24-.04-.48-.04-.73-.02-1.17-1.02-2.3-2.25-2.25-1.2.05-2.27.99-2.25,2.25"/>
      <path class="st14" d="M492.3,215.73s4.21,3.93,7.32-.73"/>
      <path class="st14" d="M490.01,212.71s4.21,3.93,7.32-.73"/>
      <path class="st19" d="M465.04,218.67c0,4.53-3.34,8.2-7.47,8.2s-7.47-3.67-7.47-8.2,3.35-8.2,7.47-8.2,7.47,3.67,7.47,8.2"/>
      <path class="st15" d="M455.05,215.32c0,.59-.56,1.07-1.25,1.07s-1.25-.48-1.25-1.07.56-1.07,1.25-1.07,1.25.48,1.25,1.07"/>
      <path class="st15" d="M457.95,216.49c0,.59-.56,1.07-1.25,1.07s-1.25-.48-1.25-1.07.56-1.07,1.25-1.07,1.25.48,1.25,1.07"/>
      <path class="st19" d="M493.45,218.38c0,4.53-3.34,8.2-7.47,8.2s-7.47-3.67-7.47-8.2,3.35-8.2,7.47-8.2,7.47,3.67,7.47,8.2"/>
      <path class="st15" d="M483.75,214.18c0,.59-.56,1.07-1.25,1.07s-1.25-.48-1.25-1.07.56-1.07,1.25-1.07,1.25.48,1.25,1.07"/>
      <path class="st15" d="M486.48,215.62c0,.59-.56,1.07-1.25,1.07s-1.25-.48-1.25-1.07.56-1.07,1.25-1.07,1.25.48,1.25,1.07"/>
      <path class="st15" d="M439.94,293.27c-1.16.05-2.35-.3-3.35-1.06-.89-.68-21.85-17.09-15.64-45.6.61-2.8,3.37-4.57,6.17-3.96,2.8.61,4.57,3.37,3.96,6.17-4.78,21.94,11.15,34.65,11.83,35.18,2.25,1.75,2.67,5.01.93,7.26-.98,1.26-2.42,1.96-3.9,2.02"/>
      <path class="st10" d="M439.94,293.27c-1.16.05-2.35-.3-3.35-1.06-.89-.68-21.85-17.09-15.64-45.6.61-2.8,3.37-4.57,6.17-3.96,2.8.61,4.57,3.37,3.96,6.17-4.78,21.94,11.15,34.65,11.83,35.18,2.25,1.75,2.67,5.01.93,7.26-.98,1.26-2.42,1.96-3.9,2.02Z"/>
      <path class="st15" d="M467.45,310.84c-.12,0-.23,0-.35,0-.99-.03-9.85-.45-15.65-7.41-1.83-2.2-1.54-5.47.66-7.3,2.2-1.83,5.47-1.54,7.3.66,2.86,3.43,7.95,3.69,8,3.69,2.86.07,5.1,2.45,5.03,5.32-.07,2.74-2.28,4.93-4.99,5.05"/>
      <path class="st10" d="M467.45,310.84c-.12,0-.23,0-.35,0-.99-.03-9.85-.45-15.65-7.41-1.83-2.2-1.54-5.47.66-7.3,2.2-1.83,5.47-1.54,7.3.66,2.86,3.43,7.95,3.69,8,3.69,2.86.07,5.1,2.45,5.03,5.32-.07,2.74-2.28,4.93-4.99,5.05Z"/>
      <path d="M525.34,229.71c-2.01.59-3.92,1.15-5.82,1.71-.44.13-.87.28-1.3.43-1.35.5-2.31,1.4-2.75,2.79-.73,2.28-1.43,4.57-2.19,6.99-.25-.83-.47-1.56-.7-2.29-.47-1.53-.92-3.07-1.41-4.59-.48-1.51-1.51-2.5-3.02-2.96-2.07-.64-4.16-1.25-6.23-1.88-.19-.06-.38-.13-.73-.24,1.74-.5,3.34-.96,4.93-1.42.61-.18,1.22-.38,1.83-.56,1.71-.53,2.82-1.65,3.33-3.37.62-2.06,1.23-4.12,1.84-6.18.02-.08.06-.17.16-.42.43,1.44.81,2.73,1.2,4.01.27.88.55,1.74.81,2.62.52,1.76,1.67,2.85,3.42,3.36,2.02.59,4.03,1.19,6.05,1.79.15.04.29.11.55.21"/>
      <path d="M421.77,175.36c.48,1.59.93,2.98,1.31,4.39.39,1.45,1.32,2.31,2.74,2.7,1.28.35,2.54.73,3.82,1.1.15.04.29.11.49.19-1.64.5-3.21.98-4.77,1.46-1.07.33-1.77,1.04-2.11,2.09-.43,1.33-.82,2.66-1.23,3.99-.07.21-.13.42-.25.79-.41-1.37-.85-2.57-1.13-3.82-.43-1.88-1.54-2.97-3.42-3.4-1.26-.29-2.49-.71-3.93-1.13,1.27-.37,2.34-.77,3.45-.98,2.23-.43,3.57-1.67,4.02-3.92.22-1.11.63-2.19,1-3.47"/>
      <path d="M436.46,268.88c1.5-.45,2.76-.85,4.02-1.21,1.13-.32,1.8-1.06,2.14-2.16.37-1.22.74-2.44,1.18-3.88.41,1.36.81,2.5,1.1,3.66.34,1.35,1.18,2.12,2.48,2.49,1.17.33,2.35.67,3.79,1.09-1.39.4-2.52.76-3.66,1.05-1.41.37-2.3,1.2-2.65,2.65-.27,1.11-.64,2.19-1.05,3.55-.39-1.28-.74-2.3-1-3.35-.38-1.55-1.26-2.53-2.86-2.89-1.1-.25-2.18-.62-3.49-1.01"/>
      <path class="st4" d="M498.7,160.02c.4.25.81.5,1.21.76,13.16,8.36,21.51,18.8,18.64,23.32-2.87,4.52-15.87,1.4-29.03-6.96-13.17-8.36-21.51-18.8-18.64-23.32,1.61-2.54,6.42-2.67,12.66-.81"/>
      <path class="st16" d="M517.96,184.24l1.05.53c1.58.79,1.57,3.04-.02,3.82l-1.06.52c-.93.46-1.58,1.34-1.73,2.37l-.17,1.16c-.26,1.74-2.41,2.43-3.63,1.17l-.82-.85c-.72-.74-1.76-1.09-2.79-.92l-1.16.2c-1.74.29-3.06-1.54-2.23-3.1l.55-1.04c.49-.92.49-2.01.01-2.93l-.54-1.05c-.81-1.56.52-3.38,2.26-3.08l1.16.2c1.02.18,2.07-.15,2.79-.89l.82-.84c1.24-1.26,3.38-.55,3.62,1.19l.16,1.17c.15,1.03.79,1.92,1.71,2.38"/>
      <path class="st15" d="M513.87,189.09c-1.33.96-3.19.66-4.15-.67-.96-1.33-.66-3.19.67-4.15,1.33-.96,3.19-.66,4.15.67.96,1.33.66,3.19-.67,4.15"/>
      <path class="st16" d="M487.01,165.05l1.16-.19c1.74-.28,3.04,1.56,2.21,3.11l-.56,1.04c-.49.91-.51,2.01-.04,2.93l.54,1.05c.8,1.57-.54,3.38-2.28,3.06l-1.16-.21c-1.02-.19-2.07.14-2.8.87l-.83.83c-1.25,1.25-3.38.53-3.61-1.22l-.16-1.17c-.14-1.03-.77-1.92-1.7-2.39l-1.05-.53c-1.57-.8-1.55-3.05.04-3.82l1.06-.51c.94-.45,1.59-1.33,1.75-2.35l.18-1.16c.27-1.74,2.43-2.41,3.64-1.14l.81.85c.71.75,1.75,1.1,2.78.94"/>
      <path class="st15" d="M486.49,171.37c-.53,1.56-2.21,2.39-3.77,1.87-1.56-.53-2.39-2.21-1.87-3.77.53-1.56,2.21-2.39,3.77-1.87,1.56.52,2.39,2.21,1.87,3.77"/>
      <path class="st15" d="M504.4,168.95l1.75-.12c2.62-.18,4.31,2.71,2.86,4.9l-.96,1.46c-.85,1.29-1.01,2.91-.43,4.34l.66,1.62c.98,2.43-1.25,4.93-3.78,4.24l-1.69-.47c-1.49-.41-3.08-.06-4.26.93l-1.34,1.13c-2.01,1.69-5.08.34-5.19-2.28l-.08-1.75c-.07-1.54-.89-2.95-2.2-3.76l-1.49-.93c-2.22-1.39-1.89-4.72.57-5.64l1.64-.62c1.44-.54,2.53-1.76,2.9-3.25l.42-1.7c.63-2.54,3.91-3.26,5.54-1.21l1.09,1.37c.96,1.21,2.45,1.86,3.99,1.75"/>
      <path class="st11" d="M504.4,168.95l1.75-.12c2.62-.18,4.31,2.71,2.86,4.9l-.96,1.46c-.85,1.29-1.01,2.91-.43,4.34l.66,1.62c.98,2.43-1.25,4.93-3.78,4.24l-1.69-.47c-1.49-.41-3.08-.06-4.26.93l-1.34,1.13c-2.01,1.69-5.08.34-5.19-2.28l-.08-1.75c-.07-1.54-.89-2.95-2.2-3.76l-1.49-.93c-2.22-1.39-1.89-4.72.57-5.64l1.64-.62c1.44-.54,2.53-1.76,2.9-3.25l.42-1.7c.63-2.54,3.91-3.26,5.54-1.21l1.09,1.37c.96,1.21,2.45,1.86,3.99,1.75Z"/>
      <path d="M502.82,178.25c-.98,2.24-3.59,3.25-5.83,2.27-2.24-.98-3.25-3.59-2.27-5.83.98-2.24,3.59-3.25,5.83-2.27,2.24.98,3.25,3.59,2.27,5.83"/>
      <path d="M520.99,175.99c0,1.38-2.57,2.5-5.73,2.5s-5.73-2.5-5.73-2.5c0,0,2.57-2.5,5.73-2.5s5.73,1.12,5.73,2.5"/>
      <path d="M516.05,168.4c.62.66-.1,2.36-1.62,3.79-1.52,1.43-3.88,1.39-3.88,1.39,0,0,.1-2.36,1.62-3.79,1.52-1.43,3.26-2.05,3.88-1.39"/>
      <path d="M460.3,234.63c0,1.18-.96,2.14-2.14,2.14s-2.14-.96-2.14-2.14.96-2.14,2.14-2.14,2.14.96,2.14,2.14"/>
      <path class="st15" d="M716.3,269.59c-1.21,3.34-3.84,5.78-6.9,7.12-1.13.5-1.22,2.26-.39,3.03,2.17,2.01,3.33,5.12,1.69,7.75-1.46,2.36-4.55,3.45-7.24,3.06-1.97-.3-3.11,1.66-1.88,3.23,2.42,3.12,3.17,7.63.05,10.43-3.03,2.72-7.79,2.71-11.33,1.08-1.5-.7-3.27.45-2.84,2.18.05.18.09.36.12.55.02.14.05.29.08.43,0,.06.02.11.02.14h0s0,.05,0,.12c.1.98.13,1.97.05,2.95-.19,2.2-1.18,4.44-2.99,5.89-4.14,3.31-10.12,2.14-14.13-.7-.96-.68-2.64-.02-2.84,1.15-.75,4.24-3.61,7.88-7.9,8.92-4.06.98-8.49-.79-10.99-4.1-.88-1.17-2.48-1.31-3.34,0-.11.15-.22.3-.32.46-.03.05-.06.09-.09.12h0s-.02.03-.02.03c-.02.03-.05.07-.09.12-.02.02-.04.05-.05.05-.53.62-1.08,1.2-1.7,1.73-1.42,1.25-3.4,2.21-5.39,2.47-4.63.6-8.96-2.13-11.3-5.99-.7-1.15-2.01-1.15-2.97-.45-.12.08-.33.23-.39.28-.27.19-.55.36-.84.52-.61.36-1.25.65-1.92.87-1.66.53-3.4.62-5.09.18-3.41-.89-5.93-3.51-7.41-6.63-.44-.93-1.59-1.08-2.45-.76h0c-.05.03-.19.08-.25.1.02,0,.04-.02.06-.03.05-.02.09-.04.14-.06-.19.06-.39.15-.58.22-.65.22-1.32.39-1.99.48-1.59.22-3.51-.02-5.02-.88-3.23-1.82-4.58-5.7-3.75-9.21.22-.92-.29-2.23-1.35-2.38-2.64-.39-4.94-1.56-6.77-3.7-1.42-1.66-2.24-3.85-2.35-6.03-.07-1.47,0-2.23.38-3.57.26-.91-.32-2.24-1.35-2.38-2.97-.42-5.64-2.17-6.77-5.04-1.22-3.12-.36-6.57,2.02-8.88,1.12-1.09.46-2.74-.85-3.24-3-1.13-5.36-3.97-5.62-7.21-.28-3.43,1.52-6.6,4.45-8.34,1.31-.77,1.19-2.55,0-3.34-2.52-1.69-3.86-4.87-3.15-7.84.7-2.93,3-5,5.91-5.64,1.75-.38,1.73-2.65.46-3.54-.02-.02-.08-.05-.13-.08,0,0-.02,0-.02,0-.02-.03-.05-.05-.07-.06h0s-.02-.02-.02-.02c-.02,0-.04-.02-.05-.03h0s0,0,0-.02c-.01-.02-.03-.03-.04-.04-.12-.11-.25-.21-.37-.32-.53-.49-1-.99-1.35-1.51-.89-1.34-1.16-2.82-.79-4.14.89-3.15,4.37-5.26,7.68-5.61,1.7-.18,2.51-1.97,1.37-3.31-.05-.05-.12-.15-.18-.21-.02-.03-.04-.06-.05-.07-.14-.19-.28-.38-.4-.57-.37-.58-.7-1.19-.93-1.83-.57-1.65-.59-3.28.03-4.88,1.21-3.13,4.37-4.96,7.55-5.56,1.56-.29,1.7-2.23.86-3.24-.01-.02-.03-.04-.04-.05,0,.02.02.03.03.05.02.02.03.05.03.05-.03-.03-.08-.09-.09-.12,0,0,0,0,.02,0-.12-.19-.26-.36-.38-.56-.37-.58-.72-1.2-.93-1.81-.55-1.56-.61-3.25.16-4.68,1.57-2.93,5.23-4.25,8.44-3.79,1.63.23,3.04-1.24,2.18-2.84-1.66-3.1-1.32-7.02,1.26-9.51,2.45-2.36,6.02-2.64,9.07-1.39,1.03.42,2.05-.47,2.38-1.36.03-.07.09-.16.1-.24-.02.05-.04.08-.06.13-.02.04-.03.07-.05.09,0-.04.13-.39.12-.23.03-.05.05-.11.08-.16.25-.52.52-1.03.81-1.52.88-1.48,1.7-2.5,3.07-3.73,3.31-2.95,8.04-3.94,12.34-2.75,2.71.75,5.05,2.29,6.93,4.36.62.69,1.38.74,2.03.44h0c.38-.12.74-.39,1-.83,2.23-3.68,6.56-6.06,10.91-5.22,4.12.8,7.3,3.89,8.44,7.9.46,1.63,2.66,1.86,3.54.46.07-.12.15-.23.22-.33.07-.09.14-.19.2-.28-.02.02-.02.02-.03.03.02-.04.07-.09.08-.09h0s.02-.02.02-.03c.53-.63,1.09-1.24,1.7-1.8,1.56-1.41,3.72-2.62,6.02-2.9,5.44-.68,10.36,3.18,12.01,8.21.38,1.15,1.73,1.83,2.85,1.15,3.03-1.85,7.59-2.52,10.88-.12,3.86,2.83,4.66,8.16,3.24,12.48-.33.99.38,2.11,1.35,2.38.39.11.76.23,1.13.37.02,0,.09.04.16.06,0,0,.02,0,.04.01h0s0,0,.02,0c0,0,.02,0,.02,0t.02,0h0c.09.05.19.09.21.1.33.15.67.32.98.51,1.5.85,2.78,2.03,3.67,3.52,2.21,3.68,1.56,8.19-.75,11.64-.85,1.28.29,2.86,1.67,2.91.19,0,.38.02.57.04.13,0,.26.02.4.04h.03s.12,0,.14.02h-.05c.94.17,1.86.38,2.76.71,1.95.71,3.85,2.21,4.85,4.23,2.22,4.48.11,9.95-3.41,13.24-.94.88-.63,2.39.39,3.03.12.09.26.17.38.26.08.06.26.19.35.26,0,0,.02,0,.02,0,0,0,.01,0,.01.02,0,0,.02,0,.02,0,.51.41,1,.86,1.46,1.33,1.32,1.39,2.37,3.08,2.9,5.04,1.28,4.74-.84,9.81-4.79,12.59-.8.57-1.34,1.74-.7,2.65,2.36,3.3,3.14,7.72,1.67,11.76"/>
      <path class="st1" d="M716.3,269.59c-1.21,3.34-3.84,5.78-6.9,7.12-1.13.5-1.22,2.26-.39,3.03,2.17,2.01,3.33,5.12,1.69,7.75-1.46,2.36-4.55,3.45-7.24,3.06-1.97-.3-3.11,1.66-1.88,3.23,2.42,3.12,3.17,7.63.05,10.43-3.03,2.72-7.79,2.71-11.33,1.08-1.5-.7-3.27.45-2.84,2.18.05.18.09.36.12.55.02.14.05.29.08.43,0,.06.02.11.02.14h0s0,.05,0,.12c.1.98.13,1.97.05,2.95-.19,2.2-1.18,4.44-2.99,5.89-4.14,3.31-10.12,2.14-14.13-.7-.96-.68-2.64-.02-2.84,1.15-.75,4.24-3.61,7.88-7.9,8.92-4.06.98-8.49-.79-10.99-4.1-.88-1.17-2.48-1.31-3.34,0-.11.15-.22.3-.32.46-.03.05-.06.09-.09.12h0s-.02.03-.02.03c-.02.03-.05.07-.09.12-.02.02-.04.05-.05.05-.53.62-1.08,1.2-1.7,1.73-1.42,1.25-3.4,2.21-5.39,2.47-4.63.6-8.96-2.13-11.3-5.99-.7-1.15-2.01-1.15-2.97-.45-.12.08-.33.23-.39.28-.27.19-.55.36-.84.52-.61.36-1.25.65-1.92.87-1.66.53-3.4.62-5.09.18-3.41-.89-5.93-3.51-7.41-6.63-.44-.93-1.59-1.08-2.45-.76h0c-.05.03-.19.08-.25.1.02,0,.04-.02.06-.03.05-.02.09-.04.14-.06-.19.06-.39.15-.58.22-.65.22-1.32.39-1.99.48-1.59.22-3.51-.02-5.02-.88-3.23-1.82-4.58-5.7-3.75-9.21.22-.92-.29-2.23-1.35-2.38-2.64-.39-4.94-1.56-6.77-3.7-1.42-1.66-2.24-3.85-2.35-6.03-.07-1.47,0-2.23.38-3.57.26-.91-.32-2.24-1.35-2.38-2.97-.42-5.64-2.17-6.77-5.04-1.22-3.12-.36-6.57,2.02-8.88,1.12-1.09.46-2.74-.85-3.24-3-1.13-5.36-3.97-5.62-7.21-.28-3.43,1.52-6.6,4.45-8.34,1.31-.77,1.19-2.55,0-3.34-2.52-1.69-3.86-4.87-3.15-7.84.7-2.93,3-5,5.91-5.64,1.75-.38,1.73-2.65.46-3.54-.02-.02-.08-.05-.13-.08,0,0-.02,0-.02,0-.02-.03-.05-.05-.07-.06h0s-.02-.02-.02-.02c-.02,0-.04-.02-.05-.03h0s0,0,0-.02c-.01-.02-.03-.03-.04-.04-.12-.11-.25-.21-.37-.32-.53-.49-1-.99-1.35-1.51-.89-1.34-1.16-2.82-.79-4.14.89-3.15,4.37-5.26,7.68-5.61,1.7-.18,2.51-1.97,1.37-3.31-.05-.05-.12-.15-.18-.21-.02-.03-.04-.06-.05-.07-.14-.19-.28-.38-.4-.57-.37-.58-.7-1.19-.93-1.83-.57-1.65-.59-3.28.03-4.88,1.21-3.13,4.37-4.96,7.55-5.56,1.56-.29,1.7-2.23.86-3.24-.01-.02-.03-.04-.04-.05,0,.02.02.03.03.05.02.02.03.05.03.05-.03-.03-.08-.09-.09-.12,0,0,0,0,.02,0-.12-.19-.26-.36-.38-.56-.37-.58-.72-1.2-.93-1.81-.55-1.56-.61-3.25.16-4.68,1.57-2.93,5.23-4.25,8.44-3.79,1.63.23,3.04-1.24,2.18-2.84-1.66-3.1-1.32-7.02,1.26-9.51,2.45-2.36,6.02-2.64,9.07-1.39,1.03.42,2.05-.47,2.38-1.36.03-.07.09-.16.1-.24-.02.05-.04.08-.06.13-.02.04-.03.07-.05.09,0-.04.13-.39.12-.23.03-.05.05-.11.08-.16.25-.52.52-1.03.81-1.52.88-1.48,1.7-2.5,3.07-3.73,3.31-2.95,8.04-3.94,12.34-2.75,2.71.75,5.05,2.29,6.93,4.36.62.69,1.38.74,2.03.44h0c.38-.12.74-.39,1-.83,2.23-3.68,6.56-6.06,10.91-5.22,4.12.8,7.3,3.89,8.44,7.9.46,1.63,2.66,1.86,3.54.46.07-.12.15-.23.22-.33.07-.09.14-.19.2-.28-.02.02-.02.02-.03.03.02-.04.07-.09.08-.09h0s.02-.02.02-.03c.53-.63,1.09-1.24,1.7-1.8,1.56-1.41,3.72-2.62,6.02-2.9,5.44-.68,10.36,3.18,12.01,8.21.38,1.15,1.73,1.83,2.85,1.15,3.03-1.85,7.59-2.52,10.88-.12,3.86,2.83,4.66,8.16,3.24,12.48-.33.99.38,2.11,1.35,2.38.39.11.76.23,1.13.37.02,0,.09.04.16.06,0,0,.02,0,.04.01h0s0,0,.02,0c0,0,.02,0,.02,0t.02,0h0c.09.05.19.09.21.1.33.15.67.32.98.51,1.5.85,2.78,2.03,3.67,3.52,2.21,3.68,1.56,8.19-.75,11.64-.85,1.28.29,2.86,1.67,2.91.19,0,.38.02.57.04.13,0,.26.02.4.04h.03s.12,0,.14.02h-.05c.94.17,1.86.38,2.76.71,1.95.71,3.85,2.21,4.85,4.23,2.22,4.48.11,9.95-3.41,13.24-.94.88-.63,2.39.39,3.03.12.09.26.17.38.26.08.06.26.19.35.26,0,0,.02,0,.02,0,0,0,.01,0,.01.02,0,0,.02,0,.02,0,.51.41,1,.86,1.46,1.33,1.32,1.39,2.37,3.08,2.9,5.04,1.28,4.74-.84,9.81-4.79,12.59-.8.57-1.34,1.74-.7,2.65,2.36,3.3,3.14,7.72,1.67,11.76Z"/>
      <path class="st19" d="M718.84,257.28c4.24-3.78,6.42-9.46,5.15-15.17-.72-3.22-2.62-6.18-5.13-8.36,2.83-3.38,4.37-7.79,3.76-12.21-.67-4.93-4.08-8.64-8.73-10.21-.49-.17-1.01-.32-1.53-.43,1.74-4.07,1.76-8.82-.46-12.77-1.52-2.72-4.04-4.81-6.91-6.01,1.14-5.51-.63-11.52-5.29-14.95-3.73-2.74-8.82-2.81-13.03-1.04-2-4.13-5.63-7.41-10.17-8.53-4.98-1.23-9.99.4-13.67,3.87-.12.12-.24.23-.36.35-2.08-3.8-5.73-6.71-10.09-7.45-5.2-.89-10.29,1.15-13.61,5.07-3.96-3.4-9.24-4.98-14.47-4.19-4.94.75-9.14,3.83-11.85,7.96-.36.56-.7,1.13-1,1.72-4.03-1.03-8.53.08-11.47,3.09-2.92,2.98-3.79,7.19-2.81,11.07-3.86.29-7.59,2.1-9.5,5.67-1.6,2.99-1.3,6.39.15,9.27-3.48,1.33-6.42,3.98-7.73,7.55-1.08,2.93-.63,6.02.74,8.69-3.79,1.19-7.15,3.81-8.27,7.79-.85,3.03.14,5.94,2.03,8.22-2.8,1.55-4.94,4.25-5.61,7.45-.78,3.75.37,7.48,2.89,10.16-2.9,2.59-4.64,6.43-4.25,10.4.39,4.02,2.65,7.38,5.93,9.43-2.07,3.1-2.69,7.09-1.36,10.65,1.3,3.5,4.17,6.25,7.69,7.34-.52,3.86.58,7.88,3.01,10.95,1.78,2.24,4.39,3.98,7.18,4.77-.36,4.47,1.59,8.96,5.53,11.4,2.89,1.77,6.53,2.07,9.77,1.12,2.04,3.41,5.32,6.15,9.23,7.08,3.43.81,6.82.12,9.77-1.57,3.21,4.13,8.29,6.83,13.62,6.23,3.64-.41,6.9-2.22,9.33-4.89,3.51,3.35,8.38,4.99,13.3,3.92,4.77-1.04,8.57-4.7,10.21-9.2,3.89,2,8.59,2.61,12.72,1.04,4.86-1.84,7.77-6.09,8.07-11.25.03-.51.03-1.02,0-1.54,4.5,1.07,9.4.32,12.9-2.99,1.95-1.84,3.04-4.38,3.08-7.06.02-1.92-.46-3.75-1.28-5.43,3.1-.45,5.96-2.03,7.7-4.84,2.08-3.35,1.5-7.42-.63-10.49,6.2-3.94,9.08-12.01,6.57-19.04-.32-.9-.69-1.79-1.15-2.63M716.3,269.59c-1.21,3.34-3.84,5.78-6.9,7.12-1.13.5-1.22,2.26-.39,3.03,2.17,2.01,3.33,5.12,1.69,7.75-1.46,2.36-4.55,3.45-7.24,3.06-1.97-.3-3.11,1.66-1.88,3.23,2.42,3.12,3.17,7.63.05,10.43-3.03,2.72-7.79,2.71-11.33,1.08-1.5-.7-3.27.45-2.84,2.18.05.18.09.36.12.55.02.14.05.29.08.43,0,.06.02.11.02.14h0s0,.05,0,.12c.1.98.13,1.97.05,2.95-.19,2.2-1.18,4.44-2.99,5.89-4.14,3.31-10.12,2.14-14.13-.7-.96-.68-2.64-.02-2.84,1.15-.75,4.24-3.61,7.88-7.9,8.92-4.06.98-8.49-.79-10.99-4.1-.88-1.17-2.48-1.31-3.34,0-.11.15-.22.3-.32.46-.03.05-.06.09-.09.12h0s-.02.03-.02.03c-.02.03-.05.07-.09.12-.02.02-.04.05-.05.05-.53.62-1.08,1.2-1.7,1.73-1.42,1.25-3.4,2.21-5.39,2.47-4.63.6-8.96-2.13-11.3-5.99-.7-1.15-2.01-1.15-2.97-.45-.12.08-.33.23-.39.28-.27.19-.55.36-.84.52-.61.36-1.25.65-1.92.87-1.66.53-3.4.62-5.09.18-3.41-.89-5.93-3.51-7.41-6.63-.44-.93-1.59-1.08-2.45-.76h0c-.05.03-.19.08-.25.1.02,0,.04-.02.06-.03.05-.02.09-.04.14-.06-.19.06-.39.15-.58.22-.65.22-1.32.39-1.99.48-1.59.22-3.51-.02-5.02-.88-3.23-1.82-4.58-5.7-3.75-9.21.22-.92-.29-2.23-1.35-2.38-2.64-.39-4.94-1.56-6.77-3.7-1.42-1.66-2.24-3.85-2.35-6.03-.07-1.47,0-2.23.38-3.57.26-.91-.32-2.24-1.35-2.38-2.97-.42-5.64-2.17-6.77-5.04-1.22-3.12-.36-6.57,2.02-8.88,1.12-1.09.46-2.74-.85-3.24-3-1.13-5.36-3.97-5.62-7.21-.28-3.43,1.52-6.6,4.45-8.34,1.31-.77,1.19-2.55,0-3.34-2.52-1.69-3.86-4.87-3.15-7.84.7-2.93,3-5,5.91-5.64,1.75-.38,1.73-2.65.46-3.54-.02-.02-.08-.05-.13-.08,0,0-.02,0-.02,0-.02-.03-.05-.05-.07-.06h0s-.02-.02-.02-.02c-.02,0-.04-.02-.05-.03h0s0,0,0-.02c-.01-.02-.03-.03-.04-.04-.12-.11-.25-.21-.37-.32-.53-.49-1-.99-1.35-1.51-.89-1.34-1.16-2.82-.79-4.14.89-3.15,4.37-5.26,7.68-5.61,1.7-.18,2.51-1.97,1.37-3.31-.05-.05-.12-.15-.18-.21-.02-.03-.04-.06-.05-.07-.14-.19-.28-.38-.4-.57-.37-.58-.7-1.19-.93-1.83-.57-1.65-.59-3.28.03-4.88,1.21-3.13,4.37-4.96,7.55-5.56,1.56-.29,1.7-2.23.86-3.24-.01-.02-.03-.04-.04-.05,0,.02.02.03.03.05.02.02.03.05.03.05-.03-.03-.08-.09-.09-.12,0,0,0,0,.02,0-.12-.19-.26-.36-.38-.56-.37-.58-.72-1.2-.93-1.81-.55-1.56-.61-3.25.16-4.68,1.57-2.93,5.23-4.25,8.44-3.79,1.63.23,3.04-1.24,2.18-2.84-1.66-3.1-1.32-7.02,1.26-9.51,2.45-2.36,6.02-2.64,9.07-1.39,1.03.42,2.05-.47,2.38-1.36.03-.07.09-.16.1-.24-.02.05-.04.08-.06.13-.02.04-.03.07-.05.09,0-.04.13-.39.12-.23.03-.05.05-.11.08-.16.25-.52.52-1.03.81-1.52.88-1.48,1.7-2.5,3.07-3.73,3.31-2.95,8.04-3.94,12.34-2.75,2.71.75,5.05,2.29,6.93,4.36.62.69,1.38.74,2.03.44h0c.38-.12.74-.39,1-.83,2.23-3.68,6.56-6.06,10.91-5.22,4.12.8,7.3,3.89,8.44,7.9.46,1.63,2.66,1.86,3.54.46.07-.12.15-.23.22-.33.07-.09.14-.19.2-.28-.02.02-.02.02-.03.03.02-.04.07-.09.08-.09h0s.02-.02.02-.03c.53-.63,1.09-1.24,1.7-1.8,1.56-1.41,3.72-2.62,6.02-2.9,5.44-.68,10.36,3.18,12.01,8.21.38,1.15,1.73,1.83,2.85,1.15,3.03-1.85,7.59-2.52,10.88-.12,3.86,2.83,4.66,8.16,3.24,12.48-.33.99.38,2.11,1.35,2.38.39.11.76.23,1.13.37.02,0,.09.04.16.06,0,0,.02,0,.04.01h0s0,0,.02,0c0,0,.02,0,.02,0t.02,0h0c.09.05.19.09.21.1.33.15.67.32.98.51,1.5.85,2.78,2.03,3.67,3.52,2.21,3.68,1.56,8.19-.75,11.64-.85,1.28.29,2.86,1.67,2.91.19,0,.38.02.57.04.13,0,.26.02.4.04h.03s.12,0,.14.02h-.05c.94.17,1.86.38,2.76.71,1.95.71,3.85,2.21,4.85,4.23,2.22,4.48.11,9.95-3.41,13.24-.94.88-.63,2.39.39,3.03.12.09.26.17.38.26.08.06.26.19.35.26,0,0,.02,0,.02,0,0,0,.01,0,.01.02,0,0,.02,0,.02,0,.51.41,1,.86,1.46,1.33,1.32,1.39,2.37,3.08,2.9,5.04,1.28,4.74-.84,9.81-4.79,12.59-.8.57-1.34,1.74-.7,2.65,2.36,3.3,3.14,7.72,1.67,11.76"/>
      <path class="st1" d="M718.84,257.28c4.24-3.78,6.42-9.46,5.15-15.17-.72-3.22-2.62-6.18-5.13-8.36,2.83-3.38,4.37-7.79,3.76-12.21-.67-4.93-4.08-8.64-8.73-10.21-.49-.17-1.01-.32-1.53-.43,1.74-4.07,1.76-8.82-.46-12.77-1.52-2.72-4.04-4.81-6.91-6.01,1.14-5.51-.63-11.52-5.29-14.95-3.73-2.74-8.82-2.81-13.03-1.04-2-4.13-5.63-7.41-10.17-8.53-4.98-1.23-9.99.4-13.67,3.87-.12.12-.24.23-.36.35-2.08-3.8-5.73-6.71-10.09-7.45-5.2-.89-10.29,1.15-13.61,5.07-3.96-3.4-9.24-4.98-14.47-4.19-4.94.75-9.14,3.83-11.85,7.96-.36.56-.7,1.13-1,1.72-4.03-1.03-8.53.08-11.47,3.09-2.92,2.98-3.79,7.19-2.81,11.07-3.86.29-7.59,2.1-9.5,5.67-1.6,2.99-1.3,6.39.15,9.27-3.48,1.33-6.42,3.98-7.73,7.55-1.08,2.93-.63,6.02.74,8.69-3.79,1.19-7.15,3.81-8.27,7.79-.85,3.03.14,5.94,2.03,8.22-2.8,1.55-4.94,4.25-5.61,7.45-.78,3.75.37,7.48,2.89,10.16-2.9,2.59-4.64,6.43-4.25,10.4.39,4.02,2.65,7.38,5.93,9.43-2.07,3.1-2.69,7.09-1.36,10.65,1.3,3.5,4.17,6.25,7.69,7.34-.52,3.86.58,7.88,3.01,10.95,1.78,2.24,4.39,3.98,7.18,4.77-.36,4.47,1.59,8.96,5.53,11.4,2.89,1.77,6.53,2.07,9.77,1.12,2.04,3.41,5.32,6.15,9.23,7.08,3.43.81,6.82.12,9.77-1.57,3.21,4.13,8.29,6.83,13.62,6.23,3.64-.41,6.9-2.22,9.33-4.89,3.51,3.35,8.38,4.99,13.3,3.92,4.77-1.04,8.57-4.7,10.21-9.2,3.89,2,8.59,2.61,12.72,1.04,4.86-1.84,7.77-6.09,8.07-11.25.03-.51.03-1.02,0-1.54,4.5,1.07,9.4.32,12.9-2.99,1.95-1.84,3.04-4.38,3.08-7.06.02-1.92-.46-3.75-1.28-5.43,3.1-.45,5.96-2.03,7.7-4.84,2.08-3.35,1.5-7.42-.63-10.49,6.2-3.94,9.08-12.01,6.57-19.04-.32-.9-.69-1.79-1.15-2.63ZM716.3,269.59c-1.21,3.34-3.84,5.78-6.9,7.12-1.13.5-1.22,2.26-.39,3.03,2.17,2.01,3.33,5.12,1.69,7.75-1.46,2.36-4.55,3.45-7.24,3.06-1.97-.3-3.11,1.66-1.88,3.23,2.42,3.12,3.17,7.63.05,10.43-3.03,2.72-7.79,2.71-11.33,1.08-1.5-.7-3.27.45-2.84,2.18.05.18.09.36.12.55.02.14.05.29.08.43,0,.06.02.11.02.14h0s0,.05,0,.12c.1.98.13,1.97.05,2.95-.19,2.2-1.18,4.44-2.99,5.89-4.14,3.31-10.12,2.14-14.13-.7-.96-.68-2.64-.02-2.84,1.15-.75,4.24-3.61,7.88-7.9,8.92-4.06.98-8.49-.79-10.99-4.1-.88-1.17-2.48-1.31-3.34,0-.11.15-.22.3-.32.46-.03.05-.06.09-.09.12h0s-.02.03-.02.03c-.02.03-.05.07-.09.12-.02.02-.04.05-.05.05-.53.62-1.08,1.2-1.7,1.73-1.42,1.25-3.4,2.21-5.39,2.47-4.63.6-8.96-2.13-11.3-5.99-.7-1.15-2.01-1.15-2.97-.45-.12.08-.33.23-.39.28-.27.19-.55.36-.84.52-.61.36-1.25.65-1.92.87-1.66.53-3.4.62-5.09.18-3.41-.89-5.93-3.51-7.41-6.63-.44-.93-1.59-1.08-2.45-.76h0c-.05.03-.19.08-.25.1.02,0,.04-.02.06-.03.05-.02.09-.04.14-.06-.19.06-.39.15-.58.22-.65.22-1.32.39-1.99.48-1.59.22-3.51-.02-5.02-.88-3.23-1.82-4.58-5.7-3.75-9.21.22-.92-.29-2.23-1.35-2.38-2.64-.39-4.94-1.56-6.77-3.7-1.42-1.66-2.24-3.85-2.35-6.03-.07-1.47,0-2.23.38-3.57.26-.91-.32-2.24-1.35-2.38-2.97-.42-5.64-2.17-6.77-5.04-1.22-3.12-.36-6.57,2.02-8.88,1.12-1.09.46-2.74-.85-3.24-3-1.13-5.36-3.97-5.62-7.21-.28-3.43,1.52-6.6,4.45-8.34,1.31-.77,1.19-2.55,0-3.34-2.52-1.69-3.86-4.87-3.15-7.84.7-2.93,3-5,5.91-5.64,1.75-.38,1.73-2.65.46-3.54-.02-.02-.08-.05-.13-.08,0,0-.02,0-.02,0-.02-.03-.05-.05-.07-.06h0s-.02-.02-.02-.02c-.02,0-.04-.02-.05-.03h0s0,0,0-.02c-.01-.02-.03-.03-.04-.04-.12-.11-.25-.21-.37-.32-.53-.49-1-.99-1.35-1.51-.89-1.34-1.16-2.82-.79-4.14.89-3.15,4.37-5.26,7.68-5.61,1.7-.18,2.51-1.97,1.37-3.31-.05-.05-.12-.15-.18-.21-.02-.03-.04-.06-.05-.07-.14-.19-.28-.38-.4-.57-.37-.58-.7-1.19-.93-1.83-.57-1.65-.59-3.28.03-4.88,1.21-3.13,4.37-4.96,7.55-5.56,1.56-.29,1.7-2.23.86-3.24-.01-.02-.03-.04-.04-.05,0,.02.02.03.03.05.02.02.03.05.03.05-.03-.03-.08-.09-.09-.12,0,0,0,0,.02,0-.12-.19-.26-.36-.38-.56-.37-.58-.72-1.2-.93-1.81-.55-1.56-.61-3.25.16-4.68,1.57-2.93,5.23-4.25,8.44-3.79,1.63.23,3.04-1.24,2.18-2.84-1.66-3.1-1.32-7.02,1.26-9.51,2.45-2.36,6.02-2.64,9.07-1.39,1.03.42,2.05-.47,2.38-1.36.03-.07.09-.16.1-.24-.02.05-.04.08-.06.13-.02.04-.03.07-.05.09,0-.04.13-.39.12-.23.03-.05.05-.11.08-.16.25-.52.52-1.03.81-1.52.88-1.48,1.7-2.5,3.07-3.73,3.31-2.95,8.04-3.94,12.34-2.75,2.71.75,5.05,2.29,6.93,4.36.62.69,1.38.74,2.03.44h0c.38-.12.74-.39,1-.83,2.23-3.68,6.56-6.06,10.91-5.22,4.12.8,7.3,3.89,8.44,7.9.46,1.63,2.66,1.86,3.54.46.07-.12.15-.23.22-.33.07-.09.14-.19.2-.28-.02.02-.02.02-.03.03.02-.04.07-.09.08-.09h0s.02-.02.02-.03c.53-.63,1.09-1.24,1.7-1.8,1.56-1.41,3.72-2.62,6.02-2.9,5.44-.68,10.36,3.18,12.01,8.21.38,1.15,1.73,1.83,2.85,1.15,3.03-1.85,7.59-2.52,10.88-.12,3.86,2.83,4.66,8.16,3.24,12.48-.33.99.38,2.11,1.35,2.38.39.11.76.23,1.13.37.02,0,.09.04.16.06,0,0,.02,0,.04.01h0s0,0,.02,0c0,0,.02,0,.02,0t.02,0h0c.09.05.19.09.21.1.33.15.67.32.98.51,1.5.85,2.78,2.03,3.67,3.52,2.21,3.68,1.56,8.19-.75,11.64-.85,1.28.29,2.86,1.67,2.91.19,0,.38.02.57.04.13,0,.26.02.4.04h.03s.12,0,.14.02h-.05c.94.17,1.86.38,2.76.71,1.95.71,3.85,2.21,4.85,4.23,2.22,4.48.11,9.95-3.41,13.24-.94.88-.63,2.39.39,3.03.12.09.26.17.38.26.08.06.26.19.35.26,0,0,.02,0,.02,0,0,0,.01,0,.01.02,0,0,.02,0,.02,0,.51.41,1,.86,1.46,1.33,1.32,1.39,2.37,3.08,2.9,5.04,1.28,4.74-.84,9.81-4.79,12.59-.8.57-1.34,1.74-.7,2.65,2.36,3.3,3.14,7.72,1.67,11.76Z"/>
      <path class="st19" d="M633.81,228.86c0,5.56-4.11,10.07-9.17,10.07s-9.17-4.51-9.17-10.07,4.11-10.07,9.17-10.07,9.17,4.51,9.17,10.07"/>
      <path class="st1" d="M633.81,228.86c0,5.56-4.11,10.07-9.17,10.07s-9.17-4.51-9.17-10.07,4.11-10.07,9.17-10.07,9.17,4.51,9.17,10.07Z"/>
      <path class="st19" d="M668.69,228.5c0,5.56-4.11,10.07-9.17,10.07s-9.17-4.51-9.17-10.07,4.11-10.07,9.17-10.07,9.17,4.51,9.17,10.07"/>
      <path class="st1" d="M668.69,228.5c0,5.56-4.11,10.07-9.17,10.07s-9.17-4.51-9.17-10.07,4.11-10.07,9.17-10.07,9.17,4.51,9.17,10.07Z"/>
      <path class="st19" d="M641.69,256.6s0,0,0-.01c-.01-.05-.06.04-.03.2,0,0,0-.02,0-.03,0-.06.02-.12.02-.16"/>
      <path class="st1" d="M641.69,256.6s0,0,0-.01c-.01-.05-.06.04-.03.2,0,0,0-.02,0-.03,0-.06.02-.12.02-.16Z"/>
      <path class="st19" d="M656.3,256.6s0,0,0-.01c-.01-.05-.06.04-.03.2,0,0,0-.02,0-.03,0-.06.02-.12.02-.16"/>
      <path class="st1" d="M656.3,256.6s0,0,0-.01c-.01-.05-.06.04-.03.2,0,0,0-.02,0-.03,0-.06.02-.12.02-.16Z"/>
      <path class="st19" d="M658.46,253.93c-1.17.05-2.12.94-2.14,2.14,0,.17,0,.35-.02.52,0,.02,0,.06,0,.12,0,.02-.01.04-.01.05,0,.02,0,.05,0,.07,0-.02,0-.03,0-.04-.06.31-.13.62-.22.93-.04.14-.09.27-.14.4-.03.05-.05.11-.08.16-.16.32-.35.63-.55.92-.02.03-.03.05-.05.07t0,0c-.11.12-.22.25-.33.37-.1.1-.2.2-.3.3-.07.06-.14.13-.21.19-.03.03-.08.09-.11.13.01-.01.02-.03.05-.07.17-.22.03-.02-.07.05-.06.04-.12.08-.17.12-.14.09-.28.18-.42.26-.14.08-.29.16-.44.23-.04.02-.08.04-.12.05,0,0-.01,0-.02,0-.3.09-.58.19-.89.26-.09.02-.19.03-.28.05-.03,0-.05.01-.06.02-.13,0-.27,0-.31,0-.05,0-.63-.02-.88-.03-.06-.01-.12-.02-.18-.03-.16-.03-.32-.07-.48-.12-.16-.04-.31-.1-.47-.15-.03,0-.04-.01-.07-.02t0,0c-.32-.16-.62-.32-.92-.51-.1-.07-.36-.18-.4-.28,0-.02.33.29.16.11-.07-.07-.14-.12-.21-.18-.25-.22-.47-.46-.69-.71-.03-.03-.04-.04-.05-.06-.01-.02-.02-.04-.05-.07-.11-.16-.21-.32-.31-.48-.1-.16-.19-.33-.28-.51-.03-.05-.05-.11-.08-.16-.12-.37-.24-.74-.32-1.12-.01-.07-.03-.13-.04-.2-.01-.22-.03-.44-.04-.66-.02-1.12-.97-2.19-2.14-2.14-.03,0-.06.01-.09.01-.05,0-.11-.01-.16-.01-1.17.05-2.12.94-2.14,2.14,0,.17,0,.35-.02.52,0,.02,0,.06,0,.12,0,.02,0,.04-.01.05,0,.02,0,.05,0,.07,0-.02,0-.03,0-.04-.06.31-.13.62-.22.93-.04.14-.1.27-.14.4-.03.05-.05.11-.08.16-.16.32-.34.63-.55.92-.02.03-.03.05-.05.07t0,0c-.11.12-.22.25-.33.37-.1.1-.2.2-.3.3-.07.06-.14.13-.21.19-.03.03-.08.09-.11.13.01-.01.02-.03.05-.07.17-.22.03-.02-.07.05-.06.04-.12.08-.17.12-.14.09-.28.18-.42.26-.14.08-.29.16-.44.23-.04.02-.08.04-.12.05-.01,0-.01,0-.02,0-.29.09-.58.19-.89.26-.09.02-.19.03-.28.05-.03,0-.05.01-.06.02-.13,0-.27,0-.31,0-.05,0-.63-.02-.88-.03-.06-.01-.12-.02-.18-.03-.16-.03-.32-.07-.48-.12-.16-.04-.31-.1-.47-.15-.03,0-.04-.01-.07-.02t0,0c-.32-.16-.62-.32-.92-.51-.1-.07-.36-.18-.4-.28,0-.02.33.29.16.11-.07-.07-.14-.12-.21-.18-.25-.22-.47-.46-.69-.71-.03-.03-.04-.04-.05-.06-.01-.02-.03-.04-.05-.07-.11-.16-.21-.32-.31-.48-.1-.16-.19-.33-.27-.51-.03-.05-.05-.11-.08-.16-.12-.37-.25-.74-.33-1.12-.01-.07-.02-.13-.04-.2-.01-.22-.03-.44-.04-.66-.02-1.12-.97-2.19-2.13-2.14-1.14.05-2.16.94-2.14,2.14.07,3.99,2.54,7.47,6.25,8.91,3.49,1.35,7.72.17,10.08-2.72.11-.14.21-.28.32-.42,1.07,1.38,2.51,2.48,4.22,3.14,3.49,1.35,7.72.17,10.08-2.72,1.45-1.78,2.27-3.88,2.31-6.19.02-1.12-.99-2.19-2.14-2.14M636.02,261.23s-.08,0-.08,0c0,0,.04,0,.08,0M637.27,261.25c.08-.01.25-.05.25-.04,0,.02-.12.03-.25.04M650.63,261.23s-.08,0-.08,0c0,0,.04,0,.08,0M651.88,261.25c.08-.01.25-.05.25-.04,0,.02-.12.03-.25.04"/>
      <path class="st1" d="M658.46,253.93c-1.17.05-2.12.94-2.14,2.14,0,.17,0,.35-.02.52,0,.02,0,.06,0,.12,0,.02-.01.04-.01.05,0,.02,0,.05,0,.07,0-.02,0-.03,0-.04-.06.31-.13.62-.22.93-.04.14-.09.27-.14.4-.03.05-.05.11-.08.16-.16.32-.35.63-.55.92-.02.03-.03.05-.05.07t0,0c-.11.12-.22.25-.33.37-.1.1-.2.2-.3.3-.07.06-.14.13-.21.19-.03.03-.08.09-.11.13.01-.01.02-.03.05-.07.17-.22.03-.02-.07.05-.06.04-.12.08-.17.12-.14.09-.28.18-.42.26-.14.08-.29.16-.44.23-.04.02-.08.04-.12.05,0,0-.01,0-.02,0-.3.09-.58.19-.89.26-.09.02-.19.03-.28.05-.03,0-.05.01-.06.02-.13,0-.27,0-.31,0-.05,0-.63-.02-.88-.03-.06-.01-.12-.02-.18-.03-.16-.03-.32-.07-.48-.12-.16-.04-.31-.1-.47-.15-.03,0-.04-.01-.07-.02t0,0c-.32-.16-.62-.32-.92-.51-.1-.07-.36-.18-.4-.28,0-.02.33.29.16.11-.07-.07-.14-.12-.21-.18-.25-.22-.47-.46-.69-.71-.03-.03-.04-.04-.05-.06-.01-.02-.02-.04-.05-.07-.11-.16-.21-.32-.31-.48-.1-.16-.19-.33-.28-.51-.03-.05-.05-.11-.08-.16-.12-.37-.24-.74-.32-1.12-.01-.07-.03-.13-.04-.2-.01-.22-.03-.44-.04-.66-.02-1.12-.97-2.19-2.14-2.14-.03,0-.06.01-.09.01-.05,0-.11-.01-.16-.01-1.17.05-2.12.94-2.14,2.14,0,.17,0,.35-.02.52,0,.02,0,.06,0,.12,0,.02,0,.04-.01.05,0,.02,0,.05,0,.07,0-.02,0-.03,0-.04-.06.31-.13.62-.22.93-.04.14-.1.27-.14.4-.03.05-.05.11-.08.16-.16.32-.34.63-.55.92-.02.03-.03.05-.05.07t0,0c-.11.12-.22.25-.33.37-.1.1-.2.2-.3.3-.07.06-.14.13-.21.19-.03.03-.08.09-.11.13.01-.01.02-.03.05-.07.17-.22.03-.02-.07.05-.06.04-.12.08-.17.12-.14.09-.28.18-.42.26-.14.08-.29.16-.44.23-.04.02-.08.04-.12.05-.01,0-.01,0-.02,0-.29.09-.58.19-.89.26-.09.02-.19.03-.28.05-.03,0-.05.01-.06.02-.13,0-.27,0-.31,0-.05,0-.63-.02-.88-.03-.06-.01-.12-.02-.18-.03-.16-.03-.32-.07-.48-.12-.16-.04-.31-.1-.47-.15-.03,0-.04-.01-.07-.02t0,0c-.32-.16-.62-.32-.92-.51-.1-.07-.36-.18-.4-.28,0-.02.33.29.16.11-.07-.07-.14-.12-.21-.18-.25-.22-.47-.46-.69-.71-.03-.03-.04-.04-.05-.06-.01-.02-.03-.04-.05-.07-.11-.16-.21-.32-.31-.48-.1-.16-.19-.33-.27-.51-.03-.05-.05-.11-.08-.16-.12-.37-.25-.74-.33-1.12-.01-.07-.02-.13-.04-.2-.01-.22-.03-.44-.04-.66-.02-1.12-.97-2.19-2.13-2.14-1.14.05-2.16.94-2.14,2.14.07,3.99,2.54,7.47,6.25,8.91,3.49,1.35,7.72.17,10.08-2.72.11-.14.21-.28.32-.42,1.07,1.38,2.51,2.48,4.22,3.14,3.49,1.35,7.72.17,10.08-2.72,1.45-1.78,2.27-3.88,2.31-6.19.02-1.12-.99-2.19-2.14-2.14ZM636.02,261.23s-.08,0-.08,0c0,0,.04,0,.08,0ZM637.27,261.25c.08-.01.25-.05.25-.04,0,.02-.12.03-.25.04ZM650.63,261.23s-.08,0-.08,0c0,0,.04,0,.08,0ZM651.88,261.25c.08-.01.25-.05.25-.04,0,.02-.12.03-.25.04Z"/>
      <path class="st15" d="M623.61,224.61c0,.73-.69,1.32-1.54,1.32s-1.53-.59-1.53-1.32.69-1.31,1.53-1.31,1.54.59,1.54,1.31"/>
      <path class="st1" d="M623.61,224.61c0,.73-.69,1.32-1.54,1.32s-1.53-.59-1.53-1.32.69-1.31,1.53-1.31,1.54.59,1.54,1.31Z"/>
      <path class="st15" d="M627.17,226.04c0,.73-.69,1.32-1.54,1.32s-1.53-.59-1.53-1.32.69-1.31,1.53-1.31,1.54.59,1.54,1.31"/>
      <path class="st1" d="M627.17,226.04c0,.73-.69,1.32-1.54,1.32s-1.53-.59-1.53-1.32.69-1.31,1.53-1.31,1.54.59,1.54,1.31Z"/>
      <path class="st15" d="M657.61,223.89c0,.73-.69,1.32-1.54,1.32s-1.53-.59-1.53-1.32.69-1.31,1.53-1.31,1.54.59,1.54,1.31"/>
      <path class="st1" d="M657.61,223.89c0,.73-.69,1.32-1.54,1.32s-1.53-.59-1.53-1.32.69-1.31,1.53-1.31,1.54.59,1.54,1.31Z"/>
      <path class="st15" d="M660.97,225.66c0,.73-.69,1.32-1.54,1.32s-1.53-.59-1.53-1.32.69-1.31,1.53-1.31,1.54.59,1.54,1.31"/>
      <path class="st1" d="M660.97,225.66c0,.73-.69,1.32-1.54,1.32s-1.53-.59-1.53-1.32.69-1.31,1.53-1.31,1.54.59,1.54,1.31Z"/>
      <path d="M696.12,147.78h-34.98l23.81-17.78c1.7-1.08,2.43-6.5-1.7-11.92-4.62-6.07-14.33-11.27-21.62-8.24-5.34-9.1-26.48-8.89-31.34.43-10.69-4.77-28.67,9.32-24.05,19.73,0,.22.24.43.49.65l23.81,17.34h-34.01c-5.59,0-10.2,4.12-10.2,9.1v44.66c0,4.77,4.61,8.67,10.2,8.67,2.43,0-1.46.87,58.55-16.69l36.93,14.52c6.8,2.6,14.58-1.52,14.58-8.02v-43.36c0-4.99-4.61-9.11-10.45-9.11M702.92,156.88v7.8c-3.89,1.08-7.77,1.95-11.42,2.6,3.4-4.77,6.07-10.62,6.56-16.04,2.67.65,4.86,3.04,4.86,5.64M702.92,184.63c-9.72,2.82-22.59,5.2-33.28,1.73,7.77-4.55,14.09-9.76,18.95-15.39,4.62-.43,9.23-1.52,14.33-2.82v16.48ZM589.72,189.4v-13.87c21.14-2.39,43.48-13.22,60.73-24.5h29.4c-24.29,17.99-58.3,36.64-90.13,38.37M682.52,127.83l-26.97,19.94h-1.94c.97-3.68,8.02-30.78,8.99-34.68,7.29-4.33,22.59,6.94,19.92,14.74M658.95,112.01h0q0,.22,0,0l-9.23,35.77h-7.04l-8.99-35.77c2.92-7.59,22.35-7.59,25.27,0M609.88,128.27c-2.91-7.8,12.39-19.08,19.68-14.96,1.46,3.04.24-1.3,9.48,34.47h-2.19l-26.97-19.51ZM596.52,151.03h47.86c-15.55,9.76-35.71,19.08-54.66,21.24v-15.39c0-3.25,3.16-5.85,6.8-5.85M596.52,206.96c-3.64,0-6.56-2.38-6.56-5.42v-8.89c33.77-1.73,70.21-22.11,95.96-41.62h8.75c-1.46,17.12-21.62,31.22-40.08,39.45-60,17.34-56.36,16.48-58.06,16.48M693.45,205.44l-34.25-13.44c.97-.43,4.37-2.17,6.56-3.47,7.77,3.25,18.95,4.55,36.92-.43v12.36c.24,3.9-4.86,6.72-9.23,4.99"/>
      <path class="st1" d="M696.12,147.78h-34.98l23.81-17.78c1.7-1.08,2.43-6.5-1.7-11.92-4.62-6.07-14.33-11.27-21.62-8.24-5.34-9.1-26.48-8.89-31.34.43-10.69-4.77-28.67,9.32-24.05,19.73,0,.22.24.43.49.65l23.81,17.34h-34.01c-5.59,0-10.2,4.12-10.2,9.1v44.66c0,4.77,4.61,8.67,10.2,8.67,2.43,0-1.46.87,58.55-16.69l36.93,14.52c6.8,2.6,14.58-1.52,14.58-8.02v-43.36c0-4.99-4.61-9.11-10.45-9.11ZM702.92,156.88v7.8c-3.89,1.08-7.77,1.95-11.42,2.6,3.4-4.77,6.07-10.62,6.56-16.04,2.67.65,4.86,3.04,4.86,5.64ZM702.92,184.63c-9.72,2.82-22.59,5.2-33.28,1.73,7.77-4.55,14.09-9.76,18.95-15.39,4.62-.43,9.23-1.52,14.33-2.82v16.48ZM589.72,189.4v-13.87c21.14-2.39,43.48-13.22,60.73-24.5h29.4c-24.29,17.99-58.3,36.64-90.13,38.37ZM682.52,127.83l-26.97,19.94h-1.94c.97-3.68,8.02-30.78,8.99-34.68,7.29-4.33,22.59,6.94,19.92,14.74ZM658.95,112.01h0q0,.22,0,0l-9.23,35.77h-7.04l-8.99-35.77c2.92-7.59,22.35-7.59,25.27,0ZM609.88,128.27c-2.91-7.8,12.39-19.08,19.68-14.96,1.46,3.04.24-1.3,9.48,34.47h-2.19l-26.97-19.51ZM596.52,151.03h47.86c-15.55,9.76-35.71,19.08-54.66,21.24v-15.39c0-3.25,3.16-5.85,6.8-5.85ZM596.52,206.96c-3.64,0-6.56-2.38-6.56-5.42v-8.89c33.77-1.73,70.21-22.11,95.96-41.62h8.75c-1.46,17.12-21.62,31.22-40.08,39.45-60,17.34-56.36,16.48-58.06,16.48ZM693.45,205.44l-34.25-13.44c.97-.43,4.37-2.17,6.56-3.47,7.77,3.25,18.95,4.55,36.92-.43v12.36c.24,3.9-4.86,6.72-9.23,4.99Z"/>
      <path class="st15" d="M682.52,127.83l-26.97,19.94h-1.94c.97-3.69,8.02-30.78,8.99-34.68,7.29-4.34,22.59,6.94,19.92,14.74"/>
      <path class="st1" d="M682.52,127.83l-26.97,19.94h-1.94c.97-3.69,8.02-30.78,8.99-34.68,7.29-4.34,22.59,6.94,19.92,14.74Z"/>
      <path class="st15" d="M658.95,112.01h0q0,.22,0,0l-9.23,35.77h-7.04l-8.99-35.77c2.91-7.59,22.35-7.59,25.27,0"/>
      <path class="st1" d="M658.95,112.01h0q0,.22,0,0l-9.23,35.77h-7.04l-8.99-35.77c2.91-7.59,22.35-7.59,25.27,0Z"/>
      <path class="st15" d="M609.88,128.27c-2.92-7.8,12.39-19.08,19.68-14.96,1.46,3.04.24-1.3,9.48,34.47h-2.19l-26.96-19.51Z"/>
      <path class="st1" d="M609.88,128.27c-2.92-7.8,12.39-19.08,19.68-14.96,1.46,3.04.24-1.3,9.48,34.47h-2.19l-26.96-19.51Z"/>
      <path class="st15" d="M702.92,156.88v7.8c-3.89,1.08-7.77,1.95-11.42,2.6,3.4-4.77,6.07-10.62,6.56-16.04,2.67.65,4.86,3.04,4.86,5.64"/>
      <path class="st1" d="M702.92,156.88v7.8c-3.89,1.08-7.77,1.95-11.42,2.6,3.4-4.77,6.07-10.62,6.56-16.04,2.67.65,4.86,3.04,4.86,5.64Z"/>
      <path class="st15" d="M589.72,189.4v-13.87c21.13-2.38,43.48-13.22,60.73-24.5h29.39c-24.29,17.99-58.3,36.64-90.13,38.37"/>
      <path class="st1" d="M589.72,189.4v-13.87c21.13-2.38,43.48-13.22,60.73-24.5h29.39c-24.29,17.99-58.3,36.64-90.13,38.37Z"/>
      <path class="st15" d="M596.52,151.03h47.86c-15.55,9.76-35.71,19.08-54.66,21.24v-15.39c0-3.25,3.16-5.85,6.8-5.85"/>
      <path class="st1" d="M596.52,151.03h47.86c-15.55,9.76-35.71,19.08-54.66,21.24v-15.39c0-3.25,3.16-5.85,6.8-5.85Z"/>
      <path class="st15" d="M596.52,206.96c-3.64,0-6.56-2.38-6.56-5.42v-8.89c33.77-1.74,70.21-22.11,95.96-41.62h8.75c-1.46,17.13-21.62,31.22-40.08,39.45-60,17.34-56.36,16.47-58.06,16.47"/>
      <path class="st1" d="M596.52,206.96c-3.64,0-6.56-2.38-6.56-5.42v-8.89c33.77-1.74,70.21-22.11,95.96-41.62h8.75c-1.46,17.13-21.62,31.22-40.08,39.45-60,17.34-56.36,16.47-58.06,16.47Z"/>
      <path class="st15" d="M693.45,205.44l-34.25-13.44c.97-.43,4.37-2.17,6.56-3.47,7.77,3.25,18.95,4.55,36.92-.43v12.36c.24,3.9-4.86,6.72-9.23,4.99"/>
      <path class="st1" d="M693.45,205.44l-34.25-13.44c.97-.43,4.37-2.17,6.56-3.47,7.77,3.25,18.95,4.55,36.92-.43v12.36c.24,3.9-4.86,6.72-9.23,4.99Z"/>
      <path class="st15" d="M702.92,184.63c-9.72,2.82-22.59,5.2-33.28,1.73,7.77-4.55,14.09-9.76,18.95-15.39,4.62-.43,9.23-1.52,14.33-2.82v16.47Z"/>
      <path class="st1" d="M702.92,184.63c-9.72,2.82-22.59,5.2-33.28,1.73,7.77-4.55,14.09-9.76,18.95-15.39,4.62-.43,9.23-1.52,14.33-2.82v16.47Z"/>
      <path class="st19" d="M645.65,213.8c0,4.46-1.38,8.07-3.08,8.07s-3.08-3.61-3.08-8.07,3.08-12.75,3.08-12.75c0,0,3.08,8.29,3.08,12.75"/>
      <path d="M690.8,282.59c4.57.74,9.06,1.4,13.52,2.22,4.89.9,9.01,3.51,12.7,6.64,3.51,2.97,4.28,7.03,2.94,11.35-4.48,14.4-14.36,22.98-29.01,25.81-9.58,1.85-19.13,1.14-28.19-2.87-10.34-4.57-17.22-12.3-20.6-23.1-1.44-4.6.29-9.54,4.33-12.14,3.49-2.24,6.99-4.56,11.14-5.39,3.68-.74,7.41-1.23,11.11-1.81.49-.08.89-.07.93-.74.22-4.25,1.55-8.23,3.41-11.99,1.66-3.36,3.57-6.59,5.46-9.83.95-1.63,2.23-1.61,3.24-.05,3.55,5.45,6.62,11.12,8.2,17.49.37,1.48.56,3.01.81,4.42M647.41,307.15c.23.45.38.77.55,1.08,3.33,6.03,8.1,10.59,14.23,13.71,7.29,3.71,15.09,4.74,23.14,4.21,10.29-.68,19.02-4.61,25.65-12.7,1.58-1.93,2.92-4.01,3.99-6.51-6.2,2.66-12.38,3.29-18.74,1.75-6.34-1.54-11.57-4.96-15.96-9.75-9.14,9.85-19.92,12.99-32.86,8.22M683.27,297.51c1.21,1.07,2.22,2.03,3.3,2.91,8.36,6.82,20,7.79,29.36,2.42.46-.26.9-.82,1.05-1.33,1-3.46-.2-6.46-3.17-8.6-4.25-3.06-8.86-5.19-14.12-5.77-2.97-.33-5.93-.78-8.62-1.14-.78,2.49-1.32,4.78-2.23,6.93-.97,2.31-2.91,3.74-5.57,4.59M669.68,286.37c-2.13.3-4.11.53-6.08.86-3.56.6-7.15,1.08-10.33,2.99-1.59.95-3.24,1.83-4.81,2.82-2.2,1.39-3.46,3.44-3.57,6.03-.06,1.45-.14,3.02,1.54,3.9,8.87,4.64,17.51,4.35,25.86-1.24,1.72-1.15,3.22-2.65,5-4.14-5.62-1.86-6.98-6.24-7.61-11.23M680.18,264.07c-2.98,4.92-5.51,9.79-6.81,15.21-.86,3.6-.81,7.18.31,10.7,1.03,3.24,3.21,4.72,6.61,4.71,3.2-.01,5.34-1.58,6.39-4.73.87-2.59,1.1-5.28.76-7.95-.81-6.54-3.85-12.2-7.26-17.93"/>
      <path class="st7" d="M690.8,282.59c4.57.74,9.06,1.4,13.52,2.22,4.89.9,9.01,3.51,12.7,6.64,3.51,2.97,4.28,7.03,2.94,11.35-4.48,14.4-14.36,22.98-29.01,25.81-9.58,1.85-19.13,1.14-28.19-2.87-10.34-4.57-17.22-12.3-20.6-23.1-1.44-4.6.29-9.54,4.33-12.14,3.49-2.24,6.99-4.56,11.14-5.39,3.68-.74,7.41-1.23,11.11-1.81.49-.08.89-.07.93-.74.22-4.25,1.55-8.23,3.41-11.99,1.66-3.36,3.57-6.59,5.46-9.83.95-1.63,2.23-1.61,3.24-.05,3.55,5.45,6.62,11.12,8.2,17.49.37,1.48.56,3.01.81,4.42ZM647.41,307.15c.23.45.38.77.55,1.08,3.33,6.03,8.1,10.59,14.23,13.71,7.29,3.71,15.09,4.74,23.14,4.21,10.29-.68,19.02-4.61,25.65-12.7,1.58-1.93,2.92-4.01,3.99-6.51-6.2,2.66-12.38,3.29-18.74,1.75-6.34-1.54-11.57-4.96-15.96-9.75-9.14,9.85-19.92,12.99-32.86,8.22ZM683.27,297.51c1.21,1.07,2.22,2.03,3.3,2.91,8.36,6.82,20,7.79,29.36,2.42.46-.26.9-.82,1.05-1.33,1-3.46-.2-6.46-3.17-8.6-4.25-3.06-8.86-5.19-14.12-5.77-2.97-.33-5.93-.78-8.62-1.14-.78,2.49-1.32,4.78-2.23,6.93-.97,2.31-2.91,3.74-5.57,4.59ZM669.68,286.37c-2.13.3-4.11.53-6.08.86-3.56.6-7.15,1.08-10.33,2.99-1.59.95-3.24,1.83-4.81,2.82-2.2,1.39-3.46,3.44-3.57,6.03-.06,1.45-.14,3.02,1.54,3.9,8.87,4.64,17.51,4.35,25.86-1.24,1.72-1.15,3.22-2.65,5-4.14-5.62-1.86-6.98-6.24-7.61-11.23ZM680.18,264.07c-2.98,4.92-5.51,9.79-6.81,15.21-.86,3.6-.81,7.18.31,10.7,1.03,3.24,3.21,4.72,6.61,4.71,3.2-.01,5.34-1.58,6.39-4.73.87-2.59,1.1-5.28.76-7.95-.81-6.54-3.85-12.2-7.26-17.93Z"/>
      <path class="st15" d="M647.41,307.15c12.94,4.77,23.72,1.64,32.86-8.22,4.39,4.79,9.62,8.21,15.96,9.75,6.36,1.54,12.55.91,18.74-1.75-1.07,2.49-2.41,4.58-3.99,6.51-6.63,8.1-15.35,12.02-25.65,12.7-8.06.53-15.86-.5-23.14-4.21-6.13-3.12-10.89-7.68-14.23-13.71-.17-.31-.32-.63-.55-1.08"/>
      <path class="st7" d="M647.41,307.15c12.94,4.77,23.72,1.64,32.86-8.22,4.39,4.79,9.62,8.21,15.96,9.75,6.36,1.54,12.55.91,18.74-1.75-1.07,2.49-2.41,4.58-3.99,6.51-6.63,8.1-15.35,12.02-25.65,12.7-8.06.53-15.86-.5-23.14-4.21-6.13-3.12-10.89-7.68-14.23-13.71-.17-.31-.32-.63-.55-1.08Z"/>
      <path class="st15" d="M683.27,297.51c2.65-.85,4.59-2.28,5.56-4.59.9-2.14,1.45-4.44,2.23-6.92,2.69.36,5.65.82,8.62,1.14,5.27.58,9.87,2.71,14.12,5.77,2.97,2.14,4.17,5.14,3.17,8.6-.15.51-.59,1.07-1.05,1.33-9.35,5.37-20.99,4.4-29.36-2.42-1.08-.88-2.09-1.84-3.3-2.91"/>
      <path class="st7" d="M683.27,297.51c2.65-.85,4.59-2.28,5.56-4.59.9-2.14,1.45-4.44,2.23-6.92,2.69.36,5.65.82,8.62,1.14,5.27.58,9.87,2.71,14.12,5.77,2.97,2.14,4.17,5.14,3.17,8.6-.15.51-.59,1.07-1.05,1.33-9.35,5.37-20.99,4.4-29.36-2.42-1.08-.88-2.09-1.84-3.3-2.91Z"/>
      <path class="st15" d="M669.68,286.37c.63,4.99,1.99,9.37,7.61,11.23-1.79,1.49-3.28,2.98-5,4.14-8.35,5.59-16.99,5.88-25.86,1.24-1.69-.88-1.61-2.45-1.55-3.9.11-2.59,1.38-4.64,3.57-6.03,1.57-.99,3.21-1.87,4.81-2.82,3.18-1.91,6.78-2.39,10.33-2.99,1.97-.33,3.96-.57,6.08-.86"/>
      <path class="st7" d="M669.68,286.37c.63,4.99,1.99,9.37,7.61,11.23-1.79,1.49-3.28,2.98-5,4.14-8.35,5.59-16.99,5.88-25.86,1.24-1.69-.88-1.61-2.45-1.55-3.9.11-2.59,1.38-4.64,3.57-6.03,1.57-.99,3.21-1.87,4.81-2.82,3.18-1.91,6.78-2.39,10.33-2.99,1.97-.33,3.96-.57,6.08-.86Z"/>
      <path class="st15" d="M680.18,264.07c3.41,5.73,6.45,11.39,7.26,17.93.33,2.67.1,5.36-.76,7.95-1.05,3.14-3.19,4.72-6.39,4.73-3.4.01-5.58-1.47-6.61-4.71-1.12-3.52-1.18-7.1-.31-10.7,1.31-5.42,3.84-10.29,6.81-15.21"/>
      <path class="st7" d="M680.18,264.07c3.41,5.73,6.45,11.39,7.26,17.93.33,2.67.1,5.36-.76,7.95-1.05,3.14-3.19,4.72-6.39,4.73-3.4.01-5.58-1.47-6.61-4.71-1.12-3.52-1.18-7.1-.31-10.7,1.31-5.42,3.84-10.29,6.81-15.21Z"/>
      <path d="M296.8,449.44h-2.25v-2c-.9,1.35-2.43,2.25-4.13,2.25-2.98,0-5.38-1.88-5.38-5.83v-6.94h2.38v6.89c0,2.28,1.53,3.61,3.43,3.61,2.2,0,3.58-1.75,3.58-3.81v-6.69h2.38v12.52Z"/>
      <path d="M300.81,436.92h2.25v2c.9-1.35,2.43-2.25,4.13-2.25,2.98,0,5.38,1.88,5.38,5.83v6.94h-2.38v-6.89c0-2.28-1.53-3.61-3.43-3.61-2.2,0-3.58,1.75-3.58,3.81v6.69h-2.38v-12.52Z"/>
      <path d="M316.21,431.92h2.65v2.75h-2.65v-2.75ZM318.71,449.44h-2.38v-12.52h2.38v12.52Z"/>
      <path d="M334.11,453.7h-2.38v-6.13c-1.03,1.33-2.55,2.13-4.23,2.13-3.33,0-5.91-2.71-5.91-6.51s2.58-6.51,5.91-6.51c1.75,0,3.3.88,4.36,2.28v-2.03h2.25v16.78ZM327.9,447.49c2.25,0,3.91-1.8,3.91-4.31s-1.65-4.31-3.91-4.31-3.86,1.8-3.86,4.31,1.63,4.31,3.86,4.31"/>
      <path d="M349.64,449.44h-2.25v-2c-.9,1.35-2.43,2.25-4.13,2.25-2.98,0-5.38-1.88-5.38-5.83v-6.94h2.38v6.89c0,2.28,1.53,3.61,3.43,3.61,2.2,0,3.58-1.75,3.58-3.81v-6.69h2.38v12.52Z"/>
      <path d="M358.93,436.67c4.11,0,6.66,2.93,6.33,7.49h-10.27c.35,1.95,2,3.33,3.96,3.33,1.75,0,2.83-.7,3.46-1.78h2.45c-.8,2.33-3.15,3.98-5.91,3.98-3.73,0-6.43-2.75-6.43-6.51s2.7-6.51,6.41-6.51M362.71,442.08c-.2-2.03-1.78-3.3-3.83-3.3s-3.53,1.38-3.86,3.3h7.69Z"/>
      <polygon points="370.43 446.69 369.68 452.45 367.93 452.45 367.93 446.69 370.43 446.69"/>
      <path d="M383.83,436.92v13.12c0,2.55-1.25,3.91-3.98,3.91-.7,0-1.35-.12-1.65-.22v-2.18c.53.12.98.15,1.53.15,1.35,0,1.73-.65,1.73-1.65v-13.12h2.38ZM381.32,431.92h2.65v2.75h-2.65v-2.75Z"/>
      <path d="M399.35,449.44h-2.25v-2c-.9,1.35-2.43,2.25-4.13,2.25-2.98,0-5.38-1.88-5.38-5.83v-6.94h2.38v6.89c0,2.28,1.53,3.61,3.43,3.61,2.2,0,3.58-1.75,3.58-3.81v-6.69h2.38v12.52Z"/>
      <path d="M401.94,445.49h2.38c.45,1.48,1.65,2.1,3.56,2.1,1.8,0,3-.65,3-1.58,0-.88-.53-1.43-2.65-1.78l-1.43-.25c-3.1-.55-4.51-1.8-4.51-3.63,0-2.23,2.13-3.68,5.26-3.68,2.78,0,4.98,1.35,5.53,3.73h-2.53c-.43-1.05-1.75-1.58-3.03-1.58-1.73,0-2.83.55-2.83,1.45,0,.8.73,1.3,2.43,1.58l1.45.25c3.53.6,4.66,1.93,4.66,3.9,0,2.18-2.05,3.68-5.46,3.68-3.05,0-5.48-1.53-5.83-4.21"/>
      <path d="M420.97,447.44c.55,0,1-.02,1.53-.15v2.18c-.3.1-.95.22-1.65.22-2.73,0-3.98-1.35-3.98-3.91v-6.61h-2.5v-2.25h2.5v-3.25h2.38v3.25h3.51v2.25h-3.51v6.61c0,1,.38,1.65,1.73,1.65"/>
      <path d="M443.91,449.44h-2.38v-1.88c-1.03,1.33-2.55,2.13-4.23,2.13-3.33,0-5.91-2.71-5.91-6.51s2.58-6.51,5.91-6.51c1.75,0,3.3.88,4.36,2.28v-2.03h2.25v12.52ZM437.7,447.49c2.25,0,3.91-1.8,3.91-4.31s-1.65-4.31-3.91-4.31-3.86,1.8-3.86,4.31,1.63,4.31,3.86,4.31"/>
      <path d="M446.49,445.49h2.38c.45,1.48,1.65,2.1,3.56,2.1,1.8,0,3-.65,3-1.58,0-.88-.53-1.43-2.65-1.78l-1.43-.25c-3.1-.55-4.51-1.8-4.51-3.63,0-2.23,2.13-3.68,5.26-3.68,2.78,0,4.98,1.35,5.53,3.73h-2.53c-.43-1.05-1.75-1.58-3.03-1.58-1.73,0-2.83.55-2.83,1.45,0,.8.73,1.3,2.43,1.58l1.45.25c3.53.6,4.66,1.93,4.66,3.9,0,2.18-2.05,3.68-5.46,3.68-3.05,0-5.48-1.53-5.83-4.21"/>
      <polygon points="472.03 449.22 465.93 436.92 468.75 436.92 473.29 446.69 477.34 436.92 479.97 436.92 472.64 453.7 470.06 453.7 472.03 449.22"/>
      <path d="M481.1,443.18c0-3.68,2.9-6.51,6.66-6.51s6.61,2.83,6.61,6.51-2.88,6.51-6.61,6.51-6.66-2.83-6.66-6.51M487.76,447.49c2.35,0,4.16-1.88,4.16-4.31s-1.8-4.31-4.16-4.31-4.21,1.88-4.21,4.31,1.83,4.31,4.21,4.31"/>
      <path d="M508.77,449.44h-2.25v-2c-.9,1.35-2.43,2.25-4.13,2.25-2.98,0-5.38-1.88-5.38-5.83v-6.94h2.38v6.89c0,2.28,1.53,3.61,3.43,3.61,2.2,0,3.58-1.75,3.58-3.81v-6.69h2.38v12.52Z"/>
      <path d="M531.19,449.44h-2.38v-1.88c-1.03,1.33-2.55,2.13-4.23,2.13-3.33,0-5.91-2.71-5.91-6.51s2.58-6.51,5.91-6.51c1.75,0,3.3.88,4.36,2.28v-2.03h2.25v12.52ZM524.98,447.49c2.25,0,3.91-1.8,3.91-4.31s-1.65-4.31-3.91-4.31-3.86,1.8-3.86,4.31,1.63,4.31,3.86,4.31"/>
      <path d="M541.28,438.98c-2.28,0-3.71,1.7-3.71,3.68v6.79h-2.38v-12.52h2.25v1.93c.9-1.3,2.43-2.18,4.13-2.18.38,0,.78.02,1.13.07v2.33c-.45-.1-.9-.1-1.43-.1"/>
      <path d="M550.5,436.67c4.11,0,6.66,2.93,6.33,7.49h-10.27c.35,1.95,2,3.33,3.96,3.33,1.75,0,2.83-.7,3.46-1.78h2.45c-.8,2.33-3.16,3.98-5.91,3.98-3.73,0-6.43-2.75-6.43-6.51s2.7-6.51,6.41-6.51M554.28,442.08c-.2-2.03-1.78-3.3-3.83-3.3s-3.53,1.38-3.86,3.3h7.69Z"/>
      <path class="st20" d="M536.3,351.52c.37,9.16.33,16.62.22,21.67-.42,19.8-2.29,27.1,2.98,34.57,3.62,5.12,8.65,7.56,9.93,8.15,3.15,1.44,6.51,2.15,15.03,1.95,15.51-.37,26.16-.63,32.97-8.16.97-1.07,2.47-2.77,3.37-5.44,2.42-7.26-.95-17.82-9.4-21.88-6.9-3.31-15.92-1.67-19.84,3.23-3.42,4.28-2.27,10.19-2.74,10.18-.82,0-1.34-17.96-1.57-25.07-.29-9.29-.58-16.89-.78-21.94,4.16-.26,7.8-.55,10.77-.83,4.7-.44,5.82-.64,7.03-1.51,3.62-2.61,3.64-8.04,3.65-9.88,0-1.78.03-7.83-4.01-10.68-.1-.07-.22-.15-.35-.23-3.09-1.76-6.24-1.42-8.82-1.2-2.38.21-5.66.36-9.88.18.91-5.61.9-10.29.69-13.64-.44-7.04-1.85-9.78-2.3-10.61-.85-1.55-2.55-4.67-6.1-6.43-4.86-2.4-11.13-1.22-14.99,2.04-3.31,2.8-4.1,6.71-5.54,14.42-1.18,6.32-1.36,11.62-1.32,15.18-1.87.09-4.54.25-7.74.53-8.41.75-9.52,1.39-10.24,1.96-3.24,2.57-3.27,7.42-3.29,11.21-.02,3.56-.06,9.19,3.38,11.48,1.82,1.21,3.32.64,9.97.53,3.84-.06,6.95.07,8.91.19"/>
      <path class="st20" d="M610.7,308.92c-4.41,16.63-2.99,41.64-2.78,55.8.4,27.4-3.31,43.01,5.34,49.93,5.82,4.66,11.65,4.26,11.65,4.26,0,0,4.91-.33,8.98-3.91,11.74-10.3-2.32-35.52,8.07-44.13,4.77-3.95,13.94-3.78,18.19.29,8.92,8.52-6.89,31.06,3.41,41.78,2.21,2.29,6.29,4.76,11.09,5.12,4.3.32,8.33-1.13,10.8-2.84,10.17-7.06,7.03-27.86,4.46-44.86-2-13.24-3.1-19.97-8.06-25.44-7.4-8.17-21.51-13.86-33.35-8.42-6.47,2.97-10.04,8.24-11.65,11.08,5.39-21.51,5.05-39.25-.58-46.34-4.21-5.29-8.91-6.15-8.91-6.15-4.25-.77-7.74,1.06-8.7,1.61-5.15,2.95-7.04,8.77-7.96,12.22"/>
      <path class="st20" d="M284.87,351.14c2.17-2.72,5.82-3.18,7.91-1.68,2.42,1.74,2.95,6.22,0,9.11,2.56.88,4.03,3.43,3.6,5.75-.51,2.74-3.6,4.73-6.71,3.84-.34,2.79-2.76,4.86-5.51,4.79-2.83-.07-5.18-2.39-5.27-5.27-3.17.73-6.39-1.07-7.43-4.08-1.08-3.11.49-6.62,3.6-7.91-2.23-3.68-1.05-7.86,1.2-9.11,2.4-1.34,6.99.15,8.63,4.55"/>
      <path class="st20" d="M421.74,373.26c-8.35-17.19-27.82-19.13-28.82-19.21,6.76-11.58,7.16-25.24.74-33.99-9.2-12.54-32.65-15.32-49.5,0-2.1-1.52-8.59-5.79-17.36-5.17-.72.05-6.92.54-11.45,3.7-7.46,5.19-7.33,15.46-7.02,48.02.3,31.62.33,38.62,6.65,44.33,4.76,4.31,12.24,7.11,19.95,5.91,11.55-1.79,17.32-11.56,18.1-12.93,3.87,3.55,14.36,12.22,29.92,13.67,3.93.37,28.32,2.63,38.42-14.41,8.03-13.55.87-28.9.37-29.92M349.13,351.04c.05-.9,1.09-15.46,11.3-19.94,1.36-.6,7.22-3.17,11.79.04,3.06,2.15,4.48,6.13,3.98,9.52-.83,5.71-6.9,8.44-9.7,9.7-7.42,3.33-14.63,1.54-17.38.68M394.56,387.59c-2.67,6.92-17.54,9.74-27.44,3.97-10.08-5.88-11.19-18.41-11.3-19.94,2.59-1.01,6.47-2.22,11.3-2.58,3.97-.3,17.77-1.35,24.5,7.65.71.95,4.72,6.31,2.94,10.91"/>
      <path class="st20" d="M262.93,372.53c-8.35-17.19-27.82-19.13-28.82-19.21,6.76-11.58,7.16-25.24.74-33.99-9.2-12.54-32.65-15.32-49.5,0-2.1-1.52-8.59-5.79-17.36-5.17-.72.05-6.92.54-11.45,3.69-7.46,5.19-7.33,15.46-7.02,48.03.3,31.62.33,38.62,6.65,44.33,4.76,4.31,12.24,7.11,19.95,5.91,11.55-1.79,17.32-11.56,18.1-12.93,3.87,3.55,14.36,12.22,29.92,13.67,3.93.37,28.32,2.63,38.42-14.41,8.03-13.55.87-28.9.37-29.92M190.32,350.31c.05-.9,1.09-15.46,11.3-19.95,1.36-.6,7.22-3.17,11.79.04,3.06,2.15,4.48,6.13,3.98,9.52-.83,5.71-6.9,8.44-9.7,9.7-7.42,3.33-14.63,1.54-17.38.68M235.75,386.85c-2.67,6.92-17.54,9.74-27.44,3.97-10.08-5.88-11.19-18.41-11.3-19.94,2.59-1.01,6.47-2.22,11.3-2.58,3.97-.3,17.77-1.35,24.5,7.65.71.95,4.72,6.31,2.94,10.91"/>
      <path class="st20" d="M512.2,373.41c-.13-23.65,1.03-31.26-5.13-36.78-.96-.86-5.44-4.87-11.55-4.28-6.67.65-10.5,6.32-11.12,7.27-3.26-2.07-10.02-5.71-18.82-5.56-18.48.32-29.13,17.06-30.79,19.67-1.58,2.48-11.69,18.97-4.7,37.63,5.5,14.71,20.18,26.92,36.35,26.51,7.82-.2,13.95-3.29,17.53-5.56,1.47,1.19,5.45,4.08,11.12,4.28,5.77.2,10.27-2.5,12.4-4.28,6.31-5.26,4.85-13.27,4.7-38.91M480.98,377.78c-.05,1.03-.54,8.47-6.97,12.74-.96.64-6.1,3.89-12.01,2.15-6.88-2.03-10.08-9.41-10.49-14.88-.46-6.07,2.17-14.31,8.99-16.86,5.9-2.21,11.49,1.14,12.44,1.72,5.19,3.11,8.33,9.05,8.04,15.14"/>
    </g>
  </g>
</svg>