<svg width="117" height="67" viewBox="0 0 117 67" fill="none" xmlns="http://www.w3.org/2000/svg">
<g filter="url(#filter0_d_1850_79634)">
<rect width="109" height="60" transform="translate(4 3)" fill="white"/>
<path d="M79.6456 9H37.3539C36.0537 9 34.9998 10.2106 34.9998 11.7039V54.2961C34.9998 55.7894 36.0537 57 37.3539 57H79.6456C80.9458 57 81.9998 55.7894 81.9998 54.2961V11.7039C81.9998 10.2106 80.9458 9 79.6456 9Z" fill="white"/>
<path d="M79.6456 9H37.3539C36.0537 9 34.9998 10.2106 34.9998 11.7039V54.2961C34.9998 55.7894 36.0537 57 37.3539 57H79.6456C80.9458 57 81.9998 55.7894 81.9998 54.2961V11.7039C81.9998 10.2106 80.9458 9 79.6456 9Z" stroke="#FC4114" stroke-width="1.25" stroke-miterlimit="22.93"/>
<path fill-rule="evenodd" clip-rule="evenodd" d="M66.8072 23.2123L66.8121 32.5105L65.7339 32.4726L65.7546 23.2053C65.9329 23.1225 66.6338 23.0931 66.8072 23.2123Z" fill="white"/>
<path fill-rule="evenodd" clip-rule="evenodd" d="M68.5018 33.6534L71.7888 33.6618L71.8059 40.4959L45.2216 40.5001L45.1984 33.673C52.9666 33.6183 60.7348 33.6632 68.503 33.652M72.3676 32.875L72.3493 41.2854L44.6941 41.2911C44.7051 40.6894 44.6599 33.9058 44.6526 32.9157C53.8836 32.889 63.1427 32.9423 72.3676 32.8764V32.875Z" fill="#FC4114"/>
<path fill-rule="evenodd" clip-rule="evenodd" d="M52.1319 42.7303C52.3358 44.0079 53.8108 46.0274 54.6362 46.8885C55.3029 47.5841 57.7267 49.4984 58.469 49.5363C59.2359 49.5756 61.6633 47.5869 62.33 46.9306C63.0259 46.2448 64.6951 43.9882 64.8648 42.7303L63.4045 42.3502C63.1957 42.3053 63.0736 42.2969 62.899 42.1595L65.9601 42.1342C65.5987 44.0892 63.9759 46.4061 63.1285 47.3653C62.2311 48.3807 59.535 50.532 58.5289 50.5937C58.0991 50.6204 56.3371 49.4998 55.9928 49.2544C55.2187 48.7047 54.4604 48.0441 53.9097 47.3976C52.8389 46.141 51.3614 43.9742 51.0427 42.1328L54.0465 42.137C53.9024 42.2829 53.8938 42.2857 53.6008 42.3516L52.1319 42.7303Z" fill="#FBFBFB"/>
<path fill-rule="evenodd" clip-rule="evenodd" d="M51.9441 46.7012C53.5999 48.9999 55.7 50.7024 58.2312 51.9155C58.5768 52.0656 58.6293 52.0768 59.2105 51.7823L61.5903 50.3336C65.5049 47.5708 66.7601 43.6972 66.9091 43.5373L67.2608 42.4504H73.3415L73.333 31.6797C71.0448 31.7821 67.8408 32.0471 65.5281 32.3192L72.7737 32.3346V41.7969C71.9495 41.8039 67.1045 41.7759 66.8542 41.8011C66.6246 42.0199 65.8065 47.4235 59.5414 50.8581C59.3412 50.9675 59.1702 51.0839 59.0005 51.1666C58.7465 51.2914 58.4962 51.3391 58.1592 51.175C56.8844 50.5538 55.6719 49.7235 54.6121 48.7586C53.5376 47.7797 52.6536 46.7405 51.8489 45.4475C51.192 44.39 50.6095 43.0381 50.2774 41.8039L44.2199 41.7899L44.2443 32.336L51.3934 32.2926C48.8427 32.1074 46.2553 31.834 43.6533 31.6811L43.6582 42.4462L49.8562 42.4518C50.4703 44.052 50.9319 45.2974 51.9405 46.6998" fill="#F9981C"/>
<path fill-rule="evenodd" clip-rule="evenodd" d="M53.6008 42.3516C53.8951 42.2871 53.9024 42.2829 54.0465 42.137L51.0427 42.1328C51.3626 43.9742 52.8389 46.141 53.9097 47.3976C54.729 48.3597 57.4312 50.5152 58.5643 50.5895C59.5704 50.5278 62.2323 48.3793 63.1297 47.3639C63.9771 46.4047 65.5999 44.0878 65.9613 42.1328L62.9002 42.1581C63.0736 42.2955 63.1969 42.3039 63.4057 42.3488L64.866 42.7289C64.6963 43.9868 63.0272 46.2434 62.3312 46.9292C61.6633 47.5869 59.2383 49.57 58.5643 49.5307C57.8219 49.4928 55.8157 48.1044 54.6374 46.8871C53.812 46.026 52.337 44.0065 52.1331 42.7289L53.602 42.3502L53.6008 42.3516Z" fill="#FC4114"/>
<path fill-rule="evenodd" clip-rule="evenodd" d="M61.8443 43.5958L61.8553 43.8552C62.0287 43.8118 61.9603 43.858 62.0519 43.743C62.1825 43.8426 62.1483 43.7276 62.2289 43.9225C62.3327 44.1736 62.2668 44.0347 62.2973 44.3026C62.0873 44.29 61.8284 44.2339 61.8077 44.2227C61.6746 44.0544 61.7405 44.2255 61.7026 43.9057C61.7026 43.9015 61.7136 43.6673 61.7136 43.6617C61.5305 43.283 61.7075 43.5986 61.5085 43.4471L61.4768 44.2381L61.3327 44.2115C61.0445 44.067 60.8467 43.743 60.7649 43.4219C61.1031 43.4766 60.9749 43.391 61.1788 43.5986C61.2423 43.6631 61.2997 43.7669 61.3534 43.8721L61.2985 43.4401C61.721 43.4976 61.981 43.3223 62.224 43.5818C62.0531 43.6687 62.0677 43.6365 61.8455 43.5944" fill="#FBFBFB"/>
<path fill-rule="evenodd" clip-rule="evenodd" d="M56.5935 43.5006C56.7693 43.5749 56.6448 43.4543 56.7596 43.7082C56.7645 43.7194 56.7718 43.7488 56.7754 43.7573C56.7791 43.7657 56.7828 43.7909 56.7901 43.8049L56.9464 43.4922C57.0709 43.955 56.8218 43.5693 57.0563 44.2088C56.8463 44.1345 56.889 44.1415 56.7925 43.9003L56.5911 44.2243L56.5947 43.4992L56.5935 43.5006Z" fill="#FBFBFB"/>
<path fill-rule="evenodd" clip-rule="evenodd" d="M60.4412 44.1421C60.5095 43.8224 60.3826 43.7312 60.5559 43.4844L60.6255 44.1884C60.4192 44.2207 60.5254 44.2024 60.4424 44.1421" fill="#FBFBFB"/>
<path d="M54.1203 42.9091C54.3938 42.9091 54.5305 43.0633 54.5305 43.3733C54.5305 43.4799 54.5159 43.5752 54.4853 43.6594C54.4536 43.7449 54.4084 43.8122 54.3498 43.8613C54.2924 43.9076 54.2216 43.9328 54.1361 43.9356C54.0824 43.9356 54.0287 43.9216 53.9737 43.895V44.0983C53.9737 44.1614 53.9762 44.2091 53.9823 44.24C53.9884 44.2722 53.9994 44.2947 54.0153 44.3073C54.0299 44.3185 54.0568 44.3269 54.0958 44.3297C54.1093 44.3466 54.1154 44.3704 54.1154 44.4041C54.1154 44.4167 54.1142 44.4293 54.1105 44.4419C54.1068 44.456 54.1019 44.4658 54.0958 44.4728H53.6013C53.5891 44.4588 53.5842 44.4363 53.5842 44.4055C53.5842 44.369 53.5903 44.3438 53.6013 44.3283C53.6404 44.3255 53.6673 44.3171 53.6819 44.3059C53.6978 44.2919 53.7088 44.2694 53.7149 44.2386C53.721 44.2077 53.7234 44.16 53.7234 44.0969V44.0254H53.7259V43.7351C53.6587 43.7 53.6257 43.6748 53.6257 43.658C53.6257 43.6425 53.6587 43.6243 53.7259 43.6019V43.2779C53.7259 43.2527 53.7259 43.2274 53.7234 43.2008C53.7234 43.1966 53.7234 43.1938 53.721 43.1923C53.7198 43.1769 53.7185 43.1643 53.7173 43.1545V43.1503C53.7173 43.1503 53.7173 43.1475 53.7173 43.1447C53.7173 43.1419 53.7173 43.1405 53.7173 43.1391C53.7112 43.111 53.7002 43.09 53.6856 43.0759C53.6807 43.0717 53.6734 43.0675 53.666 43.0619C53.6648 43.0619 53.6636 43.0619 53.6624 43.0591C53.6453 43.0549 53.627 43.0507 53.605 43.0479C53.5928 43.0339 53.5879 43.01 53.5879 42.9736C53.5879 42.9427 53.594 42.9189 53.605 42.9062C53.7002 42.9105 53.7833 42.9133 53.8516 42.9133L54.0201 42.9105C54.047 42.9091 54.0726 42.9077 54.0971 42.9077H54.1227L54.1203 42.9091ZM53.848 44.3353C53.8602 43.9889 53.8651 43.7744 53.8651 43.693C53.8651 43.6117 53.859 43.3971 53.848 43.0521C53.8358 43.3971 53.8309 43.6103 53.8309 43.693C53.8309 43.7758 53.837 43.9889 53.848 44.3353ZM54.2179 43.7028C54.2521 43.6481 54.2692 43.5612 54.2692 43.442C54.2692 43.3228 54.2509 43.2274 54.2143 43.1587C54.1801 43.0928 54.1288 43.0577 54.0617 43.0549C54.0397 43.0591 54.0238 43.0661 54.014 43.0731C53.9982 43.0872 53.9872 43.1096 53.9811 43.1405C53.9762 43.1727 53.9737 43.219 53.9737 43.2807V43.7561C54.0238 43.7758 54.0617 43.7856 54.0897 43.7856C54.1435 43.7842 54.1862 43.7575 54.2192 43.7042L54.2179 43.7028Z" fill="#FC4114"/>
<path d="M55.7266 44.3219C55.7449 44.3261 55.7584 44.3359 55.7669 44.3528C55.7754 44.3682 55.7791 44.385 55.7779 44.4005C55.7767 44.4173 55.7706 44.4313 55.7584 44.4439C55.7461 44.4566 55.7327 44.4636 55.7156 44.4636H55.6729C55.6424 44.465 55.6204 44.465 55.6057 44.4636C55.5911 44.4636 55.5728 44.4622 55.5483 44.4608C55.5251 44.4608 55.5068 44.4566 55.4958 44.4523C55.4836 44.4481 55.469 44.4411 55.4519 44.4327C55.4348 44.4243 55.4201 44.4145 55.4091 44.4019C55.3982 44.3892 55.3872 44.3738 55.3725 44.3556C55.3591 44.3373 55.3469 44.3163 55.3359 44.2911C55.3249 44.2658 55.3139 44.2378 55.3017 44.2041L55.2822 44.148C55.259 44.0681 55.2358 44.005 55.2138 43.9573C55.2089 43.9489 55.2028 43.9376 55.1979 43.9264C55.1857 43.9152 55.1747 43.9068 55.1625 43.897C55.1503 43.8872 55.1369 43.8802 55.1198 43.8745C55.1027 43.8689 55.0868 43.8745 55.0721 43.8886C55.0575 43.9026 55.0477 43.9306 55.0404 43.9657V44.0947C55.0404 44.1578 55.0441 44.2055 55.0502 44.2364C55.0563 44.2686 55.0673 44.2911 55.0819 44.3037C55.0966 44.3149 55.1234 44.3233 55.1625 44.3261C55.1771 44.343 55.1845 44.3668 55.1845 44.4005C55.1845 44.4341 55.1771 44.4552 55.1625 44.4706H54.6704C54.6582 44.4566 54.6533 44.4341 54.6533 44.4033C54.6533 44.3668 54.6594 44.3416 54.6704 44.3261C54.7095 44.3233 54.7363 44.3149 54.751 44.3037C54.7669 44.2897 54.7779 44.2672 54.784 44.2364C54.7901 44.2055 54.7925 44.1578 54.7925 44.0947V43.7259C54.7363 43.6936 54.707 43.6712 54.7058 43.6558C54.7058 43.6403 54.7351 43.6235 54.7925 43.6039V43.2729C54.7925 43.2098 54.7901 43.1635 54.7852 43.1326C54.7791 43.1032 54.7681 43.0808 54.7522 43.0667C54.7498 43.0639 54.7461 43.0611 54.74 43.0597C54.7107 43.0583 54.69 43.0597 54.6753 43.0625H54.6729V43.0597C54.657 43.0429 54.6497 43.0176 54.6497 42.9826V42.9784C54.6497 42.9447 54.657 42.9209 54.6716 42.904V42.9012C54.7754 42.9055 54.856 42.9083 54.9146 42.9083C54.9329 42.9083 54.9696 42.9069 55.0245 42.904H55.0367C55.0489 42.9026 55.0575 42.9012 55.0636 42.9012C55.121 42.8998 55.1759 42.8984 55.226 42.8984C55.353 42.8984 55.4482 42.9363 55.5141 43.0134C55.5801 43.0906 55.6118 43.1887 55.6118 43.3108C55.6118 43.4328 55.5886 43.5281 55.5435 43.6053C55.4971 43.6838 55.436 43.7357 55.3566 43.7623C55.3957 43.7988 55.4275 43.8395 55.4531 43.8858C55.4775 43.9334 55.5129 44.0162 55.5569 44.134C55.5874 44.2055 55.6118 44.2532 55.6326 44.277C55.6533 44.3009 55.6851 44.3135 55.7278 44.3191L55.7266 44.3219ZM54.9195 44.3331C54.9317 43.9867 54.9366 43.7722 54.9366 43.6908C54.9366 43.6095 54.9305 43.3949 54.9195 43.0499C54.9073 43.3949 54.9024 43.6081 54.9024 43.6908C54.9024 43.7736 54.9085 43.9867 54.9195 44.3331ZM55.0404 43.6039C55.0538 43.6459 55.0758 43.6698 55.1088 43.6754C55.1759 43.674 55.2321 43.6459 55.2773 43.5926C55.3249 43.538 55.3481 43.4594 55.3481 43.3542C55.3481 43.2561 55.3298 43.1803 55.2931 43.127C55.2577 43.0709 55.2052 43.0443 55.1344 43.0443C55.1198 43.0443 55.1051 43.0457 55.0892 43.0485C55.0648 43.0625 55.0477 43.0878 55.0404 43.1256V43.6053V43.6039ZM55.6021 44.3836C55.6155 44.3878 55.6265 44.3892 55.635 44.3878C55.6167 44.3864 55.596 44.378 55.574 44.3626C55.5715 44.3598 55.5679 44.357 55.5618 44.3542C55.5605 44.3528 55.5581 44.35 55.5557 44.3472C55.5532 44.3458 55.552 44.3444 55.552 44.343C55.5496 44.3416 55.5422 44.3345 55.5325 44.3233C55.5312 44.3233 55.5288 44.3219 55.5264 44.3191C55.5264 44.3177 55.5264 44.3163 55.5239 44.3163C55.5227 44.3163 55.5215 44.3149 55.5215 44.3135C55.5215 44.3135 55.5215 44.3107 55.519 44.3079C55.5166 44.3051 55.5154 44.3037 55.5141 44.3037C55.5117 44.3009 55.5068 44.2939 55.5007 44.2812C55.4971 44.277 55.4885 44.263 55.4775 44.2406C55.4751 44.2392 55.4714 44.2336 55.4678 44.2223C55.4665 44.2223 55.4653 44.2181 55.4629 44.2139C55.4604 44.2097 55.4604 44.2069 55.4604 44.2055L55.458 44.2027L55.4543 44.1957C55.4543 44.1957 55.4543 44.1901 55.4519 44.1873C55.4494 44.1845 55.4482 44.1789 55.4446 44.1719C55.4433 44.1691 55.4421 44.1662 55.4409 44.1634C55.4397 44.1606 55.4384 44.1578 55.4372 44.1564C55.4372 44.1536 55.4372 44.1508 55.4348 44.1466C55.4336 44.1424 55.4323 44.141 55.4311 44.1382C55.4275 44.127 55.4238 44.1172 55.4189 44.1059C55.3981 44.0526 55.3774 44.0064 55.3566 43.9685C55.3334 43.932 55.3139 43.904 55.298 43.883C55.2858 43.8703 55.2785 43.8647 55.276 43.8633C55.2638 43.8507 55.2565 43.8437 55.2541 43.8409C55.2516 43.8395 55.2492 43.8381 55.2467 43.8353C55.2443 43.8325 55.2419 43.8311 55.2406 43.8297L55.2333 43.8255C55.2333 43.8255 55.2284 43.8226 55.2272 43.8212C55.2138 43.8142 55.2028 43.8086 55.1942 43.8072C55.2028 43.81 55.2126 43.8156 55.2235 43.8255C55.2248 43.8269 55.2272 43.8283 55.2309 43.8297C55.2309 43.8311 55.2333 43.8339 55.237 43.8367C55.2394 43.8395 55.2419 43.8423 55.2431 43.8437C55.2455 43.8451 55.248 43.8465 55.2492 43.8479C55.2516 43.8507 55.2577 43.8591 55.2687 43.8731C55.2699 43.8745 55.276 43.883 55.2858 43.8984C55.298 43.918 55.3139 43.9475 55.3334 43.9867C55.3347 43.9895 55.3371 43.9951 55.3408 44.005C55.3444 44.0148 55.3469 44.0204 55.3481 44.0246C55.3542 44.0414 55.3591 44.0526 55.3615 44.0611C55.3627 44.0639 55.364 44.0681 55.3652 44.0709C55.3664 44.0751 55.3676 44.0793 55.3701 44.0835C55.3725 44.0877 55.3725 44.0905 55.3725 44.0919C55.3774 44.1059 55.3823 44.1172 55.3859 44.1256C55.3896 44.1368 55.3933 44.1466 55.3982 44.1564L55.4055 44.1719C55.4055 44.1719 55.4091 44.1803 55.4128 44.1901C55.4177 44.1985 55.4201 44.2041 55.4201 44.2055C55.4226 44.2097 55.4238 44.2125 55.4238 44.2139C55.425 44.2153 55.4275 44.2181 55.4299 44.2223C55.4323 44.2266 55.436 44.2336 55.4397 44.2406C55.4458 44.249 55.4507 44.256 55.4531 44.2588C55.4665 44.2784 55.4751 44.2911 55.48 44.2967C55.4885 44.3079 55.4946 44.3135 55.4971 44.3163C55.5007 44.3205 55.5044 44.3247 55.5068 44.3275C55.5093 44.3289 55.5105 44.3303 55.5105 44.3317C55.5129 44.3331 55.5154 44.3345 55.5166 44.3359C55.5288 44.3472 55.5361 44.3528 55.5398 44.3542L55.5459 44.3584L55.552 44.3626C55.552 44.3626 55.5605 44.3668 55.5654 44.371C55.5679 44.371 55.5703 44.371 55.5715 44.371C55.5728 44.371 55.574 44.3724 55.5764 44.3738C55.5789 44.3738 55.5801 44.3752 55.5813 44.3766C55.5825 44.3766 55.5837 44.3766 55.5862 44.3766C55.5886 44.3766 55.5899 44.378 55.5923 44.3794C55.5947 44.3794 55.596 44.3794 55.5972 44.3794L55.6021 44.3836ZM55.3212 43.0008C55.3066 42.9966 55.2944 42.9938 55.2822 42.9938C55.2944 42.9952 55.3066 42.9994 55.3188 43.005C55.3298 43.0106 55.3395 43.0176 55.3505 43.0247C55.3518 43.0261 55.3566 43.0303 55.364 43.0359L55.3774 43.0471C55.3774 43.0471 55.3823 43.0513 55.3835 43.0513L55.3896 43.0583L55.3994 43.0723C55.4116 43.0878 55.4214 43.1032 55.4311 43.1214C55.4384 43.1383 55.4458 43.1551 55.4507 43.1705C55.458 43.1972 55.4641 43.2266 55.4678 43.2589C55.4678 43.2617 55.4678 43.2659 55.4702 43.2701V43.2785C55.4702 43.2785 55.4702 43.2883 55.4726 43.2981C55.4726 43.2995 55.4726 43.3051 55.4726 43.315C55.4726 43.3248 55.4726 43.3318 55.4726 43.336V43.3949C55.4726 43.3949 55.4702 43.4019 55.4702 43.4033V43.4145C55.4665 43.4468 55.4604 43.4748 55.4531 43.5029C55.4397 43.5408 55.4226 43.573 55.4006 43.5997C55.3847 43.6179 55.3688 43.6333 55.3518 43.6473C55.3408 43.6544 55.331 43.6614 55.32 43.667C55.3066 43.674 55.2944 43.6796 55.2822 43.6824C55.2944 43.681 55.3066 43.6768 55.3212 43.6712C55.3322 43.667 55.3432 43.6614 55.3542 43.6558C55.3737 43.6445 55.392 43.6291 55.4091 43.6137C55.436 43.587 55.4592 43.5534 55.4763 43.5141C55.4897 43.4847 55.4983 43.4524 55.5032 43.4201C55.5032 43.4187 55.5032 43.4145 55.5056 43.4089V43.3977L55.508 43.3893V43.3374C55.508 43.3374 55.508 43.3178 55.5056 43.2939C55.5056 43.2925 55.5056 43.2855 55.5032 43.2743C55.5019 43.2687 55.5007 43.2645 55.5007 43.2631C55.4995 43.2589 55.4983 43.2547 55.4983 43.2519C55.4934 43.2182 55.4848 43.1887 55.4726 43.1593C55.4653 43.1425 55.4555 43.1256 55.4446 43.1074C55.4336 43.0892 55.4214 43.0723 55.4055 43.0583C55.3994 43.0513 55.3945 43.0471 55.3933 43.0471C55.3896 43.0443 55.3872 43.0415 55.3872 43.0401C55.3859 43.0387 55.3835 43.0373 55.3798 43.0359C55.3798 43.0345 55.375 43.0303 55.3664 43.0247C55.3591 43.0205 55.353 43.0176 55.3505 43.0162C55.3395 43.0106 55.3286 43.005 55.3176 43.0008H55.3212Z" fill="#FC4114"/>
<path d="M56.3278 44.3073C56.3424 44.3185 56.3693 44.3269 56.4083 44.3297C56.4206 44.3452 56.4254 44.3704 56.4254 44.4069C56.4254 44.4377 56.4193 44.4602 56.4083 44.4742H55.9163C55.9028 44.4588 55.8967 44.4363 55.8967 44.4041C55.8967 44.3718 55.9028 44.3466 55.9163 44.3297C55.9553 44.3269 55.9822 44.3185 55.9969 44.3073C56.0127 44.2933 56.0237 44.2708 56.0298 44.24C56.0359 44.2091 56.0384 44.1614 56.0384 44.0983V43.7337C55.9749 43.7 55.9419 43.6762 55.9419 43.6594C55.9419 43.6439 55.9737 43.6257 56.0384 43.6047V43.3522H56.0359V43.2807C56.0359 43.219 56.0335 43.1727 56.0274 43.1405C56.0213 43.1096 56.0103 43.0858 55.9944 43.0731C55.9798 43.0605 55.9529 43.0535 55.9138 43.0479C55.9016 43.0339 55.8967 43.01 55.8967 42.9736C55.8967 42.9427 55.9028 42.9189 55.9138 42.9062H56.4059C56.4193 42.9217 56.4254 42.9441 56.4254 42.9764C56.4254 43.01 56.4193 43.0339 56.4059 43.0479C56.3668 43.0521 56.34 43.0605 56.3253 43.0731C56.3094 43.0872 56.2984 43.1096 56.2936 43.1405C56.2875 43.1727 56.285 43.219 56.285 43.2807V43.3508H56.2875V43.6047C56.3497 43.6257 56.3815 43.6439 56.3815 43.6594C56.3815 43.6762 56.3497 43.7 56.2875 43.7337V44.0983C56.2875 44.1614 56.2899 44.2091 56.296 44.24C56.3021 44.2722 56.3131 44.2947 56.329 44.3073H56.3278ZM56.1605 44.3353C56.1727 43.9889 56.1776 43.7744 56.1776 43.693C56.1776 43.6117 56.1715 43.3971 56.1605 43.0521C56.1483 43.3971 56.1434 43.6103 56.1434 43.693C56.1434 43.7758 56.1495 43.9889 56.1605 44.3353Z" fill="#FC4114"/>
<path d="M57.4851 43.0625C57.5962 43.1677 57.6512 43.3626 57.6512 43.6473C57.6512 43.8745 57.6158 44.047 57.5437 44.1677C57.5083 44.228 57.4705 44.277 57.4314 44.3177C57.3911 44.357 57.3484 44.3878 57.3032 44.4061C57.2189 44.4411 57.1396 44.4594 57.0626 44.4622H57.0431C56.8941 44.4622 56.7378 44.465 56.573 44.4706H56.5657C56.5535 44.4551 56.5486 44.4327 56.5486 44.4005V44.3934C56.5486 44.3612 56.5547 44.3387 56.5657 44.3261H56.5828C56.6145 44.3233 56.6377 44.3149 56.6536 44.3009C56.6695 44.2883 56.6805 44.2658 56.6866 44.2336C56.6914 44.1985 56.6939 44.1494 56.6939 44.0821V43.7259C56.6316 43.6922 56.5986 43.6684 56.5974 43.6515C56.5974 43.6361 56.6292 43.6179 56.6939 43.5969V43.2701C56.6939 43.2084 56.6914 43.1621 56.6866 43.1298C56.6829 43.1158 56.6792 43.1046 56.6743 43.0962C56.6707 43.0878 56.6585 43.0765 56.6402 43.0653C56.6206 43.0527 56.5962 43.0457 56.5645 43.0401C56.5522 43.0261 56.5474 43.0036 56.5474 42.9728V42.9658C56.5474 42.9349 56.5535 42.9111 56.5645 42.8984H56.5718C56.678 42.9012 56.7916 42.904 56.9149 42.9055C56.9271 42.904 56.9369 42.9026 56.9442 42.9026L57.0455 42.8998C57.2287 42.8998 57.3752 42.9517 57.4851 43.0569V43.0625ZM56.8197 44.3317C56.8319 43.9853 56.8367 43.7708 56.8367 43.6894C56.8367 43.6081 56.8306 43.3935 56.8197 43.0485C56.8062 43.3935 56.8001 43.6067 56.8001 43.6894C56.8001 43.7722 56.8062 43.9853 56.8197 44.3317ZM56.9979 44.3009C57.0162 44.3149 57.0443 44.3205 57.0822 44.3205C57.1713 44.3205 57.2446 44.2756 57.3032 44.1859C57.3618 44.0975 57.3911 43.9306 57.3911 43.6866C57.3911 43.458 57.3581 43.2939 57.291 43.193C57.2238 43.0906 57.1383 43.0401 57.0346 43.0401C56.9967 43.0401 56.9662 43.0471 56.9442 43.0597V43.5997C57.0077 43.6207 57.0407 43.6389 57.0407 43.6544C57.0407 43.6712 57.0089 43.695 56.9442 43.7287V44.0779C56.9442 44.1438 56.9479 44.1943 56.9564 44.2294C56.9637 44.2644 56.9784 44.2883 56.9979 44.3009ZM57.5364 43.6922V43.6501C57.5352 43.6347 57.534 43.6207 57.534 43.6067L57.5315 43.5646C57.5315 43.5646 57.5315 43.5576 57.5315 43.552C57.5315 43.5464 57.5315 43.5436 57.5315 43.5422C57.5315 43.5394 57.5315 43.5351 57.5291 43.5309V43.5197C57.5291 43.5197 57.5266 43.5085 57.5266 43.4987C57.5266 43.4889 57.5254 43.4805 57.5242 43.4748C57.523 43.4622 57.5205 43.4468 57.5169 43.4272C57.5169 43.4229 57.5156 43.4145 57.5132 43.4047C57.512 43.3977 57.5095 43.3893 57.5071 43.3795C57.5071 43.3767 57.5071 43.3725 57.5047 43.3655L57.501 43.3542C57.4985 43.3458 57.4961 43.3374 57.4937 43.329C57.4924 43.322 57.4912 43.3164 57.4912 43.315C57.4912 43.3136 57.49 43.3108 57.4888 43.308C57.4876 43.3051 57.4876 43.3023 57.4863 43.3009C57.4851 43.2967 57.4827 43.2883 57.479 43.2757C57.4778 43.2729 57.4766 43.2701 57.4753 43.2673C57.4741 43.2645 57.4729 43.2603 57.4717 43.2575C57.4705 43.2533 57.4692 43.2505 57.468 43.249C57.4631 43.235 57.4595 43.2266 57.4558 43.2224C57.4485 43.2056 57.4436 43.1972 57.4424 43.1958C57.4363 43.1831 57.4302 43.1747 57.4265 43.1691C57.4033 43.1284 57.3752 43.0934 57.3447 43.0653C57.3423 43.0639 57.3374 43.0597 57.3313 43.0541C57.33 43.0541 57.3288 43.0541 57.3264 43.0513C57.3239 43.0485 57.3227 43.0485 57.3215 43.0471L57.3178 43.0429C57.3178 43.0429 57.3068 43.0373 57.302 43.0345C57.302 43.0331 57.302 43.0317 57.2995 43.0317C57.2971 43.0317 57.2959 43.0303 57.2959 43.0289C57.2959 43.0275 57.2934 43.0275 57.2922 43.0261C57.2897 43.0261 57.2897 43.0247 57.2897 43.0233C57.2702 43.0134 57.2482 43.0022 57.2226 42.9924C57.1982 42.984 57.1725 42.977 57.1457 42.9742C57.1151 42.9714 57.0883 42.9714 57.0639 42.9742C57.0883 42.9728 57.1164 42.9742 57.1457 42.9784C57.1701 42.984 57.1945 42.9924 57.2177 43.0008C57.2421 43.0106 57.2641 43.0233 57.2824 43.0373L57.2861 43.0401L57.2885 43.0429C57.2885 43.0429 57.2934 43.0457 57.2959 43.0471C57.302 43.0527 57.3068 43.0569 57.3093 43.0583C57.3154 43.0639 57.3203 43.0681 57.3215 43.0695C57.3276 43.0751 57.3325 43.0794 57.3349 43.0808C57.3642 43.1102 57.3887 43.1453 57.4094 43.1845C57.418 43.2014 57.4228 43.2098 57.4228 43.2112C57.4265 43.2196 57.4302 43.228 57.4351 43.2364C57.4375 43.2406 57.4412 43.2505 57.4448 43.2631C57.446 43.2645 57.4473 43.2687 57.4497 43.2743C57.4521 43.2799 57.4534 43.2855 57.4546 43.2897C57.4729 43.3458 57.4863 43.4089 57.4937 43.4805C57.4949 43.4833 57.4961 43.4973 57.4973 43.5239C57.4985 43.5267 57.4998 43.5309 57.4998 43.5351V43.5464C57.4998 43.5464 57.4998 43.5576 57.5022 43.566C57.5022 43.5688 57.5022 43.5758 57.5022 43.5856C57.5022 43.5955 57.5022 43.6039 57.5022 43.6095V43.6501L57.5047 43.6698C57.5047 43.6698 57.5047 43.6768 57.5047 43.6824C57.5047 43.688 57.5047 43.6908 57.5047 43.6922V43.7553C57.5047 43.7623 57.5047 43.7694 57.5022 43.775C57.501 43.8002 57.4998 43.8156 57.4998 43.8198C57.4985 43.8395 57.4973 43.8549 57.4961 43.8647C57.4961 43.8689 57.4961 43.8773 57.4937 43.8886C57.4924 43.8998 57.4912 43.9082 57.49 43.9138V43.925L57.4876 43.9362C57.4876 43.9362 57.4851 43.9517 57.4839 43.9629L57.4778 43.9881C57.4778 43.9881 57.4778 43.9951 57.4753 44.0022C57.4741 44.0078 57.4729 44.0134 57.4717 44.0162C57.4595 44.0639 57.4485 44.1003 57.4387 44.127C57.4216 44.1705 57.4009 44.2083 57.3764 44.242C57.3752 44.2434 57.3679 44.2518 57.3545 44.2686C57.3532 44.27 57.3508 44.2728 57.3484 44.2756L57.3423 44.2798C57.3361 44.2869 57.3313 44.2925 57.33 44.2939C57.3288 44.2953 57.3276 44.2967 57.3252 44.2981C57.3227 44.2995 57.3215 44.3009 57.3203 44.3023C57.3191 44.3037 57.3178 44.3051 57.3166 44.3051C57.3105 44.3093 57.3044 44.3135 57.3007 44.3163L57.2971 44.3205L57.2934 44.3233C57.2934 44.3233 57.2873 44.3275 57.2861 44.3275C57.2824 44.3303 57.28 44.3317 57.2788 44.3317C57.2763 44.3345 57.2739 44.3359 57.2714 44.3359C57.2495 44.35 57.2263 44.3598 57.2006 44.3654C57.1982 44.3668 57.1945 44.3682 57.1908 44.3682C57.1896 44.3682 57.1884 44.3682 57.186 44.3682C57.1835 44.3682 57.1823 44.3682 57.1811 44.3682C57.1701 44.3696 57.164 44.371 57.1591 44.371C57.1432 44.3724 57.1298 44.3724 57.1176 44.371C57.1298 44.3738 57.1432 44.3752 57.1591 44.3738H57.1811L57.1908 44.371C57.1908 44.371 57.1982 44.371 57.2006 44.3682C57.2263 44.364 57.2519 44.3556 57.2751 44.343C57.2763 44.343 57.2775 44.343 57.28 44.343C57.2824 44.343 57.2836 44.3416 57.2836 44.3401C57.2836 44.3401 57.2861 44.3387 57.2873 44.3373C57.2885 44.3359 57.291 44.3345 57.2922 44.3345C57.2946 44.3331 57.2971 44.3317 57.2995 44.3303L57.3032 44.3275L57.3068 44.3247C57.3068 44.3247 57.3154 44.3177 57.3227 44.3135C57.3239 44.3135 57.3264 44.3121 57.33 44.3093C57.3337 44.3065 57.3362 44.3037 57.3374 44.3023C57.3398 44.3009 57.3447 44.2967 57.3508 44.2911L57.3545 44.2869C57.3545 44.2869 57.3569 44.2841 57.3581 44.2841C57.3606 44.2812 57.363 44.2784 57.3642 44.277C57.3789 44.2616 57.3862 44.2532 57.3874 44.2504C57.4131 44.2195 57.4375 44.1803 57.4583 44.1354C57.4705 44.1087 57.4827 44.0709 57.4973 44.0232C57.501 44.0092 57.5034 44.0008 57.5047 43.9966L57.5108 43.9699C57.5108 43.9699 57.5132 43.9573 57.5169 43.9433C57.5169 43.9419 57.5169 43.9376 57.5193 43.932V43.925L57.5217 43.918C57.5217 43.918 57.5217 43.9082 57.5242 43.9026C57.5254 43.897 57.5266 43.89 57.5266 43.8844C57.5266 43.8787 57.5279 43.8731 57.5291 43.8689C57.5291 43.8675 57.5303 43.8521 57.5327 43.8241C57.534 43.817 57.5352 43.8016 57.5364 43.7792C57.5364 43.7722 57.5364 43.7637 57.5388 43.7567V43.7133C57.5388 43.7034 57.5388 43.6964 57.5413 43.6922H57.5364Z" fill="#FC4114"/>
<path d="M58.5332 44.1642C58.5674 44.1642 58.593 44.1712 58.6101 44.1867C58.5967 44.2666 58.5869 44.3606 58.5784 44.47C58.5661 44.4686 58.5466 44.4672 58.5198 44.4672C58.4929 44.4672 58.4709 44.4672 58.455 44.4672C58.3512 44.4658 58.2658 44.4644 58.1986 44.4644C58.1095 44.4644 58.0313 44.4644 57.963 44.4672C57.8848 44.4686 57.8067 44.4714 57.7297 44.4742H57.7224C57.7224 44.4742 57.7175 44.4672 57.7163 44.4658C57.709 44.4517 57.7041 44.4321 57.7041 44.4055V44.3984C57.7041 44.3662 57.7102 44.3437 57.7212 44.3311H57.7249C57.7554 44.3283 57.7774 44.3199 57.7932 44.3059C57.8103 44.2933 57.8213 44.2708 57.8262 44.2386C57.8323 44.2035 57.836 44.1544 57.836 44.0871V43.7253C57.781 43.6958 57.7529 43.6734 57.7517 43.658C57.7517 43.6439 57.7798 43.6285 57.836 43.6089V43.2779C57.836 43.2162 57.8323 43.1699 57.8262 43.1405C57.8201 43.111 57.8091 43.0886 57.7932 43.0745C57.7774 43.0605 57.7554 43.0521 57.7236 43.0479H57.7175C57.7053 43.0339 57.7004 43.0114 57.7004 42.9806C57.7004 42.9623 57.7029 42.9469 57.7078 42.9343C57.7126 42.9217 57.7163 42.9133 57.72 42.9105L57.7261 42.9062C57.8604 42.9091 57.9971 42.9119 58.1363 42.9133C58.2584 42.9133 58.3549 42.9133 58.4282 42.9105C58.4343 42.9105 58.4428 42.9105 58.4514 42.9105C58.4599 42.9105 58.4685 42.9105 58.4758 42.9105H58.4966C58.51 42.9105 58.5185 42.9147 58.5246 42.9217C58.5307 42.9287 58.5344 42.9371 58.5356 42.9469C58.5368 42.9974 58.5405 43.0549 58.5454 43.1152C58.5466 43.1236 58.5454 43.1348 58.5454 43.1461C58.543 43.1587 58.5368 43.1699 58.5246 43.1839C58.5124 43.198 58.4978 43.2036 58.477 43.2036H58.4734C58.4624 43.2036 58.4526 43.2008 58.4428 43.1966C58.4331 43.1923 58.4245 43.1867 58.416 43.1783C58.4086 43.1713 58.4013 43.1643 58.3976 43.1573C58.394 43.1503 58.3867 43.1391 58.3769 43.125C58.3415 43.0759 58.2817 43.0507 58.1962 43.0507H58.1608C58.1254 43.0577 58.0997 43.09 58.0838 43.1447V43.5387C58.0912 43.585 58.1131 43.6117 58.1461 43.6201C58.1974 43.6187 58.2316 43.6075 58.2499 43.5864C58.267 43.5682 58.2768 43.5359 58.2816 43.4897V43.4869L58.2841 43.4841C58.2963 43.47 58.3146 43.4644 58.3415 43.4644H58.3451C58.3696 43.4644 58.3891 43.4714 58.4025 43.4841V43.4869C58.4013 43.5037 58.4001 43.5205 58.3989 43.5359V43.5696C58.3976 43.6159 58.3964 43.6552 58.3964 43.686C58.3964 43.7323 58.3976 43.794 58.4001 43.8683H58.3976V43.8711C58.3842 43.8852 58.3659 43.8908 58.3403 43.8908H58.3366C58.3122 43.8908 58.2926 43.8837 58.2792 43.8711L58.2768 43.8683V43.8655C58.2707 43.8347 58.2609 43.8108 58.2475 43.7954C58.2279 43.773 58.1913 43.7603 58.14 43.7589C58.1083 43.7673 58.0899 43.794 58.0826 43.8375V44.0801C58.0826 44.146 58.0863 44.1965 58.0948 44.2316C58.1022 44.2666 58.1168 44.2905 58.1363 44.3031C58.1547 44.3171 58.1827 44.3227 58.2206 44.3227H58.2401C58.2951 44.3227 58.339 44.3129 58.372 44.2919C58.405 44.2708 58.4306 44.24 58.4489 44.1993C58.4489 44.1979 58.4489 44.1965 58.4514 44.1951C58.4526 44.1923 58.4538 44.1895 58.4538 44.1881C58.4709 44.1727 58.4953 44.1656 58.5283 44.1656H58.532L58.5332 44.1642ZM57.9544 44.3325C57.9666 43.9861 57.9715 43.7716 57.9715 43.6902C57.9715 43.6089 57.9654 43.3943 57.9544 43.0493C57.9422 43.3943 57.9373 43.6075 57.9373 43.6902C57.9373 43.773 57.9434 43.9861 57.9544 44.3325Z" fill="#FC4114"/>
<path d="M60.239 44.23C60.2464 44.251 60.2476 44.2706 60.2427 44.2903C60.189 44.352 60.1292 44.3997 60.0644 44.4347C60.0009 44.4698 59.9277 44.4866 59.8447 44.4866C59.7384 44.4866 59.6444 44.4529 59.5626 44.3842C59.4808 44.3155 59.4161 44.2215 59.3709 44.0995C59.3306 43.9901 59.3074 43.8639 59.3025 43.7237C59.2476 43.6942 59.2207 43.6718 59.2207 43.6564C59.2207 43.6409 59.2488 43.6255 59.305 43.6073C59.3111 43.4712 59.3367 43.352 59.3794 43.2511C59.4319 43.1304 59.4991 43.0407 59.5834 42.9804C59.6688 42.9201 59.7604 42.8906 59.8593 42.8906C59.9729 42.8906 60.0596 42.9243 60.1182 42.9902C60.1768 43.0561 60.2061 43.1361 60.2049 43.2272V43.2342C60.1902 43.2637 60.1658 43.2791 60.1328 43.2777C60.0986 43.2777 60.0742 43.2623 60.0596 43.2342V43.2272C60.051 43.1795 60.0364 43.1403 60.018 43.1122C59.9826 43.0561 59.9326 43.0295 59.8666 43.0295C59.7641 43.0295 59.6884 43.0856 59.6395 43.1978C59.5931 43.3043 59.5687 43.4376 59.5675 43.5989C59.6346 43.6199 59.6676 43.6381 59.6676 43.655C59.6676 43.6718 59.6334 43.697 59.5699 43.7321C59.5797 43.8836 59.6102 44.0112 59.6603 44.1122C59.7225 44.2398 59.8141 44.3043 59.9326 44.3043C59.9753 44.3043 60.0205 44.2945 60.0681 44.2748C60.1145 44.2552 60.1609 44.2272 60.2073 44.1893C60.2232 44.1963 60.2342 44.2103 60.2403 44.23H60.239ZM59.797 44.373C59.8129 44.3744 59.8263 44.3744 59.8385 44.373C59.8263 44.3744 59.8129 44.373 59.797 44.3702C59.7946 44.3688 59.7885 44.3674 59.7775 44.366C59.7689 44.3632 59.7628 44.3604 59.7604 44.359C59.7372 44.352 59.714 44.3407 59.6932 44.3267C59.6713 44.3127 59.6529 44.2987 59.6371 44.2818C59.6371 44.2804 59.6334 44.279 59.631 44.2776C59.631 44.2762 59.631 44.2748 59.6285 44.2734C59.6285 44.272 59.6261 44.2706 59.6249 44.2706C59.6224 44.2678 59.6188 44.2636 59.6127 44.2566C59.6114 44.2552 59.6078 44.251 59.6029 44.244C59.598 44.237 59.5943 44.2328 59.5931 44.2314C59.5699 44.2005 59.5492 44.164 59.5308 44.1234C59.5272 44.115 59.5235 44.1051 59.5211 44.0967C59.5211 44.0953 59.5186 44.0925 59.5174 44.0897C59.5174 44.0883 59.5174 44.0855 59.515 44.0827C59.515 44.0813 59.515 44.0785 59.5125 44.0757L59.5101 44.0687C59.5101 44.0687 59.5028 44.0448 59.4942 44.0168C59.4783 43.9635 59.4674 43.9018 59.4588 43.8317C59.4588 43.8289 59.4588 43.8247 59.4588 43.8204C59.4588 43.8162 59.4588 43.812 59.4588 43.8092V43.8036C59.4588 43.8036 59.4588 43.798 59.4588 43.7952C59.4588 43.7924 59.4588 43.7896 59.4588 43.7882C59.4588 43.7854 59.4588 43.7784 59.4588 43.7686C59.4588 43.7587 59.4576 43.7517 59.4564 43.7475C59.4551 43.7237 59.4539 43.7097 59.4539 43.7068C59.4539 43.6844 59.4515 43.6704 59.4515 43.6662V43.5666C59.4515 43.5666 59.4515 43.5596 59.4515 43.5554C59.4515 43.5512 59.4515 43.547 59.4515 43.5442C59.4515 43.5203 59.4515 43.5063 59.4539 43.5035C59.4576 43.4362 59.4674 43.3731 59.4832 43.317C59.4942 43.2777 59.5052 43.244 59.5186 43.2132C59.537 43.1725 59.5589 43.1375 59.5834 43.108C59.5956 43.0926 59.6017 43.0842 59.6053 43.0828C59.6114 43.0771 59.6163 43.0729 59.6175 43.0715C59.6175 43.0701 59.6212 43.0673 59.6236 43.0645C59.6261 43.0617 59.6285 43.0589 59.6297 43.0575C59.6493 43.0407 59.6688 43.0281 59.6859 43.0168C59.7079 43.0028 59.7311 42.9916 59.7543 42.9832C59.7812 42.9748 59.808 42.9692 59.8324 42.9678C59.808 42.9678 59.7812 42.972 59.7519 42.979C59.7287 42.986 59.7055 42.9958 59.6835 43.0084C59.6627 43.0196 59.642 43.0323 59.6224 43.0463C59.6224 43.0477 59.6188 43.0505 59.6163 43.0533C59.6127 43.0561 59.6102 43.0575 59.609 43.0589C59.6078 43.0589 59.6065 43.0603 59.6053 43.0617C59.6053 43.0631 59.6029 43.0645 59.6004 43.0659C59.598 43.0673 59.5968 43.0687 59.5956 43.0701C59.5956 43.0715 59.587 43.0786 59.5724 43.0926C59.5467 43.122 59.5223 43.1585 59.5015 43.2006C59.4844 43.23 59.4698 43.2665 59.4588 43.3057C59.4405 43.3646 59.4283 43.4278 59.4222 43.4965C59.421 43.5007 59.4197 43.5147 59.4185 43.54C59.4185 43.5526 59.4185 43.5596 59.4161 43.5624V43.6662C59.4161 43.6662 59.4161 43.6858 59.4185 43.7068C59.4197 43.7321 59.421 43.7461 59.4222 43.7475C59.4222 43.7531 59.4222 43.7615 59.4246 43.7728C59.4246 43.784 59.4271 43.7896 59.4271 43.791C59.4283 43.8022 59.4295 43.8106 59.4295 43.8134C59.4295 43.8148 59.4295 43.8176 59.4295 43.8218C59.4295 43.8261 59.4295 43.8303 59.4295 43.8331C59.4393 43.9032 59.4539 43.9677 59.4722 44.0238C59.4808 44.0504 59.4869 44.0687 59.4893 44.0757C59.4906 44.0771 59.4918 44.0799 59.493 44.0827C59.493 44.0855 59.4954 44.0883 59.4954 44.0897C59.4954 44.0911 59.4967 44.0939 59.4991 44.0967L59.5015 44.1037C59.5015 44.1037 59.504 44.1079 59.5052 44.1122C59.5089 44.1192 59.5113 44.1262 59.5125 44.1304C59.5333 44.1711 59.5565 44.2075 59.5834 44.2384C59.5834 44.2412 59.5882 44.2454 59.5931 44.2524C59.5943 44.2538 59.5968 44.2552 59.5992 44.258C59.6017 44.2608 59.6041 44.2622 59.6053 44.2636C59.6078 44.2664 59.6127 44.2706 59.6188 44.2776L59.6224 44.2818C59.6224 44.2818 59.6249 44.2818 59.6249 44.2847C59.6273 44.2861 59.6298 44.2875 59.631 44.2889C59.6481 44.3043 59.6676 44.3183 59.6908 44.3309C59.714 44.3436 59.7372 44.3534 59.7604 44.359C59.7641 44.3604 59.7689 44.3618 59.7738 44.3632H59.7799C59.7909 44.366 59.797 44.3674 59.7995 44.3674L59.797 44.373Z" fill="#FC4114"/>
<path d="M61.202 44.1186C61.2093 44.1186 61.2179 44.1186 61.2252 44.1214C61.2325 44.1242 61.2399 44.127 61.246 44.1298C61.2521 44.1326 61.257 44.1354 61.2618 44.1382C61.2667 44.141 61.2692 44.1438 61.2704 44.1466L61.2741 44.1494C61.2741 44.1494 61.2716 44.1662 61.268 44.1887C61.2643 44.2125 61.2606 44.228 61.2594 44.2378C61.257 44.2476 61.2521 44.2644 61.2423 44.2869C61.2325 44.3107 61.2228 44.3275 61.2118 44.3401C61.2008 44.3528 61.1849 44.3682 61.1642 44.3864C61.1434 44.4047 61.119 44.4173 61.0921 44.4271C61.0653 44.4369 61.0311 44.4439 60.9908 44.4509C60.9505 44.458 60.9053 44.4608 60.8552 44.4608C60.6953 44.4608 60.539 44.4636 60.3851 44.4678C60.3681 44.4566 60.3607 44.4327 60.3619 44.3991C60.3632 44.3654 60.3742 44.3401 60.3949 44.3261C60.4267 44.3233 60.4499 44.3149 60.4657 44.3023C60.4816 44.2897 60.4926 44.2672 60.4975 44.2336C60.5036 44.1999 60.506 44.1508 60.506 44.0821V43.7287C60.4401 43.6936 60.4083 43.6684 60.4083 43.6515C60.4083 43.6361 60.4413 43.6179 60.506 43.5955V43.343H60.5085V43.2729C60.5085 43.2112 60.506 43.1649 60.4999 43.1326C60.4938 43.1018 60.4828 43.078 60.4682 43.0653C60.4535 43.0527 60.4267 43.0457 60.3876 43.0401C60.3754 43.0261 60.3705 43.0022 60.3705 42.9658C60.3705 42.9349 60.3766 42.9111 60.3876 42.8984H60.8797C60.8931 42.9139 60.8992 42.9363 60.8992 42.9686C60.8992 43.0022 60.8931 43.0261 60.8797 43.0401C60.8406 43.0443 60.8137 43.0527 60.7991 43.0653C60.7832 43.0794 60.7722 43.1018 60.7673 43.1326C60.7612 43.1649 60.7588 43.2112 60.7588 43.2729V43.5969C60.8198 43.6179 60.8504 43.6361 60.8504 43.6515C60.8491 43.667 60.8186 43.6908 60.7588 43.7231V44.0737C60.7588 44.1396 60.7624 44.1901 60.771 44.2251C60.7783 44.2602 60.7917 44.2841 60.8113 44.2967C60.8296 44.3107 60.8589 44.3163 60.8968 44.3163H60.9163C60.9859 44.3163 61.0384 44.2939 61.0726 44.249C61.0921 44.2251 61.1104 44.1901 61.1251 44.1452C61.1312 44.1242 61.1568 44.113 61.202 44.113V44.1186ZM60.6379 44.3317C60.6513 43.9853 60.6574 43.7708 60.6574 43.6894C60.6574 43.6081 60.6513 43.3935 60.6379 43.0485C60.6257 43.3935 60.6208 43.6067 60.6208 43.6894C60.6208 43.7722 60.6269 43.9853 60.6379 44.3317Z" fill="#FC4114"/>
<path d="M62.3079 42.9778V42.9806C62.3079 43.0114 62.3018 43.0353 62.2908 43.0507H62.2884V43.0535C62.2884 43.0535 62.281 43.0507 62.2762 43.0507C62.2493 43.0563 62.2273 43.0689 62.2139 43.0872C62.1992 43.1054 62.1895 43.1334 62.1834 43.1727C62.1773 43.212 62.1748 43.2681 62.1748 43.341V43.6047C62.242 43.6257 62.2749 43.6439 62.2749 43.6608C62.2749 43.6776 62.242 43.7028 62.1748 43.7379V43.8431C62.1748 43.9805 62.1687 44.0899 62.1553 44.1699C62.1418 44.2498 62.1174 44.3143 62.0808 44.3634C62.0173 44.4489 61.9233 44.4924 61.8 44.4924C61.6949 44.4924 61.6119 44.4728 61.5509 44.4321C61.4898 44.3928 61.4459 44.3325 61.419 44.2498C61.3934 44.1685 61.3799 44.0619 61.3799 43.93V43.7393C61.3164 43.7042 61.2835 43.679 61.2835 43.6622C61.2822 43.6467 61.314 43.6285 61.3799 43.6075V43.2919C61.3799 43.2288 61.3763 43.1811 61.3702 43.1503C61.364 43.1194 61.3531 43.0956 61.3384 43.083C61.3238 43.0703 61.2969 43.0633 61.2566 43.0605C61.2432 43.0437 61.2371 43.0198 61.2371 42.9862C61.2371 42.9525 61.2432 42.9315 61.2566 42.9161H61.7523C61.7645 42.9301 61.7694 42.9525 61.7694 42.9834C61.7694 43.0199 61.7633 43.0451 61.7523 43.0605C61.7133 43.0633 61.6864 43.0703 61.6717 43.083C61.6559 43.097 61.6449 43.1194 61.64 43.1503C61.6339 43.1811 61.6315 43.2288 61.6315 43.2919V43.8936C61.6315 44.038 61.6485 44.1474 61.684 44.2217C61.7194 44.2961 61.7768 44.3325 61.8561 44.3325C61.883 44.3325 61.9123 44.3255 61.9428 44.3101C61.9697 44.2947 61.9941 44.2722 62.0136 44.24C62.0332 44.2049 62.0478 44.1586 62.0564 44.0983C62.0661 44.0394 62.0698 43.9539 62.0698 43.8389V43.3522C62.0698 43.2737 62.0661 43.2162 62.06 43.1769C62.0539 43.1363 62.0429 43.1068 62.0271 43.0886C62.0124 43.0703 61.9904 43.0591 61.9611 43.0521H61.9489C61.9355 43.0367 61.9294 43.0142 61.9294 42.982V42.9792C61.9294 42.9483 61.9355 42.9245 61.9465 42.9091V42.9062H61.9501C61.9648 42.9077 61.9746 42.9091 61.9819 42.9091H61.988C62.0271 42.9119 62.071 42.9133 62.1211 42.9133C62.1895 42.9133 62.2444 42.9105 62.2859 42.9062H62.2884C62.3018 42.9217 62.3079 42.9441 62.3079 42.9764V42.9778ZM61.7084 44.3985C61.7291 44.4041 61.7511 44.4069 61.7731 44.4069C61.7511 44.4055 61.7304 44.4013 61.7108 44.3928C61.6937 44.3858 61.6766 44.3732 61.6595 44.3564C61.6351 44.3339 61.6131 44.3031 61.5973 44.2624C61.5838 44.2344 61.5728 44.2021 61.5643 44.1656C61.557 44.139 61.5496 44.1081 61.5448 44.0759C61.5387 44.031 61.5325 43.9805 61.5289 43.923C61.5264 43.8824 61.524 43.8389 61.5228 43.7898V43.6566C61.5228 43.6117 61.5228 43.5584 61.5203 43.4995C61.5191 43.463 61.5142 43.3088 61.5069 43.0339C61.4984 43.313 61.4935 43.4686 61.4935 43.4995C61.4923 43.5584 61.491 43.6103 61.4898 43.6566V43.6902C61.4886 43.7014 61.4874 43.7127 61.4874 43.7239V43.7912C61.4874 43.8375 61.4898 43.8824 61.4947 43.9258C61.4996 43.9819 61.5081 44.0338 61.5179 44.0815C61.524 44.1152 61.5325 44.146 61.5411 44.1741C61.5533 44.2105 61.5667 44.2428 61.5826 44.2708C61.5912 44.2905 61.6009 44.3073 61.6119 44.3199C61.6253 44.3381 61.6388 44.3536 61.6547 44.3648C61.6717 44.3802 61.6888 44.39 61.7072 44.3956L61.7084 44.3985Z" fill="#FC4114"/>
<path d="M63.1005 43.6201C63.3142 43.6369 63.4217 43.7702 63.4217 44.0184C63.4217 44.1572 63.385 44.2652 63.3093 44.3466C63.2348 44.4265 63.1176 44.4672 62.9589 44.4672H62.8881C62.7428 44.4686 62.5975 44.4714 62.4534 44.4756H62.4461C62.4338 44.4602 62.429 44.4377 62.429 44.4055V44.3985C62.429 44.3662 62.4351 44.3438 62.4461 44.3311H62.4631C62.4937 44.3283 62.5169 44.3199 62.5327 44.3073C62.5486 44.2947 62.5596 44.2722 62.5657 44.2386C62.5718 44.2049 62.5743 44.1558 62.5743 44.0871V43.7295C62.5144 43.6958 62.4839 43.672 62.4839 43.658C62.4839 43.6439 62.5144 43.6257 62.5743 43.6061V43.2779C62.5743 43.2162 62.5718 43.1699 62.5657 43.1405C62.5596 43.111 62.5486 43.0886 62.534 43.0745C62.5181 43.0605 62.4949 43.0521 62.4631 43.0479V43.0451L62.4461 43.0479C62.4338 43.0339 62.429 43.0114 62.429 42.9806V42.9736C62.429 42.9427 62.4351 42.9189 62.4461 42.9062H62.4534C62.5425 42.9091 62.639 42.9105 62.744 42.9105H62.7806L62.9393 42.9077C63.0822 42.9077 63.186 42.9343 63.2519 42.989C63.3179 43.0437 63.3508 43.132 63.3508 43.2541C63.3508 43.3508 63.3289 43.4308 63.2837 43.4967C63.2397 43.5626 63.1775 43.6033 63.0993 43.6187L63.1005 43.6201ZM62.6927 44.3353C62.7049 43.9889 62.7098 43.7744 62.7098 43.693C62.7098 43.6117 62.7037 43.3971 62.6927 43.0521C62.6805 43.3971 62.6756 43.6103 62.6756 43.693C62.6756 43.7758 62.6817 43.9889 62.6927 44.3353ZM62.8258 43.0998V43.5163C62.8331 43.5654 62.86 43.5906 62.9039 43.5906C62.9662 43.5864 63.0126 43.5626 63.0431 43.5205C63.0773 43.4714 63.0944 43.4041 63.0944 43.32C63.0944 43.2316 63.0749 43.1643 63.037 43.118C62.998 43.0717 62.9528 43.0493 62.8991 43.0493C62.8978 43.0493 62.8954 43.0493 62.8917 43.0521C62.8551 43.0521 62.8331 43.0675 62.827 43.0998H62.8258ZM62.9577 44.3297C63.0151 44.3297 63.0602 44.3045 63.0932 44.2554C63.1262 44.2063 63.142 44.1376 63.142 44.0478C63.142 43.9328 63.1176 43.8515 63.0676 43.8052C63.0236 43.7631 62.9625 43.7407 62.8856 43.7351C62.8649 43.7351 62.8502 43.7393 62.8404 43.7491C62.8307 43.7575 62.827 43.7772 62.827 43.808V44.1011C62.827 44.1656 62.8319 44.2147 62.8404 44.247C62.849 44.2806 62.8636 44.3017 62.882 44.3129C62.9015 44.3241 62.9259 44.3297 62.9577 44.3297ZM63.0627 42.9988C63.0505 42.996 63.0395 42.9946 63.0297 42.996C63.0395 42.996 63.0505 42.9988 63.0627 43.003C63.0724 43.0072 63.0834 43.0128 63.092 43.017C63.1005 43.0213 63.1091 43.0283 63.1176 43.0339C63.1188 43.0353 63.1213 43.0381 63.1237 43.0409C63.1262 43.0423 63.1286 43.0437 63.1286 43.0437C63.1286 43.0437 63.1298 43.0451 63.131 43.0465C63.1335 43.0493 63.1359 43.0521 63.1372 43.0535C63.1579 43.0774 63.175 43.1054 63.186 43.1391C63.1921 43.1615 63.1982 43.1881 63.2019 43.2176C63.2019 43.2204 63.2019 43.2316 63.2043 43.2512V43.2849C63.2055 43.3088 63.2043 43.3326 63.2019 43.355C63.1982 43.3817 63.1921 43.4069 63.1848 43.4322C63.1726 43.4658 63.1567 43.4939 63.1359 43.5177C63.1237 43.5331 63.1103 43.5458 63.0932 43.5584C63.0724 43.5738 63.0517 43.5836 63.0321 43.5892C63.0529 43.5864 63.0749 43.5794 63.0969 43.5668C63.1152 43.5556 63.1323 43.5444 63.1481 43.5303C63.1616 43.5177 63.1738 43.5051 63.1848 43.4897C63.1921 43.477 63.2006 43.463 63.208 43.4448C63.2202 43.4195 63.2287 43.3915 63.2348 43.362C63.2385 43.3368 63.2409 43.3116 63.2409 43.2849C63.2409 43.2793 63.2409 43.2667 63.2385 43.2484C63.2373 43.2302 63.2361 43.2176 63.2348 43.2106C63.23 43.1811 63.2214 43.1517 63.2092 43.125C63.1933 43.09 63.1726 43.0619 63.1469 43.0395L63.1347 43.0311C63.1286 43.0269 63.1237 43.0241 63.1225 43.0227C63.1152 43.0184 63.1054 43.0142 63.0956 43.0086C63.0846 43.0044 63.0737 43.0002 63.0627 42.9974V42.9988ZM63.2959 44.0492C63.2971 44.0212 63.2959 43.9931 63.2922 43.9679C63.2886 43.9342 63.2812 43.9034 63.2727 43.8753C63.2666 43.8585 63.258 43.8417 63.2495 43.8263C63.2385 43.808 63.2263 43.7912 63.2116 43.7772C63.2068 43.7716 63.1982 43.7631 63.1884 43.7547C63.1787 43.7477 63.1701 43.7407 63.1616 43.7351C63.1506 43.7295 63.1396 43.7239 63.1286 43.7197C63.1152 43.7155 63.1042 43.7127 63.0932 43.7113C63.1042 43.7141 63.1152 43.7183 63.1262 43.7253C63.1359 43.7309 63.1469 43.7379 63.1555 43.7449C63.1652 43.7519 63.1726 43.7603 63.1811 43.7674C63.1909 43.7758 63.197 43.7842 63.2006 43.7926C63.2129 43.808 63.2226 43.8234 63.23 43.8417C63.2373 43.8585 63.2434 43.8739 63.247 43.8894C63.2532 43.9132 63.258 43.9427 63.2593 43.9749C63.2605 43.9959 63.2617 44.0212 63.2617 44.0492C63.2605 44.0731 63.258 44.0983 63.2544 44.1236C63.2495 44.1558 63.2422 44.1825 63.2348 44.2063C63.2214 44.2428 63.2043 44.2736 63.1836 44.3003C63.1787 44.3073 63.1713 44.3157 63.1616 44.3255C63.1542 44.3325 63.1457 44.3395 63.1359 44.3452C63.1262 44.3522 63.1164 44.3592 63.1066 44.3648C63.1005 44.3676 63.0944 44.3704 63.0895 44.3718C63.0834 44.3746 63.0773 44.376 63.0724 44.376C63.0773 44.3774 63.0846 44.3774 63.092 44.376C63.0956 44.3746 63.1017 44.3718 63.1091 44.369C63.1188 44.3648 63.1298 44.3592 63.1408 44.3536C63.1506 44.348 63.1616 44.3409 63.1701 44.3339C63.1799 44.3269 63.1872 44.3199 63.1933 44.3143C63.219 44.2877 63.2409 44.2554 63.258 44.2203C63.2702 44.1937 63.28 44.1628 63.2873 44.1306C63.2922 44.1039 63.2959 44.0773 63.2971 44.052L63.2959 44.0492Z" fill="#FC4114"/>
<path fill-rule="evenodd" clip-rule="evenodd" d="M58.3832 46.9056C58.3233 47.0977 58.2818 47.3291 58.2403 47.5044C58.3356 47.4245 58.5334 47.273 58.6738 47.1636C58.8069 47.266 58.9839 47.4161 59.1073 47.5002C59.0535 47.3095 59.0059 47.0837 58.9693 46.9098C59.0877 46.7892 59.2062 46.67 59.3466 46.5255C59.2196 46.5255 59.0035 46.5255 58.8508 46.5255L58.6665 45.9688C58.6091 46.1539 58.5627 46.3474 58.4967 46.5269C58.3099 46.5269 58.1243 46.5241 57.9375 46.5269C58.1133 46.6826 58.2342 46.7836 58.3844 46.9084" fill="#F9981C"/>
<path fill-rule="evenodd" clip-rule="evenodd" d="M56.3968 46.9212C56.337 47.1133 56.2955 47.3447 56.254 47.5201C56.3492 47.4401 56.547 47.2901 56.6875 47.1793C56.8205 47.2816 56.9976 47.4317 57.1209 47.5158C57.0672 47.3251 57.0196 47.0993 56.9829 46.9254C57.1014 46.8048 57.2198 46.6856 57.3602 46.5411C57.2333 46.5411 57.0171 46.5411 56.8645 46.5411L56.6801 45.9844C56.6227 46.1695 56.5763 46.363 56.5104 46.5425C56.3236 46.5425 56.138 46.5397 55.9512 46.5411C56.127 46.6968 56.2479 46.7978 56.3981 46.9226" fill="#F9981C"/>
<path fill-rule="evenodd" clip-rule="evenodd" d="M60.38 46.9056C60.3202 47.0977 60.2787 47.3291 60.2371 47.5044C60.3324 47.4245 60.5302 47.273 60.6706 47.1636C60.8037 47.266 60.9807 47.4161 61.1041 47.5002C61.0503 47.3095 61.0027 47.0837 60.9661 46.9098C61.0845 46.7892 61.203 46.67 61.3434 46.5255C61.2164 46.5255 61.0003 46.5255 60.8477 46.5255L60.6633 45.9688C60.6059 46.1539 60.5595 46.3474 60.4936 46.5269C60.3067 46.5269 60.1211 46.5241 59.9343 46.5269C60.1102 46.6826 60.231 46.7836 60.3812 46.9084" fill="#F9981C"/>
<path fill-rule="evenodd" clip-rule="evenodd" d="M54.5115 45.1212C55.8766 45.0651 57.2271 45.0469 58.5885 45.0469C59.0415 45.0469 62.4873 45.0932 62.4946 45.1212C61.1759 45.1815 59.8999 45.1941 58.5922 45.1955C57.2466 45.1857 55.6397 45.1773 54.5127 45.1226" fill="#FC4114"/>
<path d="M71.4956 30.8085L72.8363 29.5547" stroke="#F9981C" stroke-width="0.9375" stroke-miterlimit="10" stroke-linecap="round"/>
<path d="M69.3462 30.8161L71.9067 27.9453" stroke="#F9981C" stroke-width="0.9375" stroke-miterlimit="10" stroke-linecap="round"/>
<path d="M67.6023 30.8103L70.8759 26.4375" stroke="#F9981C" stroke-width="0.9375" stroke-miterlimit="10" stroke-linecap="round"/>
<path d="M66.1394 30.8111L69.7512 25.0625" stroke="#F9981C" stroke-width="0.9375" stroke-miterlimit="10" stroke-linecap="round"/>
<path d="M64.876 30.8165L68.5415 23.8281" stroke="#F9981C" stroke-width="0.9375" stroke-miterlimit="10" stroke-linecap="round"/>
<path d="M63.759 30.8102L67.2549 22.7266" stroke="#F9981C" stroke-width="0.9375" stroke-miterlimit="10" stroke-linecap="round"/>
<path d="M62.75 30.8138L65.9003 21.7891" stroke="#F9981C" stroke-width="0.9375" stroke-miterlimit="10" stroke-linecap="round"/>
<path d="M61.8203 30.8123L64.4919 21.0078" stroke="#F9981C" stroke-width="0.9375" stroke-miterlimit="10" stroke-linecap="round"/>
<path d="M60.947 30.8144L63.0362 20.3984" stroke="#F9981C" stroke-width="0.9375" stroke-miterlimit="10" stroke-linecap="round"/>
<path d="M60.1128 30.8108L61.5475 19.9531" stroke="#F9981C" stroke-width="0.9375" stroke-miterlimit="10" stroke-linecap="round"/>
<path d="M59.3054 30.8103L60.0344 19.6875" stroke="#F9981C" stroke-width="0.9375" stroke-miterlimit="10" stroke-linecap="round"/>
<path d="M58.509 30.8141V19.6016" stroke="#F9981C" stroke-width="0.9375" stroke-miterlimit="10" stroke-linecap="round"/>
<path d="M57.7148 30.8103L56.9858 19.6875" stroke="#F9981C" stroke-width="0.9375" stroke-miterlimit="10" stroke-linecap="round"/>
<path d="M56.9142 30.8343L55.4807 19.9766" stroke="#F9981C" stroke-width="0.9375" stroke-miterlimit="10" stroke-linecap="round"/>
<path d="M56.0743 30.8144L53.9839 20.3984" stroke="#F9981C" stroke-width="0.9375" stroke-miterlimit="10" stroke-linecap="round"/>
<path d="M55.2002 30.8123L52.5286 21.0078" stroke="#F9981C" stroke-width="0.9375" stroke-miterlimit="10" stroke-linecap="round"/>
<path d="M54.2699 30.8138L51.1184 21.7891" stroke="#F9981C" stroke-width="0.9375" stroke-miterlimit="10" stroke-linecap="round"/>
<path d="M53.2605 30.8102L49.7659 22.7266" stroke="#F9981C" stroke-width="0.9375" stroke-miterlimit="10" stroke-linecap="round"/>
<path d="M52.1433 30.8165L48.479 23.8281" stroke="#F9981C" stroke-width="0.9375" stroke-miterlimit="10" stroke-linecap="round"/>
<path d="M50.8804 30.8111L47.2686 25.0625" stroke="#F9981C" stroke-width="0.9375" stroke-miterlimit="10" stroke-linecap="round"/>
<path d="M49.4176 30.8103L46.144 26.4375" stroke="#F9981C" stroke-width="0.9375" stroke-miterlimit="10" stroke-linecap="round"/>
<path d="M47.6735 30.8161L45.1118 27.9453" stroke="#F9981C" stroke-width="0.9375" stroke-miterlimit="10" stroke-linecap="round"/>
<path d="M45.525 30.8085L44.1843 29.5547" stroke="#F9981C" stroke-width="0.9375" stroke-miterlimit="10" stroke-linecap="round"/>
<path d="M47.801 34.4076H48.5837C48.8145 34.4076 48.9732 34.5058 49.0611 34.7022C49.0856 34.7751 49.0978 34.841 49.0978 34.8985V36.3739C49.0978 36.4622 48.9305 36.6221 48.5959 36.8521L48.5837 36.9082C48.5837 36.9461 48.7229 37.0583 49.0001 37.2448C49.1466 37.3612 49.2199 37.4552 49.2199 37.5253V39.2391C49.2199 39.4873 49.1185 39.6612 48.9146 39.7594C48.845 39.7692 48.7876 39.7734 48.7437 39.7734H47.7778C47.6069 39.7734 47.4677 39.7411 47.3615 39.6752H47.3248C47.2039 39.7411 47.1185 39.7734 47.0684 39.7734H47.0074C46.9439 39.7734 46.9036 39.7496 46.8853 39.7033V39.6332C46.9255 39.448 46.9463 39.3078 46.9463 39.211V34.9546C46.9463 34.8536 46.9255 34.7176 46.8853 34.5465V34.5325C46.8853 34.4764 46.9097 34.4385 46.9585 34.4203C47.0977 34.4203 47.2235 34.4483 47.3383 34.5044C47.4689 34.4385 47.624 34.4062 47.8035 34.4062L47.801 34.4076ZM47.7278 35.3347C47.7363 35.4889 47.74 35.6067 47.74 35.6853V35.6993C47.74 35.7975 47.7363 35.8774 47.7278 35.9377C47.7363 36.005 47.74 36.0906 47.74 36.1902V36.4145C47.74 36.4286 47.7522 36.4426 47.7766 36.4566C47.8035 36.4566 47.9048 36.3767 48.0819 36.2182C48.2284 36.1313 48.3017 36.0513 48.3017 35.9798V35.3753C48.3017 35.3234 48.2809 35.287 48.2406 35.2631H47.8242C47.7852 35.2631 47.7534 35.287 47.7265 35.3333L47.7278 35.3347ZM47.74 37.4846C47.7485 37.5645 47.7522 37.6249 47.7522 37.6669C47.7522 37.7441 47.7485 37.7861 47.74 37.7931C47.7485 37.8885 47.7522 37.9642 47.7522 38.0175V38.5378C47.7522 38.6122 47.7485 38.7117 47.74 38.8324C47.74 38.8885 47.7974 38.9165 47.9109 38.9165H48.1551L48.2284 38.9025C48.243 38.9123 48.2626 38.9165 48.2894 38.9165H48.3139C48.3871 38.9053 48.4238 38.8632 48.4238 38.7903C48.4238 38.7721 48.4201 38.7622 48.4115 38.7622C48.4201 38.6528 48.4238 38.5729 48.4238 38.5238V38.0877C48.4238 37.9138 48.3712 37.8072 48.265 37.7651C47.9695 37.5407 47.8108 37.4285 47.7876 37.4285H47.7754C47.7632 37.4285 47.751 37.4467 47.7388 37.4846H47.74Z" fill="#FC4114"/>
<path d="M50.4195 34.3828H50.4439C50.4781 34.3828 50.5928 34.4207 50.787 34.495C50.975 34.4207 51.1008 34.3828 51.1667 34.3828H52.0227C52.3401 34.4137 52.5001 34.5259 52.5001 34.7194C52.5245 34.7825 52.5367 34.8624 52.5367 34.9578V36.9535C52.5367 37.0685 52.4268 37.1709 52.2058 37.262C52.1484 37.3111 52.1204 37.3532 52.1204 37.3882C52.218 37.7795 52.3279 38.1862 52.4513 38.6112C52.5856 39.1399 52.7126 39.4919 52.831 39.6644C52.831 39.7275 52.7944 39.7654 52.7211 39.7766C52.6381 39.7766 52.5148 39.7387 52.3536 39.6644H52.3414L52.0727 39.7626H52.0361C51.9384 39.7626 51.8896 39.7023 51.8896 39.5803C51.8896 39.3643 51.8322 39.0936 51.7186 38.7654C51.588 38.2437 51.5062 37.9534 51.4744 37.8945C51.4744 37.8763 51.4659 37.8665 51.45 37.8665H51.4012C51.2461 37.9604 51.1692 38.0488 51.1692 38.1329C51.1777 38.3068 51.1814 38.4331 51.1814 38.5116V39.3124C51.1814 39.3727 51.2058 39.4863 51.2546 39.649C51.2485 39.7233 51.2156 39.7612 51.157 39.7612H51.0593C51.041 39.7612 50.9433 39.7233 50.7662 39.649C50.6392 39.7233 50.5416 39.7612 50.4732 39.7612H50.4243C50.3792 39.7612 50.3474 39.7373 50.3267 39.6911V39.663C50.367 39.6027 50.3877 39.2984 50.3877 38.75V38.4134C50.3877 38.0993 50.384 37.6687 50.3755 37.1204C50.384 37.0713 50.3877 37.025 50.3877 36.9801C50.3792 36.9142 50.3755 36.8581 50.3755 36.8118C50.3755 36.7656 50.3792 36.6954 50.3877 36.6015C50.3877 36.5496 50.384 36.4851 50.3755 36.4051C50.384 36.0938 50.3877 35.8217 50.3877 35.5903C50.3877 35.5034 50.384 35.3813 50.3755 35.2257L50.3877 35.1556C50.3792 35.0672 50.3755 34.9774 50.3755 34.8891V34.861C50.3755 34.8288 50.3792 34.7867 50.3877 34.7348L50.3267 34.5245V34.4964C50.3267 34.4221 50.3596 34.3842 50.4243 34.3842L50.4195 34.3828ZM51.1655 35.3519C51.1655 35.4318 51.1692 35.516 51.1777 35.6043C51.1692 35.7432 51.1655 35.8357 51.1655 35.8848C51.1741 36.0167 51.1777 36.1008 51.1777 36.1373L51.1655 36.2354C51.1655 36.2425 51.1692 36.2705 51.1777 36.3196L51.1655 36.544C51.1741 36.6604 51.1777 36.7221 51.1777 36.7263C51.1692 36.7782 51.1655 36.8287 51.1655 36.8806C51.1802 36.9268 51.1997 36.9507 51.2266 36.9507C51.5697 36.7137 51.7406 36.5594 51.7406 36.4865V35.7839L51.7528 35.6997C51.7443 35.6857 51.7406 35.6576 51.7406 35.6156C51.7406 35.5623 51.7443 35.4865 51.7528 35.3912C51.7528 35.2972 51.7162 35.2509 51.6429 35.2509C51.6344 35.2509 51.6222 35.2551 51.6063 35.265C51.5611 35.2551 51.5245 35.2509 51.4964 35.2509C51.4598 35.2509 51.4073 35.2551 51.3377 35.265C51.3047 35.2551 51.2766 35.2509 51.2522 35.2509C51.1948 35.2692 51.1667 35.3028 51.1667 35.3491L51.1655 35.3519Z" fill="#FC4114"/>
<path d="M54.3583 34.3778H55.4353C55.6721 34.3778 55.8272 34.476 55.9005 34.6723C55.9334 34.7284 55.9493 34.8084 55.9493 34.9107V34.9248C55.9493 37.1546 55.9457 38.4603 55.9371 38.8446C55.9457 38.9175 55.9493 38.9975 55.9493 39.083L55.9371 39.1531C55.9457 39.205 55.9493 39.2471 55.9493 39.2793C55.8858 39.5416 55.8211 39.6734 55.754 39.6734C55.754 39.7127 55.6526 39.7464 55.4487 39.7716C55.3644 39.7618 55.2997 39.7576 55.2533 39.7576H55.058C54.9249 39.7576 54.8272 39.7618 54.7649 39.7716C54.7014 39.7618 54.6037 39.7576 54.4719 39.7576H54.1788C53.9261 39.6973 53.7991 39.5556 53.7991 39.3354C53.7991 39.1643 53.7954 39.062 53.7869 39.0269C53.7954 38.8754 53.7991 38.7254 53.7991 38.5767L53.7869 34.9374C53.7869 34.6891 53.8882 34.511 54.0921 34.4031C54.1617 34.3848 54.2509 34.375 54.3608 34.375L54.3583 34.3778ZM54.5903 35.3749V35.5713C54.5818 37.372 54.5781 38.365 54.5781 38.5501C54.5781 38.5543 54.5818 38.5739 54.5903 38.6062C54.5818 38.623 54.5781 38.6454 54.5781 38.6763V38.8306C54.5781 38.8698 54.6269 38.8937 54.7246 38.9007C55.0103 38.9007 55.1532 38.8768 55.1532 38.8306L55.141 35.7115C55.141 35.6176 55.1373 35.4773 55.1288 35.2894L55.0921 35.2613H54.7747C54.7466 35.2613 54.71 35.2571 54.6648 35.2473C54.6159 35.2473 54.5915 35.2894 54.5915 35.3735L54.5903 35.3749Z" fill="#FC4114"/>
<path d="M57.2869 34.3764H57.2991L57.6666 34.4886C57.8132 34.4143 57.9157 34.3764 57.9719 34.3764C58.0854 34.3764 58.1428 34.4844 58.1428 34.699C58.1428 34.8041 58.2039 35.0482 58.326 35.4296C58.326 35.4605 58.3541 35.5685 58.4115 35.7522C58.5824 36.3819 58.6972 36.7844 58.7534 36.9611H58.7656C58.7656 36.9611 58.7814 36.9513 58.8022 36.9331C58.7936 36.7928 58.79 36.689 58.79 36.6245V34.8687C58.79 34.8224 58.7778 34.6948 58.7534 34.4886C58.7534 34.4143 58.7863 34.3764 58.851 34.3764C58.8816 34.3764 59 34.4143 59.2051 34.4886C59.2625 34.4507 59.381 34.4143 59.5605 34.3764C59.5946 34.3876 59.6191 34.4115 59.6337 34.4465V34.5026C59.6337 34.5419 59.613 34.5938 59.5727 34.6569C59.5812 34.8112 59.5849 34.929 59.5849 35.0075V39.3775L59.6459 39.644V39.658C59.6459 39.7323 59.6056 39.7702 59.5238 39.7702H59.5116C59.4689 39.7702 59.3626 39.7379 59.1941 39.672H59.1697C58.9963 39.7379 58.8742 39.7702 58.8022 39.7702C58.7375 39.7464 58.7045 39.7183 58.7045 39.686L58.7167 39.5458C58.7167 39.4378 58.6764 39.2415 58.5946 38.9554C58.4969 38.6048 58.4359 38.365 58.4115 38.2387C58.3712 38.1434 58.2808 37.8292 58.1428 37.2977C58.1086 37.1953 58.0842 37.1378 58.0696 37.1294H58.0329C58.0329 37.1392 58.0293 37.1532 58.0207 37.1715C58.0207 37.2374 58.0244 37.2738 58.0329 37.2837C58.0244 37.5908 58.0207 37.8292 58.0207 38.0003V39.1657C58.0207 39.2597 58.0415 39.4238 58.0818 39.658V39.7001C58.061 39.7464 58.0293 39.7702 57.9841 39.7702H57.9353C57.8828 39.7702 57.7924 39.7239 57.6666 39.63H57.63C57.5995 39.63 57.5384 39.672 57.4468 39.7562C57.4017 39.766 57.365 39.7702 57.337 39.7702H57.2881C57.2234 39.7702 57.1904 39.7323 57.1904 39.658C57.2393 39.5192 57.2637 39.3845 57.2637 39.2499V34.7817L57.1904 34.4872C57.1965 34.4129 57.2295 34.375 57.2881 34.375L57.2869 34.3764Z" fill="#FC4114"/>
<path d="M61.3915 34.4062H62.5051C62.7432 34.4062 62.8983 34.4806 62.9703 34.6306C63.0106 34.7737 63.0313 34.8999 63.0313 35.0107V35.3753C63.0313 35.4805 63.0521 35.6404 63.0924 35.8536C63.0924 35.9027 63.0521 35.9307 62.9703 35.9377H62.9092C62.8506 35.9377 62.7688 35.9097 62.665 35.8536C62.6565 35.8536 62.6443 35.8494 62.6284 35.8395C62.4794 35.9055 62.394 35.9377 62.372 35.9377H62.3476C62.2743 35.9265 62.2377 35.8844 62.2377 35.8115V35.4609C62.2377 35.3389 62.2047 35.2786 62.14 35.2786H61.7603C61.7077 35.2786 61.6748 35.3206 61.6626 35.4048C61.6711 35.545 61.6748 35.6488 61.6748 35.7133V38.608C61.6748 38.6178 61.6711 38.622 61.6626 38.622L61.6748 38.65V38.7061C61.6748 38.7272 61.6711 38.7454 61.6626 38.7622C61.6687 38.8744 61.7053 38.9305 61.7725 38.9305H62.1266C62.1998 38.9305 62.2365 38.8744 62.2365 38.7622V38.2279C62.2365 38.1255 62.2731 38.0736 62.3463 38.0736H62.3708C62.3915 38.0736 62.4648 38.1017 62.5906 38.1578H62.6516C62.7762 38.1017 62.8775 38.0736 62.9569 38.0736C63.0204 38.0736 63.0607 38.0975 63.079 38.1438V38.1578C63.046 38.385 63.0301 38.5294 63.0301 38.5939V39.1703C63.0301 39.4845 62.9288 39.6808 62.7249 39.7608C62.6943 39.7706 62.6614 39.7748 62.6272 39.7748H61.2328C61.1107 39.7748 61.0008 39.6668 60.9019 39.4522C60.8836 39.413 60.8713 39.2811 60.8652 39.0596C60.8652 39.0035 60.8689 38.9754 60.8774 38.9754C60.8689 38.8492 60.8652 38.7552 60.8652 38.6949V35.8985C60.8652 35.7582 60.8689 35.5941 60.8774 35.4062C60.8689 35.3824 60.8652 35.308 60.8652 35.1818C60.8652 34.7905 60.9263 34.5619 61.0484 34.4932C61.0484 34.4553 61.1619 34.4273 61.3903 34.4091L61.3915 34.4062Z" fill="#FC4114"/>
<path d="M64.7799 34.3778H65.8569C66.0938 34.3778 66.2488 34.476 66.3221 34.6723C66.3551 34.7284 66.3709 34.8084 66.3709 34.9107V34.9248C66.3709 37.1546 66.3673 38.4603 66.3587 38.8446C66.3673 38.9175 66.3709 38.9975 66.3709 39.083L66.3587 39.1531C66.3673 39.205 66.3709 39.2471 66.3709 39.2793C66.3075 39.5416 66.2427 39.6734 66.1756 39.6734C66.1756 39.7127 66.0742 39.7464 65.8703 39.7716C65.7873 39.7618 65.7214 39.7576 65.675 39.7576H65.4796C65.3477 39.7576 65.2488 39.7618 65.1865 39.7716C65.1231 39.7618 65.0254 39.7576 64.8935 39.7576H64.6004C64.3477 39.6973 64.2207 39.5556 64.2207 39.3354C64.2207 39.1643 64.217 39.062 64.2085 39.0269C64.217 38.8754 64.2207 38.7254 64.2207 38.5767L64.2085 34.9374C64.2085 34.6891 64.3098 34.511 64.5138 34.4031C64.5834 34.3848 64.6725 34.375 64.7824 34.375L64.7799 34.3778ZM65.0132 35.3749V35.5713C65.0046 37.372 65.0009 38.365 65.0009 38.5501C65.0009 38.5543 65.0046 38.5739 65.0132 38.6062C65.0046 38.623 65.0009 38.6454 65.0009 38.6763V38.8306C65.0009 38.8698 65.0498 38.8937 65.1475 38.9007C65.4332 38.9007 65.5761 38.8768 65.5761 38.8306L65.5638 35.7115C65.5638 35.6176 65.5602 35.4773 65.5516 35.2894L65.515 35.2613H65.1975C65.1694 35.2613 65.1316 35.2571 65.0876 35.2473C65.0388 35.2473 65.0144 35.2894 65.0144 35.3735L65.0132 35.3749Z" fill="#FC4114"/>
<path d="M67.6416 34.3672V35.2648L66.8601 36.1581V34.3686H67.6416V34.3672Z" fill="#FC4114"/>
<path d="M68.4855 34.3828C68.6076 34.3926 68.698 34.3968 68.7541 34.3968H69.6467C69.8665 34.4642 69.9776 34.5357 69.9776 34.6072C70.035 34.6815 70.0631 34.8554 70.0631 35.1275C70.0631 35.1724 70.0594 35.2804 70.0509 35.4501C70.0912 35.6492 70.1119 35.7796 70.1119 35.8428C70.1119 35.9171 70.0753 35.9549 70.002 35.9549C69.7896 35.8806 69.6711 35.8428 69.6467 35.8428C69.4794 35.9087 69.3854 35.9409 69.3659 35.9409C69.2926 35.9129 69.256 35.8428 69.256 35.7306C69.2645 35.6422 69.2682 35.5567 69.2682 35.4781C69.2682 35.4683 69.2645 35.4543 69.256 35.436L69.2682 35.408C69.2682 35.3239 69.2401 35.2818 69.1827 35.2818H68.9385C68.8811 35.2818 68.853 35.314 68.853 35.3799C68.853 35.4248 68.8567 35.4711 68.8652 35.5202C68.8567 35.6885 68.853 35.8007 68.853 35.8568C68.8616 36.0657 68.8652 36.1779 68.8652 36.1934C68.8567 36.2116 68.853 36.2256 68.853 36.2354C68.853 36.3168 68.9873 36.4486 69.2572 36.6295C69.8115 37.0699 70.0887 37.2943 70.0887 37.3041C70.1217 37.3644 70.1376 37.464 70.1376 37.5986V39.1441C70.1376 39.4232 70.0765 39.6097 69.9544 39.7065C69.8201 39.7626 69.7419 39.7906 69.7224 39.7906H68.4867C68.2364 39.7906 68.0728 39.6644 67.9971 39.412C67.9812 39.3306 67.9727 39.2647 67.9727 39.2156C67.9727 39.1974 67.9763 39.1876 67.9849 39.1876L67.9727 39.0894V38.4429C67.9727 38.4008 67.9568 38.3111 67.9238 38.1764V38.1484C67.9544 38.0923 67.991 38.0642 68.0337 38.0642C68.0765 38.0642 68.1973 38.1021 68.389 38.1764C68.5234 38.1203 68.6259 38.0923 68.6943 38.0923H68.7065C68.7554 38.1245 68.7798 38.1666 68.7798 38.2185V38.485C68.7798 38.5789 68.7761 38.6911 68.7676 38.8215C68.7834 38.8776 68.8164 38.9057 68.8652 38.9057H69.2206C69.3024 38.9057 69.3427 38.8594 69.3427 38.7654V37.8805C69.3427 37.7683 69.2279 37.6421 68.9996 37.5018C68.4941 37.0993 68.1925 36.8511 68.0948 36.7571C68.0704 36.6968 68.0581 36.6492 68.0581 36.6169V35.2117C68.0581 35.1598 68.0545 35.0953 68.0459 35.0153C68.0459 34.6899 68.1729 34.488 68.4257 34.4109C68.466 34.401 68.4867 34.3926 68.4867 34.3828H68.4855Z" fill="#FC4114"/>
<path fill-rule="evenodd" clip-rule="evenodd" d="M51.8601 27.062C51.8613 27.2654 51.4352 28.8417 51.5133 29.1278C51.5622 29.306 51.4376 29.3452 51.2777 29.5247C51.2313 29.5766 51.2398 29.7211 51.191 29.8024C51.1287 29.9076 51.0078 29.9525 50.9419 30.0128C50.6415 30.2835 50.8039 30.5064 50.8161 30.6369C50.8161 30.6369 50.8613 31.3255 51.1043 31.7813C51.3766 32.2917 51.8552 32.5708 51.9529 32.4334C52.1519 32.1487 52.4303 32.0197 52.4401 31.9706C52.6147 31.0253 53.2533 30.7813 53.2533 30.7813C53.2533 30.7813 53.1409 30.045 53.2118 29.6804C53.2826 29.3158 53.2631 28.6398 53.5817 28.3817C53.9004 28.1237 54.1837 27.6286 54.5757 27.3762C55.3266 26.8923 56.2265 25.0551 56.3742 25.0425C57.555 24.9373 60.4464 24.4325 61.2474 24.0286C61.2474 24.0286 61.4977 24.079 61.6857 23.9683C61.8176 23.8911 62.1754 23.7453 62.5295 23.5531C62.6797 23.4718 62.9922 23.1156 62.9922 23.1156L63.4562 22.88C63.4562 22.88 63.6833 22.8603 63.8702 22.664C64.0045 22.5223 64.013 23.0314 63.8323 23.0707C63.7297 23.0917 63.6553 23.2236 63.5429 23.2404C63.4257 23.2586 63.3073 23.2376 63.1986 23.2348C63.0802 23.2306 62.9654 23.2081 62.8921 23.389C62.6601 23.9654 62.466 24.4577 62.6479 24.7915C62.6736 24.8392 62.8738 24.8083 62.9202 24.8027C63.0228 24.7915 63.118 24.6989 63.2267 24.7003C63.2267 24.7003 63.2084 25.2276 63.2951 25.3174C63.4098 25.4352 63.8738 25.2431 64.0497 25.1365C64.1901 25.0509 64.3561 24.9738 64.4892 24.7775C64.7701 24.3623 65.1718 24.4773 65.4038 23.8743C65.4038 23.8743 65.2182 22.455 65.2035 21.5448C65.1999 21.284 65.068 20.8142 64.5796 20.6066C64.0191 20.3682 63.4123 20.6501 63.4123 20.6501C63.4416 19.3865 63.8042 19.249 63.8042 19.249C64.908 19.2673 64.8702 19.8942 65.1449 20.0162C66.0375 20.4103 66.7359 19.4776 66.7359 19.4776C66.7359 19.4776 66.8019 19.1831 66.731 18.9573C66.5613 18.416 66.3049 18.0093 66.2817 17.9363C66.2658 17.8873 66.0363 17.4202 66.0522 17.259C66.057 17.2155 65.9142 16.8887 65.9166 16.8467L66.1498 16.8929C66.1217 16.7485 66.1315 16.7527 66.046 16.5998C65.9984 16.5143 65.891 16.4722 65.9142 16.4694C66.0607 16.4484 66.2707 16.339 66.2707 16.2941L66.134 16.1174L65.7603 15.9435L65.9166 15.2212L65.7567 15.2409L65.615 15.1805L65.5479 14.9632L64.7139 15.081L64.0973 14.8173C63.7591 14.7346 63.3732 14.7865 62.9214 14.7949C62.5917 14.8005 62.2352 14.8061 61.9763 14.6757C61.9763 14.6757 61.9544 14.9267 62.0704 15.0936C62.0704 15.0936 61.8139 15.2324 61.7492 15.2591C61.4 15.4021 61.2901 15.1483 61.2816 15.1637C61.1497 15.3839 61.3365 15.5859 61.2657 15.583C60.958 15.5718 60.7065 15.914 60.3035 15.8327C60.3035 15.8327 60.4598 16.1468 60.6063 16.2071C60.7419 16.2618 60.2974 16.2015 60.1069 15.9617C60.0972 15.9491 59.9201 16.1174 60.0508 16.2745C60.0898 16.3207 59.8359 16.2534 59.7992 16.3221C59.7992 16.3221 59.8127 16.0304 59.8444 16.0178C59.98 15.9673 60.0129 15.8046 59.98 15.6391C59.9641 15.5578 60.3341 15.6658 60.4098 15.649C60.7004 15.583 60.6503 15.3979 60.494 14.9912C60.4281 14.8173 60.0715 14.8678 59.9836 14.7149C59.8676 14.513 59.864 14.2507 59.7699 14.1245C59.6088 13.9085 59.0178 14.0698 58.8542 14.0305C58.4402 13.931 58.4842 13.9983 58.0629 14.5579C57.9836 14.663 58.0678 14.879 57.9848 14.9996C57.787 15.2843 57.3767 15.5452 57.24 15.9617C57.1875 16.1188 57.693 15.9126 57.6197 16.0501C57.5794 16.1272 57.0751 16.5465 57.0299 16.6166C56.6819 17.1468 56.4548 17.4483 55.9505 17.374C54.1642 17.1117 56.1813 20.4411 55.6416 20.4243C54.9554 20.4032 53.7808 21.3807 53.213 21.8225C53.2423 21.9249 52.8235 21.4972 52.1702 21.6809C51.556 21.8534 51.1641 22.1451 50.9773 22.312C50.1812 22.8884 50.2276 24.4212 50.1824 24.4731C49.8906 24.8111 49.241 25.1996 48.2605 25.4072C47.5804 25.5502 46.5413 25.6119 46.5217 25.6231C46.5217 25.6231 47.8734 26.9695 49.0395 27.0298C50.4937 27.1055 51.2227 26.5235 51.4547 26.3398C51.6134 26.2136 52.5744 25.7339 52.8369 25.3034C52.9175 25.1701 52.7246 25.8896 52.7478 25.9148C52.843 26.0186 51.8576 26.783 51.8589 27.0634" fill="white"/>
<path fill-rule="evenodd" clip-rule="evenodd" d="M59.2652 15.3314L58.9294 15.3974C58.9111 15.4899 58.8977 15.6526 58.8806 15.783C58.8745 15.8335 58.8012 15.8644 58.9075 15.9429C58.9429 15.9682 58.9209 15.9611 58.9795 15.9303C59.1297 15.8518 59.2494 15.5348 59.2652 15.3314ZM59.7011 15.6975C59.6352 15.6091 59.6205 15.4689 59.6181 15.417C59.6157 15.3791 59.5693 15.3623 59.3751 15.3623C59.3324 15.5011 59.3067 15.6175 59.2579 15.7227C59.1749 15.9008 59.1431 15.8644 59.1175 16.0271C59.2445 16.1519 59.3666 16.2683 59.5668 16.2613C59.6205 16.2514 59.6291 16.2066 59.5912 16.1449C59.5632 16.1 59.5009 16.0467 59.4557 15.9934C59.4875 15.9878 59.5375 15.9766 59.5644 15.9738C59.5925 15.9696 59.6499 15.9696 59.6499 15.9696C59.6755 15.9429 59.634 15.8644 59.6425 15.8223C59.6462 15.8041 59.761 15.7957 59.761 15.776C59.761 15.7564 59.7304 15.7171 59.7011 15.6961V15.6975ZM60.2579 17.4533L60.1871 17.3986L58.9758 17.7268C58.8953 17.4491 58.8305 17.1322 58.7426 16.8405C58.6193 16.4324 58.5619 16.3987 58.3617 16.1897C58.4996 16.1897 58.5509 16.2486 58.6376 16.2921C58.5827 16.1042 58.6083 16.0902 58.4374 16.0818C57.6828 16.0453 57.6193 16.891 56.9831 17.4099L57.0295 17.5585L56.745 17.595C56.745 17.595 56.7499 17.6104 56.7499 17.6132C56.7499 17.6146 56.7536 17.6272 56.7536 17.63C56.7536 17.6315 56.7548 17.6427 56.7536 17.6441L56.662 17.7212C56.662 17.7212 56.6498 17.7338 56.6461 17.7366C56.6424 17.7408 56.6351 17.7507 56.6327 17.7535C56.5423 17.8572 56.4019 17.7282 56.1247 17.9246C55.9684 18.0354 55.8891 18.0662 55.6913 18.1125C55.7926 18.3677 56.1027 18.6272 56.2932 18.766C56.3909 18.8376 56.3714 18.8333 56.5032 18.9161C56.5985 18.8474 56.6192 18.8053 56.6986 18.7015C56.557 18.6314 56.4923 18.6973 56.3702 18.5206C56.5753 18.5066 56.8048 18.5248 56.9624 18.3972C56.7816 18.3172 56.6974 18.3832 56.5631 18.2724C56.7829 18.1195 57.242 18.3299 57.6632 17.811C57.9087 17.5094 57.5265 16.8531 57.9709 16.5922C58.1333 17.3005 58.4459 17.968 58.8159 18.3383C59.2579 18.2527 59.9771 17.9414 60.3947 17.7521C60.3727 17.5754 60.3874 17.5179 60.2555 17.4547L60.2579 17.4533ZM59.0345 16.3791C58.9783 16.2655 58.8318 16.0467 58.7536 15.9948C58.6413 16.1855 58.8782 16.466 58.9331 16.5067C58.9453 16.4941 58.9587 16.4646 58.9746 16.445C58.9746 16.445 58.9917 16.4127 59.0357 16.3791H59.0345ZM59.1517 16.2374C59.1517 16.2374 59.3202 16.1757 59.0027 16.1168C59.032 16.1855 59.0271 16.208 59.0735 16.2486C59.1028 16.2865 59.1504 16.2374 59.1504 16.2374H59.1517ZM64.8356 15.748C64.8917 15.647 65.0432 15.4787 65.1311 15.4114C64.6414 15.5572 64.7574 15.6442 64.6488 15.7003C64.501 15.7774 64.4803 15.6007 64.5291 16.4422L65.0578 16.0761C64.9479 15.7031 64.9272 15.9696 64.8344 15.748H64.8356ZM64.2922 17.0326L64.44 16.926L64.3887 16.4758C64.3447 16.6273 64.3008 16.8433 64.291 17.0312L64.2922 17.0326ZM58.8806 20.679C58.9355 20.2568 58.9404 20.0324 58.4386 19.693C58.2884 19.5921 57.3482 18.7899 57.1968 18.7548C57.0405 18.7169 56.8757 18.9357 56.734 19.0129C56.4556 19.1643 55.966 18.7001 55.806 18.5949C55.9281 19.0002 56.2065 19.1868 56.4336 19.3537C57.0222 19.787 57.2713 19.9791 57.9807 20.3536C58.2041 20.4714 58.2164 20.4097 58.4642 20.4672C58.7182 20.5261 58.6877 20.6173 58.8806 20.6804V20.679ZM59.7036 18.2808C59.5033 18.1447 59.1211 18.4799 58.8513 18.494C58.662 18.5024 58.4068 18.0858 58.3238 17.8993C57.6339 18.1447 57.6742 18.1237 57.2835 18.6258C57.4642 18.8263 57.6791 18.9483 57.8476 19.1363C57.9734 19.0577 58.0576 18.9371 58.2469 18.9862C58.3983 19.0255 58.4215 19.0872 58.5582 19.1797C58.7206 19.0353 58.706 18.9946 58.9514 19.0423C59.1187 19.0297 59.6987 18.2934 59.7036 18.2808ZM65.8857 18.0213C65.9858 17.9456 65.9553 18.0073 65.8991 17.811C65.7587 17.3131 65.8649 17.1995 65.7098 16.8924C65.2898 16.0621 65.5255 16.682 65.1677 16.229C64.9223 16.3174 64.7416 16.4899 64.5572 16.6554C64.584 17.006 64.6585 17.3874 64.7587 17.717C64.8685 18.0802 65.0077 18.2457 65.1274 18.5374L65.3154 18.3902C65.2336 18.184 65.1347 17.9372 65.1103 17.6946C65.2373 17.8068 65.3179 18.1293 65.4009 18.3369L65.777 18.0858C65.6647 17.7647 65.5829 17.7661 65.418 17.6286C65.6207 17.6132 65.7233 17.6791 65.6683 17.3706C65.6402 17.2149 65.5487 17.0901 65.4876 17.0046C65.8271 17.0116 65.6988 17.7521 65.8857 18.0227V18.0213ZM58.7524 22.0646C58.7915 22.0814 58.7414 22.1515 58.9905 22.0001C59.5558 21.6579 60.0162 21.4391 59.8648 20.6635C59.7671 20.1601 59.1187 19.0802 58.8 19.1012C58.8916 19.2933 59.6096 19.8866 59.7292 20.693C59.8171 21.282 59.4777 21.5092 59.0674 21.7785C58.789 21.9608 58.7878 21.8949 58.7524 22.0646ZM58.7731 21.8528C59.2689 21.6466 59.7744 21.1824 59.5949 20.5205C59.5082 20.1979 59.3214 19.9735 59.148 19.7898C58.9832 19.6145 58.778 19.4294 58.6071 19.2737C58.5106 19.327 58.3983 19.414 58.3311 19.4925C58.5094 19.7029 59.0943 19.9216 58.9917 20.5191C58.9087 21.0057 58.7512 20.9482 58.7707 21.8542L58.7731 21.8528ZM65.2031 18.6566C65.291 18.8937 65.5047 19.2919 65.694 19.3705C65.9284 19.4672 65.8539 19.6145 66.0798 19.4546C66.1201 19.4266 66.2959 19.226 66.3057 19.2078C66.4742 18.9175 66.0493 18.2079 65.9846 18.191C65.9528 18.2724 65.9931 18.3832 66.0383 18.4841C66.0505 18.5122 66.0639 18.5416 66.0823 18.5655C66.0871 18.5725 66.0945 18.5809 66.1006 18.5865C66.1055 18.5921 66.1152 18.6005 66.1201 18.6062L66.2092 18.6693C66.031 18.8852 66.1604 18.7829 66.1067 19.0521L65.9601 19.0676C65.9125 18.9582 65.893 18.9497 65.9272 18.8039C65.9528 18.6973 65.998 18.6917 66.0139 18.5851C65.9015 18.5332 65.904 18.5248 65.8527 18.6651C65.8002 18.8081 65.8527 18.9371 65.8039 18.8586C65.8002 18.853 65.7978 18.881 65.7929 18.8922C65.7428 18.738 65.7587 18.6973 65.8319 18.5837C65.9626 18.3804 65.9394 18.5781 65.849 18.2583L65.4827 18.4883C65.5401 18.6805 65.639 18.8291 65.7318 18.968C65.5719 18.9357 65.473 18.738 65.3936 18.5374L65.2019 18.6566H65.2031ZM55.4641 24.3449C55.5716 24.0827 55.4153 23.6549 55.4983 23.453C55.8671 23.3927 56.1345 23.6087 56.4398 23.6704C56.5814 23.7896 57.1626 23.9158 57.3641 23.9214C57.7341 23.9312 58.1016 23.8934 58.4691 23.8807C58.9697 23.8064 59.4838 23.8218 60.0125 23.6521C60.0064 23.4572 59.2225 22.1726 59.0845 22.0435C58.4728 22.2946 58.7683 22.554 58.7902 22.7938C58.7976 22.8724 58.7683 23.0491 58.7683 23.1445C58.9832 23.3366 59.2298 23.2637 59.2457 23.582L59.0454 23.6311C58.6938 23.5582 58.3946 23.6521 58.1748 23.4965C58.1675 23.4923 58.159 23.4852 58.1529 23.4796C57.9294 23.3113 58.1602 23.4291 57.6425 23.3562C57.6205 23.0098 57.7267 22.9355 57.7792 22.6788C56.9746 22.9663 56.4886 23.3254 56.071 21.836C55.9721 21.4826 55.9465 21.1123 55.9196 21.0226C55.7841 20.5612 54.1344 21.5695 53.8402 21.8205C53.3994 22.195 52.8585 22.8934 52.8963 23.6451C52.9342 24.3926 53.6949 25.5034 53.4433 26.0896L52.9513 27.0026C52.6802 27.3925 52.4067 27.2732 52.4555 27.8847C52.602 27.9829 52.9085 28.1007 53.11 28.0839C53.4458 27.0587 53.7791 27.119 54.3261 26.3673C54.5813 26.0167 55.4361 24.7488 55.4617 24.3463L55.4641 24.3449ZM65.5059 19.5121C65.5401 19.3452 65.28 19.0437 65.1677 18.9259C65.2068 19.1615 65.2788 19.4813 65.5059 19.5121ZM57.9099 21.8795C57.8952 22.1151 57.9282 22.3941 57.8903 22.6031C57.8403 22.878 57.7047 22.8878 57.7316 23.2006C57.8036 23.2062 57.8903 23.1949 57.9612 23.1963C58.2713 23.2034 57.8867 23.2763 58.43 23.3759C58.6681 23.4193 58.9136 23.4852 59.1834 23.4586C58.8745 23.0351 57.9282 23.5385 58.568 21.484C58.6535 21.2105 58.7573 21.0394 58.8061 20.7589C58.6584 20.5359 58.3458 20.4602 58.054 20.5527C57.9697 20.9048 57.938 21.4615 57.9111 21.878L57.9099 21.8795ZM52.961 22.3591C52.635 22.1052 51.1612 22.0449 50.8096 23.5007C51.011 23.3338 51.2491 22.7251 51.7363 22.6185C51.6814 22.7518 51.6032 22.8485 51.5288 22.979C51.2479 23.4656 51.1869 23.5694 51.0367 24.1402C50.7278 25.314 50.8743 24.9242 50.3212 25.617C50.9598 25.3813 51.0635 24.4347 51.3139 23.8317C51.5227 23.3296 51.9476 22.4502 52.7474 22.4236C52.3615 22.7139 52.0147 22.8934 51.8316 23.2903C51.74 23.4895 51.6484 23.662 51.5666 23.8906C51.2467 24.7755 51.2723 25.1766 50.7094 25.5707C50.3773 25.8035 49.8523 26.0335 49.4493 26.1807H49.7229C49.4493 26.3182 49.2857 26.3687 48.967 26.4149C49.4982 26.7347 50.4848 26.3827 51.0196 26.0293C51.762 25.5398 51.7937 24.6282 52.0721 24.3491L52.16 24.9788C52.4177 24.373 52.3762 23.0533 52.7632 22.5863L52.9598 22.3591H52.961ZM58.441 22.749C58.5766 22.6396 58.5741 22.5162 58.579 22.3156C58.4337 22.3675 58.4593 22.3254 58.4313 22.4685C58.4154 22.5512 58.4276 22.6606 58.441 22.749ZM58.4984 22.8682C58.4984 22.9102 58.5424 22.9818 58.5619 23.0014C58.6718 23.108 58.557 23.021 58.6791 23.0589L58.6974 22.8219C58.6108 22.8037 58.4984 22.7462 58.4984 22.8696V22.8682ZM52.8756 28.2507C52.7535 28.1582 52.5654 28.1035 52.3945 28.1329C52.2919 28.3812 52.1869 29.4344 52.2272 29.7598C52.3346 29.8313 52.4763 29.8888 52.6484 29.8243C52.3725 29.6336 52.4152 29.5536 52.4287 29.1245C52.4384 28.8286 52.4861 28.5368 52.5324 28.2872L52.8768 28.2507H52.8756ZM52.6778 30.0908C52.5166 30.0851 52.4079 30.0248 52.2638 30.0529C52.0453 30.4329 52.2736 30.2366 52.088 30.3726C51.8157 30.5704 51.9769 30.3025 51.9537 30.7204L51.7498 30.8972C51.8401 31.0823 52.0111 31.2758 52.1454 31.3628C52.2541 31.1047 52.2467 30.914 52.4055 30.7261C52.6155 30.4778 52.7425 30.5451 52.679 30.0922L52.6778 30.0908ZM62.8807 18.386C63.0968 18.4785 63.1567 18.4084 63.3471 18.2303L63.9308 17.6006C64.0077 17.5122 64.0358 17.4618 64.0737 17.4085L64.3716 15.6975C63.6377 15.856 63.1835 16.1589 62.617 16.5586L61.5608 17.3762C61.4374 17.4519 61.2714 17.4982 61.1859 17.5964C61.3178 17.6988 61.4948 17.7745 61.6475 17.8418C61.8074 17.7507 61.9942 17.5235 62.1591 17.3944C62.5596 17.0789 63.5852 16.3664 64.0187 16.3468C63.9015 16.4478 63.5742 16.6119 63.4204 16.7044C63.2238 16.8236 63.0394 16.9429 62.8587 17.0691C62.5388 17.2935 62.0748 17.6525 61.8599 17.9344C62.2213 18.1265 62.512 18.2303 62.8795 18.3874L62.8807 18.386ZM62.9247 22.2791C63.0016 22.1515 63.7537 21.6172 64.1249 21.6172C64.2959 21.6172 64.3264 21.6873 64.4009 21.7771C64.4204 21.8023 64.4424 21.829 64.4632 21.8528L64.8905 21.6761C64.8869 21.4447 64.7623 21.2049 64.6427 21.0618C64.4961 20.8879 64.302 20.9342 64.0675 20.9609C63.5181 21.024 63.1701 21.2133 62.6768 21.3101C62.7452 20.9805 63.0846 20.5696 62.8868 19.7926C62.7806 19.3775 62.5913 19.1124 62.3227 18.9021C62.2739 18.8642 62.2604 18.8488 62.2018 18.8011C62.1835 18.7871 62.1493 18.759 62.1359 18.7478C62.0821 18.7029 62.1139 18.738 62.0651 18.6917L62.8331 18.5753C62.6084 18.4603 61.9088 18.1041 61.7219 18.0943L61.5791 18.3243L61.2812 18.2443C61.3544 18.1041 61.4142 18.1167 61.507 17.9849L61.3446 17.8783C61.1322 17.7703 61.0369 17.6819 60.8623 17.7647C59.5851 18.3663 59.6755 18.7113 59.2115 19.1699C59.413 19.5219 59.7597 19.9539 59.9209 20.5023C60.203 21.4657 59.5961 21.62 59.4508 21.8332C59.5485 22.0435 60.2591 23.4852 60.3471 23.561C61.2348 22.8892 60.2909 22.5568 60.4313 21.8065C60.5339 21.8991 60.7354 22.317 60.8782 22.4783C61.8135 23.5315 62.5339 22.4587 62.9295 22.2777L62.9247 22.2791ZM62.9857 22.282C62.9857 22.282 62.9857 22.282 62.9869 22.282C62.9869 22.282 62.9869 22.282 62.9857 22.282ZM63.5791 18.888C63.5889 19.1152 63.2372 19.5276 63.1835 19.7576C63.1396 19.9441 63.2177 20.1839 63.2165 20.383C63.2165 20.5878 63.1713 20.7519 63.1579 20.9356C63.8111 20.8977 64.4766 20.5892 64.7709 21.0057C65.1372 21.526 65.0493 22.1052 65.0908 22.7854C65.1115 23.1318 65.1909 23.4558 65.1372 23.7756C65.0749 24.1458 64.8722 24.0602 64.6243 24.286C64.5047 24.394 64.4803 24.4768 64.3862 24.5904C64.1945 24.819 63.6304 25.1934 63.4436 25.1948C63.3386 24.9774 63.3642 24.711 63.3581 24.4571C63.1212 24.5245 63.0223 24.6142 62.7867 24.61C62.6829 24.2356 62.8966 23.8976 62.8844 23.6577C62.9723 23.5441 62.9991 23.4474 63.0675 23.3352C63.2165 23.3324 63.3484 23.3773 63.4778 23.4123C63.6451 23.4572 63.7415 23.5273 63.816 23.3156C63.9601 23.2524 64.0566 23.0589 64.1066 22.885C64.1665 22.6802 64.1066 22.432 64.0675 22.1964L63.247 22.6648L63.081 22.7518L62.7452 22.9201L62.5449 23.0351C62.4118 23.108 62.2091 23.2104 62.1285 23.3352L61.9503 23.4025C61.3947 23.5413 61.7061 23.1024 61.1163 23.5063C60.8465 23.69 60.5314 23.8148 60.2372 23.9453C59.5436 24.1079 59.0918 24.1865 58.4227 24.2636C58.2615 24.2145 56.789 24.2818 56.3982 24.3155L56.2358 24.3281L55.9062 24.4095L55.4556 25.394C55.4116 25.4935 54.0136 27.234 53.7816 27.4485C52.9623 28.2073 53.0978 28.5242 52.834 30.0795C52.7815 30.3909 52.8853 30.4358 52.6729 30.6559C52.4995 30.8354 52.4531 30.8467 52.3688 31.0851C52.2907 31.3081 52.2443 31.855 51.7559 31.9588C51.6325 31.7386 51.5984 31.5423 51.5068 31.2772L51.2687 31.3501C51.1722 31.1244 51.0794 30.8425 51.0684 30.5494C51.055 30.1763 51.1795 30.1637 51.4531 30.144C51.4237 29.8509 51.4006 29.8173 51.6155 29.7023C51.8096 29.5985 51.7449 29.5578 51.7986 29.2914C51.9561 28.5144 51.9769 28.0684 52.1173 27.3588C52.2309 26.788 52.193 26.9282 52.6191 26.6632C52.7742 26.5664 53.0282 26.1148 53.1185 25.969C53.53 25.2972 52.961 25.1598 52.7962 23.9382C52.7303 23.4516 52.8218 23.2903 52.8719 22.9102C52.2882 23.3099 52.9745 25.2004 51.729 25.8932C51.8523 25.7109 52.0062 25.4374 52.0562 25.1485C51.7131 25.8287 50.7595 26.6309 49.6923 26.6772C49.0159 26.7067 48.326 26.4192 47.7069 26.1541C47.5018 26.0657 47.3443 25.9017 47.1917 25.8385C47.3138 25.8315 47.5226 25.9241 47.6764 25.9493C48.0464 26.011 49.0952 26.1246 49.3651 25.8063C49.1539 25.7881 48.9683 25.6759 48.8107 25.5791C49.4103 25.4613 49.7119 25.3253 50.1356 24.9354C50.4677 24.631 50.7705 24.3071 50.7876 23.7657C50.6862 23.9424 50.6728 24.1472 50.569 24.3506C50.5544 23.7433 50.7143 22.8121 51.2528 22.439C51.4885 22.2763 51.9622 22.0505 52.2553 22.0309C52.6362 22.0043 52.8914 22.1165 53.204 22.2301C53.2883 22.1529 53.2065 22.2343 53.2773 22.1431L53.4482 21.9257C53.7303 21.6004 53.9684 21.4391 54.3335 21.2189C54.8964 20.8809 55.3469 20.822 55.9648 20.6509L56.0429 20.4265C56.093 20.9005 56.154 22.9229 56.9672 22.8401C57.2127 22.8149 57.6254 22.7097 57.7914 22.5554C57.8525 22.3184 57.8232 21.9187 57.8415 21.6466C57.8598 21.3704 57.85 21.4363 57.7975 21.2119C57.7572 21.0394 57.8146 20.9763 57.8293 20.808L57.5802 21.5218C57.4972 21.3872 57.5655 21.2876 57.6181 21.1123C57.6864 20.8823 57.6669 20.9524 57.5765 20.7743C57.4691 20.564 57.3384 20.2232 57.2469 20.003C56.9111 20.1278 56.7707 20.2414 56.3946 20.1334C56.0844 20.0451 55.8329 19.9427 55.7963 19.6397C56.0612 19.5963 56.3274 19.7856 56.6986 19.7505L56.3042 19.4672C56.165 19.3649 56.0734 19.3004 55.9306 19.1685C55.8268 19.0732 55.6949 18.9175 55.6583 18.7071C55.5985 18.3691 55.7438 18.7674 55.5399 18.1069C55.5447 18.0971 55.5533 18.0858 55.5569 18.0802L55.69 17.9498C55.4641 17.8867 55.4971 17.9091 55.6021 17.6399C56.0185 17.6301 56.2688 17.9835 56.8537 17.3327L57.6681 16.3272C57.8586 16.0565 58.1065 15.9135 58.5888 15.8938C58.6388 15.8924 58.4728 15.7269 58.5057 15.7241C58.4264 15.5278 58.2383 15.3735 58.4056 14.9332C58.4471 14.8238 58.518 14.6905 58.5802 14.6134C58.9062 14.2207 58.7206 14.3427 59.1749 14.3988C59.2872 14.4128 59.4069 14.4647 59.4984 14.518C59.717 14.6457 59.7842 14.8125 59.8648 15.18H59.8501C59.7842 15.0229 59.7317 14.8827 59.6437 14.7242C59.6779 14.8757 59.7329 15.0229 59.7451 15.1772L59.2835 15.187C59.192 14.856 59.1614 14.8336 59.054 14.5882L59.2078 15.1758L58.6901 15.3048C59.0967 15.2347 59.4362 15.1449 59.8586 15.18C59.9539 15.1884 60.0735 15.2711 60.1444 15.3427C60.1529 15.3511 60.1578 15.3946 60.1627 15.4268C60.0919 15.445 59.8721 15.4156 59.7194 15.3932L59.7622 15.6035L59.8049 15.6554C59.8208 15.6736 59.8452 15.7059 59.8574 15.7325C59.8623 15.7438 59.8757 15.8097 59.866 15.8237C59.8501 15.8447 59.7793 15.8602 59.728 15.877C59.728 15.877 59.7463 15.9906 59.75 16.02C59.75 16.02 59.7329 16.0327 59.7194 16.0313L59.728 16.1126C59.728 16.1126 59.6853 16.1336 59.6645 16.1238C59.6645 16.1238 59.7097 16.2304 59.6743 16.3005C59.6633 16.323 59.6572 16.3286 59.6389 16.3398C59.5277 16.3931 59.3641 16.2416 59.2701 16.243C59.2701 16.243 59.1553 16.2627 59.1443 16.3146C59.137 16.4352 59.2115 16.4408 59.2664 16.5516C59.2677 16.5544 59.2664 16.5586 59.2664 16.5614C59.2689 16.5838 59.2457 16.6021 59.2359 16.6021C59.1126 16.6301 59.0747 16.4085 59.021 16.466C58.9136 16.6189 58.8989 17.156 58.9649 17.4421C59.1724 17.4491 59.6865 17.2626 59.8831 17.17C60.2054 17.02 60.0333 16.7914 60.4154 17.1925C61.203 16.9667 61.3385 16.8208 61.3923 16.7016C61.9259 16.5123 61.6597 16.5768 61.9649 16.3721C61.9955 16.351 61.9039 16.2248 61.9503 16.1996H62.1163C62.2629 16.1322 62.1969 16.1154 62.3483 16.086C62.6231 16.0313 62.4228 15.8616 62.9295 15.7087H63.0358C63.3679 15.5278 63.291 15.6091 63.6487 15.5194C63.9284 15.4493 63.9491 15.3357 64.2605 15.3076C64.8979 15.5053 64.4265 15.5362 64.7965 15.3609C64.9113 15.3076 65.0309 15.2894 65.1665 15.2221C65.2813 15.166 65.3814 15.1014 65.4998 15.0468C65.49 15.2178 65.4375 15.3371 65.3899 15.4422C65.5316 15.3819 65.5682 15.3216 65.7428 15.3048C65.722 15.4016 65.4546 15.8728 65.3973 15.9457C65.4632 16.0032 65.6305 16.1224 65.7452 16.1757C65.8576 16.2276 66.0297 16.2346 66.1311 16.2963C65.9223 16.3749 65.8905 16.3552 65.6915 16.337C65.8148 16.5796 65.9272 16.5586 66.0505 16.7479C65.9113 16.7129 65.8625 16.6638 65.7355 16.6343C65.8686 17.0845 65.871 17.0088 65.9199 17.5179C65.9699 18.0438 66.4388 18.7787 66.4486 19.0662C66.4547 19.2344 66.2019 19.5584 66.092 19.6299C65.9308 19.7351 65.4717 19.7449 65.3277 19.6776C65.0712 19.5584 65.0969 19.3284 64.849 19.2485C64.6329 19.1797 63.7257 18.8656 63.584 18.8838L63.5791 18.888ZM63.9454 18.1461C63.8734 18.2752 63.8795 18.3467 63.8148 18.4631C63.7415 18.5977 63.6939 18.5851 63.7134 18.738L64.6695 19.0437C64.7501 18.9582 64.7611 18.961 64.8099 18.839C64.6768 18.6959 64.5718 18.6707 64.4339 18.508C64.3093 18.3607 64.2849 18.2738 64.1665 18.184C64.1042 18.1069 64.0712 18.1181 63.9479 18.1461H63.9454ZM64.2055 17.5557L64.2202 17.6272C64.2556 18.083 64.5352 18.3944 64.8356 18.4491C64.711 17.9498 64.5425 17.602 64.4558 17.0326C64.3862 17.1083 64.3386 17.1616 64.2995 17.2612L64.2055 17.5571V17.5557ZM64.9638 23.4965C64.672 23.2889 64.7208 23.1445 64.7184 22.669C64.7159 22.2679 64.6304 22.0758 64.8466 21.8416C64.2617 21.9454 64.352 22.1501 64.3594 22.7391C64.3667 23.3198 64.5975 23.3997 64.9638 23.4979V23.4965ZM62.9149 24.4571C63.0724 24.3632 62.9454 24.474 63.0138 23.9929C63.0394 23.812 63.0712 23.7251 63.1029 23.5666C62.965 23.7237 62.9063 24.0013 62.8758 24.2412C62.849 24.4487 62.8905 24.4207 62.9161 24.4571H62.9149ZM64.9955 23.7419L64.3472 23.6493C64.2043 23.8134 64.1762 23.9382 63.8636 23.9929L63.9515 24.7573C64.258 24.6156 64.2971 24.4361 64.4742 24.2398C64.6573 24.0364 64.7843 24.028 64.8844 23.9326C64.9772 23.8443 64.9809 23.7629 64.9955 23.7433V23.7419ZM63.5779 24.1262C63.4863 24.4319 63.4973 24.7236 63.5205 25.077C63.722 24.9494 63.6109 24.8905 63.5975 24.5918C63.5913 24.4417 63.5755 24.2468 63.5767 24.1262H63.5779ZM51.3627 31.1987C51.3651 31.1258 51.2638 30.8537 51.215 30.7597C51.1966 30.8383 51.1844 31.1931 51.3627 31.1987Z" fill="#FD3813"/>
<path fill-rule="evenodd" clip-rule="evenodd" d="M56.0405 20.4273C56.0454 20.3292 56.0503 20.1707 56.0076 20.0234C56.0149 20.0248 56.0247 20.0234 56.0295 20.0347L56.2371 20.1903C56.3263 20.2562 56.3971 20.3081 56.5204 20.3306C56.8354 20.3895 56.9905 20.2394 57.2616 20.1567L57.358 20.4358C57.0662 20.6181 56.6315 20.6896 56.3165 20.5676C56.2078 20.5255 56.1455 20.4568 56.0405 20.4287" fill="#FD3813"/>
<path fill-rule="evenodd" clip-rule="evenodd" d="M53.9177 22.2901C53.7248 22.6252 53.5343 22.7487 53.4598 23.2493C53.3915 23.7079 53.483 24.1862 53.538 24.6672C53.2486 24.1974 52.9885 23.1988 53.4501 22.607C53.5465 22.4822 53.7334 22.2312 53.9177 22.2901Z" fill="#FD3813"/>
<path fill-rule="evenodd" clip-rule="evenodd" d="M62.0838 20.6841C62.052 20.0179 62.2914 19.7964 61.9019 19.2031C62.0887 19.2648 62.2938 19.5018 62.3365 19.8581C62.3805 20.2171 62.2608 20.4864 62.0838 20.6841Z" fill="#FD3813"/>
<path fill-rule="evenodd" clip-rule="evenodd" d="M59.987 17.5631L59.7489 17.4144L59.7232 17.3976L59.6878 17.3261C59.6353 17.2644 59.5498 17.2405 59.4729 17.2111L59.5559 17.19C59.7904 17.1704 60.0089 17.3247 60.1176 17.162C59.9845 17.0989 59.899 17.0077 59.7757 16.9306C59.6194 16.8324 59.5913 16.81 59.512 16.6767C59.4961 16.6403 59.5059 16.6389 59.5132 16.6291C59.6451 16.7861 59.86 16.7272 59.9283 16.7427C60.0895 16.7777 60.1567 16.9039 60.3533 16.8226C60.3301 16.7959 60.1176 16.7413 60.0175 16.6262C59.9784 16.5814 59.9564 16.5337 59.8929 16.5C59.8319 16.4678 59.755 16.4594 59.7354 16.4481C59.7183 16.4369 59.7061 16.4131 59.7061 16.4131C59.783 16.4131 59.7977 16.392 59.8649 16.3682C59.987 16.3261 60.1603 16.3682 60.2788 16.3892C60.1884 16.2897 60.0297 16.2027 60.0736 16.047C60.0907 16.0695 60.0944 16.0695 60.1017 16.0905C60.1274 16.1606 60.1652 16.2055 60.2421 16.2434C60.3044 16.2742 60.3887 16.2995 60.4571 16.3107C60.6744 16.3486 60.7086 16.2392 60.8551 16.1803C61.1079 16.0386 61.1237 16.0891 61.2117 16.0414C61.0981 16.0078 61.0871 16.026 60.9931 16.0541C60.9442 16.0681 60.8637 16.1059 60.7892 16.1102C60.7074 16.1102 60.4717 16.0667 60.4131 15.9264C60.7489 16.0512 60.9394 15.7385 61.1701 15.695C61.2886 15.6726 61.451 15.7119 61.5194 15.5632C61.407 15.5085 61.3179 15.4552 61.3142 15.3542C61.313 15.3416 61.3264 15.2981 61.3289 15.2967L61.3655 15.3374C61.396 15.3823 61.6134 15.3641 61.6805 15.3823C61.7196 15.3612 61.7086 15.3711 61.7489 15.3584C61.7758 15.35 61.7794 15.35 61.8014 15.3388C62.0395 15.2224 62.0249 15.1705 62.3484 15.2014C62.3313 15.1635 62.2581 15.1397 62.2227 15.1116C62.1567 15.0583 62.0835 14.9377 62.1311 14.8536C62.3619 14.9826 62.6732 14.9882 62.9406 14.883L63.0725 14.8718C63.1433 14.883 63.1116 14.7666 62.766 14.6572C62.9846 14.5422 63.3631 14.6937 63.6549 14.8746C63.8112 14.9714 63.893 14.8998 64.0615 14.9377C64.1592 14.9601 64.2557 14.9952 64.3473 15.0541L64.8979 15.4131L64.6171 15.5758C64.2972 15.5337 63.6513 15.6754 63.4425 15.7511C63.103 15.8745 62.6952 16.1887 62.3814 16.364C62.1091 16.5155 61.8954 16.6515 61.6329 16.8534C61.3704 17.0554 61.1396 17.197 60.9198 17.4453C60.8844 17.4845 60.8478 17.5336 60.8136 17.5757L60.6561 17.6767C60.6256 17.7075 60.6463 17.6907 60.6182 17.7061C60.6146 17.6318 60.7477 17.5701 60.8063 17.4972C60.7586 17.4958 60.5022 17.6164 60.3643 17.657C60.3643 17.657 60.081 17.6136 59.9894 17.5645L59.6719 17.6136C59.6072 17.6094 59.6561 17.6192 59.6524 17.5827L59.6817 17.5631C59.6902 17.5042 59.7354 17.535 59.6548 17.5014C59.6744 17.4649 59.6609 17.4859 59.6829 17.4775L59.7513 17.4158L59.9894 17.5645L59.987 17.5631ZM62.4901 15.9489C62.5011 15.9292 62.5023 15.9362 62.4803 15.9264C62.4083 15.9461 62.3484 15.9615 62.2703 15.9867C62.1995 16.0106 62.1262 16.019 62.0334 16.0008C61.871 15.9671 61.6549 15.8493 61.4791 15.7904L61.2666 15.8311C61.2007 15.8465 61.0773 15.9138 61.0444 15.9713C61.0663 15.9601 61.1384 15.9292 61.1836 15.9152C61.2092 15.9068 61.2581 15.8914 61.2788 15.8872C61.4668 15.8493 61.7465 16.0625 61.8429 16.113C62.0676 16.2308 62.1482 16.1494 62.2898 16.0527C62.3436 16.0162 62.4266 15.9741 62.4876 15.9489H62.4901ZM62.5169 15.789C62.4046 15.8058 62.2117 15.6656 62.1445 15.6053L61.9101 15.5127L61.81 15.5085C62.0395 15.6123 62.1201 15.8058 62.3802 15.8423C62.4559 15.8535 62.5035 15.8339 62.5707 15.8395C62.6012 15.8212 62.6439 15.8226 62.5182 15.789H62.5169ZM62.6622 15.7048C62.4876 15.6319 62.4742 15.6333 62.3668 15.5169C62.2813 15.451 62.2581 15.4314 62.1396 15.4019C62.1873 15.4791 62.2678 15.5366 62.3008 15.5786C62.3692 15.6628 62.5426 15.7259 62.6622 15.7048ZM62.9651 15.6586C63.0444 15.6487 63.0969 15.6361 63.1714 15.5983C63.3387 15.5141 63.3021 15.5352 63.4632 15.4987C63.3802 15.4286 63.335 15.4454 63.2398 15.4328C63.2215 15.4496 62.9638 15.5576 62.9089 15.5618C62.7904 15.5702 62.6134 15.4524 62.5414 15.3823C62.4193 15.3206 62.3118 15.2701 62.2019 15.3472C62.2764 15.3795 62.4376 15.4272 62.4901 15.4678C62.6183 15.566 62.7819 15.681 62.9638 15.6586H62.9651ZM63.136 15.3879L63.1189 15.3584C63.0554 15.3304 62.9699 15.444 62.727 15.3655C62.9077 15.5856 63.0237 15.3991 63.1372 15.3865L63.136 15.3879ZM64.0835 15.3332L64.125 15.2981C64.0017 15.2645 63.8759 15.3388 63.7514 15.3598C63.6549 15.3767 63.5597 15.3795 63.4632 15.3556C63.4364 15.35 63.3961 15.336 63.3668 15.3416C63.4693 15.5211 63.7429 15.4314 63.8625 15.4005C63.9114 15.3837 63.9407 15.3753 63.9785 15.3612C63.9919 15.3556 64.02 15.3416 64.031 15.3388C64.0506 15.3332 64.0774 15.3304 64.0835 15.3332ZM61.6121 15.6698C61.6305 15.7259 61.6121 15.6796 61.7343 15.7301C61.926 15.8086 61.9382 15.8816 62.1396 15.8731C62.1702 15.8437 62.1604 15.8493 62.1286 15.8465C62.0383 15.8465 61.9553 15.7806 61.8808 15.7357C61.7745 15.6712 61.694 15.6838 61.6121 15.6712V15.6698ZM61.7404 16.1508C61.6488 16.0723 61.5206 15.9937 61.3911 15.9601C61.2849 15.932 61.2751 15.9573 61.2751 15.9629L61.7404 16.1508ZM60.8075 17.1269C60.7855 17.1592 60.7965 17.1508 60.7562 17.1816C60.7428 17.1914 60.7416 17.1928 60.7269 17.1999C60.4998 17.312 60.4986 17.2616 60.2788 17.1774C60.3423 17.3541 60.6842 17.3499 60.7941 17.2069C60.8466 17.1367 60.8136 17.1353 60.8075 17.1283V17.1269ZM60.4656 17.1325C60.8954 17.1115 60.976 16.8268 61.2214 16.7665C61.2739 16.7539 61.2996 16.7651 61.3423 16.7553C61.0334 16.5898 60.8832 16.953 60.6182 17.0414C60.4277 17.1045 60.3923 17.0175 60.2568 17.0147C60.2922 17.0778 60.3813 17.1045 60.4668 17.1311L60.4656 17.1325ZM61.1836 16.4243C61.1262 16.4327 61.0395 16.4369 60.8502 16.587C60.6597 16.737 60.5413 16.7132 60.324 16.6838C60.302 16.6838 60.28 16.6809 60.2592 16.6866C60.3887 16.8128 60.639 16.7973 60.7684 16.7356C60.9064 16.6697 61.0431 16.507 61.1848 16.4888L61.3997 16.5267C61.3985 16.4327 61.2593 16.4145 61.1836 16.4257V16.4243ZM60.7049 16.4972C60.8795 16.4411 61.0065 16.3233 61.175 16.2911C61.3179 16.263 61.4143 16.3458 61.5609 16.385C61.7636 16.4383 61.7404 16.4047 61.9015 16.3682C61.9028 16.3177 61.9003 16.3416 61.8271 16.3444C61.7135 16.3472 61.5706 16.2827 61.4668 16.2434C61.0151 16.0695 60.9626 16.2995 60.6988 16.4397C60.5901 16.4972 60.4387 16.5281 60.3117 16.5C60.4265 16.5617 60.5767 16.5421 60.7061 16.5L60.7049 16.4972ZM59.976 17.3499C60.004 17.413 60.1237 17.4481 60.1909 17.4565C60.2605 17.4649 60.3484 17.4523 60.3923 17.4186C60.3386 17.4116 60.2715 17.4158 60.197 17.4046C60.1188 17.3934 60.0529 17.3738 59.976 17.3499ZM63.169 15.1621H63.1714C63.0725 15.1649 62.9516 15.1621 62.843 15.1579C62.843 15.1579 62.8417 15.1579 62.8405 15.1579H62.843C62.7819 15.1649 62.7111 15.1621 62.6195 15.1369C62.6024 15.1326 62.5853 15.127 62.5658 15.12L62.5584 15.1158C62.5548 15.1088 62.5682 15.1004 62.6012 15.0934H62.6097C62.7331 15.0864 62.8662 15.1004 62.987 15.1228C63.053 15.1355 63.1152 15.1495 63.1702 15.1635L63.169 15.1621ZM63.169 15.1621H63.1714C63.3631 15.1565 63.473 15.1326 63.2532 15.0808C63.2459 15.0794 63.2373 15.0766 63.2288 15.0751C63.0969 15.0471 63.0774 15.0499 62.9626 15.0485C62.7746 15.0639 62.661 15.078 62.6036 15.092C62.5951 15.0948 62.6048 15.092 62.6085 15.092C62.5755 15.0948 62.5462 15.0962 62.5133 15.1018C62.5291 15.1074 62.545 15.1144 62.5597 15.1186C62.5621 15.1186 62.5633 15.1186 62.5658 15.12L62.5584 15.1158C62.5584 15.1158 62.5585 15.1172 62.5609 15.1186C62.5682 15.1256 62.589 15.1312 62.6195 15.1369C62.672 15.1453 62.7514 15.1537 62.8405 15.1579H62.8442C62.8967 15.1509 62.9419 15.1369 62.9858 15.1214C63.064 15.0948 63.1397 15.0667 63.2532 15.0808C63.3033 15.0864 63.3594 15.1018 63.4278 15.127C63.6281 15.1467 64.0738 14.9335 64.2349 15.1691C64.0237 15.1635 64.0554 15.0948 63.6684 15.2112C63.5621 15.2434 63.4999 15.2659 63.3778 15.2224C63.3778 15.2224 63.2935 15.193 63.1702 15.1607C63.1702 15.1607 63.1702 15.1607 63.169 15.1607" fill="#FD3813"/>
<path fill-rule="evenodd" clip-rule="evenodd" d="M58.2477 15.5491C57.8424 15.7118 57.7544 15.8437 57.564 15.7932C57.614 15.5407 57.6519 15.4874 57.8827 15.3794C57.9791 15.3346 58.0988 15.3009 58.1916 15.2715C58.2709 14.9377 58.249 14.458 58.5249 14.3038L58.5933 14.2729C58.7203 14.2645 58.8106 14.2631 58.9376 14.2561C58.9962 14.2533 59.0072 14.2561 59.0622 14.2407C59.2856 14.179 59.5469 14.1313 59.647 14.4426C59.6971 14.5983 59.7008 14.8086 59.7753 14.9545C59.9547 15.005 60.083 15.026 60.2405 15.1186C60.409 15.2182 60.4578 15.2672 60.4151 15.5015L59.6409 15.3808C59.3796 15.3444 58.7117 15.3654 58.2465 15.5519" fill="#FC4114"/>
<path fill-rule="evenodd" clip-rule="evenodd" d="M59.4414 14.5292C59.4414 14.5432 59.4512 14.5684 59.4524 14.5825C59.4084 14.5095 59.3352 14.4801 59.2717 14.4843C59.1142 14.5095 58.9542 14.5558 58.7771 14.5558C58.7576 14.5488 58.5964 14.5292 58.594 14.5165C58.6331 14.5109 58.6917 14.5123 58.7503 14.5095C58.8712 14.5025 59.014 14.4955 59.1239 14.4661C59.1654 14.4548 59.2143 14.4422 59.2619 14.438C59.3327 14.4324 59.4158 14.4745 59.4402 14.5292" fill="white"/>
<path fill-rule="evenodd" clip-rule="evenodd" d="M65.9409 24.4058L65.9458 32.676L64.9861 32.6423L65.0044 24.4002C65.1619 24.3272 65.7859 24.3006 65.9409 24.4058Z" fill="white"/>
<path fill-rule="evenodd" clip-rule="evenodd" d="M65.1361 26.4833C64.9383 26.4567 64.5806 26.7793 64.3058 26.5002C64.1227 26.3151 64.1544 25.827 64.362 25.6755C64.4353 25.6222 64.815 25.4511 64.8919 25.4147L65.1581 25.2969L65.1374 26.4847L65.1361 26.4833Z" fill="white"/>
<path fill-rule="evenodd" clip-rule="evenodd" d="M65.1766 29.7271L65.1619 30.9458L64.8005 30.8546C64.6894 30.8041 64.3865 30.6639 64.3096 30.5517C64.1265 30.2824 64.3255 29.7355 64.6234 29.664C64.7724 29.6303 65.0545 29.7172 65.1766 29.7271Z" fill="white"/>
<path fill-rule="evenodd" clip-rule="evenodd" d="M64.4534 27.6485C64.5046 27.5797 64.6927 27.4998 64.7708 27.483C64.8465 27.4676 65.0834 27.4311 65.1579 27.4297V28.5909C65.0675 28.5951 64.7659 28.6035 64.6866 28.5853C64.3471 28.511 64.1469 27.9963 64.4534 27.6471" fill="white"/>
<path fill-rule="evenodd" clip-rule="evenodd" d="M64.2814 28.5256C64.2814 28.5256 64.2888 28.5312 64.2912 28.5354C64.1435 28.5424 63.6233 28.5662 63.4743 28.5634C62.9847 28.5522 63.0323 27.7809 63.3376 27.7192C63.467 27.6855 63.9628 27.642 64.0873 27.6406C64.0641 27.6953 64.0018 27.7851 63.9591 27.8482C63.9237 27.9001 63.898 27.9702 63.898 28.0543C63.898 28.2942 64.1593 28.4148 64.2814 28.5284" fill="white"/>
<path fill-rule="evenodd" clip-rule="evenodd" d="M63.8759 26.4672C63.9382 26.5878 64.2154 26.7028 64.2154 26.7211C64.2154 26.7631 63.4974 27.0618 63.2874 26.9188C63.1457 26.8347 62.9821 26.3915 63.2825 26.2414C63.5169 26.1236 63.6329 26.1026 63.8649 26.0156C63.8295 26.1475 63.8124 26.3452 63.8759 26.4686" fill="white"/>
<path fill-rule="evenodd" clip-rule="evenodd" d="M62.8553 26.61C62.7491 26.7685 62.9322 26.9564 63.0958 27.063C62.9676 27.1486 62.6123 27.2972 62.4609 27.1738C62.3754 27.0883 62.318 26.8022 62.4206 26.7138C62.4645 26.6759 62.8638 26.3997 62.8565 26.6086" fill="white"/>
<path fill-rule="evenodd" clip-rule="evenodd" d="M65.7844 24.6116L65.7892 32.4456H65.1372V24.6116C65.2874 24.5414 65.6391 24.5106 65.7844 24.6116Z" fill="#FC4114"/>
<path fill-rule="evenodd" clip-rule="evenodd" d="M65.0881 26.3843C64.9013 26.3591 64.6669 26.6578 64.4068 26.3942C64.2334 26.2189 64.253 25.9159 64.4508 25.7729C64.5204 25.7224 64.7646 25.599 64.8366 25.5653L65.0881 25.4531V26.3843Z" fill="#FC4114"/>
<path fill-rule="evenodd" clip-rule="evenodd" d="M65.092 29.8559V30.8025L64.7647 30.6623C64.6597 30.6146 64.5535 30.5936 64.4815 30.4856C64.3081 30.2304 64.4302 29.8896 64.7135 29.8222C64.8551 29.79 64.976 29.8475 65.092 29.8559Z" fill="#FC4114"/>
<path fill-rule="evenodd" clip-rule="evenodd" d="M64.5525 27.6983C64.6013 27.6324 64.7491 27.603 64.8211 27.5875C64.8932 27.5721 65.0177 27.5483 65.0873 27.5469L65.0934 28.4865C65.0079 28.4907 64.8529 28.4823 64.7772 28.4655C64.4548 28.3954 64.2607 28.0293 64.5513 27.6983" fill="#FC4114"/>
<path fill-rule="evenodd" clip-rule="evenodd" d="M64.0166 28.419C64.0166 28.419 64.0227 28.4246 64.0264 28.4274C63.886 28.4344 63.7358 28.4274 63.5941 28.4232C63.1301 28.412 63.1692 27.8846 63.4586 27.8257C63.5819 27.7935 63.8139 27.75 63.9324 27.75C63.9104 27.8019 63.8628 27.8145 63.8225 27.8748C63.7895 27.9239 63.7638 27.9912 63.7638 28.0698C63.7638 28.297 63.9006 28.3138 64.0154 28.4204" fill="#FC4114"/>
<path fill-rule="evenodd" clip-rule="evenodd" d="M63.7492 26.5271C63.8078 26.6421 63.9775 26.6954 63.9775 26.7136C63.9775 26.7543 63.4903 26.9254 63.3426 26.8384C63.2083 26.7599 63.0776 26.4626 63.3634 26.3195C63.4049 26.2985 63.4549 26.2719 63.4952 26.2522C63.6112 26.1961 63.6137 26.1961 63.7407 26.1484C63.7065 26.2733 63.6906 26.4093 63.7504 26.5257" fill="#FC4114"/>
<path fill-rule="evenodd" clip-rule="evenodd" d="M62.7808 26.6572C62.6806 26.8072 62.8443 26.9797 62.9578 27.0428C62.8369 27.1228 62.6501 27.1747 62.5256 27.0905C62.445 27.0092 62.4047 26.8325 62.5024 26.7483C62.5439 26.7119 62.7942 26.5394 62.782 26.6586" fill="#FC4114"/>
<path fill-rule="evenodd" clip-rule="evenodd" d="M62.6363 15.0874C62.9794 15.0271 63.1808 15.0594 63.3713 15.1099C63.3713 15.1295 63.4006 15.201 63.4006 15.2207C63.3127 15.2094 63.2248 15.1618 63.1442 15.1632C62.9806 15.1632 62.8219 15.1744 62.6375 15.1449C62.5777 15.1337 62.5142 15.1043 62.5142 15.1028C62.5142 15.0986 62.6155 15.0916 62.6375 15.086" fill="white"/>
<path fill-rule="evenodd" clip-rule="evenodd" d="M65.4526 17.3008C65.4391 17.333 65.4342 17.3681 65.4355 17.4046L65.35 17.4186H65.3012C65.3012 17.4186 65.2902 17.42 65.2853 17.4214C65.2132 17.4284 65.1583 17.448 65.0728 17.3821C65.0276 17.3471 64.9971 17.2966 64.9715 17.2545L64.9007 17.11C64.9837 17.061 65.0044 17.1016 65.046 17.0343C64.969 16.9375 64.9324 16.9375 64.8298 16.9081C64.9055 16.8674 64.9385 16.8941 65.0118 16.8716C65.0569 16.7791 65.0423 16.6949 65.0069 16.6094L65.0606 16.65C65.0753 16.6823 65.096 16.7833 65.1119 16.8155C65.0948 16.9684 65.1388 17.0413 65.3109 17.1395C65.3378 17.1549 65.361 17.1647 65.383 17.169C65.4281 17.1858 65.4513 17.1998 65.4831 17.2405L65.4538 17.3008H65.4526Z" fill="#FC4114"/>
<path fill-rule="evenodd" clip-rule="evenodd" d="M65.1895 17.2017C65.0198 17.126 65.1016 17.3868 65.1895 17.2017V17.2017Z" fill="#1B1B1B"/>
<path fill-rule="evenodd" clip-rule="evenodd" d="M65.1895 17.2017C65.0198 17.126 65.1016 17.3868 65.1895 17.2017V17.2017Z" fill="#EBEBEB"/>
<path fill-rule="evenodd" clip-rule="evenodd" d="M65.0645 17.2099C65.0645 17.2099 65.0803 17.1762 65.1279 17.172C65.1463 17.1706 65.1719 17.1818 65.2012 17.1874C65.3038 17.2085 65.3294 17.2281 65.3294 17.2281C65.3294 17.2281 65.261 17.3136 65.1792 17.2968C65.0962 17.28 65.0657 17.2099 65.0657 17.2099" fill="white"/>
<path fill-rule="evenodd" clip-rule="evenodd" d="M65.2556 17.1797C65.2849 17.1825 65.2886 17.2176 65.2788 17.261C65.269 17.3045 65.2507 17.3382 65.2214 17.3354C65.1921 17.3326 65.1762 17.2947 65.186 17.2526C65.1958 17.2091 65.2263 17.1769 65.2556 17.1811" fill="#FC4114"/>
</g>
<defs>
<filter id="filter0_d_1850_79634" x="0.875" y="0.65625" width="115.25" height="66.25" filterUnits="userSpaceOnUse" color-interpolation-filters="sRGB">
<feFlood flood-opacity="0" result="BackgroundImageFix"/>
<feColorMatrix in="SourceAlpha" type="matrix" values="0 0 0 0 0 0 0 0 0 0 0 0 0 0 0 0 0 0 127 0" result="hardAlpha"/>
<feOffset dy="0.78125"/>
<feGaussianBlur stdDeviation="1.5625"/>
<feComposite in2="hardAlpha" operator="out"/>
<feColorMatrix type="matrix" values="0 0 0 0 0 0 0 0 0 0 0 0 0 0 0 0 0 0 0.08 0"/>
<feBlend mode="normal" in2="BackgroundImageFix" result="effect1_dropShadow_1850_79634"/>
<feBlend mode="normal" in="SourceGraphic" in2="effect1_dropShadow_1850_79634" result="shape"/>
</filter>
</defs>
</svg>
