<svg width="117" height="67" viewBox="0 0 117 67" fill="none" xmlns="http://www.w3.org/2000/svg">
<g filter="url(#filter0_d_1850_79833)">
<rect width="109" height="60" transform="translate(4 3)" fill="white"/>
<path d="M66.3285 30.4928C66.2772 31.5021 65.8802 32.3162 64.925 32.7856C64.7141 32.8891 64.5913 33.0422 64.4978 33.2522C63.7103 35.005 62.4324 36.2701 60.686 37.0667C60.201 37.2877 59.6978 37.4508 59.1734 37.5398C58.8791 37.5893 58.6563 37.7139 58.484 37.966C58.2915 38.2484 58.0678 38.5106 57.8505 38.7764C57.7634 38.8837 57.6608 38.8864 57.5728 38.7801C57.3638 38.5289 57.1492 38.2786 56.965 38.0091C56.7752 37.7314 56.5259 37.6039 56.2022 37.5315C53.8884 37.0145 52.1741 35.7081 51.085 33.5932C51.0493 33.5235 51.0089 33.4557 50.9833 33.3833C50.8742 33.0752 50.6762 32.8781 50.3755 32.7223C49.2891 32.1558 48.9866 31.0181 49.1085 30.1169C49.2433 29.1113 49.698 28.2816 50.5817 27.7343C50.7706 27.617 50.8568 27.4483 50.9402 27.2622C51.482 26.054 52.3052 25.0703 53.3659 24.2874C54.0617 23.7731 54.8281 23.3853 55.6669 23.1736C56.0629 23.0737 56.3709 22.8848 56.6496 22.5924C56.9063 22.3228 57.2061 22.0937 57.4948 21.8562C57.6672 21.7141 57.7341 21.7169 57.9065 21.8507C58.264 22.1276 58.6123 22.4164 58.9222 22.7473C59.0973 22.9352 59.299 23.0507 59.5538 23.1158C60.785 23.433 61.8713 24.0271 62.7982 24.898C63.3464 25.4132 63.8029 26.0063 64.1687 26.6654C64.2824 26.8699 64.3878 27.0789 64.4813 27.2934C64.572 27.5006 64.7086 27.6491 64.8984 27.7783C65.8481 28.4237 66.2827 29.3487 66.3303 30.4946L66.3285 30.4928ZM52.3694 27.584C52.1979 27.5932 52.0265 27.5941 51.856 27.6142C51.1455 27.6968 50.5377 27.9846 50.0803 28.5447C49.5862 29.1498 49.3451 29.8529 49.4028 30.6303C49.5156 32.1603 50.6505 32.7901 51.7277 32.7333C52.1063 32.7131 52.4335 32.5747 52.6829 32.3006C53.1724 31.7616 53.3154 31.1345 53.0835 30.4341C53.034 30.2838 52.9515 30.1499 52.8342 30.0436C52.5756 29.8071 52.2694 29.7906 51.9587 29.8978C51.6791 29.9941 51.5186 30.2783 51.5205 30.6056C51.5214 30.7642 51.5691 30.9108 51.6204 31.0593C51.669 31.2005 51.5874 31.2968 51.4334 31.3041C51.2189 31.3142 51.0328 31.2335 50.876 31.0988C50.469 30.7504 50.2728 30.2985 50.3342 29.7704C50.4186 29.0407 50.8311 28.5347 51.5113 28.2679C52.0604 28.0524 52.6279 27.9929 53.2064 28.1606C53.6601 28.2926 54.0782 28.4934 54.454 28.7831C55.0591 29.2497 55.5019 29.8474 55.8383 30.5258C56.0611 30.975 56.2169 31.449 56.2848 31.9486C56.3196 32.2043 56.2472 32.2896 55.985 32.3043C55.798 32.3144 55.611 32.3052 55.4239 32.3144C55.1663 32.3263 55.0884 32.4161 55.1095 32.6627C55.1223 32.814 55.1883 32.8836 55.3451 32.8974C55.4533 32.9066 55.5633 32.9038 55.6724 32.9066C55.7815 32.9084 55.8906 32.9047 55.9996 32.913C56.2545 32.9322 56.3178 33.0074 56.3123 33.2723C56.3113 33.3347 56.3086 33.3979 56.2967 33.4584C56.1995 33.9342 56.062 34.3972 55.798 34.8106C55.7145 34.9408 55.6164 35.0655 55.5083 35.1755C55.3268 35.3598 55.0948 35.4551 54.8381 35.4707C54.41 35.4963 54.0763 35.1654 54.1029 34.751C54.1103 34.6383 54.1799 34.531 54.2459 34.5356C54.3523 34.542 54.3413 34.6401 54.3734 34.7043C54.3871 34.7318 54.3999 34.7611 54.4192 34.785C54.5063 34.8959 54.6291 34.9362 54.7492 34.895C54.8886 34.8473 54.9729 34.7153 54.9518 34.5659C54.9261 34.3825 54.8299 34.2496 54.6621 34.1689C54.3807 34.0323 53.9993 34.1368 53.7949 34.4256C53.5703 34.7428 53.5309 35.0957 53.6922 35.4459C53.8471 35.7796 54.1231 35.9721 54.4999 35.9987C55.0169 36.0345 55.4469 35.8465 55.797 35.4753C55.9575 35.3047 56.0867 35.1095 56.1986 34.9023C56.4764 34.3889 56.6487 33.8407 56.7303 33.265C56.7761 32.9432 56.9008 32.8992 57.1685 32.9194C57.3124 32.9304 57.3894 33.0184 57.3885 33.1678C57.3885 33.2302 57.3757 33.2916 57.3702 33.3539C57.3252 33.9012 57.1887 34.4293 57.0209 34.95C56.8485 35.4844 56.6689 36.0161 56.4846 36.546C56.4287 36.7074 56.4378 36.8476 56.5442 36.9842C56.8788 37.416 57.207 37.8514 57.5443 38.2805C57.6626 38.4308 57.7469 38.4253 57.878 38.2603C58.1595 37.9064 58.4354 37.548 58.7095 37.1886C59.0175 36.7844 59.0203 36.7807 58.8498 36.2994C58.6362 35.6971 58.4152 35.0967 58.2502 34.4788C58.1411 34.0717 58.0531 33.6601 58.0394 33.2366C58.0311 32.9707 58.1054 32.9002 58.3648 32.9157C58.5537 32.9277 58.6169 32.9707 58.6637 33.1504C58.6994 33.2861 58.7214 33.4245 58.7434 33.563C58.825 34.0782 59.0111 34.5549 59.2651 35.0068C59.4127 35.269 59.6125 35.4872 59.8426 35.676C60.1745 35.9465 60.5604 36.0455 60.9812 35.9923C61.4359 35.9355 61.7512 35.6064 61.7934 35.159C61.8411 34.6539 61.6376 34.3138 61.2232 34.1442C60.9088 34.0158 60.5558 34.2386 60.4651 34.5063C60.4174 34.6474 60.4697 34.795 60.5962 34.8711C60.7218 34.9463 60.8748 34.9197 60.9729 34.7996C61.0014 34.7648 61.0215 34.7199 61.0389 34.6777C61.0683 34.608 61.0829 34.5127 61.1875 34.5457C61.27 34.5714 61.2874 34.6603 61.3048 34.7355C61.3378 34.8812 61.2975 35.0132 61.2205 35.137C61.0527 35.4074 60.7291 35.5349 60.4055 35.4478C60.1259 35.3726 59.8875 35.2259 59.7225 34.9839C59.3833 34.4852 59.1826 33.9324 59.0982 33.3365C59.0918 33.2907 59.0927 33.243 59.0945 33.1963C59.101 33.0157 59.1661 32.9332 59.343 32.9212C59.5602 32.9057 59.7794 32.9148 59.9975 32.9029C60.2405 32.8901 60.3211 32.7828 60.29 32.5344C60.2744 32.4115 60.2075 32.3373 60.0791 32.3244C59.9554 32.3125 59.8298 32.3162 59.7051 32.3116C59.5804 32.3079 59.4557 32.3098 59.332 32.2969C59.1844 32.2814 59.112 32.1933 59.1138 32.0467C59.1138 31.9999 59.1184 31.9532 59.1276 31.9073C59.3879 30.6046 59.9948 29.511 61.071 28.7052C61.3983 28.4604 61.765 28.2908 62.1583 28.1744C62.7853 27.9874 63.3904 28.0579 63.9853 28.3046C64.2659 28.421 64.5024 28.597 64.6866 28.8344C65.2303 29.5357 65.2083 30.3003 64.7004 30.9402C64.5409 31.1409 64.3364 31.2794 64.0706 31.3059C63.8084 31.3325 63.7241 31.2271 63.8157 30.9851C63.8432 30.9127 63.8808 30.8421 63.901 30.7678C64.0101 30.3626 63.7296 29.9299 63.3143 29.8584C62.877 29.7832 62.5305 29.9785 62.3425 30.4057C62.0125 31.1538 62.3508 32.1704 63.0686 32.5637C63.1896 32.6297 63.3253 32.6884 63.46 32.7095C64.4932 32.8681 65.5805 32.3666 65.8995 31.2216C66.1892 30.1802 65.9407 29.246 65.2275 28.4393C64.8177 27.9764 64.2869 27.7188 63.6846 27.6289C62.6496 27.4749 61.6999 27.7023 60.8583 28.3321C59.7216 29.1828 59.0414 30.3223 58.7535 31.7056C58.7251 31.8432 58.6994 31.9807 58.6646 32.1163C58.6334 32.2374 58.5427 32.2869 58.4235 32.3006C58.077 32.3409 57.9624 32.23 58.0091 31.8798C58.0339 31.6946 58.0724 31.5113 58.1127 31.3289C58.2117 30.8861 58.363 30.4598 58.5317 30.0399C58.8113 29.346 59.1019 28.6557 59.376 27.9599C59.6107 27.364 59.7784 26.7498 59.8619 26.1108C59.9691 25.2885 59.7959 24.5313 59.3833 23.8226C59.0084 23.1772 58.4803 22.673 57.8927 22.2266C57.7277 22.1019 57.6809 22.1019 57.5187 22.222C57.0915 22.5401 56.6964 22.8949 56.37 23.3157C55.8181 24.0261 55.5019 24.8182 55.5376 25.7395C55.5578 26.2428 55.6339 26.7314 55.7824 27.21C56.0464 28.0598 56.4048 28.8738 56.7422 29.6962C57.0145 30.3599 57.2831 31.0263 57.3848 31.7432C57.4004 31.8505 57.4123 31.9596 57.4078 32.0678C57.405 32.1246 57.3757 32.1933 57.3362 32.2328C57.185 32.384 56.8137 32.3015 56.7495 32.1026C56.711 31.9843 56.6881 31.8606 56.6652 31.7386C56.4305 30.5194 55.8713 29.4771 54.9445 28.6492C54.2157 27.9974 53.3833 27.5666 52.3703 27.5849L52.3694 27.584ZM59.7399 23.6255C59.7839 23.8556 59.9554 23.8951 60.1094 23.9565C60.5008 24.1114 60.8794 24.2911 61.2388 24.512C62.2279 25.118 63.0063 25.9302 63.5902 26.9294C63.6681 27.0624 63.7204 27.2146 63.8506 27.3117C63.8689 27.3255 63.9056 27.3172 63.9322 27.3126C63.9395 27.3117 63.9505 27.2842 63.9468 27.2732C63.9285 27.2146 63.9129 27.1531 63.8845 27.1C63.1273 25.679 62.029 24.6165 60.5595 23.9473C60.2927 23.8263 60.0131 23.7319 59.7399 23.6255ZM51.5516 27.3044C51.5764 27.2888 51.6112 27.2787 51.6259 27.2558C51.7249 27.0981 51.8193 26.9368 51.9165 26.7773C52.6847 25.5122 53.7601 24.6046 55.1196 24.028C55.2479 23.973 55.3808 23.9262 55.5083 23.8703C55.5495 23.8529 55.5834 23.819 55.6183 23.7878C55.6265 23.7805 55.6247 23.7557 55.6192 23.7429C55.6137 23.73 55.5963 23.7117 55.5862 23.7135C55.511 23.7227 55.4322 23.7255 55.3607 23.7493C54.4293 24.0591 53.6244 24.5808 52.9148 25.25C52.3795 25.7551 51.9413 26.34 51.5966 26.9909C51.5535 27.0715 51.5278 27.1623 51.4966 27.2494C51.493 27.2595 51.504 27.2787 51.5131 27.2879C51.5223 27.2971 51.5388 27.298 51.5526 27.3026L51.5516 27.3044ZM53.4612 35.7402C53.4181 35.5385 53.2843 35.4148 53.1532 35.2882C52.8397 34.9857 52.5335 34.6777 52.2731 34.3248C52.0696 34.0488 51.8826 33.7637 51.7249 33.4584C51.6681 33.3484 51.603 33.2421 51.5361 33.1385C51.5241 33.1193 51.4783 33.1082 51.4545 33.1156C51.4352 33.122 51.4086 33.166 51.415 33.1834C51.4435 33.2714 51.4746 33.3594 51.5168 33.4419C51.7423 33.8875 52.01 34.3092 52.3345 34.6878C52.5967 34.994 52.8947 35.2699 53.1825 35.5541C53.2568 35.6274 53.3209 35.7219 53.463 35.7393L53.4612 35.7402ZM61.9658 35.7732C62.8312 35.0453 63.5123 34.2762 63.9532 33.3136C63.9725 33.2723 63.9817 33.2265 63.9918 33.1816C63.9945 33.1697 63.9853 33.144 63.978 33.1422C63.9523 33.1357 63.912 33.1257 63.9001 33.1385C63.8579 33.1825 63.8194 33.232 63.791 33.2861C63.3821 34.0607 62.8623 34.7492 62.2078 35.3341C62.1042 35.4267 62.0043 35.5257 61.9667 35.7732H61.9658ZM61.0481 36.37C60.9097 36.3022 60.829 36.3132 60.7603 36.3434C60.334 36.535 59.8967 36.6945 59.4521 36.8384C59.4108 36.8522 59.376 36.8898 59.3421 36.92C59.3329 36.9274 59.332 36.9494 59.3347 36.9631C59.3375 36.976 59.3485 36.9934 59.3595 36.9961C59.3879 37.0044 59.4209 37.0163 59.4484 37.0099C59.9902 36.8696 60.5109 36.6762 61.0481 36.37ZM54.3284 36.3636C54.8858 36.6643 55.401 36.8678 55.9428 37.008C55.9703 37.0154 56.0042 37.0071 56.0336 37.0007C56.0464 36.998 56.0602 36.9833 56.0657 36.9705C56.0712 36.9576 56.0712 36.9365 56.0638 36.9255C56.0189 36.8549 55.9437 36.8284 55.8704 36.8054C55.4844 36.6854 55.1031 36.5515 54.7373 36.3764C54.6392 36.3297 54.5356 36.2967 54.3294 36.3636H54.3284ZM64.429 29.0535C64.4162 29.0654 64.3951 29.0764 64.396 29.0847C64.4657 29.5623 64.4602 30.0436 64.4703 30.5249C64.4712 30.5698 64.4868 30.6175 64.5775 30.5936C64.6692 30.1573 64.6206 29.7108 64.573 29.2653C64.5638 29.181 64.539 29.0774 64.4281 29.0535H64.429ZM50.9915 29.0691C50.9759 29.0719 50.9512 29.0691 50.9475 29.0783C50.7027 29.5586 50.7568 30.061 50.8393 30.5661C50.8412 30.5762 50.8678 30.5918 50.8733 30.5881C50.8953 30.5753 50.9255 30.5597 50.931 30.5386C50.942 30.4946 50.9402 30.447 50.9411 30.4002C50.9429 29.9822 50.9365 29.5641 51.0218 29.1516C51.0273 29.1269 51.0034 29.0966 50.9934 29.0682L50.9915 29.0691Z" fill="#12100B"/>
<path d="M74.2308 30.219C74.2308 29.6735 74.2289 29.1281 74.2308 28.5826C74.2317 28.3314 74.1968 28.0857 74.1483 27.841C74.107 27.631 73.9741 27.5155 73.7761 27.4688C73.656 27.4404 73.5304 27.4312 73.4084 27.4083C73.3571 27.3991 73.3342 27.3579 73.3333 27.3065C73.3324 27.2488 73.3745 27.2213 73.4194 27.2148C73.5111 27.2011 73.6046 27.191 73.6972 27.1901C74.2738 27.1883 74.8505 27.1901 75.4262 27.1901C75.4885 27.1901 75.5509 27.1919 75.6132 27.1983C75.6737 27.2048 75.7452 27.2112 75.7626 27.2827C75.7883 27.3909 75.6994 27.4074 75.626 27.4275C75.5664 27.444 75.5032 27.4486 75.4436 27.4669C75.2612 27.5238 75.1576 27.654 75.1328 27.8382C75.1136 27.9767 75.1099 28.1178 75.1053 28.2572C75.0329 30.1255 75.021 31.9956 75.0081 33.8649C75.0072 34.0354 75.0164 34.2086 74.9531 34.3727C74.9036 34.5029 74.7725 34.568 74.6525 34.5038C74.558 34.4534 74.4673 34.3892 74.3884 34.3159C74.217 34.1573 74.0538 33.9895 73.8879 33.8245C73.0509 32.9875 72.2084 32.1542 71.3788 31.3099C70.8443 30.7654 70.3291 30.2016 69.8038 29.6479C69.7287 29.569 69.6498 29.4939 69.5673 29.4223C69.5499 29.4068 69.5041 29.4049 69.483 29.4168C69.4619 29.4288 69.4445 29.4682 69.4463 29.4939C69.5224 30.4894 69.4922 31.4868 69.5096 32.4842C69.516 32.8592 69.5554 33.2305 69.593 33.6027C69.6022 33.6943 69.6232 33.7878 69.6544 33.8749C69.6984 33.9978 69.7828 34.0876 69.9129 34.1243C69.9881 34.1454 70.0651 34.16 70.1384 34.1857C70.242 34.2224 70.4281 34.1738 70.4071 34.3526C70.3915 34.4855 70.232 34.4525 70.1293 34.4534C69.4747 34.4571 68.8211 34.4552 68.1665 34.4534C68.1051 34.4534 68.0419 34.4442 67.9823 34.4305C67.9383 34.4204 67.8934 34.3975 67.8906 34.3397C67.8879 34.2893 67.9099 34.249 67.9584 34.2343C68.0483 34.2086 68.139 34.1866 68.2289 34.1655C68.4755 34.1078 68.5919 33.9409 68.6148 33.6989C68.624 33.6063 68.6286 33.5128 68.6304 33.4193C68.6598 31.9085 68.6891 30.3978 68.7166 28.887C68.7239 28.4506 68.7221 28.0142 68.7267 27.5779C68.7285 27.4385 68.7248 27.2974 68.7918 27.1663C68.844 27.0627 68.9705 27.0196 69.0668 27.0874C69.142 27.1406 69.2116 27.2048 69.2749 27.2717C69.6617 27.6769 70.0431 28.0885 70.4336 28.4919C71.5722 29.6662 72.7136 30.8378 73.854 32.0112C73.9191 32.0781 73.9832 32.1469 74.0511 32.2111C74.1061 32.2633 74.1602 32.3559 74.2363 32.3293C74.3591 32.2862 74.2848 32.1716 74.283 32.0873C74.2683 31.4639 74.2518 30.8415 74.2353 30.2181C74.2326 30.2181 74.2308 30.2181 74.228 30.2181L74.2308 30.219Z" fill="#12100B"/>
<path d="M79.879 37.3257C74.1742 37.3257 68.4702 37.3257 62.7654 37.3257C62.5793 37.3257 62.3923 37.3174 62.2062 37.3028C62.1695 37.3 62.1154 37.256 62.1072 37.2221C62.0989 37.1891 62.1273 37.1313 62.1576 37.1057C62.4353 36.8655 62.736 36.684 63.1284 36.7353C63.2512 36.7509 63.3778 36.7381 63.5024 36.7381C74.6619 36.7381 85.8213 36.7381 96.9816 36.7381C97.1842 36.7381 97.3868 36.7381 97.5885 36.7518C97.7343 36.761 97.8113 36.8536 97.8214 36.9947C97.8324 37.157 97.7554 37.2698 97.5995 37.3C97.5088 37.3174 97.4143 37.3229 97.3208 37.3257C97.165 37.3303 97.0091 37.3275 96.8533 37.3275C91.1952 37.3275 85.538 37.3275 79.8799 37.3275L79.879 37.3257Z" fill="#12100B"/>
<path d="M80.6667 24.4935C86.1249 24.4935 91.5823 24.4935 97.0405 24.4935C97.2275 24.4935 97.4145 24.4953 97.6006 24.5128C97.7446 24.5265 97.8151 24.6219 97.8225 24.7685C97.8307 24.9418 97.7565 25.0555 97.6025 25.072C97.4484 25.0894 97.2917 25.0894 97.1358 25.0894C95.1245 25.0903 93.1123 25.0894 91.101 25.0894C82.3214 25.0894 73.5427 25.0894 64.7631 25.0894C64.5917 25.0894 64.4194 25.0784 64.2489 25.0903C63.9463 25.1114 63.7483 24.9583 63.5934 24.7227C63.5356 24.6338 63.5796 24.5238 63.6878 24.5146C63.8739 24.4999 64.0609 24.4926 64.2479 24.4926C69.6273 24.4917 75.0077 24.4926 80.3871 24.4926C80.4806 24.4926 80.5741 24.4926 80.6676 24.4926L80.6667 24.4935Z" fill="#12100B"/>
<path d="M36.3253 37.3225C30.8863 37.3225 25.4473 37.3225 20.0083 37.3225C19.8213 37.3225 19.6334 37.3234 19.4482 37.306C19.2566 37.2877 19.1677 37.174 19.1778 36.9943C19.1869 36.8366 19.2713 36.7523 19.4519 36.7413C19.6224 36.7312 19.7947 36.733 19.9662 36.733C26.6519 36.733 33.3377 36.733 40.0234 36.733C43.9975 36.733 47.9715 36.733 51.9456 36.733C52.0858 36.733 52.227 36.745 52.3664 36.7312C52.7468 36.6936 53.02 36.8889 53.2749 37.13C53.2941 37.1483 53.3124 37.1969 53.3014 37.2116C53.2776 37.2473 53.2382 37.2932 53.2015 37.2959C53.0154 37.3115 52.8293 37.3216 52.6423 37.3216C48.2786 37.3225 43.915 37.3225 39.5513 37.3225C38.476 37.3225 37.4007 37.3225 36.3253 37.3225Z" fill="#12100B"/>
<path d="M35.567 24.4922C40.7731 24.4922 45.9783 24.4922 51.1845 24.4931C51.3706 24.4931 51.5576 24.5059 51.7428 24.5215C51.8188 24.528 51.861 24.6407 51.8198 24.7058C51.6795 24.9249 51.5099 25.0963 51.2221 25.0862C51.0974 25.0817 50.9727 25.0881 50.848 25.0881C40.5457 25.0881 30.2426 25.0881 19.9403 25.0881C19.7688 25.0881 19.5974 25.0881 19.4269 25.0734C19.2619 25.0587 19.1849 24.9561 19.1858 24.7874C19.1858 24.6242 19.2665 24.5243 19.4361 24.5078C19.6066 24.4913 19.778 24.4922 19.9494 24.4922C22.7547 24.4922 25.5608 24.4922 28.366 24.4922C30.766 24.4922 33.1669 24.4922 35.567 24.4922Z" fill="#12100B"/>
<path d="M80.1797 34.55C79.5215 34.5793 78.9055 34.4418 78.327 34.1374C77.6468 33.779 77.1857 33.2262 76.9216 32.5148C76.5898 31.6228 76.632 30.7446 77.0665 29.8902C77.4213 29.1926 77.9594 28.6865 78.6891 28.4188C79.9166 27.9696 81.1405 27.9889 82.3066 28.6123C83.1802 29.0798 83.6487 29.8462 83.7293 30.8344C83.7825 31.4789 83.7174 32.106 83.4286 32.7028C83.0244 33.537 82.3762 34.076 81.509 34.3712C81.0763 34.5179 80.6298 34.5729 80.1797 34.5509V34.55ZM78.1015 31.0921C78.1015 31.2479 78.0932 31.4037 78.1033 31.5587C78.1418 32.15 78.3362 32.6881 78.7019 33.1529C79.2144 33.8038 79.9111 34.0861 80.7188 34.0109C81.4512 33.9431 81.9573 33.5159 82.1874 32.8146C82.4835 31.9134 82.4853 31.0068 82.126 30.1166C81.8097 29.3347 81.2358 28.8616 80.4052 28.6957C79.395 28.494 78.4893 29.0395 78.1987 30.0277C78.096 30.3779 78.0942 30.7345 78.1006 31.093L78.1015 31.0921Z" fill="#12100B"/>
<path d="M90.016 28.2356C90.3744 28.2356 90.7329 28.2392 91.0913 28.2346C91.3902 28.2301 91.6817 28.2841 91.9705 28.3483C92.2161 28.4033 92.4407 28.5115 92.6351 28.6774C93.1503 29.1165 93.2988 29.7445 93.0311 30.3679C92.9257 30.6145 92.7717 30.829 92.5902 31.0243C92.537 31.0811 92.482 31.137 92.4261 31.1911C92.0438 31.5642 92.0099 31.5358 92.372 31.9777C92.7864 32.4837 93.1952 32.9953 93.649 33.4692C93.9781 33.8121 94.3237 34.1183 94.8114 34.2053C94.8747 34.2164 94.9407 34.253 94.9407 34.3199C94.9407 34.4153 94.8582 34.4474 94.7775 34.4474C94.3723 34.4474 93.9662 34.4611 93.5628 34.4345C93.2456 34.4134 92.9569 34.2805 92.7295 34.0504C92.5434 33.8625 92.3582 33.6709 92.1978 33.4619C91.9035 33.0787 91.6285 32.6817 91.3453 32.2903C91.2536 32.1638 91.1729 32.0189 91.0125 31.9758C90.8007 31.919 90.5688 31.8741 90.3772 31.9942C90.2122 32.0978 90.2772 32.3068 90.2745 32.4736C90.2699 32.7853 90.2745 33.097 90.2828 33.4087C90.2855 33.5325 90.2993 33.6581 90.3203 33.78C90.3552 33.9826 90.4661 34.1164 90.6797 34.1577C90.7851 34.1778 90.8878 34.2163 90.9896 34.2549C91.0097 34.2622 91.0271 34.3053 91.0253 34.3309C91.0235 34.3575 91.0033 34.396 90.9813 34.4052C90.9254 34.4281 90.864 34.452 90.8044 34.452C90.1031 34.4547 89.4018 34.4547 88.7005 34.452C88.6409 34.452 88.5795 34.4309 88.5226 34.4089C88.5006 34.3997 88.4786 34.363 88.4759 34.3364C88.4731 34.3108 88.4869 34.2668 88.5061 34.2576C88.5895 34.2182 88.6775 34.1861 88.7656 34.1558C88.9342 34.0981 89.014 33.9762 89.0241 33.8047C89.0342 33.6489 89.0442 33.493 89.0452 33.3381C89.0479 31.9658 89.0488 30.5943 89.0507 29.222C89.0507 29.1752 89.0507 29.1285 89.0479 29.0817C89.0287 28.6848 88.9938 28.6417 88.6152 28.5353C88.5556 28.5188 88.4915 28.5078 88.4383 28.4794C88.4016 28.4602 88.3567 28.4134 88.3567 28.3786C88.3567 28.3126 88.4108 28.2676 88.4768 28.2603C88.6005 28.2475 88.7243 28.2392 88.849 28.2383C89.2386 28.2356 89.6282 28.2374 90.0178 28.2374L90.016 28.2356ZM90.2763 30.0828C90.2763 30.0828 90.2727 30.0828 90.2708 30.0828C90.2708 30.3156 90.2699 30.5494 90.2708 30.7823C90.2745 31.3735 90.3213 31.4185 90.9052 31.4166C91.4268 31.4148 91.7844 31.1398 91.9173 30.6347C91.998 30.3294 92.0062 30.0287 91.9356 29.7133C91.7734 28.9864 91.1839 28.7489 90.6274 28.759C90.3909 28.7636 90.2864 28.8635 90.2782 29.1028C90.2663 29.4292 90.2754 29.7555 90.2754 30.0828H90.2763Z" fill="#12100B"/>
<path d="M29.9122 28.2192C29.9122 28.4529 29.9149 28.6867 29.9113 28.9205C29.9094 29.014 29.8847 29.1047 29.8178 29.1772C29.7838 29.2129 29.6674 29.2138 29.65 29.1689C29.6106 29.0681 29.5675 28.9663 29.5464 28.8618C29.4382 28.3182 29.1064 27.9808 28.5903 27.8121C27.8935 27.5848 27.1867 27.538 26.4717 27.715C25.9143 27.8525 25.4899 28.1706 25.1883 28.6592C25.0058 28.9553 24.8747 29.2752 24.8197 29.6135C24.7088 30.2937 24.6776 30.9804 24.8738 31.6533C25.2176 32.8285 25.9785 33.583 27.173 33.8754C27.6818 34.0001 28.1961 33.9708 28.6984 33.8305C29.1119 33.7159 29.4107 33.4574 29.5858 33.0614C29.6363 32.9477 29.6848 32.8322 29.7463 32.7249C29.7637 32.6947 29.8315 32.6727 29.8682 32.6809C29.9058 32.6892 29.9479 32.735 29.9617 32.7735C29.9819 32.8304 29.9919 32.8973 29.9828 32.9559C29.9314 33.2786 29.8755 33.6013 29.8159 33.9231C29.7646 34.1963 29.5932 34.3613 29.3291 34.4328C29.2686 34.4493 29.2091 34.4713 29.1486 34.4796C28.516 34.5657 27.8871 34.6647 27.2427 34.5896C26.7146 34.5281 26.1921 34.4576 25.6915 34.2696C25.2497 34.1037 24.8399 33.8818 24.4897 33.5628C23.3814 32.5526 23.0614 31.2893 23.3731 29.8601C23.705 28.3356 24.927 27.3574 26.4002 27.1118C27.5131 26.9266 28.6049 27.0549 29.6922 27.2905C29.9113 27.3382 29.9544 27.3987 29.9507 27.6105C29.947 27.8131 29.9324 28.0157 29.9223 28.2173C29.9195 28.2173 29.9168 28.2173 29.914 28.2173L29.9122 28.2192Z" fill="#12100B"/>
<path d="M43.203 31.3451C43.203 30.7061 43.203 30.0671 43.203 29.4291C43.203 29.32 43.2039 29.2109 43.1993 29.1018C43.1819 28.6829 43.1562 28.6517 42.7373 28.5325C42.5613 28.483 42.4806 28.4198 42.5109 28.3556C42.5585 28.252 42.6575 28.2502 42.7492 28.2456C42.8895 28.2392 43.0297 28.2419 43.17 28.2419C44.26 28.2401 45.35 28.274 46.44 28.2273C46.4858 28.2254 46.5335 28.2272 46.5793 28.2328C46.6508 28.2428 46.6976 28.2988 46.693 28.3602C46.6673 28.7003 46.7013 29.0477 46.5766 29.3759C46.5628 29.4126 46.5161 29.4456 46.4776 29.4603C46.4299 29.4777 46.3905 29.4465 46.3667 29.4007C46.3593 29.3869 46.3511 29.3732 46.3483 29.3585C46.2741 28.9524 45.9825 28.8506 45.6259 28.8451C45.3454 28.8405 45.0649 28.8341 44.7853 28.8433C44.6074 28.8497 44.5185 28.9286 44.5149 29.1018C44.5048 29.5996 44.5048 30.0983 44.5149 30.5961C44.5185 30.7666 44.6093 30.8473 44.7899 30.85C45.1942 30.8565 45.5994 30.8546 46.0036 30.8372C46.1228 30.8317 46.2383 30.7602 46.3566 30.7235C46.4583 30.6914 46.5427 30.7474 46.5592 30.8528C46.5638 30.883 46.5738 30.9151 46.5702 30.9454C46.5363 31.2699 46.5014 31.5944 46.4638 31.9189C46.4556 31.9859 46.4061 32.039 46.3428 32.0436C46.2768 32.0482 46.2365 31.9905 46.2117 31.9299C46.2062 31.9153 46.1989 31.9006 46.1971 31.8859C46.1494 31.5596 45.9385 31.4505 45.6351 31.4532C45.3702 31.456 45.1052 31.4404 44.8412 31.4487C44.6056 31.456 44.5158 31.5303 44.5112 31.7521C44.5002 32.2966 44.4965 32.843 44.5149 33.3876C44.5249 33.6892 44.6395 33.7909 44.9384 33.8569C45.3078 33.9385 45.6745 33.9477 46.0504 33.8716C46.3199 33.8166 46.5152 33.7048 46.5958 33.4316C46.605 33.4013 46.6151 33.372 46.627 33.3436C46.6628 33.2583 46.6948 33.1538 46.8159 33.1886C46.8984 33.2125 46.9231 33.3041 46.9213 33.3811C46.914 33.6617 46.88 33.9394 46.8039 34.2099C46.7618 34.3575 46.6582 34.451 46.5051 34.4702C46.3355 34.4913 46.1631 34.5216 45.9945 34.5078C45.0456 34.4326 44.0959 34.4546 43.1462 34.4565C43.0068 34.4565 42.8666 34.4482 42.7272 34.4363C42.6823 34.4326 42.6383 34.4051 42.63 34.351C42.6218 34.3015 42.6374 34.2612 42.686 34.2383C42.6997 34.2319 42.7135 34.2209 42.7281 34.219C43.1315 34.1631 43.2003 33.8863 43.1966 33.5397C43.1883 32.8073 43.1938 32.0757 43.1938 31.3432C43.1975 31.3432 43.2003 31.3432 43.2039 31.3432L43.203 31.3451Z" fill="#12100B"/>
<path d="M31.2467 34.4356C30.9351 34.4356 30.6243 34.4375 30.3126 34.4338C30.2429 34.4338 30.1943 34.3806 30.2035 34.3128C30.2081 34.278 30.2585 34.2248 30.2915 34.2211C30.8296 34.1735 31.0396 33.7875 31.2247 33.353C31.8949 31.7753 32.5751 30.2012 33.2507 28.6254C33.3186 28.4677 33.3717 28.3036 33.4909 28.1743C33.6 28.0552 33.7614 28.0533 33.8494 28.1881C33.9337 28.3183 34.0034 28.4594 34.0639 28.6015C34.6543 29.9766 35.241 31.3527 35.8295 32.7287C35.9395 32.9863 36.0468 33.2466 36.1669 33.4997C36.3319 33.848 36.5391 34.156 36.9736 34.1964C37.0029 34.1991 37.0323 34.2156 37.0607 34.2285C37.1084 34.2505 37.1304 34.2908 37.1175 34.3394C37.1102 34.366 37.0882 34.3971 37.0644 34.4091C37.0231 34.4283 36.9763 34.4439 36.9314 34.4448C36.3548 34.4448 35.7782 34.443 35.2015 34.4393C35.1557 34.4393 35.108 34.4265 35.0659 34.4091C35.0063 34.3843 34.9458 34.3321 34.9769 34.2679C35.087 34.0396 34.9852 33.8434 34.9045 33.6418C34.7826 33.3383 34.6598 33.0349 34.5387 32.7305C34.4682 32.5527 34.3444 32.4555 34.1473 32.4564C33.6642 32.4582 33.1811 32.4564 32.6979 32.4564C32.5283 32.4564 32.3936 32.516 32.3239 32.6819C32.1919 32.9982 32.0581 33.3145 31.9297 33.6317C31.9068 33.6885 31.8985 33.7527 31.8921 33.8141C31.872 34.0075 31.9242 34.0992 32.1048 34.1799C32.1607 34.2046 32.224 34.2147 32.2808 34.2395C32.3276 34.2596 32.3496 34.3036 32.3285 34.3531C32.3175 34.3797 32.2937 34.4155 32.2717 34.4191C32.1644 34.4356 32.0562 34.4485 31.9481 34.4503C31.7143 34.4549 31.4805 34.4512 31.2467 34.4512C31.2467 34.4466 31.2467 34.4411 31.2467 34.4366V34.4356ZM33.4093 31.8743C33.4093 31.8743 33.4093 31.8725 33.4093 31.8706C33.5798 31.8706 33.7494 31.8761 33.9199 31.8688C34.095 31.8615 34.1519 31.7899 34.0932 31.6323C33.9163 31.1537 33.7293 30.6789 33.545 30.2022C33.523 30.1453 33.4992 30.0747 33.4286 30.0711C33.358 30.0665 33.3268 30.1325 33.3039 30.1893C33.1316 30.6202 32.9537 31.0492 32.7905 31.4838C32.6594 31.8321 32.6906 31.8679 33.0839 31.8743C33.1921 31.8761 33.3002 31.8743 33.4084 31.8743H33.4093Z" fill="#12100B"/>
<path d="M39.489 28.2275C40.0968 28.2275 40.7046 28.2275 41.3124 28.2275C41.3592 28.2275 41.4059 28.2275 41.4518 28.2357C41.5214 28.2476 41.5746 28.3036 41.5673 28.3622C41.526 28.7014 41.5599 29.048 41.4673 29.3807C41.4573 29.4165 41.4041 29.4577 41.3665 29.4614C41.3298 29.466 41.284 29.4312 41.251 29.4037C41.2299 29.3853 41.2198 29.3496 41.2152 29.3193C41.1602 28.9774 40.9265 28.8573 40.6157 28.8472C40.2728 28.8371 39.93 28.8334 39.5871 28.8399C39.368 28.8444 39.2892 28.9114 39.2855 29.113C39.2754 29.5962 39.2754 30.0793 39.2855 30.5624C39.2901 30.7723 39.3634 30.8429 39.5761 30.8475C39.9813 30.8558 40.3865 30.8512 40.7917 30.842C40.8815 30.8402 40.9723 30.8026 41.0594 30.7723C41.328 30.6779 41.3683 30.6999 41.3555 30.9612C41.3408 31.2417 41.3207 31.5213 41.295 31.8C41.2895 31.8587 41.2547 31.9164 41.2281 31.9714C41.2052 32.0182 41.0896 32.0228 41.064 31.976C41.0126 31.8798 40.9714 31.7789 40.9191 31.6836C40.8467 31.5534 40.734 31.4718 40.5827 31.4608C40.2252 31.4333 39.8667 31.4232 39.5092 31.4544C39.3863 31.4645 39.3121 31.5424 39.2938 31.6643C39.2828 31.7413 39.2763 31.8192 39.2773 31.8972C39.28 32.427 39.2828 32.9578 39.2892 33.4877C39.2901 33.5812 39.2983 33.6747 39.313 33.7664C39.3469 33.9699 39.4551 34.1074 39.6678 34.1496C39.7897 34.1743 39.9107 34.2028 40.0317 34.2339C40.0812 34.2468 40.1023 34.2899 40.0996 34.3403C40.0968 34.3962 40.0537 34.4246 40.0088 34.431C39.9171 34.4448 39.8236 34.4549 39.731 34.4549C39.0765 34.4567 38.4219 34.4567 37.7665 34.4539C37.6739 34.4539 37.5795 34.4429 37.4905 34.4209C37.4575 34.4127 37.4291 34.3577 37.4135 34.3183C37.4071 34.3018 37.4401 34.2679 37.4585 34.2449C37.4676 34.2339 37.4841 34.2248 37.4988 34.2229C37.9003 34.178 37.9828 33.8856 38.0103 33.5555C38.0232 33.4006 38.025 33.2439 38.0259 33.088C38.0277 31.8403 38.0277 30.5927 38.0277 29.3459C38.0277 29.2212 38.0287 29.0956 38.0149 28.9719C37.9847 28.7115 37.8976 28.6153 37.6537 28.5502C37.639 28.5465 37.6225 28.5465 37.6079 28.5419C37.4869 28.5025 37.2714 28.541 37.3026 28.3531C37.3292 28.1917 37.5336 28.2394 37.6666 28.2385C38.2743 28.2339 38.8821 28.2366 39.4909 28.2366C39.4909 28.233 39.4909 28.2293 39.4909 28.2266L39.489 28.2275Z" fill="#12100B"/>
<path d="M80.4246 36.5115C74.8573 36.5115 69.29 36.5115 63.7235 36.5106C63.553 36.5106 63.3816 36.4969 63.212 36.4831C63.1561 36.4785 63.1359 36.3759 63.1726 36.3291C63.2331 36.2503 63.3119 36.2008 63.4082 36.1944C63.5787 36.1843 63.751 36.1797 63.9225 36.1797C67.9928 36.1797 72.0631 36.1797 76.1325 36.1797C83.1189 36.1797 90.1044 36.1797 97.0909 36.1806C97.277 36.1806 97.464 36.1907 97.6501 36.2044C97.7152 36.209 97.7629 36.2576 97.7693 36.3273C97.7784 36.4208 97.7216 36.4813 97.6391 36.4886C97.453 36.5051 97.266 36.5115 97.079 36.5115C92.6035 36.5125 88.128 36.5115 83.6525 36.5115C82.5762 36.5115 81.5009 36.5115 80.4246 36.5115Z" fill="#12100B"/>
<path d="M80.9952 25.3126C86.3563 25.3126 91.7174 25.3126 97.0785 25.3126C97.2655 25.3126 97.4525 25.3181 97.6377 25.3337C97.7211 25.341 97.7789 25.4006 97.7669 25.4941C97.7587 25.5619 97.7119 25.6114 97.6459 25.6178C97.5075 25.6325 97.3672 25.6435 97.2279 25.6435C96.3396 25.6453 95.4513 25.6444 94.5629 25.6444C84.7291 25.6444 74.8953 25.6444 65.0614 25.6444C64.8744 25.6444 64.6874 25.6417 64.5004 25.6334C64.4041 25.6298 64.3207 25.5931 64.2648 25.5051C64.2336 25.4565 64.2547 25.3593 64.307 25.3465C64.3666 25.3318 64.4289 25.3181 64.4894 25.3162C64.6453 25.3117 64.8011 25.3126 64.9569 25.3126C70.3024 25.3126 75.6479 25.3126 80.9934 25.3126H80.9952Z" fill="#12100B"/>
<path d="M35.784 36.5115C30.4981 36.5115 25.2122 36.5115 19.9263 36.5115C19.7392 36.5115 19.5522 36.507 19.3661 36.4923C19.2827 36.4859 19.2231 36.4263 19.2286 36.3346C19.2341 36.242 19.302 36.2035 19.3854 36.1934C19.4468 36.1861 19.5101 36.1824 19.5715 36.1815C19.6806 36.1797 19.7897 36.1797 19.8988 36.1797C22.4565 36.1797 25.0132 36.1797 27.5709 36.1797C35.5236 36.1797 43.4754 36.1797 51.4281 36.1797C51.6151 36.1797 51.8021 36.1834 51.9891 36.1925C52.0863 36.1971 52.166 36.2448 52.2293 36.3209C52.2678 36.3667 52.2522 36.4666 52.199 36.4785C52.1395 36.4923 52.078 36.506 52.0166 36.5088C51.8608 36.5134 51.7049 36.5125 51.5491 36.5125C46.2943 36.5125 41.0396 36.5125 35.7849 36.5125L35.784 36.5115Z" fill="#12100B"/>
<path d="M35.2359 25.3135C40.3338 25.3135 45.4318 25.3135 50.5298 25.3135C50.7012 25.3135 50.8726 25.3209 51.0422 25.3346C51.0789 25.3374 51.1275 25.3759 51.144 25.4107C51.1742 25.4758 51.1348 25.539 51.0807 25.5684C51.0147 25.6041 50.9368 25.6325 50.8625 25.6371C50.6764 25.6481 50.4885 25.6454 50.3015 25.6454C41.2588 25.6454 32.217 25.6454 23.1744 25.6454C22.0523 25.6454 20.9293 25.6463 19.8072 25.6435C19.6523 25.6435 19.4973 25.627 19.3433 25.6087C19.2764 25.6005 19.2361 25.539 19.2333 25.4749C19.2306 25.4107 19.2645 25.3539 19.336 25.3392C19.3965 25.3273 19.4588 25.3172 19.5202 25.3154C19.6761 25.3117 19.8319 25.3126 19.9878 25.3126C25.0702 25.3126 30.1526 25.3126 35.2349 25.3126L35.2359 25.3135Z" fill="#12100B"/>
<path d="M85.9061 34.4535C85.61 34.4535 85.3139 34.4563 85.0187 34.4526C84.9106 34.4517 84.8006 34.4425 84.6951 34.4224C84.6621 34.4159 84.6319 34.36 84.6163 34.3206C84.6099 34.3041 84.641 34.2665 84.663 34.2482C84.686 34.2289 84.7162 34.2133 84.7465 34.2088C85.0692 34.1528 85.1755 33.9328 85.1819 33.6367C85.1856 33.4809 85.192 33.325 85.192 33.1692C85.1938 31.8913 85.1938 30.6142 85.1938 29.3363C85.1938 29.2584 85.1938 29.1805 85.1911 29.1025C85.1746 28.69 85.1471 28.6579 84.7355 28.5213C84.6777 28.5021 84.619 28.4746 84.575 28.4342C84.5402 28.4031 84.5485 28.338 84.587 28.3114C84.6355 28.2775 84.6979 28.2491 84.7556 28.2454C84.9106 28.2344 85.0664 28.2362 85.2223 28.2362C85.6898 28.2353 86.1564 28.2326 86.6239 28.2362C86.7477 28.2371 86.8715 28.2518 86.9925 28.2756C87.0255 28.2821 87.0686 28.3407 87.0695 28.3774C87.0695 28.4122 87.031 28.4617 86.9961 28.4819C86.9439 28.5122 86.8806 28.5296 86.8201 28.5397C86.5781 28.5791 86.4837 28.7432 86.4608 28.9641C86.4498 29.0723 86.4461 29.1814 86.4461 29.2905C86.4461 30.6307 86.4461 31.9701 86.4488 33.3104C86.4488 33.4653 86.4635 33.6221 86.4864 33.7751C86.5167 33.9787 86.6276 34.1171 86.843 34.1528C86.92 34.1657 86.9961 34.1813 87.0713 34.2014C87.1556 34.2225 87.284 34.2133 87.2592 34.3472C87.2382 34.4636 87.1171 34.4499 87.0291 34.4517C86.6551 34.4563 86.282 34.4535 85.908 34.4535V34.4554L85.9061 34.4535Z" fill="#12100B"/>
<path d="M21.5825 30.9119C21.5761 30.9266 21.5743 30.944 21.5642 30.9541C21.5312 30.9862 21.4991 31.0228 21.4597 31.0439C21.0765 31.2438 20.773 31.5188 20.5805 31.9148C20.5054 32.0698 20.377 32.0734 20.3009 31.9258C20.0937 31.5216 19.7738 31.2401 19.3851 31.0228C19.2833 30.966 19.2879 30.867 19.3796 30.7964C19.4163 30.768 19.4557 30.7414 19.496 30.7185C19.8288 30.5306 20.0937 30.2794 20.2771 29.9374C20.3779 29.7486 20.4916 29.7403 20.5833 29.9108C20.7895 30.2959 21.0893 30.5755 21.4762 30.7698C21.5486 30.8065 21.5899 30.8753 21.5844 30.9119H21.5825Z" fill="#12100B"/>
<path d="M97.6962 30.8969C97.6834 30.9244 97.6779 30.9602 97.6577 30.9767C97.5981 31.0253 97.5349 31.0729 97.4679 31.1105C97.1627 31.2838 96.9225 31.5203 96.7556 31.8311C96.7263 31.8852 96.6905 31.9374 96.6465 31.9805C96.5952 32.0309 96.5347 32.0236 96.4852 31.9695C96.4641 31.9466 96.4412 31.9237 96.4284 31.8962C96.2413 31.5194 95.9517 31.2471 95.5822 31.0546C95.5547 31.0409 95.5327 31.0179 95.5089 30.9978C95.4438 30.9446 95.4355 30.8456 95.4979 30.797C95.5593 30.7493 95.6235 30.7053 95.6913 30.6677C96.0122 30.4871 96.2643 30.2415 96.4174 29.9023C96.4302 29.8738 96.4476 29.8482 96.465 29.8225C96.5191 29.7428 96.6025 29.7354 96.6557 29.8078C96.6832 29.8454 96.7116 29.883 96.7327 29.9243C96.8996 30.2552 97.1508 30.5009 97.4734 30.6787C97.5404 30.7154 97.6027 30.7649 97.6605 30.8144C97.6806 30.8318 97.6843 30.8694 97.6962 30.8978V30.8969Z" fill="#12100B"/>
<path d="M46.2571 26.7292C46.2626 26.8419 46.2259 26.8914 46.17 26.9208C46.1297 26.9418 46.082 26.9519 46.0362 26.9565C45.4568 27.0133 44.9242 27.2169 44.4035 27.4616C44.1789 27.567 44.0496 27.5716 44.0349 27.4855C44.0093 27.3324 44.133 27.2664 44.2247 27.1939C44.6244 26.8758 45.0287 26.5641 45.4357 26.2543C45.521 26.1892 45.6181 26.136 45.7162 26.0929C45.807 26.0526 45.906 26.0636 45.9692 26.147C46.1095 26.334 46.2113 26.5412 46.2571 26.7292Z" fill="#12100B"/>
<path d="M25.2496 43.0567V42.3628C25.2496 41.8925 25.2469 41.6138 25.2414 41.5276C25.2331 41.4011 25.1772 41.3268 25.0718 41.303C25.0351 41.2948 24.9838 41.2911 24.9178 41.2911C24.8728 41.2911 24.8508 41.2792 24.8508 41.2553C24.8508 41.2315 24.8792 41.2196 24.9379 41.2196C25.0168 41.2196 25.124 41.2214 25.2588 41.2251C25.3945 41.2288 25.476 41.2306 25.5054 41.2306C26.1278 41.2306 26.457 41.2297 26.4909 41.2269C26.5596 41.2214 26.6155 41.2141 26.6605 41.2031C26.7054 41.193 26.7265 41.1875 26.7237 41.1875C26.7393 41.1875 26.7476 41.1994 26.7476 41.2232C26.7476 41.226 26.7439 41.2498 26.7356 41.2938C26.7274 41.3461 26.7219 41.4084 26.7182 41.479C26.7146 41.5496 26.7072 41.6367 26.6962 41.7394C26.6907 41.7687 26.6779 41.7825 26.6568 41.7825C26.6385 41.7825 26.6275 41.7678 26.6229 41.7394C26.6192 41.711 26.6155 41.6825 26.6128 41.6569C26.61 41.6303 26.6045 41.6074 26.5972 41.5863C26.5651 41.5102 26.4771 41.4625 26.3323 41.4442C26.2424 41.4341 26.0554 41.4286 25.7703 41.4286C25.752 41.4286 25.7428 41.4414 25.7428 41.468V42.4654C25.7428 42.4948 25.752 42.5085 25.7703 42.5085C26.1315 42.5085 26.3433 42.5058 26.4038 42.5003C26.4487 42.4975 26.4826 42.4938 26.5065 42.4883C26.5459 42.4783 26.5752 42.4618 26.5935 42.4407C26.6256 42.4068 26.6467 42.3893 26.6568 42.3893C26.6751 42.3893 26.6843 42.3994 26.6843 42.4205C26.6843 42.4233 26.6806 42.4498 26.6724 42.4993C26.6641 42.5599 26.6577 42.6295 26.6522 42.7084C26.6412 42.8578 26.6366 42.9458 26.6366 42.9724C26.6366 43.0219 26.6247 43.0476 26.6009 43.0476C26.577 43.0476 26.5651 43.0338 26.5651 43.0063C26.5651 42.9788 26.5596 42.933 26.5495 42.8706C26.5285 42.7817 26.4542 42.7304 26.3277 42.7166C26.2534 42.7084 26.0664 42.7047 25.7657 42.7047C25.7501 42.7047 25.7419 42.7175 25.7419 42.7441V43.6664C25.7474 43.8057 25.7786 43.8955 25.8345 43.9359C25.8913 43.9771 26.0188 43.9973 26.2168 43.9973C26.3964 43.9973 26.5202 43.9817 26.589 43.9496C26.6816 43.9075 26.7402 43.8103 26.7668 43.6581C26.7751 43.6187 26.7888 43.5985 26.8099 43.5985C26.831 43.5985 26.8411 43.6223 26.8411 43.6691C26.8411 43.8295 26.8236 43.9753 26.7897 44.1064C26.7769 44.1541 26.7586 44.1825 26.7347 44.1935C26.7109 44.2045 26.6586 44.2091 26.577 44.2091C26.3488 44.2091 26.1214 44.2054 25.895 44.1971C25.6686 44.1889 25.532 44.1852 25.4852 44.1852C25.4614 44.1852 25.3871 44.1871 25.2624 44.1907C25.1378 44.1944 25.0461 44.1962 24.9883 44.1962C24.9361 44.1962 24.9095 44.1834 24.9095 44.1568C24.9095 44.1385 24.9379 44.1266 24.9966 44.1211C25.036 44.1156 25.0754 44.1119 25.1149 44.1091C25.1754 44.0963 25.2129 44.0239 25.2294 43.8919C25.2423 43.7892 25.2487 43.5096 25.2487 43.0521L25.2496 43.0567Z" fill="black"/>
<path d="M27.575 42.9376V42.3619C27.575 41.8916 27.5723 41.6129 27.5668 41.5268C27.5585 41.4003 27.5026 41.326 27.3972 41.3022C27.3605 41.2939 27.3092 41.2903 27.2432 41.2903C27.1983 41.2903 27.1763 41.2783 27.1763 41.2545C27.1763 41.2307 27.2047 41.2188 27.2634 41.2188C27.3394 41.2188 27.4467 41.2206 27.5842 41.2243C27.7217 41.2279 27.807 41.2298 27.8382 41.2298C27.8666 41.2298 27.9427 41.2279 28.0646 41.2243C28.1865 41.2206 28.2727 41.2188 28.3231 41.2188C28.3809 41.2188 28.4102 41.2307 28.4102 41.2545C28.4102 41.2783 28.3891 41.2903 28.3469 41.2903C28.3158 41.2903 28.2773 41.2939 28.2323 41.3022C28.1434 41.3178 28.0948 41.3929 28.0866 41.5268C28.0811 41.6139 28.0783 41.8926 28.0783 42.3638V42.9165C28.0783 43.3951 28.181 43.7187 28.3854 43.8874C28.5165 43.9955 28.6806 44.0496 28.8777 44.0496C29.0987 44.0496 29.2802 43.979 29.4214 43.836C29.5185 43.7389 29.5845 43.5995 29.6185 43.418C29.6395 43.297 29.6496 43.11 29.6496 42.8579V42.3647C29.6496 41.8935 29.6469 41.6148 29.6414 41.5277C29.6331 41.4012 29.5772 41.326 29.4718 41.3031C29.4351 41.2948 29.3874 41.2912 29.3297 41.2912C29.2848 41.2912 29.2628 41.2793 29.2628 41.2554C29.2628 41.2316 29.2903 41.2197 29.3453 41.2197C29.4608 41.2197 29.612 41.2233 29.7981 41.2316C29.8064 41.2316 29.8678 41.2298 29.9833 41.2261C30.0988 41.2224 30.1868 41.2206 30.2473 41.2206C30.3023 41.2206 30.3298 41.2325 30.3298 41.2563C30.3298 41.2802 30.306 41.2921 30.2593 41.2921C30.2281 41.2921 30.1896 41.2958 30.1447 41.304C30.0557 41.3196 30.0072 41.3948 29.9989 41.5286C29.9934 41.6157 29.9906 41.8935 29.9906 42.3638V42.7855C29.9906 43.0531 29.9696 43.2704 29.9274 43.4354C29.8696 43.6637 29.766 43.8425 29.6157 43.9717C29.3948 44.1606 29.1216 44.255 28.7961 44.255C28.412 44.255 28.1205 44.1642 27.9216 43.9827C27.6878 43.7728 27.5705 43.4244 27.5705 42.9385L27.575 42.9376Z" fill="black"/>
<path d="M31.0982 43.0559V42.3619C31.0982 41.8916 31.0955 41.6129 31.09 41.5268C31.0817 41.4003 31.0258 41.326 30.9204 41.3022C30.8837 41.2939 30.8324 41.2903 30.7664 41.2903C30.7215 41.2903 30.6995 41.2783 30.6995 41.2545C30.6995 41.2307 30.7279 41.2188 30.7866 41.2188C30.8681 41.2188 30.9745 41.2206 31.1056 41.2243C31.2367 41.2279 31.3109 41.2298 31.3265 41.2298C31.3714 41.2298 31.4649 41.2279 31.6079 41.2243C31.751 41.2206 31.8426 41.2188 31.8821 41.2188C32.2002 41.2188 32.4413 41.2756 32.6072 41.3883C32.6732 41.4333 32.731 41.5002 32.7805 41.5891C32.8437 41.6945 32.8749 41.8073 32.8749 41.9283C32.8749 42.2354 32.7016 42.5297 32.3542 42.8111C32.6402 43.1741 32.7979 43.3703 32.8272 43.4024C32.9794 43.594 33.1068 43.7425 33.2095 43.8479C33.3543 43.9974 33.501 44.0872 33.6504 44.1156C33.6816 44.1184 33.7119 44.1211 33.7412 44.1239C33.7861 44.1294 33.8081 44.1413 33.8081 44.1596C33.8081 44.1862 33.7834 44.1991 33.7329 44.1991H33.3589C33.1701 44.1991 33.0289 44.1743 32.9372 44.1239C32.8089 44.0551 32.6283 43.8626 32.3973 43.5445C32.2845 43.3841 32.1543 43.2026 32.0067 43.0009C31.9911 42.9826 31.9673 42.9734 31.9361 42.9734H31.5933C31.5722 42.9734 31.5621 42.9835 31.5621 43.0045V43.0596C31.5621 43.5033 31.5685 43.7829 31.5814 43.8974C31.5969 44.0304 31.6483 44.1019 31.7354 44.1129C31.8142 44.123 31.8784 44.1285 31.9288 44.1285C31.96 44.1285 31.9765 44.1386 31.9765 44.1596C31.9765 44.1862 31.9499 44.1991 31.8976 44.1991C31.8087 44.1991 31.6905 44.1972 31.5447 44.1936C31.3989 44.1899 31.3238 44.1881 31.3183 44.1881C31.2999 44.1881 31.2303 44.1899 31.1092 44.1936C30.9882 44.1972 30.8975 44.1991 30.837 44.1991C30.7847 44.1991 30.7581 44.1862 30.7581 44.1596C30.7581 44.1413 30.7866 44.1294 30.8452 44.1239C30.8846 44.1184 30.9241 44.1147 30.9635 44.112C31.024 44.0991 31.0616 44.0267 31.0781 43.8947C31.0909 43.792 31.0973 43.5124 31.0973 43.055L31.0982 43.0559ZM31.563 41.4754V42.6736C31.563 42.713 31.5749 42.7369 31.5988 42.7442C31.6721 42.7708 31.772 42.7836 31.8986 42.7836C32.0251 42.7836 32.1177 42.7616 32.1782 42.7167C32.3331 42.6039 32.411 42.4068 32.411 42.1254C32.411 41.8761 32.3404 41.6854 32.1983 41.5543C32.0856 41.4543 31.9554 41.4049 31.8078 41.4049C31.6813 41.4049 31.607 41.4131 31.5832 41.4287C31.5704 41.4369 31.5639 41.4525 31.5639 41.4764L31.563 41.4754Z" fill="black"/>
<path d="M35.2326 44.2535C34.7128 44.2535 34.3067 44.0829 34.0151 43.741C33.7685 43.455 33.6448 43.1103 33.6448 42.7088C33.6448 42.3072 33.7685 41.9708 34.0151 41.6839C34.3122 41.3373 34.7311 41.1641 35.272 41.1641C35.7606 41.1641 36.1484 41.297 36.4344 41.5619C36.7204 41.8278 36.8644 42.1862 36.8644 42.6382C36.8644 43.0901 36.7168 43.4834 36.4234 43.785C36.1209 44.0976 35.7248 44.2544 35.2335 44.2544L35.2326 44.2535ZM35.3976 44.0573C35.6185 44.0573 35.8046 43.9876 35.9568 43.8483C36.1933 43.6356 36.3116 43.2808 36.3116 42.7839C36.3116 42.3531 36.1997 42.0038 35.977 41.7352C35.7615 41.4803 35.4883 41.3529 35.1574 41.3529C34.887 41.3529 34.6688 41.4354 34.5028 41.6013C34.2929 41.8113 34.1875 42.1404 34.1875 42.5868C34.1875 43.0104 34.2957 43.3569 34.5111 43.6273C34.7348 43.9134 35.03 44.0573 35.3976 44.0573Z" fill="black"/>
<path d="M37.7276 43.0559V42.3619C37.7276 41.8916 37.7249 41.6129 37.7194 41.5268C37.7111 41.4003 37.6552 41.326 37.5498 41.3022C37.5131 41.2939 37.4618 41.2903 37.3958 41.2903C37.3509 41.2903 37.3289 41.2783 37.3289 41.2545C37.3289 41.2307 37.3573 41.2188 37.4159 41.2188C37.4948 41.2188 37.602 41.2206 37.7368 41.2243C37.8725 41.2279 37.9541 41.2298 37.9834 41.2298C38.0357 41.2298 38.1283 41.2279 38.2612 41.2243C38.3941 41.2206 38.4922 41.2188 38.5545 41.2188C38.8855 41.2188 39.1302 41.2939 39.2879 41.4434C39.419 41.5671 39.485 41.723 39.485 41.9127C39.485 42.1914 39.3933 42.4197 39.2109 42.5984C39.0285 42.7772 38.7966 42.8661 38.5151 42.8661C38.4729 42.8661 38.4454 42.8652 38.4326 42.8625C38.4014 42.857 38.3849 42.845 38.3849 42.8267C38.3849 42.7983 38.4216 42.7836 38.4949 42.7836C38.6187 42.7836 38.7342 42.7259 38.8415 42.6104C38.9625 42.4793 39.023 42.3197 39.023 42.1337C39.023 41.8788 38.9451 41.6817 38.7901 41.5424C38.6774 41.4397 38.5454 41.3883 38.3959 41.3883C38.3226 41.3883 38.2731 41.3929 38.2483 41.4021C38.2236 41.4113 38.2108 41.4369 38.2108 41.4791V43.0559C38.2108 43.5023 38.2172 43.7838 38.23 43.8993C38.2456 44.0285 38.2969 44.0991 38.384 44.112C38.4601 44.1221 38.527 44.1276 38.5848 44.1276C38.627 44.1276 38.648 44.1376 38.648 44.1587C38.648 44.1853 38.6233 44.1981 38.5729 44.1981C38.4729 44.1981 38.351 44.1963 38.208 44.1926C38.065 44.189 37.9825 44.1871 37.9614 44.1871C37.9376 44.1871 37.8633 44.189 37.7386 44.1926C37.614 44.1963 37.5223 44.1981 37.4645 44.1981C37.4123 44.1981 37.3857 44.1853 37.3857 44.1587C37.3857 44.1404 37.4141 44.1285 37.4728 44.123C37.5122 44.1175 37.5516 44.1138 37.591 44.1111C37.6515 44.0982 37.6891 44.0258 37.7056 43.8938C37.7185 43.7911 37.7249 43.5115 37.7249 43.0541L37.7276 43.0559Z" fill="black"/>
<path d="M40.3082 43.0567V42.3628C40.3082 41.8925 40.3055 41.6138 40.3 41.5276C40.2917 41.4011 40.2358 41.3268 40.1304 41.303C40.0937 41.2948 40.0424 41.2911 39.9763 41.2911C39.9314 41.2911 39.9094 41.2792 39.9094 41.2553C39.9094 41.2315 39.9378 41.2196 39.9965 41.2196C40.0754 41.2196 40.1826 41.2214 40.3174 41.2251C40.453 41.2288 40.5346 41.2306 40.564 41.2306C41.1864 41.2306 41.5155 41.2297 41.5495 41.2269C41.6182 41.2214 41.6741 41.2141 41.7191 41.2031C41.764 41.193 41.7851 41.1875 41.7823 41.1875C41.7979 41.1875 41.8062 41.1994 41.8062 41.2232C41.8062 41.226 41.8025 41.2498 41.7942 41.2938C41.786 41.3461 41.7805 41.4084 41.7768 41.479C41.7731 41.5496 41.7658 41.6367 41.7548 41.7394C41.7493 41.7687 41.7365 41.7825 41.7154 41.7825C41.6971 41.7825 41.6861 41.7678 41.6815 41.7394C41.6778 41.711 41.6741 41.6825 41.6714 41.6569C41.6686 41.6303 41.6631 41.6074 41.6558 41.5863C41.6237 41.5102 41.5357 41.4625 41.3909 41.4442C41.301 41.4341 41.114 41.4286 40.8289 41.4286C40.8106 41.4286 40.8014 41.4414 40.8014 41.468V42.4654C40.8014 42.4948 40.8106 42.5085 40.8289 42.5085C41.1901 42.5085 41.4019 42.5058 41.4624 42.5003C41.5073 42.4975 41.5412 42.4938 41.565 42.4883C41.6045 42.4783 41.6338 42.4618 41.6521 42.4407C41.6842 42.4068 41.7053 42.3893 41.7154 42.3893C41.7337 42.3893 41.7429 42.3994 41.7429 42.4205C41.7429 42.4233 41.7392 42.4498 41.731 42.4993C41.7227 42.5599 41.7163 42.6295 41.7108 42.7084C41.6998 42.8578 41.6952 42.9458 41.6952 42.9724C41.6952 43.0219 41.6833 43.0476 41.6595 43.0476C41.6356 43.0476 41.6237 43.0338 41.6237 43.0063C41.6237 42.9788 41.6182 42.933 41.6081 42.8706C41.5871 42.7817 41.5128 42.7304 41.3863 42.7166C41.312 42.7084 41.125 42.7047 40.8243 42.7047C40.8087 42.7047 40.8005 42.7175 40.8005 42.7441V43.6664C40.806 43.8057 40.8372 43.8955 40.8931 43.9359C40.9499 43.9771 41.0773 43.9973 41.2754 43.9973C41.455 43.9973 41.5788 43.9817 41.6476 43.9496C41.7401 43.9075 41.7988 43.8103 41.8254 43.6581C41.8337 43.6187 41.8474 43.5985 41.8685 43.5985C41.8896 43.5985 41.8997 43.6223 41.8997 43.6691C41.8997 43.8295 41.8822 43.9753 41.8483 44.1064C41.8355 44.1541 41.8172 44.1825 41.7933 44.1935C41.7695 44.2045 41.7172 44.2091 41.6356 44.2091C41.4074 44.2091 41.18 44.2054 40.9536 44.1971C40.7272 44.1889 40.5906 44.1852 40.5438 44.1852C40.52 44.1852 40.4457 44.1871 40.321 44.1907C40.1964 44.1944 40.1047 44.1962 40.0469 44.1962C39.9947 44.1962 39.9681 44.1834 39.9681 44.1568C39.9681 44.1385 39.9965 44.1266 40.0552 44.1211C40.0946 44.1156 40.134 44.1119 40.1734 44.1091C40.2339 44.0963 40.2715 44.0239 40.288 43.8919C40.3009 43.7892 40.3073 43.5096 40.3073 43.0521L40.3082 43.0567Z" fill="black"/>
<path d="M43.8407 43.1707H42.9616C42.946 43.1707 42.9341 43.1808 42.9258 43.2019L42.7132 43.7657C42.6737 43.8711 42.6536 43.9509 42.6536 44.0059C42.6536 44.0875 42.7058 44.1278 42.8113 44.1278H42.8708C42.9103 44.1278 42.9304 44.1379 42.9304 44.159C42.9304 44.1855 42.9084 44.1984 42.8635 44.1984C42.8213 44.1984 42.7507 44.1965 42.6527 44.1929C42.5546 44.1892 42.4849 44.1874 42.4455 44.1874C42.2172 44.1956 42.0623 44.1993 41.9807 44.1993C41.9312 44.1993 41.9055 44.1865 41.9055 44.1599C41.9055 44.1388 41.9211 44.1287 41.9532 44.1287C41.9954 44.1287 42.0357 44.126 42.0751 44.1205C42.1595 44.1104 42.2273 44.0728 42.2805 44.0104C42.3226 43.9609 42.3657 43.8794 42.4106 43.7657L43.3998 41.2905C43.442 41.1851 43.4786 41.1328 43.5098 41.1328C43.5382 41.1328 43.5712 41.175 43.6079 41.2593C43.8499 41.869 44.1754 42.6766 44.5851 43.6832C44.6951 43.9435 44.8107 44.0865 44.9317 44.1131C44.9793 44.1232 45.0343 44.1287 45.0976 44.1287C45.1315 44.1287 45.1489 44.1388 45.1489 44.1599C45.1489 44.1755 45.1361 44.1865 45.1095 44.191C45.0829 44.1965 45.0362 44.1993 44.9674 44.1993C44.642 44.1993 44.3935 44.1965 44.2221 44.191C44.1433 44.1883 44.1038 44.1782 44.1038 44.1599C44.1038 44.1388 44.1222 44.1269 44.1589 44.1241C44.201 44.1113 44.2129 44.081 44.1946 44.0334L43.8793 43.1982C43.871 43.1799 43.8582 43.1707 43.8398 43.1707H43.8407ZM43.0404 42.9736H43.7656C43.7839 42.9736 43.7903 42.9654 43.7848 42.9498L43.43 41.9762C43.4245 41.9524 43.4181 41.9405 43.4099 41.9405C43.3998 41.9405 43.3915 41.9524 43.386 41.9762L43.023 42.9461C43.0175 42.9645 43.023 42.9736 43.0386 42.9736H43.0404Z" fill="black"/>
<path d="M45.7398 42.0116L45.7829 43.6672C45.7911 43.9303 45.837 44.0761 45.9204 44.1045C45.9286 44.1072 45.98 44.1136 46.0744 44.1246C46.1532 44.1347 46.1927 44.1485 46.1927 44.1641C46.1927 44.1906 46.1624 44.2035 46.1019 44.2035C46.002 44.2035 45.8984 44.2016 45.7902 44.198C45.682 44.1943 45.6234 44.1925 45.6133 44.1925C45.616 44.1925 45.5656 44.1943 45.4639 44.198C45.3612 44.2016 45.2695 44.2035 45.1879 44.2035C45.1302 44.2035 45.1008 44.1906 45.1008 44.1641C45.1008 44.1457 45.1347 44.1338 45.2035 44.1283C45.2512 44.1228 45.297 44.1182 45.341 44.1127C45.3905 44.0971 45.4235 44.055 45.4391 43.9862C45.4519 43.9257 45.4602 43.8047 45.4629 43.6232L45.4987 41.2901C45.5014 41.2012 45.5179 41.1562 45.55 41.1562C45.5711 41.1562 45.6197 41.1966 45.6958 41.2782C45.9112 41.5092 46.3183 41.9309 46.9178 42.5433C47.1855 42.822 47.4752 43.1217 47.785 43.4417H47.8043L47.7649 41.6724C47.7621 41.5752 47.7566 41.5083 47.7493 41.4716C47.7282 41.3928 47.6888 41.3414 47.631 41.3176C47.5916 41.302 47.5219 41.2938 47.422 41.2938C47.3798 41.2938 47.3588 41.2818 47.3588 41.258C47.3588 41.2342 47.3927 41.2223 47.4614 41.2223C47.5403 41.2223 47.6347 41.2241 47.7456 41.2278C47.8556 41.2314 47.9207 41.2333 47.939 41.2333C47.9418 41.2333 47.9876 41.2314 48.0766 41.2278C48.1655 41.2241 48.2489 41.2223 48.325 41.2223C48.3855 41.2223 48.4157 41.2342 48.4157 41.258C48.4157 41.2818 48.3919 41.2938 48.3452 41.2938C48.2141 41.2938 48.1334 41.3368 48.105 41.4239C48.0921 41.4716 48.0839 41.5431 48.0811 41.6403L48.0381 44.1274C48.0353 44.209 48.0188 44.2493 47.9867 44.2493C47.9574 44.2493 47.9134 44.22 47.8529 44.1622C47.6008 43.9129 47.213 43.526 46.6905 43.0035C46.5117 42.8275 46.3109 42.6184 46.0872 42.3764C45.9745 42.2527 45.8626 42.1307 45.7526 42.0097H45.7407L45.7398 42.0116Z" fill="black"/>
<path d="M51.8851 44.2535C51.3121 44.2535 50.862 44.1114 50.5356 43.8263C50.2083 43.5412 50.0452 43.1534 50.0452 42.662C50.0452 42.2229 50.1983 41.8635 50.5054 41.5839C50.8125 41.3043 51.2296 41.1641 51.7567 41.1641C51.9382 41.1641 52.1298 41.1769 52.3297 41.2035C52.4223 41.2218 52.5534 41.2438 52.7248 41.2704C52.7642 41.2732 52.7844 41.2887 52.7844 41.3181C52.7844 41.3263 52.7807 41.3483 52.7743 41.385C52.7679 41.4327 52.7624 41.4822 52.7596 41.5344C52.756 41.6499 52.7514 41.792 52.745 41.9598C52.7395 42.0203 52.7239 42.0505 52.6973 42.0505C52.6707 42.0505 52.6579 42.0221 52.6579 41.9635C52.6551 41.8269 52.6038 41.7058 52.5039 41.6004C52.4351 41.5298 52.3315 41.4721 52.1922 41.4272C52.0427 41.3795 51.8796 41.3566 51.7035 41.3566C51.3882 41.3566 51.1416 41.4382 50.9628 41.6013C50.7208 41.8223 50.5998 42.1624 50.5998 42.6226C50.5998 43.0562 50.7401 43.4073 51.0215 43.675C51.2663 43.9088 51.5394 44.0261 51.8411 44.0261C52.0088 44.0261 52.139 44.016 52.2316 43.9949C52.3709 43.9638 52.4809 43.9005 52.5625 43.8061C52.6331 43.7273 52.678 43.6402 52.6964 43.5457C52.7065 43.4935 52.7239 43.4669 52.7477 43.4669C52.7715 43.4669 52.7835 43.4862 52.7835 43.5256C52.7835 43.5549 52.7743 43.631 52.756 43.7538C52.7349 43.8904 52.7156 43.9876 52.6991 44.0454C52.6817 44.1031 52.6469 44.1425 52.5946 44.1636C52.4452 44.2241 52.2087 44.2544 51.8851 44.2544V44.2535Z" fill="black"/>
<path d="M54.7858 44.2535C54.266 44.2535 53.8599 44.0829 53.5684 43.741C53.3218 43.455 53.198 43.1103 53.198 42.7088C53.198 42.3072 53.3218 41.9708 53.5684 41.6839C53.8654 41.3373 54.2843 41.1641 54.8252 41.1641C55.3138 41.1641 55.7016 41.297 55.9876 41.5619C56.2736 41.8278 56.4176 42.1862 56.4176 42.6382C56.4176 43.0901 56.27 43.4834 55.9766 43.785C55.6741 44.0976 55.2781 44.2544 54.7867 44.2544L54.7858 44.2535ZM54.9517 44.0573C55.1726 44.0573 55.3587 43.9876 55.5109 43.8483C55.7474 43.6356 55.8657 43.2808 55.8657 42.7839C55.8657 42.3531 55.7539 42.0038 55.5311 41.7352C55.3157 41.4803 55.0425 41.3529 54.7115 41.3529C54.4411 41.3529 54.2229 41.4354 54.057 41.6013C53.847 41.8113 53.7416 42.1404 53.7416 42.5868C53.7416 43.0104 53.8498 43.3569 54.0652 43.6273C54.2889 43.9134 54.5841 44.0573 54.9517 44.0573Z" fill="black"/>
<path d="M57.0357 43.8051L57.4263 41.2355C57.4363 41.1667 57.4593 41.1328 57.4932 41.1328C57.5243 41.1328 57.5601 41.1732 57.5995 41.2547L58.6758 43.4778L59.7474 41.2272C59.7758 41.164 59.8052 41.1328 59.8345 41.1328C59.8684 41.1328 59.8923 41.1732 59.9051 41.2547L60.2636 43.6905C60.2819 43.8216 60.3048 43.916 60.3305 43.9747C60.3571 44.0324 60.3983 44.071 60.457 44.0893C60.5441 44.1159 60.6247 44.1287 60.7018 44.1287C60.7439 44.1287 60.765 44.1379 60.765 44.1562C60.765 44.1855 60.7311 44.1993 60.6623 44.1993C60.3286 44.1993 60.0619 44.191 59.862 44.1755C59.7859 44.17 59.7474 44.1562 59.7474 44.1324C59.7474 44.114 59.7612 44.0994 59.7887 44.0893C59.8162 44.0792 59.8235 44.0224 59.8107 43.9197L59.5742 42.1852H59.5586L58.6996 43.9784C58.6281 44.126 58.5795 44.1993 58.5538 44.1993C58.53 44.1993 58.4842 44.1333 58.4163 44.0022C58.167 43.5255 58.0157 43.2266 57.9635 43.1056C57.8745 42.9113 57.737 42.6188 57.5537 42.2292H57.5381L57.3327 43.7978C57.3245 43.8583 57.3208 43.9197 57.3208 43.9829C57.3208 44.0462 57.3602 44.0911 57.4391 44.1095C57.4968 44.1223 57.5518 44.1287 57.605 44.1287C57.6444 44.1287 57.6646 44.1379 57.6646 44.1562C57.6646 44.1855 57.6334 44.1993 57.5702 44.1993C57.5069 44.1993 57.4263 44.1975 57.3282 44.1938C57.2301 44.1901 57.1723 44.1883 57.1567 44.1883C57.1356 44.1883 57.077 44.1901 56.9816 44.1938C56.8854 44.1975 56.8139 44.1993 56.7671 44.1993C56.7204 44.1993 56.6965 44.1846 56.6965 44.1562C56.6965 44.1379 56.7176 44.1287 56.7598 44.1287C56.802 44.1287 56.8414 44.125 56.878 44.1168C56.9569 44.1012 57.011 43.9976 57.0394 43.8051H57.0357Z" fill="black"/>
<path d="M61.8835 42.7377V43.0567C61.8835 43.5004 61.8899 43.7809 61.9037 43.8965C61.9193 44.0275 61.9715 44.1 62.0586 44.1137C62.1356 44.1238 62.2016 44.1293 62.2575 44.1293C62.3024 44.1293 62.3254 44.1394 62.3254 44.1605C62.3254 44.1871 62.296 44.1999 62.2383 44.1999C62.1439 44.1999 62.0256 44.1981 61.8835 44.1944C61.7414 44.1907 61.6598 44.1889 61.6387 44.1889C61.6094 44.1889 61.5333 44.1907 61.4086 44.1944C61.284 44.1981 61.1941 44.1999 61.1382 44.1999C61.0823 44.1999 61.0557 44.1871 61.0557 44.1605C61.0557 44.1421 61.085 44.1302 61.1428 44.1247C61.1794 44.1192 61.218 44.1156 61.2574 44.1128C61.3179 44.1 61.3564 44.0275 61.372 43.8955C61.3848 43.7929 61.3912 43.5133 61.3912 43.0558V42.3618C61.3912 41.8916 61.3885 41.6129 61.383 41.5267C61.3747 41.4002 61.3188 41.3259 61.2134 41.3021C61.1767 41.2938 61.1254 41.2902 61.0594 41.2902C61.0144 41.2902 60.9924 41.2801 60.9924 41.259C60.9924 41.2324 61.0227 41.2196 61.0832 41.2196C61.1593 41.2196 61.2647 41.2214 61.4004 41.2251C61.5361 41.2288 61.6195 41.2306 61.6506 41.2306C62.2887 41.2306 62.6361 41.2297 62.6911 41.2269C62.7333 41.2269 62.7874 41.2214 62.8525 41.2113C62.902 41.1958 62.9231 41.1875 62.9157 41.1875C62.9341 41.1875 62.9432 41.1994 62.9432 41.2233C62.9432 41.2315 62.9396 41.2508 62.9313 41.2819C62.9231 41.3213 62.9167 41.3608 62.9121 41.4002C62.9066 41.4891 62.9002 41.5964 62.8928 41.7192C62.8873 41.7559 62.8745 41.7742 62.8534 41.7742C62.8296 41.7742 62.8167 41.7531 62.814 41.7119C62.814 41.6468 62.8057 41.5973 62.7901 41.5643C62.7562 41.4891 62.6691 41.4497 62.5289 41.4478L61.9193 41.4359C61.8954 41.4359 61.8835 41.4543 61.8835 41.4909V42.4691C61.8835 42.4929 61.8927 42.5039 61.911 42.5039H62.418C62.5289 42.5039 62.5903 42.503 62.6041 42.5003C62.6801 42.492 62.7342 42.4691 62.7663 42.4297C62.7874 42.4031 62.8048 42.3903 62.8177 42.3903C62.8332 42.3903 62.8415 42.4022 62.8415 42.426C62.8415 42.4315 62.8378 42.4599 62.8296 42.5131C62.8213 42.5736 62.8149 42.6259 62.8094 42.6708C62.7984 42.779 62.7938 42.8743 62.7938 42.9586C62.7938 43.0081 62.781 43.0338 62.7544 43.0338C62.7388 43.0338 62.7269 43.0091 62.7186 42.9586C62.7104 42.9247 62.704 42.8899 62.6985 42.856C62.6691 42.7744 62.6022 42.7276 62.4968 42.7139C62.4335 42.7056 62.2383 42.7019 61.911 42.7019C61.8927 42.7019 61.8835 42.7139 61.8835 42.7377Z" fill="black"/>
<path d="M65.0006 44.2535C64.4808 44.2535 64.0747 44.0829 63.7832 43.741C63.5366 43.455 63.4128 43.1103 63.4128 42.7088C63.4128 42.3072 63.5366 41.9708 63.7832 41.6839C64.0802 41.3373 64.4992 41.1641 65.04 41.1641C65.5287 41.1641 65.9165 41.297 66.2025 41.5619C66.4885 41.8278 66.6324 42.1862 66.6324 42.6382C66.6324 43.0901 66.4848 43.4834 66.1906 43.785C65.888 44.0976 65.492 44.2544 65.0006 44.2544V44.2535ZM65.1656 44.0573C65.3866 44.0573 65.5727 43.9876 65.7258 43.8483C65.9623 43.6356 66.0805 43.2808 66.0805 42.7839C66.0805 42.3531 65.9687 42.0038 65.7459 41.7352C65.5305 41.4803 65.2573 41.3529 64.9264 41.3529C64.6559 41.3529 64.4378 41.4354 64.2718 41.6013C64.0619 41.8113 63.9565 42.1404 63.9565 42.5868C63.9565 43.0104 64.0637 43.3569 64.2801 43.6273C64.5038 43.9134 64.7989 44.0573 65.1666 44.0573H65.1656Z" fill="black"/>
<path d="M67.4957 43.0559V42.3619C67.4957 41.8916 67.4929 41.6129 67.4874 41.5268C67.4792 41.4003 67.4233 41.326 67.3179 41.3022C67.2812 41.2939 67.2298 41.2903 67.1638 41.2903C67.1189 41.2903 67.0969 41.2783 67.0969 41.2545C67.0969 41.2307 67.1253 41.2188 67.184 41.2188C67.2656 41.2188 67.3719 41.2206 67.503 41.2243C67.6341 41.2279 67.7084 41.2298 67.724 41.2298C67.7689 41.2298 67.8624 41.2279 68.0054 41.2243C68.1484 41.2206 68.2401 41.2188 68.2795 41.2188C68.5976 41.2188 68.8387 41.2756 69.0047 41.3883C69.0707 41.4333 69.1284 41.5002 69.1779 41.5891C69.2412 41.6945 69.2723 41.8073 69.2723 41.9283C69.2723 42.2354 69.0991 42.5297 68.7525 42.8111C69.0386 43.1741 69.1962 43.3703 69.2256 43.4024C69.3778 43.594 69.5052 43.7425 69.6079 43.8479C69.7527 43.9974 69.8994 44.0872 70.0497 44.1156C70.0809 44.1184 70.1111 44.1211 70.1405 44.1239C70.1854 44.1294 70.2074 44.1413 70.2074 44.1596C70.2074 44.1862 70.1827 44.1991 70.1322 44.1991H69.7582C69.5694 44.1991 69.4282 44.1743 69.3365 44.1239C69.2082 44.0551 69.0276 43.8626 68.7966 43.5445C68.6838 43.3841 68.5536 43.2026 68.406 43.0009C68.3904 42.9826 68.3666 42.9734 68.3354 42.9734H67.9926C67.9715 42.9734 67.9614 42.9835 67.9614 43.0045V43.0596C67.9614 43.5033 67.9678 43.7829 67.9807 43.8974C67.9962 44.0304 68.0476 44.1019 68.1347 44.1129C68.2135 44.123 68.2777 44.1285 68.3281 44.1285C68.3593 44.1285 68.3758 44.1386 68.3758 44.1596C68.3758 44.1862 68.3492 44.1991 68.2969 44.1991C68.208 44.1991 68.0897 44.1972 67.944 44.1936C67.7982 44.1899 67.7221 44.1881 67.7176 44.1881C67.6992 44.1881 67.6295 44.1899 67.5085 44.1936C67.3875 44.1972 67.2968 44.1991 67.2363 44.1991C67.184 44.1991 67.1574 44.1862 67.1574 44.1596C67.1574 44.1413 67.1868 44.1294 67.2445 44.1239C67.2839 44.1184 67.3234 44.1147 67.3628 44.112C67.4233 44.0991 67.4618 44.0267 67.4774 43.8947C67.4902 43.792 67.4966 43.5124 67.4966 43.055L67.4957 43.0559ZM67.9605 41.4754V42.6736C67.9605 42.713 67.9724 42.7369 67.9962 42.7442C68.0696 42.7708 68.1695 42.7836 68.296 42.7836C68.4225 42.7836 68.5151 42.7616 68.5756 42.7167C68.7305 42.6039 68.8085 42.4068 68.8085 42.1254C68.8085 41.8761 68.7379 41.6854 68.5958 41.5543C68.483 41.4543 68.3528 41.4049 68.2053 41.4049C68.0787 41.4049 68.0045 41.4131 67.9807 41.4287C67.9678 41.4369 67.9614 41.4525 67.9614 41.4764L67.9605 41.4754Z" fill="black"/>
<path d="M70.9997 43.0562V41.44L70.4121 41.4556C70.2049 41.4611 70.0775 41.4987 70.0298 41.5702C69.9959 41.6197 69.973 41.6664 69.9629 41.7077C69.9546 41.7389 69.9409 41.7554 69.9198 41.7554C69.896 41.7554 69.884 41.7343 69.884 41.6921C69.884 41.6215 69.9115 41.4702 69.9665 41.2392C69.9794 41.1897 69.995 41.1641 70.0142 41.1641C70.0225 41.1641 70.0435 41.1714 70.0775 41.1861C70.1114 41.2007 70.1471 41.209 70.1838 41.2117C70.3259 41.2246 70.457 41.2319 70.578 41.2319H72.1383C72.241 41.2319 72.3317 41.2264 72.4106 41.2145C72.4894 41.2026 72.5252 41.1971 72.5169 41.1971C72.538 41.1971 72.5481 41.2246 72.5481 41.2796C72.5481 41.3052 72.5462 41.3786 72.5426 41.4987C72.5389 41.6188 72.5352 41.6985 72.5325 41.7379C72.5297 41.7774 72.5196 41.7966 72.5013 41.7966C72.4775 41.7966 72.4628 41.77 72.4582 41.7178L72.4546 41.6747C72.4417 41.5353 72.2868 41.462 71.9898 41.4537L71.4929 41.4418V43.058C71.4929 43.5045 71.4993 43.7859 71.5122 43.9014C71.5277 44.0307 71.5791 44.1013 71.6662 44.1141C71.7423 44.1242 71.8092 44.1297 71.8669 44.1297C71.9091 44.1297 71.9302 44.1398 71.9302 44.1609C71.9302 44.1875 71.9054 44.2003 71.855 44.2003C71.7551 44.2003 71.6332 44.1985 71.4883 44.1948C71.3435 44.1911 71.2601 44.1893 71.2362 44.1893C71.2124 44.1893 71.1381 44.1911 71.0135 44.1948C70.8888 44.1985 70.7971 44.2003 70.7393 44.2003C70.6871 44.2003 70.6605 44.1875 70.6605 44.1609C70.6605 44.1425 70.6898 44.1306 70.7476 44.1251C70.787 44.1196 70.8264 44.116 70.8659 44.1132C70.9264 44.1004 70.9649 44.0279 70.9805 43.8959C70.9933 43.7804 70.9997 43.5008 70.9997 43.0562Z" fill="black"/>
<path d="M75.8625 44.2535C75.2896 44.2535 74.8395 44.1114 74.5122 43.8263C74.1849 43.5412 74.0217 43.1534 74.0217 42.662C74.0217 42.2229 74.1748 41.8635 74.4819 41.5839C74.789 41.3043 75.2061 41.1641 75.7333 41.1641C75.9148 41.1641 76.1064 41.1769 76.3062 41.2035C76.3988 41.2218 76.5299 41.2438 76.7013 41.2704C76.7408 41.2732 76.7609 41.2887 76.7609 41.3181C76.7609 41.3263 76.7573 41.3483 76.7509 41.385C76.7444 41.4327 76.7389 41.4822 76.7362 41.5344C76.7325 41.6499 76.7279 41.792 76.7215 41.9598C76.716 42.0203 76.7004 42.0505 76.6738 42.0505C76.6473 42.0505 76.6344 42.0221 76.6344 41.9635C76.6317 41.8269 76.5803 41.7058 76.4804 41.6004C76.4117 41.5298 76.3081 41.4721 76.1687 41.4272C76.0193 41.3795 75.8561 41.3566 75.6801 41.3566C75.3647 41.3566 75.1181 41.4382 74.9394 41.6013C74.6974 41.8223 74.5764 42.1624 74.5764 42.6226C74.5764 43.0562 74.7166 43.4073 74.998 43.675C75.2428 43.9088 75.516 44.0261 75.8176 44.0261C75.9854 44.0261 76.1156 44.016 76.2081 43.9949C76.3475 43.9638 76.4575 43.9005 76.5391 43.8061C76.6097 43.7273 76.6546 43.6402 76.6729 43.5457C76.683 43.4935 76.7004 43.4669 76.7243 43.4669C76.7481 43.4669 76.76 43.4862 76.76 43.5256C76.76 43.5549 76.7509 43.631 76.7325 43.7538C76.7114 43.8904 76.6922 43.9876 76.6757 44.0454C76.6583 44.1031 76.6234 44.1425 76.5712 44.1636C76.4217 44.2241 76.1852 44.2544 75.8616 44.2544L75.8625 44.2535Z" fill="black"/>
<path d="M77.4395 42.9376V42.3619C77.4395 41.8916 77.4368 41.6129 77.4313 41.5268C77.4231 41.4003 77.3671 41.326 77.2617 41.3022C77.225 41.2939 77.1737 41.2903 77.1077 41.2903C77.0628 41.2903 77.0408 41.2783 77.0408 41.2545C77.0408 41.2307 77.0692 41.2188 77.1279 41.2188C77.204 41.2188 77.3112 41.2206 77.4487 41.2243C77.5862 41.2279 77.6715 41.2298 77.7027 41.2298C77.7311 41.2298 77.8072 41.2279 77.9291 41.2243C78.051 41.2206 78.1372 41.2188 78.1876 41.2188C78.2454 41.2188 78.2747 41.2307 78.2747 41.2545C78.2747 41.2783 78.2536 41.2903 78.2114 41.2903C78.1803 41.2903 78.1418 41.2939 78.0969 41.3022C78.0079 41.3178 77.9593 41.3929 77.9511 41.5268C77.9456 41.6139 77.9428 41.8926 77.9428 42.3638V42.9165C77.9428 43.3951 78.0455 43.7187 78.2499 43.8874C78.381 43.9955 78.5451 44.0496 78.7422 44.0496C78.9632 44.0496 79.1438 43.979 79.2859 43.836C79.383 43.7389 79.449 43.5995 79.483 43.418C79.504 43.297 79.5141 43.11 79.5141 42.8579V42.3647C79.5141 41.8935 79.5114 41.6148 79.5059 41.5277C79.4976 41.4012 79.4417 41.326 79.3363 41.3031C79.2996 41.2948 79.2519 41.2912 79.1942 41.2912C79.1493 41.2912 79.1273 41.2793 79.1273 41.2554C79.1273 41.2316 79.1548 41.2197 79.2098 41.2197C79.3253 41.2197 79.4765 41.2233 79.6626 41.2316C79.6709 41.2316 79.7323 41.2298 79.8478 41.2261C79.9633 41.2224 80.0513 41.2206 80.1118 41.2206C80.1668 41.2206 80.1943 41.2325 80.1943 41.2563C80.1943 41.2802 80.1705 41.2921 80.1238 41.2921C80.0926 41.2921 80.0541 41.2958 80.0092 41.304C79.9202 41.3196 79.8717 41.3948 79.8634 41.5286C79.8579 41.6157 79.8552 41.8935 79.8552 42.3638V42.7855C79.8552 43.0531 79.8341 43.2704 79.7919 43.4354C79.7341 43.6637 79.6305 43.8425 79.4802 43.9717C79.2593 44.1606 78.9861 44.255 78.6606 44.255C78.2774 44.255 77.985 44.1642 77.7861 43.9827C77.5523 43.7728 77.435 43.4244 77.435 42.9385L77.4395 42.9376Z" fill="black"/>
<path d="M80.963 43.055V42.361C80.963 41.8907 80.9602 41.612 80.9547 41.5259C80.9465 41.3993 80.9025 41.326 80.8209 41.3049C80.776 41.2948 80.731 41.2893 80.6852 41.2893C80.6394 41.2893 80.6165 41.2765 80.6165 41.2499C80.6165 41.2288 80.6476 41.2188 80.7109 41.2188C80.7631 41.2188 80.853 41.2206 80.9813 41.2243C81.1087 41.2279 81.1894 41.2298 81.2233 41.2298C81.2518 41.2298 81.326 41.2279 81.4443 41.2243C81.5625 41.2206 81.6496 41.2188 81.7046 41.2188C81.7596 41.2188 81.7871 41.2288 81.7871 41.2499C81.7871 41.2765 81.7679 41.2893 81.7303 41.2893C81.6927 41.2893 81.6514 41.293 81.6074 41.3013C81.5194 41.3168 81.4709 41.392 81.4635 41.5259C81.458 41.6129 81.4562 41.8907 81.4562 42.361V43.055C81.4562 43.5253 81.4617 43.8131 81.4718 43.9185C81.4819 44.034 81.5341 44.0982 81.6276 44.112C81.7028 44.1221 81.7697 44.1276 81.8265 44.1276C81.8678 44.1276 81.8889 44.1376 81.8889 44.1587C81.8889 44.1853 81.8641 44.1981 81.8137 44.1981C81.7138 44.1981 81.5919 44.1963 81.4489 44.1926C81.3058 44.189 81.2224 44.1871 81.1986 44.1871C81.1747 44.1871 81.1005 44.189 80.9758 44.1926C80.8511 44.1963 80.7595 44.1981 80.7017 44.1981C80.6495 44.1981 80.6229 44.1853 80.6229 44.1587C80.6229 44.1404 80.6522 44.1285 80.71 44.123C80.7494 44.1175 80.7888 44.1138 80.8282 44.1111C80.8915 44.0982 80.9291 44.0331 80.9428 43.9158C80.9556 43.7994 80.9621 43.5115 80.9621 43.055H80.963Z" fill="black"/>
<path d="M83.1033 44.2553C82.875 44.2553 82.6825 44.2214 82.5276 44.1526C82.4781 44.1315 82.4524 44.0866 82.4524 44.0188C82.4524 43.8767 82.4588 43.7053 82.4716 43.5027C82.4771 43.4339 82.4927 43.4 82.5193 43.4C82.5459 43.4 82.5587 43.422 82.5587 43.4669C82.5587 43.5219 82.5707 43.5888 82.5945 43.6677C82.6733 43.9335 82.8613 44.0655 83.1583 44.0655C83.3242 44.0655 83.4562 44.0169 83.5561 43.9198C83.6432 43.8327 83.6863 43.7318 83.6863 43.6163C83.6863 43.3981 83.5571 43.1882 83.3004 42.9856L83.1189 42.8435C82.7302 42.5392 82.5358 42.2275 82.5358 41.9094C82.5358 41.6912 82.6202 41.5124 82.7879 41.3731C82.9557 41.2337 83.1757 41.1641 83.4461 41.1641C83.6166 41.1641 83.7917 41.1861 83.9705 41.231C84.0072 41.2411 84.0255 41.2576 84.0255 41.2787C84.0255 41.2732 84.0228 41.3199 84.0173 41.4189C84.0118 41.517 84.009 41.6288 84.009 41.7517C84.009 41.8305 83.9943 41.87 83.9659 41.87C83.9393 41.87 83.9265 41.8461 83.9265 41.7994C83.9265 41.7123 83.8926 41.6261 83.8238 41.539C83.7212 41.4107 83.5781 41.3456 83.3939 41.3456C83.249 41.3456 83.1354 41.3832 83.051 41.4583C82.9667 41.5335 82.9245 41.6307 82.9245 41.7517C82.9245 41.8434 82.9538 41.9314 83.0134 42.0139C83.0721 42.0964 83.1821 42.1981 83.3425 42.3191L83.4525 42.4017C83.6891 42.5804 83.8559 42.7454 83.9531 42.8967C84.0503 43.048 84.0988 43.2175 84.0988 43.4073C84.0988 43.7043 83.9751 43.9326 83.7285 44.093C83.5626 44.2012 83.3545 44.2544 83.1014 44.2544L83.1033 44.2553Z" fill="black"/>
<path d="M85.0387 43.055V42.361C85.0387 41.8907 85.0359 41.612 85.0304 41.5259C85.0222 41.3993 84.9782 41.326 84.8966 41.3049C84.8516 41.2948 84.8067 41.2893 84.7609 41.2893C84.7151 41.2893 84.6921 41.2765 84.6921 41.2499C84.6921 41.2288 84.7233 41.2188 84.7866 41.2188C84.8388 41.2188 84.9287 41.2206 85.057 41.2243C85.1844 41.2279 85.2651 41.2298 85.299 41.2298C85.3274 41.2298 85.4017 41.2279 85.5199 41.2243C85.6382 41.2206 85.7253 41.2188 85.7803 41.2188C85.8353 41.2188 85.8628 41.2288 85.8628 41.2499C85.8628 41.2765 85.8436 41.2893 85.806 41.2893C85.7684 41.2893 85.7271 41.293 85.6831 41.3013C85.5951 41.3168 85.5465 41.392 85.5392 41.5259C85.5337 41.6129 85.5319 41.8907 85.5319 42.361V43.055C85.5319 43.5253 85.5374 43.8131 85.5474 43.9185C85.5575 44.034 85.6098 44.0982 85.7033 44.112C85.7785 44.1221 85.8454 44.1276 85.9022 44.1276C85.9435 44.1276 85.9646 44.1376 85.9646 44.1587C85.9646 44.1853 85.9398 44.1981 85.8894 44.1981C85.7895 44.1981 85.6675 44.1963 85.5245 44.1926C85.3815 44.189 85.2981 44.1871 85.2743 44.1871C85.2504 44.1871 85.1762 44.189 85.0515 44.1926C84.9268 44.1963 84.8351 44.1981 84.7774 44.1981C84.7251 44.1981 84.6986 44.1853 84.6986 44.1587C84.6986 44.1404 84.7279 44.1285 84.7856 44.123C84.8251 44.1175 84.8645 44.1138 84.9039 44.1111C84.9672 44.0982 85.0047 44.0331 85.0185 43.9158C85.0313 43.7994 85.0377 43.5115 85.0377 43.055H85.0387Z" fill="black"/>
<path d="M87.001 42.0116L87.0441 43.6672C87.0524 43.9303 87.0982 44.0761 87.1816 44.1045C87.1899 44.1072 87.2412 44.1136 87.3356 44.1246C87.4145 44.1347 87.4539 44.1485 87.4539 44.1641C87.4539 44.1906 87.4236 44.2035 87.3631 44.2035C87.2632 44.2035 87.1596 44.2016 87.0514 44.198C86.9433 44.1943 86.8846 44.1925 86.8745 44.1925C86.8773 44.1925 86.8268 44.1943 86.7251 44.198C86.6224 44.2016 86.5307 44.2035 86.4492 44.2035C86.3914 44.2035 86.3621 44.1906 86.3621 44.1641C86.3621 44.1457 86.396 44.1338 86.4647 44.1283C86.5124 44.1228 86.5582 44.1182 86.6022 44.1127C86.6517 44.0971 86.6848 44.055 86.7003 43.9862C86.7132 43.9257 86.7214 43.8047 86.7242 43.6232L86.7599 41.2901C86.7627 41.2012 86.7792 41.1562 86.8113 41.1562C86.8323 41.1562 86.8809 41.1966 86.957 41.2782C87.1725 41.5092 87.5795 41.9309 88.179 42.5433C88.4467 42.822 88.7364 43.1217 89.0463 43.4417H89.0655L89.0261 41.6724C89.0233 41.5752 89.0178 41.5083 89.0105 41.4716C88.9894 41.3928 88.95 41.3414 88.8923 41.3176C88.8528 41.302 88.7832 41.2938 88.6832 41.2938C88.6411 41.2938 88.62 41.2818 88.62 41.258C88.62 41.2342 88.6539 41.2223 88.7227 41.2223C88.8015 41.2223 88.8959 41.2241 89.0059 41.2278C89.1159 41.2314 89.181 41.2333 89.1994 41.2333C89.2021 41.2333 89.2479 41.2314 89.3369 41.2278C89.4258 41.2241 89.5092 41.2223 89.5853 41.2223C89.6458 41.2223 89.6761 41.2342 89.6761 41.258C89.6761 41.2818 89.6522 41.2938 89.6055 41.2938C89.4744 41.2938 89.3937 41.3368 89.3653 41.4239C89.3525 41.4716 89.3442 41.5431 89.3415 41.6403L89.2984 44.1274C89.2956 44.209 89.2791 44.2493 89.247 44.2493C89.2177 44.2493 89.1737 44.22 89.1132 44.1622C88.8611 43.9129 88.4733 43.526 87.9508 43.0035C87.772 42.8275 87.5712 42.6184 87.3476 42.3764C87.2348 42.2527 87.123 42.1307 87.0129 42.0097H87.001V42.0116Z" fill="black"/>
<path d="M90.5514 43.0567V42.3628C90.5514 41.8925 90.5486 41.6138 90.5431 41.5276C90.5349 41.4011 90.4789 41.3268 90.3735 41.303C90.3368 41.2948 90.2855 41.2911 90.2195 41.2911C90.1746 41.2911 90.1526 41.2792 90.1526 41.2553C90.1526 41.2315 90.181 41.2196 90.2397 41.2196C90.3185 41.2196 90.4258 41.2214 90.5605 41.2251C90.6962 41.2288 90.7778 41.2306 90.8071 41.2306C91.4296 41.2306 91.7587 41.2297 91.7926 41.2269C91.8605 41.2214 91.9173 41.2141 91.9622 41.2031C92.0071 41.193 92.0282 41.1875 92.0255 41.1875C92.0411 41.1875 92.0493 41.1994 92.0493 41.2232C92.0493 41.226 92.0456 41.2498 92.0374 41.2938C92.0291 41.3461 92.0236 41.4084 92.02 41.479C92.0163 41.5496 92.009 41.6367 91.998 41.7394C91.9925 41.7687 91.9796 41.7825 91.9586 41.7825C91.9402 41.7825 91.9292 41.7678 91.9246 41.7394C91.921 41.711 91.9173 41.6825 91.9146 41.6569C91.9118 41.6303 91.9063 41.6074 91.899 41.5863C91.8678 41.5102 91.7789 41.4625 91.634 41.4442C91.5442 41.4341 91.3572 41.4286 91.0721 41.4286C91.0537 41.4286 91.0446 41.4414 91.0446 41.468V42.4654C91.0446 42.4948 91.0537 42.5085 91.0721 42.5085C91.4333 42.5085 91.645 42.5058 91.7055 42.5003C91.7505 42.4975 91.7844 42.4938 91.8082 42.4883C91.8476 42.4783 91.877 42.4618 91.8953 42.4407C91.9274 42.4068 91.9485 42.3893 91.9586 42.3893C91.9769 42.3893 91.9861 42.3994 91.9861 42.4205C91.9861 42.4233 91.9824 42.4498 91.9741 42.4993C91.9659 42.5599 91.9595 42.6295 91.954 42.7084C91.943 42.8578 91.9384 42.9458 91.9384 42.9724C91.9384 43.0219 91.9265 43.0476 91.9026 43.0476C91.8788 43.0476 91.8669 43.0338 91.8669 43.0063C91.8669 42.9788 91.8614 42.933 91.8513 42.8706C91.8302 42.7817 91.756 42.7304 91.6294 42.7166C91.5552 42.7084 91.3682 42.7047 91.0675 42.7047C91.0519 42.7047 91.0437 42.7175 91.0437 42.7441V43.6664C91.0492 43.8057 91.0794 43.8955 91.1362 43.9359C91.1931 43.9771 91.3205 43.9973 91.5185 43.9973C91.6982 43.9973 91.822 43.9817 91.8907 43.9496C91.9833 43.9075 92.042 43.8103 92.0686 43.6581C92.0768 43.6187 92.0906 43.5985 92.1117 43.5985C92.1327 43.5985 92.1428 43.6223 92.1428 43.6691C92.1428 43.8295 92.1254 43.9753 92.0915 44.1064C92.0786 44.1541 92.0603 44.1825 92.0365 44.1935C92.0126 44.2045 91.9604 44.2091 91.8788 44.2091C91.6505 44.2091 91.4232 44.2054 91.1967 44.1971C90.9703 44.1889 90.8337 44.1852 90.787 44.1852C90.7631 44.1852 90.6889 44.1871 90.5642 44.1907C90.4395 44.1944 90.3479 44.1962 90.2901 44.1962C90.2378 44.1962 90.2113 44.1834 90.2113 44.1568C90.2113 44.1385 90.2406 44.1266 90.2983 44.1211C90.3378 44.1156 90.3772 44.1119 90.4166 44.1091C90.4771 44.0963 90.5156 44.0239 90.5312 43.8919C90.544 43.7892 90.5504 43.5096 90.5504 43.0521L90.5514 43.0567Z" fill="black"/>
</g>
<defs>
<filter id="filter0_d_1850_79833" x="0.875" y="0.65625" width="115.25" height="66.25" filterUnits="userSpaceOnUse" color-interpolation-filters="sRGB">
<feFlood flood-opacity="0" result="BackgroundImageFix"/>
<feColorMatrix in="SourceAlpha" type="matrix" values="0 0 0 0 0 0 0 0 0 0 0 0 0 0 0 0 0 0 127 0" result="hardAlpha"/>
<feOffset dy="0.78125"/>
<feGaussianBlur stdDeviation="1.5625"/>
<feComposite in2="hardAlpha" operator="out"/>
<feColorMatrix type="matrix" values="0 0 0 0 0 0 0 0 0 0 0 0 0 0 0 0 0 0 0.08 0"/>
<feBlend mode="normal" in2="BackgroundImageFix" result="effect1_dropShadow_1850_79833"/>
<feBlend mode="normal" in="SourceGraphic" in2="effect1_dropShadow_1850_79833" result="shape"/>
</filter>
</defs>
</svg>
