<svg width="19" height="25" viewBox="0 0 19 25" fill="none" xmlns="http://www.w3.org/2000/svg">
<path d="M14.7613 8.89903C14.9017 9.03965 14.9806 9.23028 14.9806 9.42903C14.9806 9.62778 14.9017 9.8184 14.7613 9.95903L8.40329 16.319C8.31507 16.4073 8.21031 16.4774 8.095 16.5251C7.9797 16.5729 7.85611 16.5975 7.73129 16.5975C7.60648 16.5975 7.48289 16.5729 7.36758 16.5251C7.25227 16.4774 7.14752 16.4073 7.05929 16.319L4.20129 13.459C4.06881 13.3169 3.99669 13.1288 4.00012 12.9345C4.00355 12.7402 4.08226 12.5548 4.21967 12.4174C4.35708 12.28 4.54247 12.2013 4.73677 12.1979C4.93107 12.1944 5.11912 12.2665 5.26129 12.399L7.73129 14.869L13.7013 8.89903C13.8419 8.75858 14.0325 8.67969 14.2313 8.67969C14.43 8.67969 14.6207 8.75858 14.7613 8.89903Z" fill="white"/>
</svg>
