<svg width="232" height="131" viewBox="0 0 232 131" fill="none" xmlns="http://www.w3.org/2000/svg">
<path d="M151.993 25H80.0071C77.794 25 76 27.0429 76 29.5628V101.437C76 103.957 77.794 106 80.0071 106H151.993C154.206 106 156 103.957 156 101.437V29.5628C156 27.0429 154.206 25 151.993 25Z" fill="white"/>
<path d="M151.993 25H80.0071C77.794 25 76 27.0429 76 29.5628V101.437C76 103.957 77.794 106 80.0071 106H151.993C154.206 106 156 103.957 156 101.437V29.5628C156 27.0429 154.206 25 151.993 25Z" stroke="#FC4114" stroke-width="1.92" stroke-miterlimit="22.93"/>
<path fill-rule="evenodd" clip-rule="evenodd" d="M130.141 48.971L130.15 64.6617L128.314 64.5978L128.35 48.9592C128.653 48.8196 129.846 48.7699 130.141 48.971Z" fill="white"/>
<path fill-rule="evenodd" clip-rule="evenodd" d="M133.024 66.5859L138.619 66.6001L138.648 78.1327L93.3982 78.1398L93.3587 66.6191C106.581 66.5268 119.804 66.6025 133.026 66.5836M139.604 65.2725L139.573 79.4651L92.5004 79.4746C92.5191 78.4593 92.4422 67.0119 92.4297 65.3411C108.142 65.2961 123.902 65.3861 139.604 65.2748V65.2725Z" fill="#FC4114"/>
<path fill-rule="evenodd" clip-rule="evenodd" d="M105.162 81.9144C105.509 84.0704 108.019 87.4784 109.424 88.9315C110.559 90.1053 114.685 93.3357 115.948 93.3996C117.253 93.4659 121.385 90.11 122.52 89.0025C123.705 87.8452 126.546 84.0373 126.835 81.9144L124.349 81.2731C123.993 81.1973 123.786 81.1831 123.488 80.9512L128.699 80.9086C128.084 84.2077 125.322 88.1173 123.879 89.7361C122.352 91.4496 117.763 95.0799 116.05 95.1841C115.318 95.229 112.319 93.3381 111.733 92.924C110.416 91.9962 109.125 90.8816 108.188 89.7905C106.365 87.6701 103.85 84.0136 103.308 80.9062L108.42 80.9133C108.175 81.1595 108.161 81.1642 107.662 81.2754L105.162 81.9144Z" fill="#FBFBFB"/>
<path fill-rule="evenodd" clip-rule="evenodd" d="M104.842 88.6145C107.66 92.4934 111.235 95.3665 115.543 97.4136C116.131 97.6668 116.221 97.6858 117.21 97.1888L121.261 94.7441C127.924 90.0818 130.06 83.5452 130.314 83.2754L130.912 81.4413H141.263L141.248 63.2656C137.353 63.4384 131.9 63.8857 127.963 64.3448L140.296 64.3708V80.3384C138.893 80.3503 130.646 80.3029 130.22 80.3455C129.83 80.7147 128.437 89.8333 117.773 95.6292C117.432 95.8138 117.141 96.0102 116.852 96.1498C116.42 96.3605 115.994 96.4409 115.42 96.164C113.251 95.1156 111.187 93.7146 109.383 92.0863C107.554 90.4344 106.049 88.6808 104.679 86.4988C103.561 84.7143 102.57 82.4329 102.005 80.3503L91.6938 80.3266L91.7354 64.3732L103.904 64.2998C99.5625 63.9874 95.1585 63.5259 90.7295 63.268L90.7378 81.4342L101.288 81.4436C102.333 84.144 103.119 86.2455 104.835 88.6121" fill="#F9981C"/>
<path fill-rule="evenodd" clip-rule="evenodd" d="M107.662 81.2754C108.163 81.1666 108.175 81.1595 108.42 80.9133L103.308 80.9062C103.852 84.0136 106.365 87.6701 108.188 89.7905C109.582 91.414 114.182 95.0515 116.11 95.177C117.823 95.0728 122.354 91.4472 123.881 89.7337C125.324 88.115 128.086 84.2053 128.701 80.9062L123.491 80.9488C123.786 81.1808 123.996 81.195 124.351 81.2707L126.837 81.9121C126.548 84.0349 123.707 87.8428 122.522 89.0001C121.385 90.11 117.258 93.4564 116.11 93.3902C114.847 93.3263 111.432 90.9833 109.426 88.9291C108.021 87.476 105.511 84.0681 105.164 81.9121L107.664 81.2731L107.662 81.2754Z" fill="#FC4114"/>
<path fill-rule="evenodd" clip-rule="evenodd" d="M121.693 83.375L121.711 83.8128C122.007 83.7395 121.89 83.8176 122.046 83.6235C122.268 83.7915 122.21 83.5975 122.347 83.9264C122.524 84.3501 122.412 84.1158 122.464 84.5678C122.106 84.5465 121.666 84.4518 121.63 84.4329C121.404 84.1489 121.516 84.4376 121.452 83.898C121.452 83.8909 121.47 83.4957 121.47 83.4862C121.159 82.8473 121.46 83.3797 121.121 83.1241L121.067 84.4589L120.822 84.414C120.331 84.1702 119.995 83.6235 119.855 83.0815C120.431 83.1738 120.213 83.0295 120.56 83.3797C120.668 83.4886 120.766 83.6637 120.857 83.8412L120.764 83.1123C121.483 83.2093 121.926 82.9135 122.339 83.3513C122.048 83.4981 122.073 83.4436 121.695 83.3726" fill="#FBFBFB"/>
<path fill-rule="evenodd" clip-rule="evenodd" d="M112.756 83.2066C113.055 83.332 112.843 83.1285 113.039 83.5568C113.047 83.5758 113.059 83.6255 113.066 83.6397C113.072 83.6539 113.078 83.6965 113.09 83.7201L113.357 83.1924C113.569 83.9734 113.145 83.3226 113.544 84.4017C113.186 84.2763 113.259 84.2881 113.095 83.8811L112.752 84.4278L112.758 83.2042L112.756 83.2066Z" fill="#FBFBFB"/>
<path fill-rule="evenodd" clip-rule="evenodd" d="M119.305 84.2979C119.421 83.7583 119.205 83.6045 119.5 83.188L119.619 84.376C119.267 84.4305 119.448 84.3997 119.307 84.2979" fill="#FBFBFB"/>
<path d="M108.545 82.2084C109.011 82.2084 109.244 82.4687 109.244 82.9917C109.244 83.1716 109.219 83.3325 109.167 83.4745C109.113 83.6189 109.036 83.7325 108.936 83.8153C108.838 83.8934 108.718 83.936 108.572 83.9407C108.481 83.9407 108.389 83.9171 108.296 83.8721V84.2152C108.296 84.3217 108.3 84.4022 108.31 84.4543C108.321 84.5087 108.339 84.5466 108.366 84.5679C108.391 84.5868 108.437 84.601 108.504 84.6057C108.527 84.6341 108.537 84.6744 108.537 84.7312C108.537 84.7525 108.535 84.7738 108.529 84.7951C108.522 84.8187 108.514 84.8353 108.504 84.8471H107.662C107.641 84.8235 107.633 84.7856 107.633 84.7335C107.633 84.672 107.643 84.6294 107.662 84.6034C107.728 84.5986 107.774 84.5844 107.799 84.5655C107.826 84.5418 107.845 84.504 107.855 84.4519C107.866 84.3998 107.87 84.3194 107.87 84.2129V84.0922H107.874V83.6023C107.76 83.5431 107.703 83.5005 107.703 83.4721C107.703 83.4461 107.76 83.4153 107.874 83.3775V82.8308C107.874 82.7882 107.874 82.7456 107.87 82.7006C107.87 82.6935 107.87 82.6888 107.866 82.6864C107.864 82.6604 107.861 82.6391 107.859 82.6225V82.6154C107.859 82.6154 107.859 82.6107 107.859 82.6059C107.859 82.6012 107.859 82.5988 107.859 82.5965C107.849 82.5491 107.83 82.5136 107.805 82.49C107.797 82.4829 107.785 82.4758 107.772 82.4663C107.77 82.4663 107.768 82.4663 107.766 82.4616C107.737 82.4545 107.706 82.4474 107.668 82.4426C107.647 82.419 107.639 82.3787 107.639 82.3172C107.639 82.2651 107.649 82.2249 107.668 82.2036C107.83 82.2107 107.972 82.2155 108.088 82.2155L108.375 82.2107C108.421 82.2083 108.464 82.206 108.506 82.206H108.549L108.545 82.2084ZM108.082 84.6152C108.103 84.0306 108.111 83.6686 108.111 83.5313C108.111 83.394 108.1 83.0319 108.082 82.4497C108.061 83.0319 108.053 83.3917 108.053 83.5313C108.053 83.6709 108.063 84.0306 108.082 84.6152ZM108.711 83.5479C108.77 83.4556 108.799 83.3088 108.799 83.1077C108.799 82.9065 108.768 82.7456 108.705 82.6296C108.647 82.5184 108.56 82.4592 108.445 82.4545C108.408 82.4616 108.381 82.4734 108.364 82.4852C108.337 82.5089 108.319 82.5468 108.308 82.5988C108.3 82.6533 108.296 82.7314 108.296 82.8355V83.6378C108.381 83.6709 108.445 83.6875 108.493 83.6875C108.585 83.6851 108.657 83.6402 108.714 83.5502L108.711 83.5479Z" fill="#FC4114"/>
<path d="M111.28 84.596C111.312 84.6031 111.334 84.6196 111.349 84.648C111.364 84.6741 111.37 84.7025 111.368 84.7285C111.366 84.7569 111.355 84.7806 111.334 84.8019C111.314 84.8232 111.291 84.835 111.262 84.835H111.189C111.137 84.8374 111.1 84.8374 111.075 84.835C111.05 84.835 111.018 84.8326 110.977 84.8303C110.937 84.8303 110.906 84.8232 110.888 84.8161C110.867 84.809 110.842 84.7971 110.813 84.7829C110.784 84.7687 110.759 84.7522 110.74 84.7309C110.721 84.7096 110.703 84.6835 110.678 84.6528C110.655 84.622 110.634 84.5865 110.615 84.5439C110.597 84.5013 110.578 84.454 110.557 84.3972L110.524 84.3025C110.484 84.1676 110.445 84.0611 110.407 83.9807C110.399 83.9665 110.389 83.9475 110.38 83.9286C110.36 83.9097 110.341 83.8955 110.32 83.8789C110.299 83.8623 110.277 83.8505 110.247 83.841C110.218 83.8316 110.191 83.841 110.166 83.8647C110.141 83.8884 110.125 83.9357 110.112 83.9949V84.2126C110.112 84.3191 110.119 84.3995 110.129 84.4516C110.139 84.506 110.158 84.5439 110.183 84.5652C110.208 84.5841 110.254 84.5983 110.32 84.6031C110.345 84.6315 110.358 84.6717 110.358 84.7285C110.358 84.7853 110.345 84.8208 110.32 84.8468H109.483C109.462 84.8232 109.454 84.7853 109.454 84.7332C109.454 84.6717 109.464 84.6291 109.483 84.6031C109.549 84.5983 109.595 84.5841 109.62 84.5652C109.647 84.5415 109.665 84.5037 109.676 84.4516C109.686 84.3995 109.69 84.3191 109.69 84.2126V83.5902C109.595 83.5357 109.545 83.4979 109.543 83.4718C109.543 83.4458 109.593 83.4174 109.69 83.3843V82.8257C109.69 82.7192 109.686 82.6411 109.678 82.5891C109.668 82.5394 109.649 82.5015 109.622 82.4778C109.618 82.4731 109.611 82.4684 109.601 82.466C109.551 82.4636 109.516 82.466 109.491 82.4707H109.487V82.466C109.46 82.4376 109.447 82.395 109.447 82.3358V82.3287C109.447 82.2719 109.46 82.2317 109.485 82.2033V82.1986C109.661 82.2057 109.799 82.2104 109.898 82.2104C109.929 82.2104 109.992 82.208 110.085 82.2033H110.106C110.127 82.2009 110.141 82.1986 110.152 82.1986C110.25 82.1962 110.343 82.1938 110.428 82.1938C110.644 82.1938 110.807 82.2577 110.919 82.3879C111.031 82.5181 111.085 82.6837 111.085 82.8896C111.085 83.0955 111.046 83.2565 110.969 83.3866C110.89 83.5192 110.786 83.6067 110.651 83.6517C110.717 83.7132 110.771 83.7819 110.815 83.86C110.856 83.9404 110.917 84.0801 110.991 84.2788C111.043 84.3995 111.085 84.48 111.12 84.5202C111.156 84.5605 111.21 84.5818 111.282 84.5912L111.28 84.596ZM109.907 84.6149C109.927 84.0303 109.936 83.6683 109.936 83.531C109.936 83.3937 109.925 83.0316 109.907 82.4494C109.886 83.0316 109.877 83.3914 109.877 83.531C109.877 83.6706 109.888 84.0303 109.907 84.6149ZM110.112 83.3843C110.135 83.4553 110.173 83.4955 110.229 83.505C110.343 83.5026 110.439 83.4553 110.516 83.3653C110.597 83.273 110.636 83.1405 110.636 82.963C110.636 82.7973 110.605 82.6695 110.543 82.5796C110.482 82.4849 110.393 82.44 110.272 82.44C110.247 82.44 110.222 82.4423 110.195 82.4471C110.154 82.4707 110.125 82.5133 110.112 82.5772V83.3866V83.3843ZM111.068 84.7001C111.091 84.7072 111.11 84.7096 111.124 84.7072C111.093 84.7048 111.058 84.6906 111.021 84.6646C111.016 84.6599 111.01 84.6551 111 84.6504C110.998 84.648 110.994 84.6433 110.989 84.6386C110.985 84.6362 110.983 84.6338 110.983 84.6315C110.979 84.6291 110.967 84.6173 110.95 84.5983C110.948 84.5983 110.944 84.596 110.94 84.5912C110.94 84.5889 110.94 84.5865 110.935 84.5865C110.933 84.5865 110.931 84.5841 110.931 84.5818C110.931 84.5818 110.931 84.577 110.927 84.5723C110.923 84.5676 110.921 84.5652 110.919 84.5652C110.915 84.5605 110.906 84.5486 110.896 84.5273C110.89 84.5202 110.875 84.4966 110.856 84.4587C110.852 84.4563 110.846 84.4469 110.84 84.4279C110.838 84.4279 110.836 84.4208 110.831 84.4137C110.827 84.4066 110.827 84.4019 110.827 84.3995L110.823 84.3948L110.817 84.383C110.817 84.383 110.817 84.3735 110.813 84.3688C110.809 84.364 110.807 84.3546 110.8 84.3427C110.798 84.338 110.796 84.3333 110.794 84.3285C110.792 84.3238 110.79 84.3191 110.788 84.3167C110.788 84.312 110.788 84.3072 110.784 84.3001C110.782 84.293 110.779 84.2907 110.777 84.2859C110.771 84.267 110.765 84.2504 110.757 84.2315C110.721 84.1416 110.686 84.0635 110.651 83.9996C110.611 83.938 110.578 83.8907 110.551 83.8552C110.53 83.8339 110.518 83.8245 110.513 83.8221C110.493 83.8008 110.48 83.789 110.476 83.7842C110.472 83.7819 110.468 83.7795 110.464 83.7748C110.459 83.77 110.455 83.7677 110.453 83.7653L110.441 83.7582C110.441 83.7582 110.432 83.7535 110.43 83.7511C110.407 83.7393 110.389 83.7298 110.374 83.7274C110.389 83.7322 110.405 83.7416 110.424 83.7582C110.426 83.7606 110.43 83.7629 110.437 83.7653C110.437 83.7677 110.441 83.7724 110.447 83.7771C110.451 83.7819 110.455 83.7866 110.457 83.789C110.461 83.7913 110.466 83.7937 110.468 83.7961C110.472 83.8008 110.482 83.815 110.501 83.8387C110.503 83.841 110.513 83.8552 110.53 83.8813C110.551 83.9144 110.578 83.9641 110.611 84.0303C110.613 84.0351 110.617 84.0445 110.624 84.0611C110.63 84.0777 110.634 84.0871 110.636 84.0942C110.646 84.1226 110.655 84.1416 110.659 84.1558C110.661 84.1605 110.663 84.1676 110.665 84.1723C110.667 84.1794 110.669 84.1865 110.673 84.1936C110.678 84.2007 110.678 84.2055 110.678 84.2078C110.686 84.2315 110.694 84.2504 110.701 84.2646C110.707 84.2836 110.713 84.3001 110.721 84.3167L110.734 84.3427C110.734 84.3427 110.74 84.3569 110.746 84.3735C110.755 84.3877 110.759 84.3972 110.759 84.3995C110.763 84.4066 110.765 84.4114 110.765 84.4137C110.767 84.4161 110.771 84.4208 110.775 84.4279C110.779 84.435 110.786 84.4469 110.792 84.4587C110.802 84.4729 110.811 84.4847 110.815 84.4895C110.838 84.5226 110.852 84.5439 110.861 84.5534C110.875 84.5723 110.885 84.5818 110.89 84.5865C110.896 84.5936 110.902 84.6007 110.906 84.6054C110.91 84.6078 110.913 84.6102 110.913 84.6125C110.917 84.6149 110.921 84.6173 110.923 84.6196C110.944 84.6386 110.956 84.648 110.962 84.6504L110.973 84.6575L110.983 84.6646C110.983 84.6646 110.998 84.6717 111.006 84.6788C111.01 84.6788 111.014 84.6788 111.016 84.6788C111.018 84.6788 111.021 84.6812 111.025 84.6835C111.029 84.6835 111.031 84.6859 111.033 84.6883C111.035 84.6883 111.037 84.6883 111.041 84.6883C111.046 84.6883 111.048 84.6906 111.052 84.693C111.056 84.693 111.058 84.693 111.06 84.693L111.068 84.7001ZM110.59 82.3666C110.565 82.3595 110.545 82.3548 110.524 82.3548C110.545 82.3572 110.565 82.3642 110.586 82.3737C110.605 82.3832 110.622 82.395 110.64 82.4068C110.642 82.4092 110.651 82.4163 110.663 82.4258L110.686 82.4447C110.686 82.4447 110.694 82.4518 110.696 82.4518L110.707 82.4636L110.723 82.4873C110.744 82.5133 110.761 82.5394 110.777 82.5701C110.79 82.5985 110.802 82.6269 110.811 82.653C110.823 82.6979 110.834 82.7476 110.84 82.8021C110.84 82.8068 110.84 82.8139 110.844 82.821V82.8352C110.844 82.8352 110.844 82.8518 110.848 82.8683C110.848 82.8707 110.848 82.8802 110.848 82.8967C110.848 82.9133 110.848 82.9251 110.848 82.9322V83.0316C110.848 83.0316 110.844 83.0435 110.844 83.0458V83.0648C110.838 83.1192 110.827 83.1665 110.815 83.2139C110.792 83.2778 110.763 83.3322 110.725 83.3772C110.698 83.4079 110.671 83.434 110.642 83.4576C110.624 83.4695 110.607 83.4813 110.588 83.4908C110.565 83.5026 110.545 83.5121 110.524 83.5168C110.545 83.5144 110.565 83.5073 110.59 83.4979C110.609 83.4908 110.628 83.4813 110.646 83.4718C110.68 83.4529 110.711 83.4269 110.74 83.4008C110.786 83.3559 110.825 83.2991 110.854 83.2328C110.877 83.1831 110.892 83.1287 110.9 83.0742C110.9 83.0719 110.9 83.0648 110.904 83.0553V83.0364L110.908 83.0222V82.9346C110.908 82.9346 110.908 82.9015 110.904 82.8612C110.904 82.8589 110.904 82.847 110.9 82.8281C110.898 82.8186 110.896 82.8115 110.896 82.8092C110.894 82.8021 110.892 82.795 110.892 82.7902C110.883 82.7334 110.869 82.6837 110.848 82.634C110.836 82.6056 110.819 82.5772 110.8 82.5465C110.782 82.5157 110.761 82.4873 110.734 82.4636C110.723 82.4518 110.715 82.4447 110.713 82.4447C110.707 82.44 110.703 82.4352 110.703 82.4329C110.701 82.4305 110.696 82.4281 110.69 82.4258C110.69 82.4234 110.682 82.4163 110.667 82.4068C110.655 82.3997 110.644 82.395 110.64 82.3927C110.622 82.3832 110.603 82.3737 110.584 82.3666H110.59Z" fill="#FC4114"/>
<path d="M112.303 84.5674C112.328 84.5863 112.373 84.6005 112.44 84.6052C112.461 84.6313 112.469 84.6739 112.469 84.7354C112.469 84.7875 112.459 84.8253 112.44 84.849H111.602C111.579 84.823 111.569 84.7851 111.569 84.7307C111.569 84.6762 111.579 84.6336 111.602 84.6052C111.669 84.6005 111.715 84.5863 111.74 84.5674C111.767 84.5437 111.785 84.5059 111.796 84.4538C111.806 84.4017 111.81 84.3213 111.81 84.2148V83.5994C111.702 83.5426 111.646 83.5024 111.646 83.474C111.646 83.448 111.7 83.4172 111.81 83.3817V82.9557H111.806V82.835C111.806 82.7309 111.802 82.6528 111.791 82.5984C111.781 82.5463 111.762 82.5061 111.735 82.4848C111.71 82.4635 111.665 82.4516 111.598 82.4422C111.577 82.4185 111.569 82.3783 111.569 82.3167C111.569 82.2647 111.579 82.2244 111.598 82.2031H112.436C112.459 82.2292 112.469 82.267 112.469 82.3215C112.469 82.3783 112.459 82.4185 112.436 82.4422C112.369 82.4493 112.324 82.4635 112.299 82.4848C112.272 82.5084 112.253 82.5463 112.245 82.5984C112.234 82.6528 112.23 82.7309 112.23 82.835V82.9533H112.234V83.3817C112.34 83.4172 112.394 83.448 112.394 83.474C112.394 83.5024 112.34 83.5426 112.234 83.5994V84.2148C112.234 84.3213 112.238 84.4017 112.249 84.4538C112.259 84.5082 112.278 84.5461 112.305 84.5674H112.303ZM112.018 84.6147C112.039 84.0302 112.047 83.6681 112.047 83.5308C112.047 83.3935 112.037 83.0314 112.018 82.4493C111.997 83.0314 111.989 83.3912 111.989 83.5308C111.989 83.6704 111.999 84.0302 112.018 84.6147Z" fill="#FC4114"/>
<path d="M114.273 82.4732C114.462 82.6507 114.556 82.9796 114.556 83.4601C114.556 83.8435 114.496 84.1346 114.373 84.3381C114.313 84.4399 114.248 84.5227 114.182 84.5913C114.113 84.6576 114.04 84.7096 113.964 84.7404C113.82 84.7996 113.685 84.8303 113.554 84.8351H113.521C113.267 84.8351 113.001 84.8398 112.721 84.8493H112.708C112.687 84.8232 112.679 84.7854 112.679 84.7309V84.7191C112.679 84.6647 112.689 84.6268 112.708 84.6055H112.737C112.791 84.6008 112.831 84.5866 112.858 84.5629C112.885 84.5416 112.904 84.5037 112.914 84.4493C112.922 84.3901 112.926 84.3073 112.926 84.1937V83.5926C112.82 83.5358 112.764 83.4956 112.762 83.4672C112.762 83.4411 112.816 83.4104 112.926 83.3749V82.8234C112.926 82.7193 112.922 82.6412 112.914 82.5868C112.908 82.5631 112.901 82.5442 112.893 82.53C112.887 82.5158 112.866 82.4969 112.835 82.4779C112.802 82.4566 112.76 82.4448 112.706 82.4353C112.685 82.4117 112.677 82.3738 112.677 82.3217V82.3099C112.677 82.2578 112.687 82.2176 112.706 82.1963H112.719C112.899 82.201 113.093 82.2058 113.303 82.2081C113.323 82.2058 113.34 82.2034 113.352 82.2034L113.525 82.1987C113.837 82.1987 114.086 82.2862 114.273 82.4637V82.4732ZM113.14 84.615C113.161 84.0304 113.17 83.6683 113.17 83.5311C113.17 83.3938 113.159 83.0317 113.14 82.4495C113.118 83.0317 113.107 83.3914 113.107 83.5311C113.107 83.6707 113.118 84.0304 113.14 84.615ZM113.444 84.5629C113.475 84.5866 113.523 84.596 113.587 84.596C113.739 84.596 113.864 84.5203 113.964 84.3688C114.063 84.2197 114.113 83.9381 114.113 83.5263C114.113 83.1406 114.057 82.8637 113.943 82.6933C113.828 82.5205 113.683 82.4353 113.506 82.4353C113.442 82.4353 113.39 82.4471 113.352 82.4684V83.3796C113.461 83.4151 113.517 83.4459 113.517 83.4719C113.517 83.5003 113.463 83.5405 113.352 83.5973V84.1866C113.352 84.2979 113.359 84.383 113.373 84.4422C113.386 84.5014 113.411 84.5416 113.444 84.5629ZM114.36 83.5358V83.4648C114.358 83.4388 114.356 83.4151 114.356 83.3914L114.352 83.3204C114.352 83.3204 114.352 83.3086 114.352 83.2991C114.352 83.2897 114.352 83.2849 114.352 83.2826C114.352 83.2778 114.352 83.2707 114.348 83.2636V83.2447C114.348 83.2447 114.344 83.2258 114.344 83.2092C114.344 83.1926 114.342 83.1784 114.34 83.169C114.338 83.1477 114.333 83.1216 114.327 83.0885C114.327 83.0814 114.325 83.0672 114.321 83.0506C114.319 83.0388 114.315 83.0246 114.311 83.008C114.311 83.0033 114.311 82.9962 114.306 82.9844L114.3 82.9654C114.296 82.9512 114.292 82.937 114.288 82.9228C114.286 82.911 114.284 82.9015 114.284 82.8992C114.284 82.8968 114.281 82.8921 114.279 82.8873C114.277 82.8826 114.277 82.8779 114.275 82.8755C114.273 82.8684 114.269 82.8542 114.263 82.8329C114.261 82.8282 114.259 82.8234 114.257 82.8187C114.254 82.814 114.252 82.8069 114.25 82.8021C114.248 82.795 114.246 82.7903 114.244 82.7879C114.236 82.7643 114.23 82.7501 114.223 82.743C114.211 82.7146 114.203 82.7004 114.2 82.698C114.19 82.6767 114.18 82.6625 114.173 82.653C114.134 82.5844 114.086 82.5253 114.034 82.4779C114.03 82.4756 114.022 82.4685 114.011 82.459C114.009 82.459 114.007 82.459 114.003 82.4543C113.999 82.4495 113.997 82.4495 113.995 82.4472L113.988 82.4401C113.988 82.4401 113.97 82.4306 113.961 82.4259C113.961 82.4235 113.961 82.4211 113.957 82.4211C113.953 82.4211 113.951 82.4187 113.951 82.4164C113.951 82.414 113.947 82.414 113.945 82.4117C113.941 82.4117 113.941 82.4093 113.941 82.4069C113.907 82.3904 113.87 82.3714 113.826 82.3549C113.785 82.3407 113.741 82.3288 113.695 82.3241C113.643 82.3194 113.598 82.3194 113.556 82.3241C113.598 82.3217 113.646 82.3241 113.695 82.3312C113.737 82.3407 113.779 82.3549 113.818 82.3691C113.86 82.3856 113.897 82.4069 113.928 82.4306L113.934 82.4353L113.939 82.4401C113.939 82.4401 113.947 82.4448 113.951 82.4472C113.961 82.4566 113.97 82.4637 113.974 82.4661C113.984 82.4756 113.993 82.4827 113.995 82.485C114.005 82.4945 114.013 82.5016 114.018 82.504C114.067 82.5537 114.109 82.6128 114.144 82.6791C114.159 82.7075 114.167 82.7217 114.167 82.724C114.173 82.7382 114.18 82.7524 114.188 82.7666C114.192 82.7737 114.198 82.7903 114.205 82.8116C114.207 82.814 114.209 82.8211 114.213 82.8305C114.217 82.84 114.219 82.8495 114.221 82.8566C114.252 82.9512 114.275 83.0577 114.288 83.1784C114.29 83.1832 114.292 83.2068 114.294 83.2518C114.296 83.2565 114.298 83.2636 114.298 83.2707V83.2897C114.298 83.2897 114.298 83.3086 114.302 83.3228C114.302 83.3275 114.302 83.3394 114.302 83.3559C114.302 83.3725 114.302 83.3867 114.302 83.3962V83.4648L114.306 83.4979C114.306 83.4979 114.306 83.5098 114.306 83.5192C114.306 83.5287 114.306 83.5334 114.306 83.5358V83.6423C114.306 83.6541 114.306 83.666 114.302 83.6754C114.3 83.718 114.298 83.7441 114.298 83.7512C114.296 83.7843 114.294 83.8103 114.292 83.8269C114.292 83.834 114.292 83.8482 114.288 83.8671C114.286 83.8861 114.284 83.9003 114.281 83.9097V83.9287L114.277 83.9476C114.277 83.9476 114.273 83.9736 114.271 83.9926L114.261 84.0352C114.261 84.0352 114.261 84.047 114.257 84.0588C114.254 84.0683 114.252 84.0778 114.25 84.0825C114.23 84.163 114.211 84.2245 114.194 84.2695C114.165 84.3428 114.13 84.4067 114.088 84.4635C114.086 84.4659 114.074 84.4801 114.051 84.5085C114.049 84.5108 114.045 84.5156 114.04 84.5203L114.03 84.5274C114.02 84.5392 114.011 84.5487 114.009 84.5511C114.007 84.5534 114.005 84.5558 114.001 84.5582C113.997 84.5605 113.995 84.5629 113.993 84.5653C113.991 84.5676 113.988 84.57 113.986 84.57C113.976 84.5771 113.966 84.5842 113.959 84.5889L113.953 84.596L113.947 84.6008C113.947 84.6008 113.936 84.6079 113.934 84.6079C113.928 84.6126 113.924 84.615 113.922 84.615C113.918 84.6197 113.914 84.6221 113.909 84.6221C113.872 84.6457 113.833 84.6623 113.789 84.6718C113.785 84.6741 113.779 84.6765 113.772 84.6765C113.77 84.6765 113.768 84.6765 113.764 84.6765C113.76 84.6765 113.758 84.6765 113.756 84.6765C113.737 84.6789 113.727 84.6812 113.718 84.6812C113.691 84.6836 113.668 84.6836 113.648 84.6812C113.668 84.686 113.691 84.6883 113.718 84.686H113.756L113.772 84.6812C113.772 84.6812 113.785 84.6812 113.789 84.6765C113.833 84.6694 113.876 84.6552 113.916 84.6339C113.918 84.6339 113.92 84.6339 113.924 84.6339C113.928 84.6339 113.93 84.6315 113.93 84.6292C113.93 84.6292 113.934 84.6268 113.936 84.6244C113.939 84.6221 113.943 84.6197 113.945 84.6197C113.949 84.6173 113.953 84.615 113.957 84.6126L113.964 84.6079L113.97 84.6031C113.97 84.6031 113.984 84.5913 113.997 84.5842C113.999 84.5842 114.003 84.5818 114.009 84.5771C114.015 84.5724 114.02 84.5676 114.022 84.5653C114.026 84.5629 114.034 84.5558 114.045 84.5463L114.051 84.5392C114.051 84.5392 114.055 84.5345 114.057 84.5345C114.061 84.5298 114.065 84.525 114.067 84.5227C114.092 84.4966 114.105 84.4824 114.107 84.4777C114.151 84.4257 114.192 84.3594 114.227 84.2837C114.248 84.2387 114.269 84.1748 114.294 84.0943C114.3 84.0707 114.304 84.0565 114.306 84.0494L114.317 84.0044C114.317 84.0044 114.321 83.9831 114.327 83.9594C114.327 83.9571 114.327 83.95 114.331 83.9405V83.9287L114.336 83.9168C114.336 83.9168 114.336 83.9003 114.34 83.8908C114.342 83.8813 114.344 83.8695 114.344 83.86C114.344 83.8506 114.346 83.8411 114.348 83.834C114.348 83.8316 114.35 83.8056 114.354 83.7583C114.356 83.7464 114.358 83.7204 114.36 83.6825C114.36 83.6707 114.36 83.6565 114.365 83.6447V83.5713C114.365 83.5547 114.365 83.5429 114.369 83.5358H114.36Z" fill="#FC4114"/>
<path d="M116.056 84.3309C116.115 84.3309 116.158 84.3427 116.187 84.3687C116.164 84.5036 116.148 84.6622 116.133 84.8468C116.112 84.8444 116.079 84.8421 116.033 84.8421C115.988 84.8421 115.95 84.8421 115.923 84.8421C115.747 84.8397 115.601 84.8373 115.487 84.8373C115.335 84.8373 115.202 84.8373 115.086 84.8421C114.953 84.8444 114.82 84.8492 114.689 84.8539H114.676C114.676 84.8539 114.668 84.8421 114.666 84.8397C114.653 84.816 114.645 84.7829 114.645 84.7379V84.7261C114.645 84.6717 114.656 84.6338 114.674 84.6125H114.68C114.732 84.6078 114.77 84.5936 114.797 84.5699C114.826 84.5486 114.845 84.5107 114.853 84.4563C114.863 84.3971 114.87 84.3143 114.87 84.2007V83.5901C114.776 83.5404 114.728 83.5025 114.726 83.4765C114.726 83.4528 114.774 83.4268 114.87 83.3937V82.8352C114.87 82.731 114.863 82.6529 114.853 82.6032C114.843 82.5535 114.824 82.5157 114.797 82.492C114.77 82.4683 114.732 82.4541 114.678 82.447H114.668C114.647 82.4234 114.639 82.3855 114.639 82.3334C114.639 82.3027 114.643 82.2766 114.651 82.2553C114.66 82.234 114.666 82.2198 114.672 82.2151L114.683 82.208C114.911 82.2127 115.144 82.2175 115.381 82.2198C115.589 82.2198 115.753 82.2198 115.878 82.2151C115.888 82.2151 115.903 82.2151 115.917 82.2151C115.932 82.2151 115.946 82.2151 115.959 82.2151H115.994C116.017 82.2151 116.031 82.2222 116.042 82.234C116.052 82.2459 116.058 82.2601 116.061 82.2766C116.063 82.3618 116.069 82.4589 116.077 82.5606C116.079 82.5748 116.077 82.5938 116.077 82.6127C116.073 82.634 116.063 82.6529 116.042 82.6766C116.021 82.7003 115.996 82.7097 115.961 82.7097H115.955C115.936 82.7097 115.919 82.705 115.903 82.6979C115.886 82.6908 115.871 82.6813 115.857 82.6671C115.844 82.6553 115.832 82.6435 115.826 82.6316C115.819 82.6198 115.807 82.6009 115.79 82.5772C115.73 82.4944 115.628 82.4518 115.483 82.4518H115.422C115.362 82.4636 115.319 82.518 115.292 82.6103V83.2753C115.304 83.3534 115.341 83.3984 115.398 83.4126C115.485 83.4103 115.543 83.3913 115.574 83.3558C115.603 83.325 115.62 83.2706 115.628 83.1925V83.1878L115.632 83.1831C115.653 83.1594 115.684 83.1499 115.73 83.1499H115.736C115.778 83.1499 115.811 83.1618 115.834 83.1831V83.1878C115.832 83.2162 115.83 83.2446 115.828 83.2706V83.3274C115.826 83.4055 115.824 83.4718 115.824 83.5238C115.824 83.6019 115.826 83.7061 115.83 83.8315H115.826V83.8362C115.803 83.8599 115.772 83.8694 115.728 83.8694H115.722C115.68 83.8694 115.647 83.8575 115.624 83.8362L115.62 83.8315V83.8268C115.61 83.7747 115.593 83.7345 115.57 83.7084C115.537 83.6706 115.474 83.6493 115.387 83.6469C115.333 83.6611 115.302 83.7061 115.289 83.7794V84.1889C115.289 84.3001 115.296 84.3853 115.31 84.4445C115.323 84.5036 115.348 84.5439 115.381 84.5652C115.412 84.5888 115.46 84.5983 115.524 84.5983H115.558C115.651 84.5983 115.726 84.5817 115.782 84.5462C115.838 84.5107 115.882 84.4587 115.913 84.39C115.913 84.3877 115.913 84.3853 115.917 84.3829C115.919 84.3782 115.921 84.3735 115.921 84.3711C115.95 84.3451 115.992 84.3332 116.048 84.3332H116.054L116.056 84.3309ZM115.071 84.6149C115.092 84.0303 115.1 83.6682 115.1 83.5309C115.1 83.3937 115.09 83.0316 115.071 82.4494C115.05 83.0316 115.042 83.3913 115.042 83.5309C115.042 83.6706 115.053 84.0303 115.071 84.6149Z" fill="#FC4114"/>
<path d="M118.96 84.4422C118.972 84.4777 118.974 84.5109 118.966 84.544C118.875 84.6482 118.773 84.7286 118.663 84.7878C118.555 84.8469 118.43 84.8753 118.289 84.8753C118.108 84.8753 117.948 84.8185 117.809 84.7026C117.669 84.5866 117.559 84.4281 117.482 84.2222C117.414 84.0376 117.374 83.8246 117.366 83.5879C117.272 83.5382 117.227 83.5003 117.227 83.4743C117.227 83.4483 117.274 83.4222 117.37 83.3915C117.38 83.1619 117.424 82.9607 117.497 82.7904C117.586 82.5868 117.7 82.4354 117.844 82.3336C117.989 82.2318 118.145 82.1821 118.314 82.1821C118.507 82.1821 118.654 82.2389 118.754 82.3502C118.854 82.4614 118.904 82.5963 118.902 82.7501V82.762C118.877 82.8117 118.835 82.8377 118.779 82.8353C118.721 82.8353 118.679 82.8093 118.654 82.762V82.7501C118.64 82.6697 118.615 82.6034 118.584 82.5561C118.523 82.4614 118.438 82.4164 118.326 82.4164C118.151 82.4164 118.023 82.5111 117.939 82.7004C117.86 82.8803 117.819 83.1051 117.817 83.3773C117.931 83.4128 117.987 83.4435 117.987 83.4719C117.987 83.5003 117.929 83.5429 117.821 83.6021C117.838 83.8577 117.89 84.0731 117.975 84.2435C118.081 84.4588 118.237 84.5677 118.438 84.5677C118.511 84.5677 118.588 84.5511 118.669 84.518C118.748 84.4849 118.827 84.4375 118.906 84.3736C118.933 84.3855 118.952 84.4091 118.962 84.4422H118.96ZM118.208 84.6836C118.235 84.686 118.257 84.686 118.278 84.6836C118.257 84.686 118.235 84.6836 118.208 84.6789C118.203 84.6765 118.193 84.6742 118.174 84.6718C118.16 84.6671 118.149 84.6623 118.145 84.66C118.106 84.6481 118.066 84.6292 118.031 84.6055C117.993 84.5819 117.962 84.5582 117.935 84.5298C117.935 84.5275 117.929 84.5251 117.925 84.5227C117.925 84.5204 117.925 84.518 117.921 84.5156C117.921 84.5133 117.917 84.5109 117.914 84.5109C117.91 84.5062 117.904 84.499 117.894 84.4872C117.892 84.4848 117.885 84.4778 117.877 84.4659C117.869 84.4541 117.863 84.447 117.86 84.4446C117.821 84.3926 117.786 84.331 117.754 84.2624C117.748 84.2482 117.742 84.2316 117.738 84.2174C117.738 84.2151 117.734 84.2103 117.732 84.2056C117.732 84.2032 117.732 84.1985 117.727 84.1938C117.727 84.1914 117.727 84.1867 117.723 84.1819L117.719 84.1701C117.719 84.1701 117.707 84.1299 117.692 84.0825C117.665 83.9926 117.646 83.8885 117.632 83.7701C117.632 83.7654 117.632 83.7583 117.632 83.7512C117.632 83.7441 117.632 83.737 117.632 83.7323V83.7228C117.632 83.7228 117.632 83.7133 117.632 83.7086C117.632 83.7039 117.632 83.6991 117.632 83.6968C117.632 83.692 117.632 83.6802 117.632 83.6636C117.632 83.6471 117.63 83.6352 117.628 83.6281C117.626 83.5879 117.624 83.5642 117.624 83.5595C117.624 83.5216 117.619 83.498 117.619 83.4909V83.3228C117.619 83.3228 117.619 83.311 117.619 83.3039C117.619 83.2968 117.619 83.2897 117.619 83.285C117.619 83.2447 117.619 83.2211 117.624 83.2163C117.63 83.1027 117.646 82.9962 117.673 82.9016C117.692 82.8353 117.711 82.7785 117.734 82.7264C117.765 82.6578 117.802 82.5987 117.844 82.549C117.865 82.5229 117.875 82.5087 117.881 82.5064C117.892 82.4969 117.9 82.4898 117.902 82.4874C117.902 82.4851 117.908 82.4803 117.912 82.4756C117.917 82.4709 117.921 82.4661 117.923 82.4638C117.956 82.4354 117.989 82.4141 118.018 82.3951C118.056 82.3715 118.095 82.3525 118.135 82.3383C118.181 82.3241 118.226 82.3147 118.268 82.3123C118.226 82.3123 118.181 82.3194 118.131 82.3312C118.091 82.3431 118.052 82.3596 118.014 82.3809C117.979 82.3999 117.944 82.4212 117.91 82.4448C117.91 82.4472 117.904 82.4519 117.9 82.4567C117.894 82.4614 117.89 82.4638 117.887 82.4661C117.885 82.4661 117.883 82.4685 117.881 82.4709C117.881 82.4732 117.877 82.4756 117.873 82.478C117.869 82.4803 117.867 82.4827 117.865 82.4851C117.865 82.4874 117.85 82.4993 117.825 82.5229C117.781 82.5726 117.74 82.6342 117.705 82.7052C117.675 82.7548 117.651 82.8164 117.632 82.8826C117.601 82.982 117.58 83.0885 117.569 83.2045C117.567 83.2116 117.565 83.2353 117.563 83.2779C117.563 83.2992 117.563 83.311 117.559 83.3157V83.4909C117.559 83.4909 117.559 83.524 117.563 83.5595C117.565 83.6021 117.567 83.6258 117.569 83.6281C117.569 83.6376 117.569 83.6518 117.574 83.6707C117.574 83.6897 117.578 83.6991 117.578 83.7015C117.58 83.7204 117.582 83.7346 117.582 83.7394C117.582 83.7417 117.582 83.7465 117.582 83.7536C117.582 83.7607 117.582 83.7678 117.582 83.7725C117.599 83.8908 117.624 83.9997 117.655 84.0944C117.669 84.1393 117.68 84.1701 117.684 84.1819C117.686 84.1843 117.688 84.189 117.69 84.1938C117.69 84.1985 117.694 84.2032 117.694 84.2056C117.694 84.208 117.696 84.2127 117.7 84.2174L117.705 84.2293C117.705 84.2293 117.709 84.2364 117.711 84.2435C117.717 84.2553 117.721 84.2671 117.723 84.2742C117.759 84.3429 117.798 84.4044 117.844 84.4565C117.844 84.4612 117.852 84.4683 117.86 84.4801C117.863 84.4825 117.867 84.4849 117.871 84.4896C117.875 84.4943 117.879 84.4967 117.881 84.4991C117.885 84.5038 117.894 84.5109 117.904 84.5227L117.91 84.5298C117.91 84.5298 117.914 84.5298 117.914 84.5346C117.919 84.5369 117.923 84.5393 117.925 84.5417C117.954 84.5677 117.987 84.5913 118.027 84.6126C118.066 84.6339 118.106 84.6505 118.145 84.66C118.151 84.6623 118.16 84.6647 118.168 84.6671H118.178C118.197 84.6718 118.208 84.6742 118.212 84.6742L118.208 84.6836Z" fill="#FC4114"/>
<path d="M120.6 84.2553C120.612 84.2553 120.627 84.2553 120.639 84.26C120.652 84.2647 120.664 84.2694 120.674 84.2742C120.685 84.2789 120.693 84.2836 120.701 84.2884C120.71 84.2931 120.714 84.2978 120.716 84.3026L120.722 84.3073C120.722 84.3073 120.718 84.3357 120.712 84.3736C120.706 84.4138 120.699 84.4399 120.697 84.4564C120.693 84.473 120.685 84.5014 120.668 84.5392C120.652 84.5795 120.635 84.6079 120.616 84.6292C120.597 84.6505 120.57 84.6765 120.535 84.7073C120.5 84.738 120.458 84.7593 120.413 84.7759C120.367 84.7925 120.309 84.8043 120.24 84.8161C120.171 84.828 120.095 84.8327 120.009 84.8327C119.737 84.8327 119.471 84.8374 119.209 84.8445C119.18 84.8256 119.168 84.7854 119.17 84.7286C119.172 84.6718 119.19 84.6292 119.226 84.6055C119.28 84.6008 119.319 84.5866 119.346 84.5653C119.373 84.544 119.392 84.5061 119.4 84.4493C119.411 84.3925 119.415 84.3097 119.415 84.1937V83.5973C119.303 83.5382 119.249 83.4956 119.249 83.4672C119.249 83.4411 119.305 83.4104 119.415 83.3725V82.9465H119.419V82.8282C119.419 82.724 119.415 82.646 119.405 82.5915C119.394 82.5395 119.375 82.4992 119.35 82.4779C119.326 82.4566 119.28 82.4448 119.213 82.4353C119.193 82.4117 119.184 82.3714 119.184 82.3099C119.184 82.2578 119.195 82.2176 119.213 82.1963H120.051C120.074 82.2223 120.084 82.2602 120.084 82.3146C120.084 82.3714 120.074 82.4117 120.051 82.4353C119.984 82.4424 119.939 82.4566 119.914 82.4779C119.887 82.5016 119.868 82.5395 119.86 82.5915C119.849 82.646 119.845 82.724 119.845 82.8282V83.3749C119.949 83.4104 120.001 83.4411 120.001 83.4672C119.999 83.4932 119.947 83.5334 119.845 83.5879V84.1795C119.845 84.2908 119.851 84.3759 119.866 84.4351C119.878 84.4943 119.901 84.5345 119.934 84.5558C119.966 84.5795 120.016 84.5889 120.08 84.5889H120.113C120.232 84.5889 120.321 84.5511 120.379 84.4753C120.413 84.4351 120.444 84.376 120.469 84.3002C120.479 84.2647 120.523 84.2458 120.6 84.2458V84.2553ZM119.639 84.615C119.662 84.0304 119.673 83.6683 119.673 83.5311C119.673 83.3938 119.662 83.0317 119.639 82.4495C119.619 83.0317 119.61 83.3914 119.61 83.5311C119.61 83.6707 119.621 84.0304 119.639 84.615Z" fill="#FC4114"/>
<path d="M122.483 82.3219V82.3266C122.483 82.3787 122.472 82.4189 122.454 82.4449H122.449V82.4497C122.449 82.4497 122.437 82.4449 122.429 82.4449C122.383 82.4544 122.345 82.4757 122.323 82.5065C122.298 82.5372 122.281 82.5846 122.271 82.6508C122.26 82.7171 122.256 82.8118 122.256 82.9348V83.3798C122.37 83.4153 122.427 83.446 122.427 83.4744C122.427 83.5028 122.37 83.5454 122.256 83.6046V83.7821C122.256 84.014 122.246 84.1986 122.223 84.3335C122.2 84.4684 122.158 84.5773 122.096 84.6601C121.988 84.8045 121.828 84.8778 121.618 84.8778C121.439 84.8778 121.298 84.8447 121.194 84.7761C121.09 84.7098 121.015 84.608 120.97 84.4684C120.926 84.3311 120.903 84.1513 120.903 83.9288V83.6069C120.795 83.5478 120.739 83.5052 120.739 83.4768C120.737 83.4508 120.791 83.42 120.903 83.3845V82.852C120.903 82.7455 120.897 82.665 120.886 82.613C120.876 82.5609 120.857 82.5207 120.832 82.4994C120.807 82.4781 120.762 82.4662 120.693 82.4615C120.67 82.4331 120.66 82.3929 120.66 82.3361C120.66 82.2793 120.67 82.2438 120.693 82.2177H121.537C121.558 82.2414 121.566 82.2793 121.566 82.3313C121.566 82.3929 121.556 82.4355 121.537 82.4615C121.47 82.4662 121.425 82.4781 121.4 82.4994C121.373 82.523 121.354 82.5609 121.346 82.613C121.335 82.665 121.331 82.7455 121.331 82.852V83.8673C121.331 84.111 121.36 84.2956 121.421 84.4211C121.481 84.5465 121.579 84.608 121.714 84.608C121.759 84.608 121.809 84.5962 121.861 84.5702C121.907 84.5441 121.948 84.5063 121.982 84.4518C122.015 84.3927 122.04 84.3146 122.054 84.2128C122.071 84.1134 122.077 83.969 122.077 83.775V82.9538C122.077 82.8212 122.071 82.7242 122.061 82.6579C122.05 82.5893 122.032 82.5396 122.005 82.5088C121.98 82.4781 121.942 82.4591 121.892 82.4473H121.872C121.849 82.4213 121.838 82.3834 121.838 82.329V82.3242C121.838 82.2722 121.849 82.2319 121.867 82.2059V82.2012H121.874C121.899 82.2035 121.915 82.2059 121.928 82.2059H121.938C122.005 82.2106 122.079 82.213 122.165 82.213C122.281 82.213 122.375 82.2083 122.445 82.2012H122.449C122.472 82.2272 122.483 82.2651 122.483 82.3195V82.3219ZM121.462 84.7193C121.497 84.7287 121.535 84.7335 121.572 84.7335C121.535 84.7311 121.5 84.724 121.466 84.7098C121.437 84.698 121.408 84.6767 121.379 84.6483C121.337 84.6104 121.3 84.5583 121.273 84.4897C121.25 84.4424 121.231 84.3879 121.217 84.3264C121.204 84.2814 121.192 84.2294 121.184 84.1749C121.173 84.0992 121.163 84.014 121.157 83.917C121.152 83.8483 121.148 83.775 121.146 83.6921V83.4673C121.146 83.3916 121.146 83.3017 121.142 83.2023C121.14 83.1407 121.132 82.8804 121.119 82.4165C121.105 82.8875 121.096 83.1502 121.096 83.2023C121.094 83.3017 121.092 83.3892 121.09 83.4673V83.5241C121.088 83.5431 121.086 83.562 121.086 83.5809V83.6945C121.086 83.7726 121.09 83.8483 121.098 83.9217C121.107 84.0164 121.121 84.1039 121.138 84.1844C121.148 84.2412 121.163 84.2933 121.177 84.3406C121.198 84.4021 121.221 84.4566 121.248 84.5039C121.263 84.537 121.279 84.5654 121.298 84.5867C121.321 84.6175 121.344 84.6435 121.371 84.6625C121.4 84.6885 121.429 84.7051 121.46 84.7145L121.462 84.7193Z" fill="#FC4114"/>
<path d="M123.832 83.4082C124.195 83.4366 124.378 83.6615 124.378 84.0803C124.378 84.3146 124.316 84.4969 124.187 84.6341C124.06 84.769 123.861 84.8377 123.59 84.8377H123.47C123.223 84.84 122.975 84.8448 122.73 84.8519H122.718C122.697 84.8258 122.688 84.788 122.688 84.7335V84.7217C122.688 84.6673 122.699 84.6294 122.718 84.6081H122.747C122.799 84.6034 122.838 84.5892 122.865 84.5679C122.892 84.5466 122.911 84.5087 122.921 84.4519C122.932 84.3951 122.936 84.3123 122.936 84.1963V83.5928C122.834 83.536 122.782 83.4958 122.782 83.4721C122.782 83.4485 122.834 83.4177 122.936 83.3846V82.8308C122.936 82.7266 122.932 82.6485 122.921 82.5988C122.911 82.5491 122.892 82.5113 122.867 82.4876C122.84 82.4639 122.801 82.4497 122.747 82.4426V82.4379L122.718 82.4426C122.697 82.419 122.688 82.3811 122.688 82.329V82.3172C122.688 82.2651 122.699 82.2249 122.718 82.2036H122.73C122.882 82.2083 123.046 82.2107 123.225 82.2107H123.287L123.557 82.206C123.8 82.206 123.977 82.2509 124.089 82.3432C124.202 82.4355 124.258 82.5846 124.258 82.7905C124.258 82.9538 124.22 83.0887 124.143 83.2C124.069 83.3112 123.963 83.3798 123.829 83.4059L123.832 83.4082ZM123.137 84.6152C123.158 84.0306 123.167 83.6686 123.167 83.5313C123.167 83.394 123.156 83.0319 123.137 82.4497C123.117 83.0319 123.108 83.3917 123.108 83.5313C123.108 83.6709 123.119 84.0306 123.137 84.6152ZM123.364 82.5302V83.2331C123.376 83.3159 123.422 83.3585 123.497 83.3585C123.603 83.3514 123.682 83.3112 123.734 83.2402C123.792 83.1574 123.821 83.0438 123.821 82.9018C123.821 82.7527 123.788 82.6391 123.723 82.561C123.657 82.4829 123.58 82.445 123.489 82.445C123.487 82.445 123.482 82.445 123.476 82.4497C123.414 82.4497 123.376 82.4758 123.366 82.5302H123.364ZM123.588 84.6057C123.686 84.6057 123.763 84.5631 123.819 84.4803C123.875 84.3975 123.902 84.2815 123.902 84.13C123.902 83.936 123.861 83.7987 123.775 83.7206C123.701 83.6496 123.597 83.6118 123.466 83.6023C123.43 83.6023 123.406 83.6094 123.389 83.626C123.372 83.6402 123.366 83.6733 123.366 83.7253V84.22C123.366 84.3288 123.374 84.4117 123.389 84.4661C123.403 84.5229 123.428 84.5584 123.46 84.5773C123.493 84.5963 123.534 84.6057 123.588 84.6057ZM123.767 82.3598C123.746 82.3551 123.728 82.3527 123.711 82.3551C123.728 82.3551 123.746 82.3598 123.767 82.3669C123.784 82.374 123.802 82.3835 123.817 82.3906C123.832 82.3977 123.846 82.4095 123.861 82.419C123.863 82.4213 123.867 82.4261 123.871 82.4308C123.875 82.4332 123.879 82.4355 123.879 82.4355C123.879 82.4355 123.881 82.4379 123.884 82.4403C123.888 82.445 123.892 82.4497 123.894 82.4521C123.929 82.4923 123.958 82.5397 123.977 82.5965C123.987 82.6343 123.998 82.6793 124.004 82.729C124.004 82.7337 124.004 82.7527 124.008 82.7858V82.8426C124.01 82.8828 124.008 82.9231 124.004 82.9609C123.998 83.0059 123.987 83.0485 123.975 83.0911C123.954 83.1479 123.927 83.1952 123.892 83.2355C123.871 83.2615 123.848 83.2828 123.819 83.3041C123.784 83.3301 123.748 83.3467 123.715 83.3562C123.751 83.3514 123.788 83.3396 123.825 83.3183C123.857 83.2994 123.886 83.2804 123.913 83.2568C123.935 83.2355 123.956 83.2142 123.975 83.1881C123.987 83.1668 124.002 83.1432 124.014 83.1124C124.035 83.0698 124.05 83.0225 124.06 82.9728C124.066 82.9302 124.071 82.8876 124.071 82.8426C124.071 82.8331 124.071 82.8118 124.066 82.7811C124.064 82.7503 124.062 82.729 124.06 82.7172C124.052 82.6675 124.037 82.6178 124.017 82.5728C123.99 82.5136 123.954 82.4663 123.911 82.4284L123.89 82.4142C123.879 82.4071 123.871 82.4024 123.869 82.4C123.857 82.3929 123.84 82.3858 123.823 82.3764C123.805 82.3693 123.786 82.3622 123.767 82.3574V82.3598ZM124.164 84.1324C124.166 84.0851 124.164 84.0377 124.158 83.9951C124.152 83.9383 124.139 83.8863 124.125 83.839C124.114 83.8106 124.1 83.7821 124.085 83.7561C124.066 83.7254 124.046 83.6969 124.021 83.6733C124.012 83.6638 123.998 83.6496 123.981 83.6354C123.965 83.6236 123.95 83.6118 123.935 83.6023C123.917 83.5928 123.898 83.5834 123.879 83.5763C123.857 83.5692 123.838 83.5644 123.819 83.5621C123.838 83.5668 123.857 83.5739 123.875 83.5857C123.892 83.5952 123.911 83.607 123.925 83.6189C123.942 83.6307 123.954 83.6449 123.969 83.6567C123.985 83.6709 123.996 83.6851 124.002 83.6993C124.023 83.7254 124.039 83.7514 124.052 83.7822C124.064 83.8106 124.075 83.8366 124.081 83.8626C124.091 83.9029 124.1 83.9525 124.102 84.007C124.104 84.0425 124.106 84.0851 124.106 84.1324C124.104 84.1726 124.1 84.2152 124.093 84.2578C124.085 84.3123 124.073 84.3572 124.06 84.3975C124.037 84.459 124.008 84.5111 123.973 84.556C123.965 84.5679 123.952 84.5821 123.935 84.5986C123.923 84.6105 123.908 84.6223 123.892 84.6318C123.875 84.6436 123.859 84.6554 123.842 84.6649C123.832 84.6696 123.821 84.6744 123.813 84.6767C123.802 84.6815 123.792 84.6838 123.784 84.6838C123.792 84.6862 123.805 84.6862 123.817 84.6838C123.823 84.6815 123.834 84.6767 123.846 84.672C123.863 84.6649 123.881 84.6554 123.9 84.646C123.917 84.6365 123.935 84.6247 123.95 84.6128C123.967 84.601 123.979 84.5892 123.99 84.5797C124.033 84.5347 124.071 84.4803 124.1 84.4211C124.12 84.3762 124.137 84.3241 124.15 84.2697C124.158 84.2247 124.164 84.1797 124.166 84.1371L124.164 84.1324Z" fill="#FC4114"/>
<path fill-rule="evenodd" clip-rule="evenodd" d="M115.801 88.9598C115.699 89.284 115.628 89.6745 115.557 89.9704C115.72 89.8355 116.056 89.5799 116.295 89.3953C116.522 89.568 116.823 89.8213 117.033 89.9633C116.942 89.6414 116.861 89.2604 116.798 88.9669C117 88.7634 117.201 88.5622 117.44 88.3185C117.224 88.3185 116.856 88.3185 116.597 88.3185L116.283 87.3789C116.185 87.6913 116.106 88.0179 115.994 88.3208C115.676 88.3208 115.36 88.3161 115.042 88.3208C115.341 88.5835 115.547 88.7539 115.803 88.9645" fill="#F9981C"/>
<path fill-rule="evenodd" clip-rule="evenodd" d="M112.421 88.9813C112.319 89.3055 112.249 89.696 112.178 89.9918C112.34 89.8569 112.677 89.6037 112.916 89.4168C113.142 89.5895 113.444 89.8427 113.654 89.9847C113.562 89.6629 113.481 89.2819 113.419 88.9884C113.62 88.7849 113.822 88.5837 114.061 88.3399C113.845 88.3399 113.477 88.3399 113.217 88.3399L112.903 87.4004C112.806 87.7128 112.727 88.0394 112.614 88.3423C112.296 88.3423 111.981 88.3376 111.663 88.3399C111.962 88.6026 112.168 88.773 112.423 88.9837" fill="#F9981C"/>
<path fill-rule="evenodd" clip-rule="evenodd" d="M119.201 88.9598C119.099 89.284 119.028 89.6745 118.958 89.9704C119.12 89.8355 119.457 89.5799 119.696 89.3953C119.922 89.568 120.224 89.8213 120.433 89.9633C120.342 89.6414 120.261 89.2604 120.199 88.9669C120.4 88.7634 120.602 88.5622 120.841 88.3185C120.625 88.3185 120.257 88.3185 119.997 88.3185L119.683 87.3789C119.585 87.6913 119.506 88.0179 119.394 88.3208C119.076 88.3208 118.76 88.3161 118.442 88.3208C118.742 88.5835 118.947 88.7539 119.203 88.9645" fill="#F9981C"/>
<path fill-rule="evenodd" clip-rule="evenodd" d="M109.21 85.9423C111.534 85.8477 113.832 85.8169 116.15 85.8169C116.921 85.8169 122.786 85.895 122.798 85.9423C120.554 86.0441 118.382 86.0654 116.156 86.0678C113.866 86.0512 111.131 86.037 109.212 85.9447" fill="#FC4114"/>
<path d="M138.12 61.8008L140.402 59.6851" stroke="#F9981C" stroke-width="1.44" stroke-miterlimit="10" stroke-linecap="round"/>
<path d="M134.462 61.8005L138.82 56.9561" stroke="#F9981C" stroke-width="1.44" stroke-miterlimit="10" stroke-linecap="round"/>
<path d="M131.494 61.8005L137.066 54.4214" stroke="#F9981C" stroke-width="1.44" stroke-miterlimit="10" stroke-linecap="round"/>
<path d="M129.004 61.8009L135.152 52.1001" stroke="#F9981C" stroke-width="1.44" stroke-miterlimit="10" stroke-linecap="round"/>
<path d="M126.853 61.8007L133.092 50.0078" stroke="#F9981C" stroke-width="1.44" stroke-miterlimit="10" stroke-linecap="round"/>
<path d="M124.952 61.8009L130.902 48.1597" stroke="#F9981C" stroke-width="1.44" stroke-miterlimit="10" stroke-linecap="round"/>
<path d="M123.235 61.8005L128.597 46.5713" stroke="#F9981C" stroke-width="1.44" stroke-miterlimit="10" stroke-linecap="round"/>
<path d="M121.651 61.8004L126.199 45.2554" stroke="#F9981C" stroke-width="1.44" stroke-miterlimit="10" stroke-linecap="round"/>
<path d="M120.165 61.8005L123.721 44.2236" stroke="#F9981C" stroke-width="1.44" stroke-miterlimit="10" stroke-linecap="round"/>
<path d="M118.746 61.8004L121.188 43.478" stroke="#F9981C" stroke-width="1.44" stroke-miterlimit="10" stroke-linecap="round"/>
<path d="M117.372 61.8004L118.613 43.0308" stroke="#F9981C" stroke-width="1.44" stroke-miterlimit="10" stroke-linecap="round"/>
<path d="M116.017 61.8005V42.8794" stroke="#F9981C" stroke-width="1.44" stroke-miterlimit="10" stroke-linecap="round"/>
<path d="M114.664 61.8004L113.423 43.0308" stroke="#F9981C" stroke-width="1.44" stroke-miterlimit="10" stroke-linecap="round"/>
<path d="M113.303 61.8385L110.863 43.5161" stroke="#F9981C" stroke-width="1.44" stroke-miterlimit="10" stroke-linecap="round"/>
<path d="M111.87 61.8005L108.312 44.2236" stroke="#F9981C" stroke-width="1.44" stroke-miterlimit="10" stroke-linecap="round"/>
<path d="M110.385 61.8004L105.837 45.2554" stroke="#F9981C" stroke-width="1.44" stroke-miterlimit="10" stroke-linecap="round"/>
<path d="M108.801 61.8005L103.437 46.5713" stroke="#F9981C" stroke-width="1.44" stroke-miterlimit="10" stroke-linecap="round"/>
<path d="M107.082 61.8009L101.134 48.1597" stroke="#F9981C" stroke-width="1.44" stroke-miterlimit="10" stroke-linecap="round"/>
<path d="M105.18 61.8007L98.9431 50.0078" stroke="#F9981C" stroke-width="1.44" stroke-miterlimit="10" stroke-linecap="round"/>
<path d="M103.031 61.8009L96.8835 52.1001" stroke="#F9981C" stroke-width="1.44" stroke-miterlimit="10" stroke-linecap="round"/>
<path d="M100.541 61.8005L94.9692 54.4214" stroke="#F9981C" stroke-width="1.44" stroke-miterlimit="10" stroke-linecap="round"/>
<path d="M97.5735 61.8005L93.2131 56.9561" stroke="#F9981C" stroke-width="1.44" stroke-miterlimit="10" stroke-linecap="round"/>
<path d="M93.9156 61.8008L91.6335 59.6851" stroke="#F9981C" stroke-width="1.44" stroke-miterlimit="10" stroke-linecap="round"/>
<path d="M97.7897 67.8686H99.1219C99.5148 67.8686 99.7849 68.0342 99.9346 68.3656C99.9761 68.4886 99.9969 68.5999 99.9969 68.6969V71.1866C99.9969 71.3357 99.7122 71.6055 99.1427 71.9936L99.1219 72.0883C99.1219 72.1522 99.3589 72.3415 99.8307 72.6563C100.08 72.8527 100.205 73.0112 100.205 73.1296V76.0216C100.205 76.4405 100.032 76.7339 99.6852 76.8996C99.5667 76.9162 99.469 76.9233 99.3942 76.9233H97.7502C97.4593 76.9233 97.2223 76.8688 97.0415 76.7576H96.9792C96.7734 76.8688 96.6279 76.9233 96.5427 76.9233H96.4388C96.3307 76.9233 96.2621 76.883 96.231 76.8049V76.6866C96.2995 76.3742 96.3349 76.1376 96.3349 75.9743V68.7916C96.3349 68.6212 96.2995 68.3916 96.231 68.1029V68.0792C96.231 67.9845 96.2725 67.9206 96.3557 67.8899C96.5926 67.8899 96.8067 67.9372 97.002 68.0319C97.2244 67.9206 97.4884 67.8662 97.7939 67.8662L97.7897 67.8686ZM97.665 69.4329C97.6796 69.6932 97.6858 69.892 97.6858 70.0246V70.0482C97.6858 70.2139 97.6796 70.3488 97.665 70.4506C97.6796 70.5642 97.6858 70.7085 97.6858 70.8766V71.2552C97.6858 71.2789 97.7066 71.3025 97.7482 71.3262C97.7939 71.3262 97.9664 71.1913 98.2677 70.9239C98.5171 70.7772 98.6418 70.6423 98.6418 70.5216V69.5015C98.6418 69.414 98.6065 69.3524 98.5379 69.3122H97.8292C97.7627 69.3122 97.7087 69.3524 97.6629 69.4305L97.665 69.4329ZM97.6858 73.0609C97.7004 73.1958 97.7066 73.2976 97.7066 73.3686C97.7066 73.4988 97.7004 73.5698 97.6858 73.5816C97.7004 73.7425 97.7066 73.8703 97.7066 73.9603V74.8383C97.7066 74.9637 97.7004 75.1317 97.6858 75.3353C97.6858 75.4299 97.7835 75.4773 97.9768 75.4773H98.3924L98.5171 75.4536C98.5421 75.4702 98.5753 75.4773 98.6211 75.4773H98.6626C98.7873 75.4583 98.8497 75.3873 98.8497 75.2643C98.8497 75.2335 98.8434 75.2169 98.8289 75.2169C98.8434 75.0323 98.8497 74.8974 98.8497 74.8146V74.0786C98.8497 73.7851 98.7603 73.6053 98.5795 73.5343C98.0765 73.1556 97.8063 72.9663 97.7669 72.9663H97.7461C97.7253 72.9663 97.7045 72.997 97.6837 73.0609H97.6858Z" fill="#FC4114"/>
<path d="M102.246 67.8213H102.287C102.345 67.8213 102.541 67.8852 102.871 68.0106C103.191 67.8852 103.405 67.8213 103.518 67.8213H104.974C105.515 67.8734 105.787 68.0627 105.787 68.3893C105.829 68.4958 105.849 68.6307 105.849 68.7916V72.1593C105.849 72.3534 105.662 72.5261 105.286 72.68C105.189 72.7628 105.141 72.8338 105.141 72.893C105.307 73.5532 105.494 74.2396 105.704 74.9567C105.933 75.8489 106.149 76.4429 106.35 76.734C106.35 76.8405 106.288 76.9044 106.163 76.9233C106.022 76.9233 105.812 76.8594 105.538 76.734H105.517L105.06 76.8996H104.997C104.831 76.8996 104.748 76.7979 104.748 76.592C104.748 76.2275 104.65 75.7708 104.457 75.217C104.235 74.3366 104.095 73.8467 104.041 73.7473C104.041 73.7165 104.027 73.7 104 73.7H103.917C103.653 73.8585 103.522 74.0076 103.522 74.1496C103.536 74.4431 103.542 74.6561 103.542 74.7886V76.14C103.542 76.2417 103.584 76.4334 103.667 76.708C103.657 76.8334 103.601 76.8973 103.501 76.8973H103.335C103.303 76.8973 103.137 76.8334 102.836 76.708C102.62 76.8334 102.453 76.8973 102.337 76.8973H102.254C102.177 76.8973 102.123 76.8571 102.088 76.779V76.7316C102.156 76.6299 102.192 76.1163 102.192 75.1909V74.623C102.192 74.0928 102.185 73.3663 102.171 72.4409C102.185 72.3581 102.192 72.28 102.192 72.2043C102.177 72.093 102.171 71.9984 102.171 71.9203C102.171 71.8422 102.177 71.7239 102.192 71.5653C102.192 71.4777 102.185 71.3689 102.171 71.234C102.185 70.7086 102.192 70.2494 102.192 69.8589C102.192 69.7122 102.185 69.5063 102.171 69.2436L102.192 69.1253C102.177 68.9762 102.171 68.8247 102.171 68.6756V68.6283C102.171 68.5739 102.177 68.5029 102.192 68.4153L102.088 68.0603V68.013C102.088 67.8876 102.144 67.8237 102.254 67.8237L102.246 67.8213ZM103.515 69.4566C103.515 69.5915 103.522 69.7335 103.536 69.8826C103.522 70.1169 103.515 70.2731 103.515 70.3559C103.53 70.5784 103.536 70.7204 103.536 70.7819L103.515 70.9476C103.515 70.9594 103.522 71.0068 103.536 71.0896L103.515 71.4683C103.53 71.6647 103.536 71.7688 103.536 71.7759C103.522 71.8635 103.515 71.9487 103.515 72.0362C103.54 72.1143 103.574 72.1546 103.619 72.1546C104.203 71.7546 104.494 71.4943 104.494 71.3712V70.1855L104.515 70.0435C104.501 70.0199 104.494 69.9726 104.494 69.9016C104.494 69.8116 104.501 69.6838 104.515 69.5229C104.515 69.3643 104.453 69.2862 104.328 69.2862C104.314 69.2862 104.293 69.2933 104.266 69.3099C104.189 69.2933 104.127 69.2862 104.079 69.2862C104.016 69.2862 103.927 69.2933 103.809 69.3099C103.752 69.2933 103.705 69.2862 103.663 69.2862C103.565 69.317 103.518 69.3738 103.518 69.4519L103.515 69.4566Z" fill="#FC4114"/>
<path d="M108.95 67.8211H110.784C111.187 67.8211 111.451 67.9868 111.575 68.3181C111.632 68.4128 111.659 68.5477 111.659 68.7205V68.7441C111.659 72.5071 111.652 74.7104 111.638 75.3588C111.652 75.4819 111.659 75.6168 111.659 75.7612L111.638 75.8795C111.652 75.9671 111.659 76.0381 111.659 76.0925C111.55 76.535 111.44 76.7575 111.326 76.7575C111.326 76.8238 111.154 76.8806 110.806 76.9232C110.663 76.9066 110.553 76.8995 110.474 76.8995H110.141C109.915 76.8995 109.749 76.9066 109.643 76.9232C109.534 76.9066 109.368 76.8995 109.144 76.8995H108.645C108.215 76.7977 107.999 76.5587 107.999 76.1872C107.999 75.8984 107.992 75.7257 107.978 75.6665C107.992 75.4109 107.999 75.1577 107.999 74.9068L107.978 68.7654C107.978 68.3465 108.15 68.046 108.497 67.8637C108.616 67.833 108.768 67.8164 108.955 67.8164L108.95 67.8211ZM109.345 69.5038V69.8351C109.331 72.8739 109.325 74.5495 109.325 74.8618C109.325 74.8689 109.331 74.9021 109.345 74.9565C109.331 74.9849 109.325 75.0228 109.325 75.0748V75.3352C109.325 75.4014 109.408 75.4417 109.574 75.4535C110.06 75.4535 110.303 75.4133 110.303 75.3352L110.283 70.0718C110.283 69.9132 110.276 69.6766 110.262 69.3594L110.2 69.3121H109.659C109.611 69.3121 109.549 69.305 109.472 69.2884C109.389 69.2884 109.347 69.3594 109.347 69.5014L109.345 69.5038Z" fill="#FC4114"/>
<path d="M113.936 67.8212H113.957L114.583 68.0105C114.832 67.8851 115.007 67.8212 115.102 67.8212C115.296 67.8212 115.393 68.0034 115.393 68.3655C115.393 68.543 115.497 68.9548 115.705 69.5985C115.705 69.6506 115.753 69.8328 115.851 70.1429C116.142 71.2055 116.337 71.8847 116.433 72.1829H116.453C116.453 72.1829 116.48 72.1663 116.516 72.1356C116.501 71.8989 116.495 71.7238 116.495 71.6149V68.6519C116.495 68.5738 116.474 68.3584 116.433 68.0105C116.433 67.8851 116.489 67.8212 116.599 67.8212C116.651 67.8212 116.852 67.8851 117.202 68.0105C117.299 67.9466 117.501 67.8851 117.806 67.8212C117.864 67.8401 117.906 67.8804 117.931 67.9395V68.0342C117.931 68.1005 117.896 68.188 117.827 68.2945C117.842 68.5549 117.848 68.7537 117.848 68.8862V76.2606L117.952 76.7102V76.7339C117.952 76.8593 117.883 76.9232 117.744 76.9232H117.723C117.65 76.9232 117.47 76.8688 117.183 76.7576H117.141C116.846 76.8688 116.638 76.9232 116.516 76.9232C116.405 76.883 116.349 76.8357 116.349 76.7812L116.37 76.5446C116.37 76.3624 116.302 76.031 116.162 75.5482C115.996 74.9566 115.892 74.5519 115.851 74.3389C115.782 74.178 115.628 73.6478 115.393 72.7509C115.335 72.5781 115.294 72.4811 115.269 72.4669H115.206C115.206 72.4835 115.2 72.5071 115.185 72.5379C115.185 72.6491 115.192 72.7107 115.206 72.7272C115.192 73.2455 115.185 73.6478 115.185 73.9366V75.9032C115.185 76.0618 115.221 76.3387 115.289 76.7339V76.8049C115.254 76.883 115.2 76.9232 115.123 76.9232H115.04C114.951 76.9232 114.797 76.8451 114.583 76.6866H114.52C114.468 76.6866 114.365 76.7576 114.209 76.8996C114.132 76.9161 114.069 76.9232 114.022 76.9232H113.938C113.828 76.9232 113.772 76.8593 113.772 76.7339C113.855 76.4996 113.897 76.2724 113.897 76.0452V68.5052L113.772 68.0082C113.783 67.8828 113.839 67.8188 113.938 67.8188L113.936 67.8212Z" fill="#FC4114"/>
<path d="M120.922 67.8687H122.817C123.222 67.8687 123.486 67.9941 123.609 68.2473C123.678 68.4887 123.713 68.7017 123.713 68.8887V69.504C123.713 69.6815 123.748 69.9513 123.817 70.311C123.817 70.3938 123.748 70.4412 123.609 70.453H123.505C123.405 70.453 123.266 70.4057 123.089 70.311C123.075 70.311 123.054 70.3039 123.027 70.2873C122.773 70.3986 122.628 70.453 122.591 70.453H122.549C122.424 70.4341 122.362 70.3631 122.362 70.24V69.6484C122.362 69.4425 122.306 69.3407 122.196 69.3407H121.549C121.46 69.3407 121.404 69.4117 121.383 69.5537C121.398 69.7904 121.404 69.9655 121.404 70.0743V74.9591C121.404 74.9756 121.398 74.9827 121.383 74.9827L121.404 75.0301V75.1247C121.404 75.1602 121.398 75.191 121.383 75.2194C121.393 75.4087 121.456 75.5034 121.57 75.5034H122.173C122.298 75.5034 122.36 75.4087 122.36 75.2194V74.3177C122.36 74.1449 122.422 74.0574 122.547 74.0574H122.588C122.624 74.0574 122.749 74.1047 122.963 74.1994H123.067C123.279 74.1047 123.451 74.0574 123.586 74.0574C123.694 74.0574 123.763 74.0976 123.794 74.1757V74.1994C123.738 74.5828 123.711 74.8265 123.711 74.9354V75.9081C123.711 76.4382 123.538 76.7695 123.191 76.9044C123.139 76.921 123.083 76.9281 123.025 76.9281H120.651C120.444 76.9281 120.257 76.7459 120.088 76.3838C120.057 76.3175 120.036 76.095 120.026 75.7211C120.026 75.6264 120.032 75.5791 120.047 75.5791C120.032 75.3661 120.026 75.2076 120.026 75.1058V70.3867C120.026 70.1501 120.032 69.8732 120.047 69.5561C120.032 69.5158 120.026 69.3904 120.026 69.1774C120.026 68.5171 120.13 68.1314 120.338 68.0154C120.338 67.9515 120.531 67.9042 120.92 67.8734L120.922 67.8687Z" fill="#FC4114"/>
<path d="M126.689 67.8211H128.522C128.926 67.8211 129.189 67.9868 129.314 68.3181C129.37 68.4128 129.397 68.5477 129.397 68.7205V68.7441C129.397 72.5071 129.391 74.7104 129.377 75.3588C129.391 75.4819 129.397 75.6168 129.397 75.7612L129.377 75.8795C129.391 75.9671 129.397 76.0381 129.397 76.0925C129.289 76.535 129.179 76.7575 129.065 76.7575C129.065 76.8238 128.892 76.8806 128.545 76.9232C128.404 76.9066 128.292 76.8995 128.213 76.8995H127.88C127.656 76.8995 127.487 76.9066 127.381 76.9232C127.273 76.9066 127.107 76.8995 126.883 76.8995H126.384C125.953 76.7977 125.737 76.5587 125.737 76.1872C125.737 75.8984 125.731 75.7257 125.717 75.6665C125.731 75.4109 125.737 75.1577 125.737 74.9068L125.717 68.7654C125.717 68.3465 125.889 68.046 126.236 67.8637C126.355 67.833 126.506 67.8164 126.693 67.8164L126.689 67.8211ZM127.086 69.5038V69.8351C127.072 72.8739 127.065 74.5495 127.065 74.8618C127.065 74.8689 127.072 74.9021 127.086 74.9565C127.072 74.9849 127.065 75.0228 127.065 75.0748V75.3352C127.065 75.4014 127.149 75.4417 127.315 75.4535C127.801 75.4535 128.044 75.4133 128.044 75.3352L128.024 70.0718C128.024 69.9132 128.017 69.6766 128.003 69.3594L127.94 69.3121H127.4C127.352 69.3121 127.288 69.305 127.213 69.2884C127.13 69.2884 127.088 69.3594 127.088 69.5014L127.086 69.5038Z" fill="#FC4114"/>
<path d="M131.561 67.7954V69.3101L130.231 70.8176V67.7978H131.561V67.7954Z" fill="#FC4114"/>
<path d="M132.997 67.8213C133.205 67.8379 133.359 67.845 133.454 67.845H134.974C135.348 67.9586 135.537 68.0793 135.537 68.1999C135.634 68.3254 135.682 68.6188 135.682 69.078C135.682 69.1537 135.676 69.3359 135.662 69.6223C135.73 69.9583 135.765 70.1784 135.765 70.2849C135.765 70.4104 135.703 70.4743 135.578 70.4743C135.217 70.3488 135.015 70.2849 134.974 70.2849C134.689 70.3962 134.529 70.4506 134.496 70.4506C134.371 70.4033 134.309 70.2849 134.309 70.0956C134.323 69.9465 134.329 69.8022 134.329 69.6696C134.329 69.6531 134.323 69.6294 134.309 69.5986L134.329 69.5513C134.329 69.4093 134.281 69.3383 134.184 69.3383H133.768C133.67 69.3383 133.623 69.3927 133.623 69.504C133.623 69.5797 133.629 69.6578 133.643 69.7406C133.629 70.0246 133.623 70.2139 133.623 70.3086C133.637 70.6612 133.643 70.8506 133.643 70.8766C133.629 70.9074 133.623 70.931 133.623 70.9476C133.623 71.0849 133.851 71.3073 134.311 71.6126C135.254 72.3557 135.726 72.7344 135.726 72.751C135.782 72.8527 135.809 73.0208 135.809 73.248V75.856C135.809 76.3269 135.705 76.6417 135.497 76.805C135.269 76.8996 135.136 76.947 135.102 76.947H132.999C132.573 76.947 132.295 76.734 132.166 76.308C132.139 76.1707 132.124 76.0595 132.124 75.9767C132.124 75.9459 132.13 75.9293 132.145 75.9293L132.124 75.7637V74.6727C132.124 74.6017 132.097 74.4502 132.041 74.223V74.1757C132.093 74.081 132.155 74.0337 132.228 74.0337C132.301 74.0337 132.507 74.0976 132.833 74.223C133.061 74.1283 133.236 74.081 133.352 74.081H133.373C133.456 74.1354 133.498 74.2064 133.498 74.294V74.7437C133.498 74.9022 133.492 75.0915 133.477 75.3116C133.504 75.4063 133.56 75.4536 133.643 75.4536H134.248C134.387 75.4536 134.456 75.3755 134.456 75.217V73.7236C134.456 73.5343 134.261 73.3213 133.872 73.0847C133.012 72.4054 132.498 71.9865 132.332 71.828C132.29 71.7262 132.27 71.6457 132.27 71.5913V69.22C132.27 69.1324 132.263 69.0235 132.249 68.8886C132.249 68.3396 132.465 67.9988 132.895 67.8686C132.964 67.8521 132.999 67.8379 132.999 67.8213H132.997Z" fill="#FC4114"/>
<path fill-rule="evenodd" clip-rule="evenodd" d="M104.698 55.4699C104.7 55.8131 103.975 58.4732 104.108 58.956C104.191 59.2565 103.979 59.3228 103.707 59.6257C103.628 59.7133 103.642 59.957 103.559 60.0943C103.453 60.2718 103.247 60.3475 103.135 60.4493C102.624 60.9061 102.9 61.2824 102.921 61.5024C102.921 61.5024 102.998 62.6645 103.412 63.4336C103.875 64.2951 104.69 64.766 104.856 64.5341C105.195 64.0537 105.669 63.8359 105.685 63.7531C105.983 62.158 107.07 61.7462 107.07 61.7462C107.07 61.7462 106.878 60.5037 106.999 59.8884C107.119 59.2731 107.086 58.1324 107.629 57.6969C108.171 57.2615 108.653 56.426 109.32 56.0001C110.599 55.1836 112.13 52.0833 112.382 52.062C114.392 51.8845 119.313 51.0325 120.677 50.3509C120.677 50.3509 121.103 50.4361 121.423 50.2492C121.647 50.119 122.256 49.8729 122.859 49.5486C123.114 49.4114 123.646 48.8103 123.646 48.8103L124.436 48.4127C124.436 48.4127 124.823 48.3795 125.141 48.0482C125.369 47.8092 125.384 48.6683 125.076 48.7345C124.902 48.77 124.775 48.9925 124.584 49.0209C124.384 49.0517 124.183 49.0161 123.998 49.0114C123.796 49.0043 123.601 48.9665 123.476 49.2717C123.081 50.2444 122.751 51.0751 123.06 51.6384C123.104 51.7188 123.445 51.6668 123.524 51.6573C123.698 51.6384 123.861 51.4822 124.046 51.4845C124.046 51.4845 124.014 52.3744 124.162 52.5259C124.357 52.7246 125.147 52.4004 125.446 52.2206C125.685 52.0762 125.968 51.946 126.195 51.6147C126.673 50.9142 127.356 51.1082 127.751 50.0906C127.751 50.0906 127.435 47.6956 127.41 46.1596C127.404 45.7194 127.18 44.9266 126.348 44.5764C125.394 44.174 124.361 44.6497 124.361 44.6497C124.411 42.5174 125.029 42.2855 125.029 42.2855C126.907 42.3162 126.843 43.3741 127.311 43.58C128.83 44.245 130.019 42.6712 130.019 42.6712C130.019 42.6712 130.131 42.1742 130.01 41.7932C129.722 40.8797 129.285 40.1934 129.246 40.0703C129.219 39.9875 128.828 39.1994 128.855 38.9272C128.863 38.8539 128.62 38.3025 128.624 38.2315L129.021 38.3096C128.973 38.0658 128.99 38.0729 128.844 37.8149C128.763 37.6706 128.58 37.5996 128.62 37.5948C128.869 37.5593 129.227 37.3747 129.227 37.299L128.994 37.0008L128.358 36.7074L128.624 35.4885L128.352 35.5217L128.111 35.4199L127.996 35.0531L126.577 35.2519L125.527 34.807C124.952 34.6673 124.295 34.7549 123.526 34.7691C122.965 34.7786 122.358 34.788 121.917 34.5679C121.917 34.5679 121.88 34.9916 122.077 35.2732C122.077 35.2732 121.641 35.5075 121.531 35.5524C120.936 35.7938 120.749 35.3655 120.735 35.3915C120.51 35.7631 120.828 36.1039 120.708 36.0991C120.184 36.0802 119.756 36.6577 119.07 36.5204C119.07 36.5204 119.336 37.0505 119.585 37.1523C119.816 37.2446 119.06 37.1428 118.735 36.7381C118.719 36.7168 118.417 37.0008 118.64 37.2659C118.706 37.344 118.274 37.2304 118.212 37.3463C118.212 37.3463 118.234 36.8541 118.288 36.8328C118.519 36.7476 118.575 36.4731 118.519 36.1938C118.492 36.0565 119.122 36.2388 119.251 36.2104C119.745 36.0991 119.66 35.7867 119.394 35.1004C119.282 34.807 118.675 34.8922 118.525 34.6342C118.328 34.2934 118.322 33.8508 118.162 33.6378C117.887 33.2734 116.881 33.5455 116.603 33.4793C115.898 33.3112 115.973 33.4248 115.256 34.3691C115.121 34.5466 115.264 34.9111 115.123 35.1146C114.786 35.595 114.088 36.0352 113.855 36.7381C113.766 37.0032 114.626 36.6553 114.502 36.8872C114.433 37.0174 113.575 37.725 113.498 37.8433C112.906 38.7379 112.519 39.2467 111.661 39.1213C108.62 38.6787 112.053 44.2971 111.135 44.2687C109.967 44.2332 107.967 45.8827 107.001 46.6282C107.051 46.801 106.338 46.0792 105.226 46.3892C104.181 46.6803 103.513 47.1726 103.195 47.4542C101.84 48.4269 101.919 51.0136 101.842 51.1011C101.346 51.6715 100.24 52.3271 98.5711 52.6773C97.4135 52.9187 95.6448 53.0228 95.6116 53.0418C95.6116 53.0418 97.9123 55.3137 99.8971 55.4155C102.372 55.5433 103.613 54.5611 104.008 54.2511C104.278 54.0381 105.914 53.2287 106.361 52.5022C106.498 52.2774 106.17 53.4914 106.209 53.534C106.371 53.7092 104.694 54.999 104.696 55.4723" fill="white"/>
<path fill-rule="evenodd" clip-rule="evenodd" d="M117.303 35.678L116.732 35.7892C116.7 35.9454 116.678 36.2199 116.649 36.44C116.638 36.5252 116.513 36.5773 116.694 36.7098C116.755 36.7524 116.717 36.7406 116.817 36.6885C117.073 36.556 117.276 36.0211 117.303 35.678ZM118.045 36.2957C117.933 36.1466 117.908 35.9099 117.904 35.8223C117.9 35.7584 117.821 35.73 117.49 35.73C117.418 35.9643 117.374 36.1608 117.291 36.3383C117.149 36.6388 117.095 36.5773 117.052 36.8518C117.268 37.0624 117.476 37.2589 117.817 37.247C117.908 37.2305 117.923 37.1547 117.858 37.0506C117.81 36.9749 117.704 36.8849 117.627 36.795C117.681 36.7855 117.767 36.7666 117.812 36.7619C117.86 36.7548 117.958 36.7548 117.958 36.7548C118.002 36.7098 117.931 36.5773 117.945 36.5063C117.952 36.4755 118.147 36.4613 118.147 36.4282C118.147 36.3951 118.095 36.3288 118.045 36.2933V36.2957ZM118.993 39.2587L118.872 39.1664L116.811 39.7202C116.673 39.2516 116.563 38.7167 116.414 38.2245C116.204 37.5358 116.106 37.479 115.765 37.1263C116 37.1263 116.087 37.2257 116.235 37.2991C116.141 36.982 116.185 36.9583 115.894 36.9441C114.61 36.8826 114.502 38.3097 113.419 39.1853L113.498 39.4362L113.013 39.4977C113.013 39.4977 113.022 39.5237 113.022 39.5285C113.022 39.5308 113.028 39.5521 113.028 39.5569C113.028 39.5592 113.03 39.5782 113.028 39.5805L112.872 39.7107C112.872 39.7107 112.851 39.732 112.845 39.7367C112.839 39.7438 112.826 39.7604 112.822 39.7651C112.668 39.9403 112.429 39.7225 111.958 40.0539C111.692 40.2408 111.557 40.2929 111.22 40.371C111.392 40.8017 111.92 41.2395 112.244 41.4738C112.411 41.5945 112.378 41.5874 112.602 41.7271C112.764 41.6111 112.799 41.5401 112.935 41.365C112.693 41.2466 112.583 41.3579 112.375 41.0597C112.725 41.036 113.115 41.0668 113.383 40.8514C113.076 40.7165 112.932 40.8277 112.704 40.6408C113.078 40.3828 113.859 40.7378 114.576 39.8622C114.994 39.3533 114.344 38.2458 115.1 37.8056C115.377 39.0007 115.909 40.1272 116.538 40.752C117.291 40.6076 118.515 40.0822 119.226 39.7628C119.188 39.4646 119.213 39.3675 118.989 39.261L118.993 39.2587ZM116.91 37.4458C116.815 37.2541 116.565 36.8849 116.432 36.7974C116.241 37.1192 116.644 37.5926 116.738 37.6612C116.759 37.6399 116.782 37.5902 116.809 37.5571C116.809 37.5571 116.838 37.5026 116.912 37.4458H116.91ZM117.11 37.2068C117.11 37.2068 117.397 37.1027 116.856 37.0033C116.906 37.1192 116.898 37.1571 116.977 37.2257C117.027 37.2896 117.108 37.2068 117.108 37.2068H117.11ZM126.785 36.3809C126.88 36.2105 127.138 35.9265 127.288 35.8129C126.454 36.059 126.652 36.2057 126.467 36.3004C126.215 36.4306 126.18 36.1324 126.263 37.5523L127.163 36.9346C126.976 36.3051 126.941 36.7548 126.783 36.3809H126.785ZM125.86 38.5487L126.111 38.3688L126.024 37.6091C125.949 37.8647 125.874 38.2292 125.858 38.5463L125.86 38.5487ZM116.649 44.7019C116.742 43.9895 116.75 43.6109 115.896 43.0382C115.641 42.8678 114.04 41.5141 113.782 41.4549C113.516 41.391 113.236 41.7602 112.995 41.8904C112.521 42.1459 111.687 41.3626 111.415 41.1851C111.623 41.8691 112.097 42.1838 112.484 42.4654C113.485 43.1967 113.909 43.521 115.117 44.1528C115.497 44.3516 115.518 44.2475 115.94 44.3445C116.372 44.4439 116.32 44.5978 116.649 44.7043V44.7019ZM118.049 40.655C117.708 40.4254 117.058 40.991 116.599 41.0147C116.277 41.0289 115.842 40.326 115.701 40.0113C114.527 40.4254 114.595 40.3899 113.93 41.2372C114.238 41.5756 114.603 41.7815 114.89 42.0986C115.104 41.9661 115.248 41.7626 115.57 41.8454C115.828 41.9116 115.867 42.0158 116.1 42.172C116.376 41.9282 116.351 41.8596 116.769 41.9401C117.054 41.9188 118.041 40.6763 118.049 40.655ZM128.572 40.2172C128.742 40.0894 128.691 40.1935 128.595 39.8622C128.356 39.022 128.537 38.8303 128.273 38.312C127.558 36.911 127.959 37.957 127.35 37.1926C126.932 37.3417 126.625 37.6328 126.311 37.9121C126.357 38.5037 126.483 39.1474 126.654 39.7036C126.841 40.3165 127.078 40.5958 127.281 41.0881L127.601 40.8396C127.462 40.4917 127.294 40.0752 127.252 39.6657C127.468 39.8551 127.606 40.3994 127.747 40.7496L128.387 40.326C128.196 39.7841 128.057 39.7864 127.776 39.5545C128.121 39.5285 128.296 39.6397 128.202 39.119C128.154 38.8563 127.998 38.6457 127.895 38.5013C128.472 38.5132 128.254 39.7628 128.572 40.2195V40.2172ZM116.43 47.0401C116.497 47.0685 116.412 47.1868 116.836 46.9313C117.798 46.3538 118.581 45.9846 118.324 44.6759C118.157 43.8262 117.054 42.0039 116.511 42.0394C116.667 42.3637 117.889 43.3648 118.093 44.7256C118.243 45.7195 117.665 46.1029 116.967 46.5573C116.493 46.865 116.491 46.7538 116.43 47.0401ZM116.466 46.6828C117.309 46.3349 118.17 45.5515 117.864 44.4345C117.717 43.8901 117.399 43.5115 117.104 43.2015C116.823 42.9056 116.474 42.5932 116.183 42.3305C116.019 42.4205 115.828 42.5672 115.713 42.6997C116.017 43.0547 117.012 43.4239 116.838 44.4321C116.696 45.2533 116.428 45.1563 116.461 46.6851L116.466 46.6828ZM127.41 41.2892C127.56 41.6892 127.924 42.3613 128.246 42.4938C128.645 42.6571 128.518 42.9056 128.902 42.6358C128.971 42.5885 129.27 42.2501 129.287 42.2193C129.574 41.7294 128.851 40.5319 128.74 40.5035C128.686 40.6408 128.755 40.8277 128.832 40.9981C128.853 41.0455 128.875 41.0952 128.907 41.1354C128.915 41.1472 128.927 41.1614 128.938 41.1709C128.946 41.1804 128.963 41.1946 128.971 41.204L129.123 41.3105C128.819 41.675 129.04 41.5022 128.948 41.9566L128.699 41.9826C128.618 41.7981 128.585 41.7839 128.643 41.5377C128.686 41.3579 128.763 41.3484 128.79 41.1685C128.599 41.081 128.603 41.0668 128.516 41.3034C128.427 41.5448 128.516 41.7626 128.433 41.63C128.427 41.6206 128.422 41.6679 128.414 41.6868C128.329 41.4265 128.356 41.3579 128.481 41.1662C128.703 40.823 128.663 41.1567 128.51 40.6171L127.886 41.0052C127.984 41.3295 128.152 41.5803 128.31 41.8146C128.038 41.7602 127.87 41.4265 127.734 41.0881L127.408 41.2892H127.41ZM110.833 50.8882C111.016 50.4457 110.75 49.7239 110.891 49.3831C111.519 49.2813 111.974 49.6458 112.494 49.7499C112.735 49.9511 113.724 50.1641 114.067 50.1735C114.697 50.1901 115.323 50.1262 115.948 50.1049C116.8 49.9795 117.675 50.0055 118.575 49.7191C118.565 49.3902 117.23 47.2224 116.996 47.0046C115.954 47.4282 116.457 47.8661 116.495 48.2708C116.507 48.4033 116.457 48.7015 116.457 48.8624C116.823 49.1866 117.243 49.0636 117.27 49.6008L116.929 49.6836C116.331 49.5606 115.821 49.7191 115.447 49.4564C115.435 49.4493 115.42 49.4375 115.41 49.428C115.029 49.144 115.422 49.3428 114.541 49.2198C114.504 48.6352 114.684 48.5098 114.774 48.0767C113.404 48.5619 112.577 49.1677 111.866 46.6544C111.698 46.058 111.654 45.4332 111.609 45.2817C111.378 44.5031 108.57 46.2047 108.069 46.6283C107.319 47.2602 106.398 48.4388 106.463 49.7073C106.527 50.9687 107.822 52.8431 107.394 53.8323L106.556 55.373C106.095 56.0309 105.629 55.8298 105.712 56.8616C105.962 57.0273 106.483 57.2261 106.826 57.1977C107.398 55.4677 107.965 55.5694 108.896 54.3009C109.331 53.7093 110.785 51.5698 110.829 50.8906L110.833 50.8882ZM127.926 42.7329C127.984 42.4512 127.541 41.9424 127.35 41.7436C127.416 42.1412 127.539 42.6808 127.926 42.7329ZM114.996 46.7277C114.971 47.1253 115.027 47.5963 114.963 47.9489C114.878 48.4128 114.647 48.4293 114.693 48.9571C114.815 48.9666 114.963 48.9476 115.084 48.95C115.611 48.9618 114.957 49.0849 115.882 49.2529C116.287 49.3263 116.705 49.4375 117.164 49.3925C116.638 48.6778 115.027 49.5274 116.116 46.0603C116.262 45.5988 116.439 45.3101 116.522 44.8368C116.27 44.4605 115.738 44.3327 115.241 44.4889C115.098 45.0829 115.044 46.0225 114.998 46.7254L114.996 46.7277ZM106.573 47.5371C106.018 47.1088 103.509 47.007 102.911 49.4635C103.254 49.1819 103.659 48.1548 104.488 47.9749C104.395 48.1998 104.262 48.3631 104.135 48.5832C103.657 49.4044 103.553 49.5795 103.297 50.5427C102.771 52.5236 103.021 51.8657 102.079 53.0348C103.166 52.6372 103.343 51.0397 103.769 50.0221C104.124 49.1748 104.848 47.6909 106.209 47.646C105.552 48.1359 104.962 48.4388 104.65 49.1085C104.494 49.4446 104.338 49.7357 104.199 50.1215C103.655 51.6148 103.698 52.2917 102.74 52.9567C102.175 53.3495 101.281 53.7377 100.595 53.9862H101.061C100.595 54.2181 100.317 54.3033 99.7744 54.3814C100.678 54.921 102.358 54.3269 103.268 53.7306C104.532 52.9046 104.586 51.3663 105.06 50.8953L105.209 51.958C105.648 50.9356 105.577 48.7086 106.236 47.9205L106.571 47.5371H106.573ZM115.9 48.195C116.131 48.0104 116.127 47.8022 116.135 47.4637C115.888 47.5513 115.931 47.4803 115.884 47.7217C115.857 47.8613 115.877 48.0459 115.9 48.195ZM115.998 48.3962C115.998 48.4672 116.073 48.5879 116.106 48.621C116.293 48.8009 116.098 48.6542 116.306 48.7181L116.337 48.3181C116.189 48.2873 115.998 48.1903 115.998 48.3986V48.3962ZM106.427 57.4793C106.219 57.3231 105.899 57.2308 105.608 57.2805C105.434 57.6994 105.255 59.4767 105.324 60.0258C105.506 60.1465 105.748 60.2435 106.041 60.1346C105.571 59.8128 105.644 59.6779 105.667 58.9537C105.683 58.4543 105.764 57.9621 105.843 57.5408L106.429 57.4793H106.427ZM106.09 60.5843C105.816 60.5748 105.631 60.4731 105.386 60.5204C105.014 61.1618 105.403 60.8304 105.087 61.06C104.623 61.3937 104.898 60.9417 104.858 61.6469L104.511 61.9451C104.665 62.2575 104.956 62.5841 105.184 62.7308C105.369 62.2954 105.357 61.9735 105.627 61.6564C105.984 61.2375 106.201 61.3511 106.093 60.5867L106.09 60.5843ZM123.457 40.8325C123.825 40.9887 123.927 40.8703 124.251 40.5698L125.245 39.5072C125.376 39.3581 125.423 39.2729 125.488 39.1829L125.995 36.2957C124.746 36.5631 123.973 37.0743 123.008 37.7488L121.211 39.1285C121.001 39.2563 120.718 39.3344 120.572 39.5001C120.797 39.6728 121.098 39.8006 121.358 39.9142C121.63 39.7604 121.948 39.377 122.229 39.1593C122.911 38.6268 124.656 37.4245 125.394 37.3914C125.195 37.5618 124.638 37.8387 124.376 37.9949C124.041 38.1961 123.727 38.3972 123.42 38.6102C122.875 38.9889 122.085 39.5947 121.72 40.0704C122.335 40.3946 122.83 40.5698 123.455 40.8348L123.457 40.8325ZM123.532 47.4022C123.663 47.1869 124.943 46.2852 125.575 46.2852C125.866 46.2852 125.918 46.4035 126.045 46.555C126.078 46.5976 126.115 46.6425 126.151 46.6828L126.878 46.3846C126.872 45.9941 126.66 45.5894 126.456 45.348C126.207 45.0545 125.876 45.1326 125.477 45.1776C124.542 45.2841 123.95 45.6036 123.11 45.7669C123.227 45.2107 123.804 44.5173 123.468 43.2062C123.287 42.5057 122.965 42.0584 122.507 41.7034C122.424 41.6395 122.401 41.6135 122.302 41.533C122.27 41.5093 122.212 41.462 122.189 41.4431C122.098 41.3673 122.152 41.4265 122.069 41.3484L123.376 41.152C122.994 40.9579 121.803 40.3568 121.485 40.3402L121.242 40.7283L120.735 40.5934C120.859 40.3568 120.961 40.3781 121.119 40.1556L120.843 39.9758C120.481 39.7935 120.319 39.6444 120.022 39.7841C117.848 40.7993 118.002 41.3815 117.212 42.1554C117.555 42.7494 118.145 43.4784 118.419 44.4037C118.899 46.0296 117.866 46.2899 117.619 46.6496C117.785 47.0046 118.995 49.4375 119.145 49.5653C120.656 48.4317 119.049 47.8708 119.288 46.6047C119.463 46.7609 119.806 47.4661 120.049 47.7383C121.641 49.5156 122.867 47.7051 123.54 47.3998L123.532 47.4022ZM123.636 47.4069C123.636 47.4069 123.636 47.4069 123.638 47.4069C123.638 47.4069 123.638 47.4069 123.636 47.4069ZM124.646 41.6797C124.663 42.0631 124.064 42.7589 123.973 43.147C123.898 43.4618 124.031 43.8665 124.029 44.2025C124.029 44.5481 123.952 44.825 123.929 45.135C125.041 45.0711 126.174 44.5504 126.675 45.2533C127.298 46.1313 127.148 47.1088 127.219 48.2566C127.254 48.8411 127.389 49.3878 127.298 49.9274C127.192 50.5522 126.847 50.4078 126.425 50.7889C126.221 50.9711 126.18 51.1107 126.02 51.3024C125.694 51.6882 124.733 52.3201 124.415 52.3224C124.237 51.9556 124.28 51.5059 124.27 51.0776C123.867 51.1912 123.698 51.3426 123.297 51.3355C123.121 50.7037 123.484 50.1333 123.463 49.7286C123.613 49.5369 123.659 49.3736 123.775 49.1843C124.029 49.1795 124.253 49.2553 124.474 49.3144C124.758 49.3902 124.922 49.5085 125.049 49.1511C125.294 49.0446 125.459 48.7181 125.544 48.4246C125.646 48.0791 125.544 47.6602 125.477 47.2626L124.081 48.053L123.798 48.1998L123.227 48.4838L122.886 48.6778C122.659 48.8009 122.314 48.9737 122.177 49.1843L121.874 49.2979C120.928 49.5322 121.458 48.7914 120.454 49.473C119.995 49.783 119.458 49.9937 118.958 50.2138C117.777 50.4883 117.008 50.6208 115.869 50.751C115.595 50.6682 113.088 50.7817 112.423 50.8385L112.147 50.8598L111.586 50.9971L110.819 52.6585C110.744 52.8265 108.364 55.7635 107.969 56.1256C106.575 57.4059 106.805 57.9408 106.357 60.5654C106.267 61.0908 106.444 61.1665 106.082 61.538C105.787 61.841 105.708 61.8599 105.565 62.2622C105.432 62.6385 105.353 63.5615 104.521 63.7366C104.311 63.3651 104.253 63.0338 104.097 62.5865L103.692 62.7095C103.528 62.3285 103.37 61.8528 103.351 61.3582C103.328 60.7287 103.54 60.7074 104.006 60.6742C103.956 60.1796 103.917 60.1228 104.282 59.9287C104.613 59.7536 104.503 59.685 104.594 59.2353C104.862 57.9242 104.898 57.1716 105.137 55.9741C105.33 55.0109 105.265 55.2476 105.991 54.8003C106.255 54.637 106.687 53.8749 106.841 53.6288C107.541 52.4952 106.573 52.2633 106.292 50.2019C106.18 49.3807 106.336 49.1086 106.421 48.4672C105.427 49.1417 106.596 52.3319 104.476 53.501C104.686 53.1933 104.947 52.7318 105.033 52.2443C104.449 53.3921 102.825 54.7458 101.009 54.8239C99.8575 54.8736 98.6832 54.3885 97.6295 53.9412C97.2803 53.7921 97.0122 53.5152 96.7524 53.4087C96.9603 53.3969 97.3157 53.5531 97.5775 53.5957C98.2073 53.6998 99.9926 53.8915 100.452 53.3543C100.092 53.3235 99.7764 53.1342 99.5083 52.9709C100.529 52.7721 101.042 52.5425 101.763 51.8846C102.329 51.371 102.844 50.8244 102.873 49.9108C102.701 50.209 102.678 50.5546 102.501 50.8977C102.476 49.873 102.748 48.3015 103.665 47.672C104.066 47.3975 104.873 47.0165 105.371 46.9833C106.02 46.9384 106.454 47.1277 106.986 47.3194C107.13 47.1892 106.99 47.3265 107.111 47.1727L107.402 46.8058C107.882 46.2568 108.287 45.9846 108.909 45.613C109.867 45.0427 110.634 44.9433 111.685 44.6546L111.818 44.2759C111.904 45.0758 112.008 48.4885 113.392 48.3489C113.809 48.3063 114.512 48.1288 114.795 47.8684C114.899 47.4685 114.849 46.794 114.88 46.3349C114.911 45.8686 114.894 45.9799 114.805 45.6012C114.736 45.3101 114.834 45.2036 114.859 44.9196L114.435 46.1242C114.294 45.897 114.41 45.729 114.5 45.4332C114.616 45.0451 114.583 45.1634 114.429 44.8628C114.246 44.5078 114.024 43.9327 113.868 43.5612C113.296 43.7718 113.057 43.9635 112.417 43.7813C111.889 43.6322 111.461 43.4594 111.399 42.9482C111.85 42.8749 112.303 43.1944 112.935 43.1352L112.263 42.6571C112.026 42.4844 111.87 42.3755 111.627 42.153C111.451 41.9921 111.226 41.7294 111.164 41.3744C111.062 40.8041 111.309 41.4762 110.962 40.3615C110.97 40.3449 110.985 40.326 110.991 40.3165L111.218 40.0965C110.833 39.99 110.889 40.0278 111.068 39.5734C111.777 39.5569 112.203 40.1533 113.198 39.0551L114.585 37.3583C114.909 36.9015 115.331 36.6601 116.152 36.627C116.237 36.6246 115.954 36.3454 116.01 36.3406C115.875 36.0093 115.555 35.749 115.84 35.0058C115.911 34.8213 116.031 34.5964 116.137 34.4663C116.692 33.8036 116.376 34.0095 117.149 34.1042C117.341 34.1278 117.544 34.2154 117.7 34.3053C118.072 34.5207 118.187 34.8023 118.324 35.4224H118.299C118.187 35.1573 118.097 34.9206 117.947 34.6532C118.006 34.9088 118.099 35.1573 118.12 35.4176L117.334 35.4342C117.179 34.8757 117.127 34.8378 116.944 34.4237L117.206 35.4153L116.324 35.633C117.016 35.5147 117.594 35.3632 118.313 35.4224C118.475 35.4366 118.679 35.5762 118.8 35.6969C118.814 35.7111 118.822 35.7845 118.831 35.8389C118.71 35.8697 118.336 35.82 118.076 35.7821L118.149 36.1371L118.222 36.2247C118.249 36.2554 118.29 36.3099 118.311 36.3548C118.32 36.3738 118.342 36.485 118.326 36.5087C118.299 36.5441 118.178 36.5702 118.091 36.5986C118.091 36.5986 118.122 36.7903 118.128 36.84C118.128 36.84 118.099 36.8613 118.076 36.8589L118.091 36.9962C118.091 36.9962 118.018 37.0317 117.983 37.0151C117.983 37.0151 118.06 37.195 117.999 37.3133C117.981 37.3512 117.97 37.3606 117.939 37.3796C117.75 37.4695 117.472 37.2139 117.312 37.2163C117.312 37.2163 117.116 37.2494 117.097 37.337C117.085 37.5405 117.212 37.55 117.305 37.7369C117.307 37.7417 117.305 37.7488 117.305 37.7535C117.309 37.7914 117.27 37.8221 117.253 37.8221C117.043 37.8695 116.979 37.4955 116.888 37.5926C116.705 37.8505 116.68 38.7569 116.792 39.2397C117.145 39.2516 118.02 38.9368 118.355 38.7806C118.904 38.5274 118.61 38.1416 119.261 38.8185C120.602 38.4374 120.832 38.1913 120.924 37.9902C121.832 37.6707 121.379 37.7795 121.898 37.434C121.95 37.3985 121.795 37.1855 121.874 37.1429H122.156C122.406 37.0293 122.293 37.0009 122.551 36.9512C123.019 36.8589 122.678 36.5726 123.54 36.3146H123.721C124.286 36.0093 124.156 36.1466 124.764 35.9951C125.24 35.8768 125.276 35.6851 125.806 35.6377C126.891 35.9714 126.088 36.0235 126.718 35.7277C126.914 35.6377 127.117 35.607 127.348 35.4934C127.543 35.3987 127.714 35.2898 127.915 35.1975C127.899 35.4863 127.809 35.6874 127.728 35.8649C127.969 35.7632 128.032 35.6614 128.329 35.633C128.294 35.7963 127.838 36.5915 127.741 36.7145C127.853 36.8116 128.138 37.0127 128.333 37.1027C128.524 37.1902 128.817 37.2021 128.99 37.3062C128.634 37.4387 128.58 37.4056 128.242 37.3748C128.451 37.7843 128.643 37.7488 128.853 38.0683C128.616 38.0091 128.533 37.9263 128.316 37.8766C128.543 38.6362 128.547 38.5084 128.63 39.3675C128.715 40.255 129.514 41.4951 129.53 41.9803C129.541 42.2643 129.11 42.811 128.923 42.9317C128.649 43.1092 127.867 43.1257 127.622 43.0121C127.186 42.811 127.229 42.4228 126.808 42.2879C126.44 42.172 124.895 41.6419 124.654 41.6726L124.646 41.6797ZM125.27 40.4278C125.147 40.6455 125.157 40.7662 125.047 40.9626C124.922 41.1898 124.841 41.1685 124.875 41.4265L126.502 41.9424C126.639 41.7981 126.658 41.8028 126.741 41.5969C126.514 41.3555 126.336 41.3129 126.101 41.0384C125.889 40.7899 125.847 40.6431 125.646 40.4917C125.54 40.3615 125.484 40.3804 125.274 40.4278H125.27ZM125.712 39.4314L125.737 39.5521C125.797 40.3213 126.273 40.8467 126.785 40.939C126.573 40.0964 126.286 39.5095 126.138 38.5487C126.02 38.6765 125.939 38.7664 125.872 38.9344L125.712 39.4338V39.4314ZM127.003 49.4564C126.506 49.1062 126.589 48.8624 126.585 48.0601C126.581 47.3833 126.435 47.0591 126.803 46.6638C125.808 46.839 125.962 47.1845 125.974 48.1785C125.987 49.1582 126.379 49.2931 127.003 49.4588V49.4564ZM123.515 51.0776C123.784 50.919 123.567 51.106 123.684 50.2942C123.727 49.9889 123.781 49.8422 123.835 49.5748C123.601 49.8398 123.501 50.3084 123.449 50.7131C123.403 51.0634 123.474 51.016 123.517 51.0776H123.515ZM127.057 49.8706L125.953 49.7144C125.71 49.9913 125.662 50.2019 125.13 50.2942L125.28 51.584C125.802 51.345 125.868 51.0421 126.169 50.7107C126.481 50.3676 126.697 50.3534 126.868 50.1925C127.026 50.0434 127.032 49.9061 127.057 49.873V49.8706ZM124.644 50.5191C124.488 51.035 124.507 51.5272 124.546 52.1236C124.889 51.9083 124.7 51.8089 124.677 51.3048C124.667 51.0515 124.64 50.7226 124.642 50.5191H124.644ZM103.852 62.4539C103.856 62.3309 103.684 61.8717 103.601 61.7132C103.569 61.8457 103.549 62.4445 103.852 62.4539Z" fill="#FD3813"/>
<path fill-rule="evenodd" clip-rule="evenodd" d="M111.814 44.2783C111.823 44.1126 111.831 43.8452 111.758 43.5967C111.771 43.599 111.787 43.5967 111.796 43.6156L112.149 43.8783C112.301 43.9895 112.421 44.0771 112.631 44.115C113.167 44.2144 113.431 43.9611 113.893 43.8215L114.057 44.2925C113.56 44.6001 112.82 44.7208 112.284 44.5149C112.099 44.4439 111.993 44.328 111.814 44.2806" fill="#FD3813"/>
<path fill-rule="evenodd" clip-rule="evenodd" d="M108.2 47.4114C107.872 47.977 107.548 48.1852 107.421 49.0301C107.304 49.804 107.46 50.611 107.554 51.4228C107.061 50.63 106.619 48.9449 107.404 47.9462C107.568 47.7356 107.886 47.312 108.2 47.4114Z" fill="#FD3813"/>
<path fill-rule="evenodd" clip-rule="evenodd" d="M122.1 44.7067C122.046 43.5825 122.454 43.2086 121.791 42.2075C122.109 42.3117 122.458 42.7116 122.53 43.3127C122.605 43.9186 122.402 44.373 122.1 44.7067Z" fill="#FD3813"/>
<path fill-rule="evenodd" clip-rule="evenodd" d="M118.532 39.436L118.126 39.1852L118.083 39.1568L118.023 39.0361C117.933 38.932 117.788 38.8917 117.657 38.842L117.798 38.8065C118.197 38.7734 118.569 39.0337 118.754 38.7592C118.528 38.6527 118.382 38.4989 118.172 38.3687C117.906 38.203 117.858 38.1652 117.723 37.9403C117.696 37.8788 117.713 37.8764 117.725 37.8599C117.95 38.1249 118.316 38.0255 118.432 38.0516C118.706 38.1107 118.821 38.3237 119.155 38.1865C119.116 38.1415 118.754 38.0492 118.584 37.8551C118.517 37.7794 118.48 37.6989 118.372 37.6421C118.268 37.5877 118.137 37.5735 118.104 37.5546C118.074 37.5356 118.054 37.4954 118.054 37.4954C118.185 37.4954 118.21 37.4599 118.324 37.4197C118.532 37.3487 118.827 37.4197 119.028 37.4552C118.875 37.2871 118.604 37.1404 118.679 36.8777C118.708 36.9156 118.715 36.9156 118.727 36.9511C118.771 37.0694 118.835 37.1452 118.966 37.209C119.072 37.2611 119.216 37.3037 119.332 37.3226C119.702 37.3865 119.76 37.202 120.009 37.1026C120.44 36.8635 120.467 36.9487 120.616 36.8683C120.423 36.8115 120.404 36.8422 120.244 36.8896C120.161 36.9132 120.024 36.9771 119.897 36.9842C119.758 36.9842 119.357 36.9109 119.257 36.6742C119.829 36.8848 120.153 36.3571 120.546 36.2837C120.747 36.2458 121.024 36.3121 121.14 36.0612C120.949 35.9689 120.797 35.879 120.791 35.7086C120.789 35.6873 120.812 35.6139 120.816 35.6116L120.878 35.6802C120.93 35.7559 121.3 35.7252 121.414 35.7559C121.481 35.7204 121.462 35.737 121.531 35.7157C121.577 35.7015 121.583 35.7015 121.62 35.6826C122.025 35.4861 122 35.3986 122.551 35.4507C122.522 35.3868 122.397 35.3465 122.337 35.2992C122.225 35.2093 122.1 35.0057 122.181 34.8637C122.574 35.0815 123.104 35.0909 123.559 34.9134L123.784 34.8945C123.904 34.9134 123.85 34.717 123.262 34.5324C123.634 34.3383 124.278 34.5939 124.775 34.8992C125.041 35.0625 125.18 34.9418 125.467 35.0057C125.633 35.0436 125.798 35.1028 125.954 35.2022L126.891 35.808L126.413 36.0825C125.868 36.0115 124.769 36.2506 124.413 36.3784C123.836 36.5866 123.142 37.1168 122.607 37.4126C122.144 37.6682 121.78 37.8977 121.333 38.2385C120.887 38.5793 120.494 38.8184 120.12 39.2372C120.059 39.3035 119.997 39.3863 119.939 39.4573L119.671 39.6277C119.619 39.6798 119.654 39.6514 119.606 39.6774C119.6 39.552 119.827 39.4479 119.926 39.3248C119.845 39.3224 119.409 39.526 119.174 39.5946C119.174 39.5946 118.692 39.5212 118.536 39.4384L117.996 39.5212C117.885 39.5141 117.968 39.5307 117.962 39.4692L118.012 39.436C118.027 39.3366 118.104 39.3887 117.966 39.3319C118 39.2704 117.977 39.3059 118.014 39.2917L118.131 39.1875L118.536 39.4384L118.532 39.436ZM122.792 36.7121C122.811 36.6789 122.813 36.6908 122.776 36.6742C122.653 36.7073 122.551 36.7334 122.418 36.776C122.298 36.8162 122.173 36.8304 122.015 36.7996C121.739 36.7428 121.371 36.544 121.071 36.4446L120.71 36.5133C120.598 36.5393 120.388 36.6529 120.332 36.7499C120.369 36.731 120.492 36.6789 120.569 36.6553C120.612 36.6411 120.695 36.615 120.731 36.6079C121.051 36.544 121.527 36.9038 121.691 36.989C122.073 37.1878 122.21 37.0505 122.452 36.8872C122.543 36.8257 122.684 36.7547 122.788 36.7121H122.792ZM122.838 36.4423C122.647 36.4707 122.318 36.234 122.204 36.1322L121.805 35.976L121.635 35.9689C122.025 36.1441 122.163 36.4707 122.605 36.5322C122.734 36.5511 122.815 36.518 122.93 36.5275C122.981 36.4967 123.054 36.4991 122.84 36.4423H122.838ZM123.085 36.3003C122.788 36.1772 122.765 36.1796 122.582 35.9831C122.437 35.8719 122.397 35.8388 122.196 35.7891C122.277 35.9192 122.414 36.0163 122.47 36.0873C122.587 36.2293 122.882 36.3358 123.085 36.3003ZM123.601 36.2222C123.736 36.2056 123.825 36.1843 123.952 36.1204C124.237 35.9784 124.174 36.0139 124.449 35.9524C124.307 35.834 124.231 35.8624 124.068 35.8411C124.037 35.8695 123.599 36.0518 123.505 36.0589C123.304 36.0731 123.002 35.8743 122.88 35.7559C122.672 35.6518 122.489 35.5666 122.302 35.6968C122.429 35.7512 122.703 35.8317 122.792 35.9003C123.011 36.066 123.289 36.26 123.599 36.2222H123.601ZM123.892 35.7654L123.863 35.7157C123.755 35.6684 123.609 35.8601 123.196 35.7275C123.503 36.0991 123.701 35.7843 123.894 35.763L123.892 35.7654ZM125.505 35.6731L125.575 35.6139C125.365 35.5571 125.151 35.6826 124.939 35.7181C124.775 35.7465 124.613 35.7512 124.449 35.711C124.403 35.7015 124.334 35.6778 124.285 35.6873C124.459 35.9902 124.925 35.8388 125.128 35.7867C125.212 35.7583 125.261 35.7441 125.326 35.7204C125.349 35.711 125.397 35.6873 125.415 35.6826C125.448 35.6731 125.494 35.6684 125.505 35.6731ZM121.298 36.2411C121.329 36.3358 121.298 36.2577 121.506 36.3429C121.832 36.4754 121.853 36.5985 122.196 36.5843C122.248 36.5346 122.231 36.544 122.177 36.5393C122.023 36.5393 121.882 36.4281 121.755 36.3523C121.574 36.2435 121.437 36.2648 121.298 36.2435V36.2411ZM121.516 37.0529C121.36 36.9203 121.142 36.7878 120.922 36.731C120.741 36.6837 120.724 36.7263 120.724 36.7357L121.516 37.0529ZM119.928 38.7C119.891 38.7545 119.91 38.7403 119.841 38.7923C119.818 38.8089 119.816 38.8113 119.791 38.8231C119.405 39.0124 119.403 38.9272 119.028 38.7852C119.137 39.0834 119.718 39.0763 119.906 38.8349C119.995 38.7166 119.939 38.7142 119.928 38.7024V38.7ZM119.346 38.7095C120.078 38.674 120.215 38.1936 120.633 38.0918C120.722 38.0705 120.766 38.0894 120.839 38.0729C120.313 37.7936 120.057 38.4066 119.606 38.5557C119.282 38.6622 119.222 38.5154 118.991 38.5107C119.051 38.6172 119.203 38.6622 119.349 38.7071L119.346 38.7095ZM120.569 37.5143C120.471 37.5285 120.323 37.5356 120.001 37.7889C119.677 38.0421 119.475 38.0019 119.105 37.9522C119.068 37.9522 119.031 37.9474 118.995 37.9569C119.216 38.1699 119.642 38.1439 119.862 38.0397C120.097 37.9285 120.329 37.654 120.571 37.6232L120.936 37.6871C120.934 37.5285 120.697 37.4978 120.569 37.5167V37.5143ZM119.754 37.6374C120.051 37.5427 120.267 37.3439 120.554 37.2895C120.797 37.2422 120.961 37.3818 121.211 37.4481C121.556 37.538 121.516 37.4812 121.791 37.4197C121.793 37.3345 121.789 37.3747 121.664 37.3794C121.471 37.3842 121.227 37.2753 121.051 37.209C120.282 36.9156 120.192 37.3037 119.743 37.5404C119.558 37.6374 119.301 37.6895 119.085 37.6421C119.28 37.7463 119.536 37.7131 119.756 37.6421L119.754 37.6374ZM118.513 39.0763C118.561 39.1828 118.765 39.242 118.879 39.2562C118.997 39.2704 119.147 39.2491 119.222 39.1923C119.13 39.1804 119.016 39.1875 118.889 39.1686C118.756 39.1497 118.644 39.1165 118.513 39.0763ZM123.948 35.3844H123.952C123.784 35.3891 123.578 35.3844 123.393 35.3773C123.393 35.3773 123.391 35.3773 123.389 35.3773H123.393C123.289 35.3891 123.169 35.3844 123.013 35.3418C122.984 35.3347 122.954 35.3252 122.921 35.3134L122.909 35.3063C122.903 35.2945 122.925 35.2803 122.981 35.2684H122.996C123.206 35.2566 123.432 35.2803 123.638 35.3181C123.75 35.3394 123.856 35.3631 123.95 35.3868L123.948 35.3844ZM123.948 35.3844H123.952C124.278 35.3749 124.465 35.3347 124.091 35.2471C124.079 35.2448 124.064 35.24 124.05 35.2377C123.825 35.1903 123.792 35.1951 123.597 35.1927C123.277 35.2187 123.083 35.2424 122.986 35.2661C122.971 35.2708 122.988 35.2661 122.994 35.2661C122.938 35.2708 122.888 35.2732 122.832 35.2826C122.859 35.2921 122.886 35.3039 122.911 35.311C122.915 35.311 122.917 35.311 122.921 35.3134L122.909 35.3063C122.909 35.3063 122.909 35.3087 122.913 35.311C122.925 35.3229 122.961 35.3323 123.013 35.3418C123.102 35.356 123.237 35.3702 123.389 35.3773H123.395C123.484 35.3654 123.561 35.3418 123.636 35.3158C123.769 35.2708 123.898 35.2235 124.091 35.2471C124.177 35.2566 124.272 35.2826 124.389 35.3252C124.729 35.3583 125.488 34.9986 125.762 35.3962C125.403 35.3867 125.457 35.2708 124.798 35.4672C124.617 35.5216 124.511 35.5595 124.303 35.4861C124.303 35.4861 124.16 35.4364 123.95 35.382C123.95 35.382 123.95 35.382 123.948 35.382" fill="#FD3813"/>
<path fill-rule="evenodd" clip-rule="evenodd" d="M115.57 36.0375C114.88 36.312 114.73 36.5345 114.406 36.4493C114.491 36.0233 114.556 35.9334 114.948 35.7512C115.113 35.6754 115.316 35.6186 115.474 35.5689C115.609 35.0057 115.572 34.1963 116.042 33.936L116.158 33.8839C116.374 33.8697 116.528 33.8673 116.744 33.8555C116.844 33.8508 116.863 33.8555 116.956 33.8295C117.336 33.7253 117.781 33.6449 117.952 34.1702C118.037 34.4329 118.043 34.7879 118.17 35.0341C118.475 35.1193 118.694 35.1548 118.962 35.311C119.249 35.479 119.332 35.5618 119.259 35.957L117.941 35.7535C117.497 35.692 116.36 35.7275 115.568 36.0422" fill="#FC4114"/>
<path fill-rule="evenodd" clip-rule="evenodd" d="M117.603 34.3148C117.603 34.3385 117.619 34.3811 117.621 34.4048C117.546 34.2817 117.422 34.232 117.314 34.2391C117.046 34.2817 116.773 34.3598 116.472 34.3598C116.439 34.348 116.164 34.3148 116.16 34.2935C116.227 34.2841 116.326 34.2864 116.426 34.2817C116.632 34.2699 116.875 34.258 117.062 34.2083C117.133 34.1894 117.216 34.1681 117.297 34.161C117.418 34.1515 117.559 34.2225 117.6 34.3148" fill="white"/>
<path fill-rule="evenodd" clip-rule="evenodd" d="M128.666 50.9899L128.674 64.9459L127.041 64.8891L127.072 50.9804C127.34 50.8574 128.402 50.8124 128.666 50.9899Z" fill="white"/>
<path fill-rule="evenodd" clip-rule="evenodd" d="M127.296 54.49C126.959 54.445 126.35 54.9893 125.883 54.5184C125.571 54.206 125.625 53.3824 125.978 53.1268C126.103 53.0369 126.749 52.7481 126.88 52.6866L127.333 52.4878L127.298 54.4923L127.296 54.49Z" fill="white"/>
<path fill-rule="evenodd" clip-rule="evenodd" d="M127.365 59.9691L127.34 62.0257L126.725 61.8719C126.535 61.7867 126.02 61.55 125.889 61.3607C125.577 60.9063 125.916 59.9833 126.423 59.8626C126.677 59.8058 127.157 59.9525 127.365 59.9691Z" fill="white"/>
<path fill-rule="evenodd" clip-rule="evenodd" d="M126.134 56.4546C126.222 56.3387 126.542 56.2038 126.675 56.1754C126.804 56.1493 127.207 56.0878 127.334 56.0854V58.045C127.18 58.0521 126.666 58.0663 126.531 58.0355C125.954 57.9101 125.613 57.0416 126.134 56.4523" fill="white"/>
<path fill-rule="evenodd" clip-rule="evenodd" d="M125.841 57.943C125.841 57.943 125.854 57.9525 125.858 57.9596C125.606 57.9714 124.721 58.0117 124.467 58.0069C123.634 57.988 123.715 56.6864 124.235 56.5822C124.455 56.5254 125.299 56.4521 125.511 56.4497C125.471 56.542 125.365 56.6935 125.293 56.8C125.232 56.8875 125.189 57.0059 125.189 57.1479C125.189 57.5526 125.633 57.7561 125.841 57.9478" fill="white"/>
<path fill-rule="evenodd" clip-rule="evenodd" d="M125.151 54.4666C125.257 54.6702 125.729 54.8642 125.729 54.895C125.729 54.966 124.507 55.4701 124.149 55.2287C123.908 55.0867 123.63 54.3388 124.141 54.0856C124.54 53.8868 124.738 53.8513 125.132 53.7046C125.072 53.9271 125.043 54.2607 125.151 54.469" fill="white"/>
<path fill-rule="evenodd" clip-rule="evenodd" d="M123.414 54.7101C123.233 54.9775 123.545 55.2947 123.823 55.4745C123.605 55.6189 123 55.8697 122.742 55.6615C122.597 55.5171 122.499 55.0343 122.674 54.8852C122.749 54.8213 123.428 54.3551 123.416 54.7077" fill="white"/>
<path fill-rule="evenodd" clip-rule="evenodd" d="M128.4 51.3284L128.408 64.5483H127.298V51.3284C127.554 51.21 128.152 51.158 128.4 51.3284Z" fill="#FC4114"/>
<path fill-rule="evenodd" clip-rule="evenodd" d="M127.215 54.3244C126.897 54.2818 126.498 54.7859 126.055 54.3409C125.76 54.0451 125.793 53.5339 126.13 53.2925C126.249 53.2073 126.664 52.9991 126.787 52.9423L127.215 52.7529V54.3244Z" fill="#FC4114"/>
<path fill-rule="evenodd" clip-rule="evenodd" d="M127.221 60.189V61.7864L126.664 61.5498C126.485 61.4693 126.305 61.4338 126.182 61.2516C125.887 60.8208 126.095 60.2458 126.577 60.1322C126.818 60.0777 127.024 60.1748 127.221 60.189Z" fill="#FC4114"/>
<path fill-rule="evenodd" clip-rule="evenodd" d="M126.303 56.5466C126.386 56.4354 126.637 56.3857 126.76 56.3596C126.883 56.3336 127.095 56.2934 127.213 56.291L127.223 57.8766C127.078 57.8837 126.814 57.8695 126.685 57.8412C126.136 57.7228 125.806 57.1051 126.301 56.5466" fill="#FC4114"/>
<path fill-rule="evenodd" clip-rule="evenodd" d="M125.39 57.7656C125.39 57.7656 125.401 57.7751 125.407 57.7798C125.168 57.7916 124.912 57.7798 124.671 57.7727C123.881 57.7538 123.948 56.8639 124.441 56.7645C124.65 56.7101 125.045 56.6367 125.247 56.6367C125.21 56.7243 125.128 56.7456 125.06 56.8474C125.004 56.9302 124.96 57.0438 124.96 57.1763C124.96 57.5597 125.193 57.5881 125.388 57.768" fill="#FC4114"/>
<path fill-rule="evenodd" clip-rule="evenodd" d="M124.935 54.5614C125.035 54.7554 125.324 54.8453 125.324 54.8761C125.324 54.9447 124.494 55.2335 124.243 55.0867C124.014 54.9542 123.792 54.4525 124.278 54.2111C124.349 54.1756 124.434 54.1306 124.503 54.0975C124.7 54.0028 124.704 54.0028 124.92 53.9224C124.862 54.133 124.835 54.3626 124.937 54.559" fill="#FC4114"/>
<path fill-rule="evenodd" clip-rule="evenodd" d="M123.287 54.7857C123.117 55.039 123.395 55.3301 123.588 55.4366C123.383 55.5715 123.065 55.659 122.853 55.517C122.715 55.3798 122.647 55.0816 122.813 54.9396C122.884 54.878 123.31 54.587 123.289 54.7881" fill="#FC4114"/>
<path fill-rule="evenodd" clip-rule="evenodd" d="M123.042 35.2564C123.626 35.1546 123.969 35.2091 124.293 35.2943C124.293 35.3274 124.343 35.4481 124.343 35.4812C124.193 35.4623 124.043 35.3818 123.906 35.3842C123.628 35.3842 123.357 35.4031 123.044 35.3534C122.942 35.3345 122.834 35.2848 122.834 35.2824C122.834 35.2753 123.006 35.2635 123.044 35.254" fill="white"/>
<path fill-rule="evenodd" clip-rule="evenodd" d="M127.834 38.9934C127.812 39.0478 127.803 39.107 127.805 39.1685L127.66 39.1922H127.577C127.577 39.1922 127.558 39.1946 127.55 39.1969C127.427 39.2088 127.333 39.2419 127.188 39.1307C127.111 39.0715 127.059 38.9863 127.016 38.9153L126.895 38.6715C127.036 38.5887 127.072 38.6573 127.142 38.5437C127.011 38.3804 126.949 38.3805 126.774 38.3308C126.903 38.2621 126.959 38.3071 127.084 38.2692C127.161 38.113 127.136 37.971 127.076 37.8267L127.167 37.8953C127.192 37.9497 127.227 38.1201 127.255 38.1746C127.225 38.4325 127.3 38.5556 127.593 38.7212C127.639 38.7473 127.678 38.7638 127.716 38.7709C127.793 38.7993 127.832 38.823 127.886 38.8916L127.836 38.9934H127.834Z" fill="#FC4114"/>
<path fill-rule="evenodd" clip-rule="evenodd" d="M127.387 38.835C127.099 38.7072 127.238 39.1474 127.387 38.835V38.835Z" fill="#1B1B1B"/>
<path fill-rule="evenodd" clip-rule="evenodd" d="M127.387 38.835C127.099 38.7072 127.238 39.1474 127.387 38.835V38.835Z" fill="#EBEBEB"/>
<path fill-rule="evenodd" clip-rule="evenodd" d="M127.173 38.8493C127.173 38.8493 127.2 38.7925 127.281 38.7854C127.313 38.783 127.356 38.8019 127.406 38.8114C127.581 38.8469 127.624 38.88 127.624 38.88C127.624 38.88 127.508 39.0244 127.369 38.996C127.227 38.9676 127.175 38.8493 127.175 38.8493" fill="white"/>
<path fill-rule="evenodd" clip-rule="evenodd" d="M127.5 38.79C127.55 38.7948 127.556 38.8539 127.539 38.9273C127.523 39.0007 127.492 39.0575 127.442 39.0527C127.392 39.048 127.365 38.9841 127.381 38.9131C127.398 38.8397 127.45 38.7853 127.5 38.7924" fill="#FC4114"/>
</svg>
