<svg width="232" height="131" viewBox="0 0 232 131" fill="none" xmlns="http://www.w3.org/2000/svg">
<path d="M167.591 57.7432C167.523 57.7432 167.446 57.7034 167.406 57.6399C167.34 57.5348 167.37 57.4015 167.476 57.3381L168.855 56.5206L166.609 52.3033C166.554 52.1982 166.596 52.0641 166.701 52.0106C166.811 51.9544 166.951 51.9952 167.005 52.1021L169.345 56.5015C169.399 56.6031 169.366 56.7245 169.268 56.7879L167.715 57.7088C167.675 57.7324 167.639 57.7441 167.591 57.7441" fill="#181616"/>
<path d="M66.7995 57.8066C60.8414 57.8066 56.001 62.3121 56.001 67.8499C56.001 73.3877 60.8414 77.8986 66.7995 77.8986C72.7577 77.8986 77.5945 73.3895 77.5945 67.8499C77.5945 62.3103 72.7541 57.8066 66.7995 57.8066ZM66.7995 75.3681C62.2706 75.3681 58.586 72.0001 58.586 67.849C58.586 63.6979 62.2706 60.3299 66.7995 60.3299C71.3284 60.3299 75.014 63.7061 75.014 67.849C75.014 71.9919 71.3293 75.3681 66.7995 75.3681Z" fill="#181616"/>
<path d="M61.6976 72.7892C61.6507 72.7892 61.5947 72.772 61.5522 72.7358C60.0914 71.4343 59.2842 69.7022 59.2842 67.8505C59.2842 64.0801 62.6556 61.0176 66.8016 61.0176C69.1501 61.0176 71.3296 61.9992 72.7652 63.7158C72.8447 63.8064 72.8275 63.9451 72.7336 64.0221C72.6424 64.0955 72.498 64.0801 72.4212 63.9913C71.0678 62.3744 69.02 61.4526 66.8016 61.4526C62.9021 61.4526 59.7347 64.323 59.7347 67.8505C59.7347 69.579 60.4832 71.1923 61.8511 72.4104C61.9414 72.492 61.9468 72.6297 61.8628 72.7186C61.8204 72.7666 61.7599 72.7892 61.6976 72.7892Z" fill="#181616"/>
<path d="M66.8 79.0146C63.5722 79.0146 60.5457 77.8245 58.2812 75.6629C58.1918 75.5813 58.1918 75.4454 58.2749 75.3565C58.3598 75.2686 58.5051 75.2686 58.5918 75.3547C60.7723 77.433 63.6868 78.5768 66.8009 78.5768C73.141 78.5768 78.2983 73.7668 78.2983 67.8492C78.2983 65.3849 77.3747 62.9685 75.689 61.0571C75.6122 60.9664 75.623 60.8268 75.7169 60.7507C75.8027 60.6691 75.9463 60.6782 76.0284 60.7743C77.7819 62.7646 78.7389 65.2761 78.7389 67.8492C78.7389 74.0043 73.3812 79.0146 66.8 79.0146Z" fill="#181616"/>
<path d="M99.3102 77.1486L96.2954 77.144C96.1744 77.144 96.0742 77.0461 96.0742 76.9247C96.0742 76.8032 96.1744 76.7099 96.2954 76.7099H99.0826L99.0881 60.3729C99.0881 60.2533 99.1937 60.1509 99.3147 60.1509C99.4357 60.1509 99.5413 60.2533 99.5413 60.3729L99.5287 76.9247C99.5287 76.9881 99.507 77.0416 99.461 77.0797C99.4221 77.1205 99.368 77.1477 99.3102 77.1477" fill="#181616"/>
<path d="M88.3723 63.4663C88.3181 63.4663 88.2576 63.4428 88.2143 63.4038C87.0342 62.2609 86.3706 61.2675 86.1909 60.3721C86.1701 60.2524 86.2469 60.1346 86.3706 60.1138C86.4897 60.0875 86.6017 60.1709 86.6333 60.286C86.7913 61.0971 87.4125 62.0153 88.5267 63.0947C88.6151 63.1763 88.6179 63.3168 88.5321 63.4029C88.486 63.4437 88.4264 63.4672 88.3741 63.4672" fill="#181616"/>
<path d="M86.3511 77.1338H83.3427C83.2244 77.1338 83.1169 77.0377 83.1169 76.9145C83.1169 76.7975 83.2235 76.6978 83.3427 76.6978H86.1272V67.3869C86.1272 67.3008 86.1814 67.2238 86.2599 67.1866C86.3403 67.1513 86.436 67.1676 86.4992 67.2238C87.3461 67.9425 88.3248 68.6821 89.4805 69.4851C91.8632 71.1365 93.4234 72.4045 94.2442 73.3643C94.3236 73.4576 94.3074 73.5909 94.2135 73.6706C94.1196 73.745 93.9769 73.7314 93.902 73.6425C93.1065 72.7099 91.5788 71.4682 89.2205 69.8395C88.2183 69.1434 87.3443 68.4908 86.5777 67.8573V76.9145C86.5777 77.0377 86.473 77.1338 86.3502 77.1338" fill="#181616"/>
<path d="M150.519 77.1568H147.581C147.456 77.1568 147.357 77.0553 147.357 76.9357C147.357 76.816 147.455 76.7181 147.581 76.7181H150.291V62.8519C150.291 62.7304 150.39 62.6344 150.519 62.6344H155.616V60.2733C155.616 60.1537 155.719 60.0576 155.838 60.0576C155.958 60.0576 156.062 60.1537 156.062 60.2733V62.8519C156.062 62.9697 155.96 63.0676 155.838 63.0676H150.739V76.9348C150.739 77.0544 150.638 77.1559 150.519 77.1559" fill="#181616"/>
<path d="M146.087 63.0683H142.54C142.42 63.0683 142.316 62.9705 142.316 62.8508C142.316 62.7312 142.42 62.6333 142.54 62.6333H146.087C146.205 62.6333 146.311 62.7294 146.311 62.8508C146.311 62.9723 146.205 63.0683 146.087 63.0683Z" fill="#181616"/>
<path d="M173.292 77.2389C173.209 77.2389 173.134 77.1945 173.095 77.1229C173.042 77.015 173.078 76.8854 173.187 76.8292L175.478 75.6845L167.544 60.4125C167.482 60.3074 167.525 60.176 167.638 60.1207C167.748 60.0627 167.885 60.108 167.94 60.214L175.977 75.6845C176.028 75.7906 175.988 75.922 175.879 75.9773L173.391 77.2144C173.356 77.2317 173.326 77.2389 173.292 77.2389Z" fill="#181616"/>
<path d="M163.251 69.0777C163.216 69.0777 163.186 69.0713 163.151 69.0568C163.042 69.0025 162.997 68.8683 163.049 68.7632L165.024 64.9302C165.077 64.8224 165.214 64.7798 165.324 64.8314C165.429 64.8858 165.473 65.0163 165.426 65.126L163.454 68.9544C163.414 69.0315 163.33 69.0768 163.25 69.0768" fill="#181616"/>
<path d="M158.609 77.9705C158.57 77.9705 158.54 77.9623 158.504 77.9478L156.229 76.8094C156.116 76.7514 156.079 76.6209 156.127 76.5158C156.187 76.4061 156.322 76.3644 156.429 76.4206L158.51 77.4584L161.032 72.6429C161.059 72.5904 161.106 72.5514 161.168 72.5324C161.226 72.5151 161.295 72.5269 161.344 72.5577C162.645 73.3454 164.353 73.9436 166.559 74.404C167.564 74.6052 168.438 74.8463 169.157 75.1118C169.271 75.159 169.326 75.2822 169.282 75.3919C169.239 75.5052 169.115 75.5605 168.996 75.5188C168.297 75.2632 167.448 75.0266 166.466 74.8272C164.325 74.3895 162.635 73.8067 161.318 73.0481L158.807 77.8508C158.778 77.9034 158.731 77.9424 158.675 77.9587C158.656 77.9659 158.632 77.9696 158.609 77.9696" fill="#181616"/>
<path d="M108.46 71.8568C108.41 71.8568 108.357 71.8405 108.313 71.8061C107.808 71.3701 107.394 70.8689 107.091 70.3088C107.054 70.2444 107.054 70.1629 107.091 70.1012C107.132 70.0333 107.202 69.9907 107.279 69.987C108.345 69.9471 109.54 69.6952 110.938 69.2329C112.111 68.8441 113.062 68.671 113.775 68.6629C114.603 68.6746 115.477 69.0172 115.932 69.2329L115.942 66.7595C115.942 66.6381 116.037 66.542 116.163 66.542C116.288 66.542 116.382 66.6381 116.382 66.7595L116.377 69.5891C116.377 69.6653 116.333 69.7423 116.267 69.774C116.195 69.813 116.113 69.813 116.041 69.774C116.028 69.7668 114.833 69.1097 113.768 69.097C113.134 69.0807 112.192 69.2746 111.079 69.6453C109.798 70.0731 108.681 70.3215 107.66 70.3994C107.918 70.7982 108.232 71.1562 108.606 71.4789C108.701 71.5559 108.71 71.6946 108.628 71.7852C108.587 71.8333 108.523 71.8586 108.458 71.8586" fill="#181616"/>
<path d="M107.039 66.455C107.011 66.455 106.986 66.4505 106.961 66.4442C106.84 66.4007 106.788 66.271 106.829 66.1578C107.653 64.0577 109.871 62.6475 112.342 62.6475C113.831 62.6475 115.257 63.1614 116.35 64.0931L116.844 64.5145L118.474 62.9212C118.562 62.8333 118.704 62.8387 118.787 62.9212C118.877 63.0055 118.877 63.1432 118.787 63.2275L117.007 64.965C116.927 65.0466 116.795 65.0493 116.708 64.9741L116.052 64.4257C115.045 63.5565 113.724 63.0816 112.341 63.0816C110.053 63.0816 108.004 64.3777 107.249 66.3146C107.214 66.4025 107.125 66.4541 107.039 66.4541" fill="#181616"/>
<path d="M112.344 77.5941C109.603 77.5941 107.025 76.5934 105.082 74.7789C104.99 74.6956 104.988 74.5569 105.069 74.4726C105.157 74.3847 105.298 74.382 105.388 74.4626C107.249 76.2019 109.719 77.1563 112.344 77.1563C114.622 77.1563 116.851 76.4067 118.624 75.0391C118.716 74.9647 118.859 74.981 118.938 75.0771C119.011 75.1687 119 75.3037 118.899 75.3844C117.056 76.8101 114.724 77.595 112.343 77.595" fill="#181616"/>
<path d="M134.113 71.3158C134.011 71.3158 133.931 71.2569 133.899 71.1653C133.612 70.3696 131.677 69.8992 130.115 69.5176C129.973 69.4859 129.823 69.4487 129.665 69.4152L129.434 69.3617C127.965 69.0309 125.751 68.5369 124.23 67.2644C124.139 67.1801 124.127 67.0432 124.209 66.9526C124.286 66.8611 124.431 66.8547 124.521 66.9309C125.954 68.1381 128.107 68.6221 129.533 68.9375L129.77 68.9928C129.928 69.0282 130.08 69.0662 130.225 69.0979C132.058 69.5411 133.956 69.9998 134.322 71.0258C134.357 71.1381 134.299 71.265 134.178 71.3013C134.158 71.3112 134.134 71.3167 134.113 71.3167" fill="#181616"/>
<path d="M130.379 77.3987C127.611 77.3987 125.17 76.5703 123.499 75.0685C123.406 74.9896 123.402 74.8509 123.484 74.7666C123.57 74.6733 123.71 74.667 123.803 74.7494C125.386 76.1796 127.728 76.9618 130.379 76.9618C133.377 76.9618 135.807 76.1724 137.24 74.7376C138.198 73.7778 138.687 72.5515 138.646 71.1993C138.619 70.1533 138.318 69.276 137.718 68.5174C137.649 68.4267 137.665 68.2881 137.761 68.2128C137.863 68.143 138.001 68.1575 138.076 68.2554C138.718 69.0784 139.063 70.0663 139.093 71.1893C139.136 72.6648 138.602 73.9953 137.562 75.0386C136.044 76.5603 133.498 77.3996 130.379 77.3996" fill="#181616"/>
<path d="M135.418 65.3136H135.401C135.336 65.3091 135.276 65.2782 135.235 65.2329C135.125 65.0915 135.056 64.9891 134.995 64.8976C134.87 64.7172 134.764 64.5731 134.403 64.2178C133.589 63.4248 132.009 62.8538 130.359 62.7686C129.315 62.7178 128.248 62.977 127.873 63.3695C127.786 63.4574 127.641 63.461 127.556 63.3794C127.469 63.2979 127.463 63.1601 127.544 63.0713C128.017 62.5791 129.182 62.2692 130.39 62.3362C132.135 62.4278 133.831 63.0441 134.715 63.9069C135.111 64.2921 135.224 64.4598 135.364 64.6511C135.384 64.6873 135.412 64.7245 135.448 64.7689L137.079 63.2254C137.169 63.142 137.305 63.1447 137.391 63.2299C137.479 63.3178 137.475 63.4565 137.391 63.5381L135.569 65.2547C135.526 65.29 135.47 65.3127 135.417 65.3127" fill="#181616"/>
<path d="M95.8059 70.2498C94.7739 69.2755 93.3392 68.1534 91.3465 66.7703C85.4362 62.6791 85.4362 60.7277 85.4362 59.6772H82.8413V76.0133H85.4281V65.2803C86.4709 66.367 87.9156 67.5652 89.8866 68.9256C95.8483 73.0522 95.8276 74.2378 95.7978 75.6018C95.7978 75.7432 95.7924 75.8792 95.7924 76.0233H98.3855V76.0133H98.3891V59.6772H95.805V70.2489L95.8059 70.2498Z" fill="#181616"/>
<path d="M141.688 61.9486H147.01V76.0369H149.597V61.9486H154.917V59.6772H141.688V61.9486Z" fill="#181616"/>
<path d="M172.236 76.5389L174.533 75.386L166.367 59.6699H164.07L155.906 75.386L158.21 76.5389L160.893 71.4072C162.166 72.4295 164.095 73.1972 166.702 73.731C169.691 74.3401 171.572 75.2628 172.156 76.4002L172.236 76.5389ZM167.231 71.2639C165.378 70.8815 163.123 70.2035 162.119 69.0624L165.222 63.0171L169.832 71.941C169.053 71.6872 168.19 71.457 167.231 71.263" fill="#181616"/>
<path d="M112.344 73.9499C109.201 73.9499 106.572 71.9188 105.933 69.216C106.249 69.2731 106.58 69.3076 106.935 69.3076C108 69.3076 109.259 69.0638 110.712 68.5834C112.21 68.0795 114.209 67.6354 115.211 68.3278L115.239 68.2916V65.9858C113.905 65.6224 112.173 65.8045 109.998 66.5342C108.145 67.1505 106.737 67.2955 105.875 66.9737C106.388 64.1378 109.085 61.9643 112.342 61.9643C114.066 61.9643 115.636 62.5816 116.811 63.5795L118.644 61.7876C117.002 60.3329 114.779 59.4365 112.341 59.4365C107.302 59.4365 103.194 63.2568 103.194 67.9535C103.194 72.6502 107.302 76.4732 112.341 76.4732C114.993 76.4732 117.383 75.4118 119.057 73.7333L117.224 71.9432C116.019 73.1686 114.28 73.9499 112.341 73.9499" fill="#181616"/>
<path d="M131.438 66.2317C127.418 65.232 126.696 64.6356 126.623 63.7048C126.52 62.222 128.57 61.5577 130.425 61.6528C132.549 61.7634 134.611 62.5338 135.483 63.7537L137.275 62.0888C136.041 60.451 133.358 59.4341 130.513 59.4341C126.534 59.4341 123.758 61.2359 123.758 63.8154C123.758 67.2758 128.168 67.894 130.392 68.4314C132.647 68.9798 134.976 69.5399 135.078 71.261C135.18 72.9124 133.098 74.1233 130.318 74.0191C127.604 73.9185 125.936 72.9206 125.058 71.6535L123.365 73.2333C124.794 75.268 127.417 76.2786 130.379 76.2786C135.066 76.2786 138.03 74.2928 137.95 71.2212C137.862 67.9556 134.618 67.0193 131.438 66.2326" fill="#181616"/>
<path d="M167.921 56.2685L165.623 52.1138L163.499 53.3745L163.49 53.3872L166.451 57.1458L167.921 56.2685Z" fill="#181616"/>
</svg>
