<svg width="232" height="131" viewBox="0 0 232 131" fill="none" xmlns="http://www.w3.org/2000/svg">
<path d="M116.593 51.9489C116.608 52.3997 116.231 52.9499 115.741 52.9641C115.251 52.9796 114.836 52.4539 114.821 52.0031C114.805 51.5523 115.19 51.1752 115.679 51.1597C116.169 51.1442 116.577 51.4968 116.593 51.9476" fill="#231F20"/>
<path d="M158.031 53.2327C157.794 53.1656 157.544 53.2934 157.473 53.5195C156.549 56.4696 152.176 55.7205 149.652 55.0101C148.292 54.6277 147.159 54.4081 146.083 54.319C142.58 54.0271 139.784 55.4738 138.001 58.4988C137.329 59.6407 136.931 60.8368 136.547 61.9941C136.409 62.4139 136.264 62.8492 136.108 63.2767C135.796 64.1331 135.056 65.1354 134.107 65.4416C133.552 65.6211 132.988 65.5358 132.434 65.1897C131.268 64.4599 131.164 62.6671 131.088 61.3586L131.085 61.3095C132.205 59.8306 132.572 57.6928 132.479 55.7812C132.42 54.5567 131.984 54.4133 131.841 54.3668C131.68 54.3138 131.36 54.2803 131.021 54.6536C131.01 54.6652 131.001 54.6768 130.99 54.6884C129.142 54.5631 126.826 55.6236 125.718 56.7822C124.952 57.5831 124.473 58.5376 124.01 59.4598C123.826 59.8241 123.637 60.2013 123.436 60.5565C122.332 62.4966 121.137 63.8257 120.155 64.2016C119.777 64.3462 119.395 64.4289 119.022 64.4431C118.249 64.4728 117.572 64.1848 117.171 63.65C116.587 62.8724 116.312 61.812 116.136 60.975C116.026 60.4454 115.943 59.8938 115.883 59.2906C116.012 58.8269 116.093 58.4575 116.132 57.8311C116.165 57.295 116.237 55.5138 115.766 55.1263C115.637 55.0204 115.469 54.9778 115.304 55.0088C114.863 55.094 114.863 55.5771 114.863 55.838V55.8613C114.836 56.4968 114.851 56.8546 114.872 57.3493C114.877 57.4939 114.884 57.6502 114.891 57.8311C114.907 58.3167 114.936 58.7766 114.975 59.2144C114.96 59.2687 114.944 59.3242 114.927 59.3823L114.861 59.6136C114.729 60.0786 114.586 60.4041 114.247 60.6921C113.791 61.0796 113.393 61.3328 112.995 61.4878C110.415 62.4927 108.205 62.3403 106.497 61.626C107.213 60.5436 107.606 59.3785 107.636 58.2315C107.654 57.5572 107.537 56.8713 107.296 56.2488C107.097 55.7347 106.819 55.2684 106.471 54.8641C106.29 54.6536 106.091 54.4366 105.819 54.2803C105.578 54.1421 105.321 54.0646 105.093 53.9974L105.013 53.9728C104.557 53.8346 104.086 53.8178 103.53 53.9199C103.32 53.9586 103.106 54.0051 102.907 54.0801C99.7497 54.0994 96.6763 57.1129 93.9555 59.7815C91.76 61.9347 89.6857 63.9691 88.0768 63.9871C88.0605 63.9871 88.0442 63.9871 88.0278 63.9871C85.3138 63.9871 83.9105 61.5201 82.6705 59.341C82.5085 59.0556 82.3547 58.7856 82.1982 58.5221C80.6111 55.8354 78.5232 53.4226 74.037 53.9548C73.7906 53.9845 73.6164 54.1963 73.6477 54.4301C73.679 54.6639 73.9022 54.8292 74.1486 54.7995C77.9012 54.3539 79.7114 56.0537 81.4155 58.938C81.568 59.1963 81.7204 59.4637 81.881 59.7453C83.1809 62.0303 84.7965 64.8784 88.0877 64.8383C90.0708 64.8164 92.1697 62.7575 94.6006 60.3731C95.8093 59.1873 97.0901 57.9305 98.3954 56.9243C97.2793 58.1578 96.4735 59.6575 96.204 61.192C96.0298 62.1827 96.0175 63.5673 96.9472 64.5413C97.8251 65.4596 99.3822 65.758 101.115 65.3395C103.008 64.8823 104.749 63.8011 105.962 62.3441C106.626 62.6348 107.338 62.8363 108.091 62.9422C109.762 63.1786 111.624 62.9422 113.335 62.2757C113.83 62.0832 114.311 61.781 114.846 61.3276C114.991 61.2036 115.113 61.0757 115.216 60.9414C115.23 61.0086 115.242 61.0757 115.255 61.1416C115.447 62.0626 115.756 63.2354 116.44 64.1447C117.021 64.9184 117.975 65.3356 119.058 65.2943C119.535 65.2749 120.017 65.1742 120.492 64.9908C122.015 64.4056 123.362 62.4759 124.225 60.9595C124.243 60.9272 124.262 60.8949 124.28 60.8626C124.28 60.975 124.284 61.0886 124.296 61.2023C124.376 61.9347 124.7 62.4811 125.26 62.8298C126.393 63.5351 128.1 63.1333 128.781 62.928C129.339 62.7601 129.823 62.5004 130.241 62.1723C130.353 63.5325 130.647 65.0928 131.939 65.9014C132.453 66.223 132.993 66.3858 133.535 66.3858C133.822 66.3858 134.11 66.3406 134.393 66.2488C135.48 65.8975 136.485 64.8409 136.953 63.5557C137.114 63.1166 137.259 62.6761 137.399 62.2498C137.786 61.0822 138.152 59.9791 138.78 58.9148C140.378 56.2036 142.874 54.908 146 55.1676C147.014 55.2516 148.091 55.4608 149.392 55.8277C150.692 56.1932 152.606 56.6014 154.337 56.4722C156.443 56.3146 157.823 55.3769 158.328 53.7623C158.399 53.5376 158.264 53.2999 158.026 53.2327M100.897 64.5116C100.37 64.6381 98.5792 64.9753 97.6155 63.9665C96.89 63.2083 96.9771 61.9889 97.0928 61.3302C97.5161 58.9238 99.389 56.613 101.657 55.4931C101.143 56.9553 101.952 58.7468 103.068 60.1225C103.666 60.86 104.371 61.4658 105.161 61.9308C104.075 63.1837 102.551 64.1111 100.897 64.5116ZM105.699 61.2281C104.919 60.7799 104.273 60.2129 103.777 59.6032C103.368 59.0982 101.408 56.5032 103.02 54.9933C103.026 54.9881 103.033 54.9829 103.038 54.9778C103.113 54.9584 103.188 54.9403 103.264 54.9248C103.357 54.9054 103.437 54.8589 103.497 54.7956C103.576 54.7776 103.648 54.7646 103.701 54.7543C104.109 54.6794 104.429 54.6884 104.74 54.7827L104.823 54.8073C105.02 54.8667 105.205 54.9222 105.355 55.0075C105.504 55.0927 105.645 55.249 105.775 55.4014C106.06 55.7321 106.287 56.1157 106.452 56.5407C106.655 57.0638 106.753 57.6412 106.738 58.2082C106.71 59.2209 106.351 60.2594 105.696 61.2294M130.141 57.7316V57.8517C130.131 58.8889 130.123 59.9584 130.172 61.0202C129.738 61.5239 129.191 61.9101 128.511 62.1142C127.348 62.4656 126.316 62.4656 125.754 62.1155C125.426 61.9114 125.242 61.5846 125.19 61.1132C125.136 60.6172 125.275 60.1005 125.401 59.7066C125.807 58.4433 126.43 57.4448 127.256 56.7383C127.985 56.1157 129.37 55.6236 130.467 55.5448C130.184 56.2462 130.146 57.0225 130.141 57.7303M131.038 57.8595V57.7393C131.044 56.9889 131.088 56.1545 131.474 55.5151C131.5 55.5009 131.525 55.4854 131.548 55.466C131.564 55.5706 131.578 55.6908 131.583 55.8186C131.642 57.0225 131.492 58.3891 131.032 59.5554C131.028 58.9858 131.032 58.4175 131.036 57.8595" fill="#231F20"/>
<path d="M86.1918 73.0211L86.5443 73.1839C86.1945 73.8323 85.8324 74.668 85.4554 75.6871C85.695 75.6871 85.8597 75.6975 85.9481 75.7168L85.9168 76.1405C85.8066 76.1754 85.5929 76.1922 85.2744 76.1922C85.1641 76.4789 85.0988 76.7127 85.0784 76.891C85.058 77.0692 85.0403 77.2423 85.028 77.4115C85.0144 77.5794 85.0062 77.6944 85.0008 77.7538H84.5625C84.5367 77.6698 84.5231 77.5833 84.5231 77.4942C84.5231 77.1868 84.6088 76.7541 84.7817 76.1935C84.4686 76.1935 83.9936 76.2283 83.3566 76.2968C83.3307 76.3756 83.2654 76.5228 83.1606 76.7386C83.0558 76.9543 82.9537 77.1416 82.8516 77.2991C82.7495 77.458 82.6134 77.6311 82.4406 77.8197C82.2677 78.0083 82.088 78.1658 81.9002 78.295C81.3626 78.6618 80.8399 78.8453 80.3349 78.8453C80.1267 78.8453 79.9538 78.7833 79.8177 78.6593C79.6816 78.5353 79.6135 78.379 79.6135 78.1917C79.6135 77.7163 79.9021 77.2836 80.4792 76.8948C81.0563 76.5061 81.8553 76.1948 82.8788 75.9623C83.2654 74.8928 83.8085 74.1294 84.5067 73.6734C83.7499 73.6838 83.1266 73.8052 82.6352 74.0377C82.1452 74.2702 81.8988 74.5673 81.8988 74.9289C81.8988 75.0426 81.9165 75.1408 81.9533 75.2221C81.99 75.3035 82.0758 75.4314 82.2119 75.6045L81.9451 75.8421C81.7151 75.7039 81.5409 75.5347 81.4211 75.3371C81.3013 75.1395 81.2414 74.9483 81.2414 74.7649C81.2414 74.4575 81.4143 74.1746 81.7586 73.9137C82.103 73.6541 82.5304 73.4526 83.0422 73.3118C83.5539 73.171 84.0725 73.0999 84.6006 73.0999C84.8674 73.0999 85.0512 73.118 85.1532 73.1555C85.2553 73.1929 85.3057 73.2627 85.3057 73.3634C85.3057 73.4642 85.2295 73.5598 85.0784 73.6489C84.4264 74.0351 83.901 74.7688 83.5049 75.8486C83.8126 75.7995 84.2903 75.7453 84.9382 75.6858C85.1886 74.9922 85.3914 74.4781 85.5452 74.1436C85.6991 73.8091 85.9141 73.4345 86.1918 73.0186V73.0211ZM80.9651 78.3338C81.1557 78.3338 81.3802 78.2537 81.6389 78.0922C81.8975 77.9308 82.1139 77.7202 82.2881 77.4606C82.4623 77.201 82.6134 76.8432 82.7386 76.3872C82.0445 76.4957 81.4851 76.6882 81.059 76.9633C80.633 77.2384 80.4207 77.5497 80.4207 77.8959C80.4207 78.0341 80.4642 78.1426 80.55 78.2188C80.6357 78.295 80.7746 78.3338 80.9651 78.3338Z" fill="#231F20"/>
<path d="M88.963 76.8768L89.1427 77.0111C88.9807 77.2242 88.7588 77.4012 88.4771 77.542C88.1953 77.6828 87.9218 77.7538 87.655 77.7538C87.3882 77.7538 87.1745 77.6789 87.0125 77.5304C86.8506 77.3818 86.7703 77.1855 86.7703 76.9439C86.7703 76.488 87.0248 76.0398 87.5338 75.5993C88.0429 75.1589 88.5588 74.938 89.0801 74.938C89.4244 74.938 89.5973 75.0672 89.5973 75.3242C89.5973 75.5812 89.4163 75.8615 89.0528 76.1341C88.6894 76.4066 88.1804 76.6546 87.5216 76.8768C87.5692 76.9904 87.6414 77.0796 87.7407 77.1442C87.8401 77.2087 87.9422 77.241 88.0456 77.241C88.2702 77.241 88.5751 77.1196 88.9617 76.8768H88.963ZM87.4835 76.6546C87.9068 76.5164 88.2688 76.342 88.5724 76.1341C88.8745 75.9261 89.027 75.7349 89.027 75.5619C89.027 75.4973 89.0011 75.4404 88.948 75.3914C88.8963 75.3423 88.8364 75.3164 88.7684 75.3164C88.5234 75.3164 88.258 75.4611 87.9735 75.7504C87.689 76.0398 87.5257 76.3407 87.4848 76.6533L87.4835 76.6546Z" fill="#231F20"/>
<path d="M92.9471 76.8549L93.1118 76.9737C92.9974 77.192 92.8395 77.3754 92.6381 77.5239C92.4366 77.6725 92.2556 77.7474 92.0936 77.7474C91.9317 77.7474 91.8037 77.7022 91.7098 77.6131C91.6159 77.5239 91.5683 77.4129 91.5683 77.2785C91.5683 77.1442 91.6581 76.9104 91.8378 76.5759C92.0174 76.2413 92.1073 75.9946 92.1073 75.837C92.1073 75.7673 92.0773 75.704 92.0174 75.6472C91.9575 75.5903 91.8854 75.5619 91.8024 75.5619C91.5356 75.5619 91.2674 75.7544 90.9966 76.138C90.7257 76.5216 90.4222 77.0757 90.0887 77.7991L89.6191 77.6428C89.7185 77.068 89.8601 76.5074 90.0452 75.9597C90.2303 75.4121 90.4018 75.0194 90.5583 74.7817L90.8795 74.8786C90.7339 75.2299 90.5474 75.837 90.3242 76.6986C91.0442 75.5296 91.7071 74.9458 92.3128 74.9458C92.4434 74.9458 92.551 74.9884 92.6381 75.0724C92.7238 75.1563 92.7674 75.2558 92.7674 75.3694C92.7674 75.4831 92.7511 75.5864 92.7198 75.6782C92.6884 75.7699 92.5904 75.983 92.4258 76.3175C92.2611 76.6521 92.1794 76.8613 92.1794 76.9453C92.1794 77.0292 92.2053 77.0951 92.2583 77.1416C92.3101 77.1881 92.3604 77.2127 92.4067 77.2127C92.453 77.2127 92.4924 77.2049 92.5238 77.1907C92.5551 77.1765 92.5904 77.1532 92.6299 77.1235C92.6694 77.0938 92.7048 77.0667 92.7361 77.0422C92.7674 77.0176 92.8055 76.984 92.8491 76.9414C92.894 76.8988 92.9253 76.8704 92.9471 76.8562V76.8549Z" fill="#231F20"/>
<path d="M96.4939 76.8549L96.6586 76.9737C96.5443 77.192 96.3864 77.3754 96.185 77.5239C95.9835 77.6725 95.8025 77.7474 95.6405 77.7474C95.4785 77.7474 95.3506 77.7022 95.2567 77.6131C95.1628 77.5239 95.1151 77.4129 95.1151 77.2785C95.1151 77.1442 95.205 76.9104 95.3846 76.5759C95.5643 76.2413 95.6541 75.9946 95.6541 75.837C95.6541 75.7673 95.6242 75.704 95.5643 75.6472C95.5044 75.5903 95.4323 75.5619 95.3492 75.5619C95.0825 75.5619 94.8143 75.7544 94.5435 76.138C94.2726 76.5216 93.9691 77.0757 93.6356 77.7991L93.166 77.6428C93.2654 77.068 93.4069 76.5074 93.592 75.9597C93.7772 75.4121 93.9487 75.0194 94.1052 74.7817L94.4264 74.8786C94.2808 75.2299 94.0943 75.837 93.8711 76.6986C94.5911 75.5296 95.254 74.9458 95.8597 74.9458C95.9903 74.9458 96.0978 74.9884 96.185 75.0724C96.2707 75.1563 96.3143 75.2558 96.3143 75.3694C96.3143 75.4831 96.2979 75.5864 96.2666 75.6782C96.2353 75.7699 96.1373 75.983 95.9726 76.3175C95.8079 76.6521 95.7263 76.8613 95.7263 76.9453C95.7263 77.0292 95.7521 77.0951 95.8052 77.1416C95.8569 77.1881 95.9073 77.2127 95.9536 77.2127C95.9998 77.2127 96.0393 77.2049 96.0706 77.1907C96.1019 77.1765 96.1373 77.1532 96.1768 77.1235C96.2163 77.0938 96.2517 77.0667 96.283 77.0422C96.3143 77.0176 96.3524 76.984 96.3959 76.9414C96.4408 76.8988 96.4722 76.8704 96.4939 76.8562V76.8549Z" fill="#231F20"/>
<path d="M99.8996 76.9366L100.064 77.0632C99.9759 77.2712 99.8357 77.4468 99.6451 77.5902C99.4545 77.7336 99.2817 77.8059 99.1279 77.8059C98.9741 77.8059 98.8529 77.7555 98.7645 77.6535C98.676 77.5515 98.6311 77.4197 98.6311 77.2557C98.6311 77.0916 98.6597 76.8824 98.7168 76.624C98.4718 76.9909 98.2078 77.2776 97.926 77.4856C97.6443 77.6935 97.4061 77.7982 97.2142 77.7982C96.9215 77.7982 96.7759 77.6005 96.7759 77.204C96.7759 76.8669 96.8957 76.4367 97.1366 75.911C97.3761 75.3866 97.5517 75.0818 97.6606 74.9965L98.0363 75.1528C97.8226 75.4796 97.6606 75.8012 97.5504 76.119C97.4401 76.4367 97.3857 76.6473 97.3857 76.7545C97.3857 76.8617 97.421 76.947 97.4918 77.0102C97.5626 77.0748 97.6443 77.1071 97.7382 77.1071C97.9464 77.1071 98.2064 76.925 98.5167 76.5607C98.8271 76.1965 99.1442 75.6527 99.4682 74.9307L99.867 75.1012C99.8561 75.1412 99.7377 75.428 99.5104 75.9627C99.283 76.4975 99.1701 76.8178 99.1701 76.925C99.1701 77.0322 99.1946 77.1123 99.2449 77.1665C99.2939 77.2208 99.3443 77.2479 99.3933 77.2479C99.4423 77.2479 99.4804 77.2453 99.5063 77.2402C99.5321 77.235 99.558 77.2247 99.5852 77.2105C99.6111 77.195 99.6329 77.1833 99.6519 77.173C99.6696 77.1627 99.6927 77.1459 99.7186 77.1213L99.7812 77.0697C99.7921 77.0542 99.8112 77.0309 99.8397 76.9986C99.8683 76.9663 99.8874 76.9457 99.8983 76.9353L99.8996 76.9366Z" fill="#231F20"/>
<path d="M102.311 75.124C102.442 75.124 102.548 75.1666 102.633 75.2506C102.716 75.3345 102.758 75.4443 102.758 75.5774C102.758 75.8448 102.596 76.1276 102.272 76.4247L102.084 76.2839C102.158 76.1302 102.194 76.0191 102.194 75.9494C102.194 75.815 102.115 75.7492 101.959 75.7492C101.802 75.7492 101.654 75.8435 101.512 76.0321C101.371 76.2206 101.206 76.5113 101.016 76.9052C100.825 77.2992 100.681 77.5782 100.581 77.7409L100.135 77.5549C100.422 76.9362 100.587 76.572 100.628 76.4622C100.769 76.076 100.839 75.5851 100.839 74.991L101.277 74.8799C101.262 75.2015 101.238 75.4508 101.206 75.6265C101.175 75.8021 101.099 76.0889 100.979 76.4841C101.506 75.5774 101.949 75.124 102.31 75.124H102.311Z" fill="#231F20"/>
<path d="M108.598 78.2371L108.638 78.5858C108.492 78.6104 108.364 78.6233 108.254 78.6233C108.009 78.6233 107.774 78.4683 107.549 78.1596C107.324 77.8496 107.149 77.4866 107.021 77.0707C106.893 76.6548 106.814 76.2531 106.783 75.8669C106.521 76.5114 106.275 76.9777 106.042 77.267C105.809 77.5564 105.571 77.701 105.326 77.701C105.201 77.701 105.102 77.6532 105.028 77.5564C104.955 77.4595 104.918 77.3329 104.918 77.174C104.918 76.8072 105.096 76.3422 105.454 75.7777C105.812 75.2133 106.23 74.7496 106.711 74.3879C106.721 74.3582 106.766 74.1774 106.848 73.8454C106.928 73.5134 106.977 73.33 106.992 73.2951L107.447 73.2577C107.447 73.3416 107.424 73.5173 107.376 73.7847C108.081 73.2745 108.66 73.02 109.114 73.02C109.328 73.02 109.498 73.0756 109.623 73.1866C109.749 73.2977 109.811 73.4476 109.811 73.6361C109.811 74.1063 109.561 74.5816 109.06 75.0596C108.559 75.5375 108.024 75.8191 107.455 75.903C107.497 76.6212 107.628 77.1831 107.85 77.5899C108.072 77.9955 108.321 78.2112 108.597 78.2358L108.598 78.2371ZM106.32 75.7558C106.461 75.3993 106.557 75.1138 106.61 74.9007C106.323 75.1539 106.057 75.4897 105.815 75.9108C105.573 76.3319 105.452 76.6431 105.452 76.8472C105.452 76.9519 105.496 77.0035 105.585 77.0035C105.741 77.0035 105.986 76.5876 106.321 75.7558H106.32ZM106.852 75.6511C107.405 75.6511 107.902 75.4677 108.34 75.1009C108.778 74.7341 108.997 74.3698 108.997 74.0081C108.997 73.8738 108.962 73.7705 108.891 73.6956C108.82 73.6206 108.71 73.5845 108.559 73.5845C108.408 73.5845 108.189 73.6646 107.902 73.826C107.614 73.9875 107.409 74.1192 107.284 74.2239C107.122 74.8335 106.979 75.3089 106.853 75.6499L106.852 75.6511Z" fill="#231F20"/>
<path d="M111.424 75.5478C111.56 75.7609 111.628 75.996 111.628 76.253C111.628 76.6547 111.483 77.0125 111.19 77.3264C110.897 77.6416 110.553 77.7979 110.157 77.7979C109.855 77.7979 109.618 77.7152 109.448 77.5486C109.278 77.3832 109.193 77.1533 109.193 76.8614C109.193 76.3912 109.386 75.9689 109.773 75.5943C110.16 75.221 110.592 75.0337 111.073 75.0337C111.161 75.0337 111.224 75.0363 111.261 75.0414L111.284 75.2869C110.866 75.2869 110.519 75.4005 110.243 75.6292C109.966 75.8565 109.827 76.1497 109.827 76.5062C109.827 76.7193 109.882 76.8911 109.992 77.0229C110.102 77.1546 110.262 77.2192 110.474 77.2192C110.686 77.2192 110.854 77.1301 110.979 76.9518C111.104 76.7736 111.167 76.5643 111.167 76.3241C111.167 76.0838 111.118 75.8642 111.018 75.6666L111.425 75.5478H111.424Z" fill="#231F20"/>
<path d="M115.057 77.0034L115.236 77.13C115.163 77.2786 115.03 77.4194 114.834 77.5537C114.638 77.688 114.459 77.7539 114.297 77.7539C113.99 77.7539 113.836 77.6002 113.836 77.2928C113.836 77.1494 113.875 76.9789 113.953 76.78L113.663 77.0629C113.381 77.3354 113.138 77.5188 112.931 77.6131C112.724 77.7074 112.522 77.7539 112.324 77.7539C112.125 77.7539 111.975 77.7009 111.873 77.5937C111.771 77.4878 111.721 77.3406 111.721 77.152C111.721 76.8058 111.862 76.4622 112.144 76.1225C112.426 75.7828 112.786 75.5077 113.225 75.2946C113.663 75.0814 114.101 74.9729 114.54 74.9678L114.556 75.2132L114.227 75.2804C113.751 75.3798 113.332 75.5774 112.97 75.8745C112.607 76.1716 112.426 76.4674 112.426 76.7619C112.426 77.0564 112.551 77.2036 112.801 77.2036C113.037 77.2036 113.325 77.0474 113.67 76.7361C114.014 76.4235 114.301 76.0579 114.531 75.6369L114.861 75.8229C114.537 76.4416 114.375 76.8355 114.375 77.0047C114.375 77.0745 114.399 77.1326 114.45 77.1791C114.499 77.2269 114.549 77.2502 114.598 77.2502C114.647 77.2502 114.68 77.2476 114.696 77.2424C114.712 77.2372 114.727 77.2308 114.744 77.2243C114.76 77.2166 114.779 77.2062 114.802 77.1907C114.825 77.1765 114.847 77.161 114.865 77.1468C114.883 77.1313 114.913 77.1094 114.955 77.0796C114.997 77.0499 115.031 77.0254 115.057 77.0047V77.0034Z" fill="#231F20"/>
<path d="M119.7 72.2632L120.098 72.3975L119.99 72.5913C119.415 73.6065 118.928 74.5895 118.525 75.5414C118.258 76.1653 118.126 76.6342 118.126 76.9455C118.126 77.0243 118.147 77.0876 118.189 77.1354C118.231 77.1819 118.296 77.2064 118.389 77.2064C118.481 77.2064 118.586 77.1496 118.706 77.0359L118.848 77.1625C118.78 77.3059 118.663 77.4389 118.495 77.5603C118.328 77.6817 118.166 77.7424 118.009 77.7424C117.707 77.7424 117.555 77.5745 117.555 77.2374C117.555 77.0398 117.612 76.7349 117.727 76.3229C117.111 77.3433 116.509 77.8535 115.919 77.8535C115.714 77.8535 115.554 77.7941 115.433 77.6753C115.313 77.5564 115.253 77.395 115.253 77.1922C115.253 76.8706 115.389 76.536 115.66 76.1899C115.931 75.8437 116.266 75.5595 116.662 75.3386C117.058 75.1178 117.429 75.008 117.774 75.008L117.797 75.2676C117.348 75.3219 116.928 75.5066 116.541 75.8217C116.151 76.1369 115.958 76.4572 115.958 76.784C115.958 76.9222 115.997 77.0333 116.075 77.1147C116.153 77.1961 116.255 77.2374 116.38 77.2374C116.636 77.2374 116.969 76.9778 117.382 76.4572C117.533 76.2686 117.707 75.9948 117.903 75.6331C118.099 75.2715 118.256 74.9809 118.373 74.76C118.49 74.5391 118.605 74.3247 118.717 74.1141C118.829 73.9036 118.977 73.6259 119.159 73.2823C119.342 72.9374 119.523 72.6003 119.7 72.2684V72.2632Z" fill="#231F20"/>
<path d="M119.585 77.2825C119.656 77.2205 119.742 77.1895 119.844 77.1895C119.946 77.1895 120.025 77.2179 120.082 77.2747C120.139 77.3315 120.168 77.4077 120.168 77.5007C120.168 77.719 119.969 77.9645 119.573 78.2357L119.4 77.998C119.608 77.8392 119.716 77.7552 119.721 77.7449C119.559 77.6958 119.479 77.6157 119.479 77.5072C119.479 77.4181 119.514 77.3432 119.585 77.2812V77.2825Z" fill="#231F20"/>
<path d="M127.865 76.4096L127.857 76.699L127.427 76.7145C127.364 77.0606 127.263 77.3409 127.126 77.5541C126.987 77.7672 126.757 77.9971 126.433 78.2451C126.109 78.4931 125.721 78.6998 125.271 78.8651C124.819 79.0304 124.442 79.1144 124.14 79.1144C123.837 79.1144 123.607 79.0563 123.451 78.94C123.294 78.8238 123.215 78.6713 123.215 78.4828C123.215 78.196 123.394 77.9067 123.752 77.6173C124.11 77.328 124.542 77.0852 125.051 76.8888C125.561 76.6938 126.065 76.5608 126.566 76.491C126.487 76.367 126.369 76.265 126.21 76.1862C126.051 76.1074 125.781 76.0183 125.4 75.9188C125.192 75.8646 125.087 75.7754 125.087 75.6514C125.087 75.5765 125.12 75.5093 125.185 75.4473C125.25 75.3853 125.359 75.3117 125.514 75.2239C125.668 75.1373 125.814 75.0482 125.953 74.9565C126.091 74.8648 126.245 74.755 126.414 74.6258C126.583 74.4967 126.726 74.3636 126.84 74.2241C126.954 74.0859 127.013 73.9645 127.013 73.8599C127.013 73.6868 126.922 73.6003 126.739 73.6003C126.598 73.6003 126.406 73.6636 126.163 73.7901C125.921 73.9167 125.682 74.0782 125.448 74.2771L125.111 75.2872C124.876 75.995 124.617 76.5453 124.333 76.9366C124.048 77.328 123.777 77.5231 123.523 77.5231C123.252 77.5231 123.116 77.3642 123.116 77.0477C123.116 76.7313 123.278 76.3257 123.602 75.8336C123.926 75.3401 124.374 74.8338 124.948 74.3146C124.948 74.3094 124.962 74.2642 124.992 74.1776C125.022 74.0911 125.047 74.0033 125.073 73.9141C125.162 73.6468 125.23 73.4763 125.277 73.4013L125.661 73.4608C125.661 73.5551 125.641 73.6661 125.599 73.7953C125.891 73.5873 126.2 73.4052 126.527 73.2489C126.854 73.0926 127.093 73.0151 127.247 73.0151C127.401 73.0151 127.525 73.0603 127.619 73.1521C127.712 73.2438 127.76 73.3781 127.76 73.5538C127.76 73.7294 127.673 73.9309 127.497 74.1596C127.322 74.3869 127.104 74.5936 126.844 74.7757C126.369 75.1128 125.965 75.3556 125.63 75.5042C126.173 75.583 126.569 75.6889 126.82 75.8193C127.07 75.9511 127.252 76.1474 127.368 76.4096H127.869H127.865ZM124.061 76.5801C124.425 76.0208 124.669 75.4461 124.789 74.8571C124.507 75.149 124.251 75.4835 124.021 75.8594C123.791 76.2366 123.677 76.5078 123.677 76.677C123.677 76.7816 123.715 76.8333 123.79 76.8333C123.865 76.8333 123.956 76.7493 124.059 76.5801H124.061ZM125.876 78.1702C126.132 78.0074 126.335 77.824 126.487 77.6199C126.639 77.4171 126.715 77.226 126.715 77.0477C126.715 76.9638 126.701 76.8798 126.675 76.7946C125.893 76.8837 125.247 77.0787 124.741 77.3771C124.235 77.6768 123.982 77.9635 123.982 78.2348C123.982 78.3536 124.031 78.4492 124.13 78.5202C124.229 78.5926 124.365 78.6274 124.537 78.6274C124.96 78.6274 125.405 78.4737 125.876 78.1663V78.1702Z" fill="#231F20"/>
<path d="M131.45 77.0034L131.63 77.13C131.556 77.2786 131.423 77.4194 131.227 77.5537C131.031 77.688 130.853 77.7539 130.691 77.7539C130.383 77.7539 130.229 77.6002 130.229 77.2928C130.229 77.1494 130.269 76.9789 130.346 76.78L130.056 77.0629C129.775 77.3354 129.531 77.5188 129.324 77.6131C129.117 77.7074 128.916 77.7539 128.717 77.7539C128.518 77.7539 128.369 77.7009 128.266 77.5937C128.164 77.4878 128.114 77.3406 128.114 77.152C128.114 76.8058 128.256 76.4622 128.537 76.1225C128.819 75.7828 129.18 75.5077 129.618 75.2946C130.056 75.0814 130.495 74.9729 130.933 74.9678L130.948 75.2132L130.618 75.2804C130.143 75.3798 129.724 75.5774 129.362 75.8745C129 76.1716 128.818 76.4674 128.818 76.7619C128.818 77.0564 128.943 77.2036 129.193 77.2036C129.429 77.2036 129.717 77.0474 130.062 76.7361C130.406 76.4235 130.693 76.0579 130.923 75.6369L131.253 75.8229C130.929 76.4416 130.767 76.8355 130.767 77.0047C130.767 77.0745 130.791 77.1326 130.842 77.1791C130.891 77.2269 130.941 77.2502 130.99 77.2502C131.039 77.2502 131.072 77.2476 131.088 77.2424C131.103 77.2372 131.119 77.2308 131.134 77.2243C131.151 77.2166 131.17 77.2062 131.193 77.1907C131.216 77.1765 131.238 77.161 131.255 77.1468C131.273 77.1313 131.303 77.1094 131.345 77.0796C131.387 77.0499 131.422 77.0254 131.447 77.0047L131.45 77.0034Z" fill="#231F20"/>
<path d="M134.958 76.8549L135.122 76.9737C135.008 77.192 134.85 77.3754 134.649 77.5239C134.447 77.6725 134.266 77.7474 134.104 77.7474C133.942 77.7474 133.814 77.7022 133.72 77.6131C133.626 77.5239 133.579 77.4129 133.579 77.2785C133.579 77.1442 133.669 76.9104 133.848 76.5759C134.028 76.2413 134.118 75.9946 134.118 75.837C134.118 75.7673 134.088 75.704 134.028 75.6472C133.968 75.5903 133.896 75.5619 133.813 75.5619C133.546 75.5619 133.278 75.7544 133.007 76.138C132.736 76.5216 132.433 77.0757 132.099 77.7991L131.63 77.6428C131.729 77.068 131.871 76.5074 132.056 75.9597C132.241 75.4121 132.412 75.0194 132.569 74.7817L132.89 74.8786C132.744 75.2299 132.558 75.837 132.335 76.6986C133.055 75.5296 133.718 74.9458 134.323 74.9458C134.454 74.9458 134.561 74.9884 134.649 75.0724C134.734 75.1563 134.778 75.2558 134.778 75.3694C134.778 75.4831 134.763 75.5864 134.732 75.6782C134.7 75.7699 134.602 75.983 134.438 76.3175C134.273 76.6521 134.191 76.8613 134.191 76.9453C134.191 77.0292 134.217 77.0951 134.27 77.1416C134.322 77.1881 134.372 77.2127 134.419 77.2127C134.465 77.2127 134.504 77.2049 134.536 77.1907C134.567 77.1765 134.602 77.1532 134.642 77.1235C134.681 77.0938 134.717 77.0667 134.748 77.0422C134.779 77.0176 134.817 76.984 134.861 76.9414C134.904 76.8988 134.939 76.8704 134.959 76.8562L134.958 76.8549Z" fill="#231F20"/>
<path d="M138.599 77.4865L138.607 77.6648C138.555 77.6945 138.317 77.7836 137.895 77.9322C137.728 78.8777 137.483 79.5623 137.159 79.9833C136.835 80.4044 136.439 80.615 135.969 80.615C135.75 80.615 135.574 80.5478 135.445 80.4148C135.314 80.2804 135.249 80.1073 135.249 79.8942C135.249 79.468 135.455 79.0701 135.867 78.702C136.279 78.3326 136.829 78.042 137.519 77.8288C137.598 77.4969 137.738 77.0293 137.943 76.4248C137.593 76.9298 137.276 77.2721 136.991 77.4504C136.707 77.6286 136.45 77.7178 136.219 77.7178C135.989 77.7178 135.817 77.6583 135.698 77.5395C135.581 77.4207 135.523 77.2618 135.523 77.0642C135.523 76.7374 135.666 76.4041 135.953 76.0644C136.24 75.7247 136.601 75.4483 137.038 75.2326C137.473 75.0169 137.895 74.9097 138.302 74.9097L138.365 75.1693C137.785 75.2287 137.288 75.4225 136.873 75.7493C136.458 76.076 136.251 76.3912 136.251 76.6922C136.251 76.8213 136.293 76.9272 136.376 77.0112C136.459 77.0952 136.561 77.1378 136.681 77.1378C136.858 77.1378 137.127 76.9595 137.487 76.603C137.846 76.2465 138.101 75.9417 138.246 75.6898L138.536 75.8461C138.249 76.5746 138.05 77.1882 137.941 77.688L138.599 77.4878V77.4865ZM137.472 78.051C137.017 78.2486 136.641 78.4863 136.345 78.764C136.047 79.0417 135.898 79.2936 135.898 79.5222C135.898 79.641 135.935 79.7379 136.009 79.8115C136.082 79.8865 136.173 79.9226 136.282 79.9226C136.501 79.9226 136.718 79.7767 136.931 79.4847C137.145 79.1928 137.325 78.7149 137.472 78.051Z" fill="#231F20"/>
<path d="M142.012 77.0034L142.192 77.13C142.119 77.2786 141.985 77.4194 141.789 77.5537C141.593 77.688 141.415 77.7539 141.253 77.7539C140.945 77.7539 140.791 77.6002 140.791 77.2928C140.791 77.1494 140.831 76.9789 140.908 76.78L140.619 77.0629C140.337 77.3354 140.093 77.5188 139.886 77.6131C139.679 77.7074 139.478 77.7539 139.279 77.7539C139.081 77.7539 138.931 77.7009 138.829 77.5937C138.727 77.4878 138.676 77.3406 138.676 77.152C138.676 76.8058 138.818 76.4622 139.1 76.1225C139.381 75.7828 139.742 75.5077 140.18 75.2946C140.619 75.0814 141.057 74.9729 141.495 74.9678L141.51 75.2132L141.181 75.2804C140.706 75.3798 140.286 75.5774 139.924 75.8745C139.562 76.1716 139.38 76.4674 139.38 76.7619C139.38 77.0564 139.505 77.2036 139.756 77.2036C139.991 77.2036 140.28 77.0474 140.624 76.7361C140.968 76.4235 141.256 76.0579 141.486 75.6369L141.815 75.8229C141.491 76.4416 141.329 76.8355 141.329 77.0047C141.329 77.0745 141.354 77.1326 141.404 77.1791C141.453 77.2269 141.503 77.2502 141.552 77.2502C141.601 77.2502 141.634 77.2476 141.65 77.2424C141.665 77.2372 141.682 77.2308 141.697 77.2243C141.713 77.2166 141.732 77.2062 141.755 77.1907C141.778 77.1765 141.8 77.161 141.818 77.1468C141.835 77.1313 141.865 77.1094 141.908 77.0796C141.95 77.0499 141.984 77.0254 142.01 77.0047L142.012 77.0034Z" fill="#231F20"/>
<path d="M143.461 77.041L143.625 77.1676C143.448 77.4298 143.295 77.6197 143.168 77.736C143.04 77.8522 142.898 77.9103 142.742 77.9103C142.585 77.9103 142.457 77.8509 142.358 77.7321C142.259 77.6133 142.21 77.4647 142.21 77.2865C142.21 76.9403 142.449 76.1937 142.93 75.0467C143.41 73.8997 143.903 72.8909 144.409 72.019L144.754 72.1973C144.242 73.1389 143.78 74.0728 143.368 75.0015C142.956 75.9302 142.75 76.598 142.75 77.0036C142.75 77.2361 142.841 77.3523 143.024 77.3523C143.169 77.3523 143.316 77.249 143.462 77.0398L143.461 77.041Z" fill="#231F20"/>
<path d="M146.505 75.5478C146.641 75.7609 146.709 75.996 146.709 76.253C146.709 76.6547 146.564 77.0125 146.271 77.3264C145.979 77.6416 145.634 77.7979 145.238 77.7979C144.936 77.7979 144.699 77.7152 144.529 77.5486C144.359 77.3832 144.274 77.1533 144.274 76.8614C144.274 76.3912 144.468 75.9689 144.854 75.5943C145.241 75.221 145.674 75.0337 146.154 75.0337C146.243 75.0337 146.305 75.0363 146.342 75.0414L146.365 75.2869C145.947 75.2869 145.6 75.4005 145.324 75.6292C145.048 75.8565 144.909 76.1497 144.909 76.5062C144.909 76.7193 144.963 76.8911 145.073 77.0229C145.182 77.1546 145.343 77.2192 145.555 77.2192C145.768 77.2192 145.935 77.1301 146.06 76.9518C146.185 76.7736 146.248 76.5643 146.248 76.3241C146.248 76.0838 146.198 75.8642 146.1 75.6666L146.507 75.5478H146.505Z" fill="#231F20"/>
<path d="M148.972 75.124C149.102 75.124 149.209 75.1666 149.293 75.2506C149.376 75.3345 149.418 75.4443 149.418 75.5774C149.418 75.8448 149.256 76.1276 148.932 76.4247L148.744 76.2839C148.818 76.1302 148.853 76.0191 148.853 75.9494C148.853 75.815 148.774 75.7492 148.618 75.7492C148.461 75.7492 148.313 75.8435 148.171 76.0321C148.03 76.2206 147.865 76.5113 147.675 76.9052C147.484 77.2992 147.34 77.5782 147.24 77.7409L146.794 77.5549C147.081 76.9362 147.246 76.572 147.287 76.4622C147.428 76.076 147.498 75.5851 147.498 74.991L147.936 74.8799C147.92 75.2015 147.896 75.4508 147.865 75.6265C147.834 75.8021 147.758 76.0889 147.638 76.4841C148.165 75.5774 148.608 75.124 148.969 75.124H148.972Z" fill="#231F20"/>
<path d="M151.665 76.8768L151.845 77.0111C151.683 77.2242 151.461 77.4012 151.179 77.542C150.898 77.6828 150.624 77.7538 150.357 77.7538C150.091 77.7538 149.877 77.6789 149.715 77.5304C149.553 77.3818 149.473 77.1855 149.473 76.9439C149.473 76.488 149.727 76.0398 150.236 75.5993C150.745 75.1589 151.26 74.938 151.782 74.938C152.127 74.938 152.3 75.0672 152.3 75.3242C152.3 75.5812 152.119 75.8615 151.755 76.1341C151.392 76.4066 150.883 76.6546 150.224 76.8768C150.272 76.9904 150.344 77.0796 150.443 77.1442C150.542 77.2087 150.645 77.241 150.748 77.241C150.973 77.241 151.277 77.1196 151.664 76.8768H151.665ZM150.186 76.6546C150.609 76.5164 150.971 76.342 151.275 76.1341C151.577 75.9261 151.729 75.7349 151.729 75.5619C151.729 75.4973 151.704 75.4404 151.65 75.3914C151.599 75.3423 151.537 75.3164 151.471 75.3164C151.226 75.3164 150.96 75.4611 150.676 75.7504C150.391 76.0398 150.228 76.3407 150.187 76.6533L150.186 76.6546Z" fill="#231F20"/>
</svg>
