<svg width="291" height="191" viewBox="0 0 291 191" fill="none" xmlns="http://www.w3.org/2000/svg">
<g filter="url(#filter0_d_97_9621)">
<rect width="230.4" height="131" transform="translate(30.3999 26)" fill="white"/>
<path d="M157.624 87.6433C157.545 89.1936 156.935 90.444 155.468 91.165C155.144 91.3241 154.956 91.5592 154.812 91.8817C153.602 94.574 151.64 96.5172 148.957 97.7408C148.212 98.0802 147.439 98.3308 146.634 98.4674C146.182 98.5434 145.84 98.735 145.575 99.1222C145.279 99.5559 144.936 99.9586 144.602 100.367C144.468 100.532 144.31 100.536 144.175 100.373C143.854 99.9868 143.525 99.6023 143.242 99.1884C142.95 98.7617 142.567 98.566 142.07 98.4547C138.516 97.6606 135.883 95.654 134.21 92.4055C134.155 92.2985 134.093 92.1943 134.054 92.0831C133.886 91.6099 133.582 91.3072 133.12 91.0678C131.451 90.1976 130.987 88.4501 131.174 87.066C131.381 85.5213 132.08 84.2469 133.437 83.4063C133.727 83.2261 133.859 82.967 133.987 82.6811C134.82 80.8252 136.084 79.3143 137.713 78.1118C138.782 77.3219 139.959 76.7262 141.248 76.401C141.856 76.2475 142.329 75.9574 142.757 75.5082C143.151 75.0942 143.612 74.7422 144.055 74.3775C144.32 74.1593 144.423 74.1635 144.688 74.3691C145.237 74.7943 145.772 75.2379 146.248 75.7462C146.517 76.0349 146.827 76.2123 147.218 76.3123C149.109 76.7995 150.778 77.7119 152.201 79.0496C153.043 79.841 153.745 80.752 154.306 81.7644C154.481 82.0785 154.643 82.3995 154.787 82.729C154.926 83.0472 155.136 83.2753 155.427 83.4739C156.886 84.4652 157.554 85.886 157.627 87.6461L157.624 87.6433ZM136.183 83.1754C135.919 83.1895 135.656 83.1909 135.394 83.2218C134.303 83.3486 133.369 83.7907 132.667 84.6511C131.908 85.5804 131.537 86.6604 131.626 87.8545C131.799 90.2046 133.543 91.172 135.197 91.0847C135.779 91.0537 136.281 90.8411 136.664 90.4201C137.416 89.5921 137.636 88.629 137.28 87.5532C137.204 87.3222 137.077 87.1167 136.897 86.9533C136.5 86.59 136.029 86.5647 135.552 86.7294C135.122 86.8773 134.876 87.3138 134.879 87.8165C134.88 88.0601 134.953 88.2854 135.032 88.5135C135.107 88.7304 134.982 88.8782 134.745 88.8895C134.416 88.905 134.13 88.781 133.889 88.5741C133.264 88.039 132.962 87.3448 133.057 86.5337C133.186 85.4129 133.82 84.6356 134.865 84.2258C135.708 83.8949 136.58 83.8034 137.468 84.0611C138.165 84.2638 138.807 84.5722 139.385 85.0172C140.314 85.7339 140.994 86.652 141.511 87.694C141.853 88.384 142.093 89.1119 142.197 89.8794C142.25 90.2722 142.139 90.4032 141.736 90.4257C141.449 90.4412 141.162 90.4271 140.875 90.4412C140.479 90.4595 140.359 90.5975 140.392 90.9763C140.411 91.2086 140.513 91.3156 140.753 91.3368C140.92 91.3508 141.089 91.3466 141.256 91.3508C141.424 91.3537 141.591 91.348 141.759 91.3607C142.15 91.3903 142.247 91.5057 142.239 91.9127C142.238 92.0084 142.233 92.1056 142.215 92.1985C142.066 92.9293 141.855 93.6404 141.449 94.2755C141.321 94.4754 141.17 94.6669 141.004 94.8359C140.725 95.1189 140.369 95.2654 139.975 95.2893C139.317 95.3287 138.805 94.8204 138.845 94.184C138.857 94.0108 138.964 93.846 139.065 93.853C139.228 93.8629 139.212 94.0136 139.261 94.1121C139.282 94.1544 139.302 94.1994 139.331 94.2361C139.465 94.4064 139.654 94.4684 139.838 94.405C140.052 94.3318 140.182 94.129 140.149 93.8995C140.11 93.6179 139.962 93.4137 139.704 93.2898C139.272 93.08 138.686 93.2405 138.372 93.6841C138.027 94.1713 137.967 94.7134 138.215 95.2513C138.453 95.7638 138.876 96.0595 139.455 96.1004C140.249 96.1553 140.91 95.8666 141.448 95.2964C141.694 95.0344 141.893 94.7345 142.064 94.4163C142.491 93.6277 142.756 92.7857 142.881 91.9014C142.952 91.4072 143.143 91.3396 143.554 91.3706C143.775 91.3874 143.894 91.5226 143.892 91.7522C143.892 91.8479 143.872 91.9422 143.864 92.038C143.795 92.8786 143.585 93.6897 143.327 94.4895C143.063 95.3104 142.787 96.1271 142.504 96.941C142.418 97.1888 142.432 97.4043 142.595 97.6141C143.109 98.2773 143.613 98.9462 144.131 99.6052C144.313 99.8361 144.443 99.8276 144.644 99.5742C145.076 99.0307 145.5 98.4801 145.921 97.9281C146.394 97.3071 146.399 97.3015 146.137 96.5622C145.809 95.6371 145.469 94.7148 145.216 93.7657C145.048 93.1405 144.913 92.5083 144.892 91.8578C144.879 91.4494 144.993 91.341 145.392 91.3649C145.682 91.3832 145.779 91.4494 145.851 91.7254C145.906 91.9338 145.94 92.1464 145.973 92.359C146.099 93.1504 146.384 93.8826 146.775 94.5768C147.001 94.9795 147.308 95.3147 147.662 95.6047C148.171 96.0201 148.764 96.1722 149.41 96.0905C150.109 96.0032 150.593 95.4977 150.658 94.8106C150.731 94.0347 150.419 93.5123 149.782 93.2518C149.299 93.0547 148.757 93.3968 148.618 93.808C148.545 94.0248 148.625 94.2515 148.819 94.3684C149.012 94.4839 149.247 94.443 149.398 94.2586C149.441 94.2051 149.472 94.1361 149.499 94.0713C149.544 93.9643 149.567 93.8178 149.727 93.8685C149.854 93.908 149.881 94.0445 149.908 94.16C149.958 94.3839 149.896 94.5867 149.778 94.7768C149.52 95.1922 149.023 95.3879 148.526 95.2541C148.097 95.1386 147.731 94.9134 147.477 94.5416C146.956 93.7756 146.648 92.9265 146.518 92.0112C146.508 91.9408 146.51 91.8676 146.513 91.7958C146.522 91.5184 146.622 91.3917 146.894 91.3734C147.228 91.3494 147.564 91.3635 147.9 91.3452C148.273 91.3255 148.397 91.1607 148.349 90.7792C148.325 90.5905 148.222 90.4764 148.025 90.4567C147.835 90.4384 147.642 90.444 147.45 90.437C147.259 90.4313 147.067 90.4342 146.877 90.4145C146.651 90.3905 146.539 90.2553 146.542 90.03C146.542 89.9582 146.549 89.8864 146.563 89.816C146.963 87.8151 147.895 86.1352 149.548 84.8975C150.051 84.5215 150.614 84.261 151.219 84.0822C152.182 83.7949 153.111 83.9034 154.025 84.2821C154.456 84.461 154.819 84.7313 155.102 85.096C155.937 86.1732 155.903 87.3476 155.123 88.3305C154.878 88.6388 154.564 88.8514 154.156 88.8923C153.753 88.9331 153.624 88.7712 153.764 88.3994C153.807 88.2882 153.864 88.1798 153.895 88.0657C154.063 87.4433 153.632 86.7787 152.994 86.6689C152.322 86.5534 151.79 86.8533 151.502 87.5095C150.995 88.6585 151.514 90.2201 152.617 90.8242C152.803 90.9256 153.011 91.0157 153.218 91.0481C154.805 91.2917 156.475 90.5215 156.965 88.7627C157.41 87.1631 157.028 85.7283 155.933 84.4891C155.303 83.778 154.488 83.3824 153.563 83.2444C151.973 83.0078 150.514 83.357 149.222 84.3244C147.476 85.6311 146.431 87.3814 145.989 89.5062C145.945 89.7174 145.906 89.9287 145.852 90.1371C145.804 90.3229 145.665 90.399 145.482 90.4201C144.95 90.482 144.774 90.3117 144.845 89.7738C144.883 89.4893 144.943 89.2077 145.005 88.9275C145.157 88.2474 145.389 87.5926 145.648 86.9477C146.078 85.8818 146.524 84.8214 146.945 83.7527C147.305 82.8374 147.563 81.894 147.691 80.9125C147.856 79.6495 147.59 78.4864 146.956 77.3979C146.38 76.4066 145.569 75.6321 144.667 74.9464C144.413 74.7549 144.341 74.7549 144.092 74.9394C143.436 75.428 142.829 75.9729 142.328 76.6192C141.48 77.7105 140.994 78.9271 141.049 80.3423C141.08 81.1153 141.197 81.8658 141.425 82.6009C141.831 83.9062 142.381 85.1566 142.899 86.4196C143.318 87.4391 143.73 88.4628 143.886 89.564C143.91 89.7287 143.929 89.8963 143.922 90.0624C143.917 90.1497 143.872 90.2553 143.812 90.3159C143.58 90.5482 143.009 90.4215 142.911 90.1159C142.852 89.9343 142.816 89.7442 142.781 89.5569C142.421 87.6841 141.562 86.0831 140.138 84.8116C139.019 83.8104 137.74 83.1486 136.184 83.1768L136.183 83.1754ZM147.504 77.0952C147.572 77.4486 147.835 77.5092 148.071 77.6035C148.673 77.8415 149.254 78.1175 149.806 78.4568C151.326 79.3876 152.521 80.6351 153.418 82.17C153.538 82.3742 153.618 82.6079 153.818 82.7572C153.846 82.7783 153.902 82.7656 153.943 82.7586C153.954 82.7572 153.971 82.7149 153.966 82.698C153.938 82.6079 153.914 82.5136 153.87 82.4319C152.707 80.2493 151.02 78.6173 148.763 77.5894C148.353 77.4035 147.924 77.2585 147.504 77.0952ZM134.927 82.7459C134.965 82.722 135.018 82.7065 135.041 82.6713C135.193 82.4291 135.338 82.1812 135.487 81.9362C136.667 79.9931 138.319 78.599 140.407 77.7133C140.604 77.6288 140.808 77.557 141.004 77.4711C141.067 77.4444 141.12 77.3923 141.173 77.3444C141.186 77.3331 141.183 77.2951 141.174 77.2754C141.166 77.2557 141.139 77.2275 141.124 77.2303C141.008 77.2444 140.887 77.2487 140.777 77.2853C139.347 77.7612 138.11 78.5624 137.021 79.5903C136.198 80.3662 135.525 81.2646 134.996 82.2643C134.93 82.3882 134.89 82.5276 134.842 82.6614C134.837 82.6769 134.853 82.7065 134.868 82.7206C134.882 82.7346 134.907 82.736 134.928 82.7431L134.927 82.7459ZM137.86 95.7033C137.794 95.3935 137.588 95.2034 137.387 95.0091C136.905 94.5444 136.435 94.0713 136.035 93.5292C135.722 93.1053 135.435 92.6674 135.193 92.1985C135.106 92.0295 135.006 91.8662 134.903 91.7071C134.884 91.6775 134.814 91.6606 134.777 91.6719C134.748 91.6817 134.707 91.7493 134.717 91.7761C134.761 91.9113 134.808 92.0464 134.873 92.1732C135.22 92.8575 135.631 93.5052 136.129 94.0868C136.532 94.5571 136.99 94.9809 137.432 95.4175C137.546 95.5301 137.644 95.6751 137.863 95.7019L137.86 95.7033ZM150.923 95.754C152.252 94.636 153.298 93.4546 153.976 91.976C154.005 91.9127 154.019 91.8423 154.035 91.7733C154.039 91.755 154.025 91.7155 154.014 91.7127C153.974 91.7029 153.912 91.6874 153.894 91.7071C153.829 91.7747 153.77 91.8507 153.726 91.9338C153.098 93.1236 152.3 94.1811 151.295 95.0795C151.135 95.2217 150.982 95.3738 150.924 95.754H150.923ZM149.513 96.6707C149.301 96.5665 149.177 96.5834 149.071 96.6298C148.416 96.9241 147.745 97.1691 147.062 97.3902C146.998 97.4113 146.945 97.4691 146.893 97.5155C146.879 97.5268 146.877 97.5606 146.882 97.5817C146.886 97.6014 146.903 97.6282 146.92 97.6324C146.963 97.6451 147.014 97.6634 147.056 97.6535C147.888 97.4381 148.688 97.141 149.513 96.6707ZM139.192 96.6608C140.048 97.1227 140.839 97.4353 141.672 97.6507C141.714 97.662 141.766 97.6493 141.811 97.6394C141.831 97.6352 141.852 97.6127 141.86 97.593C141.869 97.5733 141.869 97.5409 141.857 97.524C141.788 97.4156 141.673 97.3747 141.56 97.3395C140.967 97.1551 140.382 96.9495 139.82 96.6805C139.669 96.6087 139.51 96.558 139.193 96.6608H139.192ZM154.706 85.4326C154.687 85.4509 154.654 85.4678 154.656 85.4804C154.763 86.2141 154.754 86.9533 154.77 87.6926C154.771 87.7616 154.795 87.8348 154.934 87.7982C155.075 87.1279 155.001 86.4422 154.927 85.7578C154.913 85.6283 154.875 85.4692 154.705 85.4326H154.706ZM134.066 85.4565C134.042 85.4607 134.004 85.4565 133.999 85.4706C133.623 86.2084 133.706 86.9801 133.833 87.7559C133.835 87.7714 133.876 87.7954 133.885 87.7897C133.918 87.77 133.965 87.7461 133.973 87.7137C133.99 87.6461 133.987 87.5729 133.989 87.5011C133.992 86.859 133.982 86.2169 134.113 85.5832C134.121 85.5452 134.085 85.4988 134.069 85.4551L134.066 85.4565Z" fill="#12100B"/>
<path d="M169.762 87.2188C169.762 86.3809 169.759 85.5431 169.762 84.7053C169.763 84.3195 169.71 83.9421 169.635 83.5661C169.572 83.2437 169.367 83.0663 169.063 82.9944C168.879 82.9508 168.686 82.9367 168.499 82.9015C168.42 82.8874 168.385 82.8241 168.383 82.7452C168.382 82.6565 168.447 82.6143 168.516 82.6044C168.656 82.5833 168.8 82.5678 168.942 82.5664C169.828 82.5636 170.714 82.5664 171.598 82.5664C171.694 82.5664 171.789 82.5692 171.885 82.5791C171.978 82.5889 172.088 82.5988 172.115 82.7086C172.154 82.8748 172.018 82.9001 171.905 82.9311C171.813 82.9564 171.716 82.9635 171.625 82.9916C171.344 83.0789 171.185 83.2789 171.147 83.5619C171.118 83.7745 171.112 83.9914 171.105 84.2054C170.994 87.0751 170.976 89.9477 170.956 92.8188C170.954 93.0807 170.969 93.3468 170.871 93.5989C170.795 93.7989 170.594 93.8988 170.409 93.8003C170.264 93.7228 170.125 93.6242 170.004 93.5116C169.741 93.268 169.49 93.0103 169.235 92.7569C167.95 91.4712 166.655 90.1913 165.381 88.8944C164.56 88.058 163.769 87.192 162.962 86.3415C162.847 86.2204 162.725 86.105 162.599 85.9951C162.572 85.9712 162.502 85.9684 162.469 85.9867C162.437 86.005 162.41 86.0655 162.413 86.105C162.53 87.6342 162.483 89.1662 162.51 90.6982C162.52 91.2741 162.58 91.8444 162.638 92.4161C162.652 92.5569 162.685 92.7005 162.732 92.8343C162.8 93.023 162.93 93.161 163.13 93.2173C163.245 93.2497 163.363 93.2722 163.476 93.3116C163.635 93.368 163.921 93.2933 163.889 93.5679C163.865 93.7721 163.62 93.7214 163.462 93.7228C162.457 93.7284 161.453 93.7256 160.447 93.7228C160.353 93.7228 160.256 93.7087 160.164 93.6876C160.097 93.6721 160.028 93.6369 160.023 93.5482C160.019 93.4708 160.053 93.4088 160.127 93.3863C160.265 93.3468 160.405 93.3131 160.543 93.2807C160.922 93.192 161.101 92.9357 161.136 92.5639C161.15 92.4217 161.157 92.2781 161.16 92.1345C161.205 89.8139 161.25 87.4934 161.292 85.1728C161.303 84.5025 161.3 83.8323 161.307 83.162C161.31 82.948 161.305 82.7311 161.407 82.5298C161.488 82.3707 161.682 82.3045 161.83 82.4087C161.945 82.4903 162.052 82.5889 162.15 82.6917C162.744 83.3141 163.33 83.9463 163.929 84.5659C165.678 86.3697 167.431 88.1692 169.183 89.9716C169.283 90.0744 169.382 90.18 169.486 90.2786C169.57 90.3588 169.653 90.5011 169.77 90.4602C169.959 90.394 169.845 90.218 169.842 90.0885C169.819 89.131 169.794 88.1749 169.769 87.2174C169.765 87.2174 169.762 87.2174 169.758 87.2174L169.762 87.2188Z" fill="#12100B"/>
<path d="M178.438 98.1375C169.675 98.1375 160.914 98.1375 152.151 98.1375C151.865 98.1375 151.578 98.1249 151.292 98.1023C151.236 98.0981 151.153 98.0305 151.14 97.9784C151.127 97.9277 151.171 97.839 151.218 97.7996C151.644 97.4307 152.106 97.1519 152.709 97.2307C152.897 97.2546 153.092 97.2349 153.283 97.2349C170.424 97.2349 187.565 97.2349 204.707 97.2349C205.019 97.2349 205.33 97.2349 205.64 97.2561C205.863 97.2701 205.982 97.4124 205.997 97.6292C206.014 97.8784 205.896 98.0516 205.656 98.0981C205.517 98.1249 205.372 98.1333 205.228 98.1375C204.989 98.1446 204.75 98.1403 204.51 98.1403C195.819 98.1403 187.13 98.1403 178.439 98.1403L178.438 98.1375Z" fill="#12100B"/>
<path d="M179.648 78.4312C188.032 78.4312 196.414 78.4312 204.798 78.4312C205.085 78.4312 205.373 78.434 205.659 78.4608C205.88 78.4819 205.988 78.6284 205.999 78.8537C206.012 79.1198 205.898 79.2944 205.661 79.3197C205.425 79.3465 205.184 79.3465 204.945 79.3465C201.855 79.3479 198.765 79.3465 195.675 79.3465C182.19 79.3465 168.706 79.3465 155.22 79.3465C154.957 79.3465 154.692 79.3296 154.43 79.3479C153.966 79.3803 153.661 79.1451 153.423 78.7833C153.335 78.6467 153.402 78.4777 153.569 78.4636C153.854 78.4411 154.142 78.4298 154.429 78.4298C162.692 78.4284 170.956 78.4298 179.219 78.4298C179.362 78.4298 179.506 78.4298 179.649 78.4298L179.648 78.4312Z" fill="#12100B"/>
<path d="M111.539 98.1375C103.185 98.1375 94.8304 98.1375 86.4761 98.1375C86.1889 98.1375 85.9002 98.139 85.6158 98.1122C85.3215 98.084 85.1849 97.9094 85.2004 97.6334C85.2145 97.3912 85.344 97.2617 85.6214 97.2448C85.8833 97.2293 86.1481 97.2321 86.4114 97.2321C96.6807 97.2321 106.95 97.2321 117.219 97.2321C123.323 97.2321 129.428 97.2321 135.532 97.2321C135.747 97.2321 135.964 97.2504 136.178 97.2293C136.762 97.1716 137.182 97.4715 137.574 97.8418C137.603 97.87 137.631 97.9446 137.614 97.9672C137.578 98.0221 137.517 98.0925 137.461 98.0967C137.175 98.1206 136.889 98.1361 136.602 98.1361C129.899 98.1375 123.197 98.1375 116.494 98.1375C114.842 98.1375 113.191 98.1375 111.539 98.1375Z" fill="#12100B"/>
<path d="M110.373 78.4292C118.37 78.4292 126.365 78.4292 134.362 78.4306C134.647 78.4306 134.935 78.4503 135.219 78.4743C135.336 78.4841 135.401 78.6573 135.337 78.7573C135.122 79.0938 134.862 79.3572 134.419 79.3417C134.228 79.3346 134.036 79.3445 133.845 79.3445C118.021 79.3445 102.195 79.3445 86.3706 79.3445C86.1072 79.3445 85.8439 79.3445 85.582 79.322C85.3286 79.2994 85.2103 79.1417 85.2117 78.8826C85.2117 78.632 85.3356 78.4785 85.5961 78.4532C85.858 78.4278 86.1213 78.4292 86.3846 78.4292C90.6934 78.4292 95.0037 78.4292 99.3125 78.4292C102.999 78.4292 106.687 78.4292 110.373 78.4292Z" fill="#12100B"/>
<path d="M178.9 93.8752C177.889 93.9202 176.942 93.709 176.054 93.2415C175.009 92.691 174.301 91.8419 173.895 90.7492C173.385 89.3791 173.45 88.0301 174.118 86.7178C174.663 85.6462 175.489 84.8689 176.61 84.4578C178.495 83.7678 180.375 83.7974 182.166 84.7549C183.508 85.473 184.228 86.6502 184.352 88.1681C184.433 89.158 184.333 90.1212 183.89 91.0379C183.269 92.3192 182.273 93.1472 180.941 93.6006C180.277 93.8259 179.591 93.9104 178.9 93.8766V93.8752ZM175.707 88.5638C175.707 88.8032 175.695 89.0426 175.71 89.2805C175.769 90.1888 176.068 91.0153 176.63 91.7292C177.417 92.729 178.487 93.1627 179.728 93.0472C180.853 92.943 181.63 92.2868 181.983 91.2096C182.438 89.8255 182.441 88.4329 181.889 87.0656C181.403 85.8645 180.522 85.1379 179.246 84.883C177.694 84.5732 176.303 85.4111 175.857 86.929C175.699 87.4669 175.696 88.0147 175.706 88.5652L175.707 88.5638Z" fill="#12100B"/>
<path d="M194.007 84.1757C194.558 84.1757 195.109 84.1813 195.659 84.1742C196.118 84.1672 196.566 84.2503 197.009 84.3488C197.387 84.4333 197.732 84.5995 198.03 84.8544C198.822 85.5288 199.05 86.4934 198.639 87.4509C198.477 87.8297 198.24 88.1592 197.961 88.4591C197.88 88.5464 197.795 88.6323 197.709 88.7154C197.122 89.2885 197.07 89.2448 197.626 89.9235C198.263 90.7008 198.891 91.4865 199.588 92.2145C200.093 92.7412 200.624 93.2115 201.373 93.3452C201.47 93.3621 201.572 93.4185 201.572 93.5213C201.572 93.6677 201.445 93.717 201.321 93.717C200.699 93.717 200.075 93.7381 199.455 93.6973C198.968 93.6649 198.525 93.4607 198.175 93.1073C197.89 92.8186 197.605 92.5243 197.359 92.2033C196.907 91.6147 196.484 91.005 196.049 90.4037C195.908 90.2094 195.784 89.9869 195.538 89.9207C195.213 89.8334 194.856 89.7644 194.562 89.9489C194.309 90.108 194.409 90.4291 194.404 90.6853C194.397 91.1641 194.405 91.6428 194.417 92.1216C194.421 92.3117 194.443 92.5046 194.475 92.6919C194.528 93.0031 194.699 93.2087 195.027 93.272C195.189 93.303 195.347 93.3621 195.503 93.4213C195.534 93.4325 195.561 93.4987 195.558 93.5382C195.555 93.579 195.524 93.6381 195.49 93.6522C195.404 93.6874 195.31 93.724 195.218 93.724C194.141 93.7282 193.064 93.7282 191.987 93.724C191.895 93.724 191.801 93.6916 191.714 93.6578C191.68 93.6438 191.646 93.5874 191.642 93.5466C191.638 93.5072 191.659 93.4396 191.688 93.4255C191.816 93.365 191.952 93.3157 192.087 93.2692C192.346 93.1805 192.468 92.9932 192.484 92.7299C192.499 92.4905 192.515 92.2511 192.516 92.0132C192.52 89.9052 192.522 87.7987 192.525 85.6908C192.525 85.619 192.525 85.5471 192.52 85.4753C192.491 84.8656 192.437 84.7994 191.856 84.6361C191.764 84.6108 191.666 84.5939 191.584 84.5502C191.528 84.5206 191.459 84.4488 191.459 84.3953C191.459 84.2939 191.542 84.2249 191.643 84.2137C191.833 84.194 192.023 84.1813 192.215 84.1799C192.813 84.1757 193.412 84.1785 194.01 84.1785L194.007 84.1757ZM194.407 87.013C194.407 87.013 194.402 87.013 194.399 87.013C194.399 87.3706 194.397 87.7297 194.399 88.0874C194.404 88.9956 194.476 89.0646 195.373 89.0618C196.174 89.059 196.724 88.6365 196.928 87.8607C197.052 87.3918 197.064 86.9299 196.956 86.4455C196.707 85.3289 195.801 84.9642 194.947 84.9797C194.583 84.9867 194.423 85.1402 194.41 85.5077C194.392 86.009 194.406 86.5103 194.406 87.013H194.407Z" fill="#12100B"/>
<path d="M101.688 84.1477C101.688 84.5067 101.692 84.8658 101.687 85.2249C101.684 85.3685 101.646 85.5079 101.543 85.6192C101.491 85.6741 101.312 85.6755 101.285 85.6065C101.225 85.4516 101.159 85.2953 101.126 85.1348C100.96 84.2998 100.45 83.7816 99.6575 83.5225C98.5873 83.1733 97.5017 83.1015 96.4033 83.3732C95.5472 83.5844 94.8953 84.073 94.432 84.8236C94.1518 85.2784 93.9504 85.7698 93.8659 86.2894C93.6956 87.3342 93.6477 88.3889 93.949 89.4224C94.4771 91.2276 95.6458 92.3865 97.4805 92.8357C98.262 93.0272 99.052 92.9821 99.8236 92.7667C100.459 92.5907 100.918 92.1936 101.187 91.5853C101.264 91.4107 101.339 91.2333 101.433 91.0685C101.46 91.0221 101.564 90.9883 101.62 91.0009C101.678 91.0136 101.743 91.084 101.764 91.1432C101.795 91.2305 101.81 91.3332 101.796 91.4234C101.718 91.919 101.632 92.4147 101.54 92.9089C101.461 93.3285 101.198 93.582 100.792 93.6918C100.699 93.7172 100.608 93.751 100.515 93.7636C99.5434 93.896 98.5775 94.0481 97.5876 93.9326C96.7765 93.8383 95.9739 93.7298 95.205 93.4412C94.5263 93.1863 93.8969 92.8456 93.359 92.3555C91.6566 90.8038 91.1652 88.8634 91.6439 86.6682C92.1537 84.3265 94.0307 82.8241 96.2935 82.4467C98.003 82.1622 99.68 82.3594 101.35 82.7213C101.687 82.7945 101.753 82.8874 101.747 83.2127C101.741 83.5239 101.719 83.8351 101.703 84.1449C101.699 84.1449 101.695 84.1449 101.691 84.1449L101.688 84.1477Z" fill="#12100B"/>
<path d="M122.104 88.9438C122.104 87.9624 122.104 86.9809 122.104 86.0009C122.104 85.8333 122.105 85.6658 122.098 85.4982C122.071 84.8547 122.032 84.8068 121.388 84.6238C121.118 84.5477 120.994 84.4506 121.041 84.352C121.114 84.1929 121.266 84.1901 121.407 84.183C121.622 84.1732 121.838 84.1774 122.053 84.1774C123.727 84.1746 125.401 84.2267 127.076 84.1549C127.146 84.152 127.219 84.1549 127.29 84.1633C127.4 84.1788 127.471 84.2647 127.464 84.359C127.425 84.8814 127.477 85.4151 127.286 85.9192C127.264 85.9755 127.193 86.0262 127.133 86.0488C127.06 86.0755 127 86.0276 126.963 85.9572C126.952 85.9361 126.939 85.915 126.935 85.8925C126.821 85.2687 126.373 85.1124 125.825 85.1039C125.394 85.0969 124.964 85.087 124.534 85.1011C124.261 85.111 124.124 85.2321 124.119 85.4982C124.103 86.2628 124.103 87.0288 124.119 87.7934C124.124 88.0553 124.264 88.1792 124.541 88.1835C125.162 88.1933 125.784 88.1905 126.405 88.1637C126.589 88.1553 126.766 88.0455 126.948 87.9891C127.104 87.9399 127.233 88.0258 127.259 88.1877C127.266 88.2342 127.281 88.2834 127.276 88.3299C127.224 88.8284 127.17 89.3268 127.112 89.8253C127.1 89.9281 127.024 90.0098 126.926 90.0168C126.825 90.0239 126.763 89.9351 126.725 89.8422C126.717 89.8197 126.705 89.7971 126.703 89.7746C126.629 89.2733 126.305 89.1058 125.839 89.11C125.432 89.1142 125.026 89.0903 124.62 89.103C124.258 89.1142 124.12 89.2283 124.113 89.569C124.096 90.4055 124.091 91.2447 124.119 92.0811C124.134 92.5444 124.31 92.7007 124.769 92.802C125.337 92.9274 125.9 92.9415 126.477 92.8246C126.891 92.7401 127.191 92.5683 127.315 92.1487C127.329 92.1022 127.345 92.0572 127.363 92.0135C127.418 91.8826 127.467 91.722 127.653 91.7755C127.78 91.8121 127.818 91.953 127.815 92.0712C127.804 92.5021 127.752 92.9288 127.635 93.3442C127.57 93.5709 127.411 93.7145 127.176 93.7441C126.915 93.7765 126.65 93.8229 126.391 93.8018C124.934 93.6863 123.475 93.7201 122.016 93.723C121.802 93.723 121.587 93.7103 121.373 93.692C121.304 93.6863 121.236 93.6441 121.224 93.561C121.211 93.485 121.235 93.423 121.31 93.3878C121.331 93.378 121.352 93.3611 121.374 93.3583C121.994 93.2724 122.099 92.8471 122.094 92.3148C122.081 91.1898 122.09 90.0661 122.09 88.941C122.095 88.941 122.099 88.941 122.105 88.941L122.104 88.9438Z" fill="#12100B"/>
<path d="M103.738 93.7033C103.259 93.7033 102.782 93.7062 102.303 93.7005C102.196 93.7005 102.121 93.6189 102.135 93.5147C102.142 93.4612 102.22 93.3795 102.27 93.3739C103.097 93.3006 103.419 92.7078 103.704 92.0404C104.733 89.617 105.778 87.1993 106.816 84.7788C106.92 84.5366 107.002 84.2845 107.185 84.086C107.352 83.9029 107.6 83.9001 107.735 84.1071C107.865 84.3071 107.972 84.5239 108.065 84.7422C108.972 86.8543 109.873 88.9679 110.777 91.0815C110.946 91.4771 111.111 91.877 111.295 92.2657C111.548 92.8008 111.867 93.2739 112.534 93.3358C112.579 93.3401 112.624 93.3654 112.668 93.3851C112.741 93.4189 112.775 93.4809 112.755 93.5555C112.744 93.5963 112.71 93.6442 112.674 93.6625C112.61 93.6921 112.538 93.716 112.469 93.7174C111.584 93.7174 110.698 93.7146 109.812 93.709C109.742 93.709 109.669 93.6893 109.604 93.6625C109.512 93.6245 109.419 93.5442 109.467 93.4457C109.636 93.095 109.48 92.7937 109.356 92.4839C109.169 92.0178 108.98 91.5518 108.794 91.0843C108.686 90.8111 108.496 90.6618 108.193 90.6632C107.451 90.6661 106.709 90.6632 105.967 90.6632C105.706 90.6632 105.499 90.7548 105.392 91.0096C105.189 91.4954 104.984 91.9812 104.787 92.4684C104.752 92.5557 104.739 92.6543 104.729 92.7487C104.698 93.0458 104.778 93.1866 105.056 93.3105C105.142 93.3485 105.239 93.364 105.326 93.402C105.398 93.433 105.432 93.5006 105.399 93.5766C105.382 93.6175 105.346 93.6724 105.312 93.678C105.147 93.7033 104.981 93.7231 104.815 93.7259C104.456 93.7329 104.097 93.7273 103.738 93.7273C103.738 93.7202 103.738 93.7118 103.738 93.7048V93.7033ZM107.059 89.7691C107.059 89.7691 107.059 89.7663 107.059 89.7635C107.321 89.7635 107.582 89.7719 107.844 89.7607C108.113 89.7494 108.2 89.6396 108.11 89.3974C107.838 88.6623 107.551 87.9329 107.268 87.2007C107.234 87.1134 107.197 87.005 107.089 86.9994C106.981 86.9923 106.933 87.0937 106.897 87.181C106.633 87.8428 106.36 88.5018 106.109 89.1692C105.908 89.7043 105.955 89.7592 106.56 89.7691C106.726 89.7719 106.892 89.7691 107.058 89.7691H107.059Z" fill="#12100B"/>
<path d="M116.399 84.1601C117.333 84.1601 118.267 84.1601 119.2 84.1601C119.272 84.1601 119.344 84.1601 119.414 84.1728C119.521 84.1911 119.603 84.277 119.592 84.3671C119.528 84.8881 119.58 85.4204 119.438 85.9315C119.423 85.9864 119.341 86.0498 119.283 86.0554C119.227 86.0625 119.156 86.0089 119.106 85.9667C119.073 85.9385 119.058 85.8836 119.051 85.8372C118.966 85.3119 118.607 85.1275 118.13 85.112C117.603 85.0965 117.077 85.0909 116.55 85.1007C116.214 85.1078 116.092 85.2105 116.087 85.5203C116.071 86.2624 116.071 87.0045 116.087 87.7465C116.094 88.069 116.206 88.1774 116.533 88.1845C117.156 88.1971 117.778 88.1901 118.4 88.176C118.538 88.1732 118.678 88.1155 118.811 88.069C119.224 87.924 119.286 87.9578 119.266 88.3591C119.244 88.79 119.213 89.2194 119.173 89.6475C119.165 89.7376 119.111 89.8263 119.071 89.9108C119.035 89.9826 118.858 89.9897 118.819 89.9178C118.74 89.77 118.676 89.6151 118.596 89.4687C118.485 89.2687 118.312 89.1434 118.079 89.1265C117.53 89.0842 116.98 89.0688 116.43 89.1166C116.242 89.1321 116.128 89.2518 116.099 89.4391C116.083 89.5574 116.073 89.6771 116.074 89.7967C116.078 90.6106 116.083 91.4259 116.092 92.2398C116.094 92.3834 116.107 92.5271 116.129 92.6679C116.181 92.9805 116.347 93.1917 116.674 93.2565C116.861 93.2945 117.047 93.3381 117.233 93.386C117.309 93.4057 117.341 93.4719 117.337 93.5494C117.333 93.6353 117.267 93.6789 117.198 93.6888C117.057 93.7099 116.913 93.7254 116.771 93.7254C115.766 93.7282 114.76 93.7282 113.754 93.724C113.611 93.724 113.466 93.7071 113.33 93.6733C113.279 93.6606 113.235 93.5761 113.211 93.5156C113.202 93.4902 113.252 93.4381 113.28 93.4029C113.295 93.386 113.32 93.3719 113.342 93.3691C113.959 93.3001 114.086 92.8509 114.128 92.344C114.148 92.106 114.151 91.8653 114.152 91.6259C114.155 89.7094 114.155 87.793 114.155 85.878C114.155 85.6865 114.156 85.4936 114.135 85.3035C114.089 84.9036 113.955 84.7557 113.58 84.6558C113.558 84.6501 113.532 84.6501 113.51 84.6431C113.324 84.5825 112.993 84.6417 113.041 84.353C113.082 84.1052 113.396 84.1784 113.6 84.177C114.534 84.17 115.467 84.1742 116.402 84.1742C116.402 84.1685 116.402 84.1629 116.402 84.1587L116.399 84.1601Z" fill="#12100B"/>
<path d="M179.275 96.8877C170.723 96.8877 162.172 96.8877 153.622 96.8863C153.36 96.8863 153.097 96.8651 152.836 96.844C152.75 96.837 152.719 96.6793 152.776 96.6075C152.869 96.4864 152.99 96.4103 153.138 96.4005C153.4 96.385 153.664 96.3779 153.928 96.3779C160.18 96.3779 166.432 96.3779 172.682 96.3779C183.413 96.3779 194.143 96.3779 204.874 96.3793C205.16 96.3793 205.447 96.3948 205.733 96.416C205.833 96.423 205.906 96.4976 205.916 96.6046C205.93 96.7483 205.843 96.8412 205.716 96.8525C205.43 96.8778 205.143 96.8877 204.856 96.8877C197.982 96.8891 191.107 96.8877 184.233 96.8877C182.58 96.8877 180.928 96.8877 179.275 96.8877Z" fill="#12100B"/>
<path d="M180.151 79.691C188.386 79.691 196.621 79.691 204.855 79.691C205.143 79.691 205.43 79.6995 205.714 79.7234C205.842 79.7347 205.931 79.8262 205.913 79.9698C205.9 80.074 205.828 80.1501 205.727 80.1599C205.514 80.1825 205.299 80.1994 205.085 80.1994C203.72 80.2022 202.356 80.2008 200.991 80.2008C185.887 80.2008 170.782 80.2008 155.677 80.2008C155.39 80.2008 155.103 80.1965 154.815 80.1839C154.668 80.1782 154.539 80.1219 154.454 79.9867C154.406 79.9121 154.438 79.7628 154.518 79.7431C154.61 79.7206 154.706 79.6995 154.799 79.6967C155.038 79.6896 155.277 79.691 155.517 79.691C163.727 79.691 171.938 79.691 180.149 79.691H180.151Z" fill="#12100B"/>
<path d="M110.707 96.8877C102.588 96.8877 94.4686 96.8877 86.3495 96.8877C86.0622 96.8877 85.7749 96.8806 85.4891 96.8581C85.361 96.8482 85.2694 96.7567 85.2779 96.6159C85.2863 96.4737 85.3905 96.4145 85.5187 96.3991C85.613 96.3878 85.7102 96.3822 85.8045 96.3807C85.9721 96.3779 86.1396 96.3779 86.3072 96.3779C90.2358 96.3779 94.163 96.3779 98.0917 96.3779C110.307 96.3779 122.521 96.3779 134.736 96.3779C135.023 96.3779 135.311 96.3836 135.598 96.3976C135.747 96.4047 135.87 96.4779 135.967 96.5948C136.026 96.6652 136.002 96.8187 135.92 96.837C135.829 96.8581 135.735 96.8792 135.64 96.8834C135.401 96.8905 135.161 96.8891 134.922 96.8891C126.851 96.8891 118.78 96.8891 110.708 96.8891L110.707 96.8877Z" fill="#12100B"/>
<path d="M109.865 79.69C117.696 79.69 125.526 79.69 133.356 79.69C133.62 79.69 133.883 79.7013 134.144 79.7224C134.2 79.7267 134.275 79.7858 134.3 79.8393C134.346 79.9393 134.286 80.0364 134.203 80.0815C134.101 80.1364 133.982 80.1801 133.868 80.1871C133.582 80.204 133.293 80.1998 133.006 80.1998C119.116 80.1998 105.228 80.1998 91.3386 80.1998C89.6151 80.1998 87.8901 80.2012 86.1666 80.197C85.9287 80.197 85.6907 80.1716 85.4541 80.1435C85.3513 80.1308 85.2894 80.0364 85.2851 79.9379C85.2809 79.8393 85.333 79.752 85.4429 79.7295C85.5358 79.7112 85.6315 79.6957 85.7259 79.6929C85.9653 79.6872 86.2046 79.6886 86.444 79.6886C94.2506 79.6886 102.057 79.6886 109.864 79.6886L109.865 79.69Z" fill="#12100B"/>
<path d="M187.696 93.7289C187.241 93.7289 186.786 93.7331 186.333 93.7275C186.167 93.7261 185.998 93.712 185.836 93.681C185.785 93.6712 185.739 93.5853 185.715 93.5247C185.705 93.4994 185.753 93.4416 185.786 93.4135C185.822 93.3839 185.868 93.36 185.915 93.3529C186.41 93.267 186.574 92.9291 186.583 92.4743C186.589 92.2349 186.599 91.9955 186.599 91.7561C186.602 89.7932 186.602 87.8317 186.602 85.8688C186.602 85.7492 186.602 85.6295 186.598 85.5098C186.572 84.8761 186.53 84.8268 185.898 84.617C185.809 84.5875 185.719 84.5452 185.651 84.4833C185.598 84.4354 185.61 84.3354 185.67 84.2946C185.744 84.2425 185.84 84.1988 185.929 84.1932C186.167 84.1763 186.406 84.1791 186.645 84.1791C187.364 84.1777 188.08 84.1735 188.798 84.1791C188.989 84.1805 189.179 84.2031 189.364 84.2397C189.415 84.2495 189.481 84.3396 189.483 84.396C189.483 84.4495 189.424 84.5255 189.37 84.5565C189.29 84.603 189.193 84.6297 189.1 84.6452C188.728 84.7057 188.583 84.9578 188.548 85.2972C188.531 85.4633 188.525 85.6309 188.525 85.7984C188.525 87.8571 188.525 89.9143 188.529 91.973C188.529 92.211 188.552 92.4517 188.587 92.6869C188.634 92.9995 188.804 93.2121 189.135 93.267C189.253 93.2868 189.37 93.3107 189.486 93.3417C189.615 93.3741 189.812 93.36 189.774 93.5656C189.742 93.7444 189.556 93.7233 189.421 93.7261C188.846 93.7331 188.273 93.7289 187.699 93.7289V93.7317L187.696 93.7289Z" fill="#12100B"/>
<path d="M88.8949 88.2877C88.8851 88.3102 88.8823 88.337 88.8668 88.3525C88.8161 88.4018 88.7668 88.4581 88.7062 88.4905C88.1177 88.7974 87.6516 89.2199 87.3559 89.8282C87.2404 90.0661 87.0433 90.0718 86.9264 89.8451C86.6082 89.2241 86.1167 88.7918 85.5197 88.4581C85.3634 88.3708 85.3704 88.2187 85.5112 88.1103C85.5676 88.0666 85.6281 88.0258 85.6901 87.9906C86.2012 87.7019 86.6082 87.3161 86.8898 86.7909C87.0447 86.5008 87.2193 86.4881 87.3601 86.75C87.6769 87.3415 88.1374 87.7709 88.7316 88.0694C88.8428 88.1258 88.9062 88.2314 88.8977 88.2877H88.8949Z" fill="#12100B"/>
<path d="M205.805 88.2677C205.785 88.31 205.777 88.3649 205.746 88.3902C205.654 88.4649 205.557 88.5381 205.454 88.5958C204.985 88.862 204.616 89.2253 204.36 89.7026C204.315 89.7857 204.26 89.8659 204.193 89.9321C204.114 90.0096 204.021 89.9983 203.945 89.9152C203.912 89.88 203.877 89.8448 203.857 89.8026C203.57 89.2238 203.125 88.8056 202.558 88.5099C202.515 88.4888 202.482 88.4536 202.445 88.4226C202.345 88.341 202.332 88.1889 202.428 88.1143C202.523 88.041 202.621 87.9735 202.725 87.9157C203.218 87.6383 203.605 87.2609 203.84 86.7399C203.86 86.6963 203.887 86.6569 203.914 86.6174C203.997 86.4949 204.125 86.4837 204.207 86.5949C204.249 86.6526 204.292 86.7104 204.325 86.7737C204.581 87.2821 204.967 87.6594 205.463 87.9326C205.565 87.9889 205.661 88.065 205.75 88.141C205.781 88.1678 205.786 88.2255 205.805 88.2692V88.2677Z" fill="#12100B"/>
<path d="M126.795 81.8601C126.804 82.0333 126.747 82.1094 126.661 82.1544C126.6 82.1868 126.526 82.2023 126.456 82.2093C125.566 82.2966 124.748 82.6092 123.948 82.9852C123.603 83.1471 123.405 83.1542 123.382 83.0218C123.343 82.7867 123.533 82.6853 123.673 82.574C124.287 82.0854 124.908 81.6067 125.534 81.1307C125.665 81.0307 125.814 80.9491 125.964 80.8829C126.104 80.8209 126.256 80.8378 126.353 80.966C126.569 81.2532 126.725 81.5715 126.795 81.8601Z" fill="#12100B"/>
<path d="M94.5266 106.944V105.878C94.5266 105.156 94.5224 104.728 94.5139 104.595C94.5012 104.401 94.4153 104.287 94.2534 104.25C94.1971 104.237 94.1182 104.232 94.0169 104.232C93.9479 104.232 93.9141 104.214 93.9141 104.177C93.9141 104.14 93.9577 104.122 94.0478 104.122C94.1689 104.122 94.3337 104.125 94.5407 104.13C94.7491 104.136 94.8744 104.139 94.9195 104.139C95.8756 104.139 96.3811 104.138 96.4332 104.133C96.5388 104.125 96.6247 104.114 96.6937 104.097C96.7627 104.081 96.795 104.073 96.7908 104.073C96.8148 104.073 96.8274 104.091 96.8274 104.128C96.8274 104.132 96.8218 104.169 96.8091 104.236C96.7965 104.316 96.788 104.412 96.7824 104.521C96.7767 104.629 96.7655 104.763 96.7486 104.92C96.7401 104.965 96.7204 104.987 96.688 104.987C96.6599 104.987 96.643 104.964 96.6359 104.92C96.6303 104.877 96.6247 104.833 96.6204 104.794C96.6162 104.753 96.6078 104.718 96.5965 104.685C96.5472 104.568 96.412 104.495 96.1896 104.467C96.0516 104.452 95.7643 104.443 95.3264 104.443C95.2982 104.443 95.2841 104.463 95.2841 104.504V106.036C95.2841 106.081 95.2982 106.102 95.3264 106.102C95.8812 106.102 96.2065 106.098 96.2994 106.089C96.3684 106.085 96.4205 106.079 96.4571 106.071C96.5177 106.055 96.5627 106.03 96.5909 105.998C96.6402 105.946 96.6725 105.919 96.688 105.919C96.7162 105.919 96.7303 105.934 96.7303 105.967C96.7303 105.971 96.7246 106.012 96.712 106.088C96.6993 106.181 96.6894 106.288 96.681 106.409C96.6641 106.638 96.6571 106.773 96.6571 106.814C96.6571 106.89 96.6387 106.93 96.6021 106.93C96.5655 106.93 96.5472 106.909 96.5472 106.866C96.5472 106.824 96.5388 106.754 96.5233 106.658C96.4909 106.521 96.3768 106.443 96.1825 106.421C96.0685 106.409 95.7812 106.403 95.3194 106.403C95.2954 106.403 95.2827 106.423 95.2827 106.464V107.88C95.2912 108.094 95.3391 108.232 95.425 108.294C95.5123 108.358 95.708 108.389 96.0121 108.389C96.2881 108.389 96.4782 108.365 96.5838 108.315C96.7261 108.251 96.8162 108.101 96.857 107.868C96.8697 107.807 96.8908 107.776 96.9232 107.776C96.9556 107.776 96.9711 107.813 96.9711 107.884C96.9711 108.131 96.9443 108.355 96.8922 108.556C96.8725 108.629 96.8443 108.673 96.8077 108.69C96.7711 108.707 96.6908 108.714 96.5655 108.714C96.2149 108.714 95.8657 108.708 95.5179 108.696C95.1701 108.683 94.9603 108.677 94.8885 108.677C94.8519 108.677 94.7378 108.68 94.5463 108.686C94.3548 108.691 94.214 108.694 94.1253 108.694C94.045 108.694 94.0042 108.674 94.0042 108.634C94.0042 108.605 94.0478 108.587 94.138 108.579C94.1985 108.57 94.259 108.565 94.3196 108.56C94.4125 108.541 94.4703 108.429 94.4956 108.227C94.5153 108.069 94.5252 107.639 94.5252 106.937L94.5266 106.944Z" fill="black"/>
<path d="M98.0991 106.763V105.878C98.0991 105.156 98.0949 104.728 98.0864 104.596C98.0738 104.401 97.9879 104.287 97.8259 104.251C97.7696 104.238 97.6907 104.232 97.5894 104.232C97.5204 104.232 97.4866 104.214 97.4866 104.177C97.4866 104.141 97.5302 104.123 97.6203 104.123C97.7372 104.123 97.902 104.125 98.1132 104.131C98.3244 104.137 98.4553 104.139 98.5032 104.139C98.5469 104.139 98.6637 104.137 98.851 104.131C99.0383 104.125 99.1707 104.123 99.2481 104.123C99.3368 104.123 99.3819 104.141 99.3819 104.177C99.3819 104.214 99.3495 104.232 99.2847 104.232C99.2368 104.232 99.1777 104.238 99.1087 104.251C98.9721 104.275 98.8975 104.39 98.8848 104.596C98.8764 104.729 98.8721 105.158 98.8721 105.881V106.73C98.8721 107.465 99.0299 107.962 99.3439 108.222C99.5452 108.388 99.7973 108.471 100.1 108.471C100.439 108.471 100.718 108.362 100.935 108.143C101.084 107.993 101.186 107.779 101.238 107.501C101.27 107.315 101.286 107.027 101.286 106.64V105.883C101.286 105.159 101.281 104.731 101.273 104.597C101.26 104.403 101.174 104.287 101.012 104.252C100.956 104.239 100.883 104.234 100.794 104.234C100.725 104.234 100.691 104.215 100.691 104.179C100.691 104.142 100.734 104.124 100.818 104.124C100.996 104.124 101.228 104.13 101.514 104.142C101.526 104.142 101.621 104.139 101.798 104.134C101.976 104.128 102.111 104.125 102.204 104.125C102.288 104.125 102.33 104.144 102.33 104.18C102.33 104.217 102.294 104.235 102.222 104.235C102.174 104.235 102.115 104.241 102.046 104.254C101.909 104.277 101.835 104.393 101.822 104.598C101.814 104.732 101.809 105.159 101.809 105.881V106.529C101.809 106.94 101.777 107.274 101.712 107.527C101.624 107.878 101.464 108.153 101.234 108.351C100.894 108.641 100.475 108.786 99.9747 108.786C99.3847 108.786 98.9369 108.647 98.6314 108.368C98.2723 108.046 98.0921 107.51 98.0921 106.764L98.0991 106.763Z" fill="black"/>
<path d="M103.51 106.944V105.878C103.51 105.156 103.506 104.728 103.497 104.596C103.484 104.401 103.399 104.287 103.237 104.251C103.18 104.238 103.101 104.232 103 104.232C102.931 104.232 102.897 104.214 102.897 104.177C102.897 104.141 102.941 104.123 103.031 104.123C103.156 104.123 103.32 104.125 103.521 104.131C103.722 104.137 103.836 104.139 103.86 104.139C103.929 104.139 104.073 104.137 104.293 104.131C104.512 104.125 104.653 104.123 104.714 104.123C105.202 104.123 105.573 104.21 105.827 104.383C105.929 104.452 106.018 104.555 106.094 104.691C106.191 104.853 106.239 105.027 106.239 105.212C106.239 105.684 105.973 106.136 105.439 106.568C105.878 107.126 106.12 107.427 106.165 107.477C106.399 107.771 106.595 107.999 106.753 108.161C106.975 108.391 107.2 108.529 107.43 108.572C107.478 108.576 107.524 108.581 107.569 108.585C107.638 108.593 107.672 108.612 107.672 108.64C107.672 108.681 107.634 108.7 107.557 108.7H106.982C106.692 108.7 106.475 108.662 106.334 108.585C106.137 108.479 105.86 108.184 105.505 107.695C105.332 107.449 105.132 107.17 104.905 106.86C104.881 106.832 104.845 106.818 104.797 106.818H104.27C104.238 106.818 104.222 106.833 104.222 106.866V106.95C104.222 107.632 104.232 108.061 104.252 108.237C104.276 108.441 104.355 108.551 104.488 108.568C104.609 108.583 104.708 108.592 104.785 108.592C104.833 108.592 104.859 108.607 104.859 108.64C104.859 108.681 104.818 108.7 104.738 108.7C104.601 108.7 104.419 108.697 104.195 108.692C103.972 108.686 103.856 108.683 103.848 108.683C103.82 108.683 103.713 108.686 103.527 108.692C103.341 108.697 103.201 108.7 103.108 108.7C103.028 108.7 102.987 108.681 102.987 108.64C102.987 108.612 103.031 108.593 103.121 108.585C103.182 108.576 103.242 108.571 103.303 108.567C103.396 108.547 103.453 108.436 103.479 108.233C103.498 108.075 103.508 107.646 103.508 106.943L103.51 106.944ZM104.224 104.517V106.357C104.224 106.418 104.242 106.454 104.279 106.466C104.391 106.506 104.545 106.526 104.739 106.526C104.933 106.526 105.076 106.492 105.168 106.423C105.406 106.25 105.526 105.947 105.526 105.515C105.526 105.132 105.418 104.839 105.199 104.638C105.026 104.484 104.826 104.408 104.6 104.408C104.405 104.408 104.291 104.421 104.255 104.445C104.235 104.458 104.225 104.482 104.225 104.518L104.224 104.517Z" fill="black"/>
<path d="M109.861 108.783C109.063 108.783 108.439 108.521 107.991 107.996C107.612 107.557 107.422 107.027 107.422 106.411C107.422 105.794 107.612 105.277 107.991 104.836C108.447 104.304 109.091 104.038 109.922 104.038C110.672 104.038 111.268 104.242 111.707 104.649C112.146 105.058 112.367 105.608 112.367 106.302C112.367 106.997 112.141 107.601 111.69 108.064C111.225 108.544 110.617 108.785 109.862 108.785L109.861 108.783ZM110.114 108.482C110.454 108.482 110.74 108.375 110.973 108.161C111.337 107.834 111.518 107.289 111.518 106.526C111.518 105.864 111.347 105.328 111.004 104.915C110.673 104.524 110.254 104.328 109.745 104.328C109.33 104.328 108.995 104.455 108.74 104.71C108.418 105.032 108.256 105.538 108.256 106.223C108.256 106.874 108.422 107.406 108.753 107.822C109.096 108.261 109.55 108.482 110.114 108.482Z" fill="black"/>
<path d="M113.692 106.944V105.878C113.692 105.156 113.688 104.728 113.68 104.596C113.667 104.401 113.581 104.287 113.419 104.251C113.363 104.238 113.284 104.232 113.183 104.232C113.114 104.232 113.08 104.214 113.08 104.177C113.08 104.141 113.123 104.123 113.214 104.123C113.335 104.123 113.499 104.125 113.706 104.131C113.915 104.137 114.04 104.139 114.085 104.139C114.165 104.139 114.308 104.137 114.512 104.131C114.716 104.125 114.867 104.123 114.962 104.123C115.471 104.123 115.847 104.238 116.089 104.468C116.29 104.658 116.392 104.897 116.392 105.188C116.392 105.617 116.251 105.967 115.971 106.242C115.69 106.516 115.334 106.653 114.902 106.653C114.837 106.653 114.795 106.652 114.775 106.647C114.727 106.639 114.702 106.621 114.702 106.592C114.702 106.549 114.758 106.526 114.871 106.526C115.061 106.526 115.238 106.437 115.403 106.26C115.589 106.059 115.682 105.814 115.682 105.528C115.682 105.136 115.562 104.834 115.324 104.62C115.151 104.462 114.948 104.383 114.719 104.383C114.606 104.383 114.53 104.39 114.492 104.404C114.454 104.418 114.434 104.458 114.434 104.522V106.944C114.434 107.63 114.444 108.062 114.464 108.24C114.488 108.438 114.567 108.547 114.701 108.567C114.817 108.582 114.92 108.59 115.009 108.59C115.074 108.59 115.106 108.606 115.106 108.638C115.106 108.679 115.068 108.699 114.991 108.699C114.837 108.699 114.65 108.696 114.43 108.69C114.211 108.685 114.084 108.682 114.051 108.682C114.015 108.682 113.901 108.685 113.709 108.69C113.518 108.696 113.377 108.699 113.288 108.699C113.208 108.699 113.167 108.679 113.167 108.638C113.167 108.61 113.211 108.592 113.301 108.583C113.361 108.575 113.422 108.569 113.483 108.565C113.575 108.545 113.633 108.434 113.659 108.231C113.678 108.074 113.688 107.644 113.688 106.942L113.692 106.944Z" fill="black"/>
<path d="M117.657 106.944V105.878C117.657 105.156 117.653 104.728 117.645 104.595C117.632 104.401 117.546 104.287 117.384 104.25C117.328 104.237 117.249 104.232 117.147 104.232C117.078 104.232 117.045 104.214 117.045 104.177C117.045 104.14 117.088 104.122 117.178 104.122C117.3 104.122 117.464 104.125 117.671 104.13C117.88 104.136 118.005 104.139 118.05 104.139C119.006 104.139 119.512 104.138 119.564 104.133C119.669 104.125 119.755 104.114 119.824 104.097C119.893 104.081 119.926 104.073 119.921 104.073C119.945 104.073 119.958 104.091 119.958 104.128C119.958 104.132 119.952 104.169 119.94 104.236C119.927 104.316 119.919 104.412 119.913 104.521C119.907 104.629 119.896 104.763 119.879 104.92C119.871 104.965 119.851 104.987 119.819 104.987C119.79 104.987 119.774 104.964 119.767 104.92C119.761 104.877 119.755 104.833 119.751 104.794C119.747 104.753 119.738 104.718 119.727 104.685C119.678 104.568 119.543 104.495 119.32 104.467C119.182 104.452 118.895 104.443 118.457 104.443C118.429 104.443 118.415 104.463 118.415 104.504V106.036C118.415 106.081 118.429 106.102 118.457 106.102C119.012 106.102 119.337 106.098 119.43 106.089C119.499 106.085 119.551 106.079 119.588 106.071C119.648 106.055 119.693 106.03 119.721 105.998C119.771 105.946 119.803 105.919 119.819 105.919C119.847 105.919 119.861 105.934 119.861 105.967C119.861 105.971 119.855 106.012 119.843 106.088C119.83 106.181 119.82 106.288 119.812 106.409C119.795 106.638 119.788 106.773 119.788 106.814C119.788 106.89 119.769 106.93 119.733 106.93C119.696 106.93 119.678 106.909 119.678 106.866C119.678 106.824 119.669 106.754 119.654 106.658C119.622 106.521 119.507 106.443 119.313 106.421C119.199 106.409 118.912 106.403 118.45 106.403C118.426 106.403 118.413 106.423 118.413 106.464V107.88C118.422 108.094 118.47 108.232 118.556 108.294C118.643 108.358 118.839 108.389 119.143 108.389C119.419 108.389 119.609 108.365 119.714 108.315C119.857 108.251 119.947 108.101 119.988 107.868C120 107.807 120.021 107.776 120.054 107.776C120.086 107.776 120.102 107.813 120.102 107.884C120.102 108.131 120.075 108.355 120.023 108.556C120.003 108.629 119.975 108.673 119.938 108.69C119.902 108.707 119.821 108.714 119.696 108.714C119.346 108.714 118.996 108.708 118.649 108.696C118.301 108.683 118.091 108.677 118.019 108.677C117.982 108.677 117.868 108.68 117.677 108.686C117.485 108.691 117.345 108.694 117.256 108.694C117.176 108.694 117.135 108.674 117.135 108.634C117.135 108.605 117.178 108.587 117.269 108.579C117.329 108.57 117.39 108.565 117.45 108.56C117.543 108.541 117.601 108.429 117.626 108.227C117.646 108.069 117.656 107.639 117.656 106.937L117.657 106.944Z" fill="black"/>
<path d="M123.082 107.119H121.732C121.708 107.119 121.69 107.134 121.677 107.166L121.35 108.032C121.29 108.194 121.259 108.317 121.259 108.401C121.259 108.527 121.339 108.589 121.501 108.589H121.592C121.653 108.589 121.684 108.604 121.684 108.636C121.684 108.677 121.65 108.697 121.581 108.697C121.516 108.697 121.408 108.694 121.257 108.689C121.107 108.683 121 108.68 120.939 108.68C120.588 108.693 120.35 108.698 120.225 108.698C120.149 108.698 120.11 108.679 120.11 108.638C120.11 108.605 120.134 108.59 120.183 108.59C120.248 108.59 120.31 108.586 120.37 108.577C120.5 108.562 120.604 108.504 120.686 108.408C120.75 108.332 120.816 108.207 120.885 108.032L122.405 104.23C122.47 104.069 122.526 103.988 122.574 103.988C122.617 103.988 122.668 104.053 122.724 104.183C123.096 105.119 123.596 106.36 124.226 107.906C124.394 108.306 124.572 108.525 124.758 108.566C124.831 108.582 124.915 108.59 125.013 108.59C125.065 108.59 125.091 108.605 125.091 108.638C125.091 108.662 125.072 108.679 125.031 108.686C124.99 108.694 124.918 108.698 124.813 108.698C124.313 108.698 123.931 108.694 123.668 108.686C123.547 108.681 123.486 108.666 123.486 108.638C123.486 108.605 123.514 108.587 123.571 108.583C123.636 108.563 123.654 108.517 123.626 108.444L123.141 107.161C123.129 107.133 123.109 107.119 123.081 107.119H123.082ZM121.853 106.816H122.967C122.995 106.816 123.005 106.803 122.996 106.779L122.451 105.284C122.443 105.247 122.433 105.229 122.42 105.229C122.405 105.229 122.392 105.247 122.384 105.284L121.826 106.774C121.818 106.802 121.826 106.816 121.85 106.816H121.853Z" fill="black"/>
<path d="M126 105.334L126.066 107.877C126.079 108.281 126.149 108.505 126.277 108.549C126.29 108.553 126.369 108.563 126.514 108.58C126.635 108.595 126.695 108.617 126.695 108.641C126.695 108.681 126.649 108.701 126.556 108.701C126.402 108.701 126.243 108.698 126.077 108.693C125.911 108.687 125.821 108.684 125.805 108.684C125.81 108.684 125.732 108.687 125.576 108.693C125.418 108.698 125.277 108.701 125.152 108.701C125.063 108.701 125.018 108.681 125.018 108.641C125.018 108.612 125.07 108.594 125.176 108.586C125.249 108.577 125.32 108.57 125.387 108.562C125.463 108.538 125.514 108.473 125.538 108.367C125.558 108.274 125.57 108.089 125.575 107.81L125.629 104.226C125.634 104.089 125.659 104.021 125.708 104.021C125.741 104.021 125.815 104.082 125.932 104.208C126.263 104.563 126.888 105.21 127.809 106.151C128.22 106.579 128.665 107.039 129.141 107.531H129.171L129.11 104.813C129.106 104.664 129.098 104.561 129.086 104.505C129.054 104.384 128.993 104.305 128.905 104.268C128.844 104.244 128.737 104.232 128.584 104.232C128.519 104.232 128.486 104.213 128.486 104.177C128.486 104.14 128.539 104.122 128.644 104.122C128.765 104.122 128.91 104.125 129.081 104.13C129.25 104.136 129.35 104.139 129.378 104.139C129.382 104.139 129.452 104.136 129.589 104.13C129.726 104.125 129.854 104.122 129.971 104.122C130.064 104.122 130.11 104.14 130.11 104.177C130.11 104.213 130.073 104.232 130.002 104.232C129.8 104.232 129.676 104.298 129.633 104.432C129.613 104.505 129.6 104.615 129.596 104.764L129.53 108.584C129.526 108.709 129.5 108.771 129.451 108.771C129.406 108.771 129.338 108.726 129.245 108.638C128.858 108.255 128.263 107.66 127.46 106.858C127.185 106.587 126.877 106.266 126.533 105.895C126.36 105.705 126.188 105.517 126.019 105.331H126.001L126 105.334Z" fill="black"/>
<path d="M135.438 108.783C134.558 108.783 133.866 108.565 133.365 108.127C132.862 107.689 132.612 107.094 132.612 106.339C132.612 105.664 132.847 105.112 133.319 104.683C133.79 104.254 134.431 104.038 135.241 104.038C135.52 104.038 135.814 104.058 136.121 104.099C136.263 104.127 136.464 104.161 136.728 104.201C136.788 104.206 136.819 104.23 136.819 104.275C136.819 104.287 136.814 104.321 136.804 104.377C136.794 104.451 136.785 104.527 136.781 104.607C136.776 104.784 136.769 105.003 136.759 105.26C136.75 105.353 136.726 105.4 136.685 105.4C136.645 105.4 136.625 105.356 136.625 105.266C136.621 105.056 136.542 104.87 136.388 104.708C136.283 104.6 136.124 104.511 135.91 104.442C135.68 104.369 135.429 104.334 135.159 104.334C134.675 104.334 134.296 104.459 134.021 104.71C133.65 105.049 133.464 105.572 133.464 106.278C133.464 106.944 133.679 107.484 134.111 107.895C134.487 108.254 134.907 108.434 135.37 108.434C135.628 108.434 135.828 108.419 135.97 108.386C136.184 108.338 136.353 108.241 136.478 108.096C136.587 107.975 136.656 107.841 136.684 107.696C136.7 107.616 136.726 107.575 136.763 107.575C136.8 107.575 136.818 107.605 136.818 107.665C136.818 107.71 136.804 107.827 136.776 108.016C136.743 108.226 136.714 108.375 136.688 108.464C136.662 108.552 136.608 108.613 136.528 108.645C136.298 108.738 135.935 108.785 135.438 108.785V108.783Z" fill="black"/>
<path d="M139.894 108.783C139.095 108.783 138.471 108.521 138.024 107.996C137.645 107.557 137.455 107.027 137.455 106.411C137.455 105.794 137.645 105.277 138.024 104.836C138.48 104.304 139.123 104.038 139.954 104.038C140.705 104.038 141.3 104.242 141.74 104.649C142.179 105.058 142.4 105.608 142.4 106.302C142.4 106.997 142.173 107.601 141.723 108.064C141.258 108.544 140.65 108.785 139.895 108.785L139.894 108.783ZM140.149 108.482C140.488 108.482 140.774 108.375 141.007 108.161C141.371 107.834 141.552 107.289 141.552 106.526C141.552 105.864 141.381 105.328 141.038 104.915C140.708 104.524 140.288 104.328 139.78 104.328C139.364 104.328 139.029 104.455 138.774 104.71C138.452 105.032 138.29 105.538 138.29 106.223C138.29 106.874 138.456 107.406 138.787 107.822C139.13 108.261 139.584 108.482 140.149 108.482Z" fill="black"/>
<path d="M143.35 108.093L143.95 104.146C143.965 104.04 144.001 103.988 144.053 103.988C144.101 103.988 144.156 104.05 144.216 104.176L145.869 107.59L147.515 104.133C147.559 104.036 147.604 103.988 147.649 103.988C147.701 103.988 147.738 104.05 147.757 104.176L148.308 107.917C148.336 108.118 148.371 108.263 148.411 108.353C148.452 108.442 148.515 108.501 148.605 108.529C148.739 108.57 148.863 108.59 148.981 108.59C149.046 108.59 149.078 108.604 149.078 108.632C149.078 108.677 149.026 108.698 148.921 108.698C148.408 108.698 147.998 108.686 147.691 108.662C147.574 108.653 147.515 108.632 147.515 108.596C147.515 108.567 147.536 108.545 147.579 108.529C147.621 108.514 147.632 108.427 147.612 108.269L147.249 105.605H147.225L145.906 108.359C145.796 108.586 145.721 108.698 145.682 108.698C145.645 108.698 145.575 108.597 145.471 108.396C145.088 107.663 144.855 107.204 144.775 107.019C144.639 106.72 144.427 106.271 144.146 105.672H144.122L143.806 108.082C143.794 108.175 143.788 108.269 143.788 108.366C143.788 108.463 143.849 108.532 143.97 108.56C144.058 108.58 144.143 108.59 144.225 108.59C144.285 108.59 144.316 108.604 144.316 108.632C144.316 108.677 144.268 108.698 144.171 108.698C144.074 108.698 143.95 108.696 143.799 108.69C143.649 108.684 143.56 108.682 143.536 108.682C143.504 108.682 143.413 108.684 143.267 108.69C143.119 108.696 143.009 108.698 142.938 108.698C142.866 108.698 142.829 108.676 142.829 108.632C142.829 108.604 142.861 108.59 142.926 108.59C142.991 108.59 143.052 108.584 143.108 108.572C143.229 108.548 143.312 108.389 143.356 108.093H143.35Z" fill="black"/>
<path d="M150.795 106.454V106.944C150.795 107.625 150.805 108.056 150.826 108.234C150.85 108.435 150.931 108.546 151.064 108.567C151.183 108.583 151.284 108.591 151.37 108.591C151.439 108.591 151.474 108.607 151.474 108.639C151.474 108.68 151.429 108.7 151.34 108.7C151.195 108.7 151.014 108.697 150.795 108.691C150.577 108.686 150.452 108.683 150.419 108.683C150.374 108.683 150.258 108.686 150.066 108.691C149.875 108.697 149.737 108.7 149.651 108.7C149.565 108.7 149.524 108.68 149.524 108.639C149.524 108.611 149.569 108.593 149.658 108.584C149.714 108.576 149.773 108.57 149.834 108.566C149.927 108.546 149.986 108.435 150.01 108.232C150.029 108.075 150.039 107.645 150.039 106.942V105.877C150.039 105.154 150.035 104.726 150.027 104.594C150.014 104.399 149.928 104.285 149.766 104.249C149.71 104.236 149.631 104.23 149.53 104.23C149.461 104.23 149.427 104.215 149.427 104.183C149.427 104.142 149.473 104.122 149.566 104.122C149.683 104.122 149.845 104.125 150.053 104.13C150.262 104.136 150.39 104.139 150.438 104.139C151.418 104.139 151.951 104.138 152.036 104.133C152.101 104.133 152.184 104.125 152.284 104.109C152.36 104.085 152.392 104.073 152.381 104.073C152.409 104.073 152.423 104.091 152.423 104.128C152.423 104.14 152.418 104.17 152.405 104.218C152.392 104.278 152.382 104.339 152.375 104.399C152.367 104.536 152.357 104.701 152.346 104.889C152.337 104.946 152.318 104.974 152.285 104.974C152.249 104.974 152.229 104.942 152.225 104.878C152.225 104.778 152.212 104.702 152.188 104.651C152.136 104.536 152.002 104.475 151.787 104.473L150.85 104.454C150.814 104.454 150.795 104.483 150.795 104.539V106.041C150.795 106.078 150.81 106.095 150.838 106.095H151.616C151.787 106.095 151.881 106.093 151.902 106.089C152.019 106.076 152.102 106.041 152.151 105.981C152.184 105.94 152.211 105.92 152.23 105.92C152.254 105.92 152.267 105.938 152.267 105.975C152.267 105.984 152.261 106.027 152.249 106.109C152.236 106.202 152.226 106.282 152.218 106.351C152.201 106.517 152.194 106.664 152.194 106.793C152.194 106.869 152.174 106.909 152.133 106.909C152.109 106.909 152.091 106.871 152.078 106.793C152.066 106.741 152.056 106.688 152.047 106.636C152.002 106.51 151.899 106.438 151.737 106.417C151.64 106.405 151.34 106.399 150.838 106.399C150.81 106.399 150.795 106.417 150.795 106.454Z" fill="black"/>
<path d="M155.585 108.783C154.786 108.783 154.163 108.521 153.715 107.996C153.336 107.557 153.146 107.027 153.146 106.411C153.146 105.794 153.336 105.277 153.715 104.836C154.171 104.304 154.815 104.038 155.645 104.038C156.396 104.038 156.992 104.242 157.431 104.649C157.87 105.058 158.091 105.608 158.091 106.302C158.091 106.997 157.865 107.601 157.413 108.064C156.948 108.544 156.34 108.785 155.585 108.785V108.783ZM155.838 108.482C156.178 108.482 156.464 108.375 156.699 108.161C157.062 107.834 157.244 107.289 157.244 106.526C157.244 105.864 157.072 105.328 156.73 104.915C156.399 104.524 155.979 104.328 155.471 104.328C155.055 104.328 154.72 104.455 154.465 104.71C154.143 105.032 153.981 105.538 153.981 106.223C153.981 106.874 154.146 107.406 154.478 107.822C154.822 108.261 155.275 108.482 155.84 108.482H155.838Z" fill="black"/>
<path d="M159.416 106.944V105.878C159.416 105.156 159.412 104.728 159.403 104.596C159.391 104.401 159.305 104.287 159.143 104.251C159.086 104.238 159.008 104.232 158.906 104.232C158.837 104.232 158.803 104.214 158.803 104.177C158.803 104.141 158.847 104.123 158.937 104.123C159.063 104.123 159.226 104.125 159.427 104.131C159.629 104.137 159.743 104.139 159.767 104.139C159.836 104.139 159.979 104.137 160.199 104.131C160.419 104.125 160.559 104.123 160.62 104.123C161.109 104.123 161.479 104.21 161.734 104.383C161.835 104.452 161.924 104.555 162 104.691C162.097 104.853 162.145 105.027 162.145 105.212C162.145 105.684 161.879 106.136 161.347 106.568C161.786 107.126 162.028 107.427 162.073 107.477C162.307 107.771 162.503 107.999 162.66 108.161C162.883 108.391 163.108 108.529 163.339 108.572C163.387 108.576 163.433 108.581 163.478 108.585C163.547 108.593 163.581 108.612 163.581 108.64C163.581 108.681 163.543 108.7 163.466 108.7H162.891C162.601 108.7 162.384 108.662 162.243 108.585C162.046 108.479 161.769 108.184 161.414 107.695C161.241 107.449 161.041 107.17 160.814 106.86C160.79 106.832 160.754 106.818 160.706 106.818H160.179C160.147 106.818 160.131 106.833 160.131 106.866V106.95C160.131 107.632 160.141 108.061 160.161 108.237C160.185 108.441 160.264 108.551 160.397 108.568C160.519 108.583 160.617 108.592 160.695 108.592C160.742 108.592 160.768 108.607 160.768 108.64C160.768 108.681 160.727 108.7 160.647 108.7C160.51 108.7 160.328 108.697 160.105 108.692C159.881 108.686 159.764 108.683 159.757 108.683C159.729 108.683 159.622 108.686 159.436 108.692C159.25 108.697 159.11 108.7 159.017 108.7C158.937 108.7 158.896 108.681 158.896 108.64C158.896 108.612 158.941 108.593 159.03 108.585C159.091 108.576 159.151 108.571 159.212 108.567C159.305 108.547 159.364 108.436 159.388 108.233C159.408 108.075 159.417 107.646 159.417 106.943L159.416 106.944ZM160.13 104.517V106.357C160.13 106.418 160.148 106.454 160.185 106.466C160.297 106.506 160.451 106.526 160.645 106.526C160.84 106.526 160.982 106.492 161.075 106.423C161.313 106.25 161.432 105.947 161.432 105.515C161.432 105.132 161.324 104.839 161.106 104.638C160.933 104.484 160.733 104.408 160.506 104.408C160.312 104.408 160.197 104.421 160.161 104.445C160.141 104.458 160.131 104.482 160.131 104.518L160.13 104.517Z" fill="black"/>
<path d="M164.798 106.944V104.462L163.895 104.486C163.577 104.494 163.381 104.552 163.308 104.662C163.256 104.738 163.221 104.81 163.205 104.873C163.192 104.921 163.171 104.946 163.139 104.946C163.102 104.946 163.084 104.914 163.084 104.849C163.084 104.741 163.126 104.508 163.211 104.154C163.23 104.078 163.254 104.038 163.284 104.038C163.297 104.038 163.329 104.049 163.381 104.072C163.433 104.094 163.488 104.107 163.544 104.111C163.763 104.131 163.964 104.142 164.15 104.142H166.547C166.704 104.142 166.844 104.134 166.965 104.116C167.086 104.097 167.141 104.089 167.128 104.089C167.16 104.089 167.176 104.131 167.176 104.216C167.176 104.255 167.173 104.368 167.167 104.552C167.162 104.737 167.156 104.859 167.152 104.92C167.148 104.98 167.132 105.01 167.104 105.01C167.068 105.01 167.045 104.969 167.038 104.889L167.032 104.822C167.013 104.608 166.775 104.496 166.318 104.483L165.555 104.465V106.947C165.555 107.633 165.565 108.065 165.585 108.243C165.609 108.441 165.688 108.55 165.821 108.569C165.938 108.585 166.041 108.593 166.13 108.593C166.194 108.593 166.227 108.609 166.227 108.641C166.227 108.682 166.189 108.702 166.111 108.702C165.958 108.702 165.771 108.699 165.548 108.693C165.326 108.688 165.198 108.685 165.161 108.685C165.124 108.685 165.01 108.688 164.819 108.693C164.627 108.699 164.486 108.702 164.398 108.702C164.317 108.702 164.277 108.682 164.277 108.641C164.277 108.613 164.322 108.595 164.41 108.586C164.471 108.578 164.532 108.572 164.592 108.568C164.685 108.548 164.744 108.437 164.768 108.234C164.788 108.057 164.798 107.627 164.798 106.944Z" fill="black"/>
<path d="M172.268 108.783C171.388 108.783 170.697 108.565 170.194 108.127C169.691 107.689 169.441 107.094 169.441 106.339C169.441 105.664 169.676 105.112 170.148 104.683C170.619 104.254 171.26 104.038 172.07 104.038C172.348 104.038 172.643 104.058 172.95 104.099C173.092 104.127 173.293 104.161 173.557 104.201C173.617 104.206 173.648 104.23 173.648 104.275C173.648 104.287 173.642 104.321 173.633 104.377C173.623 104.451 173.614 104.527 173.61 104.607C173.604 104.784 173.597 105.003 173.588 105.26C173.579 105.353 173.555 105.4 173.514 105.4C173.473 105.4 173.454 105.356 173.454 105.266C173.45 105.056 173.371 104.87 173.217 104.708C173.112 104.6 172.952 104.511 172.738 104.442C172.509 104.369 172.258 104.334 171.988 104.334C171.504 104.334 171.125 104.459 170.85 104.71C170.478 105.049 170.293 105.572 170.293 106.278C170.293 106.944 170.508 107.484 170.94 107.895C171.316 108.254 171.736 108.434 172.199 108.434C172.457 108.434 172.657 108.419 172.799 108.386C173.013 108.338 173.182 108.241 173.307 108.096C173.416 107.975 173.485 107.841 173.513 107.696C173.528 107.616 173.555 107.575 173.592 107.575C173.628 107.575 173.647 107.605 173.647 107.665C173.647 107.71 173.633 107.827 173.604 108.016C173.572 108.226 173.542 108.375 173.517 108.464C173.49 108.552 173.437 108.613 173.357 108.645C173.127 108.738 172.764 108.785 172.267 108.785L172.268 108.783Z" fill="black"/>
<path d="M174.69 106.763V105.878C174.69 105.156 174.686 104.728 174.677 104.596C174.665 104.401 174.579 104.287 174.417 104.251C174.36 104.238 174.282 104.232 174.18 104.232C174.111 104.232 174.077 104.214 174.077 104.177C174.077 104.141 174.121 104.123 174.211 104.123C174.328 104.123 174.493 104.125 174.704 104.131C174.915 104.137 175.046 104.139 175.094 104.139C175.138 104.139 175.255 104.137 175.442 104.131C175.629 104.125 175.761 104.123 175.839 104.123C175.928 104.123 175.973 104.141 175.973 104.177C175.973 104.214 175.94 104.232 175.876 104.232C175.828 104.232 175.769 104.238 175.7 104.251C175.563 104.275 175.488 104.39 175.476 104.596C175.467 104.729 175.463 105.158 175.463 105.881V106.73C175.463 107.465 175.621 107.962 175.935 108.222C176.136 108.388 176.388 108.471 176.691 108.471C177.03 108.471 177.308 108.362 177.526 108.143C177.675 107.993 177.776 107.779 177.829 107.501C177.861 107.315 177.876 107.027 177.876 106.64V105.883C177.876 105.159 177.872 104.731 177.864 104.597C177.851 104.403 177.765 104.287 177.603 104.252C177.547 104.239 177.474 104.234 177.385 104.234C177.316 104.234 177.282 104.215 177.282 104.179C177.282 104.142 177.324 104.124 177.409 104.124C177.586 104.124 177.819 104.13 178.105 104.142C178.117 104.142 178.212 104.139 178.389 104.134C178.566 104.128 178.702 104.125 178.795 104.125C178.879 104.125 178.921 104.144 178.921 104.18C178.921 104.217 178.885 104.235 178.813 104.235C178.765 104.235 178.706 104.241 178.637 104.254C178.5 104.277 178.426 104.393 178.413 104.598C178.405 104.732 178.4 105.159 178.4 105.881V106.529C178.4 106.94 178.368 107.274 178.303 107.527C178.214 107.878 178.055 108.153 177.824 108.351C177.485 108.641 177.065 108.786 176.566 108.786C175.977 108.786 175.528 108.647 175.222 108.368C174.863 108.046 174.683 107.51 174.683 106.764L174.69 106.763Z" fill="black"/>
<path d="M180.102 106.945V105.879C180.102 105.157 180.098 104.729 180.089 104.597C180.077 104.402 180.009 104.29 179.884 104.257C179.815 104.242 179.746 104.233 179.675 104.233C179.605 104.233 179.57 104.214 179.57 104.173C179.57 104.14 179.618 104.125 179.715 104.125C179.795 104.125 179.933 104.128 180.13 104.133C180.326 104.139 180.45 104.142 180.502 104.142C180.546 104.142 180.66 104.139 180.841 104.133C181.023 104.128 181.157 104.125 181.241 104.125C181.326 104.125 181.368 104.14 181.368 104.173C181.368 104.214 181.338 104.233 181.281 104.233C181.223 104.233 181.16 104.239 181.092 104.252C180.957 104.276 180.882 104.391 180.871 104.597C180.862 104.73 180.86 105.157 180.86 105.879V106.945C180.86 107.668 180.868 108.11 180.884 108.272C180.899 108.449 180.979 108.548 181.123 108.569C181.238 108.584 181.341 108.593 181.429 108.593C181.492 108.593 181.524 108.608 181.524 108.641C181.524 108.682 181.486 108.701 181.409 108.701C181.255 108.701 181.068 108.699 180.848 108.693C180.629 108.687 180.501 108.684 180.464 108.684C180.427 108.684 180.313 108.687 180.122 108.693C179.93 108.699 179.789 108.701 179.701 108.701C179.621 108.701 179.58 108.682 179.58 108.641C179.58 108.613 179.625 108.594 179.713 108.586C179.774 108.577 179.835 108.572 179.895 108.568C179.992 108.548 180.05 108.448 180.071 108.268C180.091 108.089 180.101 107.647 180.101 106.945H180.102Z" fill="black"/>
<path d="M183.39 108.784C183.039 108.784 182.743 108.732 182.505 108.626C182.429 108.594 182.39 108.525 182.39 108.42C182.39 108.202 182.4 107.939 182.419 107.628C182.428 107.522 182.452 107.47 182.493 107.47C182.534 107.47 182.553 107.504 182.553 107.573C182.553 107.657 182.572 107.76 182.608 107.881C182.729 108.29 183.018 108.492 183.474 108.492C183.729 108.492 183.932 108.418 184.085 108.268C184.219 108.135 184.285 107.98 184.285 107.802C184.285 107.467 184.087 107.145 183.692 106.834L183.414 106.615C182.817 106.148 182.518 105.669 182.518 105.18C182.518 104.845 182.648 104.571 182.905 104.357C183.163 104.143 183.501 104.036 183.916 104.036C184.178 104.036 184.447 104.069 184.722 104.138C184.778 104.154 184.806 104.179 184.806 104.212C184.806 104.203 184.802 104.275 184.794 104.427C184.785 104.578 184.781 104.75 184.781 104.938C184.781 105.059 184.758 105.12 184.715 105.12C184.674 105.12 184.654 105.083 184.654 105.011C184.654 104.878 184.602 104.745 184.496 104.612C184.339 104.414 184.119 104.314 183.836 104.314C183.614 104.314 183.439 104.372 183.309 104.488C183.18 104.603 183.115 104.752 183.115 104.938C183.115 105.079 183.16 105.214 183.252 105.341C183.342 105.468 183.511 105.624 183.757 105.81L183.926 105.937C184.289 106.211 184.546 106.465 184.695 106.697C184.844 106.929 184.919 107.19 184.919 107.481C184.919 107.938 184.729 108.288 184.35 108.535C184.095 108.701 183.775 108.782 183.387 108.782L183.39 108.784Z" fill="black"/>
<path d="M186.362 106.945V105.879C186.362 105.157 186.358 104.729 186.349 104.597C186.337 104.402 186.269 104.29 186.144 104.257C186.075 104.242 186.006 104.233 185.935 104.233C185.865 104.233 185.83 104.214 185.83 104.173C185.83 104.14 185.877 104.125 185.975 104.125C186.055 104.125 186.193 104.128 186.39 104.133C186.586 104.139 186.71 104.142 186.762 104.142C186.805 104.142 186.919 104.139 187.101 104.133C187.283 104.128 187.417 104.125 187.501 104.125C187.585 104.125 187.628 104.14 187.628 104.173C187.628 104.214 187.598 104.233 187.54 104.233C187.483 104.233 187.419 104.239 187.352 104.252C187.217 104.276 187.142 104.391 187.131 104.597C187.122 104.73 187.119 105.157 187.119 105.879V106.945C187.119 107.668 187.128 108.11 187.143 108.272C187.159 108.449 187.239 108.548 187.383 108.569C187.498 108.584 187.601 108.593 187.688 108.593C187.752 108.593 187.784 108.608 187.784 108.641C187.784 108.682 187.746 108.701 187.669 108.701C187.515 108.701 187.328 108.699 187.108 108.693C186.888 108.687 186.76 108.684 186.724 108.684C186.687 108.684 186.573 108.687 186.382 108.693C186.19 108.699 186.049 108.701 185.961 108.701C185.88 108.701 185.839 108.682 185.839 108.641C185.839 108.613 185.885 108.594 185.973 108.586C186.034 108.577 186.094 108.572 186.155 108.568C186.252 108.548 186.31 108.448 186.331 108.268C186.351 108.089 186.36 107.647 186.36 106.945H186.362Z" fill="black"/>
<path d="M189.377 105.334L189.443 107.877C189.456 108.281 189.526 108.505 189.654 108.549C189.667 108.553 189.746 108.563 189.891 108.58C190.012 108.595 190.072 108.617 190.072 108.641C190.072 108.681 190.026 108.701 189.933 108.701C189.779 108.701 189.62 108.698 189.454 108.693C189.288 108.687 189.198 108.684 189.182 108.684C189.187 108.684 189.109 108.687 188.953 108.693C188.795 108.698 188.654 108.701 188.529 108.701C188.44 108.701 188.395 108.681 188.395 108.641C188.395 108.612 188.447 108.594 188.553 108.586C188.626 108.577 188.697 108.57 188.764 108.562C188.84 108.538 188.891 108.473 188.915 108.367C188.935 108.274 188.947 108.089 188.951 107.81L189.006 104.226C189.011 104.089 189.036 104.021 189.085 104.021C189.118 104.021 189.192 104.082 189.309 104.208C189.64 104.563 190.265 105.21 191.186 106.151C191.597 106.579 192.042 107.039 192.518 107.531H192.548L192.487 104.813C192.483 104.664 192.475 104.561 192.463 104.505C192.431 104.384 192.37 104.305 192.282 104.268C192.221 104.244 192.114 104.232 191.961 104.232C191.896 104.232 191.863 104.213 191.863 104.177C191.863 104.14 191.916 104.122 192.021 104.122C192.142 104.122 192.287 104.125 192.456 104.13C192.625 104.136 192.725 104.139 192.753 104.139C192.758 104.139 192.828 104.136 192.965 104.13C193.101 104.125 193.229 104.122 193.346 104.122C193.439 104.122 193.486 104.14 193.486 104.177C193.486 104.213 193.449 104.232 193.377 104.232C193.176 104.232 193.052 104.298 193.008 104.432C192.989 104.505 192.976 104.615 192.972 104.764L192.905 108.584C192.901 108.709 192.876 108.771 192.827 108.771C192.782 108.771 192.714 108.726 192.621 108.638C192.234 108.255 191.638 107.66 190.836 106.858C190.561 106.587 190.253 106.266 189.909 105.895C189.736 105.705 189.564 105.517 189.395 105.331H189.377V105.334Z" fill="black"/>
<path d="M194.831 106.944V105.878C194.831 105.156 194.826 104.728 194.818 104.595C194.805 104.401 194.719 104.287 194.557 104.25C194.501 104.237 194.422 104.232 194.321 104.232C194.252 104.232 194.218 104.214 194.218 104.177C194.218 104.14 194.262 104.122 194.352 104.122C194.473 104.122 194.638 104.125 194.845 104.13C195.053 104.136 195.178 104.139 195.223 104.139C196.18 104.139 196.685 104.138 196.737 104.133C196.841 104.125 196.929 104.114 196.998 104.097C197.067 104.081 197.099 104.073 197.095 104.073C197.119 104.073 197.131 104.091 197.131 104.128C197.131 104.132 197.126 104.169 197.113 104.236C197.1 104.316 197.092 104.412 197.086 104.521C197.081 104.629 197.069 104.763 197.053 104.92C197.044 104.965 197.024 104.987 196.992 104.987C196.964 104.987 196.947 104.964 196.94 104.92C196.934 104.877 196.929 104.833 196.924 104.794C196.92 104.753 196.912 104.718 196.9 104.685C196.853 104.568 196.716 104.495 196.494 104.467C196.356 104.452 196.068 104.443 195.63 104.443C195.602 104.443 195.588 104.463 195.588 104.504V106.036C195.588 106.081 195.602 106.102 195.63 106.102C196.185 106.102 196.51 106.098 196.603 106.089C196.672 106.085 196.724 106.079 196.761 106.071C196.822 106.055 196.867 106.03 196.895 105.998C196.944 105.946 196.976 105.919 196.992 105.919C197.02 105.919 197.034 105.934 197.034 105.967C197.034 105.971 197.029 106.012 197.016 106.088C197.003 106.181 196.993 106.288 196.985 106.409C196.968 106.638 196.961 106.773 196.961 106.814C196.961 106.89 196.943 106.93 196.906 106.93C196.869 106.93 196.851 106.909 196.851 106.866C196.851 106.824 196.843 106.754 196.827 106.658C196.795 106.521 196.681 106.443 196.486 106.421C196.372 106.409 196.085 106.403 195.623 106.403C195.599 106.403 195.587 106.423 195.587 106.464V107.88C195.595 108.094 195.642 108.232 195.729 108.294C195.816 108.358 196.012 108.389 196.316 108.389C196.592 108.389 196.782 108.365 196.888 108.315C197.03 108.251 197.12 108.101 197.161 107.868C197.174 107.807 197.195 107.776 197.227 107.776C197.26 107.776 197.275 107.813 197.275 107.884C197.275 108.131 197.248 108.355 197.196 108.556C197.176 108.629 197.148 108.673 197.112 108.69C197.075 108.707 196.995 108.714 196.869 108.714C196.519 108.714 196.17 108.708 195.822 108.696C195.474 108.683 195.264 108.677 195.192 108.677C195.156 108.677 195.042 108.68 194.85 108.686C194.659 108.691 194.518 108.694 194.429 108.694C194.349 108.694 194.308 108.674 194.308 108.634C194.308 108.605 194.353 108.587 194.442 108.579C194.502 108.57 194.563 108.565 194.624 108.56C194.716 108.541 194.776 108.429 194.8 108.227C194.819 108.069 194.829 107.639 194.829 106.937L194.831 106.944Z" fill="black"/>
</g>
<defs>
<filter id="filter0_d_97_9621" x="0.399902" y="0" width="290.4" height="191" filterUnits="userSpaceOnUse" color-interpolation-filters="sRGB">
<feFlood flood-opacity="0" result="BackgroundImageFix"/>
<feColorMatrix in="SourceAlpha" type="matrix" values="0 0 0 0 0 0 0 0 0 0 0 0 0 0 0 0 0 0 127 0" result="hardAlpha"/>
<feOffset dy="4"/>
<feGaussianBlur stdDeviation="15"/>
<feComposite in2="hardAlpha" operator="out"/>
<feColorMatrix type="matrix" values="0 0 0 0 0 0 0 0 0 0 0 0 0 0 0 0 0 0 0.08 0"/>
<feBlend mode="normal" in2="BackgroundImageFix" result="effect1_dropShadow_97_9621"/>
<feBlend mode="normal" in="SourceGraphic" in2="effect1_dropShadow_97_9621" result="shape"/>
</filter>
</defs>
</svg>
