<svg width="231" height="131" viewBox="0 0 231 131" fill="none" xmlns="http://www.w3.org/2000/svg">
<path d="M164.706 85.2757H166.242C166.301 85.6889 166.471 85.9968 166.751 86.1977C167.032 86.397 167.436 86.4975 167.968 86.4975C168.421 86.4975 168.761 86.4181 168.992 86.2561C169.222 86.0973 169.336 85.8591 169.336 85.5431C169.336 85.0829 168.677 84.7054 167.357 84.404L167.311 84.3926C167.275 84.3862 167.222 84.3732 167.151 84.3554C166.443 84.2014 165.94 84.0297 165.64 83.8368C165.371 83.6667 165.168 83.435 165.029 83.1466C164.889 82.8581 164.818 82.5179 164.818 82.1241C164.818 81.3885 165.069 80.8246 165.569 80.4308C166.069 80.0403 166.792 79.8442 167.736 79.8442C168.62 79.8442 169.313 80.0517 169.811 80.4697C170.309 80.8894 170.573 81.476 170.601 82.2359H169.105C169.076 81.8713 168.935 81.5926 168.685 81.4014C168.43 81.2102 168.069 81.113 167.6 81.113C167.191 81.113 166.876 81.1924 166.656 81.3528C166.435 81.5116 166.323 81.7368 166.323 82.0317C166.323 82.4336 166.753 82.7318 167.613 82.9311C167.846 82.9845 168.028 83.0267 168.158 83.0591C168.708 83.2 169.102 83.3102 169.331 83.388C169.563 83.4658 169.765 83.5533 169.936 83.6505C170.242 83.8223 170.473 84.0475 170.628 84.3311C170.784 84.613 170.86 84.9517 170.86 85.3454C170.86 86.1329 170.594 86.7422 170.064 87.1748C169.532 87.6075 168.786 87.8262 167.817 87.8262C166.849 87.8262 166.117 87.6042 165.577 87.1635C165.035 86.7227 164.743 86.094 164.704 85.2806M157.25 87.6123V80.05H158.881L161.955 85.245V80.05H163.493V87.6123H161.883L158.788 82.4158V87.6123H157.252H157.25ZM148.617 83.8385C148.617 82.6167 148.951 81.6477 149.616 80.9315C150.283 80.2137 151.182 79.8556 152.312 79.8556C153.443 79.8556 154.343 80.2153 155.013 80.9331C155.683 81.6526 156.019 82.6199 156.019 83.8385C156.019 85.057 155.683 86.0276 155.013 86.7454C154.343 87.4649 153.445 87.823 152.312 87.823C151.18 87.823 150.283 87.4632 149.616 86.7454C148.951 86.026 148.617 85.057 148.617 83.8385ZM150.205 83.8385C150.205 84.6713 150.392 85.3179 150.762 85.7781C151.132 86.2382 151.649 86.4683 152.312 86.4683C152.976 86.4683 153.508 86.2382 153.879 85.7781C154.254 85.3162 154.441 84.6697 154.441 83.8385C154.441 83.0072 154.254 82.3607 153.879 81.9005C153.506 81.4387 152.984 81.2102 152.312 81.2102C151.641 81.2102 151.132 81.4387 150.762 81.8989C150.39 82.3574 150.205 83.0056 150.205 83.8385ZM145.764 80.05H147.323V87.6123H145.764V80.05ZM141.027 87.6123V81.4014H138.78V80.05H144.813V81.4014H142.584V87.6123H141.027ZM138.214 85.0149C138.157 85.8737 137.825 86.5575 137.22 87.0646C136.615 87.5702 135.825 87.823 134.853 87.823C133.732 87.823 132.861 87.473 132.24 86.7746C131.618 86.0778 131.307 85.0975 131.307 83.8385C131.307 82.5794 131.625 81.5667 132.259 80.8813C132.892 80.1959 133.805 79.854 134.992 79.854C135.959 79.854 136.723 80.0889 137.283 80.5605C137.843 81.0304 138.151 81.6963 138.206 82.5551H136.668C136.603 82.1257 136.428 81.8017 136.143 81.5764C135.859 81.3528 135.474 81.2394 134.991 81.2394C134.306 81.2394 133.784 81.4598 133.429 81.9021C133.072 82.3445 132.893 82.9878 132.893 83.8368C132.893 84.6859 133.072 85.2936 133.425 85.7408C133.782 86.1896 134.285 86.4149 134.941 86.4149C135.411 86.4149 135.8 86.2933 136.102 86.0535C136.404 85.8121 136.598 85.4669 136.688 85.0149H138.214ZM124.033 80.029H125.605V84.7734C125.605 85.36 125.72 85.7878 125.954 86.0551C126.187 86.3241 126.556 86.4586 127.063 86.4586C127.571 86.4586 127.952 86.3257 128.186 86.0584C128.421 85.791 128.539 85.3632 128.539 84.775V80.0306H130.097V84.9452C130.097 85.872 129.837 86.5834 129.318 87.0792C128.799 87.5751 128.051 87.8246 127.075 87.8246C126.098 87.8246 125.339 87.5767 124.817 87.0825C124.294 86.5882 124.031 85.8753 124.031 84.9452V80.0306L124.033 80.029ZM116.565 87.6123V80.05H120.236C121.061 80.05 121.674 80.2283 122.069 80.5799C122.468 80.9331 122.666 81.4711 122.666 82.197C122.666 82.6572 122.57 83.0429 122.375 83.3524C122.182 83.6602 121.902 83.8709 121.54 83.9843C121.869 84.101 122.104 84.2776 122.242 84.519C122.382 84.7588 122.46 85.1315 122.481 85.6387L122.513 86.5315V86.5639C122.52 87.0128 122.619 87.2882 122.805 87.3838V87.6156H121.097C121.043 87.5086 121.003 87.3774 120.972 87.2218C120.944 87.0663 120.927 86.8799 120.922 86.6644L120.901 85.8688C120.883 85.4005 120.795 85.0829 120.636 84.9209C120.476 84.7572 120.189 84.6746 119.775 84.6746H118.123V87.6156H116.566L116.565 87.6123ZM118.122 83.3572H119.953C120.349 83.3572 120.641 83.2778 120.829 83.1158C121.016 82.9537 121.11 82.7026 121.11 82.3542C121.11 82.0269 121.017 81.7773 120.837 81.6072C120.657 81.4371 120.385 81.3528 120.026 81.3528H118.123V83.3556L118.122 83.3572ZM111.878 87.6123V81.4014H109.633V80.05H115.666V81.4014H113.435V87.6123H111.878ZM102.942 85.2757H104.479C104.538 85.6889 104.706 85.9968 104.989 86.1977C105.269 86.397 105.675 86.4975 106.205 86.4975C106.658 86.4975 106.999 86.4181 107.229 86.2561C107.458 86.0973 107.573 85.8591 107.573 85.5431C107.573 85.0829 106.913 84.7054 105.594 84.404L105.548 84.3926C105.514 84.3862 105.461 84.3732 105.388 84.3554C104.682 84.2014 104.179 84.0297 103.878 83.8368C103.608 83.6667 103.405 83.435 103.266 83.1466C103.125 82.8581 103.055 82.5179 103.055 82.1241C103.055 81.3885 103.308 80.8246 103.806 80.4308C104.307 80.0403 105.029 79.8442 105.975 79.8442C106.859 79.8442 107.55 80.0517 108.05 80.4697C108.546 80.8894 108.811 81.476 108.838 82.2359H107.342C107.313 81.8713 107.174 81.5926 106.922 81.4014C106.668 81.2102 106.306 81.113 105.837 81.113C105.428 81.113 105.114 81.1924 104.893 81.3528C104.671 81.5116 104.56 81.7368 104.56 82.0317C104.56 82.4336 104.992 82.7318 105.85 82.9311C106.084 82.9845 106.265 83.0267 106.395 83.0591C106.945 83.2 107.339 83.3102 107.568 83.388C107.8 83.4658 108.001 83.5533 108.173 83.6505C108.48 83.8223 108.712 84.0475 108.866 84.3311C109.021 84.613 109.098 84.9517 109.098 85.3454C109.098 86.1329 108.832 86.7422 108.301 87.1748C107.771 87.6075 107.023 87.8262 106.054 87.8262C105.086 87.8262 104.354 87.6042 103.814 87.1635C103.272 86.7227 102.98 86.094 102.94 85.2806L102.942 85.2757ZM95.486 87.6123V80.05H97.1179L100.19 85.245V80.05H101.728V87.6123H100.119L97.0254 82.4158V87.6123H95.4876H95.486ZM86.8528 83.8385C86.8528 82.6167 87.1886 81.6477 87.8553 80.9315C88.5204 80.2137 89.4191 79.8556 90.5513 79.8556C91.6836 79.8556 92.5823 80.2153 93.2523 80.9331C93.9238 81.6526 94.258 82.6199 94.258 83.8385C94.258 85.057 93.9238 86.0276 93.2523 86.7454C92.5823 87.4649 91.682 87.823 90.5513 87.823C89.4207 87.823 88.522 87.4632 87.8553 86.7454C87.1886 86.026 86.8528 85.057 86.8528 83.8385ZM88.4409 83.8385C88.4409 84.6713 88.6274 85.3179 88.9973 85.7781C89.3688 86.2382 89.8846 86.4683 90.5497 86.4683C91.2148 86.4683 91.7453 86.2382 92.1184 85.7781C92.4915 85.3162 92.6764 84.6697 92.6764 83.8385C92.6764 83.0072 92.4915 82.3607 92.1184 81.9005C91.7453 81.4387 91.2213 81.2102 90.5497 81.2102C89.8781 81.2102 89.3688 81.4387 88.9973 81.8989C88.6274 82.3574 88.4409 83.0056 88.4409 83.8385ZM85.9395 85.0149C85.8811 85.8737 85.5502 86.5575 84.9451 87.0646C84.3384 87.5702 83.5484 87.823 82.5783 87.823C81.4574 87.823 80.5863 87.473 79.9634 86.7746C79.3421 86.0778 79.0306 85.0975 79.0306 83.8385C79.0306 82.5794 79.3486 81.5667 79.9812 80.8813C80.6139 80.1959 81.5272 79.854 82.7146 79.854C83.683 79.854 84.4455 80.0889 85.0051 80.5605C85.5648 81.0304 85.873 81.6963 85.9281 82.5551H84.3903C84.3254 82.1257 84.1486 81.8017 83.8647 81.5764C83.5808 81.3528 83.1964 81.2394 82.713 81.2394C82.0284 81.2394 81.5061 81.4598 81.1508 81.9021C80.7939 82.3445 80.6139 82.9878 80.6139 83.8368C80.6139 84.6859 80.7923 85.2936 81.146 85.7408C81.5028 86.1896 82.0057 86.4149 82.6627 86.4149C83.1331 86.4149 83.5208 86.2933 83.8225 86.0535C84.1243 85.8121 84.3189 85.4669 84.4082 85.0149H85.9346H85.9395ZM68.8434 87.6123V80.05H72.5144C73.3384 80.05 73.9516 80.2283 74.3474 80.5799C74.7465 80.9331 74.9444 81.4711 74.9444 82.197C74.9444 82.6572 74.8487 83.0429 74.654 83.3524C74.461 83.6602 74.1819 83.8709 73.8186 83.9843C74.1479 84.101 74.3831 84.2776 74.521 84.519C74.6605 84.7588 74.74 85.1315 74.7611 85.6387L74.7935 86.5315V86.5639C74.8016 87.0128 74.899 87.2882 75.0855 87.3838V87.6156H73.3773C73.3238 87.5086 73.2833 87.3774 73.2541 87.2218C73.2249 87.0663 73.2054 86.8799 73.2005 86.6644L73.1794 85.8688C73.1616 85.4005 73.074 85.0829 72.915 84.9209C72.7561 84.7572 72.4673 84.6746 72.0537 84.6746H70.4023V87.6156H68.845L68.8434 87.6123ZM70.4007 83.3572H72.2337C72.6295 83.3572 72.9215 83.2778 73.1097 83.1158C73.2962 82.9537 73.3887 82.7026 73.3887 82.3542C73.3887 82.0269 73.2962 81.7773 73.1178 81.6072C72.9377 81.4371 72.6636 81.3528 72.3067 81.3528H70.4023V83.3556L70.4007 83.3572ZM66.1132 86.7195C65.8326 87.1003 65.513 87.3774 65.1545 87.5572C64.796 87.7339 64.3759 87.8246 63.8925 87.8246C62.8348 87.8246 61.9767 87.4584 61.3213 86.7244C60.6644 85.9887 60.3367 85.0246 60.3367 83.8304C60.3367 82.6362 60.6644 81.6607 61.3197 80.9396C61.9734 80.2169 62.8462 79.8572 63.9347 79.8572C64.8836 79.8572 65.6574 80.0841 66.256 80.5378C66.8546 80.9915 67.2131 81.6169 67.325 82.4093H65.7369C65.6396 82.0172 65.4465 81.7174 65.148 81.5132C64.8528 81.3074 64.4651 81.2037 63.9882 81.2037C63.3555 81.2037 62.8575 81.4354 62.4942 81.8989C62.134 82.3623 61.9524 83.004 61.9524 83.8206C61.9524 84.6373 62.1405 85.2855 62.5185 85.7521C62.8948 86.2172 63.4139 86.4489 64.0709 86.4489C64.5641 86.4489 64.9761 86.3031 65.3103 86.013C65.6412 85.7213 65.8472 85.3211 65.9251 84.8155H64.2088V83.5225H67.3445V87.6139H66.3014L66.11 86.7211L66.1132 86.7195Z" fill="#4D4C4E"/>
<path fill-rule="evenodd" clip-rule="evenodd" d="M133.311 55.3195C132.714 60.2875 130.583 61.8868 126.242 61.3845C126.936 60.1919 128.111 58.9199 129.249 57.904C130.382 56.8928 131.725 56.0778 133.311 55.3195ZM126.011 61.1382C126.029 57.3255 129.283 54.6033 133.29 55.2077C130.106 56.6773 128.589 57.3077 126.011 61.1382Z" fill="#9BA338"/>
<mask id="mask0_97_9828" style="mask-type:luminance" maskUnits="userSpaceOnUse" x="97" y="37" width="29" height="37">
<path d="M97.5151 55.1638C97.5151 65.223 108.41 73.3622 125.322 73.9212V52.9795L120.177 53.6325V69.1249C119.033 69.2156 103.626 66.2698 104.017 54.8932C104.732 46.323 114.181 42.1068 125.233 41.0957V37.0366C109.245 37.129 97.7341 45.5015 97.5168 55.1638H97.5151Z" fill="white"/>
</mask>
<g mask="url(#mask0_97_9828)">
<path d="M125.323 37.0366H97.5144V73.9212H125.323V37.0366Z" fill="url(#paint0_linear_97_9828)"/>
</g>
<path d="M169.855 93.884V91.2882H168.976V91.0549H171V91.2882H170.121V93.884H169.855ZM165.569 93.884V91.0565H165.855L167.453 93.4838V91.0565H167.706V93.884H167.417L165.824 91.4567V93.884H165.569ZM162.271 93.884V91.0565H164.126V91.2898H162.533V92.3204H163.989V92.5456H162.533V93.6539H164.174V93.8857H162.273L162.271 93.884ZM158.143 93.884V91.0565H158.508L159.442 93.547L160.359 91.0565H160.726V93.884H160.472V91.4178L159.564 93.884H159.324L158.399 91.4178V93.884H158.143ZM154.459 93.884V91.0565H154.746L156.346 93.4838V91.0565H156.597V93.884H156.308L154.715 91.4567V93.884H154.459ZM150.443 92.4727C150.443 92.0141 150.559 91.6528 150.793 91.3838C151.025 91.1164 151.34 90.9836 151.739 90.9836C152.138 90.9836 152.454 91.1181 152.686 91.3838C152.92 91.6528 153.038 92.0141 153.038 92.4727C153.038 92.9312 152.921 93.2942 152.686 93.5616C152.452 93.8289 152.138 93.9618 151.739 93.9618C151.34 93.9618 151.025 93.8289 150.793 93.5616C150.559 93.2942 150.443 92.9312 150.443 92.4727ZM150.712 92.4727C150.712 92.8583 150.804 93.1662 150.989 93.3914C151.174 93.6183 151.424 93.7317 151.74 93.7317C152.057 93.7317 152.308 93.6183 152.493 93.3931C152.68 93.1678 152.772 92.8616 152.772 92.4743C152.772 92.087 152.68 91.7775 152.493 91.5507C152.308 91.3238 152.057 91.2104 151.74 91.2104C151.424 91.2104 151.181 91.3255 150.992 91.5523C150.806 91.7808 150.712 92.0887 150.712 92.4727ZM147.102 93.884V91.0565H148.047C148.266 91.0565 148.425 91.0662 148.522 91.084C148.621 91.1018 148.705 91.131 148.78 91.1715C148.892 91.2347 148.978 91.3206 149.038 91.4308C149.098 91.5426 149.129 91.6674 149.129 91.8083C149.129 91.9817 149.088 92.1292 149.012 92.2475C148.934 92.3657 148.82 92.4516 148.671 92.5018C148.788 92.5407 148.869 92.5991 148.919 92.6785C148.97 92.7579 149.005 92.9183 149.025 93.1581L149.062 93.5826C149.067 93.6507 149.077 93.7042 149.091 93.7479C149.109 93.7917 149.127 93.8241 149.153 93.8435V93.8824H148.864C148.848 93.8532 148.835 93.8143 148.824 93.7674C148.814 93.7204 148.806 93.662 148.801 93.594L148.767 93.2197C148.749 92.9604 148.702 92.7968 148.629 92.7255C148.556 92.6542 148.41 92.6185 148.189 92.6185H147.364V93.884H147.102ZM147.364 92.3868H148.115C148.379 92.3868 148.569 92.3431 148.684 92.2523C148.801 92.1632 148.859 92.0174 148.859 91.8164C148.859 91.7241 148.84 91.6414 148.804 91.5669C148.767 91.494 148.715 91.434 148.648 91.3886C148.595 91.353 148.532 91.3271 148.459 91.3125C148.386 91.2979 148.267 91.2898 148.102 91.2898H147.365V92.3884L147.364 92.3868ZM145.271 91.0565H145.539V93.884H145.271V91.0565ZM142.77 93.884L141.79 91.0565H142.058L142.912 93.5551L143.766 91.0565H144.028L143.049 93.884H142.77ZM138.416 93.884V91.0565H138.704L140.304 93.4838V91.0565H140.554V93.884H140.267L138.672 91.4567V93.884H138.416ZM135.121 93.884V91.0565H136.974V91.2898H135.381V92.3204H136.837V92.5456H135.381V93.6539H137.022V93.8857H135.121V93.884ZM129.486 93.884L129.458 93.3833C129.37 93.5664 129.241 93.7074 129.067 93.8095C128.894 93.9116 128.694 93.9618 128.47 93.9618C128.076 93.9618 127.766 93.8289 127.539 93.5616C127.314 93.2942 127.202 92.928 127.202 92.4646C127.202 92.0012 127.315 91.643 127.547 91.3789C127.777 91.1148 128.089 90.9819 128.485 90.9819C128.814 90.9819 129.082 91.0597 129.288 91.2185C129.494 91.3757 129.617 91.5944 129.658 91.8796H129.392C129.351 91.6706 129.252 91.5086 129.091 91.3886C128.931 91.2704 128.731 91.2104 128.49 91.2104C128.164 91.2104 127.91 91.319 127.734 91.5361C127.555 91.7532 127.466 92.0627 127.466 92.463C127.466 92.8632 127.557 93.1581 127.734 93.3833C127.912 93.6102 128.154 93.7236 128.459 93.7236C128.764 93.7236 129.012 93.6313 129.186 93.4481C129.359 93.265 129.447 93.0074 129.447 92.6768V92.6655H128.512V92.4338H129.695V93.8857H129.487L129.486 93.884ZM123.631 93.884V91.0565H123.92L125.519 93.4838V91.0565H125.771V93.884H125.482L123.887 91.4567V93.884H123.631ZM121.801 91.0565H122.067V93.884H121.801V91.0565ZM119.3 93.884L118.32 91.0565H118.586L119.443 93.5551L120.296 91.0565H120.559L119.579 93.884H119.3ZM116.802 91.0565H117.069V93.884H116.802V91.0565ZM113.824 93.884V91.0565H114.09V93.6523H115.535V93.884H113.824ZM106.425 93.884V91.0565H107.369C107.588 91.0565 107.745 91.0662 107.844 91.084C107.942 91.1018 108.027 91.131 108.1 91.1715C108.212 91.2347 108.298 91.3206 108.358 91.4308C108.418 91.5426 108.449 91.6674 108.449 91.8083C108.449 91.9817 108.409 92.1292 108.331 92.2475C108.253 92.3657 108.139 92.4516 107.992 92.5018C108.107 92.5407 108.19 92.5991 108.24 92.6785C108.289 92.7579 108.324 92.9183 108.345 93.1581L108.383 93.5826C108.388 93.6507 108.397 93.7042 108.414 93.7479C108.428 93.7917 108.448 93.8241 108.472 93.8435V93.8824H108.183C108.169 93.8532 108.156 93.8143 108.144 93.7674C108.136 93.7204 108.128 93.662 108.123 93.594L108.091 93.2197C108.071 92.9604 108.024 92.7968 107.951 92.7255C107.878 92.6542 107.731 92.6185 107.512 92.6185H106.686V93.884H106.426H106.425ZM106.684 92.3868H107.435C107.7 92.3868 107.89 92.3431 108.006 92.2523C108.123 92.1632 108.18 92.0174 108.18 91.8164C108.18 91.7241 108.162 91.6414 108.125 91.5669C108.089 91.494 108.037 91.434 107.969 91.3886C107.916 91.353 107.854 91.3271 107.781 91.3125C107.708 91.2979 107.586 91.2898 107.421 91.2898H106.684V92.3884V92.3868ZM103.127 93.884V91.0565H104.981V91.2898H103.388V92.3204H104.845V92.5456H103.388V93.6539H105.028V93.8857H103.127V93.884ZM100.716 93.884V91.2882H99.8371V91.0549H101.862V91.2882H100.982V93.884H100.716ZM97.6147 93.884V91.2882H96.7355V91.0549H98.7616V91.2882H97.8824V93.884H97.6163H97.6147ZM93.7199 93.884V91.0565H95.574V91.2898H93.981V92.3204H95.4361V92.5456H93.981V93.6539H95.6211V93.8857H93.7199V93.884ZM90.2841 93.884V91.0565H91.2201C91.3839 91.0565 91.5121 91.0662 91.6078 91.084C91.7035 91.1018 91.7846 91.131 91.8544 91.1715C91.9614 91.2315 92.0458 91.3157 92.1058 91.4211C92.1675 91.5296 92.1967 91.6479 92.1967 91.7792C92.1967 91.9201 92.1593 92.0433 92.0863 92.1486C92.0117 92.2556 91.9079 92.335 91.7765 92.3884C91.9485 92.4257 92.0831 92.5083 92.1804 92.6396C92.2778 92.7708 92.3281 92.9296 92.3281 93.1208C92.3281 93.2861 92.2875 93.4303 92.2096 93.5535C92.1318 93.6766 92.0215 93.7641 91.8836 93.8192C91.8268 93.8419 91.7408 93.8581 91.6257 93.8694C91.5105 93.8792 91.3239 93.884 91.0676 93.884H90.2857H90.2841ZM91.1747 91.2898H90.5453V92.3123H91.1503C91.4407 92.3123 91.6451 92.2734 91.7587 92.194C91.8722 92.1162 91.929 91.985 91.929 91.797C91.929 91.609 91.8755 91.481 91.7652 91.4032C91.6565 91.3271 91.4569 91.2882 91.1731 91.2882L91.1747 91.2898ZM90.5437 93.6523H91.3061C91.5867 93.6523 91.783 93.6102 91.8917 93.5292C92.002 93.4481 92.0571 93.3072 92.0571 93.1095C92.0571 92.9118 91.9955 92.7741 91.8722 92.6768C91.7473 92.5796 91.5673 92.531 91.3255 92.531H90.542V93.6523H90.5437ZM84.6487 93.884L84.6211 93.3833C84.5335 93.5664 84.4037 93.7074 84.2301 93.8095C84.0582 93.9116 83.857 93.9618 83.6332 93.9618C83.239 93.9618 82.9308 93.8289 82.7021 93.5616C82.4766 93.2942 82.363 92.928 82.363 92.4646C82.363 92.0012 82.4782 91.643 82.7085 91.3789C82.9389 91.1148 83.252 90.9819 83.6462 90.9819C83.9755 90.9819 84.2431 91.0597 84.4491 91.2185C84.6552 91.3757 84.7784 91.5944 84.8206 91.8796H84.5513C84.5124 91.6706 84.4118 91.5086 84.2529 91.3886C84.0923 91.2704 83.8911 91.2104 83.651 91.2104C83.3233 91.2104 83.0719 91.319 82.8935 91.5361C82.715 91.7532 82.6258 92.0627 82.6258 92.463C82.6258 92.8632 82.715 93.1581 82.8951 93.3833C83.0735 93.6102 83.3152 93.7236 83.6186 93.7236C83.9219 93.7236 84.1717 93.6313 84.3453 93.4481C84.5205 93.265 84.6065 93.0074 84.6065 92.6768V92.6655H83.6705V92.4338H84.8547V93.8857H84.6454L84.6487 93.884ZM78.7959 93.884V91.0565H79.083L80.6824 93.4838V91.0565H80.9339V93.884H80.6451L79.0522 91.4567V93.884H78.7959ZM76.9644 91.0565H77.2305V93.884H76.9644V91.0565ZM74.536 93.884V91.2882H73.6584V91.0549H75.6813V91.2882H74.8037V93.884H74.5376H74.536ZM70.4027 93.884L71.4782 91.0565H71.788L72.8619 93.884H72.591L72.2698 93.0139H70.9997L70.6736 93.884H70.4027ZM71.084 92.787H72.1806L71.6307 91.3319L71.084 92.787ZM67.4406 93.884V91.0565H69.2931V91.2898H67.7002V92.3204H69.1569V92.5456H67.7002V93.6539H69.3418V93.8857H67.4406V93.884ZM63.9773 93.884V91.0565H64.9214C65.1404 91.0565 65.2977 91.0662 65.3967 91.084C65.494 91.1018 65.58 91.131 65.6546 91.1715C65.7665 91.2347 65.8525 91.3206 65.9109 91.4308C65.9725 91.5426 66.0017 91.6674 66.0017 91.8083C66.0017 91.9817 65.9628 92.1292 65.8849 92.2475C65.8071 92.3657 65.6935 92.4516 65.5459 92.5018C65.6611 92.5407 65.7438 92.5991 65.7925 92.6785C65.8428 92.7579 65.8768 92.9183 65.8979 93.1581L65.9352 93.5826C65.9401 93.6507 65.9498 93.7042 65.9644 93.7479C65.979 93.7917 66.0001 93.8241 66.0245 93.8435V93.8824H65.7357C65.7211 93.8532 65.7081 93.8143 65.6968 93.7674C65.687 93.7204 65.6806 93.662 65.6741 93.594L65.6416 93.2197C65.6222 92.9604 65.5767 92.7968 65.5021 92.7255C65.4291 92.6542 65.2831 92.6185 65.0625 92.6185H64.2368V93.884H63.9773ZM64.2368 92.3868H64.9879C65.2523 92.3868 65.4421 92.3431 65.5573 92.2523C65.6741 92.1632 65.7308 92.0174 65.7308 91.8164C65.7308 91.7241 65.713 91.6414 65.6773 91.5669C65.64 91.494 65.5897 91.434 65.5216 91.3886C65.468 91.353 65.4064 91.3271 65.3334 91.3125C65.2604 91.2979 65.1404 91.2898 64.9733 91.2898H64.2368V92.3884V92.3868ZM62.308 92.9604H62.5627C62.54 93.2731 62.4297 93.5194 62.2302 93.6977C62.0323 93.8743 61.7662 93.9634 61.4321 93.9634C61.0509 93.9634 60.7491 93.8306 60.5301 93.5648C60.3095 93.2975 60.1992 92.9313 60.1992 92.4678C60.1992 92.0044 60.3095 91.6447 60.5318 91.3805C60.754 91.118 61.0574 90.9852 61.4386 90.9852C61.7598 90.9852 62.0177 91.0662 62.2156 91.2299C62.4135 91.3935 62.5206 91.6123 62.5335 91.8861H62.2788C62.2561 91.6787 62.1702 91.515 62.0209 91.3951C61.8701 91.2752 61.677 91.2153 61.4386 91.2153C61.132 91.2153 60.8935 91.3238 60.7232 91.5426C60.5529 91.7613 60.4685 92.0676 60.4685 92.463C60.4685 92.8583 60.5561 93.1727 60.7297 93.3979C60.9032 93.6232 61.1433 93.735 61.4499 93.735C61.6997 93.735 61.9009 93.6685 62.0517 93.5308C62.2026 93.3931 62.2902 93.2035 62.3064 92.962L62.308 92.9604Z" fill="#4D4C4E"/>
<defs>
<linearGradient id="paint0_linear_97_9828" x1="111.418" y1="73.9212" x2="111.418" y2="37.0366" gradientUnits="userSpaceOnUse">
<stop stop-color="#B23537"/>
<stop offset="0.34" stop-color="#D93437"/>
<stop offset="0.45" stop-color="#E44B36"/>
<stop offset="0.58" stop-color="#F36B35"/>
<stop offset="0.66" stop-color="#F36E34"/>
<stop offset="0.74" stop-color="#F37A32"/>
<stop offset="0.82" stop-color="#F58D2F"/>
<stop offset="0.9" stop-color="#F7A92B"/>
<stop offset="0.98" stop-color="#F9CC26"/>
<stop offset="1" stop-color="#FAD825"/>
</linearGradient>
</defs>
</svg>
