<svg width="231" height="131" viewBox="0 0 231 131" fill="none" xmlns="http://www.w3.org/2000/svg">
<path d="M75.5799 80.6511C75.4584 80.6511 75.3432 80.6273 75.2344 80.5797C75.1255 80.532 75.0128 80.4506 74.8964 80.3353C74.8736 80.3127 74.8495 80.2864 74.8255 80.2613C74.8761 80.2438 74.9267 80.2287 74.9761 80.2099C75.328 80.0683 75.6344 79.869 75.8951 79.6146C76.1559 79.3602 76.3597 79.0569 76.5065 78.7072C76.6534 78.3575 76.7268 77.9778 76.7268 77.5679C76.7268 77.1581 76.6534 76.7708 76.5065 76.4249C76.3597 76.0778 76.1559 75.777 75.8951 75.5213C75.6344 75.2669 75.328 75.0676 74.9761 74.926C74.6242 74.7843 74.2381 74.7129 73.8179 74.7129C73.3976 74.7129 73.0178 74.7843 72.6634 74.926C72.309 75.0676 72.0001 75.2681 71.7368 75.525C71.4735 75.7832 71.2697 76.0853 71.1254 76.4324C70.9811 76.7796 70.9089 77.1581 70.9089 77.5679C70.9089 77.9778 70.9811 78.3563 71.1254 78.7035C71.2697 79.0506 71.4722 79.3527 71.733 79.6109C71.9938 79.869 72.3026 80.0683 72.6596 80.2099C72.89 80.3014 73.133 80.3603 73.3875 80.3929C73.5546 80.5772 73.7115 80.7376 73.8596 80.8729C74.0546 81.0522 74.2419 81.1938 74.4217 81.2991C74.6014 81.4044 74.7837 81.4808 74.9685 81.5284C75.1533 81.5761 75.3495 81.5999 75.5571 81.5999C76.1546 81.5999 76.6331 81.3743 76.9926 80.9218L76.4458 80.2438C76.1926 80.517 75.904 80.6536 75.5799 80.6536V80.6511ZM73.8191 79.3339C73.5811 79.3339 73.3609 79.2913 73.1584 79.2073C72.9558 79.1233 72.7799 79.0017 72.6305 78.8438C72.4811 78.6859 72.3647 78.4979 72.2811 78.2798C72.1976 78.0618 72.1558 77.8236 72.1558 77.5654C72.1558 77.3073 72.1976 77.0629 72.2811 76.8473C72.3647 76.6317 72.4811 76.445 72.6305 76.2871C72.7799 76.1291 72.9558 76.0088 73.1584 75.9236C73.3609 75.8396 73.5811 75.797 73.8191 75.797C74.0571 75.797 74.2761 75.8396 74.4761 75.9236C74.6761 76.0076 74.8521 76.1291 75.004 76.2871C75.1559 76.445 75.2736 76.6317 75.3571 76.8473C75.4407 77.0629 75.4825 77.3022 75.4825 77.5654C75.4825 77.8286 75.4407 78.0605 75.3571 78.2798C75.2736 78.4979 75.1559 78.6859 75.004 78.8438C74.8521 79.0017 74.6761 79.1221 74.4761 79.2073C74.2761 79.2913 74.0571 79.3339 73.8191 79.3339Z" fill="#2058A4"/>
<path d="M80.5004 78.182C80.5004 78.4402 80.4599 78.6545 80.3789 78.825C80.2979 78.9954 80.1865 79.122 80.0447 79.2035C79.9029 79.285 79.7409 79.3251 79.5586 79.3251C79.2953 79.3251 79.0915 79.2423 78.9472 79.0769C78.8029 78.9115 78.7307 78.652 78.7307 78.2998V76.084H77.5459V78.4816C77.5459 78.9177 77.6193 79.2774 77.7662 79.5582C77.913 79.8402 78.1193 80.0482 78.3852 80.1848C78.651 80.3215 78.9535 80.3904 79.2928 80.3904C79.6067 80.3904 79.8966 80.3152 80.1624 80.166C80.3181 80.0783 80.4498 79.9617 80.5612 79.8239V80.3277H81.6852V76.084H80.5004V78.182Z" fill="#2058A4"/>
<path d="M84.4333 76.0213C84.1092 76.0213 83.7902 76.0664 83.4763 76.1554C83.1623 76.2444 82.894 76.3709 82.6712 76.5339L83.0965 77.3937C83.2434 77.2733 83.4218 77.1768 83.632 77.1054C83.8421 77.034 84.056 76.9989 84.2738 76.9989C84.5928 76.9989 84.8295 77.0728 84.9839 77.2194C85.1383 77.3661 85.2156 77.5716 85.2156 77.8348H84.2738C83.8586 77.8348 83.5218 77.8887 83.2636 77.9965C83.0054 78.1043 82.8168 78.2534 82.6978 78.4427C82.5788 78.6319 82.5193 78.8525 82.5193 79.1057C82.5193 79.3589 82.58 79.5657 82.7016 79.7599C82.8231 79.9542 82.9978 80.1083 83.2256 80.2211C83.4535 80.3339 83.7269 80.3903 84.0459 80.3903C84.4054 80.3903 84.6991 80.3189 84.9269 80.1773C85.0826 80.0808 85.2016 79.9504 85.2915 79.7925V80.3264H86.4004V77.905C86.4004 77.2583 86.2282 76.782 85.8839 76.4775C85.5396 76.1729 85.0561 76.02 84.4333 76.02V76.0213ZM85.2156 78.9866C85.1447 79.1759 85.0307 79.3188 84.8738 79.4165C84.7168 79.5143 84.5396 79.5619 84.3421 79.5619C84.1345 79.5619 83.9712 79.5155 83.8522 79.424C83.7332 79.3325 83.6737 79.2072 83.6737 79.0493C83.6737 78.9077 83.7256 78.7886 83.8294 78.6946C83.9332 78.5993 84.1244 78.553 84.4029 78.553H85.2156V78.9866Z" fill="#2058A4"/>
<path d="M88.6548 74.4751H87.47V80.3268H88.6548V74.4751Z" fill="#2058A4"/>
<path d="M90.3473 74.1202C90.1296 74.1202 89.9524 74.1854 89.8157 74.317C89.679 74.4486 89.6106 74.6115 89.6106 74.8057C89.6106 75 89.679 75.1629 89.8157 75.2945C89.9524 75.4261 90.1296 75.4913 90.3473 75.4913C90.565 75.4913 90.7486 75.4236 90.8828 75.2895C91.017 75.1554 91.084 74.9862 91.084 74.7807C91.084 74.5864 91.0157 74.4272 90.879 74.3032C90.7423 74.1791 90.565 74.1177 90.3473 74.1177V74.1202Z" fill="#2058A4"/>
<path d="M90.9397 76.084H89.7549V80.3277H90.9397V76.084Z" fill="#2058A4"/>
<path d="M94.3563 79.2551C94.2247 79.3603 94.0652 79.413 93.8778 79.413C93.7208 79.413 93.5968 79.3641 93.5057 79.2676C93.4145 79.1698 93.3689 79.032 93.3689 78.854V77.1269H94.3867V76.1807H93.3689V75.1479H92.1841V76.1807H91.5537V77.1269H92.1841V78.8703C92.1841 79.3754 92.3183 79.7551 92.5866 80.0096C92.855 80.2652 93.2297 80.3918 93.7107 80.3918C93.893 80.3918 94.069 80.3693 94.2386 80.3241C94.4082 80.279 94.5538 80.2126 94.6753 80.1236L94.3563 79.2563V79.2551Z" fill="#2058A4"/>
<path d="M97.0299 78.9654L95.883 76.084H94.6602L96.4286 80.3628L96.4147 80.3979C96.3337 80.5872 96.2438 80.7225 96.1451 80.804C96.0463 80.8854 95.9134 80.9256 95.7463 80.9256C95.6299 80.9256 95.5121 80.9017 95.3931 80.8541C95.2741 80.8065 95.1691 80.7413 95.0779 80.6573L94.645 81.5334C94.7767 81.6537 94.9463 81.749 95.1539 81.8179C95.3615 81.8856 95.5716 81.9207 95.7843 81.9207C96.0324 81.9207 96.259 81.8818 96.4641 81.8029C96.6691 81.7239 96.8565 81.5873 97.0261 81.393C97.1957 81.1988 97.3463 80.9306 97.478 80.5884L99.3223 76.0852H98.1831L97.0286 78.9666L97.0299 78.9654Z" fill="#2058A4"/>
<path d="M103.719 78.9654L102.572 76.084H101.349L103.117 80.3628L103.103 80.3979C103.022 80.5872 102.933 80.7225 102.834 80.804C102.735 80.8854 102.602 80.9256 102.435 80.9256C102.319 80.9256 102.201 80.9017 102.082 80.8541C101.963 80.8065 101.858 80.7413 101.767 80.6573L101.334 81.5334C101.465 81.6537 101.635 81.749 101.843 81.8179C102.05 81.8856 102.26 81.9207 102.473 81.9207C102.721 81.9207 102.948 81.8818 103.153 81.8029C103.358 81.7239 103.545 81.5873 103.715 81.393C103.884 81.1988 104.035 80.9306 104.167 80.5884L106.011 76.0852H104.872L103.717 78.9666L103.719 78.9654Z" fill="#2058A4"/>
<path d="M109.481 76.301C109.141 76.1142 108.757 76.0215 108.326 76.0215C107.896 76.0215 107.505 76.1155 107.168 76.301C106.831 76.4877 106.565 76.7459 106.371 77.0743C106.176 77.4026 106.078 77.7799 106.078 78.206C106.078 78.6321 106.176 79.0019 106.371 79.3302C106.565 79.6586 106.831 79.918 107.168 80.1073C107.505 80.2966 107.891 80.3918 108.326 80.3918C108.762 80.3918 109.141 80.2966 109.481 80.1073C109.82 79.918 110.086 79.6586 110.278 79.3302C110.471 79.0019 110.567 78.6271 110.567 78.206C110.567 77.7849 110.471 77.3964 110.278 77.0705C110.086 76.7446 109.82 76.4877 109.481 76.301ZM109.23 78.8327C109.139 79.0094 109.015 79.1447 108.858 79.2387C108.701 79.334 108.524 79.3804 108.326 79.3804C108.129 79.3804 107.952 79.3327 107.795 79.2387C107.638 79.1435 107.512 79.0081 107.419 78.8327C107.325 78.6572 107.278 78.4479 107.278 78.206C107.278 77.9641 107.325 77.7486 107.419 77.5756C107.512 77.4026 107.638 77.2685 107.795 77.1733C107.952 77.078 108.129 77.0317 108.326 77.0317C108.524 77.0317 108.701 77.0793 108.858 77.1733C109.015 77.2685 109.139 77.4026 109.23 77.5756C109.321 77.7486 109.367 77.9591 109.367 78.206C109.367 78.4529 109.321 78.6572 109.23 78.8327Z" fill="#2058A4"/>
<path d="M114.287 78.182C114.287 78.4402 114.247 78.6545 114.166 78.825C114.085 78.9954 113.973 79.122 113.832 79.2035C113.69 79.285 113.528 79.3251 113.345 79.3251C113.082 79.3251 112.878 79.2423 112.734 79.0769C112.59 78.9115 112.518 78.652 112.518 78.2998V76.084H111.333V78.4816C111.333 78.9177 111.406 79.2774 111.553 79.5582C111.7 79.8402 111.906 80.0482 112.172 80.1848C112.438 80.3215 112.74 80.3904 113.08 80.3904C113.394 80.3904 113.683 80.3152 113.949 80.166C114.105 80.0783 114.237 79.9617 114.348 79.8239V80.3277H115.472V76.084H114.287V78.182Z" fill="#2058A4"/>
<path d="M120.14 77.1718C120.302 77.0766 120.485 77.0302 120.687 77.0302C120.875 77.0302 121.048 77.0778 121.207 77.1718C121.367 77.2671 121.5 77.4137 121.606 77.613L122.525 77.1004C122.373 76.7532 122.138 76.4863 121.819 76.2995C121.5 76.1128 121.125 76.02 120.695 76.02C120.264 76.02 119.862 76.114 119.518 76.2995C119.173 76.4863 118.904 76.7444 118.709 77.0728C118.514 77.4012 118.416 77.7784 118.416 78.2046C118.416 78.6307 118.514 79.0017 118.709 79.3325C118.904 79.6634 119.173 79.9229 119.518 80.1096C119.862 80.2963 120.254 80.3891 120.695 80.3891C121.135 80.3891 121.5 80.2951 121.819 80.1096C122.138 79.9241 122.373 79.6584 122.525 79.3175L121.606 78.7974C121.5 79.0029 121.367 79.1508 121.207 79.2436C121.048 79.335 120.875 79.3814 120.687 79.3814C120.485 79.3814 120.302 79.3338 120.14 79.2398C119.978 79.1458 119.85 79.0104 119.757 78.8375C119.663 78.6645 119.616 78.454 119.616 78.2071C119.616 77.9602 119.663 77.7496 119.757 77.5766C119.85 77.4037 119.978 77.2696 120.14 77.1743V77.1718Z" fill="#2058A4"/>
<path d="M124.856 76.0213C124.532 76.0213 124.213 76.0664 123.899 76.1554C123.585 76.2444 123.317 76.3709 123.094 76.5339L123.519 77.3937C123.666 77.2733 123.844 77.1768 124.055 77.1054C124.265 77.034 124.479 76.9989 124.696 76.9989C125.015 76.9989 125.252 77.0728 125.407 77.2194C125.561 77.3661 125.638 77.5716 125.638 77.8348H124.696C124.281 77.8348 123.944 77.8887 123.686 77.9965C123.428 78.1043 123.239 78.2534 123.12 78.4427C123.001 78.6319 122.942 78.8525 122.942 79.1057C122.942 79.3589 123.003 79.5657 123.124 79.7599C123.246 79.9542 123.42 80.1083 123.648 80.2211C123.876 80.3339 124.15 80.3903 124.469 80.3903C124.828 80.3903 125.122 80.3189 125.35 80.1773C125.505 80.0808 125.624 79.9504 125.714 79.7925V80.3264H126.823V77.905C126.823 77.2583 126.651 76.782 126.307 76.4775C125.962 76.1729 125.479 76.02 124.856 76.02V76.0213ZM125.638 78.9866C125.567 79.1759 125.453 79.3188 125.296 79.4165C125.139 79.5143 124.962 79.5619 124.765 79.5619C124.557 79.5619 124.394 79.5155 124.275 79.424C124.156 79.3325 124.096 79.2072 124.096 79.0493C124.096 78.9077 124.148 78.7886 124.252 78.6946C124.356 78.6006 124.547 78.553 124.825 78.553H125.638V78.9866Z" fill="#2058A4"/>
<path d="M131.245 76.2218C130.989 76.0877 130.699 76.02 130.375 76.02C130.026 76.02 129.714 76.0965 129.441 76.2494C129.279 76.3396 129.141 76.4574 129.023 76.594V76.0839H127.891V80.3277H129.076V78.2296C129.076 77.9664 129.118 77.7509 129.202 77.5829C129.285 77.415 129.402 77.2896 129.551 77.2082C129.7 77.1267 129.869 77.0866 130.056 77.0866C130.319 77.0866 130.523 77.1681 130.667 77.331C130.812 77.4939 130.884 77.7458 130.884 78.088V80.3277H132.069V77.8987C132.069 77.4676 131.995 77.1142 131.848 76.8384C131.702 76.5627 131.5 76.3572 131.245 76.2231V76.2218Z" fill="#2058A4"/>
<path d="M137.126 79.413C136.969 79.413 136.845 79.3641 136.753 79.2676C136.662 79.1698 136.617 79.032 136.617 78.854V77.1269H137.634V76.1807H136.617V75.1479H135.432V76.1807H134.802V77.1269H135.432V78.8703C135.432 79.3754 135.566 79.7551 135.834 80.0096C136.103 80.2652 136.477 80.3918 136.959 80.3918C137.141 80.3918 137.317 80.3693 137.486 80.3241C137.656 80.279 137.802 80.2126 137.923 80.1236L137.604 79.2563C137.472 79.3616 137.313 79.4142 137.126 79.4142V79.413Z" fill="#2058A4"/>
<path d="M139.722 76.6494V76.0842H138.59V80.3279H139.775V78.3251C139.775 77.9203 139.875 77.622 140.075 77.4302C140.275 77.2385 140.537 77.142 140.861 77.142C140.907 77.142 140.95 77.1432 140.99 77.1457C141.031 77.1482 141.076 77.152 141.127 77.157V76.0215C140.742 76.0215 140.416 76.0992 140.147 76.2546C139.974 76.3549 139.835 76.489 139.722 76.6494Z" fill="#2058A4"/>
<path d="M144.794 78.182C144.794 78.4402 144.754 78.6545 144.673 78.825C144.592 78.9954 144.48 79.122 144.338 79.2035C144.197 79.285 144.035 79.3251 143.852 79.3251C143.589 79.3251 143.385 79.2423 143.241 79.0769C143.097 78.9115 143.024 78.652 143.024 78.2998V76.084H141.84V78.4816C141.84 78.9177 141.913 79.2774 142.06 79.5582C142.207 79.8402 142.413 80.0482 142.679 80.1848C142.945 80.3215 143.247 80.3904 143.586 80.3904C143.9 80.3904 144.19 80.3152 144.456 80.166C144.612 80.0783 144.743 79.9617 144.855 79.8239V80.3277H145.979V76.084H144.794V78.182Z" fill="#2058A4"/>
<path d="M149.892 78.0995C149.747 78.0131 149.587 77.9454 149.41 77.8978C149.232 77.8501 149.056 77.815 148.882 77.7912C148.707 77.7674 148.546 77.7398 148.399 77.7085C148.253 77.6772 148.135 77.6346 148.046 77.5819C147.958 77.5293 147.913 77.4503 147.913 77.3451C147.913 77.2297 147.974 77.1345 148.096 77.0605C148.217 76.9866 148.409 76.9503 148.673 76.9503C148.86 76.9503 149.054 76.9728 149.254 77.0167C149.454 77.0618 149.653 77.1445 149.85 77.2648L150.245 76.39C150.053 76.2697 149.812 76.177 149.523 76.1143C149.235 76.0516 148.951 76.019 148.673 76.019C148.278 76.019 147.939 76.0779 147.655 76.197C147.371 76.3161 147.155 76.4765 147.006 76.682C146.856 76.8876 146.782 77.1232 146.782 77.3914C146.782 77.6333 146.826 77.8301 146.915 77.983C147.003 78.1359 147.121 78.2562 147.268 78.3452C147.415 78.4342 147.577 78.5019 147.754 78.547C147.931 78.5921 148.107 78.6272 148.282 78.6535C148.456 78.6798 148.617 78.7062 148.764 78.7325C148.911 78.7588 149.028 78.7964 149.117 78.8465C149.206 78.8967 149.25 78.9719 149.25 79.0709C149.25 79.1924 149.193 79.2864 149.079 79.3554C148.965 79.4243 148.772 79.4581 148.498 79.4581C148.25 79.4581 147.998 79.4205 147.742 79.3441C147.487 79.2676 147.265 79.1699 147.078 79.0483L146.683 79.9319C146.87 80.0635 147.125 80.1725 147.446 80.259C147.768 80.3455 148.103 80.3894 148.453 80.3894C148.863 80.3894 149.211 80.3317 149.497 80.2164C149.783 80.1011 150.002 79.9419 150.154 79.7389C150.306 79.5371 150.382 79.304 150.382 79.0408C150.382 78.7989 150.336 78.6034 150.245 78.453C150.154 78.3026 150.036 78.1848 149.892 78.0983V78.0995Z" fill="#2058A4"/>
<path d="M153.426 79.2551C153.294 79.3603 153.135 79.413 152.948 79.413C152.791 79.413 152.667 79.3641 152.575 79.2676C152.484 79.1698 152.439 79.032 152.439 78.854V77.1269H153.457V76.1807H152.439V75.1479H151.254V76.1807H150.624V77.1269H151.254V78.8703C151.254 79.3754 151.388 79.7551 151.656 80.0096C151.925 80.2652 152.3 80.3918 152.781 80.3918C152.963 80.3918 153.139 80.3693 153.308 80.3241C153.478 80.279 153.624 80.2126 153.745 80.1236L153.426 79.2563V79.2551Z" fill="#2058A4"/>
<path d="M90.6551 71.5972H84.7221V69.7824C84.5411 70.4504 84.298 70.8979 83.9955 71.1272C83.5917 71.4406 82.9372 71.596 82.0296 71.596H75.375C72.1889 71.596 70.5964 69.7498 70.5964 66.0588V57.1114C70.5964 53.4204 72.1825 51.5742 75.3548 51.5742H90.1412V54.8905H79.3903C78.427 54.8905 77.9447 55.3079 77.9447 56.1413V67.0276C77.9447 67.8623 78.427 68.2784 79.3903 68.2784H81.8904C82.8334 68.2784 83.3056 67.8611 83.3056 67.0276V62.8979H79.3308V59.5817H90.6539V71.5947L90.6551 71.5972Z" fill="#2058A4"/>
<path d="M115.139 71.5972H107.099L103.605 62.9004H101.347V71.5972H93.9983V51.5767H109.297C110.943 51.5767 112.128 51.89 112.851 52.5154C113.653 53.2248 114.056 54.3929 114.056 56.0197V59.8674C114.056 61.8902 113.072 62.9016 111.105 62.9016L115.141 71.5984L115.139 71.5972ZM106.706 58.4586V56.0184C106.706 55.581 106.631 55.2827 106.481 55.1273C106.33 54.9706 106.044 54.8929 105.623 54.8929H101.347V59.5854H105.623C106.345 59.5854 106.706 59.2106 106.706 58.4586Z" fill="#2058A4"/>
<path d="M133.811 71.5972H117.127V51.5767H133.811V54.8929H124.475V59.5854H133.027V62.9016H124.475V68.2821H133.811V71.5984V71.5972Z" fill="#2058A4"/>
<path d="M153.445 71.5972H136.761V51.5767H153.445V54.8929H144.11V59.5854H152.662V62.9016H144.11V68.2821H153.445V71.5984V71.5972Z" fill="#2058A4"/>
<path d="M158.766 52.3962C158.758 52.2659 158.664 51.7921 158.324 51.6793C158.324 51.6793 158.833 51.5315 158.833 51.0201C158.833 50.4837 158.367 50.332 157.926 50.332H156.835V52.9151H157.393V51.9125H157.683C157.843 51.9125 158.092 51.93 158.159 52.2484C158.226 52.5692 158.35 52.9151 158.35 52.9151H158.916C158.916 52.9151 158.776 52.5253 158.767 52.3962H158.766ZM157.8 51.4976H157.392V50.7481C157.392 50.7481 157.688 50.7369 157.888 50.7369C158.088 50.7369 158.254 50.9098 158.254 51.1179C158.254 51.3259 158.033 51.4989 157.799 51.4989L157.8 51.4976Z" fill="#2058A4"/>
<path d="M157.767 49.0801C156.421 49.0801 155.333 50.2118 155.333 51.6093C155.333 53.0067 156.422 54.1385 157.767 54.1385C159.111 54.1385 160.201 53.0067 160.201 51.6093C160.201 50.2118 159.111 49.0801 157.767 49.0801ZM157.767 53.6108C156.703 53.6108 155.839 52.7134 155.839 51.608C155.839 50.5026 156.703 49.6052 157.767 49.6052C158.83 49.6052 159.695 50.5026 159.695 51.608C159.695 52.7134 158.83 53.6108 157.767 53.6108Z" fill="#2058A4"/>
</svg>
