<svg width="231" height="131" viewBox="0 0 231 131" fill="none" xmlns="http://www.w3.org/2000/svg">
<path d="M120.651 57.428L119.448 55.9475L122.326 52.5852H124.467L124.623 52.7787L120.651 57.428ZM127.384 65.7095L125.036 62.8212L129.004 58.172L131.352 61.0632L131.349 61.0685L132.647 62.6682L141.262 52.5845H147.722L140.103 61.511H140.11L131.705 71.3607H125.245L127.696 68.4882L128.695 67.316L127.386 65.7065L127.383 65.7087L127.384 65.7095Z" fill="#12100B"/>
<path d="M107.261 59.6675L101.501 52.5852H109.255L111.236 55.028L107.262 59.6675H107.261ZM116.635 71.1905L111.648 65.0607L115.616 60.4257L117.436 62.6682L126.049 52.5845H132.51L116.634 71.1897L116.635 71.1905Z" fill="#E11018"/>
<path d="M79.1523 71.3624L95.0057 52.7827H96.2982L105.115 63.6487L114.592 52.5854H121.064L104.994 71.3624H103.658L94.8357 60.5422L85.614 71.3624H79.1523Z" fill="#12100B"/>
<path d="M90.3749 75.2486V75.6978C90.3749 76.6203 89.6658 77.1176 88.3624 77.1176H87.8249V79.4433H86.6133V73.8296H88.3624C89.6658 73.8296 90.3749 74.3268 90.3749 75.2493V75.2486ZM87.8249 74.6148V76.3308H88.3166C88.8999 76.3308 89.1624 76.1141 89.1624 75.6408V75.3041C89.1624 74.8308 88.8991 74.6141 88.3166 74.6141H87.8249V74.6148Z" fill="#12100B"/>
<path d="M93.999 79.4424L93.039 77.0686H92.479V79.4424H91.2673V73.8286H93.0165C94.3198 73.8286 95.029 74.3259 95.029 75.2484V75.6496C95.029 76.2429 94.7315 76.6599 94.1715 76.8849L95.2807 79.4431H93.9998L93.999 79.4424ZM92.4782 74.6146V76.2826H92.9698C93.5532 76.2826 93.8157 76.0659 93.8157 75.5934V75.3046C93.8157 74.8314 93.5523 74.6146 92.9698 74.6146H92.4782Z" fill="#12100B"/>
<path d="M97.3716 79.4424H96.1599V73.8286H97.3716V79.4424Z" fill="#12100B"/>
<path d="M102.425 75.2486V78.0236C102.425 78.9461 101.716 79.4433 100.413 79.4433H98.675V73.8296H100.413C101.716 73.8296 102.425 74.3268 102.425 75.2493V75.2486ZM99.8867 74.6148V78.6566H100.367C100.95 78.6566 101.213 78.4398 101.213 77.9673V75.3048C101.213 74.8316 100.949 74.6148 100.367 74.6148H99.8867Z" fill="#12100B"/>
<path d="M107.01 74.6146H104.815V76.2024H106.588V76.9884H104.815V78.6564H107.01V79.4424H103.603V73.8286H107.01V74.6146Z" fill="#12100B"/>
<path d="M113.995 75.1683V78.1038C113.995 78.9858 113.252 79.5228 112.04 79.5228C110.828 79.5228 110.085 78.9858 110.085 78.1038V75.1683C110.085 74.2863 110.828 73.7485 112.04 73.7485C113.252 73.7485 113.995 74.2855 113.995 75.1683ZM111.297 75.1758V78.0948C111.297 78.5118 111.559 78.736 112.04 78.736C112.521 78.736 112.783 78.511 112.783 78.0948V75.1758C112.783 74.7588 112.52 74.5345 112.04 74.5345C111.56 74.5345 111.297 74.7588 111.297 75.1758Z" fill="#12100B"/>
<path d="M118.522 74.6146H116.384V76.2024H118.099V76.9884H116.384V79.4424H115.172V73.8286H118.522V74.6146Z" fill="#12100B"/>
<path d="M122.535 79.4424H121.323V73.8286H122.535V79.4424Z" fill="#12100B"/>
<path d="M127.783 79.4424H126.593L125.004 75.7216H124.982V79.4424H123.838V73.8286H125.188L126.617 77.1729H126.639V73.8286H127.783V79.4424Z" fill="#12100B"/>
<path d="M132.836 75.2486V78.0236C132.836 78.9461 132.127 79.4433 130.823 79.4433H129.086V73.8296H130.823C132.127 73.8296 132.836 74.3268 132.836 75.2493V75.2486ZM130.297 74.6148V78.6566H130.777C131.361 78.6566 131.623 78.4398 131.623 77.9673V75.3048C131.623 74.8316 131.36 74.6148 130.777 74.6148H130.297Z" fill="#12100B"/>
<path d="M135.225 79.4424H134.013V73.8286H135.225V79.4424Z" fill="#12100B"/>
<path d="M140.404 79.4424H139.169L138.906 78.1674H137.568L137.305 79.4424H136.093L137.477 73.8286H139.02L140.403 79.4424H140.404ZM138.22 75.0316L137.728 77.3971H138.746L138.254 75.0316H138.22Z" fill="#12100B"/>
<path d="M85.0474 74.3936H79.1599V75.6086H85.0474V74.3936Z" fill="#12100B"/>
<path d="M85.0474 77.5835H79.1599V78.7985H85.0474V77.5835Z" fill="#12100B"/>
<path d="M147.78 74.3936H141.892V75.6086H147.78V74.3936Z" fill="#12100B"/>
<path d="M147.78 77.5835H141.892V78.7985H147.78V77.5835Z" fill="#12100B"/>
<path d="M149.829 51.4771C149.048 51.4771 148.411 52.0493 148.411 52.7521C148.411 53.4548 149.048 54.0285 149.829 54.0285C150.611 54.0285 151.248 53.4571 151.248 52.7521C151.248 52.0471 150.611 51.4771 149.829 51.4771ZM149.829 53.9116C149.119 53.9116 148.54 53.3926 148.54 52.7521C148.54 52.1116 149.119 51.5941 149.829 51.5941C150.539 51.5941 151.117 52.1146 151.117 52.7521C151.117 53.3896 150.539 53.9116 149.829 53.9116Z" fill="#1D1D1B"/>
<path d="M150.351 52.897C150.403 52.867 150.45 52.8317 150.489 52.789C150.528 52.7477 150.558 52.6975 150.58 52.6435C150.603 52.588 150.613 52.5265 150.613 52.4582V52.453C150.613 52.381 150.601 52.3135 150.574 52.2535C150.548 52.1935 150.51 52.1395 150.461 52.093C150.4 52.0405 150.325 52.0007 150.236 51.9715C150.145 51.9415 150.042 51.9272 149.925 51.9272H149.098V53.596H149.422V53.0147H149.83L150.288 53.596H150.672L150.171 52.9652C150.236 52.9487 150.297 52.9255 150.351 52.897ZM149.422 52.7552V52.1927H149.898C150.021 52.1927 150.116 52.2152 150.182 52.2632C150.248 52.3097 150.283 52.3787 150.283 52.4702V52.4747C150.283 52.561 150.248 52.6292 150.178 52.6795C150.109 52.7297 150.017 52.7552 149.9 52.7552H149.422Z" fill="#1D1D1B"/>
</svg>
