<svg width="231" height="131" viewBox="0 0 231 131" fill="none" xmlns="http://www.w3.org/2000/svg">
<path fill-rule="evenodd" clip-rule="evenodd" d="M93.9976 51.7939V50.839C93.9976 47.3164 91.1334 44.4556 87.5922 44.4556H62.0016C58.4657 44.4556 55.5996 47.3164 55.5996 50.839V80.0609C55.5996 83.5857 58.4657 86.4462 62.0016 86.4462H87.5922C91.1334 86.4462 93.9976 83.5853 93.9976 80.0609V78.3798C88.8875 76.4822 85.2177 71.2522 85.2177 65.0918C85.2177 58.9314 88.8872 53.6875 93.9976 51.7939ZM82.9805 56.5945C81.4535 54.2169 79.6686 52.53 77.7115 51.4106C75.7547 50.3012 73.4348 49.7903 70.7459 49.7903H69.4781C69.168 49.811 68.8839 49.8411 68.6134 49.8888V62.3248C69.0899 62.3428 69.5289 62.3769 69.9258 62.3942C70.3205 62.4199 70.7202 62.4199 71.1338 62.4199C73.2762 62.4199 75.048 61.9465 76.4676 60.987C77.8658 60.0282 78.7866 58.7285 79.1732 57.0468H79.6937V69.5863H79.1732C78.7698 67.7159 77.8491 66.3425 76.4676 65.3796C75.092 64.4505 73.1944 64.0028 70.8237 64.0028C70.4714 64.0028 69.8301 64.0245 68.9313 64.093H68.6131V69.0757C68.6131 73.3766 68.7972 76.164 69.1677 77.4333C69.5376 78.7284 70.2521 79.5153 71.2754 79.8341C71.2664 80.0488 71.258 80.2601 71.258 80.4708C70.4884 80.4187 69.6445 80.3927 68.8055 80.371C67.9585 80.345 66.8053 80.3245 65.361 80.3245C63.9166 80.3245 62.8921 80.3453 62.0782 80.371C61.2702 80.3927 60.4956 80.4187 59.7604 80.4708V79.8341C60.7831 79.5416 61.4725 78.7761 61.8418 77.5071C62.2201 76.2628 62.405 73.4497 62.405 69.0757V52.5563C62.405 51.4109 62.238 50.5735 61.9236 49.9576C61.5797 49.3689 61.0112 48.9436 60.2283 48.6715V47.9918H60.4482C62.9946 48.06 64.909 48.082 66.1783 48.082H81.4277C82.1078 50.8567 82.8219 53.6271 83.5013 56.394C83.3254 56.4622 83.1488 56.5269 82.9805 56.5948V56.5945Z" fill="#19588B"/>
<path fill-rule="evenodd" clip-rule="evenodd" d="M113.531 73.2868V72.8686C114.49 72.5668 115.161 72.0559 115.515 71.273C115.884 70.5109 116.06 68.889 116.06 66.3773V59.9802C116.06 58.4792 115.902 57.5107 115.613 57.089C115.312 56.6714 114.705 56.435 113.832 56.3585V55.9501C115.596 55.7562 117.128 55.5539 118.461 55.3255C119.773 55.1059 120.874 54.8995 121.765 54.6631V58.9996C122.565 57.3954 123.554 56.2156 124.681 55.394C125.792 54.5854 127.074 54.1987 128.527 54.1987H129.017C129.107 54.2161 129.203 54.2161 129.293 54.2328C128.596 56.1685 127.848 58.0872 127.133 60.0189H126.63C126.428 59.7909 126.191 59.606 125.933 59.4768C125.663 59.3606 125.37 59.3098 125.052 59.3098C123.985 59.3098 123.168 59.7404 122.612 60.6051C122.057 61.4949 121.766 62.7379 121.766 64.3861V66.0799C121.766 68.7604 121.949 70.5109 122.302 71.3074C122.664 72.1108 123.335 72.6192 124.295 72.8686C124.286 73.0108 124.286 73.1437 124.277 73.2868C123.641 73.2475 122.944 73.2338 122.186 73.2131C121.412 73.1951 120.293 73.1827 118.823 73.1827C117.514 73.1827 116.465 73.1951 115.708 73.2131C114.961 73.2338 114.229 73.2475 113.531 73.2868" fill="#19588B"/>
<path fill-rule="evenodd" clip-rule="evenodd" d="M129.452 73.2854C129.452 73.1559 129.435 73.0261 129.435 72.9019C130.421 72.6011 131.101 72.0546 131.47 71.2363C131.831 70.4246 132.008 68.694 132.008 66.0361V59.9792C132.008 58.4781 131.857 57.5096 131.561 57.0709C131.26 56.6539 130.671 56.4135 129.806 56.3574V55.9831C131.294 55.8196 132.679 55.6346 133.94 55.4109C135.199 55.2002 136.336 54.9635 137.359 54.6962V58.7315C138.031 57.2221 138.999 56.0987 140.165 55.3412C141.334 54.584 142.771 54.2314 144.501 54.2314C147.224 54.2314 149.25 54.9282 150.541 56.3571C151.843 57.8108 152.515 59.9788 152.515 62.9298V66.0358C152.515 68.729 152.717 70.4751 153.07 71.289C153.431 72.1091 154.119 72.6389 155.078 72.9016V73.2851C154.45 73.2458 153.737 73.2322 152.98 73.2114C152.222 73.1934 151.104 73.181 149.632 73.181C148.299 73.181 147.232 73.1934 146.484 73.2114C145.71 73.2322 144.978 73.2458 144.307 73.2851C144.29 73.1556 144.29 73.0258 144.282 72.9016C145.223 72.6175 145.904 72.1091 146.264 71.3231C146.634 70.5402 146.811 68.9914 146.811 66.616C146.802 66.0491 146.802 65.4852 146.811 64.917C146.802 64.3705 146.802 63.8076 146.811 63.2527C146.811 60.8126 146.475 59.0324 145.83 57.9176C145.18 56.8042 144.105 56.2533 142.66 56.2533C141.215 56.2533 139.94 56.886 139.045 58.163C138.146 59.4326 137.669 61.1227 137.669 63.2527V65.734C137.669 68.6249 137.871 70.4751 138.234 71.289C138.586 72.1091 139.257 72.6389 140.242 72.9016V73.2851C139.6 73.2458 138.887 73.2322 138.134 73.2114C137.387 73.1934 136.258 73.181 134.796 73.181C133.453 73.181 132.395 73.1934 131.638 73.2114C130.864 73.2322 130.133 73.2458 129.453 73.2851" fill="#19588B"/>
<path fill-rule="evenodd" clip-rule="evenodd" d="M104.484 60.4502C104.432 58.854 104.053 57.5931 103.383 56.6726C102.716 55.7518 101.795 55.3057 100.694 55.3057C99.5932 55.3057 98.6591 55.7432 97.9103 56.6435C97.1614 57.542 96.6756 58.8026 96.4256 60.4502H104.484ZM111.228 61.7099H96.3829C96.3745 61.7539 96.3661 61.7964 96.3661 61.827C96.3231 62.5402 96.3051 63.0778 96.3051 63.4313C96.3051 66.0981 96.921 68.1628 98.1293 69.6806C99.3085 71.1956 100.986 71.936 103.111 71.936C104.892 71.936 106.407 71.3842 107.658 70.2708C108.902 69.1613 109.852 67.5518 110.471 65.397C110.825 65.6935 111.185 65.9776 111.538 66.2648C110.743 68.7344 109.439 70.5502 107.719 71.7978C105.959 73.0362 103.726 73.6425 101.046 73.6425C97.6987 73.6425 94.9552 72.7487 92.8857 70.9111C90.7947 69.0696 89.7373 66.7345 89.7373 63.8433C89.7373 60.9521 90.7944 58.7202 92.8469 56.896C94.9029 55.0771 97.5828 54.1987 100.852 54.1987C103.791 54.1987 106.179 54.8354 107.959 56.1565C109.749 57.4682 110.867 59.3048 111.228 61.7093L111.228 61.7099Z" fill="#19588B"/>
<path fill-rule="evenodd" clip-rule="evenodd" d="M155.894 71.7171C156.625 69.7687 157.392 67.8286 158.122 65.8697C158.307 65.8916 158.485 65.9136 158.668 65.9347C159.052 68.1075 159.852 69.7157 160.988 70.8561C162.101 71.9913 163.556 72.5338 165.311 72.5338C166.684 72.5338 167.81 72.2156 168.675 71.5489C169.539 70.9032 169.982 70.0776 169.982 69.0583C169.982 68.2401 169.672 67.6254 169.074 67.17C168.464 66.7176 167.027 66.2489 164.769 65.733C161.774 65.0359 159.774 64.3215 158.794 63.5178C157.817 62.7259 157.322 61.6066 157.322 60.1529C157.322 58.4241 158.247 57.017 160.028 55.8951C161.826 54.772 164.169 54.2339 167.087 54.2339C168.506 54.2339 169.891 54.3668 171.225 54.6249C172.554 54.896 173.858 55.2749 175.092 55.7913C174.486 57.4042 173.875 59.0091 173.277 60.6226C173.101 60.609 172.924 60.6006 172.749 60.5833C172.219 58.901 171.389 57.6019 170.327 56.6594C169.285 55.7263 168.033 55.2752 166.622 55.2752C165.521 55.2752 164.587 55.5549 163.843 56.174C163.086 56.7803 162.7 57.5031 162.7 58.3544C162.7 59.7957 164.252 60.7809 167.32 61.3835C167.875 61.5078 168.331 61.5895 168.632 61.6416C171.454 62.2306 173.394 62.8929 174.439 63.7229C175.464 64.5452 176.001 65.7024 176.001 67.1864C176.001 69.1949 175.024 70.7483 173.119 71.9359C171.204 73.1104 168.532 73.682 165.152 73.682C163.513 73.682 161.909 73.5107 160.346 73.1788C158.759 72.843 157.262 72.3702 155.895 71.7168" fill="#19588B"/>
<path fill-rule="evenodd" clip-rule="evenodd" d="M93.9976 51.7939V50.839C93.9976 47.3164 91.1334 44.4556 87.5922 44.4556H62.0016C58.4657 44.4556 55.5996 47.3164 55.5996 50.839V80.0609C55.5996 83.5857 58.4657 86.4462 62.0016 86.4462H87.5922C91.1334 86.4462 93.9976 83.5853 93.9976 80.0609V78.3798C88.8875 76.4822 85.2177 71.2522 85.2177 65.0918C85.2177 58.9314 88.8872 53.6875 93.9976 51.7939ZM82.9805 56.5945C81.4535 54.2169 79.6686 52.53 77.7115 51.4106C75.7547 50.3012 73.4348 49.7903 70.7459 49.7903H69.4781C69.168 49.811 68.8839 49.8411 68.6134 49.8888V62.3248C69.0899 62.3428 69.5289 62.3769 69.9258 62.3942C70.3205 62.4199 70.7202 62.4199 71.1338 62.4199C73.2762 62.4199 75.048 61.9465 76.4676 60.987C77.8658 60.0282 78.7866 58.7285 79.1732 57.0468H79.6937V69.5863H79.1732C78.7698 67.7159 77.8491 66.3425 76.4676 65.3796C75.092 64.4505 73.1944 64.0028 70.8237 64.0028C70.4714 64.0028 69.8301 64.0245 68.9313 64.093H68.6131V69.0757C68.6131 73.3766 68.7972 76.164 69.1677 77.4333C69.5376 78.7284 70.2521 79.5153 71.2754 79.8341C71.2664 80.0488 71.258 80.2601 71.258 80.4708C70.4884 80.4187 69.6445 80.3927 68.8055 80.371C67.9585 80.345 66.8053 80.3245 65.361 80.3245C63.9166 80.3245 62.8921 80.3453 62.0782 80.371C61.2702 80.3927 60.4956 80.4187 59.7604 80.4708V79.8341C60.7831 79.5416 61.4725 78.7761 61.8418 77.5071C62.2201 76.2628 62.405 73.4497 62.405 69.0757V52.5563C62.405 51.4109 62.238 50.5735 61.9236 49.9576C61.5797 49.3689 61.0112 48.9436 60.2283 48.6715V47.9918H60.4482C62.9946 48.06 64.909 48.082 66.1783 48.082H81.4277C82.1078 50.8567 82.8219 53.6271 83.5013 56.394C83.3254 56.4622 83.1488 56.5269 82.9805 56.5948V56.5945Z" fill="#19588B"/>
<path d="M98.4631 84.4084C98.8231 84.3923 99.0577 84.3167 99.1655 84.1835C99.2733 84.0503 99.3272 83.8083 99.3272 83.4582V80.2894C99.3272 79.9505 99.2718 79.7113 99.1612 79.5722C99.0502 79.4331 98.8173 79.3553 98.4631 79.3386V79.105C98.6512 79.1106 98.8399 79.1164 99.0285 79.1217C99.5329 79.144 99.9125 79.1552 100.167 79.1552C100.843 79.1552 101.897 79.1384 103.326 79.105H103.401C103.395 79.2388 103.393 79.4359 103.393 79.697C103.393 79.9254 103.397 80.1128 103.405 80.26C103.413 80.4071 103.432 80.5422 103.459 80.6643L103.276 80.6978C103.138 80.2643 102.92 79.9427 102.624 79.7345C102.327 79.5257 101.91 79.4216 101.373 79.4216H100.442V81.4478H100.874C101.195 81.4478 101.475 81.3648 101.714 81.1975C101.952 81.0308 102.113 80.7668 102.196 80.4053H102.362C102.362 80.5112 102.357 80.6671 102.345 80.8722C102.335 81.195 102.329 81.4339 102.329 81.5894C102.329 81.7449 102.334 81.9872 102.345 82.2979C102.356 82.5148 102.362 82.6762 102.362 82.7816H102.196C102.107 82.3927 101.952 82.1145 101.73 81.9479C101.508 81.7812 101.223 81.6975 100.874 81.6975H100.442V84.1742C100.719 84.252 101.049 84.2907 101.431 84.2907C101.98 84.2907 102.473 84.159 102.911 83.8947C103.349 83.6308 103.717 83.2314 104.016 82.6982L104.174 82.8147C103.847 83.5152 103.606 84.1132 103.451 84.6076C102.692 84.5853 101.833 84.5742 100.874 84.5742C100.325 84.5742 99.8378 84.5766 99.4109 84.5822C98.9846 84.5878 98.6682 84.5962 98.4634 84.6076V84.4072L98.4631 84.4084Z" fill="#19588B"/>
<path d="M104.54 83.4086C104.701 83.72 104.906 83.9703 105.156 84.1593C105.405 84.3483 105.69 84.4425 106.012 84.4425C106.144 84.4425 106.255 84.4124 106.344 84.3508C106.433 84.2897 106.477 84.2008 106.477 84.0837C106.477 83.9452 106.41 83.834 106.278 83.7503C106.145 83.6667 105.934 83.5728 105.646 83.4665C105.452 83.3944 105.291 83.329 105.164 83.2707C105.036 83.2125 104.914 83.14 104.798 83.0539C104.681 82.9674 104.587 82.8633 104.515 82.741C104.443 82.6186 104.407 82.477 104.407 82.3156C104.407 82.1381 104.439 81.9838 104.503 81.853C104.566 81.7226 104.652 81.6194 104.761 81.5444C104.868 81.4695 104.99 81.414 105.126 81.3778C105.262 81.3415 105.405 81.3232 105.554 81.3232C105.665 81.3232 105.854 81.3455 106.12 81.3902C106.419 81.4459 106.641 81.4738 106.785 81.4738C106.818 81.4738 106.857 81.4682 106.901 81.4571L106.968 82.4909H106.768C106.719 82.3853 106.652 82.28 106.569 82.1743C106.486 82.0687 106.394 81.9729 106.294 81.8865C106.195 81.8007 106.086 81.7294 105.97 81.674C105.854 81.6185 105.737 81.5903 105.621 81.5903C105.482 81.5903 105.37 81.6169 105.284 81.6696C105.198 81.7226 105.155 81.8158 105.155 81.9491C105.155 82.0823 105.222 82.192 105.354 82.2784C105.488 82.3642 105.692 82.4603 105.97 82.5659C106.158 82.6384 106.315 82.7035 106.439 82.762C106.565 82.8203 106.685 82.8925 106.801 82.9789C106.918 83.0647 107.009 83.1679 107.076 83.2875C107.142 83.4068 107.175 83.5443 107.175 83.7002C107.175 83.8836 107.141 84.0406 107.072 84.1714C107.002 84.3018 106.908 84.4062 106.789 84.4843C106.67 84.5621 106.534 84.6191 106.382 84.6553C106.229 84.6913 106.07 84.7092 105.903 84.7092C105.377 84.7092 104.884 84.6147 104.424 84.4254L104.349 83.4083H104.54L104.54 83.4086Z" fill="#19588B"/>
<path d="M107.45 81.7401V81.5486C107.777 81.5263 108.05 81.4039 108.269 81.1815C108.488 80.9594 108.666 80.6759 108.805 80.3311H108.971V81.4569H110.119V81.7401H108.971V83.5082C108.971 83.7471 109.009 83.915 109.083 84.0126C109.158 84.1099 109.29 84.1588 109.478 84.1588C109.573 84.1588 109.675 84.1269 109.786 84.0628C109.897 83.9987 110.005 83.9166 110.11 83.8168L110.285 84.0083C110.196 84.0919 110.098 84.174 109.99 84.2543C109.882 84.3348 109.77 84.4085 109.653 84.4755C109.537 84.5424 109.419 84.5978 109.3 84.6421C109.18 84.6864 109.068 84.7091 108.963 84.7091C108.669 84.7091 108.442 84.6369 108.281 84.4922C108.121 84.3481 108.04 84.1365 108.04 83.8586V81.7404H107.449L107.45 81.7401Z" fill="#19588B"/>
<path d="M112.687 82.209C112.687 81.8313 112.555 81.6423 112.288 81.6423C112.122 81.6423 112.007 81.6953 111.943 81.8009C111.88 81.9066 111.848 82.0373 111.848 82.1925C111.848 82.2818 111.853 82.3595 111.865 82.4262C111.826 82.4153 111.768 82.4014 111.69 82.3846C111.274 82.2901 110.961 82.2291 110.75 82.2012C110.772 82.029 110.826 81.8843 110.912 81.7678C110.998 81.6507 111.105 81.5605 111.233 81.4967C111.36 81.4332 111.5 81.3883 111.652 81.3635C111.805 81.3387 111.964 81.3257 112.13 81.3257C112.324 81.3257 112.511 81.3424 112.691 81.3759C112.871 81.4093 113.035 81.4632 113.182 81.5388C113.329 81.6138 113.446 81.7136 113.535 81.8387C113.624 81.9639 113.669 82.1182 113.669 82.3013C113.669 82.4351 113.66 82.6852 113.643 83.052C113.632 83.3466 113.627 83.5328 113.627 83.6106C113.627 83.7553 113.652 83.8717 113.701 83.961C113.752 84.0499 113.843 84.0942 113.976 84.0942C114.059 84.0942 114.135 84.0731 114.205 84.0316C114.274 83.9901 114.353 83.9303 114.441 83.8525L114.574 84.0025C114.535 84.036 114.466 84.0998 114.366 84.194C114.2 84.3609 114.055 84.4889 113.93 84.5778C113.805 84.6667 113.676 84.711 113.543 84.711C113.411 84.711 113.291 84.6695 113.169 84.5859C113.047 84.5028 112.923 84.3972 112.795 84.2692C112.573 84.4084 112.349 84.5165 112.121 84.5946C111.894 84.6723 111.667 84.711 111.44 84.711C111.196 84.711 110.979 84.6361 110.787 84.4861C110.596 84.3359 110.501 84.1552 110.501 83.9443C110.501 83.6939 110.569 83.4925 110.704 83.3398C110.84 83.1864 111.016 83.0743 111.233 83.0018C111.448 82.9296 111.673 82.8825 111.906 82.8599C112.138 82.8379 112.399 82.8271 112.687 82.8271V82.2096L112.687 82.209ZM111.714 84.0645C111.814 84.1617 111.953 84.2101 112.13 84.2101C112.357 84.2101 112.543 84.141 112.687 84.0019V83.9604C112.676 83.7934 112.671 83.6657 112.671 83.5765C112.671 83.4767 112.676 83.3262 112.687 83.1263C112.554 83.1043 112.407 83.0929 112.247 83.0929C112.064 83.0929 111.904 83.1431 111.768 83.2431C111.632 83.3429 111.565 83.482 111.565 83.6601C111.565 83.8383 111.614 83.9672 111.714 84.0645H111.714Z" fill="#19588B"/>
<path d="M114.375 81.7401V81.5486C114.702 81.5263 114.975 81.4039 115.194 81.1815C115.413 80.9594 115.591 80.6759 115.73 80.3311H115.896V81.4569H117.044V81.7401H115.896V83.5082C115.896 83.7471 115.934 83.915 116.008 84.0126C116.083 84.1099 116.215 84.1588 116.403 84.1588C116.498 84.1588 116.6 84.1269 116.711 84.0628C116.822 83.9987 116.93 83.9166 117.036 83.8168L117.21 84.0083C117.121 84.0919 117.023 84.174 116.915 84.2543C116.807 84.3348 116.695 84.4085 116.578 84.4755C116.462 84.5424 116.344 84.5978 116.225 84.6421C116.105 84.6864 115.993 84.7091 115.888 84.7091C115.594 84.7091 115.367 84.6369 115.206 84.4922C115.046 84.3481 114.965 84.1365 114.965 83.8586V81.7404H114.375L114.375 81.7401Z" fill="#19588B"/>
<path d="M118.548 83.0098C118.548 83.3655 118.65 83.6546 118.852 83.877C119.054 84.0995 119.33 84.2104 119.679 84.2104C119.878 84.2104 120.071 84.1673 120.257 84.0815C120.442 83.9951 120.596 83.877 120.718 83.7271L120.918 83.9439C120.702 84.1828 120.448 84.3702 120.157 84.5066C119.866 84.6426 119.565 84.711 119.255 84.711C118.718 84.711 118.288 84.5568 117.967 84.2485C117.645 83.9399 117.484 83.5297 117.484 83.0185C117.484 82.5073 117.645 82.0974 117.967 81.7889C118.288 81.48 118.718 81.3257 119.255 81.3257C119.793 81.3257 120.171 81.4812 120.456 81.7926C120.742 82.1039 120.906 82.5098 120.951 83.0102H118.549L118.548 83.0098ZM119.604 82.6926C119.715 82.6926 119.79 82.6774 119.829 82.6467C119.867 82.6161 119.887 82.5535 119.887 82.459C119.887 82.2034 119.834 82.0036 119.729 81.8589C119.623 81.7142 119.455 81.642 119.222 81.642C119.1 81.642 118.996 81.6739 118.91 81.738C118.824 81.8022 118.755 81.888 118.702 81.9964C118.65 82.1049 118.611 82.2204 118.586 82.3425C118.561 82.4649 118.549 82.5814 118.549 82.6926H119.605H119.604Z" fill="#19588B"/>
<path d="M121.623 83.4086C121.784 83.72 121.989 83.9703 122.239 84.1593C122.488 84.3483 122.774 84.4425 123.095 84.4425C123.228 84.4425 123.339 84.4124 123.428 84.3508C123.516 84.2897 123.561 84.2008 123.561 84.0837C123.561 83.9452 123.494 83.834 123.361 83.7503C123.228 83.6667 123.017 83.5728 122.73 83.4665C122.535 83.3944 122.375 83.329 122.247 83.2707C122.119 83.2125 121.998 83.14 121.881 83.0539C121.765 82.9674 121.671 82.8633 121.599 82.741C121.526 82.6186 121.491 82.477 121.491 82.3156C121.491 82.1381 121.522 81.9838 121.586 81.853C121.65 81.7226 121.736 81.6194 121.844 81.5444C121.952 81.4695 122.074 81.414 122.21 81.3778C122.346 81.3415 122.488 81.3232 122.638 81.3232C122.749 81.3232 122.937 81.3455 123.203 81.3902C123.502 81.4459 123.724 81.4738 123.868 81.4738C123.902 81.4738 123.941 81.4682 123.985 81.4571L124.051 82.4909H123.852C123.802 82.3853 123.735 82.28 123.652 82.1743C123.569 82.0687 123.478 81.9729 123.378 81.8865C123.278 81.8007 123.17 81.7294 123.054 81.674C122.937 81.6185 122.821 81.5903 122.704 81.5903C122.565 81.5903 122.453 81.6169 122.367 81.6696C122.282 81.7226 122.239 81.8158 122.239 81.9491C122.239 82.0823 122.305 82.192 122.438 82.2784C122.571 82.3642 122.776 82.4603 123.054 82.5659C123.242 82.6384 123.398 82.7035 123.523 82.762C123.648 82.8203 123.768 82.8925 123.885 82.9789C124.001 83.0647 124.092 83.1679 124.159 83.2875C124.225 83.4068 124.259 83.5443 124.259 83.7002C124.259 83.8836 124.224 84.0406 124.155 84.1714C124.086 84.3018 123.991 84.4062 123.873 84.4843C123.753 84.5621 123.618 84.6191 123.465 84.6553C123.313 84.6913 123.154 84.7092 122.987 84.7092C122.461 84.7092 121.967 84.6147 121.508 84.4254L121.433 83.4083H121.624L121.623 83.4086Z" fill="#19588B"/>
<path d="M131.075 80.8488H132.995V81.0155C132.818 81.0378 132.678 81.0656 132.576 81.0991C132.473 81.1326 132.386 81.1797 132.314 81.241C132.242 81.302 132.172 81.3857 132.106 81.4913C132.039 81.597 131.956 81.7497 131.856 81.9499L131.091 83.4339C131.28 83.7452 131.501 83.9829 131.756 84.1468C132.011 84.311 132.316 84.3983 132.671 84.4095V84.6099C132.316 84.5876 131.92 84.5765 131.483 84.5765C131.105 84.5765 130.764 84.5873 130.46 84.6099L130.335 84.2348C130.13 84.3903 129.889 84.5142 129.612 84.6059C129.335 84.6976 129.072 84.7435 128.822 84.7435C128.323 84.7435 127.922 84.6155 127.617 84.3599C127.312 84.104 127.16 83.7149 127.16 83.1925C127.16 82.9481 127.206 82.73 127.301 82.5379C127.395 82.3464 127.521 82.1822 127.679 82.0462C127.837 81.9102 128.017 81.7946 128.219 81.7001C128.422 81.6057 128.639 81.5279 128.872 81.4665L128.822 81.4331C128.501 81.2329 128.262 81.0495 128.107 80.8829C127.952 80.7162 127.874 80.4909 127.874 80.2071C127.874 79.9017 128.025 79.6476 128.328 79.4447C128.629 79.2418 128.994 79.1401 129.421 79.1401C129.848 79.1401 130.223 79.2442 130.498 79.453C130.772 79.6619 130.909 79.9215 130.909 80.2329C130.909 80.4051 130.876 80.5594 130.809 80.6954C130.743 80.8314 130.652 80.9485 130.539 81.0455C130.425 81.1428 130.297 81.2236 130.152 81.2875C130.008 81.3516 129.85 81.4083 129.679 81.4585C129.95 81.6199 130.179 81.8389 130.364 82.1168C130.55 82.3954 130.74 82.7371 130.934 83.1427L130.95 83.1761C131.006 83.0816 131.067 82.9651 131.133 82.826C131.2 82.6869 131.269 82.5339 131.341 82.3672C131.413 82.2005 131.471 82.0478 131.516 81.9086C131.56 81.7695 131.583 81.6583 131.583 81.575C131.583 81.3863 131.545 81.254 131.47 81.179C131.395 81.1041 131.264 81.0495 131.075 81.0161V80.8494V80.8488ZM128.565 83.8339C128.792 84.095 129.094 84.2255 129.471 84.2255C129.781 84.2255 130.033 84.1396 130.227 83.9671C130.172 83.8447 130.077 83.6142 129.945 83.2753C129.756 82.8136 129.596 82.4496 129.467 82.1828C129.336 81.9158 129.202 81.7383 129.063 81.649C128.764 81.7717 128.55 81.9245 128.419 82.1079C128.289 82.2913 128.224 82.5305 128.224 82.8251C128.224 83.2362 128.338 83.573 128.565 83.8342V83.8339ZM128.993 80.8488C129.129 81.0322 129.296 81.1769 129.496 81.2822C129.69 81.1598 129.835 81.021 129.932 80.8652C130.029 80.7097 130.078 80.5123 130.078 80.2731C130.078 80.034 130.026 79.8549 129.924 79.7021C129.821 79.5494 129.656 79.4729 129.429 79.4729C129.202 79.4729 129.052 79.5479 128.947 79.6978C128.842 79.8478 128.789 80.0346 128.789 80.2564C128.789 80.4782 128.857 80.665 128.993 80.8485L128.993 80.8488Z" fill="#19588B"/>
<path d="M135.448 84.376C135.653 84.3593 135.814 84.3329 135.93 84.2967C136.046 84.2605 136.132 84.2087 136.188 84.1424C136.243 84.0755 136.279 83.9853 136.296 83.8713C136.312 83.7576 136.321 83.5978 136.321 83.392V80.2654C136.321 80.0596 136.312 79.8995 136.296 79.7855C136.279 79.6718 136.242 79.5816 136.183 79.5147C136.125 79.4478 136.038 79.3966 135.922 79.3604C135.805 79.3241 135.642 79.2978 135.431 79.2811V79.0809L135.597 79.0977C135.996 79.1364 136.292 79.1559 136.487 79.1559C136.681 79.1559 137.008 79.1451 137.451 79.1225C138.033 79.089 138.509 79.0723 138.881 79.0723C139.252 79.0723 139.648 79.1364 140.02 79.2644C140.391 79.3923 140.727 79.5828 141.026 79.8353C141.325 80.0885 141.561 80.4026 141.736 80.7778C141.911 81.1527 141.998 81.5737 141.998 82.0409C141.998 82.4744 141.922 82.857 141.77 83.1876C141.617 83.5184 141.405 83.7911 141.134 84.0052C140.862 84.2189 140.55 84.3791 140.198 84.4844C139.846 84.5901 139.471 84.6425 139.072 84.6425C138.884 84.6425 138.723 84.6397 138.589 84.6344C138.457 84.6288 138.265 84.6205 138.016 84.6096C137.827 84.5982 137.639 84.5901 137.451 84.5842C137.262 84.5786 137.046 84.5762 136.802 84.5762C136.364 84.5762 135.913 84.587 135.447 84.6096V84.376H135.448ZM137.435 83.9255C137.435 84.0702 137.547 84.1759 137.772 84.2422C137.996 84.3091 138.289 84.3426 138.649 84.3426C139.325 84.3426 139.853 84.1412 140.232 83.7381C140.612 83.335 140.802 82.7386 140.802 81.9492C140.802 81.5768 140.748 81.2335 140.64 80.9194C140.532 80.6055 140.374 80.3329 140.166 80.1024C139.958 79.8719 139.706 79.6928 139.409 79.5649C139.113 79.4369 138.779 79.3728 138.407 79.3728C138.097 79.3728 137.773 79.4171 137.435 79.506V83.9258V83.9255Z" fill="#19588B"/>
<path d="M143.496 83.0098C143.496 83.3655 143.597 83.6546 143.8 83.877C144.002 84.0995 144.278 84.2104 144.627 84.2104C144.826 84.2104 145.018 84.1673 145.204 84.0815C145.39 83.9951 145.544 83.877 145.666 83.7271L145.865 83.9439C145.649 84.1828 145.395 84.3702 145.105 84.5066C144.814 84.6426 144.513 84.711 144.203 84.711C143.665 84.711 143.235 84.5568 142.914 84.2485C142.593 83.9399 142.432 83.5297 142.432 83.0185C142.432 82.5073 142.593 82.0974 142.914 81.7889C143.235 81.48 143.665 81.3257 144.203 81.3257C144.741 81.3257 145.119 81.4812 145.404 81.7926C145.689 82.1039 145.854 82.5098 145.899 83.0102H143.496V83.0098ZM144.552 82.6926C144.663 82.6926 144.738 82.6774 144.776 82.6467C144.815 82.6161 144.834 82.5535 144.834 82.459C144.834 82.2034 144.782 82.0036 144.676 81.8589C144.571 81.7142 144.402 81.642 144.169 81.642C144.048 81.642 143.943 81.6739 143.858 81.738C143.772 81.8022 143.702 81.888 143.65 81.9964C143.597 82.1049 143.559 82.2204 143.534 82.3425C143.509 82.4649 143.496 82.5814 143.496 82.6926H144.552H144.552Z" fill="#19588B"/>
<path d="M150.321 81.5902C150.198 81.6069 150.096 81.6447 150.013 81.703C149.93 81.7612 149.827 81.8848 149.705 82.0741C149.583 82.2631 149.424 82.5469 149.227 82.9246C149.03 83.3029 148.733 83.8921 148.334 84.6924H147.843C147.549 83.9866 147.318 83.4448 147.149 83.0665C146.98 82.6882 146.833 82.3951 146.708 82.1869C146.583 81.9781 146.467 81.8312 146.359 81.7448C146.251 81.659 146.125 81.6072 145.98 81.5905V81.4238C146.457 81.4461 146.815 81.4573 147.053 81.4573C147.313 81.4573 147.704 81.4464 148.225 81.4238V81.5905C148.086 81.602 147.972 81.6348 147.88 81.6909C147.789 81.7463 147.743 81.83 147.743 81.9412C147.743 82.0243 147.782 82.1661 147.86 82.3663C147.937 82.5664 148.051 82.8363 148.2 83.1752C148.283 83.3754 148.346 83.5244 148.387 83.6214C148.429 83.7186 148.458 83.7979 148.475 83.8593C148.508 83.7871 148.583 83.6368 148.699 83.4091C148.771 83.2592 148.839 83.1204 148.903 82.9921C148.967 82.8642 149.026 82.7365 149.082 82.6086C149.137 82.4806 149.181 82.3623 149.214 82.2538C149.248 82.1454 149.265 82.058 149.265 81.9911C149.265 81.852 149.227 81.7575 149.152 81.7079C149.077 81.6577 148.962 81.619 148.807 81.5908V81.4241C149.045 81.4464 149.314 81.4576 149.614 81.4576C149.774 81.4576 150.01 81.4468 150.32 81.4241V81.5908L150.321 81.5902Z" fill="#19588B"/>
<path d="M151.501 83.0098C151.501 83.3655 151.602 83.6546 151.804 83.877C152.006 84.0995 152.282 84.2104 152.631 84.2104C152.831 84.2104 153.023 84.1673 153.209 84.0815C153.395 83.9951 153.549 83.877 153.67 83.7271L153.87 83.9439C153.654 84.1828 153.4 84.3702 153.109 84.5066C152.818 84.6426 152.517 84.711 152.207 84.711C151.67 84.711 151.24 84.5568 150.919 84.2485C150.597 83.9399 150.437 83.5297 150.437 83.0185C150.437 82.5073 150.597 82.0974 150.919 81.7889C151.24 81.48 151.67 81.3257 152.207 81.3257C152.745 81.3257 153.123 81.4812 153.409 81.7926C153.694 82.1039 153.859 82.5098 153.904 83.0102H151.501V83.0098ZM152.557 82.6926C152.667 82.6926 152.742 82.6774 152.781 82.6467C152.82 82.6161 152.839 82.5535 152.839 82.459C152.839 82.2034 152.786 82.0036 152.681 81.8589C152.576 81.7142 152.407 81.642 152.174 81.642C152.052 81.642 151.948 81.6739 151.862 81.738C151.776 81.8022 151.707 81.888 151.655 81.9964C151.602 82.1049 151.564 82.2204 151.538 82.3425C151.513 82.4649 151.501 82.5814 151.501 82.6926H152.557H152.557Z" fill="#19588B"/>
<path d="M155.84 83.951C155.84 84.1344 155.895 84.2623 156.006 84.3345C156.117 84.407 156.264 84.4429 156.447 84.4429V84.6099H156.381C156.198 84.5985 156.04 84.5904 155.907 84.5845C155.774 84.579 155.585 84.5765 155.342 84.5765C155.081 84.5765 154.877 84.579 154.73 84.5845C154.583 84.5901 154.427 84.5985 154.26 84.6099V84.4429C154.438 84.4429 154.582 84.407 154.693 84.3345C154.804 84.2623 154.859 84.1344 154.859 83.951V79.5063C154.859 79.3177 154.813 79.1841 154.722 79.1061C154.63 79.0283 154.482 78.9896 154.277 78.9896V78.8229C154.576 78.8114 154.863 78.791 155.137 78.7603C155.412 78.7296 155.646 78.689 155.84 78.6392V83.951H155.84Z" fill="#19588B"/>
<path d="M159.415 81.436C159.648 81.511 159.857 81.6222 160.043 81.7697C160.228 81.9168 160.374 82.0962 160.479 82.3072C160.584 82.5182 160.637 82.7546 160.637 83.0158C160.637 83.2769 160.584 83.5133 160.479 83.7249C160.374 83.9359 160.228 84.1141 160.043 84.2584C159.857 84.4031 159.648 84.5143 159.415 84.5921C159.182 84.6699 158.941 84.7086 158.692 84.7086C158.443 84.7086 158.201 84.6699 157.969 84.5921C157.736 84.5143 157.526 84.4031 157.341 84.2584C157.155 84.1144 157.01 83.9362 156.904 83.7249C156.799 83.5133 156.746 83.2776 156.746 83.0158C156.746 82.754 156.799 82.5182 156.904 82.3072C157.01 82.0962 157.155 81.9165 157.341 81.7697C157.526 81.6222 157.736 81.511 157.969 81.436C158.201 81.361 158.442 81.3232 158.692 81.3232C158.942 81.3232 159.182 81.361 159.415 81.436ZM158.127 83.996C158.304 84.26 158.52 84.3923 158.775 84.3923C159.008 84.3923 159.19 84.2876 159.324 84.0794C159.456 83.8705 159.523 83.5694 159.523 83.1744C159.523 82.674 159.434 82.2933 159.257 82.0321C159.08 81.7709 158.863 81.6402 158.608 81.6402C158.376 81.6402 158.193 81.7443 158.06 81.9531C157.927 82.1613 157.86 82.4631 157.86 82.8575C157.86 83.3525 157.949 83.7318 158.126 83.9957L158.127 83.996Z" fill="#19588B"/>
<path d="M163.415 86.5442C162.771 86.5219 162.289 86.5107 161.968 86.5107C161.729 86.5107 161.372 86.5216 160.895 86.5442V86.3775C161.117 86.3719 161.261 86.3122 161.328 86.1978C161.394 86.0838 161.427 85.9351 161.427 85.7517V82.041C161.427 81.7631 161.245 81.624 160.879 81.624V81.4573C161.161 81.4465 161.438 81.4254 161.71 81.3948C161.981 81.3641 162.214 81.3235 162.408 81.2739V81.7492C162.619 81.5937 162.815 81.4837 162.998 81.4198C163.181 81.3557 163.37 81.3238 163.564 81.3238C163.802 81.3238 164.025 81.3659 164.232 81.449C164.441 81.5326 164.619 81.6504 164.769 81.8034C164.919 81.9568 165.035 82.1371 165.118 82.3459C165.201 82.5541 165.243 82.7781 165.243 83.0166C165.243 83.5229 165.08 83.9173 164.756 84.2008C164.432 84.4845 164.023 84.6261 163.53 84.6261C163.28 84.6261 163.067 84.6119 162.89 84.584C162.712 84.5564 162.552 84.5062 162.408 84.4341V85.3849C162.408 85.6017 162.423 85.7712 162.453 85.8933C162.484 86.0157 162.534 86.1086 162.603 86.1727C162.672 86.2369 162.769 86.2824 162.894 86.3103C163.019 86.3379 163.191 86.3605 163.414 86.3772V86.5439L163.415 86.5442ZM162.409 83.4758C162.409 83.7422 162.476 83.9479 162.612 84.0926C162.748 84.2373 162.968 84.3095 163.273 84.3095C163.578 84.3095 163.787 84.2054 163.917 83.9966C164.047 83.7884 164.113 83.4671 164.113 83.0334C164.113 82.5996 164.047 82.2694 163.917 82.0578C163.787 81.8468 163.572 81.7408 163.273 81.7408C163.107 81.7408 162.936 81.7981 162.762 81.9118C162.587 82.0259 162.47 82.1467 162.408 82.2746V83.4755L162.409 83.4758Z" fill="#19588B"/>
<path d="M166.746 83.0098C166.746 83.3655 166.848 83.6546 167.05 83.877C167.252 84.0995 167.528 84.2104 167.877 84.2104C168.076 84.2104 168.269 84.1673 168.455 84.0815C168.64 83.9951 168.794 83.877 168.916 83.7271L169.115 83.9439C168.899 84.1828 168.645 84.3702 168.355 84.5066C168.064 84.6426 167.763 84.711 167.453 84.711C166.915 84.711 166.485 84.5568 166.164 84.2485C165.843 83.9399 165.682 83.5297 165.682 83.0185C165.682 82.5073 165.843 82.0974 166.164 81.7889C166.485 81.48 166.915 81.3257 167.453 81.3257C167.991 81.3257 168.369 81.4812 168.654 81.7926C168.939 82.1039 169.104 82.5098 169.149 83.0102H166.746V83.0098ZM167.802 82.6926C167.913 82.6926 167.988 82.6774 168.026 82.6467C168.065 82.6161 168.085 82.5535 168.085 82.459C168.085 82.2034 168.032 82.0036 167.927 81.8589C167.822 81.7142 167.653 81.642 167.42 81.642C167.298 81.642 167.194 81.6739 167.108 81.738C167.022 81.8022 166.953 81.888 166.9 81.9964C166.848 82.1049 166.809 82.2204 166.784 82.3425C166.759 82.4649 166.747 82.5814 166.747 82.6926H167.802H167.802Z" fill="#19588B"/>
<path d="M170.987 83.8605C170.987 84.0607 171.05 84.2053 171.174 84.294C171.299 84.3829 171.508 84.4331 171.802 84.4439V84.6109H171.777C171.278 84.5886 170.899 84.5774 170.638 84.5774C170.377 84.5774 169.998 84.5883 169.499 84.6109H169.474V84.4439C169.662 84.4331 169.807 84.3813 169.906 84.2896C170.006 84.1979 170.056 84.0551 170.056 83.8602V82.2089C170.056 82.0146 170.006 81.87 169.906 81.7755C169.807 81.681 169.662 81.6314 169.474 81.6255V81.4588C169.546 81.4588 169.645 81.4533 169.773 81.4421C169.9 81.4313 170.049 81.4158 170.218 81.3962C170.387 81.3767 170.544 81.3572 170.688 81.338C170.832 81.3185 170.931 81.303 170.987 81.2915V81.8755C171.048 81.8253 171.098 81.7838 171.137 81.7504C171.353 81.5722 171.541 81.4374 171.702 81.3461C171.863 81.2543 172.04 81.2085 172.234 81.2085C172.429 81.2085 172.575 81.2711 172.658 81.3962C172.741 81.5214 172.783 81.7119 172.783 81.9672L172.567 82.0676C172.362 82.1621 172.202 82.2371 172.089 82.2925C171.975 82.3483 171.885 82.3957 171.818 82.4344L171.719 82.3675C171.769 82.3341 171.817 82.291 171.864 82.238C171.912 82.1853 171.935 82.1339 171.935 82.0837C171.935 81.8895 171.829 81.7919 171.619 81.7919C171.542 81.7919 171.433 81.8353 171.295 81.9214C171.156 82.0078 171.054 82.0952 170.987 82.1841V83.8602V83.8605Z" fill="#19588B"/>
<path d="M173.364 83.4086C173.525 83.72 173.73 83.9703 173.979 84.1593C174.229 84.3483 174.514 84.4425 174.836 84.4425C174.968 84.4425 175.079 84.4124 175.168 84.3508C175.256 84.2897 175.301 84.2008 175.301 84.0837C175.301 83.9452 175.234 83.834 175.102 83.7503C174.968 83.6667 174.758 83.5728 174.47 83.4665C174.276 83.3944 174.115 83.329 173.987 83.2707C173.86 83.2125 173.738 83.14 173.622 83.0539C173.505 82.9674 173.411 82.8633 173.339 82.741C173.267 82.6186 173.231 82.477 173.231 82.3156C173.231 82.1381 173.262 81.9838 173.327 81.853C173.39 81.7226 173.476 81.6194 173.584 81.5444C173.693 81.4695 173.814 81.414 173.95 81.3778C174.086 81.3415 174.229 81.3232 174.378 81.3232C174.489 81.3232 174.678 81.3455 174.944 81.3902C175.243 81.4459 175.465 81.4738 175.609 81.4738C175.642 81.4738 175.681 81.4682 175.725 81.4571L175.792 82.4909H175.593C175.542 82.3853 175.476 82.28 175.393 82.1743C175.31 82.0687 175.218 81.9729 175.119 81.8865C175.019 81.8007 174.911 81.7294 174.794 81.674C174.678 81.6185 174.562 81.5903 174.445 81.5903C174.307 81.5903 174.194 81.6169 174.108 81.6696C174.022 81.7226 173.979 81.8158 173.979 81.9491C173.979 82.0823 174.046 82.192 174.179 82.2784C174.312 82.3642 174.517 82.4603 174.794 82.5659C174.983 82.6384 175.139 82.7035 175.264 82.762C175.388 82.8203 175.509 82.8925 175.625 82.9789C175.742 83.0647 175.834 83.1679 175.9 83.2875C175.966 83.4068 176 83.5443 176 83.7002C176 83.8836 175.965 84.0406 175.896 84.1714C175.827 84.3018 175.732 84.4062 175.613 84.4843C175.494 84.5621 175.358 84.6191 175.206 84.6553C175.053 84.6913 174.894 84.7092 174.728 84.7092C174.201 84.7092 173.708 84.6147 173.248 84.4254L173.174 83.4083H173.365L173.364 83.4086Z" fill="#19588B"/>
<path d="M175.999 76.3042H96.1001V77.0016H175.999V76.3042Z" fill="#19588B"/>
</svg>
