<svg width="231" height="131" viewBox="0 0 231 131" fill="none" xmlns="http://www.w3.org/2000/svg">
<path d="M127.224 61.6433C127.145 63.1936 126.536 64.444 125.068 65.165C124.744 65.3241 124.556 65.5592 124.412 65.8817C123.203 68.574 121.24 70.5172 118.557 71.7408C117.812 72.0802 117.039 72.3308 116.234 72.4674C115.782 72.5434 115.44 72.735 115.175 73.1222C114.879 73.5559 114.536 73.9586 114.202 74.3669C114.068 74.5317 113.91 74.5359 113.775 74.3726C113.454 73.9868 113.125 73.6023 112.842 73.1884C112.55 72.7617 112.167 72.566 111.67 72.4547C108.116 71.6606 105.483 69.654 103.81 66.4055C103.755 66.2985 103.693 66.1943 103.654 66.0831C103.486 65.6099 103.182 65.3072 102.72 65.0678C101.052 64.1976 100.587 62.4501 100.774 61.066C100.981 59.5213 101.68 58.2469 103.037 57.4063C103.327 57.2261 103.459 56.967 103.588 56.6811C104.42 54.8252 105.684 53.3143 107.313 52.1118C108.382 51.3219 109.559 50.7262 110.848 50.401C111.456 50.2475 111.929 49.9574 112.357 49.5082C112.752 49.0942 113.212 48.7422 113.656 48.3775C113.92 48.1593 114.023 48.1635 114.288 48.3691C114.837 48.7943 115.372 49.2379 115.848 49.7462C116.117 50.0349 116.427 50.2123 116.818 50.3123C118.709 50.7995 120.378 51.7119 121.801 53.0496C122.644 53.841 123.345 54.752 123.907 55.7644C124.081 56.0785 124.243 56.3995 124.387 56.729C124.526 57.0472 124.736 57.2753 125.027 57.4739C126.486 58.4652 127.154 59.886 127.227 61.6461L127.224 61.6433ZM105.783 57.1754C105.52 57.1895 105.256 57.1909 104.994 57.2218C103.903 57.3486 102.969 57.7907 102.267 58.6511C101.508 59.5804 101.137 60.6604 101.226 61.8545C101.399 64.2046 103.143 65.172 104.797 65.0847C105.379 65.0537 105.881 64.8411 106.264 64.4201C107.016 63.5921 107.236 62.629 106.88 61.5532C106.804 61.3222 106.677 61.1167 106.497 60.9533C106.1 60.59 105.629 60.5647 105.152 60.7294C104.723 60.8773 104.476 61.3138 104.479 61.8165C104.48 62.0601 104.554 62.2854 104.632 62.5135C104.707 62.7304 104.582 62.8782 104.345 62.8895C104.016 62.905 103.73 62.781 103.489 62.5741C102.864 62.039 102.562 61.3448 102.657 60.5337C102.786 59.4129 103.42 58.6356 104.465 58.2258C105.308 57.8949 106.18 57.8034 107.068 58.0611C107.765 58.2638 108.408 58.5722 108.985 59.0172C109.914 59.7339 110.594 60.652 111.111 61.694C111.453 62.384 111.693 63.1119 111.797 63.8794C111.85 64.2722 111.739 64.4032 111.336 64.4257C111.049 64.4412 110.762 64.4271 110.475 64.4412C110.079 64.4595 109.959 64.5975 109.992 64.9763C110.011 65.2086 110.113 65.3156 110.354 65.3368C110.52 65.3508 110.689 65.3466 110.856 65.3508C111.024 65.3537 111.191 65.348 111.359 65.3607C111.75 65.3903 111.848 65.5057 111.839 65.9127C111.838 66.0084 111.833 66.1056 111.815 66.1985C111.666 66.9293 111.455 67.6404 111.049 68.2755C110.921 68.4754 110.77 68.6669 110.604 68.8359C110.325 69.1189 109.969 69.2654 109.575 69.2893C108.917 69.3287 108.405 68.8204 108.446 68.184C108.457 68.0108 108.564 67.846 108.665 67.853C108.829 67.8629 108.812 68.0136 108.861 68.1121C108.882 68.1544 108.902 68.1994 108.931 68.2361C109.065 68.4064 109.254 68.4684 109.438 68.405C109.652 68.3318 109.782 68.129 109.749 67.8995C109.71 67.6179 109.562 67.4137 109.305 67.2898C108.872 67.08 108.286 67.2405 107.972 67.6841C107.627 68.1713 107.567 68.7134 107.815 69.2513C108.053 69.7638 108.477 70.0595 109.055 70.1004C109.849 70.1553 110.51 69.8666 111.048 69.2964C111.294 69.0344 111.493 68.7345 111.664 68.4163C112.091 67.6277 112.356 66.7857 112.481 65.9014C112.552 65.4072 112.743 65.3396 113.154 65.3706C113.375 65.3874 113.494 65.5226 113.492 65.7522C113.492 65.8479 113.473 65.9422 113.464 66.038C113.395 66.8786 113.185 67.6897 112.928 68.4895C112.663 69.3104 112.387 70.1271 112.104 70.941C112.018 71.1888 112.032 71.4043 112.195 71.6141C112.709 72.2773 113.213 72.9462 113.732 73.6052C113.913 73.8361 114.043 73.8276 114.244 73.5742C114.676 73.0307 115.1 72.4801 115.521 71.9281C115.994 71.3071 115.999 71.3015 115.737 70.5622C115.409 69.6371 115.069 68.7148 114.816 67.7657C114.648 67.1405 114.513 66.5083 114.492 65.8578C114.479 65.4494 114.593 65.341 114.992 65.3649C115.282 65.3832 115.379 65.4494 115.451 65.7254C115.506 65.9338 115.54 66.1464 115.573 66.359C115.699 67.1504 115.985 67.8826 116.375 68.5768C116.601 68.9795 116.908 69.3147 117.262 69.6047C117.771 70.0201 118.364 70.1722 119.011 70.0905C119.709 70.0032 120.193 69.4977 120.258 68.8106C120.331 68.0347 120.019 67.5123 119.382 67.2518C118.899 67.0547 118.357 67.3968 118.218 67.808C118.145 68.0248 118.225 68.2515 118.419 68.3684C118.612 68.4839 118.847 68.443 118.998 68.2586C119.042 68.2051 119.073 68.1361 119.099 68.0713C119.144 67.9643 119.167 67.8178 119.327 67.8685C119.454 67.908 119.481 68.0445 119.508 68.16C119.558 68.3839 119.496 68.5867 119.378 68.7768C119.12 69.1922 118.623 69.3879 118.126 69.2541C117.697 69.1386 117.331 68.9134 117.077 68.5416C116.556 67.7756 116.248 66.9265 116.118 66.0112C116.108 65.9408 116.11 65.8676 116.113 65.7958C116.123 65.5184 116.223 65.3917 116.494 65.3734C116.828 65.3494 117.165 65.3635 117.5 65.3452C117.873 65.3255 117.997 65.1607 117.949 64.7791C117.925 64.5905 117.822 64.4764 117.625 64.4567C117.435 64.4384 117.242 64.444 117.051 64.437C116.859 64.4313 116.667 64.4342 116.477 64.4145C116.251 64.3905 116.139 64.2553 116.142 64.03C116.142 63.9582 116.149 63.8864 116.163 63.816C116.563 61.8151 117.495 60.1352 119.149 58.8975C119.651 58.5215 120.215 58.261 120.819 58.0822C121.782 57.7949 122.711 57.9034 123.625 58.2821C124.056 58.461 124.419 58.7313 124.702 59.096C125.537 60.1732 125.503 61.3476 124.723 62.3305C124.478 62.6388 124.164 62.8514 123.756 62.8923C123.353 62.9331 123.224 62.7712 123.364 62.3994C123.407 62.2882 123.464 62.1798 123.495 62.0657C123.663 61.4433 123.232 60.7787 122.594 60.6689C121.923 60.5534 121.39 60.8533 121.102 61.5095C120.595 62.6585 121.114 64.2201 122.217 64.8242C122.403 64.9256 122.611 65.0157 122.818 65.0481C124.405 65.2917 126.075 64.5215 126.565 62.7627C127.01 61.1631 126.628 59.7283 125.533 58.4891C124.904 57.778 124.088 57.3824 123.163 57.2444C121.573 57.0078 120.115 57.357 118.822 58.3244C117.076 59.6311 116.031 61.3814 115.589 63.5062C115.545 63.7174 115.506 63.9287 115.452 64.1371C115.404 64.3229 115.265 64.399 115.082 64.4201C114.55 64.482 114.374 64.3117 114.446 63.7738C114.484 63.4893 114.543 63.2077 114.605 62.9275C114.757 62.2474 114.989 61.5926 115.248 60.9477C115.678 59.8818 116.124 58.8214 116.545 57.7527C116.905 56.8374 117.163 55.894 117.291 54.9125C117.456 53.6495 117.19 52.4864 116.556 51.3979C115.98 50.4066 115.169 49.6321 114.267 48.9464C114.013 48.7549 113.941 48.7549 113.692 48.9394C113.036 49.428 112.429 49.9729 111.928 50.6192C111.08 51.7105 110.594 52.9271 110.649 54.3423C110.68 55.1153 110.797 55.8658 111.025 56.6009C111.431 57.9062 111.981 59.1566 112.5 60.4196C112.918 61.4391 113.33 62.4628 113.487 63.564C113.511 63.7287 113.529 63.8963 113.522 64.0624C113.518 64.1497 113.473 64.2553 113.412 64.3159C113.18 64.5482 112.609 64.4215 112.511 64.1159C112.452 63.9343 112.416 63.7442 112.381 63.5569C112.021 61.6841 111.162 60.0831 109.738 58.8116C108.619 57.8104 107.34 57.1486 105.784 57.1768L105.783 57.1754ZM117.104 51.0952C117.172 51.4486 117.435 51.5092 117.671 51.6035C118.273 51.8415 118.854 52.1175 119.406 52.4568C120.926 53.3876 122.121 54.6351 123.018 56.17C123.138 56.3742 123.218 56.6079 123.418 56.7572C123.446 56.7783 123.502 56.7656 123.543 56.7586C123.555 56.7572 123.571 56.7149 123.566 56.698C123.538 56.6079 123.514 56.5136 123.47 56.4319C122.307 54.2493 120.62 52.6173 118.363 51.5894C117.953 51.4035 117.524 51.2585 117.104 51.0952ZM104.527 56.7459C104.565 56.722 104.618 56.7065 104.641 56.6713C104.793 56.4291 104.938 56.1812 105.087 55.9362C106.267 53.9931 107.919 52.599 110.007 51.7133C110.204 51.6288 110.408 51.557 110.604 51.4711C110.668 51.4444 110.72 51.3923 110.773 51.3444C110.786 51.3331 110.783 51.2951 110.775 51.2754C110.766 51.2557 110.739 51.2275 110.724 51.2303C110.608 51.2444 110.487 51.2487 110.377 51.2853C108.947 51.7612 107.711 52.5624 106.621 53.5903C105.798 54.3662 105.125 55.2646 104.596 56.2643C104.53 56.3882 104.49 56.5276 104.442 56.6614C104.437 56.6769 104.454 56.7065 104.468 56.7206C104.482 56.7346 104.507 56.736 104.528 56.7431L104.527 56.7459ZM107.46 69.7033C107.394 69.3935 107.188 69.2034 106.987 69.0091C106.505 68.5444 106.035 68.0713 105.635 67.5292C105.322 67.1053 105.035 66.6674 104.793 66.1985C104.706 66.0295 104.606 65.8662 104.503 65.7071C104.485 65.6775 104.414 65.6606 104.378 65.6719C104.348 65.6817 104.307 65.7493 104.317 65.7761C104.361 65.9113 104.409 66.0464 104.473 66.1732C104.82 66.8575 105.231 67.5052 105.729 68.0868C106.132 68.5571 106.59 68.9809 107.032 69.4175C107.146 69.5301 107.244 69.6751 107.463 69.7019L107.46 69.7033ZM120.523 69.754C121.852 68.636 122.898 67.4546 123.576 65.976C123.605 65.9127 123.619 65.8423 123.635 65.7733C123.639 65.755 123.625 65.7155 123.614 65.7127C123.574 65.7029 123.512 65.6874 123.494 65.7071C123.429 65.7747 123.37 65.8507 123.326 65.9338C122.698 67.1236 121.9 68.1811 120.895 69.0795C120.736 69.2217 120.582 69.3738 120.524 69.754H120.523ZM119.113 70.6707C118.901 70.5665 118.777 70.5834 118.671 70.6298C118.016 70.9241 117.345 71.1691 116.662 71.3902C116.599 71.4113 116.545 71.4691 116.493 71.5155C116.479 71.5268 116.477 71.5606 116.482 71.5817C116.486 71.6014 116.503 71.6282 116.52 71.6324C116.563 71.6451 116.614 71.6634 116.656 71.6535C117.488 71.4381 118.288 71.141 119.113 70.6707ZM108.792 70.6608C109.648 71.1227 110.439 71.4353 111.272 71.6507C111.314 71.662 111.366 71.6493 111.411 71.6394C111.431 71.6352 111.452 71.6127 111.46 71.593C111.469 71.5733 111.469 71.5409 111.458 71.524C111.389 71.4156 111.273 71.3747 111.16 71.3395C110.568 71.1551 109.982 70.9495 109.42 70.6805C109.269 70.6087 109.11 70.558 108.793 70.6608H108.792ZM124.306 59.4326C124.287 59.4509 124.254 59.4678 124.256 59.4804C124.363 60.2141 124.354 60.9533 124.37 61.6926C124.371 61.7616 124.395 61.8348 124.535 61.7982C124.675 61.1279 124.601 60.4422 124.528 59.7578C124.513 59.6283 124.475 59.4692 124.305 59.4326H124.306ZM103.666 59.4565C103.643 59.4607 103.604 59.4565 103.599 59.4706C103.223 60.2084 103.306 60.9801 103.433 61.7559C103.436 61.7714 103.476 61.7954 103.485 61.7897C103.519 61.77 103.565 61.7461 103.574 61.7137C103.59 61.6461 103.588 61.5729 103.589 61.5011C103.592 60.859 103.582 60.2169 103.713 59.5832C103.721 59.5452 103.685 59.4988 103.669 59.4551L103.666 59.4565Z" fill="#12100B"/>
<path d="M139.362 61.2188C139.362 60.3809 139.359 59.5431 139.362 58.7053C139.363 58.3195 139.31 57.9421 139.235 57.5661C139.172 57.2437 138.968 57.0663 138.663 56.9944C138.479 56.9508 138.286 56.9367 138.099 56.9015C138.02 56.8874 137.985 56.8241 137.983 56.7452C137.982 56.6565 138.047 56.6143 138.116 56.6044C138.256 56.5833 138.4 56.5678 138.542 56.5664C139.428 56.5636 140.314 56.5664 141.198 56.5664C141.294 56.5664 141.39 56.5692 141.485 56.5791C141.578 56.5889 141.688 56.5988 141.715 56.7086C141.754 56.8748 141.618 56.9001 141.505 56.9311C141.413 56.9564 141.316 56.9635 141.225 56.9916C140.945 57.0789 140.785 57.2789 140.747 57.5619C140.718 57.7745 140.712 57.9914 140.705 58.2054C140.594 61.0751 140.576 63.9477 140.556 66.8188C140.555 67.0807 140.569 67.3468 140.471 67.5989C140.395 67.7989 140.194 67.8988 140.01 67.8003C139.865 67.7228 139.725 67.6242 139.604 67.5116C139.341 67.268 139.09 67.0103 138.835 66.7569C137.55 65.4712 136.256 64.1913 134.981 62.8944C134.16 62.058 133.369 61.192 132.562 60.3415C132.447 60.2204 132.326 60.105 132.199 59.9951C132.172 59.9712 132.102 59.9684 132.069 59.9867C132.037 60.005 132.01 60.0655 132.013 60.105C132.13 61.6342 132.083 63.1662 132.11 64.6982C132.12 65.2741 132.181 65.8444 132.238 66.4161C132.252 66.5569 132.285 66.7005 132.333 66.8343C132.4 67.023 132.53 67.161 132.73 67.2173C132.845 67.2497 132.963 67.2722 133.076 67.3116C133.235 67.368 133.521 67.2933 133.489 67.5679C133.465 67.7721 133.22 67.7214 133.062 67.7228C132.057 67.7284 131.053 67.7256 130.047 67.7228C129.953 67.7228 129.856 67.7087 129.764 67.6876C129.697 67.6721 129.628 67.6369 129.623 67.5482C129.619 67.4708 129.653 67.4088 129.728 67.3863C129.866 67.3468 130.005 67.3131 130.143 67.2807C130.522 67.192 130.701 66.9357 130.736 66.5639C130.75 66.4217 130.757 66.2781 130.76 66.1345C130.805 63.8139 130.85 61.4934 130.892 59.1728C130.903 58.5025 130.901 57.8323 130.908 57.162C130.91 56.948 130.905 56.7311 131.008 56.5298C131.088 56.3707 131.282 56.3045 131.43 56.4087C131.545 56.4903 131.652 56.5889 131.75 56.6917C132.344 57.3141 132.93 57.9463 133.529 58.5659C135.278 60.3697 137.031 62.1692 138.783 63.9716C138.883 64.0744 138.982 64.18 139.086 64.2786C139.17 64.3588 139.253 64.5011 139.37 64.4602C139.559 64.394 139.445 64.218 139.442 64.0885C139.42 63.131 139.394 62.1749 139.369 61.2174C139.365 61.2174 139.362 61.2174 139.358 61.2174L139.362 61.2188Z" fill="#12100B"/>
<path d="M148.038 72.1375C139.275 72.1375 130.514 72.1375 121.752 72.1375C121.466 72.1375 121.178 72.1249 120.893 72.1023C120.836 72.0981 120.753 72.0305 120.741 71.9784C120.728 71.9277 120.771 71.839 120.818 71.7996C121.245 71.4307 121.706 71.1519 122.309 71.2307C122.498 71.2546 122.692 71.2349 122.884 71.2349C140.025 71.2349 157.165 71.2349 174.308 71.2349C174.619 71.2349 174.93 71.2349 175.24 71.2561C175.464 71.2701 175.582 71.4124 175.598 71.6292C175.614 71.8784 175.496 72.0516 175.257 72.0981C175.117 72.1249 174.972 72.1333 174.829 72.1375C174.589 72.1446 174.35 72.1403 174.111 72.1403C165.42 72.1403 156.73 72.1403 148.039 72.1403L148.038 72.1375Z" fill="#12100B"/>
<path d="M149.248 52.4312C157.632 52.4312 166.014 52.4312 174.398 52.4312C174.686 52.4312 174.973 52.434 175.259 52.4608C175.48 52.4819 175.588 52.6284 175.599 52.8537C175.612 53.1198 175.498 53.2944 175.262 53.3197C175.025 53.3465 174.784 53.3465 174.545 53.3465C171.455 53.3479 168.365 53.3465 165.275 53.3465C151.79 53.3465 138.306 53.3465 124.82 53.3465C124.557 53.3465 124.292 53.3296 124.03 53.3479C123.566 53.3803 123.262 53.1451 123.024 52.7833C122.935 52.6467 123.002 52.4777 123.169 52.4636C123.454 52.4411 123.742 52.4298 124.029 52.4298C132.292 52.4284 140.556 52.4298 148.819 52.4298C148.962 52.4298 149.106 52.4298 149.25 52.4298L149.248 52.4312Z" fill="#12100B"/>
<path d="M81.1391 72.1375C72.7848 72.1375 64.4305 72.1375 56.0762 72.1375C55.789 72.1375 55.5003 72.139 55.2159 72.1122C54.9216 72.084 54.785 71.9094 54.8005 71.6334C54.8146 71.3912 54.9441 71.2617 55.2215 71.2448C55.4834 71.2293 55.7482 71.2321 56.0115 71.2321C66.2808 71.2321 76.5501 71.2321 86.8194 71.2321C92.9236 71.2321 99.0277 71.2321 105.132 71.2321C105.347 71.2321 105.564 71.2504 105.778 71.2293C106.363 71.1716 106.782 71.4715 107.174 71.8418C107.203 71.87 107.231 71.9446 107.214 71.9672C107.178 72.0221 107.117 72.0925 107.061 72.0967C106.775 72.1206 106.489 72.1361 106.202 72.1361C99.4994 72.1375 92.7968 72.1375 86.0943 72.1375C84.4425 72.1375 82.7908 72.1375 81.1391 72.1375Z" fill="#12100B"/>
<path d="M79.973 52.4292C87.9696 52.4292 95.9649 52.4292 103.961 52.4306C104.247 52.4306 104.535 52.4503 104.819 52.4743C104.936 52.4841 105.001 52.6573 104.937 52.7573C104.722 53.0938 104.461 53.3572 104.019 53.3417C103.828 53.3346 103.636 53.3445 103.445 53.3445C87.6204 53.3445 71.7947 53.3445 55.9704 53.3445C55.7071 53.3445 55.4438 53.3445 55.1819 53.322C54.9284 53.2994 54.8101 53.1417 54.8115 52.8826C54.8115 52.632 54.9354 52.4785 55.1959 52.4532C55.4579 52.4278 55.7212 52.4292 55.9845 52.4292C60.2933 52.4292 64.6035 52.4292 68.9123 52.4292C72.5987 52.4292 76.2866 52.4292 79.973 52.4292Z" fill="#12100B"/>
<path d="M148.5 67.8752C147.489 67.9202 146.543 67.709 145.654 67.2415C144.609 66.691 143.901 65.8419 143.495 64.7492C142.986 63.3791 143.051 62.0301 143.718 60.7178C144.263 59.6462 145.089 58.8689 146.21 58.4578C148.096 57.7678 149.976 57.7974 151.767 58.7549C153.109 59.473 153.828 60.6502 153.952 62.1681C154.034 63.158 153.934 64.1212 153.49 65.0379C152.869 66.3192 151.874 67.1472 150.542 67.6006C149.877 67.8259 149.191 67.9104 148.5 67.8766V67.8752ZM145.308 62.5638C145.308 62.8032 145.295 63.0426 145.311 63.2805C145.37 64.1888 145.668 65.0153 146.23 65.7292C147.017 66.729 148.087 67.1627 149.328 67.0472C150.453 66.943 151.23 66.2868 151.584 65.2096C152.038 63.8255 152.041 62.4329 151.489 61.0656C151.003 59.8645 150.122 59.1379 148.846 58.883C147.295 58.5732 145.903 59.4111 145.457 60.929C145.299 61.4669 145.296 62.0147 145.306 62.5652L145.308 62.5638Z" fill="#12100B"/>
<path d="M163.607 58.1757C164.158 58.1757 164.708 58.1813 165.259 58.1742C165.718 58.1672 166.166 58.2503 166.609 58.3488C166.987 58.4333 167.332 58.5995 167.63 58.8544C168.422 59.5288 168.65 60.4934 168.239 61.4509C168.077 61.8297 167.84 62.1592 167.561 62.4591C167.48 62.5464 167.395 62.6323 167.309 62.7154C166.722 63.2885 166.67 63.2448 167.226 63.9235C167.863 64.7008 168.491 65.4865 169.188 66.2145C169.693 66.7412 170.224 67.2115 170.973 67.3452C171.07 67.3621 171.172 67.4185 171.172 67.5213C171.172 67.6677 171.045 67.717 170.921 67.717C170.299 67.717 169.675 67.7381 169.055 67.6973C168.568 67.6649 168.124 67.4607 167.775 67.1073C167.489 66.8186 167.205 66.5243 166.959 66.2033C166.507 65.6147 166.084 65.005 165.649 64.4037C165.508 64.2094 165.384 63.9869 165.138 63.9207C164.813 63.8334 164.456 63.7644 164.162 63.9489C163.909 64.108 164.009 64.4291 164.004 64.6853C163.997 65.1641 164.004 65.6428 164.017 66.1216C164.021 66.3117 164.042 66.5046 164.075 66.6919C164.128 67.0031 164.299 67.2087 164.627 67.272C164.789 67.303 164.946 67.3621 165.103 67.4213C165.134 67.4325 165.16 67.4987 165.158 67.5382C165.155 67.579 165.124 67.6381 165.09 67.6522C165.004 67.6874 164.91 67.724 164.818 67.724C163.741 67.7282 162.664 67.7282 161.587 67.724C161.495 67.724 161.401 67.6916 161.313 67.6578C161.28 67.6438 161.246 67.5874 161.242 67.5466C161.237 67.5072 161.259 67.4396 161.288 67.4255C161.416 67.365 161.551 67.3157 161.687 67.2692C161.946 67.1805 162.068 66.9932 162.084 66.7299C162.099 66.4905 162.115 66.2511 162.116 66.0132C162.12 63.9052 162.122 61.7987 162.125 59.6908C162.125 59.619 162.125 59.5471 162.12 59.4753C162.091 58.8656 162.037 58.7994 161.456 58.6361C161.364 58.6108 161.266 58.5939 161.184 58.5502C161.128 58.5206 161.059 58.4488 161.059 58.3953C161.059 58.2939 161.142 58.2249 161.243 58.2137C161.433 58.194 161.623 58.1813 161.815 58.1799C162.413 58.1757 163.012 58.1785 163.61 58.1785L163.607 58.1757ZM164.007 61.013C164.007 61.013 164.002 61.013 163.999 61.013C163.999 61.3706 163.997 61.7297 163.999 62.0874C164.004 62.9956 164.076 63.0646 164.973 63.0618C165.774 63.059 166.324 62.6365 166.528 61.8607C166.652 61.3918 166.664 60.9299 166.556 60.4455C166.307 59.3289 165.401 58.9642 164.546 58.9797C164.183 58.9867 164.023 59.1402 164.01 59.5077C163.992 60.009 164.006 60.5103 164.006 61.013H164.007Z" fill="#12100B"/>
<path d="M71.2881 58.1477C71.2881 58.5067 71.2923 58.8658 71.2867 59.2249C71.2838 59.3685 71.2458 59.5079 71.143 59.6192C71.0909 59.6741 70.9121 59.6755 70.8853 59.6065C70.8248 59.4516 70.7586 59.2953 70.7262 59.1348C70.5601 58.2998 70.0503 57.7816 69.2576 57.5225C68.1874 57.1733 67.1018 57.1015 66.0034 57.3732C65.1473 57.5844 64.4954 58.073 64.0321 58.8236C63.7519 59.2784 63.5505 59.7698 63.466 60.2894C63.2957 61.3342 63.2478 62.3889 63.5491 63.4224C64.0772 65.2276 65.2459 66.3865 67.0806 66.8357C67.8621 67.0272 68.6521 66.9821 69.4237 66.7667C70.0588 66.5907 70.5178 66.1936 70.7868 65.5853C70.8642 65.4107 70.9389 65.2333 71.0332 65.0685C71.06 65.0221 71.1642 64.9883 71.2205 65.0009C71.2782 65.0136 71.343 65.084 71.3641 65.1432C71.3951 65.2305 71.4106 65.3332 71.3965 65.4234C71.3176 65.919 71.2317 66.4147 71.1402 66.9089C71.0614 67.3285 70.798 67.582 70.3925 67.6918C70.2996 67.7172 70.208 67.751 70.1151 67.7636C69.1435 67.896 68.1776 68.0481 67.1877 67.9326C66.3766 67.8383 65.574 67.7298 64.8051 67.4412C64.1264 67.1863 63.497 66.8456 62.9591 66.3555C61.2567 64.8038 60.7653 62.8634 61.244 60.6682C61.7538 58.3265 63.6308 56.8241 65.8936 56.4467C67.603 56.1622 69.2801 56.3594 70.9501 56.7213C71.2867 56.7945 71.3528 56.8874 71.3472 57.2127C71.3416 57.5239 71.319 57.8351 71.3036 58.1449C71.2993 58.1449 71.2951 58.1449 71.2909 58.1449L71.2881 58.1477Z" fill="#12100B"/>
<path d="M91.7035 62.9438C91.7035 61.9624 91.7035 60.9809 91.7035 60.0009C91.7035 59.8333 91.705 59.6658 91.6979 59.4982C91.6712 58.8547 91.6317 58.8068 90.9882 58.6238C90.7179 58.5477 90.594 58.4506 90.6404 58.352C90.7136 58.1929 90.8657 58.1901 91.0065 58.183C91.222 58.1732 91.4374 58.1774 91.6529 58.1774C93.3271 58.1746 95.0013 58.2267 96.6756 58.1549C96.746 58.152 96.8192 58.1549 96.8896 58.1633C96.9994 58.1788 97.0712 58.2647 97.0642 58.359C97.0248 58.8814 97.0769 59.4151 96.8854 59.9192C96.8643 59.9755 96.7924 60.0262 96.7333 60.0488C96.6601 60.0755 96.5995 60.0276 96.5629 59.9572C96.5517 59.9361 96.539 59.915 96.5348 59.8925C96.4207 59.2687 95.9729 59.1124 95.4252 59.1039C94.9943 59.0969 94.5634 59.087 94.1339 59.1011C93.8608 59.111 93.7242 59.2321 93.7185 59.4982C93.7031 60.2628 93.7031 61.0288 93.7185 61.7934C93.7242 62.0553 93.8636 62.1792 94.141 62.1835C94.762 62.1933 95.3843 62.1905 96.0053 62.1637C96.1884 62.1553 96.3658 62.0455 96.5474 61.9891C96.7037 61.9399 96.8333 62.0258 96.8586 62.1877C96.8657 62.2342 96.8812 62.2834 96.8755 62.3299C96.8234 62.8284 96.7699 63.3268 96.7122 63.8253C96.6995 63.9281 96.6235 64.0098 96.5263 64.0168C96.4249 64.0239 96.363 63.9351 96.325 63.8422C96.3165 63.8197 96.3052 63.7971 96.3024 63.7746C96.2292 63.2733 95.9053 63.1058 95.4393 63.11C95.0323 63.1142 94.6254 63.0903 94.2198 63.103C93.858 63.1142 93.72 63.2283 93.7129 63.569C93.696 64.4055 93.6904 65.2447 93.7185 66.0811C93.734 66.5444 93.9101 66.7007 94.3691 66.802C94.9366 66.9274 95.4998 66.9415 96.0771 66.8246C96.4911 66.7401 96.791 66.5683 96.9149 66.1487C96.929 66.1022 96.9445 66.0572 96.9628 66.0135C97.0177 65.8826 97.067 65.722 97.2529 65.7755C97.3796 65.8121 97.4176 65.953 97.4148 66.0712C97.4036 66.5021 97.3515 66.9288 97.2346 67.3442C97.1698 67.5709 97.0107 67.7145 96.7755 67.7441C96.515 67.7765 96.2503 67.8229 95.9912 67.8018C94.5338 67.6863 93.075 67.7201 91.6162 67.723C91.4022 67.723 91.1868 67.7103 90.9727 67.692C90.9037 67.6863 90.8362 67.6441 90.8235 67.561C90.8108 67.485 90.8347 67.423 90.9094 67.3878C90.9305 67.378 90.9516 67.3611 90.9741 67.3583C91.5937 67.2724 91.6993 66.8471 91.6937 66.3148C91.681 65.1898 91.6895 64.0661 91.6895 62.941C91.6951 62.941 91.6993 62.941 91.705 62.941L91.7035 62.9438Z" fill="#12100B"/>
<path d="M73.3375 67.7033C72.8588 67.7033 72.3814 67.7062 71.9027 67.7005C71.7957 67.7005 71.721 67.6189 71.7351 67.5147C71.7421 67.4612 71.8196 67.3795 71.8703 67.3739C72.6968 67.3006 73.0193 66.7078 73.3037 66.0404C74.3331 63.617 75.3779 61.1993 76.4156 58.7788C76.5198 58.5366 76.6015 58.2845 76.7846 58.086C76.9521 57.9029 77.2 57.9001 77.3351 58.1071C77.4647 58.3071 77.5717 58.5239 77.6646 58.7422C78.5715 60.8543 79.4726 62.9679 80.3767 65.0815C80.5456 65.4771 80.7104 65.877 80.8948 66.2657C81.1483 66.8008 81.4665 67.2739 82.134 67.3358C82.179 67.3401 82.2241 67.3654 82.2677 67.3851C82.341 67.4189 82.3748 67.4809 82.355 67.5555C82.3438 67.5963 82.31 67.6442 82.2734 67.6625C82.21 67.6921 82.1382 67.716 82.0692 67.7174C81.1835 67.7174 80.2978 67.7146 79.4121 67.709C79.3417 67.709 79.2685 67.6893 79.2037 67.6625C79.1122 67.6245 79.0192 67.5442 79.0671 67.4457C79.2361 67.095 79.0798 66.7937 78.9559 66.4839C78.7686 66.0178 78.5799 65.5518 78.394 65.0843C78.2856 64.8111 78.0955 64.6618 77.7928 64.6632C77.0507 64.6661 76.3086 64.6632 75.5666 64.6632C75.3061 64.6632 75.0991 64.7548 74.9921 65.0096C74.7893 65.4954 74.5837 65.9812 74.3866 66.4684C74.3514 66.5557 74.3387 66.6543 74.3288 66.7487C74.2979 67.0458 74.3781 67.1866 74.6555 67.3105C74.7414 67.3485 74.8386 67.364 74.9259 67.402C74.9977 67.433 75.0315 67.5006 74.9991 67.5766C74.9822 67.6175 74.9456 67.6724 74.9118 67.678C74.747 67.7033 74.5809 67.7231 74.4147 67.7259C74.0557 67.7329 73.6966 67.7273 73.3375 67.7273C73.3375 67.7202 73.3375 67.7118 73.3375 67.7048V67.7033ZM76.6593 63.7691C76.6593 63.7691 76.6593 63.7663 76.6593 63.7635C76.9212 63.7635 77.1817 63.7719 77.4436 63.7607C77.7125 63.7494 77.7998 63.6396 77.7097 63.3974C77.4379 62.6623 77.1507 61.9329 76.8676 61.2007C76.8339 61.1134 76.7972 61.005 76.6888 60.9994C76.5804 60.9923 76.5325 61.0937 76.4973 61.181C76.2326 61.8428 75.9594 62.5018 75.7088 63.1692C75.5074 63.7043 75.5553 63.7592 76.1594 63.7691C76.3255 63.7719 76.4917 63.7691 76.6578 63.7691H76.6593Z" fill="#12100B"/>
<path d="M85.9992 58.1601C86.9328 58.1601 87.8664 58.1601 88.8 58.1601C88.8718 58.1601 88.9436 58.1601 89.014 58.1728C89.121 58.1911 89.2027 58.277 89.1914 58.3671C89.1281 58.8881 89.1802 59.4204 89.0379 59.9315C89.0224 59.9864 88.9408 60.0498 88.883 60.0554C88.8267 60.0625 88.7563 60.0089 88.7056 59.9667C88.6732 59.9385 88.6577 59.8836 88.6507 59.8372C88.5662 59.3119 88.2072 59.1275 87.7298 59.112C87.2032 59.0965 86.6765 59.0909 86.1499 59.1007C85.8134 59.1078 85.6923 59.2105 85.6866 59.5203C85.6712 60.2624 85.6712 61.0045 85.6866 61.7465C85.6937 62.069 85.8063 62.1774 86.133 62.1845C86.7554 62.1971 87.3778 62.1901 88.0002 62.176C88.1382 62.1732 88.2776 62.1155 88.4113 62.069C88.8239 61.924 88.8859 61.9578 88.8661 62.3591C88.8436 62.79 88.8126 63.2194 88.7732 63.6475C88.7648 63.7376 88.7113 63.8263 88.6704 63.9108C88.6352 63.9826 88.4578 63.9897 88.4184 63.9178C88.3395 63.77 88.2762 63.6151 88.1959 63.4687C88.0847 63.2687 87.9115 63.1434 87.6791 63.1265C87.13 63.0842 86.5794 63.0688 86.0302 63.1166C85.8415 63.1321 85.7275 63.2518 85.6993 63.4391C85.6824 63.5574 85.6726 63.6771 85.674 63.7967C85.6782 64.6106 85.6824 65.4259 85.6923 66.2398C85.6937 66.3834 85.7064 66.5271 85.7289 66.6679C85.781 66.9805 85.9471 67.1917 86.2738 67.2565C86.4611 67.2945 86.647 67.3381 86.8328 67.386C86.9089 67.4057 86.9413 67.4719 86.937 67.5494C86.9328 67.6352 86.8666 67.6789 86.7976 67.6888C86.6568 67.7099 86.5132 67.7254 86.371 67.7254C85.3656 67.7282 84.3602 67.7282 83.3534 67.724C83.2112 67.724 83.0662 67.7071 82.9296 67.6733C82.8789 67.6606 82.8352 67.5761 82.8113 67.5156C82.8014 67.4902 82.8521 67.4381 82.8803 67.4029C82.8944 67.386 82.9197 67.3719 82.9422 67.3691C83.559 67.3001 83.6857 66.8509 83.728 66.344C83.7477 66.106 83.7505 65.8653 83.7519 65.6259C83.7547 63.7094 83.7547 61.793 83.7547 59.878C83.7547 59.6865 83.7561 59.4936 83.735 59.3035C83.6885 58.9036 83.5548 58.7557 83.1802 58.6558C83.1577 58.6501 83.1323 58.6501 83.1098 58.6431C82.9239 58.5825 82.593 58.6417 82.6409 58.353C82.6817 58.1052 82.9958 58.1784 83.1999 58.177C84.1335 58.17 85.0671 58.1742 86.0021 58.1742C86.0021 58.1685 86.0021 58.1629 86.0021 58.1587L85.9992 58.1601Z" fill="#12100B"/>
<path d="M148.875 70.8877C140.324 70.8877 131.772 70.8877 123.222 70.8863C122.96 70.8863 122.697 70.8651 122.437 70.844C122.351 70.837 122.32 70.6793 122.376 70.6075C122.469 70.4864 122.59 70.4103 122.738 70.4005C123 70.385 123.265 70.3779 123.528 70.3779C129.78 70.3779 136.032 70.3779 142.283 70.3779C153.014 70.3779 163.743 70.3779 174.475 70.3793C174.76 70.3793 175.048 70.3948 175.334 70.416C175.434 70.423 175.507 70.4976 175.517 70.6046C175.531 70.7483 175.443 70.8412 175.317 70.8525C175.031 70.8778 174.744 70.8877 174.456 70.8877C167.582 70.8891 160.708 70.8877 153.833 70.8877C152.18 70.8877 150.528 70.8877 148.875 70.8877Z" fill="#12100B"/>
<path d="M149.752 53.691C157.986 53.691 166.221 53.691 174.455 53.691C174.743 53.691 175.03 53.6995 175.314 53.7234C175.442 53.7347 175.531 53.8262 175.513 53.9698C175.5 54.074 175.428 54.1501 175.327 54.1599C175.114 54.1825 174.899 54.1994 174.685 54.1994C173.32 54.2022 171.956 54.2008 170.592 54.2008C155.487 54.2008 140.382 54.2008 125.277 54.2008C124.99 54.2008 124.703 54.1965 124.415 54.1839C124.268 54.1782 124.14 54.1219 124.054 53.9867C124.006 53.9121 124.038 53.7628 124.118 53.7431C124.21 53.7206 124.306 53.6995 124.399 53.6967C124.638 53.6896 124.877 53.691 125.117 53.691C133.327 53.691 141.538 53.691 149.749 53.691H149.752Z" fill="#12100B"/>
<path d="M80.307 70.8877C72.1878 70.8877 64.0687 70.8877 55.9496 70.8877C55.6623 70.8877 55.375 70.8806 55.0892 70.8581C54.9611 70.8482 54.8695 70.7567 54.878 70.6159C54.8864 70.4737 54.9906 70.4145 55.1188 70.3991C55.2131 70.3878 55.3103 70.3822 55.4046 70.3807C55.5722 70.3779 55.7397 70.3779 55.9073 70.3779C59.8359 70.3779 63.7631 70.3779 67.6918 70.3779C79.9071 70.3779 92.121 70.3779 104.336 70.3779C104.624 70.3779 104.911 70.3836 105.198 70.3976C105.347 70.4047 105.47 70.4779 105.567 70.5948C105.626 70.6652 105.602 70.8187 105.521 70.837C105.429 70.8581 105.335 70.8792 105.24 70.8834C105.001 70.8905 104.762 70.8891 104.522 70.8891C96.4509 70.8891 88.3797 70.8891 80.3084 70.8891L80.307 70.8877Z" fill="#12100B"/>
<path d="M79.4649 53.69C87.2954 53.69 95.1259 53.69 102.956 53.69C103.22 53.69 103.483 53.7013 103.743 53.7224C103.8 53.7267 103.874 53.7858 103.9 53.8393C103.946 53.9393 103.886 54.0364 103.803 54.0815C103.701 54.1364 103.582 54.1801 103.467 54.1871C103.182 54.204 102.893 54.1998 102.606 54.1998C88.7162 54.1998 74.828 54.1998 60.9385 54.1998C59.2149 54.1998 57.49 54.2012 55.7665 54.197C55.5285 54.197 55.2905 54.1716 55.054 54.1435C54.9512 54.1308 54.8892 54.0364 54.885 53.9379C54.8808 53.8393 54.9329 53.752 55.0427 53.7295C55.1356 53.7112 55.2314 53.6957 55.3257 53.6929C55.5651 53.6872 55.8045 53.6886 56.0439 53.6886C63.8504 53.6886 71.657 53.6886 79.4635 53.6886L79.4649 53.69Z" fill="#12100B"/>
<path d="M157.296 67.7289C156.841 67.7289 156.386 67.7331 155.933 67.7275C155.767 67.7261 155.598 67.712 155.436 67.681C155.385 67.6712 155.338 67.5853 155.315 67.5247C155.305 67.4994 155.353 67.4416 155.386 67.4135C155.422 67.3839 155.468 67.36 155.514 67.3529C156.01 67.267 156.173 66.9291 156.183 66.4743C156.189 66.2349 156.199 65.9955 156.199 65.7561C156.202 63.7932 156.202 61.8317 156.202 59.8688C156.202 59.7492 156.202 59.6295 156.197 59.5098C156.172 58.8761 156.13 58.8268 155.498 58.617C155.409 58.5875 155.319 58.5452 155.251 58.4833C155.198 58.4354 155.21 58.3354 155.269 58.2946C155.344 58.2425 155.44 58.1988 155.529 58.1932C155.767 58.1763 156.006 58.1791 156.245 58.1791C156.963 58.1777 157.68 58.1735 158.398 58.1791C158.588 58.1805 158.778 58.2031 158.964 58.2397C159.015 58.2495 159.081 58.3396 159.083 58.396C159.083 58.4495 159.023 58.5255 158.97 58.5565C158.89 58.603 158.793 58.6297 158.7 58.6452C158.328 58.7057 158.183 58.9578 158.148 59.2972C158.131 59.4633 158.125 59.6309 158.125 59.7984C158.125 61.8571 158.125 63.9143 158.129 65.973C158.129 66.211 158.152 66.4517 158.187 66.6869C158.234 66.9995 158.404 67.2121 158.735 67.267C158.853 67.2868 158.97 67.3107 159.085 67.3417C159.215 67.3741 159.412 67.36 159.374 67.5656C159.342 67.7444 159.156 67.7233 159.021 67.7261C158.446 67.7331 157.873 67.7289 157.299 67.7289V67.7317L157.296 67.7289Z" fill="#12100B"/>
<path d="M58.4953 62.2877C58.4854 62.3102 58.4826 62.337 58.4671 62.3525C58.4164 62.4018 58.3671 62.4581 58.3066 62.4905C57.718 62.7974 57.2519 63.2199 56.9562 63.8282C56.8407 64.0661 56.6436 64.0718 56.5267 63.8451C56.2085 63.2241 55.7171 62.7918 55.12 62.4581C54.9637 62.3708 54.9708 62.2187 55.1116 62.1103C55.1679 62.0666 55.2285 62.0258 55.2904 61.9906C55.8016 61.7019 56.2085 61.3161 56.4901 60.7909C56.645 60.5008 56.8196 60.4881 56.9604 60.75C57.2773 61.3415 57.7377 61.7709 58.3319 62.0694C58.4432 62.1258 58.5065 62.2314 58.4981 62.2877H58.4953Z" fill="#12100B"/>
<path d="M175.405 62.2677C175.385 62.31 175.377 62.3649 175.346 62.3902C175.254 62.4649 175.157 62.5381 175.054 62.5958C174.585 62.862 174.216 63.2253 173.96 63.7026C173.915 63.7857 173.86 63.8659 173.793 63.9321C173.714 64.0096 173.621 63.9983 173.545 63.9152C173.512 63.88 173.477 63.8448 173.457 63.8026C173.17 63.2238 172.725 62.8056 172.158 62.5099C172.116 62.4888 172.082 62.4536 172.045 62.4226C171.945 62.341 171.933 62.1889 172.028 62.1143C172.123 62.041 172.221 61.9735 172.325 61.9157C172.818 61.6383 173.205 61.2609 173.441 60.7399C173.46 60.6963 173.487 60.6569 173.514 60.6174C173.597 60.4949 173.725 60.4837 173.807 60.5949C173.849 60.6526 173.893 60.7104 173.925 60.7737C174.181 61.2821 174.567 61.6594 175.063 61.9326C175.166 61.9889 175.261 62.065 175.35 62.141C175.381 62.1678 175.387 62.2255 175.405 62.2692V62.2677Z" fill="#12100B"/>
<path d="M96.3951 55.8601C96.4035 56.0333 96.3472 56.1094 96.2613 56.1544C96.1994 56.1868 96.1261 56.2023 96.0557 56.2093C95.1658 56.2966 94.3477 56.6092 93.5479 56.9852C93.2029 57.1471 93.0044 57.1542 92.9818 57.0218C92.9424 56.7867 93.1325 56.6853 93.2733 56.574C93.8872 56.0854 94.5082 55.6067 95.1334 55.1307C95.2644 55.0307 95.4136 54.9491 95.5643 54.8829C95.7037 54.8209 95.8558 54.8378 95.9529 54.966C96.1684 55.2532 96.3247 55.5715 96.3951 55.8601Z" fill="#12100B"/>
<path d="M64.1267 80.9439V79.8779C64.1267 79.1556 64.1225 78.7275 64.114 78.5952C64.1013 78.4008 64.0154 78.2868 63.8535 78.2502C63.7972 78.2375 63.7183 78.2319 63.617 78.2319C63.548 78.2319 63.5142 78.2136 63.5142 78.177C63.5142 78.1403 63.5578 78.122 63.6479 78.122C63.769 78.122 63.9338 78.1249 64.1408 78.1305C64.3492 78.1361 64.4745 78.1389 64.5195 78.1389C65.4757 78.1389 65.9812 78.1375 66.0333 78.1333C66.1389 78.1249 66.2248 78.1136 66.2938 78.0967C66.3628 78.0812 66.3951 78.0728 66.3909 78.0728C66.4149 78.0728 66.4275 78.0911 66.4275 78.1277C66.4275 78.1319 66.4219 78.1685 66.4092 78.2361C66.3966 78.3164 66.3881 78.4121 66.3825 78.5205C66.3768 78.629 66.3656 78.7627 66.3487 78.9204C66.3402 78.9655 66.3205 78.9866 66.2881 78.9866C66.26 78.9866 66.2431 78.9641 66.236 78.9204C66.2304 78.8768 66.2248 78.8331 66.2205 78.7937C66.2163 78.7529 66.2079 78.7177 66.1966 78.6853C66.1473 78.5684 66.0121 78.4952 65.7897 78.467C65.6517 78.4515 65.3644 78.4431 64.9265 78.4431C64.8983 78.4431 64.8842 78.4628 64.8842 78.5036V80.0357C64.8842 80.0807 64.8983 80.1018 64.9265 80.1018C65.4813 80.1018 65.8066 80.0976 65.8995 80.0892C65.9685 80.0849 66.0206 80.0793 66.0572 80.0709C66.1177 80.0554 66.1628 80.03 66.191 79.9976C66.2403 79.9455 66.2726 79.9188 66.2881 79.9188C66.3163 79.9188 66.3304 79.9343 66.3304 79.9667C66.3304 79.9709 66.3247 80.0117 66.3121 80.0878C66.2994 80.1807 66.2895 80.2877 66.2811 80.4088C66.2642 80.6383 66.2572 80.7735 66.2572 80.8143C66.2572 80.8904 66.2388 80.9298 66.2022 80.9298C66.1656 80.9298 66.1473 80.9087 66.1473 80.8664C66.1473 80.8242 66.1389 80.7538 66.1234 80.658C66.091 80.5214 65.9769 80.4426 65.7826 80.4215C65.6686 80.4088 65.3813 80.4032 64.9194 80.4032C64.8955 80.4032 64.8828 80.4229 64.8828 80.4637V81.8803C64.8913 82.0943 64.9392 82.2323 65.0251 82.2943C65.1124 82.3576 65.3081 82.3886 65.6122 82.3886C65.8882 82.3886 66.0783 82.3647 66.1839 82.3154C66.3261 82.2506 66.4163 82.1013 66.4571 81.8676C66.4698 81.807 66.4909 81.7761 66.5233 81.7761C66.5557 81.7761 66.5712 81.8127 66.5712 81.8845C66.5712 82.1309 66.5444 82.3548 66.4923 82.5562C66.4726 82.6294 66.4444 82.673 66.4078 82.6899C66.3712 82.7068 66.2909 82.7139 66.1656 82.7139C65.815 82.7139 65.4658 82.7082 65.118 82.6956C64.7702 82.6829 64.5604 82.6773 64.4886 82.6773C64.452 82.6773 64.3379 82.6801 64.1464 82.6857C63.9549 82.6913 63.8141 82.6942 63.7254 82.6942C63.6451 82.6942 63.6043 82.6744 63.6043 82.6336C63.6043 82.6054 63.6479 82.5871 63.738 82.5787C63.7986 82.5702 63.8591 82.5646 63.9197 82.5604C64.0126 82.5407 64.0704 82.4294 64.0957 82.2267C64.1154 82.069 64.1253 81.6395 64.1253 80.9368L64.1267 80.9439Z" fill="black"/>
<path d="M67.6994 80.7628V79.8785C67.6994 79.1561 67.6952 78.728 67.6868 78.5957C67.6741 78.4014 67.5882 78.2873 67.4263 78.2507C67.3699 78.238 67.2911 78.2324 67.1897 78.2324C67.1207 78.2324 67.0869 78.2141 67.0869 78.1775C67.0869 78.1409 67.1306 78.1226 67.2207 78.1226C67.3376 78.1226 67.5023 78.1254 67.7135 78.131C67.9247 78.1366 68.0557 78.1395 68.1036 78.1395C68.1472 78.1395 68.2641 78.1366 68.4514 78.131C68.6386 78.1254 68.771 78.1226 68.8485 78.1226C68.9372 78.1226 68.9822 78.1409 68.9822 78.1775C68.9822 78.2141 68.9498 78.2324 68.8851 78.2324C68.8372 78.2324 68.778 78.238 68.7091 78.2507C68.5725 78.2746 68.4978 78.3901 68.4852 78.5957C68.4767 78.7295 68.4725 79.1575 68.4725 79.8813V80.7304C68.4725 81.4654 68.6302 81.9625 68.9442 82.2216C69.1456 82.3877 69.3976 82.4708 69.7004 82.4708C70.0397 82.4708 70.3185 82.3624 70.5354 82.1427C70.6846 81.9934 70.786 81.7794 70.8381 81.5006C70.8705 81.3147 70.886 81.0275 70.886 80.6403V79.8827C70.886 79.1589 70.8818 78.7309 70.8733 78.5971C70.8606 78.4028 70.7747 78.2873 70.6128 78.2521C70.5565 78.2394 70.4833 78.2338 70.3946 78.2338C70.3256 78.2338 70.2918 78.2155 70.2918 78.1789C70.2918 78.1423 70.334 78.124 70.4185 78.124C70.5959 78.124 70.8283 78.1296 71.1141 78.1423C71.1268 78.1423 71.2211 78.1395 71.3985 78.1338C71.576 78.1282 71.7111 78.1254 71.8041 78.1254C71.8886 78.1254 71.9308 78.1437 71.9308 78.1803C71.9308 78.2169 71.8942 78.2352 71.8224 78.2352C71.7745 78.2352 71.7154 78.2408 71.6464 78.2535C71.5098 78.2774 71.4351 78.3929 71.4225 78.5985C71.414 78.7323 71.4098 79.1589 71.4098 79.8813V80.529C71.4098 80.9402 71.3774 81.2739 71.3126 81.5274C71.2239 81.878 71.0648 82.1526 70.8339 82.3511C70.4945 82.6412 70.0749 82.7862 69.575 82.7862C68.985 82.7862 68.5373 82.6468 68.2317 82.368C67.8726 82.0455 67.6924 81.5105 67.6924 80.7642L67.6994 80.7628Z" fill="black"/>
<path d="M73.1096 80.9444V79.8785C73.1096 79.1561 73.1054 78.728 73.0969 78.5957C73.0842 78.4014 72.9984 78.2873 72.8364 78.2507C72.7801 78.238 72.7012 78.2324 72.5999 78.2324C72.5309 78.2324 72.4971 78.2141 72.4971 78.1775C72.4971 78.1409 72.5407 78.1226 72.6308 78.1226C72.7562 78.1226 72.9195 78.1254 73.1209 78.131C73.3222 78.1366 73.4363 78.1395 73.4602 78.1395C73.5292 78.1395 73.6728 78.1366 73.8925 78.131C74.1122 78.1254 74.253 78.1226 74.3135 78.1226C74.8021 78.1226 75.1725 78.2099 75.4273 78.3831C75.5287 78.4521 75.6174 78.5548 75.6935 78.6914C75.7906 78.8534 75.8385 79.0266 75.8385 79.2124C75.8385 79.6841 75.5724 80.1362 75.0387 80.5684C75.478 81.126 75.7202 81.4274 75.7653 81.4767C75.999 81.771 76.1948 81.9991 76.3525 82.161C76.5749 82.3905 76.8002 82.5285 77.0298 82.5722C77.0776 82.5764 77.1241 82.5806 77.1692 82.5848C77.2382 82.5933 77.272 82.6116 77.272 82.6398C77.272 82.6806 77.2339 82.7003 77.1565 82.7003H76.582C76.2919 82.7003 76.0751 82.6623 75.9343 82.5848C75.7371 82.4792 75.4597 82.1835 75.1049 81.6949C74.9317 81.4485 74.7317 81.1697 74.505 80.8599C74.4811 80.8318 74.4445 80.8177 74.3966 80.8177H73.87C73.8376 80.8177 73.8221 80.8332 73.8221 80.8655V80.95C73.8221 81.6316 73.832 82.061 73.8517 82.237C73.8756 82.4412 73.9545 82.5511 74.0882 82.568C74.2093 82.5834 74.3079 82.5919 74.3853 82.5919C74.4332 82.5919 74.4586 82.6074 74.4586 82.6398C74.4586 82.6806 74.4177 82.7003 74.3375 82.7003C74.2009 82.7003 74.0192 82.6975 73.7953 82.6919C73.5715 82.6862 73.456 82.6834 73.4475 82.6834C73.4194 82.6834 73.3124 82.6862 73.1265 82.6919C72.9406 82.6975 72.8012 82.7003 72.7083 82.7003C72.628 82.7003 72.5872 82.6806 72.5872 82.6398C72.5872 82.6116 72.6308 82.5933 72.721 82.5848C72.7815 82.5764 72.8421 82.5708 72.9026 82.5665C72.9955 82.5468 73.0533 82.4356 73.0786 82.2328C73.0983 82.0751 73.1082 81.6456 73.1082 80.943L73.1096 80.9444ZM73.8235 78.5168V80.3572C73.8235 80.4178 73.8418 80.4544 73.8784 80.4656C73.9911 80.5065 74.1446 80.5262 74.3389 80.5262C74.5332 80.5262 74.6754 80.4924 74.7683 80.4234C75.0063 80.2502 75.126 79.9475 75.126 79.5152C75.126 79.1322 75.0176 78.8393 74.7993 78.6379C74.6261 78.4844 74.4262 78.4084 74.1995 78.4084C74.0052 78.4084 73.8911 78.4211 73.8545 78.445C73.8348 78.4577 73.8249 78.4816 73.8249 78.5182L73.8235 78.5168Z" fill="black"/>
<path d="M79.4613 82.7834C78.6629 82.7834 78.0391 82.5215 77.5913 81.9963C77.2126 81.5569 77.0225 81.0275 77.0225 80.4107C77.0225 79.794 77.2126 79.2772 77.5913 78.8365C78.0476 78.3042 78.6911 78.0381 79.5219 78.0381C80.2724 78.0381 80.868 78.2423 81.3073 78.6492C81.7467 79.0576 81.9677 79.6081 81.9677 80.3023C81.9677 80.9965 81.741 81.6006 81.2904 82.0639C80.8258 82.544 80.2175 82.7848 79.4627 82.7848L79.4613 82.7834ZM79.7148 82.4821C80.0541 82.4821 80.34 82.375 80.5737 82.161C80.937 81.8343 81.1186 81.2894 81.1186 80.5262C81.1186 79.8644 80.9469 79.3279 80.6047 78.9153C80.2738 78.5239 79.8542 78.3282 79.3458 78.3282C78.9304 78.3282 78.5953 78.4549 78.3404 78.7097C78.018 79.0322 77.8561 79.5377 77.8561 80.2235C77.8561 80.874 78.0222 81.4063 78.3531 81.8217C78.6967 82.261 79.1501 82.4821 79.7148 82.4821Z" fill="black"/>
<path d="M83.2922 80.9444V79.8785C83.2922 79.1561 83.288 78.728 83.2795 78.5957C83.2669 78.4014 83.181 78.2873 83.019 78.2507C82.9627 78.238 82.8839 78.2324 82.7825 78.2324C82.7135 78.2324 82.6797 78.2141 82.6797 78.1775C82.6797 78.1409 82.7233 78.1226 82.8135 78.1226C82.9346 78.1226 83.0993 78.1254 83.3063 78.131C83.5147 78.1366 83.64 78.1395 83.6851 78.1395C83.7653 78.1395 83.9076 78.1366 84.1117 78.131C84.3159 78.1254 84.4666 78.1226 84.5623 78.1226C85.0707 78.1226 85.4466 78.238 85.6888 78.4675C85.8902 78.6576 85.9916 78.897 85.9916 79.1885C85.9916 79.6166 85.8507 79.9672 85.5705 80.2418C85.2903 80.5163 84.9341 80.6529 84.5018 80.6529C84.437 80.6529 84.3948 80.6515 84.375 80.6473C84.3272 80.6388 84.3018 80.6205 84.3018 80.5924C84.3018 80.5487 84.3582 80.5262 84.4708 80.5262C84.6609 80.5262 84.8383 80.4375 85.0031 80.2601C85.1889 80.0587 85.2819 79.8137 85.2819 79.5278C85.2819 79.1364 85.1622 78.8337 84.9242 78.6196C84.751 78.4619 84.5482 78.3831 84.3187 78.3831C84.2061 78.3831 84.13 78.3901 84.092 78.4042C84.054 78.4183 84.0343 78.4577 84.0343 78.5225V80.9444C84.0343 81.6301 84.0441 82.0624 84.0639 82.2399C84.0878 82.4384 84.1666 82.5468 84.3004 82.5665C84.4173 82.582 84.5201 82.5905 84.6088 82.5905C84.6736 82.5905 84.706 82.606 84.706 82.6384C84.706 82.6792 84.6679 82.6989 84.5905 82.6989C84.437 82.6989 84.2497 82.6961 84.0301 82.6905C83.8104 82.6848 83.6837 82.682 83.6513 82.682C83.6147 82.682 83.5006 82.6848 83.3091 82.6905C83.1176 82.6961 82.9768 82.6989 82.8881 82.6989C82.8078 82.6989 82.767 82.6792 82.767 82.6384C82.767 82.6102 82.8106 82.5919 82.9008 82.5834C82.9613 82.575 83.0219 82.5694 83.0824 82.5651C83.1753 82.5454 83.2331 82.4342 83.2584 82.2314C83.2781 82.0737 83.288 81.6442 83.288 80.9416L83.2922 80.9444Z" fill="black"/>
<path d="M87.2575 80.9439V79.8779C87.2575 79.1556 87.2533 78.7275 87.2449 78.5952C87.2322 78.4008 87.1463 78.2868 86.9844 78.2502C86.928 78.2375 86.8492 78.2319 86.7478 78.2319C86.6788 78.2319 86.645 78.2136 86.645 78.177C86.645 78.1403 86.6887 78.122 86.7788 78.122C86.8999 78.122 87.0646 78.1249 87.2716 78.1305C87.48 78.1361 87.6053 78.1389 87.6504 78.1389C88.6065 78.1389 89.112 78.1375 89.1641 78.1333C89.2697 78.1249 89.3556 78.1136 89.4246 78.0967C89.4936 78.0812 89.526 78.0728 89.5218 78.0728C89.5457 78.0728 89.5584 78.0911 89.5584 78.1277C89.5584 78.1319 89.5528 78.1685 89.5401 78.2361C89.5274 78.3164 89.519 78.4121 89.5133 78.5205C89.5077 78.629 89.4964 78.7627 89.4795 78.9204C89.4711 78.9655 89.4514 78.9866 89.419 78.9866C89.3908 78.9866 89.3739 78.9641 89.3669 78.9204C89.3613 78.8768 89.3556 78.8331 89.3514 78.7937C89.3472 78.7529 89.3387 78.7177 89.3275 78.6853C89.2782 78.5684 89.143 78.4952 88.9205 78.467C88.7825 78.4515 88.4953 78.4431 88.0574 78.4431C88.0292 78.4431 88.0151 78.4628 88.0151 78.5036V80.0357C88.0151 80.0807 88.0292 80.1018 88.0574 80.1018C88.6121 80.1018 88.9374 80.0976 89.0304 80.0892C89.0993 80.0849 89.1514 80.0793 89.1881 80.0709C89.2486 80.0554 89.2937 80.03 89.3218 79.9976C89.3711 79.9455 89.4035 79.9188 89.419 79.9188C89.4472 79.9188 89.4612 79.9343 89.4612 79.9667C89.4612 79.9709 89.4556 80.0117 89.4429 80.0878C89.4303 80.1807 89.4204 80.2877 89.4119 80.4088C89.3951 80.6383 89.388 80.7735 89.388 80.8143C89.388 80.8904 89.3697 80.9298 89.3331 80.9298C89.2965 80.9298 89.2782 80.9087 89.2782 80.8664C89.2782 80.8242 89.2697 80.7538 89.2542 80.658C89.2219 80.5214 89.1078 80.4426 88.9135 80.4215C88.7994 80.4088 88.5122 80.4032 88.0503 80.4032C88.0264 80.4032 88.0137 80.4229 88.0137 80.4637V81.8803C88.0221 82.0943 88.07 82.2323 88.1559 82.2943C88.2432 82.3576 88.4389 82.3886 88.7431 82.3886C89.0191 82.3886 89.2092 82.3647 89.3148 82.3154C89.457 82.2506 89.5471 82.1013 89.588 81.8676C89.6006 81.807 89.6218 81.7761 89.6541 81.7761C89.6865 81.7761 89.702 81.8127 89.702 81.8845C89.702 82.1309 89.6753 82.3548 89.6232 82.5562C89.6035 82.6294 89.5753 82.673 89.5387 82.6899C89.5021 82.7068 89.4218 82.7139 89.2965 82.7139C88.9459 82.7139 88.5967 82.7082 88.2489 82.6956C87.901 82.6829 87.6912 82.6773 87.6194 82.6773C87.5828 82.6773 87.4688 82.6801 87.2773 82.6857C87.0858 82.6913 86.9449 82.6942 86.8562 82.6942C86.776 82.6942 86.7351 82.6744 86.7351 82.6336C86.7351 82.6054 86.7788 82.5871 86.8689 82.5787C86.9295 82.5702 86.99 82.5646 87.0506 82.5604C87.1435 82.5407 87.2012 82.4294 87.2266 82.2267C87.2463 82.069 87.2561 81.6395 87.2561 80.9368L87.2575 80.9439Z" fill="black"/>
<path d="M92.682 81.1185H91.3316C91.3077 81.1185 91.2894 81.134 91.2767 81.1664L90.95 82.0324C90.8895 82.1943 90.8585 82.3168 90.8585 82.4013C90.8585 82.5266 90.9387 82.5886 91.1007 82.5886H91.1922C91.2528 82.5886 91.2837 82.6041 91.2837 82.6364C91.2837 82.6773 91.2499 82.697 91.1809 82.697C91.1162 82.697 91.0077 82.6942 90.8571 82.6885C90.7064 82.6829 90.5994 82.6801 90.5388 82.6801C90.1882 82.6928 89.9503 82.6984 89.8249 82.6984C89.7489 82.6984 89.7095 82.6787 89.7095 82.6379C89.7095 82.6055 89.7334 82.59 89.7827 82.59C89.8475 82.59 89.9094 82.5858 89.97 82.5773C90.0995 82.5618 90.2037 82.5041 90.2854 82.4083C90.3502 82.3323 90.4163 82.207 90.4853 82.0324L92.0047 78.2305C92.0695 78.0685 92.1258 77.9883 92.1737 77.9883C92.2173 77.9883 92.268 78.0531 92.3243 78.1826C92.6961 79.119 93.1959 80.3595 93.8254 81.9056C93.9943 82.3055 94.1718 82.5252 94.3576 82.566C94.4309 82.5815 94.5153 82.59 94.6125 82.59C94.6646 82.59 94.6913 82.6055 94.6913 82.6379C94.6913 82.6618 94.6716 82.6787 94.6308 82.6857C94.59 82.6942 94.5182 82.6984 94.4125 82.6984C93.9127 82.6984 93.5311 82.6942 93.2678 82.6857C93.1467 82.6815 93.0861 82.666 93.0861 82.6379C93.0861 82.6055 93.1143 82.5872 93.1706 82.5829C93.2354 82.5632 93.2537 82.5168 93.2255 82.4435L92.7411 81.1607C92.7285 81.1326 92.7087 81.1185 92.6806 81.1185H92.682ZM91.4527 80.8158H92.5665C92.5947 80.8158 92.6045 80.8031 92.5961 80.7791L92.0512 79.2837C92.0427 79.2471 92.0328 79.2288 92.0202 79.2288C92.0047 79.2288 91.992 79.2471 91.9836 79.2837L91.426 80.7735C91.4175 80.8017 91.426 80.8158 91.4499 80.8158H91.4527Z" fill="black"/>
<path d="M95.5996 79.3343L95.6658 81.8773C95.6785 82.2814 95.7489 82.5053 95.877 82.549C95.8897 82.5532 95.9685 82.5631 96.1136 82.58C96.2347 82.5954 96.2952 82.6166 96.2952 82.6405C96.2952 82.6813 96.2488 82.7011 96.1558 82.7011C96.0023 82.7011 95.8432 82.6982 95.6771 82.6926C95.5109 82.687 95.4208 82.6842 95.4053 82.6842C95.4095 82.6842 95.3321 82.687 95.1758 82.6926C95.0181 82.6982 94.8773 82.7011 94.7519 82.7011C94.6632 82.7011 94.6182 82.6813 94.6182 82.6405C94.6182 82.6123 94.6703 82.594 94.7759 82.5856C94.8491 82.5771 94.9195 82.5701 94.9871 82.5617C95.0631 82.5377 95.1138 82.4729 95.1378 82.3673C95.1575 82.2744 95.1701 82.0885 95.1744 81.8097L95.2293 78.2261C95.2335 78.0895 95.2589 78.0205 95.3081 78.0205C95.3405 78.0205 95.4152 78.0825 95.532 78.2078C95.8629 78.5626 96.4881 79.2104 97.409 80.151C97.8202 80.579 98.2652 81.0395 98.7411 81.5309H98.7707L98.7101 78.8133C98.7059 78.664 98.6975 78.5612 98.6862 78.5049C98.6538 78.3838 98.5933 78.3049 98.5045 78.2683C98.444 78.2444 98.337 78.2317 98.1835 78.2317C98.1187 78.2317 98.0863 78.2134 98.0863 78.1768C98.0863 78.1402 98.1384 78.1219 98.244 78.1219C98.3651 78.1219 98.5102 78.1247 98.6806 78.1303C98.8495 78.136 98.9495 78.1388 98.9777 78.1388C98.9819 78.1388 99.0523 78.136 99.1889 78.1303C99.3255 78.1247 99.4536 78.1219 99.5705 78.1219C99.6634 78.1219 99.7099 78.1402 99.7099 78.1768C99.7099 78.2134 99.6733 78.2317 99.6015 78.2317C99.4001 78.2317 99.2762 78.2979 99.2325 78.4317C99.2128 78.5049 99.2001 78.6147 99.1959 78.764L99.1297 82.5842C99.1255 82.7095 99.1002 82.7715 99.0509 82.7715C99.0058 82.7715 98.9382 82.7264 98.8453 82.6377C98.4581 82.2547 97.8624 81.6605 97.0598 80.8578C96.7852 80.5875 96.4769 80.2664 96.1333 79.8947C95.9601 79.7046 95.7883 79.5173 95.6193 79.3315H95.601L95.5996 79.3343Z" fill="black"/>
<path d="M105.038 82.7834C104.158 82.7834 103.467 82.5651 102.965 82.1272C102.463 81.6893 102.212 81.0937 102.212 80.3389C102.212 79.6644 102.447 79.1125 102.919 78.683C103.391 78.2535 104.031 78.0381 104.841 78.0381C105.12 78.0381 105.414 78.0578 105.721 78.0986C105.863 78.1268 106.064 78.1606 106.328 78.2014C106.388 78.2056 106.419 78.2296 106.419 78.2746C106.419 78.2873 106.414 78.3211 106.404 78.3774C106.394 78.4507 106.386 78.5267 106.381 78.607C106.376 78.7844 106.369 79.0026 106.359 79.2603C106.35 79.3533 106.326 79.3997 106.286 79.3997C106.245 79.3997 106.225 79.3561 106.225 79.266C106.221 79.0561 106.142 78.8703 105.988 78.7083C105.883 78.5999 105.724 78.5112 105.51 78.4422C105.28 78.369 105.03 78.3338 104.759 78.3338C104.275 78.3338 103.896 78.4591 103.621 78.7097C103.25 79.0491 103.064 79.5715 103.064 80.2784C103.064 80.9444 103.279 81.4837 103.712 81.8949C104.088 82.254 104.507 82.4342 104.97 82.4342C105.228 82.4342 105.428 82.4187 105.57 82.3863C105.784 82.3384 105.953 82.2413 106.079 82.0962C106.187 81.9751 106.256 81.8414 106.284 81.6963C106.3 81.6161 106.326 81.5752 106.363 81.5752C106.4 81.5752 106.418 81.6048 106.418 81.6654C106.418 81.7104 106.404 81.8273 106.376 82.016C106.343 82.2258 106.314 82.3751 106.288 82.4638C106.262 82.5525 106.208 82.613 106.128 82.6454C105.898 82.7383 105.535 82.7848 105.038 82.7848V82.7834Z" fill="black"/>
<path d="M109.494 82.7834C108.695 82.7834 108.071 82.5215 107.624 81.9963C107.245 81.5569 107.055 81.0275 107.055 80.4107C107.055 79.794 107.245 79.2772 107.624 78.8365C108.08 78.3042 108.723 78.0381 109.554 78.0381C110.305 78.0381 110.9 78.2423 111.34 78.6492C111.779 79.0576 112 79.6081 112 80.3023C112 80.9965 111.773 81.6006 111.323 82.0639C110.858 82.544 110.25 82.7848 109.495 82.7848L109.494 82.7834ZM109.748 82.4821C110.088 82.4821 110.374 82.375 110.607 82.161C110.971 81.8343 111.152 81.2894 111.152 80.5262C111.152 79.8644 110.98 79.3279 110.638 78.9153C110.307 78.5239 109.888 78.3282 109.379 78.3282C108.964 78.3282 108.629 78.4549 108.374 78.7097C108.052 79.0322 107.89 79.5377 107.89 80.2235C107.89 80.874 108.056 81.4063 108.387 81.8217C108.73 82.261 109.184 82.4821 109.748 82.4821Z" fill="black"/>
<path d="M112.95 82.0929L113.55 78.146C113.566 78.0404 113.601 77.9883 113.653 77.9883C113.701 77.9883 113.756 78.0502 113.816 78.1756L115.469 81.5902L117.115 78.1333C117.159 78.0362 117.204 77.9883 117.249 77.9883C117.301 77.9883 117.338 78.0502 117.358 78.1756L117.908 81.9169C117.936 82.1183 117.972 82.2633 118.011 82.3534C118.052 82.4421 118.115 82.5013 118.205 82.5294C118.339 82.5703 118.463 82.59 118.581 82.59C118.646 82.59 118.678 82.6041 118.678 82.6322C118.678 82.6773 118.626 82.6984 118.521 82.6984C118.008 82.6984 117.598 82.6857 117.291 82.6618C117.175 82.6533 117.115 82.6322 117.115 82.5956C117.115 82.5674 117.136 82.5449 117.179 82.5294C117.221 82.5139 117.232 82.4266 117.213 82.2689L116.849 79.6048H116.825L115.506 82.359C115.396 82.5858 115.321 82.6984 115.282 82.6984C115.245 82.6984 115.175 82.597 115.071 82.3957C114.688 81.6634 114.455 81.2044 114.375 81.0185C114.239 80.72 114.027 80.2708 113.746 79.6724H113.722L113.406 82.0816C113.394 82.1746 113.388 82.2689 113.388 82.3661C113.388 82.4632 113.449 82.5322 113.57 82.5604C113.658 82.5801 113.743 82.59 113.825 82.59C113.885 82.59 113.916 82.6041 113.916 82.6322C113.916 82.6773 113.868 82.6984 113.771 82.6984C113.674 82.6984 113.55 82.6956 113.399 82.69C113.249 82.6843 113.16 82.6815 113.136 82.6815C113.104 82.6815 113.014 82.6843 112.867 82.69C112.719 82.6956 112.609 82.6984 112.538 82.6984C112.466 82.6984 112.429 82.6759 112.429 82.6322C112.429 82.6041 112.462 82.59 112.526 82.59C112.591 82.59 112.652 82.5843 112.708 82.5717C112.829 82.5477 112.912 82.3886 112.956 82.0929H112.95Z" fill="black"/>
<path d="M120.396 80.4539V80.9439C120.396 81.6254 120.405 82.0563 120.427 82.2337C120.45 82.4351 120.531 82.5463 120.664 82.5674C120.783 82.5829 120.884 82.5914 120.97 82.5914C121.039 82.5914 121.074 82.6069 121.074 82.6392C121.074 82.6801 121.029 82.6998 120.94 82.6998C120.795 82.6998 120.614 82.697 120.396 82.6913C120.177 82.6857 120.052 82.6829 120.02 82.6829C119.975 82.6829 119.858 82.6857 119.666 82.6913C119.475 82.697 119.337 82.6998 119.251 82.6998C119.165 82.6998 119.124 82.6801 119.124 82.6392C119.124 82.6111 119.169 82.5928 119.258 82.5843C119.314 82.5759 119.373 82.5702 119.434 82.566C119.527 82.5463 119.586 82.4351 119.61 82.2323C119.63 82.0746 119.639 81.6451 119.639 80.9425V79.8765C119.639 79.1542 119.635 78.7261 119.627 78.5938C119.614 78.3994 119.528 78.2854 119.366 78.2488C119.31 78.2361 119.231 78.2305 119.13 78.2305C119.061 78.2305 119.027 78.215 119.027 78.1826C119.027 78.1417 119.073 78.122 119.166 78.122C119.283 78.122 119.445 78.1249 119.653 78.1305C119.862 78.1361 119.99 78.1389 120.038 78.1389C121.018 78.1389 121.552 78.1375 121.636 78.1333C121.701 78.1333 121.784 78.1249 121.884 78.1094C121.96 78.0854 121.992 78.0728 121.981 78.0728C122.009 78.0728 122.023 78.0911 122.023 78.1277C122.023 78.1403 122.018 78.1699 122.005 78.2178C121.992 78.2783 121.982 78.3389 121.975 78.3994C121.967 78.536 121.957 78.7008 121.946 78.8895C121.937 78.9458 121.918 78.9739 121.885 78.9739C121.849 78.9739 121.829 78.9416 121.825 78.8782C121.825 78.7782 121.812 78.7022 121.788 78.6515C121.736 78.536 121.602 78.4755 121.387 78.4727L120.45 78.4543C120.414 78.4543 120.396 78.4825 120.396 78.5388V80.0413C120.396 80.0779 120.41 80.0948 120.438 80.0948H121.216C121.387 80.0948 121.481 80.0934 121.502 80.0892C121.619 80.0765 121.702 80.0413 121.752 79.9807C121.784 79.9399 121.811 79.9202 121.83 79.9202C121.854 79.9202 121.867 79.9385 121.867 79.9751C121.867 79.9836 121.861 80.0272 121.849 80.1089C121.836 80.2018 121.826 80.2821 121.818 80.3511C121.801 80.5172 121.794 80.6637 121.794 80.7932C121.794 80.8693 121.774 80.9087 121.733 80.9087C121.709 80.9087 121.691 80.8707 121.678 80.7932C121.666 80.7411 121.656 80.6876 121.647 80.6355C121.602 80.5102 121.499 80.4384 121.338 80.4172C121.24 80.4046 120.94 80.3989 120.438 80.3989C120.41 80.3989 120.396 80.4172 120.396 80.4539Z" fill="black"/>
<path d="M125.185 82.7834C124.387 82.7834 123.763 82.5215 123.315 81.9963C122.936 81.5569 122.746 81.0275 122.746 80.4107C122.746 79.794 122.936 79.2772 123.315 78.8365C123.771 78.3042 124.415 78.0381 125.245 78.0381C125.996 78.0381 126.592 78.2423 127.031 78.6492C127.47 79.0576 127.691 79.6081 127.691 80.3023C127.691 80.9965 127.465 81.6006 127.013 82.0639C126.548 82.544 125.94 82.7848 125.185 82.7848V82.7834ZM125.438 82.4821C125.778 82.4821 126.064 82.375 126.299 82.161C126.662 81.8343 126.844 81.2894 126.844 80.5262C126.844 79.8644 126.672 79.3279 126.33 78.9153C125.999 78.5239 125.579 78.3282 125.071 78.3282C124.655 78.3282 124.32 78.4549 124.065 78.7097C123.743 79.0322 123.581 79.5377 123.581 80.2235C123.581 80.874 123.746 81.4063 124.078 81.8217C124.422 82.261 124.875 82.4821 125.44 82.4821H125.438Z" fill="black"/>
<path d="M129.016 80.9444V79.8785C129.016 79.1561 129.012 78.728 129.004 78.5957C128.991 78.4014 128.905 78.2873 128.743 78.2507C128.687 78.238 128.608 78.2324 128.507 78.2324C128.438 78.2324 128.404 78.2141 128.404 78.1775C128.404 78.1409 128.447 78.1226 128.538 78.1226C128.663 78.1226 128.826 78.1254 129.028 78.131C129.229 78.1366 129.343 78.1395 129.367 78.1395C129.436 78.1395 129.58 78.1366 129.799 78.131C130.019 78.1254 130.16 78.1226 130.22 78.1226C130.709 78.1226 131.079 78.2099 131.334 78.3831C131.435 78.4521 131.524 78.5548 131.6 78.6914C131.697 78.8534 131.745 79.0266 131.745 79.2124C131.745 79.6841 131.479 80.1362 130.947 80.5684C131.386 81.126 131.628 81.4274 131.673 81.4767C131.907 81.771 132.103 81.9991 132.261 82.161C132.483 82.3905 132.708 82.5285 132.939 82.5722C132.987 82.5764 133.034 82.5806 133.079 82.5848C133.148 82.5933 133.182 82.6116 133.182 82.6398C133.182 82.6806 133.143 82.7003 133.066 82.7003H132.492C132.201 82.7003 131.985 82.6623 131.844 82.5848C131.647 82.4792 131.369 82.1835 131.014 81.6949C130.841 81.4485 130.641 81.1697 130.415 80.8599C130.391 80.8318 130.354 80.8177 130.306 80.8177H129.78C129.747 80.8177 129.732 80.8332 129.732 80.8655V80.95C129.732 81.6316 129.742 82.061 129.761 82.237C129.785 82.4412 129.864 82.5511 129.998 82.568C130.119 82.5834 130.217 82.5919 130.295 82.5919C130.343 82.5919 130.368 82.6074 130.368 82.6398C130.368 82.6806 130.327 82.7003 130.247 82.7003C130.11 82.7003 129.929 82.6975 129.705 82.6919C129.481 82.6862 129.364 82.6834 129.357 82.6834C129.329 82.6834 129.222 82.6862 129.036 82.6919C128.85 82.6975 128.711 82.7003 128.618 82.7003C128.538 82.7003 128.497 82.6806 128.497 82.6398C128.497 82.6116 128.542 82.5933 128.631 82.5848C128.691 82.5764 128.752 82.5708 128.812 82.5665C128.905 82.5468 128.964 82.4356 128.988 82.2328C129.008 82.0751 129.018 81.6456 129.018 80.943L129.016 80.9444ZM129.73 78.5168V80.3572C129.73 80.4178 129.749 80.4544 129.785 80.4656C129.898 80.5065 130.051 80.5262 130.246 80.5262C130.44 80.5262 130.582 80.4924 130.675 80.4234C130.913 80.2502 131.033 79.9475 131.033 79.5152C131.033 79.1322 130.924 78.8393 130.706 78.6379C130.533 78.4844 130.333 78.4084 130.106 78.4084C129.912 78.4084 129.798 78.4211 129.761 78.445C129.742 78.4577 129.732 78.4816 129.732 78.5182L129.73 78.5168Z" fill="black"/>
<path d="M134.398 80.9444V78.4619L133.495 78.4859C133.177 78.4943 132.981 78.552 132.908 78.6619C132.856 78.7379 132.821 78.8097 132.805 78.8731C132.793 78.921 132.771 78.9463 132.739 78.9463C132.702 78.9463 132.684 78.9139 132.684 78.8491C132.684 78.7407 132.726 78.5084 132.811 78.1535C132.831 78.0775 132.854 78.0381 132.884 78.0381C132.897 78.0381 132.929 78.0493 132.981 78.0719C133.033 78.0944 133.088 78.1071 133.145 78.1113C133.363 78.131 133.564 78.1423 133.75 78.1423H136.147C136.304 78.1423 136.444 78.1338 136.565 78.1155C136.686 78.0972 136.741 78.0888 136.728 78.0888C136.761 78.0888 136.776 78.131 136.776 78.2155C136.776 78.2549 136.773 78.3676 136.768 78.552C136.762 78.7365 136.756 78.859 136.752 78.9196C136.748 78.9801 136.732 79.0097 136.704 79.0097C136.668 79.0097 136.645 78.9688 136.638 78.8886L136.632 78.8224C136.613 78.6084 136.375 78.4957 135.919 78.483L135.155 78.4647V80.9472C135.155 81.633 135.165 82.0653 135.185 82.2427C135.209 82.4412 135.288 82.5497 135.421 82.5694C135.538 82.5849 135.641 82.5933 135.73 82.5933C135.795 82.5933 135.827 82.6088 135.827 82.6412C135.827 82.682 135.789 82.7017 135.712 82.7017C135.558 82.7017 135.371 82.6989 135.148 82.6933C134.926 82.6877 134.798 82.6848 134.761 82.6848C134.724 82.6848 134.61 82.6877 134.419 82.6933C134.227 82.6989 134.087 82.7017 133.998 82.7017C133.918 82.7017 133.877 82.682 133.877 82.6412C133.877 82.613 133.922 82.5947 134.011 82.5863C134.071 82.5778 134.132 82.5722 134.192 82.568C134.285 82.5482 134.344 82.437 134.368 82.2342C134.388 82.0568 134.398 81.6273 134.398 80.9444Z" fill="black"/>
<path d="M141.868 82.7834C140.988 82.7834 140.297 82.5651 139.794 82.1272C139.291 81.6893 139.041 81.0937 139.041 80.3389C139.041 79.6644 139.276 79.1125 139.747 78.683C140.219 78.2535 140.86 78.0381 141.669 78.0381C141.948 78.0381 142.243 78.0578 142.55 78.0986C142.692 78.1268 142.893 78.1606 143.156 78.2014C143.217 78.2056 143.248 78.2296 143.248 78.2746C143.248 78.2873 143.242 78.3211 143.232 78.3774C143.223 78.4507 143.214 78.5267 143.21 78.607C143.204 78.7844 143.197 79.0026 143.187 79.2603C143.179 79.3533 143.155 79.3997 143.114 79.3997C143.073 79.3997 143.054 79.3561 143.054 79.266C143.049 79.0561 142.971 78.8703 142.817 78.7083C142.711 78.5999 142.552 78.5112 142.338 78.4422C142.109 78.369 141.858 78.3338 141.588 78.3338C141.103 78.3338 140.725 78.4591 140.45 78.7097C140.078 79.0491 139.892 79.5715 139.892 80.2784C139.892 80.9444 140.108 81.4837 140.54 81.8949C140.916 82.254 141.336 82.4342 141.799 82.4342C142.057 82.4342 142.257 82.4187 142.399 82.3863C142.613 82.3384 142.782 82.2413 142.907 82.0962C143.016 81.9751 143.085 81.8414 143.113 81.6963C143.128 81.6161 143.155 81.5752 143.192 81.5752C143.228 81.5752 143.247 81.6048 143.247 81.6654C143.247 81.7104 143.232 81.8273 143.204 82.016C143.172 82.2258 143.142 82.3751 143.117 82.4638C143.09 82.5525 143.037 82.613 142.956 82.6454C142.727 82.7383 142.364 82.7848 141.867 82.7848L141.868 82.7834Z" fill="black"/>
<path d="M144.29 80.7628V79.8785C144.29 79.1561 144.286 78.728 144.278 78.5957C144.265 78.4014 144.179 78.2873 144.017 78.2507C143.961 78.238 143.882 78.2324 143.781 78.2324C143.712 78.2324 143.678 78.2141 143.678 78.1775C143.678 78.1409 143.721 78.1226 143.812 78.1226C143.928 78.1226 144.093 78.1254 144.304 78.131C144.516 78.1366 144.647 78.1395 144.694 78.1395C144.738 78.1395 144.855 78.1366 145.042 78.131C145.229 78.1254 145.362 78.1226 145.439 78.1226C145.528 78.1226 145.573 78.1409 145.573 78.1775C145.573 78.2141 145.541 78.2324 145.476 78.2324C145.428 78.2324 145.369 78.238 145.3 78.2507C145.163 78.2746 145.089 78.3901 145.076 78.5957C145.068 78.7295 145.063 79.1575 145.063 79.8813V80.7304C145.063 81.4654 145.221 81.9625 145.535 82.2216C145.736 82.3877 145.988 82.4708 146.291 82.4708C146.631 82.4708 146.908 82.3624 147.126 82.1427C147.275 81.9934 147.377 81.7794 147.429 81.5006C147.461 81.3147 147.477 81.0275 147.477 80.6403V79.8827C147.477 79.1589 147.473 78.7309 147.464 78.5971C147.451 78.4028 147.366 78.2873 147.204 78.2521C147.147 78.2394 147.074 78.2338 146.985 78.2338C146.916 78.2338 146.883 78.2155 146.883 78.1789C146.883 78.1423 146.925 78.124 147.009 78.124C147.187 78.124 147.419 78.1296 147.705 78.1423C147.718 78.1423 147.812 78.1395 147.989 78.1338C148.167 78.1282 148.302 78.1254 148.395 78.1254C148.479 78.1254 148.522 78.1437 148.522 78.1803C148.522 78.2169 148.485 78.2352 148.413 78.2352C148.365 78.2352 148.306 78.2408 148.237 78.2535C148.101 78.2774 148.026 78.3929 148.013 78.5985C148.005 78.7323 148.001 79.1589 148.001 79.8813V80.529C148.001 80.9402 147.968 81.2739 147.903 81.5274C147.815 81.878 147.656 82.1526 147.425 82.3511C147.085 82.6412 146.666 82.7862 146.166 82.7862C145.577 82.7862 145.128 82.6468 144.823 82.368C144.463 82.0455 144.283 81.5105 144.283 80.7642L144.29 80.7628Z" fill="black"/>
<path d="M149.702 80.9454V79.8795C149.702 79.1571 149.698 78.7291 149.69 78.5967C149.677 78.4024 149.609 78.2897 149.484 78.2574C149.415 78.2419 149.346 78.2334 149.276 78.2334C149.205 78.2334 149.17 78.2137 149.17 78.1729C149.17 78.1405 149.218 78.125 149.315 78.125C149.395 78.125 149.533 78.1278 149.73 78.1334C149.926 78.1391 150.05 78.1419 150.102 78.1419C150.146 78.1419 150.26 78.1391 150.441 78.1334C150.623 78.1278 150.757 78.125 150.841 78.125C150.926 78.125 150.968 78.1405 150.968 78.1729C150.968 78.2137 150.939 78.2334 150.881 78.2334C150.823 78.2334 150.76 78.2391 150.692 78.2517C150.557 78.2757 150.482 78.3911 150.471 78.5967C150.463 78.7305 150.46 79.1571 150.46 79.8795V80.9454C150.46 81.6678 150.468 82.1099 150.484 82.2719C150.499 82.4493 150.579 82.5479 150.723 82.569C150.839 82.5845 150.941 82.5929 151.029 82.5929C151.092 82.5929 151.124 82.6084 151.124 82.6408C151.124 82.6816 151.086 82.7013 151.009 82.7013C150.855 82.7013 150.668 82.6985 150.448 82.6929C150.229 82.6873 150.101 82.6844 150.064 82.6844C150.027 82.6844 149.913 82.6873 149.722 82.6929C149.53 82.6985 149.39 82.7013 149.301 82.7013C149.221 82.7013 149.18 82.6816 149.18 82.6408C149.18 82.6126 149.225 82.5943 149.314 82.5859C149.374 82.5774 149.435 82.5718 149.495 82.5676C149.592 82.5479 149.65 82.4479 149.671 82.2676C149.691 82.0888 149.701 81.6467 149.701 80.9454H149.702Z" fill="black"/>
<path d="M152.99 82.7838C152.639 82.7838 152.344 82.7317 152.106 82.6261C152.03 82.5937 151.99 82.5247 151.99 82.4205C151.99 82.2022 152 81.9389 152.02 81.6277C152.028 81.5221 152.052 81.47 152.093 81.47C152.134 81.47 152.154 81.5038 152.154 81.5728C152.154 81.6573 152.172 81.7601 152.208 81.8812C152.33 82.2895 152.618 82.4923 153.074 82.4923C153.329 82.4923 153.532 82.4177 153.686 82.2684C153.819 82.1346 153.886 81.9798 153.886 81.8023C153.886 81.4672 153.687 81.1447 153.293 80.8336L153.014 80.6153C152.417 80.1478 152.118 79.669 152.118 79.1804C152.118 78.8453 152.248 78.5707 152.506 78.3567C152.763 78.1427 153.101 78.0356 153.517 78.0356C153.779 78.0356 154.047 78.0694 154.322 78.1384C154.378 78.1539 154.407 78.1793 154.407 78.2117C154.407 78.2032 154.402 78.275 154.394 78.4271C154.385 78.5778 154.381 78.7496 154.381 78.9382C154.381 79.0593 154.359 79.1199 154.315 79.1199C154.274 79.1199 154.254 79.0833 154.254 79.0115C154.254 78.8777 154.202 78.7453 154.097 78.6116C153.939 78.4144 153.719 78.3144 153.436 78.3144C153.214 78.3144 153.039 78.3722 152.91 78.4876C152.78 78.6031 152.715 78.7524 152.715 78.9382C152.715 79.079 152.76 79.2142 152.852 79.341C152.942 79.4677 153.111 79.624 153.358 79.8099L153.526 79.9366C153.89 80.2112 154.146 80.4646 154.295 80.697C154.445 80.9293 154.519 81.1898 154.519 81.4813C154.519 81.9375 154.329 82.2881 153.95 82.5345C153.695 82.7007 153.376 82.7824 152.987 82.7824L152.99 82.7838Z" fill="black"/>
<path d="M155.962 80.9454V79.8795C155.962 79.1571 155.958 78.7291 155.949 78.5967C155.937 78.4024 155.869 78.2897 155.744 78.2574C155.675 78.2419 155.606 78.2334 155.535 78.2334C155.465 78.2334 155.43 78.2137 155.43 78.1729C155.43 78.1405 155.478 78.125 155.575 78.125C155.655 78.125 155.793 78.1278 155.99 78.1334C156.186 78.1391 156.31 78.1419 156.362 78.1419C156.406 78.1419 156.52 78.1391 156.701 78.1334C156.883 78.1278 157.017 78.125 157.101 78.125C157.186 78.125 157.228 78.1405 157.228 78.1729C157.228 78.2137 157.198 78.2334 157.141 78.2334C157.083 78.2334 157.019 78.2391 156.952 78.2517C156.817 78.2757 156.742 78.3911 156.731 78.5967C156.722 78.7305 156.72 79.1571 156.72 79.8795V80.9454C156.72 81.6678 156.728 82.1099 156.743 82.2719C156.759 82.4493 156.839 82.5479 156.983 82.569C157.098 82.5845 157.201 82.5929 157.288 82.5929C157.352 82.5929 157.384 82.6084 157.384 82.6408C157.384 82.6816 157.346 82.7013 157.269 82.7013C157.115 82.7013 156.928 82.6985 156.708 82.6929C156.489 82.6873 156.36 82.6844 156.324 82.6844C156.287 82.6844 156.173 82.6873 155.982 82.6929C155.79 82.6985 155.649 82.7013 155.561 82.7013C155.48 82.7013 155.44 82.6816 155.44 82.6408C155.44 82.6126 155.485 82.5943 155.573 82.5859C155.634 82.5774 155.694 82.5718 155.755 82.5676C155.852 82.5479 155.91 82.4479 155.931 82.2676C155.951 82.0888 155.961 81.6467 155.961 80.9454H155.962Z" fill="black"/>
<path d="M158.977 79.3343L159.043 81.8773C159.055 82.2814 159.126 82.5053 159.254 82.549C159.267 82.5532 159.345 82.5631 159.491 82.58C159.612 82.5954 159.672 82.6166 159.672 82.6405C159.672 82.6813 159.626 82.7011 159.533 82.7011C159.379 82.7011 159.22 82.6982 159.054 82.6926C158.888 82.687 158.798 82.6842 158.782 82.6842C158.786 82.6842 158.709 82.687 158.553 82.6926C158.395 82.6982 158.254 82.7011 158.129 82.7011C158.04 82.7011 157.995 82.6813 157.995 82.6405C157.995 82.6123 158.047 82.594 158.153 82.5856C158.226 82.5771 158.296 82.5701 158.364 82.5617C158.44 82.5377 158.491 82.4729 158.515 82.3673C158.534 82.2744 158.547 82.0885 158.551 81.8097L158.606 78.2261C158.61 78.0895 158.636 78.0205 158.685 78.0205C158.717 78.0205 158.792 78.0825 158.909 78.2078C159.24 78.5626 159.865 79.2104 160.786 80.151C161.197 80.579 161.642 81.0395 162.118 81.5309H162.148L162.087 78.8133C162.083 78.664 162.074 78.5612 162.063 78.5049C162.031 78.3838 161.97 78.3049 161.881 78.2683C161.821 78.2444 161.714 78.2317 161.56 78.2317C161.496 78.2317 161.463 78.2134 161.463 78.1768C161.463 78.1402 161.515 78.1219 161.621 78.1219C161.742 78.1219 161.887 78.1247 162.056 78.1303C162.225 78.136 162.325 78.1388 162.353 78.1388C162.357 78.1388 162.428 78.136 162.564 78.1303C162.701 78.1247 162.829 78.1219 162.946 78.1219C163.039 78.1219 163.085 78.1402 163.085 78.1768C163.085 78.2134 163.049 78.2317 162.977 78.2317C162.776 78.2317 162.652 78.2979 162.608 78.4317C162.588 78.5049 162.576 78.6147 162.571 78.764L162.505 82.5842C162.501 82.7095 162.476 82.7715 162.426 82.7715C162.381 82.7715 162.314 82.7264 162.221 82.6377C161.834 82.2547 161.238 81.6605 160.435 80.8578C160.161 80.5875 159.852 80.2664 159.509 79.8947C159.336 79.7046 159.164 79.5173 158.995 79.3315H158.977V79.3343Z" fill="black"/>
<path d="M164.43 80.9439V79.8779C164.43 79.1556 164.426 78.7275 164.418 78.5952C164.405 78.4008 164.319 78.2868 164.157 78.2502C164.101 78.2375 164.022 78.2319 163.921 78.2319C163.852 78.2319 163.818 78.2136 163.818 78.177C163.818 78.1403 163.862 78.122 163.952 78.122C164.073 78.122 164.237 78.1249 164.444 78.1305C164.653 78.1361 164.778 78.1389 164.823 78.1389C165.779 78.1389 166.285 78.1375 166.337 78.1333C166.441 78.1249 166.528 78.1136 166.597 78.0967C166.666 78.0812 166.699 78.0728 166.695 78.0728C166.719 78.0728 166.731 78.0911 166.731 78.1277C166.731 78.1319 166.726 78.1685 166.713 78.2361C166.7 78.3164 166.692 78.4121 166.686 78.5205C166.681 78.629 166.669 78.7627 166.652 78.9204C166.644 78.9655 166.624 78.9866 166.592 78.9866C166.564 78.9866 166.547 78.9641 166.54 78.9204C166.534 78.8768 166.528 78.8331 166.524 78.7937C166.52 78.7529 166.512 78.7177 166.5 78.6853C166.452 78.5684 166.316 78.4952 166.093 78.467C165.955 78.4515 165.668 78.4431 165.23 78.4431C165.202 78.4431 165.188 78.4628 165.188 78.5036V80.0357C165.188 80.0807 165.202 80.1018 165.23 80.1018C165.785 80.1018 166.11 80.0976 166.203 80.0892C166.272 80.0849 166.324 80.0793 166.361 80.0709C166.421 80.0554 166.467 80.03 166.495 79.9976C166.544 79.9455 166.576 79.9188 166.592 79.9188C166.62 79.9188 166.634 79.9343 166.634 79.9667C166.634 79.9709 166.628 80.0117 166.616 80.0878C166.603 80.1807 166.593 80.2877 166.585 80.4088C166.568 80.6383 166.561 80.7735 166.561 80.8143C166.561 80.8904 166.543 80.9298 166.506 80.9298C166.469 80.9298 166.451 80.9087 166.451 80.8664C166.451 80.8242 166.443 80.7538 166.427 80.658C166.395 80.5214 166.281 80.4426 166.086 80.4215C165.972 80.4088 165.685 80.4032 165.223 80.4032C165.199 80.4032 165.187 80.4229 165.187 80.4637V81.8803C165.195 82.0943 165.241 82.2323 165.329 82.2943C165.416 82.3576 165.612 82.3886 165.916 82.3886C166.192 82.3886 166.382 82.3647 166.488 82.3154C166.63 82.2506 166.72 82.1013 166.761 81.8676C166.773 81.807 166.795 81.7761 166.827 81.7761C166.859 81.7761 166.875 81.8127 166.875 81.8845C166.875 82.1309 166.848 82.3548 166.796 82.5562C166.776 82.6294 166.748 82.673 166.712 82.6899C166.675 82.7068 166.595 82.7139 166.469 82.7139C166.119 82.7139 165.77 82.7082 165.422 82.6956C165.074 82.6829 164.864 82.6773 164.792 82.6773C164.756 82.6773 164.642 82.6801 164.45 82.6857C164.259 82.6913 164.118 82.6942 164.029 82.6942C163.949 82.6942 163.908 82.6744 163.908 82.6336C163.908 82.6054 163.953 82.5871 164.042 82.5787C164.102 82.5702 164.163 82.5646 164.223 82.5604C164.316 82.5407 164.375 82.4294 164.399 82.2267C164.419 82.069 164.429 81.6395 164.429 80.9368L164.43 80.9439Z" fill="black"/>
</svg>
