<svg width="16" height="16" viewBox="0 0 16 16" fill="none" xmlns="http://www.w3.org/2000/svg">
<g clip-path="url(#clip0_1478_38907)">
<path d="M8.79999 8.00039L14.9 1.90039C15.125 1.67539 15.125 1.32539 14.9 1.10039C14.675 0.875391 14.325 0.875391 14.1 1.10039L7.99999 7.20039L1.89999 1.10039C1.67499 0.875391 1.32499 0.875391 1.09999 1.10039C0.874994 1.32539 0.874994 1.67539 1.09999 1.90039L7.19999 8.00039L1.09999 14.1004C0.874994 14.3254 0.874994 14.6754 1.09999 14.9004C1.19999 15.0004 1.34999 15.0754 1.49999 15.0754C1.64999 15.0754 1.79999 15.0254 1.89999 14.9004L7.99999 8.80039L14.1 14.9004C14.2 15.0004 14.35 15.0754 14.5 15.0754C14.65 15.0754 14.8 15.0254 14.9 14.9004C15.125 14.6754 15.125 14.3254 14.9 14.1004L8.79999 8.00039Z" fill="white"/>
</g>
<defs>
<clipPath id="clip0_1478_38907">
<rect width="16" height="16" fill="white"/>
</clipPath>
</defs>
</svg>
