<svg width="117" height="67" viewBox="0 0 117 67" fill="none" xmlns="http://www.w3.org/2000/svg">
<g filter="url(#filter0_d_1850_79735)">
<rect width="109" height="60" transform="translate(4 3)" fill="white"/>
<path d="M26.105 42.918L27.4569 40.9453H27.7421L26.2213 43.1753V44.3558H25.9835V43.1753L24.4626 40.9453H24.7478L26.105 42.918Z" fill="white" stroke="#E0E0E0" stroke-width="0.651042" stroke-miterlimit="10"/>
<path d="M30.5776 44.39C30.2643 44.39 29.9736 44.3121 29.7062 44.1566C29.4386 44.0011 29.2274 43.7892 29.0724 43.5218C28.9174 43.2543 28.8401 42.963 28.8401 42.6481C28.8401 42.3333 28.9174 42.0422 29.0724 41.7745C29.2274 41.507 29.4386 41.2954 29.7062 41.1396C29.9736 40.9841 30.2643 40.9062 30.5776 40.9062C30.8909 40.9062 31.1812 40.9841 31.4489 41.1396C31.7163 41.2954 31.9277 41.507 32.0827 41.7745C32.2377 42.042 32.315 42.3333 32.315 42.6481C32.315 42.963 32.2377 43.254 32.0827 43.5218C31.9277 43.7892 31.7165 44.0011 31.4489 44.1566C31.1812 44.3124 30.8909 44.39 30.5776 44.39ZM30.5776 41.1476C30.3065 41.1476 30.0564 41.215 29.8277 41.3495C29.5987 41.4842 29.4167 41.6661 29.281 41.8952C29.1454 42.1242 29.0778 42.3753 29.0778 42.6481C29.0778 42.921 29.1457 43.1721 29.281 43.4011C29.4164 43.6301 29.5987 43.812 29.8277 43.9468C30.0564 44.0816 30.3065 44.1487 30.5776 44.1487C30.8486 44.1487 31.0984 44.0813 31.3274 43.9468C31.5561 43.8123 31.7374 43.6301 31.8712 43.4011C32.0051 43.1721 32.0719 42.921 32.0719 42.6481C32.0719 42.3753 32.0051 42.1245 31.8712 41.8952C31.7374 41.6661 31.5561 41.4842 31.3274 41.3495C31.0984 41.215 30.8486 41.1476 30.5776 41.1476Z" fill="white" stroke="#E0E0E0" stroke-width="0.651042" stroke-miterlimit="10"/>
<path d="M35.1822 44.3922C35.0097 44.3922 34.8434 44.3581 34.6832 44.29C34.5231 44.2218 34.3813 44.1247 34.258 43.9987C34.1348 43.8798 34.0407 43.7399 33.9754 43.579C33.9102 43.4181 33.8777 43.2485 33.8777 43.0702V40.9453H34.1154V43.0702C34.1154 43.217 34.1428 43.3571 34.1972 43.4899C34.2516 43.6228 34.3282 43.7384 34.4269 43.8362C34.529 43.9377 34.6451 44.0156 34.7756 44.0696C34.9058 44.1239 35.0414 44.1508 35.1822 44.1508C35.323 44.1508 35.4638 44.1237 35.594 44.0696C35.7242 44.0153 35.8403 43.9377 35.9426 43.8362C36.0411 43.7384 36.1177 43.6228 36.1724 43.4899C36.2271 43.3569 36.2541 43.217 36.2541 43.0702V40.9453H36.4919V43.0702C36.4919 43.2485 36.4594 43.4184 36.3942 43.579C36.3289 43.7399 36.2348 43.8798 36.1115 43.9987C35.9883 44.1247 35.8475 44.2216 35.6892 44.29C35.5308 44.3581 35.3617 44.3922 35.1822 44.3922Z" fill="white" stroke="#E0E0E0" stroke-width="0.651042" stroke-miterlimit="10"/>
<path d="M40.2786 44.3558L38.8528 42.6349H39.2752C39.5357 42.6349 39.7468 42.6016 39.909 42.5353C40.0287 42.4794 40.1326 42.3946 40.2205 42.2809C40.3085 42.1671 40.3526 42.0421 40.3526 41.9058C40.3526 41.7833 40.3157 41.667 40.2417 41.5569C40.1677 41.4467 40.0622 41.3568 39.9248 41.2866C39.7876 41.2166 39.629 41.1815 39.4495 41.1815H38.4885V44.3558H38.2507V40.9453H39.4495C39.6115 40.9453 39.7628 40.9707 39.9036 41.0214C40.0444 41.0721 40.1677 41.1446 40.2734 41.2392C40.3755 41.3301 40.4539 41.4334 40.5083 41.5487C40.563 41.6639 40.59 41.7831 40.59 41.9055C40.59 42.0979 40.532 42.2701 40.4157 42.4223C40.2994 42.5745 40.1623 42.6839 40.0039 42.7502C39.8949 42.7992 39.7884 42.8299 39.6844 42.8419C39.5805 42.8542 39.4707 42.8604 39.3544 42.8604L40.5955 44.3558H40.2786Z" fill="white" stroke="#E0E0E0" stroke-width="0.651042" stroke-miterlimit="10"/>
<path d="M44.8525 44.3558V40.9453H47.0758V41.1866H45.0903V42.5299H46.6375V42.7712H45.0903V44.1091H47.0758V44.3555H44.8525V44.3558Z" fill="white" stroke="#E0E0E0" stroke-width="0.651042" stroke-miterlimit="10"/>
<path d="M50.149 43.8257L51.4482 40.9453H51.7122L50.149 44.4135L48.5913 40.9453H48.8502L50.1493 43.8257H50.149Z" fill="white" stroke="#E0E0E0" stroke-width="0.651042" stroke-miterlimit="10"/>
<path d="M53.248 44.3558V40.9453H55.4713V41.1866H53.4858V42.5299H55.033V42.7712H53.4858V44.1091H55.4713V44.3555H53.248V44.3558Z" fill="white" stroke="#E0E0E0" stroke-width="0.651042" stroke-miterlimit="10"/>
<path d="M59.1948 44.3558L57.7691 42.6349H58.1915C58.4519 42.6349 58.6631 42.6016 58.8253 42.5353C58.9449 42.4794 59.0489 42.3946 59.1368 42.2809C59.2247 42.1671 59.2688 42.0421 59.2688 41.9058C59.2688 41.7833 59.2319 41.667 59.1579 41.5569C59.0839 41.4467 58.9785 41.3568 58.841 41.2866C58.7038 41.2166 58.5453 41.1815 58.3658 41.1815H57.4047V44.3558H57.167V40.9453H58.3658C58.5277 40.9453 58.6791 40.9707 58.8199 41.0214C58.9607 41.0721 59.0839 41.1446 59.1897 41.2392C59.2918 41.3301 59.3702 41.4334 59.4246 41.5487C59.4792 41.6639 59.5063 41.7831 59.5063 41.9055C59.5063 42.0979 59.4483 42.2701 59.332 42.4223C59.2157 42.5745 59.0785 42.6839 58.9202 42.7502C58.8111 42.7992 58.7046 42.8299 58.6007 42.8419C58.4968 42.8542 58.3869 42.8604 58.2706 42.8604L59.5117 44.3558H59.1948Z" fill="white" stroke="#E0E0E0" stroke-width="0.651042" stroke-miterlimit="10"/>
<path d="M62.4255 42.918L63.7775 40.9453H64.0627L62.5418 43.1753V44.3558H62.3041V43.1753L60.7832 40.9453H61.0684L62.4255 42.918Z" fill="white" stroke="#E0E0E0" stroke-width="0.651042" stroke-miterlimit="10"/>
<path d="M66.5501 44.3558H65.5625V40.9453H66.5501C66.793 40.9453 67.0184 40.9899 67.226 41.079C67.4335 41.1682 67.6133 41.295 67.7646 41.4595C67.909 41.6168 68.0199 41.7972 68.0973 41.9998C68.1746 42.2027 68.2136 42.4179 68.2136 42.6452C68.2136 42.8724 68.1749 43.0876 68.0973 43.2905C68.0199 43.4934 67.9088 43.6753 67.7646 43.8362C67.6133 44.004 67.4338 44.1327 67.226 44.2218C67.0181 44.311 66.793 44.3555 66.5501 44.3555V44.3558ZM65.8002 44.1196H66.5501C66.9761 44.1196 67.3229 43.971 67.5903 43.6736C67.7136 43.5406 67.8077 43.3858 67.8729 43.2093C67.9379 43.0328 67.9707 42.8448 67.9707 42.6452C67.9707 42.4456 67.9382 42.2632 67.8729 42.0864C67.8077 41.9099 67.7136 41.7552 67.5903 41.6222C67.3193 41.3319 66.9725 41.1866 66.5501 41.1866H65.8002V44.1196Z" fill="white" stroke="#E0E0E0" stroke-width="0.651042" stroke-miterlimit="10"/>
<path d="M69.9832 43.4928L69.5765 44.3585H69.3125L70.9285 40.9062L72.4545 44.3585H72.1959L71.8104 43.4928H69.9832ZM70.9179 41.4886L70.0941 43.2566H71.7047L70.9179 41.4886Z" fill="white" stroke="#E0E0E0" stroke-width="0.651042" stroke-miterlimit="10"/>
<path d="M74.8669 42.918L76.2189 40.9453H76.5041L74.9832 43.1753V44.3558H74.7455V43.1753L73.2246 40.9453H73.5098L74.8669 42.918Z" fill="white" stroke="#E0E0E0" stroke-width="0.651042" stroke-miterlimit="10"/>
<path d="M82.8072 42.8896C82.9217 43.0382 82.9789 43.207 82.9789 43.3958C82.9789 43.5183 82.9516 43.6382 82.8972 43.7553C82.8425 43.8726 82.7644 43.9766 82.6623 44.0673C82.5565 44.1583 82.4325 44.2292 82.2899 44.2797C82.1473 44.3304 81.9967 44.3558 81.8384 44.3558H80.5762L80.5813 40.9453H81.5635C81.8838 40.9453 82.1391 41.0345 82.3291 41.2128C82.417 41.2932 82.4849 41.386 82.5323 41.4908C82.5798 41.5955 82.6035 41.7042 82.6035 41.8161C82.6035 41.956 82.571 42.0836 82.5057 42.1991C82.4405 42.3147 82.3606 42.4038 82.2654 42.4666L82.218 42.4981C82.2848 42.5191 82.3428 42.5401 82.3923 42.5611C82.5542 42.6311 82.6924 42.7405 82.8069 42.8891L82.8072 42.8896ZM80.8188 42.4305H81.5529C81.6481 42.4305 81.7273 42.4254 81.7907 42.4149C81.8541 42.4044 81.9176 42.3869 81.9807 42.3623C82.0723 42.3239 82.1594 42.2573 82.2422 42.163C82.325 42.0685 82.3662 41.9532 82.3662 41.8166C82.3662 41.7083 82.3353 41.606 82.2739 41.5097C82.2123 41.4136 82.1208 41.3358 81.9993 41.2763C81.8779 41.2169 81.7327 41.1872 81.5635 41.1872H80.8188V42.4307V42.4305ZM82.3134 44.0151C82.4506 43.9451 82.5563 43.8549 82.6303 43.7448C82.7043 43.6346 82.7412 43.5183 82.7412 43.3958C82.7412 43.2593 82.6981 43.1361 82.6117 43.0259C82.5253 42.9157 82.4225 42.8345 82.3028 42.782C82.1339 42.7085 81.9207 42.6718 81.6638 42.6718H80.8188V44.1198H81.8379C82.0174 44.1198 82.1759 44.085 82.3131 44.0148L82.3134 44.0151Z" fill="white" stroke="#E0E0E0" stroke-width="0.651042" stroke-miterlimit="10"/>
<path d="M84.9227 43.4928L84.516 44.3585H84.252L85.868 40.9062L87.394 44.3585H87.1354L86.7499 43.4928H84.9227ZM85.8574 41.4886L85.0335 43.2566H86.6441L85.8574 41.4886Z" fill="white" stroke="#E0E0E0" stroke-width="0.651042" stroke-miterlimit="10"/>
<path d="M90.9585 44.3558L89.5328 42.6349H89.9551C90.2156 42.6349 90.4268 42.6016 90.589 42.5353C90.7086 42.4794 90.8125 42.3946 90.9005 42.2809C90.9884 42.1671 91.0325 42.0421 91.0325 41.9058C91.0325 41.7833 90.9956 41.667 90.9216 41.5569C90.8476 41.4467 90.7421 41.3568 90.6047 41.2866C90.4675 41.2166 90.3089 41.1815 90.1295 41.1815H89.1684V44.3558H88.9307V40.9453H90.1295C90.2914 40.9453 90.4428 40.9707 90.5836 41.0214C90.7243 41.0721 90.8476 41.1446 90.9533 41.2392C91.0554 41.3301 91.1338 41.4334 91.1882 41.5487C91.2429 41.6639 91.27 41.7831 91.27 41.9055C91.27 42.0979 91.212 42.2701 91.0957 42.4223C90.9794 42.5745 90.8422 42.6839 90.6839 42.7502C90.5748 42.7992 90.4683 42.8299 90.3644 42.8419C90.2605 42.8542 90.1506 42.8604 90.0343 42.8604L91.2754 44.3558H90.9585Z" fill="white" stroke="#E0E0E0" stroke-width="0.651042" stroke-miterlimit="10"/>
<path fill-rule="evenodd" clip-rule="evenodd" d="M76.983 21.7266C77.0817 21.8111 77.1684 21.9192 77.2816 21.9766C78.0451 22.3632 78.4278 22.9919 78.4293 23.8266C78.4368 27.903 78.4505 31.9793 78.4169 36.0554C78.4071 37.2311 77.4734 38.033 76.2868 38.0338C73.204 38.0353 70.1208 38.0338 67.0375 38.0338H66.2967C66.2815 37.7174 66.258 37.4573 66.258 37.197C66.2557 32.3769 66.257 27.5571 66.2552 22.737C66.2552 22.4001 66.2364 22.0635 66.2266 21.7268H76.9832L76.983 21.7266ZM71.3209 25.9984V33.9149C71.6223 33.9149 71.8425 33.9187 72.0625 33.9141C73.4294 33.8877 73.293 34.1798 73.2969 32.722C73.302 30.7216 73.2981 28.7213 73.2981 26.7209V25.9981H71.3209V25.9984Z" fill="white"/>
<path fill-rule="evenodd" clip-rule="evenodd" d="M62.9588 21.7268C63.2409 21.9415 63.6178 22.1011 63.7829 22.3835C64.0451 22.8308 64.3169 23.3585 64.3221 23.8548C64.3646 27.8661 64.3525 31.8781 64.3427 35.8899C64.3391 37.2585 63.507 38.0512 62.122 38.0514C59.014 38.0525 55.9063 38.0453 52.7985 38.0581C52.3612 38.0599 52.1472 37.9846 52.1484 37.475C52.1624 32.3364 52.1531 27.1974 52.1528 22.0586C52.1528 21.9479 52.1851 21.8372 52.2021 21.7266H62.9585L62.9588 21.7268ZM57.2613 33.9144C57.7894 33.9144 58.2858 33.952 58.7698 33.8918C58.9191 33.8734 59.1471 33.5898 59.1489 33.4255C59.1739 31.1313 59.1726 28.8368 59.1509 26.5423C59.1496 26.3893 58.9446 26.1206 58.8136 26.1075C58.3077 26.0563 57.7933 26.0868 57.2613 26.0868V33.9144Z" fill="white"/>
<path fill-rule="evenodd" clip-rule="evenodd" d="M34.7732 21.7268C36.0496 22.2769 36.3235 23.2886 36.3005 24.5857C36.2348 28.3229 36.2681 32.0615 36.2613 35.8C36.2585 37.291 35.5115 38.0268 34.0069 38.0263C30.9677 38.0258 27.9288 38.0261 24.8899 38.0258H24.17C24.1439 37.8119 24.1047 37.6418 24.1047 37.4717C24.1009 32.3792 24.1009 27.2865 24.1029 22.1941C24.1029 22.0384 24.1354 21.8823 24.1524 21.7266H34.773L34.7732 21.7268ZM31.1639 33.8777C31.1639 31.3429 31.1694 28.8693 31.148 26.3963C31.1469 26.2697 30.9239 26.0478 30.79 26.0368C30.2795 25.994 29.763 26.0197 29.1967 26.0197V33.878H31.1637L31.1639 33.8777Z" fill="white"/>
<path fill-rule="evenodd" clip-rule="evenodd" d="M48.3888 21.7266C49.1518 26.4501 49.9218 31.1728 50.6678 35.8989C50.7477 36.4051 50.6678 36.9342 50.6974 37.4507C50.7209 37.8649 50.5229 38.0363 50.1438 38.0379C48.7836 38.043 47.4229 38.056 46.0639 38.0161C45.9017 38.0112 45.6464 37.7176 45.6098 37.5247C45.467 36.7738 45.3752 36.0113 45.3048 35.2494C45.2692 34.8625 45.1418 34.683 44.7246 34.7063C44.2078 34.735 43.688 34.7132 43.0954 34.7132C42.9918 35.6334 42.8747 36.5368 42.7958 37.4437C42.762 37.8303 42.5936 38.0327 42.2141 38.0343C40.7669 38.0404 39.3196 38.0368 37.7804 38.0368C37.7804 37.0169 37.6553 36.0398 37.8021 35.1047C38.447 30.9894 39.1695 26.8861 39.8673 22.7793C39.9271 22.4262 40.0106 22.0773 40.0831 21.7266H48.3888ZM43.4956 30.55C43.7703 30.5882 43.9696 30.6279 44.1707 30.6414C44.9309 30.6927 44.9716 30.6438 44.8858 29.8711C44.7839 28.9536 44.6844 28.0359 44.5851 27.118C44.5562 26.8495 44.5598 26.573 44.4917 26.3151C44.4613 26.1998 44.303 26.0886 44.1779 26.0419C44.1287 26.0235 43.9443 26.1795 43.9345 26.2684C43.7801 27.6688 43.6436 29.0715 43.4956 30.55Z" fill="white"/>
<path fill-rule="evenodd" clip-rule="evenodd" d="M92.5046 24.2967C91.8785 25.7637 91.2488 27.2294 90.6279 28.6987C90.4262 29.176 90.2937 29.6876 90.0503 30.1414C88.8659 32.3467 88.3688 34.6799 88.6741 37.1658C88.7581 37.8501 88.5 38.0817 87.8164 38.063C86.4407 38.0253 85.0635 38.0519 83.6007 38.0519C83.6007 36.7973 83.6329 35.6296 83.586 34.4652C83.5648 33.9402 83.4617 33.392 83.2667 32.9049C82.2134 30.2684 81.1543 27.6329 80.0231 25.0287C79.5476 23.9342 79.5992 22.8467 79.7051 21.7266H84.743C85.1282 23.8433 85.5137 25.96 85.8992 28.0767C86.0013 28.0769 86.1032 28.0774 86.2056 28.0777C86.6713 25.9607 87.1367 23.8435 87.6024 21.7266H92.5041V24.297L92.5046 24.2967Z" fill="white"/>
<path fill-rule="evenodd" clip-rule="evenodd" d="M77.3748 21.5547C77.4739 21.6392 77.5605 21.7473 77.6734 21.8047C78.437 22.1913 78.8196 22.82 78.8212 23.6547C78.8287 27.7311 78.8423 31.8074 78.8085 35.8835C78.7987 37.0592 77.865 37.8611 76.6784 37.8619C73.5954 37.8634 70.5124 37.8619 67.4291 37.8619H66.6883C66.6728 37.5455 66.6496 37.2854 66.6496 37.0251C66.6473 32.205 66.6486 27.3852 66.6468 22.5651C66.6468 22.2282 66.628 21.8916 66.6182 21.5549H77.3748V21.5547ZM71.7127 25.8265V33.743C72.0142 33.743 72.2344 33.7466 72.4543 33.7425C73.8213 33.7161 73.6848 34.0082 73.6887 32.5501C73.6941 30.5498 73.69 28.5494 73.69 26.549V25.8265H71.7127Z" fill="#EC2127"/>
<path fill-rule="evenodd" clip-rule="evenodd" d="M63.3496 21.5547C63.6317 21.7694 64.0087 21.929 64.1737 22.2113C64.436 22.6586 64.7078 23.1864 64.7132 23.6827C64.7557 27.6939 64.7436 31.706 64.7338 35.7178C64.7302 37.0864 63.8981 37.879 62.5131 37.8793C59.4051 37.8803 56.2974 37.8731 53.1896 37.8862C52.7523 37.888 52.5383 37.8127 52.5396 37.3031C52.5535 32.1643 52.5442 27.0255 52.5439 21.8867C52.5439 21.776 52.5762 21.6654 52.5932 21.5547H63.3499H63.3496ZM57.6519 33.7422C58.18 33.7422 58.6764 33.7796 59.1604 33.7197C59.3097 33.7012 59.5376 33.4176 59.5395 33.2534C59.5645 30.9592 59.5632 28.6644 59.5415 26.3702C59.54 26.2172 59.3352 25.9485 59.2042 25.9354C58.6983 25.8842 58.1836 25.9144 57.6519 25.9144V33.742V33.7422Z" fill="#F47C20"/>
<path fill-rule="evenodd" clip-rule="evenodd" d="M35.1642 21.5547C36.4406 22.1047 36.7145 23.1165 36.6915 24.4136C36.6258 28.1507 36.659 31.8894 36.6523 35.6278C36.6495 37.1189 35.9022 37.8547 34.3979 37.8542C31.359 37.8537 28.3198 37.8539 25.2809 37.8537H24.561C24.5349 37.6398 24.4957 37.4696 24.4957 37.2998C24.4921 32.2074 24.4919 27.1147 24.4942 22.0222C24.4942 21.8665 24.5264 21.7105 24.5437 21.5547H35.1642ZM31.5549 33.7053C31.5549 31.1708 31.5606 28.6972 31.5392 26.2239C31.5382 26.0973 31.3151 25.8755 31.1813 25.8644C30.6705 25.8219 30.154 25.8473 29.588 25.8473V33.7056H31.5549V33.7053Z" fill="#FFCA0D"/>
<path fill-rule="evenodd" clip-rule="evenodd" d="M48.7804 21.5547C49.5434 26.2782 50.3134 31.0009 51.0594 35.727C51.1393 36.2332 51.0594 36.7623 51.0888 37.2788C51.1123 37.693 50.9142 37.8644 50.5352 37.866C49.1749 37.8711 47.8145 37.8842 46.4553 37.8442C46.2931 37.8393 46.0378 37.5457 46.0012 37.3528C45.8583 36.6019 45.7665 35.8395 45.6961 35.0775C45.6603 34.6907 45.5332 34.5113 45.116 34.5344C44.5989 34.5631 44.0794 34.5413 43.4865 34.5413C43.3829 35.4616 43.2658 36.3649 43.1869 37.2719C43.1531 37.6585 42.9847 37.8606 42.6052 37.8624C41.158 37.8685 39.7107 37.865 38.1718 37.865C38.1718 36.845 38.0467 35.8679 38.1934 34.9328C38.8383 30.8175 39.5608 26.7142 40.2586 22.6074C40.3187 22.2544 40.402 21.9054 40.4745 21.5547H48.7802H48.7804ZM43.8872 30.3781C44.1619 30.4163 44.3612 30.456 44.5623 30.4696C45.3225 30.5208 45.3632 30.4721 45.2774 29.6992C45.1753 28.7817 45.076 27.8641 44.9767 26.9461C44.9476 26.6776 44.9514 26.4012 44.8831 26.1432C44.8527 26.0279 44.6943 25.9167 44.5693 25.8701C44.52 25.8516 44.3357 26.0076 44.3259 26.0965C44.1714 27.4969 44.0353 28.8996 43.887 30.3781H43.8872Z" fill="#FFCA0D"/>
<path fill-rule="evenodd" clip-rule="evenodd" d="M92.8969 24.1251C92.2706 25.5921 91.6411 27.0578 91.0202 28.5271C90.8186 29.0044 90.6863 29.516 90.4426 29.9697C89.2582 32.1751 88.7611 34.508 89.0664 36.9941C89.1505 37.6784 88.8923 37.91 88.2087 37.8913C86.8331 37.8537 85.4558 37.8803 83.993 37.8803C83.993 36.6257 84.0252 35.458 83.9783 34.2933C83.9574 33.7684 83.854 33.2201 83.6593 32.7331C82.6059 30.0965 81.5469 27.4611 80.4157 24.8568C79.9402 23.7623 79.9917 22.6748 80.0977 21.5547H85.1358C85.5211 23.6714 85.9066 25.7881 86.2921 27.9048C86.3942 27.905 86.496 27.9056 86.5984 27.9058C87.0641 25.7889 87.5295 23.6716 87.9952 21.5547H92.8972V24.1251H92.8969Z" fill="#EC2127"/>
</g>
<defs>
<filter id="filter0_d_1850_79735" x="0.875" y="0.65625" width="115.25" height="66.25" filterUnits="userSpaceOnUse" color-interpolation-filters="sRGB">
<feFlood flood-opacity="0" result="BackgroundImageFix"/>
<feColorMatrix in="SourceAlpha" type="matrix" values="0 0 0 0 0 0 0 0 0 0 0 0 0 0 0 0 0 0 127 0" result="hardAlpha"/>
<feOffset dy="0.78125"/>
<feGaussianBlur stdDeviation="1.5625"/>
<feComposite in2="hardAlpha" operator="out"/>
<feColorMatrix type="matrix" values="0 0 0 0 0 0 0 0 0 0 0 0 0 0 0 0 0 0 0.08 0"/>
<feBlend mode="normal" in2="BackgroundImageFix" result="effect1_dropShadow_1850_79735"/>
<feBlend mode="normal" in="SourceGraphic" in2="effect1_dropShadow_1850_79735" result="shape"/>
</filter>
</defs>
</svg>
