<svg width="117" height="67" viewBox="0 0 117 67" fill="none" xmlns="http://www.w3.org/2000/svg">
<g filter="url(#filter0_d_1850_99195)">
<rect width="109" height="60" transform="translate(4 3)" fill="white"/>
<g opacity="0.9">
<path d="M58.6507 14.8289C58.7846 14.8289 58.8901 14.8747 58.9687 14.9663C59.0518 15.0617 59.0929 15.1859 59.0929 15.3374C59.0929 15.4305 59.0735 15.517 59.0331 15.5976C58.9553 15.755 58.8288 15.8334 58.6514 15.8334C58.519 15.8334 58.4135 15.7875 58.3349 15.6959C58.293 15.6471 58.2608 15.5887 58.2399 15.52C58.2204 15.4601 58.2114 15.3965 58.2114 15.33C58.2114 15.2332 58.2309 15.1437 58.2705 15.0632C58.3454 14.9094 58.4726 14.8311 58.6507 14.8281V14.8289ZM58.6507 14.9944C58.5774 14.9944 58.5167 15.0218 58.4681 15.0765C58.4105 15.1415 58.3813 15.2265 58.3813 15.3315C58.3813 15.4364 58.4097 15.5214 58.4681 15.5865C58.5167 15.6412 58.5781 15.6693 58.6522 15.6693C58.7263 15.6693 58.7869 15.6419 58.8348 15.5865C58.864 15.554 58.8864 15.5141 58.9014 15.4667C58.9148 15.4246 58.9216 15.381 58.9216 15.3359C58.9216 15.2258 58.8931 15.14 58.8348 15.0765C58.7854 15.0225 58.7248 14.9952 58.6507 14.9944Z" fill="#231F20"/>
<path d="M59.5309 15.3953V15.7449C59.5309 15.7597 59.5339 15.7708 59.5391 15.7789C59.5444 15.787 59.5534 15.7929 59.5668 15.7974V15.8203H59.3281V15.7974C59.3416 15.7929 59.3506 15.7863 59.3558 15.7789C59.3618 15.7715 59.364 15.7604 59.364 15.7456V14.9244C59.364 14.9096 59.3618 14.8986 59.3558 14.8912C59.3506 14.8838 59.3416 14.8771 59.3281 14.8727V14.8498H60.0061C60.0173 14.8498 60.0256 14.8461 60.0315 14.8402C60.0375 14.8335 60.042 14.8217 60.0458 14.8047H60.0637V15.0553H60.0458C60.042 15.0383 60.0375 15.0257 60.0315 15.0198C60.0256 15.0131 60.0166 15.0102 60.0061 15.0102H59.5309V15.2423H59.8415C59.8527 15.2423 59.8617 15.2386 59.8677 15.2319C59.8729 15.2253 59.8781 15.2134 59.8819 15.1964H59.8998V15.4418H59.8819C59.8781 15.4248 59.8729 15.413 59.8677 15.4064C59.8617 15.3997 59.8527 15.396 59.8415 15.396H59.5309V15.3953Z" fill="#231F20"/>
</g>
<path d="M40.7705 50.7031C41.0391 50.7031 41.1701 50.947 41.1701 51.2324C41.1701 51.6041 40.9748 51.8281 40.7084 51.8281H40.4285V52.6885H40.2429V50.7031H40.7705ZM40.4293 50.9648V51.5665H40.6882C40.87 51.5665 40.9718 51.4415 40.9718 51.2442C40.9718 51.0587 40.8678 50.9655 40.7555 50.9655H40.4293V50.9648Z" fill="#231F20"/>
<path d="M42.2364 50.7031V51.9382C42.2364 52.2258 42.3194 52.4616 42.5379 52.4616C42.7564 52.4616 42.8507 52.2265 42.8507 51.9382V50.7031H43.0363V51.973C43.0363 52.5658 42.7699 52.7173 42.5357 52.7173C42.2229 52.7173 42.0508 52.4645 42.0508 51.973V50.7031H42.2356H42.2364Z" fill="#231F20"/>
<path d="M44.5479 50.7039C44.7679 50.7039 44.9145 50.8842 44.9145 51.1599C44.9145 51.2907 44.8816 51.4097 44.818 51.5029C44.7701 51.5731 44.7275 51.6019 44.6773 51.6278V51.6337C44.9841 51.6514 45.0036 51.9996 45.0036 52.1016C45.0036 52.4882 44.7656 52.6885 44.509 52.6885H44.0068V50.7031H44.5479V50.7039ZM44.1924 50.9655V51.5265H44.4723C44.6077 51.5265 44.714 51.4046 44.714 51.2213C44.714 51.0675 44.6332 50.9655 44.5247 50.9655H44.1924ZM44.1924 51.7734V52.4276H44.4573C44.5845 52.4276 44.803 52.3869 44.803 52.0875C44.803 51.8665 44.6616 51.7734 44.5307 51.7734H44.1924Z" fill="#231F20"/>
<path d="M47.8067 50.7039C48.0267 50.7039 48.1733 50.8842 48.1733 51.1599C48.1733 51.2907 48.1404 51.4097 48.0768 51.5029C48.0289 51.5731 47.9863 51.6019 47.9361 51.6278V51.6337C48.2429 51.6514 48.2624 51.9996 48.2624 52.1016C48.2624 52.4882 48.0252 52.6885 47.7677 52.6885H47.2656V50.7031H47.8067V50.7039ZM47.4512 50.9655V51.5265H47.7311C47.8665 51.5265 47.9728 51.4046 47.9728 51.2213C47.9728 51.0675 47.8912 50.9655 47.7835 50.9655H47.4512ZM47.4512 51.7734V52.4276H47.7154C47.8433 52.4276 48.0611 52.3869 48.0611 52.0875C48.0611 51.8665 47.9204 51.7734 47.7887 51.7734H47.4505H47.4512Z" fill="#231F20"/>
<path d="M49.7106 50.7031C49.9867 50.7031 50.1124 50.9212 50.1124 51.1998C50.1124 51.5228 49.9328 51.647 49.7876 51.7232V51.7291C49.84 51.752 49.9306 51.8015 49.9927 52.0491L50.1528 52.6885H49.9463L49.8266 52.1622C49.7764 51.9412 49.7091 51.8252 49.5602 51.8252H49.3731V52.6885H49.1875V50.7031H49.7113H49.7106ZM49.3723 50.9648V51.5635H49.5093C49.751 51.5635 49.9111 51.4962 49.9111 51.2383C49.9111 50.9803 49.7315 50.9648 49.6619 50.9648H49.3723Z" fill="#231F20"/>
<path d="M51.8967 50.7031V50.9648H51.2344V51.5199H51.8682V51.7697H51.2344V52.4239H51.8967V52.6855H51.0488V50.7031H51.8967Z" fill="#231F20"/>
<path d="M54.243 50.7031L53.919 52.6855H53.7334L53.4939 51.1451H53.4902L53.2679 52.6855H53.0764L52.7344 50.7031H52.9357L53.1691 52.2317H53.1729L53.3906 50.7031H53.5837L53.8209 52.191H53.8247L54.0447 50.7031H54.2415H54.243Z" fill="#231F20"/>
<path d="M56.0026 50.7031V50.9648H55.3404V51.5199H55.9742V51.7697H55.3404V52.4239H56.0026V52.6855H55.1548V50.7031H56.0026Z" fill="#231F20"/>
<path d="M57.4581 50.7031C57.7343 50.7031 57.86 50.9212 57.86 51.1998C57.86 51.5228 57.6804 51.647 57.5352 51.7232V51.7291C57.5876 51.752 57.6781 51.8015 57.7402 52.0491L57.9004 52.6885H57.6939L57.5741 52.1622C57.524 51.9412 57.4559 51.8252 57.3077 51.8252H57.1206V52.6885H56.9351V50.7031H57.4581ZM57.1206 50.9648V51.5635H57.2576C57.4985 51.5635 57.6594 51.4962 57.6594 51.2383C57.6594 50.9803 57.4798 50.9648 57.4102 50.9648H57.1206Z" fill="#231F20"/>
<path d="M58.8541 50.7031L59.1744 51.5288L59.4931 50.7031H59.7311L59.2657 51.7815V52.6855H59.0801V51.7815L58.6206 50.7031H58.8541Z" fill="#231F20"/>
<path d="M62.7732 51.0311C62.6363 50.918 62.5337 50.918 62.5068 50.918C62.42 50.918 62.3152 50.9705 62.3152 51.0984C62.3152 51.1301 62.3175 51.1361 62.3347 51.2063C62.3384 51.224 62.3444 51.2381 62.3504 51.2499L62.7523 52.0437C62.7777 51.9735 62.8241 51.8493 62.8256 51.5581H63.0149C63.0014 51.8833 62.9513 52.0607 62.8563 52.2529L63.0688 52.6861H62.845L62.735 52.4621C62.6655 52.5552 62.5457 52.7178 62.3317 52.7178C62.0204 52.7178 61.876 52.3978 61.876 52.1103C61.876 51.7126 62.1461 51.5293 62.2374 51.4679C62.1641 51.3282 62.1154 51.2299 62.1154 51.0784C62.1154 50.8434 62.2569 50.6719 62.4941 50.6719C62.6176 50.6719 62.6969 50.7096 62.774 50.7473V51.0326L62.7732 51.0311ZM62.316 51.6269C62.2195 51.7052 62.0765 51.836 62.0765 52.0777C62.0765 52.284 62.1768 52.4613 62.3601 52.4613C62.4971 52.4613 62.5742 52.3623 62.6385 52.2699L62.316 51.6276V51.6269Z" fill="#231F20"/>
<path d="M65.482 50.7039V51.6108L66.0365 50.7039H66.2797L65.8008 51.4652L66.3186 52.6855H66.0829L65.675 51.6685L65.482 51.9796V52.6855H65.2964V50.7031H65.482V50.7039Z" fill="#231F20"/>
<path d="M67.3453 50.7031V52.6855H67.1597V50.7031H67.3453Z" fill="#231F20"/>
<path d="M69.1906 50.7031V50.9648H68.8082V52.6826H68.6226V50.9648H68.2305V50.7031H69.1906Z" fill="#231F20"/>
<path d="M70.9978 51.1774C70.9319 51.0902 70.8069 50.9276 70.6214 50.9276C70.355 50.9276 70.1806 51.3171 70.1806 51.7096C70.1806 52.131 70.3677 52.4532 70.5959 52.4532C70.7927 52.4532 70.9416 52.2729 70.9978 52.2034V52.5316C70.9244 52.5959 70.7837 52.7178 70.5907 52.7178C70.2622 52.7178 69.9883 52.3106 69.9883 51.7096C69.9883 51.1087 70.2562 50.6719 70.6154 50.6719C70.795 50.6719 70.9169 50.7768 70.9978 50.8493V51.1774Z" fill="#231F20"/>
<path d="M72.1221 50.7031V51.5258H72.7687V50.7031H72.9542V52.6855H72.7687V51.7727H72.1221V52.6855H71.9365V50.7031H72.1221Z" fill="#231F20"/>
<path d="M74.8063 50.7031V50.9648H74.1441V51.5199H74.7779V51.7697H74.1441V52.4239H74.8063V52.6855H73.9585V50.7031H74.8063Z" fill="#231F20"/>
<path d="M76.3701 51.7527C76.4412 51.9242 76.5033 52.0839 76.561 52.2354L76.5842 52.3049L76.5879 52.2989C76.5864 52.2642 76.5842 52.194 76.5842 52.1563C76.5827 52.0949 76.5782 51.9966 76.5782 51.9035V50.7031H76.7563V52.6855H76.567L76.1442 51.6773C76.1075 51.5901 76.0424 51.4245 75.9915 51.2967C75.9795 51.2708 75.9234 51.1281 75.9182 51.1015H75.9144C75.9144 51.1451 75.9167 51.2264 75.9182 51.2671C75.9204 51.3225 75.9219 51.3831 75.9219 51.4474V52.6855H75.7363V50.7031H75.9294L76.3701 51.752V51.7527Z" fill="#231F20"/>
<path fill-rule="evenodd" clip-rule="evenodd" d="M58.4527 29.8946C58.4527 29.9707 58.3824 30.0313 58.2956 30.0313C58.2088 30.0313 58.1392 29.9707 58.1392 29.8946C58.1392 29.8184 58.2088 29.7578 58.2956 29.7578C58.3824 29.7578 58.4527 29.8192 58.4527 29.8946Z" fill="#231F20"/>
<path fill-rule="evenodd" clip-rule="evenodd" d="M57.4116 27.6016L57.6952 27.6126C57.6803 27.8085 57.7087 28.3052 58.2565 28.4279C58.2722 28.4316 58.2393 28.6149 58.2393 28.6149C58.2393 28.6149 57.4685 28.49 57.4116 27.6016Z" fill="#231F20"/>
<path d="M49.9023 26.1618C49.9023 21.2915 53.8991 17.3438 58.8305 17.3438C63.7619 17.3438 67.7579 21.2915 67.7579 26.1618C67.7579 31.032 63.7612 34.9798 58.8305 34.9798C53.8998 34.9798 49.9023 31.032 49.9023 26.1618Z" stroke="#231F20" stroke-width="1.34" stroke-miterlimit="10"/>
<path d="M71.3223 27.3814C72.0051 20.5651 66.9643 14.4928 60.0635 13.8184C53.1627 13.1441 47.0151 18.1231 46.3323 24.9393C45.6496 31.7556 50.6904 37.8279 57.5912 38.5023C64.492 39.1766 70.6396 34.1976 71.3223 27.3814Z" stroke="#231F20" stroke-width="1.34" stroke-miterlimit="10"/>
<path opacity="0.9" d="M46.2734 26.16C46.2734 19.3103 51.8948 13.7578 58.8294 13.7578" stroke="#231F20" stroke-width="1.04" stroke-miterlimit="10"/>
<path d="M60.9205 38.8747C68.0302 37.7348 72.8582 31.1178 71.7041 24.0952C70.55 17.0727 63.851 12.3039 56.7413 13.4438C49.6317 14.5837 44.8037 21.2007 45.9578 28.2233C47.1118 35.2458 53.8109 40.0146 60.9205 38.8747Z" stroke="#231F20" stroke-width="0.8" stroke-miterlimit="10"/>
<path opacity="0.9" d="M45.7886 26.1631C45.7886 19.0481 51.6277 13.2812 58.8302 13.2812" stroke="#231F20" stroke-width="0.8" stroke-miterlimit="10"/>
<path d="M48.4944 24.9204L49.0018 24.9899C49.0242 24.9928 49.0422 24.9921 49.0557 24.9884C49.0691 24.984 49.0804 24.9751 49.0886 24.9618L49.1245 24.967L49.0879 25.2279L49.0519 25.2227C49.0467 25.2072 49.0385 25.1953 49.0265 25.188C49.0153 25.1806 48.9988 25.1754 48.9764 25.1724L47.6728 24.9943C47.6496 24.9913 47.6309 24.9913 47.6189 24.9958C47.6062 24.9995 47.595 25.0083 47.5852 25.0224L47.5493 25.0172L47.6219 24.4954C47.6309 24.4348 47.6451 24.3875 47.6646 24.3535C47.6848 24.3195 47.7147 24.2914 47.7559 24.2692C47.7985 24.2463 47.8516 24.2308 47.916 24.2234C47.9833 24.216 48.0522 24.2175 48.1248 24.2278C48.2288 24.2418 48.3171 24.2692 48.3912 24.3106C48.4548 24.3461 48.4974 24.3867 48.5199 24.434C48.5416 24.4806 48.5476 24.5434 48.5371 24.6203L48.4952 24.9204H48.4944ZM48.2408 24.8856L48.2797 24.607C48.2879 24.5516 48.2819 24.5109 48.2632 24.4858C48.2512 24.4695 48.2295 24.4547 48.1996 24.4422C48.1697 24.4289 48.136 24.42 48.0986 24.4148C48.0619 24.4096 48.0267 24.4096 47.9946 24.4141C47.9624 24.4185 47.9377 24.4274 47.9212 24.4392C47.8965 24.4584 47.8801 24.4961 47.8718 24.5516L47.8329 24.8302L48.24 24.8856H48.2408Z" fill="#231F20"/>
<path d="M48.2026 22.6015L49.037 22.8469C49.1949 22.8934 49.3079 22.9437 49.3775 22.9984C49.5017 23.0967 49.5369 23.2349 49.483 23.4131C49.4441 23.5417 49.376 23.6296 49.2794 23.6755C49.2233 23.7021 49.1545 23.7124 49.0737 23.705C48.9936 23.6976 48.9008 23.6784 48.7968 23.6481L47.9624 23.4027C47.94 23.3961 47.922 23.3938 47.9085 23.3961C47.8951 23.3983 47.8831 23.4057 47.8711 23.4175L47.8359 23.4071L47.9123 23.1551L47.9474 23.1654C47.9497 23.1817 47.9557 23.1943 47.9661 23.2031C47.9766 23.212 47.9931 23.2201 48.0155 23.2268L48.7586 23.4448C48.8447 23.47 48.909 23.4862 48.9509 23.4929C48.9936 23.4995 49.031 23.5003 49.0632 23.4944C49.1485 23.4781 49.2054 23.4241 49.233 23.3325C49.2607 23.2401 49.2435 23.1647 49.1807 23.1048C49.1575 23.0827 49.126 23.0634 49.0864 23.0464C49.0467 23.0294 48.9839 23.008 48.8985 22.9829L48.1555 22.7648C48.133 22.7582 48.1151 22.756 48.1016 22.7582C48.0881 22.7604 48.0761 22.7678 48.0642 22.7796L48.029 22.7693L48.1008 22.5312L48.136 22.5416C48.139 22.5579 48.1457 22.5704 48.1555 22.5793C48.1652 22.5882 48.1817 22.5963 48.2041 22.6029L48.2026 22.6015Z" fill="#231F20"/>
<path d="M49.3295 21.9393L49.795 22.1581C49.8152 22.1677 49.8324 22.1728 49.8466 22.1721C49.8608 22.1721 49.8736 22.1669 49.8863 22.1566L49.9192 22.1721L49.8047 22.4101L49.7718 22.3946C49.7718 22.3783 49.7673 22.3643 49.7583 22.3539C49.7501 22.3436 49.7351 22.334 49.7149 22.3244L48.5266 21.7663C48.5049 21.7567 48.4877 21.7515 48.4742 21.7515C48.4607 21.7515 48.4473 21.7567 48.4338 21.767L48.4009 21.7515L48.6306 21.2748C48.6583 21.2164 48.6867 21.1735 48.7159 21.1454C48.7444 21.1173 48.7803 21.0974 48.8237 21.087C48.8738 21.0745 48.9322 21.0752 49.0003 21.0892C49.0661 21.1033 49.1327 21.1255 49.1993 21.1572C49.4283 21.2644 49.5293 21.3967 49.5017 21.5534L49.9604 21.5874C50.0404 21.5933 50.0936 21.5948 50.119 21.5919C50.1445 21.5889 50.1624 21.5793 50.1729 21.5623L50.2058 21.5778L50.0734 21.8535L50.0404 21.838C50.0442 21.8166 50.036 21.801 50.0172 21.7922C50.0053 21.7863 49.9708 21.7811 49.9155 21.7767L49.4283 21.7367L49.3303 21.9407L49.3295 21.9393ZM49.0976 21.8306L49.2218 21.5741C49.2397 21.5364 49.251 21.5083 49.2547 21.4906C49.2577 21.4729 49.2562 21.4544 49.2495 21.4352C49.2353 21.3938 49.1911 21.3561 49.1178 21.3213C49.0444 21.2866 48.9868 21.277 48.9449 21.2925C48.9247 21.2999 48.909 21.3095 48.8978 21.3228C48.8865 21.3361 48.8723 21.362 48.8536 21.4012L48.7301 21.6584L49.0983 21.8313L49.0976 21.8306Z" fill="#231F20"/>
<path d="M50.334 20.5339L49.7032 19.8457C49.6763 19.8161 49.6538 19.7962 49.6366 19.7844C49.6097 19.7666 49.5842 19.7659 49.5603 19.7836L49.5296 19.7637L49.6927 19.5234L49.7226 19.5434C49.7159 19.5611 49.7174 19.5767 49.7249 19.5907C49.7331 19.6047 49.7608 19.6373 49.8087 19.6897L50.6087 20.5723C50.6431 20.61 50.6663 20.6322 50.6783 20.641C50.7104 20.6625 50.7366 20.6639 50.7568 20.6462L50.7868 20.6662L50.6229 20.9079L50.5922 20.8879C50.6012 20.8628 50.5892 20.8391 50.557 20.8177C50.545 20.8096 50.5151 20.7977 50.4672 20.7807L49.3373 20.3838C49.2699 20.3602 49.2288 20.3476 49.2123 20.3454C49.1966 20.3432 49.1816 20.3483 49.1674 20.3609L49.1367 20.3409L49.3058 20.0918L49.3365 20.1118C49.329 20.1399 49.3395 20.1628 49.3665 20.1805C49.3844 20.1924 49.4113 20.2049 49.4488 20.2182L50.3325 20.5339H50.334Z" fill="#231F20"/>
<path d="M50.9645 19.3486L51.2795 19.6317L51.6492 19.2296C51.6574 19.2207 51.6604 19.2096 51.6567 19.1978C51.6537 19.186 51.6432 19.1697 51.6252 19.1483L51.6387 19.1335L51.9358 19.4003L51.9223 19.4151C51.8991 19.4003 51.8819 19.3914 51.8692 19.3892C51.8565 19.387 51.8467 19.3907 51.8378 19.3996L51.3154 19.9672L51.2885 19.9429C51.293 19.9266 51.293 19.9125 51.2877 19.9C51.2825 19.8874 51.2713 19.8741 51.2541 19.8579L50.2813 18.9842C50.264 18.9687 50.2483 18.959 50.2356 18.9554C50.2229 18.9517 50.2087 18.9524 50.193 18.9583L50.166 18.9339L50.6779 18.3773C50.6861 18.3677 50.6883 18.3574 50.6853 18.3456C50.6816 18.3337 50.6711 18.3167 50.6547 18.296L50.6681 18.2812L50.9652 18.5481L50.9517 18.5629C50.9293 18.5481 50.9113 18.5392 50.8986 18.537C50.8859 18.5348 50.8762 18.5385 50.8672 18.5473L50.5072 18.9384L50.7804 19.183L51.0139 18.9295C51.0228 18.9206 51.0251 18.9095 51.0221 18.8977C51.0183 18.8859 51.0079 18.8689 50.9907 18.8482L51.0041 18.8334L51.2952 19.0943L51.2818 19.1091C51.2593 19.0943 51.2413 19.0862 51.2286 19.0832C51.2159 19.081 51.2054 19.084 51.1972 19.0936L50.9637 19.3471L50.9645 19.3486Z" fill="#231F20"/>
<path d="M52.2652 18.1557L52.6034 18.56C52.6184 18.5777 52.6318 18.5896 52.6446 18.5947C52.6565 18.6006 52.6708 18.6014 52.6872 18.5977L52.7104 18.6258L52.5039 18.7943L52.4807 18.7662C52.4874 18.7507 52.4897 18.7366 52.4867 18.7233C52.4837 18.71 52.4747 18.6945 52.4597 18.6768L52.1215 18.2725L51.4585 17.9081C51.4016 17.877 51.3612 17.8578 51.3373 17.8504C51.3133 17.843 51.2924 17.8438 51.2752 17.8519L51.252 17.8238L51.5124 17.6117L51.5356 17.6397C51.5199 17.6634 51.5236 17.69 51.5483 17.7196C51.5573 17.7299 51.5827 17.7477 51.6254 17.7721L52.0092 17.9916L51.8663 17.5754C51.8506 17.5304 51.8379 17.5023 51.8282 17.4897C51.8169 17.4764 51.8042 17.4675 51.7907 17.4624C51.7773 17.4579 51.7638 17.4579 51.7518 17.4624L51.7286 17.4343L51.9838 17.2266L52.007 17.2539C51.9958 17.2694 51.9913 17.2894 51.9943 17.3138C51.9973 17.3382 52.0085 17.381 52.0287 17.4424L52.2659 18.1542L52.2652 18.1557Z" fill="#231F20"/>
<path d="M52.9296 16.572C53.0568 16.4959 53.196 16.4966 53.3464 16.5757C53.5051 16.6577 53.6472 16.8011 53.7737 17.0059C53.8508 17.1315 53.9039 17.2601 53.9338 17.3917C53.9915 17.6489 53.9353 17.8278 53.767 17.9291C53.6405 18.0052 53.5021 18.0037 53.3517 17.9246C53.2708 17.8825 53.1923 17.8219 53.1144 17.7421C53.0463 17.6718 52.9842 17.592 52.9289 17.5018C52.848 17.3703 52.7927 17.2394 52.7635 17.1079C52.7074 16.8566 52.762 16.6784 52.9296 16.572ZM53.0673 16.7945C52.9977 16.8366 52.9625 16.9083 52.9618 17.0103C52.961 17.1308 53.0037 17.2624 53.092 17.4043C53.1795 17.5462 53.2776 17.6445 53.3868 17.6992C53.4789 17.7458 53.5604 17.7472 53.6308 17.7051C53.7011 17.663 53.7363 17.5905 53.7363 17.4893C53.7363 17.4287 53.7243 17.3621 53.6996 17.289C53.6772 17.2247 53.6472 17.1618 53.6098 17.1012C53.5185 16.9527 53.419 16.8521 53.3112 16.8004C53.22 16.7553 53.1384 16.7538 53.0673 16.7945Z" fill="#231F20"/>
<path d="M54.6735 16.7302L54.8696 17.201C54.8785 17.2217 54.8875 17.2365 54.898 17.2461C54.9085 17.255 54.922 17.2601 54.9377 17.2609L54.9519 17.2941L54.7049 17.3947L54.6915 17.3614C54.7027 17.3488 54.7087 17.3363 54.7094 17.3222C54.7102 17.3089 54.7064 17.2919 54.6975 17.2712L54.1968 16.0694C54.1879 16.0479 54.1781 16.0324 54.1684 16.0235C54.1587 16.0147 54.1452 16.0095 54.128 16.008L54.1138 15.9748L54.6084 15.7737C54.6683 15.7493 54.7192 15.736 54.7596 15.7345C54.8 15.7331 54.8396 15.7419 54.8793 15.7626C54.9249 15.7863 54.9683 15.8262 55.0088 15.8816C55.0484 15.9356 55.0813 15.9962 55.1098 16.0642C55.2063 16.2955 55.1906 16.4604 55.0641 16.5579L55.3807 16.8876C55.436 16.9453 55.4742 16.9815 55.4952 16.9963C55.5161 17.011 55.5356 17.0155 55.5543 17.0103L55.5685 17.0436L55.2826 17.1596L55.2684 17.1263C55.2856 17.113 55.2901 17.096 55.2826 17.0768C55.2774 17.0643 55.2557 17.0377 55.2175 16.9977L54.883 16.6452L54.672 16.7309L54.6735 16.7302ZM54.5762 16.4966L54.8426 16.3887C54.8823 16.3724 54.9092 16.3591 54.9234 16.3488C54.9377 16.3384 54.9489 16.3236 54.9571 16.3044C54.9743 16.2638 54.9676 16.2068 54.9369 16.1329C54.9062 16.059 54.8703 16.0132 54.8292 15.9969C54.8097 15.9888 54.791 15.9858 54.7738 15.9881C54.7566 15.991 54.7281 15.9999 54.6877 16.0161L54.4213 16.1241L54.5762 16.4966Z" fill="#231F20"/>
<path d="M56.5397 15.323L56.5277 15.6977L56.5068 15.6844C56.5053 15.677 56.5038 15.6711 56.503 15.6667C56.497 15.6415 56.4783 15.6179 56.4476 15.5957C56.3526 15.5233 56.2568 15.4989 56.1595 15.5225C56.1169 15.5329 56.081 15.5514 56.0533 15.5787C56.0331 15.5987 56.0189 15.6253 56.0114 15.6585C56.0039 15.6911 56.0046 15.7243 56.0129 15.7591C56.0271 15.8152 56.0548 15.8485 56.0982 15.8596C56.1199 15.8648 56.1648 15.8655 56.2314 15.8618L56.3309 15.8559C56.39 15.8529 56.4402 15.8566 56.4798 15.867C56.5195 15.8773 56.5576 15.8965 56.5928 15.9239C56.6295 15.9527 56.6624 15.9949 56.6931 16.0488C56.7238 16.1028 56.7477 16.1634 56.7642 16.2292C56.7904 16.3341 56.7949 16.4317 56.7776 16.5219C56.7619 16.6047 56.723 16.6719 56.6602 16.7251C56.6138 16.765 56.5591 16.7924 56.4985 16.8072C56.3885 16.8338 56.2688 16.8131 56.1378 16.7444C56.1101 16.731 56.0944 16.7251 56.0907 16.7259C56.0855 16.7274 56.0787 16.737 56.0712 16.7562L56.0495 16.7444L56.048 16.357L56.0697 16.3681C56.0712 16.3748 56.0727 16.3792 56.0735 16.3822C56.0817 16.4147 56.0982 16.4428 56.1221 16.4664C56.1588 16.5019 56.2089 16.5285 56.271 16.5455C56.3339 16.5625 56.39 16.5655 56.4394 16.5529C56.4933 16.5396 56.5352 16.5123 56.5651 16.4701C56.5816 16.4472 56.5928 16.4184 56.5973 16.3851C56.6025 16.3519 56.601 16.3193 56.5928 16.2861C56.5808 16.2366 56.5569 16.2055 56.5225 16.1915C56.4978 16.1819 56.4529 16.1789 56.387 16.1819L56.289 16.187C56.2231 16.1907 56.176 16.1907 56.1476 16.1863C56.1191 16.1819 56.0892 16.1715 56.057 16.1545C56.0121 16.1309 55.971 16.0887 55.9328 16.0281C55.8991 15.9742 55.8729 15.9084 55.8535 15.8322C55.822 15.7066 55.8205 15.5965 55.8482 15.5018C55.8842 15.3777 55.9657 15.3008 56.0922 15.2698C56.1453 15.2572 56.197 15.2542 56.2471 15.2624C56.298 15.2705 56.3638 15.2927 56.4454 15.3274C56.4731 15.3385 56.4895 15.3437 56.4948 15.3422C56.5038 15.34 56.5112 15.3296 56.5187 15.3097L56.5397 15.3222V15.323Z" fill="#231F20"/>
<path d="M61.8143 16.2571L61.6467 16.7849C61.6392 16.807 61.637 16.8248 61.6392 16.8388C61.6415 16.8521 61.6482 16.8647 61.6602 16.875L61.649 16.9098L61.3945 16.8307L61.4058 16.7967C61.4222 16.7937 61.4349 16.7878 61.4447 16.7782C61.4536 16.7686 61.4619 16.7524 61.4694 16.7302L61.8637 15.4914C61.8705 15.4692 61.8735 15.4515 61.8712 15.4381C61.869 15.4248 61.8622 15.4123 61.8503 15.4012L61.8615 15.3672L62.5829 15.5911C62.5948 15.5948 62.6053 15.5926 62.615 15.5852C62.6248 15.5771 62.6352 15.5608 62.648 15.5365L62.6674 15.5424L62.5469 15.9208L62.5282 15.9149C62.5327 15.8875 62.5327 15.8676 62.5297 15.8558C62.5267 15.8439 62.5193 15.8365 62.5073 15.8329L62.0022 15.6762L61.8907 16.0258L62.2207 16.1285C62.2326 16.1322 62.2439 16.13 62.2536 16.1219C62.2633 16.1137 62.2738 16.0975 62.2858 16.0731L62.3045 16.079L62.187 16.4493L62.1675 16.4434C62.1713 16.4168 62.172 16.3976 62.169 16.385C62.166 16.3732 62.1578 16.365 62.1458 16.3613L61.8158 16.2586L61.8143 16.2571Z" fill="#231F20"/>
<path d="M62.7977 17.1989L63.3365 16.0133C63.3463 15.9926 63.35 15.9756 63.35 15.9623C63.35 15.949 63.344 15.9357 63.3335 15.9231L63.3485 15.8906L63.5917 15.9985L63.5767 16.0311C63.5603 16.0311 63.5468 16.0355 63.5363 16.0444C63.5259 16.0532 63.5161 16.068 63.5064 16.0887L62.9669 17.2743C62.9571 17.2957 62.9526 17.3127 62.9526 17.3268C62.9526 17.3408 62.9586 17.3534 62.9691 17.3652L62.9541 17.3977L62.7109 17.2898L62.7259 17.2566C62.7431 17.2566 62.7566 17.2514 62.7663 17.2425C62.7768 17.2337 62.7865 17.2189 62.797 17.1982L62.7977 17.1989Z" fill="#231F20"/>
<path d="M64.2463 16.879L63.7532 17.6751C63.7412 17.695 63.7345 17.7113 63.733 17.7246C63.7315 17.7379 63.7352 17.7519 63.7442 17.766L63.7255 17.797L63.5107 17.6677L63.5302 17.6374C63.5467 17.6388 63.5609 17.6359 63.5721 17.6285C63.5833 17.6211 63.5953 17.6078 63.608 17.5878L64.2942 16.4791C64.3062 16.4599 64.3129 16.4436 64.3137 16.4303C64.3152 16.417 64.3114 16.4037 64.3025 16.3897L64.3219 16.3594L64.5696 16.5087L64.5502 16.5397C64.5307 16.5375 64.5142 16.5479 64.5 16.57C64.4903 16.5856 64.485 16.6055 64.4836 16.6299L64.4214 17.6241L64.9019 16.8472C64.9138 16.828 64.9206 16.8117 64.9221 16.7984C64.9236 16.7851 64.9198 16.7718 64.9108 16.7578L64.9295 16.7267L65.1436 16.8561L65.1241 16.8871C65.1076 16.8856 65.0934 16.8886 65.0822 16.896C65.071 16.9034 65.059 16.9167 65.047 16.9352L64.3608 18.0446C64.3489 18.0646 64.3414 18.0809 64.3406 18.0942C64.3391 18.1075 64.3429 18.1208 64.3518 18.1355L64.3331 18.1659L64.1034 18.0269L64.1229 17.9958C64.1416 17.9988 64.1573 17.9899 64.1708 17.9685C64.179 17.9559 64.1842 17.9278 64.1865 17.8857L64.2471 16.8812L64.2463 16.879Z" fill="#231F20"/>
<path d="M65.4395 18.1535L65.1649 18.4743L65.5847 18.8247C65.5944 18.8328 65.6049 18.835 65.6169 18.8313C65.6289 18.8276 65.6453 18.8166 65.6663 18.7988L65.682 18.8114L65.4223 19.1144L65.4066 19.1019C65.4216 19.079 65.4291 19.0605 65.4313 19.0486C65.4328 19.0361 65.4291 19.0265 65.4193 19.0183L64.8267 18.5231L64.8499 18.4958C64.8663 18.4995 64.8805 18.4987 64.8925 18.4935C64.9052 18.4884 64.9187 18.4765 64.9337 18.4588L65.7823 17.4669C65.7972 17.4491 65.807 17.4336 65.8099 17.421C65.8129 17.4085 65.8114 17.3937 65.8055 17.3789L65.8287 17.3516L66.4101 17.8372C66.4198 17.8453 66.4303 17.8475 66.4423 17.8431C66.4542 17.8394 66.4707 17.8283 66.4917 17.8106L66.5066 17.8231L66.247 18.1262L66.232 18.1136C66.2462 18.0907 66.2545 18.073 66.2559 18.0604C66.2582 18.0478 66.2544 18.0382 66.2447 18.0301L65.8369 17.6894L65.5989 17.9673L65.8638 18.1883C65.8736 18.1964 65.884 18.1986 65.896 18.1949C65.908 18.1912 65.9244 18.1801 65.9454 18.1624L65.9604 18.175L65.7067 18.4714L65.6917 18.4588C65.7052 18.4359 65.7134 18.4182 65.7157 18.4063C65.7179 18.3938 65.7134 18.3834 65.7044 18.3753L65.4395 18.1543V18.1535Z" fill="#231F20"/>
<path d="M67.5269 20.1784C67.5314 20.2937 67.4618 20.4031 67.3189 20.5088C67.2051 20.5923 67.0989 20.6359 67.0016 20.6389C66.9522 20.6404 66.9096 20.6315 66.8729 20.6123C66.8362 20.5931 66.8018 20.562 66.7689 20.5184L66.4209 20.0557L66.4501 20.0343C66.4651 20.0416 66.4793 20.0439 66.492 20.0416C66.5055 20.0394 66.5212 20.0313 66.5406 20.0173L67.5958 19.2426C67.6145 19.2286 67.6272 19.216 67.6339 19.2042C67.6399 19.1924 67.6414 19.1783 67.6392 19.1621L67.6683 19.1406L68.0133 19.5996C68.0462 19.6432 68.0672 19.6832 68.0747 19.7194C68.0829 19.7549 68.0792 19.794 68.0657 19.8354C68.038 19.9182 67.9699 19.9995 67.8607 20.0793C67.7387 20.1688 67.6279 20.2028 67.5284 20.1806L67.5269 20.1784ZM66.7606 20.083L66.95 20.3343C66.9851 20.3809 67.0218 20.406 67.0615 20.409C67.1071 20.4127 67.1602 20.3913 67.2223 20.3454C67.2837 20.3003 67.3196 20.256 67.3301 20.2117C67.3383 20.174 67.3249 20.1318 67.2897 20.0845L67.1011 19.8332L66.7614 20.0823L66.7606 20.083ZM67.3062 19.6832L67.5015 19.9426C67.5307 19.9818 67.5621 20.0017 67.5958 20.0017C67.6332 20.0017 67.6773 19.9825 67.729 19.9448C67.7813 19.9064 67.812 19.8709 67.8225 19.8376C67.8322 19.8044 67.8225 19.7689 67.7926 19.729L67.5973 19.4695L67.3069 19.6832H67.3062Z" fill="#231F20"/>
<path d="M67.9811 21.1515L67.6055 21.3488L67.8636 21.8278C67.8696 21.8389 67.8786 21.8448 67.8913 21.8456C67.904 21.8463 67.9227 21.8426 67.9489 21.833L67.9587 21.8507L67.604 22.037L67.595 22.0193C67.6174 22.003 67.6309 21.989 67.6376 21.9786C67.6436 21.9675 67.6436 21.9572 67.6376 21.9461L67.2725 21.269L67.3046 21.252C67.3181 21.2616 67.3323 21.2661 67.3458 21.2653C67.3593 21.2653 67.3765 21.2594 67.3974 21.2483L68.5573 20.6378C68.5783 20.6267 68.5925 20.6164 68.6 20.6053C68.6082 20.5942 68.6119 20.5809 68.6112 20.5639L68.6434 20.5469L69.0011 21.2106C69.0071 21.2217 69.016 21.2276 69.0295 21.2284C69.0422 21.2291 69.0609 21.2254 69.0871 21.2165L69.0969 21.2343L68.7422 21.4205L68.7332 21.4035C68.7549 21.3873 68.7691 21.374 68.7751 21.3629C68.7811 21.3518 68.7818 21.3407 68.7751 21.3304L68.5244 20.864L68.1989 21.0355L68.362 21.3378C68.368 21.3489 68.377 21.3548 68.3897 21.3555C68.4024 21.3562 68.4219 21.3525 68.4473 21.3437L68.4563 21.3614L68.1098 21.544L68.1001 21.5262C68.1218 21.51 68.1353 21.4967 68.142 21.4856C68.1487 21.4745 68.1487 21.4634 68.1428 21.4531L67.9796 21.1508L67.9811 21.1515Z" fill="#231F20"/>
<path d="M68.6241 22.5231L68.223 22.6643L68.4071 23.1758C68.4116 23.1876 68.4199 23.195 68.4318 23.1972C68.4438 23.2002 68.464 23.1987 68.4909 23.1935L68.4977 23.212L68.119 23.345L68.1123 23.3266C68.1362 23.3133 68.1527 23.3022 68.1602 23.2926C68.1684 23.2829 68.1699 23.2719 68.1662 23.26L67.9058 22.5379L67.9402 22.5261C67.9522 22.5379 67.9649 22.5438 67.9783 22.5453C67.9918 22.5468 68.0098 22.5438 68.0315 22.5357L69.2699 22.1003C69.2916 22.0922 69.3081 22.084 69.3171 22.0744C69.3268 22.0648 69.332 22.0523 69.3343 22.0353L69.3687 22.0234L69.6246 22.7323C69.6284 22.7441 69.6374 22.7515 69.6493 22.7537C69.6621 22.7559 69.6815 22.7552 69.7077 22.75L69.7144 22.7685L69.3358 22.9015L69.3291 22.8831C69.353 22.8705 69.3687 22.8587 69.3769 22.8491C69.3852 22.8395 69.3867 22.8284 69.3829 22.8173L69.2033 22.3198L68.8561 22.4418L68.9729 22.7648C68.9774 22.7766 68.9856 22.7833 68.9976 22.7862C69.0103 22.7892 69.0297 22.7877 69.0567 22.7825L69.0634 22.801L68.6937 22.9311L68.687 22.9126C68.7102 22.9001 68.7259 22.889 68.7341 22.8786C68.7424 22.869 68.7439 22.8579 68.7401 22.8468L68.6234 22.5238L68.6241 22.5231Z" fill="#231F20"/>
<path d="M69.0105 23.9862L68.5046 24.0831C68.4822 24.0875 68.4657 24.0934 68.4545 24.1015C68.4432 24.1097 68.4358 24.1215 68.432 24.137L68.3961 24.1437L68.3452 23.885L68.3811 23.8783C68.3916 23.8916 68.4036 23.8998 68.4163 23.9035C68.429 23.9071 68.447 23.9064 68.4687 23.902L69.761 23.6551C69.7842 23.6507 69.8007 23.6448 69.8119 23.6366C69.8224 23.6285 69.8306 23.6167 69.8351 23.6004L69.871 23.5938L69.9728 24.1119C69.9848 24.1747 69.9885 24.2265 69.9818 24.2656C69.9758 24.3055 69.9586 24.3418 69.9301 24.3758C69.898 24.4149 69.8501 24.4489 69.7865 24.4778C69.7251 24.5051 69.6585 24.5258 69.5852 24.5399C69.3367 24.5872 69.1758 24.5399 69.104 24.3979L68.7141 24.6396C68.646 24.6818 68.6026 24.7121 68.5839 24.7291C68.5652 24.7461 68.557 24.7646 68.5585 24.7838L68.5226 24.7904L68.4635 24.4911L68.4994 24.4844C68.5091 24.5036 68.5248 24.5118 68.5458 24.5073C68.5592 24.5051 68.5899 24.4896 68.6371 24.46L69.0531 24.2065L69.0097 23.9855L69.0105 23.9862ZM69.2619 23.9382L69.3165 24.2176C69.3248 24.259 69.3322 24.2878 69.3405 24.3041C69.3487 24.3203 69.3607 24.3336 69.3779 24.3455C69.4146 24.3706 69.4729 24.375 69.5522 24.3602C69.6316 24.3447 69.684 24.3189 69.7086 24.2826C69.7206 24.2656 69.7274 24.2479 69.7281 24.2309C69.7281 24.2139 69.7251 24.1843 69.7169 24.1422L69.6622 23.8628L69.2619 23.9397V23.9382Z" fill="#231F20"/>
<path d="M49.7195 32.3951L49.513 32.6686L49.4868 32.6657C49.4973 32.645 49.4995 32.6317 49.4958 32.6257C49.4913 32.6198 49.4643 32.6117 49.4149 32.6021C49.3124 32.5814 49.2361 32.5577 49.1867 32.5304C49.1373 32.503 49.0939 32.4609 49.0565 32.4033C48.9824 32.2894 48.9697 32.1645 49.0198 32.0293C49.0483 31.9502 49.0969 31.8711 49.165 31.7927C49.2428 31.7025 49.3394 31.6205 49.4554 31.5473C49.6132 31.4461 49.7674 31.3847 49.9178 31.3611C50.1431 31.3263 50.3069 31.3869 50.4087 31.5422C50.4461 31.5991 50.4671 31.6552 50.4723 31.7099C50.4776 31.7646 50.4678 31.843 50.4446 31.945C50.4334 31.993 50.4304 32.0211 50.4342 32.027C50.4386 32.0337 50.4521 32.0359 50.4753 32.0352L50.4671 32.0596L50.1288 32.1327L50.1363 32.1076C50.1468 32.1017 50.1558 32.0965 50.1625 32.0921C50.1812 32.0802 50.1954 32.0647 50.2059 32.0455C50.2164 32.0263 50.2254 31.9982 50.2336 31.9612C50.2561 31.8585 50.2448 31.772 50.1992 31.7018C50.1453 31.6198 50.0652 31.5776 49.9582 31.5754C49.8333 31.5732 49.7001 31.6168 49.5594 31.707C49.4187 31.7964 49.3237 31.8984 49.2743 32.0115C49.2316 32.1083 49.2376 32.1978 49.2915 32.2798C49.3371 32.35 49.412 32.3959 49.5167 32.4173C49.5541 32.4247 49.5841 32.4284 49.6065 32.4269C49.6282 32.4254 49.6484 32.4188 49.6671 32.407C49.6739 32.4025 49.6821 32.3973 49.6911 32.39L49.7188 32.3929L49.7195 32.3951Z" fill="#231F20"/>
<path d="M51.2797 32.6791C51.38 32.7922 51.404 32.929 51.3523 33.0901C51.2984 33.2601 51.181 33.4235 50.9984 33.5816C50.8869 33.6785 50.7671 33.7524 50.6407 33.8026C50.393 33.901 50.2029 33.8758 50.0712 33.7265C49.9724 33.6149 49.9485 33.4782 50.0001 33.317C50.0278 33.2305 50.0742 33.1433 50.1401 33.0539C50.1984 32.9748 50.2673 32.9009 50.3473 32.8321C50.4641 32.7309 50.5861 32.6547 50.7125 32.6045C50.9542 32.5077 51.1435 32.5328 51.2805 32.6806L51.2797 32.6791ZM51.0814 32.8514C51.0268 32.79 50.9482 32.7671 50.8457 32.7834C50.7245 32.8026 50.6003 32.8661 50.4738 32.9763C50.3473 33.0857 50.2665 33.1988 50.2314 33.3148C50.2014 33.4131 50.2141 33.4937 50.2695 33.5558C50.3249 33.6179 50.4035 33.6408 50.506 33.6245C50.5666 33.6149 50.6317 33.592 50.6998 33.5558C50.7604 33.5232 50.818 33.4833 50.8727 33.4368C51.0051 33.3222 51.0874 33.2076 51.1203 33.0938C51.1488 32.9962 51.1353 32.9157 51.0814 32.8528V32.8514Z" fill="#231F20"/>
<path d="M51.9523 34.7458L51.8348 35.0673L51.8094 35.0725C51.8131 35.0503 51.8124 35.0363 51.8064 35.0311C51.8004 35.0259 51.7727 35.0259 51.7218 35.0311C51.6171 35.0407 51.5377 35.04 51.4824 35.0274C51.427 35.0156 51.3731 34.9875 51.3207 34.9431C51.216 34.8552 51.1681 34.7399 51.1756 34.5957C51.1801 34.5115 51.2032 34.4228 51.2452 34.3282C51.293 34.2202 51.3619 34.1138 51.4509 34.0096C51.5729 33.8677 51.7016 33.7642 51.8386 33.6991C52.0444 33.6008 52.2187 33.6119 52.3616 33.7317C52.414 33.7753 52.4507 33.8233 52.4716 33.8743C52.4926 33.9253 52.5068 34.0029 52.5136 34.1071C52.5173 34.1567 52.5218 34.184 52.5278 34.1885C52.5338 34.1929 52.548 34.1921 52.5697 34.1848V34.2106L52.2666 34.3777V34.3511C52.2756 34.3422 52.2816 34.3348 52.2876 34.3289C52.3018 34.3126 52.3108 34.2934 52.3152 34.272C52.3197 34.2505 52.3205 34.221 52.3167 34.1833C52.3085 34.0783 52.2718 33.9985 52.2075 33.9453C52.1319 33.8817 52.0429 33.8647 51.9403 33.8935C51.8199 33.9275 51.7054 34.0074 51.5976 34.1338C51.4891 34.2602 51.4277 34.3843 51.4143 34.507C51.4023 34.6112 51.4337 34.6955 51.5093 34.7591C51.5737 34.813 51.659 34.8352 51.7652 34.8263C51.8034 34.8234 51.8333 34.8175 51.8535 34.8101C51.8737 34.8027 51.8917 34.7901 51.9059 34.7731C51.9112 34.7665 51.9171 34.7591 51.9239 34.7502L51.9508 34.745L51.9523 34.7458Z" fill="#231F20"/>
<path d="M52.9905 35.2348L52.7795 35.3243L52.5587 35.6732C52.546 35.6931 52.5393 35.7094 52.5378 35.7234C52.5363 35.7375 52.54 35.7508 52.549 35.7641L52.5303 35.7944L52.2998 35.6517L52.3193 35.6214C52.3365 35.6229 52.3507 35.6207 52.3619 35.6133C52.3731 35.6066 52.3851 35.5926 52.3978 35.5734L53.096 34.472C53.108 34.4528 53.1147 34.4366 53.1162 34.4233C53.1177 34.41 53.114 34.3959 53.105 34.3819L53.1244 34.3516L53.3542 34.4942L53.3347 34.5245C53.3183 34.5223 53.304 34.5245 53.2921 34.5319C53.2801 34.5393 53.2681 34.5526 53.2562 34.5711L52.9673 35.0264L53.548 34.7773C53.5749 34.7655 53.5921 34.7537 53.5996 34.7418C53.6116 34.7234 53.6086 34.7041 53.5921 34.6842L53.6116 34.6539L53.9124 34.8401L53.893 34.8704C53.8773 34.8667 53.8653 34.8667 53.8563 34.869C53.8473 34.8712 53.8181 34.883 53.7687 34.9044L53.6887 34.9399L53.2128 35.1402L53.1147 35.9193C53.105 35.9917 53.1013 36.039 53.1027 36.0627C53.1042 36.0863 53.1117 36.1056 53.1267 36.1218L53.1072 36.1521L52.8191 35.974L52.8386 35.9437C52.8618 35.9481 52.8798 35.9422 52.8902 35.9252C52.8955 35.9163 52.9022 35.8875 52.9089 35.8387L52.9898 35.2348H52.9905Z" fill="#231F20"/>
<path d="M54.713 35.5L54.2318 36.5621C54.2221 36.5836 54.2176 36.6006 54.2184 36.6139C54.2184 36.6272 54.2243 36.6405 54.2356 36.6531L54.2206 36.6863L53.9722 36.5769L53.9871 36.5444C54.0043 36.5437 54.0178 36.5392 54.0283 36.5304C54.0388 36.5215 54.0485 36.5067 54.0582 36.486L54.5386 35.4238L54.2917 35.3152C54.2805 35.31 54.2692 35.3108 54.2588 35.3174C54.2483 35.3241 54.2356 35.3388 54.2199 35.3625L54.2012 35.3544L54.365 34.9922L54.3837 35.0003C54.3763 35.0269 54.374 35.0461 54.3755 35.0587C54.3778 35.0705 54.3837 35.0794 54.3957 35.0846L55.0617 35.3788C55.0737 35.3839 55.0849 35.3832 55.0954 35.3765C55.1059 35.3699 55.1186 35.3551 55.1336 35.3315L55.1523 35.3396L54.9884 35.7018L54.9697 35.6936C54.9772 35.667 54.9802 35.6478 54.9779 35.6352C54.9764 35.6234 54.9689 35.6145 54.957 35.6094L54.7108 35.5007L54.713 35.5Z" fill="#231F20"/>
<path d="M55.775 36.8258L55.3963 36.7134L55.2773 36.9034C55.2609 36.93 55.2504 36.9515 55.2451 36.9677C55.2354 36.9995 55.2429 37.0254 55.2661 37.0453L55.2556 37.0801L54.9795 36.9988L54.99 36.964C55.0079 36.9633 55.0236 36.9566 55.0364 36.9448C55.0491 36.933 55.067 36.9078 55.091 36.8694L55.7405 35.8309C55.7615 35.7976 55.775 35.771 55.7817 35.7489C55.7914 35.7156 55.7869 35.689 55.7675 35.6676L55.7779 35.6328L56.0735 35.7208L56.0631 35.7555C56.0354 35.7607 56.0167 35.7784 56.0077 35.8087C56.0017 35.8294 55.998 35.8546 55.9972 35.8834L55.9703 37.1104C55.9688 37.1628 55.9703 37.1991 55.9755 37.219C55.98 37.2397 55.9905 37.2552 56.0054 37.2663L55.995 37.3011L55.6881 37.2102L55.6986 37.1754C55.7278 37.1754 55.748 37.1569 55.7592 37.1207C55.7637 37.1059 55.7667 37.0823 55.7675 37.0505L55.7735 36.8265L55.775 36.8258ZM55.7839 36.6092L55.8079 36.046L55.5115 36.5287L55.7839 36.6092Z" fill="#231F20"/>
<path d="M56.7201 37.3162L56.949 36.036C56.9528 36.0138 56.9528 35.9961 56.949 35.9835C56.9453 35.971 56.9363 35.9592 56.9228 35.9495L56.9296 35.9141L57.1967 35.9606L57.1907 35.9961C57.1743 35.9998 57.1616 36.0079 57.1541 36.019C57.1458 36.0301 57.1399 36.0471 57.1361 36.0685L56.9064 37.3487C56.9026 37.3717 56.9019 37.3894 56.9064 37.4027C56.9101 37.416 56.9191 37.4271 56.9326 37.4367L56.9258 37.4722L56.6587 37.4256L56.6647 37.3901C56.6811 37.3857 56.6931 37.3776 56.7013 37.3665C56.7088 37.3554 56.7148 37.3391 56.7193 37.3162H56.7201Z" fill="#231F20"/>
<path d="M57.9115 37.3404L58.4451 37.3759C58.4578 37.3766 58.4683 37.3722 58.4758 37.3618C58.4832 37.3522 58.49 37.3337 58.496 37.3071L58.5162 37.3086L58.4892 37.7048L58.469 37.7033C58.4668 37.676 58.4623 37.6575 58.4563 37.6464C58.4496 37.6353 58.4406 37.6294 58.4271 37.6287L57.6631 37.5784L57.6653 37.5422C57.681 37.5355 57.6923 37.5267 57.699 37.5148C57.7057 37.503 57.7102 37.486 57.7117 37.4631L57.7993 36.1674C57.8008 36.1444 57.7993 36.1267 57.794 36.1141C57.7888 36.1016 57.7791 36.0912 57.7641 36.0831L57.7664 36.0469L58.0372 36.0646L58.035 36.1008C58.0193 36.1067 58.0081 36.1156 58.0013 36.1274C57.9946 36.1393 57.9901 36.157 57.9886 36.1799L57.91 37.3411L57.9115 37.3404Z" fill="#231F20"/>
<path d="M59.9311 36.1701L59.8518 36.5375L59.8331 36.5205C59.8331 36.5131 59.8331 36.5072 59.8323 36.5028C59.8308 36.4776 59.8166 36.451 59.7904 36.4229C59.7088 36.335 59.6168 36.2943 59.515 36.301C59.4701 36.3039 59.4312 36.3165 59.3975 36.3379C59.3736 36.3549 59.3549 36.3786 59.3414 36.4089C59.328 36.4399 59.3227 36.4725 59.325 36.5079C59.3287 36.5656 59.3512 36.6033 59.3916 36.6218C59.4125 36.6306 59.4574 36.6395 59.5248 36.6469L59.6258 36.658C59.6856 36.6654 59.735 36.6772 59.7725 36.6942C59.8106 36.7112 59.845 36.7363 59.8757 36.7696C59.9072 36.8043 59.9333 36.8509 59.9535 36.91C59.9745 36.9684 59.9872 37.032 59.9917 37.1C59.9984 37.2079 59.9857 37.3047 59.9521 37.3912C59.9214 37.4696 59.8697 37.5302 59.7971 37.5716C59.7425 37.6026 59.6842 37.6204 59.6198 37.6248C59.5046 37.6322 59.3878 37.5908 59.2696 37.5013C59.2441 37.4836 59.2299 37.4747 59.2254 37.4747C59.2194 37.4747 59.2112 37.4836 59.2007 37.5013L59.1813 37.4858L59.2501 37.1037L59.2696 37.1185C59.2696 37.1251 59.2703 37.1303 59.2703 37.1333C59.2726 37.1673 59.2838 37.1976 59.304 37.2249C59.3347 37.2663 59.3796 37.301 59.4395 37.3284C59.4993 37.3557 59.5554 37.3683 59.6071 37.3646C59.6632 37.3609 59.7103 37.341 59.7478 37.3047C59.7687 37.2848 59.7844 37.2582 59.7957 37.2264C59.8069 37.1946 59.8114 37.1621 59.8091 37.1281C59.8054 37.0771 59.7874 37.0423 59.7552 37.0224C59.7328 37.0091 59.6879 36.998 59.6213 36.9891L59.5225 36.9773C59.4559 36.9692 59.4088 36.961 59.3811 36.9522C59.3534 36.9433 59.325 36.927 59.2965 36.9056C59.2554 36.8745 59.2217 36.8258 59.1955 36.76C59.1716 36.7009 59.1566 36.6314 59.1514 36.553C59.1431 36.4237 59.1611 36.315 59.206 36.2271C59.2643 36.111 59.3601 36.0489 59.4918 36.0401C59.548 36.0364 59.6003 36.043 59.649 36.06C59.6984 36.077 59.7605 36.1095 59.8361 36.1583C59.8615 36.1738 59.8772 36.182 59.8825 36.1812C59.8914 36.1812 59.9012 36.1716 59.9116 36.1531L59.9303 36.1687L59.9311 36.1701Z" fill="#231F20"/>
<path d="M62.2068 36.0389L62.3265 36.4484L62.307 36.4543C62.2943 36.4189 62.2823 36.4026 62.2726 36.4056C62.2636 36.4078 62.2532 36.4226 62.2412 36.4484C62.2292 36.4743 62.2202 36.5031 62.215 36.5334C62.2045 36.5874 62.2023 36.6428 62.209 36.6997C62.2479 36.7382 62.2793 36.764 62.3033 36.7781C62.3272 36.7921 62.3489 36.7958 62.3691 36.7907C62.3871 36.7855 62.3931 36.7655 62.3871 36.7293L62.4066 36.7241L62.5061 37.0641C62.4934 37.0627 62.4559 37.0678 62.3938 37.0782C62.3699 37.0819 62.3355 37.0708 62.2906 37.0457C62.2457 37.0198 62.2045 36.9873 62.1656 36.9481C62.1244 37.1144 62.0466 37.2134 61.9329 37.246C61.8438 37.2711 61.7593 37.2548 61.6784 37.1972C61.5872 37.1321 61.5213 37.0301 61.4809 36.8919C61.427 36.7071 61.4465 36.543 61.5393 36.4004C61.4592 36.3309 61.4046 36.2459 61.3754 36.1454C61.341 36.0279 61.3454 35.9259 61.3888 35.8386C61.4248 35.7684 61.4757 35.7241 61.543 35.7048C61.6178 35.6834 61.6934 35.6982 61.769 35.7485C61.8431 35.798 61.897 35.88 61.9306 35.9953C61.9493 36.0596 61.9568 36.1158 61.9538 36.1653C61.9508 36.2149 61.9359 36.271 61.9097 36.3346C61.9665 36.3708 62.0189 36.43 62.0683 36.512C62.0728 36.3812 62.0848 36.2814 62.105 36.2119C62.1252 36.1424 62.1596 36.0855 62.2068 36.0419V36.0389ZM61.6111 35.9207C61.5804 35.9295 61.5565 35.9502 61.5415 35.9842C61.522 36.0264 61.5213 36.0796 61.5393 36.1432C61.555 36.1964 61.5797 36.237 61.6141 36.2659C61.6485 36.2939 61.6837 36.3028 61.7196 36.2925C61.751 36.2836 61.7742 36.2622 61.7899 36.2289C61.8094 36.186 61.8102 36.1336 61.7929 36.0729C61.7765 36.0175 61.7518 35.9754 61.7189 35.9473C61.6852 35.9192 61.65 35.9103 61.6118 35.9207H61.6111ZM61.7293 36.4883C61.6837 36.5016 61.6508 36.5356 61.6313 36.5926C61.6118 36.6487 61.6126 36.7123 61.6328 36.7825C61.6545 36.8564 61.6889 36.9134 61.7346 36.9511C61.781 36.9895 61.8296 37.0013 61.8805 36.9865C61.9321 36.9717 61.9703 36.9363 61.9935 36.8794C62.0167 36.8239 62.0197 36.764 62.0017 36.702C61.9927 36.6724 61.9778 36.6413 61.9561 36.6088C61.9344 36.5763 61.9119 36.5504 61.888 36.532C61.8348 36.4883 61.7817 36.4743 61.7293 36.4883Z" fill="#231F20"/>
<path d="M63.882 35.7408L64.1492 36.2272C64.1604 36.2478 64.1716 36.2619 64.1829 36.27C64.1948 36.2782 64.2083 36.2811 64.2248 36.2804L64.242 36.3122L64.0033 36.44L63.9861 36.4082C63.9958 36.3942 64.0003 36.3809 64.0003 36.3676C64.0003 36.3543 63.9935 36.3373 63.9823 36.3166L63.356 35.1746C63.3447 35.1539 63.3335 35.1399 63.3223 35.1325C63.3111 35.1243 63.2976 35.1214 63.2804 35.1214L63.2632 35.0896L63.9404 34.7274C63.9516 34.7215 63.9576 34.7126 63.9584 34.7001C63.9584 34.6875 63.9554 34.669 63.9456 34.6424L63.9636 34.6328L64.1552 34.9817L64.1372 34.9913C64.1208 34.9691 64.1065 34.9551 64.0953 34.9492C64.0841 34.9433 64.0736 34.9433 64.0624 34.9492L63.588 35.2027L63.7646 35.525L64.0744 35.3587C64.0863 35.3527 64.0923 35.3431 64.0931 35.3306C64.0938 35.318 64.0901 35.2988 64.0803 35.2737L64.0983 35.264L64.2854 35.6048L64.2674 35.6144C64.2502 35.593 64.2367 35.5789 64.2263 35.573C64.215 35.5671 64.2038 35.5671 64.1926 35.573L63.882 35.7386V35.7408Z" fill="#231F20"/>
<path d="M64.7823 34.1322C64.9042 34.0435 65.0442 34.0309 65.2028 34.0945C65.3697 34.161 65.5253 34.2911 65.6698 34.484C65.7581 34.6023 65.8224 34.7257 65.8628 34.8543C65.9414 35.1064 65.9002 35.2912 65.7394 35.4087C65.6181 35.4974 65.4782 35.5092 65.3203 35.4449C65.2357 35.4109 65.1504 35.3577 65.0659 35.2853C64.991 35.2217 64.9222 35.1478 64.8586 35.0628C64.7665 34.9393 64.6999 34.8129 64.6588 34.6843C64.581 34.4382 64.6221 34.2541 64.7823 34.1315V34.1322ZM64.9394 34.3414C64.8728 34.3902 64.8436 34.4655 64.8511 34.5675C64.8601 34.6888 64.9147 34.8159 65.015 34.9497C65.1153 35.0835 65.2223 35.1722 65.3368 35.2165C65.434 35.2542 65.5156 35.2476 65.583 35.1988C65.6503 35.1493 65.6795 35.0739 65.672 34.9719C65.6675 34.9113 65.6496 34.8455 65.6181 34.7752C65.5904 34.7124 65.5553 34.6526 65.5119 34.5956C65.4071 34.4559 65.2986 34.365 65.1863 34.3236C65.0906 34.2874 65.0082 34.2941 64.9394 34.3421V34.3414Z" fill="#231F20"/>
<path d="M65.9196 33.1623C66.0266 33.0566 66.1635 33.0233 66.3304 33.0632C66.5055 33.1046 66.6784 33.2103 66.8497 33.3796C66.9553 33.4838 67.0376 33.5961 67.0967 33.7181C67.2119 33.9554 67.1992 34.1446 67.0578 34.2843C66.9515 34.3893 66.8153 34.4218 66.6485 34.3819C66.5594 34.3604 66.4681 34.3205 66.3731 34.2614C66.2893 34.2089 66.2099 34.1461 66.1351 34.0722C66.0251 33.9635 65.9405 33.8489 65.8807 33.727C65.7662 33.4949 65.7797 33.3071 65.9196 33.1623ZM66.1067 33.3463C66.0475 33.404 66.0303 33.4831 66.0535 33.5836C66.0805 33.7018 66.1538 33.8194 66.2728 33.9369C66.3918 34.0544 66.5108 34.1269 66.6312 34.1535C66.7323 34.1764 66.8123 34.1586 66.8722 34.0995C66.9313 34.0411 66.9493 33.962 66.9261 33.8622C66.9126 33.8031 66.8849 33.7403 66.843 33.6752C66.8063 33.6176 66.7622 33.5636 66.7113 33.5134C66.5871 33.3907 66.4659 33.3167 66.3484 33.2924C66.2481 33.2709 66.168 33.2887 66.1074 33.3463H66.1067Z" fill="#231F20"/>
<path d="M67.816 33.2483L66.7594 32.4759C66.7407 32.4618 66.7242 32.4537 66.7115 32.4515C66.698 32.4493 66.6838 32.4515 66.6688 32.4596L66.6396 32.4382L66.9285 32.0531C66.9914 31.9688 67.058 31.9164 67.1261 31.8971C67.2256 31.869 67.3446 31.8824 67.4845 31.9363C67.5945 31.9784 67.7112 32.0442 67.8332 32.1344C68.0487 32.2918 68.1849 32.4485 68.2425 32.6038C68.2672 32.6695 68.2747 32.7302 68.2642 32.7863C68.2538 32.8425 68.2246 32.9024 68.1767 32.9659L67.8878 33.351L67.8587 33.3296C67.8617 33.3126 67.8602 33.2986 67.8542 33.2867C67.8482 33.2749 67.8355 33.2623 67.8168 33.2483H67.816ZM67.819 33.0169L67.9612 32.8277C68.0068 32.7671 68.0255 32.7109 68.0188 32.6585C68.0038 32.5461 67.9036 32.4227 67.718 32.2867C67.584 32.1884 67.468 32.1307 67.37 32.1137C67.3161 32.1041 67.2697 32.1071 67.2323 32.1226C67.1949 32.1381 67.159 32.1691 67.1246 32.215L66.9824 32.4042L67.8197 33.0162L67.819 33.0169Z" fill="#231F20"/>
<path d="M48.3376 26.9624H48.253L48.2388 27.5042H48.176L48.1827 26.9624H48.1138L48.1026 27.5042H48.0285V26.9624H47.9649L47.95 27.5042H47.8923L47.8968 26.9624H47.8183C47.8145 27.2618 47.7734 27.8073 47.813 27.8863C47.8557 27.9684 47.9791 28.1111 48.0128 28.2116C48.0143 28.216 48.0278 28.6506 48.0203 28.6654C47.9911 28.7238 47.9328 28.7955 47.9328 28.8095C47.9328 28.913 47.9619 30.7979 47.9619 30.7979L48.2388 30.7831L48.2179 28.7992L48.1296 28.6721L48.1243 28.1946L48.3151 27.9263L48.3361 26.9609L48.3376 26.9624Z" fill="#231F20"/>
<path d="M48.9446 26.9374C48.9446 27.066 48.955 28.3647 48.955 28.4002C48.955 28.4356 48.9603 28.4357 48.9393 28.4667C48.9184 28.4985 48.8884 28.534 48.8817 28.5495C48.8503 28.6197 48.8293 28.7247 48.866 28.7661C48.9027 28.8074 48.9341 28.8178 48.9393 28.9264C48.9453 29.0344 48.9288 30.7928 48.9288 30.7928C48.9288 30.7928 48.5861 30.7928 48.6295 30.7928C48.6385 30.7928 48.631 28.905 48.631 28.905C48.631 28.905 48.6827 28.7402 48.6879 28.6988C48.6931 28.6567 48.6827 28.6101 48.6729 28.5798C48.6624 28.5487 48.5996 28.4512 48.5996 28.4512C48.5996 28.4512 48.5053 28.239 48.5001 28.1511C48.4948 28.0639 48.8151 26.9951 48.845 26.9588C48.875 26.9219 48.9094 26.9219 48.9094 26.9219L48.9446 26.9359V26.9374Z" fill="#231F20"/>
<path d="M68.9924 26.9624H68.9078L68.8936 27.5042H68.8307L68.8375 26.9624H68.7686L68.7567 27.5042H68.6833V26.9624H68.6197L68.6047 27.5042H68.5479L68.5524 26.9624H68.4738C68.47 27.2618 68.4289 27.8073 68.4693 27.8863C68.5112 27.9684 68.6354 28.1111 68.6691 28.2116C68.6706 28.216 68.6833 28.6506 68.6766 28.6654C68.6466 28.7238 68.589 28.7955 68.589 28.8095C68.589 28.913 68.6182 30.7979 68.6182 30.7979L68.8951 30.7831L68.8741 28.7992L68.7858 28.6721L68.7806 28.1946L68.9714 27.9263L68.9916 26.9609L68.9924 26.9624Z" fill="#231F20"/>
<path d="M69.5991 26.9374C69.5991 27.066 69.6096 28.3647 69.6096 28.4002C69.6096 28.4356 69.6148 28.4357 69.5939 28.4667C69.5729 28.4985 69.543 28.534 69.5363 28.5495C69.5041 28.6197 69.4839 28.7247 69.5205 28.7661C69.5572 28.8074 69.5886 28.8178 69.5939 28.9264C69.5991 29.0344 69.5827 30.7928 69.5827 30.7928C69.5827 30.7928 69.2399 30.7928 69.2833 30.7928C69.2923 30.7928 69.2848 28.905 69.2848 28.905C69.2848 28.905 69.3365 28.7402 69.3424 28.6988C69.3477 28.6567 69.3372 28.6101 69.3267 28.5798C69.3163 28.5487 69.2534 28.4512 69.2534 28.4512C69.2534 28.4512 69.1591 28.239 69.1539 28.1511C69.1486 28.0639 69.4689 26.9951 69.4988 26.9588C69.5288 26.9219 69.5632 26.9219 69.5632 26.9219L69.5984 26.9359L69.5991 26.9374Z" fill="#231F20"/>
<path d="M59.5801 17.9072C63.8807 18.2768 67.2556 21.8424 67.2556 26.1864C67.2556 30.7758 63.4886 34.4966 58.8415 34.4966C54.1945 34.4966 50.4282 30.7758 50.4282 26.1864C50.4282 21.597 54.0044 18.0676 58.4853 17.8828" stroke="#231F20" stroke-width="0.8" stroke-miterlimit="10"/>
<path d="M58.7764 17.875C58.7981 17.875 58.8198 17.875 58.8407 17.875C58.9919 17.875 59.1423 17.8787 59.2912 17.8868" stroke="#231F20" stroke-width="0.69" stroke-miterlimit="10"/>
<path d="M57.1401 32.9706L57.4604 31.7274C57.3571 31.618 57.2546 31.5078 57.1521 31.3984L57.1401 32.9706Z" fill="#231F20"/>
<path d="M64.418 23.912L65.8264 23.0391L64.2085 23.5269C64.3297 23.623 64.409 23.759 64.418 23.912Z" fill="#231F20"/>
<path d="M60.4664 32.8856L60.3826 31.6719C60.3399 31.7118 60.1177 31.9794 60.0728 32.0215L60.4671 32.8863L60.4664 32.8856Z" fill="#231F20"/>
<path d="M55.8521 33.1761L56.4118 32.2367L56.3916 31.2344L55.8521 33.1761Z" fill="#231F20"/>
<path d="M59.0271 32.9729L59.1917 33.8252L59.2763 32.7031C59.2052 32.7756 59.1468 32.8377 59.1072 32.8835C59.0787 32.9167 59.0518 32.9456 59.0264 32.9729H59.0271Z" fill="#231F20"/>
<path d="M57.5969 33.7709L58.0377 32.3783C57.921 32.2534 57.796 32.1204 57.6673 31.9844L57.5962 33.7709H57.5969Z" fill="#231F20"/>
<path d="M58.3814 33.7649L58.6351 32.9725C58.5723 32.906 58.4862 32.8143 58.2969 32.6406L58.3822 33.7649H58.3814Z" fill="#231F20"/>
<path d="M59.542 32.4873L59.976 33.8569L59.9079 32.1406C59.7837 32.2574 59.6587 32.3757 59.5427 32.4873H59.542Z" fill="#231F20"/>
<path opacity="0.9" d="M57.8683 20.9757V20.9688C57.8683 20.9688 57.8666 20.9688 57.8657 20.9688L57.8683 20.9757Z" fill="#231F20"/>
<path d="M59.6565 17.3594H59.4717V20.9213H59.6565V17.3594Z" fill="#231F20"/>
<path d="M59.3589 17.3359H58.749V20.9178H59.3589V17.3359Z" fill="#231F20"/>
<path fill-rule="evenodd" clip-rule="evenodd" d="M58.4793 28.7793C59.2651 28.7793 59.9019 28.2375 59.9019 27.5694C59.9019 26.9012 59.2651 26.3594 58.4793 26.3594C58.4262 26.3594 58.3738 26.3623 58.3214 26.3675C58.3087 26.3675 58.2967 26.366 58.2833 26.366C57.5514 26.366 56.958 26.8842 56.958 27.5221C56.958 27.9197 57.1892 28.2693 57.5394 28.477C57.725 28.616 57.9525 28.715 58.204 28.7572V29.6937C58.0842 29.7336 57.9989 29.8341 57.9989 29.9531C57.9989 30.1069 58.1418 30.231 58.3184 30.231C58.495 30.231 58.6372 30.1069 58.6372 29.9531C58.6372 29.8385 58.5579 29.7402 58.4457 29.6974V28.7786C58.4569 28.7786 58.4674 28.7801 58.4786 28.7801L58.4793 28.7793ZM59.7777 27.5524C59.7777 28.1747 59.1842 28.6796 58.4509 28.6796C58.4494 28.6796 58.4487 28.6796 58.4472 28.6796V28.6685C59.0533 28.6034 59.5322 28.1829 59.6011 27.6529H59.6632C59.726 27.6529 59.7769 27.6048 59.7769 27.5464C59.7769 27.4881 59.726 27.44 59.6632 27.44H59.6056C59.5719 27.0187 59.2785 26.6595 58.8647 26.4828C59.3945 26.6306 59.7777 27.0534 59.7777 27.5524ZM58.5227 27.44C58.504 27.4097 58.4778 27.3838 58.4464 27.3654V26.7134C58.5841 26.6994 58.7442 26.7238 58.9306 26.8043C59.1506 26.9559 59.2995 27.182 59.3257 27.4393H58.522L58.5227 27.44ZM59.3197 27.6529C59.2538 28.0483 58.8991 28.361 58.4472 28.4223V27.732C58.4801 27.7128 58.507 27.6854 58.5257 27.6529H59.3197ZM57.3995 27.6529H58.1276C58.1463 27.6854 58.1733 27.7128 58.2055 27.732V28.4312C57.6644 28.3957 57.2371 28.0032 57.2371 27.5221C57.2371 27.1133 57.5462 26.7666 57.9712 26.6506C57.5492 26.8812 57.4182 27.3432 57.4003 27.4407C57.3374 27.4407 57.2873 27.4888 57.2873 27.5472C57.2873 27.6056 57.3374 27.6536 57.4003 27.6536L57.3995 27.6529ZM58.1299 27.44H57.7026C57.7288 27.3779 57.862 26.9566 58.2055 26.7836V27.3654C58.174 27.3838 58.1486 27.4097 58.1299 27.44Z" fill="#231F20"/>
<path d="M40.3237 40.1875H40.4352" stroke="#231F20" stroke-width="0.88" stroke-miterlimit="10"/>
<path d="M40.6567 40.1875H76.4794" stroke="#231F20" stroke-width="0.88" stroke-miterlimit="10" stroke-dasharray="2.96 2.96"/>
<path d="M76.5903 40.1875H76.7018" stroke="#231F20" stroke-width="0.88" stroke-miterlimit="10"/>
<path d="M40.3237 48.2266H40.4352" stroke="#231F20" stroke-width="0.88" stroke-miterlimit="10"/>
<path d="M40.6567 48.2266H76.4794" stroke="#231F20" stroke-width="0.88" stroke-miterlimit="10" stroke-dasharray="2.96 2.96"/>
<path d="M76.5903 48.2266H76.7018" stroke="#231F20" stroke-width="0.88" stroke-miterlimit="10"/>
<path d="M42.0135 41.8679C43.2797 41.8679 43.778 43.0365 43.778 44.1149C43.778 44.7787 43.588 45.4838 43.24 45.8645C42.8703 46.2659 42.4505 46.5903 41.6154 46.5903H40.3777V41.8672H42.0128L42.0135 41.8679ZM41.1065 42.6559V45.8024H41.6274C42.3106 45.8024 43.0162 45.339 43.0162 44.1637C43.0162 43.5621 42.7865 42.6559 41.896 42.6559H41.1065Z" fill="#231F20"/>
<path d="M46.2027 41.875V46.5908H45.4746V41.875H46.2027Z" fill="#231F20"/>
<path d="M50.516 43.1732C50.2249 42.9108 49.8605 42.5855 49.3509 42.5855C48.9423 42.5855 48.6617 42.8553 48.6617 43.1591C48.6617 43.4629 48.8465 43.6085 49.4459 43.7748C50.0453 43.9338 50.7457 44.1969 50.7457 45.1023C50.7457 46.0078 50.0565 46.6649 49.1997 46.6649C48.5614 46.6649 48.1132 46.319 47.8999 46.1534V45.1578C48.1858 45.4416 48.6505 45.877 49.205 45.877C49.6308 45.877 49.9668 45.5451 49.9668 45.1718C49.9668 44.7986 49.6869 44.6189 49.1271 44.4733C48.7186 44.3558 48.4103 44.2316 48.1641 43.9544C48.0294 43.7815 47.9006 43.5257 47.9006 43.1525C47.9006 42.3298 48.5113 41.7969 49.3344 41.7969C49.7542 41.7969 50.1576 41.9417 50.516 42.2049V43.1732Z" fill="#231F20"/>
<path d="M55.0132 41.875V42.6637H53.9094V46.5915H53.1813V42.6637H52.106V41.875H55.0132Z" fill="#231F20"/>
<path d="M58.2444 41.875C58.995 41.875 59.4208 42.3451 59.4208 43.0369C59.4208 43.7835 59.001 44.1575 58.3731 44.309V44.3231C58.653 44.4265 58.9336 44.5374 59.1461 45.2499L59.5495 46.5915H58.754L58.4854 45.5471C58.3282 44.9314 58.1157 44.6069 57.5837 44.6069H57.3038V46.5915H56.5757V41.8757H58.2444V41.875ZM57.3038 42.6637V43.8596H57.892C58.43 43.8596 58.6874 43.5551 58.6874 43.2099C58.6874 42.9261 58.5026 42.6637 58.1382 42.6637H57.3038Z" fill="#231F20"/>
<path d="M61.8746 41.875V46.5908H61.1465V41.875H61.8746Z" fill="#231F20"/>
<path d="M66.5405 43.1384C66.2718 42.8827 65.9523 42.5855 65.4816 42.5855C64.6749 42.5855 64.3165 43.4703 64.3165 44.2656C64.3165 45.123 64.7086 45.877 65.409 45.877C65.9411 45.877 66.3332 45.5104 66.5405 45.3167V46.2502C66.3497 46.3744 65.9022 46.6649 65.3304 46.6649C64.3337 46.6649 63.5547 45.6205 63.5547 44.2797C63.5547 42.9389 64.3442 41.7969 65.409 41.7969C65.9298 41.7969 66.3055 42.0386 66.5405 42.2115V43.1384Z" fill="#231F20"/>
<path d="M70.7969 41.875V42.6637H69.6931V46.5915H68.965V42.6637H67.8896V41.875H70.7969Z" fill="#231F20"/>
<path d="M76.4094 43.2263C76.1908 43.0327 75.8998 42.7769 75.4575 42.7769C74.9202 42.7769 74.3822 43.2404 74.3425 44.3742C74.5895 44.049 74.9082 43.6617 75.468 43.6617C76.1849 43.6617 76.6668 44.2907 76.6668 45.0794C76.6668 45.9368 76.0846 46.6626 75.2382 46.6626C74.2018 46.6626 73.6309 45.6116 73.6309 44.4289C73.6309 43.1014 74.3313 42.0156 75.3954 42.0156C75.4904 42.0156 75.9551 42.0297 76.4094 42.2987V43.2256V43.2263ZM75.2607 45.9021C75.6468 45.9021 75.9379 45.6049 75.9379 45.1622C75.9379 44.7542 75.6753 44.4223 75.3273 44.4223C74.8461 44.4223 74.549 44.9064 74.4308 45.1001C74.5258 45.3492 74.7331 45.9021 75.2599 45.9021H75.2607Z" fill="#231F20"/>
<path opacity="0.9" d="M59.8967 16.3047H58.3911V16.4969H59.8967V16.3047Z" fill="#231F20"/>
<path d="M64.1973 26.6467L66.517 26.4094L64.2145 26.0406L66.4923 25.5431L64.1621 25.4367L66.3681 24.6857L64.0409 24.8424L66.1459 23.849L64.3619 24.1735C64.2788 24.3317 64.1134 24.4507 63.9129 24.4869C63.9114 24.9939 63.9099 25.7338 63.9099 25.926C63.9945 26.0554 63.8411 26.2379 63.8411 26.2379C63.8411 26.2379 63.3165 26.2379 62.8091 26.2379C62.7912 27.6127 62.8593 28.3319 62.6258 29.2973L55.1636 29.2832C54.8268 28.6764 55.2085 22.9909 55.2235 22.7669C55.626 22.5621 56.8017 22.2325 57.3539 22.1482C56.8668 22.2214 55.6597 22.4032 55.1404 22.5363L55.1531 22.0004C58.1179 21.2568 60.9421 21.6907 62.2389 21.8836C62.2389 21.8836 62.6011 21.945 62.7133 21.9775L63.7034 20.3203L62.3916 21.5362C62.4694 21.5591 62.5457 21.5828 62.6243 21.6079C62.857 21.6833 62.7605 21.6907 62.2831 21.6463L62.3048 21.6574C60.0074 21.3876 57.5425 21.1785 55.4824 21.7129L55.4756 21.707C55.2736 21.7624 55.2003 21.7498 55.2077 21.741C55.216 21.7306 55.2631 21.6678 55.3754 21.6138L53.9797 20.3211L55.0192 21.9827V22.1445L53.334 20.9065L54.7782 22.7166L52.76 21.5621L54.404 23.1963L52.2646 22.2768L54.0868 23.716L51.8553 23.0433L53.8316 24.2681L51.5365 23.8505L53.6408 24.8439L51.3135 24.6872L53.5188 25.4382L51.1885 25.5446L53.4664 26.0421L51.1631 26.4109L53.4844 26.6482L51.2387 27.2735L53.5719 27.2491L51.413 28.1228L53.7276 27.8352L51.6839 28.9462L53.9498 28.3999L52.0483 29.7341L54.2372 28.9366L52.5018 30.4755L54.5836 29.4362L53.0369 31.1614L54.9855 29.8938L53.6482 31.7823L55.4375 30.3047L54.3262 32.3307L55.9336 30.6603L55.0641 32.7986L56.3871 31.0646L56.3766 30.5664C56.1873 30.3609 56.0578 30.216 56.0331 30.1828C55.9194 30.0231 55.7772 29.7725 55.7772 29.7725C55.7772 29.7725 55.6852 29.6173 55.6919 29.5419H62.5031C62.3594 29.8043 61.5347 30.5982 61.1531 30.9581L61.1322 32.0085L61.8296 33.18L61.2122 30.9581L62.6168 32.7986L61.7465 30.6603L63.3547 32.3307L62.2434 30.3047L64.0334 31.7823L62.6961 29.8938L64.6448 31.1614L63.193 29.5427H63.3105L65.1798 30.4755L63.4445 28.9366L65.6325 29.7341L63.7311 28.3999L65.9977 28.9462L63.9541 27.8352L66.2686 28.1228L64.1105 27.2491L66.443 27.2735L64.198 26.6482L64.1973 26.6467Z" fill="#231F20"/>
<path d="M62.2009 21.4785L62.9933 19.8125L61.686 21.3366C61.8544 21.3802 62.0265 21.4261 62.2016 21.4778L62.2009 21.4785Z" fill="#231F20"/>
<path d="M62.8257 22.0246C62.8212 22.083 62.813 22.1451 62.813 22.1451C62.813 22.1451 62.822 22.3801 62.8152 22.4311C62.8167 22.4311 62.8167 22.4311 62.8182 22.4311C62.8205 22.6085 62.8339 24.2184 62.813 25.8312C63.0704 25.8319 63.3271 25.8341 63.5067 25.8349C63.5007 25.5555 63.5067 24.871 63.5104 24.4446C63.3982 24.398 63.3046 24.3241 63.2395 24.2317C63.1497 24.1408 63.0951 24.0232 63.0951 23.8939C63.0951 23.6078 63.3608 23.3765 63.6885 23.3765C63.7304 23.3765 63.7723 23.3809 63.812 23.3876C63.8696 23.3898 63.9242 23.3987 63.9766 23.4134L65.4164 22.2766L63.2777 23.1961L64.9217 21.5619L62.9918 22.6196L64.347 20.9062L62.8242 22.0246H62.8257Z" fill="#231F20"/>
<path d="M61.5738 21.3046L62.2294 19.3828L61.0171 21.176C61.1982 21.2137 61.3845 21.2566 61.5738 21.3039V21.3046Z" fill="#231F20"/>
<path d="M57.2947 21.0344L56.2612 19.0469L56.7155 21.1468C56.8943 21.1054 57.0881 21.0677 57.2947 21.0344Z" fill="#231F20"/>
<path d="M60.9629 21.1675L61.4223 19.0469L60.4009 21.0396C60.5924 21.0692 60.7608 21.1261 60.9629 21.1675Z" fill="#231F20"/>
<path d="M60.3787 21.023L60.5994 18.7656L59.6416 20.9158C59.6416 20.9254 59.8309 20.9365 59.8309 20.9446C60.0255 20.9646 60.1722 20.9919 60.3779 21.023H60.3787Z" fill="#231F20"/>
<path d="M58.4337 20.9238H58.5631V17.3359H58.3783V19.7012C58.3693 19.6983 58.3626 19.6946 58.3648 19.6901C58.3648 19.6458 58.3162 19.6251 58.3162 19.5793L57.8829 18.6598L57.8672 20.9696C58.0677 20.9511 58.272 20.9356 58.4292 20.9275C58.4307 20.926 58.4322 20.9245 58.4337 20.9238Z" fill="#231F20"/>
<path d="M57.8656 20.9689L57.1016 18.8047L57.3201 21.0317C57.457 21.0103 57.6583 20.9881 57.8656 20.9689Z" fill="#231F20"/>
<path d="M56.6549 21.1605L55.4531 19.3828L56.1124 21.3157C56.2748 21.2625 56.4559 21.2092 56.6549 21.1605Z" fill="#231F20"/>
<path d="M56.0122 21.3536L54.6899 19.8125L55.5161 21.5495C55.653 21.4889 55.8169 21.4209 56.0122 21.3529V21.3536Z" fill="#231F20"/>
<path fill-rule="evenodd" clip-rule="evenodd" d="M58.5745 23.2578C58.2183 23.2578 57.9287 23.5106 57.9287 23.821C57.9287 24.1315 58.2176 24.3843 58.5745 24.3843C58.9315 24.3843 59.2203 24.1315 59.2203 23.821C59.2203 23.5106 58.9307 23.2578 58.5745 23.2578ZM59.0774 23.7567H58.6778C58.6666 23.7405 58.6531 23.7272 58.6359 23.7176V23.382C58.8634 23.4056 59.0445 23.5594 59.0774 23.756V23.7567ZM58.5184 23.382V23.7205C58.5027 23.7294 58.4899 23.742 58.4802 23.7567H58.0724C58.1061 23.5579 58.2887 23.4042 58.5184 23.382ZM58.0694 23.8602H58.4668C58.4757 23.8861 58.4944 23.9068 58.5184 23.9208V24.2616C58.2782 24.2379 58.0903 24.0709 58.0694 23.8602ZM58.6359 24.2608V23.923C58.6613 23.909 58.6815 23.8868 58.6912 23.8595H59.0796C59.0796 23.8595 59.0796 23.8595 59.0804 23.8595C59.0594 24.0694 58.8738 24.2357 58.6359 24.2608Z" fill="#231F20"/>
</g>
<defs>
<filter id="filter0_d_1850_99195" x="0.875" y="0.65625" width="115.25" height="66.25" filterUnits="userSpaceOnUse" color-interpolation-filters="sRGB">
<feFlood flood-opacity="0" result="BackgroundImageFix"/>
<feColorMatrix in="SourceAlpha" type="matrix" values="0 0 0 0 0 0 0 0 0 0 0 0 0 0 0 0 0 0 127 0" result="hardAlpha"/>
<feOffset dy="0.78125"/>
<feGaussianBlur stdDeviation="1.5625"/>
<feComposite in2="hardAlpha" operator="out"/>
<feColorMatrix type="matrix" values="0 0 0 0 0 0 0 0 0 0 0 0 0 0 0 0 0 0 0.08 0"/>
<feBlend mode="normal" in2="BackgroundImageFix" result="effect1_dropShadow_1850_99195"/>
<feBlend mode="normal" in="SourceGraphic" in2="effect1_dropShadow_1850_99195" result="shape"/>
</filter>
</defs>
</svg>
