<svg width="117" height="67" viewBox="0 0 117 67" fill="none" xmlns="http://www.w3.org/2000/svg">
<g filter="url(#filter0_d_1850_79911)">
<rect width="109" height="60" transform="translate(4 3)" fill="white"/>
<path fill-rule="evenodd" clip-rule="evenodd" d="M47.8161 26.2836V25.8157C47.8161 24.0894 46.4125 22.6875 44.6772 22.6875H32.1368C30.404 22.6875 28.9995 24.0894 28.9995 25.8157V40.1356C28.9995 41.8629 30.404 43.2647 32.1368 43.2647H44.6772C46.4125 43.2647 47.8161 41.8627 47.8161 40.1356V39.3118C45.312 38.3819 43.5136 35.819 43.5136 32.8001C43.5136 29.7813 45.3118 27.2115 47.8161 26.2836ZM42.4173 28.6361C41.669 27.471 40.7943 26.6443 39.8353 26.0958C38.8764 25.5521 37.7395 25.3017 36.4218 25.3017H35.8006C35.6486 25.3119 35.5094 25.3266 35.3768 25.35V31.4442C35.6103 31.453 35.8255 31.4697 36.02 31.4782C36.2134 31.4908 36.4092 31.4908 36.6119 31.4908C37.6618 31.4908 38.53 31.2588 39.2257 30.7886C39.9109 30.3187 40.3621 29.6818 40.5516 28.8577H40.8066V35.0026H40.5516C40.3539 34.0861 39.9027 33.413 39.2257 32.9412C38.5516 32.4859 37.6217 32.2665 36.4599 32.2665C36.2873 32.2665 35.973 32.2771 35.5326 32.3106H35.3767V34.7524C35.3767 36.86 35.4669 38.226 35.6484 38.848C35.8297 39.4826 36.1798 39.8682 36.6813 40.0245C36.6769 40.1297 36.6728 40.2332 36.6728 40.3365C36.2957 40.311 35.8821 40.2982 35.471 40.2876C35.0559 40.2748 34.4908 40.2648 33.783 40.2648C33.0752 40.2648 32.5731 40.275 32.1743 40.2876C31.7783 40.2982 31.3988 40.311 31.0385 40.3365V40.0245C31.5397 39.8811 31.8775 39.506 32.0584 38.8841C32.2438 38.2744 32.3345 36.8959 32.3345 34.7524V26.6572C32.3345 26.0959 32.2526 25.6855 32.0985 25.3837C31.93 25.0953 31.6514 24.8868 31.2677 24.7535V24.4204H31.3755C32.6234 24.4538 33.5615 24.4646 34.1835 24.4646H41.6564C41.9896 25.8243 42.3396 27.1819 42.6725 28.5378C42.5863 28.5712 42.4998 28.603 42.4173 28.6362V28.6361Z" fill="#19588B"/>
<path fill-rule="evenodd" clip-rule="evenodd" d="M57.3892 36.8149V36.6099C57.8595 36.4621 58.1884 36.2117 58.3616 35.8281C58.5426 35.4546 58.6289 34.6598 58.6289 33.4289V30.2941C58.6289 29.5585 58.5511 29.0839 58.4099 28.8773C58.262 28.6726 57.9646 28.5568 57.5367 28.5193V28.3192C58.4014 28.2242 59.152 28.125 59.8051 28.0131C60.4481 27.9055 60.9877 27.8044 61.4246 27.6885V29.8136C61.8165 29.0274 62.3012 28.4493 62.8534 28.0467C63.3979 27.6504 64.0258 27.4609 64.7378 27.4609H64.9782C65.0224 27.4694 65.0691 27.4694 65.1135 27.4776C64.772 28.4262 64.4052 29.3665 64.0551 30.3131H63.8084C63.7096 30.2013 63.5936 30.1107 63.4671 30.0474C63.3344 29.9905 63.1911 29.9656 63.0352 29.9656C62.5123 29.9656 62.1119 30.1766 61.8394 30.6003C61.5676 31.0364 61.4248 31.6455 61.4248 32.4532V33.2832C61.4248 34.5968 61.5148 35.4546 61.6876 35.8449C61.8651 36.2386 62.1937 36.4877 62.6641 36.6099C62.6597 36.6796 62.6597 36.7448 62.6556 36.8149C62.3436 36.7956 62.002 36.7889 61.6306 36.7788C61.2515 36.77 60.7033 36.7639 59.9828 36.7639C59.3415 36.7639 58.8272 36.77 58.4562 36.7788C58.09 36.7889 57.7312 36.7956 57.3893 36.8149" fill="#19588B"/>
<path fill-rule="evenodd" clip-rule="evenodd" d="M65.1906 36.8138C65.1906 36.7504 65.1821 36.6868 65.1821 36.6259C65.6652 36.4785 65.9986 36.2106 66.1796 35.8097C66.3563 35.4119 66.4433 34.5638 66.4433 33.2613V30.2932C66.4433 29.5576 66.3691 29.083 66.2239 28.868C66.0764 28.6637 65.7878 28.5459 65.3642 28.5184V28.335C66.0932 28.2548 66.7717 28.1642 67.3896 28.0546C68.0069 27.9513 68.564 27.8353 69.0655 27.7043V29.6818C69.3948 28.9421 69.8691 28.3916 70.4404 28.0204C71.0132 27.6493 71.7173 27.4766 72.5651 27.4766C73.8995 27.4766 74.8923 27.818 75.5251 28.5182C76.1632 29.2306 76.4925 30.293 76.4925 31.7391V33.2612C76.4925 34.581 76.5916 35.4366 76.7644 35.8355C76.9411 36.2374 77.2786 36.497 77.7485 36.6257V36.8137C77.4408 36.7944 77.0913 36.7877 76.7201 36.7775C76.349 36.7687 75.8009 36.7627 75.0798 36.7627C74.4265 36.7627 73.9036 36.7687 73.5368 36.7775C73.1575 36.7877 72.7988 36.7944 72.4702 36.8137C72.462 36.7502 72.462 36.6866 72.4578 36.6257C72.919 36.4865 73.2526 36.2374 73.4293 35.8522C73.6103 35.4685 73.6971 34.7096 73.6971 33.5455C73.6926 33.2677 73.6926 32.9914 73.6971 32.7129C73.6926 32.4451 73.6926 32.1693 73.6971 31.8973C73.6971 30.7016 73.5325 29.8292 73.2166 29.283C72.8979 28.7373 72.3709 28.4674 71.663 28.4674C70.955 28.4674 70.3303 28.7774 69.8917 29.4032C69.4511 30.0254 69.2173 30.8536 69.2173 31.8973V33.1133C69.2173 34.53 69.3164 35.4366 69.4939 35.8355C69.6667 36.2374 69.9954 36.497 70.4782 36.6257V36.8137C70.1636 36.7944 69.8141 36.7877 69.445 36.7775C69.0788 36.7687 68.5259 36.7627 67.8093 36.7627C67.1513 36.7627 66.6328 36.7687 66.2616 36.7775C65.8823 36.7877 65.5243 36.7944 65.1909 36.8137" fill="#19588B"/>
<path fill-rule="evenodd" clip-rule="evenodd" d="M52.9543 30.5244C52.9288 29.7422 52.7435 29.1243 52.4148 28.6732C52.0879 28.222 51.6367 28.0034 51.0972 28.0034C50.5578 28.0034 50.1001 28.2178 49.7331 28.659C49.3662 29.0993 49.1281 29.717 49.0056 30.5244H52.9543ZM56.2594 31.1417H48.9846C48.9805 31.1633 48.9764 31.1841 48.9764 31.1991C48.9553 31.5486 48.9465 31.812 48.9465 31.9853C48.9465 33.2922 49.2483 34.3039 49.8405 35.0477C50.4183 35.7901 51.2406 36.153 52.2816 36.153C53.1546 36.153 53.8967 35.8826 54.5098 35.3369C55.1193 34.7932 55.585 34.0045 55.8883 32.9486C56.0617 33.0939 56.2384 33.2331 56.4112 33.3738C56.0216 34.584 55.3828 35.4739 54.5397 36.0852C53.6773 36.6921 52.5833 36.9892 51.2697 36.9892C49.6294 36.9892 48.285 36.5512 47.2709 35.6507C46.2462 34.7483 45.728 33.604 45.728 32.1872C45.728 30.7704 46.246 29.6766 47.2519 28.7827C48.2594 27.8914 49.5726 27.4609 51.1747 27.4609C52.6149 27.4609 53.785 27.7729 54.6573 28.4203C55.5346 29.0631 56.0824 29.9631 56.2592 31.1414L56.2594 31.1417Z" fill="#19588B"/>
<path fill-rule="evenodd" clip-rule="evenodd" d="M78.1475 36.0441C78.5058 35.0893 78.8814 34.1386 79.2394 33.1786C79.33 33.1894 79.4168 33.2001 79.5069 33.2105C79.6948 34.2752 80.0867 35.0633 80.6436 35.6222C81.1891 36.1785 81.9022 36.4443 82.7618 36.4443C83.4347 36.4443 83.9867 36.2884 84.4103 35.9616C84.834 35.6452 85.051 35.2406 85.051 34.7411C85.051 34.3402 84.8992 34.039 84.6063 33.8158C84.3071 33.5941 83.6029 33.3644 82.4964 33.1116C81.0289 32.77 80.0487 32.4199 79.5682 32.0261C79.0895 31.638 78.8471 31.0895 78.8471 30.3771C78.8471 29.53 79.3004 28.8404 80.1731 28.2906C81.0544 27.7403 82.2026 27.4766 83.6322 27.4766C84.3277 27.4766 85.0067 27.5417 85.6603 27.6682C86.3116 27.801 86.9505 27.9867 87.555 28.2398C87.2584 29.0302 86.959 29.8166 86.6659 30.6073C86.5794 30.6006 86.4929 30.5965 86.4068 30.588C86.1475 29.7636 85.7406 29.127 85.2201 28.6652C84.7096 28.2079 84.096 27.9868 83.4046 27.9868C82.8649 27.9868 82.4075 28.1239 82.0428 28.4273C81.6717 28.7244 81.4824 29.0786 81.4824 29.4958C81.4824 30.2021 82.243 30.6849 83.7467 30.9802C84.0185 31.0411 84.2421 31.0811 84.3895 31.1067C85.7722 31.3953 86.7229 31.7199 87.2351 32.1266C87.7372 32.5295 88.0005 33.0966 88.0005 33.8238C88.0005 34.8081 87.5218 35.5693 86.5882 36.1513C85.6496 36.7268 84.3406 37.0069 82.6842 37.0069C81.8811 37.0069 81.0948 36.923 80.3292 36.7604C79.5511 36.5958 78.8179 36.3641 78.1476 36.0439" fill="#19588B"/>
<path fill-rule="evenodd" clip-rule="evenodd" d="M47.8161 26.2836V25.8157C47.8161 24.0894 46.4125 22.6875 44.6772 22.6875H32.1368C30.404 22.6875 28.9995 24.0894 28.9995 25.8157V40.1356C28.9995 41.8629 30.404 43.2647 32.1368 43.2647H44.6772C46.4125 43.2647 47.8161 41.8627 47.8161 40.1356V39.3118C45.312 38.3819 43.5136 35.819 43.5136 32.8001C43.5136 29.7813 45.3118 27.2115 47.8161 26.2836ZM42.4173 28.6361C41.669 27.471 40.7943 26.6443 39.8353 26.0958C38.8764 25.5521 37.7395 25.3017 36.4218 25.3017H35.8006C35.6486 25.3119 35.5094 25.3266 35.3768 25.35V31.4442C35.6103 31.453 35.8255 31.4697 36.02 31.4782C36.2134 31.4908 36.4092 31.4908 36.6119 31.4908C37.6618 31.4908 38.53 31.2588 39.2257 30.7886C39.9109 30.3187 40.3621 29.6818 40.5516 28.8577H40.8066V35.0026H40.5516C40.3539 34.0861 39.9027 33.413 39.2257 32.9412C38.5516 32.4859 37.6217 32.2665 36.4599 32.2665C36.2873 32.2665 35.973 32.2771 35.5326 32.3106H35.3767V34.7524C35.3767 36.86 35.4669 38.226 35.6484 38.848C35.8297 39.4826 36.1798 39.8682 36.6813 40.0245C36.6769 40.1297 36.6728 40.2332 36.6728 40.3365C36.2957 40.311 35.8821 40.2982 35.471 40.2876C35.0559 40.2748 34.4908 40.2648 33.783 40.2648C33.0752 40.2648 32.5731 40.275 32.1743 40.2876C31.7783 40.2982 31.3988 40.311 31.0385 40.3365V40.0245C31.5397 39.8811 31.8775 39.506 32.0584 38.8841C32.2438 38.2744 32.3345 36.8959 32.3345 34.7524V26.6572C32.3345 26.0959 32.2526 25.6855 32.0985 25.3837C31.93 25.0953 31.6514 24.8868 31.2677 24.7535V24.4204H31.3755C32.6234 24.4538 33.5615 24.4646 34.1835 24.4646H41.6564C41.9896 25.8243 42.3396 27.1819 42.6725 28.5378C42.5863 28.5712 42.4998 28.603 42.4173 28.6362V28.6361Z" fill="#19588B"/>
<path d="M50.0039 42.263C50.1803 42.2551 50.2953 42.218 50.3481 42.1527C50.4009 42.0875 50.4273 41.9689 50.4273 41.7973V40.2445C50.4273 40.0784 50.4002 39.9612 50.346 39.893C50.2916 39.8248 50.1774 39.7867 50.0039 39.7785V39.6641C50.0961 39.6668 50.1885 39.6697 50.281 39.6723C50.5282 39.6832 50.7141 39.6887 50.8391 39.6887C51.1704 39.6887 51.6864 39.6805 52.3869 39.6641H52.4237C52.4209 39.7297 52.4197 39.8262 52.4197 39.9542C52.4197 40.0661 52.4215 40.1579 52.4258 40.2301C52.4297 40.3022 52.4387 40.3684 52.4522 40.4282L52.3626 40.4446C52.2948 40.2322 52.188 40.0746 52.0427 39.9726C51.8974 39.8702 51.6931 39.8192 51.4297 39.8192H50.9734V40.8121H51.1854C51.3428 40.8121 51.4799 40.7715 51.5968 40.6895C51.7136 40.6078 51.7924 40.4784 51.8332 40.3013H51.9146C51.9146 40.3532 51.9119 40.4296 51.9064 40.5301C51.9011 40.6883 51.8982 40.8053 51.8982 40.8815C51.8982 40.9577 51.9009 41.0765 51.9064 41.2288C51.9117 41.335 51.9146 41.4141 51.9146 41.4657H51.8332C51.7896 41.2752 51.7136 41.1389 51.605 41.0572C51.4962 40.9755 51.3565 40.9345 51.1855 40.9345H50.9736V42.1482C51.1093 42.1863 51.271 42.2053 51.4584 42.2053C51.7272 42.2053 51.969 42.1408 52.1835 42.0112C52.398 41.8819 52.5787 41.6862 52.7252 41.4249L52.8026 41.482C52.6423 41.8253 52.5242 42.1183 52.4484 42.3606C52.0761 42.3497 51.6551 42.3442 51.1855 42.3442C50.9165 42.3442 50.6775 42.3454 50.4683 42.3481C50.2594 42.3509 50.1044 42.355 50.0041 42.3606V42.2624L50.0039 42.263Z" fill="#19588B"/>
<path d="M52.9817 41.7797C53.0605 41.9323 53.161 42.055 53.2834 42.1476C53.4056 42.2402 53.5454 42.2864 53.7029 42.2864C53.7678 42.2864 53.8222 42.2716 53.8658 42.2414C53.9093 42.2115 53.9311 42.1679 53.9311 42.1106C53.9311 42.0427 53.8983 41.9882 53.8333 41.9472C53.768 41.9062 53.6648 41.8602 53.5237 41.8081C53.4285 41.7727 53.3499 41.7407 53.2873 41.7122C53.2248 41.6836 53.1651 41.6481 53.108 41.6059C53.0509 41.5635 53.0048 41.5125 52.9696 41.4526C52.9342 41.3926 52.9167 41.3232 52.9167 41.2441C52.9167 41.1571 52.9322 41.0815 52.9635 41.0174C52.9946 40.9535 53.0367 40.903 53.0898 40.8662C53.1426 40.8295 53.2023 40.8023 53.2691 40.7845C53.3356 40.7668 53.4056 40.7578 53.4788 40.7578C53.5331 40.7578 53.6254 40.7687 53.7559 40.7906C53.9025 40.8179 54.0112 40.8316 54.0818 40.8316C54.0982 40.8316 54.1172 40.8289 54.1389 40.8234L54.1714 41.33H54.0736C54.0493 41.2783 54.0165 41.2266 53.9758 41.1749C53.9352 41.1231 53.8904 41.0762 53.8415 41.0338C53.7926 40.9918 53.7395 40.9569 53.6825 40.9297C53.6254 40.9025 53.5684 40.8887 53.5114 40.8887C53.4432 40.8887 53.3883 40.9017 53.3462 40.9275C53.3042 40.9535 53.2832 40.9992 53.2832 41.0645C53.2832 41.1298 53.3157 41.1835 53.3809 41.2259C53.4461 41.2679 53.5465 41.315 53.6825 41.3668C53.7747 41.4023 53.8515 41.4342 53.9125 41.4629C53.9739 41.4914 54.0328 41.5268 54.0899 41.5692C54.1468 41.6112 54.1916 41.6618 54.2242 41.7204C54.257 41.7788 54.2731 41.8462 54.2731 41.9226C54.2731 42.0125 54.2563 42.0895 54.2224 42.1535C54.1882 42.2174 54.1421 42.2686 54.0839 42.3069C54.0255 42.345 53.959 42.3729 53.8843 42.3907C53.8094 42.4083 53.7316 42.4171 53.6499 42.4171C53.3921 42.4171 53.1502 42.3708 52.9249 42.278L52.8882 41.7796H52.9819L52.9817 41.7797Z" fill="#19588B"/>
<path d="M54.4069 40.9561V40.8623C54.5672 40.8514 54.701 40.7914 54.8082 40.6824C54.9155 40.5735 55.0031 40.4346 55.071 40.2656H55.1523V40.8173H55.7147V40.9561H55.1523V41.8226C55.1523 41.9396 55.1709 42.0219 55.2073 42.0697C55.244 42.1174 55.3086 42.1414 55.4009 42.1414C55.4472 42.1414 55.4973 42.1258 55.5518 42.0943C55.6061 42.0629 55.659 42.0227 55.7107 41.9738L55.7962 42.0676C55.7526 42.1086 55.7045 42.1488 55.6517 42.1882C55.5989 42.2276 55.5437 42.2638 55.4867 42.2966C55.4296 42.3294 55.372 42.3565 55.3134 42.3782C55.255 42.4 55.1999 42.411 55.1484 42.411C55.0045 42.411 54.893 42.3757 54.8142 42.3048C54.7356 42.2342 54.6963 42.1305 54.6963 41.9943V40.9563H54.4067L54.4069 40.9561Z" fill="#19588B"/>
<path d="M56.9747 41.1907C56.9747 41.0056 56.9098 40.913 56.7793 40.913C56.6977 40.913 56.6413 40.9389 56.6102 40.9907C56.5791 41.0425 56.5634 41.1065 56.5634 41.1826C56.5634 41.2263 56.566 41.2644 56.5716 41.2971C56.5525 41.2918 56.5241 41.2849 56.486 41.2767C56.2824 41.2304 56.1289 41.2005 56.0257 41.1869C56.0365 41.1025 56.0629 41.0315 56.1049 40.9745C56.147 40.9171 56.1992 40.8729 56.2619 40.8416C56.3242 40.8105 56.3928 40.7885 56.4676 40.7763C56.5423 40.7642 56.6204 40.7578 56.7019 40.7578C56.797 40.7578 56.8887 40.766 56.9769 40.7824C57.0651 40.7988 57.1454 40.8252 57.2172 40.8623C57.2893 40.899 57.3469 40.9479 57.3904 41.0092C57.434 41.0706 57.4557 41.1462 57.4557 41.2359C57.4557 41.3015 57.4515 41.424 57.4433 41.6038C57.4379 41.7482 57.4354 41.8394 57.4354 41.8775C57.4354 41.9484 57.4475 42.0055 57.4718 42.0492C57.4964 42.0928 57.541 42.1145 57.6063 42.1145C57.647 42.1145 57.6842 42.1042 57.7184 42.0838C57.7522 42.0635 57.7909 42.0342 57.8344 41.9961L57.8993 42.0696C57.8804 42.086 57.8465 42.1172 57.7976 42.1634C57.7162 42.2452 57.6449 42.3079 57.5837 42.3515C57.5227 42.3951 57.4595 42.4168 57.3944 42.4168C57.3292 42.4168 57.2706 42.3964 57.211 42.3554C57.1513 42.3148 57.0903 42.263 57.0277 42.2003C56.9189 42.2685 56.8089 42.3214 56.6975 42.3597C56.5861 42.3978 56.4749 42.4168 56.3636 42.4168C56.244 42.4168 56.1376 42.38 56.0438 42.3066C55.9501 42.2329 55.9033 42.1444 55.9033 42.041C55.9033 41.9183 55.9366 41.8197 56.0031 41.7448C56.0696 41.6697 56.1558 41.6147 56.2619 41.5792C56.3677 41.5438 56.4777 41.5207 56.5918 41.5096C56.7059 41.4989 56.8335 41.4935 56.9746 41.4935V41.191L56.9747 41.1907ZM56.498 42.0999C56.5469 42.1476 56.6148 42.1713 56.7018 42.1713C56.8132 42.1713 56.904 42.1374 56.9746 42.0693V42.0489C56.9693 41.9671 56.9667 41.9045 56.9667 41.8608C56.9667 41.8119 56.9693 41.7381 56.9746 41.6402C56.9096 41.6294 56.8375 41.6238 56.7588 41.6238C56.6693 41.6238 56.5911 41.6484 56.5246 41.6974C56.4579 41.7463 56.4247 41.8145 56.4247 41.9018C56.4247 41.9891 56.449 42.0523 56.4979 42.0999H56.498Z" fill="#19588B"/>
<path d="M57.8014 40.9561V40.8623C57.9617 40.8514 58.0955 40.7914 58.2027 40.6824C58.31 40.5735 58.3976 40.4346 58.4655 40.2656H58.5469V40.8173H59.1092V40.9561H58.5469V41.8226C58.5469 41.9396 58.5654 42.0219 58.6018 42.0697C58.6386 42.1174 58.7031 42.1414 58.7954 42.1414C58.8417 42.1414 58.8918 42.1258 58.9463 42.0943C59.0007 42.0629 59.0535 42.0227 59.1053 41.9738L59.1908 42.0676C59.1472 42.1086 59.0991 42.1488 59.0462 42.1882C58.9934 42.2276 58.9383 42.2638 58.8812 42.2966C58.8241 42.3294 58.7666 42.3565 58.708 42.3782C58.6495 42.4 58.5944 42.411 58.5429 42.411C58.399 42.411 58.2876 42.3757 58.2088 42.3048C58.1301 42.2342 58.0908 42.1305 58.0908 41.9943V40.9563H57.8013L57.8014 40.9561Z" fill="#19588B"/>
<path d="M59.8477 41.5831C59.8477 41.7574 59.8973 41.8991 59.9963 42.0081C60.0955 42.1171 60.2306 42.1714 60.4018 42.1714C60.4995 42.1714 60.5939 42.1503 60.685 42.1083C60.7758 42.0659 60.8511 42.0081 60.9111 41.9346L61.0088 42.0409C60.9029 42.1579 60.7785 42.2498 60.6361 42.3166C60.4934 42.3832 60.3461 42.4168 60.1941 42.4168C59.9307 42.4168 59.72 42.3412 59.5626 42.1901C59.4051 42.0389 59.3262 41.8379 59.3262 41.5874C59.3262 41.3369 59.405 41.136 59.5626 40.9848C59.72 40.8334 59.9306 40.7578 60.1941 40.7578C60.4577 40.7578 60.6428 40.834 60.7826 40.9866C60.9226 41.1392 61.0032 41.3381 61.0251 41.5833H59.8478L59.8477 41.5831ZM60.3651 41.4277C60.4194 41.4277 60.4562 41.4202 60.475 41.4052C60.494 41.3902 60.5036 41.3595 60.5036 41.3132C60.5036 41.1879 60.4776 41.09 60.4261 41.0191C60.3744 40.9482 60.2918 40.9128 60.1776 40.9128C60.1179 40.9128 60.0669 40.9285 60.0249 40.9599C59.9828 40.9913 59.9488 41.0334 59.9231 41.0865C59.8973 41.1396 59.8782 41.1963 59.8661 41.2561C59.8539 41.3161 59.8478 41.3731 59.8478 41.4277H60.3652H60.3651Z" fill="#19588B"/>
<path d="M61.3528 41.7797C61.4316 41.9323 61.5321 42.055 61.6545 42.1476C61.7767 42.2402 61.9165 42.2864 62.074 42.2864C62.1389 42.2864 62.1933 42.2716 62.2369 42.2414C62.2804 42.2115 62.3021 42.1679 62.3021 42.1106C62.3021 42.0427 62.2694 41.9882 62.2044 41.9472C62.1391 41.9062 62.0358 41.8602 61.8948 41.8081C61.7996 41.7727 61.721 41.7407 61.6584 41.7122C61.5959 41.6836 61.5362 41.6481 61.4791 41.6059C61.422 41.5635 61.3759 41.5125 61.3407 41.4526C61.3053 41.3926 61.2878 41.3232 61.2878 41.2441C61.2878 41.1571 61.3033 41.0815 61.3346 41.0174C61.3657 40.9535 61.4078 40.903 61.4609 40.8662C61.5137 40.8295 61.5734 40.8023 61.6402 40.7845C61.7067 40.7668 61.7767 40.7578 61.8499 40.7578C61.9042 40.7578 61.9965 40.7687 62.1269 40.7906C62.2736 40.8179 62.3823 40.8316 62.4529 40.8316C62.4693 40.8316 62.4883 40.8289 62.51 40.8234L62.5425 41.33H62.4447C62.4204 41.2783 62.3876 41.2266 62.3469 41.1749C62.3062 41.1231 62.2615 41.0762 62.2126 41.0338C62.1637 40.9918 62.1105 40.9569 62.0536 40.9297C61.9965 40.9025 61.9394 40.8887 61.8825 40.8887C61.8143 40.8887 61.7594 40.9017 61.7173 40.9275C61.6753 40.9535 61.6543 40.9992 61.6543 41.0645C61.6543 41.1298 61.6868 41.1835 61.7519 41.2259C61.8172 41.2679 61.9176 41.315 62.0536 41.3668C62.1458 41.4023 62.2226 41.4342 62.2836 41.4629C62.345 41.4914 62.4039 41.5268 62.461 41.5692C62.5179 41.6112 62.5627 41.6618 62.5955 41.7204C62.6278 41.7788 62.6442 41.8462 62.6442 41.9226C62.6442 42.0125 62.6274 42.0895 62.5935 42.1535C62.5596 42.2174 62.5132 42.2686 62.455 42.3069C62.3966 42.345 62.3301 42.3729 62.2554 42.3907C62.1805 42.4083 62.1027 42.4171 62.021 42.4171C61.7632 42.4171 61.5213 42.3708 61.296 42.278L61.2593 41.7796H61.353L61.3528 41.7797Z" fill="#19588B"/>
<path d="M65.9843 40.5248H66.9252V40.6065C66.8383 40.6174 66.7699 40.6311 66.7194 40.6475C66.6692 40.6639 66.6264 40.6869 66.5912 40.717C66.5558 40.7469 66.5219 40.7879 66.4891 40.8397C66.4566 40.8915 66.416 40.9663 66.3669 41.0644L65.9921 41.7916C66.0845 41.9442 66.1931 42.0606 66.318 42.141C66.443 42.2214 66.5922 42.2642 66.7662 42.2697V42.3679C66.5924 42.357 66.3982 42.3515 66.1838 42.3515C65.9989 42.3515 65.8319 42.3568 65.6826 42.3679L65.6216 42.1841C65.5213 42.2603 65.403 42.321 65.2671 42.366C65.1314 42.4109 65.0025 42.4334 64.8803 42.4334C64.6357 42.4334 64.4388 42.3707 64.2894 42.2454C64.1401 42.12 64.0654 41.9293 64.0654 41.6733C64.0654 41.5536 64.0884 41.4467 64.1347 41.3525C64.1808 41.2587 64.2426 41.1782 64.32 41.1116C64.3975 41.0449 64.4857 40.9883 64.5847 40.942C64.6838 40.8957 64.7905 40.8576 64.9046 40.8275L64.8803 40.8111C64.7225 40.7131 64.6058 40.6232 64.5297 40.5415C64.4536 40.4598 64.4157 40.3494 64.4157 40.2104C64.4157 40.0607 64.4896 39.9362 64.6378 39.8367C64.7857 39.7373 64.9642 39.6875 65.1734 39.6875C65.3826 39.6875 65.5665 39.7385 65.7012 39.8408C65.8355 39.9432 65.9026 40.0704 65.9026 40.223C65.9026 40.3074 65.8865 40.383 65.8538 40.4497C65.8213 40.5163 65.7769 40.5737 65.7215 40.6212C65.6658 40.6689 65.6026 40.7085 65.532 40.7398C65.4614 40.7712 65.3839 40.799 65.2999 40.8236C65.4327 40.9027 65.5449 41.01 65.6359 41.1462C65.727 41.2827 65.8197 41.4502 65.9151 41.6489L65.923 41.6653C65.9502 41.619 65.9801 41.5619 66.0126 41.4937C66.0454 41.4256 66.0792 41.3506 66.1146 41.2689C66.1497 41.1872 66.1782 41.1124 66.2001 41.0442C66.2218 40.976 66.2329 40.9215 66.2329 40.8807C66.2329 40.7882 66.2143 40.7234 66.1779 40.6866C66.1412 40.6499 66.0766 40.6232 65.9843 40.6068V40.5251V40.5248ZM64.7539 41.9876C64.8654 42.1156 65.0133 42.1795 65.198 42.1795C65.3499 42.1795 65.4734 42.1375 65.5686 42.0529C65.5415 41.9929 65.4951 41.88 65.4302 41.7139C65.3377 41.4877 65.2595 41.3093 65.1959 41.1786C65.132 41.0477 65.0661 40.9607 64.9982 40.917C64.8517 40.9771 64.7465 41.0519 64.6826 41.1418C64.6187 41.2317 64.5869 41.3489 64.5869 41.4933C64.5869 41.6948 64.6427 41.8598 64.7539 41.9878V41.9876ZM64.9636 40.5248C65.0303 40.6147 65.1124 40.6856 65.2102 40.7372C65.3052 40.6772 65.3766 40.6092 65.4241 40.5328C65.4716 40.4566 65.4953 40.3599 65.4953 40.2427C65.4953 40.1255 65.4702 40.0378 65.42 39.9629C65.3697 39.8881 65.289 39.8506 65.1775 39.8506C65.0661 39.8506 64.9929 39.8873 64.9414 39.9608C64.8897 40.0343 64.864 40.1258 64.864 40.2345C64.864 40.3432 64.8973 40.4348 64.9638 40.5247L64.9636 40.5248Z" fill="#19588B"/>
<path d="M68.1285 42.2475C68.2288 42.2393 68.3078 42.2264 68.3646 42.2086C68.4216 42.1909 68.4637 42.1655 68.4909 42.133C68.518 42.1002 68.5358 42.056 68.5437 42.0002C68.5519 41.9445 68.5562 41.8661 68.5562 41.7653V40.2331C68.5562 40.1323 68.5519 40.0538 68.5437 39.9979C68.5358 39.9422 68.5173 39.898 68.4887 39.8652C68.4602 39.8324 68.4175 39.8074 68.3605 39.7896C68.3034 39.7719 68.2234 39.759 68.1201 39.7508V39.6527L68.2015 39.6609C68.397 39.6799 68.5422 39.6894 68.6374 39.6894C68.7326 39.6894 68.8927 39.6841 69.1099 39.673C69.3951 39.6566 69.6286 39.6484 69.8107 39.6484C69.9927 39.6484 70.1867 39.6799 70.3688 39.7426C70.5507 39.8053 70.7151 39.8986 70.8617 40.0224C71.0082 40.1464 71.1242 40.3004 71.2099 40.4842C71.2955 40.6679 71.3382 40.8743 71.3382 41.1032C71.3382 41.3156 71.301 41.5031 71.2263 41.6651C71.1514 41.8273 71.0474 41.9609 70.9146 42.0658C70.7814 42.1705 70.6287 42.249 70.4562 42.3006C70.2837 42.3524 70.0999 42.3781 69.9042 42.3781C69.812 42.3781 69.7331 42.3767 69.6678 42.3741C69.6028 42.3714 69.5088 42.3673 69.3868 42.362C69.2943 42.3564 69.2022 42.3524 69.1097 42.3495C69.0175 42.3468 68.9116 42.3456 68.7919 42.3456C68.5774 42.3456 68.3562 42.3509 68.128 42.362V42.2475H68.1285ZM69.1021 42.0267C69.1021 42.0976 69.1571 42.1494 69.2671 42.1819C69.3771 42.2147 69.5204 42.2311 69.6968 42.2311C70.0281 42.2311 70.2869 42.1324 70.4729 41.9349C70.6589 41.7374 70.7518 41.4451 70.7518 41.0583C70.7518 40.8758 70.7254 40.7076 70.6726 40.5536C70.6197 40.3998 70.5423 40.2662 70.4404 40.1532C70.3384 40.0403 70.2148 39.9525 70.0695 39.8898C69.9242 39.8271 69.7607 39.7957 69.5785 39.7957C69.4264 39.7957 69.2676 39.8174 69.1021 39.861V42.0269V42.0267Z" fill="#19588B"/>
<path d="M72.0717 41.5831C72.0717 41.7574 72.1213 41.8991 72.2204 42.0081C72.3194 42.1171 72.4547 42.1714 72.6257 42.1714C72.7234 42.1714 72.8177 42.1503 72.9088 42.1083C72.9999 42.0659 73.0752 42.0081 73.1349 41.9346L73.2326 42.0409C73.1267 42.1579 73.0023 42.2498 72.8599 42.3166C72.7174 42.3832 72.5699 42.4168 72.418 42.4168C72.1545 42.4168 71.9438 42.3412 71.7864 42.1901C71.6289 42.0389 71.5503 41.8379 71.5503 41.5874C71.5503 41.3369 71.6289 41.136 71.7864 40.9848C71.9438 40.8334 72.1544 40.7578 72.418 40.7578C72.6815 40.7578 72.8667 40.834 73.0067 40.9866C73.1464 41.1392 73.2272 41.3381 73.2492 41.5833H72.0717V41.5831ZM72.5891 41.4277C72.6434 41.4277 72.6802 41.4202 72.699 41.4052C72.718 41.3902 72.7275 41.3595 72.7275 41.3132C72.7275 41.1879 72.7017 41.09 72.6501 41.0191C72.5986 40.9482 72.5157 40.9128 72.4016 40.9128C72.3419 40.9128 72.2909 40.9285 72.2488 40.9599C72.2068 40.9913 72.1728 41.0334 72.1471 41.0865C72.1213 41.1396 72.1025 41.1963 72.09 41.2561C72.0779 41.3161 72.0718 41.3731 72.0718 41.4277H72.5892H72.5891Z" fill="#19588B"/>
<path d="M75.416 40.8862C75.356 40.8944 75.306 40.9129 75.2652 40.9415C75.2245 40.97 75.1741 41.0306 75.1143 41.1234C75.0546 41.216 74.9764 41.355 74.88 41.5401C74.7836 41.7255 74.6379 42.0143 74.4422 42.4064H74.2018C74.0577 42.0606 73.9445 41.795 73.8616 41.6097C73.7787 41.4243 73.7067 41.2807 73.6455 41.1786C73.5845 41.0763 73.5274 41.0043 73.4744 40.962C73.4216 40.9199 73.3598 40.8946 73.2891 40.8864V40.8047C73.5226 40.8156 73.6979 40.8211 73.8147 40.8211C73.9422 40.8211 74.1337 40.8158 74.3892 40.8047V40.8864C74.321 40.892 74.265 40.9081 74.22 40.9356C74.1754 40.9627 74.1529 41.0037 74.1529 41.0582C74.1529 41.0989 74.1719 41.1685 74.21 41.2665C74.248 41.3646 74.3037 41.4968 74.3769 41.6629C74.4176 41.761 74.4482 41.834 74.4686 41.8816C74.4889 41.9292 74.5032 41.9681 74.5114 41.9982C74.5275 41.9628 74.5642 41.8892 74.6213 41.7776C74.6567 41.7041 74.6899 41.6361 74.7211 41.5732C74.7525 41.5105 74.7816 41.448 74.8088 41.3853C74.836 41.3226 74.8577 41.2646 74.8738 41.2114C74.8902 41.1583 74.8984 41.1155 74.8984 41.0827C74.8984 41.0145 74.8799 40.9682 74.8434 40.9439C74.8067 40.9193 74.7504 40.9003 74.6743 40.8865V40.8048C74.791 40.8158 74.9228 40.8212 75.0695 40.8212C75.1481 40.8212 75.2637 40.8159 75.4158 40.8048V40.8865L75.416 40.8862Z" fill="#19588B"/>
<path d="M75.995 41.5831C75.995 41.7574 76.0446 41.8991 76.1438 42.0081C76.2428 42.1171 76.378 42.1714 76.549 42.1714C76.6468 42.1714 76.7411 42.1503 76.8321 42.1083C76.9232 42.0659 76.9985 42.0081 77.0582 41.9346L77.156 42.0409C77.05 42.1579 76.9257 42.2498 76.7833 42.3166C76.6407 42.3832 76.4933 42.4168 76.3413 42.4168C76.0779 42.4168 75.8672 42.3412 75.7097 42.1901C75.5523 42.0389 75.4736 41.8379 75.4736 41.5874C75.4736 41.3369 75.5523 41.136 75.7097 40.9848C75.8672 40.8334 76.0777 40.7578 76.3413 40.7578C76.6049 40.7578 76.7901 40.834 76.9301 40.9866C77.0697 41.1392 77.1505 41.3381 77.1725 41.5833H75.995V41.5831ZM76.5124 41.4277C76.5668 41.4277 76.6035 41.4202 76.6223 41.4052C76.6413 41.3902 76.6509 41.3595 76.6509 41.3132C76.6509 41.1879 76.6251 41.09 76.5734 41.0191C76.522 40.9482 76.4391 40.9128 76.3249 40.9128C76.2652 40.9128 76.2142 40.9285 76.1722 40.9599C76.1301 40.9913 76.0961 41.0334 76.0704 41.0865C76.0446 41.1396 76.0258 41.1963 76.0134 41.2561C76.0012 41.3161 75.9951 41.3731 75.9951 41.4277H76.5126H76.5124Z" fill="#19588B"/>
<path d="M78.1208 42.0405C78.1208 42.1304 78.148 42.1931 78.2022 42.2285C78.2567 42.264 78.3285 42.2816 78.4182 42.2816V42.3634H78.3858C78.2962 42.3578 78.2188 42.3539 78.1536 42.351C78.0883 42.3483 77.9959 42.347 77.8765 42.347C77.7487 42.347 77.6488 42.3483 77.577 42.351C77.5049 42.3537 77.4284 42.3578 77.3467 42.3634V42.2816C77.4337 42.2816 77.5041 42.264 77.5586 42.2285C77.613 42.1931 77.64 42.1304 77.64 42.0405V39.8625C77.64 39.77 77.6175 39.7046 77.5729 39.6663C77.528 39.6282 77.4554 39.6092 77.3549 39.6092V39.5275C77.5015 39.5219 77.6423 39.5119 77.7765 39.4969C77.911 39.4818 78.0256 39.4619 78.1207 39.4375V42.0405H78.1208Z" fill="#19588B"/>
<path d="M79.8716 40.8131C79.9858 40.8498 80.0883 40.9043 80.1794 40.9766C80.2702 41.0487 80.3415 41.1366 80.3933 41.24C80.4447 41.3434 80.4706 41.4592 80.4706 41.5872C80.4706 41.7152 80.4447 41.831 80.3933 41.9347C80.3415 42.0381 80.2702 42.1254 80.1794 42.1962C80.0883 42.2671 79.9858 42.3216 79.8716 42.3597C79.7576 42.3978 79.6395 42.4168 79.5174 42.4168C79.3953 42.4168 79.2769 42.3978 79.1629 42.3597C79.0487 42.3216 78.9463 42.2671 78.8552 42.1962C78.7641 42.1256 78.693 42.0383 78.6412 41.9347C78.5898 41.831 78.564 41.7155 78.564 41.5872C78.564 41.4589 78.5898 41.3434 78.6412 41.24C78.693 41.1366 78.7641 41.0486 78.8552 40.9766C78.9463 40.9043 79.0487 40.8498 79.1629 40.8131C79.2769 40.7763 79.395 40.7578 79.5174 40.7578C79.6398 40.7578 79.7578 40.7763 79.8716 40.8131ZM79.2403 42.0676C79.3272 42.1969 79.4332 42.2618 79.5581 42.2618C79.6721 42.2618 79.7617 42.2105 79.827 42.1084C79.892 42.0061 79.9248 41.8585 79.9248 41.665C79.9248 41.4198 79.8812 41.2332 79.7942 41.1052C79.7073 40.9772 79.6014 40.9131 79.4764 40.9131C79.3624 40.9131 79.2728 40.9641 79.2075 41.0665C79.1426 41.1685 79.1099 41.3164 79.1099 41.5096C79.1099 41.7523 79.1532 41.9381 79.2402 42.0674L79.2403 42.0676Z" fill="#19588B"/>
<path d="M81.8325 43.3092C81.5173 43.2983 81.2809 43.2928 81.1235 43.2928C81.0067 43.2928 80.8317 43.2981 80.5979 43.3092V43.2275C80.7067 43.2248 80.7773 43.1955 80.8098 43.1395C80.8423 43.0836 80.8587 43.0107 80.8587 42.9209V41.1025C80.8587 40.9663 80.7691 40.8981 80.5898 40.8981V40.8164C80.7283 40.8111 80.864 40.8008 80.9972 40.7858C81.13 40.7707 81.2444 40.7509 81.3392 40.7266V40.9595C81.4425 40.8832 81.5389 40.8293 81.6285 40.7981C81.718 40.7666 81.8105 40.751 81.9055 40.751C82.0223 40.751 82.1316 40.7717 82.2333 40.8123C82.3354 40.8533 82.4228 40.911 82.4961 40.986C82.5696 41.0612 82.6267 41.1495 82.6674 41.2519C82.7081 41.3539 82.7284 41.4637 82.7284 41.5806C82.7284 41.8286 82.6489 42.0219 82.4899 42.1608C82.3309 42.2999 82.1307 42.3693 81.889 42.3693C81.7668 42.3693 81.6623 42.3623 81.5755 42.3486C81.4885 42.3351 81.4098 42.3105 81.3391 42.2752V42.7411C81.3391 42.8474 81.3465 42.9304 81.3616 42.9902C81.3763 43.0502 81.4009 43.0958 81.4347 43.1272C81.4686 43.1586 81.5161 43.1809 81.5774 43.1946C81.6385 43.2081 81.7232 43.2192 81.8321 43.2274V43.3091L81.8325 43.3092ZM81.3395 41.8056C81.3395 41.9361 81.3728 42.0369 81.4394 42.1078C81.5059 42.1787 81.6137 42.2141 81.7633 42.2141C81.9128 42.2141 82.015 42.1631 82.0789 42.0608C82.1425 41.9588 82.1746 41.8013 82.1746 41.5888C82.1746 41.3762 82.1425 41.2144 82.0789 41.1107C82.015 41.0073 81.9098 40.9554 81.7633 40.9554C81.6816 40.9554 81.5982 40.9834 81.5126 41.0392C81.427 41.095 81.3695 41.1542 81.3394 41.217V41.8054L81.3395 41.8056Z" fill="#19588B"/>
<path d="M83.4647 41.5831C83.4647 41.7574 83.5144 41.8991 83.6135 42.0081C83.7125 42.1171 83.8478 42.1714 84.0187 42.1714C84.1165 42.1714 84.2108 42.1503 84.3019 42.1083C84.393 42.0659 84.4683 42.0081 84.5279 41.9346L84.6257 42.0409C84.5197 42.1579 84.3954 42.2498 84.253 42.3166C84.1104 42.3832 83.963 42.4168 83.811 42.4168C83.5476 42.4168 83.3369 42.3412 83.1794 42.1901C83.022 42.0389 82.9434 41.8379 82.9434 41.5874C82.9434 41.3369 83.022 41.136 83.1794 40.9848C83.3369 40.8334 83.5475 40.7578 83.811 40.7578C84.0746 40.7578 84.2598 40.834 84.3998 40.9866C84.5395 41.1392 84.6202 41.3381 84.6423 41.5833H83.4647V41.5831ZM83.9821 41.4277C84.0365 41.4277 84.0732 41.4202 84.0921 41.4052C84.111 41.3902 84.1206 41.3595 84.1206 41.3132C84.1206 41.1879 84.0948 41.09 84.0432 41.0191C83.9917 40.9482 83.9088 40.9128 83.7946 40.9128C83.735 40.9128 83.684 40.9285 83.6419 40.9599C83.5998 40.9913 83.5658 41.0334 83.5402 41.0865C83.5144 41.1396 83.4955 41.1963 83.4831 41.2561C83.4709 41.3161 83.4649 41.3731 83.4649 41.4277H83.9823H83.9821Z" fill="#19588B"/>
<path d="M85.5431 41.9949C85.5431 42.093 85.5738 42.1639 85.6348 42.2073C85.6958 42.2509 85.7983 42.2755 85.9426 42.2808V42.3626H85.9301C85.6858 42.3517 85.4998 42.3462 85.372 42.3462C85.2442 42.3462 85.0585 42.3516 84.8139 42.3626H84.8018V42.2808C84.8939 42.2755 84.9647 42.2501 85.0135 42.2052C85.0624 42.1603 85.0867 42.0903 85.0867 41.9948V41.1855C85.0867 41.0904 85.0624 41.0195 85.0135 40.9731C84.9647 40.9268 84.8939 40.9026 84.8018 40.8997V40.818C84.8371 40.818 84.8857 40.8153 84.9484 40.8098C85.0107 40.8045 85.0834 40.7969 85.1663 40.7873C85.2492 40.7778 85.3258 40.7682 85.3966 40.7588C85.467 40.7492 85.5159 40.7416 85.5431 40.736V41.0222C85.573 40.9976 85.5975 40.9772 85.6166 40.9609C85.7224 40.8736 85.8147 40.8075 85.8937 40.7627C85.9723 40.7178 86.0592 40.6953 86.1543 40.6953C86.2495 40.6953 86.3214 40.726 86.3622 40.7873C86.4029 40.8487 86.4232 40.942 86.4232 41.0671L86.3173 41.1163C86.2169 41.1626 86.1387 41.1994 86.083 41.2265C86.0273 41.2539 85.9832 41.2771 85.9506 41.2961L85.9017 41.2633C85.9263 41.2469 85.9498 41.2258 85.9731 41.1998C85.9963 41.174 86.0077 41.1488 86.0077 41.1242C86.0077 41.029 85.9559 40.9812 85.853 40.9812C85.8149 40.9812 85.7619 41.0025 85.694 41.0447C85.6259 41.087 85.5759 41.1298 85.5431 41.1734V41.9948V41.9949Z" fill="#19588B"/>
<path d="M86.7076 41.7797C86.7864 41.9323 86.8869 42.055 87.009 42.1476C87.1314 42.2402 87.271 42.2864 87.4288 42.2864C87.4938 42.2864 87.5481 42.2716 87.5917 42.2414C87.635 42.2115 87.6567 42.1679 87.6567 42.1106C87.6567 42.0427 87.6242 41.9882 87.5591 41.9472C87.4938 41.9062 87.3905 41.8602 87.2495 41.8081C87.1543 41.7727 87.0756 41.7407 87.0131 41.7122C86.9505 41.6836 86.8907 41.6481 86.8338 41.6059C86.7767 41.5635 86.7306 41.5125 86.6953 41.4526C86.66 41.3926 86.6422 41.3232 86.6422 41.2441C86.6422 41.1571 86.6578 41.0815 86.6893 41.0174C86.7204 40.9535 86.7624 40.903 86.8154 40.8662C86.8686 40.8295 86.9282 40.8023 86.9947 40.7845C87.0614 40.7668 87.1314 40.7578 87.2047 40.7578C87.259 40.7578 87.3514 40.7687 87.4818 40.7906C87.6284 40.8179 87.7371 40.8316 87.8077 40.8316C87.8238 40.8316 87.8428 40.8289 87.8647 40.8234L87.8975 41.33H87.7997C87.7751 41.2783 87.7426 41.2266 87.7019 41.1749C87.6612 41.1231 87.6163 41.0762 87.5674 41.0338C87.5187 40.9918 87.4657 40.9569 87.4084 40.9297C87.3515 40.9025 87.2944 40.8887 87.2373 40.8887C87.1695 40.8887 87.1145 40.9017 87.0723 40.9275C87.0303 40.9535 87.0091 40.9992 87.0091 41.0645C87.0091 41.1298 87.0419 41.1835 87.1069 41.2259C87.1722 41.2679 87.2726 41.315 87.4083 41.3668C87.5007 41.4023 87.5774 41.4342 87.6386 41.4629C87.6996 41.4914 87.7588 41.5268 87.8158 41.5692C87.8729 41.6112 87.9178 41.6618 87.9503 41.7204C87.9828 41.7788 87.9992 41.8462 87.9992 41.9226C87.9992 42.0125 87.982 42.0895 87.9482 42.1535C87.9143 42.2174 87.8682 42.2686 87.8097 42.3069C87.7514 42.345 87.6848 42.3729 87.6101 42.3907C87.5354 42.4083 87.4573 42.4171 87.3758 42.4171C87.1177 42.4171 86.8762 42.3708 86.6507 42.278L86.6143 41.7796H86.7079L86.7076 41.7797Z" fill="#19588B"/>
<path d="M87.9991 38.2969H48.8452V38.6386H87.9991V38.2969Z" fill="#19588B"/>
</g>
<defs>
<filter id="filter0_d_1850_79911" x="0.875" y="0.65625" width="115.25" height="66.25" filterUnits="userSpaceOnUse" color-interpolation-filters="sRGB">
<feFlood flood-opacity="0" result="BackgroundImageFix"/>
<feColorMatrix in="SourceAlpha" type="matrix" values="0 0 0 0 0 0 0 0 0 0 0 0 0 0 0 0 0 0 127 0" result="hardAlpha"/>
<feOffset dy="0.78125"/>
<feGaussianBlur stdDeviation="1.5625"/>
<feComposite in2="hardAlpha" operator="out"/>
<feColorMatrix type="matrix" values="0 0 0 0 0 0 0 0 0 0 0 0 0 0 0 0 0 0 0.08 0"/>
<feBlend mode="normal" in2="BackgroundImageFix" result="effect1_dropShadow_1850_79911"/>
<feBlend mode="normal" in="SourceGraphic" in2="effect1_dropShadow_1850_79911" result="shape"/>
</filter>
</defs>
</svg>
