<svg width="117" height="67" viewBox="0 0 117 67" fill="none" xmlns="http://www.w3.org/2000/svg">
<g filter="url(#filter0_d_1850_101951)">
<rect width="109" height="60" transform="translate(4 3)" fill="white"/>
<path d="M73.5936 15.8953C73.3154 16.6393 72.4866 17.0167 71.7429 16.7386C70.9988 16.4605 70.6215 15.6316 70.8996 14.8879C71.1777 14.1438 72.0061 13.7665 72.7502 14.0446C73.4943 14.3227 73.8717 15.1516 73.5936 15.8953Z" fill="#0F2E33"/>
<path d="M61.3295 18.3944C61.2695 18.5546 61.0914 18.6355 60.9313 18.5759C60.7711 18.5158 60.6902 18.3378 60.7498 18.1776C60.8099 18.0175 60.9879 17.9365 61.1481 17.9962C61.3082 18.0562 61.3891 18.2343 61.3295 18.3944Z" fill="#0F2E33"/>
<path d="M69.0766 25.0819C69.0165 25.2421 68.8385 25.323 68.6783 25.2634C68.5182 25.2033 68.4373 25.0253 68.4969 24.8651C68.557 24.705 68.735 24.624 68.8951 24.6837C69.0553 24.7437 69.1362 24.9218 69.0766 25.0819Z" fill="#0F2E33"/>
<path d="M66.4831 23.4882C66.423 23.6483 66.245 23.7292 66.0848 23.6696C65.9247 23.6095 65.8438 23.4315 65.9034 23.2714C65.9634 23.1112 66.1415 23.0303 66.3016 23.0899C66.4618 23.15 66.5427 23.328 66.4831 23.4882Z" fill="#0F2E33"/>
<path d="M69.988 31.035C69.9279 31.1952 69.7499 31.2761 69.5897 31.2165C69.4296 31.1564 69.3486 30.9784 69.4083 30.8182C69.4683 30.6581 69.6464 30.5772 69.8065 30.6368C69.9667 30.6968 70.0476 30.8749 69.988 31.035Z" fill="#0F2E33"/>
<path d="M53.2938 38.4031C53.2082 38.6323 52.9527 38.7486 52.7235 38.663C52.4944 38.5773 52.3781 38.3218 52.4637 38.0926C52.5493 37.8635 52.8049 37.7472 53.034 37.8328C53.2632 37.9184 53.3794 38.174 53.2938 38.4031Z" fill="#0F2E33"/>
<path d="M63.4383 20.1671C63.3224 20.4764 62.9779 20.6335 62.6686 20.5177C62.3594 20.4018 62.2022 20.0572 62.3177 19.748C62.4335 19.4388 62.7781 19.2816 63.0873 19.3975C63.3965 19.5133 63.5537 19.8579 63.4379 20.1671" fill="#0F2E33"/>
<path d="M47.7095 33.6984C47.5937 34.0076 47.2491 34.1648 46.9399 34.0489C46.6307 33.9331 46.4735 33.5885 46.5889 33.2793C46.7048 32.9701 47.0493 32.8129 47.3586 32.9287C47.6678 33.0446 47.825 33.3892 47.7091 33.6984" fill="#0F2E33"/>
<path d="M66.2579 36.0343C66.142 36.3435 65.7974 36.5007 65.4882 36.3849C65.179 36.269 65.0218 35.9244 65.1373 35.6152C65.2531 35.306 65.5977 35.1488 65.9069 35.2647C66.2161 35.3805 66.3733 35.7251 66.2574 36.0343" fill="#0F2E33"/>
<path d="M61.314 38.44C61.2944 38.492 61.2369 38.518 61.185 38.4988C61.133 38.4792 61.107 38.4217 61.1262 38.3698C61.1458 38.3178 61.2033 38.2918 61.2552 38.311C61.3072 38.3306 61.3336 38.3881 61.314 38.44Z" fill="#0F2E33"/>
<path d="M51.7466 37.4322C51.727 37.4842 51.6695 37.5102 51.6176 37.491C51.5656 37.4714 51.5396 37.4139 51.5588 37.362C51.5784 37.31 51.6359 37.284 51.6878 37.3032C51.7398 37.3228 51.7662 37.3803 51.7466 37.4322Z" fill="#0F2E33"/>
<path d="M68.4517 32.1197C68.4321 32.1717 68.3746 32.1977 68.3226 32.1785C68.2707 32.1589 68.2447 32.1014 68.2639 32.0495C68.2835 31.9975 68.341 31.9715 68.3929 31.9907C68.4449 32.0103 68.4709 32.0678 68.4517 32.1197Z" fill="#0F2E33"/>
<path d="M67.6656 29.94C67.646 29.992 67.5885 30.018 67.5365 29.9988C67.4845 29.9792 67.4586 29.9217 67.4777 29.8698C67.4973 29.8178 67.5548 29.7918 67.6068 29.811C67.6588 29.8306 67.6852 29.8881 67.6656 29.94Z" fill="#0F2E33"/>
<path d="M66.2996 23.4355C66.1122 23.9368 65.9184 24.3274 65.8664 24.3078C65.8144 24.2882 65.9243 23.8665 66.1122 23.3652C66.2996 22.8639 66.4934 22.4733 66.5453 22.4929C66.5973 22.5125 66.4874 22.9342 66.3 23.4355" fill="#0F2E33"/>
<path d="M57.9502 17.4244C57.9306 17.4764 57.8731 17.5024 57.8212 17.4832C57.7692 17.4636 57.7432 17.4061 57.7624 17.3541C57.782 17.3022 57.8395 17.2762 57.8915 17.2954C57.9434 17.315 57.9698 17.3725 57.9502 17.4244Z" fill="#0F2E33"/>
<path d="M48.7229 24.9088C48.7033 24.9608 48.6458 24.9867 48.5939 24.9676C48.5419 24.948 48.5159 24.8905 48.5351 24.8385C48.5547 24.7866 48.6122 24.7606 48.6642 24.7797C48.7161 24.7993 48.7425 24.8568 48.7229 24.9088Z" fill="#0F2E33"/>
<path d="M48.2817 23.1053C48.2216 23.2655 48.0436 23.3464 47.8834 23.2868C47.7233 23.2267 47.6423 23.0487 47.702 22.8885C47.762 22.7284 47.9401 22.6475 48.1002 22.7071C48.2604 22.7672 48.3413 22.9452 48.2817 23.1053Z" fill="#0F2E33"/>
<path d="M66.3954 34.1913C66.3354 34.3514 66.1573 34.4324 65.9972 34.3727C65.837 34.3127 65.7561 34.1346 65.8157 33.9745C65.8758 33.8143 66.0538 33.7334 66.214 33.793C66.3741 33.8527 66.4551 34.0311 66.3954 34.1913Z" fill="#0F2E33"/>
<path d="M55.9035 17.6202C55.8715 17.7054 55.777 17.7485 55.6922 17.7165C55.6075 17.6846 55.564 17.59 55.596 17.5052C55.6279 17.4201 55.7225 17.377 55.8072 17.409C55.892 17.4409 55.9354 17.5355 55.9035 17.6202Z" fill="#0F2E33"/>
<path d="M51.2848 19.1437C51.2529 19.2289 51.1583 19.2719 51.0736 19.2399C50.9888 19.208 50.9454 19.1134 50.9773 19.0287C51.0092 18.9435 51.1038 18.9005 51.1886 18.9324C51.2733 18.9644 51.3168 19.0589 51.2848 19.1437Z" fill="#0F2E33"/>
<path d="M52.184 21.5031C52.152 21.5882 52.0575 21.6313 51.9727 21.5993C51.888 21.5674 51.8445 21.4728 51.8765 21.3881C51.9084 21.3029 52.003 21.2599 52.0877 21.2918C52.1725 21.3237 52.2159 21.4183 52.184 21.5031Z" fill="#0F2E33"/>
<path d="M49.7597 20.3234C49.7277 20.4086 49.6332 20.4516 49.5484 20.4196C49.4637 20.3877 49.4202 20.2931 49.4522 20.2084C49.4841 20.1232 49.5787 20.0802 49.6634 20.1121C49.7482 20.1441 49.7916 20.2386 49.7597 20.3234Z" fill="#0F2E33"/>
<path d="M47.1388 27.2843C47.1069 27.3695 47.0123 27.4125 46.9276 27.3806C46.8428 27.3486 46.7994 27.2541 46.8313 27.1693C46.8632 27.0841 46.9578 27.0411 47.0426 27.0731C47.1273 27.105 47.1708 27.1996 47.1388 27.2843Z" fill="#0F2E33"/>
<path d="M67.5612 26.9249C67.5292 27.0101 67.4347 27.0531 67.3499 27.0212C67.2652 26.9893 67.2217 26.8947 67.2537 26.8099C67.2856 26.7247 67.3802 26.6817 67.4649 26.7137C67.5497 26.7456 67.5931 26.8402 67.5612 26.9249Z" fill="#0F2E33"/>
<path d="M68.7763 27.6124C68.7443 27.6976 68.6498 27.7406 68.565 27.7087C68.4803 27.6768 68.4368 27.5822 68.4688 27.4974C68.5007 27.4122 68.5953 27.3692 68.68 27.4012C68.7648 27.4331 68.8082 27.5277 68.7763 27.6124Z" fill="#0F2E33"/>
<path d="M68.7763 31.2921C68.7443 31.3768 68.6498 31.4203 68.565 31.3883C68.4803 31.3564 68.4368 31.2618 68.4688 31.1771C68.5007 31.0923 68.5953 31.0489 68.68 31.0808C68.7648 31.1128 68.8082 31.2073 68.7763 31.2921Z" fill="#0F2E33"/>
<path d="M63.5055 36.3155C63.4736 36.4003 63.379 36.4437 63.2943 36.4118C63.2095 36.3798 63.1661 36.2853 63.198 36.2005C63.2299 36.1158 63.3245 36.0723 63.4093 36.1043C63.494 36.1362 63.5375 36.2308 63.5055 36.3155Z" fill="#0F2E33"/>
<path d="M57.7006 38.003C57.6686 38.0878 57.5741 38.1312 57.4893 38.0993C57.4046 38.0678 57.3611 37.9728 57.3931 37.888C57.425 37.8033 57.5196 37.7598 57.6043 37.7918C57.6891 37.8237 57.7325 37.9182 57.7006 38.003Z" fill="#0F2E33"/>
<path d="M50.5207 28.1863C50.3316 28.6915 49.769 28.9479 49.2638 28.7588C48.7587 28.5697 48.5023 28.007 48.6914 27.5019C48.8805 26.9967 49.4431 26.7403 49.9483 26.9294C50.4534 27.1185 50.7098 27.6812 50.5207 28.1863Z" fill="#0F2E33"/>
<path d="M57.8466 36.9036C56.8716 36.9036 55.8818 36.7324 54.9162 36.3716C50.5824 34.751 48.3752 29.9065 49.9959 25.5731C50.7809 23.4738 52.3368 21.8058 54.3761 20.8769C56.4159 19.9475 58.695 19.8683 60.7944 20.6533C62.8938 21.4383 64.5617 22.9937 65.4911 25.0335C66.4204 27.0733 66.4997 29.3524 65.7147 31.4518C64.4552 34.82 61.2476 36.9041 57.8466 36.9041M57.8517 20.4037C56.7081 20.4037 55.5674 20.649 54.4954 21.1376C52.5255 22.035 51.0232 23.6463 50.2646 25.6737C48.6994 29.8592 50.8311 34.538 55.0167 36.1033C59.2023 37.6686 63.8811 35.5368 65.4464 31.3513C66.2045 29.3239 66.1278 27.1222 65.2304 25.1523C64.333 23.1824 62.7217 21.6798 60.6943 20.9216C59.77 20.5758 58.8096 20.4037 57.8517 20.4037Z" fill="#0F2E33"/>
<path d="M46.3223 40.6357C46.3078 40.6357 46.2938 40.6305 46.2827 40.6199C46.2597 40.5982 46.2588 40.562 46.281 40.539L69.3474 16.4162C69.3692 16.3932 69.4058 16.3924 69.4284 16.4145C69.4514 16.4367 69.4522 16.4729 69.4301 16.4955L46.364 40.6182C46.3525 40.6301 46.3376 40.6357 46.3227 40.6357" fill="#0F2E33"/>
<path d="M46.3224 40.6755C46.2973 40.6755 46.2734 40.6662 46.2555 40.6487C46.2168 40.6116 46.2155 40.5503 46.2525 40.5116L69.319 16.3892C69.3369 16.3705 69.3612 16.3599 69.3871 16.3594C69.4131 16.3586 69.4374 16.3684 69.4561 16.3863C69.4949 16.4233 69.4962 16.4846 69.4591 16.5234L46.3927 40.6457C46.3744 40.6649 46.3488 40.6755 46.3228 40.6755M69.3888 16.4386C69.3859 16.4386 69.3808 16.4395 69.3761 16.4442L46.3096 40.5665C46.3028 40.5737 46.3032 40.5848 46.31 40.5916C46.3181 40.5993 46.3254 40.6014 46.3352 40.5912L69.4016 16.4685C69.4084 16.4616 69.408 16.4501 69.4012 16.4433C69.3969 16.4391 69.3918 16.4386 69.3888 16.4386Z" fill="#0F2E33"/>
<path d="M58.9641 29.3444C58.9497 29.3444 58.9356 29.3393 58.9245 29.3286C58.9015 29.3069 58.9007 29.2707 58.9228 29.2477L74.2029 13.2678C74.2246 13.2448 74.2613 13.2439 74.2839 13.2661C74.3069 13.2878 74.3077 13.324 74.2856 13.347L59.0059 29.3265C58.9944 29.3384 58.9795 29.3439 58.9646 29.3439" fill="#0F2E33"/>
<path d="M58.9644 29.3842C58.9392 29.3842 58.9154 29.3749 58.8975 29.3574C58.8788 29.3395 58.8681 29.3157 58.8677 29.2897C58.8673 29.2637 58.8766 29.2394 58.8945 29.2207L74.1742 13.2408C74.1921 13.2221 74.2164 13.2114 74.2423 13.211C74.2679 13.2101 74.2926 13.2199 74.3113 13.2378C74.3301 13.2557 74.3407 13.28 74.3412 13.3055C74.3416 13.3315 74.3322 13.3558 74.3143 13.3745L59.0342 29.354C59.0159 29.3732 58.9904 29.3838 58.9639 29.3838M74.2445 13.2902C74.2406 13.2902 74.2364 13.2911 74.2317 13.2957L58.952 29.2752C58.9478 29.2799 58.9469 29.285 58.9469 29.288C58.9469 29.2905 58.9478 29.2961 58.9524 29.3003C58.9618 29.3093 58.9686 29.3089 58.9776 29.2999L74.2572 13.32C74.2615 13.3153 74.2624 13.3102 74.2619 13.3072C74.2619 13.3047 74.2611 13.2992 74.2564 13.2949C74.2521 13.2906 74.247 13.2898 74.244 13.2898" fill="#0F2E33"/>
<path d="M42.7556 42.1723C42.7416 42.1723 42.7271 42.1672 42.716 42.1566C42.693 42.1348 42.6922 42.0986 42.7143 42.0756L54.984 29.2442C55.0057 29.2212 55.0423 29.2208 55.0649 29.2425C55.0879 29.2642 55.0888 29.3004 55.0666 29.3234L42.797 42.1549C42.7855 42.1668 42.7706 42.1723 42.7556 42.1723Z" fill="#0F2E33"/>
<path d="M42.7557 42.2127C42.7306 42.2127 42.7068 42.2034 42.6889 42.1859C42.6501 42.1489 42.6488 42.0875 42.6859 42.0488L54.9555 29.2173C54.9734 29.1986 54.9977 29.1879 55.0237 29.1875C55.0501 29.1875 55.0744 29.1964 55.0927 29.2143C55.1315 29.2514 55.1327 29.3127 55.0957 29.3515L42.826 42.1829C42.8077 42.2021 42.7822 42.2127 42.7557 42.2127ZM55.0254 29.2667C55.0207 29.2667 55.016 29.2684 55.0126 29.2723L42.743 42.1037C42.7387 42.1084 42.7379 42.1135 42.7383 42.1165C42.7383 42.119 42.7391 42.1246 42.7438 42.1288C42.7519 42.1365 42.7592 42.1386 42.769 42.1284L55.0386 29.297C55.0454 29.2901 55.045 29.2786 55.0382 29.2718C55.0348 29.2684 55.0305 29.2671 55.0258 29.2671" fill="#0F2E33"/>
<path d="M52.3377 34.5186H52.051V22.375H63.5178V22.6616H52.3377V34.5186Z" fill="#0F2E33"/>
<path d="M57.856 28.375H52.1946V28.6616H57.856V28.375Z" fill="#0F2E33"/>
<path d="M63.5157 34.6589H57.7129V20.2656H57.9995V34.3723H63.5157V34.6589Z" fill="#0F2E33"/>
<path d="M57.8623 42.4616C56.2144 42.4616 54.5631 42.1656 52.9731 41.571C49.4861 40.2668 46.7154 37.6827 45.1719 34.2949C43.6283 30.9071 43.4963 27.1206 44.8005 23.6335C46.1046 20.1465 48.6887 17.3758 52.0765 15.8323C55.4644 14.2887 59.2508 14.1567 62.7379 15.4609C66.225 16.765 68.9956 19.3491 70.5392 22.7369C72.0827 26.1248 72.2147 29.9112 70.9106 33.3983C69.6064 36.8854 67.0223 39.656 63.6345 41.1996C61.7911 42.0395 59.8293 42.4616 57.8623 42.4616ZM57.8491 14.6848C55.898 14.6848 53.9527 15.1031 52.1242 15.9362C48.7641 17.467 46.2013 20.215 44.9082 23.6736C43.6147 27.1321 43.7454 30.887 45.2766 34.2472C46.8074 37.6073 49.5555 40.1701 53.0136 41.4632C60.153 44.1333 68.1335 40.4972 70.8037 33.3578C73.4738 26.2185 69.8377 18.2379 62.6983 15.5678C61.1219 14.9783 59.4834 14.6844 57.8495 14.6844" fill="#0F2E33"/>
<path d="M57.8623 42.5024C56.1931 42.5024 54.5439 42.2021 52.9594 41.6092C49.4622 40.3012 46.6838 37.7099 45.136 34.3122C43.5882 30.9146 43.4558 27.1175 44.7638 23.6207C46.0718 20.1234 48.6631 17.3451 52.0607 15.7968C55.4583 14.2486 59.2555 14.1165 62.7523 15.4246C66.2492 16.7326 69.0279 19.3239 70.5757 22.7215C72.1236 26.1191 72.256 29.9163 70.948 33.4131C69.6404 36.9104 67.0486 39.6887 63.651 41.2365C61.8081 42.076 59.8603 42.5019 57.8623 42.5019M57.8491 14.611C55.8873 14.611 53.9314 15.0319 52.0931 15.8697C48.7147 17.409 46.1382 20.1715 44.8375 23.6488C43.5371 27.126 43.6687 30.9014 45.208 34.2799C46.7473 37.6583 49.5099 40.2347 52.9871 41.5355C54.5626 42.1246 56.2029 42.4236 57.8623 42.4236C59.8488 42.4236 61.7855 42.0002 63.6182 41.1654C66.9967 39.6261 69.5735 36.8635 70.8739 33.3863C72.1742 29.909 72.0426 26.1336 70.5033 22.7552C68.964 19.3767 66.2015 16.8003 62.7242 15.4995C61.1393 14.9066 59.4923 14.6115 57.8491 14.6115M57.841 42.381C56.2306 42.381 54.5946 42.0986 52.9995 41.5019C49.5312 40.2049 46.7754 37.6345 45.24 34.265C43.7045 30.8955 43.5733 27.1294 44.8707 23.6611C46.1681 20.1928 48.7381 17.4371 52.1076 15.9016C53.9357 15.0689 55.8672 14.6464 57.8491 14.6464C59.5042 14.6464 61.1402 14.9445 62.7119 15.5319C69.8593 18.205 73.5061 26.1852 70.8543 33.3356L70.8709 33.342L70.8432 33.4161L70.8266 33.4097C68.7357 38.9531 63.4474 42.3806 57.841 42.3806M57.8491 14.7256C55.8787 14.7256 53.9582 15.1456 52.1408 15.9736C48.7905 17.5001 46.2349 20.2401 44.9452 23.6884C43.6555 27.1371 43.7858 30.8814 45.3128 34.2317C46.8393 37.5821 49.5793 40.1376 53.0276 41.4273C60.1465 44.0898 68.1041 40.4639 70.7666 33.345C73.429 26.226 69.8031 18.2685 62.6842 15.606C61.1215 15.0216 59.4948 14.7252 57.8491 14.7252" fill="#0F2E33"/>
<path d="M57.862 41.3012C56.3508 41.3012 54.8367 41.0298 53.3791 40.4847C50.1817 39.2887 47.6411 36.9192 46.2257 33.813C44.8104 30.7063 44.6894 27.2345 45.885 24.0371C47.081 20.8397 49.4504 18.299 52.5567 16.8837C55.6634 15.4683 59.1351 15.3474 62.3325 16.5429C65.53 17.7389 68.0706 20.1084 69.486 23.2146C70.9013 26.3213 71.0223 29.7931 69.8267 32.9905C68.6311 36.1879 66.2613 38.7286 63.155 40.1439C61.4645 40.914 59.6658 41.3012 57.862 41.3012ZM57.8497 15.8414C56.0621 15.8414 54.2796 16.2248 52.6044 16.988C49.5258 18.3906 47.1777 20.9087 45.9923 24.0771C43.5458 30.6185 46.8774 37.9308 53.4192 40.3773C59.9606 42.8238 67.2729 39.4923 69.7194 32.9505C70.9043 29.7816 70.7846 26.3409 69.382 23.2623C67.9795 20.1838 65.4614 17.8356 62.2929 16.6503C60.8486 16.1102 59.3472 15.841 57.8501 15.841" fill="#0F2E33"/>
<path d="M57.8621 41.3415C56.3313 41.3415 54.8184 41.066 53.3651 40.5225C50.1579 39.3231 47.6096 36.9464 46.1896 33.8299C44.7695 30.7138 44.6486 27.231 45.848 24.0238C47.0474 20.8162 49.424 18.2679 52.5405 16.8482C55.657 15.4282 59.1394 15.3072 62.3466 16.5067C65.5543 17.7061 68.1026 20.0827 69.5222 23.1992C70.9418 26.3153 71.0632 29.7981 69.8638 33.0053C68.6644 36.2125 66.2877 38.7609 63.1712 40.1809C61.4807 40.951 59.6944 41.3415 57.8621 41.3415ZM57.8497 15.7668C56.0514 15.7668 54.2587 16.1527 52.5733 16.9207C49.4764 18.3317 47.1142 20.8643 45.9225 24.0519C44.7303 27.2396 44.8509 30.7006 46.262 33.7975C47.6731 36.8944 50.2056 39.2566 53.3932 40.4484C54.8376 40.9884 56.3415 41.2623 57.8625 41.2623C59.6837 41.2623 61.459 40.8743 63.1388 40.1089C66.2358 38.6978 68.5979 36.1653 69.7901 32.9776C70.9823 29.79 70.8617 26.3289 69.4506 23.232C68.0396 20.1351 65.507 17.7729 62.3194 16.5808C60.8665 16.0373 59.3566 15.7668 57.8506 15.7668M57.842 41.2206C56.3662 41.2206 54.8665 40.9616 53.4052 40.4152C46.8433 37.961 43.5011 30.6261 45.9553 24.0643C47.1441 20.8856 49.4994 18.3599 52.5878 16.953C54.263 16.1898 56.0336 15.8026 57.8497 15.8026C59.3668 15.8026 60.8661 16.0756 62.3066 16.6144C65.4853 17.8032 68.011 20.1585 69.4178 23.2469C70.8251 26.3353 70.9452 29.7866 69.7565 32.9653C67.8492 38.0657 62.9928 41.221 57.8425 41.221M57.8497 15.8818C56.0451 15.8818 54.2856 16.2664 52.6206 17.025C49.5514 18.4233 47.2109 20.9333 46.0294 24.092C43.5906 30.6129 46.9119 37.9022 53.4328 40.341C54.8848 40.8841 56.376 41.1414 57.842 41.1414C62.9604 41.1418 67.7861 38.0065 69.6819 32.9372C70.8634 29.7785 70.7438 26.3485 69.3454 23.2793C67.9471 20.2101 65.4371 17.8696 62.2785 16.6881C60.8469 16.1527 59.3571 15.8814 57.8497 15.8814" fill="#0F2E33"/>
<path d="M66.2454 23.3097C66.7369 23.5214 67.1177 23.7339 67.0955 23.7846C67.0738 23.8353 66.6577 23.7054 66.1662 23.4937C65.6746 23.2824 65.2939 23.0695 65.3156 23.0188C65.3373 22.9681 65.7534 23.098 66.2454 23.3097Z" fill="#0F2E33"/>
<path d="M48.2687 31.3163C48.2087 31.4764 48.0306 31.5574 47.8705 31.4977C47.7103 31.4377 47.6294 31.2596 47.689 31.0995C47.7491 30.9393 47.9271 30.8584 48.0873 30.918C48.2474 30.9781 48.3284 31.1561 48.2687 31.3163Z" fill="#0F2E33"/>
<path d="M48.0857 31.2714C47.8983 31.7727 47.7045 32.1633 47.6525 32.1437C47.6006 32.1241 47.7105 31.7024 47.8983 31.2011C48.0857 30.6998 48.2795 30.3092 48.3315 30.3288C48.3834 30.3484 48.2735 30.7701 48.0861 31.2714" fill="#0F2E33"/>
<path d="M48.0313 31.1378C48.5228 31.3495 48.9036 31.562 48.8814 31.6127C48.8597 31.6634 48.4436 31.5335 47.952 31.3218C47.4605 31.1105 47.0797 30.8976 47.1015 30.8469C47.1232 30.7962 47.5393 30.9265 48.0313 31.1378Z" fill="#0F2E33"/>
<path d="M54.7945 18.8994C54.9282 19.1562 54.8286 19.4731 54.5717 19.6072C54.3145 19.741 53.998 19.6413 53.8638 19.3845C53.7301 19.1276 53.8298 18.8108 54.0866 18.6766C54.3434 18.5429 54.6603 18.6425 54.7945 18.8994Z" fill="#0F2E33"/>
<path d="M53.389 19.7178C53.323 19.7178 53.2774 19.7029 53.2612 19.6689C53.1892 19.5125 53.8277 19.1492 54.2745 18.9435C54.5658 18.8093 54.8491 18.7024 55.0718 18.6428C55.4385 18.5448 55.473 18.6198 55.4841 18.6441C55.4956 18.6688 55.5301 18.7433 55.2175 18.9584C55.0275 19.0892 54.7622 19.2353 54.4708 19.3694C54.122 19.53 53.6241 19.7178 53.3886 19.7178M55.3602 18.6509C55.3078 18.6509 55.2222 18.662 55.0872 18.6982C54.8674 18.7569 54.5875 18.8626 54.2988 18.9955C53.6032 19.3162 53.2876 19.5888 53.3136 19.645C53.3396 19.7012 53.7519 19.6382 54.4474 19.3179C54.7358 19.185 54.9981 19.0406 55.1855 18.9116C55.4092 18.7578 55.4398 18.6837 55.4326 18.6684C55.4292 18.6607 55.4096 18.6513 55.3602 18.6513" fill="#0F2E33"/>
<path d="M49.6131 45.5533V45.0703H52.9638V46.2075H52.4868L52.4685 45.5474H50.6707V46.9414H52.5051V47.4368H50.6707V48.8615H51.2516V49.3509H49.6067V48.8615H50.1387V45.5533H49.6131Z" fill="#0F2E33"/>
<path d="M58.5835 48.8615L58.6018 48.2013H59.0784V49.3504H55.7093V48.8674H56.217V45.5597H55.6851V45.0703H57.2563V45.5597H56.749V48.8615H58.5835Z" fill="#0F2E33"/>
<path d="M66.1045 47.2259C66.0985 48.3448 65.4013 49.4394 63.934 49.4394C62.4667 49.4394 61.7571 48.3512 61.7571 47.2259C61.7571 45.9847 62.5885 45 63.94 45C65.389 45.006 66.1105 46.0946 66.1045 47.2259ZM63.94 45.489C62.8517 45.489 62.2891 46.2901 62.2891 47.2255C62.2891 48.0939 62.8151 48.9377 63.94 48.9377C65.0648 48.9377 65.5725 48.0692 65.5725 47.2255C65.5785 46.357 65.0589 45.5009 63.94 45.489Z" fill="#0F2E33"/>
<path d="M45.9255 52.0012C45.9255 52.4211 46.2232 52.6456 46.5899 52.6456C46.6939 52.6456 46.7978 52.6192 46.8936 52.5659L46.963 52.6861C46.8387 52.7614 46.7122 52.7879 46.5878 52.7879C46.1269 52.7879 45.77 52.4982 45.77 52.0007C45.77 51.5033 46.1248 51.1953 46.5959 51.1953C47.067 51.1953 47.4175 51.4768 47.4175 51.9905C47.4175 52.1779 47.3626 52.3432 47.2565 52.4288C47.1343 52.5289 46.9486 52.4918 46.9528 52.3189C46.8813 52.4471 46.7122 52.5144 46.584 52.5144C46.2965 52.5144 46.0682 52.2963 46.0682 52.0088C46.0682 51.6868 46.2965 51.499 46.584 51.499C46.7228 51.499 46.8715 51.5723 46.9366 51.6928L46.9447 51.5501L47.0793 51.5625V52.2942C47.0793 52.3636 47.1509 52.3675 47.1854 52.3206C47.2488 52.2554 47.2752 52.1187 47.2752 51.9884C47.2752 51.5378 47.0163 51.332 46.5963 51.332C46.2232 51.332 45.9255 51.597 45.9255 52.0007M46.2292 52.0076C46.2292 52.232 46.374 52.3645 46.584 52.3645C46.8204 52.3645 46.9388 52.1911 46.9388 52.0037C46.9388 51.8163 46.8225 51.6489 46.5861 51.6489C46.374 51.6489 46.2292 51.7835 46.2292 52.008" fill="#0F2E33"/>
<path d="M49.4172 52.5871C48.9138 52.5871 48.6753 52.2404 48.6731 51.8613C48.6693 51.486 48.9159 51.1172 49.4172 51.1172C49.5825 51.1172 49.7473 51.1743 49.8819 51.2824C49.8819 51.3821 49.8798 51.4843 49.8777 51.584H49.7188L49.7128 51.3638C49.6208 51.3067 49.5212 51.2863 49.4172 51.2863C49.0318 51.2863 48.8482 51.5657 48.8503 51.8591C48.8546 52.1488 49.0318 52.418 49.4172 52.418C49.5578 52.418 49.7128 52.3609 49.8189 52.2548L49.9454 52.3749C49.8006 52.5176 49.611 52.5871 49.4172 52.5871Z" fill="#0F2E33"/>
<path d="M51.3453 52.5679V52.4048H51.5148V51.9175H50.7277V52.4048H50.8968V52.5679H50.375V52.4048H50.5522V51.3038H50.375V51.1406H50.8968V51.3038H50.7277V51.7586H51.5148V51.3038H51.3453V51.1406H51.8674V51.3038H51.692V52.4048H51.8674V52.5679H51.3453Z" fill="#0F2E33"/>
<path d="M53.2902 51.3038V51.1406H53.8183V51.3038H53.6492V51.9989C53.6492 52.3946 53.3822 52.596 53.07 52.596C52.7578 52.596 52.4826 52.3984 52.4826 51.9989V51.3038H52.3157V51.1406H52.8438V51.3038H52.6581V51.9989C52.6581 52.2842 52.8498 52.4312 53.07 52.4312C53.2902 52.4312 53.4759 52.2783 53.4759 51.9967V51.3033H53.2902V51.3038Z" fill="#0F2E33"/>
<path d="M54.619 52.4026H54.8209V52.5679H54.2664V52.4026H54.4418V51.3038H54.2646V51.1406H55.0679C55.3452 51.1406 55.5492 51.2876 55.5514 51.5729C55.5514 51.846 55.3721 52.0031 55.1029 52.0176L55.4168 52.4031H55.6106V52.5683H55.2149V52.4176L54.9031 52.0219H54.6199V52.4031L54.619 52.4026ZM55.0654 51.8685C55.2775 51.8685 55.3712 51.7523 55.3733 51.5789C55.3733 51.4056 55.249 51.3038 55.0675 51.3038H54.619V51.8685H55.0654Z" fill="#0F2E33"/>
<path d="M56.7937 52.5871C56.2903 52.5871 56.0517 52.2404 56.0496 51.8613C56.0454 51.486 56.2924 51.1172 56.7937 51.1172C56.959 51.1172 57.1238 51.1743 57.2584 51.2824C57.2584 51.3821 57.2563 51.4843 57.2541 51.584H57.0953L57.0893 51.3638C56.9973 51.3067 56.8976 51.2863 56.7937 51.2863C56.4082 51.2863 56.2247 51.5657 56.2268 51.8591C56.2311 52.1488 56.4082 52.418 56.7937 52.418C56.9343 52.418 57.0893 52.3609 57.1954 52.2548L57.3219 52.3749C57.177 52.5176 56.9875 52.5871 56.7937 52.5871Z" fill="#0F2E33"/>
<path d="M58.722 52.5679V52.4048H58.8915V51.9175H58.1044V52.4048H58.2735V52.5679H57.7517V52.4048H57.9289V51.3038H57.7517V51.1406H58.2735V51.3038H58.1044V51.7586H58.8915V51.3038H58.722V51.1406H59.2442V51.3038H59.0687V52.4048H59.2442V52.5679H58.722Z" fill="#0F2E33"/>
<path d="M61.5574 51.2803C61.5574 51.3842 61.5553 51.4596 61.5553 51.5636H61.3981L61.39 51.3574C61.2942 51.2982 61.1617 51.2739 61.0518 51.2739C60.8725 51.2739 60.6868 51.3455 60.6868 51.5167C60.6868 51.6756 60.8559 51.7207 61.0621 51.7552C61.3517 51.7999 61.6413 51.8634 61.6413 52.1752C61.6392 52.5074 61.3232 52.6015 61.0501 52.6015C60.844 52.6015 60.6711 52.5504 60.5118 52.4077V52.1245H60.6728L60.6809 52.3243C60.781 52.3958 60.9253 52.4363 61.0518 52.4363C61.2273 52.4363 61.4637 52.3873 61.4637 52.1752C61.4658 51.9797 61.1907 51.9409 61.0416 51.9184C60.7686 51.8758 60.5118 51.8063 60.5118 51.5129C60.5075 51.2173 60.8014 51.1172 61.048 51.1172C61.2375 51.1172 61.4049 51.1538 61.5578 51.2803" fill="#0F2E33"/>
<path d="M62.2195 51.2999L62.2136 51.5201H62.0564V51.1406H63.2349V51.5201H63.0778L63.0697 51.2999H62.7332V52.4048H62.9168V52.5679H62.3724V52.4048H62.5581V51.2999H62.2195Z" fill="#0F2E33"/>
<path d="M64.0277 52.4026H64.2296V52.5679H63.675V52.4026H63.8505V51.3038H63.6733V51.1406H64.4766C64.7539 51.1406 64.9579 51.2876 64.9601 51.5729C64.9601 51.846 64.7807 52.0031 64.5116 52.0176L64.8255 52.4031H65.0193V52.5683H64.6236V52.4176L64.3118 52.0219H64.0286V52.4031L64.0277 52.4026ZM64.4741 51.8685C64.6862 51.8685 64.7799 51.7523 64.782 51.5789C64.782 51.4056 64.6577 51.3038 64.4762 51.3038H64.0277V51.8685H64.4741Z" fill="#0F2E33"/>
<path d="M65.4626 52.5679V52.4048H65.6398V51.3021H65.4665V51.1406H66.6288V51.5201H66.4695L66.4636 51.3038H65.8153V51.7586H66.4657V51.9235H65.8153V52.4009H66.4942L66.5002 52.1824H66.6595V52.5679H65.4626Z" fill="#0F2E33"/>
<path d="M67.1318 52.5679V52.4048H67.3094V51.3021H67.1361V51.1406H68.298V51.5201H68.1392L68.1332 51.3038H67.4845V51.7586H68.1349V51.9235H67.4845V52.4009H68.1634L68.1698 52.1824H68.3287V52.5679H67.1318Z" fill="#0F2E33"/>
<path d="M68.9258 51.2999L68.9194 51.5201H68.7627V51.1406H69.9408V51.5201H69.7841L69.776 51.2999H69.4395V52.4048H69.6231V52.5679H69.0787V52.4048H69.264V51.2999H68.9258Z" fill="#0F2E33"/>
</g>
<defs>
<filter id="filter0_d_1850_101951" x="0.875" y="0.65625" width="115.25" height="66.25" filterUnits="userSpaceOnUse" color-interpolation-filters="sRGB">
<feFlood flood-opacity="0" result="BackgroundImageFix"/>
<feColorMatrix in="SourceAlpha" type="matrix" values="0 0 0 0 0 0 0 0 0 0 0 0 0 0 0 0 0 0 127 0" result="hardAlpha"/>
<feOffset dy="0.78125"/>
<feGaussianBlur stdDeviation="1.5625"/>
<feComposite in2="hardAlpha" operator="out"/>
<feColorMatrix type="matrix" values="0 0 0 0 0 0 0 0 0 0 0 0 0 0 0 0 0 0 0.08 0"/>
<feBlend mode="normal" in2="BackgroundImageFix" result="effect1_dropShadow_1850_101951"/>
<feBlend mode="normal" in="SourceGraphic" in2="effect1_dropShadow_1850_101951" result="shape"/>
</filter>
</defs>
</svg>
