<svg width="117" height="67" viewBox="0 0 117 67" fill="none" xmlns="http://www.w3.org/2000/svg">
<g filter="url(#filter0_d_1850_102035)">
<rect width="109" height="60" transform="translate(4 3)" fill="white"/>
<path d="M39.4265 31.6485C39.3243 31.3384 39.1761 31.0384 38.9812 30.7527C38.6713 30.2984 38.2612 29.9028 37.7622 29.5758C37.2453 29.2377 36.6563 28.9886 36.0097 28.8364C35.5472 28.7274 35.0699 28.6719 34.592 28.6719C34.0598 28.6719 33.5321 28.7401 33.0248 28.8741C32.5246 29.0065 32.0556 29.1995 31.6314 29.4485C31.6052 29.4638 31.5797 29.4791 31.5541 29.4948L31.5586 29.4908C30.1728 30.3056 29.2739 31.6159 29.2739 33.0933C29.2739 33.5974 29.3787 34.0817 29.5716 34.534C29.6681 34.7789 29.7946 35.0162 29.9505 35.2449C30.2604 35.6991 30.6705 36.0948 31.1689 36.4218C31.6857 36.7599 32.2754 37.009 32.9213 37.1612C33.3845 37.2702 33.8611 37.3257 34.3397 37.3257C34.8725 37.3257 35.3996 37.258 35.9069 37.1235C36.4071 36.9911 36.8761 36.7976 37.3003 36.5486C37.4932 36.4355 37.6747 36.3118 37.844 36.1794L37.8459 36.1784C38.9544 35.361 39.6482 34.1917 39.6482 32.8936C39.6482 32.4613 39.5709 32.0432 39.4278 31.648" fill="#FFD500"/>
<path d="M35.2501 31.2453C35.6213 30.5481 35.429 29.7038 34.5166 29.6085C33.9078 29.5454 33.3813 29.9207 33.1967 30.3123C32.9769 30.7804 33.0517 31.2178 33.1219 31.5229C33.1973 31.8508 33.3979 32.0082 33.6305 32.0881C33.971 32.2058 34.3243 32.1126 34.576 31.9527C34.8763 31.7622 35.1102 31.5076 35.2501 31.2448" fill="white"/>
<path d="M35.052 36.142C35.0284 36.142 35.0047 36.1379 34.9824 36.1288C34.944 36.114 34.8782 36.0641 34.9019 35.9816C34.9038 35.9744 34.9153 35.9429 34.9293 35.9149C35.0482 35.676 35.6181 34.5806 35.6391 34.5404C35.6634 34.494 35.68 34.4248 35.62 34.3591C35.604 34.3418 35.5848 34.3275 35.5612 34.3158C35.5299 34.3005 35.4922 34.2913 35.4577 34.2908H35.4532H35.4488C35.4321 34.2908 35.3734 34.2934 35.3216 34.3255C35.2756 34.354 35.2584 34.3805 35.2379 34.411C35.2347 34.4156 35.2315 34.4207 35.2283 34.4253C35.2245 34.4314 35.22 34.4375 35.2156 34.4441L34.4054 35.7366C34.3895 35.7651 34.3531 35.812 34.339 35.8263C34.3122 35.8543 34.2866 35.8665 34.2694 35.8731C34.2246 35.8904 34.1748 35.8904 34.1301 35.8731C34.0809 35.8538 34.0343 35.8028 34.047 35.7361C34.0483 35.7275 34.0521 35.7168 34.0598 35.6994C34.07 35.674 34.0892 35.6363 34.0898 35.6348C34.1473 35.5182 34.7504 34.27 34.7875 34.1844C34.8303 34.0866 34.7594 34.0148 34.7159 33.9904C34.6898 33.9761 34.6623 33.9624 34.6093 33.9578C34.6029 33.9573 34.5958 33.9568 34.5888 33.9568C34.5498 33.9568 34.5089 33.9664 34.4757 33.9832C34.4617 33.9909 34.447 33.999 34.4253 34.0189C34.3876 34.0647 34.063 34.5913 33.8471 34.9401C33.6503 35.2589 33.5378 35.4407 33.5219 35.4621C33.5212 35.4632 33.5193 35.4657 33.518 35.4688C33.511 35.4794 33.5021 35.4942 33.4893 35.5085C33.458 35.5441 33.4216 35.564 33.3794 35.5691C33.3692 35.5706 33.3596 35.5711 33.35 35.5711C33.3276 35.5711 33.311 35.567 33.2976 35.5635C33.2503 35.5507 33.1986 35.51 33.1954 35.4504C33.1941 35.4224 33.2082 35.374 33.2446 35.2839C33.2465 35.2788 33.2478 35.2752 33.2484 35.2737V35.2717C33.4394 34.8047 33.8324 33.94 33.9914 33.7001C34.0061 33.6777 34.1141 33.4557 34.3965 33.3482C34.5562 33.2876 34.7006 33.2586 34.9325 33.281C35.2488 33.3115 35.5861 33.4592 35.6845 33.4994C35.9541 33.61 36.202 33.7627 36.2863 33.885C36.4218 34.079 36.4307 34.356 36.2224 34.6937C35.9656 35.1097 35.2763 35.9907 35.2705 35.9979C35.243 36.0315 35.1906 36.0916 35.1466 36.117C35.1178 36.1333 35.0859 36.142 35.0526 36.142" fill="white"/>
<path d="M36.7235 33.8623C36.6691 33.5094 36.4091 33.0566 35.6514 32.7384C35.6284 32.7287 35.139 32.4949 34.387 32.4114C34.0944 32.3788 33.5884 32.3646 33.1233 32.4211C32.5726 32.4883 32.2167 32.606 32.0979 32.6579C31.9676 32.7149 31.9209 32.8494 31.9989 32.9538C32.0506 33.023 32.1746 33.0908 32.3394 33.0388C32.3394 33.0388 32.4851 32.9843 32.6793 32.9298C32.7719 32.9039 32.8799 32.8779 32.9808 32.8575C33.2134 32.8117 33.3968 32.7908 33.5437 32.7801C33.6945 32.7689 33.8076 32.7679 33.8785 32.7679C34.7391 32.7679 35.3811 32.9497 35.7939 33.215C36.0437 33.3754 36.2123 33.5914 36.2775 33.7798C36.3657 34.036 36.3912 34.2997 36.1619 34.6725C35.9185 35.0692 35.2304 35.9508 35.2138 35.9716C35.1946 35.9951 35.1435 36.0557 35.1071 36.0766C35.0623 36.102 35.0227 36.0878 35.0119 36.0837C35.0048 36.0811 34.9505 36.0562 34.9671 35.9961C34.9684 35.9925 34.9786 35.964 34.9914 35.9375C35.1115 35.6961 35.6865 34.589 35.7012 34.5641C35.7466 34.4866 35.7511 34.4001 35.6859 34.3242C35.6623 34.2972 35.6361 34.2784 35.6048 34.2626C35.562 34.2407 35.5108 34.229 35.4642 34.229C35.4642 34.229 35.3652 34.2218 35.2776 34.2809C35.2131 34.3242 35.1946 34.3665 35.169 34.4031C35.1652 34.4092 35.1607 34.4154 35.1563 34.422L34.3442 35.717C34.3315 35.7399 34.297 35.7853 34.2855 35.797C34.2663 35.8168 34.2497 35.8245 34.2401 35.828C34.203 35.8423 34.1724 35.8326 34.1596 35.828C34.1366 35.8194 34.1046 35.7909 34.113 35.7471C34.1142 35.7415 34.1181 35.7308 34.1232 35.7196C34.1334 35.6951 34.1519 35.6574 34.1519 35.6574C34.2094 35.5403 34.8113 34.2931 34.8509 34.2055C34.9116 34.0731 34.8215 33.9779 34.7595 33.9423C34.732 33.926 34.6892 33.9051 34.6202 33.8995C34.5627 33.8944 34.4937 33.9051 34.435 33.9377C34.4132 33.9499 34.3864 33.9672 34.3576 34.0013C34.3193 34.0466 33.5041 35.388 33.4651 35.4385C33.4594 35.4466 33.4485 35.466 33.4345 35.4817C33.4121 35.5067 33.3916 35.5179 33.368 35.521C33.3444 35.524 33.3322 35.521 33.3188 35.5174C33.2952 35.5108 33.2632 35.4879 33.2613 35.4527C33.2594 35.4166 33.3086 35.302 33.3118 35.2923C33.4983 34.835 33.89 33.9697 34.0497 33.7294C34.1519 33.5756 34.3276 33.4854 34.5487 33.4865C34.8298 33.488 35.0553 33.6041 35.208 33.6713C35.2278 33.68 35.2534 33.6907 35.2783 33.6988C35.3403 33.7202 35.4137 33.7156 35.4738 33.682C35.4961 33.6693 35.5166 33.652 35.5332 33.6275C35.5562 33.5944 35.5645 33.5491 35.5453 33.5038C35.5185 33.4391 35.4431 33.407 35.4297 33.4009C35.1971 33.2899 34.8164 33.2125 34.6451 33.2043C34.5998 33.2023 34.5321 33.1967 34.4477 33.2054C34.2452 33.2272 34.0548 33.3052 33.9162 33.4712C33.706 33.7228 33.1067 35.1482 32.984 35.4731C32.9387 35.5928 32.9732 35.6691 33.0224 35.7252C33.0722 35.7817 33.145 35.8158 33.1936 35.8275C33.3354 35.8616 33.4447 35.826 33.5201 35.7741C33.5597 35.7471 33.6121 35.6926 33.6491 35.6279C33.6491 35.6279 34.4605 34.2218 34.5155 34.1628C34.5365 34.1404 34.573 34.1434 34.5896 34.1566C34.6011 34.1653 34.6119 34.1806 34.603 34.2015C34.3896 34.6847 33.897 35.6121 33.8625 35.691C33.837 35.7501 33.8101 35.8016 33.8025 35.8504C33.7916 35.9197 33.8108 35.9808 33.8625 36.0414C33.8804 36.0628 33.9079 36.0832 33.9315 36.0974C33.9922 36.1356 34.0765 36.154 34.1417 36.1519C34.2752 36.1479 34.3711 36.0918 34.4337 36.0098C34.456 35.9803 34.4726 35.9508 34.488 35.9279C34.488 35.9279 35.3224 34.5478 35.3741 34.4912C35.3805 34.4841 35.392 34.4785 35.4054 34.4765C35.415 34.4749 35.4252 34.4765 35.4374 34.4805C35.4457 34.4836 35.454 34.4892 35.4597 34.4989C35.4642 34.5055 35.4668 34.5172 35.4616 34.5289C35.3435 34.8065 34.7301 35.9222 34.7071 35.9732C34.6943 36.0017 34.6733 36.0409 34.6637 36.0694C34.6305 36.1657 34.6675 36.2741 34.7748 36.3465C34.8323 36.3852 34.9346 36.4167 35.031 36.4045C35.1262 36.3923 35.2189 36.3465 35.2923 36.2762C35.3709 36.2008 35.4489 36.1091 35.4731 36.0796C35.4731 36.0796 36.082 35.3666 36.3919 34.9424C36.6909 34.533 36.7739 34.1857 36.7235 33.8638" fill="#3C3C3B"/>
<path d="M35.3005 29.9326C35.1216 29.6979 34.7517 29.511 34.2892 29.5426C33.8471 29.5721 33.4714 29.7946 33.2644 30.0131C32.9999 30.2927 32.8197 30.6497 32.8031 31.16C32.7961 31.3718 32.8312 31.6101 32.8932 31.877C32.9552 32.1449 33.0548 32.3919 33.1194 32.7962C33.1264 32.8415 33.1628 33.2153 33.0325 33.5759C32.9807 33.7195 32.8964 33.9212 32.798 34.1025C32.66 34.3566 32.4996 34.6647 32.2965 34.8862C32.2339 34.9545 32.1674 34.9743 32.0869 34.9601C32.0658 34.9565 32.0313 34.9422 32.0096 34.9239C31.9611 34.8821 31.933 34.8246 31.9694 34.7141C32.0601 34.4365 32.3859 33.937 32.5322 33.7348C32.5865 33.663 32.6434 33.5891 32.7041 33.5127C32.7092 33.5061 32.7118 33.5031 32.7175 33.4964C32.7654 33.4389 32.7475 33.3615 32.6747 33.3243C32.6044 33.2887 32.5086 33.3024 32.462 33.3615C32.453 33.3727 32.4428 33.3854 32.4338 33.3966C32.0812 33.8417 31.7566 34.3301 31.6193 34.6214C31.494 34.8862 31.5266 35.0344 31.6052 35.1475C31.6857 35.2641 31.7969 35.3318 31.9413 35.3715C32.0115 35.3914 32.115 35.4001 32.1764 35.3939C32.4492 35.3675 32.5936 35.2483 32.7443 35.0283C33.0357 34.6015 33.2714 34.1325 33.4075 33.7083C33.543 33.2846 33.543 32.9984 33.5276 32.7982C33.5142 32.6215 33.4656 32.4413 33.4024 32.2518C33.366 32.1413 33.3155 31.9641 33.2478 31.712C33.0338 30.916 33.2561 30.4251 33.5097 30.1618C33.6241 30.0426 33.7749 29.9515 33.8835 29.9072C34.4502 29.6765 35.0092 29.9296 35.061 30.3854C35.1421 31.1014 34.4642 31.5317 34.27 31.6514C34.2611 31.657 34.2317 31.6758 34.2259 31.6804C34.1723 31.7161 34.1384 31.7695 34.1397 31.8296C34.1422 31.9345 34.2502 32.0181 34.3818 32.0165C34.4329 32.016 34.4802 32.0023 34.5185 31.9799C34.6041 31.9371 34.6961 31.8745 34.7913 31.7991C34.9741 31.6545 35.1223 31.4935 35.2475 31.3082C35.5887 30.8025 35.567 30.2795 35.3025 29.9326" fill="#3C3C3B"/>
<path d="M37.2064 30.7185C37.2064 30.585 37.0703 30.4766 36.9029 30.4766C36.786 30.4766 36.685 30.5295 36.6339 30.6064C36.6167 30.6299 36.6109 30.6482 36.6109 30.6482C36.6109 30.6482 36.6096 30.6502 36.609 30.6517L35.7586 32.4372C35.7267 32.5024 35.7663 32.5737 35.8462 32.5992C35.8672 32.6058 35.889 32.6088 35.91 32.6078C36.004 32.6042 36.0436 32.5396 36.0436 32.5396C36.0436 32.5396 37.1648 30.8437 37.1782 30.8203C37.1968 30.7892 37.207 30.7546 37.207 30.7185" fill="#3C3C3B"/>
<path d="M39.4886 32.5376C39.4151 32.0207 39.219 31.5252 38.9059 31.0659C38.5928 30.6065 38.1782 30.2062 37.6735 29.8757C37.1509 29.5335 36.5548 29.2819 35.9012 29.1281C35.4329 29.0176 34.9505 28.9616 34.4675 28.9616C33.9283 28.9616 33.3955 29.0304 32.8825 29.1663C32.3765 29.3003 31.9024 29.4958 31.4731 29.7474C31.0552 29.9923 30.6898 30.2852 30.3863 30.6177C31.275 29.4434 32.8812 28.7238 34.5947 28.7238C35.0566 28.7238 35.5262 28.7757 35.9913 28.8857C38.184 29.4026 39.5844 31.0297 39.5135 32.7698C39.5084 32.6924 39.5001 32.615 39.4892 32.5376M39.164 34.0955C39.164 34.0955 39.1627 34.099 39.1621 34.1011C39.1621 34.1031 39.1608 34.1046 39.1602 34.1067C38.9877 34.566 38.7187 34.9816 38.3756 35.3431C37.4563 36.3117 36.0066 36.8928 34.4707 36.8928C34.0107 36.8928 33.5437 36.8409 33.0799 36.7314C31.0693 36.2573 29.7276 34.8456 29.5839 33.2715C29.5506 32.9099 29.5813 32.5392 29.681 32.1694C29.7008 32.1032 29.7212 32.0355 29.7423 31.9673C29.7506 31.9423 29.7596 31.9173 29.7685 31.8924C29.7691 31.8904 29.7698 31.8883 29.7704 31.8863C29.7704 31.8848 29.7717 31.8832 29.7723 31.8817C29.9346 31.4442 30.1851 31.0465 30.5026 30.6972C31.4181 29.6904 32.8971 29.0843 34.4656 29.0843C34.9256 29.0843 35.3926 29.1363 35.8558 29.2458C37.9003 29.7275 39.2528 31.1789 39.3582 32.7846C39.3863 33.2155 39.325 33.658 39.1627 34.0955M34.3372 37.2686C33.8753 37.2686 33.4063 37.2162 32.9406 37.1067C31.2073 36.6983 29.9691 35.5957 29.5615 34.292C29.5321 34.1749 29.5015 34.0522 29.4727 33.9376C29.4241 33.685 29.4063 33.4263 29.4216 33.1655C29.4267 33.2567 29.4356 33.3484 29.4484 33.4395C29.5219 33.9569 29.718 34.4519 30.0311 34.9113C30.3441 35.3706 30.7588 35.7709 31.2635 36.1014C31.7861 36.4436 32.3822 36.6952 33.0358 36.849C33.5041 36.9595 33.9865 37.015 34.4701 37.015C35.0087 37.015 35.5421 36.9463 36.0552 36.8103C36.5612 36.6764 37.0352 36.4808 37.4646 36.2292C37.8971 35.9756 38.2728 35.6711 38.5833 35.3243C37.7029 36.5282 36.075 37.2686 34.3372 37.2686ZM39.5045 31.6245C39.401 31.3093 39.2503 31.0053 39.0522 30.715C38.7372 30.2536 38.3213 29.8518 37.814 29.5198C37.2895 29.176 36.6902 28.9234 36.0341 28.7686C35.5639 28.6576 35.0796 28.6016 34.594 28.6016C34.0535 28.6016 33.5175 28.6708 33.0026 28.8073C32.4946 28.9417 32.0187 29.1383 31.5868 29.3909C31.5606 29.4062 31.5344 29.422 31.5088 29.4378L31.5133 29.4337C30.1058 30.2612 29.1929 31.5919 29.1929 33.0932C29.1929 33.605 29.2996 34.0975 29.4951 34.5563C29.5928 34.8048 29.7212 35.0462 29.8797 35.278C30.194 35.7393 30.6106 36.1417 31.1178 36.4732C31.6424 36.8169 32.2416 37.0695 32.8978 37.2238C33.368 37.3348 33.8523 37.3909 34.3385 37.3909C34.8796 37.3909 35.415 37.3216 35.93 37.1856C36.4379 37.0512 36.9145 36.8546 37.3457 36.602C37.5419 36.4874 37.7259 36.3617 37.8977 36.2272L37.899 36.2262C39.0247 35.3961 39.7294 34.2085 39.7294 32.8895C39.7294 32.4505 39.6508 32.0258 39.5052 31.624" fill="white"/>
<path d="M43.9409 35.7185C43.9409 36.1152 43.5767 36.3698 43.1531 36.3698C42.7296 36.3698 42.3647 36.1152 42.3647 35.8549V31.8119C42.3673 31.3042 42.3366 30.7486 42.6369 30.3346C43.0643 29.7454 43.7007 29.6348 44.4354 29.6328H45.5055C46.0939 29.6328 46.3291 29.8783 46.3291 30.1996C46.3291 30.521 46.0939 30.7659 45.5055 30.7659H44.8609C44.597 30.7736 44.2693 30.7318 44.0981 30.8729C43.9409 31.0032 43.9473 31.1158 43.9396 31.3745V32.2193H44.9062C45.4947 32.2193 45.7304 32.4653 45.7304 32.7856C45.7304 33.106 45.4947 33.3519 44.9062 33.3519H43.9396V35.719L43.9409 35.7185Z" fill="#C4BEBE"/>
<path d="M46.4292 31.6463C46.4292 31.269 46.6292 31.0235 47.1 31.0235C47.5709 31.0235 47.7702 31.2685 47.7702 31.6463V32.1281H47.7939C47.9657 31.4268 48.3075 31.0169 48.864 31.0235C49.2889 31.0286 49.6006 31.2547 49.57 31.7691C49.5495 32.1184 49.347 32.4581 48.6762 32.4581C48.2296 32.4581 47.8654 32.7036 47.8654 33.1568V35.6863C47.8654 36.1584 47.583 36.3748 47.1473 36.3748C46.7116 36.3748 46.4298 36.1579 46.4298 35.6863V31.6463H46.4292Z" fill="#C4BEBE"/>
<path d="M52.7251 33.0442V32.6195C52.7251 32.2319 52.5724 31.93 52.1022 31.93C51.632 31.93 51.4793 32.2319 51.4793 32.6195V33.0442H52.7251ZM49.9728 33.1669C49.9728 31.8643 50.2086 30.9985 52.161 31.024C53.6598 31.0444 54.1607 31.6942 54.1607 33.0345C54.1607 33.4969 54.0898 33.8555 53.3602 33.8555H51.4787V34.3749C51.4787 34.9881 51.4684 35.4769 52.1252 35.4698C52.4306 35.4663 52.667 35.3114 52.6779 34.9407C52.6926 34.4401 52.9845 34.3276 53.3838 34.3276C53.8074 34.3276 54.1128 34.4406 54.1128 34.8938C54.1128 35.8187 53.3621 36.358 52.1604 36.3753C50.2086 36.4043 49.9722 35.535 49.9722 34.2323V33.1664L49.9728 33.1669Z" fill="#C4BEBE"/>
<path d="M56.0363 33.7515C55.2121 33.2601 55.0709 32.9393 55.0709 32.4015C55.0709 31.4762 55.883 31.0234 57.0355 31.0234C58.565 31.0234 58.965 31.8632 58.965 32.2788C58.965 32.6189 58.788 32.8456 58.2117 32.8456C57.8233 32.8456 57.6469 32.6851 57.6239 32.402C57.6009 32.0532 57.4246 31.8698 57.001 31.8831C56.7065 31.8922 56.5065 32.0338 56.5065 32.2793C56.5065 32.4494 56.5889 32.6286 56.8241 32.7702L57.7064 33.3085C58.6002 33.8463 59.071 34.1864 59.071 34.8755C59.071 35.8757 58.1657 36.3763 56.9889 36.3763C55.4479 36.3763 55.0103 35.6017 55.0103 35.0069C55.0103 34.573 55.3706 34.3754 55.7118 34.3754C56.2408 34.3754 56.4011 34.6203 56.4478 35.1021C56.472 35.3195 56.5889 35.5222 57.0719 35.5176C57.4483 35.5136 57.6393 35.3481 57.6367 35.0461C57.6348 34.8189 57.5313 34.6494 57.1314 34.4039L56.0376 33.7531L56.0363 33.7515Z" fill="#C4BEBE"/>
<path d="M60.0301 30.314C60.0301 29.8419 60.3125 29.625 60.7469 29.625C61.1814 29.625 61.4644 29.8419 61.4644 30.314L61.4759 31.6819H61.4989C61.7346 31.2383 62.2873 31.0214 62.8399 31.0214C63.6398 31.0214 64.2167 31.4176 64.2167 32.2859V35.6837C64.2167 36.1557 63.9343 36.3727 63.4986 36.3727C63.0629 36.3727 62.7811 36.1557 62.7811 35.6837V32.5599C62.7811 32.182 62.5339 32.0216 62.2279 32.0216C61.7691 32.0216 61.4753 32.2956 61.4753 32.9372V35.6842C61.4753 36.1562 61.1929 36.3732 60.7571 36.3732C60.3214 36.3732 60.0288 36.1562 60.0288 35.6842V30.314H60.0301Z" fill="#C4BEBE"/>
<path d="M75.7663 33.0437V32.6189C75.7663 32.2319 75.6136 31.9294 75.1428 31.9294C74.6719 31.9294 74.5192 32.2319 74.5192 32.6189V33.0437H75.7663ZM73.0146 33.1664C73.0146 31.8637 73.2498 31.0234 75.2022 31.0234C76.6959 31.0234 77.2019 31.6936 77.2019 33.034C77.2019 33.4964 77.1316 33.8549 76.402 33.8549H74.5199V34.3744C74.5199 34.9875 74.5793 35.4693 75.1671 35.4693C75.4731 35.4693 75.698 35.2747 75.7203 34.9402C75.7529 34.4416 76.0257 34.3301 76.4257 34.327C76.816 34.3234 77.1559 34.4406 77.1559 34.8933C77.1559 35.8181 76.3669 36.3752 75.2028 36.3752C73.2498 36.3752 73.0153 35.535 73.0153 34.2323V33.1659L73.0146 33.1664Z" fill="#C4BEBE"/>
<path d="M78.1904 31.7126C78.1904 31.241 78.4722 31.0236 78.9073 31.0236C79.3423 31.0236 79.6254 31.241 79.6254 31.6841H79.6484C79.8841 31.2405 80.4368 31.017 80.9894 31.0236C81.8775 31.0343 82.3662 31.4198 82.3662 32.2881V35.6859C82.3662 36.1579 82.0838 36.3749 81.6481 36.3749C81.2124 36.3749 80.9313 36.1579 80.9313 35.6859V32.5621C80.9313 32.1842 80.684 32.0238 80.378 32.0238C79.9186 32.0238 79.6254 32.2977 79.6254 32.9394V35.6864C79.6254 36.1584 79.343 36.3754 78.9073 36.3754C78.4715 36.3754 78.1904 36.1584 78.1904 35.6864V31.7126Z" fill="#C4BEBE"/>
<path d="M83.6323 31.713C83.6323 31.2414 83.9147 31.0239 84.3498 31.0239C84.7849 31.0239 85.0673 31.2414 85.0673 31.713V34.8373C85.0673 35.2146 85.2672 35.3751 85.6199 35.3751C86.1259 35.3751 86.3725 35.1016 86.3725 34.4594V31.7125C86.3725 31.2409 86.6555 31.0234 87.0906 31.0234C87.5257 31.0234 87.8075 31.2409 87.8075 31.7125V35.6862C87.8075 36.1583 87.5257 36.3752 87.0906 36.3752C86.6555 36.3752 86.3725 36.1583 86.3725 35.7142H86.3489C86.1138 36.1578 85.5611 36.3752 85.0085 36.3752C84.2086 36.3752 83.6323 35.9785 83.6323 35.1102V31.712V31.713Z" fill="#C4BEBE"/>
<path d="M65.6071 30.9439C65.6071 30.3868 65.832 29.9198 66.7603 29.8918C67.518 29.8694 67.9001 30.1719 68.0317 30.809L68.7364 33.8615H68.7574L69.4628 30.9719C69.6334 30.2691 69.9464 29.8862 70.7335 29.8918C71.6842 29.8989 71.8874 30.3959 71.8874 30.9526V35.7803C71.8874 36.1404 71.5558 36.3716 71.1718 36.3716C70.7878 36.3716 70.4556 36.1404 70.4556 35.7803L70.4518 30.9516H70.4448L69.259 35.9947C69.2053 36.1918 69.121 36.3716 68.7466 36.3716C68.3722 36.3716 68.2866 36.1918 68.2336 35.9947L67.0299 30.9516H67.0203L67.0376 35.7803C67.0376 36.1404 66.706 36.3716 66.322 36.3716C65.938 36.3716 65.6064 36.1404 65.6064 35.7803V30.9434L65.6071 30.9439Z" fill="#C4BEBE"/>
</g>
<defs>
<filter id="filter0_d_1850_102035" x="0.875" y="0.65625" width="115.25" height="66.25" filterUnits="userSpaceOnUse" color-interpolation-filters="sRGB">
<feFlood flood-opacity="0" result="BackgroundImageFix"/>
<feColorMatrix in="SourceAlpha" type="matrix" values="0 0 0 0 0 0 0 0 0 0 0 0 0 0 0 0 0 0 127 0" result="hardAlpha"/>
<feOffset dy="0.78125"/>
<feGaussianBlur stdDeviation="1.5625"/>
<feComposite in2="hardAlpha" operator="out"/>
<feColorMatrix type="matrix" values="0 0 0 0 0 0 0 0 0 0 0 0 0 0 0 0 0 0 0.08 0"/>
<feBlend mode="normal" in2="BackgroundImageFix" result="effect1_dropShadow_1850_102035"/>
<feBlend mode="normal" in="SourceGraphic" in2="effect1_dropShadow_1850_102035" result="shape"/>
</filter>
</defs>
</svg>
