<svg width="71" height="70" viewBox="0 0 71 70" fill="none" xmlns="http://www.w3.org/2000/svg">
<rect opacity="0.05" x="0.5" width="70" height="70" rx="5" fill="#06135B"/>
<path d="M43.7995 50.1485C42.4495 50.1485 40.8995 49.7985 39.1995 49.1485C35.7995 47.7985 32.0495 45.1985 28.6995 41.8485C25.3495 38.4985 22.7495 34.7485 21.3995 31.2985C19.8995 27.5985 20.0495 24.5485 21.7995 22.8485C21.8495 22.7985 21.9495 22.7485 21.9995 22.6985L26.1995 20.1985C27.2495 19.5985 28.5995 19.8985 29.2995 20.8985L32.2495 25.2985C32.9495 26.3485 32.6495 27.7485 31.6495 28.4485L29.8495 29.6985C31.1495 31.7985 34.8495 36.9485 40.7495 40.6485L41.8495 39.0485C42.6995 37.8485 44.0495 37.4985 45.1495 38.2485L49.5495 41.1985C50.5495 41.8985 50.8495 43.2485 50.2495 44.2985L47.7495 48.4985C47.6995 48.5985 47.6495 48.6485 47.5995 48.6985C46.6995 49.6485 45.3995 50.1485 43.7995 50.1485ZM23.2995 24.5485C22.3495 25.5985 22.3995 27.7485 23.4995 30.4985C24.7495 33.6485 27.1495 37.0985 30.2995 40.2485C33.3995 43.3485 36.8995 45.7485 39.9995 46.9985C42.6995 48.0985 44.8495 48.1485 45.9495 47.1985L48.3495 43.0985C48.3495 43.0485 48.3495 43.0485 48.3495 42.9985L43.9495 40.0485C43.9495 40.0485 43.8495 40.0985 43.7495 40.2485L42.6495 41.8485C41.9495 42.8485 40.5995 43.1485 39.5995 42.4985C33.2995 38.5985 29.3995 33.1485 27.9995 30.9485C27.3495 29.8985 27.5995 28.5485 28.5995 27.8485L30.3995 26.5985V26.5485L27.4495 22.1485C27.4495 22.0985 27.3995 22.0985 27.3495 22.1485L23.2995 24.5485Z" fill="#FBAE17"/>
<path d="M48.7995 33.2456C48.1995 33.2456 47.7495 32.7956 47.6995 32.1956C47.2995 27.1456 43.1495 23.0956 38.0495 22.7456C37.4495 22.6956 36.9495 22.1956 36.9995 21.5456C37.0495 20.9456 37.5495 20.4456 38.1995 20.4956C44.3995 20.8956 49.4495 25.7956 49.9495 31.9956C49.9995 32.5956 49.5495 33.1456 48.8995 33.1956C48.8995 33.2456 48.8495 33.2456 48.7995 33.2456Z" fill="#FBAE17"/>
<path d="M43.8493 33.6929C43.2993 33.6929 42.7993 33.2929 42.7493 32.6929C42.4493 29.9929 40.3493 27.8929 37.6493 27.5429C37.0493 27.4929 36.5993 26.8929 36.6493 26.2929C36.6993 25.6929 37.2993 25.2429 37.8993 25.2929C41.6493 25.7429 44.5493 28.6429 44.9993 32.3929C45.0493 32.9929 44.6493 33.5429 43.9993 33.6429C43.8993 33.6929 43.8493 33.6929 43.8493 33.6929Z" fill="#FBAE17"/>
</svg>
