<svg width="117" height="67" viewBox="0 0 117 67" fill="none" xmlns="http://www.w3.org/2000/svg">
<g filter="url(#filter0_d_1850_79795)">
<rect width="109" height="60" transform="translate(4 3)" fill="white"/>
<path d="M90.4697 45.8798H91.4698C91.5079 46.1488 91.6188 46.3492 91.8015 46.48C91.9842 46.6098 92.2471 46.6752 92.5935 46.6752C92.8882 46.6752 93.11 46.6235 93.2599 46.518C93.4099 46.4146 93.4838 46.2595 93.4838 46.0538C93.4838 45.7542 93.0551 45.5084 92.1954 45.3122L92.1658 45.3048C92.1426 45.3006 92.1077 45.2922 92.0613 45.2806C91.6008 45.1804 91.2734 45.0686 91.078 44.943C90.9027 44.8323 90.7707 44.6814 90.6799 44.4936C90.5891 44.3059 90.5426 44.0843 90.5426 43.828C90.5426 43.3491 90.7063 42.982 91.0316 42.7256C91.3568 42.4714 91.8279 42.3438 92.4425 42.3438C93.0181 42.3438 93.4691 42.4788 93.7933 42.7509C94.1175 43.0242 94.2896 43.406 94.3076 43.9008H93.3339C93.3149 43.6634 93.223 43.482 93.0603 43.3575C92.8945 43.233 92.659 43.1697 92.3538 43.1697C92.0877 43.1697 91.8828 43.2214 91.7392 43.3259C91.5955 43.4292 91.5227 43.5759 91.5227 43.7679C91.5227 44.0295 91.8025 44.2236 92.3623 44.3533C92.5143 44.3881 92.6326 44.4156 92.7171 44.4367C93.0751 44.5284 93.3318 44.6002 93.4807 44.6508C93.6317 44.7014 93.7637 44.7584 93.8746 44.8217C94.0742 44.9335 94.2242 45.0802 94.3256 45.2648C94.4269 45.4483 94.4766 45.6688 94.4766 45.9251C94.4766 46.4378 94.3034 46.8345 93.958 47.1161C93.6116 47.3978 93.1258 47.5402 92.4953 47.5402C91.8648 47.5402 91.3885 47.3957 91.0368 47.1087C90.6841 46.8218 90.494 46.4125 90.4687 45.8829M85.6159 47.4009V42.4777H86.6772L88.6786 45.8597V42.4777H89.6797V47.4009H88.6321L86.6171 44.0179V47.4009H85.6169H85.6159ZM79.9953 44.9441C79.9953 44.1487 80.2128 43.5179 80.6458 43.0516C81.0799 42.5843 81.665 42.3511 82.4011 42.3511C83.1372 42.3511 83.7233 42.5853 84.1595 43.0526C84.5957 43.521 84.8143 44.1508 84.8143 44.9441C84.8143 45.7374 84.5957 46.3692 84.1595 46.8366C83.7233 47.3049 83.1382 47.5381 82.4011 47.5381C81.6639 47.5381 81.0799 47.3039 80.6458 46.8366C80.2128 46.3682 79.9953 45.7374 79.9953 44.9441ZM81.0292 44.9441C81.0292 45.4863 81.1506 45.9072 81.3914 46.2068C81.6322 46.5064 81.9691 46.6562 82.4011 46.6562C82.833 46.6562 83.1794 46.5064 83.4213 46.2068C83.6652 45.9061 83.7867 45.4852 83.7867 44.9441C83.7867 44.4029 83.6652 43.982 83.4213 43.6824C83.1784 43.3818 82.8383 43.233 82.4011 43.233C81.9639 43.233 81.6322 43.3818 81.3914 43.6814C81.1496 43.9799 81.0292 44.4019 81.0292 44.9441ZM78.1376 42.4777H79.1525V47.4009H78.1376V42.4777ZM75.0538 47.4009V43.3575H73.591V42.4777H77.5187V43.3575H76.0676V47.4009H75.0538ZM73.2225 45.7099C73.1855 46.269 72.969 46.7142 72.5751 47.0444C72.1812 47.3735 71.6668 47.5381 71.0342 47.5381C70.3045 47.5381 69.7373 47.3102 69.3328 46.8556C68.9283 46.4019 68.7256 45.7637 68.7256 44.9441C68.7256 44.1244 68.9326 43.4651 69.3455 43.0189C69.7574 42.5727 70.352 42.3501 71.125 42.3501C71.7545 42.3501 72.2519 42.503 72.6163 42.81C72.9806 43.1159 73.1813 43.5495 73.2172 44.1086H72.216C72.1738 43.8291 72.0597 43.6181 71.8738 43.4714C71.689 43.3259 71.4387 43.252 71.124 43.252C70.6783 43.252 70.3382 43.3955 70.107 43.6835C69.8746 43.9715 69.7584 44.3903 69.7584 44.943C69.7584 45.4958 69.8746 45.8914 70.1048 46.1825C70.3372 46.4747 70.6646 46.6214 71.0913 46.6214C71.3975 46.6214 71.651 46.5422 71.8474 46.3861C72.0439 46.2289 72.1706 46.0043 72.2287 45.7099H73.2225ZM63.99 42.464H65.0134V45.5528C65.0134 45.9346 65.0884 46.2131 65.2404 46.3872C65.3925 46.5623 65.6322 46.6498 65.9628 46.6498C66.2934 46.6498 66.5416 46.5633 66.6936 46.3893C66.8468 46.2152 66.9239 45.9367 66.9239 45.5538V42.4651H67.9377V45.6646C67.9377 46.268 67.7687 46.7311 67.4308 47.0539C67.0928 47.3767 66.606 47.5391 65.9702 47.5391C65.3344 47.5391 64.8402 47.3777 64.5001 47.056C64.16 46.7342 63.9889 46.2701 63.9889 45.6646V42.4651L63.99 42.464ZM59.1277 47.4009V42.4777H61.5177C62.0552 42.4777 62.4544 42.5938 62.7111 42.8227C62.9709 43.0526 63.0997 43.4029 63.0997 43.8755C63.0997 44.1751 63.0374 44.4261 62.9107 44.6276C62.785 44.828 62.6023 44.9652 62.3668 45.039C62.5812 45.115 62.7343 45.23 62.8241 45.3871C62.9149 45.5433 62.9656 45.7859 62.9793 46.1161L63.0004 46.6973V46.7184C63.0047 47.0106 63.0691 47.19 63.1905 47.2522V47.403H62.0785C62.0436 47.3334 62.0172 47.248 61.9971 47.1467C61.9792 47.0454 61.9676 46.9241 61.9644 46.7838L61.9507 46.2659C61.9391 45.961 61.882 45.7542 61.7785 45.6487C61.674 45.5422 61.487 45.4884 61.2177 45.4884H60.1426V47.403H59.1288L59.1277 47.4009ZM60.1416 44.6308H61.3339C61.5916 44.6308 61.7817 44.5791 61.9042 44.4736C62.0257 44.3681 62.0869 44.2046 62.0869 43.9778C62.0869 43.7647 62.0267 43.6022 61.9095 43.4915C61.7923 43.3807 61.6148 43.3259 61.3814 43.3259H60.1426V44.6297L60.1416 44.6308ZM56.0766 47.4009V43.3575H54.615V42.4777H58.5426V43.3575H57.0905V47.4009H56.0766ZM50.2585 45.8798H51.2597C51.2977 46.1488 51.4076 46.3492 51.5913 46.48C51.774 46.6098 52.0381 46.6752 52.3834 46.6752C52.6781 46.6752 52.8998 46.6235 53.0498 46.518C53.1987 46.4146 53.2737 46.2595 53.2737 46.0538C53.2737 45.7542 52.8439 45.5084 51.9853 45.3122L51.9557 45.3048C51.9335 45.3006 51.8987 45.2922 51.8511 45.2806C51.3917 45.1804 51.0643 45.0686 50.8679 44.943C50.6926 44.8323 50.5606 44.6814 50.4698 44.4936C50.3779 44.3059 50.3325 44.0843 50.3325 43.828C50.3325 43.3491 50.4972 42.982 50.8214 42.7256C51.1478 42.4714 51.6177 42.3438 52.2334 42.3438C52.809 42.3438 53.2589 42.4788 53.5842 42.7509C53.9074 43.0242 54.0795 43.406 54.0975 43.9008H53.1237C53.1047 43.6634 53.0139 43.482 52.8502 43.3575C52.6844 43.233 52.4489 43.1697 52.1437 43.1697C51.8775 43.1697 51.6727 43.2214 51.529 43.3259C51.3843 43.4292 51.3125 43.5759 51.3125 43.7679C51.3125 44.0295 51.5934 44.2236 52.1521 44.3533C52.3042 44.3881 52.4225 44.4156 52.507 44.4367C52.865 44.5284 53.1216 44.6002 53.2705 44.6508C53.4216 44.7014 53.5525 44.7584 53.6645 44.8217C53.8641 44.9335 54.0151 45.0802 54.1154 45.2648C54.2168 45.4483 54.2664 45.6688 54.2664 45.9251C54.2664 46.4378 54.0932 46.8345 53.7479 47.1161C53.4026 47.3978 52.9157 47.5402 52.2852 47.5402C51.6547 47.5402 51.1784 47.3957 50.8267 47.1087C50.474 46.8218 50.2839 46.4125 50.2575 45.8829L50.2585 45.8798ZM45.4047 47.4009V42.4777H46.4671L48.4674 45.8597V42.4777H49.4686V47.4009H48.4209L46.4069 44.0179V47.4009H45.4057H45.4047ZM39.7841 44.9441C39.7841 44.1487 40.0027 43.5179 40.4368 43.0516C40.8698 42.5843 41.4548 42.3511 42.192 42.3511C42.9292 42.3511 43.5142 42.5853 43.9504 43.0526C44.3876 43.521 44.6052 44.1508 44.6052 44.9441C44.6052 45.7374 44.3876 46.3692 43.9504 46.8366C43.5142 47.3049 42.9281 47.5381 42.192 47.5381C41.4559 47.5381 40.8708 47.3039 40.4368 46.8366C40.0027 46.3682 39.7841 45.7374 39.7841 44.9441ZM40.818 44.9441C40.818 45.4863 40.9395 45.9072 41.1803 46.2068C41.4221 46.5064 41.7579 46.6562 42.1909 46.6562C42.624 46.6562 42.9693 46.5064 43.2122 46.2068C43.4551 45.9061 43.5755 45.4852 43.5755 44.9441C43.5755 44.4029 43.4551 43.982 43.2122 43.6824C42.9693 43.3818 42.6282 43.233 42.1909 43.233C41.7537 43.233 41.4221 43.3818 41.1803 43.6814C40.9395 43.9799 40.818 44.4019 40.818 44.9441ZM39.1895 45.7099C39.1515 46.269 38.936 46.7142 38.5421 47.0444C38.1471 47.3735 37.6328 47.5381 37.0012 47.5381C36.2715 47.5381 35.7044 47.3102 35.2988 46.8556C34.8943 46.4019 34.6915 45.7637 34.6915 44.9441C34.6915 44.1244 34.8985 43.4651 35.3104 43.0189C35.7223 42.5727 36.3169 42.3501 37.09 42.3501C37.7205 42.3501 38.2168 42.503 38.5812 42.81C38.9455 43.1159 39.1462 43.5495 39.1821 44.1086H38.1809C38.1387 43.8291 38.0236 43.6181 37.8387 43.4714C37.6539 43.3259 37.4036 43.252 37.0889 43.252C36.6432 43.252 36.3032 43.3955 36.0719 43.6835C35.8395 43.9715 35.7223 44.3903 35.7223 44.943C35.7223 45.4958 35.8385 45.8914 36.0687 46.1825C36.3011 46.4747 36.6284 46.6214 37.0562 46.6214C37.3624 46.6214 37.6148 46.5422 37.8113 46.3861C38.0077 46.2289 38.1344 46.0043 38.1925 45.7099H39.1863H39.1895ZM28.0592 47.4009V42.4777H30.4492C30.9857 42.4777 31.3849 42.5938 31.6426 42.8227C31.9024 43.0526 32.0312 43.4029 32.0312 43.8755C32.0312 44.1751 31.9689 44.4261 31.8422 44.6276C31.7165 44.828 31.5348 44.9652 31.2983 45.039C31.5127 45.115 31.6658 45.23 31.7556 45.3871C31.8464 45.5433 31.8982 45.7859 31.9119 46.1161L31.933 46.6973V46.7184C31.9383 47.0106 32.0016 47.19 32.1231 47.2522V47.403H31.011C30.9762 47.3334 30.9498 47.248 30.9308 47.1467C30.9117 47.0454 30.8991 46.9241 30.8959 46.7838L30.8822 46.2659C30.8706 45.961 30.8135 45.7542 30.71 45.6487C30.6065 45.5422 30.4185 45.4884 30.1492 45.4884H29.0741V47.403H28.0603L28.0592 47.4009ZM29.0731 44.6308H30.2665C30.5242 44.6308 30.7143 44.5791 30.8368 44.4736C30.9582 44.3681 31.0184 44.2046 31.0184 43.9778C31.0184 43.7647 30.9582 43.6022 30.842 43.4915C30.7248 43.3807 30.5463 43.3259 30.314 43.3259H29.0741V44.6297L29.0731 44.6308ZM26.2818 46.8197C26.0991 47.0676 25.891 47.248 25.6576 47.3651C25.4242 47.4801 25.1507 47.5391 24.836 47.5391C24.1474 47.5391 23.5887 47.3007 23.1621 46.8228C22.7343 46.3439 22.521 45.7163 22.521 44.9388C22.521 44.1613 22.7343 43.5263 23.161 43.0569C23.5866 42.5864 24.1548 42.3522 24.8634 42.3522C25.4813 42.3522 25.985 42.4999 26.3747 42.7952C26.7644 43.0906 26.9978 43.4978 27.0707 44.0137H26.0368C25.9734 43.7584 25.8477 43.5632 25.6534 43.4303C25.4612 43.2963 25.2088 43.2288 24.8983 43.2288C24.4864 43.2288 24.1622 43.3797 23.9256 43.6814C23.6912 43.9831 23.5729 44.4008 23.5729 44.9325C23.5729 45.4641 23.6954 45.8861 23.9415 46.1899C24.1865 46.4927 24.5244 46.6435 24.9521 46.6435C25.2732 46.6435 25.5415 46.5486 25.759 46.3597C25.9745 46.1699 26.1086 45.9093 26.1593 45.5802H25.0419V44.7384H27.0834V47.402H26.4043L26.2797 46.8207L26.2818 46.8197Z" fill="#4D4C4E"/>
<path fill-rule="evenodd" clip-rule="evenodd" d="M70.0301 26.3775C69.6414 29.6119 68.2537 30.6531 65.4276 30.326C65.8796 29.5496 66.6442 28.7215 67.3856 28.0601C68.1227 27.4019 68.9972 26.8712 70.0301 26.3775ZM65.2776 30.1657C65.2892 27.6835 67.4078 25.9113 70.0163 26.3048C67.9432 27.2616 66.9557 27.6719 65.2776 30.1657Z" fill="#9BA338"/>
<mask id="mask0_1850_79795" style="mask-type:luminance" maskUnits="userSpaceOnUse" x="46" y="14" width="19" height="25">
<path d="M46.7251 26.2699C46.7251 32.8187 53.8179 38.1175 64.8288 38.4814V24.8479L61.4789 25.273V35.3589C60.7343 35.418 50.7034 33.5002 50.958 26.0937C51.4237 20.5144 57.5755 17.7695 64.7708 17.1113V14.4688C54.3618 14.5289 46.8677 19.9795 46.7262 26.2699H46.7251Z" fill="white"/>
</mask>
<g mask="url(#mask0_1850_79795)">
<path d="M64.8299 14.4688H46.7251V38.4814H64.8299V14.4688Z" fill="url(#paint0_linear_1850_79795)"/>
</g>
<path d="M93.8224 51.4909V49.8009H93.25V49.649H94.5681V49.8009H93.9957V51.4909H93.8224ZM91.0322 51.4909V49.6501H91.2181L92.2584 51.2303V49.6501H92.4231V51.4909H92.2351L91.198 49.9107V51.4909H91.0322ZM88.8852 51.4909V49.6501H90.0923V49.802H89.0552V50.4729H90.0036V50.6195H89.0552V51.3411H90.124V51.4919H88.8862L88.8852 51.4909ZM86.1974 51.4909V49.6501H86.435L87.0433 51.2715L87.64 49.6501H87.8787V51.4909H87.7139V49.8853L87.1225 51.4909H86.9662L86.3642 49.8853V51.4909H86.1974ZM83.799 51.4909V49.6501H83.9859L85.0272 51.2303V49.6501H85.1909V51.4909H85.0029L83.9658 49.9107V51.4909H83.799ZM81.184 50.5721C81.184 50.2735 81.2601 50.0383 81.4122 49.8632C81.5632 49.6891 81.7681 49.6026 82.0279 49.6026C82.2877 49.6026 82.4936 49.6902 82.6446 49.8632C82.7967 50.0383 82.8738 50.2735 82.8738 50.5721C82.8738 50.8706 82.7978 51.1069 82.6446 51.281C82.4926 51.455 82.2877 51.5415 82.0279 51.5415C81.7681 51.5415 81.5632 51.455 81.4122 51.281C81.2601 51.1069 81.184 50.8706 81.184 50.5721ZM81.3594 50.5721C81.3594 50.8231 81.4196 51.0236 81.54 51.1702C81.6603 51.3179 81.823 51.3917 82.0289 51.3917C82.2349 51.3917 82.3986 51.3179 82.519 51.1713C82.6404 51.0246 82.7006 50.8252 82.7006 50.5731C82.7006 50.321 82.6404 50.1195 82.519 49.9718C82.3986 49.8241 82.2349 49.7503 82.0289 49.7503C81.823 49.7503 81.6646 49.8252 81.5421 49.9729C81.4206 50.1216 81.3594 50.3221 81.3594 50.5721ZM79.0095 51.4909V49.6501H79.6242C79.7668 49.6501 79.8702 49.6564 79.9336 49.668C79.998 49.6796 80.053 49.6986 80.1015 49.725C80.1744 49.7661 80.2304 49.822 80.2695 49.8938C80.3085 49.9666 80.3286 50.0478 80.3286 50.1396C80.3286 50.2524 80.3022 50.3484 80.2526 50.4254C80.2019 50.5025 80.1279 50.5584 80.0308 50.5911C80.1068 50.6164 80.1596 50.6544 80.1924 50.706C80.2251 50.7577 80.2483 50.8622 80.261 51.0183L80.2853 51.2947C80.2885 51.339 80.2948 51.3738 80.3043 51.4023C80.3159 51.4308 80.3275 51.4519 80.3444 51.4645V51.4898H80.1565C80.1459 51.4708 80.1374 51.4455 80.1301 51.4149C80.1237 51.3843 80.1184 51.3464 80.1153 51.3021L80.0931 51.0584C80.0815 50.8896 80.0508 50.783 80.0033 50.7366C79.9558 50.6902 79.8607 50.667 79.7171 50.667H79.1796V51.4909H79.0095ZM79.1796 50.5162H79.6685C79.8407 50.5162 79.9642 50.4877 80.0392 50.4286C80.1153 50.3706 80.1533 50.2756 80.1533 50.1448C80.1533 50.0847 80.1406 50.0309 80.1174 49.9824C80.0931 49.9349 80.0593 49.8959 80.016 49.8663C79.9811 49.8431 79.94 49.8263 79.8924 49.8168C79.8449 49.8073 79.7678 49.802 79.6601 49.802H79.1806V50.5172L79.1796 50.5162ZM77.8172 49.6501H77.9914V51.4909H77.8172V49.6501ZM76.1887 51.4909L75.5508 49.6501H75.725L76.2816 51.2767L76.8371 49.6501H77.0082L76.3703 51.4909H76.1887ZM73.3541 51.4909V49.6501H73.5421L74.5834 51.2303V49.6501H74.746V51.4909H74.5591L73.521 49.9107V51.4909H73.3541ZM71.2091 51.4909V49.6501H72.4152V49.802H71.3781V50.4729H72.3265V50.6195H71.3781V51.3411H72.4469V51.4919H71.2091V51.4909ZM67.5402 51.4909L67.5223 51.1649C67.4652 51.2841 67.3808 51.3759 67.2677 51.4424C67.1547 51.5088 67.0248 51.5415 66.8791 51.5415C66.6225 51.5415 66.4208 51.455 66.2729 51.281C66.1261 51.1069 66.0532 50.8685 66.0532 50.5668C66.0532 50.2651 66.1272 50.032 66.2782 49.86C66.4281 49.6881 66.6309 49.6016 66.8886 49.6016C67.103 49.6016 67.2773 49.6522 67.4114 49.7556C67.5455 49.8579 67.6258 50.0003 67.6522 50.186H67.479C67.4526 50.0499 67.3881 49.9444 67.2836 49.8663C67.179 49.7893 67.0491 49.7503 66.8918 49.7503C66.6795 49.7503 66.5148 49.821 66.3996 49.9623C66.2835 50.1037 66.2254 50.3052 66.2254 50.5657C66.2254 50.8263 66.2845 51.0183 66.3996 51.1649C66.5158 51.3126 66.6732 51.3865 66.8717 51.3865C67.0703 51.3865 67.2318 51.3263 67.3448 51.2071C67.4579 51.0879 67.5149 50.9202 67.5149 50.705V50.6976H66.9066V50.5468H67.6765V51.4919H67.5413L67.5402 51.4909ZM63.7287 51.4909V49.6501H63.9167L64.958 51.2303V49.6501H65.1217V51.4909H64.9338L63.8956 49.9107V51.4909H63.7287ZM62.5375 49.6501H62.7107V51.4909H62.5375V49.6501ZM60.9089 51.4909L60.2711 49.6501H60.4443L61.0019 51.2767L61.5574 49.6501H61.7285L61.0906 51.4909H60.9089ZM59.2825 49.6501H59.4568V51.4909H59.2825V49.6501ZM57.3435 51.4909V49.6501H57.5167V51.34H58.4577V51.4909H57.3435ZM52.5266 51.4909V49.6501H53.1413C53.2839 49.6501 53.3863 49.6564 53.4507 49.668C53.5141 49.6796 53.5701 49.6986 53.6176 49.725C53.6905 49.7661 53.7464 49.822 53.7855 49.8938C53.8246 49.9666 53.8447 50.0478 53.8447 50.1396C53.8447 50.2524 53.8183 50.3484 53.7676 50.4254C53.7169 50.5025 53.6429 50.5584 53.5468 50.5911C53.6218 50.6164 53.6757 50.6544 53.7084 50.706C53.7401 50.7577 53.7633 50.8622 53.7771 51.0183L53.8014 51.2947C53.8045 51.339 53.8109 51.3738 53.8214 51.4023C53.8309 51.4308 53.8436 51.4519 53.8594 51.4645V51.4898H53.6715C53.662 51.4708 53.6535 51.4455 53.6461 51.4149C53.6408 51.3843 53.6356 51.3464 53.6324 51.3021L53.6113 51.0584C53.5986 50.8896 53.568 50.783 53.5204 50.7366C53.4729 50.6902 53.3768 50.667 53.2342 50.667H52.6967V51.4909H52.5277H52.5266ZM52.6956 50.5162H53.1846C53.3567 50.5162 53.4803 50.4877 53.5563 50.4286C53.6324 50.3706 53.6693 50.2756 53.6693 50.1448C53.6693 50.0847 53.6577 50.0309 53.6334 49.9824C53.6102 49.9349 53.5764 49.8959 53.5321 49.8663C53.4972 49.8431 53.4571 49.8263 53.4095 49.8168C53.362 49.8073 53.2828 49.802 53.1751 49.802H52.6956V50.5172V50.5162ZM50.3796 51.4909V49.6501H51.5867V49.802H50.5496V50.4729H51.498V50.6195H50.5496V51.3411H51.6173V51.4919H50.3796V51.4909ZM48.8102 51.4909V49.8009H48.2378V49.649H49.5558V49.8009H48.9834V51.4909H48.8102ZM46.7909 51.4909V49.8009H46.2185V49.649H47.5376V49.8009H46.9652V51.4909H46.792H46.7909ZM44.2552 51.4909V49.6501H45.4624V49.802H44.4253V50.4729H45.3726V50.6195H44.4253V51.3411H45.493V51.4919H44.2552V51.4909ZM42.0184 51.4909V49.6501H42.6278C42.7344 49.6501 42.8179 49.6564 42.8802 49.668C42.9425 49.6796 42.9953 49.6986 43.0407 49.725C43.1104 49.764 43.1653 49.8189 43.2044 49.8874C43.2445 49.9581 43.2635 50.0351 43.2635 50.1206C43.2635 50.2124 43.2393 50.2925 43.1917 50.3611C43.1432 50.4307 43.0756 50.4824 42.99 50.5172C43.102 50.5415 43.1896 50.5953 43.253 50.6807C43.3164 50.7662 43.3491 50.8696 43.3491 50.994C43.3491 51.1016 43.3227 51.1955 43.272 51.2757C43.2213 51.3559 43.1495 51.4128 43.0597 51.4487C43.0228 51.4635 42.9668 51.474 42.8918 51.4814C42.8168 51.4877 42.6954 51.4909 42.5285 51.4909H42.0195H42.0184ZM42.5982 49.802H42.1884V50.4676H42.5824C42.7714 50.4676 42.9045 50.4423 42.9784 50.3906C43.0523 50.34 43.0893 50.2545 43.0893 50.1322C43.0893 50.0098 43.0544 49.9265 42.9826 49.8758C42.9119 49.8263 42.782 49.8009 42.5971 49.8009L42.5982 49.802ZM42.1874 51.34H42.6837C42.8665 51.34 42.9942 51.3126 43.065 51.2599C43.1368 51.2071 43.1727 51.1153 43.1727 50.9866C43.1727 50.8579 43.1326 50.7683 43.0523 50.705C42.971 50.6417 42.8538 50.6101 42.6964 50.6101H42.1863V51.34H42.1874ZM38.3495 51.4909L38.3315 51.1649C38.2745 51.2841 38.19 51.3759 38.077 51.4424C37.9651 51.5088 37.8341 51.5415 37.6884 51.5415C37.4317 51.5415 37.2311 51.455 37.0822 51.281C36.9354 51.1069 36.8614 50.8685 36.8614 50.5668C36.8614 50.2651 36.9364 50.032 37.0864 49.86C37.2364 49.6881 37.4402 49.6016 37.6968 49.6016C37.9112 49.6016 38.0855 49.6522 38.2196 49.7556C38.3537 49.8579 38.434 50.0003 38.4614 50.186H38.2861C38.2608 50.0499 38.1953 49.9444 38.0918 49.8663C37.9873 49.7893 37.8563 49.7503 37.7 49.7503C37.4867 49.7503 37.323 49.821 37.2068 49.9623C37.0906 50.1037 37.0325 50.3052 37.0325 50.5657C37.0325 50.8263 37.0906 51.0183 37.2078 51.1649C37.324 51.3126 37.4814 51.3865 37.6789 51.3865C37.8764 51.3865 38.039 51.3263 38.152 51.2071C38.2661 51.0879 38.322 50.9202 38.322 50.705V50.6976H37.7127V50.5468H38.4836V51.4919H38.3474L38.3495 51.4909ZM34.5391 51.4909V49.6501H34.726L35.7673 51.2303V49.6501H35.931V51.4909H35.743L34.7059 49.9107V51.4909H34.5391ZM33.3467 49.6501H33.5199V51.4909H33.3467V49.6501ZM31.7657 51.4909V49.8009H31.1944V49.649H32.5113V49.8009H31.94V51.4909H31.7668H31.7657ZM29.0748 51.4909L29.775 49.6501H29.9767L30.6758 51.4909H30.4995L30.2904 50.9244H29.4634L29.2512 51.4909H29.0748ZM29.5183 50.7767H30.2323L29.8743 49.8294L29.5183 50.7767ZM27.1463 51.4909V49.6501H28.3524V49.802H27.3153V50.4729H28.2637V50.6195H27.3153V51.3411H28.3841V51.4919H27.1463V51.4909ZM24.8916 51.4909V49.6501H25.5062C25.6488 49.6501 25.7512 49.6564 25.8156 49.668C25.879 49.6796 25.935 49.6986 25.9836 49.725C26.0564 49.7661 26.1124 49.822 26.1504 49.8938C26.1906 49.9666 26.2096 50.0478 26.2096 50.1396C26.2096 50.2524 26.1842 50.3484 26.1335 50.4254C26.0828 50.5025 26.0089 50.5584 25.9128 50.5911C25.9878 50.6164 26.0417 50.6544 26.0733 50.706C26.1061 50.7577 26.1283 50.8622 26.142 51.0183L26.1663 51.2947C26.1694 51.339 26.1758 51.3738 26.1853 51.4023C26.1948 51.4308 26.2085 51.4519 26.2244 51.4645V51.4898H26.0364C26.0269 51.4708 26.0184 51.4455 26.011 51.4149C26.0047 51.3843 26.0005 51.3464 25.9962 51.3021L25.9751 51.0584C25.9624 50.8896 25.9329 50.783 25.8843 50.7366C25.8368 50.6902 25.7417 50.667 25.5981 50.667H25.0605V51.4909H24.8916ZM25.0605 50.5162H25.5495C25.7217 50.5162 25.8452 50.4877 25.9202 50.4286C25.9962 50.3706 26.0332 50.2756 26.0332 50.1448C26.0332 50.0847 26.0216 50.0309 25.9984 49.9824C25.9741 49.9349 25.9413 49.8959 25.897 49.8663C25.8621 49.8431 25.822 49.8263 25.7745 49.8168C25.7269 49.8073 25.6488 49.802 25.54 49.802H25.0605V50.5172V50.5162ZM23.8048 50.8896H23.9706C23.9558 51.0932 23.884 51.2535 23.7541 51.3696C23.6253 51.4846 23.4521 51.5426 23.2345 51.5426C22.9863 51.5426 22.7899 51.4561 22.6473 51.2831C22.5037 51.109 22.4319 50.8706 22.4319 50.5689C22.4319 50.2672 22.5037 50.033 22.6484 49.8611C22.7931 49.6902 22.9906 49.6037 23.2387 49.6037C23.4479 49.6037 23.6158 49.6564 23.7446 49.763C23.8735 49.8695 23.9432 50.0119 23.9516 50.1902H23.7858C23.771 50.0552 23.7151 49.9486 23.6179 49.8706C23.5197 49.7925 23.394 49.7535 23.2387 49.7535C23.0391 49.7535 22.8839 49.8241 22.773 49.9666C22.6621 50.109 22.6072 50.3083 22.6072 50.5657C22.6072 50.8231 22.6642 51.0278 22.7772 51.1744C22.8902 51.3211 23.0465 51.3938 23.2461 51.3938C23.4088 51.3938 23.5397 51.3506 23.638 51.2609C23.7362 51.1713 23.7932 51.0478 23.8038 50.8907L23.8048 50.8896Z" fill="#4D4C4E"/>
</g>
<defs>
<filter id="filter0_d_1850_79795" x="0.875" y="0.65625" width="115.25" height="66.25" filterUnits="userSpaceOnUse" color-interpolation-filters="sRGB">
<feFlood flood-opacity="0" result="BackgroundImageFix"/>
<feColorMatrix in="SourceAlpha" type="matrix" values="0 0 0 0 0 0 0 0 0 0 0 0 0 0 0 0 0 0 127 0" result="hardAlpha"/>
<feOffset dy="0.78125"/>
<feGaussianBlur stdDeviation="1.5625"/>
<feComposite in2="hardAlpha" operator="out"/>
<feColorMatrix type="matrix" values="0 0 0 0 0 0 0 0 0 0 0 0 0 0 0 0 0 0 0.08 0"/>
<feBlend mode="normal" in2="BackgroundImageFix" result="effect1_dropShadow_1850_79795"/>
<feBlend mode="normal" in="SourceGraphic" in2="effect1_dropShadow_1850_79795" result="shape"/>
</filter>
<linearGradient id="paint0_linear_1850_79795" x1="55.777" y1="38.4814" x2="55.777" y2="14.4688" gradientUnits="userSpaceOnUse">
<stop stop-color="#B23537"/>
<stop offset="0.34" stop-color="#D93437"/>
<stop offset="0.45" stop-color="#E44B36"/>
<stop offset="0.58" stop-color="#F36B35"/>
<stop offset="0.66" stop-color="#F36E34"/>
<stop offset="0.74" stop-color="#F37A32"/>
<stop offset="0.82" stop-color="#F58D2F"/>
<stop offset="0.9" stop-color="#F7A92B"/>
<stop offset="0.98" stop-color="#F9CC26"/>
<stop offset="1" stop-color="#FAD825"/>
</linearGradient>
</defs>
</svg>
