<svg width="117" height="67" viewBox="0 0 117 67" fill="none" xmlns="http://www.w3.org/2000/svg">
<g filter="url(#filter0_d_1850_79534)">
<rect width="109" height="60" transform="translate(4 3)" fill="white"/>
<path d="M32.5754 42.866C32.4963 42.866 32.4213 42.8505 32.3505 42.8195C32.2796 42.7885 32.2062 42.7355 32.1304 42.6604C32.1156 42.6457 32.0999 42.6286 32.0843 42.6123C32.1172 42.6008 32.1502 42.591 32.1823 42.5788C32.4114 42.4866 32.6109 42.3569 32.7806 42.1912C32.9504 42.0256 33.0831 41.8281 33.1787 41.6005C33.2743 41.3728 33.3221 41.1256 33.3221 40.8588C33.3221 40.5919 33.2743 40.3398 33.1787 40.1146C33.0831 39.8886 32.9504 39.6928 32.7806 39.5263C32.6109 39.3607 32.4114 39.2309 32.1823 39.1387C31.9532 39.0465 31.7019 39 31.4283 39C31.1546 39 30.9074 39.0465 30.6767 39.1387C30.4459 39.2309 30.2448 39.3615 30.0734 39.5287C29.902 39.6968 29.7693 39.8935 29.6753 40.1195C29.5814 40.3455 29.5344 40.5919 29.5344 40.8588C29.5344 41.1256 29.5814 41.372 29.6753 41.598C29.7693 41.824 29.9012 42.0207 30.0709 42.1888C30.2407 42.3569 30.4418 42.4866 30.6742 42.5788C30.8242 42.6384 30.9824 42.6767 31.1481 42.6979C31.2568 42.8179 31.359 42.9223 31.4555 43.0105C31.5824 43.1271 31.7043 43.2193 31.8214 43.2879C31.9384 43.3564 32.0571 43.4062 32.1774 43.4372C32.2977 43.4682 32.4254 43.4837 32.5606 43.4837C32.9496 43.4837 33.2611 43.3368 33.4952 43.0423L33.1391 42.6008C32.9743 42.7787 32.7864 42.8677 32.5754 42.8677V42.866ZM31.4291 42.0085C31.2741 42.0085 31.1307 41.9807 30.9989 41.926C30.867 41.8714 30.7525 41.7922 30.6552 41.6894C30.558 41.5866 30.4822 41.4642 30.4278 41.3222C30.3734 41.1802 30.3462 41.0252 30.3462 40.8571C30.3462 40.689 30.3734 40.5299 30.4278 40.3896C30.4822 40.2492 30.558 40.1277 30.6552 40.0248C30.7525 39.922 30.867 39.8437 30.9989 39.7882C31.1307 39.7336 31.2741 39.7058 31.4291 39.7058C31.584 39.7058 31.7266 39.7336 31.8568 39.7882C31.987 39.8429 32.1016 39.922 32.2005 40.0248C32.2994 40.1277 32.376 40.2492 32.4304 40.3896C32.4848 40.5299 32.512 40.6858 32.512 40.8571C32.512 41.0285 32.4848 41.1794 32.4304 41.3222C32.376 41.4642 32.2994 41.5866 32.2005 41.6894C32.1016 41.7922 31.987 41.8706 31.8568 41.926C31.7266 41.9807 31.584 42.0085 31.4291 42.0085Z" fill="#2058A4"/>
<path d="M35.7792 41.2565C35.7792 41.4246 35.7528 41.5642 35.7001 41.6751C35.6474 41.7861 35.5748 41.8685 35.4825 41.9216C35.3902 41.9746 35.2847 42.0007 35.1661 42.0007C34.9946 42.0007 34.862 41.9468 34.768 41.8391C34.6741 41.7314 34.6271 41.5625 34.6271 41.3332V39.8906H33.8557V41.4516C33.8557 41.7355 33.9035 41.9697 33.9991 42.1525C34.0947 42.3361 34.229 42.4715 34.4021 42.5605C34.5752 42.6494 34.7721 42.6943 34.993 42.6943C35.1974 42.6943 35.3861 42.6453 35.5592 42.5482C35.6605 42.4911 35.7463 42.4152 35.8188 42.3255V42.6535H36.5506V39.8906H35.7792V41.2565Z" fill="#2058A4"/>
<path d="M38.3391 39.8446C38.1281 39.8446 37.9204 39.8739 37.7161 39.9319C37.5117 39.9898 37.337 40.0722 37.1919 40.1783L37.4688 40.738C37.5644 40.6597 37.6806 40.5969 37.8174 40.5504C37.9542 40.5039 38.0935 40.481 38.2353 40.481C38.4429 40.481 38.597 40.5292 38.6976 40.6246C38.7981 40.7201 38.8484 40.8539 38.8484 41.0253H38.2353C37.9649 41.0253 37.7457 41.0604 37.5776 41.1305C37.4095 41.2007 37.2867 41.2978 37.2092 41.421C37.1318 41.5442 37.093 41.6878 37.093 41.8526C37.093 42.0175 37.1326 42.1521 37.2117 42.2786C37.2908 42.4051 37.4045 42.5054 37.5529 42.5789C37.7012 42.6523 37.8792 42.689 38.0869 42.689C38.321 42.689 38.5122 42.6425 38.6605 42.5503C38.7619 42.4875 38.8393 42.4026 38.8978 42.2998V42.6474H39.6198V41.071C39.6198 40.6499 39.5077 40.3399 39.2835 40.1416C39.0594 39.9433 38.7446 39.8438 38.3391 39.8438V39.8446ZM38.8484 41.7751C38.8022 41.8983 38.7281 41.9914 38.6259 42.055C38.5237 42.1187 38.4083 42.1497 38.2798 42.1497C38.1446 42.1497 38.0383 42.1195 37.9608 42.0599C37.8834 42.0003 37.8446 41.9187 37.8446 41.8159C37.8446 41.7237 37.8784 41.6462 37.946 41.585C38.0136 41.523 38.138 41.4928 38.3193 41.4928H38.8484V41.7751Z" fill="#2058A4"/>
<path d="M41.088 38.8438H40.3167V42.6535H41.088V38.8438Z" fill="#2058A4"/>
<path d="M42.1894 38.611C42.0476 38.611 41.9322 38.6534 41.8432 38.7391C41.7542 38.8248 41.7097 38.9309 41.7097 39.0573C41.7097 39.1838 41.7542 39.2899 41.8432 39.3756C41.9322 39.4612 42.0476 39.5037 42.1894 39.5037C42.3311 39.5037 42.4506 39.4596 42.538 39.3723C42.6253 39.285 42.669 39.1748 42.669 39.041C42.669 38.9145 42.6245 38.8109 42.5355 38.7301C42.4465 38.6494 42.3311 38.6094 42.1894 38.6094V38.611Z" fill="#2058A4"/>
<path d="M42.5753 39.8906H41.804V42.6535H42.5753V39.8906Z" fill="#2058A4"/>
<path d="M44.8004 41.9552C44.7147 42.0237 44.6109 42.058 44.4889 42.058C44.3867 42.058 44.306 42.0261 44.2466 41.9633C44.1873 41.8997 44.1576 41.8099 44.1576 41.6941V40.5697H44.8202V39.9536H44.1576V39.2812H43.3862V39.9536H42.9758V40.5697H43.3862V41.7047C43.3862 42.0335 43.4736 42.2807 43.6483 42.4464C43.823 42.6128 44.067 42.6952 44.3801 42.6952C44.4988 42.6952 44.6134 42.6805 44.7238 42.6512C44.8342 42.6218 44.929 42.5786 45.0081 42.5206L44.8004 41.956V41.9552Z" fill="#2058A4"/>
<path d="M46.5402 41.7665L45.7935 39.8906H44.9974L46.1487 42.6763L46.1397 42.6992C46.0869 42.8224 46.0284 42.9105 45.9641 42.9635C45.8999 43.0166 45.8133 43.0427 45.7045 43.0427C45.6287 43.0427 45.5521 43.0272 45.4746 42.9962C45.3971 42.9652 45.3287 42.9227 45.2694 42.8681L44.9875 43.4384C45.0733 43.5168 45.1837 43.5788 45.3188 43.6237C45.454 43.6677 45.5908 43.6906 45.7293 43.6906C45.8908 43.6906 46.0383 43.6653 46.1718 43.6139C46.3053 43.5625 46.4273 43.4735 46.5377 43.347C46.6482 43.2206 46.7462 43.046 46.8319 42.8232L48.0327 39.8914H47.291L46.5394 41.7673L46.5402 41.7665Z" fill="#2058A4"/>
<path d="M50.8957 41.7665L50.149 39.8906H49.3529L50.5042 42.6763L50.4951 42.6992C50.4424 42.8224 50.3839 42.9105 50.3196 42.9635C50.2553 43.0166 50.1688 43.0427 50.06 43.0427C49.9842 43.0427 49.9075 43.0272 49.8301 42.9962C49.7526 42.9652 49.6842 42.9227 49.6249 42.8681L49.343 43.4384C49.4287 43.5168 49.5392 43.5788 49.6743 43.6237C49.8095 43.6677 49.9463 43.6906 50.0847 43.6906C50.2463 43.6906 50.3938 43.6653 50.5273 43.6139C50.6608 43.5625 50.7828 43.4735 50.8932 43.347C51.0036 43.2206 51.1017 43.046 51.1874 42.8232L52.3881 39.8914H51.6464L50.8948 41.7673L50.8957 41.7665Z" fill="#2058A4"/>
<path d="M54.6461 40.0335C54.4253 39.9119 54.1748 39.8516 53.8946 39.8516C53.6143 39.8516 53.3597 39.9128 53.1405 40.0335C52.9213 40.1551 52.7482 40.3232 52.6213 40.537C52.4944 40.7508 52.4309 40.9964 52.4309 41.2738C52.4309 41.5512 52.4944 41.7919 52.6213 42.0057C52.7482 42.2195 52.9213 42.3884 53.1405 42.5116C53.3597 42.6348 53.6111 42.6968 53.8946 42.6968C54.178 42.6968 54.4253 42.6348 54.6461 42.5116C54.867 42.3884 55.0401 42.2195 55.1653 42.0057C55.2906 41.7919 55.3532 41.5479 55.3532 41.2738C55.3532 40.9996 55.2906 40.7467 55.1653 40.5345C55.0401 40.3224 54.867 40.1551 54.6461 40.0335ZM54.483 41.6818C54.4236 41.7968 54.3429 41.8849 54.2407 41.9461C54.1385 42.0081 54.0231 42.0383 53.8946 42.0383C53.766 42.0383 53.6506 42.0073 53.5484 41.9461C53.4462 41.8841 53.3646 41.796 53.3037 41.6818C53.2427 41.5675 53.2122 41.4313 53.2122 41.2738C53.2122 41.1163 53.2427 40.976 53.3037 40.8634C53.3646 40.7508 53.4462 40.6634 53.5484 40.6014C53.6506 40.5394 53.766 40.5092 53.8946 40.5092C54.0231 40.5092 54.1385 40.5402 54.2407 40.6014C54.3429 40.6634 54.4236 40.7508 54.483 40.8634C54.5423 40.976 54.572 41.113 54.572 41.2738C54.572 41.4345 54.5423 41.5675 54.483 41.6818Z" fill="#2058A4"/>
<path d="M57.7753 41.2565C57.7753 41.4246 57.7489 41.5642 57.6962 41.6751C57.6434 41.7861 57.5709 41.8685 57.4786 41.9216C57.3863 41.9746 57.2808 42.0007 57.1622 42.0007C56.9907 42.0007 56.8581 41.9468 56.7641 41.8391C56.6702 41.7314 56.6232 41.5625 56.6232 41.3332V39.8906H55.8518V41.4516C55.8518 41.7355 55.8996 41.9697 55.9952 42.1525C56.0908 42.3361 56.2251 42.4715 56.3982 42.5605C56.5713 42.6494 56.7682 42.6943 56.9891 42.6943C57.1935 42.6943 57.3822 42.6453 57.5553 42.5482C57.6566 42.4911 57.7423 42.4152 57.8149 42.3255V42.6535H58.5467V39.8906H57.7753V41.2565Z" fill="#2058A4"/>
<path d="M61.5856 40.5936C61.6911 40.5316 61.8098 40.5014 61.9416 40.5014C62.0636 40.5014 62.1765 40.5324 62.2803 40.5936C62.3842 40.6556 62.4707 40.7511 62.5399 40.8808L63.1382 40.5471C63.0393 40.3211 62.8861 40.1473 62.6784 40.0257C62.4707 39.9041 62.2268 39.8438 61.9466 39.8438C61.6664 39.8438 61.4043 39.9049 61.1801 40.0257C60.956 40.1473 60.7804 40.3154 60.6535 40.5292C60.5266 40.7429 60.4631 40.9885 60.4631 41.266C60.4631 41.5434 60.5266 41.7849 60.6535 42.0003C60.7804 42.2158 60.956 42.3847 61.1801 42.5062C61.4043 42.6278 61.6598 42.6882 61.9466 42.6882C62.2333 42.6882 62.4707 42.627 62.6784 42.5062C62.8861 42.3855 63.0393 42.2125 63.1382 41.9905L62.5399 41.6519C62.4707 41.7857 62.3842 41.882 62.2803 41.9424C62.1765 42.002 62.0636 42.0322 61.9416 42.0322C61.8098 42.0322 61.6911 42.0012 61.5856 41.94C61.4801 41.8788 61.3969 41.7906 61.3359 41.678C61.2749 41.5654 61.2444 41.4283 61.2444 41.2676C61.2444 41.1069 61.2749 40.9698 61.3359 40.8572C61.3969 40.7446 61.4801 40.6573 61.5856 40.5953V40.5936Z" fill="#2058A4"/>
<path d="M64.6565 39.8446C64.4455 39.8446 64.2378 39.8739 64.0334 39.9319C63.8291 39.9898 63.6543 40.0722 63.5093 40.1783L63.7862 40.738C63.8818 40.6597 63.998 40.5969 64.1348 40.5504C64.2716 40.5039 64.4109 40.481 64.5526 40.481C64.7603 40.481 64.9144 40.5292 65.015 40.6246C65.1155 40.7201 65.1658 40.8539 65.1658 41.0253H64.5526C64.2823 41.0253 64.0631 41.0604 63.895 41.1305C63.7269 41.2007 63.6041 41.2978 63.5266 41.421C63.4491 41.5442 63.4104 41.6878 63.4104 41.8526C63.4104 42.0175 63.45 42.1521 63.5291 42.2786C63.6082 42.4051 63.7219 42.5054 63.8703 42.5789C64.0186 42.6523 64.1966 42.689 64.4043 42.689C64.6383 42.689 64.8295 42.6425 64.9779 42.5503C65.0793 42.4875 65.1567 42.4026 65.2152 42.2998V42.6474H65.9372V41.071C65.9372 40.6499 65.8251 40.3399 65.6009 40.1416C65.3768 39.9433 65.0619 39.8438 64.6565 39.8438V39.8446ZM65.1658 41.7751C65.1196 41.8983 65.0455 41.9914 64.9433 42.055C64.8411 42.1187 64.7257 42.1497 64.5971 42.1497C64.462 42.1497 64.3557 42.1195 64.2782 42.0599C64.2007 42.0003 64.162 41.9187 64.162 41.8159C64.162 41.7237 64.1958 41.6462 64.2634 41.585C64.3309 41.5238 64.4554 41.4928 64.6367 41.4928H65.1658V41.7751Z" fill="#2058A4"/>
<path d="M68.8162 39.9751C68.6497 39.8878 68.461 39.8438 68.25 39.8438C68.0225 39.8438 67.8198 39.8935 67.6418 39.9931C67.5363 40.0518 67.4465 40.1285 67.3698 40.2175V39.8854H66.6331V42.6482H67.4044V41.2823C67.4044 41.1109 67.4316 40.9706 67.486 40.8613C67.5404 40.7519 67.6162 40.6703 67.7135 40.6173C67.8107 40.5642 67.9203 40.5381 68.0423 40.5381C68.2137 40.5381 68.3464 40.5912 68.4404 40.6972C68.5343 40.8033 68.5813 40.9673 68.5813 41.1901V42.6482H69.3527V41.0669C69.3527 40.7862 69.3049 40.5561 69.2093 40.3766C69.1137 40.1971 68.9826 40.0632 68.8162 39.9759V39.9751Z" fill="#2058A4"/>
<path d="M72.6442 42.058C72.542 42.058 72.4612 42.0261 72.4019 41.9633C72.3426 41.8997 72.3129 41.8099 72.3129 41.6941V40.5697H72.9755V39.9536H72.3129V39.2812H71.5415V39.9536H71.1311V40.5697H71.5415V41.7047C71.5415 42.0335 71.6289 42.2807 71.8036 42.4464C71.9783 42.6128 72.2222 42.6952 72.5354 42.6952C72.6541 42.6952 72.7686 42.6805 72.8791 42.6512C72.9895 42.6218 73.0843 42.5786 73.1634 42.5206L72.9557 41.956C72.87 42.0245 72.7662 42.0588 72.6442 42.0588V42.058Z" fill="#2058A4"/>
<path d="M74.3347 40.2604V39.8924H73.5979V42.6552H74.3693V41.3513C74.3693 41.0877 74.4344 40.8935 74.5646 40.7687C74.6948 40.6439 74.8654 40.581 75.0764 40.581C75.106 40.581 75.1341 40.5818 75.1604 40.5835C75.1868 40.5851 75.2165 40.5876 75.2494 40.5908V39.8516C74.9989 39.8516 74.7863 39.9022 74.6116 40.0033C74.4987 40.0686 74.408 40.1559 74.3347 40.2604Z" fill="#2058A4"/>
<path d="M77.6371 41.2565C77.6371 41.4246 77.6108 41.5642 77.558 41.6751C77.5053 41.7861 77.4327 41.8685 77.3404 41.9216C77.2481 41.9746 77.1427 42.0007 77.024 42.0007C76.8526 42.0007 76.7199 41.9468 76.6259 41.8391C76.532 41.7314 76.485 41.5625 76.485 41.3332V39.8906H75.7136V41.4516C75.7136 41.7355 75.7614 41.9697 75.857 42.1525C75.9526 42.3361 76.087 42.4715 76.26 42.5605C76.4331 42.6494 76.6301 42.6943 76.8509 42.6943C77.0553 42.6943 77.244 42.6453 77.4171 42.5482C77.5185 42.4911 77.6042 42.4152 77.6767 42.3255V42.6535H78.4085V39.8906H77.6371V41.2565Z" fill="#2058A4"/>
<path d="M80.9556 41.1982C80.8617 41.1419 80.757 41.0979 80.6416 41.0669C80.5262 41.0359 80.4117 41.013 80.298 40.9975C80.1842 40.982 80.0796 40.9641 79.984 40.9437C79.8884 40.9233 79.8117 40.8955 79.754 40.8613C79.6963 40.827 79.6675 40.7756 79.6675 40.707C79.6675 40.632 79.7071 40.57 79.7862 40.5218C79.8653 40.4737 79.9906 40.45 80.162 40.45C80.2839 40.45 80.41 40.4647 80.5402 40.4933C80.6705 40.5226 80.7998 40.5765 80.9284 40.6548L81.1855 40.0853C81.0603 40.0069 80.9037 39.9466 80.7158 39.9058C80.5279 39.865 80.3433 39.8438 80.162 39.8438C79.9049 39.8438 79.684 39.8821 79.4994 39.9596C79.3148 40.0371 79.1739 40.1416 79.0766 40.2754C78.9794 40.4092 78.9307 40.5626 78.9307 40.7372C78.9307 40.8947 78.9596 41.0228 79.0173 41.1224C79.075 41.2219 79.1516 41.3002 79.2472 41.3582C79.3428 41.4161 79.4483 41.4602 79.5637 41.4895C79.679 41.5189 79.7936 41.5418 79.9073 41.5589C80.0211 41.576 80.1257 41.5932 80.2213 41.6103C80.3169 41.6274 80.3936 41.6519 80.4512 41.6846C80.5089 41.7172 80.5378 41.7662 80.5378 41.8306C80.5378 41.9098 80.5007 41.971 80.4265 42.0158C80.3523 42.0607 80.2263 42.0827 80.0482 42.0827C79.8867 42.0827 79.7227 42.0583 79.5562 42.0085C79.3898 41.9587 79.2456 41.8951 79.1236 41.8159L78.8665 42.3912C78.9884 42.4769 79.1541 42.5478 79.3634 42.6041C79.5727 42.6604 79.7911 42.689 80.0186 42.689C80.2856 42.689 80.5122 42.6515 80.6985 42.5764C80.8847 42.5013 81.0273 42.3977 81.1262 42.2655C81.2251 42.1342 81.2745 41.9824 81.2745 41.811C81.2745 41.6536 81.2449 41.5263 81.1855 41.4283C81.1262 41.3304 81.0496 41.2537 80.9556 41.1974V41.1982Z" fill="#2058A4"/>
<path d="M83.256 41.9552C83.1703 42.0237 83.0665 42.058 82.9445 42.058C82.8423 42.058 82.7615 42.0261 82.7022 41.9633C82.6429 41.8997 82.6132 41.8099 82.6132 41.6941V40.5697H83.2758V39.9536H82.6132V39.2812H81.8418V39.9536H81.4314V40.5697H81.8418V41.7047C81.8418 42.0335 81.9292 42.2807 82.1039 42.4464C82.2786 42.6128 82.5225 42.6952 82.8357 42.6952C82.9544 42.6952 83.0689 42.6805 83.1794 42.6512C83.2898 42.6218 83.3846 42.5786 83.4637 42.5206L83.256 41.956V41.9552Z" fill="#2058A4"/>
<path d="M42.3889 36.9733H38.5262V35.7918C38.4084 36.2267 38.2501 36.518 38.0532 36.6673C37.7903 36.8713 37.3642 36.9725 36.7733 36.9725H32.4409C30.3666 36.9725 29.3298 35.7706 29.3298 33.3676V27.5424C29.3298 25.1394 30.3625 23.9375 32.4277 23.9375H42.0543V26.0965H35.055C34.4279 26.0965 34.1139 26.3683 34.1139 26.9109V33.9983C34.1139 34.5417 34.4279 34.8126 35.055 34.8126H36.6827C37.2966 34.8126 37.604 34.5409 37.604 33.9983V31.3097H35.0163V29.1507H42.3881V36.9717L42.3889 36.9733Z" fill="#2058A4"/>
<path d="M58.3293 36.9717H53.0945L50.8199 31.3097H49.3497V36.9717H44.5657V23.9375H54.526C55.5974 23.9375 56.3688 24.1415 56.8393 24.5487C57.3618 25.0105 57.6239 25.771 57.6239 26.8301V29.3351C57.6239 30.6521 56.9836 31.3105 55.7029 31.3105L58.3302 36.9725L58.3293 36.9717ZM52.839 28.4179V26.8293C52.839 26.5445 52.7904 26.3503 52.6923 26.2491C52.5943 26.1471 52.408 26.0965 52.1336 26.0965H49.3497V29.1515H52.1336C52.6042 29.1515 52.839 28.9075 52.839 28.4179Z" fill="#2058A4"/>
<path d="M70.4847 36.9717H59.6228V23.9375H70.4847V26.0965H64.4068V29.1515H69.9746V31.3105H64.4068V34.8135H70.4847V36.9725V36.9717Z" fill="#2058A4"/>
<path d="M83.2679 36.9717H72.406V23.9375H83.2679V26.0965H77.19V29.1515H82.7578V31.3105H77.19V34.8135H83.2679V36.9725V36.9717Z" fill="#2058A4"/>
<path d="M86.7316 24.4689C86.7267 24.384 86.6657 24.0756 86.444 24.0022C86.444 24.0022 86.7753 23.9059 86.7753 23.573C86.7753 23.2237 86.472 23.125 86.1852 23.125H85.4749V24.8067H85.8383V24.1539H86.027C86.1309 24.1539 86.2932 24.1654 86.3369 24.3726C86.3806 24.5815 86.4613 24.8067 86.4613 24.8067H86.8297C86.8297 24.8067 86.7382 24.5529 86.7325 24.4689H86.7316ZM86.1028 23.8838H85.8375V23.3959C85.8375 23.3959 86.0303 23.3886 86.1605 23.3886C86.2907 23.3886 86.3987 23.5012 86.3987 23.6366C86.3987 23.7721 86.2545 23.8847 86.102 23.8847L86.1028 23.8838Z" fill="#2058A4"/>
<path d="M86.0816 22.3125C85.2056 22.3125 84.4968 23.0493 84.4968 23.9591C84.4968 24.8689 85.2064 25.6057 86.0816 25.6057C86.9568 25.6057 87.6664 24.8689 87.6664 23.9591C87.6664 23.0493 86.9568 22.3125 86.0816 22.3125ZM86.0816 25.2622C85.3893 25.2622 84.8265 24.678 84.8265 23.9583C84.8265 23.2386 85.3893 22.6544 86.0816 22.6544C86.7739 22.6544 87.3368 23.2386 87.3368 23.9583C87.3368 24.678 86.7739 25.2622 86.0816 25.2622Z" fill="#2058A4"/>
</g>
<defs>
<filter id="filter0_d_1850_79534" x="0.875" y="0.65625" width="115.25" height="66.25" filterUnits="userSpaceOnUse" color-interpolation-filters="sRGB">
<feFlood flood-opacity="0" result="BackgroundImageFix"/>
<feColorMatrix in="SourceAlpha" type="matrix" values="0 0 0 0 0 0 0 0 0 0 0 0 0 0 0 0 0 0 127 0" result="hardAlpha"/>
<feOffset dy="0.78125"/>
<feGaussianBlur stdDeviation="1.5625"/>
<feComposite in2="hardAlpha" operator="out"/>
<feColorMatrix type="matrix" values="0 0 0 0 0 0 0 0 0 0 0 0 0 0 0 0 0 0 0.08 0"/>
<feBlend mode="normal" in2="BackgroundImageFix" result="effect1_dropShadow_1850_79534"/>
<feBlend mode="normal" in="SourceGraphic" in2="effect1_dropShadow_1850_79534" result="shape"/>
</filter>
</defs>
</svg>
