<svg width="41" height="26" viewBox="0 0 41 26" fill="none" xmlns="http://www.w3.org/2000/svg">
<path d="M9.27211 11.3374C9.37764 11.3198 9.50076 11.3198 9.60629 11.3374C12.0335 11.2494 13.9682 9.26194 13.9682 6.79955C13.9682 4.2844 11.9456 2.26172 9.43041 2.26172C6.91526 2.26172 4.89258 4.30198 4.89258 6.79955C4.91017 9.26194 6.8449 11.2494 9.27211 11.3374Z" stroke="#534BEF" stroke-width="2.63827" stroke-linecap="round" stroke-linejoin="round"/>
<path d="M11.0828 24.1421C8.67315 24.5467 6.01729 24.1245 4.15291 22.8757C1.67299 21.2224 1.67299 18.5138 4.15291 16.8605C6.03488 15.6117 8.72592 15.1896 11.1355 15.6117" stroke="#534BEF" stroke-width="2.63827" stroke-linecap="round" stroke-linejoin="round"/>
<path d="M20.9481 11.3296C20.8426 11.312 20.7194 11.312 20.6139 11.3296C18.1867 11.2416 16.252 9.25413 16.252 6.79174C16.252 4.27658 18.2746 2.25391 20.7898 2.25391C23.3049 2.25391 25.3276 4.29417 25.3276 6.79174C25.31 9.25413 23.3753 11.2592 20.9481 11.3296Z" stroke="#534BEF" stroke-width="2.63827" stroke-linecap="round" stroke-linejoin="round"/>
<path d="M15.8287 16.8709C13.3488 18.5243 13.3488 21.2329 15.8287 22.8862C18.6429 24.7682 23.2511 24.7682 26.0652 22.8862C28.5452 21.2329 28.5452 18.5243 26.0652 16.8709C23.2687 15.0066 18.6429 15.0066 15.8287 16.8709Z" stroke="#534BEF" stroke-width="2.63827" stroke-linecap="round" stroke-linejoin="round"/>
<path d="M32.62 11.3374C32.5144 11.3198 32.3913 11.3198 32.2858 11.3374C29.8586 11.2494 27.9238 9.26194 27.9238 6.79955C27.9238 4.2844 29.9465 2.26172 32.4617 2.26172C34.9768 2.26172 36.9995 4.30198 36.9995 6.79955C36.9819 9.26194 35.0472 11.2494 32.62 11.3374Z" stroke="#534BEF" stroke-width="2.63827" stroke-linecap="round" stroke-linejoin="round"/>
<path d="M30.8106 24.1421C33.2202 24.5467 35.8761 24.1245 37.7404 22.8757C40.2204 21.2224 40.2204 18.5138 37.7404 16.8605C35.8585 15.6117 33.1674 15.1896 30.7578 15.6117" stroke="#534BEF" stroke-width="2.63827" stroke-linecap="round" stroke-linejoin="round"/>
</svg>
