<svg width="101" height="101" viewBox="0 0 101 101" fill="none" xmlns="http://www.w3.org/2000/svg">
<path d="M10.042 84.5117V79.0742H22.542V79.1523" stroke="#6D6D6D" stroke-width="3.125" stroke-linecap="round" stroke-linejoin="round"/>
<path d="M22.542 91.0586V97.8242H10.042V96.418" stroke="#6D6D6D" stroke-width="3.125" stroke-linecap="round" stroke-linejoin="round"/>
<path d="M31.917 80.2617V66.5742H44.417V76.4492" stroke="#6D6D6D" stroke-width="3.125" stroke-linecap="round" stroke-linejoin="round"/>
<path d="M44.417 90.4492V97.8242H31.917V91.9492" stroke="#6D6D6D" stroke-width="3.125" stroke-linecap="round" stroke-linejoin="round"/>
<path d="M53.792 68.9492V54.0742H66.292V65.0586" stroke="#6D6D6D" stroke-width="3.125" stroke-linecap="round" stroke-linejoin="round"/>
<path d="M66.292 76.2148V97.8242H53.792V82.9492" stroke="#6D6D6D" stroke-width="3.125" stroke-linecap="round" stroke-linejoin="round"/>
<path d="M88.167 69.0723V97.8223H75.667V78.0879" stroke="#6D6D6D" stroke-width="3.125" stroke-linecap="round" stroke-linejoin="round"/>
<path d="M75.667 66.4648V41.5742H88.167V53.0117" stroke="#6D6D6D" stroke-width="3.125" stroke-linecap="round" stroke-linejoin="round"/>
<path d="M80.3545 41.5742V8.76172H97.542L92.8545 13.4492L97.542 19.6992H80.3545" stroke="#6D6D6D" stroke-width="3.125" stroke-linecap="round" stroke-linejoin="round"/>
<path d="M97.542 50.9492L88.167 61.043L77.2295 72.8242L75.667 72.5117L61.6045 69.6992L38.167 88.4492L25.667 83.7617L3.79199 93.1367" stroke="#6D6D6D" stroke-width="3.125" stroke-linecap="round" stroke-linejoin="round"/>
<path d="M92.8545 50.9492H97.542V55.6367" stroke="#6D6D6D" stroke-width="3.125" stroke-linecap="round" stroke-linejoin="round"/>
<path d="M36.6408 32.2363L38.1674 33.7629H44.4174C45.2462 33.7629 46.041 34.0921 46.6271 34.6782C47.2131 35.2642 47.5424 36.0591 47.5424 36.8879C47.5424 37.7167 47.2131 38.5115 46.6271 39.0976C46.041 39.6836 45.2462 40.0129 44.4174 40.0129H38.7158C38.3531 40.0126 37.9928 39.9541 37.6486 39.8395L34.8252 38.902" stroke="#6D6D6D" stroke-width="3.125" stroke-linecap="round" stroke-linejoin="round"/>
<path d="M17.5425 37.8242C16.7175 40.5609 16.2964 43.4034 16.2925 46.2617C16.2925 51.6773 33.48 54.0742 33.48 54.0742L32.9269 66.5742H39.0409L41.0065 52.9336C41.0928 52.3332 41.0157 51.7206 40.7834 51.1602C40.551 50.5999 40.1721 50.1125 39.6862 49.7492L28.7347 41.5742C28.7347 41.5742 33.48 31.8445 33.48 27.6523C33.48 23.4602 28.3409 21.2617 26.5503 21.2617C23.6487 21.2617 14.38 26.093 11.5097 27.6273C10.954 27.9239 10.4927 28.3706 10.1784 28.9164L5.37373 37.2648C5.16714 37.6237 5.03394 38.0201 4.98185 38.4309C4.92977 38.8416 4.95984 39.2587 5.07033 39.6578C5.18082 40.0568 5.36952 40.43 5.62546 40.7555C5.88141 41.081 6.19949 41.3524 6.56123 41.5539C6.94913 41.7697 7.37577 41.9068 7.81673 41.9574C8.25769 42.0081 8.70432 41.9712 9.13102 41.849C9.55773 41.7268 9.95614 41.5216 10.3034 41.2453C10.6507 40.9689 10.9401 40.6267 11.155 40.2383L14.73 33.7617L22.5425 30.6367" stroke="#6D6D6D" stroke-width="3.125" stroke-linecap="round" stroke-linejoin="round"/>
<path d="M16.2922 54.0742L14.5844 59.3586L9.46877 64.7742C9.16798 65.0933 8.93374 65.4692 8.77973 65.8798C8.62572 66.2904 8.55501 66.7276 8.57174 67.1658C8.58847 67.604 8.69229 68.0345 8.87715 68.4322C9.06201 68.8299 9.32421 69.1868 9.64846 69.482C10.2072 69.9902 10.9197 70.297 11.6728 70.3536C12.4259 70.4102 13.1763 70.2134 13.8047 69.7945L20.9797 65.0117L24.1047 57.1992" stroke="#6D6D6D" stroke-width="3.125" stroke-linecap="round" stroke-linejoin="round"/>
<path d="M35.5904 4.07422C37.8436 4.07422 41.292 6.62891 41.292 11.8336C41.3867 13.3758 40.8794 14.8945 39.8769 16.0702C38.8743 17.2458 37.4548 17.9867 35.917 18.1367C31.6607 18.1367 28.792 14.7258 28.792 10.0305C28.792 7.28359 30.642 4.07422 35.5904 4.07422Z" stroke="#6D6D6D" stroke-width="3.125" stroke-linecap="round" stroke-linejoin="round"/>
</svg>
