<svg width="117" height="67" viewBox="0 0 117 67" fill="none" xmlns="http://www.w3.org/2000/svg">
<g filter="url(#filter0_d_1850_79564)">
<rect width="109" height="60" transform="translate(4 3)" fill="white"/>
<path d="M55.1772 23.1016H56.2891V26.817H60.705V23.1016H61.8159V31.7367H60.705V27.7848H56.2891V31.7367H55.1772V23.1016Z" fill="#0E335A"/>
<path d="M68.6522 31.716C68.4877 31.83 68.2481 31.8875 67.9351 31.8875C67.3805 31.8959 67.0991 31.5733 67.0917 30.9197C66.525 31.5649 65.8117 31.8875 64.9515 31.8875C64.3849 31.8875 63.9149 31.7457 63.5396 31.4629C63.1495 31.1876 62.9507 30.7454 62.9424 30.1355C62.9424 29.7693 63.0037 29.4745 63.1263 29.2502C63.2378 29.0184 63.391 28.8367 63.587 28.7069C63.7942 28.5688 64.0189 28.4613 64.2605 28.3825C64.4982 28.3074 64.7453 28.2509 65.0026 28.2119C65.2859 28.1572 65.5525 28.1137 65.8024 28.0821C66.0476 28.0469 66.265 28.0052 66.4526 27.9579C66.8436 27.8791 67.0434 27.6576 67.0508 27.2914C67.0508 27.0671 67.0164 26.8826 66.9477 26.737C66.8594 26.6073 66.7498 26.5071 66.6198 26.4358C66.3439 26.306 66.0365 26.2448 65.6993 26.2531C65.2655 26.2531 64.9172 26.3338 64.6524 26.4951C64.3682 26.6722 64.2112 26.9873 64.1806 27.4397H63.1876C63.2415 26.6703 63.5109 26.1252 63.9957 25.8054C64.4815 25.4976 65.0686 25.3438 65.7559 25.3438C66.0392 25.3438 66.3179 25.3595 66.5929 25.391C66.8641 25.4383 67.1074 25.5227 67.3211 25.645C67.5394 25.7674 67.7149 25.9407 67.8487 26.1651C67.9713 26.3894 68.0326 26.687 68.0326 27.0569V30.2764C68.0242 30.5202 68.0419 30.6935 68.0837 30.7964C68.1143 30.9188 68.2035 30.98 68.3512 30.98C68.4274 30.98 68.5277 30.9605 68.6531 30.9206V31.7179L68.6522 31.716ZM67.0387 28.5123C66.8427 28.6504 66.5798 28.7385 66.2492 28.7774C65.9111 28.8284 65.5692 28.8812 65.2237 28.9368C64.8856 28.9841 64.5995 29.0889 64.3654 29.2492C64.1193 29.4105 63.9967 29.6803 63.9967 30.0576C63.9967 30.3885 64.1193 30.6259 64.3654 30.7714C64.5921 30.9086 64.8633 30.9781 65.1782 30.9781C65.4931 30.9781 65.795 30.9253 66.0365 30.8187C66.2752 30.7325 66.4693 30.6166 66.6189 30.4701C66.8994 30.1633 67.0396 29.8601 67.0396 29.5616V28.5113L67.0387 28.5123Z" fill="#0E335A"/>
<path d="M69.3408 23.1016H70.3337V26.3378H70.357C70.5288 25.9818 70.7926 25.7259 71.1484 25.572C71.5004 25.4172 71.8822 25.3403 72.2946 25.3403C73.2346 25.3561 73.9396 25.6833 74.4096 26.3211C74.8648 26.9468 75.0914 27.7171 75.0914 28.6303C75.0914 29.5434 74.8638 30.2942 74.4096 30.9163C73.9396 31.542 73.242 31.8655 72.3169 31.885C71.9955 31.885 71.6518 31.8118 71.2849 31.6662C71.1056 31.5837 70.9375 31.4771 70.7805 31.3473C70.6161 31.2296 70.4749 31.0822 70.356 30.9042H70.3328V31.7367H69.3398V23.1016H69.3408ZM74.039 28.5561C74.039 27.9461 73.8913 27.4112 73.5969 26.9514C73.2829 26.4991 72.8036 26.2655 72.1608 26.2497C71.5023 26.2655 71.0276 26.5074 70.7359 26.9755C70.4368 27.4437 70.291 27.9888 70.2994 28.6099C70.2994 29.243 70.4489 29.7899 70.7471 30.2497C71.0536 30.7262 71.5441 30.9672 72.2175 30.9756C72.8918 30.9682 73.3702 30.7142 73.6535 30.2145C73.9183 29.739 74.0464 29.1865 74.039 28.5561Z" fill="#0E335A"/>
<path d="M77.0564 24.353H76.0635V23.1016H77.0564V24.353ZM76.0635 25.4812H77.0564V31.7357H76.0635V25.4812Z" fill="#0E335A"/>
<path d="M79.5913 25.4819H80.8035V26.3913H79.5913V30.2727C79.583 30.4934 79.6331 30.6426 79.7409 30.7214C79.844 30.8002 80.0456 30.8354 80.3447 30.828H80.8045V31.7374H80.0428C79.531 31.7448 79.1622 31.6568 78.9374 31.4714C78.7117 31.2943 78.5993 30.9281 78.5993 30.3728V26.3913H77.5664V25.4819H78.5993V23.6094H79.5923V25.4819H79.5913Z" fill="#0E335A"/>
<path d="M86.9173 31.716C86.7529 31.83 86.5132 31.8875 86.2002 31.8875C85.6457 31.8959 85.3642 31.5733 85.3568 30.9197C84.7902 31.5649 84.0768 31.8875 83.2167 31.8875C82.6501 31.8875 82.1801 31.7457 81.8048 31.4629C81.4147 31.1876 81.2159 30.7454 81.2075 30.1355C81.2075 29.7693 81.2688 29.4745 81.3914 29.2502C81.5029 29.0184 81.6562 28.8367 81.8522 28.7069C82.0593 28.5688 82.2841 28.4613 82.5256 28.3825C82.7634 28.3074 83.0105 28.2509 83.2678 28.2119C83.5511 28.1572 83.8177 28.1137 84.0675 28.0821C84.3127 28.0469 84.5301 28.0052 84.7177 27.9579C85.1088 27.8791 85.3085 27.6576 85.3159 27.2914C85.3159 27.0671 85.2816 26.8826 85.2128 26.737C85.1246 26.6073 85.015 26.5071 84.8849 26.4358C84.6091 26.306 84.3016 26.2448 83.9644 26.2531C83.5306 26.2531 83.1823 26.3338 82.9176 26.4951C82.6333 26.6722 82.4764 26.9873 82.4457 27.4397H81.4527C81.5066 26.6703 81.776 26.1252 82.2609 25.8054C82.7467 25.4976 83.3337 25.3438 84.0211 25.3438C84.3044 25.3438 84.583 25.3595 84.858 25.391C85.1292 25.4383 85.3726 25.5227 85.5862 25.645C85.8045 25.7674 85.9801 25.9407 86.1138 26.1651C86.2364 26.3894 86.2977 26.687 86.2977 27.0569V30.2764C86.2894 30.5202 86.307 30.6935 86.3488 30.7964C86.3795 30.9188 86.4687 30.98 86.6163 30.98C86.6925 30.98 86.7928 30.9605 86.9182 30.9206V31.7179L86.9173 31.716ZM85.3038 28.5123C85.1079 28.6504 84.845 28.7385 84.5143 28.7774C84.1762 28.8284 83.8344 28.8812 83.4888 28.9368C83.1507 28.9841 82.8646 29.0889 82.6306 29.2492C82.3844 29.4105 82.2618 29.6803 82.2618 30.0576C82.2618 30.3885 82.3844 30.6259 82.6306 30.7714C82.8572 30.9086 83.1284 30.9781 83.4433 30.9781C83.7582 30.9781 84.0601 30.9253 84.3016 30.8187C84.5403 30.7325 84.7344 30.6166 84.884 30.4701C85.1645 30.1633 85.3048 29.8601 85.3048 29.5616V28.5113L85.3038 28.5123Z" fill="#0E335A"/>
<path d="M88.9488 25.4819H90.1609V26.3913H88.9488V30.2727C88.9404 30.4934 88.9906 30.6426 89.0983 30.7214C89.2014 30.8002 89.403 30.8354 89.7021 30.828H90.1619V31.7374H89.4002C88.8884 31.7448 88.5196 31.6568 88.2948 31.4714C88.0691 31.2943 87.9567 30.9281 87.9567 30.3728V26.3913H86.9238V25.4819H87.9567V23.6094H88.9497V25.4819H88.9488Z" fill="#0E335A"/>
<path d="M56.3105 33.9297H55.1772V42.7317H56.3105V33.9297Z" fill="#0E335A"/>
<path d="M57.6626 36.3556H58.6203V37.3604H58.6435C59.0912 36.5938 59.7609 36.2109 60.6517 36.2109C61.458 36.2193 62.0199 36.4316 62.3395 36.8496C62.6432 37.2789 62.7909 37.8434 62.7835 38.5414V42.7315H61.771V38.4191C61.7552 37.5894 61.3354 37.1621 60.5105 37.1379C59.9049 37.1463 59.4488 37.3298 59.1442 37.6914C58.8311 38.064 58.6751 38.5452 58.6751 39.1347V42.7315H57.6626V36.3556Z" fill="#0E335A"/>
<path d="M69.5657 42.7317H68.5532V41.8769H68.53C68.3544 42.2199 68.0916 42.4693 67.7404 42.625C67.3893 42.7965 66.9936 42.8818 66.5524 42.8818C65.6087 42.8614 64.8981 42.5249 64.4225 41.8705C63.9423 41.2364 63.7026 40.4558 63.7026 39.5288C63.7026 38.6018 63.9386 37.8148 64.4104 37.1807C64.8786 36.5503 65.5845 36.2277 66.5283 36.2111C66.6964 36.2111 66.8719 36.2231 67.0549 36.2472C67.2379 36.288 67.4218 36.3445 67.6048 36.4169C67.9829 36.5661 68.2913 36.8322 68.5291 37.2159H68.5523V33.9297H69.5647V42.7317H69.5657ZM64.7755 39.6039C64.7755 40.2176 64.9315 40.7543 65.2436 41.216C65.5557 41.7008 66.0397 41.9474 66.6964 41.9557C67.3754 41.9474 67.864 41.6934 68.1603 41.1919C68.4455 40.7145 68.5876 40.1694 68.5876 39.5557C68.5876 38.9059 68.439 38.3432 68.1426 37.8658C67.8417 37.3884 67.3382 37.1464 66.6314 37.1381C65.9524 37.1538 65.474 37.405 65.1963 37.8899C64.9074 38.383 64.7662 38.9541 64.7746 39.6039" fill="#0E335A"/>
<path d="M71.9431 35.2053H70.9307V33.9297H71.9431V35.2053ZM70.9307 36.3557H71.9431V42.7317H70.9307V36.3557Z" fill="#0E335A"/>
<path d="M78.5977 42.7074C78.4295 42.8233 78.1862 42.8817 77.8666 42.8817C77.3009 42.89 77.0149 42.561 77.0065 41.8954C76.4297 42.5535 75.7024 42.8817 74.8246 42.8817C74.2477 42.8817 73.7675 42.7371 73.3858 42.4488C72.9882 42.1679 72.7848 41.7174 72.7773 41.0954C72.7773 40.7227 72.8396 40.4214 72.965 40.1934C73.0783 39.957 73.2343 39.7725 73.4341 39.6399C73.6449 39.5 73.8734 39.3897 74.1205 39.309C74.3629 39.233 74.6147 39.1746 74.8775 39.1347C75.1664 39.0782 75.4386 39.0346 75.6931 39.0022C75.9429 38.966 76.164 38.9243 76.3554 38.8761C76.7538 38.7964 76.9573 38.5693 76.9656 38.1966C76.9656 37.9686 76.9303 37.7794 76.8597 37.6311C76.7696 37.4986 76.6582 37.3966 76.5253 37.3243C76.2439 37.1917 75.9309 37.1296 75.5872 37.1379C75.145 37.1379 74.7893 37.2205 74.5199 37.3845C74.231 37.5653 74.0703 37.886 74.0387 38.3477H73.0263C73.0811 37.5634 73.3551 37.0072 73.8502 36.6819C74.3453 36.3676 74.9435 36.2109 75.6448 36.2109C75.9327 36.2109 76.2179 36.2267 76.4984 36.2591C76.7752 36.3073 77.0223 36.3936 77.2406 36.5178C77.4626 36.642 77.6418 36.8191 77.7784 37.048C77.9029 37.277 77.9651 37.5801 77.9651 37.9574V41.239C77.9567 41.4884 77.9744 41.6645 78.0171 41.7693C78.0478 41.8935 78.1388 41.9556 78.2902 41.9556C78.3673 41.9556 78.4704 41.9352 78.5977 41.8954V42.7074ZM76.9526 39.4416C76.7529 39.5825 76.4845 39.6724 76.1473 39.7123C75.8027 39.7642 75.4543 39.8189 75.1014 39.8745C74.7568 39.9227 74.4651 40.0293 74.2264 40.1934C73.9756 40.3575 73.8502 40.6319 73.8502 41.0175C73.8502 41.354 73.9756 41.5969 74.2264 41.7452C74.4577 41.8852 74.7335 41.9556 75.0549 41.9556C75.3921 41.9556 75.6838 41.9019 75.9299 41.7934C76.1724 41.7053 76.3702 41.5867 76.5235 41.4384C76.8096 41.1259 76.9526 40.8173 76.9526 40.5123V39.4416Z" fill="#0E335A"/>
<path d="M50.4346 30.1719C50.6557 31.0785 50.7727 32.025 50.7727 32.9993C50.7727 34.7393 50.3993 36.3912 49.7287 37.8818C49.816 37.6853 49.8977 37.4851 49.9748 37.2783C49.9748 37.2783 48.3818 37.4341 46.3457 37.0457L49.2429 34.0125C50.077 33.1383 50.4931 32.0166 50.4931 30.8949C50.4931 30.653 50.4736 30.411 50.4346 30.1719Z" fill="#00A69A"/>
<path d="M50.434 30.1656C50.4731 30.4057 50.4926 30.6476 50.4926 30.8886C50.4926 32.0094 50.0774 33.132 49.2423 34.0062L46.3451 37.0393C45.551 36.8892 44.688 36.6546 43.827 36.2959C44.5143 33.0245 43.9199 30.0043 42.9297 27.5291C44.7085 25.9273 47.4524 25.982 49.1652 27.6914C49.573 28.0983 49.8869 28.5646 50.1071 29.0615C50.2334 29.4212 50.343 29.7892 50.4331 30.1646" fill="#ED7453"/>
<path d="M50.4335 30.1735C50.3434 29.798 50.2337 29.43 50.1074 29.0703C50.2644 29.4254 50.3731 29.7962 50.4335 30.1735Z" fill="#00A69A"/>
<path d="M49.9747 37.2786C49.8967 37.4854 49.8149 37.6856 49.7276 37.8821C49.7053 37.9312 49.683 37.9785 49.6607 38.0277C49.6217 38.1148 49.5799 38.201 49.5381 38.2844C49.5298 38.3002 49.5223 38.316 49.5149 38.3308C48.6993 39.9558 47.6042 41.1406 46.8769 41.8145C46.8555 41.834 46.8351 41.8525 46.8156 41.872C46.5871 42.0778 46.3502 42.2752 46.1059 42.4615C44.9541 42.1899 43.7094 41.7496 42.5391 41.033L46.3447 37.0469C48.3807 37.4353 49.9738 37.2796 49.9738 37.2796" fill="#4EC0B4"/>
<path d="M49.6611 38.0205C49.6834 37.9714 49.7057 37.9241 49.728 37.875C49.7076 37.9241 49.6853 37.9714 49.6611 38.0205Z" fill="#00A69A"/>
<path d="M49.54 38.2802C49.5818 38.1968 49.6227 38.1106 49.6626 38.0234C49.6246 38.1096 49.5828 38.1949 49.54 38.2802Z" fill="#00A69A"/>
<path d="M50.1077 29.065C49.8876 28.5672 49.5745 28.1018 49.1658 27.6949C47.453 25.9845 44.7091 25.9308 42.9303 27.5326C41.3624 23.6067 38.8052 21.0547 38.8052 21.0547C44.0329 21.0547 48.4794 24.4012 50.1068 29.065" fill="#00A69A"/>
<path d="M46.8779 41.8118C47.6052 41.1379 48.7004 39.9532 49.5159 38.3281C48.8564 39.6473 47.9582 40.8273 46.8779 41.8118Z" fill="#00A69A"/>
<path d="M46.3452 37.0403L42.5397 41.0265C42.3901 40.9366 42.2406 40.8402 42.0947 40.7391C42.9725 39.2262 43.5243 37.7374 43.828 36.2969C44.6891 36.6556 45.552 36.8902 46.3462 37.0403" fill="#FCF180"/>
<path d="M46.1064 42.4568C46.3507 42.2704 46.5876 42.073 46.8161 41.8672C46.3916 42.2556 46.1083 42.4568 46.1083 42.4568H46.1064Z" fill="#00A69A"/>
<path d="M42.9308 27.5312C43.9201 30.0054 44.5155 33.0266 43.8281 36.298C41.8914 35.4933 39.9594 34.0574 38.8066 31.523V31.4442L42.7711 27.6833C42.8231 27.6314 42.8779 27.5804 42.9318 27.5312" fill="#F7C257"/>
<path d="M42.9299 27.5326C42.8761 27.5818 42.8213 27.6328 42.7692 27.6847L38.8048 31.4455L35.4711 27.9396C35.2482 27.7153 35.0076 27.5187 34.7559 27.3463C36.3275 23.527 38.8057 21.0547 38.8057 21.0547C38.8057 21.0547 41.3629 23.6067 42.9309 27.5326" fill="#4EC0B4"/>
<path d="M42.5398 41.0322C43.7102 41.7497 44.9548 42.1891 46.1066 42.4607C44.0863 44.0172 41.5542 44.9414 38.8066 44.9414C39.0881 44.6605 39.3575 44.3778 39.612 44.0969L42.5398 41.0312V41.0322Z" fill="#00A69A"/>
<path d="M42.5401 41.0296L39.6123 44.0952C40.6359 42.9716 41.4533 41.8509 42.0952 40.7422C42.2419 40.8432 42.3906 40.9396 42.5401 41.0296Z" fill="#00A69A"/>
<path d="M43.8281 36.2985C43.5244 37.739 42.9726 39.2278 42.0948 40.7407C40.7954 39.8489 39.6185 38.5854 38.8066 36.8V31.5234C39.9603 34.0588 41.8924 35.4938 43.8281 36.2985Z" fill="#FCF180"/>
<path d="M38.8054 36.8047C39.6172 38.5901 40.7941 39.8527 42.0936 40.7454C41.4517 41.8541 40.6343 42.9749 39.6107 44.0984L38.8054 44.9429C37.3991 43.5394 36.3225 42.135 35.519 40.751C36.8176 39.8564 37.9936 38.5929 38.8054 36.8056" fill="#ED7453"/>
<path d="M38.8052 44.9383L39.6105 44.0938C39.3551 44.3746 39.0866 44.6574 38.8052 44.9383Z" fill="#00A69A"/>
<path d="M38.8057 31.5244V36.8009C37.9938 38.5882 36.8179 39.8526 35.5193 40.7463C34.6406 39.2315 34.0879 37.7409 33.7842 36.2985C35.7209 35.4938 37.6529 34.0579 38.8057 31.5234" fill="#FCF180"/>
<path d="M38.8057 31.4421V31.5209C37.6521 34.0562 35.72 35.4912 33.7843 36.2959C33.0792 32.9429 33.723 29.8522 34.7568 27.3438C35.0085 27.5152 35.2491 27.7127 35.472 27.937L38.8057 31.443V31.4421Z" fill="#F7C257"/>
<path d="M38.8055 44.9419L34.9136 41.1366C35.1179 41.017 35.3195 40.8872 35.5192 40.75C36.3227 42.134 37.3992 43.5384 38.8055 44.9419Z" fill="#00A69A"/>
<path d="M34.9139 41.1328L38.8059 44.9382C36.062 44.9382 33.5336 44.0167 31.5151 42.4649C32.6131 42.2072 33.7937 41.7938 34.9139 41.1328Z" fill="#00A69A"/>
<path d="M35.5186 40.7516C35.3189 40.8888 35.1164 41.0176 34.913 41.1381L30.812 37.1279C31.726 36.9833 32.7552 36.733 33.7835 36.3047C34.0872 37.7471 34.6399 39.2377 35.5195 40.7525" fill="#FCF180"/>
<path d="M30.8125 37.125L34.9135 41.1352C33.7932 41.7962 32.6126 42.2097 31.5147 42.4674C29.84 41.1816 28.5145 39.462 27.711 37.4782C27.6859 37.4124 27.6599 37.3456 27.6357 37.278C27.6357 37.278 28.9975 37.4114 30.8125 37.125Z" fill="#4EC0B4"/>
<path d="M38.8053 21.0547C38.8053 21.0547 36.328 23.527 34.7563 27.3463C33.925 26.7808 32.9589 26.4981 31.992 26.4981C30.7408 26.4981 29.4905 26.9709 28.5329 27.9183C27.8334 28.6089 27.3866 29.4562 27.1906 30.347L27.1377 30.3359C28.3489 25.0204 33.1141 21.0547 38.8062 21.0547" fill="#00A69A"/>
<path d="M34.7561 27.3482C33.7222 29.8567 33.0785 32.9474 33.7835 36.3004C32.7544 36.7286 31.7261 36.9789 30.8121 37.1235L28.6079 34.9673C27.3084 33.7372 26.8328 31.9712 27.1904 30.3489C27.3873 29.4581 27.8332 28.6108 28.5326 27.9202C29.4903 26.9728 30.7415 26.5 31.9917 26.5C32.9587 26.5 33.9247 26.7827 34.7561 27.3482Z" fill="#ED7453"/>
<path d="M31.5152 42.4657H31.5133C31.5133 42.4657 28.9552 40.6849 27.7114 37.4766C28.5149 39.4613 29.8404 41.18 31.5152 42.4657Z" fill="#00A69A"/>
<path d="M28.6084 34.9664L30.8126 37.1226C28.9976 37.409 27.6359 37.2755 27.6359 37.2755C27.66 37.3432 27.686 37.41 27.7111 37.4758C27.1492 36.0927 26.8398 34.5798 26.8398 32.9965C26.8398 32.0824 26.9429 31.1925 27.1371 30.3359L27.19 30.3471C26.8333 31.9684 27.308 33.7353 28.6075 34.9654" fill="#00A69A"/>
</g>
<defs>
<filter id="filter0_d_1850_79564" x="0.875" y="0.65625" width="115.25" height="66.25" filterUnits="userSpaceOnUse" color-interpolation-filters="sRGB">
<feFlood flood-opacity="0" result="BackgroundImageFix"/>
<feColorMatrix in="SourceAlpha" type="matrix" values="0 0 0 0 0 0 0 0 0 0 0 0 0 0 0 0 0 0 127 0" result="hardAlpha"/>
<feOffset dy="0.78125"/>
<feGaussianBlur stdDeviation="1.5625"/>
<feComposite in2="hardAlpha" operator="out"/>
<feColorMatrix type="matrix" values="0 0 0 0 0 0 0 0 0 0 0 0 0 0 0 0 0 0 0.08 0"/>
<feBlend mode="normal" in2="BackgroundImageFix" result="effect1_dropShadow_1850_79564"/>
<feBlend mode="normal" in="SourceGraphic" in2="effect1_dropShadow_1850_79564" result="shape"/>
</filter>
</defs>
</svg>
