<svg width="117" height="67" viewBox="0 0 117 67" fill="none" xmlns="http://www.w3.org/2000/svg">
<g filter="url(#filter0_d_1850_102018)">
<rect width="109" height="60" transform="translate(4 3)" fill="white"/>
<path d="M48.1689 30.1048L46.0712 29.7701C46.3069 29.0238 46.7129 28.471 47.2888 28.1122C47.8647 27.7539 48.7203 27.5742 49.8559 27.5742C50.887 27.5742 51.655 27.6821 52.1596 27.8979C52.6643 28.1136 53.0198 28.3877 53.2254 28.7196C53.4309 29.0516 53.5342 29.6613 53.5342 30.5483L53.5096 32.9335C53.5096 33.6122 53.5467 34.1127 53.6208 34.4354C53.6948 34.758 53.8333 35.1034 54.036 35.4715H51.749C51.6888 35.3358 51.6147 35.1344 51.5268 34.8678C51.4884 34.7465 51.461 34.6668 51.4444 34.628C51.0495 34.9673 50.6272 35.2219 50.1777 35.3918C49.7277 35.5613 49.2481 35.6465 48.7374 35.6465C47.8379 35.6465 47.1291 35.4307 46.6106 34.9992C46.0921 34.5678 45.8333 34.0224 45.8333 33.3631C45.8333 32.9266 45.9513 32.5377 46.187 32.196C46.4226 31.8543 46.7532 31.5923 47.1786 31.4108C47.6036 31.2289 48.2166 31.0701 49.0175 30.9344C50.0981 30.7548 50.8467 30.5877 51.2638 30.4326V30.2289C51.2638 29.8363 51.1541 29.5562 50.9346 29.3891C50.7152 29.2219 50.3013 29.1381 49.6921 29.1381C49.2805 29.1381 48.9596 29.2099 48.7296 29.3525C48.499 29.4955 48.3129 29.7465 48.1698 30.1053M51.2629 31.7627C50.9666 31.8497 50.4976 31.9543 49.8559 32.0752C49.2143 32.1965 48.7944 32.315 48.5971 32.4317C48.2958 32.6205 48.1444 32.8608 48.1444 33.1516C48.1444 33.4423 48.2647 33.6849 48.5064 33.8932C48.7476 34.1016 49.055 34.2057 49.4282 34.2057C49.8448 34.2057 50.2425 34.0849 50.6212 33.8423C50.9009 33.658 51.0846 33.4326 51.1726 33.1659C51.2328 32.9914 51.2629 32.6594 51.2629 32.1696V31.7622V31.7627ZM54.062 27.7483H56.218V28.883C56.4976 28.4951 56.8763 28.1798 57.3532 27.9377C57.8305 27.6951 58.3596 27.5738 58.9411 27.5738C59.9555 27.5738 60.8171 27.9252 61.5245 28.6284C62.2323 29.3317 62.586 30.3108 62.586 31.5664C62.586 32.8219 62.2296 33.858 61.5166 34.5733C60.8036 35.2886 59.9393 35.646 58.9249 35.646C58.4421 35.646 58.0046 35.5608 57.6124 35.3914C57.2203 35.2219 56.8073 34.9307 56.374 34.5187V38.4094H54.062V27.7483ZM56.349 31.4789C56.349 32.3469 56.5434 32.9877 56.9333 33.4025C57.3226 33.8168 57.7971 34.0242 58.3564 34.0242C58.9157 34.0242 59.3411 33.834 59.6976 33.4534C60.0541 33.0729 60.2323 32.4488 60.2323 31.5807C60.2323 30.771 60.0485 30.1701 59.6809 29.777C59.3134 29.3844 58.8583 29.1881 58.3152 29.1881C57.7721 29.1881 57.2814 29.3807 56.9083 29.7664C56.5351 30.1516 56.349 30.7229 56.349 31.4789ZM62.6698 27.7483H64.8254V28.883C65.105 28.4951 65.4837 28.1798 65.961 27.9377C66.4384 27.6951 66.9675 27.5738 67.549 27.5738C68.5638 27.5738 69.4249 27.9252 70.1328 28.6284C70.8402 29.3317 71.1944 30.3108 71.1944 31.5664C71.1944 32.8219 70.8379 33.858 70.1249 34.5733C69.412 35.2886 68.5481 35.646 67.5333 35.646C67.0504 35.646 66.6129 35.5608 66.2208 35.3914C65.8286 35.2219 65.4157 34.9307 64.9828 34.5187V38.4094H62.6708V27.7483H62.6698ZM64.9569 31.4789C64.9569 32.3469 65.1518 32.9877 65.5411 33.4025C65.9305 33.8168 66.405 34.0242 66.9643 34.0242C67.5235 34.0242 67.949 33.834 68.3055 33.4534C68.662 33.0729 68.8402 32.4488 68.8402 31.5807C68.8402 30.771 68.6564 30.1701 68.2888 29.777C67.9212 29.3844 67.4661 29.1881 66.9231 29.1881C66.38 29.1881 65.8893 29.3807 65.5161 29.7664C65.143 30.1516 64.9564 30.7229 64.9564 31.4789H64.9569ZM70.249 27.7483H72.7092L74.799 33.2317L76.8397 27.7483H79.2337L76.1481 35.1807L75.5967 36.5261C75.3934 36.977 75.2004 37.321 75.0166 37.559C74.8328 37.7965 74.6217 37.9891 74.3828 38.1372C74.1444 38.2849 73.8509 38.4002 73.5027 38.4826C73.1546 38.565 72.761 38.6062 72.3221 38.6062C71.8833 38.6062 71.4416 38.565 71.0138 38.4826L70.8083 36.8826C71.1703 36.9455 71.4967 36.977 71.7874 36.977C72.3249 36.977 72.7226 36.8377 72.9805 36.559C73.2383 36.2803 73.4356 35.9252 73.5726 35.4937L70.2485 27.7488L70.249 27.7483ZM40.1101 25.0391V28.8821C40.8471 28.1266 41.7282 27.7483 42.7527 27.7483C43.2786 27.7483 43.7527 27.834 44.1759 28.0053C44.5985 28.1766 44.9171 28.3951 45.1314 28.6613C45.3458 28.9275 45.4921 29.2224 45.5703 29.5455C45.649 29.8687 45.6884 30.3705 45.6884 31.0502V35.4923H43.4032V31.4923C43.4032 30.6983 43.3596 30.1946 43.2731 29.9807C43.1865 29.7668 43.0333 29.5969 42.8138 29.471C42.5944 29.3451 42.3189 29.2821 41.9884 29.2821C41.6087 29.2821 41.2698 29.3631 40.9717 29.5242C40.6735 29.6863 40.4555 29.9298 40.3171 30.2553C40.1786 30.5812 40.1096 31.0622 40.1096 31.6992V35.4928H37.8245V25.0395H40.1096L40.1101 25.0391Z" fill="#EE9E5F"/>
<path d="M58.9547 29.1851C58.9255 28.6796 58.7093 28.1416 58.4028 27.6069C58.5769 27.5823 58.7561 27.5703 58.9408 27.5703C59.3237 27.5703 59.6848 27.6203 60.0237 27.7203C60.6732 28.5754 61.0371 29.5416 60.5871 30.6592C60.4991 30.8777 60.3801 31.1013 60.2264 31.3314C60.1922 30.6448 60.0102 30.1254 59.6811 29.7736C59.469 29.5472 59.2278 29.3861 58.9579 29.2902C58.9579 29.2555 58.9565 29.2203 58.9547 29.1851Z" fill="#D4835A"/>
<path d="M37.7795 46.833V36.1719H40.174V40.0117C40.9124 39.2941 41.7869 38.9358 42.7981 38.9358C43.8999 38.9358 44.8115 39.2765 45.5332 39.9575C46.2545 40.6385 46.6152 41.6168 46.6152 42.8918C46.6152 44.1668 46.2471 45.226 45.5119 45.939C44.7763 46.6515 43.8832 47.008 42.8323 47.008C42.3152 47.008 41.8055 46.8978 41.3032 46.677C40.8004 46.4566 40.367 46.1307 40.0036 45.6992V46.8334H37.78L37.7795 46.833ZM49.0879 46.833H46.6939V39.1098H48.9175V40.208C49.2981 39.689 49.6402 39.3473 49.9444 39.1825C50.2481 39.0177 50.593 38.9353 50.9795 38.9353C51.5249 38.9353 52.0504 39.064 52.5559 39.3205L51.8147 41.1024C51.4115 40.8793 51.0365 40.7677 50.6902 40.7677C50.3439 40.7677 50.0712 40.8464 49.8383 41.0043C49.6055 41.1622 49.4221 41.4469 49.2888 41.8589C49.1555 42.2709 49.0883 43.1339 49.0883 44.4478V46.833H49.0879ZM57.6569 44.3751L60.0425 44.7168C59.736 45.4635 59.2518 46.0321 58.5897 46.4219C57.9282 46.8122 57.0999 47.0075 56.1059 47.0075C54.5328 47.0075 53.368 46.5686 52.6124 45.6913C52.0161 44.9885 51.7175 44.101 51.7175 43.0297C51.7175 41.7497 52.1096 40.7473 52.8934 40.0228C53.6772 39.2978 54.6684 38.9358 55.867 38.9358C57.2133 38.9358 58.2754 39.3149 59.0536 40.0737C59.8319 40.8325 60.2041 41.995 60.1698 43.5608H54.1717C54.1888 44.1668 54.3819 44.6385 54.7508 44.9751C55.1203 45.3122 55.58 45.4807 56.1314 45.4807C56.5064 45.4807 56.8217 45.3936 57.0772 45.2186C57.3328 45.0441 57.5258 44.7631 57.6564 44.3751H57.6569ZM57.793 42.3098C57.7758 41.7182 57.5971 41.2686 57.2564 40.9608C56.9157 40.6529 56.5008 40.4987 56.0124 40.4987C55.4897 40.4987 55.0582 40.6612 54.7175 40.9862C54.3768 41.3112 54.2092 41.7524 54.2147 42.3098H57.7934H57.793ZM62.0633 46.833L59.2004 39.1098H61.5263L63.2221 44.1714L64.7814 39.1098H67.0907L68.5985 44.1714L70.3282 39.1098H72.6883L69.7828 46.833H67.4823L65.9231 41.8663L64.3897 46.833H62.0638H62.0633ZM40.1569 42.8043C40.1569 43.6043 40.3045 44.1959 40.5999 44.5788C41.0147 45.1219 41.5657 45.3936 42.2527 45.3936C42.7809 45.3936 43.2309 45.2006 43.6032 44.8154C43.9749 44.4302 44.161 43.8228 44.161 42.9936C44.161 42.1112 43.9735 41.4751 43.5985 41.0848C43.2235 40.6946 42.7434 40.4992 42.1587 40.4992C41.574 40.4992 41.1078 40.6895 40.7272 41.07C40.3467 41.4506 40.1564 42.0288 40.1564 42.8043H40.1569Z" fill="#D82C76"/>
<path d="M58.288 29.1871C57.8889 27.213 54.8801 25.3005 54.6352 23.9537C53.9917 21.1375 57.1134 19.7213 57.7644 22.1445C59.8713 23.425 58.9361 24.6186 58.7408 25.0741C58.5454 25.5301 58.2852 25.1394 58.2852 25.1394C58.2852 24.3584 57.4389 23.4468 57.4389 23.4468C56.4625 23.6422 55.8764 23.1213 55.8764 23.1213C53.4014 24.9213 61.088 26.9709 60.1338 30.6616C59.9718 31.2889 59.5616 31.963 58.8079 32.6922C58.3472 33.1375 57.8954 33.5051 57.4542 33.8056C57.2667 33.7056 57.0931 33.5704 56.9343 33.4014C56.5449 32.9871 56.35 32.3459 56.35 31.4778C56.35 30.7662 56.5148 30.219 56.8449 29.8357C57.3227 30.3848 57.5695 30.869 57.5695 30.869C58.2445 30.4056 58.4167 29.8218 58.2884 29.1871" fill="#D82C76"/>
<path d="M72.0129 44.3885C72.0546 44.4357 72.1018 44.4709 72.1541 44.4936C72.2064 44.5167 72.2611 44.5283 72.3175 44.5283C72.4083 44.5283 72.4861 44.5001 72.5499 44.444C72.5902 44.4084 72.6217 44.3626 72.6449 44.3065C72.668 44.2501 72.6796 44.1908 72.6796 44.1283C72.6796 44.0899 72.6745 44.0524 72.6638 44.0158C72.6537 43.9797 72.6375 43.9454 72.6148 43.9144C72.5921 43.8834 72.5643 43.8565 72.5314 43.8343C72.4527 43.7783 72.3703 43.751 72.2837 43.751C72.1972 43.751 72.1217 43.7788 72.0499 43.8343C72.0083 43.8649 71.975 43.9089 71.949 43.9663C71.9236 44.0241 71.9111 44.0829 71.9111 44.1436C71.9111 44.2468 71.9449 44.3288 72.0125 44.3885M72.8277 43.6852C72.8685 43.7241 72.9018 43.7658 72.9277 43.8116C72.9532 43.8579 72.9731 43.9079 72.9865 43.9626C72.9999 44.0177 73.0069 44.0723 73.0069 44.1283C73.0069 44.2315 72.9851 44.3343 72.9416 44.4362C72.8976 44.5385 72.8351 44.6274 72.7537 44.7028C72.7162 44.7403 72.662 44.7709 72.5925 44.7931C72.5226 44.8158 72.4486 44.8269 72.3699 44.8269C72.2759 44.8269 72.1879 44.8102 72.1069 44.7769C72.0259 44.7436 71.9638 44.6945 71.9208 44.6288V44.7959H71.624V43.0547H71.9208V43.6112C72.0569 43.5107 72.2009 43.4607 72.3523 43.4607C72.4495 43.4607 72.5402 43.4811 72.6249 43.5218C72.7101 43.563 72.7777 43.6172 72.8277 43.6852Z" fill="white"/>
<path d="M73.7686 44.5416C73.9098 44.5328 74.0103 44.4957 74.0691 44.4295C74.1279 44.3638 74.1575 44.2712 74.1575 44.1527C74.1575 44.0763 74.1399 44.0082 74.1038 43.9485C74.0677 43.8883 74.02 43.8429 73.9607 43.8115C73.9015 43.78 73.8376 43.7642 73.7686 43.7642C73.6996 43.7642 73.6357 43.78 73.5765 43.8115C73.5172 43.8429 73.4695 43.8888 73.4334 43.9485C73.3973 44.0082 73.3797 44.0763 73.3797 44.1527C73.3797 44.2346 73.3982 44.3045 73.4357 44.3628C73.4732 44.4212 73.5219 44.4661 73.5816 44.4962C73.6413 44.5263 73.7038 44.5411 73.7686 44.5411M73.0645 44.1332C73.0723 44.0161 73.0955 43.9133 73.1334 43.8258C73.1719 43.7383 73.22 43.667 73.2779 43.6124C73.3357 43.5582 73.3996 43.5179 73.4695 43.492C73.5395 43.4666 73.6121 43.4531 73.6871 43.4531C73.7862 43.4531 73.8788 43.4744 73.9663 43.517C74.0533 43.5596 74.1177 43.617 74.1584 43.6897V43.4841H74.4547V44.8198H74.1584V44.6527C74.114 44.7156 74.0501 44.7652 73.9677 44.8013C73.8848 44.8374 73.8006 44.8554 73.714 44.8554C73.6182 44.8554 73.5302 44.8374 73.4501 44.8003C73.3705 44.7638 73.302 44.7128 73.2445 44.648C73.1876 44.5832 73.1432 44.5064 73.1121 44.4179C73.0807 44.3295 73.0649 44.2346 73.0649 44.1332H73.0645Z" fill="white"/>
<path d="M74.5656 44.7972V43.4995H74.8624V43.5925C74.9055 43.5495 74.9494 43.5161 74.9944 43.493C75.0393 43.4698 75.0999 43.4536 75.1758 43.4453V43.7601C75.0906 43.7763 75.0305 43.7921 74.9953 43.8073C74.9596 43.8222 74.9319 43.8518 74.9115 43.8948C74.8911 43.9379 74.8809 44.0041 74.8809 44.0939V44.7976H74.5652L74.5656 44.7972Z" fill="white"/>
<path d="M76.1361 44.4172L75.9801 44.239C75.9658 44.2427 75.9477 44.2534 75.9264 44.2705C75.9051 44.2881 75.8861 44.3089 75.8704 44.3334C75.8546 44.358 75.8468 44.3821 75.8468 44.4057C75.8602 44.4853 75.9046 44.5302 75.9801 44.5395C75.9982 44.5395 76.0199 44.533 76.0445 44.5205C76.0695 44.5075 76.0908 44.4918 76.1088 44.4723C76.1273 44.4529 76.1361 44.4344 76.1361 44.4172ZM75.9468 43.883C75.9593 43.9446 75.9852 43.9858 76.0246 44.0057C76.0945 43.9654 76.1296 43.9265 76.1296 43.889C76.1296 43.87 76.1204 43.8538 76.1028 43.839C76.0801 43.8205 76.0556 43.8108 76.0292 43.8108C76.0065 43.8108 75.987 43.8177 75.9708 43.8316C75.9546 43.845 75.9468 43.8626 75.9468 43.8834V43.883ZM75.7912 43.7608C75.8079 43.7284 75.8296 43.7006 75.857 43.6779C75.8843 43.6552 75.9139 43.6381 75.9458 43.6265C75.9783 43.6149 76.0111 43.6094 76.0458 43.6094C76.0917 43.6094 76.1347 43.6196 76.1745 43.6404C76.2148 43.6612 76.2477 43.6918 76.2732 43.733C76.2986 43.7742 76.3125 43.8242 76.3144 43.8834C76.3144 43.9237 76.3093 43.9575 76.2986 43.9834C76.288 44.0098 76.2722 44.0334 76.2514 44.0543C76.2301 44.0751 76.1954 44.1034 76.1472 44.139L76.2361 44.2506L76.325 44.0723H76.5361L76.3579 44.3955L76.5472 44.5848L76.4139 44.7075L76.269 44.5737C76.2579 44.5848 76.2431 44.6001 76.2241 44.6196C76.2051 44.639 76.1852 44.6557 76.1644 44.6696C76.144 44.6834 76.119 44.6955 76.0894 44.7047C76.0597 44.7145 76.0273 44.7191 75.9908 44.7191C75.969 44.7191 75.9394 44.7122 75.9023 44.6973C75.8653 44.683 75.8283 44.6626 75.7903 44.6353C75.7523 44.6084 75.7208 44.5756 75.6954 44.5362C75.6695 44.4969 75.6565 44.4538 75.6565 44.4071C75.6565 44.3719 75.6648 44.3316 75.6815 44.2872C75.6982 44.2427 75.7222 44.201 75.7533 44.1626C75.7843 44.1242 75.819 44.0983 75.857 44.0844C75.8273 44.039 75.8056 44.001 75.7921 43.9705C75.7787 43.9399 75.7718 43.9061 75.7718 43.8691C75.7718 43.8362 75.7778 43.8001 75.7898 43.7612L75.7912 43.7608Z" fill="white"/>
<path d="M71.9398 45.2109V46.2109L72.3462 45.6359H72.7351L72.2537 46.2665L72.8087 46.9521H72.3833L71.9398 46.3406V46.9521H71.624V45.2109H71.9398Z" fill="white"/>
<path d="M72.95 45.6359H73.2652V46.9526H72.95V45.6359ZM72.95 45.2109H73.2652V45.4697H72.95V45.2109Z" fill="white"/>
<path d="M73.4958 45.6359V45.2109H73.8115V45.6359H73.9967V45.9133H73.8115V46.9521H73.4958V45.9133H73.3291V45.6359H73.4958Z" fill="white"/>
<path d="M74.6745 45.602C74.7889 45.602 74.8917 45.628 74.9833 45.6793C75.0745 45.7312 75.1491 45.796 75.2065 45.8729C75.2639 45.9502 75.3023 46.0266 75.3236 46.1025H74.9713C74.9435 45.9789 74.8384 45.9173 74.656 45.9173C74.5801 45.9173 74.5144 45.9386 74.4583 45.9812C74.4028 46.0242 74.3593 46.0775 74.3296 46.1405C74.3 46.2039 74.2852 46.265 74.2852 46.3242C74.2908 46.4261 74.3329 46.5099 74.4125 46.5752C74.4921 46.6409 74.5815 46.6738 74.6801 46.6738C74.8023 46.6738 74.8991 46.6252 74.9708 46.528H75.3232C75.2722 46.6701 75.1958 46.7821 75.094 46.8655C74.9921 46.9488 74.8583 46.9905 74.6931 46.9905C74.6861 46.9905 74.6806 46.9905 74.6759 46.9914C74.6718 46.9914 74.6667 46.9914 74.6616 46.9914C74.5579 46.9914 74.4634 46.9715 74.3787 46.9326C74.294 46.8932 74.2213 46.8395 74.1611 46.7719C74.1005 46.7043 74.0546 46.633 74.0236 46.558C73.9921 46.4826 73.9746 46.4104 73.9699 46.3423C73.9699 46.3354 73.9699 46.3293 73.969 46.3247C73.969 46.3201 73.969 46.315 73.969 46.3099C73.969 46.2085 73.9889 46.1141 74.0278 46.0256C74.0671 45.9372 74.1213 45.8613 74.1903 45.7974C74.2593 45.734 74.3352 45.6854 74.419 45.6516C74.5028 45.6178 74.588 45.6016 74.6745 45.6016" fill="white"/>
<path d="M76.5629 46.0433V46.9521H76.2476V46.1924C76.2476 46.1276 76.2356 46.0725 76.2124 46.0276C76.1888 45.9822 76.1578 45.9484 76.1189 45.9267C76.08 45.9045 76.0383 45.8933 75.9934 45.8933C75.9458 45.8933 75.9004 45.9054 75.8569 45.929C75.8138 45.9521 75.7786 45.9869 75.7518 46.0332C75.7249 46.079 75.7115 46.1322 75.7115 46.1924V46.9521H75.3958V45.2109H75.7115V45.7475C75.7647 45.6975 75.8231 45.6596 75.8865 45.635C75.9499 45.61 76.0133 45.598 76.0772 45.598C76.1596 45.598 76.2388 45.617 76.3147 45.6554C76.3907 45.6938 76.4513 45.747 76.4958 45.8156C76.5402 45.8836 76.5629 45.96 76.5629 46.0443" fill="white"/>
<path d="M77.3463 45.9339C77.276 45.9339 77.2135 45.9459 77.1593 45.969C77.1051 45.9927 77.0611 46.0223 77.0278 46.0584C76.994 46.0945 76.9704 46.1329 76.9565 46.1751H77.6801C77.6597 46.1126 77.6227 46.0565 77.5709 46.007C77.5185 45.9575 77.4542 45.9329 77.3778 45.9329C77.3639 45.9329 77.3533 45.9329 77.3463 45.9339ZM76.6408 46.2862C76.6408 46.1885 76.6635 46.088 76.7088 45.9848C76.7537 45.8815 76.8283 45.7945 76.932 45.7237C77.0357 45.6528 77.1676 45.6172 77.3278 45.6172C77.4584 45.6172 77.575 45.6445 77.6783 45.6996C77.781 45.7547 77.8607 45.8357 77.9176 45.9427C77.9746 46.0496 78.0028 46.1774 78.0028 46.326C78.0028 46.3663 78.0005 46.4084 77.9959 46.4524H76.994C77.0218 46.5237 77.0685 46.5797 77.1343 46.6209C77.2 46.6621 77.2718 46.6825 77.3496 46.6825C77.4611 46.6825 77.5528 46.6431 77.6246 46.5639H77.9588C77.9347 46.6436 77.8945 46.7158 77.838 46.7811C77.782 46.8468 77.7121 46.8991 77.6301 46.9394C77.5477 46.9792 77.4593 47.0019 77.3648 47.0075C77.3588 47.0075 77.3537 47.0075 77.3496 47.0089C77.3454 47.0098 77.3408 47.0098 77.3361 47.0098C77.2426 47.0098 77.1533 46.9908 77.0676 46.9528C76.9824 46.9153 76.907 46.8639 76.8426 46.7991C76.7783 46.7343 76.7278 46.6616 76.6922 46.5811C76.6565 46.501 76.6389 46.4204 76.6389 46.3389C76.6389 46.3149 76.6398 46.2968 76.6412 46.2857L76.6408 46.2862Z" fill="white"/>
<path d="M78.0667 45.6552H78.3449V45.7677C78.3792 45.72 78.4282 45.6825 78.493 45.6565C78.5579 45.6302 78.6291 45.6172 78.7069 45.6172C78.7949 45.6172 78.8791 45.6348 78.9602 45.6704C79.0407 45.7056 79.1065 45.7598 79.1574 45.832C79.2083 45.9047 79.2338 45.994 79.2338 46.101V46.9528H78.9185V46.1755C78.9185 46.1237 78.9046 46.0783 78.8773 46.0389C78.85 45.9996 78.8143 45.97 78.7699 45.9496C78.7254 45.9292 78.6805 45.9186 78.6342 45.9186C78.5643 45.9186 78.5046 45.9403 78.456 45.9839C78.4069 46.0278 78.3824 46.0913 78.3824 46.1755V46.9528H78.0667V45.6552Z" fill="white"/>
</g>
<defs>
<filter id="filter0_d_1850_102018" x="0.875" y="0.65625" width="115.25" height="66.25" filterUnits="userSpaceOnUse" color-interpolation-filters="sRGB">
<feFlood flood-opacity="0" result="BackgroundImageFix"/>
<feColorMatrix in="SourceAlpha" type="matrix" values="0 0 0 0 0 0 0 0 0 0 0 0 0 0 0 0 0 0 127 0" result="hardAlpha"/>
<feOffset dy="0.78125"/>
<feGaussianBlur stdDeviation="1.5625"/>
<feComposite in2="hardAlpha" operator="out"/>
<feColorMatrix type="matrix" values="0 0 0 0 0 0 0 0 0 0 0 0 0 0 0 0 0 0 0.08 0"/>
<feBlend mode="normal" in2="BackgroundImageFix" result="effect1_dropShadow_1850_102018"/>
<feBlend mode="normal" in="SourceGraphic" in2="effect1_dropShadow_1850_102018" result="shape"/>
</filter>
</defs>
</svg>
