<svg width="117" height="67" viewBox="0 0 117 67" fill="none" xmlns="http://www.w3.org/2000/svg">
<g filter="url(#filter0_d_1850_79879)">
<rect width="109" height="60" transform="translate(4 3)" fill="white"/>
<path d="M66.6121 15.875C66.9425 15.875 67.2115 16.1441 67.2115 16.4744V40.7596C67.2115 41.0899 66.9425 41.359 66.6121 41.359H50.3873C50.0569 41.359 49.7878 41.0899 49.7878 40.7596V16.4744C49.7878 16.1441 50.0569 15.875 50.3873 15.875H66.6121Z" fill="#B8BCC1"/>
<path d="M63.508 31.2422V37.0926L61.4431 36.3004V34.8976L63.508 31.2422Z" fill="black"/>
<path d="M56.4485 31.0976V32.4892L55.5174 32.1338L53.4863 31.3579L55.5174 30.7422L56.4485 31.0976Z" fill="black"/>
<path d="M56.5105 38.1759V34.0475L53.4232 32.8699V36.9983L51.4309 36.2387V26.375L53.4232 27.1359V31.3995L56.5105 32.5771V28.3122L58.4189 29.0405V38.903L56.5105 38.1759Z" fill="white"/>
<path d="M51.4933 26.4693L53.3604 27.1813V31.4449L53.4405 31.4762L55.4704 32.2521L56.4027 32.6075L56.5729 32.6726V28.4065L58.3562 29.0872V38.8158L56.5729 38.1363V34.0078L56.4928 33.9766L55.5605 33.6212L53.5306 32.8465L53.3604 32.7814V36.9099L51.4933 36.1978V26.4693ZM51.3719 26.2891H51.3682V36.2842L53.4856 37.0926V32.9642L55.5154 33.7388L56.4477 34.0942V38.2226L58.4813 38.9985V29.0022L56.4502 28.2263H56.4477V32.4911L55.5154 32.1357L53.4856 31.3598V27.0962L51.3719 26.2891Z" fill="black"/>
<path d="M55.5174 33.7343V36.3097L53.4863 37.0894V32.9609L55.5174 33.7343Z" fill="black"/>
<path d="M55.5168 26.3084V26.3272L53.4957 27.1018H53.4945L53.4857 27.098L51.3721 26.2921L53.4832 25.5312L53.4857 25.5325L55.5168 26.3084Z" fill="black"/>
<path d="M55.5174 26.3203V30.7391L53.4863 31.3548V27.0987L53.4951 27.0949H53.4963L55.5174 26.3203Z" fill="black"/>
<path d="M65.6179 26.289L63.508 27.0937H63.5068L61.4507 26.3053L63.5068 25.5169L63.5093 25.5156L65.6179 26.289Z" fill="black"/>
<path d="M60.5438 28.2221L58.4978 29.0018L58.484 28.9955L56.4517 28.2209L58.484 27.4413L58.4915 27.4375L60.5438 28.2221Z" fill="black"/>
<path d="M58.5464 29.053L60.5011 28.3072L61.4284 31.7111L63.5534 27.1421L65.5644 26.375V36.2387L63.5709 36.9983V31.0003L61.4522 34.7533L60.4811 32.4932V38.1772L58.5464 38.9155V29.053Z" fill="white"/>
<path d="M65.5019 26.468V36.1966L63.6335 36.9086V30.7629L63.3995 31.1784L61.4598 34.6135L60.6588 32.7502L60.4186 32.1908V38.135L58.609 38.8258V29.0973L60.4586 28.3915L61.3234 31.5651L61.4135 31.8954L61.5574 31.5851L63.5997 27.1938L65.5006 26.468M65.6195 26.2891L63.5096 27.095L61.446 31.5325L60.5512 28.2513L60.545 28.2263L58.5001 29.0072L58.4851 29.0009V38.9973L58.5001 39.0035L60.545 38.2226V32.8002L61.446 34.8964L63.5096 31.2409V37.0914L65.6283 36.2829V26.2916L65.6208 26.2891H65.6195Z" fill="black"/>
<path d="M63.5082 27.0931L61.4433 31.5306L60.5498 28.2494L60.5586 28.2306L60.5661 28.2156L61.4521 26.3047L63.5082 27.0931Z" fill="black"/>
<path d="M62.089 25.0745H52.7358L58.1645 18.6797L59.3171 20.5568L57.5088 21.4616L59.6775 21.8771L56.8856 22.9608H60.7925L62.089 25.0745Z" fill="black"/>
<path d="M58.45 18.5859L62.4545 25.0195L63.7585 24.2136L58.45 18.5859Z" fill="black"/>
<path d="M66.6114 15.876C66.9417 15.876 67.2108 16.1451 67.2108 16.4754V40.7606C67.2108 41.0909 66.9417 41.36 66.6114 41.36H50.3866C50.0562 41.36 49.7871 41.0909 49.7871 40.7606V16.4754C49.7871 16.1451 50.0562 15.876 50.3866 15.876H66.6114ZM66.6114 15H50.3866C49.5719 15 48.9111 15.6608 48.9111 16.4754V40.7606C48.9111 41.5752 49.5719 42.236 50.3866 42.236H66.6114C67.4261 42.236 68.0868 41.5752 68.0868 40.7606V16.4754C68.0868 15.6608 67.4261 15 66.6114 15Z" fill="black"/>
<path d="M41.9583 50.9163H40.638V48.6149H38.6808V50.9163H37.353V45.4062H38.6808V47.5937H40.638V45.4062H41.9583V50.9163Z" fill="black"/>
<path d="M44.6977 45.4062L45.9278 49.2406L47.1542 45.4062H48.9025V50.9163H47.5697V49.6298L47.6986 46.9956L46.3658 50.9163H45.4873L44.1508 46.9918L44.2797 49.6298V50.9163H42.9519V45.4062H44.6964H44.6977Z" fill="black"/>
<path d="M56.4979 50.2387C56.2939 50.4652 55.9948 50.6492 55.6006 50.7868C55.2064 50.9257 54.7759 50.9946 54.3066 50.9946C53.5845 50.9946 53.0089 50.7743 52.5771 50.3326C52.1454 49.8908 51.9151 49.2764 51.8851 48.4892L51.8813 48.0124C51.8813 47.4706 51.9777 46.9963 52.1692 46.5908C52.3606 46.1853 52.6347 45.8737 52.9926 45.656C53.3493 45.4383 53.7622 45.3281 54.2315 45.3281C54.9173 45.3281 55.4504 45.4858 55.8309 45.7999C56.21 46.114 56.4315 46.5833 56.4954 47.2053H55.2164C55.1714 46.8974 55.0725 46.6784 54.9211 46.547C54.7696 46.4156 54.5556 46.3505 54.2778 46.3505C53.945 46.3505 53.6872 46.4919 53.5057 46.7748C53.3242 47.0576 53.2316 47.4606 53.2291 47.9861V48.319C53.2291 48.8697 53.323 49.2826 53.5107 49.5579C53.6984 49.8345 53.995 49.9722 54.398 49.9722C54.7434 49.9722 55.0012 49.8958 55.1701 49.7419V48.8872H54.2465V47.9749H56.4979V50.2375V50.2387Z" fill="black"/>
<path d="M59.9375 48.9678H59.2179V50.9163H57.8901V45.4062H60.0589C60.7121 45.4062 61.2227 45.5514 61.5919 45.8405C61.9598 46.1308 62.145 46.54 62.145 47.0694C62.145 47.4523 62.0674 47.7702 61.9122 48.0217C61.7571 48.2733 61.5143 48.4785 61.1839 48.6337L62.334 50.8587V50.915H60.9111L59.9387 48.9666L59.9375 48.9678ZM59.2179 47.9454H60.0576C60.3104 47.9454 60.4994 47.8791 60.627 47.7464C60.7547 47.6138 60.8185 47.4286 60.8185 47.1908C60.8185 46.953 60.7547 46.7665 60.6258 46.6314C60.4969 46.4962 60.3079 46.4287 60.0576 46.4287H59.2179V47.9466V47.9454Z" fill="black"/>
<path d="M68.2329 48.2805C68.2329 48.8174 68.1328 49.2929 67.9338 49.7072C67.7349 50.1214 67.4508 50.4392 67.0841 50.6632C66.7174 50.886 66.2982 50.9986 65.8289 50.9986C65.3596 50.9986 64.9429 50.891 64.58 50.6745C64.2171 50.4593 63.933 50.1502 63.7303 49.7497C63.5275 49.348 63.4199 48.8887 63.4099 48.3681V48.0578C63.4099 47.5184 63.5088 47.0416 63.7065 46.6287C63.9042 46.2157 64.1883 45.8978 64.5575 45.6726C64.9266 45.4486 65.3484 45.3359 65.8202 45.3359C66.292 45.3359 66.7037 45.4473 67.0691 45.6688C67.4345 45.8903 67.7198 46.2069 67.9226 46.6174C68.1253 47.0279 68.2279 47.4971 68.2304 48.0277V48.2818L68.2329 48.2805ZM66.8826 48.0503C66.8826 47.5034 66.7913 47.0867 66.6086 46.8039C66.4259 46.5198 66.1643 46.3784 65.8227 46.3784C65.1569 46.3784 64.8053 46.8777 64.7665 47.8776L64.7627 48.283C64.7627 48.8224 64.8528 49.2379 65.0318 49.5282C65.2107 49.8185 65.4773 49.9637 65.8302 49.9637C66.1831 49.9637 66.4246 49.821 66.6061 49.5357C66.7875 49.2504 66.8801 48.8412 66.8826 48.3056V48.0515V48.0503Z" fill="black"/>
<path d="M73.8603 45.4062V49.0129C73.8603 49.4221 73.7727 49.775 73.5987 50.0741C73.4248 50.3732 73.1745 50.6009 72.8491 50.7573C72.5237 50.9138 72.1383 50.9926 71.6953 50.9926C71.0245 50.9926 70.4952 50.8187 70.1097 50.4708C69.7243 50.1229 69.5266 49.6461 69.519 49.0404V45.4075H70.8556V49.0667C70.8706 49.6698 71.1509 49.9714 71.6953 49.9714C71.9706 49.9714 72.1783 49.8964 72.3197 49.7449C72.4612 49.5935 72.5312 49.347 72.5312 49.0066V45.4075H73.859L73.8603 45.4062Z" fill="black"/>
<path d="M76.6371 49.0466V50.9163H75.3093V45.4062H77.5081C77.9298 45.4062 78.3027 45.4838 78.6269 45.639C78.951 45.7942 79.2025 46.0144 79.3802 46.301C79.5579 46.5876 79.6468 46.9117 79.6468 47.2759C79.6468 47.8127 79.4541 48.2432 79.0699 48.5648C78.6857 48.8865 78.1576 49.0479 77.4856 49.0479H76.6383L76.6371 49.0466ZM76.6371 48.0217H77.5081C77.7659 48.0217 77.9611 47.9579 78.0963 47.829C78.2314 47.7001 78.299 47.5187 78.299 47.2846C78.299 47.0268 78.2302 46.8216 78.0913 46.6677C77.9523 46.5138 77.7634 46.4362 77.5231 46.4324H76.6371V48.0217Z" fill="black"/>
</g>
<defs>
<filter id="filter0_d_1850_79879" x="0.875" y="0.65625" width="115.25" height="66.25" filterUnits="userSpaceOnUse" color-interpolation-filters="sRGB">
<feFlood flood-opacity="0" result="BackgroundImageFix"/>
<feColorMatrix in="SourceAlpha" type="matrix" values="0 0 0 0 0 0 0 0 0 0 0 0 0 0 0 0 0 0 127 0" result="hardAlpha"/>
<feOffset dy="0.78125"/>
<feGaussianBlur stdDeviation="1.5625"/>
<feComposite in2="hardAlpha" operator="out"/>
<feColorMatrix type="matrix" values="0 0 0 0 0 0 0 0 0 0 0 0 0 0 0 0 0 0 0.08 0"/>
<feBlend mode="normal" in2="BackgroundImageFix" result="effect1_dropShadow_1850_79879"/>
<feBlend mode="normal" in="SourceGraphic" in2="effect1_dropShadow_1850_79879" result="shape"/>
</filter>
</defs>
</svg>
