<svg width="117" height="67" viewBox="0 0 117 67" fill="none" xmlns="http://www.w3.org/2000/svg">
<g filter="url(#filter0_d_1850_99313)">
<rect width="109" height="60" transform="translate(4 3)" fill="white"/>
<path d="M64.7713 24.1144C64.7713 24.11 64.7713 24.1059 64.7709 24.1016C64.7706 24.0986 64.7702 24.0956 64.7697 24.0924C64.7697 24.0924 64.7697 24.0924 64.7697 24.0922C64.7658 24.0684 64.7553 24.0471 64.74 24.0297C64.7382 24.0277 64.7366 24.0259 64.7345 24.024L61.0085 20.3257C60.9849 20.3023 60.9529 20.2891 60.9197 20.2891H56.0813C56.0482 20.2891 56.0162 20.3023 55.9926 20.3257L52.2666 24.024C52.2647 24.0259 52.2629 24.0279 52.2611 24.0297C52.246 24.0469 52.2355 24.0684 52.2313 24.0922C52.2309 24.0952 52.2304 24.0984 52.2302 24.1013C52.2297 24.1057 52.2297 24.11 52.2297 24.1141V29.7286C52.2297 29.7329 52.2297 29.7371 52.2302 29.7414C52.2304 29.7444 52.2309 29.7476 52.2313 29.7505C52.2313 29.7505 52.2313 29.7505 52.2313 29.7508C52.2352 29.7746 52.2457 29.7958 52.2611 29.8132C52.2629 29.8153 52.2645 29.8171 52.2666 29.8189L55.9926 33.5173C56.0162 33.5406 56.0482 33.5539 56.0813 33.5539H60.9197C60.9529 33.5539 60.9849 33.5406 61.0085 33.5173L64.7345 29.8189C64.7363 29.8171 64.7382 29.815 64.74 29.8132C64.7551 29.7961 64.7656 29.7746 64.7697 29.7508C64.7702 29.7478 64.7706 29.7446 64.7709 29.7416C64.7713 29.7373 64.7713 29.7329 64.7713 29.7288V24.1144ZM58.5 33.2312L57.1244 31.5758C57.7506 31.5667 59.2491 31.5667 59.8753 31.5758L58.4997 33.2312H58.5ZM60.0894 31.3272C58.9359 31.3073 58.0638 31.3073 56.911 31.3272L54.4274 28.8436V24.9996L56.911 22.516C58.064 22.5359 58.9361 22.5359 60.0894 22.516L62.573 24.9996V28.8436L60.0894 31.3272ZM54.2725 24.7978L52.813 24.1722L55.2629 23.8074L54.2725 24.7978ZM54.1751 28.5977L52.4498 26.9216L54.1751 25.2454V28.5977ZM54.2725 29.0454L55.2629 30.0358L52.813 29.6709L54.2725 29.0454ZM58.5 20.612L59.8755 22.2674C59.2493 22.2765 57.7509 22.2765 57.1246 22.2674L58.5002 20.612H58.5ZM62.7276 24.7978L61.7372 23.8074L64.1871 24.1722L62.7276 24.7978ZM62.7276 29.0454L64.1871 29.6709L61.7372 30.0358L62.7276 29.0454ZM62.8248 25.2454L64.5501 26.9216L62.8248 28.5977V25.2454ZM64.5193 26.5401L62.9223 24.9888L64.5193 24.3044V26.5401ZM64.2837 23.9318L61.4879 23.5153L61.037 20.7092L64.2837 23.9316V23.9318ZM61.1919 23.2621L60.2889 22.3591L60.8316 21.0199L61.1919 23.2621ZM60.7536 20.5409L60.1029 22.1466L58.7687 20.5409H60.7539H60.7536ZM58.2314 20.5409L56.8972 22.1466L56.2465 20.5409H58.2317H58.2314ZM56.1685 21.0199L56.7113 22.3591L55.8082 23.2621L56.1685 21.0199ZM55.9629 20.7095L55.512 23.5156L52.7162 23.9321L55.9629 20.7097V20.7095ZM52.4809 24.3042L54.0779 24.9886L52.4809 26.5398V24.3042ZM52.4809 27.3031L54.0779 28.8544L52.4809 29.5387V27.3031ZM52.7165 29.9113L55.5123 30.3279L55.9631 33.1339L52.7165 29.9116V29.9113ZM55.8082 30.5811L56.7113 31.4841L56.1685 32.8233L55.8082 30.5811ZM56.2465 33.3023L56.8972 31.6966L58.2314 33.3023H56.2463H56.2465ZM58.7687 33.3023L60.1029 31.6966L60.7536 33.3023H58.7685H58.7687ZM60.8316 32.8236L60.2889 31.4843L61.1919 30.5813L60.8316 32.8236ZM61.037 33.1337L61.4879 30.3276L64.2837 29.9111L61.037 33.1335V33.1337ZM64.5193 29.539L62.9223 28.8546L64.5193 27.3033V29.539Z" fill="#7B7B7B"/>
<path d="M40.7319 41.0055C41.1146 40.4278 41.3239 40.1803 42.0519 39.0412C41.9744 38.9254 41.9474 38.8735 41.9264 38.7958C41.9392 38.7377 41.9657 38.6867 42.0849 38.6839H42.2395C42.2475 38.686 42.2612 38.678 42.2713 38.6487C42.6626 37.9458 42.9547 37.2768 42.965 37.2129C42.992 37.0466 42.8827 37.0501 42.3259 37.0707C42.1608 37.0768 42.1761 36.9023 42.3577 36.9023C42.6656 36.9023 43.2608 36.8646 43.6364 36.8296C43.7558 36.8307 43.7862 36.9455 43.7219 37.048C43.3811 37.5208 42.9341 38.3584 42.7434 38.7329C42.7422 38.7349 42.7409 38.7372 42.7395 38.7397C43.4014 38.7745 44.1412 38.7418 44.8589 38.6754C44.9022 38.6693 44.9319 38.6315 44.9461 38.6082C45.3265 37.8758 45.6199 37.3188 45.9399 36.8035C45.9728 36.7587 46.0355 36.7058 46.0829 36.682C46.3274 36.5462 47.5644 36.196 47.5644 36.2779C47.5644 36.3481 47.5083 36.3653 47.4322 36.3788C47.3505 36.3932 46.9678 36.4828 46.7732 36.6532C46.0008 37.2825 44.7942 39.8045 44.7866 40.4127C44.7791 40.893 45.4271 40.6677 45.6737 40.5019C45.7855 40.4923 45.821 40.5119 45.7009 40.5929C45.444 40.7663 45.1224 41.0323 44.5488 41.0051C44.1439 40.9859 44.1359 40.5767 44.2407 40.2569C44.3619 39.9024 44.5366 39.5083 44.662 39.2395C44.6771 39.2093 44.6922 39.1558 44.6922 39.1126C44.6922 38.9671 44.4134 38.9598 44.3575 38.9598C43.7766 38.9598 42.9856 39.0254 42.5858 39.0862C42.5446 39.0915 42.5131 39.1201 42.4678 39.1926C42.1727 39.6963 41.8177 40.2503 41.6002 40.7823C41.5668 40.8713 41.5373 40.9138 41.4124 40.9138C41.2365 40.9138 40.9101 41.0517 40.8088 41.0963C40.7893 41.1048 40.7671 41.103 40.7495 41.0911C40.7212 41.0721 40.7134 41.0337 40.7321 41.0053L40.7319 41.0055Z" fill="#7B7B7B"/>
<path d="M45.8818 41.0283C45.6286 41.0283 45.4893 40.9018 45.4893 40.6721C45.4893 40.1994 45.8932 39.6396 46.1066 39.4098C46.3909 39.1053 46.7288 38.9141 47.0636 38.8677C47.1139 38.6529 47.213 38.5925 47.2898 38.5806L47.3088 38.5774C47.3527 38.5703 47.4069 38.5616 47.4369 38.5447C47.4568 38.531 47.4806 38.5234 47.5046 38.5234C47.5435 38.5234 47.5787 38.5431 47.5966 38.5744C47.6144 38.606 47.6128 38.644 47.5922 38.6785C47.5183 38.8016 47.4742 39.0099 47.4742 39.2357C47.4742 39.5783 47.6698 39.8057 47.9099 39.8057C48.2109 39.8057 48.6485 39.2634 48.6206 39.2938C48.4269 39.5539 48.183 39.9647 47.7633 39.9647C47.5574 39.9647 47.363 39.8736 47.232 39.7213C47.0552 40.1033 46.6798 40.7005 46.1837 40.9485C46.0716 40.9995 45.9625 41.028 45.8818 41.028V41.0283ZM47.0435 39.0397C46.8466 39.0671 46.5526 39.3652 46.283 39.8149C46.0805 40.1602 45.9851 40.4343 45.9922 40.6518C45.9922 40.7613 46.0265 40.7613 46.0542 40.7613C46.3982 40.7613 47.0213 39.7746 47.0785 39.4208C47.0513 39.3034 47.0442 39.1534 47.0433 39.0397H47.0435Z" fill="#7B7B7B"/>
<path d="M48.9379 41.2404C48.6922 41.2404 48.5454 41.0903 48.5454 40.8387C48.5454 40.8028 48.5481 40.7582 48.5561 40.706C48.4191 40.8478 48.2416 40.9766 48.0108 40.9766C47.8303 40.9766 47.7183 40.8577 47.7183 40.666C47.7183 40.4743 47.8489 40.1287 48.4987 39.0079C48.5149 38.9761 48.5682 38.8828 48.638 38.8828C48.7519 38.8828 48.9033 39.0523 48.9033 39.1298C48.9033 39.158 48.8921 39.1937 48.8379 39.2751C48.4205 39.9112 48.1398 40.4666 48.1398 40.6569C48.1398 40.728 48.1545 40.728 48.1746 40.728C48.1947 40.728 48.3731 40.7115 48.7457 40.1415C48.9584 39.7531 49.2386 39.2566 49.3457 39.0779L49.3475 39.0749L49.3553 39.0647C49.3839 39.0262 49.4164 38.9825 49.4745 38.9825C49.5717 38.9825 49.6671 39.1454 49.6671 39.3115C49.6671 39.3746 49.6522 39.4302 49.6213 39.4814C49.5541 39.5855 49.4793 39.6873 49.4068 39.7856C49.1682 40.1093 48.9216 40.4439 48.9216 40.8842C48.9216 40.997 48.9676 41.0189 49.0472 41.0189C49.3317 41.0189 50.0676 40.6589 50.6236 39.862C50.6236 39.862 50.7121 39.7472 50.7121 39.8117V39.832L50.7005 39.8487C50.3672 40.33 49.5701 41.2404 48.9379 41.2404Z" fill="#7B7B7B"/>
<path d="M50.1287 41.0507C49.6243 41.0507 49.4841 40.8178 49.455 40.6223C49.455 40.6223 49.4411 40.5612 49.4594 40.5527C49.6138 40.4814 49.6415 40.4267 49.7105 40.402C49.7423 40.3906 49.7869 40.4144 49.7975 40.4731C49.7979 40.4757 49.7984 40.4789 49.7997 40.483C49.861 40.6932 50.0296 40.8382 50.2105 40.8382C50.5472 40.8382 50.7179 40.7042 50.7179 40.44C50.7179 40.2963 50.646 40.1701 50.5834 40.0763C50.5719 40.0575 50.5612 40.0408 50.5504 40.0241C50.4841 39.9201 50.4086 39.8018 50.4086 39.6584C50.4086 39.3217 50.907 38.875 51.2828 38.875C51.3405 38.875 51.4935 38.875 51.4935 39.0312V39.0509L51.4825 39.0674C51.4507 39.1152 51.4077 39.1996 51.391 39.2581L51.3883 39.268L51.3826 39.2764C51.3531 39.3206 51.3181 39.3272 51.2998 39.3272C51.268 39.3272 51.2396 39.3089 51.2245 39.2785C51.2058 39.2366 51.1721 39.1964 51.0557 39.1964C50.9281 39.1964 50.7391 39.268 50.7391 39.4219C50.7391 39.4937 50.7879 39.5626 50.8764 39.6875L50.8999 39.7206C51.0045 39.8725 51.112 40.0287 51.112 40.2037C51.112 40.8437 50.4496 41.0507 50.1287 41.0507Z" fill="#7B7B7B"/>
<path d="M51.8736 41.0297C51.5561 41.0297 51.3811 40.871 51.3811 40.5828C51.3811 40.2509 51.568 39.8161 51.8685 39.4485C52.1821 39.0649 52.5511 38.8359 52.8553 38.8359C53.1268 38.8359 53.1478 39.0111 53.1478 39.0649C53.1478 39.3988 52.764 39.8263 52.0172 39.8419C51.9589 39.9592 51.8752 40.2179 51.8752 40.4284C51.8752 40.6388 51.9587 40.7358 52.1462 40.7358C52.6801 40.7358 53.2986 40.1161 53.6467 39.7557C53.667 39.7346 53.7034 39.7053 53.7297 39.722C53.7542 39.7376 53.7473 39.7687 53.7336 39.7881C53.2814 40.4268 52.5666 41.0299 51.8733 41.0299L51.8736 41.0297ZM52.076 39.7067C52.0899 39.7081 52.103 39.709 52.1133 39.709C52.4264 39.709 52.7354 39.4043 52.7354 39.1102C52.7354 39.0857 52.7215 39.0574 52.6826 39.0574C52.5053 39.0574 52.2464 39.3906 52.076 39.7069V39.7067Z" fill="#7B7B7B"/>
<path d="M55.4001 41.0284C55.1469 41.0284 55.0076 40.9019 55.0076 40.6723C55.0076 40.1995 55.4115 39.6398 55.6249 39.4099C55.9092 39.1055 56.2471 38.9142 56.5819 38.8678C56.6322 38.653 56.7313 38.5926 56.8081 38.5808C56.8557 38.5727 56.9207 38.5645 56.9552 38.5451C57.0469 38.4792 57.1741 38.5753 57.1103 38.6789C57.0364 38.8019 56.9923 39.0103 56.9923 39.2361C56.9923 39.5787 57.114 39.7525 57.3541 39.7525C57.6551 39.7525 57.8951 39.5032 58.0438 39.2926C58.1165 39.1633 58.1739 39.2747 58.0698 39.3978C57.8761 39.6579 57.7011 39.9648 57.2814 39.9648C57.0755 39.9648 56.8811 39.8738 56.75 39.7214C56.5732 40.1034 56.1979 40.7006 55.7018 40.9486C55.5897 40.9996 55.4806 41.0282 55.3998 41.0282L55.4001 41.0284ZM56.562 39.0398C56.1915 39.0716 55.4566 40.2725 55.5108 40.718C55.5108 40.8319 55.5451 40.8319 55.5728 40.8319C55.9168 40.8319 56.5398 39.8047 56.597 39.4364C56.5698 39.3143 56.5627 39.1581 56.5618 39.0398H56.562Z" fill="#7B7B7B"/>
<path d="M52.6928 45.7113C52.408 45.7113 51.9108 45.6189 51.7799 44.9993L51.7786 44.9927V44.9858C51.7786 44.8792 51.8296 44.8634 51.86 44.8634C51.8847 44.8634 51.9298 44.876 51.9538 44.9599L51.9549 44.9638L51.9556 44.9677C51.9746 45.0887 52.2045 45.4394 52.7383 45.4394H52.755C53.9515 45.4192 55.1528 44.5272 56.3255 42.7874C56.8617 41.9917 57.4193 40.975 57.8674 40.1579C58.0163 39.8864 58.1581 39.6277 58.2832 39.4066C57.3905 39.426 57.4605 39.4544 57.2684 39.8524L57.1288 39.8434C57.2626 39.5164 57.428 39.3075 57.5943 39.2556C57.7633 39.2048 58.2267 39.1826 58.4154 39.1755C58.9848 38.1316 59.4351 37.3766 59.9178 36.6563C60.2558 36.1467 61.1261 34.9609 61.8979 34.9609C62.1463 34.9609 62.3563 35.0989 62.3563 35.2619C62.3563 35.2988 62.3453 35.3793 62.3272 35.5074C62.3087 35.6396 62.2856 35.804 62.2856 35.8752V35.8949L62.2746 35.9113C62.2552 35.9406 62.2215 35.958 62.1849 35.958C62.1483 35.958 62.1147 35.9406 62.0953 35.9113L62.0788 35.8866L62.0866 35.858C62.1079 35.78 62.1079 35.7318 62.1079 35.6709C62.1079 35.4319 61.8071 35.406 61.6778 35.406C61.1726 35.406 60.7135 35.7855 60.2327 36.6003C59.9363 37.1062 59.3439 38.2416 58.8695 39.1717C59.1238 39.1671 59.6195 39.1666 59.8464 39.1666H59.8617L59.8754 39.1735C59.9367 39.2041 59.9502 39.276 59.9317 39.3311L59.9168 39.3757H59.8697C59.7835 39.3757 59.159 39.3832 58.7624 39.3906C58.1073 40.6728 57.2302 42.0962 56.5726 42.9428C55.1315 44.7799 53.8264 45.7113 52.6928 45.7113Z" fill="#7B7B7B"/>
<path d="M66.9682 42.3989C65.1452 42.4465 63.7762 40.4501 62.7103 39.0986C62.7085 39.1011 62.7069 39.1038 62.7048 39.1068C62.364 39.6722 62.0948 40.1759 61.7895 40.7205C61.7302 40.8221 61.7089 40.9049 61.6936 40.9893C61.6225 40.9785 61.4949 40.9614 61.4599 40.963C61.3084 40.9662 61.0674 41.1221 60.9647 41.1706C60.8821 41.2095 60.7986 41.1521 60.8542 41.0865C61.7227 40.0569 63.3112 37.5489 63.2819 37.0548C63.2769 36.97 62.6419 37.1079 62.3597 37.1091C62.3103 37.1091 62.1932 37.1091 62.1945 36.9892C62.1955 36.9027 62.3107 36.6875 62.4144 36.6875H62.4409C62.4622 36.6875 62.4795 36.7049 62.4795 36.7262V36.7527C62.4795 36.7607 62.4795 36.7774 62.523 36.79C62.5937 36.8092 62.7602 36.8282 62.9798 36.8419C63.4425 36.862 63.762 36.8469 64.3341 36.8064C64.3666 36.8042 64.3972 36.8231 64.4091 36.8533C64.4226 36.8872 64.3977 36.924 64.3613 36.9238C64.2341 36.9229 64.0114 36.9361 63.9334 37.0773C63.6328 37.5546 63.2899 38.1255 62.8762 38.8174C63.4734 38.4606 64.0791 38.0789 64.5498 37.7621C64.639 37.7058 64.8444 37.5674 65.0823 37.4073C65.7355 36.9672 66.018 36.7806 66.0763 36.763L66.0855 36.7602H66.1511C66.2024 36.7996 66.301 36.8291 66.4032 36.8504L66.4172 36.8783C66.4425 36.9311 66.4192 36.9798 66.3849 37.01L66.3703 37.0148C66.2296 37.0617 65.7879 37.2685 64.4116 38.1262C64.0285 38.3657 63.6237 38.6223 63.2556 38.8936C63.7483 39.5478 64.3618 40.3616 65.3668 41.2953C66.1143 41.9797 66.5121 42.1777 67.1404 42.1777C67.5997 42.1777 68.1036 42.0435 68.3941 41.8438L68.3975 41.8415C68.4666 41.793 68.57 41.826 68.5691 41.9156C68.5691 41.9717 68.5297 41.998 68.5036 42.0153C68.1441 42.2487 67.5414 42.3989 66.9677 42.3989H66.9682Z" fill="#7B7B7B"/>
<path d="M67.0677 41.1669C66.637 41.1738 66.6116 40.7607 66.7578 40.4254C66.4684 40.7289 66.1109 41.0217 65.8406 41.0217C64.9547 40.9416 66.5032 38.7604 67.5835 38.8375C67.643 38.7348 67.6922 38.6833 67.7555 38.6586L68.0375 38.5781L68.1533 38.6358C68.0918 38.7048 68.0394 38.7709 67.984 38.8611C68.0625 38.8702 68.2201 38.8926 68.264 38.9052C68.3388 38.9372 67.9923 38.9839 67.9097 38.9798C67.3552 39.964 67.0311 40.5731 67.0876 40.819C67.2148 41.3744 68.5106 40.1905 68.8891 39.5884C68.9554 39.4828 68.9484 39.5351 68.9346 39.639C68.3923 40.3195 67.6617 41.1676 67.0675 41.1671L67.0677 41.1669ZM67.5293 38.9795C66.7621 39.1271 65.7269 40.693 66.0695 40.7163C66.5309 40.7479 67.1679 39.6598 67.5293 38.9795Z" fill="#7B7B7B"/>
<path d="M68.3402 41.0011C68.2777 41.0011 68.1387 40.8726 68.1387 40.7996C68.1387 40.7354 68.1744 40.6677 68.2109 40.6036C68.4662 40.1546 68.9891 39.2701 69.1552 38.9606C69.181 38.9092 69.2137 38.8438 69.2766 38.8438C69.3256 38.8438 69.4715 38.9067 69.4715 39.0581C69.4715 39.1011 69.3388 39.3339 69.2741 39.4458C69.5401 39.1324 70.4461 38.5276 70.5415 39.0702C70.4672 39.1489 70.3713 39.3012 70.3452 39.3621C70.3061 39.4483 70.1998 39.4455 70.1632 39.3696C70.0218 39.1333 69.5511 39.3637 69.3594 39.5453C69.0266 39.8383 68.4861 41.0021 68.3402 41.0011Z" fill="#7B7B7B"/>
<path d="M71.6122 41.164C71.359 41.164 71.2197 41.0279 71.2197 40.7806C71.2197 40.6882 71.2495 40.5631 71.3023 40.4224C71.013 40.7259 70.6554 41.0187 70.3851 41.0187C70.2126 41.0187 70.1289 40.935 70.1289 40.7625C70.1289 40.1674 71.09 38.8663 72.128 38.8346C72.1863 38.7335 72.255 38.6571 72.3156 38.6328H72.698L72.6436 38.6964C72.6093 38.7364 72.574 38.7895 72.5352 38.8506C72.6022 38.857 72.8277 38.8874 72.8197 38.9258C72.811 38.9679 72.5402 38.9812 72.4576 38.9771C71.9032 39.9613 71.6411 40.5288 71.6411 40.7811C71.6411 40.8607 71.6646 40.9066 71.7849 40.9066C72.1207 40.9066 72.8295 40.3387 73.4339 39.5857C73.4608 39.5498 73.4938 39.5441 73.5109 39.5441C73.5642 39.5441 73.6045 39.5912 73.6045 39.6539V39.6767L73.5901 39.6946C73.0459 40.3725 72.2014 41.1642 71.6122 41.1642V41.164ZM72.0809 38.9766C71.3117 39.1223 70.3306 40.798 70.6051 40.7346C71.3185 40.5699 72.0612 39.0102 72.0809 38.9766Z" fill="#7B7B7B"/>
<path d="M73.3937 41.0097C73.1252 41.0097 72.9648 40.8425 72.9648 40.5627C72.9648 40.3255 73.1474 39.9115 73.5545 39.2283C73.474 39.2345 73.2542 39.2555 73.2208 39.2555C73.1101 39.2519 73.1101 39.1805 73.1101 39.1359C73.1513 39.0618 73.2155 39.0041 73.27 38.9618L73.7192 38.9529C73.9456 38.5673 74.2572 38.0078 74.5458 37.7331C74.6899 37.5958 75.1257 37.4337 75.2412 37.487C75.2897 37.5094 74.9237 37.7386 74.8741 37.8095C74.6257 38.1571 74.3768 38.5501 74.1501 38.952H75.1815C75.2785 38.9877 75.2906 39.1176 75.1858 39.1462C74.9848 39.1459 74.3935 39.1711 74.006 39.1981C73.7295 39.6903 73.1892 40.7029 73.7391 40.7247C73.9079 40.7247 74.152 40.6293 74.4267 40.4559C74.536 40.3662 74.5948 40.4415 74.4646 40.5398C74.063 40.8434 73.7679 41.0097 73.3937 41.0097Z" fill="#7B7B7B"/>
<path d="M74.9117 41.044C74.3806 41.0366 74.2615 40.8081 74.2322 40.5746C74.3061 40.5231 74.4003 40.382 74.4783 40.3555C74.6171 40.3079 74.5714 40.9012 75.0293 40.8784C75.3655 40.8617 75.501 40.6977 75.501 40.4332C75.4962 40.11 75.2004 39.968 75.1919 39.6514C75.1919 39.3147 75.6903 38.868 76.0661 38.868C76.1297 38.8621 76.2949 38.8843 76.2768 39.0439C76.237 39.1016 76.1631 39.2763 76.1439 39.3475C76.095 39.4259 76.0536 39.3342 76.0076 39.2715C75.8052 38.9945 75.1961 39.2418 75.573 39.6732C76.2484 40.4461 75.5023 41.0785 74.9117 41.0437V41.044Z" fill="#7B7B7B"/>
</g>
<defs>
<filter id="filter0_d_1850_99313" x="0.875" y="0.65625" width="115.25" height="66.25" filterUnits="userSpaceOnUse" color-interpolation-filters="sRGB">
<feFlood flood-opacity="0" result="BackgroundImageFix"/>
<feColorMatrix in="SourceAlpha" type="matrix" values="0 0 0 0 0 0 0 0 0 0 0 0 0 0 0 0 0 0 127 0" result="hardAlpha"/>
<feOffset dy="0.78125"/>
<feGaussianBlur stdDeviation="1.5625"/>
<feComposite in2="hardAlpha" operator="out"/>
<feColorMatrix type="matrix" values="0 0 0 0 0 0 0 0 0 0 0 0 0 0 0 0 0 0 0.08 0"/>
<feBlend mode="normal" in2="BackgroundImageFix" result="effect1_dropShadow_1850_99313"/>
<feBlend mode="normal" in="SourceGraphic" in2="effect1_dropShadow_1850_99313" result="shape"/>
</filter>
</defs>
</svg>
