<svg width="117" height="67" viewBox="0 0 117 67" fill="none" xmlns="http://www.w3.org/2000/svg">
<g filter="url(#filter0_d_1850_100013)">
<rect width="109" height="60" transform="translate(4 3)" fill="white"/>
<path d="M20.784 39.8516C20.784 39.8627 20.782 39.8724 20.7772 39.8807C20.7724 39.8897 20.7634 39.8967 20.7497 39.9022C20.736 39.9078 20.7181 39.9119 20.6954 39.9154C20.6728 39.9189 20.6432 39.9203 20.6068 39.9203C20.5601 39.9203 20.5217 39.9182 20.4921 39.914C20.4626 39.9099 20.4406 39.9022 20.4255 39.8918C20.4104 39.8807 20.3987 39.8689 20.3891 39.8551L19.4309 38.5399V39.8551C19.4309 39.8648 19.4281 39.8738 19.4226 39.8828C19.4171 39.8918 19.4075 39.8981 19.3945 39.9029C19.3807 39.9078 19.3636 39.9119 19.3409 39.9154C19.3182 39.9189 19.2907 39.9203 19.2571 39.9203C19.2234 39.9203 19.1973 39.9189 19.1747 39.9154C19.152 39.9119 19.1334 39.9078 19.1204 39.9029C19.1067 39.8981 19.0977 39.8911 19.0922 39.8828C19.0867 39.8738 19.084 39.8648 19.084 39.8551V37.3308C19.084 37.3197 19.0867 37.3107 19.0922 37.3024C19.0977 37.2941 19.1067 37.2878 19.1204 37.283C19.1334 37.2781 19.152 37.2739 19.1747 37.2705C19.1973 37.267 19.2248 37.2656 19.2571 37.2656C19.2894 37.2656 19.3182 37.267 19.3409 37.2705C19.3636 37.2739 19.3807 37.2781 19.3945 37.283C19.4075 37.2878 19.4171 37.2941 19.4226 37.3024C19.4281 37.3107 19.4309 37.3197 19.4309 37.3308V38.4996L20.3527 37.3308C20.3609 37.3183 20.3699 37.3086 20.3808 37.3003C20.3918 37.292 20.4049 37.2857 20.42 37.2809C20.4351 37.276 20.4543 37.2726 20.4763 37.2698C20.4983 37.267 20.5271 37.2656 20.5622 37.2656C20.5972 37.2656 20.6254 37.267 20.6467 37.2705C20.668 37.2739 20.6851 37.2781 20.6982 37.2837C20.7112 37.2892 20.7195 37.2961 20.7243 37.3038C20.7291 37.3121 20.7312 37.3204 20.7312 37.3301C20.7312 37.3475 20.727 37.3655 20.7181 37.3829C20.7092 37.4002 20.6927 37.4252 20.6686 37.4557L19.8052 38.4983L20.7353 39.7462C20.7579 39.7815 20.7717 39.8051 20.7765 39.8183C20.7813 39.8315 20.7834 39.8419 20.7834 39.8495L20.784 39.8516Z" fill="#B39382"/>
<path d="M26.1005 39.7823C26.1005 39.8065 26.0991 39.828 26.0964 39.8461C26.0936 39.8641 26.0888 39.8794 26.082 39.8919C26.0751 39.9043 26.0675 39.9127 26.0586 39.9182C26.0497 39.9238 26.0401 39.9265 26.0298 39.9265H24.7803C24.7494 39.9265 24.7205 39.9161 24.6931 39.8953C24.6656 39.8745 24.6519 39.8378 24.6519 39.7843V37.4391C24.6519 37.3864 24.6656 37.3496 24.6931 37.3281C24.7205 37.3073 24.7494 37.2969 24.7803 37.2969H26.016C26.027 37.2969 26.0366 37.2996 26.0449 37.3052C26.0538 37.3107 26.0607 37.3198 26.0662 37.3316C26.0717 37.344 26.0758 37.3593 26.0792 37.3773C26.0827 37.3954 26.084 37.4183 26.084 37.4453C26.084 37.4696 26.0827 37.4911 26.0792 37.5091C26.0758 37.5272 26.0717 37.5424 26.0662 37.5535C26.0607 37.5653 26.0538 37.5736 26.0449 37.5792C26.0359 37.5847 26.0263 37.5875 26.016 37.5875H24.998V38.4123H25.8711C25.8821 38.4123 25.8917 38.4151 25.8999 38.4213C25.9089 38.4275 25.9157 38.4359 25.9219 38.447C25.9281 38.4581 25.9322 38.4726 25.935 38.4914C25.9377 38.5101 25.9391 38.533 25.9391 38.5586C25.9391 38.5829 25.9377 38.6037 25.935 38.6218C25.9322 38.6391 25.9281 38.6537 25.9219 38.6648C25.9157 38.6759 25.9082 38.6835 25.8999 38.6884C25.891 38.6932 25.8814 38.6953 25.8711 38.6953H24.998V39.6359H26.0305C26.0414 39.6359 26.0511 39.6387 26.0593 39.6442C26.0682 39.6498 26.0758 39.6581 26.0827 39.6699C26.0895 39.6817 26.0943 39.6962 26.0971 39.7143C26.0998 39.7323 26.1012 39.7552 26.1012 39.7823H26.1005Z" fill="#B39382"/>
<path d="M31.6851 39.1725C31.6851 39.2551 31.6748 39.3314 31.6542 39.4014C31.6336 39.4715 31.604 39.5339 31.567 39.5894C31.5292 39.6449 31.4838 39.6935 31.4309 39.7358C31.3781 39.7781 31.3183 39.8128 31.2517 39.8412C31.185 39.8697 31.1143 39.8912 31.038 39.905C30.9625 39.9196 30.8753 39.9265 30.7777 39.9265H30.0977C30.0668 39.9265 30.0379 39.9161 30.0105 39.8953C29.983 39.8745 29.9692 39.8378 29.9692 39.7843V37.4391C29.9692 37.3864 29.983 37.3496 30.0105 37.3281C30.0379 37.3073 30.0668 37.2969 30.0977 37.2969H30.6891C30.845 37.2969 30.9721 37.3114 31.0717 37.3413C31.1713 37.3711 31.2537 37.4141 31.3204 37.4717C31.387 37.5293 31.4364 37.5986 31.4701 37.6812C31.5038 37.7637 31.5202 37.8574 31.5202 37.9614C31.5202 38.0238 31.5127 38.0835 31.4983 38.1404C31.4832 38.1972 31.4619 38.25 31.433 38.2978C31.4042 38.3457 31.3678 38.3887 31.3245 38.4268C31.2812 38.465 31.2311 38.4962 31.1747 38.5205C31.2462 38.5344 31.3121 38.5586 31.3739 38.5947C31.4358 38.6308 31.4893 38.6766 31.536 38.7321C31.5828 38.7876 31.6192 38.8528 31.6459 38.927C31.6727 39.0012 31.6865 39.0837 31.6865 39.1725H31.6851ZM31.1637 37.9961C31.1637 37.9323 31.1548 37.8747 31.1376 37.8234C31.1205 37.772 31.093 37.7283 31.0552 37.6923C31.0174 37.6562 30.9687 37.6291 30.9089 37.6097C30.8485 37.591 30.7688 37.5813 30.6699 37.5813H30.3127V38.4331H30.7063C30.7963 38.4331 30.8684 38.4213 30.9233 38.3977C30.9783 38.3741 31.0236 38.3422 31.06 38.302C31.0964 38.2618 31.1225 38.2153 31.139 38.1619C31.1555 38.1085 31.1644 38.053 31.1644 37.9961H31.1637ZM31.3204 39.1933C31.3204 39.115 31.308 39.0456 31.2833 38.9859C31.2585 38.9263 31.2221 38.8763 31.1747 38.8354C31.1273 38.7945 31.0676 38.764 30.9961 38.7432C30.9247 38.7224 30.8347 38.7119 30.7262 38.7119H30.3127V39.6387H30.8148C30.8938 39.6387 30.9625 39.629 31.0216 39.6102C31.0806 39.5915 31.1322 39.5631 31.1775 39.5256C31.2228 39.4882 31.2572 39.4417 31.2833 39.3862C31.3087 39.3307 31.3217 39.2662 31.3217 39.1933H31.3204Z" fill="#B39382"/>
<path d="M37.7772 39.7836C37.7882 39.8134 37.7937 39.8377 37.7944 39.8558C37.7944 39.8738 37.7902 39.8877 37.7793 39.8974C37.7683 39.9071 37.7504 39.9126 37.7257 39.9154C37.701 39.9182 37.6673 39.9196 37.6261 39.9196C37.5849 39.9196 37.5512 39.9189 37.5265 39.9168C37.5018 39.9147 37.4832 39.9113 37.4702 39.9064C37.4571 39.9015 37.4482 39.8953 37.442 39.887C37.4358 39.8786 37.4303 39.8689 37.4248 39.8565L37.2016 39.2162H36.119L35.9054 39.8481C35.9013 39.8606 35.8958 39.871 35.8896 39.8793C35.8827 39.8884 35.8731 39.8953 35.8608 39.9015C35.8477 39.9078 35.8299 39.9119 35.8065 39.9147C35.7831 39.9175 35.7522 39.9189 35.7151 39.9189C35.678 39.9189 35.6444 39.9175 35.6197 39.914C35.5949 39.9106 35.5771 39.9043 35.5675 39.8946C35.5578 39.8849 35.5523 39.871 35.553 39.853C35.553 39.8349 35.5592 39.8107 35.5702 39.7808L36.4433 37.3385C36.4487 37.3239 36.4556 37.3114 36.4645 37.3017C36.4735 37.292 36.4858 37.285 36.503 37.2795C36.5195 37.2739 36.5415 37.2705 36.5676 37.2684C36.5937 37.2663 36.6266 37.2656 36.6672 37.2656C36.7098 37.2656 36.7455 37.2663 36.7736 37.2684C36.8018 37.2705 36.8245 37.2739 36.8423 37.2795C36.8595 37.285 36.8732 37.2927 36.8829 37.3031C36.8925 37.3135 36.8993 37.326 36.9048 37.3405L37.7779 39.7829L37.7772 39.7836ZM36.6562 37.6277H36.6541L36.2056 38.9387H37.1109L36.6562 37.6277Z" fill="#B39382"/>
<path d="M43.3787 39.1725C43.3787 39.2551 43.3684 39.3314 43.3478 39.4014C43.3272 39.4715 43.2977 39.5339 43.2606 39.5894C43.2228 39.6449 43.1774 39.6935 43.1246 39.7358C43.0717 39.7781 43.0119 39.8128 42.9453 39.8412C42.8786 39.8697 42.8079 39.8912 42.7316 39.905C42.6561 39.9196 42.5689 39.9265 42.4713 39.9265H41.7913C41.7604 39.9265 41.7315 39.9161 41.7041 39.8953C41.6766 39.8745 41.6628 39.8378 41.6628 39.7843V37.4391C41.6628 37.3864 41.6766 37.3496 41.7041 37.3281C41.7315 37.3073 41.7604 37.2969 41.7913 37.2969H42.3827C42.5386 37.2969 42.6657 37.3114 42.7653 37.3413C42.8649 37.3711 42.9473 37.4141 43.014 37.4717C43.0806 37.5293 43.13 37.5986 43.1637 37.6812C43.1974 37.7637 43.2139 37.8574 43.2139 37.9614C43.2139 38.0238 43.2063 38.0835 43.1919 38.1404C43.1768 38.1972 43.1555 38.25 43.1266 38.2978C43.0978 38.3457 43.0614 38.3887 43.0181 38.4268C42.9748 38.465 42.9247 38.4962 42.8683 38.5205C42.9398 38.5344 43.0057 38.5586 43.0675 38.5947C43.1294 38.6308 43.1829 38.6766 43.2296 38.7321C43.2764 38.7876 43.3128 38.8528 43.3396 38.927C43.3663 39.0012 43.3801 39.0837 43.3801 39.1725H43.3787ZM42.8574 37.9961C42.8574 37.9323 42.8484 37.8747 42.8312 37.8234C42.8141 37.772 42.7866 37.7283 42.7488 37.6923C42.711 37.6562 42.6623 37.6291 42.6025 37.6097C42.5421 37.591 42.4624 37.5813 42.3635 37.5813H42.0063V38.4331H42.3999C42.4899 38.4331 42.562 38.4213 42.6169 38.3977C42.6719 38.3741 42.7172 38.3422 42.7536 38.302C42.79 38.2618 42.8161 38.2153 42.8326 38.1619C42.8491 38.1085 42.858 38.053 42.858 37.9961H42.8574ZM43.0146 39.1933C43.0146 39.115 43.0023 39.0456 42.9776 38.9859C42.9528 38.9263 42.9164 38.8763 42.869 38.8354C42.8216 38.7945 42.7619 38.764 42.6904 38.7432C42.619 38.7224 42.529 38.7119 42.4205 38.7119H42.007V39.6387H42.5091C42.5881 39.6387 42.6568 39.629 42.7159 39.6102C42.7749 39.5915 42.8264 39.5631 42.8718 39.5256C42.9171 39.4882 42.9515 39.4417 42.9776 39.3862C43.003 39.3307 43.016 39.2662 43.016 39.1933H43.0146Z" fill="#B39382"/>
<path d="M48.8485 39.1506C48.8485 39.2741 48.8258 39.3837 48.7811 39.4801C48.7365 39.5765 48.674 39.6577 48.5943 39.725C48.5146 39.7922 48.4205 39.8422 48.3127 39.8762C48.2048 39.9102 48.0881 39.9268 47.9637 39.9268C47.8765 39.9268 47.7955 39.9192 47.7213 39.9046C47.6471 39.89 47.5805 39.8713 47.5221 39.8498C47.4637 39.8283 47.4149 39.8061 47.3751 39.7825C47.3352 39.7596 47.3078 39.7395 47.2926 39.7236C47.2775 39.7076 47.2659 39.6868 47.2583 39.6618C47.2507 39.6369 47.2473 39.6036 47.2473 39.5612C47.2473 39.5314 47.2487 39.5064 47.2514 39.487C47.2542 39.4676 47.2583 39.4516 47.2638 39.4392C47.2693 39.4267 47.2762 39.4184 47.2837 39.4135C47.2913 39.4086 47.3009 39.4066 47.3119 39.4066C47.3304 39.4066 47.3572 39.4184 47.3916 39.4412C47.4259 39.4641 47.4699 39.4891 47.5234 39.5162C47.577 39.5432 47.6416 39.5689 47.7178 39.5925C47.7934 39.616 47.8813 39.6278 47.9802 39.6278C48.0551 39.6278 48.1238 39.6174 48.1863 39.5973C48.2488 39.5772 48.3024 39.5481 48.347 39.5106C48.3917 39.4731 48.4267 39.4274 48.4508 39.3733C48.4748 39.3192 48.4872 39.2574 48.4872 39.1881C48.4872 39.1138 48.4707 39.05 48.437 38.9973C48.4034 38.9446 48.3594 38.8981 48.3044 38.8579C48.2495 38.8176 48.187 38.7816 48.1162 38.7483C48.0455 38.715 47.9734 38.681 47.8999 38.647C47.8264 38.6123 47.7542 38.5742 47.6849 38.5319C47.6148 38.4895 47.553 38.4403 47.498 38.3834C47.4431 38.3265 47.3984 38.2599 47.3641 38.1829C47.3297 38.1059 47.3126 38.0144 47.3126 37.9076C47.3126 37.8007 47.3325 37.7002 47.3716 37.6141C47.4115 37.5281 47.4664 37.456 47.5365 37.3977C47.6066 37.3394 47.691 37.2951 47.7879 37.2645C47.8854 37.234 47.9898 37.2188 48.1025 37.2188C48.1602 37.2188 48.2179 37.2236 48.2763 37.234C48.3347 37.2444 48.3896 37.2576 48.4411 37.2749C48.4927 37.2916 48.5387 37.311 48.5792 37.3318C48.6197 37.3526 48.6458 37.37 48.6589 37.3825C48.6719 37.3956 48.6802 37.4053 48.6843 37.413C48.6884 37.4206 48.6919 37.4296 48.6946 37.4414C48.6973 37.4532 48.6994 37.4671 48.7008 37.483C48.7022 37.499 48.7028 37.5205 48.7028 37.5462C48.7028 37.5704 48.7022 37.5919 48.7001 37.6114C48.698 37.6308 48.6953 37.646 48.6912 37.6592C48.687 37.6724 48.6815 37.6814 48.674 37.6877C48.6664 37.6939 48.6582 37.6967 48.6486 37.6967C48.6335 37.6967 48.6108 37.687 48.5792 37.6682C48.5476 37.6495 48.5091 37.628 48.4638 37.6044C48.4185 37.5808 48.3642 37.5593 48.3017 37.5392C48.2392 37.5191 48.1691 37.5101 48.0915 37.5101C48.0194 37.5101 47.9562 37.5198 47.9026 37.5392C47.849 37.5586 47.8044 37.585 47.77 37.6176C47.735 37.6502 47.7089 37.6891 47.6917 37.7334C47.6746 37.7778 47.6656 37.8257 47.6656 37.8756C47.6656 37.9485 47.6821 38.0116 47.7158 38.0643C47.7494 38.117 47.7941 38.1642 47.8497 38.2044C47.9054 38.2454 47.9686 38.2821 48.04 38.3161C48.1114 38.3501 48.1836 38.3841 48.2571 38.4188C48.3305 38.4535 48.4034 38.4909 48.4741 38.5325C48.5455 38.5742 48.6087 38.6227 48.6644 38.6789C48.72 38.7351 48.7647 38.8017 48.799 38.878C48.8334 38.9543 48.8505 39.0452 48.8505 39.1492L48.8485 39.1506Z" fill="#B39382"/>
<path d="M52.7156 39.1909C52.7156 39.1167 52.7259 39.0459 52.7458 38.9786C52.7657 38.9114 52.7973 38.8469 52.8406 38.7837C52.8832 38.7206 52.9395 38.6596 53.0089 38.6006C53.0783 38.5416 53.1614 38.4827 53.2596 38.423C53.206 38.3502 53.16 38.2836 53.1215 38.2239C53.0831 38.1643 53.0515 38.1088 53.0267 38.0575C53.002 38.0061 52.9842 37.9569 52.9732 37.9104C52.9622 37.8639 52.9574 37.8168 52.9574 37.7689C52.9574 37.685 52.9718 37.6045 53 37.5282C53.0281 37.4519 53.0734 37.3839 53.136 37.325C53.1985 37.266 53.2788 37.2195 53.3764 37.1848C53.4746 37.1502 53.5927 37.1328 53.7329 37.1328C53.851 37.1328 53.9534 37.146 54.0399 37.1717C54.1265 37.1973 54.1979 37.2341 54.2549 37.2813C54.3119 37.3284 54.3545 37.386 54.384 37.4533C54.4129 37.5206 54.4273 37.5955 54.4273 37.678C54.4273 37.7606 54.4143 37.8313 54.3888 37.8972C54.3634 37.9638 54.3222 38.0276 54.2659 38.0901C54.2096 38.1525 54.1374 38.2142 54.0495 38.276C53.9616 38.3377 53.8551 38.4022 53.7308 38.4702C53.7761 38.5257 53.8263 38.584 53.8799 38.6436C53.9334 38.704 53.9898 38.7643 54.0482 38.8253C54.1065 38.8864 54.1663 38.946 54.2274 39.005C54.2886 39.064 54.3483 39.1208 54.4074 39.175C54.4342 39.1382 54.4582 39.0966 54.4795 39.0501C54.5008 39.0036 54.52 38.9537 54.5358 38.9016C54.5516 38.8496 54.564 38.7962 54.5723 38.7421C54.5805 38.688 54.5846 38.6332 54.5846 38.5777V38.5049C54.5846 38.491 54.5867 38.4799 54.5915 38.4716C54.5963 38.4626 54.6039 38.4556 54.6148 38.4494C54.6258 38.4431 54.6416 38.439 54.6622 38.4362C54.6828 38.4334 54.7103 38.432 54.744 38.432C54.7735 38.432 54.7989 38.432 54.8195 38.4341C54.8401 38.4355 54.8573 38.4383 54.8711 38.4431C54.8841 38.448 54.8944 38.4556 54.8999 38.4653C54.9054 38.475 54.9088 38.4896 54.9088 38.507V38.5576C54.9088 38.6332 54.9026 38.7081 54.8896 38.781C54.8765 38.8538 54.8594 38.9252 54.8374 38.9953C54.8154 39.0654 54.7879 39.1319 54.755 39.1958C54.722 39.2596 54.6856 39.3185 54.6451 39.3726C54.7055 39.4212 54.7584 39.4621 54.803 39.4947C54.8477 39.5273 54.8862 39.5537 54.9178 39.5738C54.9494 39.5939 54.9755 39.6085 54.9961 39.6168C55.0167 39.6251 55.0338 39.6293 55.0476 39.6293C55.0613 39.6293 55.0737 39.6293 55.086 39.6272C55.0984 39.6251 55.108 39.6272 55.1149 39.6335C55.1225 39.639 55.1279 39.6494 55.1321 39.6661C55.1362 39.6827 55.1383 39.7077 55.1383 39.741C55.1383 39.7743 55.1376 39.802 55.1362 39.8221C55.1348 39.8423 55.1328 39.8575 55.1293 39.8679C55.1259 39.8783 55.1204 39.8867 55.1122 39.8936C55.1039 39.9005 55.0895 39.9068 55.0682 39.9116C55.0469 39.9172 55.0187 39.9199 54.9837 39.9199C54.9569 39.9199 54.9274 39.9151 54.8951 39.9054C54.8628 39.8957 54.825 39.879 54.7824 39.8554C54.7392 39.8318 54.6897 39.7992 54.6327 39.759C54.5757 39.7181 54.5091 39.6668 54.4321 39.6043C54.3758 39.6501 54.3167 39.6931 54.2542 39.7327C54.1917 39.7722 54.1251 39.8055 54.055 39.8332C53.985 39.861 53.9108 39.8825 53.8338 39.8984C53.7569 39.9137 53.6731 39.922 53.5831 39.922C53.4986 39.922 53.4183 39.9144 53.3427 39.8998C53.2672 39.8853 53.1971 39.8638 53.1325 39.836C53.068 39.8083 53.0103 39.7736 52.9594 39.7313C52.9086 39.689 52.8653 39.6418 52.8296 39.5877C52.7939 39.5343 52.7664 39.4739 52.7472 39.408C52.7279 39.3414 52.7183 39.27 52.7183 39.1923L52.7156 39.1909ZM53.0762 39.1562C53.0762 39.227 53.0879 39.2908 53.1112 39.3491C53.1346 39.4073 53.1689 39.458 53.2149 39.5003C53.2603 39.5433 53.3173 39.5759 53.386 39.6002C53.4547 39.6244 53.5337 39.6355 53.6236 39.6355C53.6786 39.6355 53.7322 39.63 53.7844 39.6182C53.8366 39.6064 53.8867 39.5911 53.9341 39.5717C53.9815 39.5523 54.0269 39.5287 54.0701 39.5003C54.1127 39.4725 54.1526 39.4427 54.189 39.4122C54.1189 39.3511 54.0495 39.288 53.9808 39.2221C53.9115 39.1562 53.8448 39.0903 53.7803 39.0237C53.7157 38.9571 53.6539 38.8912 53.5941 38.8253C53.5344 38.7594 53.4794 38.6956 53.4299 38.6332C53.3626 38.6762 53.307 38.7199 53.2617 38.7622C53.217 38.8052 53.1806 38.8475 53.1531 38.8906C53.1257 38.9336 53.1057 38.9766 53.0941 39.0196C53.0824 39.0626 53.0762 39.1084 53.0762 39.1555V39.1562ZM53.3097 37.7418C53.3097 37.7786 53.3145 37.8154 53.3249 37.8535C53.3352 37.8917 53.3503 37.9312 53.3709 37.9721C53.3915 38.0138 53.4169 38.0582 53.4471 38.1053C53.4773 38.1525 53.5131 38.2059 53.555 38.2642C53.6532 38.2087 53.7349 38.1574 53.8016 38.1109C53.8682 38.0644 53.9211 38.0193 53.9616 37.9756C54.0021 37.9319 54.031 37.8889 54.0488 37.8452C54.0667 37.8015 54.0763 37.7557 54.0763 37.7072C54.0763 37.6676 54.0694 37.6302 54.055 37.5941C54.0406 37.558 54.0186 37.5261 53.9877 37.4984C53.9568 37.4706 53.9176 37.4484 53.8709 37.4325C53.8242 37.4165 53.7679 37.4082 53.702 37.4082C53.6305 37.4082 53.5708 37.4172 53.522 37.4359C53.4732 37.454 53.4327 37.4789 53.4011 37.5088C53.3695 37.5393 53.3461 37.5747 53.3317 37.6156C53.3166 37.6565 53.3097 37.6981 53.3097 37.7418Z" fill="#B39382"/>
<path d="M60.7215 39.1725C60.7215 39.2551 60.7112 39.3314 60.6906 39.4014C60.67 39.4715 60.6404 39.5339 60.6033 39.5894C60.5656 39.6449 60.5202 39.6935 60.4673 39.7358C60.4144 39.7781 60.3547 39.8128 60.288 39.8412C60.2214 39.8697 60.1507 39.8912 60.0744 39.905C59.9989 39.9196 59.9116 39.9265 59.8141 39.9265H59.1341C59.1032 39.9265 59.0736 39.9161 59.0468 39.8953C59.0194 39.8745 59.0056 39.8378 59.0056 39.7843V37.4391C59.0056 37.3864 59.0194 37.3496 59.0468 37.3281C59.0743 37.3073 59.1032 37.2969 59.1341 37.2969H59.7255C59.8814 37.2969 60.0085 37.3114 60.1081 37.3413C60.2077 37.3711 60.2901 37.4141 60.3567 37.4717C60.4234 37.5293 60.4728 37.5986 60.5065 37.6812C60.5401 37.7637 60.5566 37.8574 60.5566 37.9614C60.5566 38.0238 60.5491 38.0835 60.5346 38.1404C60.5195 38.1972 60.4982 38.25 60.4694 38.2978C60.4405 38.3457 60.4041 38.3887 60.3609 38.4268C60.3176 38.465 60.2674 38.4962 60.2111 38.5205C60.2826 38.5344 60.3485 38.5586 60.4103 38.5947C60.4721 38.6308 60.5257 38.6766 60.5724 38.7321C60.6191 38.7876 60.6555 38.8528 60.6823 38.927C60.7091 39.0012 60.7229 39.0837 60.7229 39.1725H60.7215ZM60.2001 37.9961C60.2001 37.9323 60.1912 37.8747 60.174 37.8234C60.1569 37.772 60.1294 37.7283 60.0916 37.6923C60.0538 37.6562 60.005 37.6291 59.9453 37.6097C59.8848 37.591 59.8052 37.5813 59.7062 37.5813H59.3491V38.4331H59.7427C59.8326 38.4331 59.9048 38.4213 59.9597 38.3977C60.0147 38.3741 60.06 38.3422 60.0964 38.302C60.1328 38.2618 60.1589 38.2153 60.1754 38.1619C60.1919 38.1085 60.2008 38.053 60.2008 37.9961H60.2001ZM60.3567 39.1933C60.3567 39.115 60.3444 39.0456 60.3196 38.9859C60.2949 38.9263 60.2585 38.8763 60.2111 38.8354C60.1637 38.7945 60.104 38.764 60.0325 38.7432C59.9611 38.7224 59.8711 38.7119 59.7626 38.7119H59.3491V39.6387H59.8512C59.9302 39.6387 59.9989 39.629 60.0579 39.6102C60.117 39.5915 60.1685 39.5631 60.2139 39.5256C60.2585 39.4882 60.2935 39.4417 60.3196 39.3862C60.3451 39.3307 60.3581 39.2662 60.3581 39.1933H60.3567Z" fill="#B39382"/>
<path d="M64.9348 39.8551C64.9348 39.8662 64.932 39.8752 64.9265 39.8835C64.921 39.8918 64.9121 39.8981 64.8984 39.9029C64.8846 39.9078 64.8675 39.9119 64.8448 39.9154C64.8221 39.9189 64.7946 39.9203 64.761 39.9203C64.7273 39.9203 64.7012 39.9189 64.6786 39.9154C64.6559 39.9119 64.6373 39.9078 64.6243 39.9029C64.6112 39.8981 64.6016 39.8918 64.5961 39.8835C64.5906 39.8752 64.5879 39.8662 64.5879 39.8551V37.3308C64.5879 37.3197 64.5906 37.3107 64.5968 37.3024C64.603 37.2941 64.6126 37.2878 64.627 37.283C64.6415 37.2781 64.6593 37.2739 64.6813 37.2705C64.7033 37.267 64.7301 37.2656 64.761 37.2656C64.7946 37.2656 64.8221 37.267 64.8448 37.2705C64.8675 37.2739 64.8846 37.2781 64.8984 37.283C64.9121 37.2878 64.921 37.2941 64.9265 37.3024C64.932 37.3107 64.9348 37.3197 64.9348 37.3308V39.8551Z" fill="#B39382"/>
<path d="M70.5393 39.8596C70.5393 39.8707 70.5373 39.8797 70.5331 39.888C70.529 39.8964 70.5201 39.9026 70.507 39.9081C70.494 39.9137 70.4747 39.9179 70.4507 39.9206C70.4267 39.9234 70.3944 39.9248 70.3539 39.9248C70.3188 39.9248 70.2907 39.9234 70.268 39.9206C70.2453 39.9179 70.2281 39.9137 70.2144 39.9075C70.2007 39.9012 70.1904 39.8929 70.1835 39.8818C70.1766 39.8707 70.1698 39.8575 70.1643 39.8409L69.9245 39.2207C69.8964 39.15 69.8675 39.0855 69.8373 39.0265C69.8071 38.9675 69.7714 38.9169 69.7295 38.8739C69.6876 38.8309 69.6388 38.7983 69.5825 38.774C69.5261 38.7497 69.4581 38.7386 69.3791 38.7386H69.1477V39.8582C69.1477 39.8693 69.1449 39.8783 69.1387 39.8866C69.1326 39.895 69.1236 39.9012 69.1106 39.9061C69.0975 39.9109 69.0803 39.9151 69.0584 39.9186C69.0364 39.922 69.0082 39.9234 68.9746 39.9234C68.9409 39.9234 68.9134 39.922 68.8908 39.9186C68.8681 39.9151 68.8509 39.9109 68.8372 39.9061C68.8235 39.9012 68.8145 39.895 68.809 39.8866C68.8035 39.8783 68.8008 39.8693 68.8008 39.8582V37.4235C68.8008 37.3707 68.8145 37.334 68.842 37.3125C68.8695 37.291 68.899 37.2812 68.9292 37.2812H69.4829C69.5488 37.2812 69.6031 37.2826 69.647 37.2861C69.691 37.2896 69.7302 37.293 69.7645 37.2972C69.8648 37.3145 69.9541 37.3423 70.031 37.3804C70.1079 37.4186 70.1732 37.4665 70.2254 37.5247C70.2776 37.583 70.3168 37.6496 70.3429 37.7252C70.369 37.8008 70.382 37.8833 70.382 37.9742C70.382 38.0651 70.3703 38.1414 70.347 38.2108C70.3236 38.2801 70.29 38.3419 70.2453 38.396C70.2007 38.4501 70.1478 38.4959 70.0866 38.5354C70.0255 38.5749 69.9561 38.6075 69.8792 38.6353C69.9218 38.654 69.9609 38.6783 69.996 38.7074C70.031 38.7366 70.0633 38.7712 70.0935 38.8122C70.1237 38.8531 70.1519 38.8996 70.1794 38.9523C70.2069 39.005 70.233 39.0647 70.2597 39.1312L70.4933 39.7105C70.5118 39.759 70.5242 39.7937 70.5297 39.8131C70.5352 39.8325 70.5379 39.8478 70.5379 39.8589L70.5393 39.8596ZM70.018 38.0124C70.018 37.9097 69.9953 37.8223 69.9493 37.7516C69.9032 37.6808 69.827 37.6295 69.7198 37.5983C69.6862 37.5885 69.6484 37.5823 69.6058 37.5781C69.5632 37.574 69.5083 37.5719 69.4396 37.5719H69.1477V38.4577H69.4856C69.577 38.4577 69.656 38.4466 69.7219 38.4244C69.7879 38.4022 69.8435 38.371 69.8881 38.3308C69.9328 38.2905 69.9651 38.2441 69.9857 38.1893C70.0063 38.1345 70.0166 38.0762 70.0166 38.0124H70.018Z" fill="#B39382"/>
<path d="M75.5178 38.8867V39.8558C75.5178 39.8669 75.515 39.8759 75.5095 39.8842C75.504 39.8925 75.4951 39.8988 75.4814 39.9036C75.4676 39.9085 75.4498 39.9126 75.4271 39.9161C75.4044 39.9196 75.3769 39.921 75.3453 39.921C75.3138 39.921 75.2842 39.9196 75.2622 39.9161C75.2403 39.9126 75.2224 39.9085 75.208 39.9036C75.1942 39.8988 75.1846 39.8925 75.1791 39.8842C75.1736 39.8759 75.1709 39.8669 75.1709 39.8558V38.8867L74.4345 37.403C74.4201 37.3718 74.4105 37.3475 74.407 37.3301C74.4036 37.3128 74.4071 37.2989 74.4174 37.2892C74.4277 37.2795 74.4455 37.2739 74.4716 37.2712C74.4977 37.2684 74.5328 37.267 74.5774 37.267C74.6179 37.267 74.6502 37.2684 74.6749 37.2712C74.6997 37.2739 74.7196 37.2774 74.734 37.2823C74.7484 37.2871 74.7601 37.2941 74.767 37.3024C74.7739 37.3107 74.7814 37.3225 74.7883 37.3357L75.1482 38.0918C75.1819 38.1639 75.2148 38.2388 75.2485 38.3172C75.2822 38.3956 75.3158 38.4754 75.3508 38.5551H75.355C75.3859 38.4781 75.4175 38.4011 75.4498 38.3242C75.4827 38.2478 75.5157 38.1722 75.5487 38.0973L75.9107 37.3371C75.9148 37.3232 75.9203 37.3121 75.9278 37.3024C75.9354 37.2927 75.945 37.2857 75.9581 37.2809C75.9711 37.276 75.9883 37.2726 76.0116 37.2698C76.035 37.267 76.0632 37.2656 76.0982 37.2656C76.1463 37.2656 76.184 37.267 76.2122 37.2705C76.2404 37.2739 76.2589 37.2802 76.2692 37.2899C76.2795 37.2996 76.2836 37.3128 76.2802 37.3308C76.2768 37.3489 76.2678 37.3724 76.2527 37.4023L75.5164 38.886L75.5178 38.8867Z" fill="#B39382"/>
<path d="M82.3758 39.7836C82.3868 39.8134 82.3923 39.8377 82.393 39.8558C82.3936 39.8738 82.3888 39.8877 82.3778 39.8974C82.3668 39.9071 82.349 39.9126 82.3243 39.9154C82.2995 39.9182 82.2666 39.9196 82.2247 39.9196C82.1828 39.9196 82.1498 39.9189 82.1251 39.9168C82.1003 39.9147 82.0818 39.9113 82.0687 39.9064C82.0557 39.9015 82.0468 39.8953 82.0406 39.887C82.0344 39.8786 82.0289 39.8689 82.0234 39.8565L81.8002 39.2162H80.7176L80.504 39.8481C80.4999 39.8606 80.4944 39.871 80.4882 39.8793C80.482 39.8877 80.4717 39.8953 80.4593 39.9015C80.447 39.9078 80.4284 39.9119 80.4051 39.9147C80.3817 39.9175 80.3508 39.9189 80.3137 39.9189C80.2766 39.9189 80.243 39.9175 80.2182 39.914C80.1935 39.9106 80.1757 39.9043 80.166 39.8946C80.1564 39.8849 80.1516 39.871 80.1516 39.853C80.1516 39.8349 80.1578 39.8107 80.1688 39.7808L81.0418 37.3385C81.0473 37.3239 81.0542 37.3114 81.0631 37.3017C81.0721 37.292 81.0844 37.285 81.1016 37.2795C81.1188 37.2739 81.1401 37.2705 81.1662 37.2684C81.1923 37.2663 81.2252 37.2656 81.2658 37.2656C81.3083 37.2656 81.3441 37.2663 81.3722 37.2684C81.4004 37.2705 81.4231 37.2739 81.4409 37.2795C81.4588 37.285 81.4718 37.2927 81.4814 37.3031C81.4911 37.3135 81.4979 37.326 81.5034 37.3405L82.3765 39.7829L82.3758 39.7836ZM81.2548 37.6277H81.2527L80.8042 38.9387H81.7095L81.2548 37.6277Z" fill="#B39382"/>
<path d="M88.2287 39.7651C88.2287 39.7921 88.2239 39.815 88.215 39.8344C88.2061 39.8539 88.1944 39.8691 88.18 39.8809C88.1655 39.8927 88.1491 39.9017 88.1312 39.9073C88.1133 39.9128 88.0948 39.9156 88.0769 39.9156H87.9622C87.9258 39.9156 87.8942 39.9121 87.8674 39.9045C87.8406 39.8969 87.8145 39.8837 87.7905 39.8636C87.7665 39.8435 87.7417 39.8171 87.7177 39.7831C87.6936 39.7491 87.6675 39.7061 87.6408 39.6527L86.846 38.1572C86.8048 38.0802 86.7629 37.999 86.7203 37.9144C86.6777 37.8298 86.6386 37.7472 86.6029 37.6674H86.5987C86.6015 37.7652 86.6035 37.8644 86.6049 37.9664C86.6063 38.0684 86.607 38.169 86.607 38.2695V39.8566C86.607 39.8663 86.6042 39.8754 86.5987 39.8844C86.5932 39.8934 86.5836 39.8996 86.5699 39.9045C86.5562 39.9094 86.539 39.9135 86.517 39.917C86.495 39.9204 86.4669 39.9218 86.4332 39.9218C86.3995 39.9218 86.3714 39.9204 86.3494 39.917C86.3274 39.9135 86.3102 39.9094 86.2972 39.9045C86.2841 39.8996 86.2752 39.8927 86.2697 39.8844C86.2642 39.8754 86.2615 39.8663 86.2615 39.8566V37.4302C86.2615 37.3761 86.2766 37.3373 86.3075 37.3144C86.3384 37.2915 86.3714 37.2797 86.4071 37.2797H86.5774C86.6173 37.2797 86.6509 37.2831 86.6784 37.2901C86.7059 37.297 86.7299 37.3081 86.7512 37.3234C86.7725 37.3386 86.7931 37.3608 86.8137 37.3886C86.8337 37.4163 86.8549 37.451 86.8769 37.4933L87.4876 38.6476C87.5254 38.7183 87.5618 38.787 87.5968 38.8536C87.6318 38.9202 87.6655 38.9868 87.6978 39.052C87.7301 39.1172 87.7623 39.181 87.7939 39.2441C87.8255 39.3073 87.8571 39.3704 87.888 39.4342H87.8901C87.8874 39.3274 87.886 39.2157 87.8853 39.0998C87.8846 38.984 87.8846 38.8723 87.8846 38.7655V37.3386C87.8846 37.3289 87.8874 37.3206 87.8928 37.3123C87.8983 37.304 87.908 37.297 87.9217 37.2908C87.9354 37.2845 87.9526 37.2804 87.9746 37.2776C87.9966 37.2748 88.0254 37.2734 88.0605 37.2734C88.0914 37.2734 88.1188 37.2748 88.1408 37.2776C88.1635 37.2804 88.1813 37.2845 88.1937 37.2908C88.2061 37.297 88.2157 37.304 88.2212 37.3123C88.2267 37.3206 88.2294 37.3289 88.2294 37.3386V39.7651H88.2287Z" fill="#B39382"/>
<path d="M92.4421 39.8551C92.4421 39.8662 92.4393 39.8752 92.4338 39.8835C92.4284 39.8918 92.4194 39.8981 92.4057 39.9029C92.3919 39.9078 92.3748 39.9119 92.3521 39.9154C92.3294 39.9189 92.302 39.9203 92.2683 39.9203C92.2346 39.9203 92.2085 39.9189 92.1859 39.9154C92.1632 39.9119 92.1447 39.9078 92.1316 39.9029C92.1186 39.8981 92.109 39.8918 92.1035 39.8835C92.098 39.8752 92.0952 39.8662 92.0952 39.8551V37.3308C92.0952 37.3197 92.098 37.3107 92.1041 37.3024C92.1103 37.2941 92.1199 37.2878 92.1344 37.283C92.1488 37.2781 92.1667 37.2739 92.1886 37.2705C92.2106 37.267 92.2374 37.2656 92.2683 37.2656C92.302 37.2656 92.3294 37.267 92.3521 37.2705C92.3748 37.2739 92.3919 37.2781 92.4057 37.283C92.4194 37.2878 92.4284 37.2941 92.4338 37.3024C92.4393 37.3107 92.4421 37.3197 92.4421 37.3308V39.8551Z" fill="#B39382"/>
<path d="M97.9119 39.1506C97.9119 39.2741 97.8893 39.3837 97.8446 39.4801C97.8 39.5765 97.7375 39.6577 97.6578 39.725C97.5781 39.7922 97.484 39.8422 97.3762 39.8762C97.2683 39.9102 97.1515 39.9268 97.0272 39.9268C96.94 39.9268 96.8589 39.9192 96.7847 39.9046C96.7106 39.89 96.6439 39.8713 96.5855 39.8498C96.5272 39.8283 96.4784 39.8061 96.4386 39.7825C96.3987 39.7589 96.3712 39.7395 96.3561 39.7236C96.341 39.7076 96.3293 39.6868 96.3218 39.6618C96.3142 39.6369 96.3108 39.6036 96.3108 39.5612C96.3108 39.5314 96.3122 39.5064 96.3149 39.487C96.3177 39.4676 96.3218 39.4516 96.3273 39.4392C96.3328 39.4267 96.3396 39.4184 96.3472 39.4135C96.3547 39.4086 96.3644 39.4066 96.3754 39.4066C96.3939 39.4066 96.4207 39.4184 96.455 39.4412C96.4894 39.4641 96.5333 39.4891 96.5869 39.5162C96.6405 39.5432 96.7051 39.5689 96.7813 39.5925C96.8576 39.616 96.9448 39.6278 97.0437 39.6278C97.1186 39.6278 97.1873 39.6174 97.2498 39.5973C97.3123 39.5772 97.3659 39.5481 97.4105 39.5106C97.4552 39.4731 97.4902 39.4274 97.5142 39.3733C97.5383 39.3192 97.5506 39.2574 97.5506 39.1881C97.5506 39.1138 97.5341 39.05 97.5005 38.9973C97.4668 38.9446 97.4229 38.8981 97.3679 38.8579C97.313 38.8176 97.2505 38.7816 97.1797 38.7483C97.109 38.715 97.0368 38.681 96.9633 38.647C96.8898 38.613 96.8177 38.5742 96.7483 38.5319C96.679 38.4895 96.6165 38.4403 96.5615 38.3834C96.5065 38.3265 96.4619 38.2599 96.4276 38.1829C96.3932 38.1059 96.376 38.0144 96.376 37.9076C96.376 37.8007 96.396 37.7002 96.4351 37.6141C96.4743 37.5281 96.5299 37.456 96.6 37.3977C96.67 37.3394 96.7545 37.2951 96.8514 37.2645C96.9482 37.234 97.0533 37.2188 97.166 37.2188C97.2237 37.2188 97.2814 37.2236 97.3398 37.234C97.3981 37.2444 97.4531 37.2576 97.5046 37.2749C97.5561 37.2923 97.6022 37.311 97.6427 37.3318C97.6832 37.3526 97.7093 37.37 97.7224 37.3825C97.7354 37.3949 97.7436 37.4053 97.7478 37.413C97.7519 37.4206 97.7553 37.4296 97.7581 37.4414C97.7608 37.4532 97.7629 37.4671 97.7643 37.483C97.7656 37.499 97.7663 37.5205 97.7663 37.5462C97.7663 37.5704 97.7656 37.5919 97.7636 37.6114C97.7615 37.6308 97.7588 37.646 97.7546 37.6592C97.7505 37.6724 97.745 37.6814 97.7375 37.6877C97.7299 37.6939 97.7217 37.6967 97.712 37.6967C97.6976 37.6967 97.6743 37.687 97.6427 37.6682C97.6111 37.6495 97.5726 37.628 97.5273 37.6044C97.4819 37.5808 97.4277 37.5593 97.3652 37.5392C97.3027 37.5191 97.2326 37.5101 97.155 37.5101C97.0829 37.5101 97.0197 37.5198 96.9661 37.5392C96.9125 37.5586 96.8679 37.585 96.8335 37.6176C96.7992 37.6502 96.7724 37.6891 96.7552 37.7334C96.738 37.7778 96.7291 37.8257 96.7291 37.8756C96.7291 37.9485 96.7456 38.0116 96.7792 38.0643C96.8129 38.117 96.8576 38.1642 96.9132 38.2044C96.9688 38.2447 97.032 38.2821 97.1035 38.3161C97.1749 38.3501 97.247 38.3841 97.3205 38.4188C97.394 38.4535 97.4668 38.4909 97.5376 38.5325C97.6083 38.5742 97.6722 38.6227 97.7279 38.6789C97.7835 38.7351 97.8281 38.8017 97.8625 38.878C97.8968 38.9543 97.914 39.0452 97.914 39.1492L97.9119 39.1506Z" fill="#B39382"/>
<path d="M19.8092 26.2512C19.7721 26.2887 19.7522 26.3379 19.7522 26.3907V33.681C19.7522 33.7893 19.8394 33.8774 19.9473 33.878C20.0544 33.878 20.1417 33.7893 20.1417 33.681V26.3907C20.1417 26.3379 20.1217 26.2887 20.0847 26.2512C20.0105 26.1763 19.882 26.177 19.8092 26.2512Z" fill="#B39382"/>
<path d="M19.1422 26.2512C19.1058 26.2887 19.0852 26.3379 19.0852 26.3907V33.681C19.0852 33.7893 19.1724 33.8774 19.2803 33.878C19.3874 33.878 19.4754 33.7893 19.4754 33.681V26.3907C19.4754 26.3379 19.4554 26.2887 19.4183 26.2512C19.3449 26.177 19.2171 26.1763 19.1429 26.2512H19.1422Z" fill="#B39382"/>
<path d="M26.2194 30.0021C25.867 29.647 25.3999 29.4507 24.904 29.4507H24.7652V26.393C24.7652 26.3403 24.7446 26.291 24.7082 26.2543C24.6711 26.2168 24.6223 26.1967 24.5708 26.1967C24.5193 26.1967 24.4699 26.2175 24.4328 26.255C24.3957 26.2924 24.3757 26.3417 24.3757 26.3937V31.3305C24.3757 31.3381 24.3764 31.3464 24.3771 31.3506C24.3902 31.6385 24.6217 31.8639 24.904 31.8639C25.0448 31.8639 25.1774 31.8084 25.277 31.7078C25.3766 31.6073 25.4315 31.4734 25.4322 31.3305C25.4322 31.3256 25.4322 31.3201 25.4315 31.3097C25.4185 31.0218 25.187 30.7964 24.9047 30.7964H24.8463V30.5161H24.9047C25.3484 30.5161 25.7097 30.8817 25.7104 31.3298C25.709 31.7786 25.3477 32.1435 24.9047 32.1435C24.4616 32.1435 24.1058 31.7835 24.0996 31.3409V31.3291V26.3923C24.0996 26.3403 24.0797 26.2903 24.0426 26.2529C24.0055 26.2154 23.9567 26.1953 23.9052 26.1953C23.8537 26.1953 23.8043 26.2161 23.7678 26.2529C23.7308 26.2903 23.7101 26.3396 23.7101 26.3923V31.3291C23.7115 31.995 24.248 32.5368 24.9053 32.5368C25.2234 32.5368 25.5235 32.4105 25.7495 32.183C25.9755 31.9548 26.0999 31.6517 26.0999 31.3298C26.0985 30.6639 25.5627 30.1221 24.9047 30.1221H24.8463V29.8426H24.9047C25.7159 29.8426 26.3767 30.5099 26.3767 31.3291C26.3767 32.1483 25.7159 32.8156 24.9047 32.8163C24.0927 32.8163 23.4326 32.149 23.4326 31.3291V26.3923C23.4326 26.3403 23.4127 26.2903 23.3756 26.2536C23.3385 26.2161 23.2898 26.1953 23.2376 26.1953C23.1854 26.1953 23.1366 26.2161 23.0995 26.2536C23.0624 26.291 23.0425 26.3403 23.0425 26.393V29.45H20.8087V26.393C20.8087 26.3403 20.7881 26.2903 20.7517 26.2536C20.7153 26.2161 20.6658 26.196 20.6143 26.196C20.5628 26.196 20.5133 26.2168 20.4769 26.2536C20.4398 26.291 20.4199 26.3403 20.4199 26.393V33.6834C20.4199 33.7916 20.5078 33.8797 20.615 33.8797C20.7222 33.8797 20.8094 33.7909 20.8094 33.6827V31.189H23.0432V33.6827C23.0432 33.7909 23.1304 33.8797 23.2382 33.8797C23.3454 33.8797 23.4326 33.7909 23.4326 33.6827V32.4889L23.535 32.602C23.5831 32.654 23.6353 32.7046 23.6895 32.7525L23.7095 32.7698V33.6834C23.7095 33.7916 23.7967 33.8804 23.9045 33.8804C23.9561 33.8804 24.0041 33.8603 24.0426 33.8228C24.079 33.7854 24.0996 33.7361 24.0996 33.6834V33.0279L24.1814 33.0626C24.2308 33.0834 24.283 33.1028 24.3359 33.1201L24.3764 33.1333V33.6841C24.3771 33.7923 24.4644 33.8804 24.5715 33.8804C24.6787 33.8804 24.7659 33.7916 24.7659 33.6834V33.2062L24.8504 33.2089C24.8689 33.2089 24.8868 33.2103 24.9047 33.2103C25.4006 33.2103 25.8684 33.0147 26.2201 32.6589C26.5717 32.303 26.7661 31.8313 26.7661 31.3298C26.7661 30.8283 26.5724 30.3566 26.2201 30.0014L26.2194 30.0021ZM24.904 31.1911C24.9802 31.1911 25.042 31.2535 25.042 31.3305C25.042 31.4075 24.9795 31.4706 24.904 31.4706C24.8277 31.4706 24.7652 31.4075 24.7652 31.3305V31.1911H24.904ZM23.0418 30.7971H20.808V30.5168H23.0418V30.7971ZM23.0418 30.1235H20.808V29.844H23.0418V30.1235Z" fill="#B39382"/>
<path d="M43.1995 29.7261H46.3571C46.4663 29.7261 46.5556 29.6345 46.5556 29.5229C46.5556 29.4112 46.4663 29.3203 46.3571 29.3203H43.1988C43.194 29.3203 43.1899 29.3203 43.1885 29.321C42.8972 29.3266 42.6603 29.5735 42.6603 29.8704C42.6603 30.1673 42.8972 30.4135 43.1864 30.4198H44.6543C45.4813 30.4205 46.1566 31.1072 46.1593 31.9507C46.1566 32.7942 45.4813 33.4809 44.6502 33.4816H41.2102C41.1003 33.4816 41.0117 33.5725 41.0117 33.6841C41.0117 33.7958 41.101 33.8867 41.2102 33.8867H44.6639C45.6991 33.8804 46.5467 33.0196 46.5556 31.9632V31.9611V31.9514V31.95V31.9389C46.5467 30.8783 45.6943 30.0167 44.6536 30.0167H43.1995C43.1212 30.0167 43.0573 29.9509 43.0573 29.8711C43.0573 29.7913 43.1212 29.7261 43.1995 29.7261Z" fill="#B39382"/>
<path d="M46.3571 28.625H43.0559C42.3834 28.625 41.8359 29.1841 41.8359 29.8701C41.8359 30.5562 42.3834 31.1152 43.0559 31.1152H44.5128C44.9634 31.1166 45.3316 31.4912 45.3336 31.9504C45.3316 32.411 44.962 32.7863 44.51 32.7863H41.2095C41.0996 32.7863 41.011 32.8771 41.011 32.9888C41.011 33.1005 41.1003 33.1914 41.2095 33.1914H44.5107C45.1749 33.1914 45.7217 32.6406 45.7299 31.9629V31.9601V31.9386C45.721 31.2609 45.1743 30.7101 44.51 30.7101H43.0559C42.6018 30.7101 42.2323 30.3335 42.2323 29.8701C42.2323 29.4068 42.6018 29.0301 43.0559 29.0301H46.3564C46.4656 29.0301 46.5549 28.9392 46.5549 28.8275C46.5549 28.7159 46.4656 28.625 46.3564 28.625H46.3571Z" fill="#B39382"/>
<path d="M44.3681 32.0903H41.2105C41.1006 32.0903 41.012 32.1818 41.012 32.2935C41.012 32.4052 41.1013 32.4961 41.2105 32.4961H44.3681C44.3729 32.4961 44.3771 32.4961 44.3791 32.4954C44.6642 32.4898 44.8957 32.2574 44.906 31.9723C44.9067 31.9668 44.9073 31.9612 44.9073 31.955C44.9073 31.9536 44.9073 31.9522 44.9073 31.9508V31.946C44.9073 31.9411 44.9073 31.9363 44.906 31.9307C44.8929 31.6366 44.658 31.4063 44.3681 31.4056H42.914C42.0842 31.4056 41.409 30.7161 41.409 29.8706C41.409 29.025 42.0842 28.3355 42.914 28.3355H46.3581C46.4673 28.3355 46.5566 28.2439 46.5566 28.1322C46.5566 28.0206 46.4673 27.9297 46.3581 27.9297H42.9037C41.8603 27.9359 41.012 28.8051 41.012 29.8699C41.012 30.9346 41.8623 31.8059 42.903 31.8093H44.3688C44.4451 31.81 44.5089 31.8738 44.511 31.9495C44.5089 32.0278 44.4457 32.091 44.3688 32.091L44.3681 32.0903Z" fill="#B39382"/>
<path d="M47.9425 30.9027V30.9325C47.9486 31.1788 47.9947 31.425 48.0798 31.672C48.2564 32.1714 48.5668 32.5849 49.0119 32.9109C49.4571 33.2376 49.9379 33.4006 50.4544 33.4006H53.3696V33.8862H50.4544C49.6693 33.8862 48.9742 33.5907 48.369 32.999C47.7639 32.408 47.4609 31.7157 47.4609 30.9228C47.4609 30.13 47.7522 29.4412 48.3347 28.8363C48.9172 28.2314 49.6006 27.9297 50.3857 27.9297C51.1709 27.9297 51.866 28.2169 52.4711 28.7919C53.0763 29.367 53.3723 30.0509 53.3593 30.8438V30.9034H52.8689C52.8888 30.2361 52.6463 29.6548 52.1428 29.1589C51.6386 28.6636 51.0534 28.4153 50.3857 28.4153C49.7181 28.4153 49.1603 28.6664 48.6733 29.1679C48.1856 29.6694 47.9425 30.2479 47.9425 30.9034V30.9027ZM48.8059 30.9124C48.8059 31.355 48.9707 31.7351 49.3018 32.0521C49.6322 32.3691 50.0169 32.528 50.4551 32.528H53.3703V33.0135H50.4551C49.8925 33.0135 49.3966 32.8054 48.968 32.3892C48.5394 31.973 48.3251 31.4805 48.3251 30.9124C48.3251 30.3443 48.5311 29.8671 48.9433 29.4405C49.3554 29.0146 49.8362 28.8009 50.3857 28.8009C50.9353 28.8009 51.4422 29.0042 51.8674 29.4107C52.2926 29.8171 52.5021 30.2978 52.4952 30.8528V30.902H52.0144C52.0405 30.4796 51.8832 30.1043 51.5431 29.7769C51.2031 29.4495 50.8199 29.2865 50.3947 29.2865C49.9695 29.2865 49.5979 29.4502 49.2805 29.7769C48.9632 30.1043 48.8045 30.4824 48.8045 30.9117L48.8059 30.9124ZM49.6693 30.9027C49.6693 31.1205 49.7462 31.3009 49.9001 31.4431C50.054 31.5853 50.2387 31.656 50.4544 31.656H53.3696V32.1416H50.4544C50.1144 32.1416 49.8184 32.0209 49.5663 31.7795C49.3142 31.5381 49.1885 31.2461 49.1885 30.9027C49.1885 30.5788 49.3094 30.293 49.5518 30.0454C49.7936 29.7977 50.0753 29.6736 50.396 29.6736C50.7168 29.6736 51.0129 29.7922 51.2643 30.0301C51.5164 30.268 51.6386 30.549 51.6324 30.8729V30.9027H51.1516C51.1578 30.7043 51.0843 30.5309 50.9311 30.3825C50.7773 30.234 50.6021 30.1598 50.4063 30.1598C50.2106 30.1598 50.0382 30.234 49.8912 30.3825C49.7442 30.5309 49.6707 30.7043 49.6707 30.9027H49.6693Z" fill="#B39382"/>
<path d="M39.6517 27.9297H40.1057V30.8576C40.1057 31.6692 39.8275 32.3768 39.2712 32.9809C38.7148 33.5844 38.0657 33.8862 37.3238 33.8862C36.582 33.8862 35.9239 33.5844 35.3675 32.9809C34.8112 32.3774 34.533 31.6692 34.533 30.8576V27.9297H34.9877V30.8632C34.9877 31.5423 35.2212 32.1333 35.6876 32.6376C36.154 33.1419 36.7001 33.3937 37.3245 33.3937C37.9489 33.3937 38.4853 33.1419 38.9517 32.6376C39.4182 32.1333 39.6517 31.5423 39.6517 30.8632V27.9297ZM37.3238 33.001C36.7922 33.001 36.3299 32.7881 35.9377 32.3622C35.5448 31.9363 35.349 31.4348 35.349 30.8576V27.9297H35.8037V30.8576C35.8037 31.3002 35.9548 31.6859 36.2577 32.0147C36.5607 32.3435 36.9158 32.5079 37.3238 32.5079C37.7318 32.5079 38.078 32.3435 38.3809 32.0147C38.6839 31.6859 38.8357 31.3002 38.8357 30.8576V27.9297H39.2897V30.8576C39.2897 31.4348 39.0932 31.9363 38.701 32.3622C38.3081 32.7881 37.8493 33.001 37.3238 33.001ZM37.3238 32.1159C37.0147 32.1159 36.7441 31.9904 36.5126 31.7386C36.2811 31.4868 36.165 31.1934 36.165 30.8583V27.9304H36.6197V30.8583C36.6197 31.0595 36.6898 31.2371 36.8299 31.3918C36.9701 31.5464 37.1363 31.6234 37.3293 31.6234C37.5223 31.6234 37.6796 31.5464 37.8191 31.3918C37.9592 31.2378 38.0293 31.0595 38.0293 30.8583V27.9304H38.4833V30.8583C38.4833 31.1941 38.3672 31.4875 38.1357 31.7386C37.9042 31.9897 37.6336 32.1159 37.3245 32.1159H37.3238Z" fill="#B39382"/>
<path d="M86.9759 27.9297H87.43V30.8556C87.43 31.6664 87.1518 32.374 86.5954 32.9775C86.039 33.5809 85.3899 33.8827 84.648 33.8827C83.9062 33.8827 83.2481 33.5809 82.6918 32.9775C82.1354 32.374 81.8572 31.6671 81.8572 30.8556V27.9297H82.3119V30.8611C82.3119 31.5395 82.5454 32.1305 83.0119 32.6341C83.4783 33.1377 84.0243 33.3895 84.6487 33.3895C85.2731 33.3895 85.8096 33.1377 86.276 32.6341C86.7424 32.1305 86.9759 31.5395 86.9759 30.8611V27.9297ZM84.648 32.9976C84.1164 32.9976 83.6541 32.7846 83.2619 32.3594C82.869 31.9335 82.6732 31.4327 82.6732 30.8562V27.9304H83.1279V30.8562C83.1279 31.2988 83.279 31.6845 83.582 32.0126C83.8849 32.3414 84.24 32.5051 84.648 32.5051C85.056 32.5051 85.4022 32.3407 85.7052 32.0126C86.0081 31.6845 86.1599 31.2988 86.1599 30.8562V27.9304H86.6139V30.8562C86.6139 31.4327 86.4175 31.9342 86.0253 32.3594C85.6324 32.7853 85.1735 32.9976 84.648 32.9976ZM84.648 32.1125C84.3389 32.1125 84.0683 31.9869 83.8368 31.7351C83.6053 31.4833 83.4892 31.1906 83.4892 30.8556V27.9297H83.944V30.8556C83.944 31.0567 84.014 31.2343 84.1541 31.3883C84.2943 31.5423 84.4605 31.6193 84.6535 31.6193C84.8465 31.6193 85.0038 31.5423 85.1433 31.3883C85.2834 31.2343 85.3535 31.0567 85.3535 30.8556V27.9297H85.8075V30.8556C85.8075 31.1906 85.6914 31.484 85.4599 31.7351C85.2285 31.9862 84.9578 32.1125 84.6487 32.1125H84.648Z" fill="#B39382"/>
<path d="M33.6276 30.9124C33.6276 31.7199 33.3302 32.417 32.7354 33.0045C32.1405 33.592 31.4433 33.8855 30.6445 33.8855C29.8456 33.8855 29.1498 33.592 28.5584 33.0045C27.9669 32.417 27.6709 31.7199 27.6709 30.9124C27.6709 30.105 27.9663 29.4058 28.5584 28.8155C29.1498 28.2245 29.8449 27.9297 30.6445 27.9297C31.444 27.9297 32.1412 28.2252 32.7354 28.8155C33.3302 29.4065 33.6276 30.105 33.6276 30.9124ZM30.6493 33.4034C31.3135 33.4034 31.896 33.155 32.3974 32.6584C32.8989 32.1617 33.1496 31.5783 33.1496 30.9076C33.1496 30.2368 32.8989 29.6534 32.3974 29.1568C31.896 28.6601 31.3128 28.4118 30.6493 28.4118C29.9857 28.4118 29.4019 28.6601 28.9004 29.1568C28.399 29.6534 28.1483 30.2368 28.1483 30.9076C28.1483 31.5783 28.399 32.1624 28.9004 32.6584C29.4019 33.155 29.985 33.4034 30.6493 33.4034ZM32.7697 30.9124C32.7697 31.4833 32.5568 31.9793 32.1309 32.3989C31.705 32.8193 31.2098 33.0288 30.6445 33.0288C30.0791 33.0288 29.5853 32.8186 29.1628 32.3989C28.7404 31.9793 28.5288 31.4833 28.5288 30.9124C28.5288 30.3415 28.7397 29.8456 29.1628 29.4259C29.5853 29.0063 30.0791 28.7961 30.6445 28.7961C31.2098 28.7961 31.7057 29.0063 32.1309 29.4259C32.5568 29.8463 32.7697 30.3415 32.7697 30.9124ZM30.6493 32.5467C31.0861 32.5467 31.4687 32.383 31.7984 32.0563C32.1275 31.7296 32.2923 31.3481 32.2923 30.9124C32.2923 30.4768 32.1275 30.0953 31.7984 29.7686C31.4694 29.4419 31.0861 29.2782 30.6493 29.2782C30.2124 29.2782 29.8374 29.4419 29.5049 29.7686C29.1724 30.0953 29.0062 30.4768 29.0062 30.9124C29.0062 31.3481 29.1724 31.7296 29.5049 32.0563C29.8374 32.383 30.2186 32.5467 30.6493 32.5467ZM31.9118 30.9124V30.9423C31.8987 31.2704 31.7668 31.5562 31.5168 31.7989C31.2668 32.0417 30.9755 32.1631 30.6445 32.1631C30.3134 32.1631 30.0304 32.0417 29.7769 31.7989C29.5235 31.5562 29.3936 31.2704 29.3868 30.9423V30.8833C29.3929 30.5552 29.5235 30.2694 29.7769 30.0266C30.0304 29.7838 30.3196 29.6625 30.6445 29.6625C30.9694 29.6625 31.2668 29.7838 31.5168 30.0266C31.7668 30.2694 31.8987 30.5552 31.9118 30.8833V30.9131V30.9124ZM30.6493 31.6803C30.8588 31.6803 31.0415 31.604 31.1988 31.4507C31.3554 31.2981 31.4344 31.1185 31.4344 30.9124C31.4344 30.7064 31.3561 30.5268 31.1988 30.3742C31.0422 30.2215 30.8588 30.1445 30.6493 30.1445C30.4398 30.1445 30.2653 30.2209 30.1046 30.3742C29.9445 30.5268 29.8642 30.7064 29.8642 30.9124C29.8642 31.1185 29.9445 31.2981 30.1046 31.4507C30.2646 31.6033 30.446 31.6803 30.6493 31.6803Z" fill="#B39382"/>
<path d="M64.0198 30.9104C64.0198 31.7171 63.7223 32.4142 63.1282 33.001C62.534 33.5879 61.8375 33.8813 61.0386 33.8813C60.2398 33.8813 59.5447 33.5879 58.9539 33.001C58.3625 32.4142 58.0671 31.7171 58.0671 30.9104C58.0671 30.1036 58.3625 29.4051 58.9539 28.8148C59.5447 28.2245 60.2398 27.9297 61.0386 27.9297C61.8375 27.9297 62.534 28.2245 63.1282 28.8148C63.7223 29.4051 64.0198 30.1036 64.0198 30.9104ZM61.0435 33.3992C61.707 33.3992 62.2895 33.1516 62.7909 32.6549C63.2917 32.1589 63.5424 31.5756 63.5424 30.9048C63.5424 30.234 63.2917 29.6514 62.7909 29.1554C62.2895 28.6594 61.7077 28.4111 61.0435 28.4111C60.3792 28.4111 59.7974 28.6594 59.296 29.1554C58.7952 29.6514 58.5445 30.2347 58.5445 30.9048C58.5445 31.5749 58.7952 32.1582 59.296 32.6549C59.7974 33.1509 60.3792 33.3992 61.0435 33.3992ZM63.1618 30.9104C63.1618 31.4812 62.9489 31.9765 62.5237 32.3962C62.0985 32.8158 61.6033 33.026 61.038 33.026C60.4726 33.026 59.9795 32.8158 59.557 32.3962C59.1346 31.9765 58.9237 31.4812 58.9237 30.9104C58.9237 30.3395 59.1346 29.8449 59.557 29.4245C59.9788 29.0049 60.4726 28.7947 61.038 28.7947C61.6033 28.7947 62.0978 29.0049 62.5237 29.4245C62.9489 29.8442 63.1618 30.3395 63.1618 30.9104ZM61.0435 32.5439C61.4796 32.5439 61.8622 32.3809 62.1913 32.0542C62.5203 31.7275 62.6844 31.3467 62.6844 30.911C62.6844 30.4754 62.5196 30.0946 62.1913 29.7679C61.8622 29.4412 61.4796 29.2782 61.0435 29.2782C60.6073 29.2782 60.2322 29.4419 59.8998 29.7679C59.5673 30.0946 59.4018 30.4754 59.4018 30.911C59.4018 31.3467 59.568 31.7275 59.8998 32.0542C60.2322 32.3809 60.6135 32.5439 61.0435 32.5439ZM62.3046 30.9104V30.9402C62.2915 31.2683 62.1597 31.5534 61.9103 31.7962C61.6603 32.0389 61.3697 32.1603 61.0386 32.1603C60.7076 32.1603 60.4246 32.0389 60.1718 31.7962C59.9183 31.5534 59.7885 31.2683 59.7823 30.9402V30.8812C59.7885 30.5531 59.919 30.268 60.1718 30.0252C60.4252 29.7825 60.7137 29.6611 61.0386 29.6611C61.3635 29.6611 61.6603 29.7825 61.9103 30.0252C62.1603 30.268 62.2915 30.5531 62.3046 30.8812V30.911V30.9104ZM61.0435 31.6775C61.253 31.6775 61.4357 31.6012 61.5923 31.4486C61.7489 31.296 61.8279 31.1164 61.8279 30.9104C61.8279 30.7043 61.7496 30.5247 61.5923 30.3721C61.4357 30.2195 61.2523 30.1432 61.0435 30.1432C60.8346 30.1432 60.6595 30.2195 60.4994 30.3721C60.3394 30.5247 60.259 30.7043 60.259 30.9104C60.259 31.1164 60.3394 31.296 60.4994 31.4486C60.6595 31.6012 60.8408 31.6775 61.0435 31.6775Z" fill="#B39382"/>
<path d="M70.0426 30.7376C70.0426 30.0981 69.8131 29.5466 69.355 29.0832C68.8968 28.6199 68.3549 28.3875 67.7291 28.3875C66.819 28.3875 66.1341 28.785 65.676 29.5792C65.4775 29.9358 65.3786 30.4047 65.3786 30.9867V35.3741H64.9238V30.8604C64.9238 30.6294 64.9389 30.4172 64.9699 30.2236C65.0873 29.5619 65.4102 29.0139 65.9391 28.5803C66.468 28.1468 67.069 27.9297 67.7428 27.9297C68.4909 27.9297 69.1366 28.2092 69.6806 28.7676C70.2246 29.3267 70.4966 29.9836 70.4966 30.739H70.0412L70.0426 30.7376ZM66.1953 32.2172H69.5981V32.6854H66.1953V35.3734H65.7405V30.9908C65.7405 30.4914 65.8257 30.0842 65.9954 29.7686C66.165 29.4537 66.4096 29.2053 66.7283 29.0243C67.0463 28.8432 67.385 28.7524 67.7435 28.7524C68.269 28.7524 68.723 28.9487 69.1063 29.342C69.4896 29.7353 69.6813 30.2007 69.6813 30.7376H69.2265C69.2204 30.3256 69.072 29.9697 68.7814 29.6701C68.4909 29.3704 68.1412 29.2206 67.7339 29.2206C67.4619 29.2206 67.2036 29.29 66.9598 29.4273C66.7152 29.5653 66.527 29.7547 66.3938 29.9961C66.2605 30.2375 66.1946 30.7064 66.1946 31.4022V32.2172H66.1953ZM67.0113 31.4029H69.5988V31.8621H66.5573V31.0283C66.5573 30.6287 66.6095 30.3415 66.7146 30.1667C66.955 29.7734 67.2929 29.5764 67.7305 29.5764C68.0382 29.5764 68.3047 29.6902 68.5293 29.9184C68.7539 30.1466 68.8694 30.4192 68.8755 30.7376H68.4119C68.4242 30.5379 68.3549 30.3707 68.2031 30.2368C68.0513 30.1029 67.8768 30.0356 67.679 30.0356C67.3266 30.0356 67.1102 30.2278 67.0298 30.6107C67.0175 30.6544 67.0113 30.7834 67.0113 30.9971V31.4029ZM66.5573 33.0413H69.5988V33.5005H66.5573V33.0413Z" fill="#B39382"/>
<path d="M97.9118 30.8755C97.9118 31.6753 97.6268 32.3787 97.056 32.9863C96.4852 33.5939 95.812 33.8915 95.0358 33.8783H94.9671V33.3914C95.6348 33.4115 96.2125 33.1646 96.7002 32.6513C97.1878 32.138 97.4317 31.5435 97.4317 30.8685C97.4317 30.1936 97.1872 29.6387 96.6974 29.1455C96.2077 28.6523 95.6396 28.4054 94.9932 28.4054C94.2424 28.4054 93.6187 28.6953 93.1228 29.2745C92.6331 28.6953 92.0128 28.4054 91.262 28.4054C90.6156 28.4054 90.0462 28.6509 89.553 29.1427C89.0598 29.6345 88.8139 30.2068 88.8139 30.8602C88.8139 31.5137 89.0516 32.1137 89.5283 32.6221C90.0043 33.1306 90.5682 33.381 91.2208 33.3747H91.2696V33.8783H91.2105C90.4281 33.8915 89.7529 33.5939 89.1855 32.9863C88.6182 32.3787 88.3345 31.6746 88.3345 30.8755C88.3345 30.0764 88.6278 29.4008 89.2151 28.8091C89.8024 28.2181 90.4831 27.9219 91.2593 27.9219C91.9702 27.9219 92.5898 28.1459 93.118 28.5933C93.6524 28.1459 94.2754 27.9219 94.9864 27.9219C95.7557 27.9219 96.4357 28.2174 97.0257 28.8091C97.6158 29.4008 97.9111 30.0889 97.9111 30.8755H97.9118ZM94.9774 29.2759C94.5206 29.2759 94.1394 29.4375 93.8331 29.7608C93.5267 30.084 93.3735 30.4766 93.3735 30.9386V33.879H92.8748V30.9386C92.8748 30.4766 92.7196 30.084 92.4105 29.7608C92.1007 29.4375 91.7174 29.2759 91.2613 29.2759C90.8437 29.2759 90.4755 29.4361 90.1561 29.7566C89.8367 30.0771 89.6767 30.4482 89.6767 30.8713C89.6767 31.2945 89.8312 31.6905 90.141 32.0207C90.4508 32.3509 90.8176 32.5125 91.2414 32.5063H91.2709V33.0002H91.2318C90.6775 33.0071 90.2001 32.7942 89.7989 32.3634C89.3978 31.9319 89.1972 31.4367 89.1972 30.8769C89.1972 30.3171 89.404 29.8385 89.8182 29.4195C90.2324 29.0012 90.7132 28.7924 91.2613 28.7924C91.659 28.7924 92.0224 28.8944 92.3521 29.0983C92.6811 29.3023 92.9373 29.5825 93.1201 29.9377C93.309 29.5818 93.5686 29.3023 93.8976 29.0983C94.2267 28.8944 94.5907 28.7924 94.9884 28.7924C95.5297 28.7924 96.0091 29.0012 96.4261 29.4195C96.843 29.8378 97.0518 30.3233 97.0518 30.8769C97.0518 31.4304 96.8499 31.9326 96.4453 32.3634C96.0407 32.7948 95.5647 33.0071 95.0173 33.0002H94.9685V32.5049C95.3923 32.525 95.7639 32.3662 96.0833 32.0297C96.4027 31.6926 96.5628 31.3069 96.5628 30.8706C96.5628 30.4343 96.4048 30.0771 96.0881 29.7566C95.7715 29.4361 95.4019 29.2759 94.9781 29.2759H94.9774ZM91.2696 29.6609C91.6219 29.6609 91.9132 29.7857 92.1447 30.0362C92.3762 30.2866 92.4922 30.589 92.4922 30.9449V33.879H92.0128V30.9372C92.0128 30.7194 91.9427 30.5328 91.8026 30.3774C91.6625 30.2221 91.4846 30.1444 91.2696 30.1444C91.0738 30.1444 90.9028 30.2172 90.7558 30.3629C90.6088 30.5085 90.536 30.6806 90.536 30.879C90.536 31.0773 90.6095 31.2625 90.7558 31.4152C90.9028 31.5671 91.0738 31.6399 91.2696 31.6337V32.1303H91.24C90.9206 32.1303 90.6431 32.0055 90.4089 31.755C90.174 31.5046 90.0565 31.2154 90.0565 30.8859C90.0565 30.5564 90.1774 30.2699 90.4185 30.0264C90.6596 29.783 90.9433 29.6609 91.2696 29.6609ZM95.711 30.8796C95.711 30.6813 95.6368 30.5092 95.4892 30.3636C95.3415 30.2179 95.1725 30.1451 94.9822 30.1451C94.7652 30.1451 94.5866 30.2228 94.4458 30.3781C94.3043 30.5335 94.2342 30.7201 94.2342 30.9379V33.8797H93.7451V30.9455C93.7451 30.5897 93.8626 30.2873 94.0975 30.0368C94.3324 29.7864 94.6257 29.6616 94.9781 29.6616C95.2975 29.6616 95.5798 29.7837 95.8244 30.0271C96.0689 30.2706 96.1912 30.5571 96.1912 30.8866C96.1912 31.2161 96.0737 31.5053 95.8388 31.7557C95.6039 32.0062 95.3236 32.131 94.9973 32.131H94.9678V31.6344C95.1663 31.6413 95.3394 31.5685 95.4885 31.4158C95.6368 31.2639 95.7117 31.085 95.7117 30.8796H95.711Z" fill="#B39382"/>
<path d="M77.2229 33.8582V33.3317C77.236 33.3317 77.249 33.3317 77.2614 33.3317C78.0966 33.3317 78.8378 33.0022 79.4635 32.3536C80.1127 31.6801 80.4424 30.8865 80.4424 29.9938C80.4424 29.1011 80.1092 28.3429 79.4512 27.6908C78.8089 27.0541 78.0595 26.7239 77.2229 26.7093V26.1953C78.1859 26.2154 79.0514 26.5969 79.796 27.3294C80.5633 28.0821 80.952 28.9783 80.952 29.9931C80.952 31.0079 80.5818 31.9208 79.8523 32.7046C79.1386 33.4704 78.2821 33.8589 77.306 33.8589H77.2229V33.8582ZM77.2229 32.7185V32.2066C77.2414 32.2066 77.26 32.2073 77.2785 32.2073C77.7937 32.2073 78.2594 31.9902 78.6626 31.5629C79.0947 31.1044 79.3138 30.5813 79.3138 30.0063C79.3138 29.4312 79.094 28.9214 78.6613 28.4927C78.2464 28.0835 77.7628 27.867 77.2229 27.849V27.3336C77.894 27.3516 78.4964 27.6201 79.0136 28.1313C79.5508 28.6613 79.8235 29.2877 79.8235 29.9924C79.8235 30.6972 79.5631 31.3596 79.0507 31.9076C78.5472 32.4452 77.9448 32.7178 77.2593 32.7178H77.2229V32.7185ZM77.2229 31.5795V31.0648C77.4709 31.0572 77.6914 30.9531 77.8803 30.7541C78.0829 30.5411 78.1852 30.2935 78.1852 30.0195C78.1852 29.7455 78.0822 29.502 77.8796 29.2974C77.6907 29.1073 77.4702 29.0039 77.2229 28.9901V28.4747C77.6007 28.4893 77.9393 28.6439 78.2313 28.9353C78.539 29.2412 78.6949 29.6019 78.6949 30.007C78.6949 30.4121 78.5445 30.7929 78.2484 31.112C77.9613 31.4221 77.6192 31.5795 77.2325 31.5795H77.2229Z" fill="#B39382"/>
<path d="M77.2461 33.8755V26.1953H76.8436V33.8755H77.2461Z" fill="#B39382"/>
<path d="M76.4272 33.8755V26.1953H76.0247V33.8755H76.4272Z" fill="#B39382"/>
<path d="M75.6086 33.8755V26.1953H75.2061V33.8755H75.6086Z" fill="#B39382"/>
</g>
<defs>
<filter id="filter0_d_1850_100013" x="0.875" y="0.65625" width="115.25" height="66.25" filterUnits="userSpaceOnUse" color-interpolation-filters="sRGB">
<feFlood flood-opacity="0" result="BackgroundImageFix"/>
<feColorMatrix in="SourceAlpha" type="matrix" values="0 0 0 0 0 0 0 0 0 0 0 0 0 0 0 0 0 0 127 0" result="hardAlpha"/>
<feOffset dy="0.78125"/>
<feGaussianBlur stdDeviation="1.5625"/>
<feComposite in2="hardAlpha" operator="out"/>
<feColorMatrix type="matrix" values="0 0 0 0 0 0 0 0 0 0 0 0 0 0 0 0 0 0 0.08 0"/>
<feBlend mode="normal" in2="BackgroundImageFix" result="effect1_dropShadow_1850_100013"/>
<feBlend mode="normal" in="SourceGraphic" in2="effect1_dropShadow_1850_100013" result="shape"/>
</filter>
</defs>
</svg>
