<svg width="29" height="29" viewBox="0 0 29 29" fill="none" xmlns="http://www.w3.org/2000/svg">
<path d="M28.8799 0.257812V28.2578H0.879883V0.257812H28.8799Z" fill="white" fill-opacity="0.01"/>
<path d="M20.1297 9.00521H20.132M18.3797 14.2552C18.3797 16.1882 16.8127 17.7552 14.8797 17.7552C12.9467 17.7552 11.3797 16.1882 11.3797 14.2552C11.3797 12.3222 12.9467 10.7552 14.8797 10.7552C16.8127 10.7552 18.3797 12.3222 18.3797 14.2552ZM9.54639 23.5885H20.2131C22.4222 23.5885 24.2131 21.7977 24.2131 19.5885V8.92187C24.2131 6.71274 22.4222 4.92188 20.2131 4.92188H9.54639C7.33725 4.92188 5.54639 6.71273 5.54639 8.92187V19.5885C5.54639 21.7977 7.33725 23.5885 9.54639 23.5885Z" stroke="#6D6D6D" stroke-width="1.5" stroke-linecap="round" stroke-linejoin="round"/>
</svg>
