<svg width="117" height="67" viewBox="0 0 117 67" fill="none" xmlns="http://www.w3.org/2000/svg">
<g filter="url(#filter0_d_1850_99330)">
<rect width="109" height="60" transform="translate(4 3)" fill="white"/>
<path d="M43.7392 29.9219C43.6985 29.9219 43.6618 29.9382 43.6351 29.9652C43.6085 29.9922 43.5918 30.0285 43.5918 30.0697V35.963C43.5918 36.0448 43.6577 36.1104 43.7392 36.1108C43.8203 36.1108 43.8866 36.0448 43.8866 35.963V30.0697C43.8866 30.0289 43.8703 29.9919 43.8433 29.9652C43.8162 29.9382 43.7796 29.9219 43.7392 29.9219Z" fill="#B98D77"/>
<path d="M43.0132 29.9219C42.9729 29.9219 42.9362 29.9382 42.9092 29.9652C42.8825 29.9922 42.8662 30.0285 42.8662 30.0697V35.963C42.8662 36.0448 42.9325 36.1104 43.0136 36.1108C43.0951 36.1108 43.1614 36.0448 43.1614 35.963V30.0697C43.1614 30.0289 43.1451 29.9919 43.1181 29.9652C43.091 29.9382 43.0544 29.9219 43.0136 29.9219" fill="#B98D77"/>
<path d="M49.7745 32.2221C49.419 31.8669 48.929 31.6469 48.3879 31.6469H48.172V30.0384C48.172 29.9977 48.1553 29.9606 48.129 29.934C48.102 29.9069 48.0657 29.8906 48.0249 29.8906C47.9842 29.8906 47.9475 29.9073 47.9205 29.9343C47.8938 29.9614 47.8768 29.998 47.8768 30.0388V33.6091C47.8768 33.614 47.8771 33.6188 47.8779 33.6232V33.6254L47.8783 33.628C47.8912 33.9069 48.1142 34.1195 48.3875 34.1199C48.5283 34.1199 48.6557 34.0628 48.7483 33.9706C48.8408 33.878 48.8975 33.751 48.8979 33.6099C48.8979 33.6051 48.8975 33.5988 48.8968 33.5921V33.5906C48.8838 33.3132 48.6605 33.0991 48.3875 33.0991H48.259V32.668H48.3875C48.9068 32.668 49.3286 33.0906 49.329 33.6103C49.3279 34.1303 48.906 34.5521 48.3875 34.5521C47.869 34.5521 47.4534 34.1369 47.446 33.6236V33.6099V30.0399C47.446 29.9991 47.4297 29.9625 47.4031 29.9354C47.376 29.9084 47.3394 29.8917 47.299 29.8917C47.2586 29.8917 47.2216 29.9084 47.1949 29.9354C47.1679 29.9625 47.1512 29.9991 47.1512 30.0399V33.6099C47.1527 34.2932 47.7075 34.8473 48.3879 34.8473C48.7286 34.8473 49.0371 34.7084 49.2612 34.4843C49.4853 34.2599 49.6242 33.951 49.6242 33.6103C49.6227 32.9273 49.0682 32.3732 48.3879 32.3732H48.2594V31.9428H48.3879C49.3071 31.9428 50.0549 32.6906 50.0553 33.6103C50.0549 34.5295 49.3071 35.2773 48.3879 35.278C47.4682 35.278 46.7205 34.5299 46.7205 33.6103V30.0399C46.7205 29.9991 46.7038 29.9625 46.6771 29.9354C46.6505 29.9084 46.6138 29.8917 46.5731 29.8917C46.5323 29.8917 46.4957 29.9084 46.4686 29.9354C46.442 29.9625 46.4253 29.9991 46.4253 30.0399V31.648H44.6123V30.0721C44.6123 30.0314 44.596 29.9943 44.569 29.9677C44.5423 29.9406 44.5053 29.9243 44.4649 29.9243C44.4245 29.9243 44.3875 29.9406 44.3608 29.9677C44.3342 29.9947 44.3171 30.0314 44.3171 30.0721V35.9654C44.3175 36.0473 44.3834 36.1128 44.4649 36.1132C44.546 36.1132 44.612 36.0473 44.6123 35.9654V33.394H46.4253V35.9654C46.4253 36.0473 46.4916 36.1128 46.5727 36.1132C46.6538 36.1132 46.7197 36.0473 46.7201 35.9654V34.694L46.9434 34.9377C46.9931 34.991 47.0479 35.044 47.1064 35.0947L47.1508 35.1328V35.9654C47.1508 36.0473 47.2171 36.1128 47.2986 36.1132C47.339 36.1132 47.3757 36.0965 47.4027 36.0703C47.4294 36.0432 47.4457 36.0069 47.4457 35.9654V35.3428L47.6245 35.418C47.6775 35.4403 47.732 35.4599 47.7879 35.478L47.8768 35.5065V35.9654C47.8771 36.0473 47.9434 36.1128 48.0245 36.1132C48.1057 36.1132 48.1716 36.0473 48.172 35.9654V35.5654L48.3049 35.5706C48.3334 35.5714 48.3608 35.5725 48.3879 35.5725C48.9286 35.5725 49.419 35.3525 49.7745 34.9973C50.1297 34.6414 50.3497 34.1517 50.3497 33.6103C50.3497 33.0688 50.1297 32.5791 49.7745 32.2236M48.3412 33.3936H48.342H48.3882C48.5071 33.3936 48.6034 33.4899 48.6034 33.6088C48.6034 33.728 48.5068 33.8243 48.3882 33.8243C48.269 33.8243 48.1723 33.728 48.1723 33.6088V33.3936H48.3412ZM46.4257 33.048V33.098H44.6127V32.6669H46.4257V33.048ZM46.4257 32.3217V32.3717H44.6127V31.9414H46.4257V32.3217Z" fill="#B98D77"/>
<path d="M76.0966 33.3339L76.0618 33.2987L76.1495 33.2076C76.5055 32.8398 76.7018 32.3561 76.7018 31.8443C76.7018 31.3324 76.4981 30.828 76.1266 30.4569H76.1262L76.1251 30.4554L76.1162 30.4476L76.114 30.4458L76.1118 30.4436C75.7381 30.0806 75.2529 29.8828 74.7388 29.8828H71.4707C71.4295 29.8828 71.3933 29.8995 71.3662 29.9265C71.3395 29.9532 71.3225 29.9902 71.3225 30.031V35.9565C71.3225 36.0384 71.3892 36.1039 71.4703 36.1043C71.5514 36.1043 71.6177 36.0384 71.6177 35.9565V34.3832L71.841 34.6265C71.8599 34.6465 71.8788 34.6673 71.8977 34.6861C72.2677 35.0561 72.7599 35.2595 73.2847 35.2595C73.8095 35.2595 74.3021 35.0561 74.6721 34.6861L74.727 34.6313L74.8251 34.5339L76.3592 36.068C76.3862 36.095 76.4244 36.1095 76.4636 36.1095C76.5029 36.1095 76.541 36.095 76.5677 36.0684H76.5681C76.5966 36.0398 76.611 36.0021 76.611 35.9643C76.611 35.9265 76.5966 35.8887 76.5681 35.8606H76.5677L73.6473 32.9391C73.6433 32.9354 73.6384 32.9313 73.6333 32.9265L73.6325 32.9258H73.6318C73.5347 32.8373 73.4088 32.7936 73.2833 32.7936C73.1503 32.7936 73.0181 32.8428 72.924 32.9376C72.824 33.0376 72.7744 33.168 72.7744 33.2991C72.7744 33.4302 72.824 33.5598 72.9233 33.6595L72.924 33.6602C72.9273 33.6639 72.9299 33.6661 72.9366 33.6717L72.9377 33.6724C73.0347 33.7613 73.1595 33.8047 73.2847 33.8047C73.4181 33.8047 73.5495 33.7547 73.6451 33.6595L73.7895 33.5165L73.7977 33.508L73.7984 33.5076V33.5091L74.1029 33.8132L73.9503 33.9654C73.7733 34.1424 73.5362 34.2406 73.2847 34.2406C73.0518 34.2406 72.8314 34.1558 72.6596 34.0024H72.6566L72.6418 33.988L72.6266 33.9732L72.6188 33.9658L72.617 33.9643L72.6077 33.9543C72.431 33.7721 72.3429 33.5354 72.3429 33.2991C72.3429 33.0628 72.4344 32.8169 72.6177 32.6336C72.7955 32.4561 73.0321 32.358 73.2833 32.358C73.5344 32.358 73.7714 32.4561 73.9492 32.6332V32.6339L73.9588 32.6432L77.3744 36.0576C77.401 36.0847 77.4388 36.0991 77.4784 36.0991C77.5181 36.0991 77.5555 36.0847 77.5825 36.0576C77.6107 36.0291 77.6251 35.9936 77.6255 35.9536C77.6255 35.9132 77.6107 35.8773 77.5829 35.8498L74.1584 32.4247C73.9233 32.191 73.6144 32.0632 73.2833 32.0628C72.9525 32.0628 72.6429 32.1913 72.4099 32.4239C72.1688 32.665 72.0481 32.9813 72.0481 33.2976C72.0481 33.6139 72.1684 33.9313 72.4099 34.1724L72.4107 34.1732L72.4114 34.1739L72.4207 34.1839C72.6625 34.4136 72.9636 34.5339 73.2847 34.5339C73.6058 34.5339 73.9255 34.4061 74.1592 34.1724L74.3114 34.0202L74.6166 34.3254L74.4692 34.4713C74.1492 34.791 73.7296 34.9643 73.2844 34.9643C72.8384 34.9643 72.4192 34.7913 72.1051 34.4773C71.7803 34.1521 71.6177 33.725 71.6181 33.2984C71.6177 32.8717 71.7803 32.4443 72.1051 32.1195C72.4195 31.805 72.8384 31.6317 73.284 31.6317C73.7295 31.6317 74.1484 31.805 74.4633 32.1198L78.3921 36.0487C78.4192 36.0754 78.457 36.0899 78.4962 36.0899C78.5355 36.0899 78.574 36.0754 78.6007 36.0484C78.6292 36.0195 78.6433 35.9821 78.6433 35.9447C78.6433 35.9073 78.6292 35.8687 78.6003 35.8402L76.0944 33.3343L76.0966 33.3339ZM73.4451 33.4439V33.4447C73.3995 33.4895 73.3436 33.5143 73.2858 33.5139C73.2281 33.5139 73.1736 33.491 73.1336 33.451L73.1321 33.4498L73.1314 33.4487L73.1203 33.4365H73.1199C73.087 33.3965 73.0703 33.3473 73.0703 33.298C73.0703 33.2432 73.0918 33.1876 73.1336 33.1458C73.1751 33.1043 73.231 33.0843 73.2858 33.0843C73.3407 33.0843 73.3962 33.1043 73.4381 33.1458L73.5907 33.298L73.4447 33.4439H73.4451ZM71.9592 31.8532H71.9588C71.9384 31.8721 71.9181 31.891 71.8992 31.9102H71.8988C71.8792 31.9306 71.8607 31.9498 71.8425 31.9698V31.9706L71.6184 32.2132V31.6295H72.2021L71.9592 31.8532ZM74.941 31.9206L74.871 32.1087L74.6733 31.911C74.654 31.891 74.6344 31.8721 74.6133 31.8536H74.6129L74.3692 31.6291H74.7292C74.7503 31.6291 74.777 31.6313 74.8055 31.6402C74.8344 31.6495 74.8651 31.6658 74.8921 31.6928L74.8933 31.6939L74.8947 31.6954C74.9466 31.7536 74.9558 31.8128 74.9558 31.8439C74.9558 31.8702 74.9507 31.8961 74.9418 31.9206M75.3777 32.5413L75.3421 32.5798L75.0377 32.2754L75.1192 32.1839C75.2033 32.0906 75.2499 31.9695 75.2499 31.8443C75.2499 31.7076 75.1973 31.5802 75.1003 31.4836L75.0999 31.4828C75.097 31.4795 75.0933 31.4765 75.0873 31.4724L75.0855 31.471L75.084 31.4695C74.9907 31.3865 74.8836 31.3428 74.7662 31.3361C74.7525 31.3354 74.7447 31.3347 74.7395 31.3347H71.6192V30.9039H74.7392C74.9903 30.9039 75.2258 31.0017 75.4029 31.178L75.4184 31.1917L75.4199 31.1936C75.5884 31.3691 75.6814 31.6006 75.6814 31.8443C75.6814 32.088 75.5929 32.3073 75.4329 32.481L75.3773 32.5417L75.3777 32.5413ZM75.9444 32.9965L75.8888 33.0539L75.8536 33.091L75.5488 32.7869L75.6351 32.6958C75.8547 32.465 75.9758 32.1628 75.9762 31.8439C75.9762 31.5132 75.8477 31.2039 75.6144 30.9702C75.611 30.9665 75.6055 30.9624 75.6007 30.9584L75.5984 30.9569L75.5966 30.955C75.3607 30.7306 75.0588 30.6098 74.7403 30.6087H71.6181V30.178H74.7388C75.1836 30.178 75.6033 30.3524 75.9177 30.6669C76.2351 30.9876 76.4062 31.4039 76.4062 31.8443C76.4062 32.2847 76.2418 32.6847 75.944 32.9965" fill="#B98D77"/>
<path d="M70.7452 29.8906C70.7048 29.8906 70.6681 29.9073 70.6415 29.934C70.6148 29.961 70.5981 29.9977 70.5981 30.0384V35.964C70.5981 36.0458 70.6644 36.1114 70.7452 36.1117C70.8267 36.1117 70.8926 36.0458 70.8926 35.964V30.0384C70.8926 29.9977 70.8763 29.961 70.8493 29.934C70.8226 29.9069 70.7859 29.8906 70.7452 29.8906Z" fill="#B98D77"/>
<path d="M70.0197 29.8906C69.979 29.8906 69.9423 29.9073 69.9156 29.9343C69.8886 29.961 69.8723 29.998 69.8723 30.0388V35.9643C69.8723 36.0462 69.9386 36.1117 70.0197 36.1121C70.1012 36.1121 70.1671 36.0462 70.1675 35.9643V30.0388C70.1675 29.998 70.1512 29.9614 70.1238 29.9343C70.0971 29.9073 70.0605 29.8906 70.0197 29.8906Z" fill="#B98D77"/>
<path d="M58.9556 31.844C58.9534 31.3228 58.7497 30.8336 58.3811 30.4654C58.01 30.0947 57.5182 29.8906 56.9937 29.8906C56.4693 29.8906 55.9774 30.0947 55.6063 30.4666L55.0426 31.0284L55.0393 31.031C55.0334 31.0354 55.0282 31.0395 55.0234 31.0443H55.023L53.9993 32.0684C53.9626 32.1047 53.9289 32.1425 53.8911 32.1862L53.89 32.1873L50.2141 35.8632C50.1867 35.8906 50.1711 35.928 50.1711 35.9677C50.1711 36.0073 50.1863 36.0436 50.2141 36.0725C50.2411 36.0991 50.2793 36.1136 50.3182 36.1136C50.3571 36.1136 50.396 36.0991 50.423 36.0725L53.4389 33.0554L53.4271 33.3836C53.4263 33.4073 53.4252 33.4314 53.4252 33.4551C53.4252 33.5058 53.4274 33.5573 53.4315 33.6091L53.4367 33.668L51.2397 35.8651C51.2108 35.894 51.1963 35.9314 51.1963 35.9691C51.1963 36.0069 51.2108 36.0447 51.2397 36.0736C51.266 36.1003 51.3041 36.1147 51.3434 36.1147C51.3826 36.1147 51.4211 36.1003 51.4478 36.0732L53.4986 34.0236L53.5719 34.2021C53.5937 34.2551 53.6182 34.3084 53.6445 34.3595H53.6448L53.6878 34.4432L52.2808 35.8503C52.2523 35.8788 52.2374 35.9147 52.2374 35.9551C52.2374 35.9951 52.2523 36.0306 52.2808 36.0588C52.3078 36.0858 52.346 36.1003 52.3848 36.1003C52.4237 36.1003 52.4619 36.0858 52.4893 36.0588L53.7623 34.7858L53.8608 34.6969L53.9504 34.7928C53.9667 34.8106 53.9819 34.8273 53.9982 34.8432L53.9989 34.844C54.3689 35.214 54.8611 35.4177 55.386 35.4177C55.9071 35.4177 56.3948 35.2177 56.7645 34.8532L56.773 34.8443C56.8463 34.771 56.9141 34.691 56.976 34.6054L57.2093 34.2832V35.9647C57.2093 36.0466 57.2756 36.1121 57.3567 36.1125C57.3971 36.1125 57.4337 36.0958 57.4604 36.0695C57.4871 36.0425 57.5037 36.0062 57.5037 35.9647V31.854C57.5037 31.8477 57.5037 31.8436 57.5023 31.8332V31.831V31.8295C57.4963 31.7021 57.4437 31.5828 57.3545 31.4925C57.2589 31.3973 57.1267 31.3488 56.9934 31.3488C56.86 31.3488 56.7278 31.3973 56.633 31.4928L56.523 31.6014L56.5197 31.604C56.5148 31.6073 56.5093 31.6121 56.503 31.618L55.0256 33.0951C55.0211 33.0995 55.0182 33.1032 55.0111 33.1114L55.0104 33.1121L55.0097 33.1128C54.92 33.211 54.876 33.3343 54.876 33.4577C54.876 33.5884 54.926 33.718 55.0252 33.8177C55.12 33.9125 55.2526 33.9614 55.3856 33.9614C55.5185 33.9614 55.6515 33.9128 55.7474 33.8169V33.8162L55.7489 33.8151C55.7504 33.814 55.7526 33.8114 55.76 33.8025L55.7608 33.801L55.7619 33.7999C55.8519 33.7014 55.896 33.5784 55.8963 33.4554C55.8963 33.3247 55.846 33.1951 55.7467 33.0958L55.656 33.0043L55.9615 32.6988L56.0523 32.7903C56.236 32.9732 56.3274 33.2143 56.3274 33.4551C56.3274 33.6958 56.2356 33.938 56.0511 34.1221C55.8737 34.2991 55.6367 34.3977 55.3852 34.3977C55.1337 34.3977 54.8978 34.2995 54.7204 34.1221C54.543 33.9451 54.4452 33.7088 54.4456 33.458V33.4566V33.4554C54.4456 33.204 54.5441 32.968 54.7208 32.791L55.923 31.5899L55.9256 31.588C55.933 31.5825 55.9382 31.578 55.9426 31.5736L55.9434 31.5728L56.3285 31.1877C56.506 31.0106 56.7434 30.9121 56.9948 30.9121C57.2463 30.9121 57.4823 31.0103 57.66 31.1877C57.8378 31.3654 57.9356 31.6028 57.9356 31.854V35.9647C57.9356 36.0466 58.0019 36.1121 58.083 36.1125C58.1641 36.1125 58.2304 36.0466 58.2304 35.9647V31.854C58.2304 31.5228 58.1019 31.2132 57.8686 30.9791C57.6348 30.7454 57.3252 30.6169 56.9941 30.6169C56.6674 30.6177 56.3608 30.7425 56.1278 30.9714H56.1282L55.7526 31.3451L55.7504 31.3473C55.7426 31.3532 55.7367 31.3573 55.7319 31.3621L54.5234 32.5684L54.5126 32.5814L54.5111 32.5828C54.2704 32.824 54.1504 33.1403 54.1504 33.4566C54.1504 33.7728 54.2708 34.0899 54.5115 34.3306C54.7448 34.564 55.0548 34.6917 55.3856 34.6917C55.7163 34.6917 56.0267 34.564 56.2619 34.3291C56.5015 34.088 56.6215 33.7717 56.6215 33.4558C56.6215 33.1399 56.5015 32.8225 56.2604 32.5814L56.1693 32.4906L56.4745 32.1858L56.5652 32.2773C56.8793 32.5906 57.0526 33.0099 57.0523 33.4558C57.0523 33.9017 56.8793 34.3206 56.5648 34.6351C56.2508 34.9491 55.8319 35.1225 55.3856 35.1225C54.9393 35.1225 54.5215 34.9491 54.2071 34.6351C53.8819 34.3106 53.7167 33.8862 53.7167 33.4588C53.7167 33.0814 53.8456 32.7021 54.1067 32.3877L54.1085 32.3858L54.3834 32.1103C54.3904 32.1032 54.3978 32.0943 54.4041 32.084L54.4067 32.0795L55.093 31.3921L55.0952 31.3903C55.1037 31.384 55.1093 31.3791 55.1134 31.3751L55.8148 30.6736C56.1293 30.3591 56.5486 30.1854 56.993 30.1854C57.4382 30.1854 57.8571 30.3595 58.1719 30.674C58.4867 30.9888 58.6608 31.4084 58.6608 31.8577V35.9643C58.6608 36.0054 58.6774 36.0421 58.7041 36.0691C58.7311 36.0958 58.7674 36.1121 58.8082 36.1121C58.8897 36.1121 58.9556 36.0462 58.9556 35.9643V31.844ZM55.5385 33.608C55.4982 33.6495 55.443 33.6714 55.386 33.6714C55.3289 33.6714 55.2741 33.6484 55.2337 33.608C55.1926 33.5669 55.1711 33.5117 55.1711 33.4569C55.1711 33.4088 55.1874 33.3599 55.2197 33.3195L55.2211 33.3173L55.383 33.1536C55.383 33.1536 55.5274 33.2921 55.5382 33.3028C55.5797 33.3451 55.6008 33.4006 55.6008 33.4554C55.6008 33.5103 55.58 33.5654 55.5378 33.6077L55.5385 33.608ZM56.9763 32.3066C56.9148 32.2225 56.8467 32.1421 56.773 32.0684L56.6245 31.918L56.8419 31.7006C56.8689 31.6736 56.8993 31.6577 56.926 31.6488C56.953 31.6395 56.9771 31.6377 56.9937 31.6377C57.0104 31.6377 57.0348 31.6399 57.0619 31.6488C57.0889 31.6577 57.1189 31.674 57.146 31.701C57.1734 31.7277 57.19 31.7584 57.1985 31.7862C57.2074 31.8143 57.2093 31.8399 57.2097 31.8588V32.6295L56.9763 32.3069V32.3066Z" fill="#B98D77"/>
<path d="M31.9677 29.9375C31.8803 29.9375 31.8096 30.0082 31.8096 30.0953V35.9479C31.8096 36.0349 31.8803 36.1056 31.9677 36.1056C32.0551 36.1056 32.1251 36.0349 32.1251 35.9479V30.0953C32.1251 30.0082 32.0544 29.9375 31.9677 29.9375Z" fill="#B98D77"/>
<path d="M31.2226 29.8984H29.0267C28.94 29.8984 28.8689 29.9692 28.8689 30.0562C28.8689 30.1433 28.94 30.214 29.0267 30.214H31.0648V30.6433H29.0267C28.94 30.6433 28.8689 30.714 28.8689 30.801C28.8689 30.8881 28.94 30.9588 29.0267 30.9588H31.0648V31.3881H29.0267C28.94 31.3881 28.8689 31.4588 28.8689 31.5458C28.8689 31.6329 28.94 31.7036 29.0267 31.7036H31.0648V34.3003H29.0267C28.94 34.3003 28.8689 34.371 28.8689 34.4581C28.8689 34.5451 28.94 34.6158 29.0267 34.6158H31.0648V35.0451H29.0267C28.94 35.0451 28.8689 35.1158 28.8689 35.2029C28.8689 35.2899 28.94 35.3607 29.0267 35.3607H31.0648V35.7899H29.0267C28.94 35.7899 28.8689 35.8607 28.8689 35.9477C28.8689 36.0347 28.94 36.1055 29.0267 36.1055H31.2226C31.31 36.1055 31.3804 36.0347 31.3804 35.9477V30.0951L31.3796 30.0792L31.3804 30.0562C31.3804 29.9695 31.31 29.8988 31.2226 29.8988" fill="#B98D77"/>
<path d="M34.9078 30.214C34.9948 30.214 35.0659 30.1433 35.0659 30.0562C35.0659 29.9692 34.9948 29.8984 34.9078 29.8984H32.7122C32.6256 29.8984 32.5544 29.9692 32.5544 30.0562C32.5544 30.0588 32.5544 30.0618 32.5552 30.0647L32.5559 30.0736L32.5552 30.0847C32.5548 30.0892 32.5544 30.0918 32.5544 30.0947V35.9473C32.5544 36.0344 32.6256 36.1051 32.7122 36.1051H34.9078C34.9948 36.1051 35.0659 36.0344 35.0659 35.9473C35.0659 35.8603 34.9948 35.7895 34.9078 35.7895H32.87V35.3603H34.9078C34.9948 35.3603 35.0659 35.2895 35.0659 35.2025C35.0659 35.1155 34.9948 35.0447 34.9078 35.0447H32.87V34.6155H34.9078C34.9948 34.6155 35.0659 34.5447 35.0659 34.4577C35.0659 34.3707 34.9948 34.2999 34.9078 34.2999H32.87V31.7033H34.9078C34.9948 31.7033 35.0659 31.6325 35.0659 31.5455C35.0659 31.4584 34.9948 31.3877 34.9078 31.3877H32.87V30.9584H34.9078C34.9948 30.9584 35.0659 30.8877 35.0659 30.8007C35.0659 30.7136 34.9948 30.6429 34.9078 30.6429H32.87V30.2136H34.9078V30.214Z" fill="#B98D77"/>
<path d="M38.2674 31.6843C38.2674 31.6843 38.2708 31.6839 38.2726 31.6836H41.6908C41.7737 31.6836 41.8415 31.6161 41.8415 31.5332C41.8415 31.4502 41.7741 31.3828 41.6908 31.3828H38.2671C38.2637 31.3828 38.2604 31.3836 38.2571 31.3839C37.9752 31.3895 37.7474 31.6202 37.7474 31.9032C37.7474 32.1861 37.9748 32.4169 38.2567 32.4224C38.2604 32.4224 38.2637 32.4236 38.2671 32.4236H39.8437C40.7774 32.4236 41.5367 33.1817 41.5396 34.115C41.5367 35.0476 40.7774 35.8061 39.8437 35.8061C39.8422 35.8061 39.8404 35.8065 39.8393 35.8065H36.4208C36.3374 35.8065 36.27 35.8739 36.27 35.9569C36.27 36.0398 36.3378 36.1076 36.4208 36.1076H39.8437C39.8459 36.1076 39.8482 36.1069 39.85 36.1069C40.9441 36.1036 41.8337 35.2158 41.8408 34.1228C41.8408 34.1217 41.8411 34.1206 41.8411 34.1195C41.8411 34.118 41.8408 34.1161 41.8408 34.1147C41.8408 34.1128 41.8411 34.1113 41.8411 34.1095C41.8411 34.1084 41.8408 34.1076 41.8408 34.1065C41.8337 33.011 40.9408 32.1224 39.8437 32.1224H38.2726C38.2726 32.1224 38.2693 32.1217 38.2674 32.1217C38.1467 32.1217 38.0485 32.0239 38.0485 31.9032C38.0485 31.7824 38.1467 31.6843 38.2674 31.6843Z" fill="#B98D77"/>
<path d="M41.6908 30.6406H38.2671C37.5734 30.6406 37.0089 31.2058 37.0089 31.8999C37.0089 32.594 37.5734 33.1588 38.2671 33.1591H39.8437C39.8437 33.1591 39.8456 33.1591 39.8463 33.1591C40.3715 33.1606 40.7982 33.5869 40.8008 34.1121C40.7982 34.6377 40.3696 35.0651 39.8437 35.0651H36.4208C36.3374 35.0651 36.27 35.1325 36.27 35.2154C36.27 35.2984 36.3378 35.3658 36.4208 35.3658H39.8445C40.5341 35.3654 41.0952 34.8077 41.1019 34.1203C41.1019 34.1191 41.1019 34.118 41.1019 34.1169V34.1069C41.1019 34.1069 41.1019 34.1051 41.1019 34.104C41.0948 33.4154 40.5334 32.8577 39.8437 32.8577C39.8422 32.8577 39.8411 32.858 39.8396 32.858H38.2674C37.7396 32.858 37.31 32.4284 37.31 31.9003C37.31 31.3721 37.7396 30.9425 38.2674 30.9425H41.6904C41.7734 30.9425 41.8411 30.8751 41.8411 30.7917C41.8411 30.7084 41.7737 30.6414 41.6904 30.6414" fill="#B98D77"/>
<path d="M41.6906 29.9062H38.2669C38.2651 29.9062 38.2629 29.9063 38.261 29.907C37.1621 29.9103 36.2695 30.8051 36.2695 31.9044C36.2695 33.0037 37.1625 33.8981 38.261 33.9014C38.2632 33.9014 38.2651 33.9022 38.2669 33.9022H39.8436C39.9625 33.9022 40.0592 33.9977 40.0621 34.1163C40.0592 34.2344 39.9625 34.33 39.8436 34.33C39.8421 34.33 39.8403 34.3307 39.8384 34.3307H36.4206C36.3373 34.3307 36.2699 34.3981 36.2699 34.4811C36.2699 34.564 36.3377 34.6318 36.4206 34.6318H39.8436C39.8473 34.6318 39.8506 34.6311 39.8543 34.6307C40.1295 34.6251 40.3521 34.4051 40.3625 34.1311C40.3629 34.1274 40.3636 34.1244 40.3636 34.1211C40.3636 34.1196 40.3632 34.1177 40.3632 34.1163C40.3632 34.1144 40.3636 34.1129 40.3636 34.1111C40.3636 34.1077 40.3629 34.1048 40.3625 34.1014C40.3521 33.8244 40.1243 33.6018 39.8447 33.6011H38.2718C38.2718 33.6011 38.2688 33.6007 38.2673 33.6007C37.3321 33.6007 36.571 32.8396 36.571 31.9044C36.571 30.9692 37.3318 30.2081 38.2673 30.2081C38.2688 30.2081 38.2699 30.2077 38.2718 30.2074H41.6903C41.7732 30.2074 41.841 30.14 41.841 30.057C41.841 29.974 41.7736 29.9066 41.6903 29.9066" fill="#B98D77"/>
<path d="M68.7049 31.844C68.7023 31.3228 68.4989 30.8336 68.1304 30.4654C67.7593 30.0947 67.2671 29.8906 66.743 29.8906C66.2189 29.8906 65.7263 30.0947 65.3552 30.4666L64.7915 31.0284L64.7882 31.031C64.7819 31.0354 64.7767 31.0395 64.7719 31.0443L64.7712 31.0451L63.7475 32.0688H63.7471C63.7108 32.1051 63.6767 32.1428 63.6393 32.1866L63.6382 32.1877L59.9623 35.8636C59.9349 35.891 59.9197 35.9284 59.9197 35.968C59.9197 36.0077 59.9345 36.044 59.9626 36.0728C59.9893 36.0995 60.0278 36.114 60.0667 36.114C60.1056 36.114 60.1445 36.0995 60.1712 36.0728L63.1871 33.0558L63.1756 33.384C63.1749 33.4077 63.1741 33.4317 63.1741 33.4554C63.1741 33.5062 63.176 33.5577 63.18 33.6095L63.1856 33.6684L60.9882 35.8654C60.9593 35.8943 60.9452 35.9317 60.9449 35.9695C60.9449 36.0073 60.9589 36.0451 60.9882 36.074C61.0145 36.1006 61.0526 36.1151 61.0923 36.1151C61.1319 36.1151 61.17 36.1006 61.1967 36.0736L63.2471 34.024L63.3208 34.2025C63.3426 34.2554 63.3671 34.3088 63.3938 34.3599L63.4363 34.4436L62.0297 35.8506C62.0012 35.8791 61.9863 35.9151 61.9863 35.9554C61.9863 35.9954 62.0012 36.031 62.0297 36.0591C62.0567 36.0862 62.0949 36.1006 62.1338 36.1006C62.1726 36.1006 62.2112 36.0862 62.2382 36.0591L63.5112 34.7862L63.6097 34.6973L63.6993 34.7932C63.7156 34.811 63.7312 34.8277 63.7475 34.8436L63.7482 34.8443C64.1182 35.2143 64.6104 35.418 65.1352 35.418C65.656 35.418 66.1441 35.218 66.5138 34.8536L66.5223 34.8447C66.5952 34.7714 66.6634 34.6914 66.7252 34.6058L66.9586 34.2836V35.9651C66.9586 36.0469 67.0245 36.1125 67.106 36.1128C67.1467 36.1128 67.1834 36.0962 67.21 36.0699C67.2367 36.0428 67.253 36.0065 67.253 35.9651V31.8543C67.253 31.848 67.253 31.844 67.2519 31.8336V31.8299C67.246 31.7025 67.193 31.5832 67.1038 31.4928C67.0086 31.3977 66.8763 31.3491 66.743 31.3491C66.6097 31.3491 66.4775 31.3977 66.3823 31.4932L66.2726 31.6017L66.2689 31.6043C66.2641 31.6077 66.2586 31.6125 66.2526 31.6184L64.7749 33.0954C64.7708 33.0999 64.7675 33.1036 64.7604 33.1117L64.7593 33.1125V33.1132C64.6689 33.2114 64.6249 33.3347 64.6249 33.458C64.6249 33.5888 64.6749 33.7184 64.7741 33.818C64.8693 33.9128 65.0015 33.9617 65.1349 33.9617C65.2682 33.9617 65.4008 33.9128 65.4963 33.8173V33.8166L65.4978 33.8154C65.4993 33.8143 65.5019 33.8117 65.5089 33.8028L65.5097 33.8014L65.5108 33.8003C65.6008 33.7017 65.6452 33.5788 65.6452 33.4558C65.6452 33.3251 65.5952 33.1954 65.4956 33.0962L65.4049 33.0047L65.7104 32.6991L65.8012 32.7906H65.8004C65.9841 32.9736 66.076 33.2147 66.076 33.4554C66.076 33.6966 65.9841 33.9384 65.8 34.1225C65.6226 34.2995 65.3856 34.398 65.1341 34.398C64.8826 34.398 64.6467 34.2999 64.4693 34.1225C64.2923 33.9454 64.1941 33.7091 64.1941 33.4584V33.4569V33.4558C64.1945 33.2043 64.2926 32.9684 64.4697 32.7914L65.6719 31.5903L65.6741 31.5884C65.6815 31.5828 65.6871 31.5784 65.6915 31.574V31.5732L66.0775 31.188C66.2552 31.011 66.4923 30.9125 66.7437 30.9125C66.9952 30.9125 67.2312 31.0106 67.4089 31.188H67.4093C67.5871 31.3658 67.6849 31.6032 67.6845 31.8543V35.9651C67.6845 36.0469 67.7508 36.1125 67.8319 36.1128C67.913 36.1128 67.9793 36.0469 67.9793 35.9651V31.8543C67.9793 31.5232 67.8508 31.2136 67.6175 30.9795C67.3834 30.7458 67.0738 30.6173 66.743 30.6173C66.4167 30.618 66.1097 30.7428 65.8767 30.9717L65.5015 31.3454L65.4989 31.3477C65.4912 31.3532 65.4856 31.3577 65.4804 31.3625L64.2719 32.5688L64.2612 32.5817L64.2597 32.5836C64.0193 32.8247 63.8993 33.141 63.8993 33.4573C63.8993 33.7736 64.0197 34.0906 64.2604 34.3314C64.4941 34.5647 64.8034 34.6925 65.1345 34.6925C65.4656 34.6925 65.7756 34.5647 66.0112 34.3299C66.2508 34.0888 66.3704 33.7725 66.3708 33.4566C66.3708 33.1395 66.2508 32.8232 66.0097 32.5821L65.9182 32.4914L66.223 32.1866L66.3141 32.278C66.6282 32.5914 66.8019 33.0106 66.8015 33.4566C66.8015 33.9025 66.6282 34.3214 66.3138 34.6358C66.0004 34.9499 65.5812 35.1232 65.1349 35.1232C64.6886 35.1232 64.2704 34.9499 63.956 34.6358C63.6312 34.3114 63.4656 33.8869 63.4656 33.4595C63.4656 33.0821 63.5949 32.7028 63.856 32.3884L63.8575 32.3866L64.1326 32.111C64.1393 32.104 64.1467 32.0951 64.1534 32.0847L64.1563 32.0803L64.8426 31.3928L64.8445 31.391C64.853 31.3847 64.8589 31.3799 64.863 31.3758L65.5641 30.6743C65.8789 30.3599 66.2978 30.1862 66.7426 30.1862C67.1875 30.1862 67.6071 30.3606 67.9212 30.6747C68.2363 30.9895 68.4104 31.4091 68.41 31.8584V35.9651C68.41 36.0062 68.4267 36.0428 68.4534 36.0699C68.48 36.0965 68.5167 36.1128 68.5575 36.1128C68.6386 36.1128 68.7049 36.0469 68.7049 35.9651V31.8447V31.844ZM65.2875 33.608C65.2467 33.6495 65.1915 33.6714 65.1349 33.6714C65.0782 33.6714 65.023 33.6488 64.9826 33.608C64.9415 33.5669 64.9204 33.5121 64.9204 33.4569C64.9204 33.4088 64.9367 33.3599 64.9689 33.3195L64.9704 33.3173L65.1323 33.1536C65.1323 33.1536 65.2763 33.2921 65.2878 33.3028C65.3293 33.3451 65.3504 33.4006 65.3504 33.4554C65.3504 33.5103 65.3293 33.5654 65.2878 33.6077M66.7256 32.3069C66.6638 32.2225 66.5956 32.1417 66.5226 32.0684L66.3734 31.918L66.5908 31.7006C66.6182 31.6736 66.6482 31.6573 66.6752 31.6488C66.7023 31.6395 66.726 31.6377 66.743 31.6377C66.76 31.6377 66.7841 31.6399 66.8108 31.6488C66.8378 31.6577 66.8682 31.674 66.8952 31.701C66.9226 31.7277 66.9389 31.7584 66.9478 31.7862C66.9567 31.8143 66.9589 31.8399 66.9589 31.8588V32.6295L66.7256 32.3073V32.3069Z" fill="#B98D77"/>
<path d="M88.0878 35.8558L84.4119 32.1795L84.4108 32.1784C84.373 32.1347 84.3389 32.0969 84.303 32.061H84.3026L83.2789 31.0373L83.2782 31.0365C83.2737 31.0321 83.2685 31.0276 83.2623 31.0232L83.2593 31.0206L82.6956 30.4587C82.3241 30.0869 81.8319 29.8828 81.3074 29.8828C80.783 29.8828 80.2915 30.0869 79.9204 30.4576C79.5515 30.8258 79.3482 31.315 79.3456 31.8361L79.3452 35.9561C79.3452 36.038 79.4115 36.1036 79.4926 36.1039C79.5334 36.1039 79.57 36.0873 79.5967 36.061C79.6234 36.0339 79.6397 35.9976 79.6397 35.9561V31.8495C79.6397 31.4002 79.8137 30.981 80.1289 30.6658C80.4437 30.3517 80.8626 30.1773 81.3074 30.1773C81.7523 30.1773 82.1715 30.3506 82.486 30.6654L83.1874 31.3669C83.1915 31.371 83.1974 31.3758 83.2056 31.3821L83.2078 31.3839L83.8941 32.0713L83.8971 32.0758C83.9041 32.0861 83.9111 32.095 83.9178 32.1021L84.193 32.3776L84.1945 32.3795C84.4552 32.6939 84.5848 33.0732 84.5845 33.4506C84.5845 33.8776 84.4193 34.3021 84.0945 34.6269C83.7804 34.941 83.3611 35.1143 82.9156 35.1143C82.47 35.1143 82.0497 34.941 81.7367 34.6269C81.4223 34.3124 81.2489 33.8936 81.2489 33.4476C81.2489 33.0017 81.4223 32.5828 81.7363 32.2691L81.8271 32.1776L82.1323 32.4824L82.0408 32.5732C81.8 32.8139 81.6797 33.1302 81.6797 33.4473C81.6797 33.7643 81.7993 34.0791 82.0393 34.3206C82.2748 34.5554 82.5845 34.6832 82.9156 34.6832C83.2467 34.6832 83.556 34.5554 83.7897 34.3221C84.0304 34.0813 84.1508 33.7647 84.1508 33.448C84.1508 33.1313 84.0304 32.8154 83.79 32.5743L83.7882 32.5724L83.7774 32.5595L82.5689 31.3532C82.5641 31.3484 82.5582 31.3439 82.5508 31.3384L82.5482 31.3361L82.173 30.9621C81.94 30.7336 81.6334 30.6087 81.3067 30.6076C80.976 30.6076 80.666 30.7361 80.4323 30.9698C80.1986 31.2039 80.0704 31.5136 80.07 31.8447V35.9554C80.0704 36.0373 80.1363 36.1028 80.2178 36.1032C80.2993 36.1032 80.3652 36.0373 80.3652 35.9554V31.8447C80.3652 31.5936 80.463 31.3561 80.6404 31.1784H80.6408C80.8186 31.001 81.0552 30.9028 81.3063 30.9028C81.5574 30.9028 81.7945 31.0013 81.9723 31.1784L82.3578 31.5639V31.5647C82.3626 31.5691 82.3678 31.5736 82.3756 31.5791L82.3782 31.581L83.5804 32.7821C83.7571 32.9591 83.8556 33.1954 83.8556 33.4465H83.856V33.4473V33.4495C83.856 33.7006 83.7582 33.9365 83.5808 34.1136C83.4034 34.2906 83.1667 34.3891 82.9156 34.3891C82.6645 34.3891 82.4271 34.2906 82.2497 34.1139C82.066 33.9298 81.9737 33.6876 81.9737 33.4465C81.9737 33.2054 82.066 32.9647 82.2493 32.7817L82.34 32.6902L82.6452 32.9958L82.5545 33.0869C82.4545 33.1869 82.4045 33.3161 82.4045 33.4469C82.4045 33.5698 82.4493 33.6928 82.5389 33.7913L82.5397 33.7924L82.5404 33.7939C82.5474 33.8024 82.55 33.805 82.5515 33.8065L82.5526 33.8076V33.8084C82.6489 33.9039 82.7811 33.9528 82.9148 33.9528C83.0485 33.9528 83.1804 33.9039 83.2756 33.8091C83.3752 33.7091 83.4248 33.5795 83.4248 33.4487C83.4248 33.3254 83.3804 33.2021 83.2911 33.1039L83.29 33.1032V33.1024C83.2823 33.0943 83.2793 33.0906 83.2748 33.0861L81.7978 31.6091C81.7915 31.6032 81.786 31.5984 81.7811 31.595L81.7778 31.5924L81.6682 31.4839C81.573 31.388 81.4408 31.3398 81.3078 31.3398C81.1748 31.3398 81.0423 31.3884 80.9467 31.4839C80.8571 31.5739 80.8045 31.6936 80.7989 31.8206V31.8221L80.7982 31.8243C80.7971 31.835 80.7967 31.8387 80.7967 31.845V35.9558C80.7967 35.9969 80.813 36.0336 80.84 36.0606C80.8667 36.0873 80.9034 36.1036 80.9441 36.1036C81.0256 36.1036 81.0915 36.0376 81.0919 35.9558V34.2743L81.3248 34.5965C81.3863 34.6821 81.4545 34.7621 81.5278 34.835L81.5363 34.8447C81.906 35.2091 82.3941 35.4091 82.9148 35.4091C83.44 35.4091 83.9315 35.2054 84.3019 34.8354L84.3026 34.8347C84.3189 34.8187 84.3345 34.8024 84.3504 34.7843L84.4404 34.6884L84.5389 34.7773L85.8119 36.0506C85.8389 36.0776 85.8774 36.0921 85.916 36.0921C85.9545 36.0921 85.993 36.0776 86.02 36.0506C86.0482 36.0221 86.063 35.9865 86.063 35.9469C86.063 35.9073 86.0482 35.871 86.02 35.8421L84.613 34.435L84.656 34.3517C84.6826 34.3002 84.7071 34.2473 84.7289 34.1939L84.8019 34.0154L86.8526 36.0654C86.8793 36.0921 86.9174 36.1065 86.9571 36.1065C86.9967 36.1065 87.0348 36.0921 87.0611 36.0654C87.0897 36.0365 87.1041 35.9991 87.1041 35.961C87.1041 35.9228 87.09 35.8854 87.0611 35.8569L84.8634 33.6598L84.8689 33.601C84.873 33.5491 84.8745 33.4976 84.8745 33.4469C84.8745 33.4228 84.8745 33.3987 84.8734 33.3754L84.8615 33.0473L87.8774 36.0643C87.9045 36.091 87.943 36.1054 87.9823 36.1054C88.0215 36.1054 88.0597 36.091 88.0863 36.0643C88.1145 36.0354 88.1293 35.9991 88.1293 35.9595C88.1293 35.9198 88.1137 35.8828 88.0863 35.8554M82.7626 33.2958H82.763C82.7737 33.2847 82.9182 33.1465 82.9182 33.1465L83.08 33.3102L83.0815 33.3124C83.1141 33.3528 83.1304 33.4017 83.1304 33.4498C83.1304 33.5047 83.1093 33.5595 83.0678 33.601C83.0274 33.6413 82.973 33.6643 82.9156 33.6643C82.8582 33.6643 82.8037 33.6424 82.763 33.601H82.7626C82.7211 33.5587 82.7 33.5036 82.7 33.4487C82.7 33.3939 82.7204 33.3384 82.7626 33.2961M81.0923 31.851C81.0923 31.8321 81.0937 31.8065 81.103 31.7784C81.1119 31.7506 81.1282 31.7198 81.1556 31.6932C81.1826 31.6661 81.2126 31.6498 81.24 31.641C81.2671 31.6317 81.2908 31.6298 81.3082 31.6298C81.3256 31.6298 81.3489 31.6321 81.376 31.641C81.4026 31.6498 81.433 31.6661 81.4608 31.6928L81.6778 31.9102L81.5286 32.0606C81.4556 32.1343 81.3874 32.2147 81.3256 32.2995L81.0926 32.6217V31.851H81.0923Z" fill="#B98D77"/>
</g>
<defs>
<filter id="filter0_d_1850_99330" x="0.875" y="0.65625" width="115.25" height="66.25" filterUnits="userSpaceOnUse" color-interpolation-filters="sRGB">
<feFlood flood-opacity="0" result="BackgroundImageFix"/>
<feColorMatrix in="SourceAlpha" type="matrix" values="0 0 0 0 0 0 0 0 0 0 0 0 0 0 0 0 0 0 127 0" result="hardAlpha"/>
<feOffset dy="0.78125"/>
<feGaussianBlur stdDeviation="1.5625"/>
<feComposite in2="hardAlpha" operator="out"/>
<feColorMatrix type="matrix" values="0 0 0 0 0 0 0 0 0 0 0 0 0 0 0 0 0 0 0.08 0"/>
<feBlend mode="normal" in2="BackgroundImageFix" result="effect1_dropShadow_1850_99330"/>
<feBlend mode="normal" in="SourceGraphic" in2="effect1_dropShadow_1850_99330" result="shape"/>
</filter>
</defs>
</svg>
