<svg width="117" height="67" viewBox="0 0 117 67" fill="none" xmlns="http://www.w3.org/2000/svg">
<g filter="url(#filter0_d_1850_101278)">
<rect width="109" height="60" transform="translate(4 3)" fill="white"/>
<path d="M60.1382 41.0188C60.1499 42.7357 59.3696 43.6566 58.4592 43.6566H53.0322V33.836H58.0689C58.987 33.8287 59.7634 34.7564 59.7518 36.4665C59.7518 37.4091 59.5153 38.1323 59.137 38.5782C59.7362 38.9364 60.1382 39.784 60.1382 41.0188ZM55.2274 36.1692V37.4891H57.4896C57.6668 37.4896 57.8129 37.1535 57.8129 36.8247C57.8129 36.4959 57.6673 36.1671 57.4896 36.1671L55.2274 36.1692ZM57.8761 41.4111C58.0533 41.4111 58.1994 40.9898 58.1994 40.661C58.1994 40.3322 58.0537 40.0034 57.8761 40.0034H55.2274V41.4026L57.8761 41.4111Z" fill="#E81D2C"/>
<path d="M51.2157 43.5643L51.1595 43.4723C51.281 43.4076 51.3415 43.3326 51.3415 43.2474C51.3415 43.2112 51.3329 43.1767 51.3156 43.1448C51.2983 43.1128 51.2754 43.0886 51.2464 43.0719C51.2175 43.0553 51.1868 43.0468 51.1544 43.0468C51.1176 43.0468 51.0813 43.0592 51.0459 43.0839C50.997 43.1175 50.9382 43.1797 50.869 43.2696C50.7999 43.3599 50.7497 43.4165 50.7186 43.4387C50.6667 43.477 50.6105 43.4962 50.55 43.4962C50.502 43.4962 50.4584 43.4851 50.419 43.4625C50.3797 43.4399 50.3486 43.408 50.3257 43.3671C50.3027 43.3258 50.2915 43.2815 50.2915 43.2334C50.2915 43.1823 50.3045 43.1346 50.33 43.0898C50.3559 43.0451 50.403 42.9983 50.4718 42.9484L50.5401 43.037C50.4852 43.0779 50.4489 43.1124 50.4316 43.1414C50.4143 43.1699 50.4052 43.2014 50.4052 43.2355C50.4052 43.2794 50.4186 43.3152 50.4458 43.3428C50.4726 43.3705 50.5059 43.3846 50.5453 43.3846C50.569 43.3846 50.5924 43.3795 50.6149 43.3697C50.6373 43.3599 50.662 43.342 50.6883 43.3156C50.7022 43.3015 50.7389 43.2547 50.7982 43.1754C50.8686 43.0817 50.9313 43.017 50.9862 42.9821C51.0411 42.9472 51.0964 42.9297 51.1518 42.9297C51.2317 42.9297 51.3009 42.9595 51.3597 43.0191C51.4185 43.0788 51.4479 43.1516 51.4479 43.2372C51.4479 43.3032 51.4302 43.3629 51.3943 43.4165C51.3588 43.4702 51.2987 43.5196 51.2149 43.5647L51.2157 43.5643Z" fill="#E81D2C"/>
<path d="M50.3198 42.5771V42.4689H50.9846C51.0633 42.4689 51.1126 42.4672 51.132 42.4642C51.1753 42.4587 51.2116 42.4463 51.241 42.4267C51.2699 42.4071 51.2946 42.3769 51.3145 42.336C51.3344 42.2951 51.3439 42.2542 51.3439 42.2129C51.3439 42.1771 51.3361 42.1426 51.3205 42.1098C51.305 42.077 51.2838 42.0493 51.2561 42.0272C51.2289 42.005 51.1956 41.9889 51.1567 41.9786C51.1286 41.9714 51.0715 41.9676 50.9846 41.9676H50.3198V41.8594H50.9846C51.0828 41.8594 51.1623 41.8687 51.2228 41.8879C51.2833 41.9067 51.3361 41.9446 51.381 42.0016C51.426 42.0583 51.4485 42.1273 51.4485 42.2078C51.4485 42.2955 51.4273 42.3701 51.3849 42.4327C51.3426 42.4953 51.2864 42.537 51.2163 42.5579C51.1735 42.5711 51.0962 42.5779 50.9842 42.5779H50.3193L50.3198 42.5771Z" fill="#E81D2C"/>
<path d="M51.2157 41.5956L51.1595 41.5036C51.281 41.4388 51.3415 41.3639 51.3415 41.2787C51.3415 41.2425 51.3329 41.208 51.3156 41.176C51.2983 41.1441 51.2754 41.1198 51.2464 41.1032C51.2175 41.0866 51.1868 41.0781 51.1544 41.0781C51.1176 41.0781 51.0813 41.0904 51.0459 41.1151C50.997 41.1488 50.9382 41.211 50.869 41.3008C50.7999 41.3911 50.7497 41.4478 50.7186 41.4699C50.6667 41.5083 50.6105 41.5274 50.55 41.5274C50.502 41.5274 50.4584 41.5163 50.419 41.4938C50.3797 41.4712 50.3486 41.4393 50.3257 41.3984C50.3027 41.357 50.2915 41.3128 50.2915 41.2646C50.2915 41.2135 50.3045 41.1658 50.33 41.1211C50.3559 41.0764 50.403 41.0295 50.4718 40.9797L50.5401 41.0683C50.4852 41.1092 50.4489 41.1437 50.4316 41.1726C50.4143 41.2012 50.4052 41.2327 50.4052 41.2668C50.4052 41.3106 50.4186 41.3464 50.4458 41.3741C50.4726 41.4018 50.5059 41.4158 50.5453 41.4158C50.569 41.4158 50.5924 41.4107 50.6149 41.4009C50.6373 41.3911 50.662 41.3732 50.6883 41.3468C50.7022 41.3328 50.7389 41.2859 50.7982 41.2067C50.8686 41.113 50.9313 41.0483 50.9862 41.0133C51.0411 40.9784 51.0964 40.9609 51.1518 40.9609C51.2317 40.9609 51.3009 40.9908 51.3597 41.0504C51.4185 41.11 51.4479 41.1828 51.4479 41.2685C51.4479 41.3345 51.4302 41.3941 51.3943 41.4478C51.3588 41.5014 51.2987 41.5508 51.2149 41.596L51.2157 41.5956Z" fill="#E81D2C"/>
<path d="M50.3198 40.613V40.5048H50.7815V39.9524H50.3198V39.8438H51.4209V39.9524H50.8896V40.5048H51.4209V40.613H50.3198Z" fill="#E81D2C"/>
<path d="M50.3198 39.4832V39.375H51.4209V39.4832H50.3198Z" fill="#E81D2C"/>
<path d="M51.2188 38.9278L51.2667 38.8281L51.5499 38.9776L51.5183 39.0505L51.2188 38.9274V38.9278Z" fill="#E81D2C"/>
<path d="M51.4209 37.9527H50.3198V37.7278C50.3198 37.5655 50.3332 37.448 50.3596 37.3747C50.3972 37.2695 50.462 37.1873 50.5541 37.1281C50.6466 37.0689 50.7564 37.0391 50.8844 37.0391C50.9946 37.0391 51.0919 37.0625 51.1758 37.1093C51.2596 37.1562 51.3214 37.2175 51.3616 37.2925C51.4018 37.3675 51.4217 37.4727 51.4217 37.6077V37.9531L51.4209 37.9527ZM51.3167 37.8487V37.7235C51.3167 37.5736 51.3072 37.4697 51.2882 37.4113C51.2614 37.3295 51.2129 37.2657 51.1429 37.2188C51.0729 37.172 50.9873 37.149 50.8861 37.149C50.7798 37.149 50.689 37.1745 50.6138 37.2248C50.5386 37.275 50.4867 37.3462 50.459 37.4365C50.4383 37.5042 50.4275 37.6162 50.4275 37.7721V37.8487H51.3167Z" fill="#E81D2C"/>
<path d="M50.3198 36.7332V36.625H51.4209V36.7332H50.3198Z" fill="#E81D2C"/>
<path d="M51.4209 36.3105L50.3198 36.155V36.1375L51.2233 35.6967L50.3198 35.2597V35.2423L51.4209 35.0859V35.1924L50.6332 35.2998L51.4209 35.6835V35.7112L50.6272 36.0992L51.4209 36.2057V36.3105Z" fill="#E81D2C"/>
<path d="M51.2157 34.3382L51.1595 34.2458C51.281 34.181 51.3415 34.106 51.3415 34.0209C51.3415 33.9847 51.3329 33.9502 51.3156 33.9182C51.2983 33.8863 51.2754 33.862 51.2464 33.8454C51.2175 33.8288 51.1868 33.8203 51.1544 33.8203C51.1176 33.8203 51.0813 33.8326 51.0459 33.8573C50.997 33.8914 50.9382 33.9531 50.869 34.043C50.7999 34.1333 50.7497 34.19 50.7186 34.2121C50.6667 34.2504 50.6105 34.2696 50.55 34.2696C50.502 34.2696 50.4584 34.2581 50.419 34.2355C50.3797 34.213 50.3486 34.181 50.3257 34.1401C50.3027 34.0992 50.2915 34.0545 50.2915 34.0064C50.2915 33.9553 50.3045 33.9076 50.33 33.8628C50.3559 33.8186 50.403 33.7713 50.4718 33.7214L50.5401 33.81C50.4852 33.8509 50.4489 33.8854 50.4316 33.9144C50.4143 33.9433 50.4052 33.9744 50.4052 34.0085C50.4052 34.0524 50.4186 34.0882 50.4458 34.1158C50.4726 34.1435 50.5059 34.1576 50.5453 34.1576C50.569 34.1576 50.5924 34.1525 50.6149 34.1427C50.6373 34.1329 50.662 34.115 50.6883 34.089C50.7022 34.075 50.7389 34.0281 50.7982 33.9489C50.8686 33.8548 50.9313 33.7904 50.9862 33.7555C51.0411 33.7206 51.0964 33.7031 51.1518 33.7031C51.2317 33.7031 51.3009 33.7329 51.3597 33.7926C51.4185 33.8522 51.4479 33.925 51.4479 34.0106C51.4479 34.0767 51.4302 34.1363 51.3943 34.19C51.3588 34.2436 51.2987 34.293 51.2149 34.3382H51.2157Z" fill="#E81D2C"/>
<path d="M50.3198 33.3587V33.2501H50.9846C51.0633 33.2501 51.1126 33.2488 51.132 33.2459C51.1753 33.2403 51.2116 33.228 51.241 33.2084C51.2699 33.1888 51.2946 33.1586 51.3145 33.1177C51.3344 33.0768 51.3439 33.0359 51.3439 32.9946C51.3439 32.9588 51.3361 32.9243 51.3205 32.8915C51.305 32.8587 51.2838 32.831 51.2561 32.8089C51.2289 32.7867 51.1956 32.7705 51.1567 32.7603C51.1286 32.7531 51.0715 32.7492 50.9846 32.7492H50.3198V32.6406H50.9846C51.0828 32.6406 51.1623 32.65 51.2228 32.6692C51.2833 32.6879 51.3361 32.7258 51.381 32.7829C51.426 32.8395 51.4485 32.9085 51.4485 32.989C51.4485 33.0768 51.4273 33.1517 51.3849 33.2139C51.3426 33.2765 51.2864 33.3183 51.2163 33.3391C51.1735 33.3523 51.0962 33.3592 50.9842 33.3592H50.3193L50.3198 33.3587Z" fill="#E81D2C"/>
<path d="M51.4209 32.3109L50.3198 32.1554V32.138L51.2233 31.6967L50.3198 31.2597V31.2423L51.4209 31.0859V31.1924L50.6332 31.2998L51.4209 31.6835V31.7112L50.6272 32.0992L51.4209 32.2057V32.3105V32.3109Z" fill="#E81D2C"/>
<path d="M51.2157 30.8694L51.1595 30.777C51.281 30.7123 51.3415 30.6373 51.3415 30.5521C51.3415 30.5159 51.3329 30.4814 51.3156 30.4495C51.2983 30.4175 51.2754 30.3932 51.2464 30.3766C51.2175 30.36 51.1868 30.3515 51.1544 30.3515C51.1176 30.3515 51.0813 30.3639 51.0459 30.3886C50.997 30.4226 50.9382 30.4844 50.869 30.5743C50.7999 30.6646 50.7497 30.7212 50.7186 30.7434C50.6667 30.7817 50.6105 30.8009 50.55 30.8009C50.502 30.8009 50.4584 30.7894 50.419 30.7668C50.3797 30.7442 50.3486 30.7123 50.3257 30.6714C50.3027 30.6305 50.2915 30.5858 50.2915 30.5376C50.2915 30.4865 50.3045 30.4388 50.33 30.3941C50.3559 30.3498 50.403 30.3025 50.4718 30.2527L50.5401 30.3413C50.4852 30.3822 50.4489 30.4167 50.4316 30.4456C50.4143 30.4746 50.4052 30.5057 50.4052 30.5398C50.4052 30.5836 50.4186 30.6194 50.4458 30.6471C50.4726 30.6748 50.5059 30.6888 50.5453 30.6888C50.569 30.6888 50.5924 30.6837 50.6149 30.6739C50.6373 30.6641 50.662 30.6462 50.6883 30.6203C50.7022 30.6062 50.7389 30.5594 50.7982 30.4801C50.8686 30.386 50.9313 30.3217 50.9862 30.2868C51.0411 30.2518 51.0964 30.2344 51.1518 30.2344C51.2317 30.2344 51.3009 30.2642 51.3597 30.3238C51.4185 30.3834 51.4479 30.4563 51.4479 30.5419C51.4479 30.6079 51.4302 30.6675 51.3943 30.7212C51.3588 30.7749 51.2987 30.8243 51.2149 30.8694H51.2157Z" fill="#E81D2C"/>
<path d="M51.0139 28.5418L51.093 28.4681C51.1354 28.5154 51.1721 28.5601 51.2028 28.6027C51.2305 28.5733 51.2681 28.5346 51.3165 28.4873C51.3546 28.4498 51.3891 28.4175 51.4211 28.3906V28.5418L51.2707 28.6858C51.3446 28.7761 51.3926 28.8498 51.4151 28.906C51.4376 28.9626 51.4488 29.0223 51.4488 29.0853C51.4488 29.1688 51.4246 29.2361 51.3757 29.2868C51.3269 29.3375 51.2664 29.3626 51.1933 29.3626C51.1384 29.3626 51.0835 29.3456 51.0282 29.3115C50.9729 29.2774 50.9033 29.2076 50.819 29.1023C50.7459 29.1616 50.6923 29.1999 50.6577 29.2169C50.6231 29.234 50.5898 29.2425 50.5587 29.2425C50.5038 29.2425 50.4584 29.2216 50.4225 29.1799C50.3806 29.1317 50.3599 29.0717 50.3599 28.9997C50.3599 28.9546 50.3689 28.9132 50.3875 28.8758C50.4061 28.8383 50.4308 28.8097 50.4619 28.7901C50.493 28.7706 50.5263 28.7608 50.5609 28.7608C50.5976 28.7608 50.637 28.7735 50.6789 28.7991C50.7208 28.8246 50.774 28.8753 50.8388 28.9503L51.0139 28.7859L51.125 28.6781C51.0818 28.6202 51.045 28.5746 51.0139 28.5414V28.5418ZM50.7563 29.018C50.7148 28.9652 50.6741 28.9256 50.6344 28.8992C50.6058 28.8804 50.5808 28.8711 50.5587 28.8711C50.5332 28.8711 50.5112 28.8834 50.493 28.9077C50.4744 28.932 50.4653 28.9643 50.4653 29.0048C50.4653 29.0453 50.4749 29.0747 50.4939 29.0989C50.5129 29.1232 50.5354 29.1351 50.5613 29.1351C50.5812 29.1351 50.5998 29.13 50.6175 29.1202C50.6599 29.096 50.7066 29.0619 50.7567 29.018H50.7563ZM50.902 29.0308C50.9724 29.1228 51.0286 29.1833 51.0701 29.2118C51.1116 29.2403 51.1505 29.2548 51.186 29.2548C51.2279 29.2548 51.2651 29.2374 51.2971 29.2024C51.3295 29.1675 51.3455 29.1245 51.3455 29.0738C51.3455 29.0355 51.3377 28.9976 51.3217 28.9605C51.2962 28.9026 51.253 28.8357 51.192 28.7608L51.0131 28.932C50.9815 28.9614 50.9448 28.9946 50.9024 29.0308H50.902Z" fill="#E81D2C"/>
<path d="M51.4209 27.0921L50.3198 26.9367V26.9192L51.2233 26.478L50.3198 26.041V26.0235L51.4209 25.8672V25.9737L50.6332 26.081L51.4209 26.4648V26.4924L50.6272 26.8805L51.4209 26.9869V27.0917V27.0921Z" fill="#E81D2C"/>
<path d="M50.292 25.0241C50.292 24.8597 50.3478 24.7222 50.4589 24.6114C50.57 24.5007 50.707 24.4453 50.87 24.4453C51.0329 24.4453 51.1678 24.5007 51.2802 24.611C51.3926 24.7213 51.4488 24.8559 51.4488 25.0152C51.4488 25.1745 51.393 25.3121 51.2811 25.4224C51.1691 25.5331 51.0342 25.5885 50.8756 25.5885C50.7697 25.5885 50.6715 25.5634 50.5812 25.5127C50.4908 25.4624 50.4199 25.3934 50.3689 25.3065C50.3179 25.2192 50.292 25.1251 50.292 25.0237V25.0241ZM50.3992 25.0195C50.3992 25.0995 50.4204 25.1758 50.4627 25.2478C50.5051 25.3197 50.5626 25.376 50.6344 25.416C50.7061 25.4565 50.7865 25.4765 50.8747 25.4765C51.0057 25.4765 51.1159 25.4318 51.2063 25.3423C51.2966 25.2529 51.3416 25.1451 51.3416 25.019C51.3416 24.9347 51.3208 24.8568 51.2793 24.7852C51.2378 24.7136 51.1812 24.6574 51.1095 24.6174C51.0377 24.5773 50.9577 24.5573 50.8695 24.5573C50.7813 24.5573 50.7031 24.5773 50.6322 24.6174C50.5613 24.6574 50.5051 24.7141 50.4623 24.7869C50.42 24.8597 50.3988 24.9373 50.3988 25.019L50.3992 25.0195Z" fill="#E81D2C"/>
<path d="M50.3198 24.1079V23.892C50.3198 23.7714 50.325 23.6896 50.335 23.647C50.3501 23.5827 50.3821 23.5303 50.4314 23.4899C50.4806 23.4494 50.5412 23.4294 50.6133 23.4294C50.6734 23.4294 50.7262 23.4435 50.7716 23.4711C50.817 23.4988 50.8515 23.5384 50.8745 23.5904C50.8978 23.6419 50.9095 23.7135 50.9099 23.8042L51.4213 23.4141V23.5482L50.9099 23.9384V23.9997H51.4213V24.1079H50.3203H50.3198ZM50.4279 23.9997H50.8023L50.8036 23.8127C50.8036 23.7403 50.7966 23.6867 50.7828 23.6522C50.769 23.6172 50.7465 23.5904 50.7158 23.5708C50.6851 23.5512 50.651 23.5418 50.6129 23.5418C50.5749 23.5418 50.5425 23.5516 50.5122 23.5712C50.4819 23.5908 50.4603 23.6168 50.4473 23.6487C50.4344 23.6807 50.4279 23.7339 50.4279 23.8085V23.9997Z" fill="#E81D2C"/>
<path d="M50.3198 23.0828V22.4609H50.4274V22.9742H50.7724V22.4652H50.88V22.9742H51.3127V22.4652H51.4204V23.0824H50.3193L50.3198 23.0828Z" fill="#E81D2C"/>
<path d="M66.7058 33.1273L66.7023 22.3459L64.6083 22.3446C64.6061 24.1539 64.6118 25.9701 64.6096 27.7794C64.6092 28.219 64.2798 28.6057 63.8358 28.6466C63.8133 28.6487 63.7913 28.65 63.7684 28.6504C63.745 28.6509 63.7217 28.6504 63.6983 28.6492C63.2371 28.6249 62.886 28.2283 62.886 27.7735V22.3438H60.7834V28.5435C60.7834 28.5435 60.8789 30.6655 62.5817 30.6561C63.0399 30.6536 63.5799 30.6766 64.607 30.6561C64.6338 30.6689 64.99 30.8431 65.0419 31.2264C65.0834 31.5348 64.9096 31.8474 64.607 31.9965C64.607 31.9965 63.8029 32.4126 62.3128 31.9701V31.9752C62.0872 31.8951 61.8607 31.7921 61.6367 31.6596C59.2868 30.2719 58.1987 27.1738 58.1987 27.1738C58.5026 27.0703 58.6716 26.4416 58.7482 26.0489C58.781 25.8849 58.7927 25.7188 58.7996 25.5523C58.813 25.2239 58.9232 24.9943 59.0521 24.835C59.2211 24.6254 59.4861 24.5117 59.7589 24.5117H60.1998V22.4017H58.8705C58.3716 22.4017 57.8818 22.5882 57.5412 22.9456C57.0121 23.501 56.9909 24.2553 56.8789 24.9112C56.7233 25.8231 56.0048 26.1464 56.0048 26.1464H55.209V22.3825H53.0726L53.0337 33.2249L55.2349 33.2121L55.228 28.2381H56.2763C56.2763 28.2381 58.0444 32.5915 61.7145 33.8838C61.9441 33.9647 62.1693 34.0312 62.3893 34.0852C62.3893 34.0852 63.9344 34.5163 65.3367 34.0852C66.7386 33.6542 66.7066 33.1269 66.7066 33.1269L66.7058 33.1273Z" fill="#E81D2C"/>
<path d="M66.7071 35.8729C66.7071 35.4338 66.3462 35.0781 65.9005 35.0781H61.6441C61.1997 35.0781 60.8392 35.4321 60.8375 35.8699L60.8306 37.6039V43.658H62.8597L62.8714 42.1591H64.6257L64.6278 43.6593H66.7076L66.7067 35.8733L66.7071 35.8729ZM62.8403 40.944V37.5413C62.8403 37.2009 63.1234 36.9249 63.4732 36.9245H63.9789C64.3282 36.9237 64.6118 37.1984 64.6131 37.5383L64.6261 40.944H62.8407H62.8403Z" fill="#E81D2C"/>
<path d="M64.7379 41.875H62.7969V42.8401H64.7379V41.875Z" fill="#E81D2C"/>
</g>
<defs>
<filter id="filter0_d_1850_101278" x="0.875" y="0.65625" width="115.25" height="66.25" filterUnits="userSpaceOnUse" color-interpolation-filters="sRGB">
<feFlood flood-opacity="0" result="BackgroundImageFix"/>
<feColorMatrix in="SourceAlpha" type="matrix" values="0 0 0 0 0 0 0 0 0 0 0 0 0 0 0 0 0 0 127 0" result="hardAlpha"/>
<feOffset dy="0.78125"/>
<feGaussianBlur stdDeviation="1.5625"/>
<feComposite in2="hardAlpha" operator="out"/>
<feColorMatrix type="matrix" values="0 0 0 0 0 0 0 0 0 0 0 0 0 0 0 0 0 0 0.08 0"/>
<feBlend mode="normal" in2="BackgroundImageFix" result="effect1_dropShadow_1850_101278"/>
<feBlend mode="normal" in="SourceGraphic" in2="effect1_dropShadow_1850_101278" result="shape"/>
</filter>
</defs>
</svg>
