<svg width="29" height="29" viewBox="0 0 29 29" fill="none" xmlns="http://www.w3.org/2000/svg">
<path d="M28.8799 0.257812V28.2578H0.879883V0.257812H28.8799Z" fill="white" fill-opacity="0.01"/>
<path d="M10.2131 9.58854H10.2153M10.2131 13.0885V18.9219M13.7131 11.9219V14.2556M13.7131 14.2556V18.9219M13.7131 14.2556C13.7131 13.6722 14.7828 12.1751 16.0464 11.9224C17.6572 11.6002 19.5464 12.5057 19.5464 14.2556V18.9223M7.54638 23.5885H22.2131C23.3176 23.5885 24.2131 22.6931 24.2131 21.5885V6.92188C24.2131 5.81731 23.3176 4.92188 22.2131 4.92188H7.54639C6.44182 4.92188 5.54639 5.8173 5.54639 6.92187V21.5885C5.54639 22.6931 6.44182 23.5885 7.54638 23.5885Z" stroke="#6D6D6D" stroke-width="1.5" stroke-linecap="round" stroke-linejoin="round"/>
</svg>
