<svg width="129" height="44" viewBox="0 0 129 44" fill="none" xmlns="http://www.w3.org/2000/svg">
<path d="M22.0877 4.36933C18.0442 4.36933 14.3207 5.74129 11.3542 8.03994C11.087 8.24587 11.0564 8.63826 11.2957 8.87759L11.8245 9.40633C12.0248 9.6067 12.3393 9.62061 12.5619 9.44808C15.2029 7.42493 18.5089 6.21716 22.0849 6.21716C25.6609 6.21716 28.9697 7.42771 31.6079 9.44808C31.8333 9.62061 32.1478 9.60392 32.3454 9.40633L32.8825 8.86924C33.1218 8.62991 33.0912 8.23752 32.824 8.02881C29.8575 5.73572 26.1257 4.36377 22.0849 4.36377L22.0877 4.36933Z" fill="#FBAE17"/>
<path d="M22.0904 5.07039C23.4905 5.07039 24.6256 3.93534 24.6256 2.53519C24.6256 1.13504 23.4905 0 22.0904 0C20.6902 0 19.5552 1.13504 19.5552 2.53519C19.5552 3.93534 20.6902 5.07039 22.0904 5.07039Z" fill="#FBAE17"/>
<path d="M33.0662 33.7953C32.8575 33.5865 32.5263 33.581 32.3037 33.773C29.5598 36.1356 25.9838 37.5688 22.0878 37.5688C18.1917 37.5688 14.6213 36.1412 11.8774 33.7646C11.6548 33.5726 11.3236 33.5782 11.1149 33.7841L10.5806 34.3156C10.3496 34.5466 10.3663 34.9223 10.6112 35.1366C13.689 37.8054 17.6992 39.4194 22.0878 39.4194C26.4764 39.4194 30.4865 37.8054 33.5643 35.1449C33.812 34.9307 33.8287 34.555 33.5977 34.3268L33.0662 33.7953Z" fill="#FBAE17"/>
<path d="M22.0904 43.6939C23.4905 43.6939 24.6256 42.5589 24.6256 41.1587C24.6256 39.7586 23.4905 38.6235 22.0904 38.6235C20.6902 38.6235 19.5552 39.7586 19.5552 41.1587C19.5552 42.5589 20.6902 43.6939 22.0904 43.6939Z" fill="#FBAE17"/>
<path d="M10.2103 11.6826C7.84212 14.4265 6.41452 17.9941 6.41452 21.8929C6.41452 25.4745 7.62506 28.775 9.65377 31.4159C9.82353 31.6413 9.80962 31.9558 9.60925 32.1562L9.07494 32.6905C8.83562 32.9298 8.44323 32.8992 8.23451 32.632C6.21136 30.0217 4.9062 26.8186 4.62235 23.3345C4.16596 23.9968 3.40345 24.4309 2.53798 24.4309C1.13541 24.4309 0 23.2955 0 21.8929C0 20.4904 1.13541 19.3577 2.53798 19.3577C3.40345 19.3577 4.16596 19.7919 4.62235 20.4542C4.93403 16.6305 6.47295 13.1603 8.84118 10.4247C9.05267 10.177 9.42836 10.1603 9.65934 10.3913L10.1881 10.9201C10.3968 11.1288 10.4024 11.4599 10.2103 11.6826Z" fill="white"/>
<path d="M56.022 32.1867C52.2707 32.1867 49.2151 29.2035 49.2151 25.5384V17.4848C49.2151 17.1787 49.4655 16.9282 49.7717 16.9282H52.6659C52.972 16.9282 53.2224 17.1787 53.2224 17.4848V25.5384C53.2224 26.9939 54.4775 28.1794 56.0192 28.1794C57.5609 28.1794 58.816 26.9939 58.816 25.5384V17.4848C58.816 17.1787 59.0665 16.9282 59.3726 16.9282H62.2668C62.5729 16.9282 62.8233 17.1787 62.8233 17.4848V25.5384C62.8233 29.2062 59.7705 32.1867 56.0192 32.1867H56.022Z" fill="white"/>
<path d="M45.3804 16.9282H42.4862C42.1801 16.9282 41.9296 17.1759 41.9296 17.4848V17.9134C40.8304 17.2956 39.5642 16.9449 38.2173 16.9449C34.0068 16.9449 30.5811 20.3679 30.5811 24.5783C30.5811 28.7888 34.0068 32.2118 38.2173 32.2118C39.5642 32.2118 40.8304 31.8611 41.9296 31.2433V37.1931C41.9296 37.4992 42.1801 37.7497 42.4862 37.7497H45.3804C45.6893 37.7497 45.9369 37.4992 45.9369 37.1931V17.4848C45.9369 17.1759 45.6893 16.9282 45.3804 16.9282ZM38.2173 28.2044C36.2164 28.2044 34.5912 26.5764 34.5912 24.5783C34.5912 22.5802 36.2164 20.9522 38.2173 20.9522C40.2181 20.9522 41.8434 22.5802 41.8434 24.5783C41.8434 26.5764 40.2154 28.2044 38.2173 28.2044Z" fill="white"/>
<path d="M97.729 11.4346H94.8348C94.5287 11.4346 94.2783 11.685 94.2783 11.9911V17.9131C93.179 17.2953 91.9128 16.9447 90.5659 16.9447C86.3554 16.9447 82.9297 20.3676 82.9297 24.5781C82.9297 28.7886 86.3554 32.2115 90.5659 32.2115C91.9128 32.2115 93.179 31.8608 94.2783 31.243V31.6994C94.2783 32.0083 94.5287 32.256 94.8348 32.256H97.729C98.0379 32.256 98.2856 32.0083 98.2856 31.6994V11.9911C98.2856 11.685 98.0379 11.4346 97.729 11.4346ZM90.5659 28.2042C88.565 28.2042 86.9398 26.5762 86.9398 24.5781C86.9398 22.58 88.565 20.952 90.5659 20.952C92.5668 20.952 94.1892 22.58 94.1892 24.5781C94.1892 26.5762 92.564 28.2042 90.5659 28.2042Z" fill="white"/>
<path d="M104.967 16.9229H102.073C101.766 16.9229 101.516 17.172 101.516 17.4794V31.6999C101.516 32.0073 101.766 32.2565 102.073 32.2565H104.967C105.275 32.2565 105.524 32.0073 105.524 31.6999V17.4794C105.524 17.172 105.275 16.9229 104.967 16.9229Z" fill="#FBAE17"/>
<path d="M79.8489 16.9282H76.9547C76.6458 16.9282 76.3981 17.1759 76.3981 17.4848V17.9134C75.2989 17.2956 74.0327 16.9449 72.683 16.9449C68.4753 16.9449 65.0496 20.3679 65.0496 24.5783C65.0496 28.7888 68.4753 32.2118 72.683 32.2118C74.0327 32.2118 75.2989 31.8611 76.3981 31.2433V31.6997C76.3981 32.0086 76.6458 32.2563 76.9547 32.2563H79.8489C80.155 32.2563 80.4055 32.0086 80.4055 31.6997V17.4848C80.4055 17.1759 80.155 16.9282 79.8489 16.9282ZM72.683 28.2044C70.6849 28.2044 69.0569 26.5764 69.0569 24.5783C69.0569 22.5802 70.6849 20.9522 72.683 20.9522C74.6811 20.9522 76.3091 22.5802 76.3091 24.5783C76.3091 26.5764 74.6839 28.2044 72.683 28.2044Z" fill="white"/>
<path d="M120.073 32.2117C115.862 32.2117 112.439 28.7859 112.439 24.5782C112.439 20.3705 115.865 16.9448 120.073 16.9448C124.28 16.9448 127.706 20.3705 127.706 24.5782C127.706 28.7859 124.28 32.2117 120.073 32.2117ZM120.073 20.9522C118.075 20.9522 116.447 22.5801 116.447 24.5782C116.447 26.5763 118.072 28.2043 120.073 28.2043C122.074 28.2043 123.699 26.5791 123.699 24.5782C123.699 22.5774 122.071 20.9522 120.073 20.9522Z" fill="#FBAE17"/>
<path d="M127.238 16.9282H124.344C124.037 16.9282 123.788 17.1774 123.788 17.4848V31.7025C123.788 32.0099 124.037 32.2591 124.344 32.2591H127.238C127.546 32.2591 127.795 32.0099 127.795 31.7025V17.4848C127.795 17.1774 127.546 16.9282 127.238 16.9282Z" fill="#FBAE17"/>
<path d="M108.844 20.9218C109.654 20.9218 110.402 21.1861 111.006 21.6342V17.3402C110.321 17.1343 109.595 17.0229 108.844 17.0229C105.746 17.0229 103.08 18.9014 101.92 21.5785C101.653 22.1991 101.806 22.4662 101.711 23.1592L102.04 23.5544H105.34C105.78 22.0349 107.182 20.9218 108.841 20.9218H108.844Z" fill="#FBAE17"/>
<path d="M17.8494 31.5298C16.7028 31.0456 15.7872 30.3276 15.0999 29.3787C14.521 28.5772 14.1704 27.6366 14.0563 26.5568C14.0201 26.2312 14.2845 25.9502 14.6101 25.9502H18.6703C18.9375 25.9502 19.1601 26.1422 19.2158 26.401C19.3354 26.9381 19.5636 27.3639 19.9059 27.6783C20.3372 28.0763 20.9022 28.2739 21.5979 28.2739C22.2936 28.2739 22.8752 28.1041 23.2899 27.7646C23.7045 27.4251 23.9105 26.9548 23.9105 26.3537C23.9105 25.85 23.7463 25.4326 23.4179 25.1042C23.0895 24.7758 22.686 24.5031 22.2046 24.2916C21.7259 24.0801 21.0441 23.8352 20.1591 23.5653C18.8818 23.159 17.8382 22.7526 17.0284 22.3436C16.2186 21.9373 15.5229 21.3362 14.9413 20.5403C14.3596 19.7472 14.0674 18.7091 14.0674 17.429C14.0674 15.5311 14.7353 14.0423 16.0683 12.9681C17.4041 11.8939 19.1406 11.354 21.2862 11.354C23.4318 11.354 25.224 11.8911 26.5597 12.9681C27.748 13.9254 28.4438 15.2139 28.6497 16.8391C28.6914 17.1702 28.4271 17.4596 28.0959 17.4596H23.9717C23.7157 17.4596 23.4847 17.2899 23.4318 17.0394C23.3344 16.5775 23.1173 16.199 22.7806 15.904C22.3493 15.5255 21.7927 15.3363 21.1164 15.3363C20.5348 15.3363 20.0645 15.4949 19.7055 15.815C19.3493 16.135 19.1684 16.5942 19.1684 17.1953C19.1684 17.8548 19.469 18.3669 20.0701 18.737C20.6712 19.1043 21.6118 19.5023 22.8892 19.928C24.1665 20.3733 25.2045 20.7991 26.006 21.2081C26.8046 21.6144 27.4948 22.2072 28.0792 22.9809C28.6608 23.7573 28.953 24.7535 28.953 25.9752C28.953 27.1969 28.6664 28.1932 28.0931 29.1449C27.5198 30.0939 26.6878 30.8508 25.5969 31.413C24.506 31.9751 23.2175 32.2562 21.7343 32.2562C20.251 32.2562 18.9903 32.0141 17.8438 31.5298H17.8494Z" fill="white"/>
<path d="M101.274 38.1561H102.184L102.997 39.2915C103.412 39.8676 104.322 41.1672 104.322 41.1672C104.322 41.1672 105.232 39.8787 105.638 39.2999L106.45 38.1533H107.36V43.9974H106.314V39.9399C106.314 39.9399 106.133 40.2655 105.755 40.8137L104.322 42.8703L102.869 40.797C102.507 40.2739 102.318 39.9399 102.318 39.9399V43.9974H101.271V38.1533L101.274 38.1561Z" fill="white"/>
<path d="M108.61 38.1562H113.146V39.0579H109.656V40.4827H112.948V41.376H109.656V43.0986H113.274V44.0003H108.61V38.1562Z" fill="white"/>
<path d="M114.112 38.1562H116.402C118.305 38.1562 119.505 39.4809 119.505 41.0783C119.505 42.6756 118.305 44.0003 116.402 44.0003H114.112V38.1562ZM116.357 43.0986C117.593 43.0986 118.414 42.2415 118.414 41.0783C118.414 39.915 117.593 39.0579 116.357 39.0579H115.158V43.0986H116.357Z" fill="white"/>
<path d="M120.523 38.1562H121.57V44.0003H120.523V38.1562Z" fill="white"/>
<path d="M124.926 38.1562H125.917L128.549 44.0003H127.486L127.027 42.9901H123.816L123.357 44.0003H122.293L124.926 38.1562ZM126.665 42.158L125.997 40.6441C125.744 40.0681 125.421 39.2833 125.421 39.2833C125.421 39.2833 125.107 40.0597 124.845 40.6441L124.177 42.158H126.668H126.665Z" fill="white"/>
</svg>
