<svg width="129" height="44" viewBox="0 0 129 44" fill="none" xmlns="http://www.w3.org/2000/svg">
<path d="M22.0876 4.36884C18.0441 4.36884 14.3206 5.7408 11.354 8.03945C11.0869 8.24539 11.0563 8.63777 11.2956 8.8771L11.8243 9.40585C12.0247 9.60621 12.3392 9.62013 12.5618 9.44759C15.2027 7.42444 18.5088 6.21668 22.0848 6.21668C25.6608 6.21668 28.9696 7.42722 31.6078 9.44759C31.8332 9.62013 32.1477 9.60343 32.3453 9.40585L32.8823 8.86875C33.1217 8.62943 33.0911 8.23704 32.8239 8.02832C29.8574 5.73523 26.1255 4.36328 22.0848 4.36328L22.0876 4.36884Z" fill="#FBAE17"/>
<path d="M22.0904 5.07039C23.4906 5.07039 24.6256 3.93534 24.6256 2.53519C24.6256 1.13504 23.4906 0 22.0904 0C20.6902 0 19.5552 1.13504 19.5552 2.53519C19.5552 3.93534 20.6902 5.07039 22.0904 5.07039Z" fill="#FBAE17"/>
<path d="M33.0661 33.7953C32.8574 33.5865 32.5262 33.581 32.3036 33.773C29.5597 36.1356 25.9837 37.5688 22.0876 37.5688C18.1916 37.5688 14.6212 36.1412 11.8773 33.7646C11.6547 33.5726 11.3235 33.5782 11.1148 33.7841L10.5805 34.3156C10.3495 34.5466 10.3662 34.9223 10.6111 35.1366C13.6889 37.8054 17.6991 39.4194 22.0876 39.4194C26.4762 39.4194 30.4864 37.8054 33.5642 35.1449C33.8119 34.9307 33.8286 34.555 33.5976 34.3268L33.0661 33.7953Z" fill="#FBAE17"/>
<path d="M22.0905 43.6939C23.4906 43.6939 24.6257 42.5589 24.6257 41.1587C24.6257 39.7586 23.4906 38.6235 22.0905 38.6235C20.6903 38.6235 19.5553 39.7586 19.5553 41.1587C19.5553 42.5589 20.6903 43.6939 22.0905 43.6939Z" fill="#FBAE17"/>
<path d="M10.2103 11.6826C7.84212 14.4265 6.41452 17.9941 6.41452 21.8929C6.41452 25.4745 7.62506 28.775 9.65377 31.4159C9.82353 31.6413 9.80962 31.9558 9.60925 32.1562L9.07494 32.6905C8.83562 32.9298 8.44323 32.8992 8.23451 32.632C6.21136 30.0217 4.9062 26.8186 4.62235 23.3345C4.16596 23.9968 3.40345 24.4309 2.53798 24.4309C1.13541 24.4309 0 23.2955 0 21.8929C0 20.4904 1.13541 19.3577 2.53798 19.3577C3.40345 19.3577 4.16596 19.7919 4.62235 20.4542C4.93403 16.6305 6.47295 13.1603 8.84118 10.4247C9.05267 10.177 9.42836 10.1603 9.65934 10.3913L10.1881 10.9201C10.3968 11.1288 10.4024 11.4599 10.2103 11.6826Z" fill="#06135B"/>
<path d="M56.022 32.1867C52.2707 32.1867 49.2151 29.2035 49.2151 25.5384V17.4848C49.2151 17.1787 49.4655 16.9282 49.7717 16.9282H52.6659C52.972 16.9282 53.2224 17.1787 53.2224 17.4848V25.5384C53.2224 26.9939 54.4775 28.1794 56.0192 28.1794C57.5609 28.1794 58.816 26.9939 58.816 25.5384V17.4848C58.816 17.1787 59.0665 16.9282 59.3726 16.9282H62.2668C62.5729 16.9282 62.8233 17.1787 62.8233 17.4848V25.5384C62.8233 29.2062 59.7705 32.1867 56.0192 32.1867H56.022Z" fill="#06135B"/>
<path d="M45.3803 16.9282H42.4861C42.18 16.9282 41.9295 17.1759 41.9295 17.4848V17.9134C40.8303 17.2956 39.5641 16.9449 38.2172 16.9449C34.0067 16.9449 30.581 20.3679 30.581 24.5783C30.581 28.7888 34.0067 32.2118 38.2172 32.2118C39.5641 32.2118 40.8303 31.8611 41.9295 31.2433V37.1931C41.9295 37.4992 42.18 37.7497 42.4861 37.7497H45.3803C45.6892 37.7497 45.9369 37.4992 45.9369 37.1931V17.4848C45.9369 17.1759 45.6892 16.9282 45.3803 16.9282ZM38.2172 28.2044C36.2163 28.2044 34.5911 26.5764 34.5911 24.5783C34.5911 22.5802 36.2163 20.9522 38.2172 20.9522C40.2181 20.9522 41.8433 22.5802 41.8433 24.5783C41.8433 26.5764 40.2153 28.2044 38.2172 28.2044Z" fill="#06135B"/>
<path d="M97.7289 11.4346H94.8348C94.5286 11.4346 94.2782 11.685 94.2782 11.9911V17.9131C93.179 17.2953 91.9127 16.9447 90.5658 16.9447C86.3553 16.9447 82.9296 20.3676 82.9296 24.5781C82.9296 28.7886 86.3553 32.2115 90.5658 32.2115C91.9127 32.2115 93.179 31.8608 94.2782 31.243V31.6994C94.2782 32.0083 94.5286 32.256 94.8348 32.256H97.7289C98.0378 32.256 98.2855 32.0083 98.2855 31.6994V11.9911C98.2855 11.685 98.0378 11.4346 97.7289 11.4346ZM90.5658 28.2042C88.5649 28.2042 86.9397 26.5762 86.9397 24.5781C86.9397 22.58 88.5649 20.952 90.5658 20.952C92.5667 20.952 94.1891 22.58 94.1891 24.5781C94.1891 26.5762 92.5639 28.2042 90.5658 28.2042Z" fill="#06135B"/>
<path d="M104.967 16.9224H102.073C101.766 16.9224 101.516 17.1716 101.516 17.4789V31.6994C101.516 32.0068 101.766 32.256 102.073 32.256H104.967C105.275 32.256 105.524 32.0068 105.524 31.6994V17.4789C105.524 17.1716 105.275 16.9224 104.967 16.9224Z" fill="#FBAE17"/>
<path d="M79.849 16.9282H76.9548C76.6459 16.9282 76.3982 17.1759 76.3982 17.4848V17.9134C75.299 17.2956 74.0328 16.9449 72.6831 16.9449C68.4754 16.9449 65.0497 20.3679 65.0497 24.5783C65.0497 28.7888 68.4754 32.2118 72.6831 32.2118C74.0328 32.2118 75.299 31.8611 76.3982 31.2433V31.6997C76.3982 32.0086 76.6459 32.2563 76.9548 32.2563H79.849C80.1551 32.2563 80.4056 32.0086 80.4056 31.6997V17.4848C80.4056 17.1759 80.1551 16.9282 79.849 16.9282ZM72.6831 28.2044C70.685 28.2044 69.057 26.5764 69.057 24.5783C69.057 22.5802 70.685 20.9522 72.6831 20.9522C74.6812 20.9522 76.3092 22.5802 76.3092 24.5783C76.3092 26.5764 74.684 28.2044 72.6831 28.2044Z" fill="#06135B"/>
<path d="M120.073 32.2117C115.862 32.2117 112.439 28.7859 112.439 24.5782C112.439 20.3705 115.865 16.9448 120.073 16.9448C124.28 16.9448 127.706 20.3705 127.706 24.5782C127.706 28.7859 124.28 32.2117 120.073 32.2117ZM120.073 20.9522C118.074 20.9522 116.446 22.5801 116.446 24.5782C116.446 26.5763 118.072 28.2043 120.073 28.2043C122.073 28.2043 123.699 26.5791 123.699 24.5782C123.699 22.5774 122.071 20.9522 120.073 20.9522Z" fill="#FBAE17"/>
<path d="M127.238 16.9282H124.344C124.037 16.9282 123.788 17.1774 123.788 17.4848V31.7025C123.788 32.0099 124.037 32.2591 124.344 32.2591H127.238C127.546 32.2591 127.795 32.0099 127.795 31.7025V17.4848C127.795 17.1774 127.546 16.9282 127.238 16.9282Z" fill="#FBAE17"/>
<path d="M108.844 20.9218C109.654 20.9218 110.402 21.1861 111.006 21.6342V17.3402C110.321 17.1343 109.595 17.0229 108.844 17.0229C105.746 17.0229 103.08 18.9014 101.92 21.5785C101.653 22.1991 101.806 22.4662 101.711 23.1592L102.04 23.5544H105.34C105.78 22.0349 107.182 20.9218 108.841 20.9218H108.844Z" fill="#FBAE17"/>
<path d="M17.8494 31.5298C16.7028 31.0456 15.7872 30.3276 15.0999 29.3787C14.521 28.5772 14.1704 27.6366 14.0563 26.5568C14.0201 26.2312 14.2845 25.9502 14.6101 25.9502H18.6703C18.9375 25.9502 19.1601 26.1422 19.2158 26.401C19.3354 26.9381 19.5636 27.3639 19.9059 27.6783C20.3372 28.0763 20.9022 28.2739 21.5979 28.2739C22.2936 28.2739 22.8752 28.1041 23.2899 27.7646C23.7045 27.4251 23.9105 26.9548 23.9105 26.3537C23.9105 25.85 23.7463 25.4326 23.4179 25.1042C23.0895 24.7758 22.686 24.5031 22.2046 24.2916C21.7259 24.0801 21.0441 23.8352 20.1591 23.5653C18.8818 23.159 17.8382 22.7526 17.0284 22.3436C16.2186 21.9373 15.5229 21.3362 14.9413 20.5403C14.3596 19.7472 14.0674 18.7091 14.0674 17.429C14.0674 15.5311 14.7353 14.0423 16.0683 12.9681C17.4041 11.8939 19.1406 11.354 21.2862 11.354C23.4318 11.354 25.224 11.8911 26.5597 12.9681C27.748 13.9254 28.4438 15.2139 28.6497 16.8391C28.6914 17.1702 28.4271 17.4596 28.0959 17.4596H23.9717C23.7157 17.4596 23.4847 17.2899 23.4318 17.0394C23.3344 16.5775 23.1173 16.199 22.7806 15.904C22.3493 15.5255 21.7927 15.3363 21.1164 15.3363C20.5348 15.3363 20.0645 15.4949 19.7055 15.815C19.3493 16.135 19.1684 16.5942 19.1684 17.1953C19.1684 17.8548 19.469 18.3669 20.0701 18.737C20.6712 19.1043 21.6118 19.5023 22.8892 19.928C24.1665 20.3733 25.2045 20.7991 26.006 21.2081C26.8046 21.6144 27.4948 22.2072 28.0792 22.9809C28.6608 23.7573 28.953 24.7535 28.953 25.9752C28.953 27.1969 28.6664 28.1932 28.0931 29.1449C27.5198 30.0939 26.6878 30.8508 25.5969 31.413C24.506 31.9751 23.2175 32.2562 21.7343 32.2562C20.251 32.2562 18.9903 32.0141 17.8438 31.5298H17.8494Z" fill="#06135B"/>
<path d="M101.274 38.1561H102.184L102.997 39.2915C103.412 39.8676 104.322 41.1672 104.322 41.1672C104.322 41.1672 105.232 39.8787 105.638 39.2999L106.45 38.1533H107.36V43.9974H106.314V39.9399C106.314 39.9399 106.133 40.2655 105.755 40.8137L104.322 42.8703L102.869 40.797C102.507 40.2739 102.318 39.9399 102.318 39.9399V43.9974H101.271V38.1533L101.274 38.1561Z" fill="#06135B"/>
<path d="M108.61 38.1558H113.146V39.0574H109.656V40.4822H112.948V41.3755H109.656V43.0981H113.274V43.9998H108.61V38.1558Z" fill="#06135B"/>
<path d="M114.112 38.1558H116.402C118.306 38.1558 119.505 39.4804 119.505 41.0778C119.505 42.6751 118.306 43.9998 116.402 43.9998H114.112V38.1558ZM116.357 43.0981C117.593 43.0981 118.414 42.241 118.414 41.0778C118.414 39.9145 117.593 39.0574 116.357 39.0574H115.158V43.0981H116.357Z" fill="#06135B"/>
<path d="M120.523 38.1558H121.57V43.9998H120.523V38.1558Z" fill="#06135B"/>
<path d="M124.926 38.1558H125.917L128.549 43.9998H127.486L127.027 42.9896H123.816L123.356 43.9998H122.293L124.926 38.1558ZM126.665 42.1575L125.997 40.6437C125.744 40.0676 125.421 39.2828 125.421 39.2828C125.421 39.2828 125.107 40.0592 124.845 40.6437L124.177 42.1575H126.668H126.665Z" fill="#06135B"/>
</svg>
