<svg width="117" height="67" viewBox="0 0 117 67" fill="none" xmlns="http://www.w3.org/2000/svg">
<g filter="url(#filter0_d_1850_101203)">
<rect width="109" height="60" transform="translate(4 3)" fill="white"/>
<path d="M39.9011 26.7385C39.9977 26.8776 40.1289 27.0797 40.2689 27.3411C40.2689 27.3411 40.3382 25.8547 41.0911 24.9792C41.0911 24.9792 40.6137 26.0641 40.5203 27.6146C40.5203 27.6146 40.8482 26.8594 42.119 26.3932C42.119 26.3932 42.6642 25.1104 41.7627 23.4766C41.4626 23.5901 41.1006 23.763 40.7296 24.0297C39.8938 24.6312 39.4656 25.3844 39.2642 25.8172C39.3172 25.9026 39.3985 26.0297 39.5013 26.1812C39.6792 26.4422 39.7705 26.5505 39.9006 26.7385H39.9011Z" fill="url(#paint0_linear_1850_101203)"/>
<path d="M41.2407 27.3922C40.9537 27.7203 40.8451 28.1687 40.8199 28.6026C40.7947 29.0365 40.8419 29.4724 40.8209 29.9068C40.7994 30.3411 40.7008 30.7901 40.4227 31.126C41.6515 30.2854 42.7329 29.251 43.5976 28.0437C43.4549 28.6271 43.0525 29.0802 42.6537 29.5312C41.7622 30.5391 40.8613 31.5557 39.7847 32.3635C39.7558 32.3849 39.7784 32.4297 39.813 32.4193C40.9427 32.0703 42.1201 31.6536 43.1028 31.0125C44.137 30.3375 45.0001 29.3021 45.1701 28.0854C45.2929 27.2083 44.9975 26.3146 44.7325 25.4688C44.0646 26.1438 43.1117 26.437 42.2271 26.7891C41.8651 26.9333 41.4962 27.0995 41.2407 27.3917V27.3922Z" fill="url(#paint1_linear_1850_101203)"/>
<path d="M46.3561 31.4677C45.7794 31.2057 45.1314 31.0442 44.5091 31.1666C43.8659 31.2932 43.3233 31.7036 42.785 32.0755C42.2855 32.4208 41.7335 32.7526 41.1327 32.7922C41.1076 32.7937 41.1028 32.8291 41.1275 32.8359C41.4796 32.9328 41.9786 33.026 42.5667 32.9849C43.3344 32.9312 43.6544 32.6911 44.369 32.6526C44.7657 32.6312 45.3549 32.6687 46.0937 32.9791C45.4982 32.8146 44.8628 32.8807 44.2568 33.001C43.6507 33.1213 43.0526 33.2953 42.4361 33.3442C41.2849 33.4359 40.1023 33.1109 38.97 33.3344C40.5288 33.6099 41.7335 35.0203 43.3107 35.163C44.3035 35.2526 45.2626 34.8187 46.1441 34.3567C47.0256 33.8948 47.9049 33.3661 48.8982 33.2807C48.1106 32.5953 47.3084 31.9005 46.3561 31.4677Z" fill="url(#paint2_linear_1850_101203)"/>
<path d="M37.8944 33.7266C37.8944 33.7266 37.9106 35.5745 37.7322 37.0531C37.5544 35.575 37.5701 33.7266 37.5701 33.7266C33.1181 34.337 34.9697 36.8682 35.5385 37.2776C36.2815 37.8125 37.7322 39.0719 37.7322 39.0719C37.7322 39.0719 39.183 37.8125 39.926 37.2776C40.4947 36.8682 42.3458 34.337 37.8944 33.7266Z" fill="url(#paint3_linear_1850_101203)"/>
<path d="M36.2751 31.8484C37.0522 32.4589 37.5538 33.0859 37.5538 33.0859C37.3759 31.8167 37.7317 27.8635 37.7317 27.8635C37.7317 27.8635 38.0879 31.8167 37.9095 33.0859C37.9095 33.0859 38.4111 32.4594 39.1882 31.8484C39.9653 31.238 40.9527 29.2292 39.5927 27.1885C38.2327 25.1479 37.7311 24.3281 37.7311 24.3281C37.7311 24.3281 37.2295 25.1474 35.8695 27.1885C34.5095 29.2292 35.497 31.238 36.2741 31.8484H36.2751Z" fill="url(#paint4_linear_1850_101203)"/>
<path d="M34.944 27.6146C34.8511 26.0641 34.3732 24.9792 34.3732 24.9792C35.1261 25.8547 35.1953 27.3411 35.1953 27.3411C35.3354 27.0797 35.4666 26.8776 35.5632 26.7385C35.6933 26.551 35.7846 26.4422 35.9624 26.1812C36.0658 26.0297 36.1466 25.9026 36.2001 25.8172C35.9986 25.3844 35.5705 24.6318 34.7347 24.0297C34.3637 23.7625 34.0022 23.5901 33.7015 23.4766C32.8007 25.1104 33.3453 26.3932 33.3453 26.3932C34.6161 26.8594 34.944 27.6146 34.944 27.6146Z" fill="url(#paint5_linear_1850_101203)"/>
<path d="M32.3619 31.012C33.3441 31.6531 34.522 32.0698 35.6517 32.4188C35.6858 32.4292 35.7084 32.3844 35.68 32.363C34.6034 31.5547 33.7025 30.5385 32.811 29.5307C32.4122 29.0797 32.0098 28.6266 31.8671 28.0432C32.7318 29.2505 33.8132 30.2849 35.042 31.1255C34.7644 30.7896 34.6653 30.3401 34.6438 29.9063C34.6222 29.4719 34.67 29.0365 34.6448 28.6021C34.6196 28.1682 34.511 27.7198 34.224 27.3917C33.9685 27.0995 33.5991 26.9333 33.2376 26.7891C32.353 26.437 31.4006 26.1438 30.7322 25.4688C30.4672 26.3146 30.1723 27.2078 30.2946 28.0854C30.4651 29.3026 31.3277 30.3375 32.3619 31.0125V31.012Z" fill="url(#paint6_linear_1850_101203)"/>
<path d="M33.0283 33.3443C32.4123 33.2954 31.8136 33.1219 31.2076 33.0011C30.6016 32.8808 29.9662 32.8146 29.3706 32.9792C30.1094 32.6688 30.6981 32.6318 31.0953 32.6526C31.8099 32.6907 32.13 32.9308 32.8976 32.9849C33.4863 33.0261 33.9853 32.9334 34.3368 32.836C34.3615 32.8292 34.3573 32.7938 34.3316 32.7922C33.7308 32.7526 33.1788 32.4209 32.6793 32.0756C32.141 31.7037 31.5985 31.2933 30.9552 31.1667C30.3329 31.0443 29.6849 31.2053 29.1083 31.4678C28.156 31.9006 27.3537 32.5954 26.5662 33.2808C27.5594 33.3662 28.4388 33.8948 29.3203 34.3568C30.2017 34.8188 31.1609 35.2526 32.1536 35.1631C33.7308 35.0204 34.9355 33.6099 36.4944 33.3344C35.3616 33.111 34.1789 33.436 33.0283 33.3443Z" fill="url(#paint7_linear_1850_101203)"/>
<path d="M48.6693 36.7693C48.6278 36.7693 48.6048 36.7547 48.6011 36.726C48.5969 36.6974 48.62 36.6828 48.6693 36.6828C48.9678 36.6667 49.1914 36.5781 49.3409 36.4172C49.4899 36.2568 49.5649 35.975 49.5649 35.5719V29.2521C49.5649 28.849 49.4904 28.5672 49.3409 28.4068C49.1919 28.2464 48.9678 28.1578 48.6693 28.1411C48.6194 28.1411 48.5969 28.1271 48.6011 28.0979C48.6053 28.0693 48.6278 28.0547 48.6693 28.0547C48.9678 28.0792 49.1914 28.0917 49.3409 28.0917H51.0073C51.1894 28.0917 51.4423 28.0792 51.766 28.0547C51.8159 28.0547 51.8447 28.0693 51.8531 28.0979C51.8615 28.1271 51.8363 28.1411 51.7786 28.1411C51.4386 28.1578 51.1836 28.2458 51.0136 28.4068C50.8436 28.5672 50.7586 28.8495 50.7586 29.2521V36.1401C50.7586 36.3458 50.7896 36.4818 50.852 36.5474C50.9144 36.6135 51.0157 36.6464 51.1569 36.6464C52.8233 36.6464 53.9173 36.3625 54.4398 35.7948C54.6387 35.5807 54.8024 35.2745 54.931 34.875C55.0595 34.476 55.1734 33.9516 55.2731 33.301C55.2814 33.2516 55.2998 33.2292 55.3292 33.2333C55.3581 33.2375 55.3685 33.2599 55.3602 33.301C55.186 34.6672 55.0989 35.7245 55.0989 36.4734C55.0989 36.6297 55.0905 36.7344 55.0742 36.788C55.0574 36.8417 55.0118 36.8682 54.9373 36.8682C54.879 36.8682 54.6324 36.8453 54.1974 36.8005C53.7625 36.7552 53.0888 36.7328 52.1769 36.7328H49.3414C49.1924 36.7328 48.9684 36.7453 48.6698 36.7698L48.6693 36.7693Z" fill="#53AAE7"/>
<path d="M57.9894 36.365C57.3382 35.9947 56.8309 35.4785 56.4662 34.816C56.1015 34.1535 55.9189 33.4067 55.9189 32.5754C55.9189 31.7442 56.1262 30.9853 56.5407 30.2733C56.9552 29.5619 57.5292 28.9916 58.2627 28.564C58.9963 28.1364 59.8232 27.9223 60.7435 27.9223C61.5809 27.9223 62.3307 28.1098 62.9944 28.4838C63.6576 28.8582 64.176 29.3744 64.5485 30.0327C64.9216 30.691 65.1084 31.4275 65.1084 32.2421C65.1084 33.0567 64.8969 33.8468 64.474 34.5629C64.0511 35.2791 63.4666 35.8509 62.7205 36.2785C61.9744 36.7067 61.1328 36.9202 60.1962 36.9202C59.3756 36.9202 58.6395 36.7348 57.9889 36.3645L57.9894 36.365ZM63.2122 35.7358C63.7384 35.1681 64.0018 34.378 64.0018 33.366C64.0018 32.5431 63.8156 31.7369 63.4425 30.9468C63.0694 30.1567 62.5699 29.5108 61.944 29.0088C61.318 28.5067 60.6485 28.2556 59.9355 28.2556C59.0235 28.2556 58.3084 28.5332 57.7905 29.089C57.2721 29.6442 57.0135 30.4077 57.0135 31.3785C57.0135 32.2098 57.1955 33.0285 57.5607 33.8348C57.9254 34.6416 58.4165 35.302 59.034 35.816C59.6516 36.3306 60.3127 36.5874 61.0174 36.5874C61.9539 36.5874 62.6854 36.3035 63.2122 35.7358ZM58.5361 27.5515C58.5067 27.5431 58.4968 27.5187 58.5051 27.4775C58.7455 26.7614 59.1516 26.4035 59.724 26.4035C59.9481 26.4035 60.2088 26.4614 60.5074 26.5765L61.0048 26.7739C61.2535 26.8728 61.4691 26.9218 61.6512 26.9218C61.9996 26.9218 62.2562 26.7447 62.422 26.391C62.4388 26.3582 62.4613 26.3457 62.4902 26.3541C62.519 26.3624 62.5295 26.391 62.5211 26.4405C62.3884 26.8108 62.2247 27.0843 62.03 27.2614C61.8354 27.4384 61.5966 27.527 61.3149 27.527C61.0992 27.527 60.8421 27.4697 60.5441 27.3541L60.0094 27.1442C59.6694 27.0041 59.4003 26.9343 59.2009 26.9343C59.0435 26.9343 58.9212 26.9796 58.8341 27.0702C58.747 27.1608 58.6662 27.3046 58.5917 27.502C58.5833 27.5431 58.565 27.5598 58.5356 27.5515H58.5361Z" fill="#53AAE7"/>
<path d="M73.2909 31.1151C73.2663 31.1193 73.2453 31.101 73.229 31.0594C73.0134 30.1625 72.8124 29.5167 72.6256 29.1214C72.4394 28.7266 72.2216 28.4672 71.9729 28.3438C71.89 28.2865 71.7074 28.2448 71.4257 28.2203C71.1439 28.1958 70.7666 28.1792 70.2939 28.1708C70.2194 28.1708 70.1548 28.2099 70.1013 28.288C70.0473 28.3661 70.0205 28.4755 70.0205 28.6151V35.5771C70.0205 35.9802 70.1281 36.262 70.3437 36.4224C70.5594 36.5828 70.8826 36.6714 71.3139 36.688C71.38 36.688 71.4131 36.7005 71.4131 36.725C71.4131 36.7578 71.38 36.7745 71.3139 36.7745C70.891 36.75 70.5678 36.7375 70.3437 36.7375H68.5031C68.2791 36.7375 67.9559 36.75 67.533 36.7745C67.4663 36.7745 67.4333 36.7578 67.4333 36.725C67.4333 36.7005 67.4663 36.688 67.533 36.688C67.9637 36.6719 68.2875 36.5833 68.5031 36.4224C68.7188 36.262 68.8263 35.9802 68.8263 35.5771V28.6151C68.8263 28.475 68.799 28.3661 68.7455 28.288C68.6915 28.2099 68.6275 28.1708 68.553 28.1708C68.0802 28.1792 67.703 28.1953 67.4212 28.2203C67.1394 28.2448 66.9569 28.2865 66.874 28.3438C66.6252 28.4672 66.4012 28.737 66.2023 29.1521C66.0035 29.5677 65.8083 30.2036 65.6178 31.0594C65.6011 31.1005 65.5806 31.1193 65.5554 31.1151C65.5307 31.1109 65.5223 31.0844 65.5307 31.0349C65.6714 30.0312 65.7422 29.0969 65.7422 28.2328C65.7422 28.126 65.7611 28.0536 65.7983 28.0167C65.8356 27.9797 65.8917 27.9609 65.9662 27.9609C66.0323 27.9609 66.2312 27.9839 66.5633 28.0286C66.8949 28.074 67.6494 28.0964 68.8263 28.0964H70.02C71.1969 28.0964 71.9514 28.074 72.283 28.0286C72.6146 27.9833 72.8177 27.9609 72.8922 27.9609C72.9583 27.9609 73.0102 27.9797 73.0475 28.0167C73.0847 28.0536 73.1036 28.126 73.1036 28.2328C73.0868 29.0229 73.1577 29.9568 73.3151 31.0349C73.3235 31.0844 73.3151 31.1109 73.2904 31.1151H73.2909Z" fill="#53AAE7"/>
<path d="M76.1878 36.4729C75.6574 36.1766 75.2492 35.7531 74.9632 35.2016C74.6772 34.6505 74.534 34.0083 74.534 33.276V29.2521C74.534 28.849 74.4695 28.5672 74.3414 28.4068C74.2129 28.2464 74.0161 28.1578 73.7506 28.1411C73.7092 28.1411 73.6887 28.1271 73.6887 28.0979C73.6887 28.0688 73.7092 28.0547 73.7506 28.0547C74.024 28.0792 74.2234 28.0917 74.3477 28.0917H76.0016C76.1674 28.0917 76.4365 28.0792 76.8096 28.0547C76.8594 28.0547 76.8862 28.0693 76.8904 28.0979C76.8946 28.1271 76.8673 28.1411 76.8096 28.1411C76.4449 28.1578 76.1731 28.2458 75.9953 28.4068C75.8169 28.5672 75.7277 28.8495 75.7277 29.2521V33.3255C75.7277 34.2635 75.9743 35.0104 76.4675 35.5661C76.9607 36.1219 77.6344 36.3995 78.4881 36.3995C79.0432 36.3995 79.5285 36.2677 79.943 36.0047C80.3576 35.7417 80.6787 35.3734 80.9069 34.9C81.1346 34.4271 81.249 33.8776 81.249 33.2521L81.2364 29.2526C81.2364 28.8495 81.1472 28.5677 80.9688 28.4073C80.7904 28.2469 80.5192 28.1583 80.1545 28.1417C80.0963 28.1417 80.0695 28.1276 80.0737 28.0984C80.0779 28.0698 80.1046 28.0552 80.1545 28.0552C80.5275 28.0797 80.7967 28.0922 80.963 28.0922H81.4977C81.6305 28.0922 81.8083 28.0797 82.0324 28.0552C82.0738 28.0552 82.0964 28.0698 82.1006 28.0984C82.1048 28.1276 82.0859 28.1417 82.0444 28.1417C81.8041 28.1583 81.6236 28.2464 81.5035 28.4073C81.3833 28.5677 81.323 28.85 81.323 29.2526V33.2271C81.323 33.976 81.1902 34.6281 80.9253 35.1833C80.6598 35.7385 80.2804 36.1667 79.7872 36.4672C79.294 36.7677 78.7158 36.9177 78.0526 36.9177C77.3395 36.9177 76.7178 36.7698 76.1873 36.4734L76.1878 36.4729Z" fill="#53AAE7"/>
<path d="M83.4999 33.2297C83.5167 33.1641 83.5372 33.1307 83.5623 33.1307C83.5707 33.1307 83.5786 33.1411 83.587 33.1615C83.5954 33.1823 83.5954 33.213 83.587 33.2542C83.5702 33.4021 83.5623 33.6161 83.5623 33.8958C83.5623 34.8589 83.7738 35.5682 84.1967 36.025C84.6196 36.4818 85.2576 36.7099 86.1118 36.7099C86.6507 36.7099 87.1255 36.5927 87.5358 36.3583C87.9461 36.124 88.1513 35.6854 88.1513 35.0437C88.1513 34.4927 87.9482 34.0339 87.5421 33.6677C87.136 33.3016 86.5599 32.9333 85.8138 32.563C85.2665 32.2667 84.8232 32.0057 84.4832 31.7792C84.1432 31.5531 83.8698 31.3 83.6626 31.0198C83.4553 30.7401 83.3519 30.4271 83.3519 30.0818C83.3519 29.7365 83.4805 29.3844 83.7376 29.051C83.9947 28.7177 84.3677 28.4464 84.8568 28.2365C85.3458 28.0266 85.914 27.9219 86.5604 27.9219C86.9582 27.9219 87.3522 27.9797 87.7415 28.0948C88.1308 28.2099 88.4525 28.3724 88.7054 28.5823C88.9583 28.7922 89.0847 29.0328 89.0847 29.3042C89.0847 29.3453 89.0763 29.4073 89.0601 29.4891L88.6125 31.3406C88.6041 31.3901 88.5878 31.4146 88.5627 31.4146C88.5296 31.4146 88.517 31.3776 88.5254 31.3036C88.5585 31.0734 88.5752 30.8266 88.5752 30.563C88.5752 29.7729 88.3827 29.1703 87.997 28.7547C87.6114 28.3391 87.0374 28.1312 86.275 28.1312C85.6034 28.1312 85.1327 28.2422 84.8636 28.4646C84.5939 28.687 84.4596 29.0203 84.4596 29.4646C84.4596 29.7693 84.5488 30.0365 84.7272 30.2667C84.9056 30.4974 85.1417 30.7047 85.436 30.8901C85.7304 31.0755 86.1344 31.2995 86.6486 31.563C87.2121 31.8427 87.6723 32.1 88.029 32.3344C88.3853 32.5687 88.686 32.8589 88.9305 33.2047C89.175 33.5505 89.2972 33.9536 89.2972 34.4146C89.2972 34.8755 89.1561 35.2974 88.8743 35.6797C88.5926 36.0625 88.1943 36.3646 87.6807 36.587C87.1665 36.8094 86.5699 36.9203 85.8899 36.9203C85.351 36.9203 84.8599 36.8443 84.4165 36.6922C83.9732 36.5401 83.6269 36.3385 83.3782 36.0875C83.1295 35.8365 83.0051 35.5714 83.0051 35.2911C83.0051 35.2172 83.0093 35.1594 83.0177 35.1182L83.5025 33.2297H83.4999Z" fill="#53AAE7"/>
</g>
<defs>
<filter id="filter0_d_1850_101203" x="0.875" y="0.65625" width="115.25" height="66.25" filterUnits="userSpaceOnUse" color-interpolation-filters="sRGB">
<feFlood flood-opacity="0" result="BackgroundImageFix"/>
<feColorMatrix in="SourceAlpha" type="matrix" values="0 0 0 0 0 0 0 0 0 0 0 0 0 0 0 0 0 0 127 0" result="hardAlpha"/>
<feOffset dy="0.78125"/>
<feGaussianBlur stdDeviation="1.5625"/>
<feComposite in2="hardAlpha" operator="out"/>
<feColorMatrix type="matrix" values="0 0 0 0 0 0 0 0 0 0 0 0 0 0 0 0 0 0 0.08 0"/>
<feBlend mode="normal" in2="BackgroundImageFix" result="effect1_dropShadow_1850_101203"/>
<feBlend mode="normal" in="SourceGraphic" in2="effect1_dropShadow_1850_101203" result="shape"/>
</filter>
<linearGradient id="paint0_linear_1850_101203" x1="38.2856" y1="20.3135" x2="46.8411" y2="37.1923" gradientUnits="userSpaceOnUse">
<stop offset="0.26" stop-color="#FF518D"/>
<stop offset="0.56" stop-color="#8E2DE2"/>
<stop offset="0.95" stop-color="#34EBE9"/>
</linearGradient>
<linearGradient id="paint1_linear_1850_101203" x1="37.9136" y1="20.5" x2="46.4691" y2="37.3788" gradientUnits="userSpaceOnUse">
<stop offset="0.26" stop-color="#FF518D"/>
<stop offset="0.56" stop-color="#8E2DE2"/>
<stop offset="0.95" stop-color="#34EBE9"/>
</linearGradient>
<linearGradient id="paint2_linear_1850_101203" x1="37.4641" y1="20.7307" x2="46.0196" y2="37.6095" gradientUnits="userSpaceOnUse">
<stop offset="0.26" stop-color="#FF518D"/>
<stop offset="0.56" stop-color="#8E2DE2"/>
<stop offset="0.95" stop-color="#34EBE9"/>
</linearGradient>
<linearGradient id="paint3_linear_1850_101203" x1="31.5818" y1="23.7099" x2="40.1372" y2="40.5886" gradientUnits="userSpaceOnUse">
<stop offset="0.26" stop-color="#FF518D"/>
<stop offset="0.56" stop-color="#8E2DE2"/>
<stop offset="0.95" stop-color="#34EBE9"/>
</linearGradient>
<linearGradient id="paint4_linear_1850_101203" x1="34.1732" y1="22.3979" x2="42.7287" y2="39.2767" gradientUnits="userSpaceOnUse">
<stop offset="0.26" stop-color="#FF518D"/>
<stop offset="0.56" stop-color="#8E2DE2"/>
<stop offset="0.95" stop-color="#34EBE9"/>
</linearGradient>
<linearGradient id="paint5_linear_1850_101203" x1="33.1375" y1="22.9229" x2="41.693" y2="39.8017" gradientUnits="userSpaceOnUse">
<stop offset="0.26" stop-color="#FF518D"/>
<stop offset="0.56" stop-color="#8E2DE2"/>
<stop offset="0.95" stop-color="#34EBE9"/>
</linearGradient>
<linearGradient id="paint6_linear_1850_101203" x1="30.41" y1="24.3026" x2="38.9655" y2="41.1814" gradientUnits="userSpaceOnUse">
<stop offset="0.26" stop-color="#FF518D"/>
<stop offset="0.56" stop-color="#8E2DE2"/>
<stop offset="0.95" stop-color="#34EBE9"/>
</linearGradient>
<linearGradient id="paint7_linear_1850_101203" x1="27.626" y1="25.7172" x2="36.1815" y2="42.596" gradientUnits="userSpaceOnUse">
<stop offset="0.26" stop-color="#FF518D"/>
<stop offset="0.56" stop-color="#8E2DE2"/>
<stop offset="0.95" stop-color="#34EBE9"/>
</linearGradient>
</defs>
</svg>
