<svg width="42" height="43" viewBox="0 0 42 43" fill="none" xmlns="http://www.w3.org/2000/svg">
<path d="M3.5 13.0361L12.5892 19.0956C13.1136 19.4452 13.3758 19.62 13.6594 19.7438C13.9112 19.8537 14.1751 19.9336 14.4455 19.9818C14.7502 20.0361 15.0653 20.0361 15.6955 20.0361H26.3045C26.9347 20.0361 27.2498 20.0361 27.5545 19.9818C27.8249 19.9336 28.0888 19.8537 28.3406 19.7438C28.6242 19.62 28.8864 19.4452 29.4108 19.0956L38.5 13.0361M11.9 35.7861H30.1C33.0403 35.7861 34.5104 35.7861 35.6334 35.2139C36.6213 34.7106 37.4244 33.9074 37.9278 32.9196C38.5 31.7965 38.5 30.3264 38.5 27.3861V16.1861C38.5 13.2459 38.5 11.7757 37.9278 10.6527C37.4244 9.66483 36.6213 8.86168 35.6334 8.35835C34.5104 7.78613 33.0403 7.78613 30.1 7.78613H11.9C8.95972 7.78613 7.48959 7.78613 6.36655 8.35835C5.3787 8.86168 4.57555 9.66483 4.07222 10.6527C3.5 11.7757 3.5 13.2459 3.5 16.1861V27.3861C3.5 30.3264 3.5 31.7965 4.07222 32.9196C4.57555 33.9074 5.3787 34.7106 6.36655 35.2139C7.48959 35.7861 8.95972 35.7861 11.9 35.7861Z" stroke="#FBAE17" stroke-width="3" stroke-linecap="round" stroke-linejoin="round"/>
</svg>
