<svg width="117" height="67" viewBox="0 0 117 67" fill="none" xmlns="http://www.w3.org/2000/svg">
<g filter="url(#filter0_d_1850_101122)">
<rect width="109" height="60" transform="translate(4 3)" fill="white"/>
<g clip-path="url(#clip0_1850_101122)">
<mask id="mask0_1850_101122" style="mask-type:luminance" maskUnits="userSpaceOnUse" x="-84" y="-6" width="207" height="117">
<path d="M122.223 -5.42969H-83.7385V110.424H122.223V-5.42969Z" fill="white"/>
</mask>
<g mask="url(#mask0_1850_101122)">
<path d="M41.3652 31.6053C41.3652 22.3178 48.894 14.7891 58.1815 14.7891C67.469 14.7891 74.9983 22.3178 74.9983 31.6053C74.9983 40.8928 67.469 48.4215 58.1815 48.4215C48.894 48.4215 41.3652 40.8928 41.3652 31.6053Z" fill="#9B0B0B"/>
<path d="M54.396 41.4217C54.396 41.4706 54.3729 41.4948 54.3278 41.4948H53.4932C53.4476 41.4948 53.425 41.4674 53.425 41.4121C53.425 41.2536 53.4309 41.0152 53.4427 40.6978C53.4545 40.3804 53.4604 40.1425 53.4604 39.9835C53.4604 39.9379 53.4535 39.9137 53.439 39.9105C53.4218 39.9196 53.3165 40.1629 53.1232 40.6387C53.0099 40.9185 52.8971 41.1972 52.7838 41.4754C52.7677 41.5114 52.7483 41.5329 52.7247 41.5393C52.7166 41.541 52.6855 41.5415 52.6302 41.5415C52.5486 41.5415 52.4997 41.5259 52.4841 41.4942C52.3993 41.3213 52.2876 41.07 52.1495 40.7402C52.0019 40.3912 51.8907 40.1393 51.8171 39.9835C51.8139 39.9755 51.8069 39.9669 51.7962 39.9578C51.7849 39.9717 51.7795 39.9948 51.7795 40.026C51.7795 40.1801 51.7833 40.411 51.7913 40.7187C51.7994 41.0265 51.8031 41.2579 51.8031 41.4115C51.8031 41.4663 51.7811 41.4942 51.7371 41.4942H50.9498C50.9181 41.4942 50.8993 41.4894 50.8923 41.4792C50.8854 41.469 50.8816 41.4513 50.8816 41.426C50.8816 41.2547 50.8896 40.9975 50.9063 40.6543C50.9229 40.3111 50.931 40.0539 50.931 39.8826C50.931 39.7005 50.9229 39.3584 50.9074 38.8574C50.9058 38.7269 50.8988 38.533 50.8859 38.2752L50.8837 38.235C50.8821 38.2033 50.9154 38.1877 50.9831 38.1877C51.0696 38.1877 51.199 38.185 51.3719 38.1796C51.5448 38.1743 51.6743 38.1716 51.7607 38.1716C51.7779 38.1716 51.8021 38.2043 51.8338 38.2704L52.5222 39.7811C52.5711 39.8831 52.6119 39.9341 52.6447 39.9341C52.6619 39.9341 52.6989 39.8751 52.7553 39.7575C52.9137 39.4277 53.149 38.9304 53.4599 38.2656C53.4868 38.2043 53.5158 38.1737 53.5474 38.1737C53.5931 38.1737 53.6618 38.1759 53.7537 38.1807C53.8455 38.1855 53.9153 38.1877 53.962 38.1877C54.0012 38.1877 54.0614 38.1839 54.1425 38.1759C54.2236 38.1678 54.2832 38.1641 54.3229 38.1641C54.3702 38.1641 54.3938 38.1829 54.3938 38.2205C54.3938 38.4057 54.3868 38.6828 54.3739 39.0512C54.3605 39.4197 54.3541 39.6968 54.3541 39.882C54.3541 40.0534 54.3611 40.3101 54.3756 40.6527C54.3895 40.9953 54.397 41.2515 54.397 41.4212" fill="white"/>
<path d="M60.1042 39.8209C60.1042 40.2827 59.956 40.6834 59.659 41.0228C59.3964 41.3262 59.028 41.4857 58.5538 41.5013C58.4625 41.5045 58.2117 41.5061 57.8019 41.5061C57.7252 41.5061 57.6092 41.5039 57.4545 41.4991C57.2998 41.4943 57.1838 41.4921 57.107 41.4921C57.0614 41.4921 57.0388 41.4739 57.0388 41.4379C57.0388 41.265 57.0458 41.0056 57.0587 40.6586C57.0721 40.3123 57.0786 40.0523 57.0786 39.8794C57.0786 39.7065 57.0721 39.4278 57.0587 39.0674C57.0453 38.7065 57.0388 38.4369 57.0388 38.2576C57.0388 38.2248 57.0614 38.2049 57.107 38.1985C57.2187 38.1861 57.4019 38.1797 57.6564 38.1797C58.1403 38.1797 58.4539 38.1867 58.5968 38.2012C58.9695 38.2388 59.2605 38.3333 59.4711 38.4842C59.6692 38.6254 59.8255 38.8236 59.9404 39.0781C60.0505 39.3187 60.1053 39.5658 60.1053 39.8203M59.2015 39.8209C59.2015 39.555 59.122 39.3386 58.9636 39.1705C58.8035 38.996 58.5914 38.909 58.3272 38.909C58.085 38.909 57.9641 38.9412 57.9641 39.0057C57.9641 39.0986 57.9625 39.2376 57.9593 39.424C57.9561 39.6104 57.9545 39.7494 57.9545 39.8424C57.9545 39.9353 57.9561 40.0706 57.9593 40.2537C57.9625 40.4369 57.9641 40.5749 57.9641 40.6672C57.9641 40.7349 58.0898 40.7687 58.3411 40.7687C58.6129 40.7687 58.8266 40.6785 58.9824 40.4975C59.1284 40.3262 59.2015 40.1007 59.2015 39.8209Z" fill="white"/>
<path d="M65.4729 41.4693C65.4729 41.4806 65.4573 41.4881 65.4256 41.4929C65.366 41.5026 65.2162 41.5069 64.9756 41.5069C64.7699 41.5069 64.6297 41.502 64.5561 41.4929C64.5212 41.4881 64.5019 41.4843 64.4971 41.4811C64.4874 41.4763 64.4767 41.4607 64.4638 41.4338C64.4401 41.3726 64.4058 41.2813 64.3601 41.1605C64.2989 41.0031 64.2033 40.7717 64.0728 40.465C64.0443 40.4038 63.9794 40.37 63.8773 40.3635C63.9246 40.3667 63.8435 40.3684 63.6346 40.3684C63.611 40.3684 63.5991 40.4086 63.5991 40.4887C63.5991 40.5955 63.6088 40.755 63.6287 40.9672C63.6485 41.1793 63.6582 41.3388 63.6582 41.4457C63.6582 41.4725 63.6512 41.4881 63.6367 41.4929L63.5707 41.4977C63.4778 41.5042 63.3333 41.5074 63.1368 41.5074C62.9123 41.5074 62.7769 41.5026 62.7313 41.4934C62.6856 41.4843 62.6631 41.4596 62.6631 41.4204C62.6631 41.2475 62.6711 40.9865 62.6878 40.6379C62.7044 40.2889 62.7125 40.0273 62.7125 39.8528C62.7125 39.1879 62.6975 38.6697 62.6679 38.297L62.6658 38.2642C62.6642 38.2374 62.6889 38.2197 62.7399 38.21C62.7909 38.2003 63.031 38.1912 63.46 38.1815C63.7506 38.1751 63.9826 38.1719 64.1555 38.1719C64.5137 38.1719 64.8059 38.253 65.0325 38.4146C65.2887 38.5967 65.4165 38.8604 65.4165 39.2041C65.4165 39.4334 65.3837 39.6165 65.3177 39.7529C65.2516 39.8899 65.1297 40.0225 64.9525 40.1514C64.916 40.1766 64.8982 40.2003 64.8982 40.2223C64.8982 40.2207 64.9944 40.4178 65.1861 40.8141C65.3778 41.2099 65.4739 41.4285 65.4739 41.4693M64.4826 39.355C64.4826 39.1632 64.4197 39.0306 64.2941 38.9565C64.1969 38.9001 64.0443 38.8716 63.8365 38.8716C63.6872 38.8716 63.6077 38.8942 63.5986 38.9398C63.5889 38.993 63.5846 39.1471 63.5846 39.4017C63.5846 39.4377 63.5852 39.4914 63.5868 39.5623C63.5884 39.6332 63.5889 39.6858 63.5889 39.7202C63.5889 39.7282 63.6142 39.7357 63.6641 39.7438C63.7603 39.7577 63.8607 39.7653 63.9659 39.7653C64.3102 39.7653 64.482 39.6289 64.482 39.355" fill="white"/>
<path d="M55.2456 39.8437C55.2456 39.6455 55.4062 39.4844 55.6049 39.4844C55.8036 39.4844 55.9642 39.6449 55.9642 39.8437C55.9642 40.0424 55.8036 40.2029 55.6049 40.2029C55.4062 40.2029 55.2456 40.0424 55.2456 39.8437Z" fill="white"/>
<path d="M60.9602 39.8437C60.9602 39.6455 61.1208 39.4844 61.3195 39.4844C61.5182 39.4844 61.6788 39.6449 61.6788 39.8437C61.6788 40.0424 61.5182 40.2029 61.3195 40.2029C61.1208 40.2029 60.9602 40.0424 60.9602 39.8437Z" fill="white"/>
</g>
<mask id="mask1_1850_101122" style="mask-type:luminance" maskUnits="userSpaceOnUse" x="-84" y="-6" width="207" height="117">
<path d="M122.223 -5.42969H-83.7385V110.424H122.223V-5.42969Z" fill="white"/>
</mask>
<g mask="url(#mask1_1850_101122)">
<path d="M61.6127 33.6978C61.5735 32.9653 61.6015 31.7285 62.1208 30.322C62.5547 29.1475 63.1659 28.3016 63.6089 27.7812C63.0423 27.7974 62.2593 27.901 61.4312 28.2893C59.1322 29.3682 58.4066 31.7414 58.2735 32.2097C58.1403 31.7414 57.4147 29.3682 55.1157 28.2893C54.2876 27.9005 53.5046 27.7974 52.938 27.7812C53.381 28.3016 53.9922 29.1475 54.4261 30.322C54.9454 31.7285 54.9739 32.9653 54.9342 33.6978" stroke="white" stroke-width="3.99" stroke-miterlimit="10"/>
<path d="M61.6083 34.0608C61.6904 32.1619 61.1679 31.2075 60.6647 30.685C60.1991 30.2022 59.523 29.8547 58.886 28.8704C58.6052 28.4364 58.4381 28.0417 58.3415 27.7812H58.2051C58.1084 28.0417 57.9414 28.4359 57.6605 28.8704C57.0241 29.8547 56.3475 30.2028 55.8818 30.685C55.3781 31.207 54.8561 32.1619 54.9383 34.0608" stroke="white" stroke-width="3.99" stroke-miterlimit="10"/>
<path d="M66.2533 31.9145C66.133 31.9231 66.003 31.8522 65.96 31.7303C65.8682 31.4435 66.2226 31.248 66.4579 31.3925C66.6942 31.5343 66.7076 31.8501 66.6464 32.0885C66.4563 32.7335 65.6292 32.9306 65.0546 32.7136C64.6019 32.5579 64.2716 32.1288 63.7802 32.081C63.103 31.9806 62.3426 32.3995 62.2083 33.0997C62.1132 33.5256 62.2206 34.0922 62.6975 34.2173C63.1325 34.35 63.719 34.125 63.6153 33.5879C63.5944 33.4778 63.5332 33.3758 63.4322 33.3242C63.0423 33.1185 62.7378 33.7002 63.1513 33.887C62.6841 33.6985 63.0273 33.0595 63.4591 33.27C63.7093 33.3865 63.756 33.7157 63.6642 33.952C63.516 34.3312 63.0235 34.4246 62.6653 34.3355C62.1138 34.2141 61.957 33.5541 62.0654 33.0708C62.2061 32.2915 63.0461 31.8039 63.8028 31.9301C64.3108 31.9795 64.6561 32.4172 65.1008 32.5837C65.5293 32.7405 66.061 32.6927 66.3886 32.3533C66.6125 32.1358 66.7054 31.653 66.4278 31.4441C66.0025 31.2067 65.7511 31.8646 66.2533 31.9145Z" fill="white"/>
<path d="M50.1104 31.9158C50.6152 31.8648 50.358 31.208 49.9359 31.4454C49.6577 31.6543 49.7522 32.1371 49.9751 32.3546C50.3027 32.694 50.8338 32.7418 51.2629 32.5849C51.4825 32.5114 51.6646 32.3637 51.8676 32.223C52.2709 31.9196 52.8321 31.8315 53.3127 31.9964C53.7993 32.1494 54.2037 32.5645 54.2977 33.0726C54.3669 33.4388 54.3304 33.8808 54.042 34.1542C53.5721 34.5994 52.4975 34.3341 52.671 33.5726C52.7655 33.1107 53.447 33.1209 53.4341 33.6177C53.4185 33.7428 53.3272 33.8518 53.2118 33.8889C53.3251 33.8443 53.4035 33.7321 53.4105 33.6155C53.4287 33.3712 53.1366 33.2004 52.9314 33.3261C52.8305 33.3776 52.7693 33.4797 52.7483 33.5897C52.6441 34.1262 53.2322 34.3518 53.6661 34.2192C54.1425 34.0935 54.2504 33.528 54.1554 33.1016C54.0211 32.4018 53.2601 31.9829 52.5834 32.0828C52.0926 32.1306 51.7618 32.5597 51.3091 32.7154C50.7344 32.9324 49.9069 32.7353 49.7173 32.0903C49.6561 31.8514 49.6695 31.5356 49.9058 31.3943C50.3902 31.1473 50.6657 31.8836 50.1104 31.9163" fill="white"/>
<path d="M63.2464 26.9271C61.8823 26.432 60.4548 27.1011 59.8174 28.3685L59.7508 28.1924C59.3974 27.2579 58.8679 26.3911 58.1944 25.6554L58.2734 25.6903H58.1644L58.2433 25.6554C57.5258 26.4368 56.977 27.3691 56.6204 28.369C55.9845 27.1016 54.5539 26.432 53.1914 26.9266C54.4798 26.3428 55.9668 26.9239 56.6805 28.1156L56.5194 28.1295C56.8733 27.1543 57.4195 26.2477 58.1166 25.4766C58.1719 25.4766 58.2653 25.4766 58.3206 25.4766C59.0177 26.2477 59.5639 27.1537 59.9173 28.129L59.7572 28.115C60.4699 26.9233 61.9596 26.3423 63.2458 26.9255" fill="white"/>
<path d="M51.447 26.8696C51.447 26.5876 51.6753 26.3594 51.9572 26.3594C52.2392 26.3594 52.4674 26.5876 52.4674 26.8696C52.4674 27.1515 52.2392 27.3797 51.9572 27.3797C51.6753 27.3797 51.447 27.1515 51.447 26.8696Z" fill="white"/>
<path d="M63.8613 26.8696C63.8613 26.5876 64.0896 26.3594 64.3715 26.3594C64.6535 26.3594 64.8817 26.5876 64.8817 26.8696C64.8817 27.1515 64.6535 27.3797 64.3715 27.3797C64.0896 27.3797 63.8613 27.1515 63.8613 26.8696Z" fill="white"/>
<path d="M64.1146 32.9844C64.1119 32.9844 64.3332 33.7545 63.9358 34.3211C63.5598 34.8565 62.8252 34.9333 62.7086 34.9451C62.2618 34.9918 61.8945 34.8704 61.4987 34.7394C60.9718 34.5649 60.8317 34.4064 60.3526 34.3576C59.9832 34.32 59.7254 34.3796 59.6497 34.3989C59.3156 34.4832 59.0933 34.6384 58.9333 34.7528C58.6083 34.9843 58.386 35.2539 58.2378 35.48C58.1137 35.2915 57.8936 35.0052 57.5386 34.7528C57.3699 34.6331 57.0364 34.3957 56.573 34.3237C55.9892 34.2335 55.4769 34.4569 55.2857 34.538C55.1079 34.6137 54.978 34.6927 54.6783 34.7958C54.493 34.8597 54.3217 34.9177 54.0983 34.9483C53.9066 34.9746 53.6381 35.0112 53.3223 34.9188C53.202 34.8839 52.7724 34.7518 52.4963 34.3232C52.3245 34.0568 52.2901 33.7974 52.2821 33.6798C52.26 33.3812 52.3406 33.1498 52.3895 33.0365C52.354 33.1761 52.3121 33.4156 52.3599 33.7051C52.3814 33.835 52.4222 34.0692 52.5833 34.2985C52.9802 34.8624 53.7235 34.8576 53.775 34.8565C53.9308 34.8533 54.0403 34.8232 54.2589 34.7641C54.7009 34.6438 54.7272 34.5461 55.254 34.3442C55.7749 34.1444 56.0977 34.1062 56.3587 34.1089C56.4237 34.1095 56.4731 34.1127 56.4871 34.1138C56.7599 34.1309 57.3044 34.212 57.7776 34.6202C58.0412 34.8479 58.1932 35.1003 58.2775 35.2716C58.2775 35.2716 58.2775 35.2716 58.277 35.2716C58.2716 35.2673 58.5568 34.7357 59.0407 34.4306C59.4306 34.1852 59.8221 34.1664 59.9982 34.1605C60.0481 34.1589 60.1738 34.1557 60.3553 34.1777C60.8757 34.2405 61.1684 34.4258 61.518 34.5633C61.8478 34.6932 62.438 34.9263 63.0513 34.7641C63.1898 34.7271 63.6978 34.5729 63.9755 34.1132C64.2918 33.5891 64.1183 32.9849 64.1157 32.9849" fill="white"/>
</g>
</g>
</g>
<defs>
<filter id="filter0_d_1850_101122" x="0.875" y="0.65625" width="115.25" height="66.25" filterUnits="userSpaceOnUse" color-interpolation-filters="sRGB">
<feFlood flood-opacity="0" result="BackgroundImageFix"/>
<feColorMatrix in="SourceAlpha" type="matrix" values="0 0 0 0 0 0 0 0 0 0 0 0 0 0 0 0 0 0 127 0" result="hardAlpha"/>
<feOffset dy="0.78125"/>
<feGaussianBlur stdDeviation="1.5625"/>
<feComposite in2="hardAlpha" operator="out"/>
<feColorMatrix type="matrix" values="0 0 0 0 0 0 0 0 0 0 0 0 0 0 0 0 0 0 0.08 0"/>
<feBlend mode="normal" in2="BackgroundImageFix" result="effect1_dropShadow_1850_101122"/>
<feBlend mode="normal" in="SourceGraphic" in2="effect1_dropShadow_1850_101122" result="shape"/>
</filter>
<clipPath id="clip0_1850_101122">
<rect width="58" height="58" fill="white" transform="translate(29.5 4)"/>
</clipPath>
</defs>
</svg>
