<svg width="43" height="43" viewBox="0 0 43 43" fill="none" xmlns="http://www.w3.org/2000/svg">
<path d="M35.9375 15.4905C37.4846 15.9883 38.5625 17.4648 38.5625 19.1606V26.6603C38.5625 28.6494 37.0795 30.3362 35.097 30.4979C34.5039 30.5463 33.909 30.5887 33.3125 30.6249V36.0337L28.0625 30.7837C25.6934 30.7837 23.3473 30.6871 21.0279 30.4978C20.5059 30.4552 20.0185 30.3068 19.5836 30.075M35.9375 15.4905C35.6725 15.4052 35.3938 15.3487 35.1044 15.3247C32.7826 15.132 30.434 15.0337 28.0624 15.0337C25.6909 15.0337 23.3424 15.132 21.0207 15.3247C19.0412 15.489 17.5625 17.1743 17.5625 19.1606V26.6602C17.5625 28.1255 18.3673 29.4267 19.5836 30.075M35.9375 15.4905V12.2115C35.9375 9.374 33.9219 6.91482 31.1081 6.54953C27.5337 6.08552 23.8888 5.84619 20.188 5.84619C16.4868 5.84619 12.8416 6.08556 9.26686 6.54967C6.45303 6.91499 4.4375 9.37416 4.4375 12.2116V23.1058C4.4375 25.9433 6.45303 28.4024 9.26688 28.7677C10.2766 28.8988 11.2919 29.012 12.3125 29.1069V37.3462L19.5836 30.075" stroke="#FBAE17" stroke-width="3" stroke-linecap="round" stroke-linejoin="round"/>
</svg>
