<svg width="117" height="67" viewBox="0 0 117 67" fill="none" xmlns="http://www.w3.org/2000/svg">
<g filter="url(#filter0_d_1850_101150)">
<rect width="109" height="60" transform="translate(4 3)" fill="white"/>
<path d="M64.0292 33.6565C64.0292 34.0416 64.06 34.4435 64.0838 34.5669H63.4299C63.3991 34.4766 63.3753 34.2799 63.3676 34.026C63.2276 34.2968 62.9084 34.6656 62.1454 34.6656C61.2109 34.6656 60.814 34.026 60.814 33.3949C60.814 32.4683 61.507 32.0423 62.6823 32.0423H63.3516V31.6897C63.3516 31.3209 63.2424 30.8781 62.5031 30.8781C61.8493 30.8781 61.7324 31.2222 61.6624 31.5423H61.0009C61.0555 30.9683 61.3901 30.3125 62.5269 30.3125C63.4922 30.3125 64.0292 30.7307 64.0292 31.6735V33.6578V33.6565ZM63.3599 32.5416H62.7215C61.9354 32.5416 61.5147 32.7715 61.5147 33.3533C61.5147 33.7877 61.7947 34.0994 62.2854 34.0994C63.2353 34.0994 63.3599 33.4273 63.3599 32.6728V32.5416Z" fill="black"/>
<path d="M65.4149 31.4605C65.4149 31.0995 65.4149 30.7307 65.4072 30.4112H66.0688C66.0919 30.5339 66.0996 30.969 66.0996 31.0917C66.255 30.7391 66.5742 30.3125 67.3372 30.3125C68.1003 30.3125 68.661 30.7878 68.661 31.8949V34.5675H67.9757V31.9852C67.9757 31.354 67.7419 30.9359 67.1426 30.9359C66.395 30.9359 66.0996 31.5345 66.0996 32.3709V34.5682H65.4143V31.4612L65.4149 31.4605Z" fill="black"/>
<path d="M73.4254 32.4774C73.4254 33.6825 72.7716 34.6662 71.5647 34.6662C70.4356 34.6662 69.751 33.7481 69.751 32.4936C69.751 31.2391 70.4202 30.3125 71.6116 30.3125C72.7093 30.3125 73.4254 31.1735 73.4254 32.4767V32.4774ZM70.4517 32.4858C70.4517 33.4039 70.8878 34.0682 71.5962 34.0682C72.3046 34.0682 72.7253 33.4371 72.7253 32.4942C72.7253 31.5514 72.3207 30.9118 71.5808 30.9118C70.8409 30.9118 70.4517 31.543 70.4517 32.4858Z" fill="black"/>
<path d="M43.4086 30.4141C43.9378 32.1114 44.3271 33.3821 44.4517 33.8984H44.4594C44.5525 33.4393 44.9732 32.1932 45.5647 30.4141H46.2577L44.8094 34.5711H44.0541L42.6758 30.4141H43.4073H43.4086Z" fill="black"/>
<path d="M47.6985 28.7422H47.0132V29.6357H47.6985V28.7422Z" fill="black"/>
<path d="M47.6985 30.4141H47.0132V34.5711H47.6985V30.4141Z" fill="black"/>
<path d="M51.8089 33.6643C51.8089 34.0494 51.8398 34.4513 51.8635 34.5747H51.2097C51.1789 34.4844 51.1551 34.2877 51.1474 34.0338C51.0074 34.3046 50.6882 34.6734 49.9252 34.6734C48.9907 34.6734 48.5938 34.0338 48.5938 33.4027C48.5938 32.4761 49.2868 32.0501 50.4621 32.0501H51.1314V31.6975C51.1314 31.3287 51.0222 30.8859 50.2829 30.8859C49.6291 30.8859 49.5122 31.23 49.4422 31.5501H48.7807C48.8352 30.9761 49.1699 30.3203 50.3067 30.3203C51.272 30.3203 51.8089 30.7385 51.8089 31.6813V33.6656V33.6643ZM51.1391 32.5495H50.5006C49.7145 32.5495 49.2938 32.7793 49.2938 33.3611C49.2938 33.7955 49.5739 34.1072 50.0645 34.1072C51.0145 34.1072 51.1391 33.4351 51.1391 32.6806V32.5495Z" fill="black"/>
<path d="M58.552 28.8438H57.8667V29.7372H58.552V28.8438Z" fill="black"/>
<path d="M58.552 30.5156H57.8667V34.6726H58.552V30.5156Z" fill="black"/>
<path d="M73 29.3207H72.7354V29.2266H73.3751V29.3207H73.1098V30.0571H73V29.3207Z" fill="#A7A9AC"/>
<path d="M74.2168 29.7045C74.2168 29.5493 74.2194 29.3934 74.2226 29.3058H74.2181C74.1828 29.4408 74.0505 29.796 73.9561 30.0571H73.8578C73.7872 29.8447 73.6491 29.4454 73.6125 29.3032H73.6092C73.615 29.3999 73.6189 29.5837 73.6189 29.7265V30.0571H73.5161V29.2266H73.678C73.7711 29.4843 73.8854 29.8168 73.9137 29.922H73.915C73.9349 29.8421 74.0698 29.4785 74.1661 29.2266H74.3228V30.0571H74.2168V29.7038V29.7045Z" fill="#A7A9AC"/>
<path d="M60.0445 27.1328H59.5269V36.2688H60.0445V27.1328Z" fill="#E53E32"/>
<path d="M56.6674 27.1328H56.3957H56.1433L54.9686 34.6936L53.7933 27.1328H53.51H53.282H52.9917V36.2688H53.51V28.612L54.6847 36.2396H55.2525L56.3957 28.8802V36.2688H56.914V27.1328H56.6674Z" fill="#E53E32"/>
<path d="M44.6436 37.4044V37.2109H44.7983V37.4044H44.6436ZM44.6436 37.6142H44.7983V38.5141H44.6436V37.6142Z" fill="black"/>
<path d="M44.9932 37.6178H45.148V37.3516H45.3008V37.6178H45.4973V37.7438H45.3008V38.271C45.3008 38.36 45.322 38.4041 45.4029 38.4041C45.4241 38.4041 45.4556 38.4022 45.48 38.397V38.5139C45.4434 38.5281 45.3907 38.5301 45.3464 38.5301C45.2077 38.5301 45.148 38.4574 45.148 38.308V37.7431H44.9932V37.6171V37.6178Z" fill="black"/>
<path d="M46.3718 38.3184C46.3718 38.4022 46.3788 38.4885 46.384 38.5158H46.2362C46.2292 38.4963 46.224 38.4535 46.2221 38.3989C46.1906 38.4574 46.1187 38.5372 45.9466 38.5372C45.7359 38.5372 45.646 38.3989 45.646 38.2619C45.646 38.0613 45.8021 37.9691 46.0673 37.9691H46.2183V37.8924C46.2183 37.8126 46.1939 37.7165 46.0269 37.7165C45.8791 37.7165 45.8528 37.7911 45.8374 37.86H45.6884C45.7006 37.736 45.7764 37.5938 46.0326 37.5938C46.2504 37.5938 46.3718 37.684 46.3718 37.8885V38.3184ZM46.2202 38.0768H46.0763C45.8991 38.0768 45.804 38.1268 45.804 38.2528C45.804 38.347 45.8669 38.4145 45.978 38.4145C46.1926 38.4145 46.2202 38.2691 46.2202 38.1054V38.0768Z" fill="black"/>
<path d="M46.6768 38.5141V37.2109H46.8315V38.5141H46.6768Z" fill="black"/>
<path d="M47.1338 37.4044V37.2109H47.2886V37.4044H47.1338ZM47.1338 37.6142H47.2886V38.5141H47.1338V37.6142Z" fill="black"/>
<path d="M48.2443 38.3184C48.2443 38.4022 48.2514 38.4885 48.2565 38.5158H48.1088C48.1017 38.4963 48.0966 38.4535 48.0947 38.3989C48.0632 38.4574 47.9913 38.5372 47.8191 38.5372C47.6085 38.5372 47.5186 38.3989 47.5186 38.2619C47.5186 38.0613 47.6746 37.9691 47.9399 37.9691H48.0908V37.8924C48.0908 37.8126 48.0664 37.7165 47.8994 37.7165C47.7517 37.7165 47.7254 37.7911 47.71 37.86H47.5609C47.5731 37.736 47.6489 37.5938 47.9052 37.5938C48.1229 37.5938 48.2443 37.684 48.2443 37.8885V38.3184ZM48.0927 38.0768H47.9489C47.7716 38.0768 47.6766 38.1268 47.6766 38.2528C47.6766 38.347 47.7395 38.4145 47.8506 38.4145C48.0651 38.4145 48.0927 38.2691 48.0927 38.1054V38.0768Z" fill="black"/>
<path d="M48.5493 37.8424C48.5493 37.7645 48.5493 37.6847 48.5474 37.6152H48.6964C48.7015 37.6418 48.7034 37.736 48.7034 37.7626C48.7388 37.686 48.8107 37.5938 48.9828 37.5938C49.1549 37.5938 49.2815 37.697 49.2815 37.9366V38.5151H49.1267V37.9561C49.1267 37.8191 49.074 37.7288 48.9385 37.7288C48.7702 37.7288 48.7034 37.8587 48.7034 38.0398V38.5158H48.5486V37.8431L48.5493 37.8424Z" fill="black"/>
<path d="M50.2228 38.0434C50.2967 37.9544 50.4932 37.7466 50.6127 37.6135H50.797L50.4617 37.9635L50.8355 38.5141H50.6544L50.3558 38.0648L50.2222 38.1947V38.5141H50.0674V37.2109H50.2222V38.0434H50.2228Z" fill="black"/>
<path d="M51.0024 37.4044V37.2109H51.1572V37.4044H51.0024ZM51.0024 37.6142H51.1572V38.5141H51.0024V37.6142Z" fill="black"/>
<path d="M51.3525 37.6178H51.5073V37.3516H51.6602V37.6178H51.8567V37.7438H51.6602V38.271C51.6602 38.36 51.6814 38.4041 51.7623 38.4041C51.7835 38.4041 51.815 38.4022 51.8394 38.397V38.5139C51.8028 38.5281 51.7501 38.5301 51.7058 38.5301C51.5671 38.5301 51.5073 38.4574 51.5073 38.308V37.7431H51.3525V37.6171V37.6178Z" fill="black"/>
<path d="M52.7573 38.2398C52.7207 38.3944 52.6167 38.5366 52.3906 38.5366C52.1446 38.5366 51.9937 38.3593 51.9937 38.0697C51.9937 37.8158 52.1356 37.5938 52.4009 37.5938C52.6661 37.5938 52.747 37.7782 52.7573 37.8937H52.6045C52.5833 37.8035 52.5274 37.7236 52.397 37.7236C52.2409 37.7236 52.151 37.8606 52.151 38.0645C52.151 38.2684 52.2371 38.4074 52.3919 38.4074C52.5023 38.4074 52.5672 38.347 52.6045 38.2405H52.7573V38.2398Z" fill="black"/>
<path d="M53.1387 37.2109V37.7473C53.1823 37.6674 53.2652 37.5927 53.4161 37.5927C53.5581 37.5927 53.7167 37.6707 53.7167 37.9388V38.5141H53.5619V37.9655C53.5619 37.8129 53.499 37.7278 53.3686 37.7278C53.2087 37.7278 53.1387 37.8343 53.1387 38.0226V38.5141H52.9839V37.2109H53.1387Z" fill="black"/>
<path d="M54.1097 38.0924C54.1116 38.2755 54.2028 38.4067 54.3538 38.4067C54.4944 38.4067 54.54 38.332 54.5683 38.2665H54.7244C54.689 38.382 54.5927 38.5366 54.3486 38.5366C54.0692 38.5366 53.9556 38.3061 53.9556 38.0749C53.9556 37.8067 54.0892 37.5938 54.3596 37.5938C54.6473 37.5938 54.7404 37.8262 54.7404 38.0184C54.7404 38.047 54.7404 38.0697 54.7385 38.0931H54.1097V38.0924ZM54.5837 37.9846C54.5818 37.8353 54.5079 37.7165 54.357 37.7165C54.2061 37.7165 54.1303 37.8269 54.1148 37.9846H54.5837Z" fill="black"/>
<path d="M54.9775 37.8424C54.9775 37.7645 54.9775 37.6847 54.9756 37.6152H55.1246C55.1297 37.6418 55.1317 37.736 55.1317 37.7626C55.167 37.686 55.2389 37.5938 55.411 37.5938C55.5832 37.5938 55.7097 37.697 55.7097 37.9366V38.5151H55.5549V37.9561C55.5549 37.8191 55.5022 37.7288 55.3667 37.7288C55.1985 37.7288 55.1317 37.8587 55.1317 38.0398V38.5158H54.9769V37.8431L54.9775 37.8424Z" fill="black"/>
<path d="M57.5771 38.8684V37.8353C57.5771 37.7606 57.5771 37.6847 57.5752 37.6152H57.7242C57.7274 37.645 57.7293 37.6989 57.7293 37.7574C57.7788 37.6652 57.8681 37.5938 58.0209 37.5938C58.2265 37.5938 58.3755 37.7678 58.3755 38.0411C58.3755 38.3645 58.2053 38.5366 57.9888 38.5366C57.8449 38.5366 57.7692 38.4762 57.7287 38.4035V38.8684H57.5758H57.5771ZM57.9811 37.7269C57.7968 37.7269 57.7229 37.8437 57.7229 38.0645C57.7229 38.2853 57.7826 38.4054 57.9689 38.4054C58.132 38.4054 58.2181 38.2703 58.2181 38.0483C58.2181 37.8567 58.132 37.7269 57.9811 37.7269Z" fill="black"/>
<path d="M58.6323 37.4044V37.2109H58.7871V37.4044H58.6323ZM58.6323 37.6142H58.7871V38.5141H58.6323V37.6142Z" fill="black"/>
<path d="M59.0205 38.3912L59.533 37.7484H59.0468V37.6172H59.709V37.7471L59.2029 38.386H59.7334L59.709 38.5172H59.0205V38.3912Z" fill="black"/>
<path d="M59.9023 38.3912L60.4149 37.7484H59.9287V37.6172H60.5909V37.7471L60.0847 38.386H60.6153L60.5909 38.5172H59.9023V38.3912Z" fill="black"/>
<path d="M60.9124 38.0924C60.9144 38.2755 61.0056 38.4067 61.1565 38.4067C61.2972 38.4067 61.3428 38.332 61.371 38.2665H61.5271C61.4918 38.382 61.3954 38.5366 61.1514 38.5366C60.872 38.5366 60.7583 38.3061 60.7583 38.0749C60.7583 37.8067 60.8919 37.5938 61.1623 37.5938C61.45 37.5938 61.5432 37.8262 61.5432 38.0184C61.5432 38.047 61.5432 38.0697 61.5412 38.0931H60.9124V38.0924ZM61.3864 37.9846C61.3845 37.8353 61.3107 37.7165 61.1597 37.7165C61.0088 37.7165 60.933 37.8269 60.9176 37.9846H61.3864Z" fill="black"/>
<path d="M61.7885 37.8593C61.7885 37.7334 61.7866 37.6619 61.7866 37.6145H61.9376C61.9395 37.6392 61.9427 37.7106 61.9427 37.7976C61.9883 37.6769 62.0936 37.597 62.2413 37.5938V37.7483C62.0589 37.7535 61.9427 37.8515 61.9427 38.0788V38.5158H61.7879V37.8606L61.7885 37.8593Z" fill="black"/>
<path d="M62.4434 37.4044V37.2109H62.5981V37.4044H62.4434ZM62.4434 37.6142H62.5981V38.5141H62.4434V37.6142Z" fill="black"/>
<path d="M63.5622 38.3184C63.5622 38.4022 63.5693 38.4885 63.5744 38.5158H63.4267C63.4196 38.4963 63.4145 38.4535 63.4125 38.3989C63.3811 38.4574 63.3091 38.5372 63.137 38.5372C62.9263 38.5372 62.8364 38.3989 62.8364 38.2619C62.8364 38.0613 62.9925 37.9691 63.2578 37.9691H63.4087V37.8924C63.4087 37.8126 63.3843 37.7165 63.2173 37.7165C63.0696 37.7165 63.0432 37.7911 63.0278 37.86H62.8788C62.891 37.736 62.9668 37.5938 63.2231 37.5938C63.4408 37.5938 63.5622 37.684 63.5622 37.8885V38.3184ZM63.4113 38.0768H63.2674C63.0901 38.0768 62.9951 38.1268 62.9951 38.2528C62.9951 38.347 63.058 38.4145 63.1691 38.4145C63.3836 38.4145 63.4113 38.2691 63.4113 38.1054V38.0768Z" fill="black"/>
<path d="M65.286 37.6172C65.3965 38.0399 65.4601 38.2814 65.4755 38.3737H65.4774C65.4935 38.2899 65.5564 38.0646 65.683 37.6172H65.8339C65.9726 38.1269 66.015 38.2743 66.0291 38.3561H66.0311C66.0542 38.26 66.0889 38.1256 66.2276 37.6172H66.3837L66.1094 38.5172H65.9424C65.8564 38.1886 65.7703 37.8854 65.751 37.7873H65.7491C65.733 37.8847 65.654 38.16 65.5539 38.5172H65.3817L65.1235 37.6172H65.2854H65.286Z" fill="black"/>
<path d="M66.6064 37.4044V37.2109H66.7612V37.4044H66.6064ZM66.6064 37.6142H66.7612V38.5141H66.6064V37.6142Z" fill="black"/>
<path d="M67.0761 37.8424C67.0761 37.7645 67.0761 37.6847 67.0742 37.6152H67.2232C67.2284 37.6418 67.2303 37.736 67.2303 37.7626C67.2656 37.686 67.3376 37.5938 67.5097 37.5938C67.6818 37.5938 67.8083 37.697 67.8083 37.9366V38.5151H67.6535V37.9561C67.6535 37.8191 67.6009 37.7288 67.4654 37.7288C67.2971 37.7288 67.2303 37.8587 67.2303 38.0398V38.5158H67.0755V37.8431L67.0761 37.8424Z" fill="black"/>
<path d="M68.2142 38.0924C68.2161 38.2755 68.3073 38.4067 68.4583 38.4067C68.5989 38.4067 68.6445 38.332 68.6728 38.2665H68.8289C68.7935 38.382 68.6972 38.5366 68.4531 38.5366C68.1737 38.5366 68.0601 38.3061 68.0601 38.0749C68.0601 37.8067 68.1936 37.5938 68.464 37.5938C68.7518 37.5938 68.8449 37.8262 68.8449 38.0184C68.8449 38.047 68.8449 38.0697 68.843 38.0931H68.2142V38.0924ZM68.6882 37.9846C68.6863 37.8353 68.6124 37.7165 68.4615 37.7165C68.3105 37.7165 68.2348 37.8269 68.2193 37.9846H68.6882Z" fill="black"/>
<path d="M69.5906 37.2109H69.7454V37.7421C69.784 37.6655 69.8668 37.5927 70.028 37.5927C70.2528 37.5927 70.3935 37.7791 70.3935 38.0453C70.3935 38.3115 70.2567 38.5356 70.0055 38.5356C69.8636 38.5356 69.7878 38.4823 69.7441 38.3953C69.7441 38.4414 69.7409 38.4895 69.7371 38.5141H69.5894C69.5913 38.4128 69.5913 38.3115 69.5913 38.2122V37.2109H69.5906ZM69.9933 37.7239C69.8039 37.7239 69.7371 37.8518 69.7371 38.0668C69.7371 38.2551 69.7968 38.4044 69.985 38.4044C70.143 38.4044 70.2361 38.2674 70.2361 38.0492C70.2361 37.8538 70.1481 37.7246 69.994 37.7246L69.9933 37.7239Z" fill="black"/>
<path d="M71.3097 38.3184C71.3097 38.4022 71.3168 38.4885 71.3219 38.5158H71.1742C71.1672 38.4963 71.162 38.4535 71.1601 38.3989C71.1286 38.4574 71.0567 38.5372 70.8846 38.5372C70.6739 38.5372 70.584 38.3989 70.584 38.2619C70.584 38.0613 70.7401 37.9691 71.0053 37.9691H71.1562V37.8924C71.1562 37.8126 71.1318 37.7165 70.9648 37.7165C70.8171 37.7165 70.7908 37.7911 70.7754 37.86H70.6264C70.6386 37.736 70.7144 37.5938 70.9706 37.5938C71.1884 37.5938 71.3097 37.684 71.3097 37.8885V38.3184ZM71.1588 38.0768H71.0149C70.8377 38.0768 70.7426 38.1268 70.7426 38.2528C70.7426 38.347 70.8056 38.4145 70.9167 38.4145C71.1312 38.4145 71.1588 38.2691 71.1588 38.1054V38.0768Z" fill="black"/>
<path d="M71.6279 37.8593C71.6279 37.7334 71.626 37.6619 71.626 37.6145H71.7769C71.7788 37.6392 71.782 37.7106 71.782 37.7976C71.8276 37.6769 71.933 37.597 72.0807 37.5938V37.7483C71.8983 37.7535 71.782 37.8515 71.782 38.0788V38.5158H71.6273V37.8606L71.6279 37.8593Z" fill="black"/>
<path d="M56.6945 37.2656H56.541V38.6877H56.6945V37.2656Z" fill="#ED1C24"/>
<path d="M64.4269 37.2656H64.2734V38.6877H64.4269V37.2656Z" fill="#ED1C24"/>
</g>
<defs>
<filter id="filter0_d_1850_101150" x="0.875" y="0.65625" width="115.25" height="66.25" filterUnits="userSpaceOnUse" color-interpolation-filters="sRGB">
<feFlood flood-opacity="0" result="BackgroundImageFix"/>
<feColorMatrix in="SourceAlpha" type="matrix" values="0 0 0 0 0 0 0 0 0 0 0 0 0 0 0 0 0 0 127 0" result="hardAlpha"/>
<feOffset dy="0.78125"/>
<feGaussianBlur stdDeviation="1.5625"/>
<feComposite in2="hardAlpha" operator="out"/>
<feColorMatrix type="matrix" values="0 0 0 0 0 0 0 0 0 0 0 0 0 0 0 0 0 0 0.08 0"/>
<feBlend mode="normal" in2="BackgroundImageFix" result="effect1_dropShadow_1850_101150"/>
<feBlend mode="normal" in="SourceGraphic" in2="effect1_dropShadow_1850_101150" result="shape"/>
</filter>
</defs>
</svg>
