<svg width="117" height="67" viewBox="0 0 117 67" fill="none" xmlns="http://www.w3.org/2000/svg">
<g filter="url(#filter0_d_1850_101090)">
<rect width="109" height="60" transform="translate(4 3)" fill="white"/>
<path d="M67.8398 34.6109H71.9192V33.6998H68.8038V32.0886H68.8209V32.0524H71.8313V31.1417H68.8038V27.4111H71.9192V26.5H67.8398V34.6109Z" fill="#7A7A7A"/>
<path d="M55.7992 34.6756C56.9006 34.6756 57.8758 34.2733 58.6976 33.48L58.6998 33.4778C59.5146 32.674 59.9273 31.6881 59.9263 30.5477C59.9273 29.4073 59.5146 28.4212 58.7002 27.617C57.8788 26.8034 56.9028 26.3906 55.7995 26.3906H55.7886C54.6566 26.3906 53.6755 26.8041 52.8734 27.6188C52.0698 28.4323 51.663 29.4178 51.6641 30.547C51.663 31.6874 52.0702 32.6729 52.8745 33.4763L52.8767 33.4785C53.6886 34.2726 54.669 34.6752 55.7908 34.6752H55.7999L55.7992 34.6756ZM53.569 28.2608C54.2008 27.617 54.9289 27.3032 55.7948 27.3021C56.6603 27.3032 57.3888 27.6166 58.0209 28.2605C58.6535 28.9083 58.9612 29.6565 58.9623 30.5477C58.9608 31.4408 58.6652 32.1821 58.0589 32.8115H57.9852V32.8863C57.361 33.5056 56.6439 33.8071 55.7948 33.8082C54.9209 33.8071 54.1895 33.4955 53.5592 32.8549C53.557 32.8527 53.5552 32.8505 53.553 32.8484C52.931 32.1724 52.6284 31.4198 52.628 30.5481C52.6291 29.6562 52.9368 28.9079 53.5694 28.2608H53.569Z" fill="#7A7A7A"/>
<path d="M74.1442 34.6097L75.8053 31.7378L77.4936 34.6097H78.5611L78.3519 34.2522L76.3529 30.83L78.4208 26.4844H77.3609L75.8155 29.8005L74.2299 26.4844H73.185L75.2689 30.83L73.061 34.6097H74.1442Z" fill="#7A7A7A"/>
<path d="M81.2525 34.6097H82.2161V31.3265L84.8659 26.4844H83.7918L81.7341 30.271L79.6767 26.4844H78.634L81.2525 31.3262V34.6097Z" fill="#7A7A7A"/>
<path d="M65.2018 33.9552V33.9537C65.4398 33.7338 65.6229 33.4832 65.7461 33.2084C65.8763 32.9184 65.9422 32.596 65.9422 32.2493C65.9422 31.8615 65.8602 31.5242 65.6983 31.2468C65.5408 30.976 65.2988 30.7308 64.9786 30.5181L64.9699 30.5116L64.9575 30.5048L63.5345 29.7461L63.5291 29.7439C63.3147 29.6421 63.1331 29.5485 62.9891 29.4651C62.821 29.368 62.7328 29.3019 62.688 29.2629L62.6829 29.2578L62.6752 29.2524C62.5513 29.1524 62.4619 29.0462 62.4021 28.9274C62.3434 28.8104 62.3146 28.684 62.3146 28.541C62.3146 28.367 62.3445 28.2092 62.4065 28.0579C62.4685 27.9062 62.5516 27.7758 62.6595 27.6599C62.7649 27.5476 62.8863 27.4613 63.0296 27.396C63.1707 27.3324 63.322 27.3017 63.493 27.3017C63.7814 27.3017 64.0223 27.3635 64.2291 27.4902C64.4318 27.6152 64.621 27.808 64.792 28.0633L64.9345 28.2774L65.6706 27.713L65.5591 27.5317C65.329 27.1562 65.0399 26.8691 64.6997 26.6784C64.3596 26.4874 63.9647 26.3906 63.5254 26.3906H63.5167C63.2079 26.3906 62.9198 26.4415 62.6606 26.5416C62.3981 26.643 62.163 26.7958 61.9621 26.9958C61.759 27.1963 61.6041 27.4332 61.5016 27.6993C61.401 27.9611 61.35 28.254 61.3503 28.5699C61.3503 28.9011 61.4262 29.2004 61.576 29.459C61.724 29.7168 61.9457 29.9378 62.2344 30.1162L62.2392 30.1195L63.614 30.881L63.6191 30.8836C63.8525 30.9988 64.0537 31.1046 64.2167 31.1988C64.4052 31.3072 64.504 31.3787 64.5535 31.4191L64.5769 31.4379C64.7103 31.552 64.8113 31.6737 64.8769 31.8004C64.9451 31.9312 64.9779 32.0684 64.9779 32.2197C64.9768 32.6592 64.819 33.03 64.4945 33.3539C64.1671 33.658 63.801 33.806 63.3767 33.8071C63.0128 33.806 62.712 33.7017 62.4572 33.4875C62.1965 33.2673 61.9785 32.9535 61.8086 32.5544L61.6879 32.2684L60.9077 32.8664L60.9777 33.034C61.1877 33.5403 61.4896 33.9378 61.8739 34.2159C62.2939 34.5203 62.7882 34.6745 63.3439 34.6745H63.3515C64.0307 34.6745 64.6385 34.4452 65.1584 33.9927L65.2018 33.9545V33.9552Z" fill="#7A7A7A"/>
<path d="M48.2312 34.6756H48.2388C48.9181 34.6756 49.5258 34.4463 50.0457 33.9938L50.0486 33.9913L50.0545 33.9855C50.3093 33.7584 50.504 33.4969 50.6331 33.2091C50.7632 32.9192 50.8292 32.5967 50.8292 32.25C50.8292 31.8611 50.7472 31.5238 50.5853 31.2476C50.4271 30.9757 50.1843 30.7297 49.8631 30.5167L49.8539 30.5105L49.8445 30.5055L48.4215 29.7468L48.416 29.7446C48.2049 29.6442 48.023 29.5503 47.8761 29.4658C47.7098 29.3698 47.6209 29.303 47.5746 29.2633L47.5695 29.2582L47.5622 29.2528C47.4389 29.1535 47.3496 29.047 47.2895 28.9282C47.2304 28.8101 47.202 28.6837 47.202 28.5414C47.202 28.3684 47.2322 28.2106 47.2938 28.0582C47.3558 27.9066 47.4389 27.7762 47.5469 27.6603C47.6522 27.548 47.7736 27.4617 47.9169 27.3963C48.058 27.3328 48.2093 27.3021 48.3803 27.3021C48.6683 27.3021 48.9089 27.3638 49.116 27.4906C49.3187 27.6152 49.5083 27.808 49.6797 28.064L49.823 28.2774L50.5587 27.713L50.4471 27.5317C50.2174 27.1565 49.9283 26.8695 49.5878 26.6784C49.2473 26.4874 48.8521 26.3906 48.4131 26.3906H48.4044C48.0956 26.3906 47.8075 26.4415 47.5483 26.5416C47.2858 26.643 47.0507 26.7958 46.8498 26.9958C46.6467 27.1966 46.4921 27.4332 46.3897 27.6989C46.2887 27.9611 46.238 28.254 46.2384 28.5696C46.2376 28.8996 46.3135 29.199 46.4633 29.459C46.6113 29.7168 46.833 29.9378 47.1218 30.1162L47.1261 30.1195L48.5057 30.8836L48.5112 30.8857C48.7471 31.0024 48.9461 31.1075 49.1033 31.1985C49.2531 31.2851 49.3698 31.361 49.4405 31.4184C49.5856 31.5379 49.6943 31.6665 49.7635 31.8004C49.8313 31.9308 49.8649 32.068 49.8652 32.2197C49.8642 32.6595 49.7059 33.0307 49.3807 33.3543C49.054 33.658 48.688 33.806 48.2629 33.8071C47.8991 33.806 47.5983 33.7017 47.3434 33.4875C47.0824 33.2673 46.8644 32.9531 46.6956 32.5541L46.5738 32.2688L45.7939 32.8664L45.8639 33.034C46.0739 33.5403 46.3758 33.9378 46.7601 34.2159C47.1801 34.5203 47.6745 34.6745 48.2301 34.6745L48.2312 34.6756Z" fill="#7A7A7A"/>
<path d="M43.5219 26.4375H42.6746V34.5787H43.5219V26.4375Z" fill="#7A7A7A"/>
<path d="M58.3721 35.3984H53.2173V36.2377H58.3721V35.3984Z" fill="#7A7A7A"/>
<path d="M36.2644 33.2617L33.0514 26.4671H32.1147V34.6083H33.0062V28.5673L35.87 34.6065L35.9859 34.6083L36.6874 34.6145L39.5344 28.5601V34.6083H40.4258V26.4689L39.5118 26.4609L36.2644 33.2617Z" fill="#7A7A7A"/>
<path d="M33.7414 37.3438C33.6612 37.2806 33.5661 37.2322 33.4556 37.1986C33.3451 37.1654 33.2226 37.1484 33.0877 37.1484H32.2021V39.5657H32.3833V38.6644H33.0421C33.1701 38.6644 33.2915 38.6481 33.4064 38.616C33.5216 38.5839 33.6226 38.5355 33.7097 38.4708C33.7968 38.4065 33.8661 38.3257 33.9171 38.2292C33.9682 38.1325 33.9937 38.0209 33.9937 37.8941V37.8873C33.9937 37.7699 33.9715 37.6655 33.9274 37.5749C33.8832 37.4839 33.8209 37.407 33.7407 37.3434L33.7414 37.3438ZM33.8129 37.905C33.8129 37.9952 33.7943 38.0776 33.7571 38.1516C33.7199 38.2256 33.6681 38.2888 33.6018 38.3408C33.5354 38.3928 33.456 38.4329 33.363 38.4607C33.27 38.4885 33.1665 38.5022 33.0527 38.5022H32.3833V37.3109H33.0735C33.1829 37.3109 33.2828 37.3236 33.3732 37.3492C33.464 37.3749 33.5416 37.4117 33.6069 37.4604C33.6718 37.5092 33.7225 37.5699 33.7586 37.6428C33.7946 37.7157 33.8125 37.801 33.8125 37.8981V37.905H33.8129Z" fill="#7A7A7A"/>
<path d="M35.2145 37.1328L34.0781 39.5671H34.2662L34.5765 38.8903H36.0162L36.3265 39.5671H36.5252L35.3888 37.1328H35.2145ZM34.6531 38.7278L35.298 37.3293L35.9393 38.7278H34.6531Z" fill="#7A7A7A"/>
<path d="M38.8957 39.2512L37.212 37.1484H37.041V39.5654H37.2153V37.4175L38.9339 39.5654H39.0699V37.1484H38.8957V39.2512Z" fill="#7A7A7A"/>
<path d="M41.7682 37.1328L40.6318 39.5671H40.82L41.1302 38.8903H42.57L42.8802 39.5671H43.0789L41.9425 37.1328H41.7682ZM41.2071 38.7278L41.8521 37.3293L42.4934 38.7278H41.2071Z" fill="#7A7A7A"/>
<path d="M44.9896 38.5143C44.8641 38.4096 44.6596 38.3284 44.376 38.2709C44.2319 38.241 44.1135 38.2088 44.0205 38.1742C43.9275 38.1395 43.855 38.1012 43.8025 38.0586C43.7503 38.016 43.7142 37.9687 43.6946 37.917C43.6749 37.8654 43.665 37.8073 43.665 37.7426V37.7358C43.665 37.6737 43.6789 37.6148 43.7069 37.5595C43.735 37.5043 43.7748 37.4559 43.8273 37.4144C43.8794 37.3729 43.9425 37.34 44.0154 37.3158C44.0887 37.2916 44.1707 37.2797 44.2611 37.2797C44.396 37.2797 44.5222 37.3003 44.6392 37.3418C44.7566 37.3833 44.8732 37.4534 44.9896 37.5523L45.1048 37.4108C44.9815 37.3118 44.8554 37.2382 44.7267 37.1898C44.5976 37.1414 44.4449 37.1172 44.2684 37.1172C44.1547 37.1172 44.05 37.1334 43.9545 37.1656C43.8593 37.1977 43.7766 37.2429 43.7069 37.3003C43.6373 37.3577 43.5826 37.4252 43.5432 37.5021C43.5039 37.5794 43.4838 37.6628 43.4838 37.7524V37.7592C43.4838 37.8513 43.4988 37.9329 43.529 38.0044C43.5593 38.0759 43.6074 38.1384 43.6738 38.1926C43.7401 38.2467 43.8254 38.294 43.9301 38.3341C44.0347 38.3746 44.1601 38.4096 44.3067 38.4396C44.446 38.467 44.5601 38.4977 44.6483 38.5309C44.7365 38.5642 44.8069 38.6017 44.8594 38.6432C44.9115 38.6848 44.9476 38.7306 44.9673 38.7812C44.987 38.8317 44.9968 38.8895 44.9968 38.9538V38.9607C44.9968 39.0296 44.9815 39.0935 44.9516 39.1524C44.9214 39.2113 44.8794 39.2618 44.8262 39.3044C44.7726 39.347 44.7077 39.3803 44.6312 39.4045C44.5546 39.4287 44.4707 39.4406 44.3803 39.4406C44.2899 39.4406 44.2061 39.433 44.1295 39.4182C44.0529 39.4034 43.9797 39.3814 43.91 39.3525C43.8404 39.3236 43.7722 39.2867 43.7062 39.242C43.6399 39.1972 43.5731 39.1434 43.5057 39.0813L43.3872 39.216C43.5338 39.3449 43.6854 39.4417 43.8422 39.5059C43.999 39.5702 44.1751 39.6027 44.3705 39.6027C44.489 39.6027 44.5976 39.5865 44.6964 39.5543C44.7952 39.5222 44.8802 39.477 44.9509 39.4196C45.0216 39.3622 45.0774 39.2925 45.1183 39.2105C45.1587 39.1289 45.1791 39.0397 45.1791 38.943V38.9361C45.1791 38.7588 45.1164 38.618 44.991 38.5132L44.9896 38.5143Z" fill="#7A7A7A"/>
<path d="M45.9795 37.1484H45.7983V39.5657H45.9795V37.1484Z" fill="#7A7A7A"/>
<path d="M47.6567 37.1328L46.5203 39.5671H46.7084L47.0187 38.8903H48.4584L48.7687 39.5671H48.9673L47.8309 37.1328H47.6567ZM47.0952 38.7278L47.7402 37.3293L48.3815 38.7278H47.0952Z" fill="#7A7A7A"/>
<path d="M51.3378 39.2512L49.6541 37.1484H49.4832V39.5654H49.6574V37.4175L51.3761 39.5654H51.5121V37.1484H51.3378V39.2512Z" fill="#7A7A7A"/>
<path d="M54.8552 39.3493C54.725 39.414 54.5715 39.4461 54.3951 39.4461C54.2485 39.4461 54.1125 39.418 53.9871 39.3616C53.8617 39.3053 53.753 39.228 53.6612 39.1302C53.5693 39.0323 53.4967 38.9171 53.4431 38.7849C53.3895 38.6528 53.3629 38.5105 53.3629 38.3585V38.3516C53.3629 38.1996 53.3892 38.058 53.4413 37.9269C53.4935 37.7958 53.5656 37.6814 53.6575 37.5835C53.7494 37.4857 53.858 37.4091 53.9835 37.3538C54.1089 37.2986 54.2449 37.2712 54.3914 37.2712C54.4822 37.2712 54.5664 37.2805 54.6441 37.2986C54.7221 37.317 54.7939 37.3416 54.8603 37.373C54.9266 37.404 54.9886 37.4416 55.0469 37.4853C55.1049 37.529 55.1607 37.5763 55.2143 37.6268L55.3433 37.4958C55.2806 37.4383 55.2161 37.386 55.1498 37.3387C55.0834 37.2914 55.0127 37.2506 54.9372 37.2163C54.8617 37.1816 54.7797 37.1552 54.6915 37.1368C54.6032 37.1184 54.5044 37.1094 54.3951 37.1094C54.2182 37.1094 54.0556 37.1422 53.9069 37.208C53.7581 37.2737 53.6298 37.3632 53.5215 37.4773C53.4136 37.5915 53.3287 37.7243 53.267 37.876C53.2054 38.028 53.1748 38.1891 53.1748 38.3595V38.3664C53.1748 38.539 53.2051 38.7015 53.2656 38.8532C53.3261 39.0052 53.4103 39.137 53.5182 39.2486C53.6262 39.3602 53.7549 39.4483 53.9036 39.5129C54.0524 39.5772 54.2139 39.6097 54.3881 39.6097C54.495 39.6097 54.5938 39.5992 54.6845 39.5787C54.7753 39.5581 54.8595 39.5292 54.9372 39.4923C55.0149 39.4555 55.0881 39.4111 55.1567 39.3595C55.2252 39.3078 55.2919 39.2508 55.3572 39.1887L55.2351 39.0713C55.1118 39.1933 54.9853 39.2865 54.8552 39.3512V39.3493Z" fill="#7A7A7A"/>
<path d="M58.0455 37.8793C57.9875 37.7298 57.9047 37.598 57.7979 37.4838C57.6911 37.3697 57.562 37.2791 57.4111 37.2112C57.2602 37.1433 57.0928 37.1094 56.9091 37.1094C56.7253 37.1094 56.5547 37.1433 56.4034 37.2112C56.2524 37.2791 56.1234 37.3708 56.0166 37.4857C55.9097 37.6008 55.8266 37.7337 55.7672 37.8843C55.7078 38.0353 55.6782 38.1934 55.6782 38.3592V38.366C55.6782 38.5318 55.7074 38.6896 55.7654 38.8391C55.8233 38.9886 55.9061 39.1204 56.0129 39.2345C56.1197 39.3486 56.2481 39.4393 56.3983 39.5072C56.5481 39.575 56.7162 39.609 56.9021 39.609C57.0881 39.609 57.2536 39.575 57.406 39.5072C57.558 39.4393 57.6878 39.3479 57.7946 39.2327C57.9015 39.1175 57.9846 38.9846 58.044 38.834C58.1034 38.6835 58.133 38.5249 58.133 38.3592C58.1352 38.357 58.1352 38.3545 58.133 38.3523C58.133 38.1866 58.1038 38.0288 58.0458 37.8793H58.0455ZM57.9441 38.366C57.9441 38.5155 57.9186 38.656 57.8675 38.7875C57.8165 38.9185 57.745 39.0334 57.6532 39.1309C57.5613 39.2287 57.4523 39.306 57.3254 39.3623C57.1985 39.4187 57.06 39.4468 56.9087 39.4468C56.7574 39.4468 56.6181 39.418 56.4905 39.3605C56.3625 39.3031 56.2528 39.2255 56.1609 39.1276C56.0691 39.0298 55.9972 38.9146 55.9447 38.7824C55.8926 38.6499 55.8663 38.509 55.8663 38.3595V38.3527C55.8663 38.2032 55.8919 38.0627 55.9429 37.9313C55.994 37.8002 56.0654 37.6857 56.1573 37.5878C56.2492 37.49 56.3582 37.4131 56.485 37.3564C56.6116 37.3 56.7505 37.2719 56.9018 37.2719C57.0531 37.2719 57.1923 37.3008 57.3199 37.3582C57.4475 37.4156 57.5576 37.4936 57.6495 37.5911C57.7414 37.689 57.8132 37.8042 57.8657 37.9363C57.9179 38.0688 57.9441 38.2097 57.9441 38.3592V38.366Z" fill="#7A7A7A"/>
<path d="M60.3217 39.3493C60.1916 39.414 60.0381 39.4461 59.8616 39.4461C59.7151 39.4461 59.5791 39.418 59.4536 39.3616C59.3282 39.3053 59.2196 39.228 59.1277 39.1302C59.0358 39.0323 58.9633 38.9171 58.9097 38.7849C58.8561 38.6528 58.8295 38.5105 58.8295 38.3585V38.3516C58.8295 38.1996 58.8557 38.058 58.9079 37.9269C58.96 37.7958 59.0322 37.6814 59.1241 37.5835C59.2159 37.4857 59.3246 37.4091 59.45 37.3538C59.5754 37.2986 59.7114 37.2712 59.858 37.2712C59.9488 37.2712 60.033 37.2805 60.1106 37.2986C60.1886 37.317 60.2605 37.3416 60.3268 37.373C60.3932 37.404 60.4552 37.4416 60.5135 37.4853C60.5715 37.529 60.6272 37.5763 60.6808 37.6268L60.8099 37.4958C60.7472 37.4383 60.6827 37.386 60.6163 37.3387C60.55 37.2914 60.4792 37.2506 60.4038 37.2163C60.3283 37.1816 60.2463 37.1552 60.158 37.1368C60.0698 37.1184 59.971 37.1094 59.8616 37.1094C59.6852 37.1094 59.5222 37.1422 59.3734 37.208C59.2247 37.2737 59.0964 37.3632 58.9881 37.4773C58.8802 37.5915 58.7952 37.7243 58.7336 37.876C58.672 38.028 58.6414 38.1891 58.6414 38.3595V38.3664C58.6414 38.539 58.6716 38.7015 58.7321 38.8532C58.7927 39.0052 58.8769 39.137 58.9848 39.2486C59.0927 39.3602 59.2214 39.4483 59.3702 39.5129C59.5189 39.5772 59.6804 39.6097 59.8547 39.6097C59.9615 39.6097 60.0603 39.5992 60.1511 39.5787C60.2419 39.5581 60.3261 39.5292 60.4038 39.4923C60.4818 39.4555 60.5547 39.4111 60.6232 39.3595C60.6918 39.3078 60.7585 39.2508 60.8238 39.1887L60.7016 39.0713C60.5784 39.1933 60.4519 39.2865 60.3217 39.3512V39.3493Z" fill="#7A7A7A"/>
<path d="M63.306 37.1484H63.0584L61.5035 38.7366V37.1484H61.3223V39.5654H61.5035V38.9507L62.1101 38.343L63.1142 39.5654H63.3512L62.2392 38.2152L63.306 37.1484Z" fill="#7A7A7A"/>
<path d="M63.6057 37.3106H64.4563V39.5654H64.6378V37.3106H65.4884V37.1484H63.6057V37.3106Z" fill="#7A7A7A"/>
<path d="M66.6525 37.1328L65.5161 39.5671H65.7042L66.0145 38.8903H67.4542L67.7645 39.5671H67.9632L66.8268 37.1328H66.6525ZM66.0914 38.7278L66.7364 37.3293L67.3777 38.7278H66.0914Z" fill="#7A7A7A"/>
<path d="M68.6851 37.1484H68.5039V39.5657H68.6851V37.1484Z" fill="#7A7A7A"/>
<path d="M69.6158 37.1484H69.4346V39.5654H71.0486V39.4032H69.6158V37.1484Z" fill="#7A7A7A"/>
<path d="M74.3813 38.2704H72.8194V37.1484H72.6382V39.5654H72.8194V38.4329H74.3813V39.5654H74.5628V37.1484H74.3813V38.2704Z" fill="#7A7A7A"/>
<path d="M77.5469 37.8793C77.489 37.7298 77.4062 37.598 77.2994 37.4838C77.1926 37.3697 77.0635 37.2791 76.9126 37.2112C76.7616 37.1433 76.5943 37.1094 76.4105 37.1094C76.2268 37.1094 76.0561 37.1433 75.9048 37.2112C75.7539 37.2791 75.6248 37.3708 75.518 37.4857C75.4112 37.6008 75.3281 37.7337 75.2686 37.8843C75.2092 38.0353 75.1797 38.1934 75.1797 38.3592V38.366C75.1797 38.5318 75.2089 38.6896 75.2668 38.8391C75.3248 38.9886 75.4076 39.1204 75.5144 39.2345C75.6212 39.3486 75.7495 39.4393 75.8997 39.5072C76.0496 39.575 76.2177 39.609 76.4036 39.609C76.5895 39.609 76.7551 39.575 76.9074 39.5072C77.0595 39.4393 77.1893 39.3479 77.2961 39.2327C77.4029 39.1175 77.486 38.9846 77.5455 38.834C77.6049 38.6835 77.6344 38.5249 77.6344 38.3592C77.6366 38.357 77.6366 38.3545 77.6344 38.3523C77.6344 38.1866 77.6053 38.0288 77.5473 37.8793H77.5469ZM77.4456 38.366C77.4456 38.5155 77.4201 38.656 77.369 38.7875C77.318 38.9185 77.2465 39.0334 77.1546 39.1309C77.0628 39.2287 76.9538 39.306 76.8269 39.3623C76.7 39.4187 76.5615 39.4468 76.4102 39.4468C76.2589 39.4468 76.1196 39.418 75.992 39.3605C75.864 39.3031 75.7543 39.2255 75.6624 39.1276C75.5705 39.0298 75.4987 38.9146 75.4462 38.7824C75.3941 38.6499 75.3678 38.509 75.3678 38.3595V38.3527C75.3678 38.2032 75.3933 38.0627 75.4444 37.9313C75.4954 37.8002 75.5669 37.6857 75.6588 37.5878C75.7506 37.49 75.8596 37.4131 75.9865 37.3564C76.113 37.3 76.2519 37.2719 76.4032 37.2719C76.5545 37.2719 76.6938 37.3008 76.8214 37.3582C76.9494 37.4156 77.0591 37.4936 77.151 37.5911C77.2429 37.689 77.3147 37.8042 77.3672 37.9363C77.4193 38.0688 77.4456 38.2097 77.4456 38.3592V38.366Z" fill="#7A7A7A"/>
<path d="M80.0324 38.5607C80.0324 38.7059 80.0131 38.8334 79.9748 38.9439C79.9365 39.0544 79.8818 39.1465 79.8111 39.2201C79.7404 39.2938 79.6547 39.349 79.5548 39.3859C79.4549 39.4227 79.3433 39.4411 79.2201 39.4411C78.9598 39.4411 78.7571 39.3635 78.6116 39.2082C78.4665 39.0529 78.3936 38.8312 78.3936 38.5434V37.1484H78.2124V38.5607C78.2124 38.7312 78.2368 38.8807 78.2857 39.0096C78.3345 39.1385 78.4034 39.2472 78.4931 39.336C78.5825 39.4249 78.6882 39.4913 78.8103 39.5365C78.9325 39.5812 79.0666 39.6036 79.2128 39.6036C79.359 39.6036 79.4968 39.5805 79.619 39.5347C79.7411 39.4888 79.8461 39.4205 79.9343 39.331C80.0226 39.2411 80.0911 39.1302 80.14 38.9977C80.1888 38.8655 80.2132 38.7128 80.2132 38.5402V37.1484H80.032V38.5607H80.0324Z" fill="#7A7A7A"/>
<path d="M82.3473 38.5143C82.2219 38.4096 82.0174 38.3284 81.7337 38.2709C81.5897 38.241 81.4712 38.2088 81.3783 38.1742C81.2853 38.1395 81.2128 38.1012 81.1603 38.0586C81.1081 38.016 81.072 37.9687 81.0523 37.917C81.0326 37.8654 81.0228 37.8073 81.0228 37.7426V37.7358C81.0228 37.6737 81.0367 37.6148 81.0647 37.5595C81.0924 37.5043 81.1325 37.4559 81.185 37.4144C81.2372 37.3729 81.3003 37.34 81.3732 37.3158C81.4465 37.2916 81.5285 37.2797 81.6189 37.2797C81.7538 37.2797 81.8799 37.3003 81.9973 37.3418C82.1147 37.3833 82.2314 37.4534 82.3477 37.5523L82.4629 37.4108C82.3397 37.3118 82.2135 37.2382 82.0845 37.1898C81.9554 37.1414 81.8026 37.1172 81.6262 37.1172C81.5124 37.1172 81.4078 37.1334 81.3123 37.1656C81.2168 37.1977 81.1344 37.2429 81.0647 37.3003C80.9951 37.3577 80.9404 37.4252 80.901 37.5021C80.8617 37.5794 80.8416 37.6628 80.8416 37.7524V37.7592C80.8416 37.8513 80.8566 37.9329 80.8868 38.0044C80.9171 38.0759 80.9652 38.1384 81.0316 38.1926C81.0979 38.2467 81.1832 38.294 81.2879 38.3341C81.3925 38.3746 81.5179 38.4096 81.6645 38.4396C81.8041 38.467 81.9179 38.4977 82.0061 38.5309C82.0943 38.5642 82.1647 38.6017 82.2172 38.6432C82.2693 38.6848 82.3054 38.7306 82.3251 38.7812C82.3448 38.8317 82.3546 38.8895 82.3546 38.9538V38.9607C82.3546 39.0296 82.3393 39.0935 82.3094 39.1524C82.2792 39.2113 82.2372 39.2618 82.184 39.3044C82.1304 39.347 82.0655 39.3803 81.989 39.4045C81.9124 39.4287 81.8285 39.4406 81.7378 39.4406C81.647 39.4406 81.5635 39.433 81.4869 39.4182C81.4104 39.4034 81.3371 39.3814 81.2674 39.3525C81.1978 39.3236 81.1296 39.2867 81.0636 39.242C80.9973 39.1972 80.9306 39.1434 80.8631 39.0813L80.7446 39.216C80.8912 39.3449 81.0429 39.4417 81.1996 39.5059C81.3564 39.5702 81.5325 39.6027 81.7279 39.6027C81.8464 39.6027 81.955 39.5865 82.0538 39.5543C82.1527 39.5222 82.2376 39.477 82.3083 39.4196C82.3791 39.3622 82.4348 39.2925 82.4757 39.2105C82.5161 39.1289 82.5366 39.0397 82.5366 38.943V38.9361C82.5366 38.7588 82.4738 38.618 82.3484 38.5132L82.3473 38.5143Z" fill="#7A7A7A"/>
<path d="M83.3128 39.4032V38.4293H84.711V38.2672H83.3128V37.3106H84.8677V37.1484H83.1316V39.5654H84.8852V39.4032H83.3128Z" fill="#7A7A7A"/>
</g>
<defs>
<filter id="filter0_d_1850_101090" x="0.875" y="0.65625" width="115.25" height="66.25" filterUnits="userSpaceOnUse" color-interpolation-filters="sRGB">
<feFlood flood-opacity="0" result="BackgroundImageFix"/>
<feColorMatrix in="SourceAlpha" type="matrix" values="0 0 0 0 0 0 0 0 0 0 0 0 0 0 0 0 0 0 127 0" result="hardAlpha"/>
<feOffset dy="0.78125"/>
<feGaussianBlur stdDeviation="1.5625"/>
<feComposite in2="hardAlpha" operator="out"/>
<feColorMatrix type="matrix" values="0 0 0 0 0 0 0 0 0 0 0 0 0 0 0 0 0 0 0.08 0"/>
<feBlend mode="normal" in2="BackgroundImageFix" result="effect1_dropShadow_1850_101090"/>
<feBlend mode="normal" in="SourceGraphic" in2="effect1_dropShadow_1850_101090" result="shape"/>
</filter>
</defs>
</svg>
