<svg width="117" height="67" viewBox="0 0 117 67" fill="none" xmlns="http://www.w3.org/2000/svg">
<g filter="url(#filter0_d_1850_79806)">
<rect width="109" height="60" transform="translate(4 3)" fill="white"/>
<path d="M92.0885 27.9515C92.0438 27.9515 91.9939 27.9256 91.968 27.8843C91.9245 27.8158 91.9445 27.7291 92.0133 27.6878L92.9115 27.1556L91.449 24.4101C91.4131 24.3417 91.4401 24.2544 91.5089 24.2195C91.5806 24.183 91.6718 24.2095 91.7064 24.2791L93.2301 27.1432C93.2653 27.2093 93.2436 27.2883 93.1801 27.3296L92.1691 27.9291C92.1432 27.9445 92.1197 27.9521 92.0885 27.9521" fill="#181616"/>
<path d="M26.4682 27.9922C22.5891 27.9922 19.4377 30.9253 19.4377 34.5304C19.4377 38.1356 22.5891 41.0722 26.4682 41.0722C30.3472 41.0722 33.4962 38.1367 33.4962 34.5304C33.4962 30.9241 30.3449 27.9922 26.4682 27.9922ZM26.4682 39.4248C23.5196 39.4248 21.1207 37.2322 21.1207 34.5298C21.1207 31.8274 23.5196 29.6349 26.4682 29.6349C29.4167 29.6349 31.8162 31.8328 31.8162 34.5298C31.8162 37.2269 29.4173 39.4248 26.4682 39.4248Z" fill="#181616"/>
<path d="M23.1467 37.7494C23.1161 37.7494 23.0797 37.7382 23.0521 37.7146C22.101 36.8673 21.5754 35.7397 21.5754 34.5342C21.5754 32.0797 23.7704 30.0859 26.4697 30.0859C27.9986 30.0859 29.4176 30.7249 30.3523 31.8425C30.404 31.9015 30.3928 31.9918 30.3317 32.0419C30.2723 32.0897 30.1783 32.0797 30.1283 32.0219C29.2472 30.9692 27.914 30.3692 26.4697 30.3692C23.9309 30.3692 21.8688 32.2378 21.8688 34.5342C21.8688 35.6594 22.3561 36.7097 23.2466 37.5027C23.3054 37.5558 23.3089 37.6455 23.2543 37.7033C23.2266 37.7346 23.1873 37.7494 23.1467 37.7494Z" fill="#181616"/>
<path d="M26.4685 41.8009C24.367 41.8009 22.3966 41.0262 20.9223 39.619C20.8642 39.5659 20.8642 39.4774 20.9182 39.4195C20.9735 39.3623 21.0681 39.3623 21.1246 39.4184C22.5442 40.7713 24.4417 41.516 26.4691 41.516C30.5968 41.516 33.9545 38.3846 33.9545 34.5323C33.9545 32.9279 33.3531 31.3549 32.2556 30.1105C32.2057 30.0515 32.2127 29.9606 32.2739 29.9111C32.3297 29.858 32.4232 29.8639 32.4767 29.9264C33.6182 31.2221 34.2413 32.8571 34.2413 34.5323C34.2413 38.5392 30.7532 41.8009 26.4685 41.8009Z" fill="#181616"/>
<path d="M47.6341 40.589L45.6714 40.5861C45.5926 40.5861 45.5273 40.5224 45.5273 40.4433C45.5273 40.3642 45.5926 40.3035 45.6714 40.3035H47.486L47.4895 29.668C47.4895 29.5901 47.5583 29.5234 47.6371 29.5234C47.7158 29.5234 47.7846 29.5901 47.7846 29.668L47.7764 40.4433C47.7764 40.4846 47.7623 40.5194 47.7323 40.5442C47.707 40.5707 47.6717 40.5884 47.6341 40.5884" fill="#181616"/>
<path d="M40.5125 31.6779C40.4772 31.6779 40.4378 31.6626 40.4096 31.6372C39.6413 30.8932 39.2093 30.2465 39.0923 29.6635C39.0788 29.5856 39.1287 29.5089 39.2093 29.4954C39.2869 29.4782 39.3598 29.5325 39.3803 29.6075C39.4832 30.1356 39.8876 30.7333 40.613 31.436C40.6706 31.4891 40.6724 31.5806 40.6165 31.6366C40.5865 31.6632 40.5478 31.6785 40.5137 31.6785" fill="#181616"/>
<path d="M39.1974 40.5738H37.2388C37.1617 40.5738 37.0918 40.5112 37.0918 40.431C37.0918 40.3549 37.1612 40.2899 37.2388 40.2899H39.0516V34.2285C39.0516 34.1724 39.0869 34.1223 39.138 34.0981C39.1903 34.0751 39.2526 34.0857 39.2938 34.1223C39.8452 34.5902 40.4824 35.0716 41.2348 35.5944C42.7861 36.6695 43.8018 37.4949 44.3362 38.1198C44.3879 38.1806 44.3773 38.2673 44.3162 38.3192C44.2551 38.3676 44.1622 38.3587 44.1134 38.3009C43.5955 37.6938 42.6009 36.8854 41.0655 35.8251C40.413 35.372 39.844 34.9471 39.3449 34.5347V40.431C39.3449 40.5112 39.2767 40.5738 39.1968 40.5738" fill="#181616"/>
<path d="M80.9736 40.5926H79.0608C78.9797 40.5926 78.915 40.5265 78.915 40.4487C78.915 40.3708 78.9791 40.307 79.0608 40.307H80.8255V31.28C80.8255 31.201 80.8901 31.1384 80.9736 31.1384H84.2925V29.6014C84.2925 29.5235 84.3595 29.4609 84.4371 29.4609C84.5147 29.4609 84.5829 29.5235 84.5829 29.6014V31.28C84.5829 31.3567 84.5164 31.4205 84.4371 31.4205H81.117V40.4481C81.117 40.5259 81.0512 40.592 80.9736 40.592" fill="#181616"/>
<path d="M78.0881 31.416H75.7791C75.7009 31.416 75.6333 31.3523 75.6333 31.2744C75.6333 31.1965 75.7009 31.1328 75.7791 31.1328H78.0881C78.1651 31.1328 78.2338 31.1954 78.2338 31.2744C78.2338 31.3535 78.1651 31.416 78.0881 31.416Z" fill="#181616"/>
<path d="M95.8001 40.645C95.746 40.645 95.6972 40.6161 95.6719 40.5695C95.6372 40.4993 95.6608 40.4149 95.7313 40.3783L97.2232 39.6331L92.0574 29.6909C92.0174 29.6225 92.045 29.5369 92.1191 29.5009C92.1908 29.4632 92.2796 29.4927 92.3154 29.5617L97.5483 39.6331C97.5812 39.7021 97.5553 39.7877 97.4842 39.8237L95.8641 40.6291C95.8418 40.6403 95.8218 40.645 95.8001 40.645Z" fill="#181616"/>
<path d="M89.2635 35.3333C89.2406 35.3333 89.2212 35.3291 89.1983 35.3197C89.1272 35.2843 89.0978 35.197 89.1319 35.1285L90.4174 32.6332C90.4521 32.563 90.5415 32.5353 90.6132 32.5689C90.6814 32.6043 90.7102 32.6893 90.679 32.7607L89.3952 35.253C89.3693 35.3032 89.3147 35.3327 89.2629 35.3327" fill="#181616"/>
<path d="M86.2415 41.1235C86.2163 41.1235 86.1969 41.1182 86.1734 41.1088L84.692 40.3677C84.6186 40.3299 84.5945 40.245 84.6256 40.1765C84.665 40.1051 84.7526 40.078 84.8225 40.1146L86.1775 40.7902L87.8193 37.6553C87.8369 37.6211 87.8675 37.5957 87.908 37.5833C87.9457 37.5721 87.9903 37.5798 88.0227 37.5998C88.8691 38.1126 89.9813 38.502 91.4174 38.8017C92.0722 38.9327 92.6406 39.0897 93.1091 39.2626C93.1832 39.2932 93.2191 39.3735 93.1902 39.4449C93.1626 39.5186 93.0815 39.5546 93.0045 39.5275C92.5489 39.3611 91.9964 39.2071 91.3568 39.0773C89.9631 38.7923 88.8627 38.4129 88.0056 37.919L86.3709 41.0457C86.3515 41.0799 86.3209 41.1052 86.2845 41.1159C86.2721 41.1206 86.2568 41.1229 86.2415 41.1229" fill="#181616"/>
<path d="M53.5913 37.1397C53.5584 37.1397 53.5243 37.1291 53.4955 37.1066C53.1669 36.8228 52.8971 36.4965 52.7002 36.1319C52.6755 36.09 52.6755 36.0369 52.7002 35.9968C52.7266 35.9525 52.7719 35.9248 52.8224 35.9224C53.5161 35.8965 54.2943 35.7324 55.2043 35.4315C55.9679 35.1784 56.5875 35.0657 57.0512 35.0604C57.5909 35.0681 58.1593 35.2911 58.4556 35.4315L58.462 33.8213C58.462 33.7422 58.5243 33.6797 58.6061 33.6797C58.6878 33.6797 58.7489 33.7422 58.7489 33.8213L58.7454 35.6634C58.7454 35.713 58.7166 35.7631 58.6737 35.7838C58.6272 35.8091 58.5737 35.8091 58.5267 35.7838C58.5185 35.779 57.7402 35.3513 57.0471 35.343C56.6345 35.3324 56.0208 35.4587 55.296 35.7C54.4625 35.9785 53.7353 36.1402 53.0705 36.1909C53.238 36.4505 53.4426 36.6836 53.6859 36.8936C53.7483 36.9438 53.7541 37.0341 53.7006 37.0931C53.6736 37.1243 53.6324 37.1409 53.5901 37.1409" fill="#181616"/>
<path d="M52.666 33.6194C52.6478 33.6194 52.6314 33.6164 52.6155 33.6123C52.5367 33.584 52.5026 33.4996 52.5297 33.4258C53.0658 32.0587 54.5101 31.1406 56.1183 31.1406C57.0877 31.1406 58.0164 31.4752 58.7277 32.0817L59.0498 32.3561L60.1109 31.3188C60.1679 31.2616 60.2608 31.2651 60.3148 31.3188C60.373 31.3737 60.373 31.4634 60.3148 31.5182L59.1557 32.6494C59.1033 32.7025 59.0175 32.7042 58.9611 32.6553L58.5337 32.2983C57.8783 31.7324 57.0183 31.4233 56.1178 31.4233C54.6282 31.4233 53.2944 32.267 52.803 33.5279C52.7801 33.5852 52.7219 33.6188 52.666 33.6188" fill="#181616"/>
<path d="M56.1189 40.8734C54.3349 40.8734 52.656 40.222 51.391 39.0408C51.3317 38.9865 51.3299 38.8962 51.3828 38.8413C51.4404 38.7841 51.5321 38.7823 51.5903 38.8348C52.8018 39.9671 54.4101 40.5884 56.1189 40.5884C57.602 40.5884 59.0533 40.1005 60.2078 39.2101C60.2678 39.1617 60.3607 39.1723 60.4124 39.2349C60.46 39.2945 60.4524 39.3824 60.3865 39.4349C59.1868 40.363 57.669 40.874 56.1183 40.874" fill="#181616"/>
<path d="M70.2919 36.7872C70.2261 36.7872 70.1738 36.7488 70.1526 36.6892C69.9663 36.1712 68.706 35.865 67.689 35.6166C67.5967 35.5959 67.4991 35.5717 67.3963 35.5499L67.2458 35.5151C66.2894 35.2997 64.848 34.9781 63.8581 34.1497C63.7988 34.0948 63.7911 34.0057 63.844 33.9467C63.8946 33.8871 63.9886 33.883 64.0474 33.9326C64.9803 34.7185 66.3817 35.0336 67.3105 35.2389L67.4645 35.2749C67.5673 35.2979 67.6667 35.3227 67.7607 35.3434C68.9546 35.6319 70.1902 35.9305 70.4283 36.5984C70.4512 36.6715 70.413 36.7541 70.3348 36.7777C70.3213 36.7842 70.306 36.7878 70.2925 36.7878" fill="#181616"/>
<path d="M67.8621 40.7505C66.0598 40.7505 64.4703 40.2112 63.3829 39.2335C63.3223 39.1822 63.3194 39.0919 63.3729 39.037C63.4287 38.9762 63.5198 38.9721 63.5804 39.0258C64.6114 39.9569 66.1357 40.4661 67.8621 40.4661C69.8137 40.4661 71.3955 39.9522 72.3284 39.0181C72.9527 38.3933 73.2707 37.595 73.2442 36.7146C73.2266 36.0337 73.0303 35.4626 72.64 34.9687C72.5947 34.9097 72.6053 34.8194 72.6682 34.7704C72.734 34.725 72.8239 34.7344 72.8727 34.7982C73.2913 35.3339 73.5158 35.9771 73.5352 36.7081C73.5628 37.6687 73.2154 38.5349 72.5383 39.214C71.5501 40.2047 69.8925 40.7511 67.8621 40.7511" fill="#181616"/>
<path d="M71.1427 32.8817H71.1315C71.0892 32.8787 71.0504 32.8587 71.0239 32.8292C70.9522 32.7371 70.907 32.6705 70.8676 32.6109C70.7859 32.4934 70.7171 32.3996 70.482 32.1683C69.9517 31.6521 68.9236 31.2803 67.8491 31.2249C67.1696 31.1918 66.4747 31.3606 66.2308 31.6161C66.1738 31.6733 66.0797 31.6757 66.0245 31.6226C65.9675 31.5694 65.9633 31.4798 66.0162 31.4219C66.3243 31.1015 67.0826 30.8998 67.8691 30.9434C69.0053 31.003 70.1093 31.4042 70.6848 31.966C70.9428 32.2167 71.0163 32.3259 71.1074 32.4504C71.1209 32.474 71.1386 32.4982 71.1621 32.5271L72.2243 31.5222C72.2825 31.468 72.3712 31.4697 72.4271 31.5252C72.4847 31.5824 72.4818 31.6727 72.4271 31.7258L71.2408 32.8433C71.2132 32.8664 71.1768 32.8811 71.1421 32.8811" fill="#181616"/>
<path d="M45.353 36.0937C44.6811 35.4595 43.747 34.729 42.4497 33.8286C38.6018 31.1651 38.6018 29.8948 38.6018 29.2109H36.9124V39.8458H38.5965V32.8586C39.2754 33.566 40.2159 34.346 41.4992 35.2317C45.3806 37.9181 45.3671 38.6899 45.3477 39.5779C45.3477 39.67 45.3441 39.7585 45.3441 39.8523H47.0324V39.8458H47.0347V29.2109H45.3524V36.0932L45.353 36.0937Z" fill="#181616"/>
<path d="M75.2246 30.6896H78.6893V39.8611H80.3734V30.6896H83.8369V29.2109H75.2246V30.6896Z" fill="#181616"/>
<path d="M95.112 40.1849L96.6074 39.4344L91.2911 29.2031H89.7957L84.48 39.4344L85.9801 40.1849L87.7271 36.8441C88.556 37.5097 89.8116 38.0095 91.5092 38.357C93.4549 38.7535 94.68 39.3542 95.0597 40.0947L95.112 40.1849ZM91.8537 36.7509C90.6469 36.5019 89.1791 36.0606 88.5254 35.3177L90.5458 31.3821L93.5466 37.1917C93.0399 37.0265 92.478 36.8766 91.8537 36.7503" fill="#181616"/>
<path d="M56.1191 38.503C54.0729 38.503 52.3618 37.1807 51.9456 35.4212C52.1513 35.4584 52.3665 35.4808 52.5975 35.4808C53.2911 35.4808 54.1105 35.3221 55.0569 35.0094C56.0321 34.6813 57.3336 34.3922 57.9861 34.843L58.0043 34.8194V33.3183C57.1355 33.0817 56.008 33.2003 54.592 33.6753C53.3858 34.0765 52.4687 34.1709 51.908 33.9615C52.2418 32.1152 53.9977 30.7003 56.118 30.7003C57.2401 30.7003 58.2624 31.1021 59.0277 31.7518L60.221 30.5852C59.1517 29.6382 57.7045 29.0547 56.1174 29.0547C52.8367 29.0547 50.1621 31.5417 50.1621 34.5993C50.1621 37.6569 52.8367 40.1457 56.1174 40.1457C57.8438 40.1457 59.3998 39.4547 60.4896 38.362L59.2964 37.1966C58.5116 37.9944 57.3794 38.503 56.1174 38.503" fill="#181616"/>
<path d="M68.5517 33.48C65.9347 32.8292 65.4644 32.4409 65.4168 31.835C65.3498 30.8697 66.6847 30.4372 67.8921 30.4991C69.2747 30.5711 70.6173 31.0726 71.1851 31.8668L72.352 30.7829C71.5484 29.7167 69.8014 29.0547 67.9497 29.0547C65.3592 29.0547 63.5516 30.2277 63.5516 31.9069C63.5516 34.1597 66.4225 34.5621 67.8704 34.912C69.3388 35.269 70.8554 35.6336 70.9212 36.7541C70.9882 37.8292 69.6327 38.6175 67.8228 38.5496C66.0557 38.4841 64.9694 37.8345 64.3981 37.0096L63.2959 38.038C64.2258 39.3627 65.9341 40.0206 67.8621 40.0206C70.9135 40.0206 72.8434 38.7278 72.7911 36.7282C72.734 34.6022 70.622 33.9927 68.5517 33.4806" fill="#181616"/>
<path d="M92.303 26.9938L90.807 24.2891L89.4238 25.1098L89.418 25.1181L91.346 27.565L92.303 26.9938Z" fill="#181616"/>
</g>
<defs>
<filter id="filter0_d_1850_79806" x="0.875" y="0.65625" width="115.25" height="66.25" filterUnits="userSpaceOnUse" color-interpolation-filters="sRGB">
<feFlood flood-opacity="0" result="BackgroundImageFix"/>
<feColorMatrix in="SourceAlpha" type="matrix" values="0 0 0 0 0 0 0 0 0 0 0 0 0 0 0 0 0 0 127 0" result="hardAlpha"/>
<feOffset dy="0.78125"/>
<feGaussianBlur stdDeviation="1.5625"/>
<feComposite in2="hardAlpha" operator="out"/>
<feColorMatrix type="matrix" values="0 0 0 0 0 0 0 0 0 0 0 0 0 0 0 0 0 0 0.08 0"/>
<feBlend mode="normal" in2="BackgroundImageFix" result="effect1_dropShadow_1850_79806"/>
<feBlend mode="normal" in="SourceGraphic" in2="effect1_dropShadow_1850_79806" result="shape"/>
</filter>
</defs>
</svg>
