<svg width="117" height="67" viewBox="0 0 117 67" fill="none" xmlns="http://www.w3.org/2000/svg">
<g filter="url(#filter0_d_1850_101705)">
<rect width="109" height="60" transform="translate(4 3)" fill="white"/>
<path d="M35.0579 29.6215L31.6 26.1641L28.1426 29.6215H35.0579Z" fill="#112732"/>
<path d="M29.1638 32.9183H31.5407L30.8601 35.284C31.3124 35.1294 31.7763 34.9567 32.2499 34.7576C33.431 34.2609 34.4754 33.697 35.3884 33.1201C36.4365 32.4576 36.2726 31.9062 35.0328 31.9062H25.8587L23.9272 33.8373L27.7884 37.6984L29.1634 32.9187L29.1638 32.9183Z" fill="#112732"/>
<path d="M33.582 36.7304C32.3454 37.2744 31.1699 37.6438 30.1093 37.8989L29.6343 39.5498L31.6005 41.516L39.2727 33.8438L38.8273 33.3984C37.6028 34.4651 35.8667 35.7262 33.5815 36.7308H33.582V36.7304Z" fill="#112732"/>
<path d="M49.541 32.5881C49.541 33.9451 48.5928 34.8155 47.2095 34.8155H43.9905V36.4423H42.4243V30.3516H47.2095C48.5928 30.3516 49.541 31.2303 49.541 32.5877V32.5881ZM47.9748 32.5881C47.9748 31.6659 47.2442 31.6659 46.7739 31.6659H43.9896V33.502H46.7739C47.2442 33.502 47.9748 33.502 47.9748 32.5886V32.5881Z" fill="#112732"/>
<path d="M58.515 36.4423L55.3825 30.3516H53.2423L50.1099 36.4423H51.8677L54.3126 31.509L56.7575 36.4423H58.5154H58.515Z" fill="#112732"/>
<path d="M71.0877 36.4423H69.5215V30.3516H71.0877V36.4423Z" fill="#112732"/>
<path d="M74.9163 31.6659V33.2145H79.2668V34.5367H74.9163V36.4423H73.3501V30.3516H79.789V31.6655H74.9163V31.6659Z" fill="#112732"/>
<path d="M83.4339 36.4434H81.8677V30.2656H83.4339V36.4434Z" fill="#112732"/>
<path d="M65.6731 34.2721C65.3815 34.9406 64.6708 35.2161 63.587 35.2161C62.0037 35.2161 61.325 34.6416 61.325 33.3888C61.325 32.136 61.9949 31.5791 63.587 31.5791C64.6366 31.5791 65.331 31.8272 65.6403 32.4365H67.3055C66.9694 31.0119 65.7671 30.2656 63.587 30.2656C60.9069 30.2656 59.7588 31.3707 59.7588 33.3892C59.7588 35.4078 60.9074 36.53 63.587 36.53C65.8032 36.53 67.0088 35.7517 67.3218 34.2721H65.6731Z" fill="#112732"/>
<path d="M91.4705 34.2721C91.1788 34.9406 90.4682 35.2161 89.3844 35.2161C87.8011 35.2161 87.1224 34.6416 87.1224 33.3888C87.1224 32.136 87.7923 31.5791 89.3844 31.5791C90.4339 31.5791 91.1284 31.8272 91.4376 32.4365H93.1029C92.7668 31.0119 91.5645 30.2656 89.3844 30.2656C86.7043 30.2656 85.5562 31.3707 85.5562 33.3892C85.5562 35.4078 86.7048 36.53 89.3844 36.53C91.6006 36.53 92.8062 35.7517 93.1191 34.2721H91.4705Z" fill="#112732"/>
</g>
<defs>
<filter id="filter0_d_1850_101705" x="0.875" y="0.65625" width="115.25" height="66.25" filterUnits="userSpaceOnUse" color-interpolation-filters="sRGB">
<feFlood flood-opacity="0" result="BackgroundImageFix"/>
<feColorMatrix in="SourceAlpha" type="matrix" values="0 0 0 0 0 0 0 0 0 0 0 0 0 0 0 0 0 0 127 0" result="hardAlpha"/>
<feOffset dy="0.78125"/>
<feGaussianBlur stdDeviation="1.5625"/>
<feComposite in2="hardAlpha" operator="out"/>
<feColorMatrix type="matrix" values="0 0 0 0 0 0 0 0 0 0 0 0 0 0 0 0 0 0 0.08 0"/>
<feBlend mode="normal" in2="BackgroundImageFix" result="effect1_dropShadow_1850_101705"/>
<feBlend mode="normal" in="SourceGraphic" in2="effect1_dropShadow_1850_101705" result="shape"/>
</filter>
</defs>
</svg>
