<svg width="21" height="20" viewBox="0 0 21 20" fill="none" xmlns="http://www.w3.org/2000/svg">
<path d="M15.6871 19.4688C14.8433 19.4688 13.8746 19.25 12.8121 18.8438C10.6871 18 8.34334 16.375 6.24959 14.2813C4.15584 12.1875 2.53084 9.84378 1.68709 7.68753C0.749592 5.37503 0.843342 3.46878 1.93709 2.40627C1.96834 2.37502 2.03084 2.34378 2.06209 2.31253L4.68709 0.750025C5.34334 0.375025 6.18709 0.562525 6.62459 1.18752L8.46834 3.93753C8.90584 4.59378 8.71834 5.46877 8.09334 5.90628L6.96834 6.68753C7.78084 8.00003 10.0933 11.2188 13.7808 13.5313L14.4683 12.5313C14.9996 11.7813 15.8433 11.5625 16.5308 12.0313L19.2808 13.875C19.9058 14.3125 20.0933 15.1563 19.7183 15.8125L18.1558 18.4375C18.1246 18.5 18.0933 18.5313 18.0621 18.5625C17.4996 19.1563 16.6871 19.4688 15.6871 19.4688ZM2.87459 3.46878C2.28084 4.12503 2.31209 5.46878 2.99959 7.18753C3.78084 9.15628 5.28084 11.3125 7.24959 13.2813C9.18709 15.2188 11.3746 16.7188 13.3121 17.5C14.9996 18.1875 16.3433 18.2188 17.0308 17.625L18.5308 15.0625C18.5308 15.0313 18.5308 15.0313 18.5308 15L15.7808 13.1563C15.7808 13.1563 15.7183 13.1875 15.6558 13.2813L14.9683 14.2813C14.5308 14.9063 13.6871 15.0938 13.0621 14.6875C9.12459 12.25 6.68709 8.84378 5.81209 7.46878C5.40584 6.81253 5.56209 5.96878 6.18709 5.53128L7.31209 4.75003V4.71878L5.46834 1.96878C5.46834 1.93753 5.43709 1.93753 5.40584 1.96878L2.87459 3.46878Z" fill="#5D5D5D"/>
<path d="M18.8117 8.90597C18.4367 8.90597 18.1555 8.62472 18.1242 8.24972C17.8742 5.09347 15.2805 2.56222 12.093 2.34347C11.718 2.31222 11.4055 1.99972 11.4367 1.59347C11.468 1.21847 11.7805 0.905966 12.1867 0.937216C16.0617 1.18722 19.218 4.24972 19.5305 8.12472C19.5617 8.49972 19.2805 8.84347 18.8742 8.87472C18.8742 8.90597 18.843 8.90597 18.8117 8.90597Z" fill="#5D5D5D"/>
<path d="M15.7182 9.18743C15.3744 9.18743 15.0619 8.93743 15.0307 8.56243C14.8432 6.87493 13.5307 5.56243 11.8432 5.34368C11.4682 5.31243 11.1869 4.93743 11.2182 4.56243C11.2494 4.18743 11.6244 3.90618 11.9994 3.93743C14.3432 4.21868 16.1557 6.03118 16.4369 8.37493C16.4682 8.74993 16.2182 9.09368 15.8119 9.15618C15.7494 9.18743 15.7182 9.18743 15.7182 9.18743Z" fill="#5D5D5D"/>
</svg>
