<svg width="24" height="25" viewBox="0 0 24 25" fill="none" xmlns="http://www.w3.org/2000/svg">
<path fill-rule="evenodd" clip-rule="evenodd" d="M12 4.03516C12.4142 4.03516 12.75 4.37094 12.75 4.78516V11.5352H19.5C19.9142 11.5352 20.25 11.8709 20.25 12.2852C20.25 12.6994 19.9142 13.0352 19.5 13.0352H12.75V19.7852C12.75 20.1994 12.4142 20.5352 12 20.5352C11.5858 20.5352 11.25 20.1994 11.25 19.7852V13.0352H4.5C4.08579 13.0352 3.75 12.6994 3.75 12.2852C3.75 11.8709 4.08579 11.5352 4.5 11.5352H11.25V4.78516C11.25 4.37094 11.5858 4.03516 12 4.03516Z" fill="#0F172A"/>
</svg>
