<svg width="117" height="67" viewBox="0 0 117 67" fill="none" xmlns="http://www.w3.org/2000/svg">
<g filter="url(#filter0_d_1850_101316)">
<rect width="109" height="60" transform="translate(4 3)" fill="white"/>
<path d="M59.6172 39.3126C59.6263 39.3293 59.6415 39.3506 59.6506 39.3658C59.6992 39.4646 59.7023 39.5269 59.6916 39.5543C59.6825 39.5816 59.6597 39.6044 59.5837 39.6227C59.4454 39.6561 59.1627 39.6318 58.7979 39.5497C59.0517 39.4828 59.3268 39.4023 59.6172 39.3111V39.3126ZM57.1958 39.2548C57.4816 39.3597 57.7521 39.4524 58.0029 39.5315C57.6351 39.5953 57.3508 39.606 57.214 39.5664C57.1411 39.5452 57.1183 39.5208 57.1107 39.492C57.1016 39.4646 57.1076 39.4023 57.1624 39.305C57.1715 39.2898 57.1867 39.27 57.1973 39.2533L57.1958 39.2548ZM60.9168 39.1576C61.2208 39.1773 61.5065 39.191 61.7695 39.1956C61.4336 39.3612 61.1645 39.4524 61.0216 39.4524C60.9441 39.4524 60.9168 39.4357 60.9 39.4114C60.8818 39.3856 60.8727 39.3263 60.9 39.2168C60.9031 39.2001 60.9152 39.1773 60.9183 39.1576H60.9168ZM59.6749 39.0481C59.7084 39.0512 59.7433 39.0572 59.7752 39.0603C59.7509 39.0679 59.7251 39.077 59.7023 39.0846C59.6932 39.074 59.684 39.0603 59.6749 39.0481ZM55.0526 39.036C55.3171 39.0436 55.6028 39.0436 55.9084 39.039C55.9114 39.0572 55.9205 39.0816 55.9266 39.0983C55.9448 39.2077 55.9296 39.267 55.9144 39.2913C55.8962 39.3156 55.8688 39.3308 55.7913 39.3278C55.6484 39.3202 55.3824 39.2184 55.0556 39.036H55.0541H55.0526ZM57.1532 38.9873C57.1441 38.9995 57.132 39.0116 57.1228 39.0223C57.0985 39.0132 57.0742 39.004 57.0514 38.9949C57.0833 38.9919 57.1198 38.9904 57.1532 38.9873ZM60.7982 38.9128C60.7952 38.9265 60.783 38.9417 60.78 38.9539C60.7556 38.9508 60.7283 38.9493 60.704 38.9478C60.7344 38.9372 60.7678 38.9235 60.7982 38.9113V38.9128ZM58.4164 38.8961C58.7523 38.9417 59.0806 38.9812 59.4013 39.0177C59.4393 39.0633 59.4743 39.1059 59.5047 39.1469C59.0943 39.2746 58.731 39.3704 58.4027 39.4448C58.0804 39.3552 57.7217 39.2396 57.3174 39.0937C57.3493 39.0557 57.3858 39.0147 57.4268 38.9706C57.7491 38.9493 58.0774 38.925 58.4148 38.8961H58.4164ZM56.036 38.8004C56.0664 38.814 56.0999 38.8277 56.1303 38.8399C56.106 38.8399 56.0771 38.8429 56.0528 38.8429C56.0467 38.8292 56.0436 38.814 56.0345 38.8004H56.036ZM60.9441 38.618C60.935 38.6332 60.9259 38.6514 60.9168 38.6666C60.6812 38.7532 60.4516 38.8323 60.2282 38.9098C59.9926 38.8885 59.7509 38.8642 59.5016 38.8353C59.4925 38.8232 59.4743 38.8095 59.4636 38.7958C59.7099 38.7684 59.9576 38.7441 60.2054 38.7152C60.4532 38.6848 60.6994 38.6514 60.9456 38.6195L60.9441 38.618ZM63.2545 38.5313C63.2697 38.545 63.291 38.5602 63.3016 38.5739C63.3776 38.656 63.3974 38.7137 63.3959 38.7426C63.3959 38.7715 63.3776 38.8004 63.3123 38.8384C63.1876 38.9098 62.9095 38.966 62.5371 38.9904C62.762 38.8536 63.0022 38.7 63.256 38.5298L63.2545 38.5313ZM55.9053 38.4979C56.15 38.542 56.3932 38.5876 56.6395 38.6286C56.8857 38.6696 57.1304 38.7076 57.3767 38.7456C57.3645 38.7578 57.3493 38.7715 57.3372 38.7836C57.0848 38.7988 56.8432 38.8125 56.606 38.8216C56.3856 38.735 56.1622 38.6438 55.9296 38.548C55.9236 38.5328 55.9114 38.5131 55.9053 38.4979ZM62.9627 38.3079C63.0128 38.3413 63.0569 38.3717 63.098 38.4021C62.7408 38.6408 62.42 38.8353 62.1267 38.9995C61.7908 39.004 61.4153 38.9949 60.9852 38.9676C61.0064 38.922 61.0292 38.8718 61.0566 38.8186C61.3591 38.7076 61.6676 38.5921 61.9838 38.469C62.3182 38.4173 62.6435 38.3641 62.9627 38.3079ZM53.601 38.3018C53.8472 38.4842 54.0798 38.6484 54.2987 38.7943C53.9278 38.7517 53.6512 38.6833 53.5311 38.6058C53.4657 38.5632 53.452 38.5359 53.452 38.5055C53.452 38.4766 53.4733 38.4173 53.5539 38.3398C53.566 38.3276 53.5873 38.314 53.6025 38.3018H53.601ZM63.3351 38.2425C63.3138 38.2562 63.291 38.2729 63.2712 38.2866C63.2591 38.279 63.2469 38.2684 63.2348 38.2592C63.2667 38.2532 63.3032 38.2486 63.3351 38.2425ZM53.902 38.092C54.2166 38.1635 54.5404 38.2334 54.8732 38.3003C55.1833 38.4386 55.4843 38.5693 55.7822 38.694C55.8065 38.7487 55.8278 38.8004 55.846 38.8475C55.4174 38.8536 55.0404 38.8444 54.7045 38.8232C54.4203 38.6453 54.1072 38.434 53.7621 38.1802C53.8047 38.1528 53.8503 38.1224 53.9035 38.092H53.902ZM58.4346 38.089C58.5684 38.2045 58.6945 38.314 58.8055 38.4143C58.8967 38.4964 58.9727 38.5708 59.0487 38.6453C58.8344 38.6666 58.6292 38.6833 58.4179 38.7016C58.2112 38.6742 58.006 38.6468 57.7947 38.6164C57.8737 38.5465 57.9543 38.4751 58.0485 38.3976C58.164 38.3018 58.2932 38.1969 58.4346 38.089ZM53.5341 38.0084C53.566 38.016 53.6025 38.0236 53.6344 38.0312C53.6223 38.0404 53.6071 38.048 53.5964 38.0556C53.5782 38.0404 53.5539 38.0236 53.5341 38.0084ZM64.276 37.8139C64.276 37.8276 64.2729 37.8458 64.2699 37.8595C64.2456 37.864 64.2182 37.8701 64.1939 37.8747C64.2212 37.8549 64.2486 37.8336 64.276 37.8139ZM65.2837 37.8108C65.0101 38.0632 64.776 38.2258 64.6392 38.2668C64.5648 38.2881 64.5344 38.2805 64.5116 38.2608C64.4903 38.2425 64.4614 38.1878 64.4538 38.0753V38.013C64.7502 37.9461 65.0284 37.8792 65.2822 37.8093H65.2837V37.8108ZM61.7756 37.6877C61.9367 37.7607 62.0872 37.8291 62.224 37.896C62.3334 37.9507 62.4292 37.9993 62.5219 38.0495C62.3243 38.13 62.1297 38.2045 61.9336 38.2805C61.7269 38.3124 61.5217 38.3444 61.3104 38.3732C61.3667 38.2836 61.4244 38.1939 61.4928 38.092C61.578 37.9674 61.6722 37.8321 61.7756 37.6877ZM52.616 37.5342C52.6434 37.5555 52.6692 37.5783 52.6951 37.5996C52.6708 37.5935 52.6434 37.5859 52.6191 37.5798C52.6191 37.5661 52.6191 37.5494 52.616 37.5342ZM55.118 37.5296C55.2152 37.6786 55.3034 37.8169 55.3824 37.9461C55.4463 38.051 55.498 38.1437 55.5512 38.2364C55.3399 38.1969 55.1377 38.1544 54.9325 38.1133C54.741 38.0282 54.551 37.9446 54.3564 37.8549C54.4522 37.8093 54.5495 37.7652 54.662 37.7166C54.8003 37.6573 54.9553 37.595 55.1195 37.5296H55.118ZM64.3322 37.4886C64.3292 37.5053 64.3231 37.5266 64.32 37.5433C64.1179 37.6923 63.9218 37.8336 63.7272 37.9689C63.4947 38.0145 63.256 38.0601 63.0083 38.1042C62.9931 38.0951 62.9764 38.086 62.9612 38.0768C63.1907 37.9826 63.4202 37.8884 63.6497 37.7896C63.8792 37.6923 64.1057 37.5904 64.3322 37.4886ZM51.6052 37.484C51.856 37.5661 52.1296 37.6467 52.4245 37.7288V37.7911C52.4124 37.902 52.3804 37.9552 52.3576 37.9735C52.3333 37.9917 52.3029 37.9978 52.23 37.9735C52.0947 37.9264 51.8697 37.7531 51.6068 37.4871L51.6052 37.484ZM52.575 37.2074C52.7969 37.3199 53.0188 37.4308 53.2423 37.5403C53.4672 37.6497 53.6922 37.7546 53.9172 37.8595C53.902 37.8686 53.8807 37.8762 53.867 37.8853C53.6223 37.8291 53.3867 37.7744 53.1572 37.7166C52.9702 37.5707 52.7802 37.4202 52.5856 37.2621C52.5856 37.2454 52.5796 37.2241 52.5765 37.2074H52.575ZM59.9956 36.9672C60.6219 37.2028 61.1539 37.4172 61.5962 37.6102C61.502 37.7409 61.4123 37.8686 61.3332 37.9856C61.2284 38.1407 61.1402 38.2775 61.0642 38.4067C60.7708 38.4462 60.4775 38.4857 60.1811 38.5207C59.8862 38.5556 59.5898 38.5876 59.2964 38.618C59.19 38.51 59.073 38.396 58.9347 38.2714C58.8313 38.1772 58.7128 38.0738 58.5912 37.9689C58.9757 37.6771 59.4408 37.3442 59.9956 36.9672ZM56.9313 36.8943C57.4664 37.2971 57.9148 37.6528 58.2841 37.9613C58.1564 38.0601 58.0348 38.1574 57.9269 38.2471C57.784 38.3656 57.6609 38.4736 57.55 38.5754C57.2566 38.5313 56.9648 38.4857 56.6714 38.4371C56.3765 38.3884 56.0847 38.3337 55.7944 38.2805C55.7229 38.1468 55.6424 38.0069 55.5451 37.8473C55.4721 37.7272 55.3885 37.595 55.3004 37.4597C55.7503 37.288 56.2914 37.101 56.9298 36.8943H56.9313ZM66.524 36.7529C66.5423 36.762 66.5666 36.7712 66.5818 36.7803C66.6776 36.838 66.7125 36.8867 66.7201 36.9156C66.7262 36.9444 66.7201 36.9764 66.6654 37.0326C66.5666 37.136 66.3158 37.2682 65.9647 37.3974C66.1425 37.2028 66.3295 36.987 66.5256 36.7529H66.524ZM66.182 36.6222C66.2398 36.6389 66.29 36.6572 66.3386 36.6739C66.062 37.0022 65.8096 37.2819 65.574 37.5205C65.2533 37.6193 64.8885 37.7166 64.4705 37.8124C64.4766 37.7622 64.4857 37.7075 64.4948 37.6482C64.7548 37.4567 65.0177 37.2576 65.2852 37.0508C65.5923 36.9064 65.8902 36.7636 66.1805 36.6207L66.182 36.6222ZM66.5195 36.455C66.5012 36.4732 66.4876 36.496 66.4708 36.5143C66.4587 36.5097 66.4404 36.5036 66.4283 36.4991C66.4587 36.4839 66.4891 36.4687 66.5195 36.4535V36.455ZM58.4756 36.4231C58.9316 36.5812 59.3907 36.7423 59.7768 36.8852C59.2539 37.2439 58.8085 37.5631 58.4407 37.8428C58.088 37.5448 57.6579 37.2044 57.1532 36.8228C57.5454 36.6982 58.012 36.5614 58.4756 36.4246V36.4231ZM50.4196 36.3699C50.6036 36.6146 50.7814 36.838 50.9501 37.0402C50.6051 36.8943 50.3588 36.7499 50.2661 36.642C50.216 36.5842 50.2099 36.5523 50.2175 36.5234C50.2266 36.4945 50.2631 36.4459 50.3619 36.3927C50.3771 36.3851 50.4014 36.3775 50.4196 36.3684V36.3699ZM64.8688 36.3623C65.0436 36.3866 65.2092 36.4109 65.3567 36.4352C65.4783 36.4565 65.5832 36.4763 65.6865 36.4976C65.5193 36.6313 65.3552 36.756 65.1895 36.8836C64.9995 36.9718 64.811 37.0615 64.6164 37.1496C64.6438 37.0478 64.6742 36.946 64.7107 36.8289C64.7563 36.686 64.8095 36.528 64.8688 36.3608V36.3623ZM50.7677 36.2544C51.0489 36.4109 51.3392 36.5675 51.6387 36.7256C51.8971 36.946 52.1509 37.1557 52.4017 37.3609C52.4108 37.4202 52.4169 37.4749 52.42 37.5266C52.0065 37.4111 51.6478 37.2971 51.3316 37.1831C51.1082 36.9323 50.868 36.6404 50.6081 36.3C50.6568 36.2848 50.7084 36.2711 50.7677 36.2559V36.2544ZM62.9581 36.1723C63.6269 36.2224 64.1969 36.2787 64.6742 36.338C64.621 36.49 64.5693 36.6374 64.5283 36.7712C64.4705 36.949 64.4264 37.1056 64.3884 37.2515C64.1179 37.3731 63.8473 37.4932 63.5737 37.6102C63.3001 37.7272 63.0265 37.8397 62.7529 37.9522C62.6207 37.8792 62.4763 37.8032 62.3076 37.7227C62.1814 37.6604 62.04 37.595 61.8926 37.5281C62.1784 37.1405 62.5325 36.6891 62.9581 36.1708V36.1723ZM61.3454 36.0796C61.8272 36.1039 62.3136 36.1267 62.724 36.1556C62.3243 36.6465 61.9868 37.0782 61.7132 37.4491C61.2907 37.2636 60.7815 37.0584 60.1902 36.8335C60.5307 36.604 60.9411 36.3395 61.3469 36.078L61.3454 36.0796ZM50.4379 36.072C50.4652 36.0887 50.4972 36.1054 50.526 36.1206C50.5139 36.1252 50.4956 36.1282 50.4835 36.1328C50.4683 36.113 50.4531 36.0902 50.4379 36.0704V36.072ZM52.0916 36.0583C52.1433 36.227 52.1889 36.3866 52.2269 36.5325C52.2588 36.6496 52.2832 36.7544 52.306 36.8578C52.116 36.7605 51.932 36.6617 51.7466 36.5644C51.587 36.4276 51.4289 36.2954 51.2678 36.154C51.3727 36.1373 51.4791 36.1221 51.6007 36.1069C51.7512 36.0887 51.9153 36.072 52.0916 36.0568V36.0583ZM59.8816 36.0203C60.2677 36.034 60.6705 36.0446 61.0201 36.0613C60.6553 36.2984 60.2784 36.5416 59.9698 36.7529C59.6187 36.6222 59.1961 36.4732 58.7857 36.3288C59.1216 36.2316 59.5092 36.1252 59.8816 36.0203ZM57.7324 35.9625C57.9923 35.9671 58.2112 35.9671 58.4848 35.9747C58.7599 35.9808 58.9788 35.9914 59.2387 35.999C58.9712 36.075 58.7264 36.148 58.4787 36.2209C58.2355 36.1373 57.9953 36.0522 57.7324 35.964V35.9625ZM54.0099 35.9595C54.4096 36.4976 54.741 36.9642 55.0085 37.3655C54.858 37.4248 54.7121 37.484 54.5844 37.5388C54.4142 37.6117 54.2668 37.6801 54.13 37.747C53.8624 37.6224 53.5934 37.4962 53.3259 37.367C53.0568 37.2363 52.7924 37.104 52.5279 36.9703C52.496 36.8228 52.4595 36.6632 52.4124 36.4839C52.3759 36.3486 52.3318 36.1981 52.2862 36.0431C52.7665 36.0051 53.3396 35.9777 54.0099 35.9595ZM55.6241 35.9428C56.0178 36.224 56.4145 36.5067 56.7444 36.7529C56.1424 36.949 55.6241 37.1299 55.1924 37.2956C54.9371 36.9095 54.6209 36.4626 54.244 35.9534C54.6544 35.9443 55.1423 35.9443 55.6241 35.9428ZM56.147 35.9382C56.4312 35.9382 56.7808 35.9488 57.0879 35.9519C57.4557 36.0735 57.8372 36.1996 58.1686 36.3136C57.7506 36.4383 57.322 36.5644 56.9648 36.6784C56.6653 36.4535 56.3005 36.1936 55.9479 35.9397C56.0193 35.9397 56.0725 35.9367 56.1455 35.9367L56.147 35.9382ZM67.3023 35.7771C67.3023 35.7908 67.3053 35.809 67.3084 35.8227C67.2871 35.8348 67.2628 35.847 67.24 35.8592C67.2582 35.8333 67.281 35.8044 67.3023 35.7786V35.7771ZM68.272 35.4898C68.079 35.8105 67.9012 36.0324 67.7811 36.11C67.7157 36.151 67.6838 36.1525 67.6564 36.1404C67.6291 36.1282 67.5865 36.0841 67.5485 35.9792C67.5455 35.9625 67.5394 35.9382 67.5303 35.92C67.7978 35.7725 68.0456 35.6281 68.269 35.4898H68.272ZM61.9595 35.4564C61.7239 35.6053 61.5096 35.7436 61.2922 35.8835C61.0353 35.8713 60.7784 35.8592 60.5018 35.847C60.7526 35.7786 60.9624 35.7163 61.2299 35.6448C61.4959 35.5734 61.7087 35.5217 61.9595 35.4548V35.4564ZM67.2643 35.4488C67.2643 35.4655 67.2643 35.4868 67.2673 35.502C67.1153 35.7026 66.9648 35.8956 66.8174 36.0811C66.6076 36.1905 66.3903 36.3 66.1653 36.4124C66.1471 36.4079 66.1288 36.4048 66.1121 36.4003C66.3052 36.2452 66.4997 36.0902 66.6928 35.9306C66.8858 35.771 67.0743 35.6099 67.2628 35.4488H67.2643ZM49.6885 35.3591C49.7068 35.3864 49.7265 35.4153 49.7463 35.4412C49.725 35.429 49.7007 35.4153 49.6794 35.4032C49.6824 35.3895 49.6824 35.3728 49.6885 35.3591ZM55.042 35.2922C55.2897 35.3697 55.4995 35.4305 55.7609 35.5156C56.0239 35.5992 56.2306 35.6707 56.4768 35.7512C56.1987 35.7482 55.9433 35.7482 55.6864 35.7482C55.4767 35.5977 55.27 35.4503 55.042 35.2922ZM49.7417 35.0323C49.9226 35.2025 50.1035 35.3712 50.2889 35.54C50.4744 35.7087 50.6598 35.8728 50.8468 36.037C50.8285 36.04 50.8088 36.0446 50.792 36.0476C50.5732 35.9245 50.3604 35.8044 50.1567 35.6859C50.0184 35.4944 49.88 35.2952 49.7372 35.0885C49.7372 35.0718 49.7402 35.0505 49.7432 35.0338L49.7417 35.0323ZM48.734 35.0232C48.9513 35.1721 49.1915 35.3272 49.4514 35.4883C49.4453 35.5065 49.4423 35.5324 49.4332 35.5476C49.3906 35.6509 49.3465 35.6935 49.3192 35.7041C49.2918 35.7148 49.2584 35.7117 49.196 35.6676C49.079 35.584 48.9118 35.3545 48.734 35.0232ZM63.6862 35.0156C63.4035 35.3454 63.1101 35.6844 62.8715 35.9732C62.4991 35.9458 62.0522 35.9245 61.6175 35.9017C61.9124 35.7132 62.2528 35.5004 62.5812 35.2952C62.9566 35.1995 63.3457 35.0992 63.6847 35.0156H63.6862ZM53.338 34.7693C53.674 34.8681 54.057 34.9882 54.4264 35.1022C54.744 35.3226 55.0754 35.5506 55.3596 35.7528C54.9249 35.7558 54.478 35.7558 54.1041 35.7649C53.8792 35.4655 53.604 35.1128 53.3365 34.7693H53.338ZM65.3476 34.6249C65.1013 35.2086 64.8992 35.7193 64.7411 36.1525C64.282 36.0932 63.7364 36.04 63.1056 35.9914C63.367 35.6752 63.6862 35.3059 64.0008 34.9411C64.4705 34.8271 64.9448 34.7131 65.346 34.6249H65.3476ZM51.6964 34.2996C52.0932 34.406 52.5598 34.5444 53.0249 34.6796C53.3228 35.0596 53.6238 35.4427 53.8716 35.7725C53.2392 35.7908 52.6905 35.8181 52.23 35.8546C52.0932 35.4138 51.9153 34.894 51.698 34.2996H51.6964ZM67.2704 34.251C67.2612 34.4121 67.2521 34.5687 67.2521 34.7085C67.2491 34.8955 67.2491 35.0581 67.2521 35.2101C67.0272 35.4016 66.8007 35.5932 66.5712 35.7832C66.3416 35.9732 66.1091 36.1586 65.878 36.3425C65.7306 36.3106 65.571 36.2772 65.3871 36.2468C65.2488 36.224 65.0952 36.2012 64.9356 36.1784C65.1013 35.7254 65.3126 35.1934 65.5756 34.5763C66.2307 34.4349 66.7931 34.327 67.2688 34.251H67.2704ZM64.4173 34.1689C64.2334 34.3787 64.0677 34.5717 63.8975 34.7663C63.6482 34.8271 63.3989 34.8864 63.1299 34.9548C63.3503 34.818 63.5342 34.6994 63.7698 34.5565C64.0054 34.4136 64.1954 34.3027 64.4173 34.1689ZM69.1612 34.1264C69.1795 34.1294 69.2068 34.1324 69.222 34.1355C69.33 34.1628 69.3771 34.2024 69.3923 34.2282C69.4075 34.254 69.4105 34.286 69.374 34.3544C69.3087 34.482 69.105 34.6796 68.804 34.9016C68.9211 34.6644 69.0396 34.406 69.1628 34.1264H69.1612ZM68.2857 34.1203C68.1626 34.2951 68.0395 34.4623 67.9164 34.631C67.7583 34.7693 67.6048 34.9076 67.4436 35.0475V34.7116C67.4467 34.5611 67.4558 34.3939 67.4619 34.2176C67.6367 34.1902 67.8008 34.1674 67.9513 34.1492C68.0729 34.1355 68.1793 34.1264 68.2842 34.1172L68.2857 34.1203ZM68.7949 34.0975C68.8557 34.0975 68.9104 34.1005 68.9606 34.1036C68.7873 34.4972 68.6247 34.8347 68.4666 35.1311C68.1869 35.3165 67.8647 35.5126 67.4892 35.7224C67.4832 35.6722 67.474 35.6175 67.468 35.5582C67.664 35.3013 67.8601 35.0353 68.0608 34.7602C68.3146 34.5352 68.5593 34.3148 68.7964 34.096L68.7949 34.0975ZM52.648 33.8892C52.8638 34.0336 53.0477 34.1522 53.2772 34.3072C53.5052 34.4623 53.6831 34.59 53.8974 34.7359C53.6314 34.6553 53.3852 34.5839 53.1374 34.5109C52.9793 34.3088 52.8212 34.1066 52.648 33.8892ZM69.0746 33.8421C69.0655 33.8649 69.0564 33.8908 69.0442 33.9136C69.029 33.9136 69.0123 33.9136 68.9986 33.9105C69.0229 33.8877 69.0503 33.8634 69.0746 33.8421ZM49.7934 33.8345C50.2646 33.9348 50.8209 34.0686 51.47 34.2388C51.704 34.8681 51.8895 35.4092 52.0324 35.8698C51.8728 35.8835 51.7177 35.8987 51.5779 35.9154C51.394 35.9382 51.2313 35.9625 51.0824 35.9884C50.8604 35.7938 50.6385 35.5962 50.4181 35.3971C50.1977 35.1964 49.9819 34.9943 49.766 34.7921C49.7752 34.6416 49.7843 34.479 49.7904 34.292C49.7934 34.1522 49.7934 33.9956 49.7934 33.8345ZM48.7856 33.6552C48.8905 33.6688 48.9969 33.6825 49.117 33.7023C49.266 33.7266 49.4286 33.7585 49.6019 33.792V34.286C49.6019 34.4091 49.5928 34.514 49.5836 34.6204C49.4286 34.4729 49.2812 34.327 49.1292 34.1811C49.0152 34.0063 48.8996 33.833 48.7856 33.6536V33.6552ZM47.9101 33.6202C48.018 33.906 48.126 34.1704 48.2308 34.4121C47.9405 34.1765 47.7475 33.9668 47.6882 33.8376C47.6563 33.7676 47.6578 33.7357 47.676 33.7099C47.6943 33.6856 47.7414 33.6491 47.8508 33.6263C47.8691 33.6232 47.8934 33.6232 47.9116 33.6202H47.9101ZM48.1108 33.6065C48.1624 33.6065 48.2172 33.6065 48.2764 33.6096C48.5044 33.8391 48.7385 34.0732 48.9817 34.3103C49.1672 34.593 49.3496 34.8666 49.532 35.1326C49.5228 35.1919 49.5137 35.2466 49.5046 35.2968C49.1398 35.0688 48.8282 34.8575 48.5576 34.6584C48.4148 34.3544 48.2658 34.0093 48.1123 33.608L48.1108 33.6065ZM48.0104 33.339C48.0348 33.3633 48.0591 33.3876 48.0834 33.4135H48.0363C48.0272 33.3907 48.018 33.3633 48.0089 33.339H48.0104ZM65.9495 33.2584C65.7716 33.6552 65.5862 34.0625 65.4388 34.4076C65.0724 34.4866 64.6377 34.5915 64.2136 34.6933C64.4447 34.4288 64.7122 34.1294 64.9706 33.8391C65.3035 33.6415 65.6485 33.4348 65.951 33.26L65.9495 33.2584ZM69.634 32.9727C69.637 32.9848 69.6461 33.0016 69.6522 33.0137C69.634 33.0304 69.6157 33.0487 69.5975 33.0669C69.6096 33.0365 69.6218 33.0031 69.634 32.9727ZM51.1599 32.9073C51.4532 33.0973 51.7876 33.3208 52.1099 33.5336C52.3531 33.8345 52.6069 34.1461 52.8243 34.4212C52.4063 34.3012 51.9776 34.175 51.6144 34.0792C51.4836 33.7281 51.3195 33.3116 51.1584 32.9073H51.1599ZM69.5048 32.6672C69.5108 32.6839 69.5169 32.7036 69.523 32.7188C69.4333 32.9529 69.3452 33.1794 69.257 33.3983C69.0868 33.564 68.9074 33.7296 68.7235 33.9014C68.7052 33.9014 68.6855 33.9044 68.6688 33.9044C68.8101 33.7008 68.953 33.4971 69.0944 33.2904C69.2342 33.0836 69.3695 32.8754 69.5063 32.6687L69.5048 32.6672ZM47.4936 32.4452C47.5058 32.4756 47.5149 32.5106 47.524 32.541C47.5058 32.5228 47.4891 32.503 47.4724 32.4848C47.4784 32.4726 47.4845 32.4574 47.4936 32.4452ZM70.4806 32.424C70.3864 32.7857 70.2784 33.0487 70.1842 33.1566C70.134 33.2159 70.1021 33.2265 70.0732 33.222C70.0459 33.2174 69.9912 33.187 69.9243 33.0973C69.9152 33.0836 69.903 33.0593 69.8924 33.0441C70.1067 32.8268 70.3028 32.62 70.4791 32.4255L70.4806 32.424ZM67.433 32.4164C67.3616 33.0456 67.3099 33.5913 67.281 34.0534C66.825 34.1264 66.2869 34.2282 65.6683 34.3589C65.8309 33.9804 66.0316 33.5366 66.2322 33.0973C66.6502 32.8572 67.0728 32.614 67.433 32.4164ZM66.4116 32.2446C66.2945 32.4969 66.1896 32.728 66.0817 32.962C65.8598 33.0897 65.6379 33.2174 65.3977 33.3588C65.571 33.1657 65.7139 33.0016 65.8993 32.7964C66.0848 32.5927 66.2352 32.4346 66.4116 32.2431V32.2446ZM47.6365 32.1473C47.7627 32.3616 47.8888 32.576 48.018 32.7888C48.1472 33.0016 48.281 33.2113 48.4132 33.4211C48.395 33.4211 48.3752 33.4165 48.3585 33.4165C48.1822 33.2372 48.0135 33.0624 47.8508 32.8906C47.7718 32.6672 47.6943 32.4376 47.6152 32.199C47.6213 32.1838 47.6274 32.164 47.6365 32.1473ZM49.7189 31.9953C50.0685 32.2096 50.4789 32.4741 50.8863 32.734C51.0656 33.1824 51.245 33.6354 51.3909 34.02C50.7784 33.8604 50.2448 33.7312 49.7919 33.6369C49.7858 33.1748 49.76 32.6276 49.7189 31.9953ZM50.7464 31.8692C50.9121 32.0683 51.055 32.234 51.2313 32.4468C51.4061 32.6596 51.5414 32.8313 51.7056 33.0335C51.473 32.8815 51.2572 32.7432 51.0413 32.6048C50.9456 32.3662 50.8513 32.1276 50.7449 31.8707L50.7464 31.8692ZM46.6728 31.857C46.84 32.0607 47.0255 32.2765 47.2292 32.503C47.22 32.5182 47.2048 32.541 47.1942 32.5547C47.1243 32.6413 47.0696 32.6687 47.0392 32.6717C47.0088 32.6748 46.9814 32.6626 46.9328 32.6018C46.8446 32.4893 46.7488 32.2218 46.6713 31.8555L46.6728 31.857ZM69.1719 31.5165C69.2099 31.6746 69.2464 31.8251 69.2828 31.9604C69.3315 32.1397 69.3786 32.2963 69.4257 32.4407C69.2631 32.6884 69.1004 32.9362 68.9332 33.184C68.766 33.4302 68.5973 33.6734 68.4271 33.9166C68.2766 33.9272 68.114 33.9409 67.93 33.9637C67.7902 33.9804 67.6367 34.0017 67.4771 34.026C67.5075 33.5457 67.5607 32.9742 67.6397 32.3084C68.2295 31.9892 68.7387 31.7263 69.1734 31.5196L69.1719 31.5165ZM70.1097 31.1046C70.0398 31.3068 69.9699 31.5013 69.9 31.6989C69.789 31.8768 69.678 32.0531 69.5625 32.2324C69.5306 32.1306 69.5002 32.0288 69.4683 31.9102C69.4288 31.7643 69.3892 31.6032 69.3482 31.4314C69.5078 31.3569 69.6598 31.2885 69.7981 31.2292C69.9106 31.1806 70.0094 31.1426 70.1082 31.1046H70.1097ZM48.0241 31.0119C48.4482 31.2399 48.9452 31.5256 49.5168 31.8737C49.5639 32.5425 49.5897 33.114 49.5973 33.5974C49.4392 33.5655 49.2872 33.5366 49.1489 33.5138C48.965 33.4834 48.8039 33.4606 48.6534 33.4439C48.4953 33.1946 48.3388 32.9423 48.1837 32.6884C48.0287 32.4331 47.8782 32.1777 47.7277 31.9224C47.7809 31.781 47.8356 31.629 47.8934 31.4512C47.936 31.3174 47.98 31.1684 48.0256 31.0134L48.0241 31.0119ZM67.626 30.9374C67.5668 31.3676 67.5029 31.8114 67.4588 32.1838C67.1305 32.3632 66.7429 32.5851 66.3644 32.8024C66.5104 32.4848 66.6836 32.1215 66.8493 31.7719C67.1123 31.4876 67.3844 31.1912 67.626 30.9389V30.9374ZM70.7527 30.8979C70.698 31.3235 70.6356 31.6959 70.5672 32.0242C70.3499 32.2811 70.0976 32.5592 69.7981 32.8663C69.7768 32.8207 69.7525 32.7705 69.7297 32.7143C69.8452 32.4118 69.9592 32.1032 70.0732 31.784C70.2541 31.4968 70.4274 31.2156 70.5946 30.9389C70.6524 30.9222 70.704 30.9085 70.7527 30.8979ZM71.0141 30.8553C71.1251 30.8508 71.1813 30.8751 71.2026 30.8948C71.2239 30.9161 71.236 30.9465 71.2208 31.021C71.1935 31.1624 71.0536 31.4101 70.8272 31.708C70.8712 31.4481 70.9123 31.1654 70.9518 30.8629C70.97 30.8599 70.9974 30.8553 71.0141 30.8553ZM70.7876 30.6152C70.7876 30.6395 70.7846 30.6668 70.7785 30.6912C70.7664 30.6942 70.7481 30.6988 70.7344 30.7018C70.7527 30.6729 70.7694 30.644 70.7861 30.6152H70.7876ZM47.106 30.5559C47.2033 30.5984 47.3006 30.6425 47.4116 30.6957C47.5468 30.7611 47.6958 30.8371 47.8524 30.9192C47.8037 31.0894 47.7551 31.2475 47.7095 31.3919C47.6715 31.5089 47.6365 31.6092 47.6016 31.7096C47.4936 31.5241 47.3933 31.3448 47.29 31.1608C47.2292 30.9602 47.1684 30.7626 47.1076 30.5559H47.106ZM49.5958 30.5072C49.8238 30.7732 50.0822 31.0803 50.3315 31.3752C50.4804 31.7324 50.6355 32.1032 50.7662 32.4285C50.3999 32.196 50.0229 31.9543 49.7022 31.7597C49.6748 31.3858 49.6338 30.9404 49.5958 30.5057V30.5072ZM46.4737 30.3188C46.5224 30.3324 46.5756 30.3476 46.6318 30.3674C46.7838 30.6532 46.9434 30.9404 47.1106 31.2368C47.2079 31.5621 47.3082 31.8768 47.4085 32.1838C47.3842 32.2385 47.3584 32.2872 47.3356 32.3312C47.0498 32.012 46.8112 31.7217 46.606 31.4557C46.5543 31.1244 46.5087 30.7489 46.4737 30.3203V30.3188ZM46.2153 30.2656C46.2336 30.2656 46.2579 30.2732 46.2761 30.2762C46.3004 30.5802 46.3278 30.866 46.3612 31.1274C46.15 30.8188 46.0208 30.565 46.001 30.4221C45.9919 30.3461 46.001 30.3157 46.0253 30.2975C46.0466 30.2777 46.1059 30.2564 46.2153 30.2656ZM46.454 30.0345C46.4692 30.0634 46.4859 30.0953 46.5011 30.1242C46.4859 30.1212 46.4707 30.1136 46.457 30.1105C46.457 30.0862 46.457 30.0588 46.454 30.033V30.0345ZM67.7841 29.8308C67.7431 30.106 67.7066 30.3613 67.6701 30.6152C67.4923 30.8021 67.316 30.9876 67.1244 31.1897C67.2369 30.9556 67.3281 30.7565 67.4482 30.5072C67.5683 30.2595 67.6686 30.0634 67.7841 29.8308ZM68.8116 29.7108C68.9196 30.3355 69.026 30.8736 69.1278 31.3235C68.7098 31.5226 68.2219 31.7719 67.6656 32.0728C67.7142 31.664 67.7841 31.1821 67.851 30.7033C68.1854 30.3537 68.5213 30.0011 68.8116 29.7108ZM71.081 29.6226C71.0901 29.6332 71.0992 29.6469 71.1114 29.6576C71.1023 29.6788 71.0871 29.7032 71.0734 29.7244C71.0764 29.6925 71.0795 29.656 71.0825 29.6241H71.0795L71.081 29.6226ZM49.4909 29.3961C49.5943 29.6348 49.6855 29.8339 49.7934 30.0877C49.9028 30.3416 49.9834 30.5437 50.0837 30.7839C49.9028 30.5726 49.7356 30.378 49.5669 30.1835C49.5426 29.9281 49.5183 29.6728 49.4909 29.3961ZM70.8712 29.3672C70.8804 29.3809 70.8925 29.3992 70.9047 29.4128C70.8864 29.6621 70.8621 29.9053 70.8393 30.1394C70.7223 30.3446 70.5992 30.5559 70.47 30.7717C70.4517 30.7763 70.435 30.7839 70.4183 30.79C70.4973 30.5544 70.5764 30.3188 70.6524 30.0816C70.7284 29.843 70.7998 29.6059 70.8728 29.3672H70.8712ZM48.468 29.2259C48.7446 29.5314 49.0638 29.8992 49.38 30.2625C49.424 30.7444 49.4712 31.2292 49.5016 31.6396C48.9589 31.3128 48.4832 31.0408 48.0758 30.8219C48.1989 30.3765 48.3296 29.8445 48.468 29.2259ZM46.2077 29.0313V29.1347C46.1956 29.1119 46.1834 29.0876 46.1728 29.0648C46.1819 29.0556 46.194 29.042 46.2047 29.0328H46.2077V29.0313ZM71.7392 28.8565C71.7483 29.2304 71.7209 29.5132 71.6601 29.6439C71.6282 29.7153 71.6024 29.7336 71.5735 29.7381C71.5461 29.7427 71.4838 29.729 71.3956 29.6606C71.3804 29.65 71.3637 29.6302 71.35 29.618C71.4944 29.349 71.6252 29.0936 71.7392 28.8565ZM46.4281 28.7851C46.4904 29.0268 46.5497 29.2669 46.6136 29.5086C46.6789 29.7503 46.7473 29.9889 46.8142 30.2276C46.796 30.2215 46.7792 30.2139 46.7625 30.2078C46.644 29.9874 46.5315 29.7716 46.4236 29.5618C46.4114 29.3247 46.4023 29.0815 46.3932 28.8307C46.4023 28.817 46.4175 28.8003 46.4281 28.7866V28.7851ZM70.2283 28.3564C70.3073 28.4978 70.3864 28.6316 70.4593 28.7516C70.5566 28.9097 70.6463 29.0465 70.7314 29.1712C70.6463 29.4539 70.5596 29.7381 70.4684 30.0224C70.3772 30.3066 70.283 30.5878 70.1888 30.8675C70.0474 30.9192 69.8954 30.9784 69.7252 31.0514C69.5975 31.1061 69.4546 31.1715 69.3072 31.2399C69.2008 30.7702 69.0928 30.2063 68.9788 29.5451C69.4531 29.0724 69.8696 28.6772 70.2283 28.3564ZM68.5806 28.2364C68.6444 28.6665 68.7083 29.1104 68.7706 29.4797C68.5046 29.7457 68.196 30.0695 67.8936 30.3826C67.9437 30.036 68.0091 29.6393 68.0684 29.2563C68.2416 28.9097 68.421 28.5495 68.5806 28.2379V28.2364ZM45.586 28.2364C45.6879 28.478 45.8064 28.7395 45.9387 29.0131C45.9235 29.0252 45.9052 29.0435 45.8916 29.0541C45.8004 29.1164 45.7396 29.1286 45.7107 29.1225C45.6833 29.1164 45.656 29.0967 45.6286 29.0237C45.5754 28.89 45.5602 28.6088 45.5876 28.2348L45.586 28.2364ZM47.1197 27.8062C47.4632 28.1452 47.8584 28.5586 48.3099 29.0541C48.1655 29.7092 48.0287 30.2656 47.9025 30.7307C47.7596 30.6562 47.6213 30.5848 47.4936 30.524C47.3249 30.4434 47.1775 30.3765 47.0376 30.3172C46.9571 30.0315 46.875 29.7472 46.799 29.4584C46.7215 29.1712 46.6485 28.8824 46.5771 28.5966C46.6683 28.4765 46.764 28.3443 46.8689 28.1892C46.948 28.0737 47.0331 27.943 47.1197 27.8062ZM48.7704 27.7652C48.9148 28.0844 49.076 28.4537 49.2325 28.8079C49.2736 29.1924 49.3192 29.5922 49.3526 29.9418C49.0653 29.6135 48.772 29.276 48.5196 28.9994C48.5987 28.6331 48.6853 28.1938 48.7704 27.7667V27.7652ZM71.0126 27.6968C71.0035 27.9111 70.9883 28.1178 70.9776 28.3276C70.9199 28.5297 70.8652 28.7288 70.8044 28.934C70.7466 28.8459 70.6873 28.7562 70.6235 28.6513C70.5444 28.5221 70.4608 28.3792 70.3727 28.2257C70.5064 28.1087 70.6326 28.0008 70.7481 27.905C70.8424 27.8275 70.9275 27.7636 71.0111 27.6983L71.0126 27.6968ZM71.572 27.3168C71.6388 27.7408 71.6829 28.1148 71.7103 28.4507C71.575 28.7577 71.4108 29.0967 71.2087 29.4767C71.1752 29.4387 71.1403 29.3961 71.1023 29.3505C71.1266 29.0283 71.1494 28.6984 71.1692 28.3595C71.2619 28.0327 71.3485 27.715 71.4291 27.4034C71.4808 27.3715 71.5264 27.3441 71.572 27.3183V27.3168ZM71.9352 27.1784C71.9672 27.1784 71.99 27.1815 72.0021 27.1891C72.0295 27.2028 72.0477 27.2286 72.0538 27.3061C72.066 27.449 72.0021 27.7256 71.8699 28.0752C71.8395 27.8138 71.8 27.5311 71.7513 27.2301C71.7696 27.2225 71.7924 27.2104 71.8076 27.2058C71.8608 27.1876 71.9018 27.1815 71.9337 27.18L71.9352 27.1784ZM68.421 27.1328C68.4575 27.408 68.4955 27.6603 68.532 27.9141C68.4134 28.1421 68.2964 28.3701 68.1702 28.6179C68.2112 28.361 68.2432 28.1452 68.2888 27.8731C68.3344 27.601 68.3754 27.3867 68.4195 27.1313L68.421 27.1328ZM46.3673 27.11C46.4479 27.1784 46.53 27.2484 46.6212 27.3304C46.7321 27.4308 46.8537 27.5448 46.9799 27.6694C46.8856 27.8184 46.796 27.9582 46.7108 28.0828C46.6424 28.1832 46.5801 28.2698 46.5178 28.3549C46.4661 28.1482 46.4205 27.9445 46.3734 27.7408C46.3734 27.5311 46.3704 27.3228 46.3704 27.1085H46.3688L46.3673 27.11ZM71.5233 27.0356C71.5264 27.0614 71.5324 27.0888 71.5385 27.1131C71.5264 27.1192 71.5112 27.1298 71.499 27.1359C71.5081 27.1024 71.5172 27.0675 71.5233 27.0356ZM69.374 26.727C69.6537 27.2955 69.906 27.7819 70.131 28.1862C69.786 28.4932 69.3892 28.8702 68.9393 29.3156C68.8724 28.9097 68.8025 28.4279 68.7326 27.9491C68.9545 27.5204 69.178 27.0872 69.374 26.7255V26.727ZM45.8262 26.7042C45.8703 26.7316 45.9159 26.762 45.9645 26.7954C46.0314 27.1116 46.1028 27.4338 46.1788 27.7652C46.1788 28.1056 46.188 28.434 46.1971 28.7562C46.1576 28.8018 46.1211 28.8413 46.0846 28.8778C45.9007 28.4902 45.7517 28.1436 45.6316 27.8305C45.6757 27.4976 45.7365 27.1268 45.8247 26.7057L45.8262 26.7042ZM48.9817 26.6692C49.0136 26.9276 49.044 27.1435 49.0775 27.4171C49.1109 27.6907 49.1307 27.9096 49.1611 28.168C49.0471 27.9141 48.9407 27.6816 48.8328 27.4475C48.8814 27.1936 48.9316 26.9428 48.9817 26.6692ZM45.4705 26.5476C45.5024 26.5507 45.5435 26.5583 45.5952 26.5796C45.6134 26.5856 45.6332 26.5993 45.6499 26.6069C45.5876 26.9048 45.5328 27.186 45.4918 27.446C45.3763 27.0903 45.3246 26.8121 45.3444 26.6692C45.3535 26.5932 45.3763 26.5674 45.4036 26.5552C45.4158 26.5492 45.4386 26.5446 45.4705 26.5476ZM45.887 26.4276C45.8931 26.4595 45.9022 26.4944 45.9083 26.5279C45.8961 26.5203 45.8809 26.5112 45.8703 26.5036C45.8733 26.4792 45.8824 26.4519 45.8885 26.4276H45.887ZM48.05 26.2178C48.2293 26.5887 48.433 27.031 48.6336 27.4703C48.5409 27.9445 48.4482 28.4218 48.3616 28.8246C47.9344 28.358 47.5544 27.9628 47.2246 27.639C47.4693 27.2453 47.7429 26.7711 48.05 26.2178ZM71.5248 26.002C71.537 26.0096 71.5522 26.0202 71.5644 26.0263C71.5613 26.0506 71.5522 26.078 71.5461 26.1023C71.54 26.0688 71.5309 26.0339 71.5248 26.0004V26.002ZM71.2528 25.8165C71.268 25.8272 71.2832 25.8408 71.2968 25.85C71.3485 26.0962 71.3956 26.3333 71.4397 26.5659C71.385 26.7954 71.3257 27.0325 71.2634 27.2757C71.2482 27.2848 71.233 27.2985 71.2178 27.3076C71.2269 27.0599 71.236 26.8121 71.2421 26.5613C71.2482 26.312 71.2482 26.0628 71.2512 25.815L71.2528 25.8165ZM45.9356 25.3924C45.9265 25.4244 45.9174 25.4593 45.9113 25.4928C45.9083 25.4684 45.9022 25.4411 45.8961 25.4168C45.9083 25.4107 45.9235 25.4 45.9356 25.394V25.3924ZM68.7356 25.3757C68.9196 25.7709 69.105 26.1783 69.2692 26.5157C69.0898 26.844 68.8831 27.2423 68.6824 27.6284C68.6338 27.2818 68.5836 26.882 68.5335 26.499C68.6019 26.1175 68.6703 25.7208 68.7356 25.3772V25.3757ZM46.2168 25.2192C46.2077 25.4684 46.1986 25.7162 46.191 25.9655C46.1849 26.2148 46.1849 26.4625 46.1819 26.7118C46.1667 26.7012 46.1515 26.6875 46.1378 26.6768C46.0861 26.4306 46.039 26.1935 45.9964 25.9609C46.0512 25.7299 46.1104 25.4943 46.1728 25.2511C46.188 25.242 46.2032 25.2298 46.2184 25.2192H46.2168ZM71.9428 25.0808C72.0584 25.438 72.11 25.7177 72.0888 25.8591C72.0796 25.9351 72.0568 25.9609 72.031 25.9731C72.0036 25.9852 71.9428 25.9898 71.8395 25.9488C71.8212 25.9427 71.8015 25.929 71.7848 25.9214C71.8471 25.622 71.9003 25.3408 71.9428 25.0808ZM70.3499 25.0261C70.4669 25.1386 70.5794 25.2465 70.6828 25.3408C70.8211 25.4654 70.9457 25.5718 71.0628 25.6676C71.0628 25.9624 71.0597 26.2604 71.0506 26.5583C71.0445 26.8562 71.0324 27.1526 71.0202 27.4475C70.8986 27.5372 70.7694 27.6375 70.6265 27.756C70.5186 27.8457 70.4 27.9476 70.2784 28.054C70.0444 27.6329 69.7814 27.1237 69.4865 26.5203C69.8088 25.932 70.096 25.438 70.3499 25.0276V25.0261ZM48.7507 24.9C48.7993 25.2465 48.8495 25.6463 48.8996 26.0293C48.8312 26.4108 48.7613 26.8076 48.696 27.1511C48.5136 26.7559 48.3266 26.3485 48.164 26.0111C48.3433 25.6828 48.55 25.2845 48.7507 24.8984V24.9ZM47.1547 24.4759C47.3888 24.8969 47.6517 25.4061 47.9466 26.0096C47.6244 26.5978 47.3371 27.0918 47.0832 27.5022C46.9662 27.3897 46.8537 27.2818 46.7488 27.1891C46.6105 27.0629 46.4859 26.958 46.3704 26.8623C46.3704 26.5659 46.3734 26.271 46.3825 25.9731C46.3886 25.6752 46.4008 25.3788 46.4129 25.0839C46.5345 24.9942 46.6622 24.8939 46.8066 24.7753C46.9145 24.6856 47.0331 24.5838 47.1547 24.4774V24.4759ZM45.5632 24.4546C45.5936 24.716 45.6332 24.9988 45.6818 25.3012C45.6636 25.3073 45.6408 25.321 45.6256 25.3256C45.5207 25.3605 45.4584 25.3544 45.4325 25.3408C45.4052 25.3271 45.3869 25.3012 45.3808 25.2252C45.3656 25.0824 45.4325 24.8042 45.5648 24.4546H45.5632ZM68.272 24.3604C68.386 24.6142 68.4924 24.8483 68.6004 25.0824C68.5517 25.3347 68.5031 25.587 68.4514 25.8606C68.4195 25.6022 68.3876 25.3864 68.3556 25.1128C68.3237 24.8392 68.3024 24.6203 68.272 24.3619V24.3604ZM70.9168 24.1734C70.9685 24.3816 71.0141 24.5838 71.0612 24.789C71.0612 24.9988 71.0673 25.2055 71.0673 25.4183C70.9852 25.3499 70.9047 25.28 70.8135 25.1979C70.701 25.096 70.5809 24.9836 70.4532 24.8589C70.5475 24.71 70.6387 24.5701 70.7238 24.4455C70.7922 24.3452 70.8545 24.2585 70.9168 24.1719V24.1734ZM49.2614 23.9104C49.2204 24.1658 49.1884 24.3832 49.1428 24.6552C49.0972 24.9258 49.0562 25.1416 49.0121 25.397C48.9741 25.1219 48.9376 24.8696 48.9012 24.6142C49.0182 24.3862 49.1368 24.1582 49.2614 23.912V23.9104ZM69.0716 23.7037C69.4987 24.1688 69.8787 24.5656 70.2085 24.8893C69.9638 25.2815 69.6887 25.7557 69.3832 26.3105C69.2038 25.9412 69.0016 25.4973 68.801 25.0596C68.8922 24.5853 68.9849 24.1065 69.0716 23.7052V23.7037ZM71.347 23.6505C71.5309 24.0396 71.6784 24.3847 71.8 24.6978C71.7559 25.0307 71.6951 25.4031 71.6069 25.8241C71.5628 25.7968 71.5172 25.7664 71.4686 25.7329C71.4017 25.4168 71.3318 25.0945 71.2543 24.7632C71.2512 24.4242 71.2452 24.0944 71.236 23.7721C71.2756 23.7265 71.312 23.687 71.3485 23.6505H71.347ZM46.6288 23.5958C46.6865 23.684 46.7458 23.7736 46.8112 23.877C46.8902 24.0062 46.9738 24.1491 47.0604 24.3026C46.9267 24.4181 46.802 24.526 46.685 24.6218C46.5908 24.6993 46.5056 24.7647 46.422 24.83C46.4312 24.6157 46.4464 24.409 46.457 24.1992C46.5148 23.9971 46.568 23.798 46.6288 23.5928V23.5958ZM71.724 23.4073C71.7544 23.4134 71.7802 23.4316 71.8076 23.5046C71.8608 23.6384 71.8775 23.9226 71.8486 24.295C71.7452 24.0533 71.6282 23.7919 71.496 23.5168C71.5112 23.5046 71.5294 23.4864 71.5446 23.4772C71.6358 23.4149 71.6966 23.4028 71.724 23.4088V23.4073ZM71.2224 23.3952C71.2315 23.418 71.2467 23.4423 71.2573 23.4651C71.2482 23.4742 71.236 23.4879 71.2269 23.497C71.2269 23.4636 71.2269 23.4286 71.2239 23.3952H71.2224ZM48.4953 23.2128C48.5622 23.6186 48.6321 24.1004 48.702 24.5777C48.4801 25.0064 48.2567 25.4396 48.0606 25.8013C47.7809 25.2328 47.5286 24.7464 47.3036 24.3421C47.6487 24.0351 48.0469 23.6581 48.4968 23.2128H48.4953ZM46.226 23.0532C46.2594 23.0912 46.2944 23.1322 46.3308 23.1793C46.3065 23.5016 46.2837 23.8314 46.264 24.1704C46.1712 24.4972 46.0861 24.8148 46.004 25.128C45.9539 25.1599 45.9068 25.1872 45.8627 25.2131C45.7958 24.789 45.7517 24.4151 45.7228 24.0792C45.8581 23.7721 46.0238 23.4332 46.226 23.0547V23.0532ZM46.3612 22.8039C46.3612 22.8358 46.3552 22.8708 46.3521 22.9042C46.343 22.8936 46.3339 22.8799 46.3217 22.8708C46.3308 22.8495 46.346 22.8252 46.3597 22.8039H46.3612ZM45.8596 22.7902C45.89 22.7856 45.9478 22.8008 46.036 22.8677C46.0481 22.8784 46.0679 22.8981 46.0816 22.9103C45.9372 23.1793 45.8064 23.4316 45.6924 23.6688C45.6803 23.2964 45.7107 23.0136 45.7715 22.8829C45.8034 22.813 45.8308 22.7948 45.8596 22.7902ZM68.082 22.588C68.3693 22.9164 68.6627 23.2538 68.915 23.5304C68.836 23.8968 68.7493 24.336 68.6642 24.7632C68.5198 24.444 68.3602 24.0761 68.2021 23.722C68.1611 23.3359 68.1155 22.9376 68.082 22.588ZM70.932 22.4026C70.9472 22.4056 70.9624 22.4132 70.9761 22.4163C70.9761 22.4406 70.9761 22.4695 70.9792 22.4938C70.9609 22.4649 70.9472 22.433 70.9305 22.4041L70.932 22.4026ZM70.6189 22.3008C70.6372 22.3068 70.6539 22.316 70.6706 22.3205C70.7892 22.5424 70.9016 22.7568 71.008 22.9665C71.0202 23.2036 71.0293 23.4468 71.0384 23.6976C71.0293 23.7113 71.0141 23.728 71.0035 23.7402C70.9427 23.5 70.8819 23.2584 70.818 23.0182C70.7527 22.7765 70.6843 22.5394 70.6174 22.2992L70.6189 22.3008ZM49.538 22.1472C49.4879 22.4938 49.424 22.8905 49.3632 23.2736C49.19 23.6201 49.0106 23.9804 48.851 24.292C48.7872 23.8618 48.7233 23.418 48.661 23.0486C48.927 22.7841 49.2356 22.4588 49.538 22.1457V22.1472ZM46.6987 21.8265C46.6804 21.8554 46.6637 21.8843 46.647 21.9132C46.647 21.8888 46.65 21.863 46.6561 21.8372C46.6683 21.8341 46.6865 21.8296 46.6987 21.8265ZM69.5306 21.7976C69.6735 21.8721 69.8118 21.9436 69.938 22.0044C70.1067 22.0849 70.2541 22.1518 70.394 22.2096C70.476 22.4953 70.5566 22.7796 70.6326 23.0684C70.7086 23.3556 70.7816 23.6429 70.8545 23.9302C70.7633 24.0503 70.6676 24.1825 70.5627 24.3376C70.4836 24.4546 70.4 24.5838 70.3119 24.7206C69.9699 24.3816 69.5732 23.9682 69.1217 23.4727C69.2661 22.8176 69.4014 22.2612 69.5291 21.7961L69.5306 21.7976ZM67.3494 21.7444C67.5303 21.9557 67.6975 22.1503 67.8662 22.3448C67.8905 22.6017 67.9148 22.8556 67.9437 23.1322C67.8404 22.8936 67.7492 22.6944 67.6412 22.4421C67.5333 22.1883 67.4512 21.9846 67.3494 21.7444ZM47.0164 21.7384C46.9388 21.974 46.8598 22.2096 46.7838 22.4467C46.7078 22.6853 46.6364 22.9224 46.5634 23.1611C46.5543 23.1474 46.5421 23.1292 46.5315 23.1155C46.5497 22.8647 46.5725 22.623 46.5968 22.3874C46.7139 22.1822 46.8355 21.9724 46.9647 21.7566C46.9829 21.7505 46.9996 21.7429 47.0164 21.7384ZM71.0734 21.4024C71.2847 21.711 71.4124 21.9648 71.4321 22.1062C71.4412 22.1822 71.4321 22.2126 71.4078 22.2308C71.3865 22.2506 71.3272 22.2719 71.2178 22.2628C71.1996 22.2628 71.1752 22.2552 71.157 22.2521C71.1327 21.9481 71.1053 21.6624 71.0734 21.4024ZM50.3087 21.3386C50.1962 21.5727 50.105 21.7718 49.9849 22.0196C49.8648 22.2673 49.7645 22.4634 49.649 22.696C49.69 22.4208 49.7265 22.167 49.763 21.9116C49.9408 21.7247 50.1172 21.5408 50.3087 21.3371V21.3386ZM48.1275 21.2884C48.2324 21.7581 48.3418 22.322 48.4558 22.9832C47.9816 23.456 47.5666 23.8512 47.2064 24.1719C47.1258 24.0305 47.0483 23.8968 46.9753 23.7767C46.878 23.6186 46.7884 23.4818 46.7032 23.3556C46.7899 23.0729 46.875 22.7887 46.9662 22.5044C47.0574 22.2202 47.1516 21.9405 47.2459 21.6593C47.3872 21.6076 47.5377 21.5484 47.7095 21.4739C47.8387 21.4192 47.9816 21.3538 48.1275 21.2869V21.2884ZM67.9316 20.8872C68.4727 21.214 68.95 21.4876 69.3573 21.7049C69.2342 22.1503 69.102 22.6823 68.9652 23.3009C68.6885 22.9969 68.3708 22.6276 68.0532 22.2643C68.0076 21.784 67.9635 21.2976 67.9331 20.8872H67.9316ZM69.8346 20.8188C69.9425 21.0027 70.0428 21.1851 70.1462 21.3675C70.207 21.5681 70.2693 21.7657 70.3286 21.9724C70.2313 21.9299 70.134 21.8858 70.0246 21.8326C69.8893 21.7672 69.7404 21.6912 69.5838 21.6092C69.6324 21.4389 69.6811 21.2808 69.7267 21.1364C69.7647 21.0194 69.7996 20.9191 69.8361 20.8188H69.8346ZM46.606 20.8188C46.5604 21.0787 46.5193 21.3614 46.4828 21.6639C46.4646 21.6669 46.4372 21.6715 46.4205 21.6715C46.3096 21.6745 46.2533 21.6517 46.232 21.632C46.2108 21.6107 46.1986 21.5818 46.2138 21.5058C46.2412 21.3644 46.381 21.1167 46.6075 20.8188H46.606ZM49.7676 20.4555C49.7189 20.8644 49.649 21.3462 49.5821 21.825C49.2477 22.1746 48.9118 22.5272 48.6215 22.8191C48.5136 22.1944 48.4072 21.6563 48.3053 21.2064C48.7233 21.0088 49.2112 20.758 49.7676 20.457V20.4555ZM47.8706 20.2959C47.9025 20.3977 47.9329 20.4996 47.9648 20.6181C48.0044 20.764 48.0439 20.9252 48.0849 21.0969C47.9253 21.1714 47.7733 21.2398 47.635 21.2991C47.5225 21.3477 47.4237 21.3857 47.3249 21.4237C47.3948 21.2216 47.4648 21.0255 47.5362 20.8279C47.6487 20.6516 47.7566 20.4752 47.8721 20.2959H47.8706ZM70.0976 20.1971C70.3833 20.5178 70.6235 20.8081 70.8287 21.0741C70.8804 21.4055 70.926 21.7809 70.9594 22.208C70.9108 22.1944 70.8576 22.1776 70.8013 22.1594C70.6493 21.8752 70.4897 21.5864 70.3225 21.2915C70.2237 20.9662 70.1249 20.6516 70.0246 20.3445C70.0489 20.2898 70.0748 20.2412 70.0976 20.1956V20.1971ZM66.6669 20.0968C67.0348 20.3308 67.4117 20.571 67.7309 20.7671C67.7583 21.141 67.7993 21.5864 67.8388 22.0211C67.6093 21.7551 67.3509 21.448 67.1016 21.1516C66.9527 20.7944 66.7976 20.4236 66.6669 20.0983V20.0968ZM69.9076 19.9873C69.9258 20.0056 69.944 20.0253 69.9608 20.0436C69.9547 20.0557 69.9456 20.0724 69.9395 20.0846C69.9304 20.0527 69.9182 20.0192 69.9076 19.9873ZM70.3924 19.8566C70.4228 19.8536 70.4517 19.8657 70.5004 19.9265C70.5885 20.039 70.6843 20.3065 70.7618 20.6728C70.5961 20.4692 70.4092 20.2533 70.2055 20.0268C70.2146 20.0101 70.2298 19.9873 70.2404 19.9736C70.3104 19.887 70.3651 19.8596 70.394 19.8566H70.3924ZM51.0687 19.7259C50.9228 20.0436 50.7495 20.4068 50.5838 20.7564C50.3208 21.0407 50.0488 21.3371 49.8071 21.5894C49.8664 21.1577 49.9302 20.7154 49.9728 20.343C50.3011 20.1636 50.6887 19.9402 51.0672 19.7244L51.0687 19.7259ZM47.635 19.662C47.6563 19.7076 47.6791 19.7578 47.7034 19.814C47.5879 20.1165 47.4739 20.4251 47.3599 20.7443C47.179 21.0316 47.0057 21.3128 46.8385 21.5894C46.7808 21.6061 46.7291 21.6198 46.6789 21.6304C46.7336 21.2048 46.796 20.834 46.8644 20.5041C47.0817 20.2472 47.334 19.9676 47.635 19.662ZM65.7276 19.4948C65.9601 19.6468 66.176 19.7852 66.3918 19.9235C66.4876 20.1636 66.5818 20.4008 66.6882 20.6592C66.521 20.46 66.3781 20.2944 66.2018 20.0816C66.027 19.8688 65.8917 19.697 65.7276 19.4948ZM47.8372 19.4599C47.825 19.4918 47.8128 19.5237 47.7992 19.5556C47.7931 19.542 47.787 19.5268 47.7809 19.5131C47.7992 19.4964 47.8189 19.4766 47.8372 19.4599ZM47.3584 19.3079C47.3888 19.3109 47.442 19.3413 47.5073 19.431C47.5164 19.4447 47.5286 19.469 47.5392 19.4857C47.3249 19.7031 47.1273 19.9098 46.9525 20.1059C47.0468 19.7441 47.1547 19.4812 47.2489 19.3732C47.2991 19.314 47.331 19.3048 47.3599 19.3079H47.3584ZM52.0369 19.168C51.8636 19.3611 51.7192 19.5268 51.5338 19.7304C51.3484 19.9341 51.1979 20.0937 51.02 20.2852C51.1371 20.0329 51.2435 19.8004 51.3514 19.5663C51.5748 19.4386 51.7952 19.3094 52.0354 19.1696L52.0369 19.168ZM69.3497 19.1148H69.3953C69.4044 19.1376 69.4136 19.165 69.4227 19.1878C69.3984 19.1635 69.374 19.1392 69.3497 19.1148ZM69.0199 19.1072C69.0381 19.1072 69.0594 19.1118 69.0761 19.1133C69.2524 19.2912 69.4212 19.466 69.5823 19.6392C69.6613 19.8627 69.7388 20.0922 69.8179 20.3308C69.8118 20.346 69.8027 20.3658 69.7966 20.3825C69.6704 20.1682 69.5443 19.9554 69.4151 19.7426C69.2844 19.5298 69.1521 19.32 69.0199 19.1088V19.1072ZM67.8343 18.9309C67.9924 18.9628 68.1459 18.9917 68.2842 19.0145C68.4681 19.0449 68.6292 19.0677 68.7797 19.0844C68.9378 19.3337 69.0959 19.586 69.2494 19.8399C69.4044 20.0937 69.5549 20.3491 69.7054 20.6044C69.6507 20.7458 69.5975 20.8993 69.5412 21.0772C69.4987 21.2109 69.4546 21.3599 69.4105 21.5149C68.9864 21.2869 68.4894 21.0012 67.9164 20.6531C67.8708 19.9843 67.8434 19.4128 67.8343 18.9294V18.9309ZM48.7659 18.6239C48.6245 18.8276 48.4816 19.0312 48.3418 19.238C48.202 19.4447 48.0667 19.6529 47.9299 19.8596C47.9238 19.8429 47.9177 19.8232 47.9116 19.808C48.0013 19.5739 48.091 19.3459 48.1792 19.127C48.3494 18.9628 48.5257 18.7956 48.7112 18.6254C48.7294 18.6254 48.7492 18.6239 48.7659 18.6239ZM48.3889 18.6163C48.4041 18.6163 48.4208 18.6163 48.4345 18.6193C48.4102 18.6421 48.3828 18.6649 48.3585 18.6877C48.3676 18.6649 48.3768 18.6391 48.3889 18.6163ZM66.0437 18.5084C66.6563 18.6695 67.1898 18.7972 67.6412 18.8914C67.6473 19.3535 67.6716 19.9007 67.7142 20.533C67.3631 20.3187 66.9527 20.0542 66.5453 19.7943C66.3675 19.3459 66.1866 18.8929 66.0422 18.5084H66.0437ZM49.9576 18.5053C49.9272 18.9872 49.874 19.5572 49.7949 20.2229C49.2052 20.5436 48.696 20.8051 48.2612 21.0133C48.2232 20.8552 48.1868 20.7048 48.1503 20.568C48.1016 20.3886 48.056 20.232 48.0089 20.0892C48.1716 19.8414 48.3342 19.5936 48.4999 19.3459C48.6656 19.0981 48.8373 18.8549 49.006 18.6132C49.1565 18.6026 49.3192 18.5889 49.5031 18.5676C49.6429 18.5509 49.7964 18.5281 49.956 18.5053H49.9576ZM51.7664 18.1679C51.6037 18.5448 51.4016 18.9887 51.2009 19.4295C50.7829 19.6696 50.3604 19.9144 50.0001 20.112C50.0716 19.4827 50.1217 18.937 50.1506 18.4749C50.6066 18.402 51.1462 18.3001 51.7648 18.1694L51.7664 18.1679ZM69.2038 18.1162C69.4941 18.3533 69.6872 18.56 69.748 18.6908C69.7799 18.7607 69.7753 18.7941 69.7601 18.8184C69.7419 18.8428 69.6948 18.8808 69.5853 18.9036C69.5671 18.9066 69.5428 18.9066 69.523 18.9096C69.4151 18.6239 69.3072 18.3594 69.2023 18.1162H69.2038ZM64.6088 18.1071C65.0268 18.2272 65.4555 18.3518 65.8172 18.4491C65.948 18.8002 66.1136 19.2167 66.2732 19.621C65.9784 19.431 65.644 19.2091 65.3217 18.9948C65.0785 18.6938 64.8247 18.3807 64.6073 18.1071H64.6088ZM67.851 17.9064C68.006 18.0539 68.1535 18.1983 68.304 18.3442C68.418 18.5205 68.5335 18.6923 68.649 18.8732C68.5426 18.8595 68.4377 18.8458 68.3176 18.826C68.1687 18.8017 68.006 18.7698 67.8328 18.7364C67.8328 18.56 67.8328 18.3944 67.8358 18.2424C67.8388 18.1208 67.8449 18.0144 67.854 17.908H67.8525L67.851 17.9064ZM53.2195 17.835C52.99 18.0995 52.7224 18.3989 52.4656 18.6877C52.1327 18.8853 51.7876 19.092 51.4852 19.2684C51.663 18.8716 51.8484 18.4643 51.9959 18.1192C52.3622 18.0402 52.7969 17.9353 53.2195 17.835ZM63.5372 17.7924C63.8032 17.873 64.0495 17.9444 64.2972 18.0174C64.4568 18.2196 64.6134 18.4217 64.7867 18.6391C64.5708 18.4947 64.3869 18.3761 64.1574 18.2211C63.9294 18.0676 63.7516 17.9399 63.5372 17.7924ZM48.6291 17.6252C48.5136 17.8624 48.3935 18.1223 48.2719 18.402C48.2536 18.3974 48.2263 18.3959 48.2096 18.3913C48.1016 18.364 48.0545 18.3244 48.0393 18.3001C48.0241 18.2743 48.0211 18.2424 48.0576 18.174C48.1229 18.0463 48.3266 17.8472 48.6276 17.6252H48.6291ZM54.3017 17.5736C54.0813 17.7088 53.8989 17.8274 53.6648 17.9703C53.4292 18.1132 53.2408 18.2226 53.0173 18.3564C53.2012 18.1481 53.3669 17.9551 53.5356 17.762C53.7849 17.7012 54.0327 17.642 54.3017 17.5736ZM49.991 17.4808C49.991 17.5872 49.994 17.6936 49.991 17.8168C49.988 17.9672 49.9819 18.1344 49.9728 18.3108C49.798 18.3381 49.6338 18.3609 49.4833 18.3792C49.3617 18.3928 49.2553 18.402 49.1489 18.4111C49.272 18.2363 49.3952 18.0691 49.5183 17.8988C49.6764 17.7605 49.8299 17.6222 49.9925 17.4824H49.991V17.4808ZM67.93 17.2346C68.2948 17.4611 68.6064 17.6724 68.8785 17.8715C69.0214 18.1755 69.1704 18.522 69.3239 18.9218C69.2722 18.9218 69.219 18.9218 69.1597 18.9203C68.9317 18.6892 68.6992 18.4567 68.4544 18.2211C68.269 17.9368 68.0851 17.6648 67.9027 17.3972C67.9118 17.338 67.9209 17.2832 67.9331 17.2346H67.93ZM67.6868 17.0872C67.7081 17.1008 67.7324 17.113 67.7537 17.1267C67.7507 17.1404 67.7507 17.1571 67.7446 17.1723C67.7264 17.1449 67.7051 17.1145 67.6868 17.0887V17.0872ZM68.1626 16.8212C68.1808 16.8257 68.2052 16.8379 68.2371 16.8607C68.3541 16.9443 68.5213 17.1738 68.6992 17.5036C68.4818 17.3547 68.2401 17.1996 67.9817 17.0385C67.9878 17.0203 67.9939 16.9944 68 16.9792C68.0425 16.8759 68.0866 16.8333 68.114 16.8227C68.1292 16.8181 68.1444 16.8151 68.1626 16.8196V16.8212ZM49.9439 16.806C49.953 16.8561 49.9591 16.9108 49.9652 16.9701C49.7691 17.227 49.573 17.4915 49.3724 17.7666C49.1185 17.9916 48.8738 18.212 48.6367 18.4308C48.5774 18.4308 48.5227 18.4278 48.4725 18.4248C48.6443 18.0311 48.81 17.6921 48.9665 17.3957C49.2462 17.2118 49.5684 17.0142 49.9439 16.806ZM60.9563 16.7771C61.2344 16.7801 61.4898 16.7786 61.7467 16.7786C61.9564 16.9276 62.1647 17.0765 62.3912 17.2361C62.1434 17.1586 61.9336 17.0978 61.6722 17.0127C61.4092 16.9291 61.204 16.8576 60.9563 16.7771ZM63.329 16.7649C63.554 17.0644 63.8291 17.417 64.0966 17.7605C63.7607 17.6602 63.3761 17.5416 63.0052 17.4276C62.6876 17.2072 62.3562 16.9792 62.0704 16.7786C62.5067 16.7771 62.9536 16.7756 63.3275 16.7664L63.329 16.7649ZM57.5743 16.7026C58.0227 16.7178 58.4422 16.7345 58.9423 16.7467C59.4424 16.7588 59.8649 16.7619 60.3133 16.768C60.7389 16.9093 61.1372 17.0446 61.6129 17.1966C62.0887 17.3486 62.4915 17.4702 62.9216 17.6024C63.291 17.8578 63.6345 18.101 64.0495 18.3807C64.4644 18.6604 64.8171 18.8914 65.191 19.1376C65.4737 19.4872 65.7352 19.8156 66.0528 20.2016C66.372 20.5877 66.6456 20.9069 66.9344 21.2504C67.1077 21.6654 67.2658 22.0545 67.4619 22.5151C67.6595 22.9756 67.8312 23.3587 68.0121 23.7706C68.0608 24.2175 68.1033 24.6355 68.1626 25.1325C68.2219 25.6296 68.2796 26.0476 68.3374 26.4929C68.2584 26.9352 68.1808 27.3487 68.0988 27.8427C68.0152 28.3352 67.9528 28.7501 67.8844 29.194C67.6838 29.5968 67.4938 29.9722 67.2734 30.4236C67.0545 30.8736 66.8782 31.2566 66.6867 31.6624C66.3812 31.9908 66.0924 32.2978 65.7564 32.6672C65.4205 33.038 65.1424 33.3542 64.8444 33.6886C64.4584 33.9181 64.0951 34.1309 63.668 34.3924C63.2408 34.6538 62.8867 34.8772 62.5052 35.1159C62.0704 35.2268 61.6616 35.3302 61.1782 35.4594C60.6948 35.5886 60.2905 35.7041 59.8573 35.8257C59.4089 35.8105 58.9894 35.7923 58.4893 35.7816C57.9892 35.7695 57.5682 35.768 57.1198 35.7619C56.6942 35.6205 56.2944 35.4852 55.8187 35.3332C55.3429 35.1812 54.9401 35.0596 54.5115 34.9274C54.1421 34.672 53.7971 34.4304 53.3836 34.1492C52.9687 33.868 52.616 33.64 52.2421 33.3907C51.9609 33.0411 51.6995 32.7112 51.3803 32.3267C51.0611 31.9406 50.7875 31.6214 50.4987 31.2764C50.3254 30.8614 50.1673 30.4723 49.9712 30.0132C49.7736 29.5527 49.6019 29.1696 49.421 28.7592C49.3724 28.3124 49.3298 27.8928 49.2705 27.3943C49.2112 26.8972 49.1535 26.4792 49.0957 26.0339C49.1748 25.5916 49.2523 25.1796 49.3344 24.6856C49.418 24.1932 49.4803 23.7782 49.5487 23.3344C49.7493 22.9316 49.9393 22.5561 50.1597 22.1047C50.3786 21.6548 50.5549 21.2732 50.7464 20.8674C51.052 20.5376 51.3408 20.232 51.6767 19.8612C52.0141 19.4903 52.2908 19.1741 52.5902 18.8382C52.9748 18.6087 53.338 18.3959 53.7667 18.136C54.1923 17.876 54.548 17.6511 54.928 17.414C55.3627 17.3015 55.7716 17.1996 56.2564 17.0704C56.7398 16.9412 57.1441 16.8242 57.5758 16.7041L57.5743 16.7026ZM65.2032 16.6737C65.34 17.116 65.5178 17.6344 65.7367 18.2287C65.34 18.1208 64.8718 17.984 64.4097 17.8487C64.1118 17.4687 63.8108 17.0856 63.5631 16.7558C64.1954 16.7376 64.7426 16.7102 65.2047 16.6722L65.2032 16.6737ZM50.1932 16.6692C50.1749 16.695 50.1521 16.7239 50.1308 16.7512C50.1308 16.7376 50.1278 16.7193 50.1248 16.7056C50.146 16.6935 50.1704 16.6813 50.1932 16.6692ZM56.1409 16.6448C56.3978 16.657 56.6547 16.6692 56.9328 16.6813C56.682 16.7497 56.4708 16.812 56.2048 16.8835C55.9388 16.9549 55.7244 17.0066 55.4736 17.072C55.7092 16.923 55.9236 16.7847 56.1409 16.6448ZM54.5616 16.5552C54.9356 16.5825 55.3824 16.6038 55.8172 16.6266C55.5223 16.8151 55.1803 17.0279 54.852 17.2331C54.4765 17.3288 54.0889 17.4307 53.7484 17.5128C54.0312 17.1829 54.323 16.844 54.5616 16.5552ZM66.3508 16.5384C66.5727 16.7345 66.7946 16.9291 67.015 17.1297C67.2354 17.3304 67.4528 17.5325 67.6686 17.7347C67.6564 17.8852 67.6504 18.0478 67.6443 18.2348C67.6412 18.3746 67.6412 18.5312 67.6412 18.6923C67.17 18.592 66.6122 18.4582 65.9647 18.288C65.7321 17.6587 65.5467 17.116 65.4023 16.6555C65.5634 16.6418 65.7169 16.6251 65.8568 16.6099C66.0422 16.5871 66.2033 16.5628 66.3523 16.5369L66.3508 16.5384ZM66.6411 16.4807C66.8615 16.6038 67.0712 16.7239 67.2764 16.8424C67.4148 17.0355 67.5546 17.2331 67.6975 17.4398C67.6975 17.4565 67.6944 17.4778 67.6914 17.4945C67.5105 17.3243 67.3296 17.154 67.1457 16.9868C66.9603 16.8181 66.7748 16.6555 66.5879 16.4898C66.6061 16.4868 66.6259 16.4822 66.6411 16.4792V16.4807ZM66.9496 16.3956C66.9648 16.4153 66.98 16.4381 66.9952 16.4579C66.9679 16.4412 66.9344 16.4244 66.9056 16.4092C66.9177 16.4047 66.936 16.4016 66.9496 16.3971V16.3956ZM49.7296 16.3819C49.7478 16.3773 49.7645 16.3819 49.7782 16.3864C49.8056 16.3986 49.8481 16.4427 49.8861 16.5476C49.8892 16.5643 49.8952 16.5886 49.9013 16.6068C49.6338 16.7558 49.386 16.8987 49.1626 17.037C49.3556 16.7163 49.5335 16.4944 49.6536 16.4168C49.6855 16.3956 49.7098 16.3849 49.7296 16.3804V16.3819ZM52.692 16.3758C53.1511 16.4351 53.6952 16.4898 54.3276 16.5369C54.0646 16.8531 53.7469 17.2224 53.4308 17.5872C52.9611 17.6997 52.4884 17.8152 52.0856 17.9034C52.3318 17.3197 52.534 16.809 52.692 16.3758ZM58.9529 16.3089C59.1961 16.394 59.4378 16.4776 59.7023 16.5673C59.4424 16.5628 59.2235 16.5612 58.9484 16.5552C58.6732 16.5491 58.4544 16.5384 58.1944 16.5308C58.462 16.4548 58.7067 16.3819 58.9544 16.3089H58.9529ZM51.5536 16.1858C51.701 16.2192 51.8606 16.2512 52.0445 16.2816C52.1828 16.3059 52.3364 16.3272 52.4975 16.35C52.3318 16.8029 52.119 17.3349 51.8576 17.952C51.2024 18.0919 50.64 18.1998 50.1643 18.2773C50.1734 18.1162 50.1825 17.9596 50.1825 17.8198C50.1856 17.6328 50.1825 17.4687 50.1825 17.3182C50.4075 17.1267 50.634 16.9352 50.8635 16.7452C51.093 16.5552 51.3256 16.3697 51.5551 16.1843H51.5536V16.1858ZM51.2648 16.1144C51.283 16.1189 51.3028 16.1235 51.3195 16.128C51.1249 16.2831 50.9319 16.4381 50.7388 16.5977C50.5458 16.7573 50.3573 16.9184 50.1688 17.0796C50.1688 17.0628 50.1688 17.0416 50.1658 17.0248C50.3178 16.8242 50.4668 16.6327 50.6157 16.4472C50.8255 16.3378 51.0413 16.2284 51.2648 16.1159V16.1144ZM50.9623 16.014C50.9744 16.0186 50.9927 16.0247 51.0048 16.0292C50.9744 16.0444 50.9425 16.0596 50.9136 16.0748C50.9319 16.0566 50.9471 16.0338 50.9623 16.0156V16.014ZM60.4684 15.8499C60.7678 16.0748 61.1311 16.3348 61.4837 16.5886C61.1341 16.5886 60.7313 16.581 60.3437 16.5764C59.9774 16.4548 59.5944 16.3302 59.2645 16.2162C59.681 16.0916 60.1112 15.9654 60.4684 15.8499ZM57.4633 15.7769C57.8144 15.9076 58.237 16.0551 58.6474 16.201C58.3115 16.2983 57.9239 16.4047 57.55 16.5096C57.1624 16.4959 56.7611 16.4852 56.41 16.4685C56.7748 16.2314 57.1517 15.9882 57.4618 15.7769H57.4633ZM65.1272 15.669C65.3172 15.7663 65.5011 15.8651 65.6865 15.9624C65.8461 16.0976 66.0042 16.2314 66.1653 16.3712C66.0604 16.388 65.9556 16.4047 65.834 16.4199C65.685 16.4381 65.5193 16.4548 65.343 16.47C65.2913 16.3013 65.2442 16.1417 65.2062 15.9958C65.1743 15.8772 65.1515 15.7739 65.1272 15.669ZM66.4845 15.4896C66.8296 15.6356 67.0743 15.78 67.1685 15.8879C67.2187 15.9472 67.2248 15.9776 67.2172 16.0064C67.208 16.0353 67.1716 16.084 67.0728 16.1372C67.0576 16.1448 67.0332 16.1539 67.015 16.1615C66.8311 15.9183 66.6532 15.6933 66.4845 15.4912V15.4896ZM52.8167 15.3772C52.7893 15.479 52.7589 15.5808 52.7224 15.6979C52.6768 15.8408 52.6236 15.9988 52.5644 16.166C52.388 16.1417 52.2254 16.1174 52.0764 16.0916C51.9564 16.0703 51.8515 16.049 51.7466 16.0277C51.9153 15.894 52.0795 15.7693 52.2452 15.6416C52.4352 15.552 52.6221 15.4638 52.8167 15.3756V15.3772ZM62.2422 15.2328C62.4976 15.6173 62.8137 16.0657 63.1907 16.5749C62.7788 16.584 62.2924 16.584 61.8105 16.5856C61.4184 16.3044 61.0216 16.0216 60.6918 15.7754C61.2937 15.5793 61.8105 15.3984 62.2422 15.2328ZM51.47 15.1324C51.2921 15.3255 51.1052 15.5428 50.9091 15.7754C50.8908 15.7663 50.868 15.7572 50.8528 15.748C50.7571 15.6918 50.7221 15.6416 50.716 15.6128C50.71 15.5839 50.716 15.552 50.7692 15.4957C50.868 15.3924 51.1188 15.2601 51.47 15.1309V15.1324ZM55.7199 15.0792C56.144 15.2647 56.6516 15.4699 57.2444 15.6948C56.9024 15.9244 56.4936 16.1888 56.0877 16.4503C55.6059 16.426 55.1195 16.4032 54.7091 16.3743C55.1088 15.8833 55.4478 15.4516 55.7199 15.0792ZM65.0132 15.0032C65.4266 15.1188 65.7853 15.2328 66.1015 15.3468C66.3234 15.5976 66.5636 15.8879 66.825 16.2299C66.7764 16.2451 66.7247 16.2603 66.6669 16.2755C66.3842 16.1174 66.0939 15.9608 65.7929 15.8028C65.5345 15.5824 65.2822 15.3726 65.0314 15.1689C65.0253 15.1096 65.0192 15.0549 65.0132 15.0048H65.0147L65.0132 15.0032ZM64.7396 14.9303C64.7639 14.9364 64.7897 14.9424 64.814 14.9485C64.814 14.9622 64.8171 14.9789 64.8171 14.9941C64.7897 14.9728 64.7639 14.95 64.7396 14.9303ZM63.3032 14.7813C63.5707 14.906 63.8397 15.0321 64.1072 15.1628C64.3748 15.2936 64.6408 15.4273 64.9052 15.5596C64.9356 15.707 64.9736 15.8651 65.0208 16.046C65.0572 16.1812 65.1013 16.3317 65.1469 16.4868C64.6666 16.5248 64.0936 16.5521 63.4248 16.5704C63.0235 16.0323 62.6921 15.5656 62.4261 15.1644C62.5766 15.1051 62.721 15.0458 62.8502 14.9911C63.022 14.9166 63.1694 14.8497 63.3047 14.7813H63.3032ZM52.9626 14.7175C52.9565 14.7676 52.9474 14.8208 52.9383 14.8801C52.6784 15.0716 52.4154 15.2708 52.1479 15.4775C51.8408 15.6219 51.5429 15.7648 51.2526 15.9076C51.1948 15.8909 51.1432 15.8727 51.096 15.856C51.3727 15.5276 51.625 15.248 51.8606 15.0093C52.1813 14.9105 52.5446 14.8132 52.9641 14.7175H52.9626ZM58.9924 14.6871C59.3466 14.985 59.7768 15.3255 60.2814 15.707C59.8892 15.8316 59.4211 15.9684 58.959 16.1052C58.503 15.9472 58.044 15.786 57.6579 15.6432C58.1808 15.286 58.6261 14.9652 58.994 14.6856L58.9924 14.6871ZM53.2408 14.6552C53.2134 14.6749 53.186 14.6962 53.1587 14.716C53.1587 14.7023 53.1648 14.684 53.1648 14.6704C53.1891 14.6643 53.2149 14.6597 53.2408 14.6536V14.6552ZM63.5661 14.643C63.8108 14.6992 64.0464 14.7555 64.276 14.8117C64.4629 14.9576 64.6529 15.1081 64.8475 15.2662C64.8475 15.2829 64.8536 15.3042 64.8566 15.3209C64.6347 15.21 64.4128 15.0975 64.1893 14.988C63.9644 14.8786 63.7394 14.7737 63.516 14.6688C63.5312 14.6612 63.5509 14.6521 63.5646 14.643H63.5661ZM54.6817 14.5746C54.814 14.6476 54.9584 14.7236 55.1256 14.8056C55.2517 14.868 55.3931 14.9333 55.5405 14.9987C55.2548 15.3878 54.9006 15.8377 54.475 16.356C53.8062 16.3059 53.2362 16.2496 52.7589 16.1904C52.8121 16.0384 52.8638 15.8909 52.9064 15.7572C52.9641 15.5793 53.0082 15.4228 53.0462 15.2768C53.3168 15.1552 53.5873 15.0352 53.8609 14.9181C54.1345 14.8011 54.4081 14.6871 54.6832 14.5761L54.6817 14.5746ZM65.1211 14.5412C65.1393 14.5412 65.1682 14.5442 65.2047 14.5579C65.34 14.605 65.5664 14.7783 65.8294 15.0443C65.5786 14.9622 65.305 14.8801 65.0101 14.7996V14.7372C65.0223 14.6263 65.0527 14.5746 65.077 14.5564C65.0892 14.5472 65.1013 14.5412 65.1226 14.5412H65.1211ZM63.8367 14.4743C63.8549 14.4895 63.8777 14.5062 63.8975 14.5214C63.8656 14.5138 63.8321 14.5062 63.8002 14.4986C63.8093 14.491 63.8276 14.4834 63.8382 14.4743H63.8367ZM54.4248 14.4256C54.44 14.4348 54.4583 14.4454 54.4735 14.453C54.244 14.5472 54.0144 14.6415 53.7849 14.7403C53.5554 14.8376 53.3289 14.9394 53.1024 15.0412C53.1055 15.0245 53.1116 15.0032 53.1146 14.9865C53.3168 14.8376 53.5128 14.6962 53.7059 14.5609C53.9384 14.5153 54.1786 14.4697 54.4264 14.4256H54.4248ZM61.8835 14.2919C62.0932 14.3314 62.2969 14.374 62.5021 14.4165C62.6936 14.5016 62.8836 14.5852 63.0767 14.6749C62.9809 14.7205 62.8836 14.7646 62.7712 14.8132C62.6328 14.8725 62.4793 14.9348 62.3152 15.0002C62.2194 14.8528 62.1297 14.7129 62.0507 14.5837C61.9868 14.4788 61.9352 14.3861 61.882 14.2934L61.8835 14.2919ZM52.876 14.2508C52.8942 14.2524 52.9094 14.2584 52.9216 14.2691C52.9428 14.2873 52.9717 14.3436 52.9793 14.4545V14.5153C52.6814 14.5822 52.4032 14.6506 52.1494 14.7205C52.4245 14.4667 52.6586 14.304 52.7954 14.2645C52.8319 14.2539 52.8577 14.2508 52.879 14.2524H52.8775L52.876 14.2508ZM54.1619 14.2432C54.171 14.2508 54.1862 14.2615 54.1999 14.2706C54.1664 14.2767 54.1315 14.2828 54.098 14.2888C54.1193 14.2752 54.1421 14.2569 54.1619 14.2432ZM56.1227 14.1551C56.0664 14.2448 56.0087 14.336 55.9403 14.4378C55.8552 14.5624 55.7609 14.6992 55.6576 14.8421C55.4964 14.7692 55.346 14.6992 55.2092 14.6324C55.0997 14.5792 55.0055 14.529 54.9112 14.4788C55.1088 14.3983 55.3034 14.3253 55.498 14.2478C55.7062 14.2159 55.9099 14.184 56.1227 14.1536V14.1551ZM59.8832 13.9529C60.175 13.997 60.4684 14.0426 60.7632 14.0912C61.0566 14.1414 61.3484 14.1946 61.6388 14.2478C61.7102 14.3816 61.7908 14.5214 61.888 14.681C61.961 14.8011 62.0446 14.9333 62.1328 15.0686C61.6828 15.2404 61.1417 15.4273 60.5033 15.634C59.9683 15.2312 59.5184 14.8756 59.149 14.5655C59.2752 14.4667 59.3983 14.3694 59.5062 14.2797C59.6491 14.1612 59.7722 14.0532 59.8832 13.9514V13.9529ZM58.1367 13.9104C58.2431 14.0183 58.3601 14.1323 58.4984 14.2569C58.6018 14.3512 58.7188 14.4545 58.842 14.5594C58.4589 14.8512 57.9923 15.1841 57.439 15.5611C56.8112 15.3255 56.2808 15.1112 55.8384 14.9181C55.9327 14.7874 56.0224 14.6597 56.1014 14.5427C56.2063 14.3876 56.2929 14.2508 56.3704 14.1216C56.6638 14.0821 56.9572 14.0426 57.2536 14.0076C57.55 13.9727 57.8448 13.9408 58.1382 13.9104H58.1367ZM59.0122 13.8283C59.2204 13.8556 59.4256 13.883 59.6369 13.9134C59.5579 13.9833 59.4788 14.0548 59.3846 14.1323C59.2676 14.2296 59.1384 14.3329 58.9985 14.4408C58.8648 14.3268 58.7386 14.2159 58.6276 14.1156C58.538 14.0335 58.4604 13.959 58.3844 13.8845C58.5957 13.8632 58.8024 13.8465 59.0122 13.8283ZM63.136 13.7371C63.5068 13.7796 63.782 13.8496 63.9036 13.9256C63.9689 13.9681 63.9811 13.997 63.9826 14.0259C63.9826 14.0548 63.9613 14.1125 63.8823 14.1916C63.8701 14.2037 63.8488 14.2174 63.8336 14.2296C63.5889 14.0487 63.3548 13.883 63.1375 13.7371H63.136ZM60.8286 13.7082C61.049 13.7948 61.2724 13.886 61.5035 13.9818C61.5096 13.997 61.5217 14.0168 61.5278 14.032C61.2831 13.9879 61.0399 13.9423 60.7936 13.8997C60.5474 13.8587 60.3027 13.8222 60.0564 13.7842C60.0686 13.772 60.0838 13.7584 60.096 13.7462C60.3483 13.731 60.59 13.7173 60.8271 13.7082H60.8286ZM61.3804 13.6884C61.3834 13.7006 61.3895 13.7173 61.3986 13.7295C61.3682 13.7173 61.3363 13.7036 61.3059 13.69C61.3302 13.69 61.3576 13.6884 61.3834 13.6869H61.3804V13.6884ZM61.5886 13.6839C62.0188 13.6778 62.3942 13.6869 62.7301 13.7082C63.0159 13.886 63.3275 14.0973 63.6725 14.3512C63.63 14.3785 63.5844 14.4074 63.5327 14.4393C63.2165 14.3679 62.8943 14.2995 62.5614 14.2326C62.2513 14.0943 61.9504 13.9651 61.654 13.8389C61.6296 13.7842 61.6084 13.7325 61.5901 13.6854L61.5886 13.6839ZM57.2049 13.6231C57.4405 13.6444 57.6822 13.6687 57.9315 13.696C57.9436 13.7082 57.9588 13.7234 57.9695 13.7356C57.7232 13.7614 57.4755 13.7872 57.2277 13.8176C56.98 13.848 56.7352 13.8815 56.489 13.9134C56.4981 13.8982 56.5072 13.88 56.5164 13.8648C56.752 13.7796 56.9815 13.6991 57.2049 13.6231ZM56.6532 13.576C56.6775 13.5775 56.7048 13.5805 56.7307 13.582C56.6988 13.5927 56.6653 13.6064 56.6349 13.617C56.641 13.6033 56.6501 13.5881 56.6532 13.5744V13.576ZM54.8976 13.541C54.6726 13.6778 54.4324 13.8313 54.1786 14C54.1634 13.9864 54.1436 13.9712 54.1315 13.959C54.0555 13.8769 54.0372 13.8192 54.0372 13.7903C54.0372 13.7614 54.0555 13.7325 54.1224 13.693C54.2455 13.6216 54.5252 13.5653 54.8976 13.541ZM55.694 13.5273C55.9251 13.5319 56.182 13.5456 56.448 13.5623C56.4297 13.6094 56.4039 13.658 56.378 13.7112C56.0756 13.8222 55.767 13.9377 55.4508 14.0608C55.1149 14.1125 54.7896 14.1657 54.4704 14.222C54.4203 14.19 54.3762 14.1581 54.3352 14.1277C54.6939 13.8906 55.0146 13.6945 55.3064 13.5304C55.4341 13.5288 55.5512 13.5243 55.694 13.5273ZM60.3103 13.5091C60.3346 13.5167 60.3589 13.5273 60.3832 13.5364C60.3498 13.538 60.3133 13.541 60.2799 13.5425C60.289 13.5319 60.3012 13.5182 60.3103 13.5076V13.5091ZM57.7324 13.4468C57.7415 13.4574 57.7506 13.4711 57.7597 13.4832C57.7263 13.4802 57.6913 13.4756 57.6594 13.4726C57.6837 13.465 57.708 13.4559 57.7324 13.4483V13.4468ZM61.6448 13.2036C61.7877 13.2096 62.0522 13.313 62.379 13.4939C62.116 13.4863 61.8303 13.4863 61.5263 13.4908C61.5232 13.4726 61.5111 13.4483 61.508 13.4316C61.4898 13.3221 61.505 13.2628 61.5202 13.2385C61.5384 13.2142 61.5658 13.199 61.6433 13.2036H61.6448ZM59.0304 13.085C59.3542 13.1762 59.7129 13.2902 60.1157 13.4361C60.0838 13.4756 60.0473 13.5152 60.0063 13.5592C59.684 13.5805 59.3557 13.6048 59.0183 13.6337C58.6808 13.5881 58.354 13.5486 58.0333 13.5121C57.9938 13.4665 57.9604 13.424 57.93 13.3829C58.3404 13.2552 58.7036 13.1595 59.032 13.0835L59.0304 13.085ZM56.413 13.0789C56.4905 13.0789 56.5179 13.0956 56.5331 13.12C56.5513 13.1443 56.5635 13.2051 56.5392 13.3145C56.5331 13.3312 56.524 13.3556 56.5209 13.3738C56.2154 13.354 55.9312 13.3404 55.6667 13.3358C56.0026 13.1701 56.2732 13.0789 56.416 13.0789H56.413ZM59.8801 12.9421C60.0291 12.9345 60.1446 12.9421 60.2176 12.9649C60.292 12.9862 60.3148 13.009 60.324 13.0379C60.3331 13.0652 60.327 13.1276 60.2723 13.2248C60.2632 13.24 60.248 13.2598 60.2373 13.2765C59.9516 13.1716 59.681 13.0789 59.4302 12.9999C59.6004 12.9695 59.754 12.9497 59.8801 12.9421ZM57.9908 12.892C58.1443 12.8889 58.3692 12.9208 58.6352 12.9801C58.3799 13.047 58.1063 13.1276 57.816 13.2188C57.8068 13.202 57.7916 13.1808 57.7825 13.1671C57.7339 13.0668 57.7308 13.006 57.7415 12.9771C57.7506 12.9497 57.7749 12.9269 57.8494 12.9087C57.8874 12.8996 57.9345 12.8935 57.9908 12.8935V12.892ZM57.9908 12.6974C57.9239 12.6989 57.8616 12.7065 57.8068 12.7202C57.6959 12.7476 57.6001 12.8099 57.5636 12.9117C57.5272 13.0136 57.5515 13.126 57.6153 13.2507C57.6184 13.2598 57.6275 13.2704 57.6336 13.278C57.4892 13.3236 57.3387 13.3753 57.1882 13.427C57.0301 13.4133 56.8705 13.3981 56.72 13.3875C56.72 13.3784 56.7261 13.3662 56.7292 13.3571C56.7596 13.2218 56.7596 13.1078 56.6988 13.0166C56.6395 12.9254 56.53 12.8874 56.416 12.8874C56.188 12.8874 55.8871 13.0044 55.5025 13.202C55.428 13.24 55.3384 13.2963 55.2593 13.3404C55.1681 13.3419 55.0617 13.3388 54.9781 13.3434C54.5464 13.3647 54.2272 13.4133 54.0312 13.5273C53.9324 13.5851 53.8564 13.6717 53.8518 13.7796C53.8488 13.8876 53.902 13.9894 53.9962 14.0897C54.0023 14.0973 54.0144 14.1049 54.0205 14.111C53.8959 14.1961 53.7652 14.2873 53.636 14.38C53.4794 14.412 53.3228 14.4424 53.1754 14.4743V14.4424C53.1663 14.304 53.1328 14.1946 53.0508 14.1232C52.9687 14.0532 52.8532 14.0472 52.7437 14.0791C52.5248 14.1429 52.2695 14.3405 51.9564 14.6384C51.8956 14.6962 51.8256 14.7752 51.7603 14.8391C51.6736 14.8664 51.5703 14.8938 51.4928 14.9212C51.0854 15.0625 50.792 15.2008 50.634 15.365C50.5549 15.4471 50.5078 15.552 50.5321 15.6568C50.5564 15.7632 50.64 15.8438 50.7586 15.9137C50.7677 15.9198 50.7799 15.9244 50.789 15.9289C50.6932 16.046 50.5929 16.1706 50.4941 16.2952C50.3528 16.3682 50.2114 16.4427 50.0792 16.5156C50.0792 16.5065 50.0761 16.4928 50.07 16.4837C50.0229 16.353 49.9591 16.2572 49.8603 16.2116C49.7615 16.1676 49.6505 16.1949 49.5532 16.2557C49.3617 16.3788 49.1717 16.6418 48.9544 17.0142C48.9133 17.0872 48.8677 17.1814 48.8236 17.262C48.7476 17.3121 48.6564 17.3668 48.588 17.4155C48.2369 17.6663 47.9952 17.8806 47.8904 18.0828C47.8387 18.1846 47.822 18.3001 47.8721 18.3928C47.9268 18.4871 48.0287 18.5403 48.1624 18.5752C48.1716 18.5783 48.1868 18.5783 48.1959 18.5813C48.1366 18.7212 48.0758 18.8686 48.0165 19.016C47.9025 19.127 47.7885 19.238 47.6806 19.3444C47.6776 19.3352 47.6684 19.3231 47.6624 19.3155C47.5803 19.2045 47.4921 19.1285 47.3857 19.1148C47.2778 19.0996 47.1775 19.1574 47.103 19.244C46.954 19.4158 46.8461 19.7213 46.7428 20.1408C46.7245 20.2229 46.7063 20.3263 46.6865 20.416C46.6288 20.4859 46.5573 20.5634 46.5056 20.6303C46.2396 20.9692 46.0664 21.2444 46.0238 21.4678C46.0025 21.5803 46.0208 21.6943 46.0968 21.7688C46.1743 21.8448 46.2883 21.8676 46.4266 21.863C46.4357 21.863 46.4479 21.86 46.4585 21.86C46.4403 22.0089 46.4251 22.1685 46.4084 22.3266C46.3293 22.4649 46.2518 22.6032 46.1788 22.737C46.1697 22.7309 46.1606 22.7203 46.1545 22.7157C46.0451 22.6306 45.9387 22.585 45.8323 22.6017C45.7244 22.6184 45.6453 22.7005 45.5982 22.8054C45.504 23.0121 45.4842 23.3359 45.5055 23.7676C45.5085 23.8512 45.5237 23.956 45.5298 24.0472C45.4933 24.1308 45.4462 24.2266 45.4158 24.3041C45.2562 24.7054 45.168 25.017 45.1893 25.2435C45.2015 25.3575 45.2471 25.4608 45.3444 25.511C45.4401 25.5612 45.5556 25.552 45.6864 25.508C45.6955 25.5049 45.7076 25.4973 45.7168 25.4943C45.7411 25.6432 45.7715 25.8013 45.8004 25.9579C45.7639 26.1114 45.7274 26.268 45.6955 26.4154C45.6864 26.4124 45.6772 26.4032 45.6651 26.4017C45.5359 26.3516 45.4204 26.3364 45.3231 26.3835C45.2258 26.4291 45.1711 26.5309 45.1559 26.6434C45.1224 26.8684 45.1969 27.1845 45.3368 27.5934C45.3641 27.6724 45.4067 27.7697 45.4386 27.8564C45.4295 27.946 45.4112 28.0509 45.4006 28.1345C45.3611 28.5647 45.3641 28.8884 45.4492 29.0997C45.4918 29.2061 45.5663 29.2928 45.6727 29.314C45.7791 29.3353 45.887 29.2943 46.001 29.2152C46.0101 29.2092 46.0192 29.2 46.0253 29.1924C46.0907 29.3292 46.1636 29.4706 46.2351 29.612C46.2442 29.7716 46.2533 29.9312 46.2624 30.0816C46.2533 30.0816 46.2381 30.0756 46.229 30.0756C46.0907 30.0649 45.9767 30.0816 45.8961 30.1531C45.814 30.2245 45.7928 30.337 45.8095 30.451C45.8414 30.676 46.001 30.9587 46.2503 31.3113C46.2989 31.3797 46.3673 31.4603 46.422 31.5348C46.4372 31.6244 46.4494 31.7293 46.4646 31.8114C46.5467 32.2355 46.6409 32.5456 46.7823 32.7249C46.8522 32.8146 46.9495 32.8769 47.0574 32.8663C47.1653 32.8572 47.2565 32.7857 47.3447 32.6793C47.3508 32.6717 47.3568 32.6596 47.3629 32.652C47.4648 32.7644 47.5742 32.88 47.6836 32.9955C47.7368 33.146 47.7885 33.2964 47.8417 33.4378C47.8326 33.4408 47.8174 33.4408 47.8098 33.4424C47.6745 33.4697 47.5696 33.5199 47.5119 33.6111C47.4541 33.7023 47.4648 33.8178 47.5119 33.9212C47.6061 34.1279 47.8372 34.3544 48.1761 34.6219C48.2415 34.6736 48.3296 34.7313 48.4026 34.786C48.4421 34.8696 48.4832 34.9669 48.5227 35.0414C48.7203 35.4244 48.8996 35.695 49.0851 35.8272C49.1778 35.8941 49.2888 35.926 49.3891 35.8865C49.4894 35.847 49.5593 35.7528 49.6125 35.6251C49.6156 35.616 49.6156 35.6038 49.6216 35.5932C49.7508 35.6722 49.8892 35.7528 50.026 35.8333C50.1187 35.9625 50.2129 36.0917 50.3026 36.2133C50.2935 36.2179 50.2813 36.2224 50.2722 36.227C50.1506 36.2924 50.0624 36.3684 50.0336 36.4717C50.0032 36.5766 50.0457 36.6845 50.1217 36.7696C50.2707 36.9414 50.5564 37.0934 50.9577 37.2545C51.0352 37.2864 51.1371 37.3168 51.2222 37.3488C51.283 37.4156 51.3499 37.4977 51.4076 37.5585C51.7056 37.8701 51.9533 38.0799 52.1676 38.1544C52.2756 38.1908 52.3911 38.1924 52.4762 38.1255C52.5613 38.0586 52.6008 37.9492 52.616 37.8124V37.7804C52.762 37.8184 52.917 37.858 53.0705 37.896C53.1967 37.9932 53.3228 38.092 53.4429 38.1832C53.4368 38.1893 53.4247 38.1969 53.4186 38.203C53.3198 38.3003 53.2575 38.3976 53.259 38.507C53.259 38.6149 53.332 38.7061 53.4277 38.7669C53.6192 38.89 53.9369 38.9539 54.3656 38.9964C54.4492 39.004 54.554 39.0071 54.6452 39.0116C54.7243 39.0603 54.8109 39.1196 54.8839 39.1621C55.2578 39.3764 55.5542 39.5087 55.7807 39.5193C55.8947 39.5254 56.0056 39.492 56.0695 39.4038C56.1318 39.3156 56.1394 39.2001 56.1151 39.0648C56.1151 39.0542 56.109 39.042 56.106 39.0329C56.258 39.0284 56.416 39.0223 56.5756 39.0162C56.7231 39.074 56.872 39.1332 57.0134 39.1864C57.0073 39.1956 57.0012 39.2047 56.9952 39.2138C56.9268 39.3339 56.8964 39.4464 56.9268 39.5497C56.9587 39.6531 57.0529 39.72 57.1624 39.7519C57.3812 39.8157 57.7035 39.7884 58.126 39.7078C58.2081 39.6926 58.31 39.6637 58.3981 39.644C58.4863 39.6683 58.5866 39.7017 58.6687 39.72C59.0882 39.8203 59.4089 39.8628 59.6308 39.8096C59.7418 39.7823 59.8376 39.72 59.8756 39.6166C59.912 39.5148 59.8847 39.4023 59.8239 39.2776C59.8208 39.2685 59.8117 39.2594 59.8056 39.2503C59.95 39.2047 60.102 39.1515 60.251 39.1013C60.4091 39.115 60.5687 39.1302 60.7192 39.1408C60.7192 39.15 60.7131 39.1621 60.71 39.1712C60.6796 39.3065 60.6796 39.4205 60.7404 39.5117C60.7997 39.6029 60.9092 39.6409 61.0232 39.6409C61.2512 39.6409 61.5536 39.5239 61.9367 39.3263C62.0112 39.2883 62.1008 39.232 62.1799 39.188C62.2726 39.1849 62.3775 39.191 62.4611 39.1849C62.8928 39.1636 63.212 39.115 63.4096 39.001C63.5084 38.9432 63.5844 38.8566 63.5889 38.7487C63.592 38.6408 63.5388 38.5389 63.4445 38.4386C63.4384 38.431 63.4263 38.4234 63.4202 38.4173C63.5448 38.3322 63.6756 38.2395 63.8063 38.1483C63.9628 38.1164 64.1179 38.086 64.2653 38.054V38.0875C64.2744 38.2258 64.3079 38.3352 64.39 38.4067C64.472 38.4766 64.5876 38.4827 64.697 38.4508C64.9159 38.3869 65.1712 38.1893 65.4844 37.8914C65.5452 37.8336 65.6151 37.7546 65.6789 37.6908C65.7656 37.6634 65.8689 37.636 65.948 37.6087C66.3553 37.4658 66.6487 37.329 66.8052 37.1633C66.8828 37.0812 66.9314 36.9764 66.9056 36.8715C66.8812 36.7651 66.7976 36.683 66.6791 36.6131C66.673 36.6085 66.6578 36.604 66.6487 36.5994C66.7444 36.4824 66.8432 36.3577 66.942 36.2331C67.0834 36.1601 67.2232 36.0856 67.357 36.0127C67.36 36.0218 67.36 36.0355 67.3661 36.0446C67.4132 36.1753 67.4771 36.2711 67.5759 36.3152C67.6747 36.3592 67.7872 36.3319 67.8829 36.2711C68.0744 36.148 68.2644 35.885 68.4818 35.5126C68.5228 35.4396 68.5684 35.3454 68.6125 35.2648C68.6885 35.2132 68.7782 35.1584 68.8466 35.1113C69.1977 34.8605 69.4394 34.6447 69.5443 34.4425C69.596 34.3422 69.6127 34.2267 69.5625 34.1324C69.5093 34.0382 69.406 33.9835 69.2722 33.9485C69.2631 33.9455 69.2509 33.9455 69.2388 33.944C69.298 33.8041 69.3588 33.6567 69.4181 33.5092C69.5321 33.3983 69.6461 33.2888 69.754 33.1809C69.7571 33.1885 69.7632 33.2007 69.7723 33.2083C69.8544 33.3192 69.9425 33.3952 70.0489 33.4089C70.1553 33.4241 70.2572 33.3648 70.3316 33.2782C70.4806 33.1064 70.59 32.8024 70.6919 32.3829C70.7101 32.3008 70.7299 32.1975 70.7481 32.1078C70.8074 32.0379 70.8788 31.9604 70.9305 31.8935C71.1965 31.5545 71.3683 31.2794 71.4108 31.056C71.4321 30.945 71.4169 30.8295 71.3379 30.755C71.2604 30.679 71.1479 30.6562 71.0096 30.6608C71.0004 30.6608 70.9852 30.6638 70.9776 30.6653C70.9959 30.5148 71.0111 30.3568 71.0278 30.1987C71.1068 30.0604 71.1859 29.922 71.2573 29.7898C71.2634 29.7959 71.2756 29.805 71.2816 29.8111C71.3911 29.8947 71.4975 29.9418 71.6039 29.9251C71.7118 29.9084 71.7908 29.8248 71.838 29.7214C71.9322 29.5147 71.952 29.1894 71.9307 28.7592C71.9276 28.6756 71.9124 28.5708 71.9064 28.4796C71.9428 28.396 71.99 28.3017 72.0204 28.2242C72.18 27.8229 72.2666 27.5113 72.2453 27.2848C72.2362 27.1708 72.186 27.0675 72.0903 27.0158C71.9945 26.9656 71.879 26.9748 71.7483 27.0188C71.7392 27.0219 71.727 27.028 71.7179 27.0325C71.6936 26.8836 71.6632 26.727 71.6343 26.572C71.6708 26.4169 71.7088 26.2619 71.7407 26.1129C71.7498 26.116 71.7589 26.1236 71.7711 26.1266C71.9003 26.1752 72.0158 26.1904 72.1131 26.1448C72.2119 26.0992 72.2651 25.9974 72.2818 25.8849C72.3137 25.66 72.2408 25.3438 72.0994 24.9364C72.072 24.8574 72.0295 24.7601 71.9976 24.675C72.0067 24.5838 72.0249 24.4804 72.034 24.3968C72.0751 23.9667 72.0705 23.6429 71.9869 23.4316C71.9444 23.3252 71.8684 23.2386 71.7635 23.2188C71.6571 23.1976 71.5492 23.2386 71.4352 23.3176C71.4291 23.3222 71.4169 23.3328 71.4108 23.3389C71.3455 23.2036 71.2725 23.0608 71.2011 22.9194C71.192 22.7598 71.1828 22.6002 71.1737 22.4497C71.1828 22.4497 71.195 22.4543 71.2056 22.4543C71.344 22.4649 71.458 22.4482 71.54 22.3768C71.6221 22.3053 71.6434 22.1913 71.6267 22.0788C71.5948 21.8539 71.4352 21.5712 71.1844 21.22C71.1357 21.1516 71.0688 21.0711 71.0141 20.9981C70.9989 20.9084 70.9868 20.8036 70.9716 20.7215C70.8895 20.2974 70.7952 19.9873 70.6539 19.808C70.584 19.7183 70.4867 19.656 70.3788 19.6651C70.2708 19.6742 70.1781 19.7456 70.0915 19.8536C70.0854 19.8612 70.0793 19.8733 70.0732 19.8809C69.9714 19.7684 69.862 19.6529 69.7525 19.5374C69.6993 19.3869 69.6461 19.2364 69.5944 19.0951C69.6066 19.092 69.6188 19.092 69.6279 19.0905C69.7632 19.0632 69.8665 19.013 69.9258 18.9218C69.9836 18.8306 69.9729 18.7151 69.9258 18.6117C69.8316 18.405 69.599 18.1785 69.26 17.911C69.1947 17.8593 69.1065 17.8 69.032 17.7453C68.9925 17.6632 68.9515 17.566 68.9135 17.4915C68.7144 17.1084 68.538 16.8379 68.3526 16.7056C68.2599 16.6403 68.1489 16.6068 68.0486 16.6464C67.9483 16.6859 67.8799 16.7801 67.8267 16.9078C67.8236 16.9169 67.8206 16.9291 67.8176 16.9397C67.6884 16.8607 67.55 16.7801 67.4132 16.6996C67.3205 16.5704 67.2263 16.4412 67.1366 16.3196C67.1457 16.315 67.1579 16.3104 67.167 16.3059C67.2901 16.2405 67.3768 16.1645 67.4056 16.0596C67.436 15.9563 67.3935 15.8468 67.3175 15.7617C67.167 15.59 66.8828 15.438 66.4815 15.2768C66.404 15.2449 66.3036 15.2145 66.217 15.1826C66.1562 15.1142 66.0893 15.0321 66.0316 14.9713C65.7321 14.6597 65.4859 14.4515 65.2716 14.377C65.1636 14.339 65.0481 14.339 64.963 14.4059C64.8779 14.4728 64.8384 14.5822 64.8232 14.719V14.7509C64.6772 14.7129 64.5222 14.6734 64.3687 14.6354C64.244 14.5381 64.1164 14.4393 63.9963 14.3496C64.0024 14.342 64.0145 14.336 64.0206 14.3284C64.1194 14.2311 64.1817 14.1338 64.1802 14.0259C64.1802 13.9164 64.1072 13.8252 64.0115 13.7644C63.82 13.6413 63.5023 13.5775 63.0736 13.5349C62.99 13.5273 62.8852 13.5243 62.794 13.5182C62.7164 13.4696 62.6298 13.4103 62.5568 13.3677C62.1829 13.1534 61.8865 13.0212 61.66 13.0105C61.546 13.0044 61.4351 13.0379 61.3712 13.1245C61.3074 13.2127 61.3013 13.3282 61.3256 13.4635C61.3256 13.4726 61.3317 13.4863 61.3348 13.4954C61.1843 13.5 61.0247 13.506 60.8651 13.5136C60.7176 13.4559 60.5687 13.3966 60.4273 13.3434C60.4304 13.3358 60.4425 13.3252 60.4456 13.316C60.5124 13.1944 60.5444 13.0835 60.5124 12.9801C60.482 12.8768 60.3878 12.8099 60.2784 12.778C60.0595 12.7141 59.7372 12.7415 59.3132 12.822C59.2311 12.8372 59.1292 12.8661 59.0396 12.8844C58.9514 12.86 58.8511 12.8281 58.7705 12.8084C58.4559 12.7324 58.1975 12.6898 57.9938 12.6959H57.9968L57.9908 12.6974Z" fill="black"/>
<path d="M39.2598 54.6964L39.4711 54.4851V53.4697H38.5074V53.8984H39.0455V54.2692H37.9769V52.9833H39.0455V53.1976H39.4711V52.772L39.2598 52.5547H37.7611L37.5498 52.772V54.4851L37.7611 54.6964H39.2598Z" fill="black"/>
<path d="M40.0654 52.5547V54.6964H41.8833V54.2692H40.4925V52.5547H40.0654Z" fill="black"/>
<path d="M44.0965 54.6964L44.3078 54.4851V52.772L44.0965 52.5547H42.5963L42.385 52.772V54.4851L42.5963 54.6964H44.0965ZM42.8152 54.2692V52.9833H43.8837V54.2692H42.8152Z" fill="black"/>
<path d="M46.6122 54.6964L46.8234 54.4851V53.8421L46.6122 53.6278L46.8234 53.4135V52.772L46.6122 52.5547H44.9006V54.6964H46.6122ZM45.3308 53.4135V52.9833H46.3994V53.4135H45.3308ZM45.3308 54.2692V53.8436H46.3994V54.2692H45.3308Z" fill="black"/>
<path d="M47.8158 54.6964V54.0564H48.8844V54.6964H49.31V52.5547H48.0271L47.3872 53.2007V54.6964H47.8158ZM47.8158 53.6278V53.4135L48.2414 52.9833H48.8844V53.6278H47.8158Z" fill="black"/>
<path d="M49.9028 52.5547V54.6964H51.7208V54.2692H50.3315V52.5547H49.9028Z" fill="black"/>
<path d="M54.1635 54.6964V53.8421H55.4464V53.4135H54.1635V52.9833H55.5543V52.5547H53.7349V54.6964H54.1635Z" fill="black"/>
<path d="M57.7657 54.6964L57.977 54.4851V52.772L57.7657 52.5547H56.2655L56.0542 52.772V54.4851L56.2655 54.6964H57.7657ZM56.4828 54.2692V52.9833H57.5514V54.2692H56.4828Z" fill="black"/>
<path d="M60.2831 54.6964L60.4943 54.4851V52.772L60.2831 52.5547H58.7828L58.5715 52.772V54.4851L58.7828 54.6964H60.2831ZM59.0002 54.2692V52.9833H60.0687V54.2692H59.0002Z" fill="black"/>
<path d="M62.5842 54.2692H61.5156V52.9833H62.1555L62.5842 53.412V54.2692ZM63.0083 53.1976L62.3683 52.5547H61.0854V54.6964H62.797L63.0083 54.4851V53.1976Z" fill="black"/>
<path d="M66.0925 54.6964L66.3068 54.4851L66.5211 54.6964H67.0562L66.5728 54.216L67.0562 53.7357H66.5211L66.3068 53.947L65.9861 53.6278L66.5211 53.3588V52.772L66.3068 52.5547H65.4526L65.2352 52.772V53.342L65.3978 53.5199H65.2352L65.0239 53.7372V54.4866L65.2352 54.6979H66.0925V54.6964ZM65.7459 53.3648L65.6623 53.2676V52.9818H66.091V53.1992L65.7459 53.3633V53.3648ZM65.4526 54.2692V53.8984L65.6319 53.8011L66.0362 54.2176L65.9846 54.2692H65.4526Z" fill="black"/>
<path d="M69.4379 54.6964V53.2524L70.0094 54.0747H70.3682L70.9275 53.2524V54.6964H71.3562V52.5547H70.9442L70.1842 53.5913L69.4379 52.5547H69.0093V54.6964H69.4379Z" fill="black"/>
<path d="M71.9504 52.5547V54.4851L72.1617 54.6964H73.662L73.8717 54.4851V52.5547H73.4476V54.2692H72.3791V52.5547H71.9504Z" fill="black"/>
<path d="M76.1776 54.6964L76.3873 54.4851V53.6263L76.1776 53.412H74.8947V52.9833H75.9633V53.1976H76.3873V52.772L76.1776 52.5547H74.6773L74.4661 52.772V53.6901L74.6773 53.8421H75.9633V54.2692H74.8947V54.0564H74.4661V54.4851L74.6773 54.6964H76.1776Z" fill="black"/>
<path d="M77.4103 52.5547H76.9817V54.6964H77.4103V52.5547Z" fill="black"/>
<path d="M79.7162 54.6964L79.9259 54.4851V54.0564H79.5018V54.2692H78.4333V52.9833H79.5018V53.1976H79.9259V52.772L79.7162 52.5547H78.2159L78.0046 52.772V54.4851L78.2159 54.6964H79.7162Z" fill="black"/>
<path d="M36.8764 43.1337H36.4599V44.415H36.7624C36.9357 44.415 37.0846 44.3923 37.2093 44.3482C37.3339 44.3041 37.4297 44.2342 37.4981 44.1369C37.5665 44.0396 37.6014 43.915 37.6014 43.7615C37.6014 43.5471 37.5437 43.3891 37.4266 43.2872C37.3096 43.1839 37.1257 43.1337 36.8764 43.1337ZM35.5464 42.3843H36.925C37.4798 42.3843 37.8872 42.5044 38.1425 42.7431C38.3979 42.9832 38.5256 43.3115 38.5256 43.731C38.5256 43.921 38.4982 44.1004 38.4405 44.2707C38.3842 44.4409 38.2915 44.5944 38.1608 44.7297C38.0301 44.8635 37.8568 44.9698 37.6425 45.0474C37.4297 45.1234 37.1667 45.1629 36.8521 45.1629H36.4599V46.6966H35.5464V42.3828V42.3843Z" fill="black"/>
<path d="M40.6765 44.5395C40.6765 44.8405 40.7145 45.1004 40.792 45.3178C40.868 45.5351 40.9865 45.7023 41.1477 45.8194C41.3088 45.9364 41.517 45.9942 41.7709 45.9942C42.0247 45.9942 42.2436 45.9364 42.4017 45.8194C42.5613 45.7023 42.6783 45.5351 42.7528 45.3178C42.8273 45.1004 42.8653 44.8405 42.8653 44.5395C42.8653 44.0835 42.7801 43.7278 42.6114 43.4694C42.4412 43.211 42.1645 43.0834 41.7785 43.0834C41.5201 43.0834 41.3103 43.1411 41.1492 43.2597C40.9881 43.3767 40.8695 43.5439 40.7935 43.7613C40.7175 43.9786 40.678 44.2386 40.678 44.541L40.6765 44.5395ZM43.8244 44.5395C43.8244 44.8739 43.7833 45.1764 43.7013 45.4485C43.6192 45.7206 43.493 45.9562 43.3258 46.1522C43.1586 46.3498 42.9458 46.5003 42.6859 46.6052C42.426 46.7101 42.1205 46.7633 41.7709 46.7633C41.4213 46.7633 41.1157 46.7086 40.8558 46.6022C40.5959 46.4958 40.3831 46.3453 40.2159 46.1492C40.0487 45.9531 39.9241 45.719 39.8405 45.4454C39.7584 45.1718 39.7158 44.8663 39.7158 44.5319C39.7158 44.085 39.7888 43.6959 39.9362 43.3661C40.0821 43.0362 40.3086 42.7794 40.6126 42.597C40.9166 42.413 41.3057 42.3203 41.7769 42.3203C42.2481 42.3203 42.6281 42.413 42.9306 42.597C43.2331 42.7794 43.4581 43.0378 43.604 43.3706C43.7514 43.702 43.8244 44.0926 43.8244 44.541V44.5395Z" fill="black"/>
<path d="M47.1181 43.0881C46.9449 43.0881 46.7913 43.1231 46.6561 43.1915C46.5208 43.2599 46.4083 43.3572 46.3156 43.4848C46.2229 43.611 46.1529 43.766 46.1058 43.9469C46.0587 44.1293 46.0359 44.333 46.0359 44.5564C46.0359 44.8635 46.0739 45.1234 46.1469 45.3392C46.2213 45.5551 46.3399 45.7192 46.501 45.8317C46.6621 45.9442 46.8673 46.0004 47.1181 46.0004C47.296 46.0004 47.4723 45.9807 47.6471 45.9396C47.8219 45.8986 48.0119 45.8439 48.2171 45.7709V46.5385C48.0286 46.616 47.8417 46.6723 47.6562 46.7072C47.4708 46.7437 47.2625 46.762 47.033 46.762C46.5907 46.762 46.2244 46.6692 45.9371 46.4868C45.6498 46.3029 45.437 46.046 45.3002 45.7132C45.1619 45.3818 45.0935 44.9942 45.0935 44.5504C45.0935 44.2251 45.1376 43.9256 45.2273 43.6536C45.3169 43.3815 45.4461 43.1474 45.6179 42.9498C45.7881 42.7522 46.0009 42.5987 46.2517 42.4908C46.5041 42.3828 46.7929 42.3281 47.1197 42.3281C47.334 42.3281 47.5483 42.354 47.7626 42.4087C47.9785 42.4634 48.1852 42.5364 48.3828 42.6306L48.0864 43.3739C47.9253 43.2979 47.7626 43.231 47.6 43.1748C47.4373 43.1185 47.2777 43.0896 47.1197 43.0896L47.1181 43.0881Z" fill="black"/>
<path d="M50.4714 44.5395C50.4714 44.8405 50.5094 45.1004 50.5869 45.3178C50.6629 45.5351 50.783 45.7023 50.9441 45.8194C51.1052 45.9364 51.3135 45.9942 51.5658 45.9942C51.8181 45.9942 52.037 45.9364 52.1981 45.8194C52.3577 45.7023 52.4732 45.5351 52.5477 45.3178C52.6222 45.1004 52.6602 44.8405 52.6602 44.5395C52.6602 44.0835 52.5751 43.7278 52.4048 43.4694C52.2361 43.211 51.9579 43.0834 51.5719 43.0834C51.3135 43.0834 51.1052 43.1411 50.9441 43.2597C50.783 43.3767 50.6644 43.5439 50.5869 43.7613C50.5109 43.9786 50.4714 44.2386 50.4714 44.541V44.5395ZM53.6193 44.5395C53.6193 44.8739 53.5783 45.1764 53.4947 45.4485C53.4111 45.7206 53.2864 45.9562 53.1192 46.1522C52.9535 46.3498 52.7392 46.5003 52.4793 46.6052C52.2194 46.7101 51.9139 46.7633 51.5643 46.7633C51.2147 46.7633 50.9091 46.7086 50.6492 46.6022C50.3893 46.4958 50.175 46.3453 50.0093 46.1492C49.8421 45.9531 49.7159 45.719 49.6339 45.4454C49.5518 45.1718 49.5107 44.8663 49.5107 44.5319C49.5107 44.085 49.5852 43.6959 49.7311 43.3661C49.8786 43.0362 50.1051 42.7794 50.4091 42.597C50.7131 42.413 51.1007 42.3203 51.5719 42.3203C52.0431 42.3203 52.4246 42.413 52.7255 42.597C53.028 42.7794 53.253 43.0378 53.3989 43.3706C53.5463 43.702 53.6193 44.0926 53.6193 44.541V44.5395Z" fill="black"/>
<path d="M59.3284 44.9041L59.0153 43.9009C58.994 43.8325 58.9682 43.7458 58.9363 43.6409C58.9043 43.5361 58.8709 43.4297 58.839 43.3202C58.8071 43.2108 58.7797 43.1165 58.7599 43.036C58.7402 43.1165 58.7128 43.2153 58.6779 43.3339C58.6444 43.454 58.6125 43.5665 58.5821 43.6729C58.5517 43.7808 58.5289 43.8553 58.5122 43.8993L58.2021 44.9025H59.3269L59.3284 44.9041ZM60.8454 46.6992H59.8619L59.5473 45.6717H57.9756L57.661 46.6992H56.676L58.1991 42.3672H59.3163L60.8439 46.6992H60.8454Z" fill="black"/>
<path d="M65.4252 43.1337H65.0072V44.415H65.3097C65.483 44.415 65.6319 44.3923 65.7566 44.3482C65.8827 44.3041 65.9785 44.2342 66.0469 44.1369C66.1153 44.0396 66.1503 43.915 66.1503 43.7615C66.1503 43.5471 66.091 43.3891 65.9739 43.2872C65.8569 43.1839 65.6745 43.1337 65.4252 43.1337ZM64.0967 42.3843H65.4739C66.0302 42.3843 66.436 42.5044 66.6914 42.7431C66.9467 42.9832 67.0759 43.3115 67.0759 43.731C67.0759 43.921 67.0486 44.1004 66.9908 44.2707C66.9331 44.4409 66.8403 44.5944 66.7096 44.7297C66.5789 44.8635 66.4071 44.9698 66.1928 45.0474C65.9785 45.1234 65.7155 45.1629 65.4009 45.1629H65.0072V46.6966H64.0952V42.3828L64.0967 42.3843Z" fill="black"/>
<path d="M69.2268 44.5395C69.2268 44.8405 69.2648 45.1004 69.3408 45.3178C69.4168 45.5351 69.5368 45.7023 69.698 45.8194C69.8591 45.9364 70.0673 45.9942 70.3196 45.9942C70.572 45.9942 70.7924 45.9364 70.952 45.8194C71.11 45.7023 71.2271 45.5351 71.3016 45.3178C71.376 45.1004 71.414 44.8405 71.414 44.5395C71.414 44.0835 71.3289 43.7278 71.1602 43.4694C70.9915 43.211 70.7118 43.0834 70.3257 43.0834C70.0673 43.0834 69.8591 43.1411 69.698 43.2597C69.5368 43.3767 69.4183 43.5439 69.3408 43.7613C69.2648 43.9786 69.2268 44.2386 69.2268 44.541V44.5395ZM72.3732 44.5395C72.3732 44.8739 72.3321 45.1764 72.2485 45.4485C72.1664 45.7206 72.0418 45.9562 71.8746 46.1522C71.7074 46.3498 71.4946 46.5003 71.2347 46.6052C70.9748 46.7101 70.6692 46.7633 70.3196 46.7633C69.97 46.7633 69.6645 46.7086 69.4046 46.6022C69.1447 46.4958 68.9319 46.3453 68.7647 46.1492C68.5975 45.9531 68.4728 45.719 68.3908 45.4454C68.3072 45.1718 68.2661 44.8663 68.2661 44.5319C68.2661 44.085 68.3406 43.6959 68.4865 43.3661C68.634 43.0362 68.8589 42.7794 69.1629 42.597C69.4669 42.413 69.8545 42.3203 70.3257 42.3203C70.7969 42.3203 71.1784 42.413 71.4794 42.597C71.7819 42.7794 72.0068 43.0378 72.1528 43.3706C72.3002 43.702 72.3732 44.0926 72.3732 44.541V44.5395Z" fill="black"/>
<path d="M75.6655 43.0881C75.4922 43.0881 75.3387 43.1231 75.2034 43.1915C75.0681 43.2599 74.9541 43.3572 74.8614 43.4848C74.7702 43.611 74.7003 43.766 74.6547 43.9469C74.6091 44.1293 74.5847 44.333 74.5847 44.5564C74.5847 44.8635 74.6227 45.1234 74.6957 45.3392C74.7702 45.5551 74.8887 45.7192 75.0483 45.8317C75.2095 45.9442 75.4147 46.0004 75.6639 46.0004C75.8418 46.0004 76.0181 45.9807 76.1929 45.9396C76.3692 45.8986 76.5592 45.8439 76.7644 45.7709V46.5385C76.5744 46.616 76.3875 46.6723 76.202 46.7072C76.0166 46.7437 75.8099 46.762 75.5803 46.762C75.138 46.762 74.7717 46.6692 74.4844 46.4868C74.1971 46.3029 73.9843 46.046 73.8475 45.7132C73.7107 45.3818 73.6423 44.9942 73.6423 44.5504C73.6423 44.2251 73.6864 43.9256 73.7746 43.6536C73.8643 43.3815 73.9935 43.1474 74.1637 42.9498C74.3355 42.7522 74.5467 42.5987 74.7991 42.4908C75.0514 42.3828 75.3387 42.3281 75.6655 42.3281C75.8798 42.3281 76.0941 42.354 76.3099 42.4087C76.5243 42.4634 76.731 42.5364 76.9286 42.6306L76.6322 43.3739C76.4711 43.2979 76.3099 43.231 76.1458 43.1748C75.9831 43.1185 75.822 43.0896 75.6655 43.0896V43.0881Z" fill="black"/>
<path d="M79.0201 44.5395C79.0201 44.8405 79.0581 45.1004 79.1356 45.3178C79.2116 45.5351 79.3302 45.7023 79.4913 45.8194C79.6524 45.9364 79.8591 45.9942 80.113 45.9942C80.3668 45.9942 80.5857 45.9364 80.7453 45.8194C80.9034 45.7023 81.0204 45.5351 81.0949 45.3178C81.1709 45.1004 81.2074 44.8405 81.2074 44.5395C81.2074 44.0835 81.1223 43.7278 80.9535 43.4694C80.7848 43.211 80.5067 43.0834 80.1206 43.0834C79.8622 43.0834 79.6524 43.1411 79.4913 43.2597C79.3302 43.3767 79.2116 43.5439 79.1356 43.7613C79.0581 43.9786 79.0201 44.2386 79.0201 44.541V44.5395ZM82.168 44.5395C82.168 44.8739 82.127 45.1764 82.0449 45.4485C81.9628 45.7206 81.8367 45.9562 81.671 46.1522C81.5038 46.3498 81.2895 46.5003 81.0311 46.6052C80.7711 46.7101 80.4656 46.7633 80.116 46.7633C79.7664 46.7633 79.4609 46.7086 79.201 46.6022C78.9411 46.4958 78.7283 46.3453 78.5611 46.1492C78.3954 45.9531 78.2707 45.719 78.1871 45.4454C78.1051 45.1718 78.0625 44.8663 78.0625 44.5319C78.0625 44.085 78.1355 43.6959 78.2844 43.3661C78.4303 43.0362 78.6568 42.7794 78.9608 42.597C79.2648 42.413 79.6524 42.3203 80.1251 42.3203C80.5979 42.3203 80.9763 42.413 81.2788 42.597C81.5798 42.7794 81.8047 43.0378 81.9522 43.3706C82.0981 43.702 82.1726 44.0926 82.1726 44.541L82.168 44.5395Z" fill="black"/>
<path d="M82.6209 50.2384H34.9431C34.5996 50.2384 34.3716 50.2004 34.3716 50.1426C34.3716 50.0849 34.5996 50.0469 34.9431 50.0469H82.5632C82.9067 50.0469 83.1347 50.0849 83.1347 50.1426C83.1347 50.2004 82.9067 50.2384 82.6209 50.2384Z" fill="black"/>
<path d="M58.8161 31.3659L58.8282 21.6546C58.8282 21.5847 58.7811 21.5391 58.7127 21.5391C58.6428 21.5391 58.5957 21.5847 58.5957 21.6546L58.5835 31.3552C58.5835 31.4251 58.6291 31.4723 58.699 31.4723C58.7689 31.4723 58.8161 31.4267 58.8161 31.3674V31.3659Z" fill="black"/>
<path d="M64.2106 27.4326C64.2106 27.2016 64.0342 27.0131 63.8199 27.0131C63.6056 27.0131 63.4293 27.2016 63.4293 27.4326C63.4293 27.6637 63.6056 27.8522 63.8199 27.8522C64.0342 27.8522 64.2106 27.6637 64.2106 27.4326ZM64.1969 28.3203C64.1969 28.258 64.1452 28.2018 64.0859 28.2018H63.5509C63.4916 28.2018 63.4399 28.258 63.4399 28.3203V28.3477C63.4399 28.41 63.4916 28.4662 63.5509 28.4662H64.0859C64.1437 28.4662 64.1969 28.41 64.1969 28.3477V28.3203ZM65.2016 28.6912C65.2016 29.3068 64.8687 29.8236 63.8199 29.8236C62.7711 29.8236 62.4382 29.3205 62.4382 28.6912C62.4382 28.0619 63.0903 27.7473 63.0903 27.3977C63.0903 27.0481 62.7772 26.9082 62.7772 26.6149C62.7772 26.3215 63.1481 26.0692 63.6375 26.013V24.5796L63.4931 24.4322L63.6436 24.271L63.7029 23.1797H63.943L64.0023 24.271L64.1528 24.4322L64.016 24.5796V26.1528C64.0221 26.3489 64.1786 26.51 64.361 26.51C64.5115 26.51 64.6346 26.4051 64.6863 26.2577C64.8034 26.355 64.8748 26.4112 64.8748 26.6073C64.8748 26.8034 64.5632 27.0754 64.5632 27.3901C64.5632 27.7047 65.2016 28.0832 65.2016 28.6912ZM63.5661 23.4867C63.6254 23.4791 63.6634 23.4381 63.6634 23.3879C63.6573 23.3393 63.6056 23.3043 63.5524 23.3119C63.4931 23.3195 63.4475 23.3256 63.4551 23.4107C63.4612 23.5019 63.5068 23.4943 63.5661 23.4867ZM63.5205 23.9777C63.5798 23.9701 63.6193 23.929 63.6193 23.8804C63.6132 23.8318 63.56 23.7968 63.5083 23.8029C63.4566 23.8105 63.405 23.8166 63.411 23.9002C63.4171 23.9914 63.4627 23.9838 63.522 23.9777H63.5205ZM63.5463 23.733C63.6056 23.7254 63.6436 23.6843 63.6436 23.6357C63.6375 23.587 63.5858 23.5521 63.5326 23.5582C63.4673 23.5658 63.4217 23.5718 63.4278 23.6554C63.4338 23.739 63.487 23.739 63.5448 23.733H63.5463ZM64.0221 23.9777C64.016 24.0263 64.0616 24.0689 64.1194 24.075C64.1786 24.0826 64.2242 24.0886 64.2303 23.9974C64.2364 23.9062 64.1908 23.9062 64.133 23.9002C64.0814 23.9002 64.0297 23.9275 64.0221 23.9777ZM64.0023 23.733C63.9962 23.7816 64.0418 23.8242 64.0996 23.8302C64.1574 23.8378 64.203 23.8439 64.2106 23.7542C64.2166 23.663 64.171 23.663 64.1133 23.6554C64.0555 23.6478 64.0099 23.6828 64.0023 23.733ZM63.9826 23.4943C63.9886 23.4457 64.0418 23.4107 64.0935 23.4168C64.1452 23.4244 64.1969 23.4305 64.1908 23.5141C64.1847 23.6053 64.1315 23.5977 64.0798 23.5916C64.0145 23.584 63.975 23.5354 63.9826 23.4943Z" fill="black"/>
<path d="M54.8596 25.8179C54.8596 25.8179 55.1302 25.9167 55.4509 25.3755C55.7716 24.8344 56.2048 23.8312 56.2048 23.8312L56.176 23.8115L55.3506 25.2403C55.3324 25.2722 55.2928 25.2798 55.2609 25.2585C55.229 25.2372 55.2184 25.1931 55.2366 25.1612L56.0027 23.6914L55.9768 23.6731L55.1317 25.0883C55.1135 25.1202 55.074 25.1278 55.042 25.1065C55.0101 25.0837 54.998 25.0396 55.0162 25.0077L55.7823 23.5379L55.761 23.5227L54.9159 24.9378C54.8976 24.9697 54.8581 24.9773 54.8262 24.956C54.7943 24.9347 54.7821 24.8907 54.8004 24.8587L55.5862 23.4026L55.5573 23.3828C55.5573 23.3828 54.9417 24.2583 54.6468 24.8177C54.352 25.3771 54.5511 25.6051 54.5511 25.6051L54.5693 25.6187L52.5796 28.9521C52.5325 29.0463 52.6192 29.2075 52.7149 29.2743C52.8107 29.3412 52.9794 29.3579 53.0341 29.2683L53.0372 29.2622L54.8384 25.8072L54.8566 25.8194L54.8596 25.8179Z" fill="black"/>
<path d="M53.8428 26.6248L53.8565 26.6141L53.8747 26.6476L54.1164 26.2417L53.4354 25.1808L52.3501 23.375C51.4229 23.4008 53.3959 26.6156 53.3959 26.6156L53.8428 26.6232V26.6248Z" fill="black"/>
<path d="M55.8158 28.8973L54.4295 26.7344L54.1848 27.2041L55.3355 29.2485L55.3385 29.2545C55.3993 29.3457 55.5787 29.3229 55.679 29.2469C55.7793 29.1709 55.8675 28.9946 55.8143 28.8973H55.8158Z" fill="black"/>
</g>
<defs>
<filter id="filter0_d_1850_101316" x="0.875" y="0.65625" width="115.25" height="66.25" filterUnits="userSpaceOnUse" color-interpolation-filters="sRGB">
<feFlood flood-opacity="0" result="BackgroundImageFix"/>
<feColorMatrix in="SourceAlpha" type="matrix" values="0 0 0 0 0 0 0 0 0 0 0 0 0 0 0 0 0 0 127 0" result="hardAlpha"/>
<feOffset dy="0.78125"/>
<feGaussianBlur stdDeviation="1.5625"/>
<feComposite in2="hardAlpha" operator="out"/>
<feColorMatrix type="matrix" values="0 0 0 0 0 0 0 0 0 0 0 0 0 0 0 0 0 0 0.08 0"/>
<feBlend mode="normal" in2="BackgroundImageFix" result="effect1_dropShadow_1850_101316"/>
<feBlend mode="normal" in="SourceGraphic" in2="effect1_dropShadow_1850_101316" result="shape"/>
</filter>
</defs>
</svg>
