<svg width="117" height="67" viewBox="0 0 117 67" fill="none" xmlns="http://www.w3.org/2000/svg">
<g filter="url(#filter0_d_1850_79767)">
<rect width="109" height="60" transform="translate(4 3)" fill="white"/>
<path d="M62.0485 27.7393L61.2656 26.7754L63.139 24.5864H64.5328L64.6348 24.7124L62.0485 27.7393ZM66.4322 33.1309L64.9033 31.2505L67.4869 28.2236L69.0157 30.106L69.0136 30.1094L69.8588 31.1509L75.4676 24.5859H79.6727L74.7129 30.3975H74.7172L69.2452 36.8101H65.0395L66.6351 34.9399L67.2856 34.1768L66.4333 33.1289L66.4316 33.1304L66.4322 33.1309Z" fill="#12100B"/>
<path d="M53.3325 29.1973L49.5825 24.5864H54.6303L55.9204 26.1768L53.3331 29.1973H53.3325ZM59.4349 36.6992L56.1884 32.7085L58.7714 29.6909L59.9563 31.1509L65.564 24.5859H69.7702L59.4344 36.6987L59.4349 36.6992Z" fill="#E11018"/>
<path d="M35.0317 36.8105L45.3529 24.7144H46.1944L51.9344 31.7886L58.1041 24.5859H62.318L51.8557 36.8105H50.9861L45.2422 29.7661L39.2386 36.8105H35.0317Z" fill="#12100B"/>
<path d="M42.3387 39.3535V39.646C42.3387 40.2466 41.877 40.5703 41.0284 40.5703H40.6785V42.0845H39.8896V38.4297H41.0284C41.877 38.4297 42.3387 38.7534 42.3387 39.354V39.3535ZM40.6785 38.9409V40.0581H40.9986C41.3784 40.0581 41.5493 39.917 41.5493 39.6089V39.3896C41.5493 39.0815 41.3778 38.9404 40.9986 38.9404H40.6785V38.9409Z" fill="#12100B"/>
<path d="M44.6979 42.0767L44.0729 40.5313H43.7083V42.0767H42.9194V38.4219H44.0582C44.9067 38.4219 45.3684 38.7456 45.3684 39.3462V39.6074C45.3684 39.9937 45.1748 40.2651 44.8102 40.4116L45.5323 42.0771H44.6984L44.6979 42.0767ZM43.7077 38.9336V40.0195H44.0278C44.4076 40.0195 44.5785 39.8784 44.5785 39.5708V39.3828C44.5785 39.0747 44.4071 38.9336 44.0278 38.9336H43.7077Z" fill="#12100B"/>
<path d="M46.8943 42.0767H46.1055V38.4219H46.8943V42.0767Z" fill="#12100B"/>
<path d="M50.1836 39.3535V41.1602C50.1836 41.7607 49.7219 42.0845 48.8734 42.0845H47.7422V38.4297H48.8734C49.7219 38.4297 50.1836 38.7534 50.1836 39.354V39.3535ZM48.531 38.9409V41.5723H48.8435C49.2233 41.5723 49.3942 41.4312 49.3942 41.1235V39.3901C49.3942 39.082 49.2228 38.9409 48.8435 38.9409H48.531Z" fill="#12100B"/>
<path d="M53.1686 38.9336H51.7396V39.9673H52.8936V40.479H51.7396V41.5649H53.1686V42.0767H50.9502V38.4219H53.1686V38.9336Z" fill="#12100B"/>
<path d="M57.716 39.2993V41.2104C57.716 41.7847 57.232 42.1343 56.4432 42.1343C55.6544 42.1343 55.1704 41.7847 55.1704 41.2104V39.2993C55.1704 38.7251 55.6544 38.375 56.4432 38.375C57.232 38.375 57.716 38.7246 57.716 39.2993ZM55.9593 39.3042V41.2046C55.9593 41.4761 56.1302 41.6221 56.4432 41.6221C56.7562 41.6221 56.9271 41.4756 56.9271 41.2046V39.3042C56.9271 39.0327 56.7557 38.8867 56.4432 38.8867C56.1307 38.8867 55.9593 39.0327 55.9593 39.3042Z" fill="#12100B"/>
<path d="M60.6634 38.9336H59.2713V39.9673H60.3878V40.479H59.2713V42.0767H58.4824V38.4219H60.6634V38.9336Z" fill="#12100B"/>
<path d="M63.2762 42.0767H62.4873V38.4219H63.2762V42.0767Z" fill="#12100B"/>
<path d="M66.6918 42.0767H65.9176L64.883 39.6543H64.8684V42.0767H64.124V38.4219H65.0024L65.9328 40.5991H65.9475V38.4219H66.6918V42.0767Z" fill="#12100B"/>
<path d="M69.9824 39.3535V41.1602C69.9824 41.7607 69.5207 42.0845 68.6722 42.0845H67.541V38.4297H68.6722C69.5207 38.4297 69.9824 38.7534 69.9824 39.354V39.3535ZM68.3299 38.9409V41.5723H68.6424C69.0221 41.5723 69.193 41.4312 69.193 41.1235V39.3901C69.193 39.082 69.0216 38.9409 68.6424 38.9409H68.3299Z" fill="#12100B"/>
<path d="M71.5379 42.0767H70.749V38.4219H71.5379V42.0767Z" fill="#12100B"/>
<path d="M74.9091 42.0767H74.105L73.9336 41.2466H73.0628L72.8914 42.0767H72.1025L73.0031 38.4219H74.0079L74.9085 42.0767H74.9091ZM73.4871 39.2051L73.167 40.7451H73.8294L73.5093 39.2051H73.4871Z" fill="#12100B"/>
<path d="M38.8696 38.7969H35.0366V39.5879H38.8696V38.7969Z" fill="#12100B"/>
<path d="M38.8696 40.8672H35.0366V41.6582H38.8696V40.8672Z" fill="#12100B"/>
<path d="M79.7109 38.7969H75.8779V39.5879H79.7109V38.7969Z" fill="#12100B"/>
<path d="M79.7109 40.8672H75.8779V41.6582H79.7109V40.8672Z" fill="#12100B"/>
<path d="M81.046 23.875C80.5371 23.875 80.1226 24.2476 80.1226 24.7051C80.1226 25.1626 80.5371 25.5361 81.046 25.5361C81.5548 25.5361 81.9693 25.1641 81.9693 24.7051C81.9693 24.2461 81.5548 23.875 81.046 23.875ZM81.046 25.46C80.5837 25.46 80.2067 25.1221 80.2067 24.7051C80.2067 24.2881 80.5837 23.9512 81.046 23.9512C81.5082 23.9512 81.8842 24.29 81.8842 24.7051C81.8842 25.1201 81.5082 25.46 81.046 25.46Z" fill="#1D1D1B"/>
<path d="M81.3857 24.8032C81.4199 24.7837 81.4503 24.7607 81.4758 24.7329C81.5008 24.7061 81.5208 24.6733 81.5349 24.6382C81.5496 24.6021 81.5566 24.562 81.5566 24.5176V24.5142C81.5566 24.4673 81.5485 24.4233 81.5311 24.3843C81.5138 24.3452 81.4894 24.3101 81.4574 24.2798C81.4178 24.2456 81.3689 24.2197 81.3109 24.2007C81.2517 24.1812 81.1845 24.1719 81.1085 24.1719H80.5703V25.2583H80.7808V24.8799H81.0467L81.3445 25.2583H81.5946L81.2686 24.8477C81.3109 24.8369 81.3505 24.8218 81.3857 24.8032ZM80.7808 24.7109V24.3447H81.0906C81.1709 24.3447 81.2327 24.3594 81.2756 24.3906C81.319 24.4209 81.3418 24.4658 81.3418 24.5254V24.5283C81.3418 24.5845 81.3185 24.6289 81.2734 24.6616C81.2284 24.6943 81.1682 24.7109 81.0922 24.7109H80.7808Z" fill="#1D1D1B"/>
</g>
<defs>
<filter id="filter0_d_1850_79767" x="0.875" y="0.65625" width="115.25" height="66.25" filterUnits="userSpaceOnUse" color-interpolation-filters="sRGB">
<feFlood flood-opacity="0" result="BackgroundImageFix"/>
<feColorMatrix in="SourceAlpha" type="matrix" values="0 0 0 0 0 0 0 0 0 0 0 0 0 0 0 0 0 0 127 0" result="hardAlpha"/>
<feOffset dy="0.78125"/>
<feGaussianBlur stdDeviation="1.5625"/>
<feComposite in2="hardAlpha" operator="out"/>
<feColorMatrix type="matrix" values="0 0 0 0 0 0 0 0 0 0 0 0 0 0 0 0 0 0 0.08 0"/>
<feBlend mode="normal" in2="BackgroundImageFix" result="effect1_dropShadow_1850_79767"/>
<feBlend mode="normal" in="SourceGraphic" in2="effect1_dropShadow_1850_79767" result="shape"/>
</filter>
</defs>
</svg>
