<svg width="117" height="67" viewBox="0 0 117 67" fill="none" xmlns="http://www.w3.org/2000/svg">
<g filter="url(#filter0_d_1850_101941)">
<rect width="109" height="60" transform="translate(4 3)" fill="white"/>
<path d="M39.8312 28.9609C39.5884 28.9609 39.3912 29.1828 39.3912 29.4565V35.1326C39.3912 35.6403 39.0235 36.0539 38.5723 36.0539H33.0276C32.5764 36.0539 32.2087 35.6403 32.2087 35.1326V29.4565C32.2087 29.1828 32.0115 28.9609 31.7686 28.9609C31.5258 28.9609 31.3286 29.1828 31.3286 29.4565V35.1326C31.3286 36.1877 32.0916 37.046 33.0284 37.046H38.5731C39.51 37.046 40.273 36.1877 40.273 35.1326V29.4565C40.273 29.1828 40.0758 28.9609 39.8329 28.9609H39.8312Z" fill="#231F20"/>
<path d="M23.2978 28.9609H15.8784V36.5512C15.8784 36.8249 16.0756 37.0468 16.3184 37.0468C16.5613 37.0468 16.7585 36.8249 16.7585 36.5512V32.9275H23.2969C24.2682 32.9275 25.0587 32.0382 25.0587 30.9442C25.0587 29.8503 24.2682 28.9609 23.2969 28.9609H23.2978ZM23.2978 31.9354H16.7593V29.9521H23.2978C23.7834 29.9521 24.1787 30.3968 24.1787 30.9433C24.1787 31.4899 23.7834 31.9345 23.2978 31.9345V31.9354Z" fill="#231F20"/>
<path d="M62.7135 29.9521H69.7548C69.9976 29.9521 70.1948 29.7302 70.1948 29.4565C70.1948 29.1828 69.9976 28.9609 69.7548 28.9609H62.7135C62.4706 28.9609 62.2734 29.1828 62.2734 29.4565C62.2734 29.7302 62.4706 29.9521 62.7135 29.9521Z" fill="#231F20"/>
<path d="M70.3893 36.048H66.6744V32.2222C66.6744 31.9485 66.4773 31.7266 66.2344 31.7266C65.9916 31.7266 65.7944 31.9485 65.7944 32.2222V36.048H62.0787C61.8359 36.048 61.6387 36.2699 61.6387 36.5436C61.6387 36.8173 61.8359 37.0392 62.0787 37.0392H70.3901C70.633 37.0392 70.8302 36.8173 70.8302 36.5436C70.8302 36.2699 70.633 36.048 70.3901 36.048H70.3893Z" fill="#231F20"/>
<path d="M85.8042 28.9609H77.4928C77.2499 28.9609 77.0527 29.1828 77.0527 29.4565C77.0527 29.7302 77.2499 29.9521 77.4928 29.9521H81.2085V36.5504C81.2085 36.8241 81.4057 37.046 81.6485 37.046C81.8913 37.046 82.0885 36.8241 82.0885 36.5504V29.9521H85.8033C86.0462 29.9521 86.2434 29.7302 86.2434 29.4565C86.2434 29.1828 86.0462 28.9609 85.8033 28.9609H85.8042Z" fill="#231F20"/>
<path d="M55.8892 30.9442C55.8892 29.8511 55.0987 28.9609 54.1273 28.9609H46.708V36.5512C46.708 36.8249 46.9052 37.0468 47.148 37.0468C47.3909 37.0468 47.5881 36.8249 47.5881 36.5512V32.9275H48.4345L54.8601 36.9838C54.9282 37.027 55.0022 37.0468 55.0754 37.0468C55.2296 37.0468 55.3794 36.9553 55.4603 36.7939C55.5792 36.5547 55.5034 36.2525 55.2916 36.1187L50.236 32.9275H54.1282C55.0995 32.9275 55.89 32.0382 55.89 30.9442H55.8892ZM47.5889 31.9354V29.9521H54.1273C54.613 29.9521 55.0083 30.3968 55.0083 30.9433C55.0083 31.4899 54.613 31.9345 54.1273 31.9345H47.5889V31.9354Z" fill="#231F20"/>
<path d="M101.05 29.1786C100.917 28.9489 100.644 28.8841 100.44 29.0335L96.877 31.6479L93.3128 29.0335C93.1087 28.8841 92.8366 28.9489 92.7032 29.1786C92.5706 29.4082 92.6282 29.7147 92.8315 29.865L96.4361 32.5096V36.5444C96.4361 36.8181 96.6333 37.04 96.8761 37.04C97.1189 37.04 97.3161 36.8181 97.3161 36.5444V32.5096L100.92 29.8658C101.124 29.7165 101.181 29.4091 101.048 29.1794L101.05 29.1786Z" fill="#231F20"/>
</g>
<defs>
<filter id="filter0_d_1850_101941" x="0.875" y="0.65625" width="115.25" height="66.25" filterUnits="userSpaceOnUse" color-interpolation-filters="sRGB">
<feFlood flood-opacity="0" result="BackgroundImageFix"/>
<feColorMatrix in="SourceAlpha" type="matrix" values="0 0 0 0 0 0 0 0 0 0 0 0 0 0 0 0 0 0 127 0" result="hardAlpha"/>
<feOffset dy="0.78125"/>
<feGaussianBlur stdDeviation="1.5625"/>
<feComposite in2="hardAlpha" operator="out"/>
<feColorMatrix type="matrix" values="0 0 0 0 0 0 0 0 0 0 0 0 0 0 0 0 0 0 0.08 0"/>
<feBlend mode="normal" in2="BackgroundImageFix" result="effect1_dropShadow_1850_101941"/>
<feBlend mode="normal" in="SourceGraphic" in2="effect1_dropShadow_1850_101941" result="shape"/>
</filter>
</defs>
</svg>
