<svg width="100" height="101" viewBox="0 0 100 101" fill="none" xmlns="http://www.w3.org/2000/svg">
<path d="M51.9814 67.627L53.2839 64.5813L56.1572 65.81L54.8547 68.8557L51.9814 67.627Z" fill="#6D6D6D"/>
<path d="M69.085 27.7188L70.3874 24.6731L73.2607 25.9018L71.9583 28.9475L69.085 27.7188Z" fill="#6D6D6D"/>
<path d="M71.9375 45.7619C71.375 44.3452 70.2917 43.241 68.8958 42.6577C67.5 42.0535 65.9583 42.0327 64.5417 42.616C63.125 43.1785 62.0208 44.2619 61.4375 45.6577L61 46.6577C60.7292 47.2827 60.2292 47.7619 59.6042 48.0119C58.9792 48.2619 58.2917 48.2619 57.6458 47.991C56.3542 47.4285 55.75 45.9285 56.3125 44.6369L56.75 43.6369C57.0208 43.0119 57.5208 42.5327 58.1458 42.2619C58.7708 42.0119 59.4792 42.0119 60.1042 42.2827L61.3333 39.4077C59.9375 38.8035 58.3958 38.8035 57 39.366C55.9167 39.8035 55.0208 40.5535 54.375 41.5119L52.6667 40.7827L51.4375 43.6577L53.1458 44.3869C52.8958 45.5119 52.9792 46.6785 53.3958 47.7619C53.9583 49.1785 55.0417 50.2827 56.4375 50.866C57.8333 51.4702 59.375 51.4702 60.7917 50.9077C62.2083 50.3452 63.3125 49.2619 63.8958 47.866L64.3333 46.866C64.6042 46.241 65.1042 45.7619 65.7292 45.5119C66.3542 45.2619 67.0417 45.2619 67.6875 45.5327C68.9792 46.0952 69.5833 47.5952 69.0208 48.8869L68.5833 49.8869C68.3125 50.5119 67.8125 50.991 67.1875 51.2619C66.5625 51.5119 65.8542 51.5119 65.2292 51.241L64 54.116C64.7083 54.4285 65.4792 54.5744 66.2292 54.5744C66.9375 54.5744 67.6667 54.4285 68.3333 54.1577C69.4167 53.7202 70.3125 52.9702 70.9583 52.0119L72.6667 52.741L73.8958 49.866L72.1875 49.1369C72.4375 48.0119 72.375 46.8452 71.9375 45.7619Z" fill="#6D6D6D"/>
<path d="M28.5586 25.8516L31.6711 25.5703L31.9692 28.8696L28.8567 29.1508L28.5586 25.8516Z" fill="#6D6D6D"/>
<path d="M2.60449 99.9079H97.3962C98.2503 99.9079 98.9587 99.1996 98.9587 98.3454V47.2204H98.9378C98.9378 46.7829 98.7712 46.3663 98.4378 46.0538L92.0211 40.2621L98.3962 25.3663C99.1045 23.6996 99.1253 21.8454 98.4586 20.1579C97.7711 18.4704 96.4795 17.1371 94.8128 16.4288L62.3962 2.53293C58.9378 1.05377 54.9378 2.65793 53.4587 6.11627L52.0003 9.5121C51.7295 9.17877 51.4378 8.86627 51.0837 8.59543C49.6878 7.42877 47.917 6.8871 46.1045 7.03293L11.0003 10.1996C9.18783 10.3663 7.54199 11.2204 6.37533 12.6163C5.20866 14.0329 4.64616 15.7829 4.81283 17.5954L6.93783 41.1579L1.54199 46.0538C1.22949 46.3454 1.06283 46.7829 1.06283 47.2204H1.04199V98.3454C1.04199 99.1996 1.75033 99.9079 2.60449 99.9079ZM30.2295 68.5121L4.16699 94.5746V50.2204L30.2295 68.5121ZM16.3128 27.4079C18.0003 26.9496 19.5212 25.9704 20.667 24.5954C21.8128 23.2204 22.5003 21.5538 22.6462 19.8246L36.3753 18.5954C36.8337 20.2829 37.8128 21.8038 39.1878 22.9496C40.5628 24.0954 42.2295 24.7829 43.9587 24.9288L44.2087 27.7413L37.8337 42.6579C37.167 42.4704 36.4378 42.3871 35.7295 42.4496C34.2295 42.5954 32.8545 43.3038 31.8753 44.4704C30.8962 45.6371 30.4378 47.1163 30.5837 48.6163L30.6878 49.6996C30.7503 50.3871 30.542 51.0329 30.1045 51.5538C29.667 52.0746 29.0628 52.4079 28.3753 52.4496C27.6878 52.5121 27.042 52.3038 26.5212 51.8663C26.0003 51.4288 25.667 50.8246 25.6253 50.1371L25.5212 49.0538C25.4587 48.3663 25.667 47.7204 26.1045 47.1996C26.542 46.6788 27.1462 46.3454 27.8337 46.3038L27.5628 43.1996C26.0628 43.3454 24.6878 44.0538 23.7087 45.2204C22.9587 46.1163 22.5212 47.1996 22.417 48.3454L20.5628 48.5121L20.8337 51.5954L22.6878 51.4288C23.0003 52.5329 23.6253 53.5121 24.5212 54.2621C25.542 55.1163 26.8128 55.5746 28.1462 55.5746C28.3128 55.5746 28.5003 55.5746 28.667 55.5538C30.167 55.4079 31.542 54.6996 32.5212 53.5329C33.5003 52.3663 33.9587 50.8871 33.8128 49.3871L33.7087 48.3038C33.6462 47.6163 33.8545 46.9704 34.292 46.4496C34.7295 45.9288 35.3337 45.5954 36.0212 45.5538C36.2087 45.5329 36.3962 45.5746 36.5837 45.5954L28.8337 63.7204L18.9587 56.7829L16.3128 27.4079ZM81.167 27.1163C81.8337 28.7829 82.9795 30.1579 84.4378 31.1371L70.2087 64.3871L54.1878 75.6371L44.5837 71.5329C45.3753 68.0121 43.917 64.3454 40.917 62.3663L58.9587 20.2204C62.4587 21.0121 66.1462 19.5538 68.1253 16.5538L80.792 21.9704C80.3753 23.6579 80.5003 25.4496 81.167 27.1163ZM95.8337 50.2204V94.5746L69.7712 68.5121L95.8337 50.2204ZM51.167 77.7621L50.0003 78.5746L45.167 75.1788L51.167 77.7621ZM49.1045 81.7621C49.3753 81.9496 49.6878 82.0538 50.0003 82.0538C50.3128 82.0538 50.6253 81.9704 50.8962 81.7621L67.1878 70.3246L93.6253 96.7829H6.37533L32.8128 70.3454L49.1045 81.7621ZM94.8962 47.0538L86.6462 52.8454L90.7295 43.2829L94.8962 47.0538ZM56.3337 7.34543C57.1253 5.47043 59.292 4.59543 61.167 5.40793L93.6045 19.2829C94.5003 19.6788 95.2087 20.3871 95.5837 21.3038C95.9587 22.2204 95.9378 23.2204 95.542 24.1371L81.792 56.2829L75.0837 60.9913L87.8962 31.0538C88.0628 30.6788 88.0628 30.2413 87.917 29.8663C87.7712 29.4913 87.4587 29.1788 87.0837 29.0121C84.2712 27.8038 82.9587 24.5329 84.1462 21.6996C84.4795 20.9079 84.1253 19.9913 83.3337 19.6579L68.042 13.1163C67.2503 12.7829 66.3337 13.1371 66.0003 13.9288C64.792 16.7413 61.5212 18.0538 58.6878 16.8663C57.8962 16.5329 56.9795 16.8871 56.6462 17.6788L37.5003 62.4496C37.3337 62.8246 37.3337 63.2621 37.4795 63.6371C37.6253 64.0121 37.9378 64.3246 38.3128 64.4913C39.6878 65.0746 40.7295 66.1579 41.292 67.5329C41.8545 68.9079 41.8337 70.4288 41.2503 71.7829C41.167 71.9496 41.1462 72.1371 41.1462 72.3246L31.4795 65.5329L56.3337 7.34543ZM8.77116 14.6371C9.39616 13.8871 10.292 13.4079 11.2712 13.3246L46.3962 10.1579C47.3753 10.0746 48.3337 10.3663 49.0837 10.9913C49.792 11.5954 50.2503 12.4079 50.3545 13.3246L46.5003 22.3246C46.4587 22.2621 46.417 22.1996 46.3545 22.1579C46.042 21.8871 45.6253 21.7621 45.2087 21.8038C43.7295 21.9496 42.292 21.4913 41.1462 20.5329C40.0003 19.5746 39.3128 18.2413 39.167 16.7621C39.1253 16.3454 38.9378 15.9704 38.6045 15.6996C38.3337 15.4496 37.917 15.3038 37.5003 15.3454L20.9378 16.8454C20.5212 16.8871 20.1462 17.0746 19.8753 17.4079C19.6253 17.7204 19.5003 18.1163 19.542 18.5329C19.8128 21.5954 17.5628 24.3038 14.5003 24.5746C13.6462 24.6579 13.0003 25.4079 13.0837 26.2621L15.6253 54.4288L11.0003 51.1788L7.93783 17.3246C7.83366 16.3454 8.14616 15.3871 8.77116 14.6371ZM7.29199 45.0746L7.62533 48.8454L5.08366 47.0746L7.29199 45.0746Z" fill="#6D6D6D"/>
</svg>
