<svg width="117" height="67" viewBox="0 0 117 67" fill="none" xmlns="http://www.w3.org/2000/svg">
<g filter="url(#filter0_d_1850_101350)">
<rect width="109" height="60" transform="translate(4 3)" fill="white"/>
<path d="M57.0413 26.6614C56.9031 26.5375 56.7675 26.4327 56.6522 26.3088C56.1934 25.8117 56.1719 25.4769 56.5381 24.9058C56.6864 24.6745 56.822 24.4343 56.964 24.1953C57.7941 24.9735 57.8347 26.011 57.04 26.6614H57.0413Z" fill="#AD4485"/>
<path d="M57.9092 27.322C58.0068 27.1239 58.0815 26.9259 58.1931 26.7521C58.5023 26.2678 58.8128 26.1502 59.359 26.2882C59.6429 26.3598 59.9256 26.4377 60.2158 26.5131C59.4034 27.6772 58.7038 27.9315 57.9104 27.322H57.9092Z" fill="#AD4485"/>
<path d="M53.7271 26.4946C54.1922 26.4115 54.5965 26.3055 55.0058 26.2748C55.3772 26.2454 55.9297 26.6901 56.0413 27.0619C56.0628 27.1335 56.0121 27.2779 55.95 27.3175C55.4038 27.6599 54.7688 27.8963 54.2707 27.1322C54.1326 26.9201 53.9412 26.7438 53.7271 26.4946Z" fill="#AD4485"/>
<path d="M58.9944 30.2955C58.4811 30.0169 57.9247 29.9492 57.618 29.4368C57.4368 29.134 57.4368 28.8171 57.4824 28.4925C57.4913 28.4286 57.6269 28.3264 57.6865 28.3366C57.9463 28.3839 58.2137 28.435 58.4507 28.5449C58.7219 28.6714 58.9336 28.8848 58.9475 29.2247C58.9614 29.5582 58.9766 29.893 58.9957 30.2942L58.9944 30.2955Z" fill="#AD4485"/>
<path d="M54.916 30.2467C55.0478 29.6755 54.9173 29.0609 55.442 28.6853C55.6764 28.5179 55.9629 28.4182 56.2366 28.316C56.2936 28.2943 56.4457 28.3786 56.4698 28.4463C56.7321 29.1619 56.4356 29.7548 55.7132 29.9873C55.4635 30.0678 55.2138 30.1496 54.916 30.2467Z" fill="#AD4485"/>
<path d="M56.997 29.2031C57.4127 29.9557 57.4077 30.4694 56.9882 31.0623C56.6092 30.5077 56.608 29.7756 56.997 29.2031Z" fill="#8F1D60"/>
<path d="M56.0906 26.3028C55.3556 25.9296 54.9855 25.3585 55.0552 24.6953C55.6838 25.0441 56.0589 25.5399 56.0906 26.3028Z" fill="#8F1D60"/>
<path d="M57.9738 26.266C57.9434 25.6105 58.3388 25.0048 58.9877 24.7109C59.0371 25.3907 58.6037 26.0334 57.9738 26.266Z" fill="#8F1D60"/>
<path d="M60.3732 28.6381C59.6242 28.8157 59.0475 28.6164 58.6318 28.035C59.2921 27.8433 59.96 28.0746 60.3732 28.6381Z" fill="#8F1D60"/>
<path d="M55.4583 28.0124C54.9628 28.5848 54.5965 28.8021 53.6992 28.6551C53.9692 28.1989 54.6548 27.8194 55.4583 28.0124Z" fill="#8F1D60"/>
<path d="M57.7003 27.9945L57.1718 27.9715L56.8537 28.3983L56.713 27.8846L56.2124 27.7108L56.6534 27.4156L56.6623 26.8828L57.0767 27.215L57.5824 27.0591L57.3974 27.5588L57.7003 27.9945Z" fill="#8F1D60"/>
<path d="M36.7483 34.67H36.96C36.9613 34.9089 36.9689 35.0495 36.9828 35.0904C36.9967 35.1312 37.0424 35.1862 37.121 35.2526C37.1995 35.3191 37.3022 35.374 37.4264 35.4162C37.5519 35.4584 37.6799 35.4788 37.8117 35.4788C38.0385 35.4788 38.2198 35.4187 38.3554 35.2974C38.491 35.176 38.5594 35.0252 38.5594 34.8437C38.5594 34.6776 38.5138 34.5499 38.4251 34.4604C38.3338 34.371 38.1602 34.3084 37.9042 34.2713C37.5252 34.2164 37.2692 34.1563 37.1374 34.0911C37.0044 34.026 36.9004 33.9289 36.8244 33.7998C36.7483 33.6707 36.7103 33.5149 36.7103 33.3334C36.7103 33.0293 36.8168 32.7712 37.0297 32.5591C37.2426 32.3482 37.5823 32.2422 38.0487 32.2422C38.2312 32.2422 38.3946 32.2562 38.5366 32.2831C38.6785 32.3112 38.8205 32.3559 38.9637 32.4198L38.9878 32.4786C38.9624 32.5808 38.9447 32.6728 38.9333 32.7559C38.9231 32.8389 38.913 32.9807 38.9054 33.1839H38.6988C38.6912 32.9347 38.6785 32.7955 38.6621 32.7648C38.6316 32.7111 38.5543 32.6549 38.4301 32.5961C38.3059 32.5374 38.1627 32.508 38.0018 32.508C37.7812 32.508 37.6114 32.5616 37.4898 32.669C37.3681 32.7763 37.3073 32.9156 37.3073 33.0855C37.3073 33.189 37.3326 33.2797 37.382 33.3564C37.4315 33.4331 37.5012 33.4893 37.5899 33.5264C37.6786 33.5634 37.87 33.6043 38.164 33.6516C38.4301 33.6925 38.6114 33.7321 38.7064 33.7704C38.8623 33.833 38.9802 33.9301 39.06 34.0592C39.1399 34.1882 39.1804 34.3518 39.1804 34.5499C39.1804 34.8936 39.0499 35.1785 38.7901 35.406C38.5303 35.6334 38.1741 35.7471 37.7229 35.7471C37.5227 35.7471 37.3402 35.728 37.1754 35.6884C37.0107 35.6487 36.8421 35.5861 36.6672 35.4967C36.6964 35.383 36.7154 35.2807 36.7255 35.1887C36.7382 35.061 36.7458 34.8885 36.7471 34.6712L36.7483 34.67Z" fill="#8F1D60"/>
<path d="M41.4452 35.7433C40.8521 35.7433 40.3984 35.59 40.0841 35.2833C39.7697 34.9766 39.6113 34.5537 39.6113 34.017C39.6113 33.6414 39.6874 33.3219 39.8407 33.0587C39.9928 32.7955 40.2045 32.5936 40.4757 32.453C40.7469 32.3125 41.0941 32.2422 41.52 32.2422C41.9458 32.2422 42.2639 32.3099 42.525 32.4454C42.7848 32.5808 42.985 32.7686 43.1257 33.0089C43.2664 33.2491 43.3361 33.5442 43.3361 33.8944C43.3361 34.2739 43.2588 34.601 43.1042 34.877C42.9496 35.153 42.7328 35.3664 42.4528 35.5184C42.1727 35.6705 41.8368 35.7459 41.4439 35.7459L41.4452 35.7433ZM41.5364 35.4801C41.8596 35.4801 42.1169 35.36 42.3083 35.1185C42.4996 34.877 42.596 34.5115 42.596 34.0209C42.596 33.5059 42.4857 33.1098 42.2664 32.8351C42.0878 32.6127 41.814 32.5016 41.4427 32.5016C41.0954 32.5016 40.8267 32.6179 40.6366 32.8491C40.4465 33.0804 40.3515 33.4369 40.3515 33.9186C40.3515 34.2649 40.4034 34.5588 40.5086 34.8003C40.6125 35.0405 40.7456 35.2143 40.9078 35.3204C41.0688 35.4264 41.2792 35.4801 41.5377 35.4801H41.5364Z" fill="#8F1D60"/>
<path d="M43.6658 32.4961V32.2916C43.9928 32.3031 44.2805 32.3082 44.5289 32.3082C44.686 32.3082 44.9091 32.3031 45.1968 32.2916V32.4961C45.0485 32.4961 44.9446 32.5088 44.8838 32.5344C44.8622 32.5421 44.8457 32.5561 44.8331 32.5753C44.8153 32.5983 44.8039 32.6366 44.7963 32.689C44.7862 32.7797 44.7786 33.0404 44.7722 33.471C44.7672 33.77 44.7646 34.0754 44.7646 34.3846C44.7646 34.6389 44.7938 34.8255 44.8508 34.9443C44.9078 35.0631 44.9927 35.1513 45.1043 35.2101C45.2652 35.2931 45.4401 35.334 45.629 35.334C45.8875 35.334 46.0852 35.2918 46.2221 35.205C46.359 35.1181 46.4502 35.0005 46.4971 34.8497C46.544 34.699 46.5668 34.3693 46.5668 33.8607L46.5643 32.9625C46.563 32.7606 46.5529 32.6379 46.5351 32.5983C46.525 32.5753 46.5085 32.5587 46.4844 32.5472C46.4464 32.5242 46.3285 32.5063 46.1321 32.4935V32.2891C46.3387 32.3006 46.5301 32.3057 46.7049 32.3057C46.8558 32.3057 47.0408 32.3006 47.2613 32.2891V32.4935C47.1029 32.4935 47.0028 32.5114 46.9635 32.5472C46.9242 32.5829 46.9001 32.675 46.8925 32.8245C46.8748 33.1873 46.8646 33.5975 46.8634 34.0562C46.8634 34.3488 46.8596 34.5418 46.852 34.6312C46.8342 34.8548 46.781 35.0452 46.691 35.2037C46.601 35.3621 46.4515 35.4912 46.2424 35.5934C46.0332 35.6956 45.7747 35.7467 45.4642 35.7467C45.1537 35.7467 44.8736 35.6982 44.6594 35.6011C44.4452 35.504 44.2944 35.3813 44.2044 35.2331C44.1145 35.0848 44.0701 34.8676 44.0701 34.5814L44.0815 33.4889C44.0815 33.402 44.0777 33.1784 44.0701 32.8206C44.0663 32.7095 44.0549 32.6328 44.0334 32.5919C44.0207 32.5689 44.0004 32.551 43.9738 32.5382C43.9472 32.5255 43.8445 32.5114 43.6646 32.4948L43.6658 32.4961Z" fill="#8F1D60"/>
<path d="M48.1925 35.6956V35.4912C48.2837 35.4912 48.38 35.4835 48.4789 35.4669C48.5258 35.4592 48.5587 35.4452 48.5778 35.4273C48.5968 35.4081 48.612 35.3736 48.6208 35.3238C48.6322 35.2548 48.6424 34.9992 48.65 34.5571C48.6551 34.2428 48.6576 33.9233 48.6576 33.5962C48.6576 32.9535 48.6551 32.6264 48.6513 32.6149C48.6475 32.6021 48.5904 32.597 48.4814 32.597C48.2571 32.597 48.0657 32.6034 47.9048 32.6162C47.811 32.6238 47.759 32.6328 47.7464 32.6405C47.735 32.6481 47.7248 32.6622 47.7185 32.6826C47.7121 32.7031 47.6982 32.8449 47.6779 33.1094H47.4713C47.4751 32.7989 47.4663 32.5318 47.4473 32.3082L47.4739 32.2891C47.9796 32.3133 48.4726 32.3261 48.9504 32.3261C49.4282 32.3261 49.9617 32.3146 50.5523 32.2891L50.5789 32.3287C50.5485 32.551 50.527 32.8117 50.5143 33.1107H50.314C50.3001 32.8372 50.2849 32.6903 50.2709 32.6673C50.2595 32.6494 50.2342 32.6366 50.1936 32.6302C50.0656 32.6085 49.8096 32.5983 49.4282 32.5983C49.3965 32.5983 49.3762 32.6034 49.3699 32.6123C49.3635 32.6238 49.3597 32.666 49.3597 32.7414L49.3458 34.3757C49.3458 34.8485 49.3496 35.1398 49.3584 35.2471C49.3673 35.3545 49.3863 35.4196 49.4167 35.4426C49.4383 35.4567 49.565 35.4746 49.797 35.4937V35.6982C49.56 35.6867 49.309 35.6816 49.0441 35.6816C48.6956 35.6816 48.4117 35.6867 48.195 35.6982L48.1925 35.6956Z" fill="#8F1D60"/>
<path d="M50.8235 35.6982V35.4937C51.0352 35.4835 51.1556 35.4695 51.1835 35.4516C51.2113 35.4324 51.2304 35.3941 51.2405 35.3366C51.257 35.2471 51.2646 35.0235 51.2646 34.6632L51.262 33.3343C51.2608 32.8858 51.2519 32.6417 51.238 32.6008C51.2304 32.5766 51.2164 32.5574 51.1974 32.5446C51.1657 32.5242 51.0403 32.5063 50.8248 32.4935V32.2891C51.1467 32.3006 51.4014 32.3057 51.5903 32.3057C51.8881 32.3057 52.1593 32.3006 52.4052 32.2891V32.4935C52.2075 32.5063 52.0909 32.5203 52.0554 32.537C52.0339 32.5472 52.0187 32.5612 52.0098 32.5804C51.9933 32.6111 51.9819 32.7056 51.9756 32.8628C51.968 33.0953 51.9642 33.3317 51.9642 33.572V33.7738C52.1314 33.7815 52.3951 33.7853 52.7575 33.7853C53.0794 33.7853 53.3177 33.7815 53.4698 33.7738C53.4711 33.2474 53.466 32.8973 53.4533 32.7248C53.447 32.6328 53.4305 32.5753 53.4026 32.5548C53.3659 32.5242 53.2417 32.5037 53.0287 32.4948V32.2903C53.428 32.3018 53.6979 32.307 53.8399 32.307C54.0819 32.307 54.3379 32.3018 54.6079 32.2903V32.4948C54.4026 32.5076 54.2822 32.5229 54.2492 32.5408C54.2302 32.551 54.215 32.5651 54.2061 32.5842C54.1922 32.6187 54.1808 32.7503 54.1744 32.9803C54.163 33.333 54.158 33.6192 54.158 33.8377L54.1719 34.9405C54.1757 35.1896 54.182 35.3327 54.1934 35.3698C54.2049 35.4068 54.2226 35.4337 54.2492 35.449C54.2746 35.4643 54.395 35.4797 54.6079 35.4937V35.6982L54.3405 35.6905C54.1402 35.6841 53.9831 35.6803 53.869 35.6803C53.632 35.6803 53.3519 35.6854 53.03 35.6969V35.4925C53.2429 35.4822 53.3646 35.4656 53.3937 35.4401C53.4229 35.4145 53.4406 35.3481 53.447 35.2407C53.4584 35.0567 53.466 34.6632 53.4711 34.0613H52.8716C52.5269 34.0613 52.224 34.0652 51.9642 34.0716V34.2313C51.9642 34.6555 51.9692 34.9737 51.9806 35.1858C51.9882 35.3289 52.0072 35.412 52.0377 35.435C52.0681 35.458 52.1897 35.4771 52.4039 35.4925V35.6969L52.1188 35.6892C51.9388 35.6828 51.7779 35.679 51.6359 35.679L50.8223 35.6956L50.8235 35.6982Z" fill="#8F1D60"/>
<path d="M55.1009 35.6969V35.5653C55.1858 35.527 55.2644 35.481 55.3341 35.4298C55.3658 35.1768 55.3823 34.6466 55.3823 33.8365C55.3823 33.2845 55.3772 32.9177 55.3658 32.7388C55.3607 32.643 55.3443 32.583 55.3164 32.5574C55.2885 32.5318 55.1694 32.5114 54.959 32.4935V32.2891C55.3379 32.3031 55.637 32.3108 55.8563 32.3108L57.1832 32.2891C57.3226 32.2891 57.4481 32.2942 57.5609 32.3057L57.5774 32.3325C57.5419 32.5114 57.5165 32.7478 57.5 33.0442H57.3099C57.3023 32.8078 57.2922 32.6813 57.2821 32.6647C57.2719 32.6481 57.2352 32.6328 57.1718 32.6187C57.0387 32.5893 56.8347 32.5753 56.5597 32.5753C56.4253 32.5753 56.2669 32.5804 56.0869 32.5919C56.0654 33.0928 56.054 33.4902 56.0502 33.7866C56.2225 33.7981 56.3835 33.8032 56.5343 33.8032C56.7574 33.8032 56.8917 33.7956 56.9361 33.7815C56.9627 33.7713 56.983 33.7483 56.9944 33.7112C57.0045 33.6818 57.0146 33.5796 57.0286 33.4046H57.2352C57.2276 33.6793 57.2238 33.8569 57.2238 33.94L57.2352 34.4881H57.0286C57.0172 34.2747 57.0032 34.1521 56.9855 34.1188C56.9754 34.0997 56.9538 34.0856 56.9209 34.078C56.841 34.0601 56.6598 34.0511 56.3784 34.0511C56.2897 34.0511 56.1871 34.0562 56.0679 34.0677C56.0641 34.1533 56.0629 34.2402 56.0629 34.3284C56.0629 34.7897 56.0705 35.1449 56.0869 35.3928L56.5647 35.4005C56.8372 35.4005 57.0856 35.3864 57.3112 35.357C57.3518 35.2075 57.3898 35.0376 57.4265 34.8472H57.6268C57.59 35.136 57.5685 35.412 57.5621 35.6777C57.4164 35.6892 57.2757 35.6943 57.1401 35.6943C57.0514 35.6943 56.8778 35.6918 56.6167 35.6854C56.3746 35.6803 56.1516 35.6765 55.9475 35.6765C55.6788 35.6765 55.3962 35.6816 55.0997 35.6931L55.1009 35.6969Z" fill="#8F1D60"/>
<path d="M57.9551 35.6982V35.4937C58.1414 35.4771 58.2478 35.4618 58.2757 35.4477C58.2935 35.4375 58.3061 35.4222 58.3137 35.4017C58.3302 35.3634 58.3416 35.2318 58.348 35.0082C58.3556 34.6619 58.3594 34.3885 58.3594 34.1891C58.3594 33.9208 58.3556 33.5783 58.3492 33.1643C58.3429 32.8551 58.3277 32.666 58.3036 32.5957C58.2973 32.5753 58.2846 32.5587 58.2656 32.5472C58.2402 32.5306 58.1363 32.5127 57.9551 32.4935V32.2891C58.2871 32.3006 58.5026 32.3057 58.5989 32.3057L59.8054 32.2891C60.0678 32.2891 60.2579 32.3146 60.377 32.3657C60.4961 32.4168 60.5912 32.4986 60.6609 32.6111C60.7306 32.7235 60.7661 32.8551 60.7661 33.0072C60.7661 33.2014 60.7103 33.3713 60.5988 33.5183C60.4873 33.6652 60.2934 33.7943 60.0171 33.908L60.5304 34.6875L60.9308 35.2855C61.0069 35.3826 61.0626 35.4413 61.0994 35.4618C61.1362 35.4822 61.197 35.4925 61.2806 35.495V35.6816L61.1387 35.6841C60.7306 35.688 60.4683 35.6918 60.3504 35.6982C60.211 35.4733 60.0019 35.1462 59.7243 34.7194L59.2275 33.9591C59.2414 33.9323 59.2541 33.9029 59.2643 33.8722C59.3289 33.8799 59.3758 33.885 59.4062 33.885C59.5558 33.885 59.7028 33.8237 59.8472 33.7023C59.9917 33.5809 60.064 33.4071 60.064 33.181C60.064 32.9842 60.0069 32.8321 59.8929 32.7235C59.7788 32.6149 59.6077 32.56 59.3783 32.56C59.3061 32.56 59.2072 32.5651 59.083 32.5766L59.0678 33.2934L59.0475 34.2032C59.0475 34.4089 59.0551 34.6721 59.0716 34.9928C59.0843 35.2343 59.097 35.3698 59.1096 35.3992C59.1198 35.4209 59.1363 35.4375 59.1629 35.4503C59.1958 35.4695 59.3048 35.4848 59.4886 35.4937V35.6982C59.1996 35.6867 58.9436 35.6816 58.7218 35.6816C58.4848 35.6816 58.2288 35.6867 57.9563 35.6982H57.9551Z" fill="#8F1D60"/>
<path d="M61.5112 35.6982V35.4937C61.7077 35.4861 61.8217 35.4733 61.856 35.4554C61.8788 35.4426 61.8952 35.4209 61.9066 35.3915C61.9244 35.3532 61.9358 35.2152 61.9396 34.9813C61.9485 34.5929 61.9523 34.299 61.9523 34.1022L61.9472 33.0749C61.9472 32.8027 61.9383 32.6456 61.9206 32.6034C61.9104 32.5791 61.8952 32.5612 61.875 32.5497C61.8433 32.5306 61.7216 32.5114 61.5112 32.4935V32.2891C61.7622 32.2967 61.9485 32.3018 62.0689 32.3018C62.2019 32.3018 62.354 32.298 62.5239 32.2891C62.8952 32.7657 63.3147 33.2845 63.7823 33.8428C64.0941 34.216 64.3628 34.5239 64.5884 34.768V33.8032C64.5884 33.4378 64.5846 33.1235 64.577 32.859C64.5706 32.7018 64.558 32.6047 64.539 32.5689C64.5288 32.5497 64.5123 32.5357 64.4857 32.528C64.4591 32.5203 64.3476 32.5088 64.1486 32.4935V32.2891C64.3235 32.2967 64.4971 32.3018 64.6708 32.3018C64.9078 32.3018 65.1232 32.298 65.3146 32.2891V32.4935C65.1359 32.505 65.0282 32.5178 64.9914 32.5318C64.9711 32.5395 64.9534 32.551 64.9407 32.5663C64.928 32.5804 64.9179 32.5996 64.9116 32.6226C64.9002 32.6609 64.8938 32.7861 64.8913 32.997L64.8824 33.9681L64.8773 34.9468C64.8773 35.2088 64.8824 35.472 64.8938 35.734L64.8621 35.7685C64.667 35.7327 64.5288 35.7097 64.4477 35.6982C64.0345 35.2369 63.5365 34.6581 62.951 33.9604C62.6557 33.6077 62.4174 33.3113 62.2349 33.0698V34.0141C62.2349 34.2709 62.2387 34.5814 62.2463 34.9443C62.2514 35.2113 62.2628 35.3647 62.2805 35.4056C62.2869 35.4235 62.2995 35.4375 62.3173 35.4465C62.3477 35.4643 62.463 35.481 62.6645 35.495V35.6995C62.406 35.688 62.2197 35.6828 62.1082 35.6828C62.0156 35.6828 61.8167 35.688 61.5112 35.6995V35.6982Z" fill="#8F1D60"/>
<path d="M67.0342 34.67H67.2459C67.2472 34.9089 67.2548 35.0495 67.2687 35.0904C67.2826 35.1312 67.3283 35.1862 67.4068 35.2526C67.4854 35.3191 67.5881 35.374 67.7123 35.4162C67.8377 35.4584 67.9657 35.4788 68.0976 35.4788C68.3244 35.4788 68.5056 35.4187 68.6412 35.2974C68.7769 35.176 68.8453 35.0252 68.8453 34.8437C68.8453 34.6776 68.7997 34.5499 68.711 34.4604C68.6197 34.371 68.4461 34.3084 68.1901 34.2713C67.8111 34.2164 67.5551 34.1563 67.4233 34.0911C67.2902 34.026 67.1863 33.9289 67.1103 33.7998C67.0342 33.6707 66.9962 33.5149 66.9962 33.3334C66.9962 33.0293 67.1027 32.7712 67.3156 32.5591C67.5285 32.3482 67.8682 32.2422 68.3345 32.2422C68.517 32.2422 68.6805 32.2562 68.8225 32.2831C68.9644 32.3112 69.1064 32.3559 69.2496 32.4198L69.2737 32.4786C69.2483 32.5808 69.2306 32.6728 69.2192 32.7559C69.209 32.8389 69.1989 32.9807 69.1913 33.1839H68.9847C68.9771 32.9347 68.9644 32.7955 68.948 32.7648C68.9175 32.7111 68.8402 32.6549 68.716 32.5961C68.5918 32.5374 68.4486 32.508 68.2877 32.508C68.0671 32.508 67.8973 32.5616 67.7756 32.669C67.654 32.7763 67.5931 32.9156 67.5931 33.0855C67.5931 33.189 67.6185 33.2797 67.6679 33.3564C67.7173 33.4331 67.787 33.4893 67.8758 33.5264C67.9645 33.5634 68.1559 33.6043 68.4499 33.6516C68.716 33.6925 68.8973 33.7321 68.9923 33.7704C69.1482 33.833 69.2661 33.9301 69.3459 34.0592C69.4257 34.1882 69.4663 34.3518 69.4663 34.5499C69.4663 34.8936 69.3358 35.1785 69.076 35.406C68.8161 35.6334 68.46 35.7471 68.0088 35.7471C67.8086 35.7471 67.6261 35.728 67.4613 35.6884C67.2966 35.6487 67.128 35.5861 66.9531 35.4967C66.9823 35.383 67.0013 35.2807 67.0114 35.1887C67.0241 35.061 67.0317 34.8885 67.033 34.6712L67.0342 34.67Z" fill="#8F1D60"/>
<path d="M70.5299 35.6956V35.4912C70.6211 35.4912 70.7174 35.4835 70.8163 35.4669C70.8632 35.4592 70.8961 35.4452 70.9152 35.4273C70.9342 35.4081 70.9494 35.3736 70.9582 35.3238C70.9696 35.2548 70.9798 34.9992 70.9874 34.5571C70.9925 34.2428 70.995 33.9233 70.995 33.5962C70.995 32.9535 70.9925 32.6264 70.9887 32.6149C70.9849 32.6021 70.9278 32.597 70.8188 32.597C70.5945 32.597 70.4031 32.6034 70.2422 32.6162C70.1484 32.6238 70.0964 32.6328 70.0838 32.6405C70.0724 32.6481 70.0622 32.6622 70.0559 32.6826C70.0495 32.7031 70.0356 32.8449 70.0153 33.1094H69.8087C69.8126 32.7989 69.8037 32.5318 69.7847 32.3082L69.8113 32.2891C70.317 32.3133 70.81 32.3261 71.2878 32.3261C71.7656 32.3261 72.2991 32.3146 72.8897 32.2891L72.9163 32.3287C72.8859 32.551 72.8644 32.8117 72.8517 33.1107H72.6514C72.6375 32.8372 72.6223 32.6903 72.6083 32.6673C72.5969 32.6494 72.5716 32.6366 72.531 32.6302C72.403 32.6085 72.147 32.5983 71.7656 32.5983C71.7339 32.5983 71.7136 32.6034 71.7073 32.6123C71.7009 32.6238 71.6971 32.666 71.6971 32.7414L71.6832 34.3757C71.6832 34.8485 71.687 35.1398 71.6958 35.2471C71.7047 35.3545 71.7237 35.4196 71.7541 35.4426C71.7757 35.4567 71.9024 35.4746 72.1344 35.4937V35.6982C71.8974 35.6867 71.6464 35.6816 71.3815 35.6816C71.033 35.6816 70.7491 35.6867 70.5324 35.6982L70.5299 35.6956Z" fill="#8F1D60"/>
<path d="M73.1458 35.4792C73.2966 35.4716 73.3904 35.4562 73.4259 35.4332C73.45 35.4166 73.488 35.3553 73.5387 35.248C73.6363 35.0371 73.7617 34.7458 73.9151 34.3714L74.768 32.2656H75.1216L76.2103 34.8748C76.3522 35.2045 76.4384 35.3847 76.4714 35.4153C76.5043 35.4473 76.6057 35.4677 76.7768 35.4792V35.7003C76.5144 35.6888 76.2673 35.6837 76.0354 35.6837C75.7578 35.6837 75.493 35.6888 75.2433 35.7003V35.4792C75.4347 35.4716 75.5449 35.4601 75.5741 35.4473C75.6032 35.4345 75.6184 35.4102 75.6184 35.3745C75.6184 35.3438 75.5842 35.2416 75.517 35.0665L75.3586 34.6615C75.1596 34.6563 74.9366 34.6538 74.6907 34.6538C74.4765 34.6538 74.2826 34.6563 74.1065 34.6615L74 34.9336C73.9709 35.0077 73.9354 35.1189 73.8935 35.2658C73.8834 35.2991 73.8796 35.3297 73.8796 35.3566C73.8796 35.3936 73.8948 35.4192 73.9265 35.4332C73.9582 35.4473 74.071 35.4639 74.2649 35.4792V35.7003C74.1077 35.6888 73.9113 35.6837 73.6768 35.6837C73.4424 35.6837 73.2763 35.6888 73.1445 35.7003V35.4792H73.1458ZM74.7275 33.1217L74.2193 34.3714C74.3675 34.3791 74.5298 34.3829 74.7085 34.3829C74.8872 34.3829 75.0735 34.3791 75.2433 34.3714L74.7275 33.1217Z" fill="#8F1D60"/>
<path d="M77.0059 35.6982V35.4937C77.1922 35.4771 77.2986 35.4618 77.3265 35.4477C77.3442 35.4375 77.3569 35.4222 77.3645 35.4017C77.381 35.3634 77.3924 35.2318 77.3987 35.0082C77.4063 34.6619 77.4101 34.3885 77.4101 34.1891C77.4101 33.9208 77.4063 33.5783 77.4 33.1643C77.3937 32.8551 77.3785 32.666 77.3544 32.5957C77.348 32.5753 77.3354 32.5587 77.3164 32.5472C77.291 32.5306 77.1871 32.5127 77.0059 32.4935V32.2891C77.3379 32.3006 77.5534 32.3057 77.6497 32.3057L78.8562 32.2891C79.1186 32.2891 79.3087 32.3146 79.4278 32.3657C79.5469 32.4168 79.642 32.4986 79.7117 32.6111C79.7814 32.7235 79.8169 32.8551 79.8169 33.0072C79.8169 33.2014 79.7611 33.3713 79.6496 33.5183C79.538 33.6652 79.3441 33.7943 79.0679 33.908L79.5811 34.6875L79.9816 35.2855C80.0577 35.3826 80.1134 35.4413 80.1502 35.4618C80.1869 35.4822 80.2478 35.4925 80.3314 35.495V35.6816L80.1895 35.6841C79.7814 35.688 79.519 35.6918 79.4012 35.6982C79.2618 35.4733 79.0527 35.1462 78.7751 34.7194L78.2783 33.9591C78.2922 33.9323 78.3049 33.9029 78.315 33.8722C78.3797 33.8799 78.4266 33.885 78.457 33.885C78.6065 33.885 78.7536 33.8237 78.898 33.7023C79.0425 33.5809 79.1147 33.4071 79.1147 33.181C79.1147 32.9842 79.0577 32.8321 78.9437 32.7235C78.8296 32.6149 78.6585 32.56 78.4291 32.56C78.3569 32.56 78.258 32.5651 78.1338 32.5766L78.1186 33.2934L78.0983 34.2032C78.0983 34.4089 78.1059 34.6721 78.1224 34.9928C78.1351 35.2343 78.1478 35.3698 78.1604 35.3992C78.1706 35.4209 78.187 35.4375 78.2137 35.4503C78.2466 35.4695 78.3556 35.4848 78.5394 35.4937V35.6982C78.2504 35.6867 77.9944 35.6816 77.7726 35.6816C77.5356 35.6816 77.2809 35.6867 77.0071 35.6982H77.0059Z" fill="#8F1D60"/>
<path d="M84.4366 37.6094H32.5635V37.7372H84.4366V37.6094Z" fill="#7E8327"/>
<path d="M50.1948 39.7656H50.7423C51.12 39.7656 51.3329 39.9598 51.3329 40.278C51.3329 40.4786 51.2341 40.6332 51.0782 40.7188C51.2683 40.7878 51.4014 40.9565 51.4014 41.1993C51.4014 41.5596 51.1428 41.7679 50.8032 41.7679H50.1961V39.7656H50.1948ZM50.7677 40.632C50.9666 40.632 51.0972 40.4978 51.0972 40.2946C51.0972 40.0915 50.9806 39.9713 50.7677 39.9713H50.4242V40.632H50.7677ZM50.7626 41.5647C50.9983 41.5647 51.1631 41.4497 51.1631 41.1929C51.1631 40.9361 50.9895 40.8262 50.7601 40.8262H50.4255V41.5647H50.7626Z" fill="#7E8327"/>
<path d="M51.9515 39.7656H52.8931V39.9777H52.1809V40.6447H52.8019V40.853H52.1809V41.5596H52.9235V41.7679H51.9502V39.7656H51.9515Z" fill="#7E8327"/>
<path d="M53.5054 39.7656H53.7348L54.8298 41.359V39.7656H55.0566V41.7679H54.8298L53.7348 40.1809V41.7679H53.5054V39.7656Z" fill="#7E8327"/>
<path d="M57.3413 40.0179L57.1943 40.1725C57.103 40.0843 56.9281 39.9438 56.6151 39.9438C56.1588 39.9438 55.8458 40.299 55.8458 40.768C55.8458 41.2369 56.169 41.5883 56.6113 41.5883C56.9433 41.5883 57.1309 41.4426 57.193 41.38V40.9596H56.7507V40.7565H57.4148V41.4797C57.1993 41.6995 56.9408 41.803 56.6037 41.803C56.0397 41.803 55.605 41.3775 55.605 40.768C55.605 40.1585 56.027 39.7266 56.6087 39.7266C57.0029 39.7266 57.2386 39.9131 57.3413 40.0179Z" fill="#7E8327"/>
<path d="M58.2996 41.1188L58.0613 41.7679H57.8281L58.5721 39.7656H58.804L59.5479 41.7679H59.3147L59.0765 41.1188H58.2996ZM58.6887 40.0199L58.3706 40.9182H59.0093L58.6887 40.0199Z" fill="#7E8327"/>
<path d="M60.022 39.7656H60.2514V41.5596H60.9953V41.7679H60.022V39.7656Z" fill="#7E8327"/>
<path d="M61.4399 41.0511V39.7669H61.6693V41.0485C61.6693 41.3807 61.8455 41.5916 62.1801 41.5916C62.5147 41.5916 62.6934 41.3795 62.6934 41.0447V39.7656H62.9202V41.0472C62.9202 41.4996 62.6503 41.805 62.1801 41.805C61.7099 41.805 61.4399 41.5047 61.4399 41.0498V41.0511Z" fill="#7E8327"/>
<path d="M63.5703 39.7656H64.0747C64.4803 39.7656 64.6932 39.9713 64.6932 40.3202C64.6932 40.5578 64.5766 40.7751 64.3472 40.8492L64.8415 41.7679H64.5867L64.1381 40.899H63.801V41.7679H63.5716V39.7656H63.5703ZM64.0747 40.6958C64.3079 40.6958 64.4524 40.5872 64.4524 40.324C64.4524 40.1119 64.3421 39.9726 64.0608 39.9726H63.7997V40.6958H64.0747Z" fill="#7E8327"/>
<path d="M65.3232 41.0511V39.7669H65.5526V41.0485C65.5526 41.3807 65.7288 41.5916 66.0634 41.5916C66.398 41.5916 66.5767 41.3795 66.5767 41.0447V39.7656H66.8035V41.0472C66.8035 41.4996 66.5336 41.805 66.0634 41.805C65.5932 41.805 65.3232 41.5047 65.3232 41.0498V41.0511Z" fill="#7E8327"/>
</g>
<defs>
<filter id="filter0_d_1850_101350" x="0.875" y="0.65625" width="115.25" height="66.25" filterUnits="userSpaceOnUse" color-interpolation-filters="sRGB">
<feFlood flood-opacity="0" result="BackgroundImageFix"/>
<feColorMatrix in="SourceAlpha" type="matrix" values="0 0 0 0 0 0 0 0 0 0 0 0 0 0 0 0 0 0 127 0" result="hardAlpha"/>
<feOffset dy="0.78125"/>
<feGaussianBlur stdDeviation="1.5625"/>
<feComposite in2="hardAlpha" operator="out"/>
<feColorMatrix type="matrix" values="0 0 0 0 0 0 0 0 0 0 0 0 0 0 0 0 0 0 0.08 0"/>
<feBlend mode="normal" in2="BackgroundImageFix" result="effect1_dropShadow_1850_101350"/>
<feBlend mode="normal" in="SourceGraphic" in2="effect1_dropShadow_1850_101350" result="shape"/>
</filter>
</defs>
</svg>
