<svg width="100" height="101" viewBox="0 0 100 101" fill="none" xmlns="http://www.w3.org/2000/svg">
<path fill-rule="evenodd" clip-rule="evenodd" d="M15.0525 41.4178V60.1999C15.0525 61.0658 14.3498 61.7686 13.4839 61.7686C12.6182 61.7686 11.9153 61.0658 11.9153 60.1999V54.4809C10.7696 56.8158 8.09862 58.0927 5.49136 57.394C2.52763 56.5999 0.768615 53.5535 1.56273 50.5897C1.56489 50.5823 1.56685 50.5748 1.56901 50.5674L6.29097 33.9362L6.29156 33.9338C6.9845 31.508 9.20489 29.8378 11.7274 29.8448L32.8559 29.8985L37.4455 21.9491C38.1821 20.6731 39.3957 19.7419 40.8188 19.3605C42.2421 18.9793 43.7586 19.1789 45.0347 19.9156C46.3108 20.6525 47.2421 21.866 47.6233 23.2891C48.0047 24.7125 47.8051 26.2289 47.0684 27.505L40.5474 38.7997C39.7569 40.1689 38.2959 41.0125 36.7147 41.0125H34.0684V60.1999C34.0684 61.0658 33.3655 61.7686 32.4998 61.7686C31.6341 61.7686 30.9312 61.0658 30.9312 60.1999V39.4438C30.9312 38.5776 31.6335 37.8752 32.4998 37.8752H36.7147C37.1749 37.8752 37.6004 37.6297 37.8304 37.2311L44.3514 25.9364C44.6721 25.3809 44.759 24.7207 44.5931 24.1011C44.427 23.4817 44.0216 22.9533 43.4661 22.6327C42.9106 22.3119 42.2504 22.225 41.631 22.3909C41.0114 22.557 40.4831 22.9623 40.1623 23.5178L35.1186 32.2538C34.8376 32.7403 34.318 33.0395 33.7563 33.0382L11.719 32.9821C10.6004 32.9789 9.61587 33.7193 9.30842 34.795C9.30842 34.795 4.59077 51.4111 4.5892 51.4166C4.25332 52.7021 5.01803 54.0193 6.29763 54.3623C6.2996 54.3627 6.30156 54.3633 6.30332 54.3636C7.58587 54.7074 8.90371 53.9531 9.2594 52.6758L11.9561 41.0631C12.1363 40.2864 12.8704 39.7687 13.6625 39.8593C14.4545 39.9501 15.0525 40.6205 15.0525 41.4178ZM58.7629 82.368C58.7629 82.0082 58.7629 82.355 58.7629 82.368V82.368ZM58.7629 82.368C58.7629 80.904 59.3445 79.4999 60.3798 78.4646C61.4151 77.4295 62.819 76.848 64.2831 76.848H75.8898L82.9047 71.8735C83.3025 71.5913 83.73 71.3531 84.1792 71.1627C84.1831 71.1609 84.1872 71.1593 84.1914 71.1576C85.2755 70.7091 87.5676 69.9564 90.9896 69.9609C91.0937 69.9609 91.1972 69.9623 91.3 69.9644C95.37 70.0478 98.6261 73.3711 98.6261 77.4417C98.6274 84.7074 98.6274 98.0066 98.6274 98.0066C98.6274 98.8723 97.9245 99.5752 97.0588 99.5752C96.1931 99.5752 95.4902 98.8723 95.4902 98.0066C95.4902 98.0066 95.4902 84.7078 95.4888 77.4423V77.4421C95.4888 75.0786 93.5982 73.1491 91.2353 73.1011L91.2323 73.1009C91.1506 73.0991 91.0682 73.0982 90.9857 73.0982C88.178 73.0944 86.2908 73.685 85.3927 74.0558C85.1555 74.1572 84.9296 74.2835 84.7192 74.4327L77.2969 79.696C77.0318 79.884 76.7145 79.9852 76.3894 79.9852H64.2831C63.6512 79.9852 63.0451 80.2362 62.5982 80.6831C62.1514 81.1299 61.9002 81.736 61.9002 82.368V82.3748C61.9019 83.0044 62.1529 83.608 62.5982 84.0533C63.0451 84.5001 63.6512 84.7513 64.2831 84.7513H78.3963L80.3604 83.6362L84.7329 80.5552C85.4406 80.0566 86.42 80.2264 86.9186 80.934C87.4174 81.6417 87.2476 82.6213 86.54 83.1199L82.8206 85.7405V98.0066C82.8206 98.8723 82.1178 99.5752 81.2519 99.5752C80.3863 99.5752 79.6833 98.8723 79.6833 98.0066V87.6282L79.5849 87.684C79.3488 87.818 79.0819 87.8885 78.8106 87.8885H64.2831C62.819 87.8885 61.4151 87.307 60.3798 86.2717C59.3453 85.2372 58.7637 83.834 58.7629 82.3709C58.7629 82.3701 58.7629 82.3682 58.7629 82.368ZM58.7629 82.3705V82.3709C58.7631 82.7031 58.7631 82.7542 58.7629 82.3705ZM61.5235 45.7152C61.1278 39.0934 59.2312 36.6031 57.7867 34.0478C56.6504 32.0378 55.7486 29.995 55.7486 26.4509C55.7486 17.6668 62.8698 10.5456 71.6539 10.5456C80.438 10.5456 87.559 17.6668 87.559 26.4509C87.559 29.995 86.6572 32.0378 85.5212 34.0478C84.0733 36.6089 82.1712 39.1048 81.7814 45.7605L81.7792 47.9989C81.7792 49.5872 80.8194 50.9589 79.4539 51.5656V52.6593C79.4539 54.2711 78.4612 55.6607 77.0614 56.2531V57.3197C77.0614 59.4589 75.3065 61.2186 73.1672 61.2186H70.1404C68.0021 61.2186 66.2416 59.4582 66.2416 57.3197V56.2525C64.8414 55.6597 63.8537 54.2705 63.8537 52.6593V51.5672C62.4841 50.9611 61.5235 49.588 61.5235 47.9989V45.7152ZM78.6427 47.2376H64.6608V47.9989C64.6608 48.4184 65.0031 48.7605 65.4223 48.7605H77.8853C78.3021 48.7605 78.642 48.4174 78.642 47.9984L78.6427 47.2376ZM76.3167 51.8978H66.991V52.6593C66.991 53.0785 67.3333 53.4209 67.7525 53.4209H75.5551C75.9727 53.4209 76.3167 53.0785 76.3167 52.6593V51.8978ZM73.9241 56.5582H69.3788V57.3197C69.3788 57.7374 69.7227 58.0813 70.1404 58.0813H73.1672C73.5841 58.0813 73.9241 57.7366 73.9241 57.3197V56.5582ZM71.6539 13.6829C64.6023 13.6829 58.8859 19.3993 58.8859 26.4509C58.8859 30.0552 60.0747 31.7376 61.3043 33.8589C62.6292 36.1448 64.039 38.8505 64.5447 44.1003H78.7631C79.2686 38.8505 80.6786 36.1448 82.0035 33.8589C83.2329 31.7376 84.4218 30.0552 84.4218 26.4509C84.4218 19.3993 78.7053 13.6829 71.6539 13.6829ZM64.2078 28.8915C63.5957 28.2793 63.5957 27.2852 64.2078 26.6731C64.8202 26.0609 65.8141 26.0609 66.4263 26.6731L70.2812 30.528L76.8814 23.9276C77.4935 23.3154 78.4876 23.3154 79.0998 23.9276C79.712 24.5397 79.712 25.5338 79.0998 26.146L71.3904 33.8554C70.7776 34.4682 69.7845 34.4682 69.172 33.8554L64.2078 28.8915ZM23.071 12.7603C27.4749 12.7603 31.0506 16.3358 31.0506 20.7399C31.0506 25.144 27.4749 28.7195 23.071 28.7195C18.6668 28.7195 15.0914 25.144 15.0914 20.7399C15.0914 16.3358 18.6668 12.7603 23.071 12.7603ZM23.071 15.8976C20.3982 15.8976 18.2286 18.0674 18.2286 20.7399C18.2286 23.4125 20.3982 25.5823 23.071 25.5823C25.7435 25.5823 27.9133 23.4125 27.9133 20.7399C27.9133 18.0674 25.7435 15.8976 23.071 15.8976ZM90.7221 53.0844C95.0851 53.0844 98.6274 56.6268 98.6274 60.9897C98.6274 65.3529 95.0851 68.8952 90.7221 68.8952C86.359 68.8952 82.8167 65.3529 82.8167 60.9897C82.8167 56.6268 86.359 53.0844 90.7221 53.0844ZM90.7221 56.2217C88.0904 56.2217 85.9539 58.3582 85.9539 60.9897C85.9539 63.6215 88.0904 65.758 90.7221 65.758C93.3537 65.758 95.4902 63.6215 95.4902 60.9897C95.4902 58.3582 93.3537 56.2217 90.7221 56.2217ZM73.2225 7.26659C73.2225 8.13227 72.5196 8.83522 71.6539 8.83522C70.788 8.83522 70.0853 8.13227 70.0853 7.26659V3.88894C70.0853 3.02325 70.788 2.32031 71.6539 2.32031C72.5196 2.32031 73.2225 3.02325 73.2225 3.88894V7.26659ZM62.198 9.38031C62.6304 10.1303 62.3723 11.0903 61.6221 11.5227C60.8721 11.955 59.9121 11.697 59.4798 10.947L57.7935 8.0209C57.3612 7.2709 57.6192 6.3109 58.3692 5.87855C59.1194 5.44639 60.0792 5.70423 60.5116 6.45443L62.198 9.38031ZM53.711 16.7233C54.4604 17.1566 54.7172 18.1168 54.2841 18.8664C53.8508 19.616 52.8906 19.8727 52.141 19.4395L49.2151 17.7484C48.4655 17.315 48.2086 16.3548 48.6419 15.6052C49.0751 14.8558 50.0355 14.5989 50.7849 15.0321L53.711 16.7233ZM83.8221 10.9485C83.3888 11.6982 82.4286 11.955 81.679 11.5217C80.9294 11.0885 80.6727 10.1282 81.1059 9.37855L82.797 6.45267C83.2304 5.70306 84.1906 5.44639 84.9402 5.87953C85.6896 6.31286 85.9465 7.27306 85.5133 8.02267L83.8221 10.9485ZM91.1676 19.4389C90.4184 19.8727 89.458 19.6166 89.0243 18.8674C88.5906 18.1182 88.8467 17.1578 89.5959 16.7238L92.5171 15.0327C93.2663 14.5989 94.2267 14.855 94.6604 15.6042C95.0943 16.3534 94.838 17.314 94.0888 17.7478L91.1676 19.4389ZM30.2272 72.6595C29.3616 72.6595 28.6586 71.9566 28.6586 71.0909C28.6586 70.2252 29.3616 69.5223 30.2272 69.5223H51.7829C52.6486 69.5223 53.3516 70.2252 53.3516 71.0909C53.3516 71.9566 52.6486 72.6595 51.7829 72.6595H30.2272ZM30.2272 81.4778C29.3616 81.4778 28.6586 80.7748 28.6586 79.9091C28.6586 79.0434 29.3616 78.3405 30.2272 78.3405H51.7829C52.6486 78.3405 53.3516 79.0434 53.3516 79.9091C53.3516 80.7748 52.6486 81.4778 51.7829 81.4778H30.2272ZM30.2272 90.296C29.3616 90.296 28.6586 89.5931 28.6586 88.7274C28.6586 87.8617 29.3616 87.1587 30.2272 87.1587H51.7829C52.6486 87.1587 53.3516 87.8617 53.3516 88.7274C53.3516 89.5931 52.6486 90.296 51.7829 90.296H30.2272Z" fill="#6D6D6D"/>
</svg>
