<svg width="17" height="16" viewBox="0 0 17 16" fill="none" xmlns="http://www.w3.org/2000/svg">
<path d="M13.7262 5.09857L12.6655 11.1141C12.6323 11.3025 12.5256 11.4699 12.369 11.5796C12.2123 11.6893 12.0185 11.7323 11.8301 11.6991C11.6418 11.6659 11.4743 11.5592 11.3646 11.4025C11.2549 11.2458 11.212 11.052 11.2452 10.8637L12.0047 6.56103L4.78104 11.6191C4.62465 11.7286 4.43115 11.7715 4.24313 11.7384C4.05511 11.7052 3.88796 11.5987 3.77845 11.4423C3.66894 11.2859 3.62604 11.0924 3.6592 10.9044C3.69235 10.7164 3.79884 10.5492 3.95523 10.4397L11.1789 5.38166L6.87592 4.62163C6.68757 4.58842 6.52013 4.48175 6.41043 4.32508C6.30074 4.16842 6.25777 3.97459 6.29098 3.78624C6.32419 3.59789 6.43086 3.43045 6.58752 3.32075C6.74419 3.21105 6.93802 3.16808 7.12637 3.20129L13.1419 4.262C13.2353 4.27835 13.3246 4.313 13.4045 4.36395C13.4845 4.41489 13.5536 4.48114 13.6079 4.55887C13.6622 4.6366 13.7006 4.7243 13.7209 4.81692C13.7412 4.90953 13.743 5.00525 13.7262 5.09857Z" fill="#131313"/>
</svg>
