<svg width="117" height="67" viewBox="0 0 117 67" fill="none" xmlns="http://www.w3.org/2000/svg">
<g filter="url(#filter0_d_1850_101220)">
<rect width="109" height="60" transform="translate(4 3)" fill="white"/>
<g clip-path="url(#clip0_1850_101220)">
<mask id="mask0_1850_101220" style="mask-type:luminance" maskUnits="userSpaceOnUse" x="-35" y="-20" width="187" height="106">
<path d="M151.522 -19.4766H-34.5222V85.472H151.522V-19.4766Z" fill="white"/>
</mask>
<g mask="url(#mask0_1850_101220)">
<path d="M48.0964 37.3672H48.9434C48.9223 37.3831 48.8999 37.4002 48.8759 37.4169C48.6269 37.5945 48.3178 37.4792 48.0959 37.3672" fill="#3F6D4E"/>
<path d="M52.2405 37.3672C52.2381 37.4202 52.2328 37.469 52.2263 37.5143C52.2239 37.5346 52.2202 37.555 52.2161 37.5733C52.0894 38.2602 51.5442 38.0985 51.2875 38.0728C51.2875 40.5592 50.3206 40.941 50.0573 41.117C49.7937 41.293 49.1205 41.6262 48.5351 41.3516C47.9489 41.0779 48.1244 40.4997 48.1536 40.2362C48.1837 39.9717 48.4275 39.7464 48.7886 39.7464C49.1498 39.7464 49.2769 39.9811 49.335 40.3433C49.6279 40.314 49.7738 40.2557 50.1353 39.8059C50.4961 39.3553 50.399 38.6505 50.399 38.6505C50.399 38.6505 50.1447 38.7683 49.7254 38.7776C49.3058 38.7878 49.2672 38.3474 49.2672 38.3474C49.2672 38.3474 49.6767 38.2199 49.8818 37.8288C49.922 37.7497 49.9513 37.6638 49.9708 37.5737C49.9761 37.5546 49.9797 37.535 49.9826 37.5147C49.9915 37.467 49.9968 37.4173 50 37.3676H52.2401L52.2405 37.3672Z" fill="#3F6D4E"/>
<path d="M58.8383 46.6388C58.8383 46.6388 59.2633 46.6486 59.546 46.6388C59.8292 46.629 60.2297 46.4302 60.2297 45.8916C60.2297 45.4316 59.8686 45.3534 59.6147 45.3534H59.273C59.273 45.3534 59.4002 44.0224 60.415 43.5429C60.9224 43.298 61.5184 42.9848 61.9185 43.7189C62.3284 43.5327 62.5726 43.2785 63.4021 43.6309C63.5191 43.4154 63.7337 43.0243 63.5191 42.7208C63.3042 42.4172 63.1482 42.3097 62.8358 42.3097C62.5234 42.3097 62.3187 42.339 62.2992 42.1337C62.2797 41.9283 62.3674 41.8302 62.6603 41.7128C62.9528 41.5955 63.5386 41.5075 63.9291 41.7128C64.3195 41.9182 64.4462 42.3296 64.4462 42.3296C64.4462 42.3296 64.8854 42.2901 64.8756 41.8697C64.8659 41.4488 64.7489 41.1942 64.7489 41.1942C64.7489 41.1942 65.4517 41.0964 65.9006 41.4582C66.3495 41.82 66.408 41.967 66.4372 42.2608C66.0761 42.3195 65.8421 42.447 65.8421 42.8087C65.8421 43.1705 66.0667 43.4154 66.33 43.4447C66.5932 43.474 67.1693 43.65 67.4427 43.0634C67.7157 42.4759 67.3842 41.8008 67.2087 41.5364C67.0328 41.2724 66.6521 40.3032 64.1728 40.3032C64.2021 40.0099 64.4072 39.3438 63.3432 39.3438C63.3241 39.657 63.2555 40.3814 62.0546 41.0272C60.8537 41.6733 60.2631 41.934 58.8383 43.6761C57.4132 41.934 56.8225 41.6733 55.6221 41.0272C54.4212 40.3814 54.3533 39.657 54.3334 39.3438C53.2695 39.3438 53.4742 40.009 53.5035 40.3032C51.0241 40.3032 50.6435 41.272 50.468 41.5364C50.2925 41.8004 49.9606 42.4759 50.234 43.0634C50.507 43.6509 51.083 43.4745 51.3463 43.4447C51.6099 43.4154 51.8346 43.1709 51.8346 42.8087C51.8346 42.4466 51.6002 42.3195 51.2394 42.2608C51.2687 41.9675 51.3272 41.8204 51.7761 41.4582C52.225 41.096 52.9282 41.1942 52.9282 41.1942C52.9282 41.1942 52.8112 41.4488 52.8011 41.8697C52.7913 42.2905 53.2305 42.3296 53.2305 42.3296C53.2305 42.3296 53.3576 41.9186 53.7476 41.7128C54.138 41.5075 54.7238 41.5955 55.0163 41.7128C55.3088 41.8302 55.3966 41.9283 55.3771 42.1337C55.358 42.339 55.1524 42.3097 54.8404 42.3097C54.5284 42.3097 54.3716 42.4168 54.1571 42.7208C53.9422 43.0239 54.1571 43.4154 54.2741 43.6309C55.1037 43.2789 55.3478 43.5327 55.7577 43.7189C56.1579 42.9848 56.7531 43.298 57.2609 43.5429C58.2761 44.0224 58.4028 45.3534 58.4028 45.3534H58.0612C57.8073 45.3534 57.4461 45.4316 57.4461 45.8916C57.4461 46.4298 57.8463 46.6294 58.1294 46.6388C58.4126 46.6486 58.8367 46.6388 58.8367 46.6388H58.8383Z" fill="#3F6D4E"/>
<path d="M63.0489 37.3672C63.0566 37.4161 63.0595 37.4646 63.0566 37.5143C63.0558 37.5338 63.0538 37.553 63.0514 37.5733C63.0424 37.6516 63.0221 37.731 62.9912 37.8162C62.8352 38.2464 62.3079 38.2659 62.0544 38.0508C61.9553 37.9665 61.8294 37.7807 61.6981 37.5733C61.6859 37.5542 61.6738 37.5338 61.6612 37.5143C61.6311 37.4658 61.601 37.4161 61.5706 37.3672H61.2261C61.2578 37.4132 61.2882 37.4621 61.3171 37.5143C61.328 37.533 61.3382 37.553 61.3479 37.5733C61.3849 37.6467 61.4186 37.7277 61.4479 37.8162C61.6059 38.305 61.4304 38.3641 61.274 38.5597C61.1176 38.7552 60.9807 38.8917 60.7662 38.7157C60.5513 38.5397 60.2584 38.7552 60.141 39.0482C60.0244 39.3419 60.0512 39.577 59.8371 39.6259C59.6246 39.6752 59.5544 39.401 59.3455 39.5676C59.1363 39.7342 59.1111 39.832 58.8385 39.832C58.5659 39.832 58.5412 39.7334 58.3307 39.5676C58.1215 39.401 58.0529 39.6752 57.8388 39.6259C57.6263 39.577 57.6527 39.3423 57.5349 39.0482C57.4175 38.7552 57.1254 38.5389 56.9105 38.7157C56.6948 38.8917 56.5587 38.7552 56.4027 38.5597C56.2463 38.3641 56.0708 38.3046 56.2288 37.8162C56.2572 37.7277 56.2909 37.6471 56.3279 37.5733C56.3381 37.553 56.3482 37.533 56.3588 37.5143C56.388 37.4621 56.4177 37.4132 56.4498 37.3672H56.1053C56.0752 37.4161 56.0439 37.4658 56.0151 37.5143C56.0017 37.5338 55.9895 37.5542 55.9781 37.5733C55.8473 37.7807 55.7202 37.9665 55.6214 38.0508C55.3679 38.2659 54.8406 38.2464 54.6846 37.8162C54.6538 37.731 54.6334 37.6512 54.6245 37.5733C54.6221 37.553 54.6204 37.5338 54.6192 37.5143C54.6168 37.4637 54.6192 37.4161 54.6269 37.3672H52.7444C52.7484 37.414 52.7574 37.4621 52.7708 37.509C52.772 37.5106 52.772 37.5122 52.7728 37.5143C52.7789 37.5354 52.787 37.555 52.7972 37.5733C52.9764 37.9143 53.7048 37.8707 53.7048 37.8707V37.8724C53.7048 37.8724 53.656 38.6957 54.0655 38.8135C54.4754 38.9312 54.9186 38.6896 54.9186 38.6896C54.9186 38.6896 54.9706 39.753 55.6405 40.2427C55.764 40.1115 56.2085 39.5379 56.7195 39.2046C56.763 39.449 56.2645 40.545 56.3921 41.1333C56.5676 41.2111 57.0259 41.3284 57.6807 40.9573C57.7782 41.3292 58.3397 42.8521 58.8377 43.0086C59.335 42.8521 59.8964 41.3292 59.9947 40.9573C60.648 41.3292 61.107 41.2111 61.2834 41.1333C61.4093 40.5454 60.9124 39.4494 60.9551 39.2046C61.467 39.5374 61.9114 40.1115 62.0349 40.2427C62.7052 39.753 62.7572 38.6896 62.7572 38.6896C62.7572 38.6896 63.1996 38.9312 63.6095 38.8135C64.019 38.6957 63.9707 37.8724 63.9707 37.8724V37.8707C63.9707 37.8707 64.6991 37.9143 64.8791 37.5733C64.8896 37.555 64.8974 37.5354 64.9034 37.5143C64.9043 37.5126 64.9043 37.5106 64.9051 37.509C64.9185 37.4621 64.927 37.414 64.9319 37.3672H63.0485H63.0493H63.0489Z" fill="#3F6D4E"/>
<path d="M69.5224 40.2362C69.5517 40.4997 69.7272 41.0783 69.1422 41.3516C68.5568 41.6258 67.8828 41.2934 67.6187 41.117C67.3559 40.941 66.3898 40.5588 66.3898 38.0732C66.1319 38.0989 65.5871 38.261 65.4595 37.5737C65.4559 37.555 65.4526 37.5346 65.4498 37.5143C65.4437 37.469 65.438 37.421 65.4355 37.3672H67.676C67.6785 37.4169 67.685 37.4666 67.6935 37.5143C67.6959 37.5346 67.6996 37.5542 67.7053 37.5737C67.7235 37.6638 67.7528 37.7506 67.7942 37.8284C68.0002 38.2199 68.4097 38.347 68.4097 38.347C68.4097 38.347 68.3711 38.787 67.9506 38.7772C67.531 38.7674 67.2779 38.6501 67.2779 38.6501C67.2779 38.6501 67.1796 39.3549 67.5407 39.8059C67.9019 40.2557 68.0485 40.3144 68.3406 40.3429C68.4 39.9807 68.5263 39.746 68.8875 39.746C69.2486 39.746 69.4932 39.9709 69.5224 40.2357V40.2362Z" fill="#3F6D4E"/>
<path d="M68.7332 37.3672H69.581C69.3592 37.4792 69.0504 37.5945 68.8002 37.4169C68.7766 37.4002 68.7539 37.3831 68.7332 37.3672Z" fill="#3F6D4E"/>
<path d="M48.3154 43.8377C48.0009 43.8377 47.745 43.581 47.745 43.2644C47.745 42.9479 48.0009 42.692 48.3154 42.692C48.6298 42.692 48.8866 42.9487 48.8866 43.2644C48.8866 43.5802 48.6306 43.8377 48.3154 43.8377ZM48.3154 42.5156C47.9038 42.5156 47.5691 42.8521 47.5691 43.2648C47.5691 43.6776 47.9038 44.0141 48.3154 44.0141C48.7269 44.0141 49.0625 43.6776 49.0625 43.2648C49.0625 42.8521 48.7277 42.5156 48.3154 42.5156Z" fill="#3F6D4E"/>
<path d="M69.361 43.8377C69.0466 43.8377 68.7907 43.581 68.7907 43.2644C68.7907 42.9479 69.0466 42.692 69.361 42.692C69.6755 42.692 69.9322 42.9487 69.9322 43.2644C69.9322 43.5802 69.6763 43.8377 69.361 43.8377ZM69.361 42.5156C68.9495 42.5156 68.6147 42.8521 68.6147 43.2648C68.6147 43.6776 68.9495 44.0141 69.361 44.0141C69.7726 44.0141 70.1081 43.6776 70.1081 43.2648C70.1081 42.8521 69.7734 42.5156 69.361 42.5156Z" fill="#3F6D4E"/>
<path d="M75.1936 37.2812H41.8064V37.4874H75.1936V37.2812Z" fill="#3F6D4E"/>
<path d="M47.8148 21.978C47.7855 21.7136 47.61 21.1359 48.1962 20.8618C48.7816 20.5884 49.4544 20.9208 49.7185 21.0972C49.9813 21.2732 50.9486 21.6554 50.9486 24.1402C51.1818 24.1173 51.6506 23.9817 51.8318 24.4685C51.8537 24.5268 51.8712 24.596 51.8838 24.6751H49.6388C49.6254 24.6034 49.6071 24.5341 49.5799 24.4685C49.569 24.44 49.5572 24.4119 49.543 24.3854C49.3378 23.9939 48.9283 23.8668 48.9283 23.8668C48.9283 23.8668 48.9669 23.426 49.3866 23.4366C49.8062 23.4463 50.0601 23.5629 50.0601 23.5629C50.0601 23.5629 50.1572 22.858 49.7961 22.4087C49.4349 21.9581 49.2891 21.8994 48.9961 21.8705C48.9381 22.2327 48.8105 22.4673 48.4493 22.4673C48.0882 22.4673 47.8444 22.2425 47.8144 21.9785L47.8148 21.978Z" fill="#3F6D4E"/>
<path d="M58.5142 18.5526C59.9393 20.2947 60.515 20.5395 61.7158 21.1852C62.9167 21.8314 62.9846 22.5554 63.0045 22.8687C64.0684 22.8687 63.8633 22.2034 63.834 21.9096C66.3134 21.9096 66.694 20.9408 66.8695 20.6764C67.045 20.4124 67.3769 19.7369 67.1035 19.1494C66.8305 18.562 66.2545 18.7384 65.9912 18.7681C65.7276 18.7974 65.5033 19.0423 65.5033 19.4045C65.5033 19.7667 65.7373 19.8938 66.0985 19.9524C66.0692 20.2458 66.0107 20.3928 65.5618 20.755C65.1129 21.1168 64.4101 21.019 64.4101 21.019C64.4101 21.019 64.5271 20.7644 64.5372 20.3435C64.547 19.9227 64.1078 19.8836 64.1078 19.8836C64.1078 19.8836 63.9807 20.2947 63.5907 20.5004C63.2003 20.7057 62.6145 20.6177 62.322 20.5004C62.0295 20.3831 61.9417 20.2853 61.9612 20.0795C61.9803 19.8742 62.1859 19.9035 62.4979 19.9035C62.8099 19.9035 62.9667 19.796 63.1812 19.4925C63.3961 19.1894 63.1812 18.7974 63.0642 18.5823C62.2346 18.9343 61.9905 18.6801 61.5806 18.4943C61.1804 19.2285 60.5852 18.9152 60.0774 18.6703C59.0622 18.1908 58.9355 16.8598 58.9355 16.8598H59.2771C59.531 16.8598 59.8922 16.7816 59.8922 16.3216C59.8922 15.7834 59.4916 15.5842 59.2089 15.5748C58.9257 15.5647 58.4861 15.5748 58.4861 15.5748C58.4861 15.5748 58.0762 15.5647 57.7931 15.5748C57.5099 15.5846 57.1098 15.7834 57.1098 16.3216C57.1098 16.7816 57.4709 16.8598 57.7248 16.8598H58.0665C58.0665 16.8598 57.9393 18.1908 56.9245 18.6703C56.4171 18.9148 55.8211 19.2285 55.421 18.4943C55.0111 18.6801 54.7669 18.9347 53.9374 18.5823C53.8204 18.7974 53.6055 19.1894 53.8204 19.4925C54.0353 19.7956 54.1913 19.9035 54.5037 19.9035C54.8161 19.9035 55.0208 19.8742 55.0403 20.0795C55.0594 20.2849 54.9717 20.3827 54.6792 20.5004C54.3867 20.6177 53.8009 20.7057 53.4105 20.5004C53.0201 20.2951 52.8933 19.8836 52.8933 19.8836C52.8933 19.8836 52.4537 19.9227 52.4639 20.3435C52.4736 20.7644 52.5906 21.019 52.5906 21.019C52.5906 21.019 51.8878 21.1168 51.4389 20.755C50.99 20.3928 50.9315 20.2462 50.9023 19.9524C51.2634 19.8938 51.4974 19.7662 51.4974 19.4045C51.4974 19.0427 51.2728 18.7974 51.0095 18.7681C50.7463 18.7388 50.1702 18.5628 49.8968 19.1494C49.6234 19.7369 49.9553 20.412 50.1308 20.6764C50.3063 20.9404 50.6874 21.9096 53.1663 21.9096C53.1371 22.203 52.9323 22.8687 53.9959 22.8687C54.0154 22.5554 54.0836 21.8314 55.2845 21.1852C56.4854 20.5395 57.061 20.2947 58.4861 18.5526H58.5154H58.5142Z" fill="#3F6D4E"/>
<path d="M64.3591 24.4693C64.0804 24.317 63.6343 24.3439 63.6343 24.3439H63.6327C63.6327 24.3439 63.6815 23.518 63.2715 23.4003C62.862 23.2834 62.4192 23.5242 62.4192 23.5242C62.4192 23.5242 62.3672 22.4608 61.6969 21.9719C61.5734 22.1023 61.1294 22.6759 60.6171 23.0088C60.5749 22.7648 61.0721 21.6684 60.9454 21.0813C60.7699 21.0023 60.3104 20.8858 59.6567 21.2573C59.5584 20.8854 58.997 19.3682 58.4997 19.2109C58.0017 19.3678 57.4402 20.8854 57.3431 21.2573C56.6891 20.8854 56.2304 21.0023 56.0545 21.0813C55.9278 21.6684 56.4254 22.7643 56.382 23.0088C55.8709 22.6763 55.4265 22.1023 55.303 21.9719C54.633 22.4608 54.581 23.5242 54.581 23.5242C54.581 23.5242 54.1378 23.2834 53.7279 23.4003C53.318 23.518 53.3668 24.3439 53.3668 24.3439H53.3651C53.3651 24.3439 52.9195 24.3174 52.6404 24.4693C52.551 24.5174 52.4791 24.5846 52.4434 24.6755H54.2829C54.2881 24.6091 54.3015 24.541 54.3231 24.4693C54.3292 24.4465 54.3373 24.4225 54.3458 24.3985C54.5022 23.9682 55.0291 23.9479 55.2826 24.1638C55.3533 24.2229 55.4378 24.3345 55.528 24.4693C55.5703 24.5341 55.6154 24.6042 55.6596 24.6755H56.0066C55.9729 24.6123 55.9424 24.5435 55.9148 24.4693C55.9058 24.4465 55.8981 24.4225 55.8904 24.3985C55.7324 23.9088 55.9079 23.8505 56.0643 23.6549C56.2203 23.4594 56.3564 23.3221 56.5721 23.4981C56.7866 23.6741 57.0791 23.4594 57.1965 23.1656C57.3143 22.8727 57.2875 22.6368 57.5004 22.5879C57.7145 22.5395 57.7831 22.8128 57.9923 22.6462C58.2024 22.4796 58.2267 22.3826 58.5001 22.3826C58.7735 22.3826 58.7975 22.4804 59.0071 22.6462C59.2164 22.8128 59.2858 22.539 59.4991 22.5879C59.7132 22.6368 59.6864 22.8723 59.803 23.1656C59.9204 23.4594 60.2133 23.6749 60.4282 23.4981C60.6427 23.3221 60.7796 23.4594 60.936 23.6549C61.092 23.8505 61.2675 23.9092 61.1099 24.3985C61.1022 24.4221 61.094 24.4465 61.0847 24.4693C61.0579 24.5435 61.0266 24.6128 60.9929 24.6755H61.3398C61.3849 24.6038 61.4288 24.5341 61.4723 24.4693C61.562 24.3345 61.6461 24.2233 61.7168 24.1638C61.9703 23.9475 62.4976 23.9682 62.6536 24.3985C62.6626 24.4221 62.6703 24.4465 62.6764 24.4693C62.6983 24.541 62.7117 24.6091 62.717 24.6755H64.5573C64.522 24.5846 64.4497 24.517 64.3595 24.4693H64.3587H64.3591Z" fill="#3F6D4E"/>
<path d="M67.3599 24.6748H65.115C65.1276 24.5958 65.1451 24.5269 65.167 24.4686C65.3482 23.9818 65.817 24.117 66.051 24.1403C66.051 21.6551 67.0175 21.2733 67.2803 21.0973C67.544 20.9213 68.2179 20.5881 68.8033 20.8619C69.3887 21.1365 69.2128 21.7138 69.1836 21.9782C69.1543 22.2418 68.9102 22.467 68.5486 22.467C68.1871 22.467 68.0611 22.2324 68.0022 21.8702C67.7101 21.8995 67.5631 21.9578 67.2023 22.4084C66.8411 22.8582 66.9391 23.563 66.9391 23.563C66.9391 23.563 67.1926 23.446 67.6118 23.4363C68.0323 23.4257 68.0709 23.8665 68.0709 23.8665C68.0709 23.8665 67.6614 23.9936 67.4554 24.3851C67.4412 24.412 67.4286 24.4397 67.4176 24.4682C67.3908 24.5338 67.3713 24.6027 67.3595 24.6744L67.3599 24.6748Z" fill="#3F6D4E"/>
<path d="M47.977 19.5083C47.6626 19.5083 47.4066 19.2516 47.4066 18.9355C47.4066 18.6194 47.6626 18.3639 47.977 18.3639C48.2914 18.3639 48.5482 18.6206 48.5482 18.9355C48.5482 19.2504 48.2922 19.5083 47.977 19.5083ZM47.977 18.1875C47.5655 18.1875 47.2307 18.5232 47.2307 18.9359C47.2307 19.3486 47.5655 19.6851 47.977 19.6851C48.3885 19.6851 48.7241 19.3486 48.7241 18.9359C48.7241 18.5232 48.3893 18.1875 47.977 18.1875Z" fill="#3F6D4E"/>
<path d="M69.0224 19.5083C68.708 19.5083 68.452 19.2516 68.452 18.9355C68.452 18.6194 68.708 18.3639 69.0224 18.3639C69.3368 18.3639 69.5936 18.6206 69.5936 18.9355C69.5936 19.2504 69.3377 19.5083 69.0224 19.5083ZM69.0224 18.1875C68.6109 18.1875 68.2761 18.5232 68.2761 18.9359C68.2761 19.3486 68.6109 19.6851 69.0224 19.6851C69.4339 19.6851 69.7695 19.3486 69.7695 18.9359C69.7695 18.5232 69.4347 18.1875 69.0224 18.1875Z" fill="#3F6D4E"/>
<path d="M75.1936 24.4688H41.8064V24.6749H75.1936V24.4688Z" fill="#3F6D4E"/>
<path d="M47.6967 49.725C47.7454 49.6843 47.7698 49.6265 47.7698 49.5535C47.7698 49.4806 47.7438 49.4203 47.6926 49.3771C47.6418 49.3339 47.5727 49.3123 47.4866 49.3123H47.1823V49.787H47.4923C47.5796 49.787 47.6475 49.7662 47.6962 49.7255L47.6967 49.725ZM47.1827 49.1673H47.4769C47.5593 49.1673 47.6223 49.1478 47.6674 49.1095C47.7121 49.0712 47.7348 49.0178 47.7348 48.9493C47.7348 48.8809 47.7125 48.8279 47.6674 48.7892C47.6227 48.7509 47.5577 48.7314 47.4728 48.7314H47.1823V49.1677L47.1827 49.1673ZM47.8132 49.2985C47.8535 49.3307 47.8856 49.3706 47.9095 49.4179C47.9331 49.4655 47.9453 49.516 47.9453 49.5702C47.9453 49.6387 47.9282 49.7002 47.8933 49.7544C47.8583 49.8094 47.808 49.8522 47.7422 49.8839C47.6759 49.9153 47.5979 49.9312 47.5086 49.9312H47.0081V48.5859H47.4891C47.5801 48.5859 47.6577 48.601 47.7218 48.6312C47.786 48.6613 47.8344 48.7025 47.8661 48.7538C47.8982 48.8051 47.9144 48.863 47.9144 48.9278C47.9144 49.0076 47.8929 49.0736 47.8498 49.1253C47.8067 49.1779 47.7499 49.215 47.6792 49.2382C47.7279 49.2459 47.7726 49.2659 47.8132 49.2977V49.2985Z" fill="#333333"/>
<path d="M49.1734 48.875L48.538 50.4309H48.3572L48.5652 49.9212L48.1399 48.875H48.3345L48.6656 49.7322L48.9926 48.875H49.1734Z" fill="#333333"/>
<path d="M51.0503 48.5859V49.9316H50.8752V49.3217H50.1919V49.9316H50.0164V48.5859H50.1919V49.1767H50.8752V48.5859H51.0503Z" fill="#333333"/>
<path d="M52.0625 49.7532C52.1178 49.7235 52.162 49.6795 52.1966 49.62C52.2307 49.5605 52.2478 49.4888 52.2478 49.4037C52.2478 49.3185 52.2311 49.2468 52.1978 49.1873C52.1641 49.1283 52.121 49.0843 52.067 49.0553C52.0134 49.0264 51.9549 49.0117 51.8919 49.0117C51.8289 49.0117 51.7688 49.0264 51.716 49.0553C51.6628 49.0843 51.6201 49.1283 51.588 49.1873C51.5559 49.2464 51.5397 49.3185 51.5397 49.4037C51.5397 49.4888 51.5551 49.5626 51.5872 49.6216C51.6185 49.6807 51.6607 49.7247 51.7131 49.7536C51.7655 49.7826 51.8232 49.7972 51.8866 49.7972C51.95 49.7972 52.0085 49.7826 52.0633 49.7528H52.0625V49.7532ZM51.6169 49.8844C51.5368 49.8396 51.4735 49.7752 51.4284 49.6925C51.3829 49.6098 51.3601 49.5137 51.3601 49.4037C51.3601 49.2937 51.3833 49.2 51.43 49.1173C51.4771 49.0346 51.5405 48.9706 51.6217 48.9262C51.7026 48.8818 51.7928 48.8594 51.8935 48.8594C51.9943 48.8594 52.084 48.8818 52.1653 48.9262C52.2461 48.9706 52.3099 49.0342 52.3566 49.1164C52.4034 49.1987 52.4265 49.2949 52.4265 49.4041C52.4265 49.5133 52.4025 49.6094 52.3542 49.6929C52.3059 49.7756 52.2413 49.84 52.1588 49.8848C52.0763 49.9296 51.9853 49.9524 51.8854 49.9524C51.7855 49.9524 51.6969 49.93 51.6169 49.8848" fill="#333333"/>
<path d="M53.6702 48.8754V49.933H53.4951V49.777C53.4614 49.8308 53.4151 49.8731 53.3558 49.9033C53.296 49.9334 53.2302 49.9485 53.1587 49.9485C53.0767 49.9485 53.0031 49.9318 52.9377 49.8972C52.8723 49.8634 52.8207 49.8124 52.783 49.744C52.7448 49.6756 52.7261 49.5929 52.7261 49.4947V48.875H52.8995V49.4714C52.8995 49.5753 52.926 49.6556 52.9784 49.7118C53.0308 49.768 53.1027 49.7961 53.1941 49.7961C53.2855 49.7961 53.3615 49.7672 53.4151 49.7094C53.4687 49.6515 53.4959 49.5672 53.4959 49.4564V48.8754H53.671H53.6702Z" fill="#333333"/>
<path d="M54.1994 49.9089C54.1352 49.8812 54.0844 49.8424 54.0474 49.7932C54.0105 49.7434 53.9897 49.6868 53.9861 49.622H54.1669C54.1721 49.6746 54.1969 49.7178 54.2408 49.7516C54.2851 49.7854 54.3432 49.8017 54.4151 49.8017C54.4817 49.8017 54.5345 49.787 54.5731 49.7573C54.6117 49.7276 54.6308 49.6905 54.6308 49.6457C54.6308 49.6009 54.6101 49.565 54.5691 49.5426C54.5284 49.5202 54.4646 49.4978 54.3785 49.4762C54.3001 49.4554 54.2363 49.435 54.1868 49.4139C54.1372 49.3927 54.0954 49.3609 54.06 49.3193C54.0247 49.2774 54.0072 49.2228 54.0072 49.1543C54.0072 49.1006 54.0231 49.0509 54.0556 49.006C54.0876 48.9612 54.1331 48.9254 54.1925 48.8993C54.2514 48.8728 54.3188 48.8594 54.3948 48.8594C54.5114 48.8594 54.6056 48.8891 54.6775 48.9482C54.7494 49.0073 54.7876 49.0883 54.7929 49.191H54.6178C54.6137 49.136 54.5918 49.0916 54.5516 49.0578C54.511 49.024 54.4569 49.0077 54.3891 49.0077C54.3261 49.0077 54.2761 49.0211 54.2388 49.0484C54.2014 49.0753 54.1827 49.1112 54.1827 49.1543C54.1827 49.189 54.1937 49.2179 54.2164 49.2403C54.2388 49.2627 54.2672 49.281 54.3013 49.2941C54.3351 49.3075 54.3826 49.3226 54.4427 49.3393C54.5187 49.3601 54.58 49.38 54.6271 49.4C54.6747 49.42 54.7153 49.4501 54.7494 49.4896C54.7836 49.5296 54.801 49.5817 54.8022 49.6461C54.8022 49.7039 54.7864 49.7561 54.7543 49.8025C54.7218 49.8486 54.6767 49.8852 54.6186 49.9117C54.5601 49.9382 54.4931 49.9516 54.4179 49.9516C54.3371 49.9516 54.2648 49.9378 54.2006 49.9101V49.9093L54.1994 49.9089Z" fill="#333333"/>
<path d="M55.8626 49.1556C55.8329 49.1075 55.7927 49.0708 55.7423 49.0456C55.6915 49.0207 55.6355 49.0081 55.5741 49.0081C55.4852 49.0081 55.41 49.0366 55.3474 49.0932C55.2849 49.1499 55.2499 49.2281 55.241 49.3287H55.9073C55.9073 49.2619 55.8926 49.2045 55.863 49.156L55.8626 49.1556ZM56.0823 49.4709H55.2394C55.2459 49.5748 55.2816 49.6563 55.3458 49.7149C55.4104 49.7736 55.4892 49.8029 55.5818 49.8029C55.6578 49.8029 55.7208 49.7854 55.772 49.75C55.8228 49.7145 55.8585 49.6673 55.8784 49.6082H56.0669C56.0385 49.71 55.982 49.7923 55.8975 49.8563C55.8126 49.9199 55.7078 49.9516 55.5818 49.9516C55.4819 49.9516 55.3921 49.9292 55.3133 49.884C55.2345 49.8392 55.1723 49.7748 55.1273 49.6921C55.0826 49.6094 55.0598 49.5133 55.0598 49.4033C55.0598 49.2933 55.0818 49.1979 55.1252 49.116C55.1687 49.0342 55.2304 48.9702 55.3088 48.9258C55.3877 48.8814 55.4783 48.8594 55.5814 48.8594C55.6846 48.8594 55.7699 48.8814 55.8471 48.925C55.9239 48.9686 55.9836 49.0289 56.0251 49.1055C56.0669 49.1825 56.0876 49.2684 56.0876 49.3654C56.0876 49.3992 56.086 49.4346 56.0823 49.4713V49.4709Z" fill="#333333"/>
<path d="M57.624 49.7532C57.6793 49.7235 57.7236 49.6795 57.7581 49.62C57.7922 49.5605 57.8093 49.4888 57.8093 49.4037C57.8093 49.3185 57.7926 49.2468 57.7593 49.1873C57.7256 49.1283 57.6825 49.0843 57.6285 49.0553C57.5749 49.0264 57.5164 49.0117 57.4534 49.0117C57.3904 49.0117 57.3303 49.0264 57.2775 49.0553C57.2243 49.0843 57.1816 49.1283 57.1495 49.1873C57.1174 49.2464 57.1012 49.3185 57.1012 49.4037C57.1012 49.4888 57.117 49.5626 57.1487 49.6216C57.18 49.6807 57.2223 49.7247 57.2747 49.7536C57.3271 49.7826 57.3848 49.7972 57.4481 49.7972C57.5115 49.7972 57.57 49.7826 57.6253 49.7528H57.624V49.7532ZM57.1784 49.8844C57.0983 49.8396 57.035 49.7752 56.9899 49.6925C56.9444 49.6098 56.9216 49.5137 56.9216 49.4037C56.9216 49.2937 56.9448 49.2 56.9915 49.1173C57.0386 49.0346 57.102 48.9706 57.1833 48.9262C57.2641 48.8818 57.3543 48.8594 57.455 48.8594C57.5558 48.8594 57.6456 48.8818 57.7268 48.9262C57.8077 48.9706 57.8714 49.0342 57.9182 49.1164C57.9649 49.1987 57.988 49.2949 57.988 49.4041C57.988 49.5133 57.9641 49.6094 57.9157 49.6929C57.8674 49.7756 57.8024 49.84 57.7203 49.8848C57.6378 49.9296 57.5468 49.9524 57.4469 49.9524C57.347 49.9524 57.2584 49.93 57.1784 49.8848" fill="#333333"/>
<path d="M58.7254 49.0232H58.5044V49.9362H58.3293V49.0232H58.1924V48.8781H58.3293V48.8032C58.3293 48.6846 58.3598 48.5982 58.4203 48.5432C58.4816 48.4882 58.5791 48.4609 58.714 48.4609V48.6076C58.6372 48.6076 58.5828 48.6227 58.5515 48.6528C58.5202 48.683 58.504 48.7331 58.504 48.8019V48.8773H58.7254V49.0223V49.0232Z" fill="#333333"/>
<path d="M59.6201 48.9052C59.679 48.8005 59.7594 48.7182 59.8614 48.6591C59.9633 48.6001 60.0767 48.5703 60.201 48.5703C60.3472 48.5703 60.4752 48.6054 60.5841 48.6762C60.693 48.7471 60.7726 48.8469 60.823 48.9773H60.6129C60.5756 48.8962 60.5219 48.8339 60.4525 48.7899C60.3826 48.7463 60.2989 48.7243 60.201 48.7243C60.1031 48.7243 60.0235 48.7463 59.9487 48.7899C59.8744 48.8335 59.8159 48.8958 59.7736 48.9765C59.7314 49.0568 59.7098 49.1513 59.7098 49.2592C59.7098 49.3672 59.731 49.4593 59.7736 49.5403C59.8159 49.6206 59.8744 49.6825 59.9487 49.7261C60.0231 49.7701 60.1071 49.7917 60.201 49.7917C60.2948 49.7917 60.3822 49.7701 60.4525 49.7269C60.5223 49.6838 60.576 49.6214 60.6129 49.5403H60.823C60.773 49.6691 60.6934 49.7685 60.5841 49.8386C60.4748 49.9086 60.3472 49.9441 60.201 49.9441C60.0767 49.9441 59.9637 49.9148 59.8614 49.8561C59.7594 49.7974 59.679 49.7163 59.6201 49.6116C59.5612 49.5078 59.5315 49.39 59.5315 49.2588C59.5315 49.1276 59.5612 49.0091 59.6201 48.9044V48.9052Z" fill="#333333"/>
<path d="M61.7976 49.7532C61.8529 49.7235 61.8972 49.6795 61.9317 49.62C61.9658 49.5609 61.9825 49.4888 61.9825 49.4037C61.9825 49.3185 61.9658 49.2468 61.9325 49.1873C61.8988 49.1283 61.8553 49.0843 61.8017 49.0553C61.7481 49.0264 61.6896 49.0117 61.6266 49.0117C61.5636 49.0117 61.5035 49.0264 61.4507 49.0553C61.3975 49.0843 61.3548 49.1283 61.3227 49.1873C61.2902 49.2464 61.2744 49.3185 61.2744 49.4037C61.2744 49.4888 61.2898 49.5626 61.3219 49.6216C61.3532 49.6807 61.3954 49.7247 61.4478 49.7536C61.5007 49.7826 61.5579 49.7972 61.6213 49.7972C61.6847 49.7972 61.7432 49.7826 61.7984 49.7528H61.7976V49.7532ZM61.352 49.8844C61.2719 49.8396 61.2086 49.7752 61.1635 49.6925C61.118 49.6098 61.0952 49.5137 61.0952 49.4037C61.0952 49.2937 61.1184 49.2 61.1651 49.1173C61.2122 49.0346 61.2756 48.9706 61.3564 48.9262C61.4373 48.8818 61.5279 48.8594 61.6282 48.8594C61.7286 48.8594 61.8187 48.8818 61.9 48.9262C61.9808 48.9706 62.0446 49.0342 62.0913 49.1164C62.1381 49.1987 62.1612 49.2949 62.1612 49.4041C62.1612 49.5133 62.1372 49.6094 62.0889 49.6929C62.0406 49.7756 61.976 49.84 61.8935 49.8848C61.811 49.9296 61.72 49.9524 61.6201 49.9524C61.5202 49.9524 61.4316 49.93 61.3516 49.8848" fill="#333333"/>
<path d="M63.9573 48.9091C64.0214 48.9433 64.0722 48.9946 64.1092 49.0627C64.1462 49.1307 64.1648 49.2138 64.1648 49.3116V49.9353H63.9914V49.3369C63.9914 49.2313 63.9658 49.1507 63.9134 49.0949C63.8614 49.0386 63.7911 49.0109 63.7025 49.0109C63.614 49.0109 63.5388 49.0403 63.4852 49.0989C63.4316 49.1576 63.4043 49.2419 63.4043 49.3527V49.9357H63.2309V49.3373C63.2309 49.2317 63.2053 49.1511 63.1529 49.0953C63.1009 49.039 63.0306 49.0113 62.942 49.0113C62.8535 49.0113 62.7783 49.0407 62.7247 49.0993C62.6707 49.158 62.6438 49.2423 62.6438 49.3532V49.9362H62.4688V48.8785H62.6438V49.0313C62.6784 48.9759 62.7251 48.9331 62.7832 48.9038C62.8417 48.874 62.9059 48.8594 62.977 48.8594C63.0655 48.8594 63.1439 48.8789 63.2122 48.9193C63.28 48.9596 63.3308 49.0179 63.3641 49.0949C63.3938 49.0203 63.4425 48.9624 63.5104 48.9209C63.5786 48.8797 63.6542 48.8594 63.7375 48.8594C63.8208 48.8594 63.8927 48.8765 63.9568 48.9107V48.9099L63.9573 48.9091Z" fill="#333333"/>
<path d="M66.0169 48.9091C66.0811 48.9433 66.1319 48.9946 66.1688 49.0627C66.2058 49.1307 66.2245 49.2138 66.2245 49.3116V49.9353H66.051V49.3369C66.051 49.2313 66.0254 49.1507 65.9734 49.0949C65.9214 49.0386 65.8512 49.0109 65.7626 49.0109C65.674 49.0109 65.5989 49.0403 65.5452 49.0989C65.4916 49.1576 65.4644 49.2419 65.4644 49.3527V49.9357H65.2909V49.3373C65.2909 49.2317 65.2653 49.1511 65.2129 49.0953C65.1609 49.039 65.0907 49.0113 65.0021 49.0113C64.9135 49.0113 64.8384 49.0407 64.7847 49.0993C64.7307 49.158 64.7039 49.2423 64.7039 49.3532V49.9362H64.5288V48.8785H64.7039V49.0313C64.7384 48.9759 64.7852 48.9331 64.8432 48.9038C64.9017 48.874 64.9659 48.8594 65.037 48.8594C65.1256 48.8594 65.204 48.8789 65.2722 48.9193C65.3401 48.9596 65.3909 49.0179 65.4242 49.0949C65.4538 49.0203 65.5026 48.9624 65.5704 48.9209C65.6387 48.8797 65.7142 48.8594 65.7975 48.8594C65.8808 48.8594 65.9527 48.8765 66.0173 48.9107V48.9099L66.0169 48.9091Z" fill="#333333"/>
<path d="M67.2259 49.7532C67.2812 49.7235 67.3255 49.6795 67.36 49.62C67.3941 49.5609 67.4108 49.4888 67.4108 49.4037C67.4108 49.3185 67.3941 49.2468 67.3608 49.1873C67.3271 49.1283 67.284 49.0843 67.23 49.0553C67.1764 49.0264 67.1179 49.0117 67.0549 49.0117C66.9919 49.0117 66.9318 49.0264 66.879 49.0553C66.8258 49.0843 66.7831 49.1283 66.751 49.1873C66.7185 49.2464 66.7027 49.3185 66.7027 49.4037C66.7027 49.4888 66.7181 49.5626 66.7502 49.6216C66.7815 49.6807 66.8237 49.7247 66.8761 49.7536C66.929 49.7826 66.9862 49.7972 67.0496 49.7972C67.113 49.7972 67.1715 49.7826 67.2267 49.7528H67.2259V49.7532ZM66.7807 49.8844C66.7006 49.8396 66.6373 49.7752 66.5922 49.6925C66.5467 49.6098 66.5239 49.5137 66.5239 49.4037C66.5239 49.2937 66.5471 49.2 66.5938 49.1173C66.6409 49.0346 66.7043 48.9706 66.7851 48.9262C66.866 48.8818 66.9566 48.8594 67.0569 48.8594C67.1573 48.8594 67.2475 48.8818 67.3287 48.9262C67.4095 48.9706 67.4733 49.0342 67.5201 49.1164C67.5668 49.1987 67.5899 49.2949 67.5899 49.4041C67.5899 49.5133 67.566 49.6094 67.5176 49.6929C67.4693 49.7756 67.4047 49.84 67.3222 49.8848C67.2397 49.9296 67.1487 49.9524 67.0488 49.9524C66.9489 49.9524 66.8603 49.93 66.7803 49.8848" fill="#333333"/>
<path d="M68.7236 48.9763C68.8032 49.0541 68.8426 49.1666 68.8426 49.3128V49.9366H68.6692V49.3381C68.6692 49.2322 68.6428 49.1519 68.5904 49.0961C68.5376 49.0399 68.4656 49.0122 68.3746 49.0122C68.2836 49.0122 68.2089 49.0411 68.1545 49.0989C68.1 49.1568 68.0728 49.2407 68.0728 49.3519V49.9366H67.8977V48.8789H68.0728V49.0293C68.1077 48.9755 68.1545 48.9335 68.2142 48.9038C68.2739 48.874 68.3393 48.8594 68.4112 48.8594C68.5396 48.8594 68.6436 48.8981 68.7232 48.9763H68.7236Z" fill="#333333"/>
<path d="M69.3627 49.9089C69.2985 49.8812 69.2477 49.8424 69.2108 49.7932C69.1734 49.7434 69.1531 49.6868 69.1494 49.622H69.3302C69.3355 49.6746 69.3603 49.7178 69.4041 49.7516C69.4484 49.7854 69.5065 49.8017 69.5784 49.8017C69.645 49.8017 69.6978 49.787 69.7364 49.7573C69.775 49.7276 69.7941 49.6905 69.7941 49.6457C69.7941 49.6009 69.7734 49.565 69.7324 49.5426C69.6918 49.5202 69.628 49.4978 69.5419 49.4762C69.4634 49.4554 69.3997 49.435 69.3501 49.4139C69.3005 49.3927 69.2587 49.3609 69.2233 49.3193C69.188 49.2774 69.1705 49.2228 69.1705 49.1543C69.1705 49.1006 69.1864 49.0509 69.2189 49.006C69.251 48.9612 69.2965 48.9254 69.3558 48.8993C69.4147 48.8728 69.4821 48.8594 69.5581 48.8594C69.6747 48.8594 69.7694 48.8891 69.8413 48.9482C69.9132 49.0073 69.9514 49.0883 69.9566 49.191H69.7815C69.7775 49.136 69.7559 49.0916 69.7153 49.0578C69.6747 49.024 69.6203 49.0077 69.5524 49.0077C69.4894 49.0077 69.4395 49.0211 69.4021 49.0484C69.3651 49.0753 69.3464 49.1112 69.3464 49.1543C69.3464 49.189 69.3574 49.2179 69.3798 49.2403C69.4021 49.2627 69.4305 49.281 69.4647 49.2941C69.4984 49.3075 69.5459 49.3226 69.606 49.3393C69.682 49.3601 69.7434 49.38 69.7905 49.4C69.838 49.42 69.8786 49.4501 69.9128 49.4896C69.9469 49.5296 69.9644 49.5817 69.9656 49.6461C69.9656 49.7039 69.9497 49.7561 69.9176 49.8025C69.8851 49.8486 69.84 49.8852 69.7819 49.9117C69.7234 49.9382 69.6564 49.9516 69.5813 49.9516C69.5004 49.9516 69.4281 49.9378 69.3639 49.9101L69.3631 49.9093L69.3627 49.9089Z" fill="#333333"/>
<path d="M49.99 26.5738C49.7938 26.2785 49.3814 25.8259 49.0089 25.8259H46.9679C46.948 25.8259 46.4971 25.8356 46.4971 26.298V32.4271C46.4971 32.8899 46.9484 32.8993 46.9679 32.8993C47.0362 32.909 47.0069 32.9677 46.9679 32.9677H45.4469C45.3982 32.9677 45.3982 32.8993 45.4469 32.8993C45.4664 32.8993 45.9178 32.8891 45.9178 32.4271V26.2984C45.9178 26.2793 45.9076 25.8263 45.4469 25.8263H43.4063C42.9452 25.8263 42.4837 26.4952 42.4248 26.5743C42.3956 26.6138 42.3367 26.5743 42.3566 26.5449L42.8766 25.7778C42.8766 25.7676 42.8863 25.7578 42.8965 25.7578H49.5192C49.5293 25.7578 49.5391 25.7676 49.5391 25.7778L50.0493 26.5351C50.079 26.5743 50.0201 26.6138 49.9904 26.5743L49.99 26.5738Z" fill="#333333"/>
<path d="M48.6843 30.0917H51.9221C51.9221 28.9901 51.4512 27.8881 50.1659 27.8587C49.067 27.8779 48.7529 29.2162 48.6847 30.0917M50.1565 27.7895C51.6186 27.8094 52.2073 28.8324 52.2463 30.1211C52.2463 30.141 52.2268 30.1602 52.2073 30.1602H48.6847C48.6164 31.1045 48.9398 32.8755 50.1659 32.8951C50.9999 32.8751 51.667 32.1373 51.9123 31.3901C51.9221 31.3702 51.9322 31.3608 51.942 31.3608H52.1285C52.1484 31.3608 52.1675 31.3901 52.1675 31.4101C51.9322 32.4233 51.216 32.9546 50.1756 32.9644C48.7525 32.9542 48.0952 31.6362 48.0952 30.3765C48.0952 29.1168 48.7432 27.7988 50.1561 27.7891" fill="#333333"/>
<path d="M52.7763 32.9029C52.7958 32.9029 53.2471 32.8931 53.2471 32.4307V28.6039C53.2471 28.3974 53.1492 28.309 53.0119 28.309C52.9429 28.309 52.8645 28.3383 52.7861 28.3774C52.7666 28.3872 52.7373 28.3677 52.7373 28.3481C52.7373 28.3383 52.7471 28.0527 53.2772 28.0527C53.7481 28.0527 53.7578 27.8462 53.7578 27.836C53.7578 27.7871 53.8265 27.7871 53.8265 27.836V28.2988C54.1307 27.9745 54.5134 27.7969 54.9351 27.7969C55.5628 27.7969 56.3676 28.1904 56.3676 28.8492C56.3676 28.8688 56.3578 28.8883 56.3379 28.8883H55.8276C55.798 28.8883 55.7886 28.8688 55.7886 28.8492C55.9357 28.1896 55.514 27.9146 54.9351 27.8653C54.5033 27.8653 54.121 28.0523 53.8265 28.4068V32.4303C53.8265 32.8931 54.2782 32.9025 54.2973 32.9025C54.3465 32.9025 54.3465 32.9709 54.2973 32.9709H52.7763C52.7271 32.9709 52.7271 32.9025 52.7763 32.9025V32.9029Z" fill="#333333"/>
<path d="M56.7011 32.9029C56.7206 32.9029 57.172 32.8931 57.172 32.4307V28.6039C57.172 28.3974 57.074 28.309 56.9367 28.309C56.8677 28.309 56.7893 28.3383 56.7109 28.3774C56.6914 28.3872 56.6621 28.3677 56.6621 28.3481C56.6621 28.3383 56.6719 28.0527 57.202 28.0527C57.6729 28.0527 57.6826 27.8462 57.6826 27.836C57.6826 27.7871 57.7513 27.7871 57.7513 27.836V28.2988C58.0555 27.9745 58.4382 27.7969 58.8599 27.7969C59.4876 27.7969 60.2924 28.1904 60.2924 28.8492C60.2924 28.8688 60.2826 28.8883 60.2627 28.8883H59.7525C59.7228 28.8883 59.7135 28.8688 59.7135 28.8492C59.8605 28.1896 59.4388 27.9146 58.8599 27.8653C58.4281 27.8653 58.0458 28.0523 57.7513 28.4068V32.4303C57.7513 32.8931 58.203 32.9025 58.2221 32.9025C58.2713 32.9025 58.2713 32.9709 58.2221 32.9709H56.7011C56.652 32.9709 56.652 32.9025 56.7011 32.9025V32.9029Z" fill="#333333"/>
<path d="M62.2652 32.8365C62.9517 32.8365 63.6484 32.256 63.943 31.6558C64.1392 31.2521 64.1591 30.9078 64.1591 30.8887V29.2065C63.9336 29.7378 63.1679 29.8954 62.6678 30.023C62.0689 30.1708 61.1764 30.6919 61.1764 31.5283C61.1764 32.227 61.6083 32.8365 62.2656 32.8365H62.2648H62.2652ZM61.382 30.3473C61.7155 30.1798 62.1279 30.0812 62.5398 29.983C63.1386 29.8351 64.1587 29.6681 64.1587 28.8517C64.1587 28.1041 63.2264 27.8678 62.6479 27.8584C62.1376 27.8686 61.7744 28.2222 61.5489 28.498C61.3036 28.8032 61.1764 29.1181 61.1764 29.1181C61.1663 29.1373 61.137 29.1474 61.1171 29.1279L60.862 28.872C60.8518 28.8618 60.8518 28.8427 60.862 28.8227C60.8717 28.813 61.0582 28.5669 61.3625 28.3208C61.657 28.0845 62.1376 27.7993 62.6674 27.7895C63.2954 27.7794 64.0705 27.9273 64.4825 28.4483C64.7376 28.773 64.7376 29.0875 64.7376 29.1075V32.423C64.7376 32.8854 65.1889 32.8952 65.2084 32.8952C65.2479 32.8952 65.2674 32.9636 65.1987 32.9636H64.1981C64.1782 32.9636 64.1587 32.9437 64.1587 32.9245V31.2619C63.9332 32.0881 63.4425 32.531 62.6775 32.8361C62.4614 32.9249 62.2457 32.964 62.0397 32.964C61.4214 32.964 60.8819 32.6096 60.6658 32.0001C60.4695 31.4489 60.6166 30.731 61.382 30.3477V30.3473Z" fill="#333333"/>
<path d="M67.7894 27.7969C68.8392 27.8168 69.5558 28.3281 69.8105 29.3609C69.8105 29.3711 69.8105 29.3809 69.8004 29.3907C69.7906 29.3907 69.7809 29.4004 69.7707 29.4004H69.5842C69.5745 29.4004 69.5546 29.3907 69.5546 29.3711C69.4075 28.4854 68.6816 27.8857 67.7886 27.8661C66.6406 27.8853 66.3168 29.4795 66.3168 30.3843C66.3168 31.2892 66.6406 32.8834 67.7886 32.9029C68.6417 32.8829 69.2995 32.1651 69.5546 31.3979C69.5647 31.378 69.5745 31.3686 69.5842 31.3686H69.7707C69.7906 31.3686 69.8101 31.3979 69.8101 31.4179C69.5745 32.4409 68.8388 32.9624 67.789 32.9722C66.3858 32.962 65.7383 31.6245 65.7383 30.3843C65.7383 29.1442 66.3858 27.8071 67.789 27.7969H67.7894Z" fill="#333333"/>
<path d="M71.0861 30.0917H74.3239C74.3239 28.9901 73.853 27.8881 72.5676 27.8587C71.4687 27.8779 71.1547 29.2162 71.0865 30.0917M72.5579 27.7895C74.02 27.8094 74.6086 28.8324 74.6476 30.1211C74.6476 30.141 74.6281 30.1602 74.6086 30.1602H71.0861C71.0178 31.1045 71.3412 32.8755 72.5672 32.8951C73.4013 32.8751 74.0683 32.1373 74.3137 31.3901C74.3235 31.3702 74.3336 31.3608 74.3434 31.3608H74.5298C74.5497 31.3608 74.5688 31.3901 74.5688 31.4101C74.3336 32.4233 73.6174 32.9546 72.577 32.9644C71.1539 32.9542 70.4966 31.6362 70.4966 30.3765C70.4966 29.1168 71.1446 27.7988 72.5575 27.7891" fill="#333333"/>
<path d="M46.4306 35.8387C46.4899 35.7886 46.5196 35.7185 46.5196 35.6297C46.5196 35.5409 46.4879 35.4676 46.4257 35.415C46.3632 35.3625 46.2799 35.3364 46.1751 35.3364H45.805V35.9141H46.182C46.2884 35.9141 46.3709 35.8892 46.4306 35.8391V35.8387ZM45.805 35.1596H46.1633C46.2632 35.1596 46.3404 35.1363 46.3953 35.0895C46.4501 35.0422 46.4777 34.9779 46.4777 34.8943C46.4777 34.8108 46.4501 34.7465 46.3953 34.6996C46.3404 34.6523 46.262 34.6291 46.1584 34.6291H45.8046V35.16L45.805 35.1596ZM46.5724 35.3197C46.6216 35.3588 46.6606 35.4073 46.6894 35.4655C46.7182 35.5234 46.7329 35.5853 46.7329 35.6509C46.7329 35.7336 46.7117 35.809 46.6695 35.8754C46.6272 35.9418 46.5663 35.9943 46.4859 36.0331C46.4054 36.0713 46.3108 36.0905 46.2015 36.0905H45.5925V34.4531H46.1783C46.2892 34.4531 46.3835 34.4719 46.4619 34.5085C46.5395 34.5452 46.5988 34.5949 46.6374 34.6576C46.6764 34.7204 46.6959 34.7905 46.6959 34.8691C46.6959 34.9661 46.6695 35.0463 46.6175 35.1099C46.5651 35.1734 46.496 35.2191 46.4103 35.2472C46.4696 35.2565 46.5237 35.281 46.5728 35.3201L46.5724 35.3197Z" fill="#333333"/>
<path d="M48.7269 35.1981C48.6879 35.126 48.6351 35.071 48.5688 35.0323C48.5026 34.994 48.4295 34.9748 48.3495 34.9748C48.2694 34.9748 48.1971 34.994 48.1317 35.0315C48.0663 35.0694 48.0139 35.124 47.9749 35.1961C47.9355 35.2682 47.9164 35.3529 47.9164 35.4499C47.9164 35.5468 47.9355 35.634 47.9749 35.707C48.0139 35.7799 48.0659 35.8357 48.1317 35.874C48.1971 35.9123 48.2698 35.9314 48.3495 35.9314C48.4291 35.9314 48.5022 35.9123 48.5688 35.874C48.6351 35.8357 48.6879 35.7799 48.7269 35.707C48.7659 35.634 48.7854 35.5493 48.7854 35.4523C48.7854 35.3554 48.7659 35.2706 48.7269 35.1985M47.7779 35.1028C47.8307 35.0034 47.9038 34.9264 47.9968 34.8718C48.0899 34.8168 48.1931 34.7891 48.3072 34.7891C48.4214 34.7891 48.5172 34.8135 48.6001 34.862C48.6826 34.9105 48.7447 34.9716 48.785 35.0457V34.8111H49.0007V36.0981H48.785V35.8585C48.7427 35.9339 48.6797 35.9958 48.5965 36.0455C48.5128 36.0948 48.4157 36.1192 48.3048 36.1192C48.1939 36.1192 48.0878 36.0911 47.9956 36.0345C47.9034 35.9779 47.8307 35.8992 47.7779 35.7974C47.7251 35.6955 47.6982 35.5798 47.6982 35.4495C47.6982 35.3191 47.7251 35.2026 47.7779 35.1032V35.1028Z" fill="#333333"/>
<path d="M50.4851 34.8424C50.5545 34.802 50.639 34.7812 50.7394 34.7812V35.0021H50.6829C50.444 35.0021 50.3246 35.1316 50.3246 35.392V36.0919H50.1113V34.8045H50.3246V35.0135C50.362 34.9397 50.4152 34.8827 50.4851 34.842" fill="#333333"/>
<path d="M54.0589 35.1981C54.0199 35.126 53.9671 35.071 53.9009 35.0323C53.8346 34.994 53.7615 34.9748 53.6815 34.9748C53.6015 34.9748 53.5292 34.994 53.4637 35.0315C53.3983 35.0694 53.3459 35.124 53.3069 35.1961C53.2675 35.2682 53.2484 35.3529 53.2484 35.4499C53.2484 35.5468 53.2675 35.634 53.3069 35.707C53.3459 35.7799 53.3979 35.8357 53.4637 35.874C53.5292 35.9123 53.6019 35.9314 53.6815 35.9314C53.7611 35.9314 53.8342 35.9123 53.9009 35.874C53.9671 35.8357 54.0199 35.7799 54.0589 35.707C54.0979 35.634 54.1174 35.5493 54.1174 35.4523C54.1174 35.3554 54.0979 35.2706 54.0589 35.1985M53.1099 35.1028C53.1627 35.0034 53.2358 34.9264 53.3289 34.8718C53.4219 34.8168 53.5251 34.7891 53.6392 34.7891C53.7534 34.7891 53.8493 34.8135 53.9321 34.862C54.0146 34.9105 54.0768 34.9716 54.117 35.0457V34.8111H54.3327V36.0981H54.117V35.8585C54.0747 35.9339 54.0118 35.9958 53.9285 36.0455C53.8448 36.0948 53.7477 36.1192 53.6368 36.1192C53.5259 36.1192 53.4199 36.0911 53.3276 36.0345C53.2354 35.9779 53.1627 35.8992 53.1099 35.7974C53.0571 35.6955 53.0303 35.5798 53.0303 35.4495C53.0303 35.3191 53.0571 35.2026 53.1099 35.1032V35.1028Z" fill="#333333"/>
<path d="M56.4484 34.9238C56.5451 35.0188 56.5939 35.1552 56.5939 35.3337V36.0923H56.383V35.3638C56.383 35.2351 56.3513 35.1373 56.2871 35.0689C56.223 35.0008 56.1356 34.9666 56.0247 34.9666C55.9138 34.9666 55.8228 35.0021 55.7566 35.0725C55.6904 35.143 55.6575 35.2457 55.6575 35.3801V36.0919H55.4446V34.8045H55.6575V34.9878C55.6997 34.9222 55.7566 34.8713 55.8297 34.835C55.9024 34.7992 55.9825 34.7812 56.0698 34.7812C56.2262 34.7812 56.3526 34.8285 56.4496 34.923L56.4484 34.9238Z" fill="#333333"/>
<path d="M58.6418 35.1978C58.6028 35.1257 58.55 35.0707 58.4838 35.032C58.4176 34.9937 58.3445 34.9746 58.2644 34.9746C58.1844 34.9746 58.1121 34.9937 58.0467 35.0312C57.9809 35.0691 57.9289 35.1237 57.8899 35.1958C57.8504 35.2679 57.8314 35.3526 57.8314 35.4496C57.8314 35.5466 57.8504 35.6337 57.8899 35.7067C57.9289 35.7796 57.9809 35.8354 58.0467 35.8737C58.1121 35.912 58.1848 35.9312 58.2644 35.9312C58.344 35.9312 58.4172 35.912 58.4838 35.8737C58.55 35.8354 58.6028 35.7796 58.6418 35.7067C58.6808 35.6337 58.7003 35.549 58.7003 35.452C58.7003 35.3551 58.6804 35.2703 58.6418 35.1982M57.6928 35.1025C57.7456 35.0031 57.8188 34.9261 57.9118 34.8715C58.0048 34.8165 58.1088 34.7888 58.225 34.7888C58.3245 34.7888 58.4176 34.812 58.5037 34.8584C58.5894 34.9045 58.6552 34.9652 58.7003 35.0406V34.3594H58.916V36.0974H58.7003V35.8554C58.6581 35.932 58.5959 35.9951 58.5126 36.0444C58.4302 36.0937 58.3331 36.1182 58.2218 36.1182C58.1105 36.1182 58.0044 36.09 57.9114 36.0338C57.8184 35.9772 57.7452 35.8982 57.6924 35.7967C57.6396 35.6949 57.6128 35.5792 57.6128 35.4488C57.6128 35.3184 57.6392 35.2019 57.6924 35.1025V35.1033L57.6928 35.1025Z" fill="#333333"/>
<path d="M62.2871 36.0901L61.6147 35.3433V36.0901H61.4019V34.4531H61.6147V35.2117L62.2895 34.4531H62.5593L61.8191 35.2728L62.5666 36.0901H62.2875H62.2871Z" fill="#333333"/>
<path d="M63.7679 36.092H63.5546V34.8046H63.7679V36.092ZM63.5615 34.5536C63.5335 34.5255 63.5193 34.4909 63.5193 34.4501C63.5193 34.4094 63.5335 34.3752 63.5615 34.3471C63.5896 34.3189 63.6241 34.3047 63.6647 34.3047C63.7053 34.3047 63.737 34.3189 63.7643 34.3471C63.7915 34.3752 63.8049 34.4094 63.8049 34.4501C63.8049 34.4909 63.7911 34.5251 63.7643 34.5536C63.7366 34.5817 63.7033 34.596 63.6647 34.596C63.6261 34.596 63.59 34.5817 63.5615 34.5536Z" fill="#333333"/>
<path d="M65.1407 34.9843V35.7429C65.1407 35.8052 65.1541 35.85 65.1805 35.8761C65.2065 35.9017 65.2532 35.9148 65.3186 35.9148H65.4758V36.0957H65.2841C65.1654 36.0957 65.0761 36.0684 65.0168 36.013C64.9575 35.9584 64.9278 35.8679 64.9278 35.7429V34.9843H64.7612V34.8083H64.9278V34.4844H65.1407V34.8083H65.4754V34.9843H65.1407Z" fill="#333333"/>
<path d="M66.4834 35.1028C66.5362 35.0034 66.6101 34.9264 66.7043 34.8718C66.7994 34.8168 66.9071 34.7891 67.0289 34.7891C67.187 34.7891 67.317 34.8274 67.4189 34.9044C67.5213 34.981 67.5892 35.0877 67.6217 35.2238H67.3921C67.3702 35.146 67.3275 35.0836 67.2642 35.0384C67.2008 34.9932 67.1224 34.9704 67.0289 34.9704C66.9071 34.9704 66.8088 35.0123 66.7336 35.0958C66.6589 35.1794 66.6215 35.2983 66.6215 35.4519C66.6215 35.6055 66.6589 35.7269 66.7336 35.8112C66.8088 35.896 66.9071 35.9384 67.0289 35.9384C67.1228 35.9384 67.2008 35.9164 67.2629 35.8728C67.3255 35.8288 67.3686 35.766 67.3917 35.6845H67.6213C67.5867 35.8161 67.5181 35.9217 67.4149 36.0003C67.3117 36.0793 67.1829 36.1188 67.0285 36.1188C66.9067 36.1188 66.7986 36.0915 66.7039 36.0361C66.6093 35.9815 66.5358 35.9037 66.4829 35.8035C66.4297 35.7037 66.4033 35.586 66.4033 35.4511C66.4033 35.3162 66.4301 35.2018 66.4829 35.1024L66.4834 35.1028Z" fill="#333333"/>
<path d="M69.5545 34.8491C69.6325 34.8906 69.6938 34.9526 69.7381 35.0361C69.7824 35.1188 69.8047 35.2202 69.8047 35.3388V36.0974H69.5939V35.3689C69.5939 35.2402 69.5622 35.1424 69.498 35.0744C69.4338 35.0063 69.3465 34.9721 69.2356 34.9721C69.1247 34.9721 69.0337 35.0076 68.9674 35.078C68.9012 35.1485 68.8679 35.2512 68.8679 35.3856V36.0974H68.655V34.3594H68.8679V34.9937C68.9102 34.9281 68.9682 34.8772 69.0422 34.8409C69.1161 34.8047 69.1998 34.7867 69.2916 34.7867C69.3883 34.7867 69.4757 34.8075 69.5541 34.8491H69.5545Z" fill="#333333"/>
<path d="M71.8012 35.1492C71.7654 35.0905 71.7163 35.0457 71.6549 35.0156C71.5936 34.9846 71.5249 34.97 71.4502 34.97C71.3425 34.97 71.2503 35.0046 71.1747 35.073C71.0992 35.1423 71.0557 35.2376 71.0447 35.3594H71.8552C71.8552 35.278 71.8369 35.2079 71.8012 35.1492ZM72.0689 35.5334H71.0431C71.0508 35.6601 71.0943 35.7595 71.1731 35.8308C71.2519 35.9021 71.3474 35.938 71.4599 35.938C71.5521 35.938 71.6289 35.9164 71.6907 35.8732C71.752 35.83 71.7959 35.773 71.8207 35.7008H72.0502C72.0157 35.8247 71.947 35.9249 71.8438 36.0023C71.7406 36.0801 71.6127 36.1188 71.4595 36.1188C71.3376 36.1188 71.2288 36.0915 71.1329 36.0365C71.037 35.9811 70.9615 35.9033 70.907 35.8027C70.8526 35.7017 70.825 35.5847 70.825 35.4515C70.825 35.3183 70.8518 35.2018 70.9046 35.1015C70.9574 35.0013 71.0325 34.9239 71.1284 34.8701C71.2243 34.816 71.3348 34.7891 71.4595 34.7891C71.5842 34.7891 71.689 34.816 71.7829 34.8689C71.8767 34.9219 71.949 34.9956 71.9998 35.0885C72.0506 35.1818 72.0758 35.2869 72.0758 35.4042C72.0758 35.445 72.0738 35.4882 72.0689 35.5334Z" fill="#333333"/>
<path d="M74.1115 34.9238C74.2082 35.0188 74.2569 35.1552 74.2569 35.3337V36.0923H74.0461V35.3638C74.0461 35.2351 74.0144 35.1373 73.9502 35.0689C73.886 35.0008 73.7987 34.9666 73.6878 34.9666C73.5769 34.9666 73.4859 35.0021 73.4197 35.0725C73.3534 35.143 73.3205 35.2457 73.3205 35.3801V36.0919H73.1077V34.8045H73.3205V34.9878C73.3628 34.9222 73.4197 34.8713 73.4928 34.835C73.5655 34.7988 73.6455 34.7812 73.7329 34.7812C73.8893 34.7812 74.0156 34.8285 74.1127 34.923L74.1115 34.9238Z" fill="#333333"/>
</g>
</g>
</g>
<defs>
<filter id="filter0_d_1850_101220" x="0.875" y="0.65625" width="115.25" height="66.25" filterUnits="userSpaceOnUse" color-interpolation-filters="sRGB">
<feFlood flood-opacity="0" result="BackgroundImageFix"/>
<feColorMatrix in="SourceAlpha" type="matrix" values="0 0 0 0 0 0 0 0 0 0 0 0 0 0 0 0 0 0 127 0" result="hardAlpha"/>
<feOffset dy="0.78125"/>
<feGaussianBlur stdDeviation="1.5625"/>
<feComposite in2="hardAlpha" operator="out"/>
<feColorMatrix type="matrix" values="0 0 0 0 0 0 0 0 0 0 0 0 0 0 0 0 0 0 0.08 0"/>
<feBlend mode="normal" in2="BackgroundImageFix" result="effect1_dropShadow_1850_101220"/>
<feBlend mode="normal" in="SourceGraphic" in2="effect1_dropShadow_1850_101220" result="shape"/>
</filter>
<clipPath id="clip0_1850_101220">
<rect width="78" height="44" fill="white" transform="translate(19.5 11)"/>
</clipPath>
</defs>
</svg>
