<svg width="117" height="67" viewBox="0 0 117 67" fill="none" xmlns="http://www.w3.org/2000/svg">
<g filter="url(#filter0_d_1850_101305)">
<rect width="109" height="60" transform="translate(4 3)" fill="white"/>
<path d="M77.5088 34.0534L80.6677 39.5867L76.9927 36.7099L76.257 41.2128L75.1782 39.3087L73.5924 42.7853L73.7888 40.2172L72.1219 41.8708L69.0792 41.7339L69.02 39.8197L67.8009 39.7735L66.8356 40.916L61.9725 41.7495L60.4346 39.3087L56.5468 41.9029L54.2076 40.3464L51.3211 40.8025L49.0775 42.4552L48.0252 41.8333L45.7069 43.3252L43.5234 40.9183L41.3258 40.7251L41.6046 42.3073L39.2234 41.8081L35.6946 39.8262L34.3658 39.1319L35.0842 29.6064L32.8565 29.5986L31.6101 29.0289L32.5536 26.5616L39.8826 26.4645L40.3964 25.3856L42.5799 24.902L44.4755 25.6219H46.9168L48.1537 27.3662L50.6579 27.5773L50.7567 25.8527L58.0019 24.5842L58.8082 25.6585L60.7981 26.0272L62.3556 25.0435L64.0503 25.049L66.4229 24.4739L74.9368 24.9121L74.9586 24.9551L75.119 22.861L75.4725 25.0348L77.7448 22.6719L76.4214 26.268L79.3803 24.6506L77.0729 27.3268L82.7323 27.619L77.5749 30.7558L85.39 33.867L77.5088 34.0534Z" fill="#010000"/>
<path d="M32.8464 26.9609L32.1863 28.9072L35.7947 28.9163L35.0244 39.1343H37.2247L37.0708 29.0047L39.8105 28.6874L39.7677 26.9609H32.8464Z" fill="#EAE6E1"/>
<path d="M40.5471 25.8198L41.251 39.3106H42.439L42.8349 34.2243L44.1993 34.445L43.8909 38.7359L46.2671 38.6475L46.8789 26.0772H44.5027L44.551 32.3221L43.0112 32.5652L42.5712 25.4219L40.5471 25.8198Z" fill="#EAE6E1"/>
<path d="M48.2023 27.7972L47.1472 38.9081L48.7758 39.1302L48.9658 35.5423L51.1074 39.1302L52.8239 38.4227L49.9771 33.9066C49.9771 33.9066 53.0708 32.2896 53.5113 30.9185C53.9505 29.5475 51.634 27.7533 48.2018 27.7977L48.2023 27.7972ZM52.0449 30.6909C51.8791 31.5784 49.077 33.1102 49.077 33.1102L49.466 29.2402C50.9283 29.1967 52.2098 29.8025 52.0449 30.6914V30.6909Z" fill="#EAE6E1"/>
<path d="M51.1047 26.3098V27.7087L53.7315 27.8635L55.177 35.936L53.5652 36.938L54.0476 39.0756L59.8031 37.0122L59.3508 34.8434L57.3208 35.4717L55.4539 27.6785L58.1331 26.9573L58.0123 25.0156L51.1047 26.3098Z" fill="#EAE6E1"/>
<path d="M58.8081 26.1094L60.9624 38.4361L66.9211 38.1151L66.3653 35.5094L62.1451 36.39L60.798 26.4785L58.8081 26.1094Z" fill="#EAE6E1"/>
<path d="M62.3555 25.4219L63.4055 34.6278L67.9994 34.1405L68.3378 32.0881L64.7344 32.3665L64.0392 25.4219H62.3555Z" fill="#EAE6E1"/>
<path d="M66.4131 25.0156L66.21 26.7191L69.7679 27.2146L68.8007 37.9198L74.0701 37.1757L74.9311 25.4182L66.4131 25.0161V25.0156ZM72.2593 35.5596L70.6635 36.1522L71.545 27.3502L72.7007 27.5073L72.2598 35.5596H72.2593Z" fill="#EAE6E1"/>
</g>
<defs>
<filter id="filter0_d_1850_101305" x="0.875" y="0.65625" width="115.25" height="66.25" filterUnits="userSpaceOnUse" color-interpolation-filters="sRGB">
<feFlood flood-opacity="0" result="BackgroundImageFix"/>
<feColorMatrix in="SourceAlpha" type="matrix" values="0 0 0 0 0 0 0 0 0 0 0 0 0 0 0 0 0 0 127 0" result="hardAlpha"/>
<feOffset dy="0.78125"/>
<feGaussianBlur stdDeviation="1.5625"/>
<feComposite in2="hardAlpha" operator="out"/>
<feColorMatrix type="matrix" values="0 0 0 0 0 0 0 0 0 0 0 0 0 0 0 0 0 0 0.08 0"/>
<feBlend mode="normal" in2="BackgroundImageFix" result="effect1_dropShadow_1850_101305"/>
<feBlend mode="normal" in="SourceGraphic" in2="effect1_dropShadow_1850_101305" result="shape"/>
</filter>
</defs>
</svg>
