<svg width="117" height="67" viewBox="0 0 117 67" fill="none" xmlns="http://www.w3.org/2000/svg">
<g filter="url(#filter0_d_1850_101052)">
<rect width="109" height="60" transform="translate(4 3)" fill="white"/>
<g clip-path="url(#clip0_1850_101052)">
<path d="M71.9755 45.008C79.0173 37.9663 79.0173 26.5493 71.9755 19.5076C64.9338 12.4658 53.5168 12.4658 46.4751 19.5076C39.4333 26.5493 39.4333 37.9663 46.4751 45.008C53.5168 52.0498 64.9338 52.0498 71.9755 45.008Z" fill="black"/>
<path d="M63.6076 24.2605V26.519C63.6076 26.882 63.5459 27.176 63.3794 27.4051C63.4334 27.6683 63.5672 27.857 63.7591 28.043C64.1743 27.6374 64.3612 27.0911 64.3612 26.519V23.8984C64.05 23.912 63.7905 24.0309 63.6076 24.2609V24.2605Z" fill="#FCEA03"/>
<path d="M62.5539 27.8889C62.45 27.918 62.4577 27.9248 62.3502 27.9248H61.1229V21.7576H62.3502C63.1487 21.7576 63.6074 22.2752 63.6074 23.1323V23.1822C63.8233 23.0896 64.0756 23.0434 64.3605 23.0366C64.3397 21.5484 63.2875 21.0625 62.3502 21.0625H60.3394V31.1011H61.1234V28.6198H62.3506C62.6179 28.6198 62.7091 28.5795 62.9268 28.4973C62.7576 28.3222 62.6519 28.1239 62.5543 27.8889H62.5539Z" fill="#FCEA03"/>
<path d="M68.9189 22.2656C68.6226 23.4924 68.5214 23.9761 68.1966 25.2474L67.448 28.1052L66.6767 25.2592C66.4358 23.9838 65.909 23.2438 65.0606 23.1703C64.9794 23.1631 64.4853 23.1113 64.3986 23.1113C63.0983 23.1113 62.5058 24.0582 62.5058 25.2401V27.3113C62.5947 28.4936 63.6001 28.9813 64.4431 29.4546C65.1531 29.8543 65.7593 30.1206 65.7593 30.8007V31.4958C65.7593 32.3097 65.3451 32.9599 64.532 32.9599C63.6446 32.9599 63.2158 32.2349 63.2449 31.4667V31.102H62.4767V31.4667C62.4622 32.7829 63.3197 33.6549 64.532 33.6549C65.8782 33.6549 66.5143 32.6495 66.5143 31.4958V30.7417C66.5143 29.6918 65.5964 29.2776 64.5465 28.686C63.9408 28.3457 63.3342 27.9614 63.2898 27.2813V25.2401C63.2898 24.2792 63.734 23.8205 64.3986 23.8205C64.4744 23.8205 64.9558 23.8708 65.0225 23.8826C65.6472 23.9897 65.8092 24.2497 66.0619 25.3558L67.0641 29.2735V31.1029H67.8336V29.2735L69.667 22.2656H68.9193H68.9189Z" fill="#FCEA03"/>
<path d="M58.1589 21.6922H56.8309V31.1011H56.1331V21.6922H54.7915V21.0625H58.1584V21.6922H58.1589Z" fill="#FCEA03"/>
<path d="M59.4052 28.4297V22.2734H58.6797V27.873C59.0005 28.0391 59.4052 28.4297 59.4052 28.4297Z" fill="#FCEA03"/>
<path d="M59.4052 21.0625H58.6802V21.69H59.4052V21.0625Z" fill="#FCEA03"/>
<path d="M63.4248 40.8128V41.5174H60.3359V31.3984H61.1308V40.8123H63.4248V40.8128Z" fill="#E54F25"/>
<path d="M66.8662 40.8173V41.5219H63.7773V33.9922H64.5722V40.8173H66.8662Z" fill="#E54F25"/>
<path d="M53.3436 30.5276C53.2392 30.499 53.1344 30.4709 53.0296 30.4423C52.7166 30.357 52.4026 30.2749 52.0887 30.1932C51.7733 30.1111 51.4607 30.009 51.1617 29.8783C50.8555 29.744 50.5628 29.5775 50.3215 29.3439C50.1872 29.2136 50.076 29.0589 50.0007 28.887C49.2639 27.206 50.7461 25.9338 53.3785 26.8734C54.4025 27.2391 54.045 26.9342 53.7769 26.7478C53.6793 26.6802 53.5854 26.6312 53.5854 26.6312C53.5854 26.6312 50.5075 24.8771 49.0688 27.3675C48.6255 28.122 48.3855 30.0662 50.8237 31.4422L48.9908 40.5199L51.5773 41.25C52.3173 41.4473 53.2388 41.2014 53.5464 40.0467L53.7397 39.3217C53.8899 38.7591 53.8508 38.1303 53.2147 37.7233C53.9579 37.4933 54.3245 37.0074 54.5509 36.3495C54.5509 36.3495 55.7696 33.2507 55.7927 33.1854L56.6933 33.3251C59.1378 33.6087 60.0071 32.1196 60.0961 31.3538C60.4223 29.3121 58.9623 28.2414 58.1864 27.9474C57.8221 27.809 57.4401 27.8208 57.4401 27.8208C57.4401 27.8208 57.4006 27.8217 57.3516 27.8276C57.2182 27.8435 57.0154 27.8879 57.368 27.9818C57.4383 28.0004 57.5381 28.0204 57.6828 28.0608C59.2345 28.4936 59.6914 30.8973 58.3284 31.7607C57.0631 32.5629 55.51 31.4849 55.51 31.4849C55.3417 31.3706 55.1639 31.2689 54.9856 31.17C54.6167 30.9649 54.2351 30.7957 53.8322 30.6691C53.6698 30.6183 53.506 30.572 53.3422 30.5271L53.3436 30.5276ZM52.9702 39.1171L52.7769 39.8417C52.7021 40.1234 52.4439 40.7364 51.7629 40.5544L50.0493 40.0844L50.6141 37.5246L52.2302 37.9683C52.7883 38.1326 53.1281 38.5241 52.9697 39.1171H52.9702Z" fill="#E54F25"/>
<path d="M59.1166 33.1467V39.4373C59.1166 40.2472 58.7867 40.9368 57.8421 40.9368C56.9574 40.9368 56.5976 40.1723 56.5976 39.4224V33.992H55.8027V39.4224C55.8027 40.6369 56.5822 41.6414 57.8421 41.6414C59.2214 41.6414 59.8815 40.5466 59.8815 39.4373V32.5156C59.8815 32.5156 59.5104 32.9253 59.117 33.1467H59.1166Z" fill="#E54F25"/>
<path d="M53.3436 30.5276C53.2392 30.499 53.1344 30.4709 53.0296 30.4423C52.7166 30.357 52.4026 30.2749 52.0887 30.1932C51.7733 30.1111 51.4607 30.009 51.1617 29.8783C50.8555 29.744 50.5628 29.5775 50.3215 29.3439C50.1872 29.2136 50.076 29.0589 50.0007 28.887C49.2639 27.206 50.7461 25.9338 53.3785 26.8734C54.4025 27.2391 54.045 26.9342 53.7769 26.7478C53.6793 26.6802 53.5854 26.6312 53.5854 26.6312C53.5854 26.6312 50.5075 24.8771 49.0688 27.3675C48.6255 28.122 48.3855 30.0662 50.8237 31.4422L48.9908 40.5199L51.5773 41.25C52.3173 41.4473 53.2388 41.2014 53.5464 40.0467L53.7397 39.3217C53.8899 38.7591 53.8508 38.1303 53.2147 37.7233C53.9579 37.4933 54.3245 37.0074 54.5509 36.3495C54.5509 36.3495 55.7696 33.2507 55.7927 33.1854L56.6933 33.3251C59.1378 33.6087 60.0071 32.1196 60.0961 31.3538C60.4223 29.3121 58.9623 28.2414 58.1864 27.9474C57.8221 27.809 57.4401 27.8208 57.4401 27.8208C57.4401 27.8208 57.4006 27.8217 57.3516 27.8276C57.2182 27.8435 57.0154 27.8879 57.368 27.9818C57.4383 28.0004 57.5381 28.0204 57.6828 28.0608C59.2345 28.4936 59.6914 30.8973 58.3284 31.7607C57.0631 32.5629 55.51 31.4849 55.51 31.4849C55.3417 31.3706 55.1639 31.2689 54.9856 31.17C54.6167 30.9649 54.2351 30.7957 53.8322 30.6691C53.6698 30.6183 53.506 30.572 53.3422 30.5271L53.3436 30.5276ZM52.9702 39.1171L52.7769 39.8417C52.7021 40.1234 52.4439 40.7364 51.7629 40.5544L50.0493 40.0844L50.6141 37.5246L52.2302 37.9683C52.7883 38.1326 53.1281 38.5241 52.9697 39.1171H52.9702Z" fill="#E44225"/>
<path d="M53.3436 30.5276C53.2392 30.499 53.1344 30.4709 53.0296 30.4423C52.7166 30.357 52.4026 30.2749 52.0887 30.1932C51.7733 30.1111 51.4607 30.009 51.1617 29.8783C50.8555 29.744 50.5628 29.5775 50.3215 29.3439C50.1872 29.2136 50.076 29.0589 50.0007 28.887C49.2639 27.206 50.748 25.9293 53.3785 26.8734C54.4152 27.2455 54.045 26.9342 53.7769 26.7478C53.6793 26.6802 53.5854 26.6312 53.5854 26.6312C53.5854 26.6312 50.5075 24.8771 49.0688 27.3675C48.6255 28.122 48.3855 30.0662 50.8237 31.4422L48.9908 40.5199L51.5773 41.25C52.3173 41.4473 53.2388 41.2014 53.5464 40.0467L53.7397 39.3217C53.8899 38.7591 53.8508 38.1303 53.2147 37.7233C53.9579 37.4933 54.3245 37.0074 54.5509 36.3495C54.5509 36.3495 55.7696 33.2507 55.7927 33.1854L56.6933 33.3251C59.1378 33.6087 60.0071 32.1196 60.0961 31.3538C60.4223 29.3121 58.9623 28.2414 58.1864 27.9474C57.8221 27.809 57.4401 27.8208 57.4401 27.8208C57.4401 27.8208 57.4006 27.8217 57.3516 27.8276C57.2182 27.8435 57.0154 27.8879 57.368 27.9818C57.4383 28.0004 57.5381 28.0204 57.6828 28.0608C59.2345 28.4936 59.6914 30.8973 58.3284 31.7607C57.0631 32.5629 55.51 31.4849 55.51 31.4849C55.3417 31.3706 55.1639 31.2689 54.9856 31.17C54.6167 30.9649 54.2351 30.7957 53.8322 30.6691C53.6698 30.6183 53.506 30.572 53.3422 30.5271L53.3436 30.5276ZM52.9702 39.1171L52.7769 39.8417C52.7021 40.1234 52.4439 40.7364 51.7629 40.5544L50.0493 40.0844L50.6141 37.5246L52.2302 37.9683C52.7883 38.1326 53.1281 38.5241 52.9697 39.1171H52.9702Z" fill="#E54F25"/>
<path d="M49.1274 44.5376V43.6797H49.5467C49.6546 43.6797 49.7354 43.7001 49.7898 43.7409C49.8443 43.7818 49.8715 43.8358 49.8715 43.9025C49.8715 43.9474 49.8606 43.9864 49.8384 44.0195C49.8162 44.0526 49.7858 44.078 49.7472 44.0962C49.7082 44.1143 49.6646 44.123 49.6156 44.123L49.6388 44.0717C49.6928 44.0717 49.7404 44.0808 49.7817 44.0985C49.823 44.1166 49.8552 44.1425 49.8792 44.1769C49.9028 44.2114 49.9146 44.2532 49.9146 44.3031C49.9146 44.3766 49.8856 44.4342 49.8275 44.475C49.7694 44.5163 49.6841 44.5367 49.5716 44.5367H49.1279L49.1274 44.5376ZM49.3248 44.3884H49.5576C49.6084 44.3884 49.6469 44.3798 49.6742 44.3625C49.7014 44.3453 49.7145 44.319 49.7145 44.2831C49.7145 44.2473 49.7009 44.2191 49.6742 44.2024C49.6474 44.1856 49.6084 44.1765 49.5576 44.1765H49.3098V44.0318H49.5217C49.5698 44.0318 49.607 44.0236 49.6324 44.0068C49.6583 43.99 49.671 43.9646 49.671 43.9301C49.671 43.8956 49.6583 43.8707 49.6324 43.8544C49.6066 43.838 49.5698 43.8299 49.5217 43.8299H49.3243V44.3888L49.3248 44.3884Z" fill="#E54F25"/>
<path d="M50.3096 44.5376V43.6797H50.6807C50.7574 43.6797 50.8236 43.6919 50.8794 43.7169C50.9348 43.7418 50.9779 43.7777 51.0083 43.824C51.0387 43.8707 51.0536 43.9256 51.0536 43.9896C51.0536 44.0535 51.0387 44.1093 51.0083 44.1556C50.9779 44.2019 50.9352 44.2368 50.8794 44.2609C50.8241 44.2849 50.7578 44.2972 50.6807 44.2972H50.4185L50.5092 44.2114V44.5372H50.3096V44.5376ZM50.5092 44.2341L50.4185 44.1397H50.6698C50.7302 44.1397 50.776 44.1266 50.8068 44.1007C50.8377 44.0744 50.8536 44.0377 50.8536 43.9905C50.8536 43.9433 50.8381 43.9065 50.8068 43.8807C50.776 43.8548 50.7302 43.8421 50.6698 43.8421H50.4185L50.5092 43.7477V44.2341ZM50.8563 44.5376L50.6408 44.2264H50.854L51.0695 44.5376H50.8563Z" fill="#E54F25"/>
<path d="M51.6529 44.3784H52.1198V44.5376H51.4556V43.6797H52.1039V43.8389H51.6529V44.3779V44.3784ZM51.6384 44.0245H52.0513V44.1801H51.6384V44.0245Z" fill="#E54F25"/>
<path d="M52.7178 44.5376L52.436 43.6797H52.642L52.8857 44.4396H52.7827L53.0376 43.6797H53.2214L53.4664 44.4396H53.367L53.617 43.6797H53.8071L53.5254 44.5376H53.3144L53.0962 43.8711H53.1524L52.9292 44.5376H52.7173H52.7178Z" fill="#E54F25"/>
<path d="M54.3622 44.5376H54.1626V43.6797H54.3622V44.5376ZM54.7651 44.186H54.3459V44.0181H54.7651V44.186ZM54.7506 43.6801H54.9493V44.5381H54.7506V43.6801Z" fill="#E54F25"/>
<path d="M55.8143 44.5511C55.7467 44.5511 55.6841 44.5402 55.6269 44.5179C55.5697 44.4957 55.5198 44.4648 55.4776 44.4249C55.435 44.385 55.4023 44.3378 55.3792 44.2838C55.356 44.2298 55.3442 44.1713 55.3442 44.1073C55.3442 44.0434 55.356 43.9839 55.3792 43.9304C55.4023 43.8768 55.4354 43.8301 55.4776 43.7902C55.5203 43.7503 55.5697 43.719 55.6264 43.6972C55.6832 43.675 55.7453 43.6641 55.8134 43.6641C55.8814 43.6641 55.9436 43.675 56.0003 43.6967C56.057 43.7185 56.1065 43.7494 56.1491 43.7893C56.1918 43.8292 56.2244 43.8764 56.2476 43.9304C56.2707 43.9844 56.2825 44.0434 56.2825 44.1082C56.2825 44.1731 56.2707 44.2312 56.2476 44.2852C56.2244 44.3392 56.1913 44.3868 56.1491 44.4267C56.1065 44.4667 56.057 44.4975 56.0003 44.5193C55.9436 44.5411 55.8814 44.552 55.8147 44.552L55.8143 44.5511ZM55.8129 44.3832C55.8515 44.3832 55.8864 44.3764 55.9191 44.3628C55.9513 44.3492 55.9799 44.3301 56.0044 44.3051C56.0289 44.2802 56.0479 44.2512 56.0615 44.218C56.0752 44.1849 56.082 44.1482 56.082 44.1073C56.082 44.0665 56.0752 44.0297 56.0615 43.9966C56.0479 43.9635 56.0289 43.9345 56.0044 43.9095C55.9799 43.8846 55.9513 43.8655 55.9191 43.8519C55.8869 43.8383 55.8515 43.8315 55.8129 43.8315C55.7743 43.8315 55.739 43.8383 55.7063 43.8519C55.6736 43.8655 55.645 43.8846 55.621 43.9095C55.597 43.9345 55.5779 43.9635 55.5647 43.9966C55.5511 44.0297 55.5443 44.0665 55.5443 44.1073C55.5443 44.1482 55.5511 44.1854 55.5647 44.218C55.5783 44.2512 55.597 44.2802 55.621 44.3051C55.645 44.3301 55.6736 44.3492 55.7063 44.3628C55.739 44.3764 55.7743 44.3832 55.8129 44.3832Z" fill="#E54F25"/>
<path d="M57.0578 44.5522C56.9362 44.5522 56.8409 44.5181 56.7724 44.4505C56.7039 44.3829 56.6694 44.2854 56.6694 44.1588V43.6797H56.8691V44.1538C56.8691 44.2346 56.8859 44.2931 56.9194 44.3298C56.953 44.3661 56.9993 44.3843 57.0592 44.3843C57.1191 44.3843 57.1667 44.3661 57.2003 44.3298C57.2338 44.2935 57.2506 44.235 57.2506 44.1538V43.6797H57.4453V44.1588C57.4453 44.2854 57.4108 44.3825 57.3423 44.4505C57.2738 44.5186 57.1789 44.5522 57.0578 44.5522Z" fill="#E54F25"/>
<path d="M58.1706 44.5511C58.1021 44.5511 58.0358 44.542 57.9728 44.5234C57.9092 44.5048 57.8584 44.4812 57.8203 44.4517L57.8879 44.3024C57.9238 44.3287 57.9673 44.3501 58.0177 44.3668C58.0685 44.3836 58.1193 44.3918 58.171 44.3918C58.21 44.3918 58.2418 44.3877 58.2658 44.3796C58.2899 44.3714 58.3076 44.3605 58.3189 44.3469C58.3303 44.3333 58.3362 44.3178 58.3362 44.2997C58.3362 44.277 58.3271 44.2589 58.3094 44.2453C58.2913 44.2316 58.2677 44.2208 58.2377 44.2121C58.2078 44.2035 58.1756 44.1953 58.1402 44.1876C58.1052 44.1799 58.0698 44.1704 58.034 44.1595C57.9982 44.1486 57.966 44.1336 57.936 44.1155C57.9061 44.0969 57.8825 44.0728 57.8648 44.0434C57.8471 44.0134 57.8385 43.9762 57.8385 43.9313C57.8385 43.8823 57.8516 43.8374 57.8775 43.797C57.9038 43.7566 57.9433 43.7244 57.9968 43.7004C58.0503 43.6763 58.1175 43.6641 58.1982 43.6641C58.2522 43.6641 58.3053 43.6704 58.358 43.6836C58.4106 43.6967 58.4564 43.7153 58.4959 43.7398L58.4333 43.8891C58.3947 43.8669 58.3552 43.8505 58.3144 43.8396C58.2736 43.8288 58.2341 43.8229 58.1969 43.8229C58.1597 43.8229 58.1261 43.8269 58.1025 43.8356C58.0789 43.8442 58.0617 43.856 58.0503 43.8705C58.039 43.885 58.034 43.9013 58.034 43.9195C58.034 43.9422 58.0431 43.9608 58.0608 43.9748C58.0789 43.9889 58.1025 43.9993 58.132 44.0071C58.1615 44.0148 58.1942 44.0225 58.23 44.0302C58.2658 44.0379 58.3017 44.0474 58.3366 44.0588C58.3716 44.0701 58.4042 44.0846 58.4333 44.1023C58.4628 44.12 58.4863 44.1436 58.5049 44.1736C58.5231 44.2035 58.5326 44.2403 58.5326 44.2843C58.5326 44.3324 58.5195 44.3764 58.4927 44.4168C58.4659 44.4567 58.426 44.4889 58.372 44.5134C58.318 44.5379 58.2509 44.5501 58.1697 44.5501L58.1706 44.5511Z" fill="#E54F25"/>
<path d="M59.1114 44.3784H59.5783V44.5376H58.9141V43.6797H59.5624V43.8389H59.1114V44.3779V44.3784ZM59.0965 44.0245H59.5093V44.1801H59.0965V44.0245Z" fill="#E54F25"/>
<path d="M61.2325 44.5557L61.1295 44.46C61.051 44.5212 60.953 44.5557 60.8427 44.5557C60.654 44.5557 60.5156 44.4577 60.5156 44.3202C60.5156 44.2122 60.5732 44.1378 60.7044 44.0643C60.6418 43.9994 60.6159 43.9441 60.6159 43.8828C60.6159 43.7581 60.7212 43.6719 60.8831 43.6719C61.0315 43.6719 61.1295 43.7476 61.1295 43.8692C61.1295 43.9577 61.0782 44.0226 60.9616 44.0861L61.1186 44.2317C61.1367 44.1936 61.1517 44.1483 61.1612 44.0984L61.3146 44.146C61.2987 44.2195 61.2729 44.2857 61.2361 44.3406L61.3364 44.4336L61.2325 44.5548V44.5557ZM61.0165 44.3561L60.8096 44.1623C60.7311 44.2077 60.703 44.2467 60.703 44.2998C60.703 44.3624 60.762 44.4064 60.8564 44.4064C60.9153 44.4064 60.9702 44.3892 61.017 44.3561H61.0165ZM60.7901 43.8806C60.7901 43.9137 60.8037 43.9382 60.8564 43.9895C60.9407 43.9441 60.968 43.9123 60.968 43.8729C60.968 43.8311 60.9385 43.8016 60.8836 43.8016C60.8246 43.8016 60.7906 43.8348 60.7906 43.8801L60.7901 43.8806Z" fill="#E54F25"/>
<path d="M62.3022 44.5376V43.6797H62.4996V44.5376H62.3022ZM62.4787 44.3416L62.4688 44.1125L62.8794 43.6801H63.0999L62.731 44.0785L62.6185 44.196L62.4787 44.3416ZM62.8893 44.5376L62.584 44.1652L62.7138 44.0231L63.1216 44.5376H62.8889H62.8893Z" fill="#E54F25"/>
<path d="M63.4541 44.5376V43.6797H63.6537V44.5376H63.4541Z" fill="#E54F25"/>
<path d="M64.2789 44.5372V43.8412H64.0044V43.6797H64.7516V43.8412H64.4772V44.5372H64.2784H64.2789Z" fill="#E54F25"/>
<path d="M65.5017 44.5524C65.4355 44.5524 65.3742 44.5415 65.3175 44.5197C65.2608 44.498 65.2114 44.4671 65.1701 44.4272C65.1283 44.3873 65.0961 44.3401 65.0725 44.2861C65.0494 44.2321 65.0376 44.1731 65.0376 44.1082C65.0376 44.0434 65.0494 43.9844 65.0725 43.9304C65.0957 43.8764 65.1283 43.8297 65.1705 43.7893C65.2127 43.7489 65.2622 43.7185 65.3189 43.6967C65.3756 43.675 65.4373 43.6641 65.5031 43.6641C65.5775 43.6641 65.6447 43.6768 65.7054 43.7026C65.7658 43.7285 65.8166 43.7661 65.8574 43.8161L65.729 43.9336C65.7005 43.9 65.6678 43.8746 65.6315 43.8578C65.5952 43.8406 65.5557 43.8319 65.5131 43.8319C65.4732 43.8319 65.4364 43.8387 65.4028 43.8524C65.3693 43.866 65.3402 43.885 65.3157 43.9095C65.2912 43.934 65.2722 43.9631 65.2586 43.9966C65.2449 44.0302 65.2381 44.0674 65.2381 44.1082C65.2381 44.1491 65.2449 44.1863 65.2586 44.2198C65.2722 44.2534 65.2912 44.2825 65.3157 44.307C65.3402 44.3315 65.3693 44.3505 65.4028 44.3641C65.4364 44.3777 65.4732 44.3845 65.5131 44.3845C65.5557 44.3845 65.5947 44.3759 65.6315 44.3582C65.6678 44.3405 65.7005 44.3151 65.729 44.2816L65.8574 44.3991C65.8166 44.449 65.7658 44.4871 65.7054 44.5129C65.6451 44.5393 65.5771 44.552 65.5022 44.552L65.5017 44.5524Z" fill="#E54F25"/>
<path d="M66.434 44.5376H66.2344V43.6797H66.434V44.5376ZM66.8373 44.186H66.4181V44.0181H66.8373V44.186ZM66.8228 43.6801H67.0216V44.5381H66.8228V43.6801Z" fill="#E54F25"/>
<path d="M67.6666 44.3784H68.1335V44.5376H67.4692V43.6797H68.1176V43.8389H67.6666V44.3779V44.3784ZM67.6521 44.0245H68.065V44.1801H67.6521V44.0245Z" fill="#E54F25"/>
<path d="M68.5371 44.5376V43.6797H68.7014L69.2072 44.2972H69.1278V43.6797H69.3238V44.5376H69.1596L68.6537 43.9201H68.7331V44.5376H68.5371Z" fill="#E54F25"/>
</g>
</g>
<defs>
<filter id="filter0_d_1850_101052" x="0.875" y="0.65625" width="115.25" height="66.25" filterUnits="userSpaceOnUse" color-interpolation-filters="sRGB">
<feFlood flood-opacity="0" result="BackgroundImageFix"/>
<feColorMatrix in="SourceAlpha" type="matrix" values="0 0 0 0 0 0 0 0 0 0 0 0 0 0 0 0 0 0 127 0" result="hardAlpha"/>
<feOffset dy="0.78125"/>
<feGaussianBlur stdDeviation="1.5625"/>
<feComposite in2="hardAlpha" operator="out"/>
<feColorMatrix type="matrix" values="0 0 0 0 0 0 0 0 0 0 0 0 0 0 0 0 0 0 0.08 0"/>
<feBlend mode="normal" in2="BackgroundImageFix" result="effect1_dropShadow_1850_101052"/>
<feBlend mode="normal" in="SourceGraphic" in2="effect1_dropShadow_1850_101052" result="shape"/>
</filter>
<clipPath id="clip0_1850_101052">
<rect width="49" height="49" fill="white" transform="translate(34 8.5)"/>
</clipPath>
</defs>
</svg>
