<svg width="117" height="67" viewBox="0 0 117 67" fill="none" xmlns="http://www.w3.org/2000/svg">
<g filter="url(#filter0_d_1850_79481)">
<rect width="109" height="60" transform="translate(4 3)" fill="white"/>
<path d="M45.3301 40.4204L49.4725 24.9195C49.6451 24.242 50.0101 23.907 50.5708 23.907H51.0206V23.4531H47.5171V23.907H48.5764C48.8243 23.9143 48.9675 23.9683 49.0164 24.0621C49.0619 24.1595 49.0814 24.2423 49.0913 24.2963C49.1012 24.3467 49.1012 24.3901 49.1012 24.4441C49.1012 24.5594 47.7748 29.6003 45.1122 39.5775C42.3615 29.5175 40.9862 24.4225 40.9862 24.2857C40.9862 24.2101 40.9961 24.1379 41.0252 24.0442C41.0513 23.9468 41.2143 23.9073 41.5011 23.9073H42.2377V23.4534H38.1411V23.9073C38.7701 23.9073 39.1612 23.9686 39.3143 24.0945C39.4675 24.2423 39.5913 24.4944 39.6892 24.8549L44.5191 42.5428H45.9141L45.3306 40.4204H45.3301Z" fill="#E09271"/>
<path d="M54.7863 42.0886H53.6781C53.3913 42.0886 53.2088 42.0489 53.1339 41.9518C53.0655 41.858 53.0296 41.6274 53.0296 41.2563V24.7609C53.0296 24.3682 53.0655 24.1374 53.1339 24.0439C53.2088 23.9465 53.6292 23.907 54.4048 23.907H54.786V23.4531H50.8687V23.907H51.0413C51.3182 23.907 51.5007 23.9468 51.566 24.0439C51.6442 24.1376 51.6802 24.3682 51.6802 24.7502V41.2563C51.6802 41.6274 51.6541 41.8474 51.5858 41.9408C51.5204 42.0273 51.4913 42.0777 51.4913 42.0886L50.8785 42.1966V42.5425H54.7863V42.0886Z" fill="#E09271"/>
<path d="M58.7346 42.5428C60.2533 42.5428 61.5731 42.2761 62.7107 41.743C63.8482 41.2026 64.7931 40.4747 65.5462 39.5775C66.3023 38.6803 66.8726 37.6535 67.2441 36.5148C67.6223 35.3728 67.8144 34.2125 67.8144 33.0413C67.8144 32.5116 67.7752 31.9857 67.7003 31.4451C67.4234 29.5138 66.7128 27.8454 65.5396 26.4402C64.0079 24.6243 61.7068 23.4531 58.6759 23.4531L55.306 23.464L55.2961 23.9073C55.811 23.9073 56.0978 23.9361 56.1436 24.0011C56.1925 24.066 56.2317 24.1379 56.2413 24.2317C56.2608 24.3722 56.2674 30.04 56.2772 41.2566H57.6264V24.8261C57.6363 24.3901 57.6623 24.1379 57.7307 24.0551C57.7957 23.9577 57.9686 23.9146 58.2359 23.9073H59.1158C60.6151 24.0117 61.8959 24.509 62.9484 25.3846C64.0077 26.2603 64.8028 27.3159 65.3374 28.5517C65.9762 30.0181 66.3119 31.182 66.3509 32.0252C66.3901 32.8611 66.4063 33.3872 66.4063 33.6106C66.4063 34.8897 66.1879 36.1147 65.7578 37.2858C65.2591 38.6369 64.4575 39.7577 63.3493 40.6331C62.251 41.5088 60.817 41.9951 59.0669 42.0889L54.3608 42.0998V42.5431H58.7346V42.5428Z" fill="#E09271"/>
<path d="M71.6705 25.5755L67.5281 41.0764C67.3555 41.7539 66.9905 42.0889 66.4298 42.0889H65.98V42.5428H69.4835V42.0889H68.4242C68.1763 42.0816 68.0331 42.0276 67.9842 41.9339C67.9387 41.8365 67.9192 41.7536 67.9093 41.6996C67.8994 41.6492 67.8994 41.6059 67.8994 41.5519C67.8994 41.4366 69.2258 36.3956 71.8884 26.4184C74.6391 36.4785 76.0144 41.5734 76.0144 41.7103C76.0144 41.7858 76.0045 41.858 75.9751 41.9518C75.9491 42.0492 75.786 42.0886 75.4993 42.0886H74.7627V42.5425H78.8592V42.0886C78.2302 42.0886 77.8391 42.0273 77.686 41.9014C77.5329 41.7536 77.4091 41.5015 77.3111 41.141L72.4812 23.4531H71.0863L71.6697 25.5755H71.6705Z" fill="#E09271"/>
</g>
<defs>
<filter id="filter0_d_1850_79481" x="0.875" y="0.65625" width="115.25" height="66.25" filterUnits="userSpaceOnUse" color-interpolation-filters="sRGB">
<feFlood flood-opacity="0" result="BackgroundImageFix"/>
<feColorMatrix in="SourceAlpha" type="matrix" values="0 0 0 0 0 0 0 0 0 0 0 0 0 0 0 0 0 0 127 0" result="hardAlpha"/>
<feOffset dy="0.78125"/>
<feGaussianBlur stdDeviation="1.5625"/>
<feComposite in2="hardAlpha" operator="out"/>
<feColorMatrix type="matrix" values="0 0 0 0 0 0 0 0 0 0 0 0 0 0 0 0 0 0 0.08 0"/>
<feBlend mode="normal" in2="BackgroundImageFix" result="effect1_dropShadow_1850_79481"/>
<feBlend mode="normal" in="SourceGraphic" in2="effect1_dropShadow_1850_79481" result="shape"/>
</filter>
</defs>
</svg>
