<svg width="117" height="67" viewBox="0 0 117 67" fill="none" xmlns="http://www.w3.org/2000/svg">
<g filter="url(#filter0_d_1850_79507)">
<rect width="109" height="60" transform="translate(4 3)" fill="white"/>
<path d="M58.809 25.9426C58.8168 26.1773 58.6204 26.4639 58.3652 26.4713C58.11 26.4794 57.8938 26.2056 57.886 25.9708C57.8775 25.736 58.0781 25.5396 58.3326 25.5315C58.5878 25.5234 58.8005 25.7071 58.809 25.9419" fill="#231F20"/>
<path d="M80.3908 26.6109C80.2675 26.5759 80.137 26.6425 80.1002 26.7602C79.6188 28.2968 77.3411 27.9066 76.0268 27.5366C75.3186 27.3374 74.728 27.2231 74.168 27.1767C72.3432 27.0246 70.8871 27.7781 69.9585 29.3536C69.6083 29.9484 69.4013 30.5713 69.2014 31.1741C69.129 31.3927 69.0539 31.6194 68.9724 31.8421C68.81 32.2882 68.4244 32.8102 67.9303 32.9696C67.641 33.0632 67.3475 33.0188 67.059 32.8385C66.4515 32.4584 66.3976 31.5246 66.3579 30.8431L66.3565 30.8175C66.9399 30.0472 67.1306 28.9339 67.0824 27.9382C67.0519 27.3004 66.8244 27.2258 66.7499 27.2015C66.6663 27.174 66.4997 27.1565 66.3232 27.3509C66.3175 27.3569 66.3125 27.363 66.3069 27.3691C65.3442 27.3038 64.1383 27.8561 63.5612 28.4596C63.1621 28.8767 62.9126 29.3738 62.6716 29.8542C62.5759 30.0439 62.4773 30.2403 62.3724 30.4253C61.7975 31.4358 61.175 32.128 60.6639 32.3238C60.4668 32.3992 60.2676 32.4422 60.0734 32.4496C59.6707 32.4651 59.3184 32.3151 59.1093 32.0365C58.8052 31.6316 58.662 31.0792 58.5705 30.6433C58.5131 30.3675 58.4698 30.0802 58.4386 29.766C58.506 29.5245 58.5478 29.3321 58.5684 29.0058C58.5854 28.7267 58.623 27.7989 58.3777 27.5971C58.3103 27.5419 58.2231 27.5197 58.1374 27.5359C57.9077 27.5803 57.9077 27.8319 57.9077 27.9678V27.9799C57.8935 28.3109 57.9013 28.4972 57.9119 28.7549C57.9148 28.8303 57.9183 28.9117 57.9219 29.0058C57.9304 29.2588 57.9452 29.4983 57.9658 29.7263C57.958 29.7546 57.9495 29.7835 57.941 29.8138L57.9063 29.9342C57.8375 30.1764 57.7631 30.3459 57.5865 30.496C57.349 30.6978 57.142 30.8296 56.9343 30.9104C55.5909 31.4338 54.4397 31.3544 53.55 30.9824C53.9229 30.4186 54.1278 29.8118 54.1433 29.2144C54.1526 28.8632 54.0916 28.506 53.9661 28.1817C53.8626 27.914 53.718 27.6711 53.5365 27.4605C53.4422 27.3509 53.3387 27.2379 53.197 27.1565C53.0715 27.0845 52.9375 27.0441 52.8191 27.0091L52.7773 26.9964C52.5398 26.9244 52.2945 26.9156 52.0046 26.9688C51.8954 26.989 51.7841 27.0132 51.6806 27.0522C50.0359 27.0623 48.4352 28.6318 47.0181 30.0217C45.8746 31.1431 44.7942 32.2027 43.9563 32.2121C43.9478 32.2121 43.9393 32.2121 43.9308 32.2121C42.5172 32.2121 41.7863 30.9272 41.1405 29.7923C41.0561 29.6436 40.976 29.503 40.8945 29.3658C40.0679 27.9665 38.9804 26.7098 36.6439 26.9869C36.5155 27.0024 36.4248 27.1127 36.4411 27.2345C36.4574 27.3563 36.5737 27.4424 36.702 27.4269C38.6565 27.1948 39.5993 28.0801 40.4869 29.5824C40.5663 29.7169 40.6457 29.8562 40.7293 30.0028C41.4063 31.1929 42.2478 32.6763 43.962 32.6555C44.9948 32.644 46.088 31.5717 47.3541 30.3298C47.9836 29.7122 48.6507 29.0576 49.3305 28.5336C48.7492 29.176 48.3296 29.9571 48.1892 30.7563C48.0985 31.2723 48.0921 31.9935 48.5763 32.5007C49.0335 32.9791 49.8445 33.1345 50.7469 32.9165C51.733 32.6783 52.6397 32.1153 53.2714 31.3564C53.6173 31.5078 53.9881 31.6127 54.3801 31.6679C55.2507 31.791 56.2205 31.6679 57.1116 31.3207C57.3696 31.2205 57.6199 31.0631 57.8985 30.827C57.9743 30.7624 58.0374 30.6958 58.0913 30.6258C58.0984 30.6608 58.1047 30.6958 58.1118 30.7301C58.2118 31.2097 58.3727 31.8206 58.7286 32.2942C59.0313 32.6972 59.5282 32.9145 60.0925 32.8929C60.3407 32.8829 60.5916 32.8304 60.839 32.7349C61.6323 32.4301 62.3341 31.425 62.7836 30.6352C62.7928 30.6184 62.8027 30.6016 62.8119 30.5848C62.8119 30.6433 62.8141 30.7025 62.8204 30.7617C62.8623 31.1431 63.031 31.4277 63.3223 31.6094C63.9129 31.9767 64.8018 31.7674 65.1563 31.6605C65.447 31.573 65.6993 31.4378 65.917 31.2669C65.9751 31.9753 66.1282 32.788 66.801 33.2091C67.0689 33.3766 67.3504 33.4614 67.6325 33.4614C67.7821 33.4614 67.9317 33.4379 68.0791 33.3901C68.6456 33.2071 69.1687 32.6568 69.4126 31.9874C69.4963 31.7587 69.5721 31.5293 69.6451 31.3073C69.8465 30.6991 70.0372 30.1246 70.364 29.5703C71.1962 28.1582 72.4964 27.4834 74.1247 27.6186C74.6529 27.6624 75.2136 27.7714 75.8914 27.9624C76.5684 28.1528 77.5651 28.3654 78.4668 28.2981C79.5635 28.216 80.2824 27.7276 80.5454 26.8867C80.5822 26.7696 80.512 26.6459 80.388 26.6109M50.6335 32.4853C50.3592 32.5512 49.4262 32.7268 48.9243 32.2014C48.5465 31.8065 48.5919 31.1714 48.6521 30.8283C48.8726 29.575 49.848 28.3714 51.0291 27.7882C50.7618 28.5497 51.1829 29.4828 51.7642 30.1993C52.0754 30.5834 52.4427 30.8989 52.8545 31.1411C52.2888 31.7937 51.4949 32.2767 50.6335 32.4853ZM53.1346 30.7752C52.7284 30.5417 52.3916 30.2464 52.1336 29.9288C51.9202 29.6658 50.8994 28.3143 51.7394 27.5278C51.7423 27.5251 51.7458 27.5224 51.7486 27.5197C51.7876 27.5097 51.8266 27.5002 51.8663 27.4922C51.9145 27.4821 51.9564 27.4579 51.9875 27.4249C52.0287 27.4155 52.0662 27.4087 52.0939 27.4034C52.3066 27.3643 52.4732 27.3691 52.6348 27.4182L52.678 27.4309C52.7808 27.4619 52.8772 27.4908 52.9552 27.5352C53.0332 27.5796 53.1062 27.661 53.1743 27.7404C53.3224 27.9126 53.4408 28.1124 53.5266 28.3338C53.6322 28.6062 53.6833 28.9069 53.6755 29.2023C53.6613 29.7297 53.4741 30.2706 53.1331 30.7758M65.8645 28.954V29.0166C65.8595 29.5568 65.8553 30.1138 65.8808 30.6668C65.6547 30.9292 65.3697 31.1304 65.0159 31.2367C64.4098 31.4196 63.8725 31.4196 63.5797 31.2373C63.4088 31.131 63.3131 30.9608 63.2862 30.7153C63.2578 30.4569 63.3301 30.1878 63.3961 29.9827C63.6073 29.3247 63.932 28.8047 64.3623 28.4367C64.7416 28.1124 65.4633 27.8561 66.0346 27.8151C65.8872 28.1804 65.8673 28.5847 65.8645 28.9534M66.3317 29.0206V28.9581C66.3352 28.5672 66.3579 28.1326 66.5592 27.7996C66.5727 27.7922 66.5855 27.7841 66.5975 27.774C66.606 27.8285 66.6131 27.8911 66.6159 27.9577C66.6464 28.5847 66.5685 29.2965 66.3288 29.904C66.3267 29.6073 66.3288 29.3113 66.331 29.0206" fill="#231F20"/>
<path d="M42.9748 36.9232L43.1584 37.008C42.9762 37.3457 42.7876 37.781 42.5912 38.3118C42.716 38.3118 42.8018 38.3171 42.8479 38.3272L42.8316 38.5479C42.7741 38.5661 42.6628 38.5748 42.4969 38.5748C42.4395 38.7242 42.4055 38.8459 42.3949 38.9388C42.3842 39.0316 42.375 39.1217 42.3686 39.2099C42.3615 39.2973 42.3573 39.3572 42.3545 39.3882H42.1262C42.1127 39.3444 42.1056 39.2993 42.1056 39.2529C42.1056 39.0928 42.1503 38.8674 42.2403 38.5755C42.0773 38.5755 41.8299 38.5936 41.4981 38.6293C41.4846 38.6703 41.4506 38.747 41.396 38.8594C41.3414 38.9717 41.2883 39.0693 41.2351 39.1513C41.1819 39.2341 41.111 39.3242 41.021 39.4225C40.931 39.5207 40.8374 39.6028 40.7396 39.67C40.4595 39.8611 40.1873 39.9566 39.9243 39.9566C39.8158 39.9566 39.7258 39.9243 39.6549 39.8597C39.584 39.7952 39.5486 39.7138 39.5486 39.6162C39.5486 39.3686 39.6989 39.1433 39.9995 38.9408C40.3 38.7383 40.7162 38.5762 41.2493 38.4551C41.4506 37.898 41.7334 37.5004 42.0971 37.263C41.703 37.2683 41.3783 37.3316 41.1224 37.4527C40.8672 37.5738 40.7388 37.7285 40.7388 37.9169C40.7388 37.9761 40.7481 38.0272 40.7672 38.0696C40.7863 38.112 40.831 38.1786 40.9019 38.2687L40.763 38.3925C40.6431 38.3205 40.5524 38.2324 40.49 38.1294C40.4276 38.0265 40.3964 37.927 40.3964 37.8314C40.3964 37.6713 40.4865 37.524 40.6658 37.3881C40.8452 37.2529 41.0678 37.1479 41.3343 37.0746C41.6009 37.0013 41.871 36.9643 42.146 36.9643C42.285 36.9643 42.3807 36.9737 42.4339 36.9932C42.487 37.0127 42.5133 37.049 42.5133 37.1015C42.5133 37.154 42.4736 37.2038 42.3949 37.2502C42.0553 37.4513 41.7817 37.8334 41.5754 38.3959C41.7356 38.3703 41.9844 38.342 42.3218 38.3111C42.4523 37.9498 42.5579 37.6821 42.638 37.5078C42.7181 37.3336 42.8301 37.1385 42.9748 36.9219V36.9232ZM40.2525 39.6902C40.3518 39.6902 40.4688 39.6485 40.6034 39.5644C40.7381 39.4803 40.8509 39.3707 40.9416 39.2354C41.0323 39.1002 41.111 38.9139 41.1762 38.6764C40.8147 38.7329 40.5233 38.8331 40.3014 38.9764C40.0796 39.1197 39.969 39.2819 39.969 39.4622C39.969 39.5341 39.9917 39.5906 40.0363 39.6303C40.081 39.67 40.1533 39.6902 40.2525 39.6902Z" fill="#231F20"/>
<path d="M44.4184 38.9317L44.512 39.0016C44.4276 39.1126 44.3121 39.2048 44.1653 39.2781C44.0186 39.3515 43.8761 39.3885 43.7372 39.3885C43.5982 39.3885 43.4869 39.3494 43.4026 39.2721C43.3182 39.1947 43.2764 39.0924 43.2764 38.9666C43.2764 38.7292 43.4089 38.4957 43.6741 38.2663C43.9392 38.0369 44.2079 37.9219 44.4794 37.9219C44.6587 37.9219 44.7488 37.9891 44.7488 38.123C44.7488 38.2569 44.6545 38.4029 44.4652 38.5448C44.2759 38.6868 44.0108 38.8159 43.6677 38.9317C43.6925 38.9909 43.7301 39.0373 43.7818 39.0709C43.8336 39.1046 43.8867 39.1214 43.9406 39.1214C44.0576 39.1214 44.2164 39.0581 44.4177 38.9317H44.4184ZM43.6478 38.8159C43.8683 38.744 44.0569 38.6531 44.215 38.5448C44.3723 38.4365 44.4517 38.337 44.4517 38.2468C44.4517 38.2132 44.4383 38.1836 44.4106 38.158C44.3837 38.1324 44.3525 38.119 44.317 38.119C44.1894 38.119 44.0512 38.1943 43.903 38.345C43.7549 38.4957 43.6698 38.6525 43.6485 38.8153L43.6478 38.8159Z" fill="#231F20"/>
<path d="M46.4931 38.9157L46.5788 38.9776C46.5193 39.0913 46.4371 39.1868 46.3321 39.2642C46.2272 39.3415 46.1329 39.3806 46.0486 39.3806C45.9642 39.3806 45.8976 39.357 45.8487 39.3106C45.7997 39.2642 45.7749 39.2063 45.7749 39.1364C45.7749 39.0664 45.8217 38.9446 45.9153 38.7704C46.0089 38.5961 46.0557 38.4676 46.0557 38.3856C46.0557 38.3492 46.0401 38.3163 46.0089 38.2867C45.9777 38.2571 45.9401 38.2423 45.8969 38.2423C45.7579 38.2423 45.6183 38.3425 45.4772 38.5423C45.3361 38.7421 45.178 39.0307 45.0043 39.4075L44.7598 39.3261C44.8115 39.0267 44.8852 38.7347 44.9817 38.4495C45.0781 38.1642 45.1674 37.9597 45.2489 37.8359L45.4162 37.8864C45.3404 38.0694 45.2432 38.3856 45.127 38.8343C45.502 38.2255 45.8472 37.9214 46.1627 37.9214C46.2308 37.9214 46.2868 37.9436 46.3321 37.9873C46.3768 38.031 46.3995 38.0828 46.3995 38.142C46.3995 38.2012 46.391 38.2551 46.3747 38.3028C46.3584 38.3506 46.3073 38.4616 46.2215 38.6358C46.1358 38.8101 46.0932 38.9191 46.0932 38.9628C46.0932 39.0065 46.1067 39.0408 46.1343 39.065C46.1613 39.0893 46.1875 39.102 46.2116 39.102C46.2357 39.102 46.2563 39.098 46.2726 39.0906C46.2889 39.0832 46.3073 39.0711 46.3279 39.0556C46.3484 39.0401 46.3669 39.026 46.3832 39.0132C46.3995 39.0005 46.4193 38.983 46.442 38.9608C46.4654 38.9386 46.4817 38.9238 46.4931 38.9164V38.9157Z" fill="#231F20"/>
<path d="M48.3407 38.9157L48.4265 38.9776C48.3669 39.0913 48.2847 39.1868 48.1798 39.2642C48.0749 39.3415 47.9806 39.3806 47.8962 39.3806C47.8119 39.3806 47.7452 39.357 47.6963 39.3106C47.6474 39.2642 47.6226 39.2063 47.6226 39.1364C47.6226 39.0664 47.6694 38.9446 47.7629 38.7704C47.8565 38.5961 47.9033 38.4676 47.9033 38.3856C47.9033 38.3492 47.8877 38.3163 47.8565 38.2867C47.8253 38.2571 47.7878 38.2423 47.7445 38.2423C47.6056 38.2423 47.4659 38.3425 47.3248 38.5423C47.1838 38.7421 47.0257 39.0307 46.852 39.4075L46.6074 39.3261C46.6592 39.0267 46.7329 38.7347 46.8293 38.4495C46.9257 38.1642 47.015 37.9597 47.0966 37.8359L47.2639 37.8864C47.188 38.0694 47.0909 38.3856 46.9746 38.8343C47.3497 38.2255 47.6949 37.9214 48.0104 37.9214C48.0784 37.9214 48.1344 37.9436 48.1798 37.9873C48.2244 38.031 48.2471 38.0828 48.2471 38.142C48.2471 38.2012 48.2386 38.2551 48.2223 38.3028C48.206 38.3506 48.155 38.4616 48.0692 38.6358C47.9834 38.8101 47.9409 38.9191 47.9409 38.9628C47.9409 39.0065 47.9544 39.0408 47.982 39.065C48.0089 39.0893 48.0352 39.102 48.0593 39.102C48.0834 39.102 48.1039 39.098 48.1202 39.0906C48.1365 39.0832 48.155 39.0711 48.1755 39.0556C48.1961 39.0401 48.2145 39.026 48.2308 39.0132C48.2471 39.0005 48.267 38.983 48.2897 38.9608C48.3131 38.9386 48.3294 38.9238 48.3407 38.9164V38.9157Z" fill="#231F20"/>
<path d="M50.1143 38.9588L50.2 39.0248C50.154 39.1331 50.0809 39.2246 49.9817 39.2992C49.8824 39.3739 49.7924 39.4116 49.7123 39.4116C49.6322 39.4116 49.5691 39.3854 49.523 39.3322C49.4769 39.2791 49.4536 39.2104 49.4536 39.125C49.4536 39.0396 49.4684 38.9306 49.4982 38.796C49.3706 38.9871 49.2331 39.1364 49.0863 39.2447C48.9396 39.3531 48.8155 39.4076 48.7156 39.4076C48.5632 39.4076 48.4873 39.3046 48.4873 39.0981C48.4873 38.9225 48.5497 38.6985 48.6752 38.4247C48.7999 38.1515 48.8914 37.9928 48.9481 37.9484L49.1438 38.0298C49.0325 38.2 48.9481 38.3675 48.8907 38.533C48.8333 38.6985 48.8049 38.8081 48.8049 38.864C48.8049 38.9198 48.8233 38.9642 48.8602 38.9972C48.8971 39.0308 48.9396 39.0476 48.9885 39.0476C49.097 39.0476 49.2324 38.9528 49.394 38.7631C49.5556 38.5734 49.7208 38.2901 49.8895 37.9141L50.0972 38.0029C50.0916 38.0237 50.0299 38.1731 49.9115 38.4516C49.7931 38.7301 49.7343 38.8969 49.7343 38.9528C49.7343 39.0086 49.747 39.0503 49.7733 39.0786C49.7988 39.1068 49.825 39.121 49.8505 39.121C49.8761 39.121 49.8959 39.1196 49.9094 39.1169C49.9229 39.1142 49.9363 39.1089 49.9505 39.1015C49.964 39.0934 49.9753 39.0873 49.9852 39.0819C49.9945 39.0766 50.0065 39.0678 50.02 39.055L50.0526 39.0281C50.0583 39.0201 50.0682 39.0079 50.0831 38.9911C50.098 38.9743 50.1079 38.9635 50.1135 38.9582L50.1143 38.9588Z" fill="#231F20"/>
<path d="M51.3709 38.0178C51.4389 38.0178 51.4942 38.04 51.5382 38.0837C51.5814 38.1274 51.6034 38.1846 51.6034 38.2539C51.6034 38.3932 51.519 38.5405 51.3503 38.6952L51.2525 38.6219C51.2907 38.5418 51.3099 38.484 51.3099 38.4477C51.3099 38.3777 51.2688 38.3434 51.1872 38.3434C51.1057 38.3434 51.0285 38.3925 50.9547 38.4907C50.881 38.5889 50.7952 38.7403 50.696 38.9455C50.5967 39.1507 50.5216 39.296 50.4698 39.3808L50.2373 39.2839C50.3869 38.9616 50.4727 38.7719 50.4939 38.7147C50.5677 38.5136 50.6038 38.2579 50.6038 37.9485L50.8321 37.8906C50.8243 38.0581 50.8115 38.188 50.7952 38.2795C50.7789 38.371 50.7392 38.5203 50.6768 38.7262C50.9512 38.2539 51.1823 38.0178 51.3701 38.0178H51.3709Z" fill="#231F20"/>
<path d="M54.6454 39.6391L54.666 39.8207C54.5901 39.8335 54.5235 39.8402 54.4661 39.8402C54.3385 39.8402 54.2158 39.7595 54.0988 39.5987C53.9819 39.4373 53.8904 39.2482 53.8238 39.0316C53.7571 38.815 53.716 38.6058 53.6997 38.4046C53.5636 38.7403 53.4353 38.9832 53.3141 39.1339C53.1929 39.2845 53.0688 39.3599 52.9412 39.3599C52.876 39.3599 52.8242 39.335 52.7859 39.2845C52.7477 39.2341 52.7285 39.1682 52.7285 39.0854C52.7285 38.8944 52.8214 38.6522 53.0078 38.3582C53.1943 38.0642 53.4119 37.8227 53.6622 37.6343C53.6678 37.6188 53.6912 37.5247 53.7338 37.3518C53.7756 37.1789 53.8011 37.0833 53.8089 37.0652L54.0457 37.0457C54.0457 37.0894 54.0336 37.1809 54.0088 37.3201C54.376 37.0544 54.6773 36.9219 54.9141 36.9219C55.0254 36.9219 55.114 36.9508 55.1792 37.0087C55.2444 37.0665 55.2771 37.1446 55.2771 37.2428C55.2771 37.4877 55.1466 37.7352 54.8857 37.9841C54.6249 38.2331 54.3463 38.3797 54.0499 38.4234C54.0719 38.7975 54.14 39.0901 54.2555 39.302C54.3711 39.5133 54.5008 39.6256 54.6447 39.6384L54.6454 39.6391ZM53.4587 38.3467C53.5324 38.1611 53.582 38.0124 53.6097 37.9014C53.4601 38.0332 53.3219 38.2082 53.1957 38.4275C53.0695 38.6468 53.0064 38.8089 53.0064 38.9152C53.0064 38.9697 53.0298 38.9966 53.0759 38.9966C53.1574 38.9966 53.285 38.78 53.4594 38.3467H53.4587ZM53.7359 38.2923C54.0237 38.2923 54.2825 38.1967 54.5107 38.0057C54.739 37.8146 54.8531 37.6249 54.8531 37.4365C54.8531 37.3666 54.8347 37.3127 54.7978 37.2737C54.761 37.2347 54.7035 37.2159 54.6249 37.2159C54.5462 37.2159 54.432 37.2576 54.2825 37.3417C54.1329 37.4258 54.0258 37.4944 53.9606 37.5489C53.8762 37.8664 53.8018 38.114 53.7366 38.2916L53.7359 38.2923Z" fill="#231F20"/>
<path d="M56.117 38.2365C56.1879 38.3475 56.2233 38.4699 56.2233 38.6038C56.2233 38.813 56.1475 38.9994 55.9951 39.1629C55.8426 39.327 55.6633 39.4084 55.457 39.4084C55.2996 39.4084 55.1763 39.3654 55.0876 39.2786C54.999 39.1925 54.9551 39.0727 54.9551 38.9207C54.9551 38.6758 55.0557 38.4558 55.2571 38.2607C55.4584 38.0663 55.6838 37.9688 55.9341 37.9688C55.9802 37.9688 56.0128 37.9701 56.0319 37.9728L56.044 38.1006C55.8263 38.1006 55.6456 38.1598 55.5017 38.2789C55.3577 38.3973 55.2854 38.55 55.2854 38.7357C55.2854 38.8467 55.3138 38.9362 55.3712 39.0048C55.4286 39.0734 55.5116 39.107 55.6222 39.107C55.7328 39.107 55.82 39.0606 55.8852 38.9678C55.9504 38.8749 55.983 38.7659 55.983 38.6408C55.983 38.5157 55.9575 38.4013 55.9057 38.2984L56.1177 38.2365H56.117Z" fill="#231F20"/>
<path d="M58.009 38.9977L58.1026 39.0637C58.0643 39.141 57.9948 39.2144 57.8928 39.2843C57.7907 39.3543 57.6978 39.3886 57.6135 39.3886C57.4532 39.3886 57.3731 39.3086 57.3731 39.1484C57.3731 39.0738 57.3937 38.985 57.4341 38.8814L57.2831 39.0287C57.1364 39.1706 57.0095 39.2662 56.9017 39.3153C56.794 39.3644 56.689 39.3886 56.5855 39.3886C56.482 39.3886 56.4041 39.361 56.3509 39.3052C56.2977 39.25 56.2715 39.1733 56.2715 39.0751C56.2715 38.8948 56.3452 38.7159 56.492 38.5389C56.6387 38.362 56.8266 38.2187 57.0548 38.1077C57.2831 37.9967 57.5114 37.9402 57.7396 37.9375L57.7481 38.0653L57.5766 38.1003C57.3292 38.1521 57.1108 38.255 56.9223 38.4098C56.733 38.5645 56.6387 38.7186 56.6387 38.8719C56.6387 39.0253 56.7039 39.102 56.8344 39.102C56.957 39.102 57.1073 39.0206 57.2866 38.8585C57.466 38.6957 57.6156 38.5053 57.7354 38.286L57.9069 38.3829C57.7382 38.7051 57.6539 38.9103 57.6539 38.9984C57.6539 39.0347 57.6666 39.065 57.6929 39.0892C57.7184 39.1141 57.7446 39.1262 57.7701 39.1262C57.7956 39.1262 57.8127 39.1249 57.8212 39.1222C57.8297 39.1195 57.8375 39.1161 57.846 39.1128C57.8545 39.1087 57.8644 39.1034 57.8765 39.0953C57.8885 39.0879 57.8999 39.0798 57.9091 39.0724C57.9183 39.0643 57.9339 39.0529 57.9559 39.0374C57.9778 39.022 57.9956 39.0092 58.009 38.9984V38.9977Z" fill="#231F20"/>
<path d="M60.4273 36.5234L60.6351 36.5934L60.5783 36.6943C60.2792 37.2231 60.0254 37.735 59.8156 38.2309C59.6766 38.5558 59.6078 38.8 59.6078 38.9621C59.6078 39.0032 59.6185 39.0361 59.6405 39.061C59.6624 39.0852 59.6965 39.098 59.7447 39.098C59.7929 39.098 59.8475 39.0684 59.9098 39.0092L59.9836 39.0752C59.9481 39.1498 59.8872 39.2191 59.8 39.2824C59.7128 39.3456 59.6284 39.3772 59.5469 39.3772C59.3895 39.3772 59.3101 39.2898 59.3101 39.1142C59.3101 39.0112 59.3399 38.8525 59.4001 38.6379C59.079 39.1693 58.7657 39.4351 58.458 39.4351C58.3516 39.4351 58.268 39.4041 58.2049 39.3422C58.1425 39.2803 58.1113 39.1962 58.1113 39.0906C58.1113 38.9231 58.1822 38.7489 58.3233 38.5686C58.4644 38.3883 58.6388 38.2403 58.8451 38.1252C59.0513 38.0102 59.2449 37.953 59.4242 37.953L59.4363 38.0882C59.2023 38.1165 58.984 38.2127 58.782 38.3768C58.5792 38.541 58.4785 38.7078 58.4785 38.878C58.4785 38.95 58.4991 39.0079 58.5395 39.0503C58.5799 39.0926 58.6331 39.1142 58.6983 39.1142C58.8316 39.1142 59.0053 38.9789 59.2201 38.7078C59.2988 38.6096 59.3895 38.467 59.4916 38.2786C59.5937 38.0903 59.6752 37.9389 59.7362 37.8239C59.7971 37.7088 59.8574 37.5971 59.9155 37.4875C59.9736 37.3778 60.0509 37.2332 60.1459 37.0542C60.2409 36.8746 60.3352 36.699 60.4273 36.5261V36.5234Z" fill="#231F20"/>
<path d="M60.3679 39.1422C60.4048 39.1099 60.4494 39.0938 60.5026 39.0938C60.5558 39.0938 60.5969 39.1086 60.6266 39.1382C60.6564 39.1678 60.6713 39.2074 60.6713 39.2559C60.6713 39.3696 60.5678 39.4974 60.3615 39.6387L60.2715 39.5149C60.3799 39.4321 60.436 39.3884 60.4388 39.383C60.3544 39.3575 60.3126 39.3158 60.3126 39.2592C60.3126 39.2128 60.331 39.1738 60.3679 39.1415V39.1422Z" fill="#231F20"/>
<path d="M64.6794 38.6898L64.6752 38.8405L64.4512 38.8486C64.4186 39.0289 64.3661 39.1749 64.2945 39.2859C64.2222 39.3969 64.1024 39.5166 63.9337 39.6458C63.765 39.775 63.5629 39.8826 63.3283 39.9687C63.0929 40.0548 62.8965 40.0986 62.7392 40.0986C62.5818 40.0986 62.462 40.0683 62.3804 40.0077C62.2989 39.9472 62.2578 39.8678 62.2578 39.7696C62.2578 39.6202 62.3507 39.4696 62.5371 39.3189C62.7236 39.1682 62.949 39.0417 63.2141 38.9394C63.4793 38.8378 63.7423 38.7686 64.0031 38.7322C63.962 38.6676 63.9004 38.6145 63.8174 38.5735C63.7345 38.5324 63.5941 38.486 63.3956 38.4342C63.2871 38.4059 63.2326 38.3595 63.2326 38.2949C63.2326 38.2559 63.2496 38.2209 63.2836 38.1887C63.3176 38.1564 63.3743 38.118 63.4552 38.0723C63.5353 38.0272 63.6111 37.9808 63.6834 37.933C63.7557 37.8852 63.8358 37.8281 63.9237 37.7608C64.0117 37.6935 64.0861 37.6242 64.1456 37.5516C64.2052 37.4796 64.2357 37.4163 64.2357 37.3618C64.2357 37.2717 64.1882 37.2266 64.0932 37.2266C64.0195 37.2266 63.9195 37.2596 63.7933 37.3255C63.6671 37.3914 63.5424 37.4755 63.4204 37.5791L63.2453 38.1052C63.1227 38.4739 62.988 38.7605 62.8398 38.9643C62.6917 39.1682 62.5506 39.2697 62.418 39.2697C62.2769 39.2697 62.2061 39.187 62.2061 39.0222C62.2061 38.8574 62.2904 38.6461 62.4591 38.3898C62.6279 38.1328 62.8611 37.8691 63.1602 37.5987C63.1602 37.596 63.1673 37.5724 63.1829 37.5273C63.1985 37.4823 63.212 37.4365 63.2255 37.3901C63.2715 37.2508 63.307 37.162 63.3318 37.123L63.5317 37.154C63.5317 37.2031 63.5211 37.2609 63.4991 37.3282C63.6515 37.2199 63.8124 37.125 63.9826 37.0436C64.1527 36.9622 64.2775 36.9219 64.3576 36.9219C64.4377 36.9219 64.5022 36.9454 64.5511 36.9932C64.6 37.041 64.6249 37.1109 64.6249 37.2024C64.6249 37.2939 64.5795 37.3989 64.488 37.5179C64.3966 37.6363 64.2832 37.744 64.1478 37.8388C63.9004 38.0144 63.6898 38.1409 63.5154 38.2183C63.7983 38.2593 64.0046 38.3145 64.135 38.3824C64.2654 38.451 64.3604 38.5533 64.4207 38.6898H64.6816H64.6794ZM62.698 38.7786C62.888 38.4873 63.0149 38.188 63.0773 37.8812C62.9306 38.0332 62.7973 38.2075 62.6775 38.4033C62.5577 38.5997 62.4981 38.741 62.4981 38.8291C62.4981 38.8836 62.518 38.9105 62.557 38.9105C62.596 38.9105 62.6435 38.8668 62.6973 38.7786H62.698ZM63.6437 39.6068C63.777 39.522 63.8826 39.4265 63.962 39.3202C64.0407 39.2146 64.0804 39.115 64.0804 39.0222C64.0804 38.9785 64.0733 38.9347 64.0599 38.8903C63.6522 38.9367 63.3162 39.0383 63.0525 39.1937C62.7888 39.3498 62.6569 39.4992 62.6569 39.6404C62.6569 39.7023 62.6824 39.7521 62.7342 39.7891C62.7859 39.8268 62.8568 39.8449 62.9462 39.8449C63.1666 39.8449 63.3984 39.7649 63.6437 39.6048V39.6068Z" fill="#231F20"/>
<path d="M66.5471 38.9977L66.6407 39.0637C66.6024 39.141 66.5329 39.2144 66.4309 39.2843C66.3288 39.3543 66.2359 39.3886 66.1515 39.3886C65.9913 39.3886 65.9112 39.3086 65.9112 39.1484C65.9112 39.0738 65.9318 38.985 65.9722 38.8814L65.8212 39.0287C65.6744 39.1706 65.5475 39.2662 65.4398 39.3153C65.332 39.3644 65.2271 39.3886 65.1236 39.3886C65.0201 39.3886 64.9421 39.361 64.889 39.3052C64.8358 39.25 64.8096 39.1733 64.8096 39.0751C64.8096 38.8948 64.8833 38.7159 65.03 38.5389C65.1768 38.362 65.3646 38.2187 65.5929 38.1077C65.8212 37.9967 66.0495 37.9402 66.2777 37.9375L66.2855 38.0653L66.114 38.1003C65.8666 38.1521 65.6482 38.255 65.4596 38.4098C65.2711 38.5645 65.1761 38.7186 65.1761 38.8719C65.1761 39.0253 65.2413 39.102 65.3717 39.102C65.4944 39.102 65.6447 39.0206 65.824 38.8585C66.0034 38.6957 66.153 38.5053 66.2728 38.286L66.4443 38.3829C66.2756 38.7051 66.1912 38.9103 66.1912 38.9984C66.1912 39.0347 66.204 39.065 66.2302 39.0892C66.2558 39.1141 66.282 39.1262 66.3075 39.1262C66.333 39.1262 66.35 39.1249 66.3585 39.1222C66.3663 39.1195 66.3748 39.1161 66.3826 39.1128C66.3912 39.1087 66.4011 39.1034 66.4131 39.0953C66.4252 39.0879 66.4365 39.0798 66.4457 39.0724C66.455 39.0643 66.4706 39.0529 66.4925 39.0374C66.5145 39.022 66.5322 39.0092 66.5457 38.9984L66.5471 38.9977Z" fill="#231F20"/>
<path d="M68.3739 38.9157L68.4597 38.9776C68.4001 39.0913 68.3179 39.1868 68.213 39.2642C68.1081 39.3415 68.0138 39.3806 67.9294 39.3806C67.8451 39.3806 67.7784 39.357 67.7295 39.3106C67.6806 39.2642 67.6558 39.2063 67.6558 39.1364C67.6558 39.0664 67.7026 38.9446 67.7962 38.7704C67.8897 38.5961 67.9365 38.4676 67.9365 38.3856C67.9365 38.3492 67.9209 38.3163 67.8897 38.2867C67.8585 38.2571 67.821 38.2423 67.7777 38.2423C67.6388 38.2423 67.4991 38.3425 67.358 38.5423C67.217 38.7421 67.0589 39.0307 66.8852 39.4075L66.6406 39.3261C66.6924 39.0267 66.7661 38.7347 66.8625 38.4495C66.9589 38.1642 67.0483 37.9597 67.1298 37.8359L67.2971 37.8864C67.2212 38.0694 67.1241 38.3856 67.0078 38.8343C67.3829 38.2255 67.7281 37.9214 68.0436 37.9214C68.1116 37.9214 68.1676 37.9436 68.213 37.9873C68.2577 38.031 68.2803 38.0828 68.2803 38.142C68.2803 38.2012 68.2725 38.2551 68.2562 38.3028C68.2399 38.3506 68.1889 38.4616 68.1031 38.6358C68.0173 38.8101 67.9748 38.9191 67.9748 38.9628C67.9748 39.0065 67.9883 39.0408 68.0159 39.065C68.0429 39.0893 68.0691 39.102 68.0932 39.102C68.1173 39.102 68.1378 39.098 68.1542 39.0906C68.1705 39.0832 68.1889 39.0711 68.2094 39.0556C68.23 39.0401 68.2484 39.026 68.2647 39.0132C68.281 39.0005 68.3009 38.983 68.3236 38.9608C68.3463 38.9386 68.364 38.9238 68.3746 38.9164L68.3739 38.9157Z" fill="#231F20"/>
<path d="M70.27 39.2484L70.2743 39.3412C70.2473 39.3567 70.1233 39.4031 69.9035 39.4805C69.8163 39.9729 69.6887 40.3295 69.52 40.5488C69.3513 40.7681 69.145 40.8778 68.9004 40.8778C68.7863 40.8778 68.6948 40.8428 68.6275 40.7735C68.5594 40.7035 68.5254 40.6134 68.5254 40.5024C68.5254 40.2804 68.6324 40.0732 68.8472 39.8814C69.062 39.689 69.3484 39.5377 69.7079 39.4266C69.749 39.2538 69.822 39.0102 69.9283 38.6954C69.7461 38.9584 69.581 39.1367 69.4328 39.2295C69.2846 39.3224 69.1506 39.3688 69.0308 39.3688C68.911 39.3688 68.821 39.3378 68.7593 39.276C68.6984 39.2141 68.6679 39.1313 68.6679 39.0284C68.6679 38.8582 68.7423 38.6846 68.8919 38.5077C69.0415 38.3308 69.2293 38.1868 69.4569 38.0744C69.6838 37.9621 69.9035 37.9062 70.1155 37.9062L70.1481 38.0415C69.8461 38.0724 69.5873 38.1733 69.3711 38.3435C69.1549 38.5137 69.0471 38.6779 69.0471 38.8346C69.0471 38.9019 69.0691 38.9571 69.1124 39.0008C69.1556 39.0445 69.2088 39.0667 69.2712 39.0667C69.3633 39.0667 69.5037 38.9739 69.6908 38.7882C69.878 38.6025 70.0106 38.4438 70.0864 38.3126L70.2374 38.394C70.0878 38.7734 69.9843 39.093 69.9276 39.3533L70.27 39.249V39.2484ZM69.683 39.5424C69.4463 39.6453 69.2506 39.7691 69.0961 39.9137C68.9408 40.0584 68.8635 40.1895 68.8635 40.3086C68.8635 40.3705 68.8827 40.421 68.921 40.4593C68.9592 40.4983 69.0067 40.5172 69.0635 40.5172C69.1776 40.5172 69.2903 40.4411 69.4016 40.2891C69.5129 40.1371 69.6065 39.8882 69.683 39.5424Z" fill="#231F20"/>
<path d="M72.0481 38.9977L72.1417 39.0637C72.1034 39.141 72.0339 39.2144 71.9318 39.2843C71.8297 39.3543 71.7369 39.3886 71.6525 39.3886C71.4923 39.3886 71.4122 39.3086 71.4122 39.1484C71.4122 39.0738 71.4328 38.985 71.4732 38.8814L71.3222 39.0287C71.1754 39.1706 71.0485 39.2662 70.9408 39.3153C70.833 39.3644 70.7281 39.3886 70.6246 39.3886C70.5211 39.3886 70.4431 39.361 70.3899 39.3052C70.3368 39.25 70.3105 39.1733 70.3105 39.0751C70.3105 38.8948 70.3843 38.7159 70.531 38.5389C70.6778 38.362 70.8656 38.2187 71.0939 38.1077C71.3222 37.9967 71.5504 37.9402 71.7787 37.9375L71.7865 38.0653L71.6149 38.1003C71.3675 38.1521 71.1492 38.255 70.9606 38.4098C70.7721 38.5645 70.6771 38.7186 70.6771 38.8719C70.6771 39.0253 70.7423 39.102 70.8727 39.102C70.9954 39.102 71.1456 39.0206 71.325 38.8585C71.5044 38.6957 71.6539 38.5053 71.7737 38.286L71.9453 38.3829C71.7766 38.7051 71.6922 38.9103 71.6922 38.9984C71.6922 39.0347 71.705 39.065 71.7312 39.0892C71.7567 39.1141 71.783 39.1262 71.8085 39.1262C71.834 39.1262 71.851 39.1249 71.8595 39.1222C71.8673 39.1195 71.8758 39.1161 71.8836 39.1128C71.8921 39.1087 71.9021 39.1034 71.9141 39.0953C71.9262 39.0879 71.9375 39.0798 71.9467 39.0724C71.9559 39.0643 71.9715 39.0529 71.9935 39.0374C72.0155 39.022 72.0332 39.0092 72.0467 38.9984L72.0481 38.9977Z" fill="#231F20"/>
<path d="M72.8029 39.0141L72.8886 39.08C72.7965 39.2166 72.7164 39.3155 72.6504 39.376C72.5838 39.4365 72.5101 39.4668 72.4285 39.4668C72.347 39.4668 72.2804 39.4359 72.2286 39.374C72.1769 39.3121 72.1514 39.2347 72.1514 39.1419C72.1514 38.9616 72.2761 38.5727 72.5264 37.9753C72.7766 37.378 73.0333 36.8525 73.297 36.3984L73.4763 36.4913C73.2098 36.9817 72.9695 37.4681 72.7547 37.9518C72.5399 38.4355 72.4328 38.7833 72.4328 38.9946C72.4328 39.1156 72.4803 39.1762 72.5753 39.1762C72.6511 39.1762 72.7277 39.1224 72.8036 39.0134L72.8029 39.0141Z" fill="#231F20"/>
<path d="M74.3885 38.2365C74.4594 38.3475 74.4948 38.4699 74.4948 38.6038C74.4948 38.813 74.419 38.9994 74.2665 39.1629C74.1141 39.327 73.9348 39.4084 73.7285 39.4084C73.5711 39.4084 73.4477 39.3654 73.3591 39.2786C73.2705 39.1925 73.2266 39.0727 73.2266 38.9207C73.2266 38.6758 73.3272 38.4558 73.5286 38.2607C73.7299 38.0663 73.9553 37.9688 74.2056 37.9688C74.2516 37.9688 74.2843 37.9701 74.3034 37.9728L74.3155 38.1006C74.0978 38.1006 73.917 38.1598 73.7731 38.2789C73.6292 38.3973 73.5569 38.55 73.5569 38.7357C73.5569 38.8467 73.5853 38.9362 73.6427 39.0048C73.6994 39.0734 73.7831 39.107 73.8937 39.107C74.0042 39.107 74.0914 39.0606 74.1567 38.9678C74.2219 38.8749 74.2545 38.7659 74.2545 38.6408C74.2545 38.5157 74.2283 38.4013 74.1772 38.2984L74.3892 38.2365H74.3885Z" fill="#231F20"/>
<path d="M75.6723 38.0178C75.7404 38.0178 75.7957 38.04 75.8396 38.0837C75.8829 38.1274 75.9049 38.1846 75.9049 38.2539C75.9049 38.3932 75.8205 38.5405 75.6518 38.6952L75.554 38.6219C75.5922 38.5418 75.6107 38.484 75.6107 38.4477C75.6107 38.3777 75.5696 38.3434 75.488 38.3434C75.4065 38.3434 75.3292 38.3925 75.2555 38.4907C75.1818 38.5889 75.096 38.7403 74.9968 38.9455C74.8975 39.1507 74.8224 39.296 74.7706 39.3808L74.5381 39.2839C74.6877 38.9616 74.7734 38.7719 74.7947 38.7147C74.8684 38.5136 74.9046 38.2579 74.9046 37.9485L75.1329 37.8906C75.1244 38.0581 75.1123 38.188 75.096 38.2795C75.0797 38.371 75.04 38.5203 74.9776 38.7262C75.252 38.2539 75.4831 38.0178 75.6709 38.0178H75.6723Z" fill="#231F20"/>
<path d="M77.0757 38.9317L77.1692 39.0016C77.0849 39.1126 76.9693 39.2048 76.8226 39.2781C76.6758 39.3515 76.5333 39.3885 76.3944 39.3885C76.2554 39.3885 76.1441 39.3494 76.0598 39.2721C75.9754 39.1947 75.9336 39.0924 75.9336 38.9666C75.9336 38.7292 76.0662 38.4957 76.3313 38.2663C76.5964 38.0369 76.8644 37.9219 77.1366 37.9219C77.316 37.9219 77.406 37.9891 77.406 38.123C77.406 38.2569 77.3117 38.4029 77.1224 38.5448C76.9332 38.6868 76.668 38.8159 76.3249 38.9317C76.3497 38.9909 76.3873 39.0373 76.439 39.0709C76.4908 39.1046 76.544 39.1214 76.5978 39.1214C76.7148 39.1214 76.8736 39.0581 77.0749 38.9317H77.0757ZM76.3051 38.8159C76.5255 38.744 76.7141 38.6531 76.8722 38.5448C77.0296 38.4365 77.109 38.337 77.109 38.2468C77.109 38.2132 77.0955 38.1836 77.0679 38.158C77.0409 38.1324 77.009 38.119 76.9743 38.119C76.8467 38.119 76.7084 38.1943 76.5603 38.345C76.4121 38.4957 76.327 38.6525 76.3058 38.8153L76.3051 38.8159Z" fill="#231F20"/>
</g>
<defs>
<filter id="filter0_d_1850_79507" x="0.875" y="0.65625" width="115.25" height="66.25" filterUnits="userSpaceOnUse" color-interpolation-filters="sRGB">
<feFlood flood-opacity="0" result="BackgroundImageFix"/>
<feColorMatrix in="SourceAlpha" type="matrix" values="0 0 0 0 0 0 0 0 0 0 0 0 0 0 0 0 0 0 127 0" result="hardAlpha"/>
<feOffset dy="0.78125"/>
<feGaussianBlur stdDeviation="1.5625"/>
<feComposite in2="hardAlpha" operator="out"/>
<feColorMatrix type="matrix" values="0 0 0 0 0 0 0 0 0 0 0 0 0 0 0 0 0 0 0.08 0"/>
<feBlend mode="normal" in2="BackgroundImageFix" result="effect1_dropShadow_1850_79507"/>
<feBlend mode="normal" in="SourceGraphic" in2="effect1_dropShadow_1850_79507" result="shape"/>
</filter>
</defs>
</svg>
