<svg width="101" height="101" viewBox="0 0 101 101" fill="none" xmlns="http://www.w3.org/2000/svg">
<path d="M92.5215 30.6348V24.3848C92.5215 23.556 92.1922 22.7611 91.6062 22.1751C91.0201 21.589 90.2253 21.2598 89.3965 21.2598H58.1465C57.3177 21.2598 56.5228 21.589 55.9368 22.1751C55.3507 22.7611 55.0215 23.556 55.0215 24.3848V30.6348H47.209V27.5098H48.7715C49.6003 27.5098 50.3951 27.1805 50.9812 26.5945C51.5672 26.0084 51.8965 25.2136 51.8965 24.3848V8.75977C51.8965 7.93096 51.5672 7.13611 50.9812 6.55006C50.3951 5.96401 49.6003 5.63477 48.7715 5.63477H8.14648C7.31768 5.63477 6.52283 5.96401 5.93678 6.55006C5.35072 7.13611 5.02148 7.93096 5.02148 8.75977V24.3848C5.02148 25.2136 5.35072 26.0084 5.93678 26.5945C6.52283 27.1805 7.31768 27.5098 8.14648 27.5098H9.70898V30.6348H8.14648C7.31768 30.6348 6.52283 30.964 5.93678 31.5501C5.35072 32.1361 5.02148 32.931 5.02148 33.7598V40.0098C5.02148 40.8386 5.35072 41.6334 5.93678 42.2195C6.52283 42.8055 7.31768 43.1348 8.14648 43.1348H9.70898V94.6973C9.70898 95.1117 9.8736 95.5091 10.1666 95.8021C10.4597 96.0951 10.8571 96.2598 11.2715 96.2598H89.3965C89.8109 96.2598 90.2083 96.0951 90.5013 95.8021C90.7944 95.5091 90.959 95.1117 90.959 94.6973V43.1348H92.5215C93.3503 43.1348 94.1451 42.8055 94.7312 42.2195C95.3172 41.6334 95.6465 40.8386 95.6465 40.0098V33.7598C95.6465 32.931 95.3172 32.1361 94.7312 31.5501C94.1451 30.964 93.3503 30.6348 92.5215 30.6348ZM58.1465 24.3848H89.3965V30.6348H58.1465V24.3848ZM8.14648 8.75977H48.7715V24.3848H8.14648V8.75977ZM12.834 27.5098H44.084V30.6348H12.834V27.5098ZM44.084 54.0723H19.084V49.3848H44.084V54.0723ZM19.084 57.1973H30.0215V93.1348H19.084V57.1973ZM33.1465 93.1348V57.1973H44.084V93.1348H33.1465ZM53.459 93.1348V85.3223H81.584V93.1348H53.459ZM56.8512 82.1973C57.1739 81.2827 57.7724 80.4908 58.5641 79.9307C59.3557 79.3705 60.3017 79.0697 61.2715 79.0697C62.2413 79.0697 63.1872 79.3705 63.9789 79.9307C64.7706 80.4908 65.369 81.2827 65.6918 82.1973H56.8512ZM76.8965 63.4473C76.4821 63.4473 76.0846 63.6119 75.7916 63.9049C75.4986 64.1979 75.334 64.5954 75.334 65.0098V74.2785C73.2208 71.9776 72.0821 68.947 72.1574 65.8238C72.029 60.2631 73.6903 54.8081 76.8965 50.2629C80.1111 54.8037 81.7718 60.2621 81.6309 65.8238C81.7113 68.9502 80.574 71.9856 78.459 74.2895V65.0098C78.459 64.5954 78.2944 64.1979 78.0013 63.9049C77.7083 63.6119 77.3109 63.4473 76.8965 63.4473ZM87.834 93.1348H84.709V85.3223C84.709 84.4935 84.3797 83.6986 83.7937 83.1126C83.2076 82.5265 82.4128 82.1973 81.584 82.1973H78.459V78.3848C80.4696 76.9829 82.0989 75.1016 83.1992 72.9114C84.2995 70.7211 84.8362 68.291 84.7606 65.841C84.8355 53.5613 78.2699 46.9816 77.9902 46.7066C77.6982 46.4203 77.3055 46.26 76.8965 46.26C76.4875 46.26 76.0948 46.4203 75.8027 46.7066C75.523 46.9816 68.9574 53.5613 69.0324 65.841C68.9568 68.291 69.4935 70.7211 70.5938 72.9114C71.6941 75.1016 73.3233 76.9829 75.334 78.3848V82.1973H68.9277C68.5691 80.4312 67.611 78.8434 66.2156 77.7029C64.8203 76.5625 63.0736 75.9394 61.2715 75.9394C59.4694 75.9394 57.7227 76.5625 56.3273 77.7029C54.932 78.8434 53.9738 80.4312 53.6152 82.1973H53.459C52.6302 82.1973 51.8353 82.5265 51.2493 83.1126C50.6632 83.6986 50.334 84.4935 50.334 85.3223V93.1348H47.209V49.3848C47.209 48.556 46.8797 47.7611 46.2937 47.1751C45.7076 46.589 44.9128 46.2598 44.084 46.2598H19.084C18.2552 46.2598 17.4603 46.589 16.8743 47.1751C16.2882 47.7611 15.959 48.556 15.959 49.3848V93.1348H12.834V43.1348H87.834V93.1348ZM92.5215 40.0098H8.14648V33.7598H92.5215V40.0098Z" fill="#6D6D6D"/>
<path d="M22.209 18.1348H44.084C44.4984 18.1348 44.8958 17.9701 45.1888 17.6771C45.4819 17.3841 45.6465 16.9867 45.6465 16.5723C45.6465 16.1579 45.4819 15.7604 45.1888 15.4674C44.8958 15.1744 44.4984 15.0098 44.084 15.0098H22.209C21.7946 15.0098 21.3972 15.1744 21.1041 15.4674C20.8111 15.7604 20.6465 16.1579 20.6465 16.5723C20.6465 16.9867 20.8111 17.3841 21.1041 17.6771C21.3972 17.9701 21.7946 18.1348 22.209 18.1348Z" fill="#6D6D6D"/>
<path d="M12.834 18.1348H15.959C16.3734 18.1348 16.7708 17.9701 17.0638 17.6771C17.3569 17.3841 17.5215 16.9867 17.5215 16.5723C17.5215 16.1579 17.3569 15.7604 17.0638 15.4674C16.7708 15.1744 16.3734 15.0098 15.959 15.0098H12.834C12.4196 15.0098 12.0222 15.1744 11.7291 15.4674C11.4361 15.7604 11.2715 16.1579 11.2715 16.5723C11.2715 16.9867 11.4361 17.3841 11.7291 17.6771C12.0222 17.9701 12.4196 18.1348 12.834 18.1348Z" fill="#6D6D6D"/>
<path d="M25.334 71.2598C24.9196 71.2598 24.5222 71.4244 24.2291 71.7174C23.9361 72.0104 23.7715 72.4079 23.7715 72.8223V74.3848C23.7715 74.7992 23.9361 75.1966 24.2291 75.4896C24.5222 75.7826 24.9196 75.9473 25.334 75.9473C25.7484 75.9473 26.1458 75.7826 26.4388 75.4896C26.7319 75.1966 26.8965 74.7992 26.8965 74.3848V72.8223C26.8965 72.4079 26.7319 72.0104 26.4388 71.7174C26.1458 71.4244 25.7484 71.2598 25.334 71.2598Z" fill="#6D6D6D"/>
<path d="M37.834 71.2598C37.4196 71.2598 37.0222 71.4244 36.7291 71.7174C36.4361 72.0104 36.2715 72.4079 36.2715 72.8223V74.3848C36.2715 74.7992 36.4361 75.1966 36.7291 75.4896C37.0222 75.7826 37.4196 75.9473 37.834 75.9473C38.2484 75.9473 38.6458 75.7826 38.9388 75.4896C39.2319 75.1966 39.3965 74.7992 39.3965 74.3848V72.8223C39.3965 72.4079 39.2319 72.0104 38.9388 71.7174C38.6458 71.4244 38.2484 71.2598 37.834 71.2598Z" fill="#6D6D6D"/>
<path d="M53.459 55.6348H62.834C63.6628 55.6348 64.4576 55.3055 65.0437 54.7195C65.6297 54.1334 65.959 53.3386 65.959 52.5098V49.3848C65.959 48.556 65.6297 47.7611 65.0437 47.1751C64.4576 46.589 63.6628 46.2598 62.834 46.2598H53.459C52.6302 46.2598 51.8353 46.589 51.2493 47.1751C50.6632 47.7611 50.334 48.556 50.334 49.3848V52.5098C50.334 53.3386 50.6632 54.1334 51.2493 54.7195C51.8353 55.3055 52.6302 55.6348 53.459 55.6348ZM53.459 49.3848H62.834V52.5098H53.459V49.3848Z" fill="#6D6D6D"/>
<path d="M53.459 68.1348H62.834C63.6628 68.1348 64.4576 67.8055 65.0437 67.2195C65.6297 66.6334 65.959 65.8386 65.959 65.0098V61.8848C65.959 61.056 65.6297 60.2611 65.0437 59.6751C64.4576 59.089 63.6628 58.7598 62.834 58.7598H53.459C52.6302 58.7598 51.8353 59.089 51.2493 59.6751C50.6632 60.2611 50.334 61.056 50.334 61.8848V65.0098C50.334 65.8386 50.6632 66.6334 51.2493 67.2195C51.8353 67.8055 52.6302 68.1348 53.459 68.1348ZM53.459 61.8848H62.834V65.0098H53.459V61.8848Z" fill="#6D6D6D"/>
</svg>
