<svg width="101" height="101" viewBox="0 0 101 101" fill="none" xmlns="http://www.w3.org/2000/svg">
<g clip-path="url(#clip0_1530_1736)">
<path d="M97.4412 78.3686H74.6315C77.7251 75.7992 79.6992 71.9283 79.6992 67.6008V62.2395H81.0509C84.4186 62.2395 87.4347 60.3105 88.8718 57.3379C93.3751 56.8234 96.9492 53.2041 97.3944 48.6799C99.4331 47.3186 100.667 45.0444 100.667 42.5444C100.667 40.2331 99.5621 38.025 97.7138 36.6379L95.5412 35.0089C95.7089 34.4331 95.8283 33.8363 95.8283 33.2073C95.8283 31.0137 94.7251 29.0799 93.0476 27.9137L93.8412 23.9428C94.0896 22.7024 94.2154 21.4331 94.2154 20.1734C94.2154 9.57341 85.5912 0.949219 74.9912 0.949219H61.8267C51.2267 0.949219 42.6025 9.57341 42.6025 20.1734C42.6025 21.4331 42.7283 22.7024 42.9751 23.9444L43.7686 27.9137C42.0928 29.0799 40.9896 31.0137 40.9896 33.2073C40.9896 36.7653 43.8831 39.6589 47.4412 39.6589H48.0267C49.7686 46.9895 55.3541 52.8363 62.5396 54.9363L60.8493 55.6605C57.6331 57.0379 55.5509 60.175 55.5122 63.6653L53.8251 62.8218C53.3396 62.5799 52.8138 62.4395 52.2783 62.3476V59.0137C52.2783 57.2347 50.8315 55.7879 49.0525 55.7879H42.6009V49.3363C42.6009 47.5573 41.1541 46.1105 39.3751 46.1105H3.8928C2.11377 46.1105 0.666992 47.5573 0.666992 49.3363V71.917C0.666992 73.696 2.11377 75.1428 3.8928 75.1428H15.6589L15.3363 78.3686H3.8928C2.11377 78.3686 0.666992 79.8153 0.666992 81.5944V84.8202C0.666992 86.5992 2.11377 88.046 3.8928 88.046H7.11861V97.7234C7.11861 99.5024 8.56538 100.949 10.3444 100.949H90.9896C92.7686 100.949 94.2154 99.5024 94.2154 97.7234V88.046H97.4412C99.2202 88.046 100.667 86.5992 100.667 84.8202V81.5944C100.667 79.8153 99.2202 78.3686 97.4412 78.3686ZM65.5122 60.1315C66.0799 57.5734 68.3073 55.7879 70.9267 55.7879C73.9847 55.7879 76.4734 58.2766 76.4734 61.3347V66.4653L64.5847 64.3041L65.5122 60.1315ZM97.4412 42.5444C97.4412 44.1283 96.5605 45.5541 95.1315 46.2686L94.2154 46.7073V47.7234C94.2154 51.2815 91.3218 54.175 87.7638 54.175H86.6009L86.2331 55.2782C85.488 57.5121 83.4057 59.0137 81.0509 59.0137H79.3767C78.8493 57.0992 77.6912 55.4476 76.1363 54.2944C82.4186 51.7928 87.2025 46.3444 88.7912 39.6589H89.3767C91.1347 39.6589 92.7283 38.9476 93.8928 37.8041L95.7783 39.2186C96.8186 39.9992 97.4412 41.2428 97.4412 42.5444ZM92.6025 33.2073C92.6025 34.9863 91.1557 36.4331 89.3767 36.4331H89.2944C89.3363 35.8992 89.3767 35.3653 89.3767 34.8202V29.9815C91.1557 29.9815 92.6025 31.4283 92.6025 33.2073ZM47.4412 36.4331C45.6622 36.4331 44.2154 34.9863 44.2154 33.2073C44.2154 31.4283 45.6622 29.9815 47.4412 29.9815V34.8202C47.4412 35.3653 47.4815 35.8992 47.5234 36.4331H47.4412ZM47.4412 26.5202V26.7557C47.2347 26.7557 47.0412 26.7976 46.8396 26.817L46.138 23.3137C45.9315 22.2799 45.8283 21.2218 45.8283 20.1734C45.8283 11.3508 53.0041 4.17503 61.8267 4.17503H74.9912C83.8138 4.17503 90.9896 11.3508 90.9896 20.1734C90.9896 21.2218 90.8863 22.2799 90.6799 23.3105L89.9783 26.8153C89.7767 26.7976 89.5831 26.7557 89.3767 26.7557V25.2299V23.5299C89.3767 19.025 86.1718 15.1153 81.7541 14.2315L80.0154 13.8847L79.3831 17.046L81.1218 17.3944C83.4573 17.8621 85.2783 19.6105 85.9105 21.817L65.8783 20.7621C61.2347 20.5186 57.117 17.5702 55.3912 13.2541L52.396 14.4508C53.0347 16.046 53.9541 17.4718 55.0476 18.7299L51.0089 20.7492C48.8089 21.8492 47.4412 24.0605 47.4412 26.5202ZM50.667 34.8202V26.5202C50.667 25.2895 51.3509 24.1847 52.4492 23.6347L57.5654 21.0766C59.9025 22.7799 62.7154 23.8266 65.7057 23.9847L86.1509 25.0605V34.8202C86.1509 44.6024 78.1912 52.5621 68.4089 52.5621C58.6267 52.5621 50.667 44.6024 50.667 34.8202ZM58.7315 63.7637C58.7315 61.5234 60.0605 59.5057 62.1202 58.6234L62.6928 58.3783C62.5702 58.7234 62.4444 59.0653 62.3622 59.4315L60.8315 66.3218L59.0089 65.4105C58.8428 64.8766 58.7315 64.3283 58.7315 63.7637ZM61.2364 70.1347C63.0057 71.0202 64.4686 72.4831 65.3541 74.2524L68.2396 72.8089C67.2347 70.8008 65.6799 69.0847 63.7912 67.8799L63.8863 67.4557L76.2654 69.7057C75.2815 74.6379 70.9218 78.3686 65.7057 78.3686C63.5718 78.3686 61.5057 77.7428 59.7331 76.5605L50.0799 70.125C49.4363 69.696 49.0541 68.9815 49.0541 68.2089V67.767C49.0541 66.4976 50.0863 65.4653 51.3557 65.4653C51.7122 65.4653 52.067 65.5492 52.3863 65.7073L61.2364 70.1347ZM27.9331 78.3686L27.6105 75.1428H36.5993C37.1589 76.1024 38.188 76.7557 39.3767 76.7557H49.0541C50.2347 76.7557 51.2589 76.1105 51.8202 75.1621L56.6299 78.3686H27.9331ZM49.0541 62.7573C47.1557 63.6331 45.8283 65.5428 45.8283 67.767V68.2089C45.8283 70.0605 46.7476 71.7815 48.2896 72.8089L49.0541 73.317V73.5299H39.3767V59.0137H49.0541V62.7573ZM3.8928 71.917V49.3363H39.3767V55.7879C37.5976 55.7879 36.1509 57.2347 36.1509 59.0137V71.917H27.288L26.6105 65.146C26.4444 63.4879 25.0654 62.2395 23.4009 62.2395H19.8702C18.2057 62.2395 16.8251 63.4879 16.6605 65.1444L15.9815 71.917H3.8928ZM19.8686 65.4653H23.3993L24.6896 78.3686H18.5767L19.8686 65.4653ZM90.9896 97.7234H10.3444V88.046H90.9896V97.7234ZM3.8928 84.8202V81.5944H97.4412L97.4444 84.8202H3.8928Z" fill="#6D6D6D"/>
<path d="M63.57 33.2075V31.5946C63.57 28.9268 61.399 26.7559 58.7313 26.7559C56.0635 26.7559 53.8926 28.9268 53.8926 31.5946V33.2075H57.1184V31.5946C57.1184 30.7042 57.841 29.9817 58.7313 29.9817C59.6216 29.9817 60.3442 30.7042 60.3442 31.5946V33.2075H63.57Z" fill="#6D6D6D"/>
<path d="M76.4739 31.5946C76.4739 30.7042 77.1964 29.9817 78.0868 29.9817C78.9771 29.9817 79.6997 30.7042 79.6997 31.5946V33.2075H82.9255V31.5946C82.9255 28.9268 80.7545 26.7559 78.0868 26.7559C75.419 26.7559 73.248 28.9268 73.248 31.5946V33.2075H76.4739V31.5946Z" fill="#6D6D6D"/>
<path d="M73.7203 40.1328C71.9703 41.8828 69.5477 42.886 67.0735 42.886H63.5703V46.1118H67.0735C70.3977 46.1118 73.651 44.7635 76.001 42.4135L73.7203 40.1328Z" fill="#6D6D6D"/>
<path d="M7.11816 4.17578H10.344V10.6274H7.11816V4.17578Z" fill="#6D6D6D"/>
<path d="M0.666992 10.627H7.1186V13.8528H0.666992V10.627Z" fill="#6D6D6D"/>
<path d="M7.11816 13.8535H10.344V20.3051H7.11816V13.8535Z" fill="#6D6D6D"/>
<path d="M10.3447 10.627H16.7963V13.8528H10.3447V10.627Z" fill="#6D6D6D"/>
<path d="M24.8604 29.9805H28.0862V33.2063H24.8604V29.9805Z" fill="#6D6D6D"/>
<path d="M21.6348 33.207H24.8606V36.4328H21.6348V33.207Z" fill="#6D6D6D"/>
<path d="M24.8604 36.4336H28.0862V39.6594H24.8604V36.4336Z" fill="#6D6D6D"/>
<path d="M28.0859 33.207H31.3117V36.4328H28.0859V33.207Z" fill="#6D6D6D"/>
<path d="M29.6992 0.949219H32.925V4.17502H29.6992V0.949219Z" fill="#6D6D6D"/>
<path d="M26.4736 4.17578H29.6994V7.40159H26.4736V4.17578Z" fill="#6D6D6D"/>
<path d="M29.6992 7.40039H32.925V10.6262H29.6992V7.40039Z" fill="#6D6D6D"/>
<path d="M32.9248 4.17578H36.1506V7.40159H32.9248V4.17578Z" fill="#6D6D6D"/>
<path d="M28.0859 21.9168C28.0859 24.5846 30.2569 26.7555 32.9246 26.7555C35.5924 26.7555 37.7634 24.5846 37.7634 21.9168C37.7634 19.2491 35.5924 17.0781 32.9246 17.0781C30.2569 17.0781 28.0859 19.2491 28.0859 21.9168ZM34.5375 21.9168C34.5375 22.8072 33.815 23.5297 32.9246 23.5297C32.0343 23.5297 31.3117 22.8072 31.3117 21.9168C31.3117 21.0265 32.0343 20.3039 32.9246 20.3039C33.815 20.3039 34.5375 21.0265 34.5375 21.9168Z" fill="#6D6D6D"/>
<path d="M5.5057 39.6579C8.17344 39.6579 10.3444 37.4869 10.3444 34.8192C10.3444 32.1514 8.17344 29.9805 5.5057 29.9805C2.83796 29.9805 0.666992 32.1514 0.666992 34.8192C0.666992 37.4869 2.83796 39.6579 5.5057 39.6579ZM5.5057 33.2063C6.39602 33.2063 7.1186 33.9289 7.1186 34.8192C7.1186 35.7095 6.39602 36.4321 5.5057 36.4321C4.61538 36.4321 3.8928 35.7095 3.8928 34.8192C3.8928 33.9289 4.61538 33.2063 5.5057 33.2063Z" fill="#6D6D6D"/>
<path d="M13.5703 39.6582H16.7961V42.884H13.5703V39.6582Z" fill="#6D6D6D"/>
<path d="M16.7959 0.949219H20.0217V4.17502H16.7959V0.949219Z" fill="#6D6D6D"/>
<path d="M16.7959 23.5312H20.0217V26.7571H16.7959V23.5312Z" fill="#6D6D6D"/>
</g>
<defs>
<clipPath id="clip0_1530_1736">
<rect width="100" height="100" fill="white" transform="translate(0.666992 0.949219)"/>
</clipPath>
</defs>
</svg>
