<svg width="101" height="101" viewBox="0 0 101 101" fill="none" xmlns="http://www.w3.org/2000/svg">
<g clip-path="url(#clip0_1530_1769)">
<path d="M50.334 62.7734C54.379 62.7734 57.6582 59.4943 57.6582 55.4492C57.6582 51.4042 54.379 48.125 50.334 48.125C46.2889 48.125 43.0098 51.4042 43.0098 55.4492C43.0098 59.4943 46.2889 62.7734 50.334 62.7734Z" stroke="#6D6D6D" stroke-width="2.92971" stroke-miterlimit="22.9256"/>
<path d="M68.1074 93.926H65.1777M62.248 93.926H22.3066V90.9961C22.3066 89.3848 23.625 88.0664 25.2363 88.0664H75.4316C77.043 88.0664 78.3613 89.3852 78.3613 90.9961V93.926H71.0371" stroke="#6D6D6D" stroke-width="2.92971" stroke-miterlimit="22.9256"/>
<path fill-rule="evenodd" clip-rule="evenodd" d="M1.79883 39.3359H36.9551V42.2656C36.9551 43.8768 35.6365 45.1953 34.0254 45.1953H4.72852C3.11738 45.1953 1.79883 43.877 1.79883 42.2656V39.3359Z" stroke="#6D6D6D" stroke-width="2.92971" stroke-miterlimit="22.9256"/>
<path fill-rule="evenodd" clip-rule="evenodd" d="M98.8691 39.3359H63.7129V42.2656C63.7129 43.8768 65.0314 45.1953 66.6426 45.1953H95.9395C97.5506 45.1953 98.8691 43.877 98.8691 42.2656V39.3359Z" stroke="#6D6D6D" stroke-width="2.92971" stroke-miterlimit="22.9256"/>
<path d="M78.3613 45.1953V52.5191H57.0482M22.3066 45.1953V52.5191H43.6197M41.8656 58.3785H19.377C17.7656 58.3785 16.4473 57.0602 16.4473 55.4488V45.1953M58.8021 58.3785H81.291C82.9023 58.3785 84.2207 57.0602 84.2207 55.4488V45.1953" stroke="#6D6D6D" stroke-width="2.92971" stroke-miterlimit="22.9256"/>
<path d="M34.0254 39.3357V23.2225L19.377 8.57422L13.0885 14.8625M11.017 16.9342L4.72852 23.2225V39.3357" stroke="#6D6D6D" stroke-width="2.92971" stroke-miterlimit="22.9256"/>
<path d="M14.9824 39.3357V27.6172H23.7715V39.3357" stroke="#6D6D6D" stroke-width="2.92971" stroke-miterlimit="22.9256"/>
<path d="M69.5723 39.3359C67.9611 39.3359 66.6426 38.0174 66.6426 36.4062V18.8281H95.9395V36.4062C95.9395 38.0176 94.6209 39.3359 93.0098 39.3359" stroke="#6D6D6D" stroke-width="2.92971" stroke-miterlimit="22.9256"/>
<path d="M66.6426 24.6875L81.2912 30.5471L95.9396 24.6875" stroke="#6D6D6D" stroke-width="2.92971" stroke-miterlimit="22.9256"/>
<path d="M76.1641 18.8281V15.8984C76.1641 14.2873 77.4828 12.9688 79.0938 12.9688H83.4883C85.0992 12.9688 86.418 14.2871 86.418 15.8984V18.8281" stroke="#6D6D6D" stroke-width="2.92971" stroke-miterlimit="22.9256"/>
<path d="M29.6309 88.0666V85.1367C29.6309 83.5254 30.9492 82.207 32.5605 82.207H68.1076C69.7189 82.207 71.0373 83.5262 71.0373 85.1367V88.0666" stroke="#6D6D6D" stroke-width="2.92971" stroke-miterlimit="22.9256"/>
<path d="M43.0098 55.4492L32.5605 82.207M57.6582 55.4492L68.1074 82.207" stroke="#6D6D6D" stroke-width="2.92971" stroke-miterlimit="22.9256"/>
<path d="M57.0246 69.9342L55.959 67.2051M59.1561 75.3922L58.0904 72.6631" stroke="#6D6D6D" stroke-width="2.92971" stroke-miterlimit="22.9256"/>
</g>
<defs>
<clipPath id="clip0_1530_1769">
<rect width="100" height="100" fill="white" transform="translate(0.333984 0.949219)"/>
</clipPath>
</defs>
</svg>
