<svg width="29" height="29" viewBox="0 0 29 29" fill="none" xmlns="http://www.w3.org/2000/svg">
<path d="M28.8799 0.257812V28.2578H0.879883V0.257812H28.8799Z" fill="white" fill-opacity="0.01"/>
<path d="M4.68902 8.98359C4.82833 7.62256 5.91176 6.57269 7.27506 6.45771C9.23638 6.29228 12.1574 6.09375 14.8799 6.09375C17.6024 6.09375 20.5234 6.29228 22.4847 6.45771C23.848 6.57269 24.9314 7.62256 25.0707 8.98359C25.2222 10.4629 25.3799 12.4405 25.3799 14.2604C25.3799 16.0803 25.2222 18.058 25.0707 19.5372C24.9314 20.8983 23.848 21.9481 22.4847 22.0631C20.5234 22.2285 17.6024 22.4271 14.8799 22.4271C12.1574 22.4271 9.23638 22.2285 7.27506 22.0631C5.91176 21.9481 4.82833 20.8983 4.68902 19.5372C4.5376 18.058 4.37988 16.0803 4.37988 14.2604C4.37988 12.4405 4.5376 10.4629 4.68902 8.98359Z" stroke="#6D6D6D" stroke-width="1.5"/>
<path d="M18.3464 14.2604L18.2714 14.1305L18.2711 14.1306C18.2712 14.1306 18.2713 14.1306 18.2714 14.1305L18.3464 14.2604ZM18.3464 14.2604L18.2714 14.3903L18.2711 14.3902C18.2712 14.3902 18.2713 14.3903 18.2714 14.3903L18.3464 14.2604ZM18.0464 14.2604L13.2964 17.0028L13.2964 11.518L18.0464 14.2604Z" stroke="#6D6D6D" stroke-width="1.5"/>
</svg>
